%TF.GenerationSoftware,KiCad,Pcbnew,9.0.3*%
%TF.CreationDate,2025-09-24T00:53:28-07:00*%
%TF.ProjectId,PGS_USBW_Board,5047535f-5553-4425-975f-426f6172642e,rev?*%
%TF.SameCoordinates,Original*%
%TF.FileFunction,Soldermask,Bot*%
%TF.FilePolarity,Negative*%
%FSLAX46Y46*%
G04 Gerber Fmt 4.6, Leading zero omitted, Abs format (unit mm)*
G04 Created by KiCad (PCBNEW 9.0.3) date 2025-09-24 00:53:28*
%MOMM*%
%LPD*%
G01*
G04 APERTURE LIST*
G04 Aperture macros list*
%AMRoundRect*
0 Rectangle with rounded corners*
0 $1 Rounding radius*
0 $2 $3 $4 $5 $6 $7 $8 $9 X,Y pos of 4 corners*
0 Add a 4 corners polygon primitive as box body*
4,1,4,$2,$3,$4,$5,$6,$7,$8,$9,$2,$3,0*
0 Add four circle primitives for the rounded corners*
1,1,$1+$1,$2,$3*
1,1,$1+$1,$4,$5*
1,1,$1+$1,$6,$7*
1,1,$1+$1,$8,$9*
0 Add four rect primitives between the rounded corners*
20,1,$1+$1,$2,$3,$4,$5,0*
20,1,$1+$1,$4,$5,$6,$7,0*
20,1,$1+$1,$6,$7,$8,$9,0*
20,1,$1+$1,$8,$9,$2,$3,0*%
G04 Aperture macros list end*
%ADD10C,0.100000*%
%ADD11C,0.650000*%
%ADD12O,0.950000X0.650000*%
%ADD13C,0.600000*%
%ADD14O,0.800000X1.400000*%
%ADD15C,1.000000*%
%ADD16RoundRect,0.250000X0.625000X-0.350000X0.625000X0.350000X-0.625000X0.350000X-0.625000X-0.350000X0*%
%ADD17O,1.750000X1.200000*%
G04 APERTURE END LIST*
D10*
G36*
X89027821Y-47700000D02*
G01*
X88833220Y-47700000D01*
X88833220Y-47361906D01*
X88617615Y-47361906D01*
X88578764Y-47359981D01*
X88542143Y-47354323D01*
X88508116Y-47345186D01*
X88476517Y-47332713D01*
X88447586Y-47317150D01*
X88421291Y-47298618D01*
X88377055Y-47253302D01*
X88344597Y-47197792D01*
X88324999Y-47133024D01*
X88319455Y-47070830D01*
X88319748Y-47065212D01*
X88490242Y-47065212D01*
X88492229Y-47093048D01*
X88498319Y-47118534D01*
X88507349Y-47138965D01*
X88519922Y-47157032D01*
X88534971Y-47171549D01*
X88553338Y-47183608D01*
X88600137Y-47199521D01*
X88648450Y-47203698D01*
X88833220Y-47203698D01*
X88833220Y-46930940D01*
X88648450Y-46930940D01*
X88614861Y-46932848D01*
X88585612Y-46938390D01*
X88561721Y-46946769D01*
X88541495Y-46957945D01*
X88525185Y-46971312D01*
X88512133Y-46986898D01*
X88495094Y-47024833D01*
X88490242Y-47065212D01*
X88319748Y-47065212D01*
X88321388Y-47033755D01*
X88327102Y-46998099D01*
X88336447Y-46964175D01*
X88349304Y-46932155D01*
X88365386Y-46902546D01*
X88384671Y-46875288D01*
X88406693Y-46850955D01*
X88431588Y-46829367D01*
X88458773Y-46811029D01*
X88488513Y-46795787D01*
X88520237Y-46784003D01*
X88554230Y-46775651D01*
X88617615Y-46769923D01*
X89027821Y-46769923D01*
X89027821Y-47700000D01*
G37*
G36*
X88094263Y-47700000D02*
G01*
X88094263Y-47341390D01*
X88092306Y-47307089D01*
X88086418Y-47276708D01*
X88077774Y-47252802D01*
X88065935Y-47232066D01*
X88051935Y-47215529D01*
X88035104Y-47201786D01*
X87992934Y-47182724D01*
X87935743Y-47174795D01*
X87927629Y-47174694D01*
X87877254Y-47178907D01*
X87877254Y-46992672D01*
X87901067Y-46992672D01*
X87961849Y-46996249D01*
X87991283Y-47002547D01*
X88019959Y-47013473D01*
X88043202Y-47026985D01*
X88065806Y-47045256D01*
X88105437Y-47093483D01*
X88105437Y-47012212D01*
X88276224Y-47012212D01*
X88276224Y-47700000D01*
X88094263Y-47700000D01*
G37*
G36*
X87572960Y-46994605D02*
G01*
X87613522Y-47000320D01*
X87651003Y-47009495D01*
X87686045Y-47022078D01*
X87718139Y-47037719D01*
X87747681Y-47056446D01*
X87774433Y-47078010D01*
X87798489Y-47102399D01*
X87838283Y-47159416D01*
X87866435Y-47227335D01*
X87881810Y-47306093D01*
X87884275Y-47356106D01*
X87882336Y-47400467D01*
X87876573Y-47442679D01*
X87867340Y-47481656D01*
X87854622Y-47518262D01*
X87838938Y-47551528D01*
X87820089Y-47582241D01*
X87798648Y-47609684D01*
X87774314Y-47634402D01*
X87747548Y-47655978D01*
X87718102Y-47674636D01*
X87686164Y-47690192D01*
X87651697Y-47702590D01*
X87574941Y-47717435D01*
X87530062Y-47719539D01*
X87487950Y-47717606D01*
X87448067Y-47711891D01*
X87411100Y-47702698D01*
X87376493Y-47690084D01*
X87344711Y-47674376D01*
X87315427Y-47655562D01*
X87264950Y-47609319D01*
X87225378Y-47551887D01*
X87197442Y-47483482D01*
X87182340Y-47404252D01*
X87180062Y-47356106D01*
X87363428Y-47356106D01*
X87365380Y-47399111D01*
X87371228Y-47437216D01*
X87379796Y-47467272D01*
X87391491Y-47493373D01*
X87404972Y-47513851D01*
X87421074Y-47530996D01*
X87459379Y-47554599D01*
X87508355Y-47565982D01*
X87530062Y-47566948D01*
X87560479Y-47564994D01*
X87587853Y-47559132D01*
X87610329Y-47550295D01*
X87630220Y-47538155D01*
X87661285Y-47505383D01*
X87683050Y-47459081D01*
X87695046Y-47395154D01*
X87696636Y-47356106D01*
X87694684Y-47313126D01*
X87688834Y-47275131D01*
X87680284Y-47245284D01*
X87668616Y-47219412D01*
X87655168Y-47199147D01*
X87639106Y-47182206D01*
X87600799Y-47158886D01*
X87551588Y-47147659D01*
X87530062Y-47146728D01*
X87499338Y-47148685D01*
X87471718Y-47154566D01*
X87449181Y-47163395D01*
X87429254Y-47175534D01*
X87398300Y-47208221D01*
X87376716Y-47254400D01*
X87364918Y-47318296D01*
X87363428Y-47356106D01*
X87180062Y-47356106D01*
X87181998Y-47311185D01*
X87187735Y-47268657D01*
X87196913Y-47229521D01*
X87209520Y-47192922D01*
X87225075Y-47159688D01*
X87243721Y-47129115D01*
X87264975Y-47101765D01*
X87289035Y-47077206D01*
X87315574Y-47055721D01*
X87344697Y-47037195D01*
X87410464Y-47009413D01*
X87486416Y-46994709D01*
X87530062Y-46992672D01*
X87572960Y-46994605D01*
G37*
G36*
X86264823Y-47699084D02*
G01*
X86264823Y-47199790D01*
X86652620Y-47199790D01*
X86652620Y-47355190D01*
X86446845Y-47355190D01*
X86454358Y-47409638D01*
X86476590Y-47460553D01*
X86512705Y-47505049D01*
X86535442Y-47523808D01*
X86560790Y-47539622D01*
X86588262Y-47552108D01*
X86617751Y-47561093D01*
X86673625Y-47567498D01*
X86705693Y-47565589D01*
X86735459Y-47560040D01*
X86788751Y-47538806D01*
X86834673Y-47504505D01*
X86873450Y-47456837D01*
X86904065Y-47395417D01*
X86924275Y-47321327D01*
X86931240Y-47241800D01*
X86929312Y-47191024D01*
X86923631Y-47144112D01*
X86914734Y-47102556D01*
X86902624Y-47064708D01*
X86888047Y-47031794D01*
X86870740Y-47002421D01*
X86851494Y-46977390D01*
X86829918Y-46955767D01*
X86806584Y-46937900D01*
X86781222Y-46923398D01*
X86724808Y-46904647D01*
X86672220Y-46899677D01*
X86612641Y-46907111D01*
X86556804Y-46929039D01*
X86532028Y-46944879D01*
X86510243Y-46963445D01*
X86492327Y-46983832D01*
X86478099Y-47006171D01*
X86468443Y-47028732D01*
X86462789Y-47052486D01*
X86462233Y-47056786D01*
X86266228Y-47056786D01*
X86278989Y-46988345D01*
X86306194Y-46925334D01*
X86347377Y-46868697D01*
X86402071Y-46819875D01*
X86469438Y-46780759D01*
X86548003Y-46753445D01*
X86590861Y-46744833D01*
X86635634Y-46739880D01*
X86672220Y-46738660D01*
X86720081Y-46740587D01*
X86765367Y-46746263D01*
X86807730Y-46755438D01*
X86847535Y-46767987D01*
X86884769Y-46783755D01*
X86919423Y-46802586D01*
X86981503Y-46849328D01*
X87033848Y-46907920D01*
X87076008Y-46978295D01*
X87106998Y-47060284D01*
X87125418Y-47153270D01*
X87130054Y-47233435D01*
X87122378Y-47329918D01*
X87112827Y-47377108D01*
X87099610Y-47422809D01*
X87082944Y-47466434D01*
X87062869Y-47507914D01*
X87040033Y-47546099D01*
X87014137Y-47581598D01*
X86986306Y-47613048D01*
X86955801Y-47641416D01*
X86924077Y-47665492D01*
X86890051Y-47686216D01*
X86855238Y-47702746D01*
X86818440Y-47715722D01*
X86780966Y-47724694D01*
X86741761Y-47729917D01*
X86708613Y-47731263D01*
X86664178Y-47729332D01*
X86621927Y-47723633D01*
X86582881Y-47714485D01*
X86546736Y-47701957D01*
X86515164Y-47686896D01*
X86486960Y-47668969D01*
X86463796Y-47649581D01*
X86444208Y-47627854D01*
X86430054Y-47606699D01*
X86425840Y-47700000D01*
X86264823Y-47699084D01*
G37*
G36*
X85574105Y-47379919D02*
G01*
X85584500Y-47416512D01*
X85598072Y-47449299D01*
X85613414Y-47476054D01*
X85631476Y-47499370D01*
X85651011Y-47518121D01*
X85672981Y-47533647D01*
X85722986Y-47554373D01*
X85783347Y-47561872D01*
X85785497Y-47561880D01*
X85817461Y-47559941D01*
X85846999Y-47554183D01*
X85873093Y-47545136D01*
X85896946Y-47532724D01*
X85937634Y-47498457D01*
X85970288Y-47450377D01*
X85994705Y-47386013D01*
X86009313Y-47302164D01*
X86012337Y-47234289D01*
X86010375Y-47179818D01*
X86004459Y-47129624D01*
X85995554Y-47087688D01*
X85983272Y-47049677D01*
X85969039Y-47018467D01*
X85951918Y-46990817D01*
X85933384Y-46968415D01*
X85912308Y-46949305D01*
X85889705Y-46934179D01*
X85864728Y-46922264D01*
X85807896Y-46908469D01*
X85775727Y-46906699D01*
X85720947Y-46914339D01*
X85670461Y-46936847D01*
X85647724Y-46953394D01*
X85627117Y-46973271D01*
X85609026Y-46996219D01*
X85593644Y-47022194D01*
X85574105Y-47074677D01*
X85379504Y-47074677D01*
X85385230Y-47035767D01*
X85394680Y-46998244D01*
X85407690Y-46962505D01*
X85424208Y-46928588D01*
X85443943Y-46897005D01*
X85466947Y-46867646D01*
X85492800Y-46841038D01*
X85521676Y-46817024D01*
X85553086Y-46796054D01*
X85587284Y-46778024D01*
X85623802Y-46763268D01*
X85662895Y-46751785D01*
X85704199Y-46743814D01*
X85747890Y-46739460D01*
X85777131Y-46738660D01*
X85822606Y-46740600D01*
X85865976Y-46746367D01*
X85906336Y-46755645D01*
X85944526Y-46768440D01*
X85979977Y-46784419D01*
X86013174Y-46803668D01*
X86072248Y-46851410D01*
X86121790Y-46911593D01*
X86161381Y-46984581D01*
X86190081Y-47070941D01*
X86206487Y-47171202D01*
X86209747Y-47245464D01*
X86207819Y-47300494D01*
X86202144Y-47352304D01*
X86193044Y-47400177D01*
X86180615Y-47444891D01*
X86165215Y-47485953D01*
X86146862Y-47523898D01*
X86125853Y-47558490D01*
X86102221Y-47589977D01*
X86076088Y-47618364D01*
X86047618Y-47643609D01*
X85983608Y-47684937D01*
X85910533Y-47713649D01*
X85828762Y-47728959D01*
X85779940Y-47731263D01*
X85736803Y-47729330D01*
X85695690Y-47723621D01*
X85656974Y-47714354D01*
X85620386Y-47701625D01*
X85586021Y-47685579D01*
X85553914Y-47666331D01*
X85496349Y-47618333D01*
X85448120Y-47557870D01*
X85410107Y-47485042D01*
X85383613Y-47400081D01*
X85379504Y-47379919D01*
X85574105Y-47379919D01*
G37*
G36*
X84716324Y-47379919D02*
G01*
X84726719Y-47416512D01*
X84740291Y-47449299D01*
X84755633Y-47476054D01*
X84773696Y-47499370D01*
X84793230Y-47518121D01*
X84815200Y-47533647D01*
X84865205Y-47554373D01*
X84925566Y-47561872D01*
X84927716Y-47561880D01*
X84959680Y-47559941D01*
X84989218Y-47554183D01*
X85015312Y-47545136D01*
X85039165Y-47532724D01*
X85079853Y-47498457D01*
X85112507Y-47450377D01*
X85136924Y-47386013D01*
X85151532Y-47302164D01*
X85154556Y-47234289D01*
X85152595Y-47179818D01*
X85146678Y-47129624D01*
X85137773Y-47087688D01*
X85125491Y-47049677D01*
X85111258Y-47018467D01*
X85094137Y-46990817D01*
X85075603Y-46968415D01*
X85054527Y-46949305D01*
X85031924Y-46934179D01*
X85006948Y-46922264D01*
X84950116Y-46908469D01*
X84917946Y-46906699D01*
X84863167Y-46914339D01*
X84812680Y-46936847D01*
X84789943Y-46953394D01*
X84769336Y-46973271D01*
X84751245Y-46996219D01*
X84735863Y-47022194D01*
X84716324Y-47074677D01*
X84521723Y-47074677D01*
X84527449Y-47035767D01*
X84536899Y-46998244D01*
X84549909Y-46962505D01*
X84566427Y-46928588D01*
X84586162Y-46897005D01*
X84609166Y-46867646D01*
X84635020Y-46841038D01*
X84663896Y-46817024D01*
X84695305Y-46796054D01*
X84729503Y-46778024D01*
X84766021Y-46763268D01*
X84805114Y-46751785D01*
X84846418Y-46743814D01*
X84890110Y-46739460D01*
X84919351Y-46738660D01*
X84964825Y-46740600D01*
X85008195Y-46746367D01*
X85048555Y-46755645D01*
X85086745Y-46768440D01*
X85122196Y-46784419D01*
X85155393Y-46803668D01*
X85214467Y-46851410D01*
X85264009Y-46911593D01*
X85303600Y-46984581D01*
X85332300Y-47070941D01*
X85348706Y-47171202D01*
X85351966Y-47245464D01*
X85350038Y-47300494D01*
X85344363Y-47352304D01*
X85335263Y-47400177D01*
X85322834Y-47444891D01*
X85307434Y-47485953D01*
X85289081Y-47523898D01*
X85268072Y-47558490D01*
X85244440Y-47589977D01*
X85218307Y-47618364D01*
X85189837Y-47643609D01*
X85125827Y-47684937D01*
X85052752Y-47713649D01*
X84970981Y-47728959D01*
X84922159Y-47731263D01*
X84879023Y-47729330D01*
X84837909Y-47723621D01*
X84799193Y-47714354D01*
X84762605Y-47701625D01*
X84728240Y-47685579D01*
X84696133Y-47666331D01*
X84638568Y-47618333D01*
X84590339Y-47557870D01*
X84552326Y-47485042D01*
X84525832Y-47400081D01*
X84521723Y-47379919D01*
X84716324Y-47379919D01*
G37*
G36*
X84172517Y-47338642D02*
G01*
X84172517Y-47496789D01*
X83811282Y-47496789D01*
X83811282Y-47700000D01*
X83629321Y-47700000D01*
X83629321Y-47496789D01*
X83524296Y-47496789D01*
X83524296Y-47355434D01*
X83629321Y-47355434D01*
X83807130Y-47355434D01*
X83997517Y-47355434D01*
X83807130Y-47027660D01*
X83807130Y-47355434D01*
X83629321Y-47355434D01*
X83629321Y-46769923D01*
X83833691Y-46769923D01*
X84172517Y-47338642D01*
G37*
G36*
X82592388Y-47389811D02*
G01*
X82594343Y-47425375D01*
X82600217Y-47456972D01*
X82608882Y-47482088D01*
X82620749Y-47504020D01*
X82634830Y-47521748D01*
X82651751Y-47536696D01*
X82694098Y-47558303D01*
X82751316Y-47569292D01*
X82778562Y-47570307D01*
X82807184Y-47568379D01*
X82833381Y-47562700D01*
X82856350Y-47553773D01*
X82876874Y-47541617D01*
X82910000Y-47508547D01*
X82932890Y-47463469D01*
X82944292Y-47405547D01*
X82945136Y-47382789D01*
X82945136Y-46769923D01*
X83142545Y-46769923D01*
X83142545Y-47400985D01*
X83140609Y-47444951D01*
X83134873Y-47485690D01*
X83125885Y-47521801D01*
X83113587Y-47554973D01*
X83098515Y-47584477D01*
X83080480Y-47611226D01*
X83036123Y-47656333D01*
X82979891Y-47691306D01*
X82910251Y-47716065D01*
X82825217Y-47729448D01*
X82775753Y-47731263D01*
X82722825Y-47729312D01*
X82673512Y-47723471D01*
X82630513Y-47714445D01*
X82590856Y-47702011D01*
X82556497Y-47687132D01*
X82525249Y-47669232D01*
X82498270Y-47649249D01*
X82474255Y-47626513D01*
X82453667Y-47601596D01*
X82436020Y-47574060D01*
X82409684Y-47510965D01*
X82395597Y-47435478D01*
X82393574Y-47389811D01*
X82393574Y-46769923D01*
X82592388Y-46769923D01*
X82592388Y-47389811D01*
G37*
G36*
X81611692Y-47043902D02*
G01*
X81615121Y-47006426D01*
X81622352Y-46970678D01*
X81633015Y-46937666D01*
X81647201Y-46906615D01*
X81664483Y-46878240D01*
X81685067Y-46852050D01*
X81708654Y-46828425D01*
X81735398Y-46807230D01*
X81765292Y-46788591D01*
X81798270Y-46772677D01*
X81874197Y-46749420D01*
X81963851Y-46739027D01*
X81985505Y-46738660D01*
X82033974Y-46740585D01*
X82078720Y-46746244D01*
X82118594Y-46755146D01*
X82154960Y-46767245D01*
X82187029Y-46781962D01*
X82215764Y-46799420D01*
X82240802Y-46819145D01*
X82262609Y-46841243D01*
X82296537Y-46892023D01*
X82317793Y-46951770D01*
X82325658Y-47020793D01*
X82325675Y-47024302D01*
X82323736Y-47060628D01*
X82317985Y-47093646D01*
X82309092Y-47122097D01*
X82296935Y-47147943D01*
X82263427Y-47192259D01*
X82215487Y-47229998D01*
X82170275Y-47253890D01*
X82080758Y-47285747D01*
X81915469Y-47325270D01*
X81870322Y-47337040D01*
X81835194Y-47350473D01*
X81812302Y-47363316D01*
X81795228Y-47377475D01*
X81784082Y-47391680D01*
X81776735Y-47407073D01*
X81771304Y-47442873D01*
X81773242Y-47466525D01*
X81778988Y-47488090D01*
X81788001Y-47506753D01*
X81800349Y-47523325D01*
X81834920Y-47549995D01*
X81884524Y-47567817D01*
X81951861Y-47574520D01*
X81989683Y-47572592D01*
X82024301Y-47566912D01*
X82054222Y-47558108D01*
X82080806Y-47546149D01*
X82102768Y-47532006D01*
X82121378Y-47515261D01*
X82135893Y-47496910D01*
X82147036Y-47476386D01*
X82154555Y-47454219D01*
X82158540Y-47430153D01*
X82159101Y-47420464D01*
X82346680Y-47420464D01*
X82343962Y-47459393D01*
X82337525Y-47495688D01*
X82327770Y-47528623D01*
X82314720Y-47559054D01*
X82279475Y-47612156D01*
X82231876Y-47656033D01*
X82171089Y-47690873D01*
X82095811Y-47715895D01*
X82004859Y-47729455D01*
X81953265Y-47731263D01*
X81899590Y-47729295D01*
X81848953Y-47723338D01*
X81805066Y-47714196D01*
X81764328Y-47701500D01*
X81729721Y-47686557D01*
X81698232Y-47668475D01*
X81671857Y-47648738D01*
X81648543Y-47626186D01*
X81629341Y-47602057D01*
X81613210Y-47575302D01*
X81600536Y-47546540D01*
X81591079Y-47515196D01*
X81582347Y-47444238D01*
X81582260Y-47435912D01*
X81584166Y-47398398D01*
X81589689Y-47365064D01*
X81598282Y-47336268D01*
X81609771Y-47310838D01*
X81641018Y-47268180D01*
X81684615Y-47233311D01*
X81727890Y-47210476D01*
X81816746Y-47178167D01*
X82003702Y-47129265D01*
X82050642Y-47115798D01*
X82087571Y-47100423D01*
X82109869Y-47086774D01*
X82126744Y-47071445D01*
X82137298Y-47056478D01*
X82144135Y-47039901D01*
X82147866Y-47011662D01*
X82145919Y-46990358D01*
X82140104Y-46971209D01*
X82131110Y-46955176D01*
X82118745Y-46941168D01*
X82083398Y-46919164D01*
X82030293Y-46905542D01*
X81981292Y-46902486D01*
X81941912Y-46904444D01*
X81907501Y-46910341D01*
X81881141Y-46918846D01*
X81858471Y-46930466D01*
X81840723Y-46943993D01*
X81825983Y-46960214D01*
X81805386Y-47000393D01*
X81796461Y-47043902D01*
X81611692Y-47043902D01*
G37*
G36*
X81535427Y-47700000D02*
G01*
X81116856Y-47700000D01*
X81064509Y-47698067D01*
X81016508Y-47692358D01*
X80974785Y-47683520D01*
X80936975Y-47671482D01*
X80904442Y-47657072D01*
X80875462Y-47639934D01*
X80850753Y-47620818D01*
X80829354Y-47599324D01*
X80796689Y-47550102D01*
X80776624Y-47491632D01*
X80769665Y-47423028D01*
X80770358Y-47409045D01*
X80958647Y-47409045D01*
X80960579Y-47433382D01*
X80966282Y-47456067D01*
X80975384Y-47476361D01*
X80987840Y-47494471D01*
X81003179Y-47509809D01*
X81021496Y-47522480D01*
X81042478Y-47532134D01*
X81066153Y-47538616D01*
X81101468Y-47541852D01*
X81347848Y-47541852D01*
X81347848Y-47291564D01*
X81098660Y-47291564D01*
X81065665Y-47293538D01*
X81036564Y-47299539D01*
X81014636Y-47308127D01*
X80996050Y-47319930D01*
X80982271Y-47333444D01*
X80971516Y-47349713D01*
X80959753Y-47389625D01*
X80958647Y-47409045D01*
X80770358Y-47409045D01*
X80771568Y-47384616D01*
X80777080Y-47350314D01*
X80785687Y-47320481D01*
X80797185Y-47294154D01*
X80828059Y-47250809D01*
X80869599Y-47217658D01*
X80911020Y-47197775D01*
X80867041Y-47171376D01*
X80847536Y-47152907D01*
X80830670Y-47131553D01*
X80816907Y-47107778D01*
X80806549Y-47081807D01*
X80800148Y-47054941D01*
X80798140Y-47032178D01*
X80985270Y-47032178D01*
X80987216Y-47055799D01*
X80993019Y-47076386D01*
X81001645Y-47092488D01*
X81013407Y-47105981D01*
X81045522Y-47124743D01*
X81092450Y-47133135D01*
X81102812Y-47133356D01*
X81347848Y-47133356D01*
X81347848Y-46930940D01*
X81114047Y-46930940D01*
X81076994Y-46932935D01*
X81046671Y-46939085D01*
X81027040Y-46947171D01*
X81011375Y-46958206D01*
X81000557Y-46970739D01*
X80992703Y-46985846D01*
X80985373Y-47025836D01*
X80985270Y-47032178D01*
X80798140Y-47032178D01*
X80797651Y-47026629D01*
X80797630Y-47023752D01*
X80799577Y-46986817D01*
X80805386Y-46952318D01*
X80814479Y-46921814D01*
X80827003Y-46893757D01*
X80842306Y-46869104D01*
X80860732Y-46846938D01*
X80881922Y-46827616D01*
X80906079Y-46810908D01*
X80963769Y-46785533D01*
X81035307Y-46771810D01*
X81077655Y-46769923D01*
X81535427Y-46769923D01*
X81535427Y-47700000D01*
G37*
G36*
X80337599Y-47551500D02*
G01*
X80337599Y-47285764D01*
X80072962Y-47285764D01*
X80072962Y-47154178D01*
X80337599Y-47154178D01*
X80337599Y-46891067D01*
X80469185Y-46891067D01*
X80469185Y-47154178D01*
X80732356Y-47154178D01*
X80732356Y-47285764D01*
X80469185Y-47285764D01*
X80469185Y-47551500D01*
X80337599Y-47551500D01*
G37*
G36*
X79104600Y-47700000D02*
G01*
X78844237Y-46769923D01*
X79043051Y-46769923D01*
X79194237Y-47372287D01*
X79335593Y-46769923D01*
X79540024Y-46769923D01*
X79668801Y-47372287D01*
X79821392Y-46769923D01*
X80028632Y-46769923D01*
X79765399Y-47700000D01*
X79583438Y-47700000D01*
X79436404Y-47094949D01*
X79292240Y-47700000D01*
X79104600Y-47700000D01*
G37*
G36*
X77564221Y-47700000D02*
G01*
X77564221Y-46769923D01*
X77844185Y-46769923D01*
X78012224Y-47452093D01*
X78180202Y-46769923D01*
X78465783Y-46769923D01*
X78465783Y-47700000D01*
X78285165Y-47700000D01*
X78285165Y-47065518D01*
X78112974Y-47700000D01*
X77919778Y-47700000D01*
X77746182Y-47062709D01*
X77746182Y-47700000D01*
X77564221Y-47700000D01*
G37*
G36*
X77193616Y-46994605D02*
G01*
X77234178Y-47000320D01*
X77271659Y-47009495D01*
X77306701Y-47022078D01*
X77338795Y-47037719D01*
X77368337Y-47056446D01*
X77395089Y-47078010D01*
X77419145Y-47102399D01*
X77458939Y-47159416D01*
X77487091Y-47227335D01*
X77502466Y-47306093D01*
X77504931Y-47356106D01*
X77502992Y-47400467D01*
X77497229Y-47442679D01*
X77487996Y-47481656D01*
X77475278Y-47518262D01*
X77459594Y-47551528D01*
X77440745Y-47582241D01*
X77419304Y-47609684D01*
X77394970Y-47634402D01*
X77368204Y-47655978D01*
X77338758Y-47674636D01*
X77306820Y-47690192D01*
X77272353Y-47702590D01*
X77195597Y-47717435D01*
X77150718Y-47719539D01*
X77108606Y-47717606D01*
X77068723Y-47711891D01*
X77031756Y-47702698D01*
X76997149Y-47690084D01*
X76965367Y-47674376D01*
X76936083Y-47655562D01*
X76885606Y-47609319D01*
X76846034Y-47551887D01*
X76818098Y-47483482D01*
X76802996Y-47404252D01*
X76800718Y-47356106D01*
X76984084Y-47356106D01*
X76986036Y-47399111D01*
X76991884Y-47437216D01*
X77000452Y-47467272D01*
X77012147Y-47493373D01*
X77025628Y-47513851D01*
X77041730Y-47530996D01*
X77080035Y-47554599D01*
X77129011Y-47565982D01*
X77150718Y-47566948D01*
X77181135Y-47564994D01*
X77208509Y-47559132D01*
X77230985Y-47550295D01*
X77250876Y-47538155D01*
X77281941Y-47505383D01*
X77303706Y-47459081D01*
X77315702Y-47395154D01*
X77317292Y-47356106D01*
X77315340Y-47313126D01*
X77309490Y-47275131D01*
X77300940Y-47245284D01*
X77289272Y-47219412D01*
X77275824Y-47199147D01*
X77259762Y-47182206D01*
X77221455Y-47158886D01*
X77172244Y-47147659D01*
X77150718Y-47146728D01*
X77119994Y-47148685D01*
X77092374Y-47154566D01*
X77069837Y-47163395D01*
X77049910Y-47175534D01*
X77018956Y-47208221D01*
X76997372Y-47254400D01*
X76985574Y-47318296D01*
X76984084Y-47356106D01*
X76800718Y-47356106D01*
X76802654Y-47311185D01*
X76808390Y-47268657D01*
X76817569Y-47229521D01*
X76830176Y-47192922D01*
X76845731Y-47159688D01*
X76864377Y-47129115D01*
X76885631Y-47101765D01*
X76909691Y-47077206D01*
X76936230Y-47055721D01*
X76965353Y-47037195D01*
X77031120Y-47009413D01*
X77107072Y-46994709D01*
X77150718Y-46992672D01*
X77193616Y-46994605D01*
G37*
G36*
X76262102Y-47100505D02*
G01*
X76284340Y-47072620D01*
X76308371Y-47048972D01*
X76332771Y-47030478D01*
X76358845Y-47015696D01*
X76415050Y-46997337D01*
X76466472Y-46992672D01*
X76500998Y-46994601D01*
X76533532Y-47000287D01*
X76563740Y-47009474D01*
X76591882Y-47022054D01*
X76642035Y-47057059D01*
X76683989Y-47105235D01*
X76716957Y-47166984D01*
X76739355Y-47242587D01*
X76749074Y-47331633D01*
X76749305Y-47348473D01*
X76747380Y-47397673D01*
X76741718Y-47443747D01*
X76732683Y-47485879D01*
X76720370Y-47524819D01*
X76705269Y-47559818D01*
X76687327Y-47591582D01*
X76667093Y-47619542D01*
X76644413Y-47644228D01*
X76619766Y-47665308D01*
X76593016Y-47683048D01*
X76534017Y-47708134D01*
X76467909Y-47719103D01*
X76451085Y-47719539D01*
X76416422Y-47717569D01*
X76384170Y-47711594D01*
X76356536Y-47702432D01*
X76330996Y-47689693D01*
X76308408Y-47673983D01*
X76287789Y-47654820D01*
X76259293Y-47617384D01*
X76257889Y-47700000D01*
X76082889Y-47700000D01*
X76082889Y-47372287D01*
X76255080Y-47372287D01*
X76256988Y-47405555D01*
X76262532Y-47436525D01*
X76271482Y-47465047D01*
X76283547Y-47490715D01*
X76298259Y-47513015D01*
X76315475Y-47532007D01*
X76334368Y-47547059D01*
X76355132Y-47558501D01*
X76376763Y-47565907D01*
X76399694Y-47569498D01*
X76409075Y-47569818D01*
X76432280Y-47567896D01*
X76454115Y-47562256D01*
X76493423Y-47540307D01*
X76526190Y-47504205D01*
X76550438Y-47453852D01*
X76563246Y-47390031D01*
X76564474Y-47361051D01*
X76562512Y-47315507D01*
X76556592Y-47275404D01*
X76548073Y-47244640D01*
X76536420Y-47218106D01*
X76523195Y-47197813D01*
X76507368Y-47180973D01*
X76489905Y-47168184D01*
X76470052Y-47158521D01*
X76422284Y-47148544D01*
X76407670Y-47148072D01*
X76380648Y-47150027D01*
X76356218Y-47155896D01*
X76335900Y-47164837D01*
X76317832Y-47177151D01*
X76288908Y-47211217D01*
X76268108Y-47260800D01*
X76256528Y-47330938D01*
X76255080Y-47372287D01*
X76082889Y-47372287D01*
X76082889Y-46758199D01*
X76262102Y-46758199D01*
X76262102Y-47100505D01*
G37*
G36*
X75383316Y-47701343D02*
G01*
X75383316Y-47012212D01*
X75563934Y-47012212D01*
X75563934Y-47410083D01*
X75565879Y-47440495D01*
X75571680Y-47468524D01*
X75580607Y-47492375D01*
X75592854Y-47513478D01*
X75607321Y-47530500D01*
X75624636Y-47544576D01*
X75643942Y-47555095D01*
X75665816Y-47562424D01*
X75705350Y-47566948D01*
X75732351Y-47564989D01*
X75755820Y-47559089D01*
X75773704Y-47550510D01*
X75788772Y-47538769D01*
X75809744Y-47507338D01*
X75820483Y-47461707D01*
X75821549Y-47438110D01*
X75821549Y-47012212D01*
X76003510Y-47012212D01*
X76003510Y-47466137D01*
X76001587Y-47502373D01*
X75995942Y-47536446D01*
X75986839Y-47567962D01*
X75974433Y-47597001D01*
X75959061Y-47623160D01*
X75940802Y-47646549D01*
X75920032Y-47666832D01*
X75896771Y-47684066D01*
X75871351Y-47698015D01*
X75843811Y-47708629D01*
X75814356Y-47715742D01*
X75783122Y-47719209D01*
X75769708Y-47719539D01*
X75732782Y-47717572D01*
X75698412Y-47711616D01*
X75668860Y-47702471D01*
X75641501Y-47689771D01*
X75617269Y-47674151D01*
X75595064Y-47655130D01*
X75556657Y-47606525D01*
X75555568Y-47604745D01*
X75555568Y-47700000D01*
X75383316Y-47701343D01*
G37*
G36*
X75122037Y-47700000D02*
G01*
X75122037Y-46758199D01*
X75303998Y-46758199D01*
X75303998Y-47700000D01*
X75122037Y-47700000D01*
G37*
G36*
X74769749Y-46994606D02*
G01*
X74809542Y-47000327D01*
X74845745Y-47009431D01*
X74879346Y-47021906D01*
X74909755Y-47037329D01*
X74937544Y-47055790D01*
X74984800Y-47101113D01*
X75021312Y-47157759D01*
X75046573Y-47226124D01*
X75059337Y-47306729D01*
X75060549Y-47342855D01*
X75058595Y-47397386D01*
X75052733Y-47447668D01*
X75043798Y-47490518D01*
X75031499Y-47529705D01*
X75016895Y-47563146D01*
X74999327Y-47593356D01*
X74979720Y-47619260D01*
X74957395Y-47642195D01*
X74905452Y-47678690D01*
X74841915Y-47703934D01*
X74764152Y-47717561D01*
X74716106Y-47719539D01*
X74677109Y-47717598D01*
X74639925Y-47711830D01*
X74605436Y-47702550D01*
X74573002Y-47689753D01*
X74543310Y-47673838D01*
X74515900Y-47654676D01*
X74491193Y-47632612D01*
X74469004Y-47607512D01*
X74449521Y-47579514D01*
X74432829Y-47548632D01*
X74413733Y-47498377D01*
X74601311Y-47498377D01*
X74617445Y-47530142D01*
X74647258Y-47555608D01*
X74689972Y-47571831D01*
X74724532Y-47575375D01*
X74749956Y-47573450D01*
X74773480Y-47567793D01*
X74794709Y-47558724D01*
X74813844Y-47546360D01*
X74845622Y-47512012D01*
X74867868Y-47464656D01*
X74878463Y-47404147D01*
X74878527Y-47403000D01*
X74403902Y-47403000D01*
X74405850Y-47342900D01*
X74411603Y-47288206D01*
X74591542Y-47288206D01*
X74872909Y-47288206D01*
X74868848Y-47258767D01*
X74861375Y-47232192D01*
X74850842Y-47208695D01*
X74837530Y-47188291D01*
X74821789Y-47171152D01*
X74803885Y-47157338D01*
X74762794Y-47140183D01*
X74732897Y-47136898D01*
X74708477Y-47138858D01*
X74684944Y-47144765D01*
X74663695Y-47154189D01*
X74644263Y-47167322D01*
X74627983Y-47183207D01*
X74614188Y-47202477D01*
X74603660Y-47224206D01*
X74596175Y-47249112D01*
X74591542Y-47288206D01*
X74411603Y-47288206D01*
X74411673Y-47287544D01*
X74420572Y-47240165D01*
X74432788Y-47196924D01*
X74447242Y-47160118D01*
X74464569Y-47126959D01*
X74483693Y-47098808D01*
X74505377Y-47073960D01*
X74528907Y-47052960D01*
X74554822Y-47035090D01*
X74613774Y-47008730D01*
X74684135Y-46994716D01*
X74727341Y-46992672D01*
X74769749Y-46994606D01*
G37*
G36*
X89055865Y-48762500D02*
G01*
X88763965Y-48762500D01*
X88733018Y-48761049D01*
X88703362Y-48756757D01*
X88675218Y-48749758D01*
X88648493Y-48740126D01*
X88599543Y-48713278D01*
X88556827Y-48676601D01*
X88520902Y-48630290D01*
X88492612Y-48574494D01*
X88473044Y-48509494D01*
X88463422Y-48435822D01*
X88462630Y-48406393D01*
X88611740Y-48406393D01*
X88613221Y-48449037D01*
X88617723Y-48487496D01*
X88624284Y-48517969D01*
X88633334Y-48545163D01*
X88643693Y-48566886D01*
X88656178Y-48585925D01*
X88669799Y-48601280D01*
X88685353Y-48614284D01*
X88721523Y-48632915D01*
X88766763Y-48642620D01*
X88793365Y-48643889D01*
X88914128Y-48643889D01*
X88914128Y-48185705D01*
X88805959Y-48185705D01*
X88771047Y-48187192D01*
X88739962Y-48191738D01*
X88715959Y-48198275D01*
X88694672Y-48207305D01*
X88677498Y-48217827D01*
X88662469Y-48230574D01*
X88639113Y-48262029D01*
X88622737Y-48304323D01*
X88613383Y-48362226D01*
X88611740Y-48406393D01*
X88462630Y-48406393D01*
X88464078Y-48368920D01*
X88468352Y-48333320D01*
X88475255Y-48300013D01*
X88484718Y-48268654D01*
X88496518Y-48239567D01*
X88510632Y-48212506D01*
X88526861Y-48187669D01*
X88545183Y-48164948D01*
X88587678Y-48126109D01*
X88637618Y-48096275D01*
X88694611Y-48075957D01*
X88758251Y-48065895D01*
X88786038Y-48064942D01*
X89055865Y-48064942D01*
X89055865Y-48762500D01*
G37*
G36*
X88209450Y-48233454D02*
G01*
X88239295Y-48237745D01*
X88266447Y-48244573D01*
X88291648Y-48253929D01*
X88314455Y-48265497D01*
X88335296Y-48279342D01*
X88370738Y-48313335D01*
X88398123Y-48355819D01*
X88417069Y-48407093D01*
X88426641Y-48467547D01*
X88427551Y-48494641D01*
X88426085Y-48535540D01*
X88421689Y-48573251D01*
X88414988Y-48605388D01*
X88405763Y-48634778D01*
X88394810Y-48659859D01*
X88381634Y-48682517D01*
X88366929Y-48701945D01*
X88350185Y-48719146D01*
X88311228Y-48746518D01*
X88263575Y-48765450D01*
X88205253Y-48775670D01*
X88169218Y-48777154D01*
X88139970Y-48775699D01*
X88112083Y-48771372D01*
X88086215Y-48764412D01*
X88061890Y-48754814D01*
X88039621Y-48742878D01*
X88019064Y-48728507D01*
X88000533Y-48711959D01*
X87983892Y-48693134D01*
X87969279Y-48672136D01*
X87956761Y-48648974D01*
X87942438Y-48611283D01*
X88083122Y-48611283D01*
X88095222Y-48635107D01*
X88117582Y-48654206D01*
X88149618Y-48666373D01*
X88175538Y-48669031D01*
X88194605Y-48667587D01*
X88212249Y-48663345D01*
X88228171Y-48656543D01*
X88242522Y-48647270D01*
X88266355Y-48621509D01*
X88283039Y-48585992D01*
X88290986Y-48540610D01*
X88291034Y-48539750D01*
X87935065Y-48539750D01*
X87936527Y-48494675D01*
X87940841Y-48453654D01*
X88075795Y-48453654D01*
X88286821Y-48453654D01*
X88283775Y-48431575D01*
X88278170Y-48411644D01*
X88270270Y-48394021D01*
X88260286Y-48378718D01*
X88248481Y-48365864D01*
X88235053Y-48355503D01*
X88204234Y-48342637D01*
X88181812Y-48340173D01*
X88163496Y-48341643D01*
X88145847Y-48346074D01*
X88129910Y-48353141D01*
X88115336Y-48362991D01*
X88103126Y-48374905D01*
X88092780Y-48389358D01*
X88084883Y-48405654D01*
X88079270Y-48424334D01*
X88075795Y-48453654D01*
X87940841Y-48453654D01*
X87940893Y-48453158D01*
X87947568Y-48417624D01*
X87956730Y-48385193D01*
X87967570Y-48357588D01*
X87980565Y-48332719D01*
X87994909Y-48311606D01*
X88011171Y-48292970D01*
X88028819Y-48277220D01*
X88048255Y-48263817D01*
X88092470Y-48244048D01*
X88145240Y-48233537D01*
X88177644Y-48232004D01*
X88209450Y-48233454D01*
G37*
G36*
X87446381Y-48402134D02*
G01*
X87449717Y-48373998D01*
X87455919Y-48348323D01*
X87464096Y-48327190D01*
X87474770Y-48308120D01*
X87487200Y-48292025D01*
X87501973Y-48277803D01*
X87538384Y-48255215D01*
X87586431Y-48239785D01*
X87649791Y-48232383D01*
X87670001Y-48232004D01*
X87708466Y-48233441D01*
X87742747Y-48237637D01*
X87771637Y-48244040D01*
X87796988Y-48252641D01*
X87818085Y-48262814D01*
X87836153Y-48274739D01*
X87850997Y-48287969D01*
X87863153Y-48302628D01*
X87879941Y-48336144D01*
X87887115Y-48376051D01*
X87887346Y-48385327D01*
X87885807Y-48408499D01*
X87880896Y-48430477D01*
X87873706Y-48448216D01*
X87863464Y-48464958D01*
X87850792Y-48479750D01*
X87834945Y-48493556D01*
X87822271Y-48502335D01*
X87773378Y-48526134D01*
X87694397Y-48550314D01*
X87650080Y-48561411D01*
X87620727Y-48569197D01*
X87595552Y-48579133D01*
X87577054Y-48593013D01*
X87571090Y-48601995D01*
X87567734Y-48612636D01*
X87567098Y-48620488D01*
X87568518Y-48632138D01*
X87572594Y-48642208D01*
X87587998Y-48658139D01*
X87614800Y-48669405D01*
X87658460Y-48674297D01*
X87683181Y-48672851D01*
X87705079Y-48668587D01*
X87722666Y-48662221D01*
X87737476Y-48653624D01*
X87748507Y-48643819D01*
X87756912Y-48632273D01*
X87762358Y-48619707D01*
X87765182Y-48605683D01*
X87765576Y-48597636D01*
X87906260Y-48597636D01*
X87904337Y-48620749D01*
X87899543Y-48642720D01*
X87892122Y-48662980D01*
X87882035Y-48681939D01*
X87854258Y-48715302D01*
X87816000Y-48742534D01*
X87766568Y-48762806D01*
X87705159Y-48774724D01*
X87657407Y-48777154D01*
X87620455Y-48775703D01*
X87586670Y-48771404D01*
X87557686Y-48764798D01*
X87531604Y-48755795D01*
X87509630Y-48745131D01*
X87490317Y-48732443D01*
X87474334Y-48718442D01*
X87460848Y-48702690D01*
X87441723Y-48666852D01*
X87432481Y-48624304D01*
X87431681Y-48606016D01*
X87433133Y-48581870D01*
X87437440Y-48560547D01*
X87443943Y-48543051D01*
X87452787Y-48527633D01*
X87477122Y-48502433D01*
X87512933Y-48482114D01*
X87516723Y-48480536D01*
X87578549Y-48460981D01*
X87611153Y-48452372D01*
X87671054Y-48436206D01*
X87717296Y-48420793D01*
X87733621Y-48412427D01*
X87745379Y-48402861D01*
X87751475Y-48393968D01*
X87754621Y-48383651D01*
X87755089Y-48377130D01*
X87753639Y-48366182D01*
X87749353Y-48356952D01*
X87733569Y-48343826D01*
X87704469Y-48335690D01*
X87674214Y-48333853D01*
X87646251Y-48335385D01*
X87623577Y-48340247D01*
X87609638Y-48346414D01*
X87598349Y-48354910D01*
X87584002Y-48376993D01*
X87577631Y-48402134D01*
X87446381Y-48402134D01*
G37*
G36*
X87253445Y-48762500D02*
G01*
X87253445Y-48246659D01*
X87389961Y-48246659D01*
X87389961Y-48762500D01*
X87253445Y-48762500D01*
G37*
G36*
X87253445Y-48183232D02*
G01*
X87253445Y-48056149D01*
X87389961Y-48056149D01*
X87389961Y-48183232D01*
X87253445Y-48183232D01*
G37*
G36*
X87025230Y-48237729D02*
G01*
X87070849Y-48254595D01*
X87111981Y-48282166D01*
X87147185Y-48319914D01*
X87162093Y-48342406D01*
X87174890Y-48367068D01*
X87185442Y-48393856D01*
X87193554Y-48422592D01*
X87199054Y-48453079D01*
X87201807Y-48485271D01*
X87202108Y-48500320D01*
X87200603Y-48537018D01*
X87195928Y-48572903D01*
X87188790Y-48604117D01*
X87178701Y-48633788D01*
X87166981Y-48658776D01*
X87152611Y-48681878D01*
X87137105Y-48701031D01*
X87119198Y-48718139D01*
X87100180Y-48732093D01*
X87078896Y-48743867D01*
X87056119Y-48752992D01*
X87031084Y-48759740D01*
X87003913Y-48763923D01*
X86974374Y-48765428D01*
X86973176Y-48765430D01*
X86946893Y-48763985D01*
X86922211Y-48759730D01*
X86899983Y-48752972D01*
X86879967Y-48743759D01*
X86863396Y-48732903D01*
X86849386Y-48720051D01*
X86839137Y-48706758D01*
X86831439Y-48691974D01*
X86831439Y-48776971D01*
X86832871Y-48795134D01*
X86837033Y-48811937D01*
X86852998Y-48841457D01*
X86878686Y-48865051D01*
X86913573Y-48881315D01*
X86956212Y-48888127D01*
X86961635Y-48888208D01*
X86984301Y-48886760D01*
X87004915Y-48882488D01*
X87022441Y-48875898D01*
X87037753Y-48866938D01*
X87050101Y-48856304D01*
X87060141Y-48843688D01*
X87067551Y-48829591D01*
X87072498Y-48813766D01*
X87075025Y-48789565D01*
X87202108Y-48789565D01*
X87200664Y-48815991D01*
X87196417Y-48840966D01*
X87189517Y-48864365D01*
X87180085Y-48886199D01*
X87153868Y-48925230D01*
X87118124Y-48957706D01*
X87073073Y-48982817D01*
X87019147Y-48999314D01*
X86957291Y-49005731D01*
X86952202Y-49005765D01*
X86919860Y-49004306D01*
X86888802Y-48999949D01*
X86860019Y-48992959D01*
X86832864Y-48983289D01*
X86808408Y-48971452D01*
X86785838Y-48957180D01*
X86766063Y-48941165D01*
X86748367Y-48922942D01*
X86733360Y-48903208D01*
X86720606Y-48881447D01*
X86710428Y-48858162D01*
X86702699Y-48832973D01*
X86697579Y-48806056D01*
X86695154Y-48777299D01*
X86694968Y-48766484D01*
X86694968Y-48516486D01*
X86827226Y-48516486D01*
X86828658Y-48541124D01*
X86832823Y-48563805D01*
X86839470Y-48584264D01*
X86848423Y-48602521D01*
X86859341Y-48618262D01*
X86872132Y-48631593D01*
X86886386Y-48642247D01*
X86902095Y-48650311D01*
X86918892Y-48655619D01*
X86936765Y-48658151D01*
X86943775Y-48658360D01*
X86961742Y-48656914D01*
X86978667Y-48652652D01*
X87008772Y-48636173D01*
X87033314Y-48609373D01*
X87050936Y-48572341D01*
X87059724Y-48525401D01*
X87060325Y-48508151D01*
X87058864Y-48475157D01*
X87054497Y-48446124D01*
X87048128Y-48423432D01*
X87039461Y-48403887D01*
X87029532Y-48388749D01*
X87017709Y-48376217D01*
X86989785Y-48359421D01*
X86954246Y-48352001D01*
X86943775Y-48351668D01*
X86922519Y-48353138D01*
X86903400Y-48357566D01*
X86887782Y-48364231D01*
X86873954Y-48373414D01*
X86852185Y-48398564D01*
X86836742Y-48435015D01*
X86828243Y-48486740D01*
X86827226Y-48516486D01*
X86694968Y-48516486D01*
X86694968Y-48246659D01*
X86831439Y-48246659D01*
X86831439Y-48310727D01*
X86845316Y-48290754D01*
X86860818Y-48273777D01*
X86876978Y-48260465D01*
X86894664Y-48249745D01*
X86934354Y-48236018D01*
X86976336Y-48232004D01*
X87025230Y-48237729D01*
G37*
G36*
X86167175Y-48762500D02*
G01*
X86167175Y-48404241D01*
X86168614Y-48377624D01*
X86172832Y-48353155D01*
X86179507Y-48331297D01*
X86188555Y-48311547D01*
X86199736Y-48294056D01*
X86212971Y-48278685D01*
X86245432Y-48254174D01*
X86285802Y-48238286D01*
X86333956Y-48232043D01*
X86338312Y-48232004D01*
X86367896Y-48233459D01*
X86394760Y-48237785D01*
X86417639Y-48244417D01*
X86438298Y-48253483D01*
X86456342Y-48264584D01*
X86472454Y-48277892D01*
X86499585Y-48311536D01*
X86505237Y-48321260D01*
X86505237Y-48246659D01*
X86635434Y-48246659D01*
X86635434Y-48762500D01*
X86498963Y-48762500D01*
X86498963Y-48466981D01*
X86497494Y-48440621D01*
X86493074Y-48417551D01*
X86486683Y-48399887D01*
X86477951Y-48384815D01*
X86467784Y-48373197D01*
X86455594Y-48363804D01*
X86425337Y-48351776D01*
X86392901Y-48348508D01*
X86366557Y-48350091D01*
X86345422Y-48355311D01*
X86333363Y-48361619D01*
X86323612Y-48370375D01*
X86311185Y-48393949D01*
X86305119Y-48432816D01*
X86304699Y-48450220D01*
X86304699Y-48762500D01*
X86167175Y-48762500D01*
G37*
G36*
X85901355Y-48233454D02*
G01*
X85931200Y-48237745D01*
X85958352Y-48244573D01*
X85983553Y-48253929D01*
X86006360Y-48265497D01*
X86027202Y-48279342D01*
X86062644Y-48313335D01*
X86090028Y-48355819D01*
X86108974Y-48407093D01*
X86118546Y-48467547D01*
X86119456Y-48494641D01*
X86117990Y-48535540D01*
X86113594Y-48573251D01*
X86106893Y-48605388D01*
X86097668Y-48634778D01*
X86086715Y-48659859D01*
X86073539Y-48682517D01*
X86058834Y-48701945D01*
X86042090Y-48719146D01*
X86003133Y-48746518D01*
X85955480Y-48765450D01*
X85897158Y-48775670D01*
X85861123Y-48777154D01*
X85831875Y-48775699D01*
X85803988Y-48771372D01*
X85778121Y-48764412D01*
X85753795Y-48754814D01*
X85731526Y-48742878D01*
X85710969Y-48728507D01*
X85692439Y-48711959D01*
X85675797Y-48693134D01*
X85661184Y-48672136D01*
X85648666Y-48648974D01*
X85634344Y-48611283D01*
X85775027Y-48611283D01*
X85787127Y-48635107D01*
X85809487Y-48654206D01*
X85841523Y-48666373D01*
X85867443Y-48669031D01*
X85886511Y-48667587D01*
X85904154Y-48663345D01*
X85920076Y-48656543D01*
X85934427Y-48647270D01*
X85958260Y-48621509D01*
X85974945Y-48585992D01*
X85982891Y-48540610D01*
X85982939Y-48539750D01*
X85626970Y-48539750D01*
X85628432Y-48494675D01*
X85632747Y-48453654D01*
X85767700Y-48453654D01*
X85978726Y-48453654D01*
X85975680Y-48431575D01*
X85970075Y-48411644D01*
X85962176Y-48394021D01*
X85952191Y-48378718D01*
X85940386Y-48365864D01*
X85926958Y-48355503D01*
X85896140Y-48342637D01*
X85873717Y-48340173D01*
X85855401Y-48341643D01*
X85837752Y-48346074D01*
X85821815Y-48353141D01*
X85807241Y-48362991D01*
X85795031Y-48374905D01*
X85784685Y-48389358D01*
X85776789Y-48405654D01*
X85771175Y-48424334D01*
X85767700Y-48453654D01*
X85632747Y-48453654D01*
X85632799Y-48453158D01*
X85639473Y-48417624D01*
X85648635Y-48385193D01*
X85659475Y-48357588D01*
X85672470Y-48332719D01*
X85686814Y-48311606D01*
X85703077Y-48292970D01*
X85720724Y-48277220D01*
X85740160Y-48263817D01*
X85784375Y-48244048D01*
X85837145Y-48233537D01*
X85869549Y-48232004D01*
X85901355Y-48233454D01*
G37*
G36*
X85225435Y-48312879D02*
G01*
X85242114Y-48291965D01*
X85260137Y-48274229D01*
X85278437Y-48260358D01*
X85297993Y-48249272D01*
X85340146Y-48235503D01*
X85378713Y-48232004D01*
X85404607Y-48233451D01*
X85429008Y-48237715D01*
X85451664Y-48244606D01*
X85472770Y-48254040D01*
X85510385Y-48280294D01*
X85541851Y-48316426D01*
X85566576Y-48362738D01*
X85583375Y-48419440D01*
X85590665Y-48486225D01*
X85590838Y-48498855D01*
X85589394Y-48535755D01*
X85585147Y-48570310D01*
X85578371Y-48601909D01*
X85569136Y-48631114D01*
X85557811Y-48657363D01*
X85544354Y-48681186D01*
X85529179Y-48702157D01*
X85512168Y-48720671D01*
X85493683Y-48736481D01*
X85473621Y-48749786D01*
X85429371Y-48768600D01*
X85379791Y-48776827D01*
X85367172Y-48777154D01*
X85341176Y-48775676D01*
X85316986Y-48771195D01*
X85296261Y-48764324D01*
X85277106Y-48754769D01*
X85260165Y-48742987D01*
X85244701Y-48728615D01*
X85223329Y-48700538D01*
X85222275Y-48762500D01*
X85091025Y-48762500D01*
X85091025Y-48516715D01*
X85220169Y-48516715D01*
X85221600Y-48541666D01*
X85225758Y-48564894D01*
X85232470Y-48586285D01*
X85241519Y-48605536D01*
X85252553Y-48622261D01*
X85265465Y-48636505D01*
X85279635Y-48647794D01*
X85295208Y-48656375D01*
X85311431Y-48661930D01*
X85328629Y-48664624D01*
X85335665Y-48664863D01*
X85353069Y-48663422D01*
X85369445Y-48659192D01*
X85398926Y-48642730D01*
X85423501Y-48615653D01*
X85441688Y-48577889D01*
X85451293Y-48530023D01*
X85452215Y-48508288D01*
X85450743Y-48474130D01*
X85446303Y-48444053D01*
X85439914Y-48420980D01*
X85431174Y-48401079D01*
X85421255Y-48385859D01*
X85409385Y-48373230D01*
X85396288Y-48363638D01*
X85381398Y-48356391D01*
X85345572Y-48348908D01*
X85334612Y-48348554D01*
X85314345Y-48350020D01*
X85296022Y-48354422D01*
X85280784Y-48361127D01*
X85267233Y-48370363D01*
X85245540Y-48395912D01*
X85229940Y-48433100D01*
X85221255Y-48485703D01*
X85220169Y-48516715D01*
X85091025Y-48516715D01*
X85091025Y-48056149D01*
X85225435Y-48056149D01*
X85225435Y-48312879D01*
G37*
G36*
X84778700Y-48762500D02*
G01*
X84647450Y-48762500D01*
X84646396Y-48699485D01*
X84632883Y-48718927D01*
X84617774Y-48735444D01*
X84601728Y-48748652D01*
X84584230Y-48759272D01*
X84544723Y-48773047D01*
X84502553Y-48777154D01*
X84476178Y-48775699D01*
X84450962Y-48771373D01*
X84427383Y-48764370D01*
X84405141Y-48754703D01*
X84384502Y-48742536D01*
X84365386Y-48727860D01*
X84332080Y-48691120D01*
X84305896Y-48644411D01*
X84287878Y-48587513D01*
X84279392Y-48520282D01*
X84279140Y-48508792D01*
X84417510Y-48508792D01*
X84418947Y-48535880D01*
X84423141Y-48561021D01*
X84429824Y-48583736D01*
X84438863Y-48604126D01*
X84449712Y-48621469D01*
X84462464Y-48636240D01*
X84476314Y-48647794D01*
X84491635Y-48656647D01*
X84507643Y-48662459D01*
X84524771Y-48665466D01*
X84534060Y-48665871D01*
X84567369Y-48660208D01*
X84597152Y-48643601D01*
X84622107Y-48616318D01*
X84640190Y-48578864D01*
X84645916Y-48556659D01*
X84649029Y-48532593D01*
X84649556Y-48517264D01*
X84648094Y-48481458D01*
X84643718Y-48449937D01*
X84637359Y-48425394D01*
X84628701Y-48404258D01*
X84618887Y-48388051D01*
X84607206Y-48374630D01*
X84594486Y-48364519D01*
X84580122Y-48356879D01*
X84546355Y-48348987D01*
X84535113Y-48348554D01*
X84513449Y-48350018D01*
X84494049Y-48354407D01*
X84478182Y-48361023D01*
X84464196Y-48370103D01*
X84442279Y-48394868D01*
X84426864Y-48430503D01*
X84418474Y-48480751D01*
X84417510Y-48508792D01*
X84279140Y-48508792D01*
X84278933Y-48499313D01*
X84280387Y-48463104D01*
X84284701Y-48428823D01*
X84291561Y-48397551D01*
X84300988Y-48368444D01*
X84312412Y-48342655D01*
X84326091Y-48319177D01*
X84341260Y-48298989D01*
X84358396Y-48281194D01*
X84376718Y-48266439D01*
X84396773Y-48254149D01*
X84417989Y-48244638D01*
X84440774Y-48237703D01*
X84464931Y-48233472D01*
X84490554Y-48232004D01*
X84491012Y-48232004D01*
X84516456Y-48233475D01*
X84540406Y-48237907D01*
X84561765Y-48244872D01*
X84581841Y-48254553D01*
X84617835Y-48281761D01*
X84644336Y-48312879D01*
X84644336Y-48056149D01*
X84778700Y-48056149D01*
X84778700Y-48762500D01*
G37*
G36*
X83900525Y-48778711D02*
G01*
X83901944Y-48798836D01*
X83906018Y-48817234D01*
X83921424Y-48848945D01*
X83944981Y-48872362D01*
X83959114Y-48880397D01*
X83974299Y-48885681D01*
X83995001Y-48888208D01*
X84018156Y-48886765D01*
X84038493Y-48882521D01*
X84054944Y-48876143D01*
X84068938Y-48867542D01*
X84080076Y-48857276D01*
X84088943Y-48845148D01*
X84099954Y-48815248D01*
X84102117Y-48791122D01*
X84229153Y-48791122D01*
X84227689Y-48821721D01*
X84223300Y-48850351D01*
X84216474Y-48875490D01*
X84207049Y-48898690D01*
X84195633Y-48918945D01*
X84181859Y-48937278D01*
X84166177Y-48953215D01*
X84148265Y-48967184D01*
X84105827Y-48988913D01*
X84053358Y-49002120D01*
X84001321Y-49005765D01*
X83971743Y-49004311D01*
X83943309Y-48999994D01*
X83916568Y-48992993D01*
X83891333Y-48983335D01*
X83868287Y-48971376D01*
X83847054Y-48956997D01*
X83828278Y-48940713D01*
X83811566Y-48922246D01*
X83797399Y-48902155D01*
X83785519Y-48880088D01*
X83776216Y-48856500D01*
X83769431Y-48831099D01*
X83764008Y-48776650D01*
X83764008Y-48246659D01*
X83900525Y-48246659D01*
X83900525Y-48561549D01*
X83901961Y-48578798D01*
X83906153Y-48594856D01*
X83922231Y-48622788D01*
X83947611Y-48643733D01*
X83963424Y-48651026D01*
X83981014Y-48655859D01*
X84005534Y-48658131D01*
X84025489Y-48656668D01*
X84042877Y-48652284D01*
X84056329Y-48645846D01*
X84067681Y-48637057D01*
X84083618Y-48613486D01*
X84091834Y-48579502D01*
X84092683Y-48561549D01*
X84092683Y-48246659D01*
X84229153Y-48246659D01*
X84229153Y-48581516D01*
X84227713Y-48607220D01*
X84223493Y-48631383D01*
X84216651Y-48653886D01*
X84207336Y-48674661D01*
X84181756Y-48710792D01*
X84147656Y-48739036D01*
X84105928Y-48758403D01*
X84057648Y-48767708D01*
X84040155Y-48768361D01*
X84014927Y-48766916D01*
X83990923Y-48762661D01*
X83968842Y-48755818D01*
X83948805Y-48746468D01*
X83932145Y-48735447D01*
X83918035Y-48722395D01*
X83900525Y-48694905D01*
X83900525Y-48778711D01*
G37*
G36*
X82776519Y-48762500D02*
G01*
X82776519Y-48064942D01*
X82986492Y-48064942D01*
X83112521Y-48576570D01*
X83238504Y-48064942D01*
X83452690Y-48064942D01*
X83452690Y-48762500D01*
X83317227Y-48762500D01*
X83317227Y-48286638D01*
X83188084Y-48762500D01*
X83043186Y-48762500D01*
X82912990Y-48284532D01*
X82912990Y-48762500D01*
X82776519Y-48762500D01*
G37*
G36*
X82580835Y-48762500D02*
G01*
X82580835Y-48246659D01*
X82717351Y-48246659D01*
X82717351Y-48762500D01*
X82580835Y-48762500D01*
G37*
G36*
X82580835Y-48183232D02*
G01*
X82580835Y-48056149D01*
X82717351Y-48056149D01*
X82717351Y-48183232D01*
X82580835Y-48183232D01*
G37*
G36*
X82226057Y-48557656D02*
G01*
X82227534Y-48582826D01*
X82232010Y-48604661D01*
X82238335Y-48620706D01*
X82246989Y-48634057D01*
X82256823Y-48643701D01*
X82268617Y-48651004D01*
X82297620Y-48658251D01*
X82305833Y-48658544D01*
X82323556Y-48657094D01*
X82338842Y-48652805D01*
X82350882Y-48646392D01*
X82360975Y-48637704D01*
X82375675Y-48613540D01*
X82383636Y-48577285D01*
X82384601Y-48555549D01*
X82384601Y-48343287D01*
X82098974Y-48343287D01*
X82098974Y-48246659D01*
X82384601Y-48246659D01*
X82384601Y-48105975D01*
X82518965Y-48105975D01*
X82518965Y-48569197D01*
X82517476Y-48598959D01*
X82512918Y-48627635D01*
X82505870Y-48652810D01*
X82495984Y-48676469D01*
X82484247Y-48696711D01*
X82469912Y-48715198D01*
X82453999Y-48730770D01*
X82435646Y-48744410D01*
X82415529Y-48755578D01*
X82393004Y-48764603D01*
X82368192Y-48771278D01*
X82340879Y-48775512D01*
X82307939Y-48777154D01*
X82278206Y-48775719D01*
X82250921Y-48771536D01*
X82226341Y-48764887D01*
X82204065Y-48755914D01*
X82183998Y-48744756D01*
X82166166Y-48731614D01*
X82136449Y-48699252D01*
X82114833Y-48658958D01*
X82102028Y-48610909D01*
X82098974Y-48570250D01*
X82098974Y-48423155D01*
X82226057Y-48423155D01*
X82226057Y-48557656D01*
G37*
G36*
X81715849Y-48576615D02*
G01*
X81718966Y-48594335D01*
X81724636Y-48610126D01*
X81742695Y-48635642D01*
X81769045Y-48653255D01*
X81803160Y-48662042D01*
X81816645Y-48662711D01*
X81831603Y-48661243D01*
X81846020Y-48656828D01*
X81859486Y-48649585D01*
X81872027Y-48639453D01*
X81893749Y-48610089D01*
X81909562Y-48567490D01*
X81914568Y-48540642D01*
X81917140Y-48510406D01*
X81917441Y-48495099D01*
X81916014Y-48463011D01*
X81911888Y-48435385D01*
X81905724Y-48413174D01*
X81897555Y-48394515D01*
X81888002Y-48379743D01*
X81876953Y-48367873D01*
X81850952Y-48352063D01*
X81818826Y-48345594D01*
X81812431Y-48345440D01*
X81793841Y-48346887D01*
X81776638Y-48351155D01*
X81761418Y-48357924D01*
X81747929Y-48367166D01*
X81736599Y-48378507D01*
X81727312Y-48392026D01*
X81720295Y-48407521D01*
X81715673Y-48424979D01*
X81714795Y-48430482D01*
X81577226Y-48430482D01*
X81580531Y-48403700D01*
X81586565Y-48378541D01*
X81595098Y-48355373D01*
X81606092Y-48333943D01*
X81619381Y-48314416D01*
X81634912Y-48296767D01*
X81672540Y-48267268D01*
X81718781Y-48246055D01*
X81773480Y-48234145D01*
X81811378Y-48232004D01*
X81844264Y-48233480D01*
X81875264Y-48237954D01*
X81902242Y-48244848D01*
X81927368Y-48254436D01*
X81949220Y-48265964D01*
X81969244Y-48279966D01*
X81986704Y-48295819D01*
X82002308Y-48314043D01*
X82015829Y-48334430D01*
X82027378Y-48357211D01*
X82044412Y-48410869D01*
X82052472Y-48476982D01*
X82052904Y-48498030D01*
X82051457Y-48536241D01*
X82047193Y-48571650D01*
X82040486Y-48603263D01*
X82031347Y-48632246D01*
X82020232Y-48657891D01*
X82007011Y-48681046D01*
X81992083Y-48701345D01*
X81975307Y-48719243D01*
X81936733Y-48747738D01*
X81891220Y-48766878D01*
X81838367Y-48776309D01*
X81815591Y-48777154D01*
X81786976Y-48775708D01*
X81759505Y-48771450D01*
X81733220Y-48764459D01*
X81708408Y-48754869D01*
X81685232Y-48742801D01*
X81663848Y-48728375D01*
X81644515Y-48711806D01*
X81627268Y-48693141D01*
X81612399Y-48672708D01*
X81599881Y-48650448D01*
X81589968Y-48626766D01*
X81582648Y-48601522D01*
X81578279Y-48576615D01*
X81715849Y-48576615D01*
G37*
G36*
X81070315Y-48762500D02*
G01*
X81070315Y-48396914D01*
X81071758Y-48372565D01*
X81075999Y-48349918D01*
X81082781Y-48329343D01*
X81092021Y-48310551D01*
X81117298Y-48278639D01*
X81151361Y-48254328D01*
X81194082Y-48238356D01*
X81245206Y-48232044D01*
X81249833Y-48232004D01*
X81297630Y-48237556D01*
X81342046Y-48253840D01*
X81361118Y-48265339D01*
X81377556Y-48278730D01*
X81390291Y-48292883D01*
X81399950Y-48308268D01*
X81402103Y-48312879D01*
X81402103Y-48056149D01*
X81538574Y-48056149D01*
X81538574Y-48762500D01*
X81402103Y-48762500D01*
X81402103Y-48466248D01*
X81400649Y-48443164D01*
X81396329Y-48421444D01*
X81389526Y-48402191D01*
X81380187Y-48384908D01*
X81369193Y-48370817D01*
X81356074Y-48359043D01*
X81341871Y-48350353D01*
X81325877Y-48344191D01*
X81296041Y-48340173D01*
X81271758Y-48341723D01*
X81251642Y-48346709D01*
X81239077Y-48353084D01*
X81228738Y-48361941D01*
X81215220Y-48385669D01*
X81208419Y-48423315D01*
X81207839Y-48442068D01*
X81207839Y-48762500D01*
X81070315Y-48762500D01*
G37*
G36*
X80436527Y-48106370D02*
G01*
X80472182Y-48110648D01*
X80505792Y-48117586D01*
X80537605Y-48127110D01*
X80567466Y-48139069D01*
X80595456Y-48153396D01*
X80621574Y-48170022D01*
X80645728Y-48188828D01*
X80688262Y-48232950D01*
X80722674Y-48285445D01*
X80748326Y-48346013D01*
X80764362Y-48414237D01*
X80769805Y-48488184D01*
X80768343Y-48526726D01*
X80763971Y-48563749D01*
X80756968Y-48598094D01*
X80747266Y-48630769D01*
X80735302Y-48660738D01*
X80720836Y-48688918D01*
X80704386Y-48714506D01*
X80685602Y-48738202D01*
X80664957Y-48759482D01*
X80642106Y-48778758D01*
X80617349Y-48795759D01*
X80590463Y-48810620D01*
X80561487Y-48823240D01*
X80530414Y-48833543D01*
X80461450Y-48846903D01*
X80403349Y-48850061D01*
X80350101Y-48848655D01*
X80302154Y-48844675D01*
X80258320Y-48838291D01*
X80219757Y-48829958D01*
X80185472Y-48819778D01*
X80156414Y-48808366D01*
X80131964Y-48795880D01*
X80112606Y-48782990D01*
X80107235Y-48778665D01*
X80139795Y-48717299D01*
X80175774Y-48737434D01*
X80233047Y-48755315D01*
X80314396Y-48767739D01*
X80397029Y-48771292D01*
X80433983Y-48769833D01*
X80468712Y-48765481D01*
X80499797Y-48758645D01*
X80528730Y-48749229D01*
X80554474Y-48737771D01*
X80578126Y-48723987D01*
X80599081Y-48708373D01*
X80617963Y-48690614D01*
X80649030Y-48649266D01*
X80671575Y-48599454D01*
X80685179Y-48540239D01*
X80688930Y-48482918D01*
X80683105Y-48419987D01*
X80675852Y-48389090D01*
X80665742Y-48359039D01*
X80653110Y-48330764D01*
X80637796Y-48303915D01*
X80620567Y-48279728D01*
X80600904Y-48257412D01*
X80579898Y-48238114D01*
X80556719Y-48220999D01*
X80532538Y-48206893D01*
X80506405Y-48195205D01*
X80479335Y-48186408D01*
X80450478Y-48180243D01*
X80400189Y-48176317D01*
X80360542Y-48177802D01*
X80323611Y-48182341D01*
X80292793Y-48189142D01*
X80264402Y-48198607D01*
X80240624Y-48209686D01*
X80219050Y-48223142D01*
X80200861Y-48238013D01*
X80184758Y-48255099D01*
X80171181Y-48273866D01*
X80159697Y-48294828D01*
X80143210Y-48343755D01*
X80135839Y-48404107D01*
X80135582Y-48418941D01*
X80136995Y-48450445D01*
X80141024Y-48478960D01*
X80147488Y-48504915D01*
X80156004Y-48527765D01*
X80166430Y-48547816D01*
X80178287Y-48564645D01*
X80191340Y-48578350D01*
X80205135Y-48588766D01*
X80219156Y-48595829D01*
X80233206Y-48599665D01*
X80242698Y-48600429D01*
X80252308Y-48598940D01*
X80260631Y-48594376D01*
X80265135Y-48588487D01*
X80266832Y-48580508D01*
X80260558Y-48542727D01*
X80238884Y-48439916D01*
X80328794Y-48439916D01*
X80330234Y-48469522D01*
X80334459Y-48496930D01*
X80341093Y-48521163D01*
X80350082Y-48542722D01*
X80360560Y-48560289D01*
X80372887Y-48574991D01*
X80385833Y-48585821D01*
X80400174Y-48593800D01*
X80414855Y-48598529D01*
X80430619Y-48600403D01*
X80432749Y-48600429D01*
X80452956Y-48598972D01*
X80469761Y-48594632D01*
X80481917Y-48588461D01*
X80491756Y-48580126D01*
X80504915Y-48557578D01*
X80511120Y-48523108D01*
X80511472Y-48510212D01*
X80510042Y-48478293D01*
X80505892Y-48450214D01*
X80499585Y-48426886D01*
X80491175Y-48406866D01*
X80481277Y-48390647D01*
X80469769Y-48377313D01*
X80457009Y-48366913D01*
X80443000Y-48359152D01*
X80410994Y-48351154D01*
X80401242Y-48350752D01*
X80384864Y-48352202D01*
X80370511Y-48356490D01*
X80358920Y-48363008D01*
X80349168Y-48371865D01*
X80335234Y-48396457D01*
X80328948Y-48432364D01*
X80328794Y-48439916D01*
X80238884Y-48439916D01*
X80205924Y-48283570D01*
X80287852Y-48283570D01*
X80301499Y-48339211D01*
X80308296Y-48323371D01*
X80317290Y-48309693D01*
X80341178Y-48288835D01*
X80373076Y-48276334D01*
X80404402Y-48273037D01*
X80428513Y-48274479D01*
X80451333Y-48278711D01*
X80493032Y-48295095D01*
X80529335Y-48321632D01*
X80559611Y-48358114D01*
X80582658Y-48404256D01*
X80596858Y-48459232D01*
X80600727Y-48510212D01*
X80599239Y-48537834D01*
X80594680Y-48564679D01*
X80587617Y-48588296D01*
X80577705Y-48610308D01*
X80566192Y-48628457D01*
X80552176Y-48644588D01*
X80537064Y-48657314D01*
X80519718Y-48667805D01*
X80501143Y-48675459D01*
X80480449Y-48680650D01*
X80448503Y-48683365D01*
X80422462Y-48681848D01*
X80398621Y-48677088D01*
X80380417Y-48670310D01*
X80364184Y-48660808D01*
X80351419Y-48649778D01*
X80340532Y-48636256D01*
X80337174Y-48630883D01*
X80333085Y-48643357D01*
X80326062Y-48654879D01*
X80316458Y-48664766D01*
X80304006Y-48673163D01*
X80288728Y-48679744D01*
X80270506Y-48684262D01*
X80241645Y-48686571D01*
X80204325Y-48680734D01*
X80166671Y-48662784D01*
X80148448Y-48649117D01*
X80131152Y-48632402D01*
X80115040Y-48612646D01*
X80100391Y-48589880D01*
X80087578Y-48564366D01*
X80076726Y-48535937D01*
X80068195Y-48505054D01*
X80062075Y-48471373D01*
X80057913Y-48408454D01*
X80059356Y-48373390D01*
X80063596Y-48340701D01*
X80070365Y-48310822D01*
X80079583Y-48283157D01*
X80091074Y-48257757D01*
X80104742Y-48234472D01*
X80138599Y-48193599D01*
X80181279Y-48159969D01*
X80233302Y-48133612D01*
X80295236Y-48115176D01*
X80367234Y-48105813D01*
X80399135Y-48104921D01*
X80436527Y-48106370D01*
G37*
G36*
X79200712Y-48762500D02*
G01*
X79200712Y-48064942D01*
X79347716Y-48064942D01*
X79347716Y-48327121D01*
X79619650Y-48327121D01*
X79619650Y-48064942D01*
X79765600Y-48064942D01*
X79765600Y-48762500D01*
X79619650Y-48762500D01*
X79619650Y-48448892D01*
X79347716Y-48448892D01*
X79347716Y-48762500D01*
X79200712Y-48762500D01*
G37*
G36*
X78584487Y-48762500D02*
G01*
X78584487Y-48064942D01*
X78731491Y-48064942D01*
X78731491Y-48327121D01*
X79003425Y-48327121D01*
X79003425Y-48064942D01*
X79149375Y-48064942D01*
X79149375Y-48762500D01*
X79003425Y-48762500D01*
X79003425Y-48448892D01*
X78731491Y-48448892D01*
X78731491Y-48762500D01*
X78584487Y-48762500D01*
G37*
G36*
X78041765Y-48762500D02*
G01*
X78041765Y-48635463D01*
X78387200Y-48635463D01*
X78387200Y-48064942D01*
X78533151Y-48064942D01*
X78533151Y-48762500D01*
X78041765Y-48762500D01*
G37*
D11*
%TO.C,J2*%
X70674998Y-25213000D03*
D12*
X63474998Y-25213000D03*
D13*
X64274998Y-24563000D03*
X64674998Y-23863000D03*
X65474998Y-23863000D03*
X65874998Y-24563000D03*
X66274998Y-23863000D03*
X66674998Y-24563000D03*
X67474998Y-24563000D03*
X67874998Y-23863000D03*
X68274998Y-24563000D03*
X68674998Y-23863000D03*
X69474998Y-23863000D03*
X69874998Y-24563000D03*
D14*
X71204998Y-23973000D03*
X62944998Y-23973000D03*
X62584998Y-19573000D03*
X71564998Y-19573000D03*
%TD*%
D15*
%TO.C,TP1*%
X63650000Y-29025000D03*
%TD*%
%TO.C,TP7*%
X63650000Y-33025000D03*
%TD*%
%TO.C,TP6*%
X64109600Y-22428200D03*
%TD*%
%TO.C,TP2*%
X63650000Y-27025000D03*
%TD*%
%TO.C,TP4*%
X67818000Y-27150000D03*
%TD*%
%TO.C,TP5*%
X65989200Y-27150000D03*
%TD*%
D16*
%TO.C,J4*%
X89670000Y-41950000D03*
D17*
X89670000Y-39950000D03*
%TD*%
D15*
%TO.C,TP3*%
X63650000Y-31025000D03*
%TD*%
M02*
