%TF.GenerationSoftware,KiCad,Pcbnew,9.0.3*%
%TF.CreationDate,2025-09-02T15:34:32-07:00*%
%TF.ProjectId,PGS_USBW_Board,5047535f-5553-4425-975f-426f6172642e,rev?*%
%TF.SameCoordinates,Original*%
%TF.FileFunction,Copper,L3,Inr*%
%TF.FilePolarity,Positive*%
%FSLAX46Y46*%
G04 Gerber Fmt 4.6, Leading zero omitted, Abs format (unit mm)*
G04 Created by KiCad (PCBNEW 9.0.3) date 2025-09-02 15:34:32*
%MOMM*%
%LPD*%
G01*
G04 APERTURE LIST*
G04 Aperture macros list*
%AMRoundRect*
0 Rectangle with rounded corners*
0 $1 Rounding radius*
0 $2 $3 $4 $5 $6 $7 $8 $9 X,Y pos of 4 corners*
0 Add a 4 corners polygon primitive as box body*
4,1,4,$2,$3,$4,$5,$6,$7,$8,$9,$2,$3,0*
0 Add four circle primitives for the rounded corners*
1,1,$1+$1,$2,$3*
1,1,$1+$1,$4,$5*
1,1,$1+$1,$6,$7*
1,1,$1+$1,$8,$9*
0 Add four rect primitives between the rounded corners*
20,1,$1+$1,$2,$3,$4,$5,0*
20,1,$1+$1,$4,$5,$6,$7,0*
20,1,$1+$1,$6,$7,$8,$9,0*
20,1,$1+$1,$8,$9,$2,$3,0*%
G04 Aperture macros list end*
%TA.AperFunction,ComponentPad*%
%ADD10C,0.600000*%
%TD*%
%TA.AperFunction,ComponentPad*%
%ADD11O,0.800000X1.400000*%
%TD*%
%TA.AperFunction,ComponentPad*%
%ADD12RoundRect,0.250000X0.625000X-0.350000X0.625000X0.350000X-0.625000X0.350000X-0.625000X-0.350000X0*%
%TD*%
%TA.AperFunction,ComponentPad*%
%ADD13O,1.750000X1.200000*%
%TD*%
%TA.AperFunction,ViaPad*%
%ADD14C,0.600000*%
%TD*%
%TA.AperFunction,ViaPad*%
%ADD15C,0.650000*%
%TD*%
%TA.AperFunction,ViaPad*%
%ADD16C,1.000000*%
%TD*%
%TA.AperFunction,Conductor*%
%ADD17C,0.450000*%
%TD*%
%TA.AperFunction,Conductor*%
%ADD18C,0.200000*%
%TD*%
G04 APERTURE END LIST*
D10*
%TO.N,GND*%
%TO.C,J2*%
X64274998Y-23511124D03*
%TO.N,+3.3V_PRE*%
X64674998Y-22811124D03*
%TO.N,N_CLOCK*%
X65474998Y-22811124D03*
%TO.N,VBUS_PRE*%
X65874998Y-23511124D03*
%TO.N,Net-(J2-CC2)*%
X66274998Y-22811124D03*
%TO.N,D+*%
X66674998Y-23511124D03*
%TO.N,D-*%
X67474998Y-23511124D03*
%TO.N,unconnected-(J2-SBU2-PadB8)*%
X67874998Y-22811124D03*
%TO.N,VBUS_PRE*%
X68274998Y-23511124D03*
%TO.N,N_LATCH*%
X68674998Y-22811124D03*
%TO.N,N_DATA*%
X69474998Y-22811124D03*
%TO.N,GND*%
X69874998Y-23511124D03*
D11*
X71204998Y-22921124D03*
X62944998Y-22921124D03*
X62584998Y-18521124D03*
X71564998Y-18521124D03*
%TD*%
D12*
%TO.N,GND*%
%TO.C,J4*%
X89670000Y-41950000D03*
D13*
%TO.N,BATTERY_POS*%
X89670000Y-39950000D03*
%TD*%
D14*
%TO.N,N_LATCH_3.3*%
X70200000Y-39775000D03*
X61325000Y-47300000D03*
%TO.N,N_CLOCK_3.3*%
X68675000Y-40675000D03*
X60825000Y-46750000D03*
D15*
%TO.N,+3V3*%
X85200000Y-31730000D03*
D16*
X65000000Y-42100000D03*
D14*
X75075000Y-37250000D03*
D16*
X63400000Y-35025000D03*
D14*
X74574400Y-43027600D03*
X70950000Y-38775000D03*
D15*
X84620000Y-33090000D03*
D14*
%TO.N,WL_CLK*%
X50050000Y-38725000D03*
X60250000Y-41575000D03*
%TO.N,D-*%
X67350000Y-26450000D03*
D15*
%TO.N,GND*%
X54990000Y-45880000D03*
X55710000Y-44990000D03*
D14*
X78460600Y-38582600D03*
X81000600Y-42189400D03*
D15*
X45780000Y-40510000D03*
D14*
X71425000Y-31825000D03*
D15*
X49740000Y-31600000D03*
X59220000Y-31610000D03*
D14*
X66725000Y-33750000D03*
D15*
X64600000Y-43150000D03*
X49510000Y-39820000D03*
X79450000Y-33520000D03*
D14*
X73530000Y-34140000D03*
D15*
X61240000Y-43030000D03*
X77750000Y-29125000D03*
X54190000Y-45090000D03*
D14*
X77450000Y-32125000D03*
D15*
X74920000Y-27780000D03*
X49440000Y-35950000D03*
D14*
X70630000Y-35310000D03*
D15*
X45930000Y-36090000D03*
X62000000Y-42400000D03*
D14*
X67730000Y-41880000D03*
X74850000Y-32050000D03*
X69200000Y-31825000D03*
%TO.N,N_DATA_3.3*%
X71775000Y-38925000D03*
X61950000Y-47725000D03*
%TO.N,BTN_PWR*%
X77332536Y-37182766D03*
X59400000Y-45650000D03*
%TO.N,I2C1_SCL*%
X62950000Y-47925000D03*
X77139800Y-41148000D03*
X75200000Y-30575000D03*
%TO.N,WL_D*%
X49525000Y-37375000D03*
X63850000Y-39150000D03*
D15*
X50150000Y-43425000D03*
D14*
%TO.N,I2C1_SDA*%
X74700000Y-31100000D03*
X63025000Y-47175000D03*
X75615800Y-41402000D03*
%TO.N,WL_ON*%
X64625000Y-40225000D03*
X57500000Y-39950000D03*
%TO.N,WL_CS*%
X59825000Y-43150000D03*
X51500000Y-40150000D03*
%TO.N,D+*%
X66350000Y-26450000D03*
%TO.N,VBUS_PRE*%
X68300000Y-27250000D03*
D15*
X63650000Y-33025000D03*
D14*
X66931705Y-31531926D03*
X73226839Y-29326195D03*
X65858902Y-28447463D03*
%TO.N,+3.3V_PRE*%
X70878732Y-27265074D03*
D15*
X78800000Y-27350000D03*
D14*
%TO.N,N_DATA*%
X64850000Y-30000000D03*
X70188400Y-29193512D03*
%TO.N,N_LATCH*%
X65372391Y-29497588D03*
X69438400Y-29193512D03*
%TO.N,N_CLOCK*%
X68688400Y-29193512D03*
D15*
%TO.N,VBUS_SYS*%
X80550000Y-35525000D03*
X79175000Y-31875000D03*
X83350000Y-26500000D03*
D14*
%TO.N,SHARED_PU*%
X74135268Y-33319448D03*
X69322351Y-35183614D03*
D15*
%TO.N,Net-(P1A-DO)*%
X63200000Y-39675000D03*
X49375000Y-38175000D03*
%TD*%
D17*
%TO.N,VBUS_PRE*%
X65858902Y-28447463D02*
X67852537Y-28447463D01*
X69480000Y-27250000D02*
X68300000Y-27250000D01*
X64856926Y-31531926D02*
X66931705Y-31531926D01*
X64175000Y-30850000D02*
X64856926Y-31531926D01*
X68300000Y-28000000D02*
X68300000Y-27250000D01*
X65858902Y-28447463D02*
X65377537Y-28447463D01*
X71556195Y-29326195D02*
X69480000Y-27250000D01*
X64175000Y-29650000D02*
X64175000Y-30850000D01*
X67852537Y-28447463D02*
X68300000Y-28000000D01*
X64856926Y-31531926D02*
X64856926Y-31818074D01*
X65377537Y-28447463D02*
X64175000Y-29650000D01*
X73226839Y-29326195D02*
X71556195Y-29326195D01*
X64856926Y-31818074D02*
X63650000Y-33025000D01*
D18*
%TO.N,+3.3V_PRE*%
X65000000Y-23675000D02*
X65000000Y-23275000D01*
X65459933Y-24134933D02*
X65000000Y-23675000D01*
X69325000Y-26050000D02*
X69325000Y-24575000D01*
X64674998Y-22949998D02*
X64674998Y-22811124D01*
X70540074Y-27265074D02*
X69325000Y-26050000D01*
X71259118Y-27265074D02*
X72369044Y-28375000D01*
X65000000Y-23275000D02*
X64674998Y-22949998D01*
X77775000Y-28375000D02*
X78800000Y-27350000D01*
X70878732Y-27265074D02*
X71259118Y-27265074D01*
X70878732Y-27265074D02*
X70540074Y-27265074D01*
X72369044Y-28375000D02*
X77775000Y-28375000D01*
X68884933Y-24134933D02*
X65459933Y-24134933D01*
X69325000Y-24575000D02*
X68884933Y-24134933D01*
%TD*%
%TA.AperFunction,Conductor*%
%TO.N,+3V3*%
G36*
X84667353Y-29150381D02*
G01*
X84905027Y-29169087D01*
X84924237Y-29172130D01*
X85151308Y-29226644D01*
X85169799Y-29232652D01*
X85340825Y-29303494D01*
X85385545Y-29322018D01*
X85402882Y-29330852D01*
X85601985Y-29452862D01*
X85617718Y-29464292D01*
X85795301Y-29615962D01*
X85809037Y-29629698D01*
X85960705Y-29807279D01*
X85972137Y-29823014D01*
X86094147Y-30022117D01*
X86102981Y-30039454D01*
X86192344Y-30255193D01*
X86198357Y-30273699D01*
X86252868Y-30500758D01*
X86255912Y-30519976D01*
X86274618Y-30757646D01*
X86275000Y-30767375D01*
X86275000Y-31735790D01*
X86274635Y-31745303D01*
X86252188Y-32037020D01*
X86249277Y-32055822D01*
X86183559Y-32336013D01*
X86177806Y-32354150D01*
X86069996Y-32620986D01*
X86061536Y-32638027D01*
X85911725Y-32889337D01*
X85906540Y-32897322D01*
X84437225Y-34980198D01*
X83999999Y-35600000D01*
X84063807Y-47085295D01*
X84063538Y-47094172D01*
X84045515Y-47366515D01*
X84043079Y-47384096D01*
X83987280Y-47646733D01*
X83982358Y-47663787D01*
X83889636Y-47915758D01*
X83882330Y-47931934D01*
X83754579Y-48168091D01*
X83745037Y-48183059D01*
X83584882Y-48398548D01*
X83573302Y-48412000D01*
X83384011Y-48602425D01*
X83370628Y-48614085D01*
X83156103Y-48775522D01*
X83141194Y-48785153D01*
X82905807Y-48914313D01*
X82889674Y-48921716D01*
X82638260Y-49015943D01*
X82621236Y-49020967D01*
X82358937Y-49078335D01*
X82341370Y-49080876D01*
X82069140Y-49100525D01*
X82060265Y-49100847D01*
X71877320Y-49105134D01*
X62308529Y-49109162D01*
X62299728Y-49108853D01*
X62029726Y-49089755D01*
X62012299Y-49087270D01*
X61752029Y-49031062D01*
X61735131Y-49026134D01*
X61485450Y-48933642D01*
X61469419Y-48926371D01*
X61235352Y-48799458D01*
X61220513Y-48789991D01*
X61006764Y-48631205D01*
X60993414Y-48619731D01*
X60804314Y-48432289D01*
X60792724Y-48419042D01*
X60674671Y-48263017D01*
X60632060Y-48206699D01*
X60622470Y-48191957D01*
X60493489Y-47958998D01*
X60486082Y-47943041D01*
X60483969Y-47937488D01*
X60409020Y-47740506D01*
X60391395Y-47694184D01*
X60386319Y-47677330D01*
X60327820Y-47417563D01*
X60325182Y-47400166D01*
X60318617Y-47317687D01*
X60332920Y-47249298D01*
X60381928Y-47199498D01*
X60450079Y-47184099D01*
X60504224Y-47200462D01*
X60612515Y-47262984D01*
X60686272Y-47282747D01*
X60745931Y-47319111D01*
X60773952Y-47370427D01*
X60774500Y-47372472D01*
X60774500Y-47372475D01*
X60811983Y-47512362D01*
X60812017Y-47512488D01*
X60884488Y-47638011D01*
X60884490Y-47638013D01*
X60884491Y-47638015D01*
X60986985Y-47740509D01*
X60986986Y-47740510D01*
X60986988Y-47740511D01*
X61112511Y-47812982D01*
X61112512Y-47812982D01*
X61112515Y-47812984D01*
X61252525Y-47850500D01*
X61252528Y-47850500D01*
X61318560Y-47850500D01*
X61385599Y-47870185D01*
X61431354Y-47922989D01*
X61433872Y-47929993D01*
X61433907Y-47929979D01*
X61437017Y-47937488D01*
X61509488Y-48063011D01*
X61509490Y-48063013D01*
X61509491Y-48063015D01*
X61611985Y-48165509D01*
X61611986Y-48165510D01*
X61611988Y-48165511D01*
X61737511Y-48237982D01*
X61737512Y-48237982D01*
X61737515Y-48237984D01*
X61877525Y-48275500D01*
X61877528Y-48275500D01*
X62022472Y-48275500D01*
X62022475Y-48275500D01*
X62162485Y-48237984D01*
X62288015Y-48165509D01*
X62288020Y-48165503D01*
X62290304Y-48163752D01*
X62292587Y-48162869D01*
X62295054Y-48161445D01*
X62295276Y-48161829D01*
X62355472Y-48138555D01*
X62423917Y-48152591D01*
X62473180Y-48200123D01*
X62509491Y-48263015D01*
X62611985Y-48365509D01*
X62611986Y-48365510D01*
X62611988Y-48365511D01*
X62737511Y-48437982D01*
X62737512Y-48437982D01*
X62737515Y-48437984D01*
X62877525Y-48475500D01*
X62877528Y-48475500D01*
X63022472Y-48475500D01*
X63022475Y-48475500D01*
X63162485Y-48437984D01*
X63288015Y-48365509D01*
X63390509Y-48263015D01*
X63462984Y-48137485D01*
X63500500Y-47997475D01*
X63500500Y-47852525D01*
X63462984Y-47712515D01*
X63438459Y-47670036D01*
X63421987Y-47602140D01*
X63444839Y-47536113D01*
X63458164Y-47520359D01*
X63465509Y-47513015D01*
X63537984Y-47387485D01*
X63575500Y-47247475D01*
X63575500Y-47102525D01*
X63537984Y-46962515D01*
X63537676Y-46961982D01*
X63465511Y-46836988D01*
X63465506Y-46836982D01*
X63363017Y-46734493D01*
X63363011Y-46734488D01*
X63237488Y-46662017D01*
X63237489Y-46662017D01*
X63226006Y-46658940D01*
X63097475Y-46624500D01*
X62952525Y-46624500D01*
X62823993Y-46658940D01*
X62812511Y-46662017D01*
X62686988Y-46734488D01*
X62686982Y-46734493D01*
X62584493Y-46836982D01*
X62584488Y-46836988D01*
X62512017Y-46962511D01*
X62512016Y-46962515D01*
X62474500Y-47102525D01*
X62474500Y-47102527D01*
X62474500Y-47177384D01*
X62454815Y-47244423D01*
X62402011Y-47290178D01*
X62332853Y-47300122D01*
X62288500Y-47284771D01*
X62162488Y-47212017D01*
X62162489Y-47212017D01*
X62151006Y-47208940D01*
X62022475Y-47174500D01*
X61956440Y-47174500D01*
X61889401Y-47154815D01*
X61843646Y-47102011D01*
X61841126Y-47095004D01*
X61841092Y-47095019D01*
X61837982Y-47087511D01*
X61765511Y-46961988D01*
X61765506Y-46961982D01*
X61663017Y-46859493D01*
X61663011Y-46859488D01*
X61537488Y-46787017D01*
X61537489Y-46787017D01*
X61525136Y-46783707D01*
X61463726Y-46767252D01*
X61404068Y-46730887D01*
X61376047Y-46679571D01*
X61375500Y-46677529D01*
X61375500Y-46677525D01*
X61337984Y-46537515D01*
X61265509Y-46411985D01*
X61163015Y-46309491D01*
X61163013Y-46309490D01*
X61163011Y-46309488D01*
X61037488Y-46237017D01*
X61037489Y-46237017D01*
X61026006Y-46233940D01*
X60897475Y-46199500D01*
X60752525Y-46199500D01*
X60623993Y-46233940D01*
X60612511Y-46237017D01*
X60481634Y-46312579D01*
X60413733Y-46329052D01*
X60347707Y-46306199D01*
X60304516Y-46251278D01*
X60295639Y-46206237D01*
X60273013Y-43509286D01*
X60289623Y-43446248D01*
X60332413Y-43372135D01*
X60337984Y-43362485D01*
X60375500Y-43222475D01*
X60375500Y-43077525D01*
X60342464Y-42954234D01*
X60664500Y-42954234D01*
X60664500Y-43105765D01*
X60703719Y-43252136D01*
X60741602Y-43317750D01*
X60779485Y-43383365D01*
X60886635Y-43490515D01*
X61017865Y-43566281D01*
X61164234Y-43605500D01*
X61164236Y-43605500D01*
X61315764Y-43605500D01*
X61315766Y-43605500D01*
X61462135Y-43566281D01*
X61593365Y-43490515D01*
X61700515Y-43383365D01*
X61776281Y-43252135D01*
X61815500Y-43105766D01*
X61815500Y-43099500D01*
X61822919Y-43074234D01*
X64024500Y-43074234D01*
X64024500Y-43225766D01*
X64031566Y-43252136D01*
X64063719Y-43372136D01*
X64101602Y-43437750D01*
X64139485Y-43503365D01*
X64246635Y-43610515D01*
X64377865Y-43686281D01*
X64524234Y-43725500D01*
X64524236Y-43725500D01*
X64675764Y-43725500D01*
X64675766Y-43725500D01*
X64822135Y-43686281D01*
X64953365Y-43610515D01*
X65060515Y-43503365D01*
X65136281Y-43372135D01*
X65175500Y-43225766D01*
X65175500Y-43074234D01*
X65136281Y-42927865D01*
X65060515Y-42796635D01*
X64953365Y-42689485D01*
X64887750Y-42651602D01*
X64822136Y-42613719D01*
X64748950Y-42594109D01*
X64675766Y-42574500D01*
X64524234Y-42574500D01*
X64377863Y-42613719D01*
X64246635Y-42689485D01*
X64246632Y-42689487D01*
X64139487Y-42796632D01*
X64139485Y-42796635D01*
X64063719Y-42927863D01*
X64035693Y-43032461D01*
X64024500Y-43074234D01*
X61822919Y-43074234D01*
X61835185Y-43032461D01*
X61887989Y-42986706D01*
X61939500Y-42975500D01*
X62075764Y-42975500D01*
X62075766Y-42975500D01*
X62222135Y-42936281D01*
X62353365Y-42860515D01*
X62460515Y-42753365D01*
X62536281Y-42622135D01*
X62575500Y-42475766D01*
X62575500Y-42324234D01*
X62536281Y-42177865D01*
X62460515Y-42046635D01*
X62353365Y-41939485D01*
X62287750Y-41901602D01*
X62222136Y-41863719D01*
X62142966Y-41842506D01*
X62075766Y-41824500D01*
X61924234Y-41824500D01*
X61777863Y-41863719D01*
X61646635Y-41939485D01*
X61646632Y-41939487D01*
X61539487Y-42046632D01*
X61539485Y-42046635D01*
X61463719Y-42177863D01*
X61424500Y-42324234D01*
X61424500Y-42330500D01*
X61404815Y-42397539D01*
X61352011Y-42443294D01*
X61300500Y-42454500D01*
X61164234Y-42454500D01*
X61017863Y-42493719D01*
X60886635Y-42569485D01*
X60886632Y-42569487D01*
X60779487Y-42676632D01*
X60779485Y-42676635D01*
X60703719Y-42807863D01*
X60664500Y-42954234D01*
X60342464Y-42954234D01*
X60337984Y-42937515D01*
X60283521Y-42843182D01*
X60266914Y-42782229D01*
X60262347Y-42237800D01*
X60281469Y-42170598D01*
X60333887Y-42124402D01*
X60354241Y-42116988D01*
X60462485Y-42087984D01*
X60588015Y-42015509D01*
X60690509Y-41913015D01*
X60762984Y-41787485D01*
X60800500Y-41647475D01*
X60800500Y-41502525D01*
X60762984Y-41362515D01*
X60743938Y-41329527D01*
X60690511Y-41236988D01*
X60690506Y-41236982D01*
X60588017Y-41134493D01*
X60588011Y-41134488D01*
X60462488Y-41062017D01*
X60462489Y-41062017D01*
X60343120Y-41030032D01*
X60283460Y-40993666D01*
X60252931Y-40930819D01*
X60251218Y-40911304D01*
X60240211Y-39599234D01*
X62624500Y-39599234D01*
X62624500Y-39750766D01*
X62633537Y-39784493D01*
X62663719Y-39897136D01*
X62701602Y-39962750D01*
X62739485Y-40028365D01*
X62846635Y-40135515D01*
X62977865Y-40211281D01*
X63124234Y-40250500D01*
X63124236Y-40250500D01*
X63275764Y-40250500D01*
X63275766Y-40250500D01*
X63422135Y-40211281D01*
X63553365Y-40135515D01*
X63660515Y-40028365D01*
X63736281Y-39897135D01*
X63764342Y-39792405D01*
X63800707Y-39732746D01*
X63856380Y-39703642D01*
X63870071Y-39700500D01*
X63922475Y-39700500D01*
X64062485Y-39662984D01*
X64081581Y-39651958D01*
X64099723Y-39647795D01*
X64116761Y-39648818D01*
X64133351Y-39644793D01*
X64150915Y-39650870D01*
X64169467Y-39651985D01*
X64183247Y-39662057D01*
X64199380Y-39667640D01*
X64210870Y-39682248D01*
X64225874Y-39693216D01*
X64232021Y-39709140D01*
X64242574Y-39722558D01*
X64244342Y-39741059D01*
X64251035Y-39758398D01*
X64247596Y-39775117D01*
X64249221Y-39792111D01*
X64240705Y-39808631D01*
X64236962Y-39826836D01*
X64225029Y-39839043D01*
X64217209Y-39854216D01*
X64215142Y-39856333D01*
X64184494Y-39886981D01*
X64184488Y-39886988D01*
X64112017Y-40012511D01*
X64112016Y-40012515D01*
X64074500Y-40152525D01*
X64074500Y-40297475D01*
X64085087Y-40336985D01*
X64112017Y-40437488D01*
X64184488Y-40563011D01*
X64184490Y-40563013D01*
X64184491Y-40563015D01*
X64286985Y-40665509D01*
X64286986Y-40665510D01*
X64286988Y-40665511D01*
X64412511Y-40737982D01*
X64412512Y-40737982D01*
X64412515Y-40737984D01*
X64552525Y-40775500D01*
X64552528Y-40775500D01*
X64697472Y-40775500D01*
X64697475Y-40775500D01*
X64837485Y-40737984D01*
X64963015Y-40665509D01*
X65065509Y-40563015D01*
X65137984Y-40437485D01*
X65175500Y-40297475D01*
X65175500Y-40152525D01*
X65137984Y-40012515D01*
X65065509Y-39886985D01*
X64963015Y-39784491D01*
X64963013Y-39784490D01*
X64963011Y-39784488D01*
X64837488Y-39712017D01*
X64837489Y-39712017D01*
X64806233Y-39703642D01*
X64697475Y-39674500D01*
X64552525Y-39674500D01*
X64457519Y-39699957D01*
X64412510Y-39712017D01*
X64412509Y-39712018D01*
X64409534Y-39713736D01*
X64406705Y-39714422D01*
X64405001Y-39715128D01*
X64404890Y-39714862D01*
X64341633Y-39730205D01*
X64275608Y-39707350D01*
X64232419Y-39652427D01*
X64225781Y-39582874D01*
X64257800Y-39520772D01*
X64259816Y-39518707D01*
X64290509Y-39488015D01*
X64362984Y-39362485D01*
X64400500Y-39222475D01*
X64400500Y-39077525D01*
X64362984Y-38937515D01*
X64353224Y-38920611D01*
X64290511Y-38811988D01*
X64290506Y-38811982D01*
X64188017Y-38709493D01*
X64188011Y-38709488D01*
X64062488Y-38637017D01*
X64062489Y-38637017D01*
X64051006Y-38633940D01*
X63922475Y-38599500D01*
X63777525Y-38599500D01*
X63648993Y-38633940D01*
X63637511Y-38637017D01*
X63511988Y-38709488D01*
X63511982Y-38709493D01*
X63409493Y-38811982D01*
X63409488Y-38811988D01*
X63337017Y-38937511D01*
X63337016Y-38937515D01*
X63318237Y-39007596D01*
X63281874Y-39067254D01*
X63219027Y-39097783D01*
X63198464Y-39099500D01*
X63124234Y-39099500D01*
X62977863Y-39138719D01*
X62846635Y-39214485D01*
X62846632Y-39214487D01*
X62739487Y-39321632D01*
X62739485Y-39321635D01*
X62663719Y-39452863D01*
X62634340Y-39562511D01*
X62624500Y-39599234D01*
X60240211Y-39599234D01*
X60211956Y-36231213D01*
X60212201Y-36222326D01*
X60212703Y-36214427D01*
X60229528Y-35949369D01*
X60231925Y-35931749D01*
X60287211Y-35668432D01*
X60292100Y-35651352D01*
X60384491Y-35398649D01*
X60391773Y-35382443D01*
X60519369Y-35145557D01*
X60528890Y-35130565D01*
X60689072Y-34914363D01*
X60700651Y-34900878D01*
X60890092Y-34709840D01*
X60903490Y-34698140D01*
X61118326Y-34536163D01*
X61133255Y-34526504D01*
X61369053Y-34396931D01*
X61385193Y-34389515D01*
X61637122Y-34295002D01*
X61654152Y-34289974D01*
X61917008Y-34232478D01*
X61934591Y-34229936D01*
X62207413Y-34210319D01*
X62216306Y-34210000D01*
X63620572Y-34210000D01*
X63629418Y-34210316D01*
X63900790Y-34229724D01*
X63918291Y-34232241D01*
X64179803Y-34289129D01*
X64196762Y-34294108D01*
X64447524Y-34387638D01*
X64463616Y-34394987D01*
X64698501Y-34523244D01*
X64713375Y-34532802D01*
X64717864Y-34536163D01*
X64927624Y-34693188D01*
X64940994Y-34704774D01*
X65130225Y-34894005D01*
X65141811Y-34907375D01*
X65302193Y-35121619D01*
X65311758Y-35136503D01*
X65440011Y-35371382D01*
X65447361Y-35387475D01*
X65540888Y-35638229D01*
X65545872Y-35655205D01*
X65602757Y-35916702D01*
X65605275Y-35934214D01*
X65624684Y-36205581D01*
X65625000Y-36214427D01*
X65625000Y-45334999D01*
X65625000Y-45335000D01*
X68100000Y-45325000D01*
X68107108Y-42332479D01*
X68126951Y-42265492D01*
X68143422Y-42245101D01*
X68170509Y-42218015D01*
X68228874Y-42116925D01*
X80450100Y-42116925D01*
X80450100Y-42261875D01*
X80487616Y-42401885D01*
X80487617Y-42401888D01*
X80560088Y-42527411D01*
X80560090Y-42527413D01*
X80560091Y-42527415D01*
X80662585Y-42629909D01*
X80662586Y-42629910D01*
X80662588Y-42629911D01*
X80788111Y-42702382D01*
X80788112Y-42702382D01*
X80788115Y-42702384D01*
X80928125Y-42739900D01*
X80928128Y-42739900D01*
X81073072Y-42739900D01*
X81073075Y-42739900D01*
X81213085Y-42702384D01*
X81338615Y-42629909D01*
X81441109Y-42527415D01*
X81513584Y-42401885D01*
X81551100Y-42261875D01*
X81551100Y-42116925D01*
X81513584Y-41976915D01*
X81476692Y-41913017D01*
X81441111Y-41851388D01*
X81441106Y-41851382D01*
X81338617Y-41748893D01*
X81338611Y-41748888D01*
X81213088Y-41676417D01*
X81213089Y-41676417D01*
X81179851Y-41667511D01*
X81073075Y-41638900D01*
X80928125Y-41638900D01*
X80821349Y-41667511D01*
X80788111Y-41676417D01*
X80662588Y-41748888D01*
X80662582Y-41748893D01*
X80560093Y-41851382D01*
X80560088Y-41851388D01*
X80487617Y-41976911D01*
X80487616Y-41976915D01*
X80450100Y-42116925D01*
X68228874Y-42116925D01*
X68242984Y-42092485D01*
X68280500Y-41952475D01*
X68280500Y-41807525D01*
X68242984Y-41667515D01*
X68239213Y-41660984D01*
X68170511Y-41541988D01*
X68170506Y-41541982D01*
X68145572Y-41517048D01*
X68130800Y-41489996D01*
X68114193Y-41464019D01*
X68113346Y-41458031D01*
X68112087Y-41455725D01*
X68109254Y-41429082D01*
X68109490Y-41329525D01*
X75065300Y-41329525D01*
X75065300Y-41474475D01*
X75102816Y-41614485D01*
X75102817Y-41614488D01*
X75175288Y-41740011D01*
X75175290Y-41740013D01*
X75175291Y-41740015D01*
X75277785Y-41842509D01*
X75277786Y-41842510D01*
X75277788Y-41842511D01*
X75403311Y-41914982D01*
X75403312Y-41914982D01*
X75403315Y-41914984D01*
X75543325Y-41952500D01*
X75543328Y-41952500D01*
X75688272Y-41952500D01*
X75688275Y-41952500D01*
X75828285Y-41914984D01*
X75953815Y-41842509D01*
X76056309Y-41740015D01*
X76128784Y-41614485D01*
X76166300Y-41474475D01*
X76166300Y-41329525D01*
X76128784Y-41189515D01*
X76097016Y-41134491D01*
X76094077Y-41129400D01*
X76094076Y-41129399D01*
X76086055Y-41115506D01*
X76062972Y-41075525D01*
X76589300Y-41075525D01*
X76589300Y-41220475D01*
X76618521Y-41329527D01*
X76626817Y-41360488D01*
X76699288Y-41486011D01*
X76699290Y-41486013D01*
X76699291Y-41486015D01*
X76801785Y-41588509D01*
X76801786Y-41588510D01*
X76801788Y-41588511D01*
X76927311Y-41660982D01*
X76927312Y-41660982D01*
X76927315Y-41660984D01*
X77067325Y-41698500D01*
X77067328Y-41698500D01*
X77212272Y-41698500D01*
X77212275Y-41698500D01*
X77352285Y-41660984D01*
X77477815Y-41588509D01*
X77580309Y-41486015D01*
X77652784Y-41360485D01*
X77690300Y-41220475D01*
X77690300Y-41075525D01*
X77652784Y-40935515D01*
X77625938Y-40889017D01*
X77580311Y-40809988D01*
X77580306Y-40809982D01*
X77477817Y-40707493D01*
X77477811Y-40707488D01*
X77352288Y-40635017D01*
X77352289Y-40635017D01*
X77340806Y-40631940D01*
X77212275Y-40597500D01*
X77067325Y-40597500D01*
X76938793Y-40631940D01*
X76927311Y-40635017D01*
X76801788Y-40707488D01*
X76801782Y-40707493D01*
X76699293Y-40809982D01*
X76699288Y-40809988D01*
X76626817Y-40935511D01*
X76626816Y-40935515D01*
X76589300Y-41075525D01*
X76062972Y-41075525D01*
X76056309Y-41063985D01*
X75953815Y-40961491D01*
X75953813Y-40961490D01*
X75953811Y-40961488D01*
X75828288Y-40889017D01*
X75828289Y-40889017D01*
X75816806Y-40885940D01*
X75688275Y-40851500D01*
X75543325Y-40851500D01*
X75414793Y-40885940D01*
X75403311Y-40889017D01*
X75277788Y-40961488D01*
X75277782Y-40961493D01*
X75175293Y-41063982D01*
X75175288Y-41063988D01*
X75102817Y-41189511D01*
X75102816Y-41189515D01*
X75065300Y-41329525D01*
X68109490Y-41329525D01*
X68109828Y-41187414D01*
X68129671Y-41120426D01*
X68182584Y-41074797D01*
X68251766Y-41065017D01*
X68315252Y-41094193D01*
X68321508Y-41100032D01*
X68336985Y-41115509D01*
X68336986Y-41115510D01*
X68336988Y-41115511D01*
X68462511Y-41187982D01*
X68462512Y-41187982D01*
X68462515Y-41187984D01*
X68602525Y-41225500D01*
X68602528Y-41225500D01*
X68747472Y-41225500D01*
X68747475Y-41225500D01*
X68887485Y-41187984D01*
X69013015Y-41115509D01*
X69115509Y-41013015D01*
X69187984Y-40887485D01*
X69225500Y-40747475D01*
X69225500Y-40602525D01*
X69187984Y-40462515D01*
X69115509Y-40336985D01*
X69013015Y-40234491D01*
X69013013Y-40234490D01*
X69013011Y-40234488D01*
X68887488Y-40162017D01*
X68887489Y-40162017D01*
X68876006Y-40158940D01*
X68747475Y-40124500D01*
X68602525Y-40124500D01*
X68473993Y-40158940D01*
X68462511Y-40162017D01*
X68336988Y-40234488D01*
X68323948Y-40247528D01*
X68262624Y-40281011D01*
X68192932Y-40276025D01*
X68137000Y-40234152D01*
X68112585Y-40168687D01*
X68112269Y-40159567D01*
X68113355Y-39702525D01*
X69649500Y-39702525D01*
X69649500Y-39847475D01*
X69660087Y-39886985D01*
X69687017Y-39987488D01*
X69759488Y-40113011D01*
X69759490Y-40113013D01*
X69759491Y-40113015D01*
X69861985Y-40215509D01*
X69861986Y-40215510D01*
X69861988Y-40215511D01*
X69987511Y-40287982D01*
X69987512Y-40287982D01*
X69987515Y-40287984D01*
X70127525Y-40325500D01*
X70127528Y-40325500D01*
X70272472Y-40325500D01*
X70272475Y-40325500D01*
X70412485Y-40287984D01*
X70538015Y-40215509D01*
X70640509Y-40113015D01*
X70712984Y-39987485D01*
X70750500Y-39847475D01*
X70750500Y-39702525D01*
X70712984Y-39562515D01*
X70669972Y-39488017D01*
X70640511Y-39436988D01*
X70640506Y-39436982D01*
X70538017Y-39334493D01*
X70538011Y-39334488D01*
X70412488Y-39262017D01*
X70412489Y-39262017D01*
X70401006Y-39258940D01*
X70272475Y-39224500D01*
X70127525Y-39224500D01*
X69998993Y-39258940D01*
X69987511Y-39262017D01*
X69861988Y-39334488D01*
X69861982Y-39334493D01*
X69759493Y-39436982D01*
X69759488Y-39436988D01*
X69687017Y-39562511D01*
X69687016Y-39562515D01*
X69649500Y-39702525D01*
X68113355Y-39702525D01*
X68115374Y-38852525D01*
X71224500Y-38852525D01*
X71224500Y-38997475D01*
X71250788Y-39095582D01*
X71262017Y-39137488D01*
X71334488Y-39263011D01*
X71334490Y-39263013D01*
X71334491Y-39263015D01*
X71436985Y-39365509D01*
X71436986Y-39365510D01*
X71436988Y-39365511D01*
X71562511Y-39437982D01*
X71562512Y-39437982D01*
X71562515Y-39437984D01*
X71702525Y-39475500D01*
X71702528Y-39475500D01*
X71847472Y-39475500D01*
X71847475Y-39475500D01*
X71987485Y-39437984D01*
X72113015Y-39365509D01*
X72215509Y-39263015D01*
X72287984Y-39137485D01*
X72325500Y-38997475D01*
X72325500Y-38852525D01*
X72287984Y-38712515D01*
X72286239Y-38709493D01*
X72215511Y-38586988D01*
X72215506Y-38586982D01*
X72138649Y-38510125D01*
X77910100Y-38510125D01*
X77910100Y-38655075D01*
X77947616Y-38795085D01*
X77947617Y-38795088D01*
X78020088Y-38920611D01*
X78020090Y-38920613D01*
X78020091Y-38920615D01*
X78122585Y-39023109D01*
X78122586Y-39023110D01*
X78122588Y-39023111D01*
X78248111Y-39095582D01*
X78248112Y-39095582D01*
X78248115Y-39095584D01*
X78388125Y-39133100D01*
X78388128Y-39133100D01*
X78533072Y-39133100D01*
X78533075Y-39133100D01*
X78673085Y-39095584D01*
X78798615Y-39023109D01*
X78901109Y-38920615D01*
X78973584Y-38795085D01*
X79011100Y-38655075D01*
X79011100Y-38510125D01*
X78973584Y-38370115D01*
X78901109Y-38244585D01*
X78798615Y-38142091D01*
X78798613Y-38142090D01*
X78798611Y-38142088D01*
X78673088Y-38069617D01*
X78673089Y-38069617D01*
X78661606Y-38066540D01*
X78533075Y-38032100D01*
X78388125Y-38032100D01*
X78259593Y-38066540D01*
X78248111Y-38069617D01*
X78122588Y-38142088D01*
X78122582Y-38142093D01*
X78020093Y-38244582D01*
X78020088Y-38244588D01*
X77947617Y-38370111D01*
X77947616Y-38370115D01*
X77910100Y-38510125D01*
X72138649Y-38510125D01*
X72113017Y-38484493D01*
X72113011Y-38484488D01*
X71987488Y-38412017D01*
X71987489Y-38412017D01*
X71976006Y-38408940D01*
X71847475Y-38374500D01*
X71702525Y-38374500D01*
X71573993Y-38408940D01*
X71562511Y-38412017D01*
X71436988Y-38484488D01*
X71436982Y-38484493D01*
X71334493Y-38586982D01*
X71334488Y-38586988D01*
X71262017Y-38712511D01*
X71262016Y-38712515D01*
X71224500Y-38852525D01*
X68115374Y-38852525D01*
X68119512Y-37110291D01*
X76782036Y-37110291D01*
X76782036Y-37255241D01*
X76819552Y-37395251D01*
X76819553Y-37395254D01*
X76892024Y-37520777D01*
X76892026Y-37520779D01*
X76892027Y-37520781D01*
X76994521Y-37623275D01*
X76994522Y-37623276D01*
X76994524Y-37623277D01*
X77120047Y-37695748D01*
X77120048Y-37695748D01*
X77120051Y-37695750D01*
X77260061Y-37733266D01*
X77260064Y-37733266D01*
X77405008Y-37733266D01*
X77405011Y-37733266D01*
X77545021Y-37695750D01*
X77670551Y-37623275D01*
X77773045Y-37520781D01*
X77845520Y-37395251D01*
X77883036Y-37255241D01*
X77883036Y-37110291D01*
X77845520Y-36970281D01*
X77773045Y-36844751D01*
X77670551Y-36742257D01*
X77670549Y-36742256D01*
X77670547Y-36742254D01*
X77545024Y-36669783D01*
X77545025Y-36669783D01*
X77533542Y-36666706D01*
X77405011Y-36632266D01*
X77260061Y-36632266D01*
X77131529Y-36666706D01*
X77120047Y-36669783D01*
X76994524Y-36742254D01*
X76994518Y-36742259D01*
X76892029Y-36844748D01*
X76892024Y-36844754D01*
X76819553Y-36970277D01*
X76819552Y-36970281D01*
X76782036Y-37110291D01*
X68119512Y-37110291D01*
X68120250Y-36799654D01*
X68120585Y-36790852D01*
X68140579Y-36519923D01*
X68143131Y-36502446D01*
X68200468Y-36241454D01*
X68205478Y-36224514D01*
X68209262Y-36214427D01*
X68299320Y-35974315D01*
X68306685Y-35958263D01*
X68316435Y-35940476D01*
X68435133Y-35723930D01*
X68444691Y-35709107D01*
X68605145Y-35495392D01*
X68616712Y-35482077D01*
X68656194Y-35442688D01*
X68717552Y-35409280D01*
X68787238Y-35414346D01*
X68843122Y-35456284D01*
X68851154Y-35468476D01*
X68881842Y-35521629D01*
X68984336Y-35624123D01*
X68984337Y-35624124D01*
X68984339Y-35624125D01*
X69109862Y-35696596D01*
X69109863Y-35696596D01*
X69109866Y-35696598D01*
X69249876Y-35734114D01*
X69249879Y-35734114D01*
X69394823Y-35734114D01*
X69394826Y-35734114D01*
X69534836Y-35696598D01*
X69660366Y-35624123D01*
X69762860Y-35521629D01*
X69827725Y-35409280D01*
X69835333Y-35396103D01*
X69835333Y-35396102D01*
X69835335Y-35396099D01*
X69839468Y-35380673D01*
X69875829Y-35321016D01*
X69938675Y-35290485D01*
X70008051Y-35298777D01*
X70061930Y-35343261D01*
X70079017Y-35380673D01*
X70083152Y-35396103D01*
X70116786Y-35521628D01*
X70117017Y-35522488D01*
X70189488Y-35648011D01*
X70189490Y-35648013D01*
X70189491Y-35648015D01*
X70291985Y-35750509D01*
X70291986Y-35750510D01*
X70291988Y-35750511D01*
X70417511Y-35822982D01*
X70417512Y-35822982D01*
X70417515Y-35822984D01*
X70557525Y-35860500D01*
X70557528Y-35860500D01*
X70702472Y-35860500D01*
X70702475Y-35860500D01*
X70842485Y-35822984D01*
X70968015Y-35750509D01*
X71070509Y-35648015D01*
X71142984Y-35522485D01*
X71162612Y-35449234D01*
X79974500Y-35449234D01*
X79974500Y-35600766D01*
X79980759Y-35624125D01*
X80013719Y-35747136D01*
X80015668Y-35750511D01*
X80089485Y-35878365D01*
X80196635Y-35985515D01*
X80327865Y-36061281D01*
X80474234Y-36100500D01*
X80474236Y-36100500D01*
X80625764Y-36100500D01*
X80625766Y-36100500D01*
X80772135Y-36061281D01*
X80903365Y-35985515D01*
X81010515Y-35878365D01*
X81086281Y-35747135D01*
X81125500Y-35600766D01*
X81125500Y-35449234D01*
X81086281Y-35302865D01*
X81010515Y-35171635D01*
X80903365Y-35064485D01*
X80837750Y-35026602D01*
X80772136Y-34988719D01*
X80698950Y-34969109D01*
X80625766Y-34949500D01*
X80474234Y-34949500D01*
X80327863Y-34988719D01*
X80196635Y-35064485D01*
X80196632Y-35064487D01*
X80089487Y-35171632D01*
X80089485Y-35171635D01*
X80013719Y-35302863D01*
X79983848Y-35414346D01*
X79974500Y-35449234D01*
X71162612Y-35449234D01*
X71180500Y-35382475D01*
X71180500Y-35237525D01*
X71142984Y-35097515D01*
X71142982Y-35097511D01*
X71078601Y-34986000D01*
X71062128Y-34918100D01*
X71084980Y-34852073D01*
X71139902Y-34808882D01*
X71185988Y-34800000D01*
X79874999Y-34800000D01*
X79875000Y-34800000D01*
X79871303Y-33964485D01*
X79890690Y-33897363D01*
X79907620Y-33876259D01*
X79910515Y-33873365D01*
X79986281Y-33742135D01*
X80025500Y-33595766D01*
X80025500Y-33444234D01*
X79986281Y-33297865D01*
X79910515Y-33166635D01*
X79903674Y-33159794D01*
X79870189Y-33098471D01*
X79867357Y-33072671D01*
X79858908Y-31163264D01*
X79859186Y-31154427D01*
X79877500Y-30882200D01*
X79879951Y-30864652D01*
X79935999Y-30602181D01*
X79940936Y-30585141D01*
X80033861Y-30333373D01*
X80041179Y-30317211D01*
X80169087Y-30081274D01*
X80178634Y-30066328D01*
X80338902Y-29851063D01*
X80350480Y-29837634D01*
X80539838Y-29647437D01*
X80553217Y-29635798D01*
X80630166Y-29577976D01*
X80767781Y-29474570D01*
X80782671Y-29464967D01*
X81018053Y-29336008D01*
X81034162Y-29328627D01*
X81285535Y-29234582D01*
X81302544Y-29229573D01*
X81564764Y-29172365D01*
X81582301Y-29169836D01*
X81854435Y-29150317D01*
X81863306Y-29150000D01*
X84657625Y-29150000D01*
X84667353Y-29150381D01*
G37*
%TD.AperFunction*%
%TD*%
M02*
