%TF.GenerationSoftware,KiCad,Pcbnew,8.0.2*%
%TF.CreationDate,2025-05-18T14:56:39-07:00*%
%TF.ProjectId,PGS_USBW_Board,5047535f-5553-4425-975f-426f6172642e,rev?*%
%TF.SameCoordinates,Original*%
%TF.FileFunction,Legend,Bot*%
%TF.FilePolarity,Positive*%
%FSLAX46Y46*%
G04 Gerber Fmt 4.6, Leading zero omitted, Abs format (unit mm)*
G04 Created by KiCad (PCBNEW 8.0.2) date 2025-05-18 14:56:39*
%MOMM*%
%LPD*%
G01*
G04 APERTURE LIST*
%ADD10C,0.100000*%
%ADD11C,0.187500*%
%ADD12C,0.120000*%
G04 APERTURE END LIST*
D10*
X87440000Y-37800000D02*
X86143569Y-36672266D01*
D11*
G36*
X65306507Y-19932793D02*
G01*
X65266112Y-19934010D01*
X65225339Y-19939321D01*
X65189425Y-19952150D01*
X65160944Y-19982137D01*
X65151441Y-20022449D01*
X65150985Y-20036657D01*
X65154995Y-20073430D01*
X65171634Y-20111255D01*
X65199054Y-20135782D01*
X65234936Y-20146481D01*
X65244957Y-20146933D01*
X65283388Y-20142071D01*
X65315543Y-20123522D01*
X65335312Y-20089337D01*
X65342113Y-20052321D01*
X65342960Y-20029879D01*
X65486025Y-20029879D01*
X65483744Y-20070619D01*
X65476989Y-20108041D01*
X65461259Y-20152513D01*
X65438137Y-20190462D01*
X65407942Y-20221531D01*
X65370995Y-20245363D01*
X65327616Y-20261603D01*
X65291052Y-20268586D01*
X65251186Y-20270947D01*
X65210780Y-20268624D01*
X65173013Y-20261772D01*
X65127266Y-20245896D01*
X65087421Y-20222697D01*
X65054168Y-20192592D01*
X65028198Y-20155998D01*
X65010203Y-20113331D01*
X65000875Y-20065008D01*
X64999676Y-20038855D01*
X65002501Y-19998712D01*
X65012845Y-19956668D01*
X65029927Y-19921514D01*
X65057173Y-19889499D01*
X65090940Y-19867503D01*
X65096213Y-19865198D01*
X65065167Y-19839161D01*
X65044178Y-19807905D01*
X65029689Y-19771187D01*
X65022403Y-19731344D01*
X65021658Y-19713890D01*
X65026172Y-19673346D01*
X65039118Y-19636321D01*
X65059603Y-19603396D01*
X65086734Y-19575152D01*
X65119618Y-19552173D01*
X65157362Y-19535038D01*
X65199073Y-19524331D01*
X65243858Y-19520633D01*
X65280659Y-19523065D01*
X65326066Y-19533575D01*
X65366674Y-19551856D01*
X65401810Y-19577325D01*
X65430804Y-19609396D01*
X65452982Y-19647487D01*
X65467673Y-19691013D01*
X65474205Y-19739391D01*
X65474485Y-19752175D01*
X65335632Y-19752175D01*
X65331939Y-19714704D01*
X65316618Y-19676742D01*
X65287639Y-19650485D01*
X65249171Y-19641716D01*
X65210628Y-19647824D01*
X65179664Y-19672602D01*
X65166551Y-19711135D01*
X65164724Y-19739169D01*
X65171596Y-19776804D01*
X65199011Y-19805916D01*
X65233735Y-19818742D01*
X65275287Y-19824466D01*
X65306507Y-19825448D01*
X65306507Y-19932793D01*
G37*
G36*
X64837194Y-20247500D02*
G01*
X64837194Y-20094176D01*
X64994914Y-20094176D01*
X64994914Y-20247500D01*
X64837194Y-20247500D01*
G37*
G36*
X64651447Y-19932793D02*
G01*
X64611052Y-19934010D01*
X64570280Y-19939321D01*
X64534365Y-19952150D01*
X64505884Y-19982137D01*
X64496382Y-20022449D01*
X64495926Y-20036657D01*
X64499936Y-20073430D01*
X64516575Y-20111255D01*
X64543995Y-20135782D01*
X64579877Y-20146481D01*
X64589898Y-20146933D01*
X64628329Y-20142071D01*
X64660484Y-20123522D01*
X64680252Y-20089337D01*
X64687054Y-20052321D01*
X64687900Y-20029879D01*
X64830966Y-20029879D01*
X64828684Y-20070619D01*
X64821930Y-20108041D01*
X64806200Y-20152513D01*
X64783077Y-20190462D01*
X64752883Y-20221531D01*
X64715936Y-20245363D01*
X64672556Y-20261603D01*
X64635993Y-20268586D01*
X64596126Y-20270947D01*
X64555720Y-20268624D01*
X64517954Y-20261772D01*
X64472207Y-20245896D01*
X64432361Y-20222697D01*
X64399108Y-20192592D01*
X64373139Y-20155998D01*
X64355144Y-20113331D01*
X64345816Y-20065008D01*
X64344617Y-20038855D01*
X64347442Y-19998712D01*
X64357786Y-19956668D01*
X64374867Y-19921514D01*
X64402113Y-19889499D01*
X64435881Y-19867503D01*
X64441154Y-19865198D01*
X64410108Y-19839161D01*
X64389119Y-19807905D01*
X64374630Y-19771187D01*
X64367343Y-19731344D01*
X64366599Y-19713890D01*
X64371113Y-19673346D01*
X64384059Y-19636321D01*
X64404543Y-19603396D01*
X64431674Y-19575152D01*
X64464559Y-19552173D01*
X64502303Y-19535038D01*
X64544014Y-19524331D01*
X64588799Y-19520633D01*
X64625600Y-19523065D01*
X64671007Y-19533575D01*
X64711615Y-19551856D01*
X64746751Y-19577325D01*
X64775744Y-19609396D01*
X64797923Y-19647487D01*
X64812614Y-19691013D01*
X64819146Y-19739391D01*
X64819425Y-19752175D01*
X64680573Y-19752175D01*
X64676879Y-19714704D01*
X64661559Y-19676742D01*
X64632580Y-19650485D01*
X64594111Y-19641716D01*
X64555569Y-19647824D01*
X64524605Y-19672602D01*
X64511492Y-19711135D01*
X64509664Y-19739169D01*
X64516537Y-19776804D01*
X64543951Y-19805916D01*
X64578675Y-19818742D01*
X64620228Y-19824466D01*
X64651447Y-19825448D01*
X64651447Y-19932793D01*
G37*
G36*
X63954989Y-20247500D02*
G01*
X63714654Y-19544080D01*
X63878419Y-19544080D01*
X64025331Y-20015957D01*
X64173159Y-19544080D01*
X64341137Y-19544080D01*
X64100985Y-20247500D01*
X63954989Y-20247500D01*
G37*
G36*
X63285275Y-20247500D02*
G01*
X63285275Y-19544080D01*
X63442995Y-19544080D01*
X63442995Y-20247500D01*
X63285275Y-20247500D01*
G37*
G36*
X62666669Y-20247500D02*
G01*
X62666669Y-19544080D01*
X62815046Y-19544080D01*
X62815046Y-19974375D01*
X63083042Y-19544080D01*
X63246623Y-19544080D01*
X63246623Y-20247500D01*
X63099345Y-20247500D01*
X63099345Y-19797055D01*
X62810100Y-20247500D01*
X62666669Y-20247500D01*
G37*
G36*
X62009568Y-27097456D02*
G01*
X62021410Y-27135950D01*
X62041382Y-27173754D01*
X62067832Y-27202290D01*
X62100961Y-27221436D01*
X62140973Y-27231068D01*
X62163624Y-27232278D01*
X62202285Y-27228284D01*
X62243257Y-27212324D01*
X62276102Y-27184635D01*
X62300864Y-27145708D01*
X62314887Y-27106805D01*
X62323789Y-27061274D01*
X62327121Y-27022928D01*
X62327755Y-26995423D01*
X62326322Y-26955206D01*
X62321993Y-26918314D01*
X62311633Y-26874536D01*
X62295927Y-26837240D01*
X62274765Y-26806754D01*
X62240469Y-26778719D01*
X62197253Y-26762470D01*
X62156113Y-26758386D01*
X62119383Y-26763006D01*
X62080353Y-26779769D01*
X62051526Y-26803506D01*
X62028215Y-26835539D01*
X62011602Y-26875533D01*
X62009568Y-26882950D01*
X61852581Y-26882950D01*
X61859234Y-26842361D01*
X61870935Y-26803916D01*
X61887505Y-26768016D01*
X61908766Y-26735068D01*
X61934540Y-26705474D01*
X61964647Y-26679638D01*
X61998911Y-26657965D01*
X62037151Y-26640857D01*
X62079190Y-26628720D01*
X62124850Y-26621957D01*
X62157212Y-26620633D01*
X62194251Y-26622346D01*
X62246382Y-26631207D01*
X62294164Y-26647354D01*
X62337328Y-26670496D01*
X62375607Y-26700338D01*
X62408733Y-26736587D01*
X62436436Y-26778949D01*
X62458450Y-26827132D01*
X62469833Y-26862342D01*
X62478488Y-26899922D01*
X62484337Y-26939784D01*
X62487299Y-26981842D01*
X62487673Y-27003667D01*
X62486017Y-27047186D01*
X62481149Y-27088082D01*
X62473218Y-27126330D01*
X62462374Y-27161905D01*
X62440972Y-27210196D01*
X62413856Y-27252328D01*
X62381530Y-27288214D01*
X62344499Y-27317769D01*
X62303267Y-27340905D01*
X62258339Y-27357538D01*
X62210219Y-27367580D01*
X62159411Y-27370947D01*
X62114640Y-27368143D01*
X62072748Y-27359898D01*
X62033879Y-27346460D01*
X61998179Y-27328076D01*
X61965792Y-27304995D01*
X61936864Y-27277465D01*
X61911538Y-27245734D01*
X61889961Y-27210050D01*
X61872277Y-27170662D01*
X61858631Y-27127817D01*
X61851848Y-27097456D01*
X62009568Y-27097456D01*
G37*
G36*
X61332710Y-27347500D02*
G01*
X61332710Y-27208831D01*
X61678191Y-27208831D01*
X61678191Y-26644080D01*
X61835911Y-26644080D01*
X61835911Y-27347500D01*
X61332710Y-27347500D01*
G37*
G36*
X60686993Y-27347500D02*
G01*
X60971841Y-26923799D01*
X60689924Y-26644080D01*
X60895820Y-26644080D01*
X61154107Y-26916655D01*
X61154107Y-26644080D01*
X61309812Y-26644080D01*
X61309812Y-27347500D01*
X61154107Y-27347500D01*
X61154107Y-27108630D01*
X61083216Y-27039387D01*
X60878601Y-27347500D01*
X60686993Y-27347500D01*
G37*
G36*
X62004796Y-29322500D02*
G01*
X62004796Y-29183831D01*
X62350278Y-29183831D01*
X62350278Y-28619080D01*
X62507998Y-28619080D01*
X62507998Y-29322500D01*
X62004796Y-29322500D01*
G37*
G36*
X62005346Y-29322500D02*
G01*
X61838467Y-29322500D01*
X61789008Y-29181816D01*
X61540246Y-29181816D01*
X61496100Y-29322500D01*
X61325007Y-29322500D01*
X61421633Y-29050474D01*
X61586042Y-29050474D01*
X61747425Y-29050474D01*
X61665733Y-28783927D01*
X61586042Y-29050474D01*
X61421633Y-29050474D01*
X61574868Y-28619080D01*
X61752188Y-28619080D01*
X62005346Y-29322500D01*
G37*
G36*
X61136513Y-29322500D02*
G01*
X61136513Y-28752620D01*
X60925487Y-28752620D01*
X60925487Y-28619080D01*
X61504343Y-28619080D01*
X61504343Y-28752620D01*
X61294233Y-28752620D01*
X61294233Y-29322500D01*
X61136513Y-29322500D01*
G37*
G36*
X60465883Y-29072456D02*
G01*
X60477726Y-29110950D01*
X60497698Y-29148754D01*
X60524147Y-29177290D01*
X60557277Y-29196436D01*
X60597289Y-29206068D01*
X60619939Y-29207278D01*
X60658600Y-29203284D01*
X60699573Y-29187324D01*
X60732417Y-29159635D01*
X60757180Y-29120708D01*
X60771202Y-29081805D01*
X60780105Y-29036274D01*
X60783437Y-28997928D01*
X60784071Y-28970423D01*
X60782638Y-28930206D01*
X60778308Y-28893314D01*
X60767948Y-28849536D01*
X60752243Y-28812240D01*
X60731081Y-28781754D01*
X60696784Y-28753719D01*
X60653569Y-28737470D01*
X60612429Y-28733386D01*
X60575699Y-28738006D01*
X60536669Y-28754769D01*
X60507841Y-28778506D01*
X60484531Y-28810539D01*
X60467918Y-28850533D01*
X60465883Y-28857950D01*
X60308896Y-28857950D01*
X60315549Y-28817361D01*
X60327250Y-28778916D01*
X60343821Y-28743016D01*
X60365082Y-28710068D01*
X60390855Y-28680474D01*
X60420963Y-28654638D01*
X60455226Y-28632965D01*
X60493466Y-28615857D01*
X60535506Y-28603720D01*
X60581165Y-28596957D01*
X60613528Y-28595633D01*
X60650566Y-28597346D01*
X60702698Y-28606207D01*
X60750480Y-28622354D01*
X60793644Y-28645496D01*
X60831923Y-28675338D01*
X60865048Y-28711587D01*
X60892752Y-28753949D01*
X60914766Y-28802132D01*
X60926148Y-28837342D01*
X60934804Y-28874922D01*
X60940652Y-28914784D01*
X60943615Y-28956842D01*
X60943989Y-28978667D01*
X60942333Y-29022186D01*
X60937464Y-29063082D01*
X60929534Y-29101330D01*
X60918689Y-29136905D01*
X60897288Y-29185196D01*
X60870172Y-29227328D01*
X60837846Y-29263214D01*
X60800815Y-29292769D01*
X60759583Y-29315905D01*
X60714655Y-29332538D01*
X60666534Y-29342580D01*
X60615726Y-29345947D01*
X60570955Y-29343143D01*
X60529063Y-29334898D01*
X60490195Y-29321460D01*
X60454494Y-29303076D01*
X60422108Y-29279995D01*
X60393179Y-29252465D01*
X60367854Y-29220734D01*
X60346277Y-29185050D01*
X60328592Y-29145662D01*
X60314946Y-29102817D01*
X60308163Y-29072456D01*
X60465883Y-29072456D01*
G37*
G36*
X59715569Y-29322500D02*
G01*
X59715569Y-28619080D01*
X59874205Y-28619080D01*
X59874205Y-28877001D01*
X60134507Y-28877001D01*
X60134507Y-28619080D01*
X60292227Y-28619080D01*
X60292227Y-29322500D01*
X60134507Y-29322500D01*
X60134507Y-29010540D01*
X59874205Y-29010540D01*
X59874205Y-29322500D01*
X59715569Y-29322500D01*
G37*
G36*
X62484708Y-31372500D02*
G01*
X62186853Y-31372500D01*
X62136905Y-31368689D01*
X62090413Y-31357529D01*
X62047697Y-31339427D01*
X62009074Y-31314791D01*
X61974862Y-31284028D01*
X61945379Y-31247545D01*
X61920943Y-31205751D01*
X61901871Y-31159052D01*
X61888481Y-31107857D01*
X61882869Y-31071430D01*
X61880018Y-31033306D01*
X61879657Y-31013646D01*
X62040491Y-31013646D01*
X62041875Y-31054797D01*
X62046093Y-31091814D01*
X62056299Y-31134771D01*
X62071961Y-31170455D01*
X62099575Y-31204904D01*
X62136550Y-31228149D01*
X62173184Y-31238738D01*
X62216346Y-31242257D01*
X62331201Y-31242257D01*
X62331201Y-30801704D01*
X62228802Y-30801704D01*
X62181371Y-30804515D01*
X62141573Y-30813233D01*
X62101946Y-30833093D01*
X62072827Y-30863692D01*
X62053429Y-30905870D01*
X62044379Y-30948513D01*
X62041100Y-30985968D01*
X62040491Y-31013646D01*
X61879657Y-31013646D01*
X61881253Y-30974819D01*
X61885958Y-30937937D01*
X61898573Y-30886430D01*
X61917485Y-30839734D01*
X61942277Y-30798109D01*
X61972530Y-30761816D01*
X62007826Y-30731117D01*
X62047746Y-30706271D01*
X62091871Y-30687540D01*
X62139784Y-30675185D01*
X62191065Y-30669466D01*
X62208835Y-30669080D01*
X62484708Y-30669080D01*
X62484708Y-31372500D01*
G37*
G36*
X61946885Y-31372500D02*
G01*
X61780006Y-31372500D01*
X61730547Y-31231816D01*
X61481785Y-31231816D01*
X61437639Y-31372500D01*
X61266546Y-31372500D01*
X61363172Y-31100474D01*
X61527581Y-31100474D01*
X61688964Y-31100474D01*
X61607272Y-30833927D01*
X61527581Y-31100474D01*
X61363172Y-31100474D01*
X61516407Y-30669080D01*
X61693727Y-30669080D01*
X61946885Y-31372500D01*
G37*
G36*
X61078052Y-31372500D02*
G01*
X61078052Y-30802620D01*
X60867026Y-30802620D01*
X60867026Y-30669080D01*
X61445882Y-30669080D01*
X61445882Y-30802620D01*
X61235772Y-30802620D01*
X61235772Y-31372500D01*
X61078052Y-31372500D01*
G37*
G36*
X61049292Y-31372500D02*
G01*
X60882414Y-31372500D01*
X60832954Y-31231816D01*
X60584193Y-31231816D01*
X60540046Y-31372500D01*
X60368954Y-31372500D01*
X60465580Y-31100474D01*
X60629989Y-31100474D01*
X60791372Y-31100474D01*
X60709679Y-30833927D01*
X60629989Y-31100474D01*
X60465580Y-31100474D01*
X60618814Y-30669080D01*
X60796135Y-30669080D01*
X61049292Y-31372500D01*
G37*
G36*
X62201726Y-33077672D02*
G01*
X62180720Y-33046505D01*
X62149901Y-33025957D01*
X62112141Y-33019292D01*
X62107754Y-33019237D01*
X62067917Y-33026264D01*
X62037246Y-33050371D01*
X62022139Y-33085422D01*
X62017994Y-33126032D01*
X62020871Y-33165248D01*
X62032224Y-33202425D01*
X62057296Y-33232209D01*
X62097082Y-33246815D01*
X62116180Y-33248032D01*
X62155376Y-33240600D01*
X62186755Y-33215131D01*
X62202996Y-33177013D01*
X62206306Y-33155525D01*
X62354134Y-33155525D01*
X62347628Y-33201649D01*
X62332796Y-33243358D01*
X62310480Y-33280116D01*
X62281525Y-33311390D01*
X62246773Y-33336644D01*
X62207070Y-33355345D01*
X62163257Y-33366957D01*
X62116180Y-33370947D01*
X62076789Y-33368300D01*
X62039909Y-33360537D01*
X61995155Y-33342681D01*
X61956099Y-33316822D01*
X61923447Y-33283583D01*
X61897907Y-33243590D01*
X61883843Y-33209538D01*
X61874474Y-33172302D01*
X61870098Y-33132145D01*
X61869800Y-33118155D01*
X61872164Y-33080880D01*
X61882263Y-33035913D01*
X61899573Y-32996660D01*
X61923296Y-32963450D01*
X61952636Y-32936615D01*
X61986798Y-32916485D01*
X62024984Y-32903391D01*
X62066398Y-32897663D01*
X62077162Y-32897421D01*
X62115937Y-32899588D01*
X62152565Y-32906511D01*
X62188104Y-32920778D01*
X62209420Y-32937172D01*
X62203924Y-32771392D01*
X61895995Y-32771392D01*
X61895995Y-32644080D01*
X62337098Y-32644080D01*
X62352119Y-33076756D01*
X62201726Y-33077672D01*
G37*
G36*
X61479988Y-33347500D02*
G01*
X61239653Y-32644080D01*
X61403418Y-32644080D01*
X61550330Y-33115957D01*
X61698158Y-32644080D01*
X61866136Y-32644080D01*
X61625985Y-33347500D01*
X61479988Y-33347500D01*
G37*
G36*
X60810275Y-33347500D02*
G01*
X60810275Y-32644080D01*
X60967994Y-32644080D01*
X60967994Y-33347500D01*
X60810275Y-33347500D01*
G37*
G36*
X60191668Y-33347500D02*
G01*
X60191668Y-32644080D01*
X60340046Y-32644080D01*
X60340046Y-33074375D01*
X60608041Y-32644080D01*
X60771623Y-32644080D01*
X60771623Y-33347500D01*
X60624345Y-33347500D01*
X60624345Y-32897055D01*
X60335100Y-33347500D01*
X60191668Y-33347500D01*
G37*
G36*
X67969914Y-24697500D02*
G01*
X67672059Y-24697500D01*
X67622111Y-24693689D01*
X67575619Y-24682529D01*
X67532903Y-24664427D01*
X67494280Y-24639791D01*
X67460068Y-24609028D01*
X67430585Y-24572545D01*
X67406149Y-24530751D01*
X67387077Y-24484052D01*
X67373687Y-24432857D01*
X67368075Y-24396430D01*
X67365224Y-24358306D01*
X67364863Y-24338646D01*
X67525697Y-24338646D01*
X67527081Y-24379797D01*
X67531299Y-24416814D01*
X67541505Y-24459771D01*
X67557167Y-24495455D01*
X67584781Y-24529904D01*
X67621756Y-24553149D01*
X67658390Y-24563738D01*
X67701552Y-24567257D01*
X67816407Y-24567257D01*
X67816407Y-24126704D01*
X67714008Y-24126704D01*
X67666577Y-24129515D01*
X67626779Y-24138233D01*
X67587152Y-24158093D01*
X67558033Y-24188692D01*
X67538635Y-24230870D01*
X67529585Y-24273513D01*
X67526306Y-24310968D01*
X67525697Y-24338646D01*
X67364863Y-24338646D01*
X67366459Y-24299819D01*
X67371164Y-24262937D01*
X67383779Y-24211430D01*
X67402691Y-24164734D01*
X67427483Y-24123109D01*
X67457736Y-24086816D01*
X67493032Y-24056117D01*
X67532952Y-24031271D01*
X67577077Y-24012540D01*
X67624990Y-24000185D01*
X67676271Y-23994466D01*
X67694041Y-23994080D01*
X67969914Y-23994080D01*
X67969914Y-24697500D01*
G37*
G36*
X67071405Y-24427855D02*
G01*
X67071405Y-24310252D01*
X67343614Y-24310252D01*
X67343614Y-24427855D01*
X67071405Y-24427855D01*
G37*
G36*
X66786557Y-24697500D02*
G01*
X66488703Y-24697500D01*
X66438754Y-24693689D01*
X66392263Y-24682529D01*
X66349547Y-24664427D01*
X66310924Y-24639791D01*
X66276712Y-24609028D01*
X66247228Y-24572545D01*
X66222792Y-24530751D01*
X66203720Y-24484052D01*
X66190331Y-24432857D01*
X66184719Y-24396430D01*
X66181867Y-24358306D01*
X66181506Y-24338646D01*
X66342340Y-24338646D01*
X66343724Y-24379797D01*
X66347942Y-24416814D01*
X66358149Y-24459771D01*
X66373811Y-24495455D01*
X66401424Y-24529904D01*
X66438399Y-24553149D01*
X66475033Y-24563738D01*
X66518195Y-24567257D01*
X66633050Y-24567257D01*
X66633050Y-24126704D01*
X66530652Y-24126704D01*
X66483220Y-24129515D01*
X66443423Y-24138233D01*
X66403795Y-24158093D01*
X66374676Y-24188692D01*
X66355278Y-24230870D01*
X66346228Y-24273513D01*
X66342950Y-24310968D01*
X66342340Y-24338646D01*
X66181506Y-24338646D01*
X66183102Y-24299819D01*
X66187807Y-24262937D01*
X66200422Y-24211430D01*
X66219335Y-24164734D01*
X66244127Y-24123109D01*
X66274380Y-24086816D01*
X66309675Y-24056117D01*
X66349595Y-24031271D01*
X66393720Y-24012540D01*
X66441633Y-24000185D01*
X66492915Y-23994466D01*
X66510685Y-23994080D01*
X66786557Y-23994080D01*
X66786557Y-24697500D01*
G37*
G36*
X65841887Y-24580263D02*
G01*
X65841887Y-24385907D01*
X65643501Y-24385907D01*
X65643501Y-24275448D01*
X65841887Y-24275448D01*
X65841887Y-24076146D01*
X65952346Y-24076146D01*
X65952346Y-24275448D01*
X66149816Y-24275448D01*
X66149816Y-24385907D01*
X65952346Y-24385907D01*
X65952346Y-24580263D01*
X65841887Y-24580263D01*
G37*
D10*
G36*
X85499595Y-36610526D02*
G01*
X85499595Y-36221814D01*
X85102822Y-36221814D01*
X85102822Y-36024344D01*
X85499595Y-36024344D01*
X85499595Y-35625739D01*
X85697065Y-35625739D01*
X85697065Y-36024344D01*
X86092006Y-36024344D01*
X86092006Y-36221814D01*
X85697065Y-36221814D01*
X85697065Y-36610526D01*
X85499595Y-36610526D01*
G37*
G36*
X90926003Y-45362500D02*
G01*
X90612028Y-45362500D01*
X90565054Y-45360399D01*
X90522824Y-45354217D01*
X90485312Y-45344132D01*
X90442588Y-45324922D01*
X90408137Y-45299513D01*
X90381897Y-45268327D01*
X90363803Y-45231788D01*
X90353789Y-45190319D01*
X90351543Y-45156236D01*
X90352349Y-45145978D01*
X90493326Y-45145978D01*
X90500617Y-45184784D01*
X90521697Y-45215862D01*
X90555382Y-45236499D01*
X90594266Y-45243858D01*
X90600488Y-45243981D01*
X90785319Y-45243981D01*
X90785319Y-45059150D01*
X90598290Y-45059150D01*
X90559372Y-45063079D01*
X90524913Y-45077523D01*
X90500582Y-45107141D01*
X90493326Y-45145978D01*
X90352349Y-45145978D01*
X90354869Y-45113916D01*
X90364299Y-45078442D01*
X90382524Y-45044083D01*
X90411525Y-45014036D01*
X90446725Y-44993264D01*
X90457606Y-44988808D01*
X90423923Y-44968529D01*
X90396973Y-44938960D01*
X90379089Y-44902074D01*
X90372842Y-44866076D01*
X90513293Y-44866076D01*
X90522107Y-44904836D01*
X90551700Y-44931418D01*
X90590905Y-44940146D01*
X90601404Y-44940448D01*
X90785319Y-44940448D01*
X90785319Y-44791704D01*
X90609830Y-44791704D01*
X90570698Y-44794907D01*
X90536008Y-44809106D01*
X90515416Y-44843591D01*
X90513293Y-44866076D01*
X90372842Y-44866076D01*
X90372716Y-44865351D01*
X90372609Y-44859848D01*
X90376032Y-44818591D01*
X90386219Y-44781623D01*
X90408279Y-44742014D01*
X90440477Y-44710420D01*
X90473375Y-44691405D01*
X90512486Y-44678360D01*
X90557689Y-44671659D01*
X90582536Y-44670804D01*
X90926003Y-44670804D01*
X90926003Y-45362500D01*
G37*
G36*
X90376090Y-45362500D02*
G01*
X90221851Y-45362500D01*
X90172391Y-45221816D01*
X89915204Y-45221816D01*
X89871057Y-45362500D01*
X89712421Y-45362500D01*
X89804933Y-45102198D01*
X89957152Y-45102198D01*
X90134656Y-45102198D01*
X90045446Y-44826509D01*
X90044347Y-44826509D01*
X89957152Y-45102198D01*
X89804933Y-45102198D01*
X89958251Y-44670804D01*
X90127329Y-44670804D01*
X90376090Y-45362500D01*
G37*
G36*
X89521545Y-45362500D02*
G01*
X89521545Y-44792620D01*
X89310519Y-44792620D01*
X89310519Y-44670804D01*
X89877651Y-44670804D01*
X89877651Y-44792620D01*
X89667541Y-44792620D01*
X89667541Y-45362500D01*
X89521545Y-45362500D01*
G37*
G36*
X88934630Y-45362500D02*
G01*
X88934630Y-44792620D01*
X88723604Y-44792620D01*
X88723604Y-44670804D01*
X89290736Y-44670804D01*
X89290736Y-44792620D01*
X89080626Y-44792620D01*
X89080626Y-45362500D01*
X88934630Y-45362500D01*
G37*
G36*
X88159769Y-45362500D02*
G01*
X88159769Y-45238668D01*
X88547199Y-45238668D01*
X88547199Y-45063363D01*
X88205931Y-45063363D01*
X88205931Y-44940448D01*
X88547199Y-44940448D01*
X88547199Y-44792620D01*
X88176439Y-44792620D01*
X88176439Y-44670804D01*
X88688982Y-44670804D01*
X88688982Y-45362500D01*
X88159769Y-45362500D01*
G37*
G36*
X88130643Y-45362500D02*
G01*
X87988860Y-45362500D01*
X87988860Y-45092855D01*
X87833339Y-45092855D01*
X87792109Y-45095693D01*
X87754091Y-45108988D01*
X87730903Y-45138474D01*
X87724237Y-45179080D01*
X87724162Y-45185179D01*
X87724162Y-45362500D01*
X87581463Y-45362500D01*
X87581463Y-45167594D01*
X87584001Y-45126729D01*
X87593947Y-45089737D01*
X87615736Y-45059112D01*
X87650057Y-45038067D01*
X87666460Y-45032039D01*
X87631893Y-45014562D01*
X87603995Y-44990057D01*
X87583018Y-44959611D01*
X87569216Y-44924311D01*
X87562842Y-44885243D01*
X87562804Y-44884028D01*
X87699066Y-44884028D01*
X87704859Y-44920616D01*
X87726738Y-44952450D01*
X87761817Y-44970004D01*
X87798904Y-44975141D01*
X87806045Y-44975252D01*
X87988860Y-44975252D01*
X87988860Y-44791704D01*
X87800915Y-44791704D01*
X87759371Y-44796964D01*
X87725969Y-44814620D01*
X87704779Y-44846805D01*
X87699066Y-44884028D01*
X87562804Y-44884028D01*
X87562412Y-44871571D01*
X87566325Y-44830074D01*
X87577739Y-44791901D01*
X87596174Y-44757735D01*
X87621145Y-44728254D01*
X87652170Y-44704140D01*
X87688765Y-44686074D01*
X87730448Y-44674735D01*
X87776735Y-44670804D01*
X88130643Y-44670804D01*
X88130643Y-45362500D01*
G37*
G36*
X87214549Y-45362500D02*
G01*
X87214549Y-45103297D01*
X86981359Y-44670804D01*
X87149520Y-44670804D01*
X87284891Y-44952172D01*
X87431987Y-44670804D01*
X87601980Y-44670804D01*
X87360546Y-45101099D01*
X87360546Y-45362500D01*
X87214549Y-45362500D01*
G37*
X85616109Y-43803333D02*
X85973252Y-43803333D01*
X85973252Y-43803333D02*
X86044680Y-43779524D01*
X86044680Y-43779524D02*
X86092300Y-43731905D01*
X86092300Y-43731905D02*
X86116109Y-43660476D01*
X86116109Y-43660476D02*
X86116109Y-43612857D01*
X85782776Y-44255714D02*
X86116109Y-44255714D01*
X85592300Y-44136666D02*
X85949442Y-44017619D01*
X85949442Y-44017619D02*
X85949442Y-44327142D01*
D12*
%TO.C,J4*%
X91480000Y-37890000D02*
X86760000Y-37890000D01*
X88870000Y-38500000D02*
X88870000Y-37890000D01*
X90170000Y-38500000D02*
X90170000Y-37890000D01*
X91480000Y-44010000D02*
X91480000Y-37890000D01*
X90870000Y-38500000D02*
X87370000Y-38500000D01*
X90870000Y-40450000D02*
X90870000Y-38500000D01*
X91480000Y-40450000D02*
X90870000Y-40450000D01*
X87370000Y-40850000D02*
X87870000Y-40850000D01*
X87870000Y-40950000D02*
X87370000Y-40950000D01*
X87870000Y-41050000D02*
X87370000Y-41050000D01*
X87870000Y-40850000D02*
X87870000Y-41050000D01*
X90870000Y-43400000D02*
X90870000Y-41450000D01*
X90870000Y-41450000D02*
X91480000Y-41450000D01*
X91680000Y-42250000D02*
X91480000Y-42250000D01*
X91580000Y-42550000D02*
X91580000Y-42250000D01*
X91680000Y-42550000D02*
X91680000Y-42250000D01*
X91480000Y-42550000D02*
X91680000Y-42550000D01*
X91780000Y-44310000D02*
X91780000Y-43060000D01*
X87370000Y-38500000D02*
X87370000Y-43400000D01*
X87370000Y-43400000D02*
X90870000Y-43400000D01*
X86760000Y-37890000D02*
X86760000Y-44010000D01*
X88870000Y-43400000D02*
X88870000Y-44010000D01*
X90170000Y-43400000D02*
X90170000Y-44010000D01*
X86760000Y-44010000D02*
X91480000Y-44010000D01*
X90530000Y-44310000D02*
X91780000Y-44310000D01*
%TO.C,TP1*%
X64350000Y-29025000D02*
G75*
G02*
X62950000Y-29025000I-700000J0D01*
G01*
X62950000Y-29025000D02*
G75*
G02*
X64350000Y-29025000I700000J0D01*
G01*
%TO.C,TP7*%
X64350000Y-33025000D02*
G75*
G02*
X62950000Y-33025000I-700000J0D01*
G01*
X62950000Y-33025000D02*
G75*
G02*
X64350000Y-33025000I700000J0D01*
G01*
%TO.C,TP6*%
X64775000Y-21350000D02*
G75*
G02*
X63375000Y-21350000I-700000J0D01*
G01*
X63375000Y-21350000D02*
G75*
G02*
X64775000Y-21350000I700000J0D01*
G01*
%TO.C,TP2*%
X64350000Y-27025000D02*
G75*
G02*
X62950000Y-27025000I-700000J0D01*
G01*
X62950000Y-27025000D02*
G75*
G02*
X64350000Y-27025000I700000J0D01*
G01*
%TO.C,TP4*%
X68700000Y-25600000D02*
G75*
G02*
X67300000Y-25600000I-700000J0D01*
G01*
X67300000Y-25600000D02*
G75*
G02*
X68700000Y-25600000I700000J0D01*
G01*
%TO.C,TP5*%
X66825000Y-25600000D02*
G75*
G02*
X65425000Y-25600000I-700000J0D01*
G01*
X65425000Y-25600000D02*
G75*
G02*
X66825000Y-25600000I700000J0D01*
G01*
%TO.C,TP3*%
X64350000Y-31025000D02*
G75*
G02*
X62950000Y-31025000I-700000J0D01*
G01*
X62950000Y-31025000D02*
G75*
G02*
X64350000Y-31025000I700000J0D01*
G01*
%TD*%
M02*
