%TF.GenerationSoftware,KiCad,Pcbnew,9.0.3*%
%TF.CreationDate,2025-09-24T00:53:28-07:00*%
%TF.ProjectId,PGS_USBW_Board,5047535f-5553-4425-975f-426f6172642e,rev?*%
%TF.SameCoordinates,Original*%
%TF.FileFunction,Profile,NP*%
%FSLAX46Y46*%
G04 Gerber Fmt 4.6, Leading zero omitted, Abs format (unit mm)*
G04 Created by KiCad (PCBNEW 9.0.3) date 2025-09-24 00:53:28*
%MOMM*%
%LPD*%
G01*
G04 APERTURE LIST*
%TA.AperFunction,Profile*%
%ADD10C,0.010000*%
%TD*%
%ADD11C,0.010000*%
G04 APERTURE END LIST*
D10*
X73526993Y-22725690D02*
G75*
G02*
X73908031Y-23003947I7J-400010D01*
G01*
X88055082Y-36575001D02*
G75*
G02*
X88055082Y-34224999I18J1175001D01*
G01*
X71874997Y-17571338D02*
X62274999Y-17571337D01*
X91039999Y-36575001D02*
G75*
G02*
X91539999Y-37075002I1J-499999D01*
G01*
X61774998Y-18071337D02*
X61774998Y-22325767D01*
X44325000Y-44697902D02*
X44324999Y-48221337D01*
X41265299Y-38149797D02*
X43057839Y-38149797D01*
D11*
X45783436Y-34772086D02*
X45785956Y-34762077D01*
X45788398Y-34752050D01*
X45790762Y-34742003D01*
X45793048Y-34731938D01*
X45795256Y-34721857D01*
X45797386Y-34711758D01*
X45799438Y-34701643D01*
X45801411Y-34691512D01*
X45803306Y-34681366D01*
X45805122Y-34671206D01*
X45806859Y-34661032D01*
X45808517Y-34650845D01*
X45810097Y-34640645D01*
X45811597Y-34630433D01*
X45813018Y-34620210D01*
X45814360Y-34609976D01*
X45815001Y-34604856D01*
X45815622Y-34599732D01*
X45816224Y-34594607D01*
X45816805Y-34589479D01*
X45817367Y-34584349D01*
X45817909Y-34579216D01*
X45818431Y-34574082D01*
X45818933Y-34568945D01*
X45819415Y-34563807D01*
X45819877Y-34558667D01*
X45820319Y-34553525D01*
X45820742Y-34548382D01*
X45821144Y-34543236D01*
X45821526Y-34538090D01*
X45821889Y-34532942D01*
X45822231Y-34527792D01*
X45822554Y-34522641D01*
X45822857Y-34517489D01*
X45823139Y-34512336D01*
X45823402Y-34507181D01*
X45823645Y-34502026D01*
X45823867Y-34496870D01*
X45824070Y-34491713D01*
X45824253Y-34486555D01*
X45824416Y-34481397D01*
X45824558Y-34476237D01*
X45824681Y-34471078D01*
X45824784Y-34465918D01*
X45824867Y-34460757D01*
X45824929Y-34455596D01*
X45824972Y-34450436D01*
X45824995Y-34445274D01*
X45824999Y-34441985D01*
D10*
X73526993Y-22725690D02*
X72774997Y-22725691D01*
X88967389Y-25752318D02*
X78679140Y-24272284D01*
X91540000Y-48221338D02*
X91539999Y-40929158D01*
X89825000Y-33725000D02*
X89825000Y-26742127D01*
X89825000Y-33725000D02*
G75*
G02*
X89324998Y-34225000I-500000J0D01*
G01*
X41265299Y-38149797D02*
G75*
G02*
X40845039Y-37378917I1J499997D01*
G01*
X60241979Y-23003950D02*
G75*
G02*
X58574999Y-24221310I-1666979J532650D01*
G01*
X55470845Y-24272285D02*
X46679479Y-25536982D01*
X40845015Y-41270692D02*
G75*
G02*
X41265298Y-40499778I420285J270892D01*
G01*
X60241979Y-23003950D02*
G75*
G02*
X60623079Y-22725674I381121J-121850D01*
G01*
X58574999Y-24221336D02*
X56182799Y-24221337D01*
X48549531Y-46721337D02*
G75*
G02*
X45549533Y-46721337I-1499999J0D01*
G01*
X45549533Y-46721337D02*
G75*
G02*
X48549531Y-46721337I1499999J0D01*
G01*
X43057835Y-42824796D02*
G75*
G02*
X40844979Y-41270715I805965J3500096D01*
G01*
X43057839Y-38149797D02*
G75*
G02*
X43057840Y-40499803I1J-1175003D01*
G01*
D11*
X44323083Y-35762685D02*
X44333323Y-35763965D01*
X44343572Y-35765166D01*
X44353830Y-35766287D01*
X44364097Y-35767328D01*
X44374371Y-35768290D01*
X44384653Y-35769172D01*
X44394941Y-35769975D01*
X44405235Y-35770698D01*
X44415535Y-35771341D01*
X44425839Y-35771904D01*
X44436148Y-35772388D01*
X44446460Y-35772791D01*
X44456775Y-35773115D01*
X44467093Y-35773358D01*
X44477412Y-35773522D01*
X44487732Y-35773605D01*
X44498053Y-35773609D01*
X44508373Y-35773533D01*
X44518693Y-35773376D01*
X44529011Y-35773140D01*
X44539327Y-35772824D01*
X44549641Y-35772428D01*
X44559951Y-35771951D01*
X44570258Y-35771395D01*
X44580560Y-35770759D01*
X44590857Y-35770044D01*
X44596003Y-35769656D01*
X44601147Y-35769248D01*
X44606291Y-35768820D01*
X44611432Y-35768373D01*
X44616572Y-35767905D01*
X44621710Y-35767418D01*
X44626845Y-35766910D01*
X44631979Y-35766383D01*
X44637111Y-35765836D01*
X44642241Y-35765269D01*
X44647368Y-35764682D01*
X44652494Y-35764075D01*
X44657616Y-35763449D01*
X44662737Y-35762802D01*
X44667854Y-35762136D01*
X44672970Y-35761450D01*
X44678082Y-35760744D01*
X44683192Y-35760018D01*
X44688299Y-35759272D01*
X44693403Y-35758507D01*
X44698504Y-35757722D01*
X44703602Y-35756917D01*
X44708696Y-35756092D01*
X44713788Y-35755248D01*
X44718876Y-35754384D01*
X44723961Y-35753500D01*
X44729042Y-35752596D01*
X44734120Y-35751673D01*
X44739194Y-35750730D01*
X44744265Y-35749767D01*
X44749332Y-35748785D01*
X44754395Y-35747783D01*
X44759454Y-35746762D01*
X44764509Y-35745721D01*
X44769560Y-35744660D01*
X44774607Y-35743580D01*
X44779649Y-35742480D01*
X44784688Y-35741360D01*
X44789721Y-35740222D01*
X44794751Y-35739063D01*
X44799776Y-35737885D01*
X44804797Y-35736688D01*
X44809812Y-35735471D01*
X44814824Y-35734235D01*
X44819830Y-35732979D01*
X44824831Y-35731704D01*
X44829827Y-35730410D01*
X44834819Y-35729096D01*
X44843747Y-35726694D01*
D10*
X61774998Y-18071337D02*
G75*
G02*
X62274999Y-17571298I500002J37D01*
G01*
X88967389Y-25752318D02*
G75*
G02*
X89824972Y-26742127I-142389J-989782D01*
G01*
X61748398Y-24614372D02*
G75*
G02*
X60248400Y-24614372I-749999J0D01*
G01*
X60248400Y-24614372D02*
G75*
G02*
X61748398Y-24614372I749999J0D01*
G01*
X61374998Y-22725690D02*
X60623079Y-22725690D01*
X40845015Y-37378901D02*
G75*
G02*
X44323084Y-35762680I3018835J-1945989D01*
G01*
X45824999Y-26526337D02*
G75*
G02*
X46679474Y-25536945I1000001J37D01*
G01*
X75574998Y-24221337D02*
G75*
G02*
X73907995Y-23003959I2J1750037D01*
G01*
X77967206Y-24221337D02*
X75574998Y-24221337D01*
X45824999Y-26526337D02*
X45824999Y-34441985D01*
X91039999Y-36575001D02*
X88055082Y-36575001D01*
X77967206Y-24221337D02*
G75*
G02*
X78679140Y-24272285I-6J-4999763D01*
G01*
D11*
X45312057Y-35492218D02*
X45320171Y-35485842D01*
X45328235Y-35479404D01*
X45336249Y-35472903D01*
X45344213Y-35466340D01*
X45352126Y-35459716D01*
X45359987Y-35453031D01*
X45367796Y-35446285D01*
X45375552Y-35439478D01*
X45383256Y-35432612D01*
X45390906Y-35425685D01*
X45398503Y-35418700D01*
X45406045Y-35411656D01*
X45413532Y-35404554D01*
X45420965Y-35397394D01*
X45428341Y-35390176D01*
X45435662Y-35382901D01*
X45442926Y-35375570D01*
X45450133Y-35368182D01*
X45457283Y-35360739D01*
X45464375Y-35353240D01*
X45471408Y-35345687D01*
X45478383Y-35338079D01*
X45485299Y-35330418D01*
X45492156Y-35322703D01*
X45498952Y-35314934D01*
X45502328Y-35311031D01*
X45505688Y-35307114D01*
X45509033Y-35303184D01*
X45512364Y-35299241D01*
X45515678Y-35295286D01*
X45518978Y-35291317D01*
X45522262Y-35287336D01*
X45525530Y-35283342D01*
X45528783Y-35279335D01*
X45532021Y-35275316D01*
X45535243Y-35271284D01*
X45538449Y-35267240D01*
X45541640Y-35263183D01*
X45544815Y-35259114D01*
X45547974Y-35255033D01*
X45551117Y-35250940D01*
X45554244Y-35246834D01*
X45557356Y-35242716D01*
X45560451Y-35238587D01*
X45563531Y-35234445D01*
X45566594Y-35230291D01*
X45569641Y-35226126D01*
X45572672Y-35221948D01*
X45575687Y-35217759D01*
X45578686Y-35213559D01*
X45581668Y-35209346D01*
X45584634Y-35205123D01*
X45587584Y-35200887D01*
X45590517Y-35196641D01*
X45593434Y-35192382D01*
X45596334Y-35188113D01*
X45599217Y-35183833D01*
X45602084Y-35179541D01*
X45604935Y-35175238D01*
X45607768Y-35170924D01*
X45610585Y-35166599D01*
X45613385Y-35162264D01*
X45616169Y-35157917D01*
X45618935Y-35153560D01*
X45621685Y-35149192D01*
X45624417Y-35144814D01*
X45627133Y-35140424D01*
X45629832Y-35136025D01*
X45632514Y-35131614D01*
X45635178Y-35127194D01*
X45637825Y-35122763D01*
X45640455Y-35118322D01*
X45643069Y-35113870D01*
X45647736Y-35105819D01*
X44843747Y-35726694D02*
X44853692Y-35723940D01*
X44863616Y-35721109D01*
X44873517Y-35718202D01*
X44883396Y-35715217D01*
X44893251Y-35712157D01*
X44903082Y-35709019D01*
X44912889Y-35705806D01*
X44922671Y-35702517D01*
X44932426Y-35699152D01*
X44942156Y-35695712D01*
X44951859Y-35692196D01*
X44961534Y-35688605D01*
X44971181Y-35684939D01*
X44980800Y-35681199D01*
X44990390Y-35677384D01*
X44999949Y-35673495D01*
X45009479Y-35669532D01*
X45018977Y-35665494D01*
X45028445Y-35661384D01*
X45037880Y-35657200D01*
X45047282Y-35652943D01*
X45056651Y-35648613D01*
X45065987Y-35644211D01*
X45075288Y-35639737D01*
X45084555Y-35635190D01*
X45093785Y-35630572D01*
X45098387Y-35628236D01*
X45102980Y-35625882D01*
X45107564Y-35623511D01*
X45112139Y-35621122D01*
X45116704Y-35618715D01*
X45121260Y-35616290D01*
X45125806Y-35613848D01*
X45130343Y-35611388D01*
X45134871Y-35608910D01*
X45139389Y-35606415D01*
X45143897Y-35603903D01*
X45148395Y-35601373D01*
X45152883Y-35598826D01*
X45157362Y-35596261D01*
X45161831Y-35593679D01*
X45166290Y-35591079D01*
X45170738Y-35588463D01*
X45175176Y-35585829D01*
X45179604Y-35583178D01*
X45184022Y-35580509D01*
X45188430Y-35577824D01*
X45192827Y-35575122D01*
X45197213Y-35572402D01*
X45201589Y-35569666D01*
X45205954Y-35566912D01*
X45210309Y-35564142D01*
X45214653Y-35561355D01*
X45218986Y-35558551D01*
X45223308Y-35555730D01*
X45227619Y-35552893D01*
X45231919Y-35550039D01*
X45236208Y-35547168D01*
X45240486Y-35544281D01*
X45244753Y-35541377D01*
X45249008Y-35538456D01*
X45253252Y-35535519D01*
X45257485Y-35532566D01*
X45261706Y-35529596D01*
X45265916Y-35526610D01*
X45270114Y-35523607D01*
X45274300Y-35520589D01*
X45278475Y-35517554D01*
X45282638Y-35514503D01*
X45286789Y-35511435D01*
X45290928Y-35508352D01*
X45295055Y-35505253D01*
X45299170Y-35502138D01*
X45303274Y-35499006D01*
X45307364Y-35495859D01*
X45311444Y-35492696D01*
X45312057Y-35492218D01*
D10*
X46324999Y-50221337D02*
G75*
G02*
X44324963Y-48221337I1J2000037D01*
G01*
D11*
X45647736Y-35105819D02*
X45652846Y-35096853D01*
X45657886Y-35087848D01*
X45662856Y-35078805D01*
X45667756Y-35069722D01*
X45672586Y-35060602D01*
X45677344Y-35051445D01*
X45682032Y-35042251D01*
X45686648Y-35033021D01*
X45691193Y-35023755D01*
X45695666Y-35014454D01*
X45700067Y-35005119D01*
X45704395Y-34995750D01*
X45708650Y-34986347D01*
X45712833Y-34976912D01*
X45716942Y-34967444D01*
X45720978Y-34957945D01*
X45724941Y-34948414D01*
X45728829Y-34938853D01*
X45730745Y-34934061D01*
X45732643Y-34929262D01*
X45734522Y-34924456D01*
X45736383Y-34919642D01*
X45738224Y-34914821D01*
X45740048Y-34909993D01*
X45741852Y-34905157D01*
X45743638Y-34900315D01*
X45745405Y-34895466D01*
X45747153Y-34890610D01*
X45748882Y-34885748D01*
X45750593Y-34880878D01*
X45752284Y-34876002D01*
X45753957Y-34871120D01*
X45755611Y-34866231D01*
X45757246Y-34861336D01*
X45758861Y-34856434D01*
X45760458Y-34851526D01*
X45762036Y-34846612D01*
X45763595Y-34841692D01*
X45765134Y-34836766D01*
X45766655Y-34831833D01*
X45768156Y-34826896D01*
X45769639Y-34821952D01*
X45771102Y-34817002D01*
X45772546Y-34812047D01*
X45773971Y-34807086D01*
X45775376Y-34802120D01*
X45776762Y-34797148D01*
X45778129Y-34792171D01*
X45779477Y-34787189D01*
X45780805Y-34782201D01*
X45782114Y-34777208D01*
X45783404Y-34772210D01*
X45783436Y-34772086D01*
D10*
X61774998Y-22325767D02*
G75*
G02*
X61374998Y-22725698I-399898J-33D01*
G01*
X46324999Y-50221337D02*
X89540001Y-50221337D01*
X91539999Y-40929158D02*
X91540000Y-37075002D01*
X55470845Y-24272287D02*
G75*
G02*
X56182799Y-24221338I711955J-4948913D01*
G01*
X73901597Y-26605822D02*
G75*
G02*
X72401599Y-26605822I-749999J0D01*
G01*
X72401599Y-26605822D02*
G75*
G02*
X73901597Y-26605822I749999J0D01*
G01*
X71874997Y-17571338D02*
G75*
G02*
X72374962Y-18071338I3J-499962D01*
G01*
X72374997Y-22325690D02*
X72374997Y-18071338D01*
X91540000Y-48221338D02*
G75*
G02*
X89540001Y-50221400I-2000100J38D01*
G01*
X43057835Y-42824796D02*
G75*
G02*
X44325026Y-44697902I-733035J-1861104D01*
G01*
X88055082Y-34225001D02*
X89324998Y-34225002D01*
X43057840Y-40499796D02*
X41265299Y-40499797D01*
X72774997Y-22725691D02*
G75*
G02*
X72375009Y-22325690I3J399991D01*
G01*
M02*
