%TF.GenerationSoftware,KiCad,Pcbnew,8.0.2*%
%TF.CreationDate,2025-05-18T14:56:39-07:00*%
%TF.ProjectId,PGS_USBW_Board,5047535f-5553-4425-975f-426f6172642e,rev?*%
%TF.SameCoordinates,Original*%
%TF.FileFunction,Copper,L1,Top*%
%TF.FilePolarity,Positive*%
%FSLAX46Y46*%
G04 Gerber Fmt 4.6, Leading zero omitted, Abs format (unit mm)*
G04 Created by KiCad (PCBNEW 8.0.2) date 2025-05-18 14:56:39*
%MOMM*%
%LPD*%
G01*
G04 APERTURE LIST*
G04 Aperture macros list*
%AMRoundRect*
0 Rectangle with rounded corners*
0 $1 Rounding radius*
0 $2 $3 $4 $5 $6 $7 $8 $9 X,Y pos of 4 corners*
0 Add a 4 corners polygon primitive as box body*
4,1,4,$2,$3,$4,$5,$6,$7,$8,$9,$2,$3,0*
0 Add four circle primitives for the rounded corners*
1,1,$1+$1,$2,$3*
1,1,$1+$1,$4,$5*
1,1,$1+$1,$6,$7*
1,1,$1+$1,$8,$9*
0 Add four rect primitives between the rounded corners*
20,1,$1+$1,$2,$3,$4,$5,0*
20,1,$1+$1,$4,$5,$6,$7,0*
20,1,$1+$1,$6,$7,$8,$9,0*
20,1,$1+$1,$8,$9,$2,$3,0*%
%AMFreePoly0*
4,1,45,-0.121464,1.703536,-0.120000,1.700000,-0.120000,1.205000,0.120000,1.205000,0.120000,1.700000,0.121464,1.703536,0.125000,1.705000,0.375000,1.705000,0.378536,1.703536,0.380000,1.700000,0.380000,1.205000,0.825000,1.205000,0.828536,1.203536,0.830000,1.200000,0.830000,-1.200000,0.828536,-1.203536,0.825000,-1.205000,0.380000,-1.205000,0.380000,-1.700000,0.378536,-1.703536,
0.375000,-1.705000,0.125000,-1.705000,0.121464,-1.703536,0.120000,-1.700000,0.120000,-1.205000,-0.120000,-1.205000,-0.120000,-1.700000,-0.121464,-1.703536,-0.125000,-1.705000,-0.375000,-1.705000,-0.378536,-1.703536,-0.380000,-1.700000,-0.380000,-1.205000,-0.825000,-1.205000,-0.828536,-1.203536,-0.830000,-1.200000,-0.830000,1.200000,-0.828536,1.203536,-0.825000,1.205000,-0.380000,1.205000,
-0.380000,1.700000,-0.378536,1.703536,-0.375000,1.705000,-0.125000,1.705000,-0.121464,1.703536,-0.121464,1.703536,$1*%
G04 Aperture macros list end*
%TA.AperFunction,ComponentPad*%
%ADD10O,1.750000X1.200000*%
%TD*%
%TA.AperFunction,ComponentPad*%
%ADD11RoundRect,0.250000X0.625000X-0.350000X0.625000X0.350000X-0.625000X0.350000X-0.625000X-0.350000X0*%
%TD*%
%TA.AperFunction,SMDPad,CuDef*%
%ADD12RoundRect,0.100000X0.130000X0.100000X-0.130000X0.100000X-0.130000X-0.100000X0.130000X-0.100000X0*%
%TD*%
%TA.AperFunction,SMDPad,CuDef*%
%ADD13RoundRect,0.100000X-0.130000X-0.100000X0.130000X-0.100000X0.130000X0.100000X-0.130000X0.100000X0*%
%TD*%
%TA.AperFunction,SMDPad,CuDef*%
%ADD14C,0.230000*%
%TD*%
%TA.AperFunction,SMDPad,CuDef*%
%ADD15RoundRect,0.100000X0.100000X-0.130000X0.100000X0.130000X-0.100000X0.130000X-0.100000X-0.130000X0*%
%TD*%
%TA.AperFunction,SMDPad,CuDef*%
%ADD16R,2.000000X1.000000*%
%TD*%
%TA.AperFunction,SMDPad,CuDef*%
%ADD17R,1.000000X2.000000*%
%TD*%
%TA.AperFunction,SMDPad,CuDef*%
%ADD18RoundRect,0.100000X0.100000X-0.225000X0.100000X0.225000X-0.100000X0.225000X-0.100000X-0.225000X0*%
%TD*%
%TA.AperFunction,SMDPad,CuDef*%
%ADD19RoundRect,0.218750X-0.256250X0.218750X-0.256250X-0.218750X0.256250X-0.218750X0.256250X0.218750X0*%
%TD*%
%TA.AperFunction,SMDPad,CuDef*%
%ADD20RoundRect,0.250000X-0.475000X0.250000X-0.475000X-0.250000X0.475000X-0.250000X0.475000X0.250000X0*%
%TD*%
%TA.AperFunction,SMDPad,CuDef*%
%ADD21RoundRect,0.250000X-0.250000X0.250000X-0.250000X-0.250000X0.250000X-0.250000X0.250000X0.250000X0*%
%TD*%
%TA.AperFunction,SMDPad,CuDef*%
%ADD22RoundRect,0.250000X0.475000X-0.250000X0.475000X0.250000X-0.475000X0.250000X-0.475000X-0.250000X0*%
%TD*%
%TA.AperFunction,SMDPad,CuDef*%
%ADD23RoundRect,0.093750X0.093750X-0.156250X0.093750X0.156250X-0.093750X0.156250X-0.093750X-0.156250X0*%
%TD*%
%TA.AperFunction,SMDPad,CuDef*%
%ADD24RoundRect,0.075000X0.075000X-0.250000X0.075000X0.250000X-0.075000X0.250000X-0.075000X-0.250000X0*%
%TD*%
%TA.AperFunction,SMDPad,CuDef*%
%ADD25RoundRect,0.007200X-0.112800X0.292800X-0.112800X-0.292800X0.112800X-0.292800X0.112800X0.292800X0*%
%TD*%
%TA.AperFunction,SMDPad,CuDef*%
%ADD26FreePoly0,270.000000*%
%TD*%
%TA.AperFunction,SMDPad,CuDef*%
%ADD27RoundRect,0.250000X0.250000X-0.250000X0.250000X0.250000X-0.250000X0.250000X-0.250000X-0.250000X0*%
%TD*%
%TA.AperFunction,SMDPad,CuDef*%
%ADD28RoundRect,0.250000X-0.375000X-0.850000X0.375000X-0.850000X0.375000X0.850000X-0.375000X0.850000X0*%
%TD*%
%TA.AperFunction,SMDPad,CuDef*%
%ADD29R,0.300000X0.900000*%
%TD*%
%TA.AperFunction,ComponentPad*%
%ADD30C,0.600000*%
%TD*%
%TA.AperFunction,ComponentPad*%
%ADD31O,0.800000X1.400000*%
%TD*%
%TA.AperFunction,SMDPad,CuDef*%
%ADD32RoundRect,0.250000X0.250000X0.250000X-0.250000X0.250000X-0.250000X-0.250000X0.250000X-0.250000X0*%
%TD*%
%TA.AperFunction,SMDPad,CuDef*%
%ADD33R,0.300000X1.000000*%
%TD*%
%TA.AperFunction,SMDPad,CuDef*%
%ADD34R,2.000000X1.300000*%
%TD*%
%TA.AperFunction,SMDPad,CuDef*%
%ADD35RoundRect,0.250000X0.450000X0.425000X-0.450000X0.425000X-0.450000X-0.425000X0.450000X-0.425000X0*%
%TD*%
%TA.AperFunction,ViaPad*%
%ADD36C,0.600000*%
%TD*%
%TA.AperFunction,ViaPad*%
%ADD37C,0.650000*%
%TD*%
%TA.AperFunction,ViaPad*%
%ADD38C,1.000000*%
%TD*%
%TA.AperFunction,Conductor*%
%ADD39C,0.200000*%
%TD*%
%TA.AperFunction,Conductor*%
%ADD40C,0.450000*%
%TD*%
%TA.AperFunction,Conductor*%
%ADD41C,0.342500*%
%TD*%
%TA.AperFunction,Conductor*%
%ADD42C,0.150000*%
%TD*%
G04 APERTURE END LIST*
D10*
%TO.P,J4,2,Pin_2*%
%TO.N,BATTERY_POS*%
X89670000Y-39950000D03*
D11*
%TO.P,J4,1,Pin_1*%
%TO.N,GND*%
X89670000Y-41950000D03*
%TD*%
D12*
%TO.P,R13,1*%
%TO.N,Net-(D4-A)*%
X76305091Y-32183329D03*
%TO.P,R13,2*%
%TO.N,GND*%
X75665091Y-32183329D03*
%TD*%
D13*
%TO.P,R3,1*%
%TO.N,+3V3*%
X69330000Y-38950000D03*
%TO.P,R3,2*%
%TO.N,N_LATCH_3.3*%
X69970000Y-38950000D03*
%TD*%
%TO.P,R11,1*%
%TO.N,BAT_LVL*%
X70630000Y-42300000D03*
%TO.P,R11,2*%
%TO.N,BATTERY_POS*%
X71270000Y-42300000D03*
%TD*%
D12*
%TO.P,R4,1*%
%TO.N,+3V3*%
X69315000Y-39725000D03*
%TO.P,R4,2*%
%TO.N,N_CLOCK_3.3*%
X68675000Y-39725000D03*
%TD*%
D14*
%TO.P,U5,A1,/INT*%
%TO.N,unconnected-(U5-{slash}INT-PadA1)*%
X76425001Y-30125000D03*
%TO.P,U5,A2,IN*%
%TO.N,VBUS*%
X76824999Y-30125000D03*
%TO.P,U5,B1,SCL*%
%TO.N,I2C1_SCL*%
X76425000Y-30525000D03*
%TO.P,U5,B2,SYS*%
%TO.N,VBUS_SYS*%
X76825000Y-30525000D03*
%TO.P,U5,C1,SDA*%
%TO.N,I2C1_SDA*%
X76425000Y-30925000D03*
%TO.P,U5,C2,BAT*%
%TO.N,BATTERY_POS*%
X76825000Y-30925000D03*
%TO.P,U5,D1,TS/MR*%
%TO.N,Net-(D4-A)*%
X76425001Y-31325000D03*
%TO.P,U5,D2,GND*%
%TO.N,GND*%
X76824999Y-31325000D03*
%TD*%
D15*
%TO.P,R2,1*%
%TO.N,GND*%
X67975000Y-28665000D03*
%TO.P,R2,2*%
%TO.N,Net-(J2-CC1)*%
X67975000Y-28025000D03*
%TD*%
D16*
%TO.P,P1,A1,GND*%
%TO.N,GND*%
X47750000Y-31375000D03*
%TO.P,P1,A2,NC1*%
%TO.N,unconnected-(P1A-NC1-PadA2)*%
X47750000Y-32875000D03*
%TO.P,P1,A3,SCLK*%
%TO.N,WL_CLK*%
X47750000Y-34375000D03*
%TO.P,P1,A4,GND*%
%TO.N,GND*%
X47750000Y-35875000D03*
%TO.P,P1,A5,DI*%
%TO.N,WL_D*%
X47750000Y-37375000D03*
%TO.P,P1,A6,DO*%
%TO.N,Net-(P1A-DO)*%
X47750000Y-38875000D03*
%TO.P,P1,A7,GND*%
%TO.N,GND*%
X47750000Y-40375000D03*
D17*
%TO.P,P1,B1,GPIO0*%
%TO.N,WL_GP0*%
X50000000Y-41675000D03*
%TO.P,P1,B2,CS*%
%TO.N,WL_CS*%
X51500000Y-41675000D03*
%TO.P,P1,B3,IRQ*%
%TO.N,Net-(P1B-IRQ)*%
X53000000Y-41675000D03*
%TO.P,P1,B4,GND*%
%TO.N,GND*%
X54500000Y-41675000D03*
%TO.P,P1,B5,WLON*%
%TO.N,WL_ON*%
X56000000Y-41675000D03*
%TO.P,P1,B6,BTON*%
X57500000Y-41675000D03*
%TO.P,P1,B7,VDDIO*%
%TO.N,VDDBAT*%
X59000000Y-41675000D03*
D16*
%TO.P,P1,C1,GND*%
%TO.N,GND*%
X61250000Y-40375000D03*
%TO.P,P1,C2,VDDBAT*%
%TO.N,VDDBAT*%
X61250000Y-38875000D03*
%TO.P,P1,C3,GPIO2*%
%TO.N,WL_GP2*%
X61250000Y-37375000D03*
%TO.P,P1,C4,GPIO1*%
%TO.N,WL_GP1*%
X61250000Y-35875000D03*
%TO.P,P1,C5,NC2*%
%TO.N,unconnected-(P1C-NC2-PadC5)*%
X61250000Y-34375000D03*
%TO.P,P1,C6,NC3*%
%TO.N,unconnected-(P1C-NC3-PadC6)*%
X61250000Y-32875000D03*
%TO.P,P1,C7,GND*%
%TO.N,GND*%
X61250000Y-31375000D03*
%TD*%
D18*
%TO.P,Q2,1,S1*%
%TO.N,unconnected-(Q2A-S1-Pad1)*%
X71525000Y-35925000D03*
%TO.P,Q2,2,G1*%
%TO.N,+3V3*%
X72175000Y-35924999D03*
%TO.P,Q2,3,D2*%
%TO.N,N_DATA_3.3*%
X72825000Y-35925000D03*
%TO.P,Q2,4,S2*%
%TO.N,N_DATA_SAFE*%
X72825000Y-34025000D03*
%TO.P,Q2,5,G2*%
%TO.N,+3V3*%
X72175000Y-34025001D03*
%TO.P,Q2,6,D1*%
%TO.N,unconnected-(Q2A-D1-Pad6)*%
X71525000Y-34025000D03*
%TD*%
D19*
%TO.P,L2,1,1*%
%TO.N,+3V3*%
X63375000Y-36387499D03*
%TO.P,L2,2,2*%
%TO.N,VDDBAT*%
X63375000Y-37962501D03*
%TD*%
D12*
%TO.P,R7,1*%
%TO.N,SHARED_PU*%
X69095000Y-33725000D03*
%TO.P,R7,2*%
%TO.N,N_CLOCK_SAFE*%
X68455000Y-33725000D03*
%TD*%
%TO.P,R10,1*%
%TO.N,GND*%
X71270000Y-41525000D03*
%TO.P,R10,2*%
%TO.N,BAT_LVL*%
X70630000Y-41525000D03*
%TD*%
D20*
%TO.P,C2,1*%
%TO.N,GND*%
X79175000Y-28625001D03*
%TO.P,C2,2*%
%TO.N,VBUS_SYS*%
X79175000Y-30524999D03*
%TD*%
D12*
%TO.P,R8,1*%
%TO.N,SHARED_PU*%
X73620000Y-32950000D03*
%TO.P,R8,2*%
%TO.N,N_DATA_SAFE*%
X72980000Y-32950000D03*
%TD*%
D21*
%TO.P,D3,1,K*%
%TO.N,SHARED_PU*%
X75025000Y-33375001D03*
%TO.P,D3,2,A*%
%TO.N,+3V3*%
X75025000Y-35874999D03*
%TD*%
D22*
%TO.P,C4,1*%
%TO.N,+3V3*%
X85200000Y-30199998D03*
%TO.P,C4,2*%
%TO.N,GND*%
X85200000Y-28300000D03*
%TD*%
D12*
%TO.P,R12,1*%
%TO.N,Net-(P1B-IRQ)*%
X51820000Y-43525000D03*
%TO.P,R12,2*%
%TO.N,WL_D*%
X51180000Y-43525000D03*
%TD*%
D23*
%TO.P,U3,1,I/O1*%
%TO.N,N_DATA_SAFE*%
X70900000Y-32650000D03*
D24*
%TO.P,U3,2,GND*%
%TO.N,GND*%
X71437500Y-32725000D03*
D23*
%TO.P,U3,3,I/O2*%
%TO.N,unconnected-(U3-I{slash}O2-Pad3)*%
X71975000Y-32650000D03*
%TO.P,U3,4,I/O2*%
%TO.N,unconnected-(U3-I{slash}O2-Pad4)*%
X71975000Y-30950000D03*
D24*
%TO.P,U3,5,VBUS*%
%TO.N,+3.3V_PRE*%
X71437500Y-30875000D03*
D23*
%TO.P,U3,6,I/O1*%
%TO.N,N_DATA*%
X70900000Y-30950000D03*
%TD*%
D13*
%TO.P,R6,1*%
%TO.N,SHARED_PU*%
X69330000Y-34500000D03*
%TO.P,R6,2*%
%TO.N,N_LATCH_SAFE*%
X69970000Y-34500000D03*
%TD*%
D15*
%TO.P,C7,1*%
%TO.N,VBUS*%
X76001741Y-29191248D03*
%TO.P,C7,2*%
%TO.N,GND*%
X76001741Y-28551248D03*
%TD*%
D12*
%TO.P,C3,1*%
%TO.N,GND*%
X82670000Y-34725000D03*
%TO.P,C3,2*%
%TO.N,Net-(U4-EN)*%
X82030000Y-34725000D03*
%TD*%
D13*
%TO.P,C6,1*%
%TO.N,BAT_LVL*%
X70630000Y-40750000D03*
%TO.P,C6,2*%
%TO.N,GND*%
X71270000Y-40750000D03*
%TD*%
D25*
%TO.P,U4,1,VOUT*%
%TO.N,+3V3*%
X83200000Y-30925000D03*
%TO.P,U4,2,L2*%
%TO.N,Net-(U4-L2)*%
X82700000Y-30925000D03*
%TO.P,U4,3,PGND*%
%TO.N,GND*%
X82200000Y-30925001D03*
%TO.P,U4,4,L1*%
%TO.N,Net-(U4-L1)*%
X81700000Y-30925000D03*
%TO.P,U4,5,VIN*%
%TO.N,VBUS_SYS*%
X81200000Y-30925000D03*
%TO.P,U4,6,EN*%
%TO.N,Net-(U4-EN)*%
X81200000Y-33725000D03*
%TO.P,U4,7,PS/SYNC*%
X81700000Y-33725000D03*
%TO.P,U4,8,VINA*%
X82200000Y-33724999D03*
%TO.P,U4,9,GND*%
%TO.N,GND*%
X82700000Y-33725000D03*
%TO.P,U4,10,FB*%
%TO.N,+3V3*%
X83200000Y-33725000D03*
D26*
%TO.P,U4,11,EP*%
%TO.N,GND*%
X82200000Y-32325000D03*
%TD*%
D23*
%TO.P,U2,1,I/O1*%
%TO.N,N_CLOCK_SAFE*%
X68650000Y-32650000D03*
D24*
%TO.P,U2,2,GND*%
%TO.N,GND*%
X69187500Y-32725000D03*
D23*
%TO.P,U2,3,I/O2*%
%TO.N,N_LATCH_SAFE*%
X69725000Y-32650000D03*
%TO.P,U2,4,I/O2*%
%TO.N,N_LATCH*%
X69725000Y-30950000D03*
D24*
%TO.P,U2,5,VBUS*%
%TO.N,unconnected-(U2-VBUS-Pad5)*%
X69187500Y-30875000D03*
D23*
%TO.P,U2,6,I/O1*%
%TO.N,N_CLOCK*%
X68650000Y-30950000D03*
%TD*%
D12*
%TO.P,R14,1*%
%TO.N,WL_D*%
X63970000Y-40900000D03*
%TO.P,R14,2*%
%TO.N,Net-(P1A-DO)*%
X63330000Y-40900000D03*
%TD*%
D27*
%TO.P,D4,1,K*%
%TO.N,BTN_PWR*%
X77000000Y-35874999D03*
%TO.P,D4,2,A*%
%TO.N,Net-(D4-A)*%
X77000000Y-33375001D03*
%TD*%
D28*
%TO.P,L1,1,1*%
%TO.N,Net-(U4-L1)*%
X81125000Y-28900000D03*
%TO.P,L1,2,2*%
%TO.N,Net-(U4-L2)*%
X83275000Y-28900000D03*
%TD*%
D13*
%TO.P,R9,1*%
%TO.N,VBUS_SYS*%
X80555000Y-34725000D03*
%TO.P,R9,2*%
%TO.N,Net-(U4-EN)*%
X81195000Y-34725000D03*
%TD*%
%TO.P,R5,1*%
%TO.N,+3V3*%
X71130000Y-38025000D03*
%TO.P,R5,2*%
%TO.N,N_DATA_3.3*%
X71770000Y-38025000D03*
%TD*%
D29*
%TO.P,J2,A1,GND_1*%
%TO.N,GND*%
X69824998Y-24721124D03*
%TO.P,J2,A2,SSTXP1*%
%TO.N,+3.3V_PRE*%
X69324998Y-24721124D03*
%TO.P,J2,A3,SSTXN1*%
%TO.N,N_CLOCK*%
X68824998Y-24721124D03*
%TO.P,J2,A4,VBUS_1*%
%TO.N,VBUS_PRE*%
X68324998Y-24721124D03*
%TO.P,J2,A5,CC1*%
%TO.N,Net-(J2-CC1)*%
X67824998Y-24721124D03*
%TO.P,J2,A6,DP1*%
%TO.N,D+*%
X67324998Y-24721124D03*
%TO.P,J2,A7,DN1*%
%TO.N,D-*%
X66824998Y-24721124D03*
%TO.P,J2,A8,SBU1*%
%TO.N,unconnected-(J2-SBU1-PadA8)*%
X66324998Y-24721124D03*
%TO.P,J2,A9,VBUS_2*%
%TO.N,VBUS_PRE*%
X65824998Y-24721124D03*
%TO.P,J2,A10,SSRXN2*%
%TO.N,N_LATCH*%
X65324998Y-24721124D03*
%TO.P,J2,A11,SSRXP2*%
%TO.N,N_DATA*%
X64824998Y-24721124D03*
%TO.P,J2,A12,GND_2*%
%TO.N,GND*%
X64324998Y-24721124D03*
D30*
%TO.P,J2,B1,GND_3*%
X64274998Y-23511124D03*
%TO.P,J2,B2,SSTXP2*%
%TO.N,+3.3V_PRE*%
X64674998Y-22811124D03*
%TO.P,J2,B3,SSTXN2*%
%TO.N,N_CLOCK*%
X65474998Y-22811124D03*
%TO.P,J2,B4,VBUS_3*%
%TO.N,VBUS_PRE*%
X65874998Y-23511124D03*
%TO.P,J2,B5,CC2*%
%TO.N,Net-(J2-CC2)*%
X66274998Y-22811124D03*
%TO.P,J2,B6,DP2*%
%TO.N,D+*%
X66674998Y-23511124D03*
%TO.P,J2,B7,DN2*%
%TO.N,D-*%
X67474998Y-23511124D03*
%TO.P,J2,B8,SBU2*%
%TO.N,unconnected-(J2-SBU2-PadB8)*%
X67874998Y-22811124D03*
%TO.P,J2,B9,VBUS_4*%
%TO.N,VBUS_PRE*%
X68274998Y-23511124D03*
%TO.P,J2,B10,SSRXN1*%
%TO.N,N_LATCH*%
X68674998Y-22811124D03*
%TO.P,J2,B11,SSRXP1*%
%TO.N,N_DATA*%
X69474998Y-22811124D03*
%TO.P,J2,B12,GND_4*%
%TO.N,GND*%
X69874998Y-23511124D03*
D31*
%TO.P,J2,MH1,MH1*%
X71204998Y-22921124D03*
%TO.P,J2,MH2,MH2*%
X62944998Y-22921124D03*
%TO.P,J2,MH3,MH3*%
X62584998Y-18521124D03*
%TO.P,J2,MH4,MH4*%
X71564998Y-18521124D03*
%TD*%
D32*
%TO.P,D1,1,K*%
%TO.N,VBUS_SYS*%
X81999999Y-26500000D03*
%TO.P,D1,2,A*%
%TO.N,+3.3V_PRE*%
X79500001Y-26500000D03*
%TD*%
%TO.P,D2,1,K*%
%TO.N,VBUS*%
X74799999Y-29325000D03*
%TO.P,D2,2,A*%
%TO.N,VBUS_PRE*%
X72300001Y-29325000D03*
%TD*%
D23*
%TO.P,U1,1,I/O1*%
%TO.N,SAFE_D+*%
X66387500Y-32650000D03*
D24*
%TO.P,U1,2,GND*%
%TO.N,GND*%
X66925000Y-32725000D03*
D23*
%TO.P,U1,3,I/O2*%
%TO.N,SAFE_D-*%
X67462500Y-32650000D03*
%TO.P,U1,4,I/O2*%
%TO.N,D-*%
X67462500Y-30950000D03*
D24*
%TO.P,U1,5,VBUS*%
%TO.N,VBUS_PRE*%
X66925000Y-30875000D03*
D23*
%TO.P,U1,6,I/O1*%
%TO.N,D+*%
X66387500Y-30950000D03*
%TD*%
D18*
%TO.P,Q1,1,S1*%
%TO.N,N_CLOCK_3.3*%
X68675000Y-37875000D03*
%TO.P,Q1,2,G1*%
%TO.N,+3V3*%
X69325000Y-37874999D03*
%TO.P,Q1,3,D2*%
%TO.N,N_LATCH_3.3*%
X69975000Y-37875000D03*
%TO.P,Q1,4,S2*%
%TO.N,N_LATCH_SAFE*%
X69975000Y-35975000D03*
%TO.P,Q1,5,G2*%
%TO.N,+3V3*%
X69325000Y-35975001D03*
%TO.P,Q1,6,D1*%
%TO.N,N_CLOCK_SAFE*%
X68675000Y-35975000D03*
%TD*%
D33*
%TO.P,J1,1,Pin_1*%
%TO.N,BTN_PWR*%
X59350000Y-44300000D03*
%TO.P,J1,2,Pin_2*%
%TO.N,WL_CS*%
X59850000Y-44300000D03*
%TO.P,J1,3,Pin_3*%
%TO.N,WL_CLK*%
X60350000Y-44300000D03*
%TO.P,J1,4,Pin_4*%
%TO.N,N_CLOCK_3.3*%
X60850000Y-44300000D03*
%TO.P,J1,5,Pin_5*%
%TO.N,N_LATCH_3.3*%
X61350000Y-44300000D03*
%TO.P,J1,6,Pin_6*%
%TO.N,N_DATA_3.3*%
X61850000Y-44300000D03*
%TO.P,J1,7,Pin_7*%
%TO.N,I2C1_SCL*%
X62350000Y-44300000D03*
%TO.P,J1,8,Pin_8*%
%TO.N,I2C1_SDA*%
X62850000Y-44300000D03*
%TO.P,J1,9,Pin_9*%
%TO.N,WL_D*%
X63350000Y-44300000D03*
%TO.P,J1,10,Pin_10*%
%TO.N,WL_ON*%
X63850000Y-44300000D03*
%TO.P,J1,11,Pin_11*%
%TO.N,GND*%
X64350000Y-44300000D03*
%TO.P,J1,12,Pin_12*%
X64850000Y-44300000D03*
%TO.P,J1,13,Pin_13*%
%TO.N,+3V3*%
X65350000Y-44300000D03*
%TO.P,J1,14,Pin_14*%
X65850000Y-44300000D03*
%TO.P,J1,15,Pin_15*%
%TO.N,SAFE_D+*%
X66350000Y-44300000D03*
%TO.P,J1,16,Pin_16*%
%TO.N,SAFE_D-*%
X66850000Y-44300000D03*
%TO.P,J1,17,Pin_17*%
%TO.N,BAT_LVL*%
X67350000Y-44300000D03*
D34*
%TO.P,J1,18*%
%TO.N,N/C*%
X57050000Y-47000000D03*
%TO.P,J1,19*%
X69650000Y-47000000D03*
%TD*%
D13*
%TO.P,R1,1*%
%TO.N,Net-(J2-CC2)*%
X72605000Y-28000000D03*
%TO.P,R1,2*%
%TO.N,GND*%
X73245000Y-28000000D03*
%TD*%
D35*
%TO.P,C1,1*%
%TO.N,+3.3V_PRE*%
X77700000Y-26600000D03*
%TO.P,C1,2*%
%TO.N,GND*%
X75000000Y-26600000D03*
%TD*%
D36*
%TO.N,N_LATCH_3.3*%
X70200000Y-39775000D03*
X61325000Y-47300000D03*
%TO.N,N_CLOCK_3.3*%
X68675000Y-40675000D03*
X60825000Y-46750000D03*
D37*
%TO.N,+3V3*%
X85200000Y-31730000D03*
D38*
X65000000Y-42100000D03*
D36*
X75075000Y-37250000D03*
D38*
X63400000Y-35025000D03*
D36*
X70950000Y-38775000D03*
D37*
X84620000Y-33090000D03*
D36*
%TO.N,WL_CLK*%
X50050000Y-38725000D03*
X60250000Y-41575000D03*
%TO.N,D-*%
X67350000Y-26450000D03*
D37*
%TO.N,GND*%
X54990000Y-45880000D03*
X55710000Y-44990000D03*
X45780000Y-40510000D03*
D36*
X71425000Y-31825000D03*
D37*
X49740000Y-31600000D03*
X59220000Y-31610000D03*
D36*
X66725000Y-33750000D03*
D37*
X64600000Y-43150000D03*
X49510000Y-39820000D03*
X79450000Y-33520000D03*
D36*
X73530000Y-34140000D03*
D37*
X61240000Y-43030000D03*
X77750000Y-29125000D03*
X54190000Y-45090000D03*
D36*
X77450000Y-32125000D03*
D37*
X74920000Y-27780000D03*
X49440000Y-35950000D03*
D36*
X70630000Y-35310000D03*
D37*
X45930000Y-36090000D03*
X62000000Y-42400000D03*
D36*
X67730000Y-41880000D03*
X74850000Y-32050000D03*
X69200000Y-31825000D03*
%TO.N,N_DATA_3.3*%
X71775000Y-38925000D03*
X61950000Y-47725000D03*
%TO.N,BTN_PWR*%
X77332536Y-37182766D03*
X59400000Y-45650000D03*
%TO.N,I2C1_SCL*%
X62950000Y-47925000D03*
X75200000Y-30575000D03*
%TO.N,WL_D*%
X49525000Y-37375000D03*
X63850000Y-39150000D03*
D37*
X50150000Y-43425000D03*
D36*
%TO.N,I2C1_SDA*%
X74700000Y-31100000D03*
X63025000Y-47175000D03*
%TO.N,WL_ON*%
X64625000Y-40225000D03*
X57500000Y-39950000D03*
%TO.N,WL_CS*%
X59825000Y-43150000D03*
X51500000Y-40150000D03*
%TO.N,D+*%
X66350000Y-26450000D03*
%TO.N,VBUS_PRE*%
X68300000Y-27250000D03*
D37*
X63650000Y-33025000D03*
D36*
X66931705Y-31531926D03*
X73226839Y-29326195D03*
X65858902Y-28447463D03*
%TO.N,+3.3V_PRE*%
X70878732Y-27265074D03*
D37*
X78800000Y-27350000D03*
D36*
%TO.N,N_DATA*%
X64850000Y-30000000D03*
X70188400Y-29193512D03*
%TO.N,N_LATCH*%
X65372391Y-29497588D03*
X69438400Y-29193512D03*
%TO.N,N_CLOCK*%
X68688400Y-29193512D03*
D37*
%TO.N,VBUS_SYS*%
X80550000Y-35525000D03*
X79175000Y-31875000D03*
X83350000Y-26500000D03*
D36*
%TO.N,SHARED_PU*%
X74135268Y-33319448D03*
X69322351Y-35183614D03*
D37*
%TO.N,Net-(P1A-DO)*%
X63200000Y-39675000D03*
X49375000Y-38175000D03*
%TD*%
D39*
%TO.N,BATTERY_POS*%
X78990000Y-40950000D02*
X80050000Y-39890000D01*
X73725000Y-40950000D02*
X78990000Y-40950000D01*
X72375000Y-42300000D02*
X73725000Y-40950000D01*
X71270000Y-42300000D02*
X72375000Y-42300000D01*
D40*
X80050000Y-39890000D02*
X89610000Y-39890000D01*
X89610000Y-39890000D02*
X89670000Y-39950000D01*
X78250000Y-38090000D02*
X80050000Y-39890000D01*
X78250000Y-31883312D02*
X78250000Y-38090000D01*
X77675000Y-31308312D02*
X78250000Y-31883312D01*
D39*
%TO.N,N_LATCH_3.3*%
X69975000Y-37875000D02*
X69970000Y-37880000D01*
X69970000Y-37880000D02*
X69970000Y-38950000D01*
X61350000Y-44300000D02*
X61350000Y-47275000D01*
X70200000Y-39775000D02*
X69970000Y-39545000D01*
X61350000Y-47275000D02*
X61325000Y-47300000D01*
X69970000Y-39545000D02*
X69970000Y-38950000D01*
%TO.N,N_CLOCK_3.3*%
X68675000Y-37875000D02*
X68675000Y-39725000D01*
X60850000Y-44300000D02*
X60850000Y-46725000D01*
X60850000Y-46725000D02*
X60825000Y-46750000D01*
X68675000Y-40675000D02*
X68675000Y-39725000D01*
D40*
%TO.N,+3V3*%
X84403420Y-30996578D02*
X83303664Y-30996578D01*
D39*
X69330000Y-39710000D02*
X69315000Y-39725000D01*
X71130000Y-37795000D02*
X71130000Y-37530000D01*
D40*
X83911080Y-33798920D02*
X83306522Y-33798920D01*
D39*
X69325000Y-37175000D02*
X69325000Y-37874999D01*
X71130000Y-38025000D02*
X71130000Y-37795000D01*
X71130000Y-37530000D02*
X70775000Y-37175000D01*
X75025000Y-37200000D02*
X75075000Y-37250000D01*
X65019086Y-42100000D02*
X65000000Y-42100000D01*
D40*
X84620000Y-33090000D02*
X83911080Y-33798920D01*
D39*
X72175000Y-36750000D02*
X72175000Y-35924999D01*
X69320000Y-38950000D02*
X69320000Y-37879999D01*
D40*
X63375000Y-35050000D02*
X63400000Y-35025000D01*
D39*
X65350000Y-44300000D02*
X65350000Y-42694871D01*
D40*
X63375000Y-36387499D02*
X63375000Y-35050000D01*
D39*
X71130000Y-38025000D02*
X71130000Y-38595000D01*
X65850000Y-42930914D02*
X65019086Y-42100000D01*
D40*
X85200000Y-32510000D02*
X84620000Y-33090000D01*
D39*
X69330000Y-38950000D02*
X69330000Y-39710000D01*
X69320000Y-37879999D02*
X69325000Y-37874999D01*
D40*
X85200000Y-30199998D02*
X84403420Y-30996578D01*
D39*
X71130000Y-37795000D02*
X72175000Y-36750000D01*
X65350000Y-42694871D02*
X65117096Y-42461967D01*
X75025000Y-35874999D02*
X75025000Y-37200000D01*
D40*
X85200000Y-30199998D02*
X85200000Y-32510000D01*
D39*
X70775000Y-37175000D02*
X69325000Y-37175000D01*
X65350000Y-42450000D02*
X65000000Y-42100000D01*
X69325000Y-35975001D02*
X69325000Y-37175000D01*
X71130000Y-38595000D02*
X70950000Y-38775000D01*
X72175000Y-34025001D02*
X72175000Y-35924999D01*
X65850000Y-44300000D02*
X65850000Y-42930914D01*
%TO.N,WL_CLK*%
X50300000Y-38475000D02*
X50300000Y-35210000D01*
X50300000Y-35210000D02*
X49465000Y-34375000D01*
X60350000Y-44300000D02*
X60350000Y-41675000D01*
X49465000Y-34375000D02*
X47750000Y-34375000D01*
X60350000Y-41675000D02*
X60250000Y-41575000D01*
X50050000Y-38725000D02*
X50300000Y-38475000D01*
D41*
%TO.N,D-*%
X67462500Y-29937500D02*
X67325000Y-29800000D01*
D39*
X67350000Y-25900000D02*
X67350000Y-26450000D01*
D41*
X67121250Y-29596250D02*
X67325000Y-29800000D01*
X67350000Y-26450000D02*
X67121250Y-26678750D01*
D39*
X66824998Y-24721124D02*
X66824998Y-25374998D01*
X66824998Y-25374998D02*
X67350000Y-25900000D01*
D41*
X67462500Y-30950000D02*
X67462500Y-29937500D01*
X67121250Y-26678750D02*
X67121250Y-29596250D01*
D39*
%TO.N,GND*%
X80010000Y-32325000D02*
X79795000Y-32325000D01*
D42*
X67975000Y-31325000D02*
X68475000Y-31825000D01*
D39*
X82200000Y-30925001D02*
X82200000Y-29790000D01*
X45915000Y-40375000D02*
X45780000Y-40510000D01*
X47750000Y-40375000D02*
X48955000Y-40375000D01*
X69187500Y-31837500D02*
X69200000Y-31825000D01*
X82700000Y-33725000D02*
X82700000Y-32825000D01*
X82200000Y-32325000D02*
X81965607Y-32090607D01*
X64850000Y-43400000D02*
X64600000Y-43150000D01*
X64350000Y-43400000D02*
X64600000Y-43150000D01*
X76824999Y-31325000D02*
X76824999Y-31499999D01*
X61250000Y-40375000D02*
X61250000Y-41440000D01*
X46145000Y-35875000D02*
X45930000Y-36090000D01*
X80244393Y-32090607D02*
X80010000Y-32325000D01*
X61250000Y-31375000D02*
X59455000Y-31375000D01*
D42*
X64400020Y-24646102D02*
X64400020Y-23663354D01*
D39*
X82700000Y-33725000D02*
X82700000Y-34695000D01*
X82200000Y-30925001D02*
X82200000Y-32325000D01*
X66925000Y-33550000D02*
X66725000Y-33750000D01*
X49485000Y-31375000D02*
X49730000Y-31620000D01*
X69187500Y-32725000D02*
X69187500Y-31837500D01*
D40*
X78249999Y-28625001D02*
X77750000Y-29125000D01*
D39*
X48955000Y-40375000D02*
X49510000Y-39820000D01*
X75665091Y-32183329D02*
X74983329Y-32183329D01*
D40*
X54500000Y-43720000D02*
X54420000Y-43800000D01*
D39*
X79795000Y-32325000D02*
X79510000Y-32610000D01*
D42*
X69824998Y-23561124D02*
X69824998Y-24721124D01*
D39*
X47125000Y-31375000D02*
X46220000Y-32280000D01*
X49365000Y-35875000D02*
X49440000Y-35950000D01*
X73245000Y-28000000D02*
X74700000Y-28000000D01*
X61250000Y-41440000D02*
X61150000Y-41540000D01*
X74983329Y-32183329D02*
X74850000Y-32050000D01*
X66925000Y-32725000D02*
X66925000Y-33550000D01*
X71425000Y-32712500D02*
X71425000Y-31825000D01*
D42*
X64324998Y-24721124D02*
X64400020Y-24646102D01*
D40*
X79175000Y-28625001D02*
X78249999Y-28625001D01*
D42*
X69874998Y-23511124D02*
X69824998Y-23561124D01*
D40*
X54500000Y-41675000D02*
X54500000Y-43720000D01*
D39*
X81965607Y-32090607D02*
X80244393Y-32090607D01*
D40*
X76001741Y-28551248D02*
X76001741Y-27601741D01*
X76001741Y-27601741D02*
X75000000Y-26600000D01*
D39*
X47750000Y-31375000D02*
X49485000Y-31375000D01*
X47750000Y-31375000D02*
X47125000Y-31375000D01*
X64850000Y-44300000D02*
X64850000Y-43400000D01*
X47750000Y-35875000D02*
X49365000Y-35875000D01*
D40*
X77176248Y-28551248D02*
X77750000Y-29125000D01*
D42*
X67975000Y-28665000D02*
X67975000Y-31325000D01*
D39*
X82200000Y-29790000D02*
X82190000Y-29780000D01*
X49730000Y-31620000D02*
X49730000Y-31610000D01*
X59455000Y-31375000D02*
X59220000Y-31610000D01*
D42*
X64400020Y-23663354D02*
X64261394Y-23524728D01*
D39*
X47750000Y-40375000D02*
X45915000Y-40375000D01*
D42*
X68475000Y-31825000D02*
X69200000Y-31825000D01*
D39*
X81949884Y-32575116D02*
X79964884Y-32575116D01*
X79964884Y-32575116D02*
X79710000Y-32830000D01*
X82700000Y-32825000D02*
X82200000Y-32325000D01*
X49730000Y-31610000D02*
X49740000Y-31600000D01*
X71437500Y-32725000D02*
X71425000Y-32712500D01*
X74700000Y-28000000D02*
X74920000Y-27780000D01*
X47750000Y-35875000D02*
X46145000Y-35875000D01*
X64350000Y-44300000D02*
X64350000Y-43400000D01*
X62565000Y-31375000D02*
X62980000Y-31790000D01*
D40*
X76001741Y-28551248D02*
X77176248Y-28551248D01*
D39*
X82200000Y-32325000D02*
X81949884Y-32575116D01*
X61250000Y-31375000D02*
X62565000Y-31375000D01*
X76824999Y-31499999D02*
X77450000Y-32125000D01*
X82700000Y-34695000D02*
X82670000Y-34725000D01*
%TO.N,N_DATA_3.3*%
X72825000Y-35925000D02*
X72825000Y-36675000D01*
X71770000Y-37730000D02*
X71770000Y-38025000D01*
X72825000Y-36675000D02*
X71770000Y-37730000D01*
X61850000Y-47625000D02*
X61950000Y-47725000D01*
X71775000Y-38030000D02*
X71770000Y-38025000D01*
X61850000Y-44300000D02*
X61850000Y-47625000D01*
X71775000Y-38925000D02*
X71775000Y-38030000D01*
%TO.N,BTN_PWR*%
X59350000Y-44300000D02*
X59350000Y-45600000D01*
X59350000Y-45600000D02*
X59400000Y-45650000D01*
X77000000Y-36850230D02*
X77332536Y-37182766D01*
X77000000Y-35849999D02*
X77000000Y-36850230D01*
%TO.N,I2C1_SCL*%
X75250000Y-30525000D02*
X76425000Y-30525000D01*
X62350000Y-47325000D02*
X62950000Y-47925000D01*
X75200000Y-30575000D02*
X75250000Y-30525000D01*
X62350000Y-44300000D02*
X62350000Y-47325000D01*
%TO.N,WL_D*%
X63350000Y-44300000D02*
X63350000Y-42025000D01*
X49525000Y-37375000D02*
X47750000Y-37375000D01*
X50250000Y-43525000D02*
X51180000Y-43525000D01*
X64100000Y-41275000D02*
X64100000Y-39400000D01*
X64100000Y-39400000D02*
X63850000Y-39150000D01*
X50150000Y-43425000D02*
X50250000Y-43525000D01*
X63350000Y-42025000D02*
X64100000Y-41275000D01*
%TO.N,BAT_LVL*%
X68425000Y-42300000D02*
X67350000Y-43375000D01*
X67350000Y-43375000D02*
X67350000Y-44300000D01*
X70630000Y-42300000D02*
X70630000Y-40750000D01*
X70630000Y-42300000D02*
X68425000Y-42300000D01*
%TO.N,I2C1_SDA*%
X75950000Y-30925000D02*
X76425000Y-30925000D01*
X62850000Y-44300000D02*
X62850000Y-47000000D01*
X75775000Y-31100000D02*
X75950000Y-30925000D01*
X74700000Y-31100000D02*
X75775000Y-31100000D01*
X62850000Y-47000000D02*
X63025000Y-47175000D01*
D40*
%TO.N,WL_ON*%
X56450000Y-43550000D02*
X56000000Y-43100000D01*
X56000000Y-43100000D02*
X56000000Y-41675000D01*
X57050000Y-43550000D02*
X56450000Y-43550000D01*
X57500000Y-41675000D02*
X57500000Y-43100000D01*
D39*
X64625000Y-41325000D02*
X63850000Y-42100000D01*
X63850000Y-42100000D02*
X63850000Y-44300000D01*
X64625000Y-40225000D02*
X64625000Y-41325000D01*
X57500000Y-39950000D02*
X57500000Y-41675000D01*
D40*
X57500000Y-43100000D02*
X57050000Y-43550000D01*
D39*
%TO.N,WL_CS*%
X51500000Y-40150000D02*
X51500000Y-41675000D01*
X59850000Y-43175000D02*
X59825000Y-43150000D01*
X59850000Y-44300000D02*
X59850000Y-43175000D01*
%TO.N,D+*%
X67324998Y-24721124D02*
X67324998Y-24245684D01*
D41*
X66387500Y-30950000D02*
X66387500Y-29812500D01*
X66578750Y-29596250D02*
X66375000Y-29800000D01*
X66350000Y-26450000D02*
X66578750Y-26678750D01*
D39*
X66674998Y-23595684D02*
X66674998Y-23511124D01*
X67324998Y-24245684D02*
X66674998Y-23595684D01*
D41*
X66578750Y-26678750D02*
X66578750Y-29596250D01*
X66387500Y-29812500D02*
X66375000Y-29800000D01*
D39*
%TO.N,VBUS_PRE*%
X65824998Y-28413559D02*
X65824998Y-24721124D01*
X68324998Y-27225002D02*
X68324998Y-24721124D01*
D40*
X72450001Y-29325000D02*
X73225644Y-29325000D01*
D39*
X68324998Y-23561124D02*
X68274998Y-23511124D01*
X65824998Y-23561124D02*
X65824998Y-24721124D01*
D40*
X73225644Y-29325000D02*
X73226839Y-29326195D01*
D39*
X65874998Y-23511124D02*
X65824998Y-23561124D01*
X68324998Y-24721124D02*
X68324998Y-23561124D01*
X68300000Y-27250000D02*
X68324998Y-27225002D01*
X65858902Y-28447463D02*
X65824998Y-28413559D01*
X66925000Y-31525221D02*
X66931705Y-31531926D01*
X66925000Y-30875000D02*
X66925000Y-31525221D01*
D42*
%TO.N,Net-(J2-CC1)*%
X67775000Y-26900000D02*
X67775000Y-27825000D01*
X67900294Y-26774706D02*
X67775000Y-26900000D01*
X67824998Y-24721124D02*
X67824998Y-24736183D01*
X67900294Y-24811479D02*
X67900294Y-26774706D01*
X67824998Y-24736183D02*
X67900294Y-24811479D01*
X67775000Y-27825000D02*
X67975000Y-28025000D01*
%TO.N,Net-(J2-CC2)*%
X71804998Y-22354998D02*
X71804998Y-27804998D01*
X71465613Y-22015613D02*
X71615000Y-22165000D01*
X66274998Y-22811124D02*
X67070509Y-22015613D01*
X71804998Y-27804998D02*
X72000000Y-28000000D01*
X71250000Y-22015613D02*
X71465613Y-22015613D01*
X67070509Y-22015613D02*
X71250000Y-22015613D01*
X71465613Y-22015613D02*
X71804998Y-22354998D01*
X72000000Y-28000000D02*
X72605000Y-28000000D01*
D40*
%TO.N,+3.3V_PRE*%
X79500001Y-26649999D02*
X78800000Y-27350000D01*
D39*
X70540074Y-27265074D02*
X69324998Y-26049998D01*
D40*
X78050000Y-26600000D02*
X78800000Y-27350000D01*
D39*
X70878732Y-27265074D02*
X70540074Y-27265074D01*
D40*
X79500001Y-26500000D02*
X79500001Y-26649999D01*
D39*
X70878732Y-27265074D02*
X71437500Y-27823842D01*
X71437500Y-27823842D02*
X71437500Y-30875000D01*
D40*
X77700000Y-26600000D02*
X78050000Y-26600000D01*
D39*
X69324998Y-26049998D02*
X69324998Y-24721124D01*
%TO.N,N_DATA*%
X64824998Y-29974998D02*
X64850000Y-30000000D01*
X70188400Y-29538400D02*
X70900000Y-30250000D01*
X70188400Y-29193512D02*
X70188400Y-29538400D01*
X70900000Y-30250000D02*
X70900000Y-30950000D01*
X64824998Y-24721124D02*
X64824998Y-29974998D01*
%TO.N,N_LATCH*%
X65372391Y-29497588D02*
X65324998Y-29450195D01*
X69348354Y-29498354D02*
X69725000Y-29875000D01*
X69725000Y-29875000D02*
X69725000Y-30950000D01*
X65324998Y-29450195D02*
X65324998Y-24721124D01*
X69348354Y-29228300D02*
X69348354Y-29498354D01*
%TO.N,N_CLOCK*%
X68824998Y-24721124D02*
X68824998Y-29056914D01*
X68650000Y-29231912D02*
X68650000Y-30950000D01*
X68824998Y-29056914D02*
X68650000Y-29231912D01*
D41*
%TO.N,SAFE_D-*%
X67462500Y-34487500D02*
X67462500Y-32650000D01*
D39*
X66850000Y-44300000D02*
X66850000Y-42650000D01*
X66850000Y-42650000D02*
X66925000Y-42575000D01*
D41*
X66925000Y-42575000D02*
X66925000Y-35025000D01*
X66925000Y-35025000D02*
X67462500Y-34487500D01*
%TO.N,SAFE_D+*%
X66275000Y-32762500D02*
X66275000Y-32850000D01*
X66050197Y-34775197D02*
X66275000Y-35000000D01*
X66050197Y-33074803D02*
X66050197Y-34775197D01*
X66387500Y-32650000D02*
X66275000Y-32762500D01*
X66275000Y-32850000D02*
X66050197Y-33074803D01*
D39*
X66350000Y-42650000D02*
X66275000Y-42575000D01*
D41*
X66275000Y-35000000D02*
X66275000Y-42575000D01*
D39*
X66350000Y-44300000D02*
X66350000Y-42650000D01*
%TO.N,N_LATCH_SAFE*%
X69970000Y-35970000D02*
X69975000Y-35975000D01*
X69725000Y-33150000D02*
X69970000Y-33395000D01*
X69725000Y-32650000D02*
X69725000Y-33150000D01*
X69970000Y-33395000D02*
X69970000Y-34500000D01*
X69970000Y-34500000D02*
X69970000Y-35970000D01*
%TO.N,N_CLOCK_SAFE*%
X68650000Y-32650000D02*
X68562956Y-32737044D01*
X68675000Y-34400000D02*
X68455000Y-34180000D01*
X68562956Y-32737044D02*
X68562956Y-33617044D01*
X68455000Y-34180000D02*
X68455000Y-33725000D01*
X68675000Y-35975000D02*
X68675000Y-34400000D01*
X68562956Y-33617044D02*
X68455000Y-33725000D01*
D42*
%TO.N,N_DATA_SAFE*%
X70900000Y-33125000D02*
X71150000Y-33375000D01*
X72980000Y-32950000D02*
X72975000Y-32950000D01*
X72550000Y-33375000D02*
X72825000Y-33650000D01*
X71150000Y-33375000D02*
X72550000Y-33375000D01*
X70900000Y-32650000D02*
X70900000Y-33125000D01*
X72825000Y-33650000D02*
X72825000Y-34025000D01*
X72975000Y-32950000D02*
X72550000Y-33375000D01*
D39*
%TO.N,VBUS_SYS*%
X76825000Y-30525000D02*
X78243869Y-30525000D01*
D40*
X79175000Y-30524999D02*
X79500409Y-30850408D01*
D39*
X80550000Y-35525000D02*
X80550000Y-34730000D01*
D40*
X81999999Y-26500000D02*
X83350000Y-26500000D01*
X79175000Y-30524999D02*
X79175000Y-31875000D01*
D39*
X78243869Y-30525000D02*
X78634040Y-30915171D01*
X80550000Y-34730000D02*
X80555000Y-34725000D01*
D40*
X79500409Y-30850408D02*
X81096309Y-30850408D01*
D39*
%TO.N,Net-(U4-EN)*%
X82155451Y-33769548D02*
X82155451Y-34599549D01*
X81200000Y-34720000D02*
X81195000Y-34725000D01*
X82155451Y-34599549D02*
X82030000Y-34725000D01*
X82200877Y-33925000D02*
X81202921Y-33925000D01*
X82218168Y-33907709D02*
X82200877Y-33925000D01*
X81202921Y-33925000D02*
X81188218Y-33910297D01*
X82200000Y-33724999D02*
X82155451Y-33769548D01*
X81200000Y-33725000D02*
X81200000Y-34720000D01*
%TO.N,BATTERY_POS*%
X77472479Y-30925000D02*
X76825000Y-30925000D01*
X77768937Y-31221458D02*
X77472479Y-30925000D01*
%TO.N,VBUS*%
X74799999Y-29325000D02*
X76500000Y-29325000D01*
X76500000Y-29325000D02*
X76824999Y-29649999D01*
X76824999Y-29649999D02*
X76824999Y-30125000D01*
D42*
%TO.N,SHARED_PU*%
X69330000Y-33960000D02*
X69095000Y-33725000D01*
D39*
X75025000Y-33350001D02*
X75000001Y-33350001D01*
D42*
X69330000Y-34500000D02*
X69330000Y-33960000D01*
D39*
X75000001Y-33350001D02*
X74969448Y-33319448D01*
X73765820Y-32950000D02*
X73620000Y-32950000D01*
D42*
X69330000Y-34500000D02*
X69330000Y-35175965D01*
X69330000Y-35175965D02*
X69322351Y-35183614D01*
D39*
X74135268Y-33319448D02*
X73765820Y-32950000D01*
X74969448Y-33319448D02*
X74135268Y-33319448D01*
%TO.N,Net-(D4-A)*%
X77000000Y-32950000D02*
X76425001Y-32375001D01*
X77000000Y-33350001D02*
X77000000Y-32950000D01*
X76425001Y-32375001D02*
X76425001Y-31325000D01*
%TO.N,Net-(U4-L1)*%
X81700000Y-30225000D02*
X81125000Y-29650000D01*
X81700000Y-30925000D02*
X81700000Y-30225000D01*
%TO.N,Net-(U4-L2)*%
X83121893Y-29797967D02*
X83121893Y-29053107D01*
X83121893Y-29053107D02*
X83275000Y-28900000D01*
X82700000Y-30219860D02*
X83121893Y-29797967D01*
X82700000Y-30925000D02*
X82700000Y-30219860D01*
D40*
%TO.N,VDDBAT*%
X59875000Y-38875000D02*
X59000000Y-39750000D01*
X59000000Y-39750000D02*
X59000000Y-41675000D01*
X62875000Y-38875000D02*
X61250000Y-38875000D01*
X61250000Y-38875000D02*
X59875000Y-38875000D01*
X63375000Y-37962501D02*
X63375000Y-38375000D01*
X63375000Y-38375000D02*
X62875000Y-38875000D01*
D39*
%TO.N,Net-(P1B-IRQ)*%
X53000000Y-42950000D02*
X53000000Y-41675000D01*
X51820000Y-43525000D02*
X52425000Y-43525000D01*
X52425000Y-43525000D02*
X53000000Y-42950000D01*
%TO.N,Net-(P1A-DO)*%
X63330000Y-39805000D02*
X63200000Y-39675000D01*
X63330000Y-40900000D02*
X63330000Y-39805000D01*
X49375000Y-38675000D02*
X49175000Y-38875000D01*
X49175000Y-38875000D02*
X47750000Y-38875000D01*
X49375000Y-38175000D02*
X49375000Y-38675000D01*
%TD*%
%TA.AperFunction,Conductor*%
%TO.N,GND*%
G36*
X72335701Y-22621000D02*
G01*
X72351442Y-22637397D01*
X72401065Y-22699623D01*
X72472140Y-22756305D01*
X72493651Y-22773460D01*
X72583386Y-22816675D01*
X72600338Y-22824839D01*
X72715787Y-22851190D01*
X72735591Y-22851190D01*
X72735607Y-22851191D01*
X72750032Y-22851190D01*
X72750033Y-22851191D01*
X72773279Y-22851190D01*
X72774996Y-22851191D01*
X72775031Y-22851191D01*
X72854995Y-22851191D01*
X72855004Y-22851190D01*
X73517197Y-22851190D01*
X73536667Y-22852728D01*
X73592670Y-22861632D01*
X73629696Y-22873712D01*
X73671339Y-22895026D01*
X73702792Y-22917995D01*
X73735772Y-22951177D01*
X73758546Y-22982765D01*
X73783976Y-23033203D01*
X73791357Y-23051247D01*
X73815941Y-23128119D01*
X73824534Y-23154989D01*
X73924461Y-23369789D01*
X73924467Y-23369801D01*
X74013382Y-23511124D01*
X74050624Y-23570317D01*
X74201013Y-23753377D01*
X74300248Y-23847114D01*
X74373240Y-23916062D01*
X74564566Y-24055783D01*
X74564570Y-24055785D01*
X74637089Y-24095837D01*
X74771951Y-24170321D01*
X74771960Y-24170324D01*
X74771961Y-24170325D01*
X74992101Y-24257859D01*
X75124652Y-24292030D01*
X75221511Y-24317000D01*
X75456541Y-24346808D01*
X75536432Y-24346826D01*
X75536521Y-24346837D01*
X75550034Y-24346837D01*
X75574998Y-24346837D01*
X75603642Y-24346837D01*
X77938561Y-24346837D01*
X77965723Y-24346837D01*
X77968675Y-24346872D01*
X77973191Y-24346979D01*
X78196330Y-24352294D01*
X78202179Y-24352572D01*
X78427876Y-24368724D01*
X78433704Y-24369281D01*
X78659848Y-24396336D01*
X78662732Y-24396715D01*
X88944038Y-25875750D01*
X88954899Y-25877812D01*
X89090418Y-25909846D01*
X89111390Y-25916827D01*
X89219053Y-25963701D01*
X89233965Y-25970193D01*
X89253363Y-25980786D01*
X89286364Y-26002840D01*
X89364520Y-26055069D01*
X89381726Y-26068936D01*
X89442026Y-26127127D01*
X89477925Y-26161771D01*
X89492398Y-26178476D01*
X89570588Y-26286918D01*
X89581864Y-26305924D01*
X89639561Y-26426530D01*
X89647283Y-26447237D01*
X89682646Y-26576163D01*
X89686570Y-26597914D01*
X89687460Y-26607861D01*
X89699007Y-26736944D01*
X89699500Y-26747979D01*
X89699500Y-33716873D01*
X89698439Y-33733058D01*
X89688870Y-33805741D01*
X89680492Y-33837009D01*
X89655573Y-33897168D01*
X89639388Y-33925201D01*
X89599749Y-33976860D01*
X89576859Y-33999750D01*
X89525200Y-34039389D01*
X89497168Y-34055573D01*
X89486741Y-34059893D01*
X89437007Y-34080493D01*
X89405741Y-34088870D01*
X89333051Y-34098440D01*
X89316865Y-34099501D01*
X88106444Y-34099501D01*
X88106433Y-34099498D01*
X87947315Y-34099500D01*
X87734737Y-34134977D01*
X87530894Y-34204958D01*
X87341346Y-34307539D01*
X87341341Y-34307542D01*
X87171270Y-34439916D01*
X87171268Y-34439917D01*
X87171268Y-34439918D01*
X87129775Y-34484992D01*
X87025298Y-34598487D01*
X86907422Y-34778911D01*
X86820846Y-34976286D01*
X86767939Y-35185216D01*
X86750142Y-35399994D01*
X86750142Y-35400005D01*
X86767939Y-35614783D01*
X86820846Y-35823713D01*
X86907422Y-36021088D01*
X87025298Y-36201512D01*
X87025300Y-36201515D01*
X87171268Y-36360082D01*
X87272915Y-36439198D01*
X87338920Y-36490573D01*
X87341345Y-36492460D01*
X87530891Y-36595040D01*
X87734735Y-36665022D01*
X87875713Y-36688549D01*
X87947306Y-36700497D01*
X87947309Y-36700497D01*
X87947319Y-36700499D01*
X88015679Y-36700499D01*
X88015685Y-36700501D01*
X88030118Y-36700501D01*
X88055080Y-36700501D01*
X88083725Y-36700501D01*
X91011355Y-36700501D01*
X91031873Y-36700501D01*
X91048057Y-36701561D01*
X91120743Y-36711131D01*
X91152008Y-36719508D01*
X91182614Y-36732186D01*
X91212165Y-36744426D01*
X91240197Y-36760609D01*
X91291861Y-36800252D01*
X91314747Y-36823138D01*
X91334121Y-36848387D01*
X91354388Y-36874800D01*
X91370572Y-36902832D01*
X91395491Y-36962992D01*
X91403869Y-36994261D01*
X91413438Y-37066951D01*
X91414499Y-37083135D01*
X91414499Y-48217281D01*
X91414233Y-48225393D01*
X91398990Y-48457898D01*
X91396873Y-48473978D01*
X91352206Y-48698524D01*
X91348008Y-48714191D01*
X91274415Y-48930984D01*
X91268208Y-48945968D01*
X91166950Y-49151301D01*
X91158841Y-49165348D01*
X91031646Y-49355712D01*
X91021772Y-49368580D01*
X90870819Y-49540712D01*
X90859351Y-49552180D01*
X90687229Y-49703134D01*
X90674361Y-49713009D01*
X90484001Y-49840210D01*
X90469955Y-49848320D01*
X90264623Y-49949586D01*
X90249639Y-49955793D01*
X90032844Y-50029394D01*
X90017177Y-50033592D01*
X89792639Y-50078265D01*
X89776559Y-50080383D01*
X89545011Y-50095571D01*
X89536895Y-50095837D01*
X46329051Y-50095837D01*
X46320941Y-50095571D01*
X46088436Y-50080331D01*
X46072355Y-50078214D01*
X45847809Y-50033550D01*
X45832142Y-50029352D01*
X45615354Y-49955763D01*
X45600369Y-49949557D01*
X45395029Y-49848296D01*
X45380982Y-49840186D01*
X45190621Y-49712993D01*
X45177753Y-49703119D01*
X45005623Y-49552167D01*
X44994154Y-49540698D01*
X44843204Y-49368576D01*
X44833329Y-49355708D01*
X44706127Y-49165341D01*
X44698018Y-49151294D01*
X44596759Y-48945968D01*
X44590551Y-48930983D01*
X44516956Y-48714188D01*
X44512758Y-48698521D01*
X44468089Y-48473976D01*
X44465972Y-48457895D01*
X44450765Y-48225941D01*
X44450499Y-48217829D01*
X44450499Y-46721337D01*
X45419007Y-46721337D01*
X45439080Y-46976401D01*
X45498812Y-47225201D01*
X45596721Y-47461576D01*
X45596723Y-47461579D01*
X45730406Y-47679731D01*
X45730407Y-47679732D01*
X45730408Y-47679734D01*
X45730410Y-47679736D01*
X45896577Y-47874292D01*
X46091133Y-48040459D01*
X46091135Y-48040460D01*
X46091136Y-48040461D01*
X46091137Y-48040462D01*
X46309289Y-48174145D01*
X46309292Y-48174147D01*
X46519767Y-48261328D01*
X46545672Y-48272058D01*
X46794462Y-48331788D01*
X47049532Y-48351862D01*
X47304602Y-48331788D01*
X47553392Y-48272058D01*
X47675848Y-48221335D01*
X47789771Y-48174147D01*
X47789772Y-48174146D01*
X47789775Y-48174145D01*
X48007931Y-48040459D01*
X48202487Y-47874292D01*
X48368654Y-47679736D01*
X48502340Y-47461580D01*
X48506050Y-47452625D01*
X48563568Y-47313762D01*
X48600253Y-47225197D01*
X48659983Y-46976407D01*
X48680057Y-46721337D01*
X48659983Y-46466267D01*
X48626144Y-46325321D01*
X55799500Y-46325321D01*
X55799500Y-47674678D01*
X55814032Y-47747735D01*
X55814033Y-47747739D01*
X55814034Y-47747740D01*
X55869399Y-47830601D01*
X55935751Y-47874935D01*
X55952260Y-47885966D01*
X55952264Y-47885967D01*
X56025321Y-47900499D01*
X56025324Y-47900500D01*
X56025326Y-47900500D01*
X58074676Y-47900500D01*
X58074677Y-47900499D01*
X58147740Y-47885966D01*
X58230601Y-47830601D01*
X58285966Y-47747740D01*
X58300500Y-47674674D01*
X58300500Y-46325326D01*
X58300500Y-46325323D01*
X58300499Y-46325321D01*
X58285967Y-46252264D01*
X58285966Y-46252260D01*
X58262725Y-46217477D01*
X58230601Y-46169399D01*
X58147740Y-46114034D01*
X58147739Y-46114033D01*
X58147735Y-46114032D01*
X58074677Y-46099500D01*
X58074674Y-46099500D01*
X56025326Y-46099500D01*
X56025323Y-46099500D01*
X55952264Y-46114032D01*
X55952260Y-46114033D01*
X55869399Y-46169399D01*
X55814033Y-46252260D01*
X55814032Y-46252264D01*
X55799500Y-46325321D01*
X48626144Y-46325321D01*
X48600253Y-46217477D01*
X48600251Y-46217472D01*
X48502342Y-45981097D01*
X48502340Y-45981094D01*
X48368657Y-45762942D01*
X48368656Y-45762941D01*
X48368655Y-45762940D01*
X48368654Y-45762938D01*
X48202487Y-45568382D01*
X48007931Y-45402215D01*
X48007929Y-45402213D01*
X48007927Y-45402212D01*
X48007926Y-45402211D01*
X47789774Y-45268528D01*
X47789771Y-45268526D01*
X47553396Y-45170617D01*
X47553392Y-45170616D01*
X47304602Y-45110886D01*
X47304599Y-45110885D01*
X47304596Y-45110885D01*
X47049532Y-45090812D01*
X46794467Y-45110885D01*
X46794463Y-45110885D01*
X46794462Y-45110886D01*
X46709991Y-45131166D01*
X46545667Y-45170617D01*
X46309292Y-45268526D01*
X46309289Y-45268528D01*
X46091137Y-45402211D01*
X46091136Y-45402212D01*
X45896577Y-45568382D01*
X45730407Y-45762941D01*
X45730406Y-45762942D01*
X45596723Y-45981094D01*
X45596721Y-45981097D01*
X45498812Y-46217472D01*
X45439080Y-46466272D01*
X45419007Y-46721337D01*
X44450499Y-46721337D01*
X44450499Y-46466267D01*
X44450499Y-44702481D01*
X44450501Y-44702088D01*
X44450523Y-44698655D01*
X44450524Y-44698655D01*
X44451334Y-44570787D01*
X44422202Y-44316710D01*
X44362824Y-44067958D01*
X44282754Y-43851614D01*
X44274058Y-43828118D01*
X44229461Y-43741322D01*
X44157180Y-43600645D01*
X44013879Y-43388823D01*
X43846220Y-43195706D01*
X43724240Y-43085288D01*
X43656616Y-43024074D01*
X43656614Y-43024073D01*
X43447824Y-42876422D01*
X43447817Y-42876417D01*
X43409289Y-42855600D01*
X43222822Y-42754850D01*
X43222814Y-42754847D01*
X43186539Y-42740573D01*
X43138900Y-42721827D01*
X43126626Y-42714717D01*
X43126485Y-42715010D01*
X43113907Y-42708923D01*
X43104126Y-42706671D01*
X43086513Y-42701208D01*
X43077173Y-42697529D01*
X43065621Y-42695773D01*
X43050642Y-42692537D01*
X42769974Y-42613479D01*
X42758632Y-42609685D01*
X42458240Y-42492809D01*
X42447317Y-42487941D01*
X42159568Y-42342666D01*
X42149173Y-42336773D01*
X41876753Y-42164447D01*
X41866975Y-42157580D01*
X41787522Y-42095852D01*
X41612426Y-41959816D01*
X41603350Y-41952035D01*
X41574542Y-41924819D01*
X41475748Y-41831483D01*
X41369044Y-41730674D01*
X41360757Y-41722051D01*
X41148872Y-41479156D01*
X41141454Y-41469776D01*
X41073672Y-41374999D01*
X47103552Y-41374999D01*
X47103553Y-41375000D01*
X48396447Y-41375000D01*
X48396447Y-41374999D01*
X47750000Y-40728553D01*
X47103552Y-41374999D01*
X41073672Y-41374999D01*
X40957196Y-41212135D01*
X40945793Y-41192658D01*
X40915117Y-41127256D01*
X40905183Y-41095664D01*
X40893867Y-41030002D01*
X40892653Y-40996915D01*
X40899123Y-40930602D01*
X40906713Y-40898367D01*
X40930504Y-40836138D01*
X40946356Y-40807060D01*
X40985773Y-40753347D01*
X41008755Y-40729506D01*
X41060987Y-40688142D01*
X41089463Y-40671235D01*
X41150776Y-40645175D01*
X41182710Y-40636408D01*
X41256637Y-40626445D01*
X41273175Y-40625335D01*
X41293943Y-40625335D01*
X41293944Y-40625334D01*
X41308218Y-40625334D01*
X41308545Y-40625296D01*
X43006471Y-40625296D01*
X43006495Y-40625303D01*
X43057840Y-40625303D01*
X43165603Y-40625303D01*
X43378189Y-40589829D01*
X43582037Y-40519848D01*
X43771586Y-40417269D01*
X43941666Y-40284890D01*
X44087637Y-40126323D01*
X44205518Y-39945892D01*
X44292094Y-39748519D01*
X44345002Y-39539589D01*
X44354977Y-39419205D01*
X44362800Y-39324804D01*
X44362800Y-39324793D01*
X44345003Y-39110018D01*
X44345002Y-39110015D01*
X44345002Y-39110010D01*
X44292093Y-38901080D01*
X44205518Y-38703707D01*
X44205353Y-38703455D01*
X44121311Y-38574819D01*
X44087636Y-38523276D01*
X43941665Y-38364709D01*
X43850996Y-38294139D01*
X43771587Y-38232332D01*
X43582037Y-38129752D01*
X43582028Y-38129749D01*
X43378190Y-38059771D01*
X43165602Y-38024297D01*
X43082803Y-38024297D01*
X41273617Y-38024297D01*
X41257055Y-38023186D01*
X41182722Y-38013168D01*
X41150782Y-38004400D01*
X41089473Y-37978343D01*
X41060997Y-37961434D01*
X41008774Y-37920078D01*
X40985790Y-37896235D01*
X40946373Y-37842523D01*
X40930523Y-37813447D01*
X40927389Y-37805250D01*
X40906734Y-37751224D01*
X40899145Y-37718985D01*
X40892677Y-37652683D01*
X40893892Y-37619589D01*
X40905207Y-37553939D01*
X40915137Y-37522354D01*
X40945704Y-37457187D01*
X40957316Y-37437423D01*
X41014912Y-37357388D01*
X41154033Y-37164066D01*
X41161943Y-37154182D01*
X41389112Y-36898382D01*
X41397996Y-36889354D01*
X41650125Y-36658115D01*
X41659884Y-36650044D01*
X41934318Y-36445798D01*
X41944864Y-36438757D01*
X42238750Y-36263628D01*
X42249941Y-36257714D01*
X42560196Y-36113542D01*
X42571943Y-36108799D01*
X42895299Y-35997101D01*
X42907455Y-35993587D01*
X43240544Y-35915527D01*
X43253010Y-35913272D01*
X43592332Y-35869670D01*
X43604964Y-35868700D01*
X43946954Y-35860015D01*
X43959633Y-35860342D01*
X44297999Y-35886451D01*
X44301945Y-35886820D01*
X44305811Y-35887245D01*
X44310137Y-35888130D01*
X44318737Y-35888969D01*
X44318739Y-35888970D01*
X44323678Y-35889452D01*
X44328006Y-35890281D01*
X44334994Y-35890876D01*
X44340335Y-35891447D01*
X44346811Y-35892281D01*
X44348673Y-35892417D01*
X44354813Y-35893016D01*
X44354949Y-35893032D01*
X44357111Y-35893030D01*
X44358500Y-35893130D01*
X44363020Y-35893545D01*
X44364339Y-35893690D01*
X44366447Y-35894081D01*
X44366572Y-35894089D01*
X44372709Y-35894613D01*
X44372887Y-35894632D01*
X44375076Y-35894603D01*
X44376351Y-35894680D01*
X44380832Y-35895032D01*
X44382153Y-35895161D01*
X44384323Y-35895535D01*
X44384536Y-35895546D01*
X44390659Y-35895992D01*
X44390775Y-35896003D01*
X44392906Y-35895948D01*
X44393787Y-35895989D01*
X44394164Y-35896007D01*
X44398793Y-35896314D01*
X44400101Y-35896426D01*
X44402232Y-35896767D01*
X44402361Y-35896772D01*
X44408528Y-35897144D01*
X44408752Y-35897163D01*
X44410962Y-35897078D01*
X44412207Y-35897122D01*
X44416821Y-35897372D01*
X44418107Y-35897466D01*
X44420236Y-35897780D01*
X44420373Y-35897784D01*
X44426513Y-35898079D01*
X44426675Y-35898090D01*
X44428823Y-35897981D01*
X44430085Y-35898010D01*
X44434746Y-35898206D01*
X44435230Y-35898235D01*
X44436071Y-35898287D01*
X44438197Y-35898573D01*
X44438324Y-35898575D01*
X44444468Y-35898794D01*
X44444657Y-35898805D01*
X44446836Y-35898668D01*
X44448100Y-35898681D01*
X44452799Y-35898821D01*
X44453510Y-35898855D01*
X44453974Y-35898878D01*
X44456112Y-35899140D01*
X44456290Y-35899140D01*
X44462430Y-35899284D01*
X44462639Y-35899294D01*
X44464817Y-35899129D01*
X44466045Y-35899127D01*
X44470613Y-35899206D01*
X44471923Y-35899253D01*
X44474090Y-35899491D01*
X44474273Y-35899489D01*
X44480409Y-35899556D01*
X44480609Y-35899563D01*
X44482801Y-35899371D01*
X44483966Y-35899355D01*
X44488490Y-35899374D01*
X44489745Y-35899404D01*
X44491948Y-35899618D01*
X44492152Y-35899613D01*
X44498300Y-35899605D01*
X44498553Y-35899610D01*
X44500774Y-35899388D01*
X44502049Y-35899355D01*
X44506568Y-35899323D01*
X44507768Y-35899336D01*
X44509945Y-35899522D01*
X44510167Y-35899514D01*
X44516311Y-35899431D01*
X44516553Y-35899433D01*
X44518756Y-35899186D01*
X44519592Y-35899154D01*
X44519889Y-35899143D01*
X44524391Y-35899053D01*
X44525619Y-35899051D01*
X44527821Y-35899210D01*
X44528054Y-35899199D01*
X44534181Y-35899040D01*
X44534482Y-35899039D01*
X44536699Y-35898762D01*
X44537923Y-35898700D01*
X44542414Y-35898556D01*
X44543617Y-35898540D01*
X44545816Y-35898673D01*
X44546055Y-35898658D01*
X44552176Y-35898423D01*
X44552423Y-35898419D01*
X44554594Y-35898119D01*
X44555704Y-35898049D01*
X44560279Y-35897845D01*
X44561529Y-35897813D01*
X44563733Y-35897918D01*
X44563957Y-35897902D01*
X44570092Y-35897592D01*
X44570331Y-35897585D01*
X44572516Y-35897258D01*
X44573722Y-35897167D01*
X44578281Y-35896907D01*
X44579380Y-35896865D01*
X44581602Y-35896944D01*
X44581896Y-35896919D01*
X44588026Y-35896534D01*
X44588298Y-35896523D01*
X44590501Y-35896165D01*
X44591649Y-35896064D01*
X44596107Y-35895757D01*
X44597258Y-35895699D01*
X44599489Y-35895750D01*
X44599767Y-35895723D01*
X44605885Y-35895263D01*
X44606135Y-35895250D01*
X44608314Y-35894868D01*
X44608331Y-35894866D01*
X44609432Y-35894755D01*
X44613998Y-35894383D01*
X44614378Y-35894359D01*
X44615205Y-35894307D01*
X44617417Y-35894330D01*
X44617636Y-35894306D01*
X44623750Y-35893769D01*
X44624032Y-35893751D01*
X44626221Y-35893338D01*
X44627382Y-35893207D01*
X44631974Y-35892778D01*
X44632399Y-35892746D01*
X44633137Y-35892691D01*
X44635312Y-35892688D01*
X44635498Y-35892665D01*
X44641612Y-35892053D01*
X44641910Y-35892030D01*
X44644112Y-35891587D01*
X44645203Y-35891450D01*
X44649743Y-35890969D01*
X44651005Y-35890858D01*
X44653183Y-35890829D01*
X44653377Y-35890803D01*
X44659481Y-35890116D01*
X44659713Y-35890095D01*
X44661870Y-35889634D01*
X44662087Y-35889603D01*
X44663002Y-35889478D01*
X44667545Y-35888937D01*
X44668742Y-35888817D01*
X44670966Y-35888760D01*
X44671230Y-35888721D01*
X44677312Y-35887960D01*
X44677526Y-35887938D01*
X44679667Y-35887453D01*
X44680884Y-35887270D01*
X44685478Y-35886667D01*
X44686630Y-35886537D01*
X44688818Y-35886454D01*
X44689015Y-35886422D01*
X44695093Y-35885585D01*
X44695287Y-35885563D01*
X44697405Y-35885055D01*
X44698572Y-35884865D01*
X44703124Y-35884210D01*
X44704435Y-35884046D01*
X44706587Y-35883937D01*
X44706723Y-35883914D01*
X44712835Y-35882997D01*
X44713071Y-35882967D01*
X44715242Y-35882419D01*
X44716446Y-35882208D01*
X44720922Y-35881509D01*
X44722126Y-35881343D01*
X44724319Y-35881205D01*
X44724518Y-35881168D01*
X44730578Y-35880181D01*
X44730814Y-35880148D01*
X44732935Y-35879583D01*
X44734158Y-35879353D01*
X44738633Y-35878597D01*
X44739878Y-35878410D01*
X44742067Y-35878245D01*
X44742263Y-35878206D01*
X44748319Y-35877143D01*
X44748487Y-35877117D01*
X44750565Y-35876537D01*
X44751580Y-35876332D01*
X44751750Y-35876298D01*
X44756366Y-35875458D01*
X44757588Y-35875259D01*
X44759761Y-35875069D01*
X44759932Y-35875033D01*
X44766005Y-35873890D01*
X44766166Y-35873863D01*
X44768260Y-35873251D01*
X44769490Y-35872987D01*
X44773957Y-35872117D01*
X44775192Y-35871901D01*
X44777362Y-35871683D01*
X44777536Y-35871644D01*
X44783553Y-35870436D01*
X44783812Y-35870390D01*
X44785948Y-35869736D01*
X44787152Y-35869463D01*
X44791531Y-35868557D01*
X44792872Y-35868305D01*
X44795020Y-35868063D01*
X44795184Y-35868024D01*
X44801195Y-35866739D01*
X44801411Y-35866698D01*
X44803524Y-35866023D01*
X44804450Y-35865801D01*
X44804755Y-35865729D01*
X44809150Y-35864762D01*
X44810433Y-35864504D01*
X44812612Y-35864230D01*
X44812780Y-35864188D01*
X44818807Y-35862821D01*
X44818923Y-35862797D01*
X44820960Y-35862119D01*
X44821632Y-35861948D01*
X44822262Y-35861789D01*
X44826752Y-35860741D01*
X44828018Y-35860470D01*
X44830156Y-35860176D01*
X44830289Y-35860141D01*
X44836281Y-35858704D01*
X44836415Y-35858675D01*
X44838452Y-35857968D01*
X44839636Y-35857652D01*
X44844112Y-35856548D01*
X44845538Y-35856225D01*
X44847687Y-35855902D01*
X44847792Y-35855873D01*
X44853807Y-35854351D01*
X44853895Y-35854330D01*
X44855906Y-35853604D01*
X44857314Y-35853210D01*
X44861653Y-35852084D01*
X44863054Y-35851749D01*
X44865147Y-35851408D01*
X44865210Y-35851390D01*
X44871168Y-35849804D01*
X44871328Y-35849765D01*
X44873361Y-35849002D01*
X44874652Y-35848624D01*
X44879092Y-35847414D01*
X44880476Y-35847064D01*
X44882604Y-35846689D01*
X44882722Y-35846654D01*
X44888673Y-35844991D01*
X44888682Y-35844988D01*
X44890630Y-35844230D01*
X44892060Y-35843792D01*
X44896447Y-35842538D01*
X44897968Y-35842133D01*
X44900011Y-35841749D01*
X44905934Y-35840015D01*
X44905954Y-35840009D01*
X44907907Y-35839221D01*
X44909411Y-35838740D01*
X44913859Y-35837408D01*
X44914686Y-35837176D01*
X44915242Y-35837022D01*
X44917330Y-35836601D01*
X44917395Y-35836580D01*
X44923325Y-35834763D01*
X44923344Y-35834757D01*
X44925281Y-35833947D01*
X44926543Y-35833527D01*
X44926696Y-35833476D01*
X44931014Y-35832122D01*
X44932482Y-35831693D01*
X44934521Y-35831256D01*
X44940431Y-35829366D01*
X44940504Y-35829344D01*
X44942457Y-35828500D01*
X44943814Y-35828028D01*
X44948190Y-35826597D01*
X44949651Y-35826150D01*
X44951708Y-35825683D01*
X44951771Y-35825661D01*
X44957630Y-35823706D01*
X44957708Y-35823682D01*
X44959645Y-35822815D01*
X44961088Y-35822293D01*
X44965334Y-35820849D01*
X44966710Y-35820408D01*
X44968780Y-35819911D01*
X44968873Y-35819877D01*
X44974684Y-35817858D01*
X44974748Y-35817837D01*
X44976669Y-35816948D01*
X44978066Y-35816424D01*
X44982401Y-35814887D01*
X44983778Y-35814427D01*
X44985844Y-35813904D01*
X44985912Y-35813878D01*
X44991735Y-35811773D01*
X44991805Y-35811749D01*
X44993721Y-35810834D01*
X44995017Y-35810329D01*
X44999269Y-35808762D01*
X45000655Y-35808280D01*
X45002687Y-35807738D01*
X45002709Y-35807730D01*
X45008511Y-35805552D01*
X45008699Y-35805486D01*
X45010685Y-35804508D01*
X45011918Y-35804009D01*
X45016124Y-35802401D01*
X45017505Y-35801902D01*
X45019587Y-35801319D01*
X45019694Y-35801275D01*
X45025476Y-35799022D01*
X45025544Y-35798997D01*
X45027449Y-35798029D01*
X45028818Y-35797456D01*
X45033026Y-35795788D01*
X45034287Y-35795315D01*
X45036341Y-35794712D01*
X45036420Y-35794679D01*
X45042160Y-35792361D01*
X45042250Y-35792327D01*
X45044151Y-35791331D01*
X45045481Y-35790754D01*
X45049647Y-35789041D01*
X45050921Y-35788544D01*
X45052994Y-35787908D01*
X45053114Y-35787855D01*
X45058823Y-35785466D01*
X45058890Y-35785439D01*
X45060757Y-35784431D01*
X45061992Y-35783878D01*
X45066222Y-35782078D01*
X45067558Y-35781539D01*
X45069580Y-35780892D01*
X45069640Y-35780865D01*
X45075344Y-35778396D01*
X45075453Y-35778351D01*
X45077344Y-35777300D01*
X45078621Y-35776709D01*
X45082790Y-35774872D01*
X45083981Y-35774374D01*
X45086043Y-35773686D01*
X45086193Y-35773615D01*
X45091827Y-35771093D01*
X45091999Y-35771020D01*
X45093899Y-35769933D01*
X45095109Y-35769356D01*
X45099156Y-35767513D01*
X45100368Y-35766988D01*
X45102442Y-35766267D01*
X45102634Y-35766173D01*
X45108212Y-35763593D01*
X45108372Y-35763523D01*
X45110253Y-35762416D01*
X45111421Y-35761840D01*
X45115521Y-35759915D01*
X45116788Y-35759347D01*
X45118795Y-35758621D01*
X45118871Y-35758583D01*
X45124438Y-35755924D01*
X45124577Y-35755861D01*
X45126428Y-35754740D01*
X45127624Y-35754132D01*
X45131732Y-35752136D01*
X45132992Y-35751554D01*
X45135014Y-35750794D01*
X45135139Y-35750729D01*
X45140664Y-35748005D01*
X45140777Y-35747952D01*
X45142590Y-35746824D01*
X45143776Y-35746202D01*
X45147851Y-35744160D01*
X45149117Y-35743555D01*
X45151120Y-35742774D01*
X45151238Y-35742711D01*
X45156713Y-35739927D01*
X45156849Y-35739861D01*
X45158666Y-35738700D01*
X45158869Y-35738589D01*
X45159833Y-35738069D01*
X45163928Y-35735955D01*
X45165102Y-35735376D01*
X45167119Y-35734560D01*
X45167266Y-35734479D01*
X45172720Y-35731621D01*
X45172860Y-35731551D01*
X45174666Y-35730365D01*
X45175860Y-35729700D01*
X45179814Y-35727597D01*
X45181042Y-35726973D01*
X45183043Y-35726135D01*
X45183163Y-35726067D01*
X45188612Y-35723124D01*
X45188732Y-35723062D01*
X45190527Y-35721852D01*
X45191668Y-35721199D01*
X45195671Y-35719004D01*
X45196855Y-35718384D01*
X45198836Y-35717526D01*
X45198949Y-35717460D01*
X45204354Y-35714455D01*
X45204477Y-35714390D01*
X45206250Y-35713160D01*
X45207378Y-35712496D01*
X45211368Y-35710245D01*
X45212633Y-35709562D01*
X45214580Y-35708690D01*
X45214666Y-35708639D01*
X45220043Y-35705563D01*
X45220181Y-35705488D01*
X45221962Y-35704221D01*
X45223113Y-35703524D01*
X45226996Y-35701270D01*
X45228242Y-35700577D01*
X45230189Y-35699676D01*
X45230273Y-35699624D01*
X45235612Y-35696480D01*
X45235755Y-35696400D01*
X45237512Y-35695117D01*
X45238685Y-35694386D01*
X45242539Y-35692086D01*
X45243703Y-35691419D01*
X45245680Y-35690474D01*
X45245799Y-35690398D01*
X45251101Y-35687187D01*
X45251144Y-35687161D01*
X45252832Y-35685896D01*
X45254058Y-35685111D01*
X45257943Y-35682726D01*
X45259153Y-35682014D01*
X45261066Y-35681070D01*
X45261116Y-35681038D01*
X45266389Y-35677755D01*
X45266467Y-35677709D01*
X45268172Y-35676398D01*
X45269309Y-35675650D01*
X45273186Y-35673202D01*
X45274400Y-35672467D01*
X45276317Y-35671491D01*
X45276403Y-35671434D01*
X45281615Y-35668099D01*
X45281727Y-35668030D01*
X45283432Y-35666686D01*
X45284572Y-35665917D01*
X45288404Y-35663432D01*
X45289583Y-35662698D01*
X45291476Y-35661704D01*
X45291536Y-35661663D01*
X45296716Y-35658257D01*
X45296809Y-35658198D01*
X45298478Y-35656848D01*
X45299618Y-35656057D01*
X45303370Y-35653556D01*
X45303604Y-35653405D01*
X45304540Y-35652806D01*
X45306472Y-35651762D01*
X45306601Y-35651671D01*
X45311752Y-35648192D01*
X45311774Y-35648177D01*
X45313399Y-35646830D01*
X45314555Y-35646006D01*
X45318346Y-35643410D01*
X45319602Y-35642584D01*
X45321445Y-35641559D01*
X45321461Y-35641548D01*
X45326577Y-35638000D01*
X45326605Y-35637981D01*
X45328205Y-35636620D01*
X45328829Y-35636163D01*
X45329360Y-35635774D01*
X45333162Y-35633101D01*
X45334408Y-35632259D01*
X45336252Y-35631204D01*
X45336305Y-35631165D01*
X45341351Y-35627573D01*
X45341380Y-35627552D01*
X45342976Y-35626160D01*
X45344183Y-35625255D01*
X45347876Y-35622592D01*
X45349107Y-35621738D01*
X45350931Y-35620662D01*
X45350946Y-35620652D01*
X45355950Y-35616994D01*
X45356014Y-35616949D01*
X45357613Y-35615519D01*
X45358797Y-35614607D01*
X45362426Y-35611922D01*
X45363644Y-35611054D01*
X45365454Y-35609957D01*
X45365480Y-35609937D01*
X45370442Y-35606216D01*
X45370487Y-35606183D01*
X45372054Y-35604746D01*
X45373219Y-35603826D01*
X45376866Y-35601057D01*
X45377744Y-35600415D01*
X45379558Y-35599286D01*
X45379667Y-35599199D01*
X45384545Y-35595447D01*
X45384822Y-35595244D01*
X45386484Y-35593682D01*
X45387353Y-35592979D01*
X45390876Y-35590233D01*
X45391546Y-35589730D01*
X45393478Y-35588494D01*
X45393797Y-35588230D01*
X45398603Y-35584438D01*
X45399052Y-35584101D01*
X45400774Y-35582443D01*
X45401378Y-35581942D01*
X45404752Y-35579243D01*
X45405209Y-35578890D01*
X45407281Y-35577526D01*
X45407824Y-35577065D01*
X45412546Y-35573245D01*
X45413184Y-35572753D01*
X45415001Y-35570963D01*
X45415344Y-35570672D01*
X45418817Y-35567832D01*
X45419067Y-35567635D01*
X45421078Y-35566277D01*
X45421602Y-35565821D01*
X45426259Y-35561957D01*
X45426822Y-35561512D01*
X45428530Y-35559784D01*
X45428862Y-35559494D01*
X45432298Y-35556612D01*
X45432549Y-35556409D01*
X45434564Y-35555012D01*
X45435098Y-35554536D01*
X45439726Y-35550602D01*
X45440316Y-35550124D01*
X45442041Y-35548337D01*
X45442321Y-35548087D01*
X45445725Y-35545163D01*
X45446055Y-35544890D01*
X45447988Y-35543518D01*
X45448456Y-35543090D01*
X45453019Y-35539115D01*
X45453511Y-35538707D01*
X45455122Y-35536994D01*
X45455397Y-35536742D01*
X45458979Y-35533578D01*
X45459257Y-35533341D01*
X45461237Y-35531898D01*
X45461779Y-35531391D01*
X45466300Y-35527354D01*
X45466804Y-35526924D01*
X45468425Y-35525160D01*
X45468717Y-35524887D01*
X45472125Y-35521806D01*
X45472348Y-35521612D01*
X45474314Y-35520142D01*
X45474851Y-35519627D01*
X45479331Y-35515531D01*
X45479847Y-35515081D01*
X45481455Y-35513288D01*
X45481695Y-35513057D01*
X45485177Y-35509834D01*
X45485410Y-35509626D01*
X45487298Y-35508180D01*
X45487781Y-35507706D01*
X45492184Y-35503580D01*
X45492750Y-35503074D01*
X45494351Y-35501244D01*
X45494550Y-35501049D01*
X45497958Y-35497818D01*
X45498201Y-35497595D01*
X45500109Y-35496096D01*
X45500623Y-35495579D01*
X45504989Y-35491387D01*
X45505635Y-35490795D01*
X45507292Y-35488859D01*
X45507506Y-35488643D01*
X45510463Y-35485770D01*
X45510630Y-35485613D01*
X45512641Y-35483988D01*
X45513269Y-35483340D01*
X45517561Y-35479118D01*
X45518301Y-35478424D01*
X45520014Y-35476376D01*
X45520172Y-35476214D01*
X45523103Y-35473305D01*
X45523278Y-35473137D01*
X45525194Y-35471553D01*
X45525738Y-35470978D01*
X45529999Y-35466685D01*
X45530634Y-35466075D01*
X45532241Y-35464101D01*
X45532374Y-35463961D01*
X45535454Y-35460823D01*
X45535746Y-35460536D01*
X45537596Y-35458970D01*
X45538088Y-35458438D01*
X45542287Y-35454105D01*
X45542852Y-35453548D01*
X45544384Y-35451618D01*
X45544586Y-35451399D01*
X45547767Y-35448077D01*
X45547925Y-35447918D01*
X45549800Y-35446290D01*
X45550339Y-35445693D01*
X45554468Y-35441326D01*
X45554976Y-35440813D01*
X45556453Y-35438905D01*
X45556630Y-35438708D01*
X45559564Y-35435553D01*
X45559692Y-35435421D01*
X45561685Y-35433644D01*
X45562343Y-35432897D01*
X45566444Y-35428454D01*
X45567046Y-35427832D01*
X45568581Y-35425802D01*
X45568753Y-35425606D01*
X45571585Y-35422502D01*
X45571810Y-35422265D01*
X45573686Y-35420555D01*
X45574233Y-35419918D01*
X45578278Y-35415427D01*
X45578763Y-35414913D01*
X45580195Y-35412966D01*
X45580413Y-35412712D01*
X45583574Y-35409164D01*
X45583749Y-35408974D01*
X45585507Y-35407337D01*
X45585960Y-35406796D01*
X45589955Y-35402254D01*
X45590530Y-35401630D01*
X45592017Y-35399562D01*
X45592199Y-35399343D01*
X45594813Y-35396329D01*
X45594940Y-35396188D01*
X45596881Y-35394326D01*
X45597521Y-35393543D01*
X45601460Y-35388953D01*
X45602047Y-35388301D01*
X45603520Y-35386198D01*
X45603645Y-35386045D01*
X45606262Y-35382955D01*
X45606458Y-35382733D01*
X45608313Y-35380912D01*
X45608889Y-35380190D01*
X45612767Y-35375560D01*
X45613347Y-35374900D01*
X45614776Y-35372806D01*
X45614894Y-35372658D01*
X45617651Y-35369321D01*
X45617769Y-35369183D01*
X45619601Y-35367343D01*
X45620191Y-35366585D01*
X45624006Y-35361916D01*
X45624614Y-35361207D01*
X45626055Y-35359042D01*
X45626208Y-35358845D01*
X45628742Y-35355708D01*
X45628858Y-35355569D01*
X45630690Y-35353682D01*
X45631268Y-35352920D01*
X45635023Y-35348210D01*
X45635530Y-35347603D01*
X45636878Y-35345520D01*
X45637043Y-35345303D01*
X45639869Y-35341716D01*
X45640004Y-35341551D01*
X45641701Y-35339763D01*
X45642159Y-35339145D01*
X45645850Y-35334399D01*
X45646364Y-35333770D01*
X45647697Y-35331656D01*
X45647819Y-35331491D01*
X45650400Y-35328122D01*
X45650584Y-35327890D01*
X45652363Y-35325966D01*
X45652905Y-35325216D01*
X45656551Y-35320408D01*
X45657042Y-35319791D01*
X45658339Y-35317675D01*
X45658498Y-35317455D01*
X45661425Y-35313558D01*
X45661558Y-35313388D01*
X45663114Y-35311672D01*
X45663471Y-35311165D01*
X45667064Y-35306308D01*
X45667520Y-35305721D01*
X45668759Y-35303643D01*
X45668961Y-35303355D01*
X45671603Y-35299733D01*
X45671779Y-35299501D01*
X45673429Y-35297633D01*
X45673906Y-35296937D01*
X45677429Y-35292051D01*
X45677849Y-35291496D01*
X45679042Y-35289440D01*
X45679158Y-35289270D01*
X45682001Y-35285276D01*
X45682185Y-35285028D01*
X45683751Y-35283212D01*
X45684140Y-35282630D01*
X45687619Y-35277680D01*
X45688101Y-35277027D01*
X45689331Y-35274851D01*
X45689556Y-35274513D01*
X45691957Y-35271052D01*
X45692071Y-35270893D01*
X45693734Y-35268913D01*
X45694233Y-35268146D01*
X45697650Y-35263157D01*
X45698089Y-35262547D01*
X45699279Y-35260381D01*
X45699460Y-35260102D01*
X45701914Y-35256472D01*
X45702109Y-35256194D01*
X45703692Y-35254265D01*
X45704108Y-35253608D01*
X45707479Y-35248556D01*
X45707809Y-35248085D01*
X45708894Y-35246046D01*
X45708931Y-35245985D01*
X45709055Y-35245790D01*
X45711765Y-35241667D01*
X45711981Y-35241353D01*
X45713488Y-35239472D01*
X45713855Y-35238878D01*
X45717143Y-35233821D01*
X45717531Y-35233254D01*
X45718649Y-35231094D01*
X45718815Y-35230824D01*
X45721213Y-35227075D01*
X45721394Y-35226802D01*
X45722960Y-35224794D01*
X45723394Y-35224072D01*
X45726634Y-35218953D01*
X45727104Y-35218248D01*
X45728251Y-35215970D01*
X45728424Y-35215681D01*
X45730699Y-35212044D01*
X45730914Y-35211713D01*
X45732404Y-35209755D01*
X45732775Y-35209120D01*
X45735939Y-35203983D01*
X45736329Y-35203382D01*
X45737390Y-35201203D01*
X45737594Y-35200853D01*
X45739838Y-35197152D01*
X45740006Y-35196887D01*
X45741274Y-35195180D01*
X45741511Y-35194765D01*
X45744514Y-35189765D01*
X45746918Y-35185967D01*
X45748835Y-35182096D01*
X45751254Y-35178171D01*
X45751254Y-35178169D01*
X45753697Y-35174205D01*
X45754217Y-35173484D01*
X45754362Y-35173235D01*
X45754989Y-35171859D01*
X45756717Y-35168697D01*
X45758454Y-35166129D01*
X45759752Y-35163708D01*
X45762717Y-35158482D01*
X45764345Y-35155767D01*
X45767171Y-35150384D01*
X45769863Y-35145523D01*
X45771929Y-35141981D01*
X45772142Y-35141482D01*
X45773720Y-35138414D01*
X45776240Y-35133760D01*
X45777767Y-35131079D01*
X45777981Y-35130760D01*
X45778101Y-35130471D01*
X45779547Y-35127600D01*
X45782043Y-35122897D01*
X45783613Y-35120087D01*
X45783778Y-35119836D01*
X45783901Y-35119533D01*
X45785350Y-35116597D01*
X45787755Y-35111972D01*
X45789281Y-35109182D01*
X45789466Y-35108894D01*
X45789596Y-35108568D01*
X45790962Y-35105737D01*
X45793367Y-35101014D01*
X45794857Y-35098236D01*
X45795068Y-35097902D01*
X45795196Y-35097573D01*
X45796588Y-35094625D01*
X45798943Y-35089900D01*
X45800404Y-35087119D01*
X45800617Y-35086776D01*
X45800753Y-35086415D01*
X45802067Y-35083569D01*
X45804381Y-35078824D01*
X45805772Y-35076120D01*
X45805994Y-35075757D01*
X45806131Y-35075384D01*
X45807444Y-35072476D01*
X45809733Y-35067681D01*
X45811131Y-35064908D01*
X45811366Y-35064515D01*
X45811518Y-35064090D01*
X45812786Y-35061220D01*
X45815005Y-35056472D01*
X45816372Y-35053701D01*
X45816581Y-35053344D01*
X45816712Y-35052969D01*
X45817955Y-35050089D01*
X45820133Y-35045323D01*
X45821528Y-35042433D01*
X45821710Y-35042116D01*
X45821843Y-35041724D01*
X45823069Y-35038816D01*
X45825213Y-35034018D01*
X45826542Y-35031205D01*
X45826747Y-35030841D01*
X45826880Y-35030438D01*
X45828089Y-35027502D01*
X45830176Y-35022721D01*
X45831491Y-35019874D01*
X45831696Y-35019503D01*
X45831803Y-35019169D01*
X45832976Y-35016245D01*
X45835062Y-35011353D01*
X45836348Y-35008507D01*
X45836537Y-35008159D01*
X45836664Y-35007749D01*
X45837809Y-35004827D01*
X45839849Y-34999933D01*
X45841127Y-34997042D01*
X45841303Y-34996711D01*
X45841410Y-34996355D01*
X45842545Y-34993382D01*
X45844538Y-34988478D01*
X45845707Y-34985769D01*
X45845930Y-34985341D01*
X45846049Y-34984934D01*
X45847156Y-34981961D01*
X45849096Y-34977072D01*
X45850306Y-34974201D01*
X45850505Y-34973811D01*
X45850628Y-34973375D01*
X45851644Y-34970573D01*
X45853559Y-34965623D01*
X45854778Y-34962663D01*
X45854951Y-34962316D01*
X45855048Y-34961963D01*
X45856119Y-34958927D01*
X45858005Y-34953928D01*
X45859129Y-34951132D01*
X45859329Y-34950722D01*
X45859447Y-34950277D01*
X45860449Y-34947362D01*
X45862262Y-34942432D01*
X45863376Y-34939589D01*
X45863574Y-34939175D01*
X45863688Y-34938729D01*
X45864680Y-34935762D01*
X45866452Y-34930813D01*
X45867563Y-34927906D01*
X45867758Y-34927488D01*
X45867866Y-34927051D01*
X45868825Y-34924099D01*
X45870559Y-34919124D01*
X45871649Y-34916198D01*
X45871813Y-34915839D01*
X45871905Y-34915452D01*
X45872839Y-34912493D01*
X45874522Y-34907530D01*
X45875639Y-34904451D01*
X45875788Y-34904118D01*
X45875871Y-34903755D01*
X45876827Y-34900634D01*
X45878463Y-34895669D01*
X45879489Y-34892763D01*
X45879648Y-34892399D01*
X45879730Y-34892026D01*
X45880632Y-34888990D01*
X45882227Y-34884011D01*
X45883242Y-34881057D01*
X45883412Y-34880659D01*
X45883492Y-34880281D01*
X45884384Y-34877183D01*
X45885937Y-34872187D01*
X45886954Y-34869144D01*
X45887089Y-34868821D01*
X45887163Y-34868453D01*
X45888005Y-34865427D01*
X45889545Y-34860322D01*
X45890529Y-34857296D01*
X45890660Y-34856974D01*
X45890725Y-34856637D01*
X45891549Y-34853579D01*
X45893030Y-34848515D01*
X45894018Y-34845385D01*
X45894134Y-34845092D01*
X45894196Y-34844757D01*
X45895005Y-34841648D01*
X45896443Y-34836568D01*
X45897350Y-34833606D01*
X45897509Y-34833195D01*
X45897600Y-34832681D01*
X45897692Y-34832317D01*
X45898060Y-34831390D01*
X45898382Y-34830238D01*
X45899174Y-34827655D01*
X45899218Y-34827668D01*
X45899920Y-34824719D01*
X45900564Y-34822311D01*
X45900719Y-34821367D01*
X45901352Y-34818707D01*
X45902850Y-34813015D01*
X45903027Y-34812402D01*
X45903503Y-34811132D01*
X45903909Y-34809571D01*
X45904117Y-34808225D01*
X45904378Y-34807104D01*
X45905715Y-34801879D01*
X45905880Y-34801288D01*
X45906355Y-34799977D01*
X45906906Y-34797801D01*
X45907121Y-34796365D01*
X45907333Y-34795425D01*
X45908600Y-34790318D01*
X45908646Y-34790148D01*
X45909118Y-34788808D01*
X45910170Y-34784499D01*
X45910897Y-34781804D01*
X45911551Y-34778689D01*
X45912924Y-34772848D01*
X45913596Y-34770267D01*
X45914187Y-34767345D01*
X45915505Y-34761540D01*
X45916178Y-34758870D01*
X45916708Y-34756137D01*
X45917975Y-34750339D01*
X45918620Y-34747689D01*
X45919102Y-34745096D01*
X45920327Y-34739276D01*
X45920947Y-34736644D01*
X45921437Y-34733883D01*
X45922616Y-34728052D01*
X45923225Y-34725369D01*
X45923668Y-34722762D01*
X45924797Y-34716947D01*
X45925385Y-34714259D01*
X45925827Y-34711523D01*
X45926916Y-34705668D01*
X45927475Y-34703014D01*
X45927890Y-34700315D01*
X45928931Y-34694470D01*
X45929485Y-34691738D01*
X45929888Y-34688964D01*
X45930884Y-34683096D01*
X45931402Y-34680432D01*
X45931761Y-34677818D01*
X45932715Y-34671925D01*
X45933209Y-34669275D01*
X45933557Y-34666589D01*
X45934469Y-34660668D01*
X45934938Y-34658042D01*
X45935277Y-34655255D01*
X45936133Y-34649382D01*
X45936597Y-34646658D01*
X45936901Y-34643980D01*
X45937711Y-34638100D01*
X45938149Y-34635396D01*
X45938433Y-34632711D01*
X45939203Y-34626786D01*
X45939612Y-34624137D01*
X45939886Y-34621341D01*
X45940603Y-34615469D01*
X45940997Y-34612771D01*
X45941242Y-34610054D01*
X45941911Y-34604184D01*
X45942281Y-34601503D01*
X45942508Y-34598744D01*
X45943133Y-34592860D01*
X45943502Y-34590025D01*
X45943706Y-34587277D01*
X45944282Y-34581399D01*
X45944608Y-34578727D01*
X45944785Y-34576058D01*
X45945322Y-34570125D01*
X45945634Y-34567400D01*
X45945795Y-34564636D01*
X45946284Y-34558691D01*
X45946571Y-34555996D01*
X45946705Y-34553344D01*
X45947148Y-34547410D01*
X45947421Y-34544639D01*
X45947538Y-34541896D01*
X45947936Y-34535929D01*
X45948178Y-34533260D01*
X45948271Y-34530589D01*
X45948623Y-34524610D01*
X45948845Y-34521938D01*
X45948922Y-34519111D01*
X45949223Y-34513208D01*
X45949427Y-34510478D01*
X45949483Y-34507634D01*
X45949737Y-34501764D01*
X45949923Y-34498982D01*
X45949953Y-34496284D01*
X45950161Y-34490345D01*
X45950322Y-34487604D01*
X45950332Y-34484992D01*
X45950496Y-34479019D01*
X45950647Y-34476079D01*
X45950497Y-34473165D01*
X45950867Y-34464634D01*
X45950698Y-34461783D01*
X45950997Y-34453341D01*
X45950804Y-34450453D01*
X45951038Y-34441908D01*
X45950824Y-34439041D01*
X45950993Y-34430401D01*
X45950760Y-34427583D01*
X45950861Y-34419081D01*
X45950601Y-34416209D01*
X45950639Y-34406512D01*
X45950499Y-34405057D01*
X45950499Y-26569420D01*
X45950500Y-26569403D01*
X45950499Y-26531857D01*
X45950990Y-26520827D01*
X45963342Y-26382428D01*
X45967247Y-26360731D01*
X46002461Y-26232047D01*
X46010143Y-26211398D01*
X46067600Y-26090984D01*
X46078819Y-26072020D01*
X46156695Y-25963697D01*
X46171107Y-25947010D01*
X46243068Y-25877316D01*
X46266937Y-25854199D01*
X46284070Y-25840333D01*
X46394839Y-25765960D01*
X46414154Y-25755352D01*
X46536343Y-25701781D01*
X46557233Y-25694762D01*
X46691789Y-25662532D01*
X46702967Y-25660394D01*
X47108348Y-25602077D01*
X47177503Y-25612016D01*
X47230310Y-25657767D01*
X47250000Y-25724805D01*
X47250000Y-30251000D01*
X47230315Y-30318039D01*
X47177511Y-30363794D01*
X47126000Y-30375000D01*
X47103553Y-30375000D01*
X47213681Y-30485127D01*
X47247166Y-30546451D01*
X47250000Y-30572809D01*
X47250000Y-30775000D01*
X47452191Y-30775000D01*
X47519230Y-30794685D01*
X47539872Y-30811319D01*
X48015872Y-31287319D01*
X48049357Y-31348642D01*
X48044373Y-31418334D01*
X48015872Y-31462681D01*
X47837681Y-31640872D01*
X47776358Y-31674357D01*
X47706666Y-31669373D01*
X47662319Y-31640872D01*
X46476561Y-30455114D01*
X46476560Y-30455114D01*
X46392809Y-30517812D01*
X46306649Y-30632906D01*
X46306645Y-30632913D01*
X46256403Y-30767620D01*
X46256401Y-30767627D01*
X46250000Y-30827155D01*
X46250000Y-31922844D01*
X46256401Y-31982372D01*
X46256403Y-31982379D01*
X46306645Y-32117086D01*
X46306649Y-32117093D01*
X46392808Y-32232186D01*
X46449811Y-32274858D01*
X46491682Y-32330792D01*
X46499500Y-32374125D01*
X46499500Y-33399678D01*
X46514032Y-33472735D01*
X46514033Y-33472739D01*
X46569739Y-33556110D01*
X46590616Y-33622788D01*
X46572131Y-33690168D01*
X46569739Y-33693890D01*
X46514033Y-33777260D01*
X46514032Y-33777264D01*
X46499500Y-33850321D01*
X46499500Y-34875873D01*
X46479815Y-34942912D01*
X46449812Y-34975139D01*
X46392814Y-35017807D01*
X46392808Y-35017814D01*
X46306649Y-35132906D01*
X46306645Y-35132913D01*
X46256403Y-35267620D01*
X46256401Y-35267627D01*
X46250000Y-35327155D01*
X46250000Y-36422844D01*
X46256401Y-36482372D01*
X46256403Y-36482379D01*
X46306645Y-36617086D01*
X46306649Y-36617093D01*
X46392808Y-36732186D01*
X46449811Y-36774858D01*
X46491682Y-36830792D01*
X46499500Y-36874125D01*
X46499500Y-37899678D01*
X46514032Y-37972735D01*
X46514033Y-37972739D01*
X46569739Y-38056110D01*
X46590616Y-38122788D01*
X46572131Y-38190168D01*
X46569739Y-38193890D01*
X46514033Y-38277260D01*
X46514032Y-38277264D01*
X46499500Y-38350321D01*
X46499500Y-39375873D01*
X46479815Y-39442912D01*
X46449812Y-39475139D01*
X46392814Y-39517807D01*
X46392808Y-39517814D01*
X46306649Y-39632906D01*
X46306645Y-39632913D01*
X46256403Y-39767620D01*
X46256401Y-39767627D01*
X46250000Y-39827155D01*
X46250000Y-40922844D01*
X46256401Y-40982372D01*
X46256403Y-40982379D01*
X46306645Y-41117086D01*
X46306649Y-41117093D01*
X46392808Y-41232185D01*
X46392817Y-41232194D01*
X46476560Y-41294885D01*
X46476561Y-41294885D01*
X47662318Y-40109128D01*
X47723641Y-40075643D01*
X47793333Y-40080627D01*
X47837680Y-40109128D01*
X49023436Y-41294884D01*
X49051188Y-41274110D01*
X49116652Y-41249692D01*
X49184925Y-41264543D01*
X49234331Y-41313948D01*
X49249500Y-41373376D01*
X49249500Y-42699678D01*
X49264032Y-42772735D01*
X49264033Y-42772739D01*
X49277554Y-42792974D01*
X49319399Y-42855601D01*
X49402257Y-42910964D01*
X49402260Y-42910966D01*
X49402264Y-42910967D01*
X49475321Y-42925499D01*
X49475324Y-42925500D01*
X49475326Y-42925500D01*
X49556431Y-42925500D01*
X49623470Y-42945185D01*
X49669225Y-42997989D01*
X49679169Y-43067147D01*
X49654807Y-43124986D01*
X49647302Y-43134766D01*
X49647300Y-43134769D01*
X49589313Y-43274763D01*
X49589312Y-43274765D01*
X49569534Y-43424999D01*
X49569534Y-43425000D01*
X49589312Y-43575234D01*
X49589313Y-43575236D01*
X49641928Y-43702261D01*
X49647302Y-43715233D01*
X49739549Y-43835451D01*
X49859767Y-43927698D01*
X49999764Y-43985687D01*
X50056026Y-43993094D01*
X50149999Y-44005466D01*
X50150000Y-44005466D01*
X50150001Y-44005466D01*
X50200078Y-43998873D01*
X50300236Y-43985687D01*
X50440233Y-43927698D01*
X50474864Y-43901124D01*
X50540031Y-43875930D01*
X50550350Y-43875500D01*
X50753456Y-43875500D01*
X50820495Y-43895185D01*
X50841137Y-43911819D01*
X50843514Y-43914196D01*
X50843515Y-43914196D01*
X50843517Y-43914198D01*
X50948607Y-43965573D01*
X50982673Y-43970536D01*
X51016739Y-43975500D01*
X51016740Y-43975500D01*
X51343255Y-43975500D01*
X51343260Y-43975500D01*
X51411393Y-43965573D01*
X51445539Y-43948879D01*
X51514410Y-43937119D01*
X51554459Y-43948878D01*
X51588607Y-43965573D01*
X51656740Y-43975500D01*
X51656745Y-43975500D01*
X51983261Y-43975500D01*
X52005971Y-43972191D01*
X52051393Y-43965573D01*
X52156483Y-43914198D01*
X52156485Y-43914196D01*
X52158863Y-43911819D01*
X52162914Y-43909606D01*
X52164847Y-43908227D01*
X52165013Y-43908460D01*
X52220186Y-43878334D01*
X52246544Y-43875500D01*
X52471142Y-43875500D01*
X52471144Y-43875500D01*
X52560288Y-43851614D01*
X52588283Y-43835451D01*
X52640212Y-43805470D01*
X53280470Y-43165212D01*
X53326614Y-43085288D01*
X53344803Y-43017405D01*
X53381167Y-42957746D01*
X53444014Y-42927217D01*
X53464577Y-42925500D01*
X53500874Y-42925500D01*
X53567913Y-42945185D01*
X53600141Y-42975189D01*
X53642809Y-43032186D01*
X53642814Y-43032191D01*
X53757906Y-43118350D01*
X53757913Y-43118354D01*
X53892620Y-43168596D01*
X53892627Y-43168598D01*
X53952155Y-43174999D01*
X53952172Y-43175000D01*
X55047828Y-43175000D01*
X55047844Y-43174999D01*
X55107372Y-43168598D01*
X55107379Y-43168596D01*
X55242086Y-43118354D01*
X55242089Y-43118352D01*
X55326188Y-43055396D01*
X55391653Y-43030978D01*
X55459926Y-43045829D01*
X55509332Y-43095234D01*
X55524500Y-43154662D01*
X55524500Y-43162601D01*
X55556905Y-43283536D01*
X55619505Y-43391964D01*
X56069505Y-43841964D01*
X56158036Y-43930495D01*
X56266464Y-43993095D01*
X56387399Y-44025500D01*
X56387401Y-44025500D01*
X57112599Y-44025500D01*
X57112601Y-44025500D01*
X57233536Y-43993095D01*
X57341964Y-43930495D01*
X57880495Y-43391964D01*
X57943095Y-43283536D01*
X57975500Y-43162601D01*
X57975500Y-43037399D01*
X57975500Y-43037045D01*
X57995185Y-42970006D01*
X58047989Y-42924251D01*
X58075307Y-42915428D01*
X58097740Y-42910966D01*
X58149458Y-42876410D01*
X58181110Y-42855261D01*
X58247787Y-42834383D01*
X58315167Y-42852868D01*
X58318890Y-42855261D01*
X58402256Y-42910964D01*
X58402258Y-42910964D01*
X58402260Y-42910966D01*
X58402262Y-42910966D01*
X58402264Y-42910967D01*
X58475321Y-42925499D01*
X58475324Y-42925500D01*
X58475326Y-42925500D01*
X59157911Y-42925500D01*
X59224950Y-42945185D01*
X59270705Y-42997989D01*
X59280850Y-43065685D01*
X59269750Y-43149997D01*
X59269750Y-43150000D01*
X59288670Y-43293708D01*
X59288671Y-43293712D01*
X59323604Y-43378048D01*
X59331073Y-43447517D01*
X59299798Y-43509996D01*
X59239709Y-43545648D01*
X59209043Y-43549500D01*
X59175323Y-43549500D01*
X59102264Y-43564032D01*
X59102260Y-43564033D01*
X59019399Y-43619399D01*
X58964033Y-43702260D01*
X58964032Y-43702264D01*
X58949500Y-43775321D01*
X58949500Y-44824678D01*
X58964032Y-44897735D01*
X58964034Y-44897739D01*
X58964034Y-44897740D01*
X58978601Y-44919542D01*
X58999480Y-44986217D01*
X58999500Y-44988432D01*
X58999500Y-45225553D01*
X58979815Y-45292592D01*
X58973876Y-45301039D01*
X58919139Y-45372374D01*
X58919138Y-45372376D01*
X58863671Y-45506287D01*
X58863670Y-45506291D01*
X58844750Y-45650000D01*
X58852660Y-45710085D01*
X58863670Y-45793708D01*
X58863671Y-45793712D01*
X58919137Y-45927622D01*
X58919138Y-45927624D01*
X58919139Y-45927625D01*
X59007379Y-46042621D01*
X59122375Y-46130861D01*
X59256291Y-46186330D01*
X59383280Y-46203048D01*
X59399999Y-46205250D01*
X59400000Y-46205250D01*
X59400001Y-46205250D01*
X59414977Y-46203278D01*
X59543709Y-46186330D01*
X59677625Y-46130861D01*
X59792621Y-46042621D01*
X59880861Y-45927625D01*
X59936330Y-45793709D01*
X59955250Y-45650000D01*
X59936330Y-45506291D01*
X59880861Y-45372375D01*
X59792621Y-45257379D01*
X59792618Y-45257377D01*
X59787673Y-45250932D01*
X59790215Y-45248981D01*
X59763938Y-45200858D01*
X59768922Y-45131166D01*
X59810794Y-45075233D01*
X59876258Y-45050816D01*
X59885104Y-45050500D01*
X60024674Y-45050500D01*
X60075811Y-45040328D01*
X60124189Y-45040328D01*
X60175326Y-45050500D01*
X60375500Y-45050500D01*
X60442539Y-45070185D01*
X60488294Y-45122989D01*
X60499500Y-45174500D01*
X60499500Y-46244725D01*
X60479815Y-46311764D01*
X60450989Y-46343099D01*
X60432380Y-46357378D01*
X60344137Y-46472377D01*
X60288671Y-46606287D01*
X60288670Y-46606291D01*
X60269750Y-46749999D01*
X60269750Y-46750000D01*
X60288670Y-46893708D01*
X60288671Y-46893712D01*
X60344137Y-47027622D01*
X60344138Y-47027624D01*
X60344139Y-47027625D01*
X60432379Y-47142621D01*
X60547375Y-47230861D01*
X60681291Y-47286330D01*
X60681292Y-47286330D01*
X60689143Y-47288434D01*
X60688355Y-47291371D01*
X60739012Y-47313762D01*
X60777501Y-47372075D01*
X60781898Y-47392273D01*
X60788670Y-47443707D01*
X60788671Y-47443712D01*
X60844137Y-47577622D01*
X60844138Y-47577624D01*
X60844139Y-47577625D01*
X60932379Y-47692621D01*
X61047375Y-47780861D01*
X61181291Y-47836330D01*
X61325000Y-47855250D01*
X61325241Y-47855250D01*
X61325436Y-47855307D01*
X61333059Y-47856311D01*
X61332902Y-47857499D01*
X61392280Y-47874935D01*
X61438035Y-47927739D01*
X61439802Y-47931798D01*
X61469137Y-48002622D01*
X61469138Y-48002624D01*
X61469139Y-48002625D01*
X61557379Y-48117621D01*
X61672375Y-48205861D01*
X61672376Y-48205861D01*
X61672377Y-48205862D01*
X61717013Y-48224350D01*
X61806291Y-48261330D01*
X61933280Y-48278048D01*
X61949999Y-48280250D01*
X61950000Y-48280250D01*
X61950001Y-48280250D01*
X61964977Y-48278278D01*
X62093709Y-48261330D01*
X62227625Y-48205861D01*
X62284110Y-48162517D01*
X62349279Y-48137323D01*
X62417724Y-48151361D01*
X62464180Y-48196185D01*
X62464192Y-48196177D01*
X62464251Y-48196254D01*
X62466983Y-48198890D01*
X62469138Y-48202623D01*
X62469139Y-48202625D01*
X62557379Y-48317621D01*
X62672375Y-48405861D01*
X62806291Y-48461330D01*
X62933280Y-48478048D01*
X62949999Y-48480250D01*
X62950000Y-48480250D01*
X62950001Y-48480250D01*
X62964977Y-48478278D01*
X63093709Y-48461330D01*
X63227625Y-48405861D01*
X63342621Y-48317621D01*
X63430861Y-48202625D01*
X63486330Y-48068709D01*
X63505250Y-47925000D01*
X63486330Y-47781291D01*
X63432161Y-47650515D01*
X63424693Y-47581047D01*
X63448348Y-47527577D01*
X63505861Y-47452625D01*
X63561330Y-47318709D01*
X63580250Y-47175000D01*
X63579280Y-47167636D01*
X63575987Y-47142620D01*
X63561330Y-47031291D01*
X63505861Y-46897375D01*
X63417621Y-46782379D01*
X63302625Y-46694139D01*
X63277045Y-46683543D01*
X63222643Y-46639702D01*
X63200579Y-46573408D01*
X63200500Y-46568983D01*
X63200500Y-46325321D01*
X68399500Y-46325321D01*
X68399500Y-47674678D01*
X68414032Y-47747735D01*
X68414033Y-47747739D01*
X68414034Y-47747740D01*
X68469399Y-47830601D01*
X68535751Y-47874935D01*
X68552260Y-47885966D01*
X68552264Y-47885967D01*
X68625321Y-47900499D01*
X68625324Y-47900500D01*
X68625326Y-47900500D01*
X70674676Y-47900500D01*
X70674677Y-47900499D01*
X70747740Y-47885966D01*
X70830601Y-47830601D01*
X70885966Y-47747740D01*
X70900500Y-47674674D01*
X70900500Y-46325326D01*
X70900500Y-46325323D01*
X70900499Y-46325321D01*
X70885967Y-46252264D01*
X70885966Y-46252260D01*
X70862725Y-46217477D01*
X70830601Y-46169399D01*
X70747740Y-46114034D01*
X70747739Y-46114033D01*
X70747735Y-46114032D01*
X70674677Y-46099500D01*
X70674674Y-46099500D01*
X68625326Y-46099500D01*
X68625323Y-46099500D01*
X68552264Y-46114032D01*
X68552260Y-46114033D01*
X68469399Y-46169399D01*
X68414033Y-46252260D01*
X68414032Y-46252264D01*
X68399500Y-46325321D01*
X63200500Y-46325321D01*
X63200500Y-45174500D01*
X63220185Y-45107461D01*
X63272989Y-45061706D01*
X63324500Y-45050500D01*
X63524674Y-45050500D01*
X63575811Y-45040328D01*
X63624189Y-45040328D01*
X63675326Y-45050500D01*
X63700874Y-45050500D01*
X63767913Y-45070185D01*
X63800141Y-45100189D01*
X63842809Y-45157186D01*
X63842814Y-45157191D01*
X63957906Y-45243350D01*
X63957913Y-45243354D01*
X64092620Y-45293596D01*
X64092627Y-45293598D01*
X64152155Y-45299999D01*
X64152172Y-45300000D01*
X64200000Y-45300000D01*
X64500000Y-45300000D01*
X64547821Y-45300000D01*
X64547831Y-45299999D01*
X64586742Y-45295815D01*
X64613258Y-45295815D01*
X64652168Y-45299999D01*
X64652179Y-45300000D01*
X64700000Y-45300000D01*
X64700000Y-43300000D01*
X64652164Y-43300000D01*
X64613252Y-43304183D01*
X64586748Y-43304183D01*
X64547835Y-43300000D01*
X64500000Y-43300000D01*
X64500000Y-45300000D01*
X64200000Y-45300000D01*
X64200000Y-44989181D01*
X64219685Y-44922142D01*
X64220856Y-44920352D01*
X64235966Y-44897740D01*
X64250500Y-44824674D01*
X64250500Y-43775326D01*
X64250500Y-43775323D01*
X64239599Y-43720526D01*
X64235966Y-43702260D01*
X64221396Y-43680454D01*
X64200520Y-43613778D01*
X64200500Y-43611566D01*
X64200500Y-42661229D01*
X64220185Y-42594190D01*
X64272989Y-42548435D01*
X64342147Y-42538491D01*
X64405703Y-42567516D01*
X64412181Y-42573548D01*
X64529109Y-42690476D01*
X64529115Y-42690481D01*
X64672302Y-42780452D01*
X64672308Y-42780455D01*
X64672310Y-42780456D01*
X64708085Y-42792974D01*
X64831943Y-42836314D01*
X64889382Y-42842785D01*
X64953796Y-42869850D01*
X64993352Y-42927445D01*
X64999500Y-42966005D01*
X64999500Y-43611566D01*
X64979815Y-43678605D01*
X64978603Y-43680456D01*
X64964033Y-43702261D01*
X64949500Y-43775323D01*
X64949500Y-44824678D01*
X64964032Y-44897735D01*
X64964033Y-44897739D01*
X64964034Y-44897740D01*
X64979102Y-44920292D01*
X64999980Y-44986967D01*
X65000000Y-44989181D01*
X65000000Y-45300000D01*
X65047828Y-45300000D01*
X65047844Y-45299999D01*
X65107372Y-45293598D01*
X65107379Y-45293596D01*
X65242086Y-45243354D01*
X65242093Y-45243350D01*
X65357185Y-45157191D01*
X65357190Y-45157186D01*
X65399859Y-45100189D01*
X65455793Y-45058318D01*
X65499126Y-45050500D01*
X65524674Y-45050500D01*
X65575811Y-45040328D01*
X65624189Y-45040328D01*
X65675326Y-45050500D01*
X66024674Y-45050500D01*
X66075811Y-45040328D01*
X66124189Y-45040328D01*
X66175326Y-45050500D01*
X66524674Y-45050500D01*
X66575811Y-45040328D01*
X66624189Y-45040328D01*
X66675326Y-45050500D01*
X67024674Y-45050500D01*
X67075811Y-45040328D01*
X67124189Y-45040328D01*
X67175326Y-45050500D01*
X67524676Y-45050500D01*
X67524677Y-45050499D01*
X67597740Y-45035966D01*
X67680601Y-44980601D01*
X67735966Y-44897740D01*
X67750500Y-44824674D01*
X67750500Y-43775326D01*
X67750500Y-43775323D01*
X67739599Y-43720526D01*
X67735966Y-43702260D01*
X67721396Y-43680454D01*
X67700520Y-43613778D01*
X67700500Y-43611566D01*
X67700500Y-43571544D01*
X67720185Y-43504505D01*
X67736819Y-43483863D01*
X68533863Y-42686819D01*
X68595186Y-42653334D01*
X68621544Y-42650500D01*
X70203456Y-42650500D01*
X70270495Y-42670185D01*
X70291137Y-42686819D01*
X70293514Y-42689196D01*
X70293515Y-42689196D01*
X70293517Y-42689198D01*
X70398607Y-42740573D01*
X70432673Y-42745536D01*
X70466739Y-42750500D01*
X70466740Y-42750500D01*
X70793255Y-42750500D01*
X70793260Y-42750500D01*
X70861393Y-42740573D01*
X70895539Y-42723879D01*
X70964410Y-42712119D01*
X71004459Y-42723878D01*
X71038607Y-42740573D01*
X71106740Y-42750500D01*
X71106745Y-42750500D01*
X71433261Y-42750500D01*
X71455971Y-42747191D01*
X71501393Y-42740573D01*
X71606483Y-42689198D01*
X71606485Y-42689196D01*
X71608863Y-42686819D01*
X71612914Y-42684606D01*
X71614847Y-42683227D01*
X71615013Y-42683460D01*
X71670186Y-42653334D01*
X71696544Y-42650500D01*
X72421142Y-42650500D01*
X72421144Y-42650500D01*
X72510288Y-42626614D01*
X72590212Y-42580470D01*
X73833862Y-41336818D01*
X73895185Y-41303334D01*
X73921543Y-41300500D01*
X79036142Y-41300500D01*
X79036144Y-41300500D01*
X79125288Y-41276614D01*
X79126632Y-41275838D01*
X79205212Y-41230470D01*
X80033862Y-40401818D01*
X80095185Y-40368334D01*
X80121543Y-40365500D01*
X88583462Y-40365500D01*
X88650501Y-40385185D01*
X88686563Y-40420608D01*
X88711133Y-40457380D01*
X88734375Y-40492164D01*
X88852835Y-40610624D01*
X88852838Y-40610626D01*
X88904901Y-40645414D01*
X88949707Y-40699025D01*
X88958414Y-40768350D01*
X88928260Y-40831378D01*
X88875016Y-40866222D01*
X88725878Y-40915642D01*
X88725875Y-40915643D01*
X88576654Y-41007684D01*
X88452684Y-41131654D01*
X88360643Y-41280875D01*
X88360641Y-41280880D01*
X88305494Y-41447302D01*
X88305493Y-41447309D01*
X88295000Y-41550013D01*
X88295000Y-41700000D01*
X89389670Y-41700000D01*
X89369925Y-41719745D01*
X89320556Y-41805255D01*
X89295000Y-41900630D01*
X89295000Y-41999370D01*
X89320556Y-42094745D01*
X89369925Y-42180255D01*
X89389670Y-42200000D01*
X88295001Y-42200000D01*
X88295001Y-42349986D01*
X88305494Y-42452697D01*
X88360641Y-42619119D01*
X88360643Y-42619124D01*
X88452684Y-42768345D01*
X88576654Y-42892315D01*
X88725875Y-42984356D01*
X88725880Y-42984358D01*
X88892302Y-43039505D01*
X88892309Y-43039506D01*
X88995019Y-43049999D01*
X89419999Y-43049999D01*
X89420000Y-43049998D01*
X89420000Y-42230330D01*
X89439745Y-42250075D01*
X89525255Y-42299444D01*
X89620630Y-42325000D01*
X89719370Y-42325000D01*
X89814745Y-42299444D01*
X89900255Y-42250075D01*
X89920000Y-42230330D01*
X89920000Y-43049999D01*
X90344972Y-43049999D01*
X90344986Y-43049998D01*
X90447697Y-43039505D01*
X90614119Y-42984358D01*
X90614124Y-42984356D01*
X90763345Y-42892315D01*
X90887315Y-42768345D01*
X90979356Y-42619124D01*
X90979358Y-42619119D01*
X91034505Y-42452697D01*
X91034506Y-42452690D01*
X91044999Y-42349986D01*
X91045000Y-42349973D01*
X91045000Y-42200000D01*
X89950330Y-42200000D01*
X89970075Y-42180255D01*
X90019444Y-42094745D01*
X90045000Y-41999370D01*
X90045000Y-41900630D01*
X90019444Y-41805255D01*
X89970075Y-41719745D01*
X89950330Y-41700000D01*
X91044999Y-41700000D01*
X91044999Y-41550028D01*
X91044998Y-41550013D01*
X91034505Y-41447302D01*
X90979358Y-41280880D01*
X90979356Y-41280875D01*
X90887315Y-41131654D01*
X90763345Y-41007684D01*
X90614124Y-40915643D01*
X90614119Y-40915641D01*
X90464983Y-40866223D01*
X90407538Y-40826451D01*
X90380715Y-40761935D01*
X90393030Y-40693159D01*
X90435095Y-40645416D01*
X90487162Y-40610626D01*
X90605626Y-40492162D01*
X90698703Y-40352863D01*
X90762816Y-40198082D01*
X90795500Y-40033767D01*
X90795500Y-39866233D01*
X90762816Y-39701918D01*
X90706708Y-39566463D01*
X90698704Y-39547139D01*
X90693659Y-39539589D01*
X90650595Y-39475139D01*
X90605626Y-39407837D01*
X90487162Y-39289373D01*
X90347860Y-39196295D01*
X90193082Y-39132184D01*
X90193074Y-39132182D01*
X90028771Y-39099500D01*
X90028767Y-39099500D01*
X89311233Y-39099500D01*
X89311228Y-39099500D01*
X89146925Y-39132182D01*
X89146917Y-39132184D01*
X88992139Y-39196295D01*
X88852837Y-39289373D01*
X88852834Y-39289376D01*
X88764030Y-39378181D01*
X88702707Y-39411666D01*
X88676349Y-39414500D01*
X80298321Y-39414500D01*
X80231282Y-39394815D01*
X80210640Y-39378181D01*
X78761819Y-37929360D01*
X78728334Y-37868037D01*
X78725500Y-37841679D01*
X78725500Y-32497306D01*
X78745185Y-32430267D01*
X78797989Y-32384512D01*
X78867147Y-32374568D01*
X78896948Y-32382743D01*
X79024764Y-32435687D01*
X79099882Y-32445576D01*
X79174999Y-32455466D01*
X79175000Y-32455466D01*
X79175001Y-32455466D01*
X79236275Y-32447399D01*
X79325236Y-32435687D01*
X79465233Y-32377698D01*
X79585451Y-32285451D01*
X79677698Y-32165233D01*
X79735687Y-32025236D01*
X79738061Y-32007201D01*
X79766327Y-31943305D01*
X79792129Y-31926285D01*
X79782028Y-31919793D01*
X79753004Y-31856237D01*
X79752816Y-31854874D01*
X79735687Y-31724764D01*
X79677698Y-31584767D01*
X79676120Y-31582711D01*
X79675330Y-31580666D01*
X79673636Y-31577732D01*
X79674093Y-31577467D01*
X79650930Y-31517542D01*
X79650500Y-31507229D01*
X79650500Y-31449908D01*
X79670185Y-31382869D01*
X79722989Y-31337114D01*
X79774500Y-31325908D01*
X80106940Y-31325908D01*
X80173979Y-31345593D01*
X80219734Y-31398397D01*
X80229678Y-31467555D01*
X80200653Y-31531111D01*
X80191435Y-31540664D01*
X80099722Y-31626049D01*
X80099721Y-31626051D01*
X80026370Y-31749672D01*
X80023445Y-31756732D01*
X80005455Y-31807727D01*
X79998480Y-31856241D01*
X79969454Y-31919796D01*
X79944926Y-31935558D01*
X79953740Y-31941075D01*
X79983519Y-32004280D01*
X79985000Y-32023387D01*
X79985000Y-32200002D01*
X79987894Y-32253990D01*
X79997969Y-32293463D01*
X80000559Y-32341775D01*
X79985000Y-32449996D01*
X79985000Y-32700002D01*
X79987893Y-32753988D01*
X80023442Y-32893259D01*
X80026371Y-32900330D01*
X80078106Y-32995076D01*
X80176049Y-33100277D01*
X80176051Y-33100278D01*
X80299672Y-33173629D01*
X80306732Y-33176554D01*
X80357727Y-33194544D01*
X80408340Y-33201821D01*
X80471895Y-33230846D01*
X80509670Y-33289624D01*
X80510840Y-33293889D01*
X80523441Y-33343256D01*
X80523444Y-33343264D01*
X80526371Y-33350330D01*
X80578106Y-33445077D01*
X80649589Y-33521857D01*
X80675157Y-33522314D01*
X80679131Y-33520144D01*
X80748823Y-33525122D01*
X80804760Y-33566988D01*
X80829183Y-33632451D01*
X80829500Y-33641308D01*
X80829500Y-34043181D01*
X80846059Y-34126433D01*
X80839830Y-34196025D01*
X80796966Y-34251201D01*
X80731076Y-34274444D01*
X80722747Y-34274367D01*
X80722747Y-34274500D01*
X80391739Y-34274500D01*
X80323608Y-34284426D01*
X80218514Y-34335803D01*
X80135803Y-34418514D01*
X80084426Y-34523608D01*
X80074500Y-34591739D01*
X80074500Y-34858260D01*
X80084426Y-34926391D01*
X80084427Y-34926393D01*
X80124199Y-35007749D01*
X80128330Y-35016198D01*
X80140089Y-35085071D01*
X80115305Y-35146143D01*
X80077264Y-35195719D01*
X80047300Y-35234769D01*
X79989313Y-35374763D01*
X79989312Y-35374765D01*
X79969534Y-35524999D01*
X79969534Y-35525000D01*
X79989312Y-35675234D01*
X79989313Y-35675236D01*
X80047151Y-35814870D01*
X80047302Y-35815233D01*
X80139549Y-35935451D01*
X80259767Y-36027698D01*
X80399764Y-36085687D01*
X80474882Y-36095576D01*
X80549999Y-36105466D01*
X80550000Y-36105466D01*
X80550001Y-36105466D01*
X80600078Y-36098873D01*
X80700236Y-36085687D01*
X80840233Y-36027698D01*
X80960451Y-35935451D01*
X81052698Y-35815233D01*
X81110687Y-35675236D01*
X81130466Y-35525000D01*
X81129826Y-35520142D01*
X81116769Y-35420959D01*
X81110687Y-35374764D01*
X81099166Y-35346952D01*
X81091698Y-35277483D01*
X81122973Y-35215004D01*
X81183062Y-35179352D01*
X81213728Y-35175500D01*
X81358261Y-35175500D01*
X81385871Y-35171477D01*
X81426393Y-35165573D01*
X81531483Y-35114198D01*
X81531486Y-35114195D01*
X81539847Y-35108227D01*
X81542129Y-35111424D01*
X81586041Y-35087399D01*
X81655737Y-35092325D01*
X81683683Y-35110285D01*
X81685153Y-35108227D01*
X81693513Y-35114195D01*
X81693514Y-35114195D01*
X81693517Y-35114198D01*
X81798607Y-35165573D01*
X81832673Y-35170536D01*
X81866739Y-35175500D01*
X81991515Y-35175500D01*
X82058554Y-35195185D01*
X82089891Y-35224013D01*
X82112075Y-35252924D01*
X82237413Y-35349100D01*
X82383365Y-35409554D01*
X82383369Y-35409555D01*
X82470000Y-35420961D01*
X82470000Y-35420959D01*
X82870000Y-35420959D01*
X82870001Y-35420960D01*
X82956627Y-35409557D01*
X82956633Y-35409555D01*
X83102585Y-35349100D01*
X83227924Y-35252924D01*
X83324100Y-35127586D01*
X83384555Y-34981631D01*
X83392012Y-34925000D01*
X82870000Y-34925000D01*
X82870000Y-35420959D01*
X82470000Y-35420959D01*
X82470000Y-35017617D01*
X82482598Y-34963159D01*
X82500573Y-34926393D01*
X82510500Y-34858260D01*
X82510500Y-34649000D01*
X82530185Y-34581961D01*
X82582989Y-34536206D01*
X82634500Y-34525000D01*
X83392010Y-34525000D01*
X83392011Y-34524998D01*
X83384557Y-34468372D01*
X83384556Y-34468369D01*
X83375238Y-34445873D01*
X83367769Y-34376404D01*
X83399044Y-34313924D01*
X83459133Y-34278272D01*
X83489799Y-34274420D01*
X83973679Y-34274420D01*
X83973681Y-34274420D01*
X84094616Y-34242015D01*
X84203044Y-34179415D01*
X84696176Y-33686281D01*
X84757497Y-33652798D01*
X84767676Y-33651024D01*
X84767718Y-33651018D01*
X84770236Y-33650687D01*
X84910233Y-33592698D01*
X85030451Y-33500451D01*
X85122698Y-33380233D01*
X85180687Y-33240236D01*
X85181024Y-33237676D01*
X85181908Y-33235675D01*
X85182792Y-33232380D01*
X85183305Y-33232517D01*
X85209287Y-33173778D01*
X85216270Y-33166187D01*
X85580495Y-32801964D01*
X85643095Y-32693536D01*
X85675500Y-32572601D01*
X85675500Y-32447399D01*
X85675500Y-32097771D01*
X85695185Y-32030732D01*
X85701126Y-32022283D01*
X85702697Y-32020235D01*
X85702697Y-32020234D01*
X85702696Y-32020234D01*
X85702698Y-32020233D01*
X85760687Y-31880236D01*
X85780466Y-31730000D01*
X85779977Y-31726289D01*
X85761075Y-31582712D01*
X85760687Y-31579764D01*
X85702698Y-31439767D01*
X85701120Y-31437711D01*
X85700330Y-31435666D01*
X85698636Y-31432732D01*
X85699093Y-31432467D01*
X85675930Y-31372542D01*
X85675500Y-31362229D01*
X85675500Y-31066974D01*
X85695185Y-30999935D01*
X85747989Y-30954180D01*
X85775135Y-30946734D01*
X85774932Y-30945874D01*
X85782479Y-30944090D01*
X85782481Y-30944089D01*
X85782483Y-30944089D01*
X85917331Y-30893794D01*
X86032546Y-30807544D01*
X86118796Y-30692329D01*
X86169091Y-30557481D01*
X86175500Y-30497871D01*
X86175499Y-29902126D01*
X86169091Y-29842515D01*
X86164871Y-29831201D01*
X86118797Y-29707669D01*
X86118793Y-29707662D01*
X86032547Y-29592453D01*
X86032544Y-29592450D01*
X85917335Y-29506204D01*
X85917323Y-29506198D01*
X85897532Y-29498816D01*
X85841598Y-29456945D01*
X85817182Y-29391480D01*
X85832034Y-29323207D01*
X85881440Y-29273802D01*
X85901863Y-29264929D01*
X85994117Y-29234359D01*
X85994124Y-29234356D01*
X86143345Y-29142315D01*
X86267315Y-29018345D01*
X86359356Y-28869124D01*
X86359358Y-28869119D01*
X86414505Y-28702697D01*
X86414506Y-28702690D01*
X86424999Y-28599986D01*
X86425000Y-28599973D01*
X86425000Y-28550000D01*
X85074000Y-28550000D01*
X85006961Y-28530315D01*
X84961206Y-28477511D01*
X84950000Y-28426000D01*
X84950000Y-28050000D01*
X85450000Y-28050000D01*
X86424999Y-28050000D01*
X86424999Y-28000028D01*
X86424998Y-28000013D01*
X86414505Y-27897302D01*
X86359358Y-27730880D01*
X86359356Y-27730875D01*
X86267315Y-27581654D01*
X86143345Y-27457684D01*
X85994124Y-27365643D01*
X85994119Y-27365641D01*
X85827697Y-27310494D01*
X85827690Y-27310493D01*
X85724986Y-27300000D01*
X85450000Y-27300000D01*
X85450000Y-28050000D01*
X84950000Y-28050000D01*
X84950000Y-27300000D01*
X84675029Y-27300000D01*
X84675012Y-27300001D01*
X84572302Y-27310494D01*
X84405880Y-27365641D01*
X84405875Y-27365643D01*
X84256654Y-27457684D01*
X84132683Y-27581655D01*
X84117629Y-27606061D01*
X84065680Y-27652784D01*
X83996717Y-27664004D01*
X83937781Y-27640228D01*
X83931370Y-27635429D01*
X83892331Y-27606204D01*
X83892330Y-27606203D01*
X83892328Y-27606202D01*
X83757482Y-27555908D01*
X83757483Y-27555908D01*
X83697883Y-27549501D01*
X83697881Y-27549500D01*
X83697873Y-27549500D01*
X83697864Y-27549500D01*
X82852129Y-27549500D01*
X82852123Y-27549501D01*
X82792516Y-27555908D01*
X82657671Y-27606202D01*
X82657664Y-27606206D01*
X82542455Y-27692452D01*
X82542452Y-27692455D01*
X82456206Y-27807664D01*
X82456202Y-27807671D01*
X82405908Y-27942517D01*
X82399501Y-28002116D01*
X82399501Y-28002123D01*
X82399500Y-28002135D01*
X82399500Y-29797870D01*
X82399501Y-29797876D01*
X82405908Y-29857483D01*
X82424185Y-29906484D01*
X82429169Y-29976176D01*
X82415390Y-30011817D01*
X82385839Y-30063001D01*
X82335272Y-30111217D01*
X82278452Y-30125001D01*
X82118579Y-30125001D01*
X82051540Y-30105316D01*
X82011187Y-30062992D01*
X82008860Y-30058961D01*
X81983444Y-30014939D01*
X81966971Y-29947043D01*
X81974650Y-29909606D01*
X81975815Y-29906484D01*
X81994091Y-29857483D01*
X82000500Y-29797873D01*
X82000499Y-28002128D01*
X81994091Y-27942517D01*
X81989596Y-27930466D01*
X81943797Y-27807671D01*
X81943793Y-27807664D01*
X81857547Y-27692455D01*
X81857544Y-27692452D01*
X81742335Y-27606206D01*
X81742328Y-27606202D01*
X81607482Y-27555908D01*
X81607483Y-27555908D01*
X81547883Y-27549501D01*
X81547881Y-27549500D01*
X81547873Y-27549500D01*
X81547864Y-27549500D01*
X80702129Y-27549500D01*
X80702123Y-27549501D01*
X80642516Y-27555908D01*
X80507671Y-27606202D01*
X80507664Y-27606206D01*
X80392455Y-27692452D01*
X80322232Y-27786256D01*
X80266297Y-27828127D01*
X80196605Y-27833110D01*
X80135285Y-27799625D01*
X80118345Y-27782685D01*
X79969124Y-27690644D01*
X79969119Y-27690642D01*
X79802697Y-27635495D01*
X79802690Y-27635494D01*
X79699986Y-27625001D01*
X79496819Y-27625001D01*
X79429780Y-27605316D01*
X79384025Y-27552512D01*
X79374081Y-27483354D01*
X79403106Y-27419798D01*
X79409138Y-27413320D01*
X79535640Y-27286818D01*
X79596963Y-27253333D01*
X79623321Y-27250499D01*
X79797872Y-27250499D01*
X79797873Y-27250499D01*
X79857484Y-27244091D01*
X79992332Y-27193796D01*
X80107547Y-27107546D01*
X80193797Y-26992331D01*
X80244092Y-26857483D01*
X80250501Y-26797873D01*
X80250500Y-26202128D01*
X80250500Y-26202127D01*
X81249499Y-26202127D01*
X81249499Y-26202134D01*
X81249499Y-26202135D01*
X81249499Y-26797870D01*
X81249500Y-26797876D01*
X81255907Y-26857483D01*
X81306201Y-26992328D01*
X81306205Y-26992335D01*
X81392451Y-27107544D01*
X81392454Y-27107547D01*
X81507663Y-27193793D01*
X81507670Y-27193797D01*
X81552617Y-27210561D01*
X81642516Y-27244091D01*
X81702126Y-27250500D01*
X82297871Y-27250499D01*
X82357482Y-27244091D01*
X82492330Y-27193796D01*
X82607545Y-27107546D01*
X82669198Y-27025188D01*
X82725131Y-26983318D01*
X82768464Y-26975500D01*
X82982230Y-26975500D01*
X83049269Y-26995185D01*
X83057718Y-27001126D01*
X83059767Y-27002698D01*
X83199764Y-27060687D01*
X83274882Y-27070576D01*
X83349999Y-27080466D01*
X83350000Y-27080466D01*
X83350001Y-27080466D01*
X83400078Y-27073873D01*
X83500236Y-27060687D01*
X83640233Y-27002698D01*
X83760451Y-26910451D01*
X83852698Y-26790233D01*
X83910687Y-26650236D01*
X83930466Y-26500000D01*
X83910687Y-26349764D01*
X83852698Y-26209767D01*
X83760451Y-26089549D01*
X83640233Y-25997302D01*
X83640229Y-25997300D01*
X83500236Y-25939313D01*
X83500234Y-25939312D01*
X83350001Y-25919534D01*
X83349999Y-25919534D01*
X83199765Y-25939312D01*
X83199763Y-25939313D01*
X83059769Y-25997300D01*
X83059765Y-25997303D01*
X83057718Y-25998874D01*
X83055679Y-25999662D01*
X83052732Y-26001364D01*
X83052466Y-26000904D01*
X82992550Y-26024070D01*
X82982230Y-26024500D01*
X82768464Y-26024500D01*
X82701425Y-26004815D01*
X82669197Y-25974811D01*
X82607545Y-25892454D01*
X82566697Y-25861875D01*
X82492334Y-25806206D01*
X82492327Y-25806202D01*
X82357485Y-25755910D01*
X82357484Y-25755909D01*
X82357482Y-25755909D01*
X82297872Y-25749500D01*
X82297862Y-25749500D01*
X81702128Y-25749500D01*
X81702122Y-25749501D01*
X81642515Y-25755908D01*
X81507670Y-25806202D01*
X81507663Y-25806206D01*
X81392454Y-25892452D01*
X81392451Y-25892455D01*
X81306205Y-26007664D01*
X81306201Y-26007671D01*
X81261645Y-26127135D01*
X81255908Y-26142517D01*
X81249499Y-26202127D01*
X80250500Y-26202127D01*
X80244092Y-26142517D01*
X80238352Y-26127128D01*
X80193798Y-26007671D01*
X80193794Y-26007664D01*
X80107548Y-25892455D01*
X80107545Y-25892452D01*
X79992336Y-25806206D01*
X79992329Y-25806202D01*
X79857487Y-25755910D01*
X79857486Y-25755909D01*
X79857484Y-25755909D01*
X79797874Y-25749500D01*
X79797864Y-25749500D01*
X79202130Y-25749500D01*
X79202124Y-25749501D01*
X79142517Y-25755908D01*
X79007672Y-25806202D01*
X79007665Y-25806206D01*
X78892456Y-25892452D01*
X78819192Y-25990320D01*
X78763258Y-26032190D01*
X78693566Y-26037174D01*
X78632244Y-26003688D01*
X78603744Y-25959340D01*
X78593798Y-25932673D01*
X78593793Y-25932664D01*
X78507547Y-25817455D01*
X78507544Y-25817452D01*
X78392335Y-25731206D01*
X78392328Y-25731202D01*
X78257482Y-25680908D01*
X78257483Y-25680908D01*
X78197883Y-25674501D01*
X78197881Y-25674500D01*
X78197873Y-25674500D01*
X78197864Y-25674500D01*
X77202129Y-25674500D01*
X77202123Y-25674501D01*
X77142516Y-25680908D01*
X77007671Y-25731202D01*
X77007664Y-25731206D01*
X76892455Y-25817452D01*
X76892452Y-25817455D01*
X76806206Y-25932664D01*
X76806202Y-25932671D01*
X76755908Y-26067517D01*
X76749501Y-26127116D01*
X76749500Y-26127135D01*
X76749500Y-27072870D01*
X76749501Y-27072876D01*
X76755908Y-27132483D01*
X76806202Y-27267328D01*
X76806206Y-27267335D01*
X76892452Y-27382544D01*
X76892455Y-27382547D01*
X77007664Y-27468793D01*
X77007671Y-27468797D01*
X77142517Y-27519091D01*
X77142516Y-27519091D01*
X77149444Y-27519835D01*
X77202127Y-27525500D01*
X78166922Y-27525499D01*
X78233961Y-27545183D01*
X78279716Y-27597987D01*
X78281481Y-27602041D01*
X78290529Y-27623882D01*
X78298001Y-27693351D01*
X78266729Y-27755832D01*
X78241070Y-27776876D01*
X78231661Y-27782679D01*
X78231655Y-27782684D01*
X78107684Y-27906655D01*
X78015643Y-28055876D01*
X78015641Y-28055881D01*
X77960494Y-28222303D01*
X77960493Y-28222310D01*
X77950000Y-28325014D01*
X77950000Y-28375001D01*
X79301000Y-28375001D01*
X79368039Y-28394686D01*
X79413794Y-28447490D01*
X79425000Y-28499001D01*
X79425000Y-28751001D01*
X79405315Y-28818040D01*
X79352511Y-28863795D01*
X79301000Y-28875001D01*
X77950001Y-28875001D01*
X77950001Y-28924987D01*
X77960494Y-29027698D01*
X78015641Y-29194120D01*
X78015643Y-29194125D01*
X78107684Y-29343346D01*
X78231654Y-29467316D01*
X78380875Y-29559357D01*
X78380880Y-29559359D01*
X78473137Y-29589930D01*
X78530582Y-29629702D01*
X78557405Y-29694218D01*
X78545090Y-29762994D01*
X78497547Y-29814194D01*
X78477469Y-29823817D01*
X78457672Y-29831201D01*
X78457664Y-29831205D01*
X78342455Y-29917451D01*
X78342452Y-29917454D01*
X78256206Y-30032663D01*
X78256201Y-30032672D01*
X78233391Y-30093832D01*
X78191520Y-30149766D01*
X78126056Y-30174184D01*
X78117209Y-30174500D01*
X77299499Y-30174500D01*
X77232460Y-30154815D01*
X77186705Y-30102011D01*
X77175499Y-30050500D01*
X77175499Y-29603857D01*
X77175499Y-29603855D01*
X77151613Y-29514711D01*
X77141006Y-29496339D01*
X77105469Y-29434787D01*
X76715212Y-29044530D01*
X76715210Y-29044529D01*
X76708761Y-29039580D01*
X76709885Y-29038114D01*
X76668756Y-28994973D01*
X76655537Y-28926365D01*
X76664414Y-28890706D01*
X76686297Y-28837876D01*
X76697702Y-28751248D01*
X76294360Y-28751248D01*
X76239901Y-28738649D01*
X76225406Y-28731563D01*
X76203134Y-28720675D01*
X76203132Y-28720674D01*
X76203129Y-28720673D01*
X76135002Y-28710748D01*
X76135001Y-28710748D01*
X75868481Y-28710748D01*
X75868480Y-28710748D01*
X75800352Y-28720673D01*
X75800346Y-28720676D01*
X75763581Y-28738649D01*
X75709122Y-28751248D01*
X75492702Y-28751248D01*
X75425663Y-28731563D01*
X75414684Y-28722716D01*
X75414645Y-28722769D01*
X75327033Y-28657183D01*
X75292330Y-28631204D01*
X75292328Y-28631203D01*
X75292327Y-28631202D01*
X75157485Y-28580910D01*
X75157484Y-28580909D01*
X75157482Y-28580909D01*
X75097872Y-28574500D01*
X75097862Y-28574500D01*
X74502128Y-28574500D01*
X74502122Y-28574501D01*
X74442515Y-28580908D01*
X74307670Y-28631202D01*
X74307663Y-28631206D01*
X74192454Y-28717452D01*
X74192451Y-28717455D01*
X74106205Y-28832664D01*
X74106201Y-28832671D01*
X74055909Y-28967513D01*
X74055908Y-28967517D01*
X74049499Y-29027127D01*
X74049499Y-29027134D01*
X74049499Y-29027135D01*
X74049499Y-29622870D01*
X74049500Y-29622876D01*
X74055907Y-29682483D01*
X74106201Y-29817328D01*
X74106205Y-29817335D01*
X74192451Y-29932544D01*
X74192454Y-29932547D01*
X74307663Y-30018793D01*
X74307670Y-30018797D01*
X74348207Y-30033916D01*
X74442516Y-30069091D01*
X74502126Y-30075500D01*
X74637944Y-30075499D01*
X74704982Y-30095183D01*
X74750737Y-30147987D01*
X74760681Y-30217145D01*
X74736319Y-30274985D01*
X74719139Y-30297374D01*
X74719138Y-30297376D01*
X74663671Y-30431287D01*
X74663670Y-30431290D01*
X74660247Y-30457288D01*
X74631978Y-30521184D01*
X74573652Y-30559653D01*
X74561044Y-30562395D01*
X74556291Y-30563669D01*
X74422377Y-30619137D01*
X74307379Y-30707379D01*
X74219137Y-30822377D01*
X74163671Y-30956287D01*
X74163670Y-30956291D01*
X74144750Y-31099999D01*
X74144750Y-31100000D01*
X74163670Y-31243708D01*
X74163671Y-31243712D01*
X74219137Y-31377622D01*
X74219138Y-31377624D01*
X74219139Y-31377625D01*
X74307379Y-31492621D01*
X74422375Y-31580861D01*
X74422376Y-31580861D01*
X74422377Y-31580862D01*
X74431805Y-31584767D01*
X74556291Y-31636330D01*
X74683280Y-31653048D01*
X74699999Y-31655250D01*
X74700000Y-31655250D01*
X74700001Y-31655250D01*
X74714977Y-31653278D01*
X74843709Y-31636330D01*
X74843717Y-31636326D01*
X74851560Y-31634226D01*
X74852083Y-31636181D01*
X74910712Y-31629867D01*
X74973198Y-31661129D01*
X75008862Y-31721211D01*
X75006382Y-31791037D01*
X75003282Y-31799352D01*
X74950534Y-31926699D01*
X74943078Y-31983329D01*
X75700591Y-31983329D01*
X75767630Y-32003014D01*
X75813385Y-32055818D01*
X75824591Y-32107329D01*
X75824591Y-32259329D01*
X75804906Y-32326368D01*
X75752102Y-32372123D01*
X75700591Y-32383329D01*
X74943081Y-32383329D01*
X74943079Y-32383330D01*
X74950533Y-32439956D01*
X74950534Y-32439959D01*
X74955956Y-32453048D01*
X74963425Y-32522517D01*
X74932150Y-32584997D01*
X74872061Y-32620649D01*
X74841396Y-32624501D01*
X74727130Y-32624501D01*
X74727123Y-32624502D01*
X74667516Y-32630909D01*
X74532671Y-32681203D01*
X74532668Y-32681205D01*
X74411183Y-32772149D01*
X74345719Y-32796566D01*
X74289422Y-32787444D01*
X74278980Y-32783119D01*
X74278978Y-32783118D01*
X74278977Y-32783118D01*
X74241258Y-32778152D01*
X74161629Y-32767668D01*
X74097732Y-32739401D01*
X74066414Y-32699189D01*
X74039198Y-32643517D01*
X74039196Y-32643515D01*
X74039196Y-32643514D01*
X73956485Y-32560803D01*
X73851391Y-32509426D01*
X73783261Y-32499500D01*
X73783260Y-32499500D01*
X73456740Y-32499500D01*
X73456739Y-32499500D01*
X73388607Y-32509426D01*
X73388606Y-32509426D01*
X73354459Y-32526120D01*
X73285586Y-32537878D01*
X73245541Y-32526120D01*
X73211393Y-32509426D01*
X73143261Y-32499500D01*
X73143260Y-32499500D01*
X72816740Y-32499500D01*
X72816739Y-32499500D01*
X72748608Y-32509426D01*
X72643515Y-32560802D01*
X72624679Y-32579639D01*
X72563355Y-32613123D01*
X72493663Y-32608137D01*
X72437730Y-32566265D01*
X72413315Y-32500800D01*
X72412999Y-32491956D01*
X72412999Y-32453407D01*
X72409234Y-32424808D01*
X72406400Y-32403277D01*
X72406397Y-32403270D01*
X72406397Y-32403269D01*
X72355097Y-32293255D01*
X72355093Y-32293249D01*
X72269250Y-32207406D01*
X72269244Y-32207402D01*
X72159229Y-32156102D01*
X72159224Y-32156100D01*
X72159223Y-32156100D01*
X72159220Y-32156099D01*
X72159218Y-32156099D01*
X72109101Y-32149501D01*
X72109096Y-32149500D01*
X72109091Y-32149500D01*
X72109084Y-32149500D01*
X72048657Y-32149500D01*
X71981618Y-32129815D01*
X71950282Y-32100987D01*
X71922596Y-32064907D01*
X71802478Y-31972736D01*
X71662608Y-31914801D01*
X71662603Y-31914800D01*
X71587500Y-31904911D01*
X71587500Y-32281642D01*
X71575882Y-32334047D01*
X71549882Y-32389804D01*
X71503710Y-32442243D01*
X71436516Y-32461395D01*
X71369635Y-32441179D01*
X71325118Y-32389804D01*
X71299118Y-32334047D01*
X71287500Y-32281642D01*
X71287500Y-31904911D01*
X71287499Y-31904911D01*
X71212396Y-31914800D01*
X71212391Y-31914801D01*
X71072521Y-31972736D01*
X70952401Y-32064908D01*
X70924717Y-32100987D01*
X70868289Y-32142190D01*
X70826344Y-32149500D01*
X70765908Y-32149500D01*
X70715780Y-32156099D01*
X70715769Y-32156102D01*
X70605755Y-32207402D01*
X70605749Y-32207406D01*
X70519906Y-32293249D01*
X70519902Y-32293255D01*
X70468602Y-32403270D01*
X70468599Y-32403281D01*
X70462001Y-32453398D01*
X70462000Y-32453415D01*
X70462000Y-32846592D01*
X70468599Y-32896719D01*
X70468602Y-32896730D01*
X70519902Y-33006744D01*
X70519906Y-33006750D01*
X70538181Y-33025025D01*
X70571666Y-33086348D01*
X70574500Y-33112706D01*
X70574500Y-33167853D01*
X70580926Y-33191834D01*
X70596682Y-33250640D01*
X70601920Y-33259712D01*
X70639535Y-33324862D01*
X70889534Y-33574861D01*
X70889535Y-33574862D01*
X70950138Y-33635465D01*
X71012500Y-33671470D01*
X71060715Y-33722035D01*
X71074500Y-33778856D01*
X71074500Y-34283260D01*
X71084426Y-34351391D01*
X71084427Y-34351393D01*
X71125066Y-34434523D01*
X71135803Y-34456485D01*
X71218514Y-34539196D01*
X71218515Y-34539196D01*
X71218517Y-34539198D01*
X71323607Y-34590573D01*
X71339304Y-34592860D01*
X71391739Y-34600500D01*
X71391740Y-34600500D01*
X71658258Y-34600500D01*
X71658260Y-34600500D01*
X71682622Y-34596950D01*
X71751797Y-34606762D01*
X71804688Y-34652416D01*
X71824500Y-34719418D01*
X71824500Y-35230345D01*
X71804815Y-35297384D01*
X71752011Y-35343139D01*
X71682853Y-35353083D01*
X71682722Y-35353064D01*
X71658260Y-35349500D01*
X71391740Y-35349500D01*
X71391739Y-35349500D01*
X71323608Y-35359426D01*
X71218514Y-35410803D01*
X71135803Y-35493514D01*
X71084426Y-35598608D01*
X71074500Y-35666739D01*
X71074500Y-36183260D01*
X71084426Y-36251391D01*
X71135803Y-36356485D01*
X71218514Y-36439196D01*
X71218515Y-36439196D01*
X71218517Y-36439198D01*
X71323607Y-36490573D01*
X71337595Y-36492611D01*
X71391739Y-36500500D01*
X71629456Y-36500500D01*
X71696495Y-36520185D01*
X71742250Y-36572989D01*
X71752194Y-36642147D01*
X71723169Y-36705703D01*
X71717137Y-36712181D01*
X71350181Y-37079137D01*
X71288858Y-37112622D01*
X71219166Y-37107638D01*
X71174819Y-37079137D01*
X70990213Y-36894531D01*
X70990208Y-36894527D01*
X70910290Y-36848387D01*
X70910289Y-36848386D01*
X70910288Y-36848386D01*
X70821144Y-36824500D01*
X70821143Y-36824500D01*
X69799500Y-36824500D01*
X69732461Y-36804815D01*
X69686706Y-36752011D01*
X69675500Y-36700500D01*
X69675500Y-36669654D01*
X69695185Y-36602615D01*
X69747989Y-36556860D01*
X69817144Y-36546916D01*
X69841740Y-36550500D01*
X69841742Y-36550500D01*
X70108261Y-36550500D01*
X70132858Y-36546916D01*
X70176393Y-36540573D01*
X70281483Y-36489198D01*
X70364198Y-36406483D01*
X70415573Y-36301393D01*
X70425500Y-36233260D01*
X70425500Y-35716740D01*
X70425491Y-35716681D01*
X70418862Y-35671180D01*
X70415573Y-35648607D01*
X70364198Y-35543517D01*
X70364196Y-35543515D01*
X70364196Y-35543514D01*
X70356819Y-35536137D01*
X70323334Y-35474814D01*
X70320500Y-35448456D01*
X70320500Y-34926543D01*
X70340185Y-34859504D01*
X70356820Y-34838861D01*
X70389196Y-34806485D01*
X70389198Y-34806483D01*
X70440573Y-34701393D01*
X70450500Y-34633260D01*
X70450500Y-34366740D01*
X70447266Y-34344547D01*
X70443564Y-34319136D01*
X70440573Y-34298607D01*
X70389198Y-34193517D01*
X70389196Y-34193515D01*
X70389196Y-34193514D01*
X70356819Y-34161137D01*
X70323334Y-34099814D01*
X70320500Y-34073456D01*
X70320500Y-33348858D01*
X70320500Y-33348856D01*
X70296614Y-33259712D01*
X70296611Y-33259706D01*
X70250473Y-33179794D01*
X70250470Y-33179791D01*
X70250469Y-33179788D01*
X70185212Y-33114531D01*
X70157691Y-33087010D01*
X70124206Y-33025687D01*
X70129190Y-32955995D01*
X70132986Y-32946934D01*
X70156400Y-32896723D01*
X70163000Y-32846591D01*
X70162999Y-32453410D01*
X70162997Y-32453398D01*
X70159234Y-32424808D01*
X70156400Y-32403277D01*
X70156397Y-32403270D01*
X70156397Y-32403269D01*
X70105097Y-32293255D01*
X70105093Y-32293249D01*
X70019250Y-32207406D01*
X70019244Y-32207402D01*
X69909229Y-32156102D01*
X69909224Y-32156100D01*
X69909223Y-32156100D01*
X69909220Y-32156099D01*
X69909218Y-32156099D01*
X69859101Y-32149501D01*
X69859096Y-32149500D01*
X69859091Y-32149500D01*
X69859084Y-32149500D01*
X69798657Y-32149500D01*
X69731618Y-32129815D01*
X69700282Y-32100987D01*
X69672596Y-32064907D01*
X69552478Y-31972736D01*
X69412608Y-31914801D01*
X69412603Y-31914800D01*
X69337500Y-31904911D01*
X69337500Y-32281642D01*
X69325882Y-32334047D01*
X69299882Y-32389804D01*
X69253710Y-32442243D01*
X69186516Y-32461395D01*
X69119635Y-32441179D01*
X69075118Y-32389804D01*
X69049118Y-32334047D01*
X69037500Y-32281642D01*
X69037500Y-31904911D01*
X69037499Y-31904911D01*
X68962396Y-31914800D01*
X68962391Y-31914801D01*
X68822521Y-31972736D01*
X68702401Y-32064908D01*
X68674717Y-32100987D01*
X68618289Y-32142190D01*
X68576344Y-32149500D01*
X68515908Y-32149500D01*
X68465780Y-32156099D01*
X68465769Y-32156102D01*
X68355755Y-32207402D01*
X68355749Y-32207406D01*
X68269906Y-32293249D01*
X68269902Y-32293255D01*
X68218602Y-32403270D01*
X68218599Y-32403281D01*
X68212001Y-32453398D01*
X68212000Y-32453415D01*
X68212000Y-32846596D01*
X68212190Y-32849480D01*
X68212456Y-32857591D01*
X68212456Y-33212473D01*
X68192771Y-33279512D01*
X68142917Y-33323873D01*
X68118516Y-33335802D01*
X68118515Y-33335802D01*
X68095931Y-33358387D01*
X68034608Y-33391872D01*
X67964916Y-33386888D01*
X67908983Y-33345016D01*
X67884566Y-33279552D01*
X67884250Y-33270706D01*
X67884250Y-32944907D01*
X67892812Y-32906284D01*
X67891246Y-32905828D01*
X67893898Y-32896726D01*
X67893900Y-32896723D01*
X67900500Y-32846591D01*
X67900499Y-32453410D01*
X67900497Y-32453398D01*
X67896734Y-32424808D01*
X67893900Y-32403277D01*
X67893897Y-32403270D01*
X67893897Y-32403269D01*
X67842597Y-32293255D01*
X67842593Y-32293249D01*
X67756750Y-32207406D01*
X67756744Y-32207402D01*
X67646729Y-32156102D01*
X67646724Y-32156100D01*
X67646723Y-32156100D01*
X67646720Y-32156099D01*
X67646718Y-32156099D01*
X67596601Y-32149501D01*
X67596596Y-32149500D01*
X67596591Y-32149500D01*
X67596584Y-32149500D01*
X67536157Y-32149500D01*
X67469118Y-32129815D01*
X67437782Y-32100987D01*
X67410095Y-32064905D01*
X67386699Y-32046953D01*
X67345496Y-31990525D01*
X67341341Y-31920779D01*
X67363809Y-31873091D01*
X67412566Y-31809551D01*
X67468035Y-31675635D01*
X67483531Y-31557931D01*
X67511798Y-31494035D01*
X67570122Y-31455564D01*
X67592619Y-31451437D01*
X67592566Y-31451029D01*
X67613093Y-31448326D01*
X67646723Y-31443900D01*
X67646728Y-31443897D01*
X67646730Y-31443897D01*
X67756744Y-31392597D01*
X67756745Y-31392596D01*
X67756750Y-31392594D01*
X67842594Y-31306750D01*
X67857167Y-31275499D01*
X67871991Y-31243708D01*
X67893900Y-31196723D01*
X67900500Y-31146591D01*
X67900499Y-30753410D01*
X67900497Y-30753398D01*
X67894440Y-30707379D01*
X67893900Y-30703277D01*
X67893897Y-30703270D01*
X67891245Y-30694168D01*
X67892810Y-30693711D01*
X67884250Y-30655092D01*
X67884250Y-29881977D01*
X67884250Y-29881976D01*
X67862738Y-29801695D01*
X67855508Y-29774710D01*
X67815546Y-29705495D01*
X67799984Y-29678540D01*
X67726342Y-29604898D01*
X67692857Y-29543575D01*
X67697841Y-29473883D01*
X67734044Y-29425521D01*
X67732759Y-29424055D01*
X67739699Y-29417968D01*
X67739713Y-29417950D01*
X67739725Y-29417945D01*
X67775000Y-29387010D01*
X67775000Y-28629500D01*
X67794685Y-28562461D01*
X67847489Y-28516706D01*
X67899000Y-28505500D01*
X68051000Y-28505500D01*
X68118039Y-28525185D01*
X68163794Y-28577989D01*
X68175000Y-28629500D01*
X68175000Y-28969780D01*
X68165562Y-29017228D01*
X68161463Y-29027127D01*
X68152069Y-29049804D01*
X68133150Y-29193511D01*
X68133150Y-29193512D01*
X68152070Y-29337220D01*
X68152071Y-29337224D01*
X68207538Y-29471135D01*
X68207539Y-29471138D01*
X68273875Y-29557587D01*
X68299070Y-29622756D01*
X68299500Y-29633074D01*
X68299500Y-30512294D01*
X68279815Y-30579333D01*
X68275890Y-30584203D01*
X68276126Y-30584368D01*
X68269902Y-30593255D01*
X68218602Y-30703270D01*
X68218599Y-30703281D01*
X68212001Y-30753398D01*
X68212000Y-30753415D01*
X68212000Y-31146592D01*
X68218599Y-31196719D01*
X68218602Y-31196730D01*
X68269902Y-31306744D01*
X68269906Y-31306750D01*
X68355750Y-31392594D01*
X68355751Y-31392594D01*
X68355755Y-31392597D01*
X68465770Y-31443897D01*
X68465771Y-31443897D01*
X68465777Y-31443900D01*
X68515909Y-31450500D01*
X68784090Y-31450499D01*
X68784092Y-31450499D01*
X68800801Y-31448299D01*
X68834223Y-31443900D01*
X68877800Y-31423579D01*
X68946874Y-31413087D01*
X68982601Y-31423576D01*
X69026955Y-31444259D01*
X69074361Y-31450500D01*
X69300638Y-31450499D01*
X69348045Y-31444259D01*
X69392391Y-31423579D01*
X69461466Y-31413088D01*
X69497200Y-31423580D01*
X69540775Y-31443899D01*
X69540776Y-31443900D01*
X69550430Y-31445170D01*
X69590909Y-31450500D01*
X69859090Y-31450499D01*
X69859092Y-31450499D01*
X69875801Y-31448299D01*
X69909223Y-31443900D01*
X69909228Y-31443897D01*
X69909230Y-31443897D01*
X70019244Y-31392597D01*
X70019245Y-31392596D01*
X70019250Y-31392594D01*
X70105094Y-31306750D01*
X70119667Y-31275499D01*
X70134491Y-31243708D01*
X70156400Y-31196723D01*
X70163000Y-31146591D01*
X70162999Y-30753410D01*
X70162997Y-30753398D01*
X70156940Y-30707379D01*
X70156400Y-30703277D01*
X70156397Y-30703270D01*
X70156397Y-30703269D01*
X70105097Y-30593255D01*
X70105094Y-30593252D01*
X70105094Y-30593250D01*
X70105092Y-30593248D01*
X70098874Y-30584368D01*
X70102073Y-30582127D01*
X70078334Y-30538652D01*
X70075500Y-30512294D01*
X70075500Y-30220543D01*
X70095185Y-30153504D01*
X70147989Y-30107749D01*
X70217147Y-30097805D01*
X70280703Y-30126830D01*
X70287181Y-30132862D01*
X70513181Y-30358862D01*
X70546666Y-30420185D01*
X70549500Y-30446543D01*
X70549500Y-30512294D01*
X70529815Y-30579333D01*
X70525890Y-30584203D01*
X70526126Y-30584368D01*
X70519902Y-30593255D01*
X70468602Y-30703270D01*
X70468599Y-30703281D01*
X70462001Y-30753398D01*
X70462000Y-30753415D01*
X70462000Y-31146592D01*
X70468599Y-31196719D01*
X70468602Y-31196730D01*
X70519902Y-31306744D01*
X70519906Y-31306750D01*
X70605750Y-31392594D01*
X70605751Y-31392594D01*
X70605755Y-31392597D01*
X70715770Y-31443897D01*
X70715771Y-31443897D01*
X70715777Y-31443900D01*
X70765909Y-31450500D01*
X71034090Y-31450499D01*
X71034092Y-31450499D01*
X71050801Y-31448299D01*
X71084223Y-31443900D01*
X71127800Y-31423579D01*
X71196874Y-31413087D01*
X71232601Y-31423576D01*
X71276955Y-31444259D01*
X71324361Y-31450500D01*
X71550638Y-31450499D01*
X71598045Y-31444259D01*
X71642391Y-31423579D01*
X71711466Y-31413088D01*
X71747200Y-31423580D01*
X71790775Y-31443899D01*
X71790776Y-31443900D01*
X71800430Y-31445170D01*
X71840909Y-31450500D01*
X72109090Y-31450499D01*
X72109092Y-31450499D01*
X72125801Y-31448299D01*
X72159223Y-31443900D01*
X72159228Y-31443897D01*
X72159230Y-31443897D01*
X72269244Y-31392597D01*
X72269245Y-31392596D01*
X72269250Y-31392594D01*
X72355094Y-31306750D01*
X72369667Y-31275499D01*
X72384491Y-31243708D01*
X72406400Y-31196723D01*
X72413000Y-31146591D01*
X72412999Y-30753410D01*
X72412997Y-30753398D01*
X72406940Y-30707379D01*
X72406400Y-30703277D01*
X72406397Y-30703270D01*
X72406397Y-30703269D01*
X72355097Y-30593255D01*
X72355093Y-30593249D01*
X72269250Y-30507406D01*
X72269244Y-30507402D01*
X72159229Y-30456102D01*
X72159224Y-30456100D01*
X72159223Y-30456100D01*
X72159220Y-30456099D01*
X72159218Y-30456099D01*
X72109101Y-30449501D01*
X72109096Y-30449500D01*
X72109091Y-30449500D01*
X72109084Y-30449500D01*
X71912000Y-30449500D01*
X71844961Y-30429815D01*
X71799206Y-30377011D01*
X71788000Y-30325500D01*
X71788000Y-30189294D01*
X71807685Y-30122255D01*
X71860489Y-30076500D01*
X71929647Y-30066556D01*
X71940520Y-30068618D01*
X71942510Y-30069088D01*
X71942518Y-30069091D01*
X72002128Y-30075500D01*
X72597873Y-30075499D01*
X72657484Y-30069091D01*
X72792332Y-30018796D01*
X72907547Y-29932546D01*
X72931390Y-29900695D01*
X72987321Y-29858825D01*
X73057013Y-29853840D01*
X73078109Y-29860445D01*
X73083130Y-29862525D01*
X73201371Y-29878092D01*
X73226838Y-29881445D01*
X73226839Y-29881445D01*
X73226840Y-29881445D01*
X73241816Y-29879473D01*
X73370548Y-29862525D01*
X73504464Y-29807056D01*
X73619460Y-29718816D01*
X73707700Y-29603820D01*
X73763169Y-29469904D01*
X73782089Y-29326195D01*
X73763169Y-29182486D01*
X73707700Y-29048570D01*
X73619460Y-28933574D01*
X73563594Y-28890706D01*
X73548304Y-28878973D01*
X73507101Y-28822545D01*
X73502947Y-28752799D01*
X73537160Y-28691879D01*
X73576340Y-28666036D01*
X73677587Y-28624099D01*
X73802924Y-28527924D01*
X73899100Y-28402586D01*
X73959555Y-28256631D01*
X73967012Y-28200000D01*
X73209500Y-28200000D01*
X73142461Y-28180315D01*
X73096706Y-28127511D01*
X73085500Y-28076000D01*
X73085500Y-27924000D01*
X73105185Y-27856961D01*
X73157989Y-27811206D01*
X73209500Y-27800000D01*
X73967010Y-27800000D01*
X73967011Y-27799998D01*
X73964763Y-27782921D01*
X73975529Y-27713886D01*
X74021910Y-27661630D01*
X74089179Y-27642746D01*
X74152799Y-27661198D01*
X74230875Y-27709356D01*
X74230880Y-27709358D01*
X74397302Y-27764505D01*
X74397309Y-27764506D01*
X74500019Y-27774999D01*
X74749999Y-27774999D01*
X75250000Y-27774999D01*
X75393050Y-27774999D01*
X75460089Y-27794684D01*
X75505844Y-27847488D01*
X75515788Y-27916646D01*
X75486763Y-27980202D01*
X75479258Y-27987271D01*
X75479563Y-27987576D01*
X75473820Y-27993318D01*
X75377640Y-28118661D01*
X75317186Y-28264613D01*
X75317185Y-28264617D01*
X75305779Y-28351248D01*
X75801741Y-28351248D01*
X76201741Y-28351248D01*
X76697700Y-28351248D01*
X76697701Y-28351246D01*
X76686298Y-28264620D01*
X76686296Y-28264614D01*
X76625841Y-28118662D01*
X76529665Y-27993323D01*
X76404327Y-27897147D01*
X76258372Y-27836692D01*
X76201741Y-27829235D01*
X76201741Y-28351248D01*
X75801741Y-28351248D01*
X75801741Y-27806524D01*
X75796779Y-27798702D01*
X75797195Y-27728834D01*
X75835319Y-27670281D01*
X75850866Y-27658937D01*
X75918343Y-27617317D01*
X76042315Y-27493345D01*
X76134356Y-27344124D01*
X76134358Y-27344119D01*
X76189505Y-27177697D01*
X76189506Y-27177690D01*
X76199999Y-27074986D01*
X76200000Y-27074973D01*
X76200000Y-26850000D01*
X75250000Y-26850000D01*
X75250000Y-27774999D01*
X74749999Y-27774999D01*
X74750000Y-27774998D01*
X74750000Y-26350000D01*
X75250000Y-26350000D01*
X76199999Y-26350000D01*
X76199999Y-26125028D01*
X76199998Y-26125013D01*
X76189505Y-26022302D01*
X76134358Y-25855880D01*
X76134356Y-25855875D01*
X76042315Y-25706654D01*
X75918345Y-25582684D01*
X75769124Y-25490643D01*
X75769119Y-25490641D01*
X75602697Y-25435494D01*
X75602690Y-25435493D01*
X75499986Y-25425000D01*
X75250000Y-25425000D01*
X75250000Y-26350000D01*
X74750000Y-26350000D01*
X74750000Y-25425000D01*
X74500029Y-25425000D01*
X74500012Y-25425001D01*
X74397302Y-25435494D01*
X74230880Y-25490641D01*
X74230875Y-25490643D01*
X74081654Y-25582684D01*
X73957684Y-25706654D01*
X73865640Y-25855881D01*
X73864237Y-25858891D01*
X73862724Y-25860608D01*
X73861851Y-25862025D01*
X73861608Y-25861875D01*
X73818065Y-25911330D01*
X73750871Y-25930482D01*
X73683990Y-25910266D01*
X73678970Y-25906804D01*
X73591763Y-25843444D01*
X73591760Y-25843442D01*
X73591759Y-25843442D01*
X73491593Y-25798845D01*
X73423636Y-25768588D01*
X73423631Y-25768586D01*
X73243617Y-25730323D01*
X73059579Y-25730323D01*
X72879564Y-25768586D01*
X72879559Y-25768588D01*
X72711438Y-25843441D01*
X72711433Y-25843444D01*
X72562550Y-25951614D01*
X72562548Y-25951615D01*
X72439401Y-26088383D01*
X72361885Y-26222646D01*
X72311318Y-26270862D01*
X72242711Y-26284084D01*
X72177846Y-26258116D01*
X72137318Y-26201202D01*
X72130498Y-26160646D01*
X72130498Y-22714713D01*
X72150183Y-22647674D01*
X72202987Y-22601919D01*
X72272145Y-22591975D01*
X72335701Y-22621000D01*
G37*
%TD.AperFunction*%
%TA.AperFunction,Conductor*%
G36*
X61293333Y-40080627D02*
G01*
X61337680Y-40109128D01*
X62523436Y-41294884D01*
X62607188Y-41232188D01*
X62676888Y-41139082D01*
X62732822Y-41097211D01*
X62802514Y-41092227D01*
X62863837Y-41125712D01*
X62887555Y-41158932D01*
X62910802Y-41206483D01*
X62910802Y-41206484D01*
X62993514Y-41289196D01*
X62993515Y-41289196D01*
X62993517Y-41289198D01*
X63098607Y-41340573D01*
X63127282Y-41344751D01*
X63166739Y-41350500D01*
X63229455Y-41350500D01*
X63296494Y-41370185D01*
X63342249Y-41422989D01*
X63352193Y-41492147D01*
X63323168Y-41555703D01*
X63317136Y-41562181D01*
X63069531Y-41809786D01*
X63069530Y-41809788D01*
X63041236Y-41858796D01*
X63040872Y-41859426D01*
X63040871Y-41859427D01*
X63023387Y-41889709D01*
X63023386Y-41889712D01*
X62999500Y-41978856D01*
X62999500Y-43425500D01*
X62979815Y-43492539D01*
X62927011Y-43538294D01*
X62875500Y-43549500D01*
X62675326Y-43549500D01*
X62624190Y-43559671D01*
X62575810Y-43559671D01*
X62524674Y-43549500D01*
X62175326Y-43549500D01*
X62124190Y-43559671D01*
X62075810Y-43559671D01*
X62024674Y-43549500D01*
X61675326Y-43549500D01*
X61624190Y-43559671D01*
X61575810Y-43559671D01*
X61524674Y-43549500D01*
X61175326Y-43549500D01*
X61124190Y-43559671D01*
X61075810Y-43559671D01*
X61024674Y-43549500D01*
X60824500Y-43549500D01*
X60757461Y-43529815D01*
X60711706Y-43477011D01*
X60700500Y-43425500D01*
X60700500Y-41934284D01*
X60720185Y-41867245D01*
X60726116Y-41858808D01*
X60730861Y-41852625D01*
X60786330Y-41718709D01*
X60805250Y-41575000D01*
X60797375Y-41515185D01*
X60808140Y-41446151D01*
X60854520Y-41393895D01*
X60920314Y-41375000D01*
X61896447Y-41375000D01*
X61896447Y-41374999D01*
X60984128Y-40462680D01*
X60950643Y-40401357D01*
X60955627Y-40331665D01*
X60984128Y-40287318D01*
X61162318Y-40109128D01*
X61223641Y-40075643D01*
X61293333Y-40080627D01*
G37*
%TD.AperFunction*%
%TA.AperFunction,Conductor*%
G36*
X68089453Y-34252320D02*
G01*
X68125131Y-34307837D01*
X68125275Y-34307778D01*
X68125604Y-34308573D01*
X68127227Y-34311098D01*
X68128026Y-34313943D01*
X68128386Y-34315289D01*
X68174527Y-34395208D01*
X68174531Y-34395213D01*
X68288181Y-34508863D01*
X68321666Y-34570186D01*
X68324500Y-34596544D01*
X68324500Y-35453456D01*
X68304815Y-35520495D01*
X68288181Y-35541137D01*
X68285803Y-35543514D01*
X68234426Y-35648608D01*
X68224500Y-35716739D01*
X68224500Y-36233260D01*
X68234426Y-36301391D01*
X68285803Y-36406485D01*
X68368514Y-36489196D01*
X68368515Y-36489196D01*
X68368517Y-36489198D01*
X68473607Y-36540573D01*
X68507673Y-36545536D01*
X68541739Y-36550500D01*
X68541740Y-36550500D01*
X68808258Y-36550500D01*
X68808260Y-36550500D01*
X68832622Y-36546950D01*
X68901797Y-36556762D01*
X68954688Y-36602416D01*
X68974500Y-36669418D01*
X68974500Y-37180345D01*
X68954815Y-37247384D01*
X68902011Y-37293139D01*
X68832853Y-37303083D01*
X68832722Y-37303064D01*
X68808260Y-37299500D01*
X68541740Y-37299500D01*
X68541739Y-37299500D01*
X68473608Y-37309426D01*
X68368514Y-37360803D01*
X68285803Y-37443514D01*
X68234426Y-37548608D01*
X68224500Y-37616739D01*
X68224500Y-38133260D01*
X68234426Y-38201391D01*
X68285801Y-38306482D01*
X68285802Y-38306483D01*
X68288178Y-38308859D01*
X68290391Y-38312911D01*
X68291773Y-38314847D01*
X68291539Y-38315013D01*
X68321665Y-38370179D01*
X68324500Y-38396543D01*
X68324500Y-39298456D01*
X68304815Y-39365495D01*
X68288181Y-39386137D01*
X68255803Y-39418514D01*
X68204426Y-39523608D01*
X68194500Y-39591739D01*
X68194500Y-39858260D01*
X68204426Y-39926391D01*
X68255803Y-40031485D01*
X68288180Y-40063861D01*
X68321666Y-40125183D01*
X68324500Y-40151543D01*
X68324500Y-40188908D01*
X68304815Y-40255947D01*
X68286913Y-40275412D01*
X68288129Y-40276628D01*
X68282384Y-40282372D01*
X68194137Y-40397377D01*
X68138671Y-40531287D01*
X68138670Y-40531291D01*
X68126289Y-40625336D01*
X68119750Y-40675000D01*
X68131195Y-40761935D01*
X68138670Y-40818708D01*
X68138671Y-40818712D01*
X68194137Y-40952622D01*
X68194138Y-40952624D01*
X68194139Y-40952625D01*
X68282379Y-41067621D01*
X68397375Y-41155861D01*
X68531291Y-41211330D01*
X68658280Y-41228048D01*
X68674999Y-41230250D01*
X68675000Y-41230250D01*
X68675001Y-41230250D01*
X68689977Y-41228278D01*
X68818709Y-41211330D01*
X68952625Y-41155861D01*
X69067621Y-41067621D01*
X69155861Y-40952625D01*
X69211330Y-40818709D01*
X69230250Y-40675000D01*
X69211330Y-40531291D01*
X69155861Y-40397375D01*
X69155860Y-40397374D01*
X69155860Y-40397373D01*
X69138682Y-40374987D01*
X69113487Y-40309818D01*
X69127525Y-40241373D01*
X69176338Y-40191383D01*
X69237057Y-40175500D01*
X69478261Y-40175500D01*
X69512326Y-40170536D01*
X69546393Y-40165573D01*
X69643940Y-40117885D01*
X69712810Y-40106126D01*
X69777107Y-40133469D01*
X69796768Y-40153793D01*
X69807379Y-40167621D01*
X69922375Y-40255861D01*
X69922376Y-40255861D01*
X69922377Y-40255862D01*
X69949028Y-40266901D01*
X70056291Y-40311330D01*
X70091235Y-40315930D01*
X70155130Y-40344196D01*
X70193602Y-40402520D01*
X70194434Y-40472385D01*
X70186450Y-40493328D01*
X70159426Y-40548606D01*
X70159426Y-40548607D01*
X70149500Y-40616739D01*
X70149500Y-40883260D01*
X70159426Y-40951391D01*
X70159427Y-40951393D01*
X70210802Y-41056483D01*
X70210803Y-41056484D01*
X70210804Y-41056486D01*
X70216773Y-41064847D01*
X70213585Y-41067122D01*
X70237622Y-41111142D01*
X70232638Y-41180834D01*
X70214731Y-41208695D01*
X70216773Y-41210153D01*
X70210804Y-41218513D01*
X70159426Y-41323608D01*
X70149500Y-41391739D01*
X70149500Y-41658260D01*
X70159426Y-41726392D01*
X70181253Y-41771039D01*
X70193013Y-41839912D01*
X70165670Y-41904210D01*
X70107905Y-41943517D01*
X70069853Y-41949500D01*
X68378856Y-41949500D01*
X68289712Y-41973386D01*
X68289709Y-41973387D01*
X68209791Y-42019527D01*
X68209786Y-42019531D01*
X67558431Y-42670887D01*
X67497108Y-42704372D01*
X67427416Y-42699388D01*
X67371483Y-42657516D01*
X67347066Y-42592052D01*
X67346750Y-42583206D01*
X67346750Y-35251057D01*
X67366435Y-35184018D01*
X67383069Y-35163376D01*
X67590253Y-34956192D01*
X67799984Y-34746461D01*
X67855508Y-34650289D01*
X67884250Y-34543025D01*
X67884250Y-34431975D01*
X67884250Y-34346033D01*
X67903935Y-34278994D01*
X67956739Y-34233239D01*
X68025897Y-34223295D01*
X68089453Y-34252320D01*
G37*
%TD.AperFunction*%
%TA.AperFunction,Conductor*%
G36*
X76234393Y-32812192D02*
G01*
X76277586Y-32867111D01*
X76284231Y-32936664D01*
X76278653Y-32956535D01*
X76255910Y-33017512D01*
X76255909Y-33017516D01*
X76255909Y-33017518D01*
X76249500Y-33077128D01*
X76249500Y-33077135D01*
X76249500Y-33077136D01*
X76249500Y-33672871D01*
X76249501Y-33672877D01*
X76255908Y-33732484D01*
X76306202Y-33867329D01*
X76306206Y-33867336D01*
X76392452Y-33982545D01*
X76392455Y-33982548D01*
X76507664Y-34068794D01*
X76507671Y-34068798D01*
X76552618Y-34085562D01*
X76642517Y-34119092D01*
X76702127Y-34125501D01*
X77297872Y-34125500D01*
X77357483Y-34119092D01*
X77492331Y-34068797D01*
X77576189Y-34006020D01*
X77641652Y-33981603D01*
X77709926Y-33996454D01*
X77759331Y-34045859D01*
X77774500Y-34105287D01*
X77774500Y-35144712D01*
X77754815Y-35211751D01*
X77702011Y-35257506D01*
X77632853Y-35267450D01*
X77576189Y-35243979D01*
X77550561Y-35224794D01*
X77492331Y-35181203D01*
X77492329Y-35181202D01*
X77492328Y-35181201D01*
X77357486Y-35130909D01*
X77357485Y-35130908D01*
X77357483Y-35130908D01*
X77297873Y-35124499D01*
X77297863Y-35124499D01*
X76702129Y-35124499D01*
X76702123Y-35124500D01*
X76642516Y-35130907D01*
X76507671Y-35181201D01*
X76507664Y-35181205D01*
X76392455Y-35267451D01*
X76392452Y-35267454D01*
X76306206Y-35382663D01*
X76306202Y-35382670D01*
X76255998Y-35517277D01*
X76255909Y-35517516D01*
X76249500Y-35577126D01*
X76249500Y-35577133D01*
X76249500Y-35577134D01*
X76249500Y-36172869D01*
X76249501Y-36172875D01*
X76255908Y-36232482D01*
X76306202Y-36367327D01*
X76306206Y-36367334D01*
X76392452Y-36482543D01*
X76392455Y-36482546D01*
X76507664Y-36568792D01*
X76507669Y-36568795D01*
X76568833Y-36591607D01*
X76624766Y-36633477D01*
X76649184Y-36698941D01*
X76649500Y-36707789D01*
X76649500Y-36896374D01*
X76669865Y-36972376D01*
X76671391Y-36978073D01*
X76673386Y-36985519D01*
X76719527Y-37065438D01*
X76719531Y-37065443D01*
X76740976Y-37086888D01*
X76774461Y-37148211D01*
X76775603Y-37174639D01*
X76777286Y-37174639D01*
X76777286Y-37182766D01*
X76793961Y-37309426D01*
X76796206Y-37326474D01*
X76796207Y-37326478D01*
X76851673Y-37460388D01*
X76851674Y-37460390D01*
X76851675Y-37460391D01*
X76939915Y-37575387D01*
X77054911Y-37663627D01*
X77188827Y-37719096D01*
X77314322Y-37735618D01*
X77332535Y-37738016D01*
X77332536Y-37738016D01*
X77332537Y-37738016D01*
X77350750Y-37735618D01*
X77476245Y-37719096D01*
X77603048Y-37666572D01*
X77672517Y-37659104D01*
X77734996Y-37690379D01*
X77770648Y-37750468D01*
X77774500Y-37781134D01*
X77774500Y-38027399D01*
X77774500Y-38152601D01*
X77806905Y-38273536D01*
X77869504Y-38381962D01*
X77869506Y-38381965D01*
X79378248Y-39890707D01*
X79411733Y-39952030D01*
X79406749Y-40021722D01*
X79378248Y-40066069D01*
X78881137Y-40563181D01*
X78819814Y-40596666D01*
X78793456Y-40599500D01*
X73678856Y-40599500D01*
X73589712Y-40623386D01*
X73589711Y-40623386D01*
X73589709Y-40623387D01*
X73589706Y-40623388D01*
X73509794Y-40669526D01*
X73509785Y-40669533D01*
X72266137Y-41913181D01*
X72204814Y-41946666D01*
X72178456Y-41949500D01*
X72100601Y-41949500D01*
X72033562Y-41929815D01*
X71987807Y-41877011D01*
X71977863Y-41807853D01*
X71982872Y-41789592D01*
X71982453Y-41789480D01*
X71984555Y-41781633D01*
X71992012Y-41725000D01*
X71234500Y-41725000D01*
X71167461Y-41705315D01*
X71121706Y-41652511D01*
X71110500Y-41601000D01*
X71110500Y-41391739D01*
X71100776Y-41325000D01*
X71470000Y-41325000D01*
X71992010Y-41325000D01*
X71992011Y-41324998D01*
X71984558Y-41268377D01*
X71984555Y-41268369D01*
X71950003Y-41184953D01*
X71942534Y-41115484D01*
X71950003Y-41090047D01*
X71984556Y-41006629D01*
X71992012Y-40950000D01*
X71470000Y-40950000D01*
X71470000Y-41325000D01*
X71100776Y-41325000D01*
X71100574Y-41323611D01*
X71100573Y-41323608D01*
X71100573Y-41323607D01*
X71095851Y-41313948D01*
X71082599Y-41286838D01*
X71070000Y-41232380D01*
X71070000Y-41042617D01*
X71082598Y-40988159D01*
X71100573Y-40951393D01*
X71110500Y-40883260D01*
X71110500Y-40616740D01*
X71107575Y-40596666D01*
X71100776Y-40550000D01*
X71470000Y-40550000D01*
X71992010Y-40550000D01*
X71992011Y-40549998D01*
X71984557Y-40493372D01*
X71984555Y-40493366D01*
X71924100Y-40347414D01*
X71827924Y-40222075D01*
X71702586Y-40125899D01*
X71556631Y-40065444D01*
X71470000Y-40054038D01*
X71470000Y-40550000D01*
X71100776Y-40550000D01*
X71100574Y-40548611D01*
X71100573Y-40548609D01*
X71100573Y-40548607D01*
X71092106Y-40531287D01*
X71082599Y-40511838D01*
X71070000Y-40457380D01*
X71070000Y-40054038D01*
X70983369Y-40065444D01*
X70888372Y-40104792D01*
X70818903Y-40112260D01*
X70756424Y-40080984D01*
X70720772Y-40020894D01*
X70723267Y-39951069D01*
X70726348Y-39942806D01*
X70736330Y-39918709D01*
X70755250Y-39775000D01*
X70736330Y-39631291D01*
X70691727Y-39523608D01*
X70680864Y-39497382D01*
X70680863Y-39497381D01*
X70680861Y-39497375D01*
X70680856Y-39497369D01*
X70680021Y-39495922D01*
X70679683Y-39494531D01*
X70677751Y-39489866D01*
X70678478Y-39489564D01*
X70663543Y-39428023D01*
X70686390Y-39361994D01*
X70741307Y-39318799D01*
X70803589Y-39310974D01*
X70806290Y-39311329D01*
X70806291Y-39311330D01*
X70863023Y-39318799D01*
X70949999Y-39330250D01*
X70950000Y-39330250D01*
X70950001Y-39330250D01*
X70964977Y-39328278D01*
X71093709Y-39311330D01*
X71198831Y-39267787D01*
X71221189Y-39258527D01*
X71290658Y-39251058D01*
X71353137Y-39282334D01*
X71367016Y-39297601D01*
X71382375Y-39317617D01*
X71382377Y-39317618D01*
X71382379Y-39317621D01*
X71497375Y-39405861D01*
X71497376Y-39405861D01*
X71497377Y-39405862D01*
X71527922Y-39418514D01*
X71631291Y-39461330D01*
X71758280Y-39478048D01*
X71774999Y-39480250D01*
X71775000Y-39480250D01*
X71775001Y-39480250D01*
X71789977Y-39478278D01*
X71918709Y-39461330D01*
X72052625Y-39405861D01*
X72167621Y-39317621D01*
X72255861Y-39202625D01*
X72311330Y-39068709D01*
X72330250Y-38925000D01*
X72311330Y-38781291D01*
X72255861Y-38647375D01*
X72167621Y-38532379D01*
X72167618Y-38532377D01*
X72167617Y-38532375D01*
X72165637Y-38530395D01*
X72164501Y-38528314D01*
X72162673Y-38525932D01*
X72163044Y-38525646D01*
X72132156Y-38469069D01*
X72137145Y-38399378D01*
X72165642Y-38355038D01*
X72189198Y-38331483D01*
X72240573Y-38226393D01*
X72250500Y-38158260D01*
X72250500Y-37891740D01*
X72247046Y-37868037D01*
X72240832Y-37825384D01*
X72250645Y-37756207D01*
X72275852Y-37719828D01*
X73105469Y-36890212D01*
X73151614Y-36810288D01*
X73157937Y-36786691D01*
X73160461Y-36777273D01*
X73167980Y-36749209D01*
X73175500Y-36721144D01*
X73175500Y-36446543D01*
X73195185Y-36379504D01*
X73211818Y-36358862D01*
X73214198Y-36356483D01*
X73265573Y-36251393D01*
X73275500Y-36183260D01*
X73275500Y-35666740D01*
X73274255Y-35658198D01*
X73268252Y-35616994D01*
X73265573Y-35598607D01*
X73255072Y-35577126D01*
X74274500Y-35577126D01*
X74274500Y-35577133D01*
X74274500Y-35577134D01*
X74274500Y-36172869D01*
X74274501Y-36172875D01*
X74280908Y-36232482D01*
X74331202Y-36367327D01*
X74331206Y-36367334D01*
X74417452Y-36482543D01*
X74417455Y-36482546D01*
X74532664Y-36568792D01*
X74532669Y-36568795D01*
X74593833Y-36591607D01*
X74649766Y-36633477D01*
X74674184Y-36698941D01*
X74674500Y-36707789D01*
X74674500Y-36825553D01*
X74654815Y-36892592D01*
X74648876Y-36901039D01*
X74594139Y-36972374D01*
X74594138Y-36972376D01*
X74538671Y-37106287D01*
X74538670Y-37106291D01*
X74528460Y-37183846D01*
X74519750Y-37250000D01*
X74527768Y-37310905D01*
X74538670Y-37393708D01*
X74538671Y-37393712D01*
X74594137Y-37527622D01*
X74594138Y-37527624D01*
X74594139Y-37527625D01*
X74682379Y-37642621D01*
X74797375Y-37730861D01*
X74797376Y-37730861D01*
X74797377Y-37730862D01*
X74812104Y-37736962D01*
X74931291Y-37786330D01*
X75058280Y-37803048D01*
X75074999Y-37805250D01*
X75075000Y-37805250D01*
X75075001Y-37805250D01*
X75089977Y-37803278D01*
X75218709Y-37786330D01*
X75352625Y-37730861D01*
X75467621Y-37642621D01*
X75555861Y-37527625D01*
X75611330Y-37393709D01*
X75630250Y-37250000D01*
X75611330Y-37106291D01*
X75555861Y-36972375D01*
X75467621Y-36857379D01*
X75467618Y-36857377D01*
X75467617Y-36857375D01*
X75424013Y-36823916D01*
X75382810Y-36767488D01*
X75375500Y-36725541D01*
X75375500Y-36707789D01*
X75395185Y-36640750D01*
X75447989Y-36594995D01*
X75456146Y-36591615D01*
X75517331Y-36568795D01*
X75632546Y-36482545D01*
X75718796Y-36367330D01*
X75769091Y-36232482D01*
X75775500Y-36172872D01*
X75775499Y-35577127D01*
X75769091Y-35517516D01*
X75768522Y-35515991D01*
X75718797Y-35382670D01*
X75718793Y-35382663D01*
X75632547Y-35267454D01*
X75632544Y-35267451D01*
X75517335Y-35181205D01*
X75517328Y-35181201D01*
X75382486Y-35130909D01*
X75382485Y-35130908D01*
X75382483Y-35130908D01*
X75322873Y-35124499D01*
X75322863Y-35124499D01*
X74727129Y-35124499D01*
X74727123Y-35124500D01*
X74667516Y-35130907D01*
X74532671Y-35181201D01*
X74532664Y-35181205D01*
X74417455Y-35267451D01*
X74417452Y-35267454D01*
X74331206Y-35382663D01*
X74331202Y-35382670D01*
X74280998Y-35517277D01*
X74280909Y-35517516D01*
X74274500Y-35577126D01*
X73255072Y-35577126D01*
X73214198Y-35493517D01*
X73214196Y-35493515D01*
X73214196Y-35493514D01*
X73131485Y-35410803D01*
X73124499Y-35407388D01*
X73053458Y-35372658D01*
X73026391Y-35359426D01*
X72958261Y-35349500D01*
X72958260Y-35349500D01*
X72691740Y-35349500D01*
X72667375Y-35353049D01*
X72598199Y-35343235D01*
X72545310Y-35297579D01*
X72525500Y-35230576D01*
X72525500Y-34719654D01*
X72545185Y-34652615D01*
X72597989Y-34606860D01*
X72667144Y-34596916D01*
X72691740Y-34600500D01*
X72691742Y-34600500D01*
X72958261Y-34600500D01*
X72982858Y-34596916D01*
X73026393Y-34590573D01*
X73131483Y-34539198D01*
X73214198Y-34456483D01*
X73265573Y-34351393D01*
X73275500Y-34283260D01*
X73275500Y-33766740D01*
X73265573Y-33698607D01*
X73214198Y-33593517D01*
X73214196Y-33593515D01*
X73214196Y-33593514D01*
X73199775Y-33579093D01*
X73166290Y-33517770D01*
X73171274Y-33448078D01*
X73213146Y-33392145D01*
X73232991Y-33380014D01*
X73245537Y-33373880D01*
X73314408Y-33362119D01*
X73354459Y-33373878D01*
X73388607Y-33390573D01*
X73456740Y-33400500D01*
X73490131Y-33400500D01*
X73557170Y-33420185D01*
X73602925Y-33472989D01*
X73604686Y-33477036D01*
X73616835Y-33506367D01*
X73654405Y-33597070D01*
X73654406Y-33597072D01*
X73654407Y-33597073D01*
X73742647Y-33712069D01*
X73857643Y-33800309D01*
X73991559Y-33855778D01*
X74118548Y-33872496D01*
X74135267Y-33874698D01*
X74135267Y-33874697D01*
X74135268Y-33874698D01*
X74246690Y-33860028D01*
X74315722Y-33870793D01*
X74362137Y-33908654D01*
X74417454Y-33982547D01*
X74447200Y-34004815D01*
X74532664Y-34068794D01*
X74532671Y-34068798D01*
X74577618Y-34085562D01*
X74667517Y-34119092D01*
X74727127Y-34125501D01*
X75322872Y-34125500D01*
X75382483Y-34119092D01*
X75517331Y-34068797D01*
X75632546Y-33982547D01*
X75718796Y-33867332D01*
X75769091Y-33732484D01*
X75775500Y-33672874D01*
X75775499Y-33077129D01*
X75769091Y-33017518D01*
X75769090Y-33017516D01*
X75768720Y-33014069D01*
X75781127Y-32945309D01*
X75828738Y-32894173D01*
X75875827Y-32877876D01*
X75951718Y-32867886D01*
X75951724Y-32867884D01*
X76097676Y-32807429D01*
X76100466Y-32805819D01*
X76103120Y-32805174D01*
X76105189Y-32804318D01*
X76105322Y-32804640D01*
X76168365Y-32789343D01*
X76234393Y-32812192D01*
G37*
%TD.AperFunction*%
%TA.AperFunction,Conductor*%
G36*
X62011327Y-22597871D02*
G01*
X62042916Y-22660192D01*
X62043812Y-22669938D01*
X62044998Y-22671124D01*
X62694998Y-22671124D01*
X62694998Y-23171124D01*
X62044998Y-23171124D01*
X62044998Y-23309770D01*
X62079582Y-23483636D01*
X62079584Y-23483644D01*
X62147426Y-23647431D01*
X62147431Y-23647440D01*
X62245921Y-23794840D01*
X62245924Y-23794844D01*
X62371277Y-23920197D01*
X62371281Y-23920200D01*
X62518681Y-24018690D01*
X62518694Y-24018697D01*
X62672950Y-24082591D01*
X62727354Y-24126431D01*
X62749419Y-24192725D01*
X62749498Y-24197152D01*
X62749498Y-24236890D01*
X62755116Y-24257858D01*
X62788717Y-24383260D01*
X62796365Y-24396506D01*
X62864483Y-24514489D01*
X62971633Y-24621639D01*
X63102863Y-24697405D01*
X63249232Y-24736624D01*
X63249234Y-24736624D01*
X63550998Y-24736624D01*
X63618037Y-24756309D01*
X63663792Y-24809113D01*
X63674998Y-24860624D01*
X63674998Y-25218968D01*
X63681399Y-25278496D01*
X63681401Y-25278503D01*
X63731643Y-25413210D01*
X63731647Y-25413217D01*
X63817807Y-25528311D01*
X63817810Y-25528314D01*
X63932904Y-25614474D01*
X63932911Y-25614478D01*
X64067618Y-25664720D01*
X64067625Y-25664722D01*
X64127153Y-25671123D01*
X64127170Y-25671124D01*
X64174998Y-25671124D01*
X64174998Y-24695124D01*
X64194683Y-24628085D01*
X64247487Y-24582330D01*
X64298998Y-24571124D01*
X64300498Y-24571124D01*
X64367537Y-24590809D01*
X64413292Y-24643613D01*
X64424498Y-24695124D01*
X64424498Y-25195802D01*
X64439030Y-25268859D01*
X64439032Y-25268864D01*
X64453599Y-25290666D01*
X64474478Y-25357341D01*
X64474498Y-25359556D01*
X64474498Y-29542977D01*
X64454813Y-29610016D01*
X64448883Y-29618450D01*
X64402775Y-29678540D01*
X64369137Y-29722377D01*
X64313671Y-29856287D01*
X64313670Y-29856291D01*
X64297887Y-29976176D01*
X64294750Y-30000000D01*
X64310845Y-30122255D01*
X64313670Y-30143708D01*
X64313671Y-30143712D01*
X64369137Y-30277622D01*
X64369138Y-30277624D01*
X64369139Y-30277625D01*
X64457379Y-30392621D01*
X64572375Y-30480861D01*
X64706291Y-30536330D01*
X64822413Y-30551618D01*
X64849999Y-30555250D01*
X64850000Y-30555250D01*
X64850001Y-30555250D01*
X64864977Y-30553278D01*
X64993709Y-30536330D01*
X65127625Y-30480861D01*
X65242621Y-30392621D01*
X65330861Y-30277625D01*
X65386330Y-30143709D01*
X65386330Y-30143705D01*
X65388434Y-30135857D01*
X65389657Y-30136184D01*
X65414588Y-30079815D01*
X65472908Y-30041337D01*
X65493070Y-30036949D01*
X65516100Y-30033918D01*
X65650016Y-29978449D01*
X65765012Y-29890209D01*
X65765012Y-29890208D01*
X65766263Y-29889249D01*
X65831432Y-29864054D01*
X65899877Y-29878092D01*
X65949867Y-29926906D01*
X65965750Y-29987624D01*
X65965750Y-30655091D01*
X65957189Y-30693712D01*
X65958755Y-30694169D01*
X65956099Y-30703281D01*
X65949501Y-30753398D01*
X65949500Y-30753415D01*
X65949500Y-31146592D01*
X65956099Y-31196719D01*
X65956102Y-31196730D01*
X66007402Y-31306744D01*
X66007406Y-31306750D01*
X66093250Y-31392594D01*
X66093251Y-31392594D01*
X66093255Y-31392597D01*
X66203270Y-31443897D01*
X66203271Y-31443897D01*
X66203277Y-31443900D01*
X66253409Y-31450500D01*
X66256977Y-31450499D01*
X66324016Y-31470175D01*
X66369778Y-31522973D01*
X66379928Y-31558312D01*
X66394550Y-31669372D01*
X66395375Y-31675634D01*
X66395376Y-31675638D01*
X66450843Y-31809549D01*
X66450844Y-31809551D01*
X66494630Y-31866614D01*
X66519824Y-31931783D01*
X66505786Y-32000228D01*
X66471743Y-32040474D01*
X66439902Y-32064907D01*
X66412217Y-32100987D01*
X66355789Y-32142190D01*
X66313844Y-32149500D01*
X66253408Y-32149500D01*
X66203280Y-32156099D01*
X66203269Y-32156102D01*
X66093255Y-32207402D01*
X66093249Y-32207406D01*
X66007406Y-32293249D01*
X66007402Y-32293255D01*
X65956102Y-32403270D01*
X65956099Y-32403281D01*
X65949501Y-32453398D01*
X65949235Y-32457459D01*
X65947414Y-32457339D01*
X65932887Y-32511556D01*
X65881995Y-32599704D01*
X65881989Y-32599717D01*
X65873441Y-32631620D01*
X65841349Y-32687206D01*
X65712711Y-32815843D01*
X65657189Y-32912013D01*
X65657189Y-32912014D01*
X65629671Y-33014712D01*
X65628447Y-33019279D01*
X65628447Y-34719672D01*
X65628447Y-34830722D01*
X65650358Y-34912493D01*
X65657189Y-34937986D01*
X65712712Y-35034157D01*
X65816931Y-35138376D01*
X65850416Y-35199699D01*
X65853250Y-35226057D01*
X65853250Y-41616896D01*
X65833565Y-41683935D01*
X65780761Y-41729690D01*
X65711603Y-41739634D01*
X65648047Y-41710609D01*
X65624257Y-41682869D01*
X65590478Y-41629112D01*
X65590476Y-41629109D01*
X65470890Y-41509523D01*
X65470884Y-41509518D01*
X65327697Y-41419547D01*
X65327694Y-41419545D01*
X65168056Y-41363685D01*
X65085616Y-41354397D01*
X65021202Y-41327330D01*
X64981647Y-41269735D01*
X64975500Y-41231177D01*
X64975500Y-40711092D01*
X64995185Y-40644053D01*
X65013114Y-40624609D01*
X65011874Y-40623369D01*
X65017619Y-40617623D01*
X65018297Y-40616740D01*
X65105861Y-40502625D01*
X65161330Y-40368709D01*
X65180250Y-40225000D01*
X65161330Y-40081291D01*
X65105861Y-39947375D01*
X65017621Y-39832379D01*
X64902625Y-39744139D01*
X64902624Y-39744138D01*
X64902622Y-39744137D01*
X64768712Y-39688671D01*
X64768710Y-39688670D01*
X64768709Y-39688670D01*
X64664877Y-39675000D01*
X64625001Y-39669750D01*
X64624996Y-39669750D01*
X64590684Y-39674267D01*
X64521649Y-39663501D01*
X64469394Y-39617120D01*
X64450500Y-39551328D01*
X64450500Y-39353858D01*
X64450500Y-39353856D01*
X64426614Y-39264712D01*
X64417965Y-39249733D01*
X64401492Y-39181834D01*
X64402413Y-39171544D01*
X64405250Y-39150000D01*
X64386330Y-39006291D01*
X64330861Y-38872375D01*
X64242621Y-38757379D01*
X64127625Y-38669139D01*
X64127624Y-38669138D01*
X64127622Y-38669137D01*
X64064853Y-38643138D01*
X64010449Y-38599297D01*
X63988384Y-38533003D01*
X64005663Y-38465304D01*
X64013029Y-38454279D01*
X64047336Y-38408451D01*
X64094491Y-38282023D01*
X64098997Y-38240114D01*
X64100499Y-38226145D01*
X64100500Y-38226130D01*
X64100500Y-37698871D01*
X64100499Y-37698856D01*
X64097645Y-37672319D01*
X64094491Y-37642979D01*
X64094490Y-37642976D01*
X64047337Y-37516553D01*
X64047335Y-37516550D01*
X64036241Y-37501730D01*
X63966472Y-37408529D01*
X63858450Y-37327665D01*
X63858447Y-37327663D01*
X63760636Y-37291182D01*
X63704702Y-37249311D01*
X63680285Y-37183846D01*
X63695137Y-37115573D01*
X63744542Y-37066168D01*
X63760636Y-37058818D01*
X63852645Y-37024500D01*
X63858450Y-37022335D01*
X63966472Y-36941471D01*
X64047336Y-36833449D01*
X64094491Y-36707021D01*
X64098534Y-36669418D01*
X64100499Y-36651143D01*
X64100500Y-36651128D01*
X64100500Y-36123869D01*
X64100499Y-36123854D01*
X64096395Y-36085686D01*
X64094491Y-36067977D01*
X64079382Y-36027468D01*
X64047337Y-35941551D01*
X64047335Y-35941548D01*
X64026773Y-35914080D01*
X63966472Y-35833527D01*
X63901667Y-35785014D01*
X63859797Y-35729082D01*
X63854813Y-35659391D01*
X63888296Y-35598070D01*
X63990477Y-35495890D01*
X63990481Y-35495884D01*
X64080452Y-35352697D01*
X64080454Y-35352694D01*
X64080454Y-35352692D01*
X64080456Y-35352690D01*
X64136313Y-35193059D01*
X64136313Y-35193058D01*
X64136314Y-35193056D01*
X64155249Y-35025002D01*
X64155249Y-35024997D01*
X64136314Y-34856943D01*
X64099176Y-34750810D01*
X64080456Y-34697310D01*
X64080455Y-34697309D01*
X64080454Y-34697305D01*
X64080452Y-34697302D01*
X63990481Y-34554115D01*
X63990476Y-34554109D01*
X63870890Y-34434523D01*
X63870884Y-34434518D01*
X63727697Y-34344547D01*
X63727694Y-34344545D01*
X63568056Y-34288685D01*
X63400003Y-34269751D01*
X63399997Y-34269751D01*
X63231943Y-34288685D01*
X63072305Y-34344545D01*
X63072302Y-34344547D01*
X62929115Y-34434518D01*
X62929109Y-34434523D01*
X62809521Y-34554111D01*
X62729493Y-34681475D01*
X62677159Y-34727765D01*
X62608105Y-34738413D01*
X62544257Y-34710038D01*
X62505885Y-34651648D01*
X62500500Y-34615502D01*
X62500500Y-33850323D01*
X62500499Y-33850321D01*
X62485967Y-33777264D01*
X62485966Y-33777262D01*
X62485966Y-33777260D01*
X62485964Y-33777258D01*
X62485964Y-33777256D01*
X62430261Y-33693890D01*
X62409383Y-33627213D01*
X62427868Y-33559833D01*
X62430261Y-33556110D01*
X62485964Y-33472743D01*
X62485964Y-33472742D01*
X62485966Y-33472740D01*
X62500500Y-33399674D01*
X62500500Y-33024999D01*
X63069534Y-33024999D01*
X63069534Y-33025000D01*
X63089312Y-33175234D01*
X63089313Y-33175236D01*
X63136799Y-33289878D01*
X63147302Y-33315233D01*
X63239549Y-33435451D01*
X63359767Y-33527698D01*
X63499764Y-33585687D01*
X63559216Y-33593514D01*
X63649999Y-33605466D01*
X63650000Y-33605466D01*
X63650001Y-33605466D01*
X63713751Y-33597073D01*
X63800236Y-33585687D01*
X63940233Y-33527698D01*
X64060451Y-33435451D01*
X64152698Y-33315233D01*
X64210687Y-33175236D01*
X64230466Y-33025000D01*
X64229591Y-33018357D01*
X64210687Y-32874765D01*
X64210687Y-32874764D01*
X64152698Y-32734767D01*
X64060451Y-32614549D01*
X63940233Y-32522302D01*
X63940229Y-32522300D01*
X63800236Y-32464313D01*
X63800234Y-32464312D01*
X63650001Y-32444534D01*
X63649999Y-32444534D01*
X63499765Y-32464312D01*
X63499763Y-32464313D01*
X63359770Y-32522300D01*
X63359767Y-32522301D01*
X63359767Y-32522302D01*
X63239549Y-32614549D01*
X63164962Y-32711753D01*
X63147300Y-32734770D01*
X63089313Y-32874763D01*
X63089312Y-32874765D01*
X63069534Y-33024999D01*
X62500500Y-33024999D01*
X62500500Y-32374125D01*
X62520185Y-32307086D01*
X62550189Y-32274858D01*
X62607189Y-32232187D01*
X62607190Y-32232186D01*
X62693352Y-32117088D01*
X62693354Y-32117086D01*
X62743596Y-31982379D01*
X62743598Y-31982372D01*
X62749999Y-31922844D01*
X62750000Y-31922827D01*
X62750000Y-30827172D01*
X62749999Y-30827155D01*
X62743598Y-30767627D01*
X62743596Y-30767620D01*
X62693354Y-30632913D01*
X62693350Y-30632906D01*
X62607191Y-30517814D01*
X62607182Y-30517805D01*
X62523438Y-30455113D01*
X62523436Y-30455114D01*
X61337680Y-31640871D01*
X61276357Y-31674356D01*
X61206665Y-31669372D01*
X61162318Y-31640871D01*
X60984128Y-31462681D01*
X60950643Y-31401358D01*
X60955627Y-31331666D01*
X60984128Y-31287319D01*
X61460128Y-30811319D01*
X61521451Y-30777834D01*
X61547809Y-30775000D01*
X61750000Y-30775000D01*
X61750000Y-30572809D01*
X61769685Y-30505770D01*
X61786319Y-30485127D01*
X61896447Y-30375000D01*
X61874000Y-30375000D01*
X61806961Y-30355315D01*
X61761206Y-30302511D01*
X61750000Y-30251000D01*
X61750000Y-25096783D01*
X61766613Y-25034783D01*
X61802612Y-24972431D01*
X61859483Y-24797401D01*
X61878720Y-24614372D01*
X61859483Y-24431343D01*
X61802612Y-24256313D01*
X61802611Y-24256312D01*
X61802611Y-24256310D01*
X61802610Y-24256308D01*
X61766613Y-24193958D01*
X61750000Y-24131959D01*
X61750000Y-22741747D01*
X61769685Y-22674708D01*
X61777045Y-22664444D01*
X61822771Y-22607114D01*
X61822772Y-22607111D01*
X61824056Y-22605502D01*
X61881248Y-22565366D01*
X61951059Y-22562521D01*
X62011327Y-22597871D01*
G37*
%TD.AperFunction*%
%TA.AperFunction,Conductor*%
G36*
X59693039Y-30794685D02*
G01*
X59738794Y-30847489D01*
X59750000Y-30899000D01*
X59750000Y-31922844D01*
X59756401Y-31982372D01*
X59756403Y-31982379D01*
X59806645Y-32117086D01*
X59806649Y-32117093D01*
X59892808Y-32232186D01*
X59949811Y-32274858D01*
X59991682Y-32330792D01*
X59999500Y-32374125D01*
X59999500Y-33399678D01*
X60014032Y-33472735D01*
X60014033Y-33472739D01*
X60069739Y-33556110D01*
X60090616Y-33622788D01*
X60072131Y-33690168D01*
X60069739Y-33693890D01*
X60014033Y-33777260D01*
X60014032Y-33777264D01*
X59999500Y-33850321D01*
X59999500Y-34899678D01*
X60014032Y-34972735D01*
X60014033Y-34972739D01*
X60069739Y-35056110D01*
X60090616Y-35122788D01*
X60072131Y-35190168D01*
X60069739Y-35193890D01*
X60014033Y-35277260D01*
X60014032Y-35277264D01*
X59999500Y-35350321D01*
X59999500Y-36399678D01*
X60014032Y-36472735D01*
X60014033Y-36472739D01*
X60069739Y-36556110D01*
X60090616Y-36622788D01*
X60072131Y-36690168D01*
X60069739Y-36693890D01*
X60014033Y-36777260D01*
X60014032Y-36777264D01*
X59999500Y-36850321D01*
X59999500Y-37899678D01*
X60014032Y-37972735D01*
X60014033Y-37972739D01*
X60069739Y-38056110D01*
X60090616Y-38122788D01*
X60072131Y-38190168D01*
X60069739Y-38193890D01*
X60014033Y-38277260D01*
X60014032Y-38277262D01*
X60009571Y-38299693D01*
X59977185Y-38361603D01*
X59916469Y-38396177D01*
X59887954Y-38399500D01*
X59812399Y-38399500D01*
X59731775Y-38421103D01*
X59691463Y-38431905D01*
X59583037Y-38494504D01*
X59583034Y-38494506D01*
X58619506Y-39458034D01*
X58619504Y-39458037D01*
X58556905Y-39566463D01*
X58541086Y-39625500D01*
X58527823Y-39675000D01*
X58524500Y-39687400D01*
X58524500Y-40312954D01*
X58504815Y-40379993D01*
X58452011Y-40425748D01*
X58424693Y-40434571D01*
X58402262Y-40439032D01*
X58402260Y-40439033D01*
X58318890Y-40494739D01*
X58252212Y-40515616D01*
X58184832Y-40497131D01*
X58181110Y-40494739D01*
X58097739Y-40439033D01*
X58097735Y-40439032D01*
X58051176Y-40429771D01*
X57989265Y-40397386D01*
X57954691Y-40336670D01*
X57958430Y-40266901D01*
X57976991Y-40232667D01*
X57980861Y-40227625D01*
X58036330Y-40093709D01*
X58055250Y-39950000D01*
X58054904Y-39947375D01*
X58048339Y-39897510D01*
X58036330Y-39806291D01*
X57987611Y-39688670D01*
X57980862Y-39672377D01*
X57980861Y-39672376D01*
X57980861Y-39672375D01*
X57892621Y-39557379D01*
X57777625Y-39469139D01*
X57777624Y-39469138D01*
X57777622Y-39469137D01*
X57643712Y-39413671D01*
X57643710Y-39413670D01*
X57643709Y-39413670D01*
X57537401Y-39399674D01*
X57500001Y-39394750D01*
X57499999Y-39394750D01*
X57356291Y-39413670D01*
X57356287Y-39413671D01*
X57222377Y-39469137D01*
X57107379Y-39557379D01*
X57019137Y-39672377D01*
X56963671Y-39806287D01*
X56963670Y-39806291D01*
X56945096Y-39947375D01*
X56944750Y-39950000D01*
X56955778Y-40033768D01*
X56963670Y-40093708D01*
X56963671Y-40093712D01*
X57019138Y-40227623D01*
X57019141Y-40227628D01*
X57023010Y-40232671D01*
X57048202Y-40297841D01*
X57034162Y-40366285D01*
X56985346Y-40416273D01*
X56948824Y-40429771D01*
X56902263Y-40439032D01*
X56902260Y-40439033D01*
X56818890Y-40494739D01*
X56752212Y-40515616D01*
X56684832Y-40497131D01*
X56681110Y-40494739D01*
X56597739Y-40439033D01*
X56597735Y-40439032D01*
X56524677Y-40424500D01*
X56524674Y-40424500D01*
X55499126Y-40424500D01*
X55432087Y-40404815D01*
X55399860Y-40374812D01*
X55357187Y-40317809D01*
X55242093Y-40231649D01*
X55242086Y-40231645D01*
X55107379Y-40181403D01*
X55107372Y-40181401D01*
X55047844Y-40175000D01*
X53952155Y-40175000D01*
X53892627Y-40181401D01*
X53892620Y-40181403D01*
X53757913Y-40231645D01*
X53757906Y-40231649D01*
X53642814Y-40317808D01*
X53642807Y-40317814D01*
X53600139Y-40374812D01*
X53544205Y-40416682D01*
X53500873Y-40424500D01*
X52475323Y-40424500D01*
X52402264Y-40439032D01*
X52402260Y-40439033D01*
X52318890Y-40494739D01*
X52252212Y-40515616D01*
X52184832Y-40497131D01*
X52181110Y-40494739D01*
X52100627Y-40440963D01*
X52097740Y-40439034D01*
X52097739Y-40439033D01*
X52087585Y-40432249D01*
X52089913Y-40428763D01*
X52053437Y-40399332D01*
X52031411Y-40333025D01*
X52035561Y-40296576D01*
X52036326Y-40293716D01*
X52036330Y-40293709D01*
X52055250Y-40150000D01*
X52036330Y-40006291D01*
X51980861Y-39872375D01*
X51892621Y-39757379D01*
X51777625Y-39669139D01*
X51777624Y-39669138D01*
X51777622Y-39669137D01*
X51643712Y-39613671D01*
X51643710Y-39613670D01*
X51643709Y-39613670D01*
X51571854Y-39604210D01*
X51500001Y-39594750D01*
X51499999Y-39594750D01*
X51356291Y-39613670D01*
X51356287Y-39613671D01*
X51222377Y-39669137D01*
X51107379Y-39757379D01*
X51019137Y-39872377D01*
X50963671Y-40006287D01*
X50963670Y-40006291D01*
X50944750Y-40149999D01*
X50944750Y-40150000D01*
X50963670Y-40293710D01*
X50964441Y-40296587D01*
X50964380Y-40299106D01*
X50964731Y-40301766D01*
X50964316Y-40301820D01*
X50962774Y-40366436D01*
X50923608Y-40424297D01*
X50911836Y-40431383D01*
X50912415Y-40432249D01*
X50902260Y-40439033D01*
X50902260Y-40439034D01*
X50899373Y-40440963D01*
X50818890Y-40494739D01*
X50752212Y-40515616D01*
X50684832Y-40497131D01*
X50681110Y-40494739D01*
X50597739Y-40439033D01*
X50597735Y-40439032D01*
X50524677Y-40424500D01*
X50524674Y-40424500D01*
X49475326Y-40424500D01*
X49475321Y-40424500D01*
X49398191Y-40439842D01*
X49328599Y-40433615D01*
X49273422Y-40390751D01*
X49250178Y-40324861D01*
X49250000Y-40318225D01*
X49250000Y-39827172D01*
X49249999Y-39827155D01*
X49243598Y-39767627D01*
X49243596Y-39767620D01*
X49193354Y-39632913D01*
X49193350Y-39632906D01*
X49107191Y-39517814D01*
X49107185Y-39517807D01*
X49050188Y-39475139D01*
X49008318Y-39419205D01*
X49000500Y-39375873D01*
X49000500Y-39349500D01*
X49020185Y-39282461D01*
X49072989Y-39236706D01*
X49124500Y-39225500D01*
X49221142Y-39225500D01*
X49221144Y-39225500D01*
X49310288Y-39201614D01*
X49322608Y-39194501D01*
X49390212Y-39155470D01*
X49457835Y-39087846D01*
X49519154Y-39054362D01*
X49588846Y-39059346D01*
X49643887Y-39100039D01*
X49657379Y-39117621D01*
X49772375Y-39205861D01*
X49906291Y-39261330D01*
X50033280Y-39278048D01*
X50049999Y-39280250D01*
X50050000Y-39280250D01*
X50050001Y-39280250D01*
X50064977Y-39278278D01*
X50193709Y-39261330D01*
X50327625Y-39205861D01*
X50442621Y-39117621D01*
X50530861Y-39002625D01*
X50586330Y-38868709D01*
X50605250Y-38725000D01*
X50602413Y-38703454D01*
X50613178Y-38634419D01*
X50617960Y-38625275D01*
X50626614Y-38610288D01*
X50630436Y-38596023D01*
X50633917Y-38583035D01*
X50639986Y-38560381D01*
X50650500Y-38521144D01*
X50650500Y-35163856D01*
X50626614Y-35074712D01*
X50623773Y-35069791D01*
X50580473Y-34994794D01*
X50580470Y-34994791D01*
X50580469Y-34994788D01*
X50515212Y-34929531D01*
X49680212Y-34094530D01*
X49680211Y-34094529D01*
X49680208Y-34094527D01*
X49600289Y-34048386D01*
X49595270Y-34047041D01*
X49586576Y-34044712D01*
X49586575Y-34044711D01*
X49531355Y-34029915D01*
X49511144Y-34024500D01*
X49511143Y-34024500D01*
X49124500Y-34024500D01*
X49057461Y-34004815D01*
X49011706Y-33952011D01*
X49000500Y-33900500D01*
X49000500Y-33850323D01*
X49000499Y-33850321D01*
X48985967Y-33777264D01*
X48985966Y-33777262D01*
X48985966Y-33777260D01*
X48985964Y-33777258D01*
X48985964Y-33777256D01*
X48930261Y-33693890D01*
X48909383Y-33627213D01*
X48927868Y-33559833D01*
X48930261Y-33556110D01*
X48985964Y-33472743D01*
X48985964Y-33472742D01*
X48985966Y-33472740D01*
X49000500Y-33399674D01*
X49000500Y-32374125D01*
X49020185Y-32307086D01*
X49050189Y-32274858D01*
X49107189Y-32232187D01*
X49107190Y-32232186D01*
X49193352Y-32117088D01*
X49193354Y-32117086D01*
X49243596Y-31982379D01*
X49243598Y-31982372D01*
X49249999Y-31922844D01*
X49250000Y-31922827D01*
X49250000Y-30899000D01*
X49269685Y-30831961D01*
X49322489Y-30786206D01*
X49374000Y-30775000D01*
X59626000Y-30775000D01*
X59693039Y-30794685D01*
G37*
%TD.AperFunction*%
%TA.AperFunction,Conductor*%
G36*
X49335495Y-34745185D02*
G01*
X49356137Y-34761819D01*
X49913181Y-35318862D01*
X49946666Y-35380185D01*
X49949500Y-35406543D01*
X49949500Y-36769397D01*
X49929815Y-36836436D01*
X49877011Y-36882191D01*
X49807853Y-36892135D01*
X49778049Y-36883959D01*
X49713877Y-36857379D01*
X49668709Y-36838670D01*
X49596854Y-36829210D01*
X49525001Y-36819750D01*
X49524999Y-36819750D01*
X49381291Y-36838670D01*
X49286055Y-36878117D01*
X49216586Y-36885585D01*
X49154107Y-36854309D01*
X49118455Y-36794219D01*
X49120950Y-36724394D01*
X49139338Y-36689243D01*
X49193352Y-36617089D01*
X49193354Y-36617086D01*
X49243596Y-36482379D01*
X49243598Y-36482372D01*
X49249999Y-36422844D01*
X49250000Y-36422827D01*
X49250000Y-35327172D01*
X49249999Y-35327155D01*
X49243598Y-35267627D01*
X49243596Y-35267620D01*
X49193354Y-35132913D01*
X49193350Y-35132906D01*
X49107191Y-35017814D01*
X49107185Y-35017807D01*
X49050188Y-34975139D01*
X49008318Y-34919205D01*
X49000500Y-34875873D01*
X49000500Y-34849500D01*
X49020185Y-34782461D01*
X49072989Y-34736706D01*
X49124500Y-34725500D01*
X49268456Y-34725500D01*
X49335495Y-34745185D01*
G37*
%TD.AperFunction*%
%TA.AperFunction,Conductor*%
G36*
X66984615Y-32876512D02*
G01*
X67029949Y-32929677D01*
X67040750Y-32980292D01*
X67040750Y-34261442D01*
X67021065Y-34328481D01*
X67004431Y-34349123D01*
X66700180Y-34653373D01*
X66638857Y-34686858D01*
X66569165Y-34681874D01*
X66524815Y-34653371D01*
X66508263Y-34636818D01*
X66474780Y-34575493D01*
X66471947Y-34549139D01*
X66471947Y-33626359D01*
X66491632Y-33559320D01*
X66544436Y-33513565D01*
X66613594Y-33503621D01*
X66643400Y-33511798D01*
X66699900Y-33535201D01*
X66774998Y-33545087D01*
X66775000Y-33545086D01*
X66775000Y-33018357D01*
X66786618Y-32965952D01*
X66786982Y-32965173D01*
X66804368Y-32927886D01*
X66850540Y-32875448D01*
X66917734Y-32856296D01*
X66984615Y-32876512D01*
G37*
%TD.AperFunction*%
%TA.AperFunction,Conductor*%
G36*
X82243332Y-32030626D02*
G01*
X82287680Y-32059127D01*
X82465871Y-32237318D01*
X82499356Y-32298641D01*
X82494372Y-32368333D01*
X82465871Y-32412680D01*
X81740370Y-33138181D01*
X81679047Y-33171666D01*
X81652690Y-33174500D01*
X81561819Y-33174500D01*
X81510613Y-33184685D01*
X81486650Y-33189452D01*
X81486649Y-33189452D01*
X81474672Y-33191835D01*
X81473816Y-33187531D01*
X81427843Y-33192420D01*
X81425355Y-33191688D01*
X81425327Y-33191834D01*
X81338185Y-33174500D01*
X81296308Y-33174500D01*
X81229269Y-33154815D01*
X81183514Y-33102011D01*
X81173570Y-33032853D01*
X81202595Y-32969297D01*
X81208627Y-32962819D01*
X82112318Y-32059127D01*
X82173641Y-32025642D01*
X82243332Y-32030626D01*
G37*
%TD.AperFunction*%
%TA.AperFunction,Conductor*%
G36*
X77408779Y-31726289D02*
G01*
X77446191Y-31751962D01*
X77738181Y-32043952D01*
X77771666Y-32105275D01*
X77774500Y-32131633D01*
X77774500Y-32644714D01*
X77754815Y-32711753D01*
X77702011Y-32757508D01*
X77632853Y-32767452D01*
X77576189Y-32743981D01*
X77563302Y-32734334D01*
X77492331Y-32681205D01*
X77492329Y-32681204D01*
X77492328Y-32681203D01*
X77357482Y-32630909D01*
X77357483Y-32630909D01*
X77297883Y-32624502D01*
X77297881Y-32624501D01*
X77297873Y-32624501D01*
X77297865Y-32624501D01*
X77221544Y-32624501D01*
X77154505Y-32604816D01*
X77133863Y-32588182D01*
X76821910Y-32276228D01*
X76788425Y-32214905D01*
X76785591Y-32188547D01*
X76785591Y-32063706D01*
X76805276Y-31996667D01*
X76858080Y-31950912D01*
X76894653Y-31940609D01*
X76899675Y-31939999D01*
X77044681Y-31904258D01*
X77176923Y-31834852D01*
X77276282Y-31746828D01*
X77339515Y-31717106D01*
X77408779Y-31726289D01*
G37*
%TD.AperFunction*%
%TA.AperFunction,Conductor*%
G36*
X71404310Y-24210135D02*
G01*
X71458188Y-24254620D01*
X71479463Y-24321172D01*
X71479498Y-24324123D01*
X71479498Y-26781236D01*
X71459813Y-26848275D01*
X71407009Y-26894030D01*
X71337851Y-26903974D01*
X71278283Y-26876770D01*
X71277800Y-26877401D01*
X71275059Y-26875298D01*
X71274295Y-26874949D01*
X71272845Y-26873599D01*
X71271355Y-26872455D01*
X71271353Y-26872453D01*
X71156357Y-26784213D01*
X71156356Y-26784212D01*
X71156354Y-26784211D01*
X71022444Y-26728745D01*
X71022442Y-26728744D01*
X71022441Y-26728744D01*
X70933588Y-26717046D01*
X70878733Y-26709824D01*
X70878731Y-26709824D01*
X70735023Y-26728744D01*
X70644975Y-26766042D01*
X70575506Y-26773509D01*
X70513027Y-26742234D01*
X70509843Y-26739161D01*
X69711817Y-25941135D01*
X69678332Y-25879812D01*
X69675498Y-25853454D01*
X69675498Y-25359556D01*
X69695183Y-25292517D01*
X69696356Y-25290726D01*
X69710964Y-25268864D01*
X69725498Y-25195798D01*
X69725498Y-24695124D01*
X69745183Y-24628085D01*
X69797987Y-24582330D01*
X69849498Y-24571124D01*
X69850998Y-24571124D01*
X69918037Y-24590809D01*
X69963792Y-24643613D01*
X69974998Y-24695124D01*
X69974998Y-25671124D01*
X70022826Y-25671124D01*
X70022842Y-25671123D01*
X70082370Y-25664722D01*
X70082377Y-25664720D01*
X70217084Y-25614478D01*
X70217091Y-25614474D01*
X70332185Y-25528314D01*
X70332188Y-25528311D01*
X70418348Y-25413217D01*
X70418352Y-25413210D01*
X70468594Y-25278503D01*
X70468596Y-25278496D01*
X70474997Y-25218968D01*
X70474998Y-25218951D01*
X70474998Y-24860624D01*
X70494683Y-24793585D01*
X70547487Y-24747830D01*
X70598998Y-24736624D01*
X70750762Y-24736624D01*
X70750764Y-24736624D01*
X70897133Y-24697405D01*
X71028363Y-24621639D01*
X71135513Y-24514489D01*
X71211279Y-24383259D01*
X71235723Y-24292028D01*
X71272088Y-24232369D01*
X71334935Y-24201840D01*
X71404310Y-24210135D01*
G37*
%TD.AperFunction*%
%TA.AperFunction,Conductor*%
G36*
X70689471Y-17716522D02*
G01*
X70735226Y-17769326D01*
X70745170Y-17838484D01*
X70736993Y-17868289D01*
X70699585Y-17958599D01*
X70699582Y-17958611D01*
X70664998Y-18132477D01*
X70664998Y-18271124D01*
X71314998Y-18271124D01*
X71314998Y-18771124D01*
X70664998Y-18771124D01*
X70664998Y-18909770D01*
X70699582Y-19083636D01*
X70699584Y-19083644D01*
X70767426Y-19247431D01*
X70767431Y-19247440D01*
X70865921Y-19394840D01*
X70865924Y-19394844D01*
X70991277Y-19520197D01*
X70991281Y-19520200D01*
X71138681Y-19618690D01*
X71138691Y-19618695D01*
X71302474Y-19686536D01*
X71302481Y-19686539D01*
X71314998Y-19689028D01*
X71314998Y-18870852D01*
X71353058Y-18962738D01*
X71423384Y-19033064D01*
X71515270Y-19071124D01*
X71614726Y-19071124D01*
X71706612Y-19033064D01*
X71776938Y-18962738D01*
X71814998Y-18870852D01*
X71814998Y-19689027D01*
X71827514Y-19686539D01*
X71827521Y-19686536D01*
X71991304Y-19618695D01*
X71991308Y-19618693D01*
X72056605Y-19575063D01*
X72123283Y-19554185D01*
X72190663Y-19572669D01*
X72237353Y-19624647D01*
X72249497Y-19678165D01*
X72249497Y-22039808D01*
X72229812Y-22106847D01*
X72177008Y-22152602D01*
X72107850Y-22162546D01*
X72044294Y-22133521D01*
X72037816Y-22127489D01*
X71665477Y-21755150D01*
X71665475Y-21755148D01*
X71628363Y-21733721D01*
X71591253Y-21712295D01*
X71549859Y-21701204D01*
X71508466Y-21690113D01*
X71292853Y-21690113D01*
X67027656Y-21690113D01*
X66944871Y-21712295D01*
X66944864Y-21712298D01*
X66870653Y-21755143D01*
X66870645Y-21755149D01*
X66402116Y-22223677D01*
X66340793Y-22257162D01*
X66298250Y-22258935D01*
X66274999Y-22255874D01*
X66274997Y-22255874D01*
X66131289Y-22274794D01*
X66131285Y-22274795D01*
X65997374Y-22330262D01*
X65997372Y-22330263D01*
X65950484Y-22366242D01*
X65885315Y-22391436D01*
X65816870Y-22377398D01*
X65799512Y-22366242D01*
X65752623Y-22330263D01*
X65752621Y-22330262D01*
X65618710Y-22274795D01*
X65618708Y-22274794D01*
X65618707Y-22274794D01*
X65546852Y-22265334D01*
X65474999Y-22255874D01*
X65474997Y-22255874D01*
X65331289Y-22274794D01*
X65331285Y-22274795D01*
X65197374Y-22330262D01*
X65197372Y-22330263D01*
X65150484Y-22366242D01*
X65085315Y-22391436D01*
X65016870Y-22377398D01*
X64999512Y-22366242D01*
X64952623Y-22330263D01*
X64952621Y-22330262D01*
X64818710Y-22274795D01*
X64818708Y-22274794D01*
X64818707Y-22274794D01*
X64746852Y-22265334D01*
X64674999Y-22255874D01*
X64674997Y-22255874D01*
X64531289Y-22274794D01*
X64531285Y-22274795D01*
X64397375Y-22330261D01*
X64288764Y-22413602D01*
X64282377Y-22418503D01*
X64194922Y-22532477D01*
X64194135Y-22533502D01*
X64138659Y-22667435D01*
X64094818Y-22721839D01*
X64065052Y-22737025D01*
X64009952Y-22756305D01*
X63940173Y-22759866D01*
X63888021Y-22729991D01*
X63899824Y-22743613D01*
X63907180Y-22789753D01*
X64168182Y-23050755D01*
X64189201Y-23082210D01*
X64190072Y-23081708D01*
X64194136Y-23088747D01*
X64194137Y-23088749D01*
X64282377Y-23203745D01*
X64397373Y-23291985D01*
X64397378Y-23291987D01*
X64404409Y-23296046D01*
X64403905Y-23296917D01*
X64435367Y-23317939D01*
X64540870Y-23423442D01*
X64574355Y-23484765D01*
X64569371Y-23554457D01*
X64540870Y-23598804D01*
X64362678Y-23776996D01*
X64301355Y-23810481D01*
X64231663Y-23805497D01*
X64187316Y-23776996D01*
X63881662Y-23471342D01*
X64074998Y-23471342D01*
X64074998Y-23550906D01*
X64105446Y-23624415D01*
X64161707Y-23680676D01*
X64235216Y-23711124D01*
X64314780Y-23711124D01*
X64388289Y-23680676D01*
X64444550Y-23624415D01*
X64474998Y-23550906D01*
X64474998Y-23471342D01*
X64444550Y-23397833D01*
X64388289Y-23341572D01*
X64314780Y-23311124D01*
X64235216Y-23311124D01*
X64161707Y-23341572D01*
X64105446Y-23397833D01*
X64074998Y-23471342D01*
X63881662Y-23471342D01*
X63581444Y-23171124D01*
X63194998Y-23171124D01*
X63194998Y-22671124D01*
X63787030Y-22671124D01*
X63854069Y-22690809D01*
X63873145Y-22712824D01*
X63847319Y-22663143D01*
X63844998Y-22639263D01*
X63844998Y-22532481D01*
X63844997Y-22532477D01*
X63810413Y-22358611D01*
X63810411Y-22358603D01*
X63742569Y-22194816D01*
X63742564Y-22194807D01*
X63644074Y-22047407D01*
X63644071Y-22047403D01*
X63518718Y-21922050D01*
X63518714Y-21922047D01*
X63371314Y-21823557D01*
X63371305Y-21823552D01*
X63207517Y-21755709D01*
X63194998Y-21753218D01*
X63194998Y-22571396D01*
X63156938Y-22479510D01*
X63086612Y-22409184D01*
X62994726Y-22371124D01*
X62895270Y-22371124D01*
X62803384Y-22409184D01*
X62733058Y-22479510D01*
X62694998Y-22571396D01*
X62694998Y-21753219D01*
X62694997Y-21753218D01*
X62682478Y-21755709D01*
X62518690Y-21823552D01*
X62518681Y-21823557D01*
X62371281Y-21922047D01*
X62371277Y-21922050D01*
X62245924Y-22047403D01*
X62245921Y-22047407D01*
X62147431Y-22194807D01*
X62147426Y-22194817D01*
X62139059Y-22215018D01*
X62095218Y-22269421D01*
X62028924Y-22291486D01*
X61961224Y-22274207D01*
X61913614Y-22223069D01*
X61900498Y-22167565D01*
X61900498Y-19678165D01*
X61920183Y-19611126D01*
X61972987Y-19565371D01*
X62042145Y-19555427D01*
X62093389Y-19575063D01*
X62158681Y-19618690D01*
X62158691Y-19618695D01*
X62322474Y-19686536D01*
X62322481Y-19686539D01*
X62334998Y-19689028D01*
X62334998Y-18870852D01*
X62373058Y-18962738D01*
X62443384Y-19033064D01*
X62535270Y-19071124D01*
X62634726Y-19071124D01*
X62726612Y-19033064D01*
X62796938Y-18962738D01*
X62834998Y-18870852D01*
X62834998Y-19689027D01*
X62847514Y-19686539D01*
X62847521Y-19686536D01*
X63011304Y-19618695D01*
X63011314Y-19618690D01*
X63158714Y-19520200D01*
X63158718Y-19520197D01*
X63284071Y-19394844D01*
X63284074Y-19394840D01*
X63382564Y-19247440D01*
X63382569Y-19247431D01*
X63450411Y-19083644D01*
X63450413Y-19083636D01*
X63484997Y-18909770D01*
X63484998Y-18909767D01*
X63484998Y-18771124D01*
X62834998Y-18771124D01*
X62834998Y-18271124D01*
X63484998Y-18271124D01*
X63484998Y-18132481D01*
X63484997Y-18132477D01*
X63450413Y-17958611D01*
X63450410Y-17958599D01*
X63413003Y-17868289D01*
X63405534Y-17798820D01*
X63436809Y-17736341D01*
X63496899Y-17700689D01*
X63527564Y-17696837D01*
X70622432Y-17696837D01*
X70689471Y-17716522D01*
G37*
%TD.AperFunction*%
%TA.AperFunction,Conductor*%
G36*
X70954998Y-23171124D02*
G01*
X70568551Y-23171124D01*
X69962679Y-23776996D01*
X69901356Y-23810481D01*
X69831664Y-23805497D01*
X69787317Y-23776996D01*
X69609126Y-23598805D01*
X69575641Y-23537482D01*
X69580371Y-23471342D01*
X69674998Y-23471342D01*
X69674998Y-23550906D01*
X69705446Y-23624415D01*
X69761707Y-23680676D01*
X69835216Y-23711124D01*
X69914780Y-23711124D01*
X69988289Y-23680676D01*
X70044550Y-23624415D01*
X70074998Y-23550906D01*
X70074998Y-23471342D01*
X70044550Y-23397833D01*
X69988289Y-23341572D01*
X69914780Y-23311124D01*
X69835216Y-23311124D01*
X69761707Y-23341572D01*
X69705446Y-23397833D01*
X69674998Y-23471342D01*
X69580371Y-23471342D01*
X69580625Y-23467790D01*
X69609125Y-23423444D01*
X69714627Y-23317940D01*
X69746085Y-23296924D01*
X69745581Y-23296051D01*
X69752614Y-23291990D01*
X69752617Y-23291987D01*
X69752623Y-23291985D01*
X69867619Y-23203745D01*
X69955859Y-23088749D01*
X69955862Y-23088741D01*
X69959920Y-23081714D01*
X69960792Y-23082217D01*
X69981813Y-23050754D01*
X70243180Y-22789387D01*
X70251799Y-22740185D01*
X70299148Y-22688806D01*
X70362964Y-22671124D01*
X70954998Y-22671124D01*
X70954998Y-23171124D01*
G37*
%TD.AperFunction*%
%TA.AperFunction,Conductor*%
G36*
X71476664Y-22720628D02*
G01*
X71479498Y-22746986D01*
X71479498Y-23047124D01*
X71459813Y-23114163D01*
X71454998Y-23118335D01*
X71454998Y-22680949D01*
X71476664Y-22720628D01*
G37*
%TD.AperFunction*%
%TA.AperFunction,Conductor*%
G36*
X71346463Y-22360798D02*
G01*
X71367105Y-22377432D01*
X71418679Y-22429006D01*
X71452164Y-22490329D01*
X71454998Y-22516687D01*
X71454998Y-22571396D01*
X71416938Y-22479510D01*
X71346612Y-22409184D01*
X71254726Y-22371124D01*
X71155270Y-22371124D01*
X71063384Y-22409184D01*
X70993058Y-22479510D01*
X70954998Y-22571396D01*
X70954998Y-22465113D01*
X70974683Y-22398074D01*
X71027487Y-22352319D01*
X71078998Y-22341113D01*
X71207147Y-22341113D01*
X71279424Y-22341113D01*
X71346463Y-22360798D01*
G37*
%TD.AperFunction*%
%TD*%
M02*
