%TF.GenerationSoftware,KiCad,Pcbnew,9.0.3*%
%TF.CreationDate,2025-09-23T14:50:51-07:00*%
%TF.ProjectId,PGS_USBW_Board,5047535f-5553-4425-975f-426f6172642e,rev?*%
%TF.SameCoordinates,Original*%
%TF.FileFunction,Legend,Bot*%
%TF.FilePolarity,Positive*%
%FSLAX46Y46*%
G04 Gerber Fmt 4.6, Leading zero omitted, Abs format (unit mm)*
G04 Created by KiCad (PCBNEW 9.0.3) date 2025-09-23 14:50:51*
%MOMM*%
%LPD*%
G01*
G04 APERTURE LIST*
%ADD10C,0.100000*%
%ADD11C,0.187500*%
%ADD12C,0.120000*%
G04 APERTURE END LIST*
D10*
X87440000Y-37800000D02*
X86143569Y-36672266D01*
D11*
G36*
X67628149Y-21377492D02*
G01*
X67585627Y-21379026D01*
X67550700Y-21383905D01*
X67529106Y-21390042D01*
X67511343Y-21398491D01*
X67499034Y-21407683D01*
X67489247Y-21418805D01*
X67476985Y-21446221D01*
X67472719Y-21485249D01*
X67474149Y-21507659D01*
X67478299Y-21527794D01*
X67484793Y-21545237D01*
X67493493Y-21560366D01*
X67504050Y-21572966D01*
X67516372Y-21583184D01*
X67545678Y-21596255D01*
X67571042Y-21599279D01*
X67593696Y-21597794D01*
X67613565Y-21593256D01*
X67628534Y-21586752D01*
X67641379Y-21577780D01*
X67659715Y-21553985D01*
X67670613Y-21519643D01*
X67673487Y-21482730D01*
X67807667Y-21482730D01*
X67806213Y-21514491D01*
X67801890Y-21544240D01*
X67795076Y-21570906D01*
X67785718Y-21595552D01*
X67774290Y-21617415D01*
X67760581Y-21637246D01*
X67744981Y-21654647D01*
X67727288Y-21669966D01*
X67685938Y-21694045D01*
X67636064Y-21709221D01*
X67577316Y-21714547D01*
X67545156Y-21713095D01*
X67514681Y-21708798D01*
X67486606Y-21701913D01*
X67460411Y-21692459D01*
X67436780Y-21680830D01*
X67415185Y-21666905D01*
X67396160Y-21651145D01*
X67379309Y-21633329D01*
X67364959Y-21613862D01*
X67352930Y-21592538D01*
X67343380Y-21569570D01*
X67336334Y-21544898D01*
X67331885Y-21518472D01*
X67330174Y-21490457D01*
X67330157Y-21487355D01*
X67331604Y-21458523D01*
X67335871Y-21432077D01*
X67342538Y-21408877D01*
X67351615Y-21387885D01*
X67362724Y-21369496D01*
X67375951Y-21353218D01*
X67408459Y-21326940D01*
X67432281Y-21314935D01*
X67401334Y-21290620D01*
X67376568Y-21256823D01*
X67359525Y-21214321D01*
X67352340Y-21165588D01*
X67352231Y-21158681D01*
X67353670Y-21135096D01*
X67357886Y-21112655D01*
X67374339Y-21071013D01*
X67401038Y-21034475D01*
X67437445Y-21004248D01*
X67482615Y-20981972D01*
X67508055Y-20974362D01*
X67534907Y-20969411D01*
X67569989Y-20967164D01*
X67598513Y-20968611D01*
X67625636Y-20972878D01*
X67651070Y-20979802D01*
X67674875Y-20989292D01*
X67696784Y-21001154D01*
X67716841Y-21015335D01*
X67734837Y-21031639D01*
X67750759Y-21050030D01*
X67764460Y-21070351D01*
X67775861Y-21092540D01*
X67784851Y-21116518D01*
X67791300Y-21142159D01*
X67796127Y-21193760D01*
X67666159Y-21193760D01*
X67664730Y-21170384D01*
X67660591Y-21149498D01*
X67654156Y-21131606D01*
X67645559Y-21116221D01*
X67635264Y-21103677D01*
X67623289Y-21093658D01*
X67595307Y-21081509D01*
X67575209Y-21079317D01*
X67555098Y-21080775D01*
X67537746Y-21085122D01*
X67524363Y-21091502D01*
X67513105Y-21100177D01*
X67496990Y-21123670D01*
X67487969Y-21158172D01*
X67486412Y-21184967D01*
X67488090Y-21206428D01*
X67493975Y-21226259D01*
X67501321Y-21238891D01*
X67511822Y-21250188D01*
X67524520Y-21259140D01*
X67540544Y-21266637D01*
X67585032Y-21276737D01*
X67628149Y-21279031D01*
X67628149Y-21377492D01*
G37*
G36*
X67167629Y-21691100D02*
G01*
X67167629Y-21546431D01*
X67316510Y-21546431D01*
X67316510Y-21691100D01*
X67167629Y-21691100D01*
G37*
G36*
X66973822Y-21377492D02*
G01*
X66931301Y-21379026D01*
X66896374Y-21383905D01*
X66874780Y-21390042D01*
X66857016Y-21398491D01*
X66844708Y-21407683D01*
X66834920Y-21418805D01*
X66822658Y-21446221D01*
X66818392Y-21485249D01*
X66819822Y-21507659D01*
X66823972Y-21527794D01*
X66830466Y-21545237D01*
X66839166Y-21560366D01*
X66849723Y-21572966D01*
X66862045Y-21583184D01*
X66891351Y-21596255D01*
X66916715Y-21599279D01*
X66939369Y-21597794D01*
X66959239Y-21593256D01*
X66974208Y-21586752D01*
X66987052Y-21577780D01*
X67005388Y-21553985D01*
X67016287Y-21519643D01*
X67019160Y-21482730D01*
X67153341Y-21482730D01*
X67151886Y-21514491D01*
X67147563Y-21544240D01*
X67140750Y-21570906D01*
X67131392Y-21595552D01*
X67119963Y-21617415D01*
X67106255Y-21637246D01*
X67090655Y-21654647D01*
X67072962Y-21669966D01*
X67031611Y-21694045D01*
X66981737Y-21709221D01*
X66922989Y-21714547D01*
X66890829Y-21713095D01*
X66860355Y-21708798D01*
X66832280Y-21701913D01*
X66806084Y-21692459D01*
X66782454Y-21680830D01*
X66760858Y-21666905D01*
X66741834Y-21651145D01*
X66724982Y-21633329D01*
X66710632Y-21613862D01*
X66698603Y-21592538D01*
X66689053Y-21569570D01*
X66682008Y-21544898D01*
X66677558Y-21518472D01*
X66675847Y-21490457D01*
X66675831Y-21487355D01*
X66677278Y-21458523D01*
X66681545Y-21432077D01*
X66688211Y-21408877D01*
X66697288Y-21387885D01*
X66708398Y-21369496D01*
X66721625Y-21353218D01*
X66754132Y-21326940D01*
X66777955Y-21314935D01*
X66747008Y-21290620D01*
X66722242Y-21256823D01*
X66705198Y-21214321D01*
X66698014Y-21165588D01*
X66697904Y-21158681D01*
X66699344Y-21135096D01*
X66703559Y-21112655D01*
X66720012Y-21071013D01*
X66746711Y-21034475D01*
X66783119Y-21004248D01*
X66828288Y-20981972D01*
X66853728Y-20974362D01*
X66880581Y-20969411D01*
X66915662Y-20967164D01*
X66944186Y-20968611D01*
X66971309Y-20972878D01*
X66996744Y-20979802D01*
X67020548Y-20989292D01*
X67042458Y-21001154D01*
X67062515Y-21015335D01*
X67080510Y-21031639D01*
X67096433Y-21050030D01*
X67110134Y-21070351D01*
X67121535Y-21092540D01*
X67130525Y-21116518D01*
X67136973Y-21142159D01*
X67141800Y-21193760D01*
X67011833Y-21193760D01*
X67010404Y-21170384D01*
X67006264Y-21149498D01*
X66999830Y-21131606D01*
X66991232Y-21116221D01*
X66980937Y-21103677D01*
X66968963Y-21093658D01*
X66940980Y-21081509D01*
X66920883Y-21079317D01*
X66900772Y-21080775D01*
X66883420Y-21085122D01*
X66870036Y-21091502D01*
X66858778Y-21100177D01*
X66842663Y-21123670D01*
X66833643Y-21158172D01*
X66832085Y-21184967D01*
X66833763Y-21206428D01*
X66839648Y-21226259D01*
X66846994Y-21238891D01*
X66857496Y-21250188D01*
X66870193Y-21259140D01*
X66886218Y-21266637D01*
X66930705Y-21276737D01*
X66973822Y-21279031D01*
X66973822Y-21377492D01*
G37*
G36*
X66284874Y-21691100D02*
G01*
X66047653Y-20990611D01*
X66201984Y-20990611D01*
X66352102Y-21476685D01*
X66503227Y-20990611D01*
X66661817Y-20990611D01*
X66424551Y-21691100D01*
X66284874Y-21691100D01*
G37*
G36*
X65616443Y-21691100D02*
G01*
X65616443Y-20990611D01*
X65765324Y-20990611D01*
X65765324Y-21691100D01*
X65616443Y-21691100D01*
G37*
G36*
X64997974Y-21691100D02*
G01*
X64997974Y-20990611D01*
X65137421Y-20990611D01*
X65137421Y-21435515D01*
X65412332Y-20990611D01*
X65568953Y-20990611D01*
X65568953Y-21691100D01*
X65430559Y-21691100D01*
X65430559Y-21226183D01*
X65134674Y-21691100D01*
X64997974Y-21691100D01*
G37*
G36*
X62009752Y-27104508D02*
G01*
X62017642Y-27132323D01*
X62027891Y-27157156D01*
X62039386Y-27177255D01*
X62052896Y-27194717D01*
X62067457Y-27208684D01*
X62083825Y-27220215D01*
X62121093Y-27235533D01*
X62167151Y-27240979D01*
X62191080Y-27239524D01*
X62213174Y-27235202D01*
X62232646Y-27228421D01*
X62250432Y-27219116D01*
X62280704Y-27193440D01*
X62304944Y-27157388D01*
X62323010Y-27109042D01*
X62333718Y-27045902D01*
X62335816Y-26996752D01*
X62334344Y-26955805D01*
X62329903Y-26918129D01*
X62323234Y-26886765D01*
X62314036Y-26858376D01*
X62303392Y-26835130D01*
X62290587Y-26814563D01*
X62276731Y-26797932D01*
X62260972Y-26783771D01*
X62244058Y-26772580D01*
X62225362Y-26763794D01*
X62182733Y-26753721D01*
X62159824Y-26752524D01*
X62118821Y-26758267D01*
X62081245Y-26775150D01*
X62064372Y-26787553D01*
X62049080Y-26802472D01*
X62035645Y-26819731D01*
X62024211Y-26839302D01*
X62009752Y-26878507D01*
X61861053Y-26878507D01*
X61865374Y-26849011D01*
X61872483Y-26820583D01*
X61882254Y-26793528D01*
X61894648Y-26767860D01*
X61909445Y-26743966D01*
X61926683Y-26721755D01*
X61946046Y-26701622D01*
X61967665Y-26683442D01*
X61991175Y-26667552D01*
X62016763Y-26653869D01*
X62044082Y-26642642D01*
X62073319Y-26633868D01*
X62104206Y-26627723D01*
X62136870Y-26624285D01*
X62160877Y-26623564D01*
X62194997Y-26625019D01*
X62227551Y-26629343D01*
X62257876Y-26636304D01*
X62286580Y-26645903D01*
X62313251Y-26657898D01*
X62338235Y-26672346D01*
X62382738Y-26708189D01*
X62420101Y-26753367D01*
X62449998Y-26808131D01*
X62471722Y-26872879D01*
X62484222Y-26947974D01*
X62486804Y-27005132D01*
X62485358Y-27046389D01*
X62481102Y-27085249D01*
X62474274Y-27121194D01*
X62464947Y-27154782D01*
X62453384Y-27185658D01*
X62439604Y-27214204D01*
X62423823Y-27240253D01*
X62406071Y-27263976D01*
X62386438Y-27285381D01*
X62365049Y-27304431D01*
X62316971Y-27335658D01*
X62262117Y-27357411D01*
X62200795Y-27369103D01*
X62162983Y-27370947D01*
X62130617Y-27369497D01*
X62099753Y-27365212D01*
X62070684Y-27358257D01*
X62043195Y-27348701D01*
X62017368Y-27336652D01*
X61993221Y-27322194D01*
X61949879Y-27286124D01*
X61913485Y-27240650D01*
X61884690Y-27185818D01*
X61864467Y-27121763D01*
X61860916Y-27104508D01*
X62009752Y-27104508D01*
G37*
G36*
X61340725Y-27347500D02*
G01*
X61340725Y-27217532D01*
X61686160Y-27217532D01*
X61686160Y-26647011D01*
X61835042Y-26647011D01*
X61835042Y-27347500D01*
X61340725Y-27347500D01*
G37*
G36*
X60699633Y-27347500D02*
G01*
X60981871Y-26923937D01*
X60705128Y-26647011D01*
X60898294Y-26647011D01*
X61162901Y-26928425D01*
X61162901Y-26647011D01*
X61309675Y-26647011D01*
X61309675Y-27347500D01*
X61162901Y-27347500D01*
X61162901Y-27109225D01*
X61086880Y-27034258D01*
X60880617Y-27347500D01*
X60699633Y-27347500D01*
G37*
G36*
X62012811Y-29322500D02*
G01*
X62012811Y-29192532D01*
X62358247Y-29192532D01*
X62358247Y-28622011D01*
X62507128Y-28622011D01*
X62507128Y-29322500D01*
X62012811Y-29322500D01*
G37*
G36*
X62003377Y-29322500D02*
G01*
X61845887Y-29322500D01*
X61796565Y-29178427D01*
X61541438Y-29178427D01*
X61497337Y-29322500D01*
X61335633Y-29322500D01*
X61429565Y-29055786D01*
X61584394Y-29055786D01*
X61757776Y-29055786D01*
X61670037Y-28782963D01*
X61584394Y-29055786D01*
X61429565Y-29055786D01*
X61582333Y-28622011D01*
X61753517Y-28622011D01*
X62003377Y-29322500D01*
G37*
G36*
X61145306Y-29322500D02*
G01*
X61145306Y-28746758D01*
X60934281Y-28746758D01*
X60934281Y-28622011D01*
X61504206Y-28622011D01*
X61504206Y-28746758D01*
X61294188Y-28746758D01*
X61294188Y-29322500D01*
X61145306Y-29322500D01*
G37*
G36*
X60466800Y-29079508D02*
G01*
X60474690Y-29107323D01*
X60484939Y-29132156D01*
X60496434Y-29152255D01*
X60509944Y-29169717D01*
X60524506Y-29183684D01*
X60540874Y-29195215D01*
X60578141Y-29210533D01*
X60624199Y-29215979D01*
X60648128Y-29214524D01*
X60670222Y-29210202D01*
X60689694Y-29203421D01*
X60707480Y-29194116D01*
X60737753Y-29168440D01*
X60761992Y-29132388D01*
X60780058Y-29084042D01*
X60790766Y-29020902D01*
X60792864Y-28971752D01*
X60791392Y-28930805D01*
X60786951Y-28893129D01*
X60780282Y-28861765D01*
X60771085Y-28833376D01*
X60760440Y-28810130D01*
X60747636Y-28789563D01*
X60733779Y-28772932D01*
X60718021Y-28758771D01*
X60701106Y-28747580D01*
X60682410Y-28738794D01*
X60639781Y-28728721D01*
X60616872Y-28727524D01*
X60575869Y-28733267D01*
X60538293Y-28750150D01*
X60521421Y-28762553D01*
X60506128Y-28777472D01*
X60492693Y-28794731D01*
X60481259Y-28814302D01*
X60466800Y-28853507D01*
X60318102Y-28853507D01*
X60322422Y-28824011D01*
X60329531Y-28795583D01*
X60339302Y-28768528D01*
X60351697Y-28742860D01*
X60366493Y-28718966D01*
X60383731Y-28696755D01*
X60403094Y-28676622D01*
X60424714Y-28658442D01*
X60448223Y-28642552D01*
X60473811Y-28628869D01*
X60501130Y-28617642D01*
X60530367Y-28608868D01*
X60561255Y-28602723D01*
X60593918Y-28599285D01*
X60617925Y-28598564D01*
X60652046Y-28600019D01*
X60684599Y-28604343D01*
X60714924Y-28611304D01*
X60743629Y-28620903D01*
X60770299Y-28632898D01*
X60795283Y-28647346D01*
X60839786Y-28683189D01*
X60877149Y-28728367D01*
X60907046Y-28783131D01*
X60928770Y-28847879D01*
X60941271Y-28922974D01*
X60943852Y-28980132D01*
X60942407Y-29021389D01*
X60938151Y-29060249D01*
X60931322Y-29096194D01*
X60921996Y-29129782D01*
X60910433Y-29160658D01*
X60896652Y-29189204D01*
X60880871Y-29215253D01*
X60863119Y-29238976D01*
X60843486Y-29260381D01*
X60822097Y-29279431D01*
X60774019Y-29310658D01*
X60719166Y-29332411D01*
X60657843Y-29344103D01*
X60620032Y-29345947D01*
X60587665Y-29344497D01*
X60556801Y-29340212D01*
X60527732Y-29333257D01*
X60500243Y-29323701D01*
X60474416Y-29311652D01*
X60450269Y-29297194D01*
X60406927Y-29261124D01*
X60370533Y-29215650D01*
X60341738Y-29160818D01*
X60321515Y-29096763D01*
X60317964Y-29079508D01*
X60466800Y-29079508D01*
G37*
G36*
X59724271Y-29322500D02*
G01*
X59724271Y-28622011D01*
X59874206Y-28622011D01*
X59874206Y-28884190D01*
X60143209Y-28884190D01*
X60143209Y-28622011D01*
X60292090Y-28622011D01*
X60292090Y-29322500D01*
X60143209Y-29322500D01*
X60143209Y-29008892D01*
X59874206Y-29008892D01*
X59874206Y-29322500D01*
X59724271Y-29322500D01*
G37*
D10*
G36*
X85499595Y-36622250D02*
G01*
X85499595Y-36223646D01*
X85102639Y-36223646D01*
X85102639Y-36026267D01*
X85499595Y-36026267D01*
X85499595Y-35631601D01*
X85696974Y-35631601D01*
X85696974Y-36026267D01*
X86091731Y-36026267D01*
X86091731Y-36223646D01*
X85696974Y-36223646D01*
X85696974Y-36622250D01*
X85499595Y-36622250D01*
G37*
D11*
G36*
X62483837Y-31372500D02*
G01*
X62190471Y-31372500D01*
X62159500Y-31371049D01*
X62129810Y-31366758D01*
X62101609Y-31359757D01*
X62074820Y-31350121D01*
X62025701Y-31323252D01*
X61982787Y-31286540D01*
X61946652Y-31240187D01*
X61918150Y-31184366D01*
X61898374Y-31119380D01*
X61888544Y-31045792D01*
X61887671Y-31014928D01*
X62039712Y-31014928D01*
X62041194Y-31057685D01*
X62045701Y-31096181D01*
X62052253Y-31126550D01*
X62061290Y-31153611D01*
X62071620Y-31175163D01*
X62084069Y-31194025D01*
X62097651Y-31209209D01*
X62113163Y-31222045D01*
X62149292Y-31240379D01*
X62194614Y-31249818D01*
X62219872Y-31250958D01*
X62339169Y-31250958D01*
X62339169Y-30795705D01*
X62232466Y-30795705D01*
X62197495Y-30797193D01*
X62166409Y-30801749D01*
X62142528Y-30808279D01*
X62121376Y-30817302D01*
X62104361Y-30827801D01*
X62089489Y-30840524D01*
X62066428Y-30871949D01*
X62050314Y-30914318D01*
X62041207Y-30972558D01*
X62039712Y-31014928D01*
X61887671Y-31014928D01*
X61889119Y-30977455D01*
X61893392Y-30941840D01*
X61900299Y-30908486D01*
X61909766Y-30877070D01*
X61921578Y-30847901D01*
X61935707Y-30820752D01*
X61951959Y-30795811D01*
X61970307Y-30772983D01*
X62012865Y-30733917D01*
X62062866Y-30703858D01*
X62119894Y-30683324D01*
X62183515Y-30673052D01*
X62212545Y-30672011D01*
X62483837Y-30672011D01*
X62483837Y-31372500D01*
G37*
G36*
X61944183Y-31372500D02*
G01*
X61786692Y-31372500D01*
X61737370Y-31228427D01*
X61482243Y-31228427D01*
X61438142Y-31372500D01*
X61276438Y-31372500D01*
X61370370Y-31105786D01*
X61525199Y-31105786D01*
X61698581Y-31105786D01*
X61610843Y-30832965D01*
X61525199Y-31105786D01*
X61370370Y-31105786D01*
X61523139Y-30672011D01*
X61694322Y-30672011D01*
X61944183Y-31372500D01*
G37*
G36*
X61086112Y-31372500D02*
G01*
X61086112Y-30796758D01*
X60875086Y-30796758D01*
X60875086Y-30672011D01*
X61445011Y-30672011D01*
X61445011Y-30796758D01*
X61234993Y-30796758D01*
X61234993Y-31372500D01*
X61086112Y-31372500D01*
G37*
G36*
X61047323Y-31372500D02*
G01*
X60889832Y-31372500D01*
X60840510Y-31228427D01*
X60585383Y-31228427D01*
X60541282Y-31372500D01*
X60379578Y-31372500D01*
X60473510Y-31105786D01*
X60628340Y-31105786D01*
X60801722Y-31105786D01*
X60713983Y-30832963D01*
X60628340Y-31105786D01*
X60473510Y-31105786D01*
X60626279Y-30672011D01*
X60797463Y-30672011D01*
X61047323Y-31372500D01*
G37*
G36*
X62208046Y-33073138D02*
G01*
X62197412Y-33054727D01*
X62184795Y-33039632D01*
X62172203Y-33029396D01*
X62157738Y-33021649D01*
X62123663Y-33013841D01*
X62111325Y-33013375D01*
X62091968Y-33014826D01*
X62074873Y-33019115D01*
X62060902Y-33025626D01*
X62048890Y-33034471D01*
X62030823Y-33058618D01*
X62019945Y-33093164D01*
X62017261Y-33127223D01*
X62018772Y-33156876D01*
X62023482Y-33183345D01*
X62030026Y-33202679D01*
X62039123Y-33219380D01*
X62049295Y-33231677D01*
X62061642Y-33241677D01*
X62075408Y-33248899D01*
X62091298Y-33253841D01*
X62119706Y-33256733D01*
X62138334Y-33255283D01*
X62155193Y-33250998D01*
X62169550Y-33244343D01*
X62182100Y-33235269D01*
X62201211Y-33210578D01*
X62212374Y-33176425D01*
X62213953Y-33164363D01*
X62353263Y-33164363D01*
X62350713Y-33189743D01*
X62345425Y-33213898D01*
X62326912Y-33258682D01*
X62298380Y-33297806D01*
X62260569Y-33330024D01*
X62214555Y-33353844D01*
X62188913Y-33362133D01*
X62161868Y-33367764D01*
X62119706Y-33370947D01*
X62090445Y-33369498D01*
X62062561Y-33365218D01*
X62036374Y-33358274D01*
X62011771Y-33348740D01*
X61989016Y-33336805D01*
X61968049Y-33322507D01*
X61949054Y-33306013D01*
X61932054Y-33287366D01*
X61917162Y-33266665D01*
X61904485Y-33243999D01*
X61894101Y-33219373D01*
X61886171Y-33192960D01*
X61880781Y-33164672D01*
X61878103Y-33134768D01*
X61877814Y-33120812D01*
X61879253Y-33090711D01*
X61883467Y-33062613D01*
X61890236Y-33036763D01*
X61899429Y-33012987D01*
X61910858Y-32991394D01*
X61924394Y-32971963D01*
X61957329Y-32939675D01*
X61997413Y-32916510D01*
X62043839Y-32903182D01*
X62080871Y-32900215D01*
X62113808Y-32901829D01*
X62145642Y-32907272D01*
X62168503Y-32914516D01*
X62189763Y-32924879D01*
X62217846Y-32947247D01*
X62211755Y-32765484D01*
X61904055Y-32765484D01*
X61904055Y-32647011D01*
X62336410Y-32647011D01*
X62351202Y-33073047D01*
X62208046Y-33073138D01*
G37*
G36*
X61486674Y-33347500D02*
G01*
X61249453Y-32647011D01*
X61403784Y-32647011D01*
X61553902Y-33133085D01*
X61705027Y-32647011D01*
X61863617Y-32647011D01*
X61626351Y-33347500D01*
X61486674Y-33347500D01*
G37*
G36*
X60818243Y-33347500D02*
G01*
X60818243Y-32647011D01*
X60967124Y-32647011D01*
X60967124Y-33347500D01*
X60818243Y-33347500D01*
G37*
G36*
X60199774Y-33347500D02*
G01*
X60199774Y-32647011D01*
X60339221Y-32647011D01*
X60339221Y-33091915D01*
X60614132Y-32647011D01*
X60770753Y-32647011D01*
X60770753Y-33347500D01*
X60632359Y-33347500D01*
X60632359Y-32882583D01*
X60336474Y-33347500D01*
X60199774Y-33347500D01*
G37*
G36*
X67876776Y-26288500D02*
G01*
X67583410Y-26288500D01*
X67552439Y-26287049D01*
X67522749Y-26282758D01*
X67494548Y-26275757D01*
X67467759Y-26266121D01*
X67418640Y-26239252D01*
X67375726Y-26202540D01*
X67339591Y-26156187D01*
X67311089Y-26100366D01*
X67291313Y-26035380D01*
X67281483Y-25961792D01*
X67280610Y-25930928D01*
X67432651Y-25930928D01*
X67434133Y-25973685D01*
X67438640Y-26012181D01*
X67445192Y-26042550D01*
X67454229Y-26069611D01*
X67464559Y-26091163D01*
X67477008Y-26110025D01*
X67490590Y-26125209D01*
X67506102Y-26138045D01*
X67542231Y-26156379D01*
X67587553Y-26165818D01*
X67612811Y-26166958D01*
X67732108Y-26166958D01*
X67732108Y-25711705D01*
X67625405Y-25711705D01*
X67590434Y-25713193D01*
X67559348Y-25717749D01*
X67535467Y-25724279D01*
X67514315Y-25733302D01*
X67497300Y-25743801D01*
X67482428Y-25756524D01*
X67459367Y-25787949D01*
X67443253Y-25830318D01*
X67434146Y-25888558D01*
X67432651Y-25930928D01*
X67280610Y-25930928D01*
X67282058Y-25893455D01*
X67286331Y-25857840D01*
X67293238Y-25824486D01*
X67302705Y-25793070D01*
X67314517Y-25763901D01*
X67328646Y-25736752D01*
X67344898Y-25711811D01*
X67363246Y-25688983D01*
X67405804Y-25649917D01*
X67455805Y-25619858D01*
X67512833Y-25599324D01*
X67576454Y-25589052D01*
X67605484Y-25588011D01*
X67876776Y-25588011D01*
X67876776Y-26288500D01*
G37*
G36*
X66987198Y-26018855D02*
G01*
X66987198Y-25909908D01*
X67250522Y-25909908D01*
X67250522Y-26018855D01*
X66987198Y-26018855D01*
G37*
G36*
X66693420Y-26288500D02*
G01*
X66400053Y-26288500D01*
X66369082Y-26287049D01*
X66339393Y-26282758D01*
X66311191Y-26275757D01*
X66284403Y-26266121D01*
X66235283Y-26239252D01*
X66192369Y-26202540D01*
X66156234Y-26156187D01*
X66127733Y-26100366D01*
X66107956Y-26035380D01*
X66098126Y-25961792D01*
X66097253Y-25930928D01*
X66249295Y-25930928D01*
X66250776Y-25973685D01*
X66255284Y-26012181D01*
X66261835Y-26042550D01*
X66270873Y-26069611D01*
X66281202Y-26091163D01*
X66293651Y-26110025D01*
X66307234Y-26125209D01*
X66322745Y-26138045D01*
X66358874Y-26156379D01*
X66404197Y-26165818D01*
X66429454Y-26166958D01*
X66548752Y-26166958D01*
X66548752Y-25711705D01*
X66442048Y-25711705D01*
X66407078Y-25713193D01*
X66375992Y-25717749D01*
X66352110Y-25724279D01*
X66330958Y-25733302D01*
X66313943Y-25743801D01*
X66299071Y-25756524D01*
X66276010Y-25787949D01*
X66259896Y-25830318D01*
X66250789Y-25888558D01*
X66249295Y-25930928D01*
X66097253Y-25930928D01*
X66098701Y-25893455D01*
X66102975Y-25857840D01*
X66109881Y-25824486D01*
X66119349Y-25793070D01*
X66131161Y-25763901D01*
X66145289Y-25736752D01*
X66161541Y-25711811D01*
X66179889Y-25688983D01*
X66222448Y-25649917D01*
X66272449Y-25619858D01*
X66329476Y-25599324D01*
X66393098Y-25589052D01*
X66422127Y-25588011D01*
X66693420Y-25588011D01*
X66693420Y-26288500D01*
G37*
G36*
X65757680Y-26177125D02*
G01*
X65757680Y-25977823D01*
X65559202Y-25977823D01*
X65559202Y-25876202D01*
X65757680Y-25876202D01*
X65757680Y-25678869D01*
X65859300Y-25678869D01*
X65859300Y-25876202D01*
X66056679Y-25876202D01*
X66056679Y-25977823D01*
X65859300Y-25977823D01*
X65859300Y-26177125D01*
X65757680Y-26177125D01*
G37*
D10*
G36*
X90925865Y-45362500D02*
G01*
X90611937Y-45362500D01*
X90572677Y-45361050D01*
X90536676Y-45356768D01*
X90505384Y-45350140D01*
X90477026Y-45341112D01*
X90452626Y-45330304D01*
X90430891Y-45317450D01*
X90412360Y-45303113D01*
X90396311Y-45286993D01*
X90371812Y-45250076D01*
X90356763Y-45206224D01*
X90351543Y-45154771D01*
X90352063Y-45144284D01*
X90493281Y-45144284D01*
X90494729Y-45162536D01*
X90499006Y-45179550D01*
X90505833Y-45194771D01*
X90515175Y-45208353D01*
X90526679Y-45219856D01*
X90540417Y-45229360D01*
X90556154Y-45236600D01*
X90573910Y-45241462D01*
X90600396Y-45243889D01*
X90785181Y-45243889D01*
X90785181Y-45056173D01*
X90598290Y-45056173D01*
X90573544Y-45057654D01*
X90551718Y-45062154D01*
X90535272Y-45068595D01*
X90521333Y-45077448D01*
X90510999Y-45087583D01*
X90502932Y-45099784D01*
X90494110Y-45129719D01*
X90493281Y-45144284D01*
X90352063Y-45144284D01*
X90352971Y-45125962D01*
X90357105Y-45100235D01*
X90363560Y-45077861D01*
X90372184Y-45058116D01*
X90395340Y-45025606D01*
X90426494Y-45000743D01*
X90457560Y-44985831D01*
X90424576Y-44966032D01*
X90409947Y-44952180D01*
X90397298Y-44936165D01*
X90386975Y-44918333D01*
X90379207Y-44898855D01*
X90374406Y-44878705D01*
X90372901Y-44861634D01*
X90513247Y-44861634D01*
X90514707Y-44879349D01*
X90519059Y-44894789D01*
X90525529Y-44906866D01*
X90534350Y-44916985D01*
X90558436Y-44931057D01*
X90593632Y-44937351D01*
X90601404Y-44937517D01*
X90785181Y-44937517D01*
X90785181Y-44785705D01*
X90609830Y-44785705D01*
X90582040Y-44787201D01*
X90559298Y-44791813D01*
X90544575Y-44797878D01*
X90532826Y-44806154D01*
X90524713Y-44815554D01*
X90518822Y-44826884D01*
X90513324Y-44856877D01*
X90513247Y-44861634D01*
X90372901Y-44861634D01*
X90372534Y-44857472D01*
X90372518Y-44855314D01*
X90373978Y-44827612D01*
X90378334Y-44801738D01*
X90385154Y-44778860D01*
X90394547Y-44757817D01*
X90406024Y-44739328D01*
X90419844Y-44722703D01*
X90435737Y-44708212D01*
X90453855Y-44695681D01*
X90497122Y-44676650D01*
X90550775Y-44666357D01*
X90582536Y-44664942D01*
X90925865Y-44664942D01*
X90925865Y-45362500D01*
G37*
G36*
X90376090Y-45362500D02*
G01*
X90221713Y-45362500D01*
X90172391Y-45218427D01*
X89915112Y-45218427D01*
X89871011Y-45362500D01*
X89712467Y-45362500D01*
X89805376Y-45098717D01*
X89957152Y-45098717D01*
X90134564Y-45098717D01*
X90045309Y-44821471D01*
X90044301Y-44821471D01*
X89957152Y-45098717D01*
X89805376Y-45098717D01*
X89958160Y-44664942D01*
X90127237Y-44664942D01*
X90376090Y-45362500D01*
G37*
G36*
X89521545Y-45362500D02*
G01*
X89521545Y-44786758D01*
X89310519Y-44786758D01*
X89310519Y-44664942D01*
X89877514Y-44664942D01*
X89877514Y-44786758D01*
X89667496Y-44786758D01*
X89667496Y-45362500D01*
X89521545Y-45362500D01*
G37*
G36*
X88934630Y-45362500D02*
G01*
X88934630Y-44786758D01*
X88723604Y-44786758D01*
X88723604Y-44664942D01*
X89290598Y-44664942D01*
X89290598Y-44786758D01*
X89080580Y-44786758D01*
X89080580Y-45362500D01*
X88934630Y-45362500D01*
G37*
G36*
X88160410Y-45362500D02*
G01*
X88160410Y-45238623D01*
X88547841Y-45238623D01*
X88547841Y-45057684D01*
X88206572Y-45057684D01*
X88206572Y-44934861D01*
X88547841Y-44934861D01*
X88547841Y-44786758D01*
X88177172Y-44786758D01*
X88177172Y-44664942D01*
X88689578Y-44664942D01*
X88689578Y-45362500D01*
X88160410Y-45362500D01*
G37*
G36*
X88131239Y-45362500D02*
G01*
X87989501Y-45362500D01*
X87989501Y-45089924D01*
X87834117Y-45089924D01*
X87802921Y-45091427D01*
X87777785Y-45096083D01*
X87761971Y-45102090D01*
X87749324Y-45110283D01*
X87740461Y-45119595D01*
X87733774Y-45130835D01*
X87726013Y-45161090D01*
X87724895Y-45183256D01*
X87724895Y-45362500D01*
X87582104Y-45362500D01*
X87582104Y-45165441D01*
X87583618Y-45132637D01*
X87588355Y-45105219D01*
X87594644Y-45086800D01*
X87603319Y-45071128D01*
X87625975Y-45048474D01*
X87659948Y-45031507D01*
X87667147Y-45029062D01*
X87647539Y-45020474D01*
X87629872Y-45009628D01*
X87600154Y-44981396D01*
X87578456Y-44944940D01*
X87565845Y-44900938D01*
X87564177Y-44879540D01*
X87699707Y-44879540D01*
X87701213Y-44899559D01*
X87705892Y-44917791D01*
X87712673Y-44931861D01*
X87722157Y-44944166D01*
X87733475Y-44953805D01*
X87747364Y-44961603D01*
X87783378Y-44971045D01*
X87806777Y-44972367D01*
X87989501Y-44972367D01*
X87989501Y-44785705D01*
X87801557Y-44785705D01*
X87778835Y-44787138D01*
X87759233Y-44791306D01*
X87743515Y-44797562D01*
X87730368Y-44805909D01*
X87711675Y-44827740D01*
X87701528Y-44857190D01*
X87699707Y-44879540D01*
X87564177Y-44879540D01*
X87563191Y-44866900D01*
X87564638Y-44841103D01*
X87568910Y-44816476D01*
X87575877Y-44793229D01*
X87585440Y-44771438D01*
X87597454Y-44751307D01*
X87611840Y-44732915D01*
X87628448Y-44716444D01*
X87647208Y-44701992D01*
X87667988Y-44689715D01*
X87690706Y-44679740D01*
X87715263Y-44672207D01*
X87741551Y-44667263D01*
X87777422Y-44664942D01*
X88131239Y-44664942D01*
X88131239Y-45362500D01*
G37*
G36*
X87215236Y-45362500D02*
G01*
X87215236Y-45100961D01*
X86982137Y-44664942D01*
X87150161Y-44664942D01*
X87285624Y-44948599D01*
X87432582Y-44664942D01*
X87602712Y-44664942D01*
X87361187Y-45098855D01*
X87361187Y-45362500D01*
X87215236Y-45362500D01*
G37*
X85616109Y-43803333D02*
X85973252Y-43803333D01*
X85973252Y-43803333D02*
X86044680Y-43779524D01*
X86044680Y-43779524D02*
X86092300Y-43731905D01*
X86092300Y-43731905D02*
X86116109Y-43660476D01*
X86116109Y-43660476D02*
X86116109Y-43612857D01*
X85782776Y-44255714D02*
X86116109Y-44255714D01*
X85592300Y-44136666D02*
X85949442Y-44017619D01*
X85949442Y-44017619D02*
X85949442Y-44327142D01*
D12*
%TO.C,TP1*%
X64350000Y-29025000D02*
G75*
G02*
X62950000Y-29025000I-700000J0D01*
G01*
X62950000Y-29025000D02*
G75*
G02*
X64350000Y-29025000I700000J0D01*
G01*
%TO.C,TP7*%
X64350000Y-33025000D02*
G75*
G02*
X62950000Y-33025000I-700000J0D01*
G01*
X62950000Y-33025000D02*
G75*
G02*
X64350000Y-33025000I700000J0D01*
G01*
%TO.C,TP6*%
X64809600Y-22428200D02*
G75*
G02*
X63409600Y-22428200I-700000J0D01*
G01*
X63409600Y-22428200D02*
G75*
G02*
X64809600Y-22428200I700000J0D01*
G01*
%TO.C,TP2*%
X64350000Y-27025000D02*
G75*
G02*
X62950000Y-27025000I-700000J0D01*
G01*
X62950000Y-27025000D02*
G75*
G02*
X64350000Y-27025000I700000J0D01*
G01*
%TO.C,TP4*%
X68518000Y-27150000D02*
G75*
G02*
X67118000Y-27150000I-700000J0D01*
G01*
X67118000Y-27150000D02*
G75*
G02*
X68518000Y-27150000I700000J0D01*
G01*
%TO.C,TP5*%
X66689200Y-27150000D02*
G75*
G02*
X65289200Y-27150000I-700000J0D01*
G01*
X65289200Y-27150000D02*
G75*
G02*
X66689200Y-27150000I700000J0D01*
G01*
%TO.C,J4*%
X86760000Y-37890000D02*
X86760000Y-44010000D01*
X86760000Y-44010000D02*
X91480000Y-44010000D01*
X87370000Y-38500000D02*
X87370000Y-43400000D01*
X87370000Y-40850000D02*
X87870000Y-40850000D01*
X87370000Y-43400000D02*
X90870000Y-43400000D01*
X87870000Y-40850000D02*
X87870000Y-41050000D01*
X87870000Y-40950000D02*
X87370000Y-40950000D01*
X87870000Y-41050000D02*
X87370000Y-41050000D01*
X88870000Y-38500000D02*
X88870000Y-37890000D01*
X88870000Y-43400000D02*
X88870000Y-44010000D01*
X90170000Y-38500000D02*
X90170000Y-37890000D01*
X90170000Y-43400000D02*
X90170000Y-44010000D01*
X90530000Y-44310000D02*
X91780000Y-44310000D01*
X90870000Y-38500000D02*
X87370000Y-38500000D01*
X90870000Y-40450000D02*
X90870000Y-38500000D01*
X90870000Y-41450000D02*
X91480000Y-41450000D01*
X90870000Y-43400000D02*
X90870000Y-41450000D01*
X91480000Y-37890000D02*
X86760000Y-37890000D01*
X91480000Y-40450000D02*
X90870000Y-40450000D01*
X91480000Y-42550000D02*
X91680000Y-42550000D01*
X91480000Y-44010000D02*
X91480000Y-37890000D01*
X91580000Y-42550000D02*
X91580000Y-42250000D01*
X91680000Y-42250000D02*
X91480000Y-42250000D01*
X91680000Y-42550000D02*
X91680000Y-42250000D01*
X91780000Y-44310000D02*
X91780000Y-43060000D01*
%TO.C,TP3*%
X64350000Y-31025000D02*
G75*
G02*
X62950000Y-31025000I-700000J0D01*
G01*
X62950000Y-31025000D02*
G75*
G02*
X64350000Y-31025000I700000J0D01*
G01*
%TD*%
M02*
