%TF.GenerationSoftware,KiCad,Pcbnew,8.0.2*%
%TF.CreationDate,2025-05-18T14:56:39-07:00*%
%TF.ProjectId,PGS_USBW_Board,5047535f-5553-4425-975f-426f6172642e,rev?*%
%TF.SameCoordinates,Original*%
%TF.FileFunction,Copper,L3,Inr*%
%TF.FilePolarity,Positive*%
%FSLAX46Y46*%
G04 Gerber Fmt 4.6, Leading zero omitted, Abs format (unit mm)*
G04 Created by KiCad (PCBNEW 8.0.2) date 2025-05-18 14:56:39*
%MOMM*%
%LPD*%
G01*
G04 APERTURE LIST*
G04 Aperture macros list*
%AMRoundRect*
0 Rectangle with rounded corners*
0 $1 Rounding radius*
0 $2 $3 $4 $5 $6 $7 $8 $9 X,Y pos of 4 corners*
0 Add a 4 corners polygon primitive as box body*
4,1,4,$2,$3,$4,$5,$6,$7,$8,$9,$2,$3,0*
0 Add four circle primitives for the rounded corners*
1,1,$1+$1,$2,$3*
1,1,$1+$1,$4,$5*
1,1,$1+$1,$6,$7*
1,1,$1+$1,$8,$9*
0 Add four rect primitives between the rounded corners*
20,1,$1+$1,$2,$3,$4,$5,0*
20,1,$1+$1,$4,$5,$6,$7,0*
20,1,$1+$1,$6,$7,$8,$9,0*
20,1,$1+$1,$8,$9,$2,$3,0*%
G04 Aperture macros list end*
%TA.AperFunction,ComponentPad*%
%ADD10O,1.750000X1.200000*%
%TD*%
%TA.AperFunction,ComponentPad*%
%ADD11RoundRect,0.250000X0.625000X-0.350000X0.625000X0.350000X-0.625000X0.350000X-0.625000X-0.350000X0*%
%TD*%
%TA.AperFunction,ComponentPad*%
%ADD12C,0.600000*%
%TD*%
%TA.AperFunction,ComponentPad*%
%ADD13O,0.800000X1.400000*%
%TD*%
%TA.AperFunction,ViaPad*%
%ADD14C,0.600000*%
%TD*%
%TA.AperFunction,ViaPad*%
%ADD15C,0.650000*%
%TD*%
%TA.AperFunction,ViaPad*%
%ADD16C,1.000000*%
%TD*%
%TA.AperFunction,Conductor*%
%ADD17C,0.450000*%
%TD*%
%TA.AperFunction,Conductor*%
%ADD18C,0.200000*%
%TD*%
G04 APERTURE END LIST*
D10*
%TO.N,BATTERY_POS*%
%TO.C,J4*%
X89670000Y-39950000D03*
D11*
%TO.N,GND*%
X89670000Y-41950000D03*
%TD*%
D12*
%TO.N,GND*%
%TO.C,J2*%
X64274998Y-23511124D03*
%TO.N,+3.3V_PRE*%
X64674998Y-22811124D03*
%TO.N,N_CLOCK*%
X65474998Y-22811124D03*
%TO.N,VBUS_PRE*%
X65874998Y-23511124D03*
%TO.N,Net-(J2-CC2)*%
X66274998Y-22811124D03*
%TO.N,D+*%
X66674998Y-23511124D03*
%TO.N,D-*%
X67474998Y-23511124D03*
%TO.N,unconnected-(J2-SBU2-PadB8)*%
X67874998Y-22811124D03*
%TO.N,VBUS_PRE*%
X68274998Y-23511124D03*
%TO.N,N_LATCH*%
X68674998Y-22811124D03*
%TO.N,N_DATA*%
X69474998Y-22811124D03*
%TO.N,GND*%
X69874998Y-23511124D03*
D13*
X71204998Y-22921124D03*
X62944998Y-22921124D03*
X62584998Y-18521124D03*
X71564998Y-18521124D03*
%TD*%
D14*
%TO.N,N_LATCH_3.3*%
X70200000Y-39775000D03*
X61325000Y-47300000D03*
%TO.N,N_CLOCK_3.3*%
X68675000Y-40675000D03*
X60825000Y-46750000D03*
D15*
%TO.N,+3V3*%
X85200000Y-31730000D03*
D16*
X65000000Y-42100000D03*
D14*
X75075000Y-37250000D03*
D16*
X63400000Y-35025000D03*
D14*
X70950000Y-38775000D03*
D15*
X84620000Y-33090000D03*
D14*
%TO.N,WL_CLK*%
X50050000Y-38725000D03*
X60250000Y-41575000D03*
%TO.N,D-*%
X67350000Y-26450000D03*
D15*
%TO.N,GND*%
X54990000Y-45880000D03*
X55710000Y-44990000D03*
X45780000Y-40510000D03*
D14*
X71425000Y-31825000D03*
D15*
X49740000Y-31600000D03*
X59220000Y-31610000D03*
D14*
X66725000Y-33750000D03*
D15*
X64600000Y-43150000D03*
X49510000Y-39820000D03*
X79450000Y-33520000D03*
D14*
X73530000Y-34140000D03*
D15*
X61240000Y-43030000D03*
X77750000Y-29125000D03*
X54190000Y-45090000D03*
D14*
X77450000Y-32125000D03*
D15*
X74920000Y-27780000D03*
X49440000Y-35950000D03*
D14*
X70630000Y-35310000D03*
D15*
X45930000Y-36090000D03*
X62000000Y-42400000D03*
D14*
X67730000Y-41880000D03*
X74850000Y-32050000D03*
X69200000Y-31825000D03*
%TO.N,N_DATA_3.3*%
X71775000Y-38925000D03*
X61950000Y-47725000D03*
%TO.N,BTN_PWR*%
X77332536Y-37182766D03*
X59400000Y-45650000D03*
%TO.N,I2C1_SCL*%
X62950000Y-47925000D03*
X75200000Y-30575000D03*
%TO.N,WL_D*%
X49525000Y-37375000D03*
X63850000Y-39150000D03*
D15*
X50150000Y-43425000D03*
D14*
%TO.N,I2C1_SDA*%
X74700000Y-31100000D03*
X63025000Y-47175000D03*
%TO.N,WL_ON*%
X64625000Y-40225000D03*
X57500000Y-39950000D03*
%TO.N,WL_CS*%
X59825000Y-43150000D03*
X51500000Y-40150000D03*
%TO.N,D+*%
X66350000Y-26450000D03*
%TO.N,VBUS_PRE*%
X68300000Y-27250000D03*
D15*
X63650000Y-33025000D03*
D14*
X66931705Y-31531926D03*
X73226839Y-29326195D03*
X65858902Y-28447463D03*
%TO.N,+3.3V_PRE*%
X70878732Y-27265074D03*
D15*
X78800000Y-27350000D03*
D14*
%TO.N,N_DATA*%
X64850000Y-30000000D03*
X70188400Y-29193512D03*
%TO.N,N_LATCH*%
X65372391Y-29497588D03*
X69438400Y-29193512D03*
%TO.N,N_CLOCK*%
X68688400Y-29193512D03*
D15*
%TO.N,VBUS_SYS*%
X80550000Y-35525000D03*
X79175000Y-31875000D03*
X83350000Y-26500000D03*
D14*
%TO.N,SHARED_PU*%
X74135268Y-33319448D03*
X69322351Y-35183614D03*
D15*
%TO.N,Net-(P1A-DO)*%
X63200000Y-39675000D03*
X49375000Y-38175000D03*
%TD*%
D17*
%TO.N,VBUS_PRE*%
X65858902Y-28447463D02*
X67852537Y-28447463D01*
X69480000Y-27250000D02*
X68300000Y-27250000D01*
X64856926Y-31531926D02*
X66931705Y-31531926D01*
X64175000Y-30850000D02*
X64856926Y-31531926D01*
X68300000Y-28000000D02*
X68300000Y-27250000D01*
X65858902Y-28447463D02*
X65377537Y-28447463D01*
X71556195Y-29326195D02*
X69480000Y-27250000D01*
X64175000Y-29650000D02*
X64175000Y-30850000D01*
X67852537Y-28447463D02*
X68300000Y-28000000D01*
X64856926Y-31531926D02*
X64856926Y-31818074D01*
X65377537Y-28447463D02*
X64175000Y-29650000D01*
X73226839Y-29326195D02*
X71556195Y-29326195D01*
X64856926Y-31818074D02*
X63650000Y-33025000D01*
D18*
%TO.N,+3.3V_PRE*%
X65000000Y-23675000D02*
X65000000Y-23275000D01*
X65459933Y-24134933D02*
X65000000Y-23675000D01*
X69325000Y-26050000D02*
X69325000Y-24575000D01*
X64674998Y-22949998D02*
X64674998Y-22811124D01*
X70540074Y-27265074D02*
X69325000Y-26050000D01*
X71259118Y-27265074D02*
X72369044Y-28375000D01*
X65000000Y-23275000D02*
X64674998Y-22949998D01*
X77775000Y-28375000D02*
X78800000Y-27350000D01*
X70878732Y-27265074D02*
X71259118Y-27265074D01*
X70878732Y-27265074D02*
X70540074Y-27265074D01*
X72369044Y-28375000D02*
X77775000Y-28375000D01*
X68884933Y-24134933D02*
X65459933Y-24134933D01*
X69325000Y-24575000D02*
X68884933Y-24134933D01*
%TD*%
%TA.AperFunction,Conductor*%
%TO.N,+3V3*%
G36*
X84667353Y-29150381D02*
G01*
X84905027Y-29169087D01*
X84924237Y-29172130D01*
X85151308Y-29226644D01*
X85169799Y-29232652D01*
X85340825Y-29303494D01*
X85385545Y-29322018D01*
X85402882Y-29330852D01*
X85601985Y-29452862D01*
X85617718Y-29464292D01*
X85795301Y-29615962D01*
X85809037Y-29629698D01*
X85960705Y-29807279D01*
X85972137Y-29823014D01*
X86094147Y-30022117D01*
X86102981Y-30039454D01*
X86192344Y-30255193D01*
X86198357Y-30273699D01*
X86252868Y-30500758D01*
X86255912Y-30519976D01*
X86274618Y-30757646D01*
X86275000Y-30767375D01*
X86275000Y-31735790D01*
X86274635Y-31745303D01*
X86252188Y-32037020D01*
X86249277Y-32055822D01*
X86183559Y-32336013D01*
X86177806Y-32354150D01*
X86069996Y-32620986D01*
X86061536Y-32638027D01*
X85911725Y-32889337D01*
X85906540Y-32897322D01*
X84369244Y-35076563D01*
X84369239Y-35076572D01*
X84369232Y-35076582D01*
X84000000Y-35600000D01*
X84033195Y-41574999D01*
X84063807Y-47085295D01*
X84063538Y-47094172D01*
X84045515Y-47366515D01*
X84043079Y-47384096D01*
X83987280Y-47646733D01*
X83982358Y-47663787D01*
X83889636Y-47915758D01*
X83882330Y-47931934D01*
X83754579Y-48168091D01*
X83745037Y-48183059D01*
X83584882Y-48398548D01*
X83573302Y-48412000D01*
X83384011Y-48602425D01*
X83370628Y-48614085D01*
X83156103Y-48775522D01*
X83141194Y-48785153D01*
X82905807Y-48914313D01*
X82889674Y-48921716D01*
X82638260Y-49015943D01*
X82621236Y-49020967D01*
X82358937Y-49078335D01*
X82341370Y-49080876D01*
X82069140Y-49100525D01*
X82060265Y-49100847D01*
X74414732Y-49104065D01*
X71877320Y-49105134D01*
X62308508Y-49109162D01*
X62299748Y-49108854D01*
X62171884Y-49099810D01*
X62029726Y-49089755D01*
X62012299Y-49087270D01*
X61752029Y-49031062D01*
X61735131Y-49026134D01*
X61485450Y-48933642D01*
X61469419Y-48926371D01*
X61235352Y-48799458D01*
X61220513Y-48789991D01*
X61006764Y-48631205D01*
X60993414Y-48619731D01*
X60804314Y-48432289D01*
X60792724Y-48419042D01*
X60687710Y-48280250D01*
X60632060Y-48206699D01*
X60622470Y-48191957D01*
X60493489Y-47958998D01*
X60486082Y-47943041D01*
X60481804Y-47931798D01*
X60391395Y-47694184D01*
X60386319Y-47677330D01*
X60327820Y-47417563D01*
X60325182Y-47400168D01*
X60318500Y-47316222D01*
X60332803Y-47247835D01*
X60381810Y-47198035D01*
X60449962Y-47182635D01*
X60515620Y-47206525D01*
X60517595Y-47208010D01*
X60547375Y-47230861D01*
X60681291Y-47286330D01*
X60681292Y-47286330D01*
X60689143Y-47288434D01*
X60688355Y-47291371D01*
X60739012Y-47313762D01*
X60777501Y-47372075D01*
X60781898Y-47392273D01*
X60788670Y-47443707D01*
X60788671Y-47443712D01*
X60844137Y-47577622D01*
X60844138Y-47577624D01*
X60844139Y-47577625D01*
X60932379Y-47692621D01*
X61047375Y-47780861D01*
X61181291Y-47836330D01*
X61325000Y-47855250D01*
X61325241Y-47855250D01*
X61325436Y-47855307D01*
X61333059Y-47856311D01*
X61332902Y-47857499D01*
X61392280Y-47874935D01*
X61438035Y-47927739D01*
X61439802Y-47931798D01*
X61469137Y-48002622D01*
X61469138Y-48002624D01*
X61469139Y-48002625D01*
X61557379Y-48117621D01*
X61672375Y-48205861D01*
X61806291Y-48261330D01*
X61933280Y-48278048D01*
X61949999Y-48280250D01*
X61950000Y-48280250D01*
X61950001Y-48280250D01*
X61964977Y-48278278D01*
X62093709Y-48261330D01*
X62227625Y-48205861D01*
X62284110Y-48162517D01*
X62349279Y-48137323D01*
X62417724Y-48151361D01*
X62464180Y-48196185D01*
X62464192Y-48196177D01*
X62464251Y-48196254D01*
X62466983Y-48198890D01*
X62469138Y-48202623D01*
X62469139Y-48202625D01*
X62557379Y-48317621D01*
X62672375Y-48405861D01*
X62806291Y-48461330D01*
X62933280Y-48478048D01*
X62949999Y-48480250D01*
X62950000Y-48480250D01*
X62950001Y-48480250D01*
X62964977Y-48478278D01*
X63093709Y-48461330D01*
X63227625Y-48405861D01*
X63342621Y-48317621D01*
X63430861Y-48202625D01*
X63486330Y-48068709D01*
X63505250Y-47925000D01*
X63486330Y-47781291D01*
X63432161Y-47650515D01*
X63424693Y-47581047D01*
X63448348Y-47527577D01*
X63505860Y-47452626D01*
X63505859Y-47452626D01*
X63505861Y-47452625D01*
X63561330Y-47318709D01*
X63580250Y-47175000D01*
X63561330Y-47031291D01*
X63505861Y-46897375D01*
X63417621Y-46782379D01*
X63302625Y-46694139D01*
X63302624Y-46694138D01*
X63302622Y-46694137D01*
X63168712Y-46638671D01*
X63168710Y-46638670D01*
X63168709Y-46638670D01*
X63096854Y-46629210D01*
X63025001Y-46619750D01*
X63024999Y-46619750D01*
X62881291Y-46638670D01*
X62881287Y-46638671D01*
X62747377Y-46694137D01*
X62632379Y-46782379D01*
X62544137Y-46897377D01*
X62488671Y-47031287D01*
X62488670Y-47031291D01*
X62469750Y-47174999D01*
X62469750Y-47178481D01*
X62468918Y-47181311D01*
X62468689Y-47183058D01*
X62468416Y-47183022D01*
X62450065Y-47245520D01*
X62397261Y-47291275D01*
X62328103Y-47301219D01*
X62270264Y-47276857D01*
X62227625Y-47244139D01*
X62227623Y-47244138D01*
X62093712Y-47188671D01*
X62093710Y-47188670D01*
X62093709Y-47188670D01*
X61989877Y-47175000D01*
X61950001Y-47169750D01*
X61949760Y-47169750D01*
X61949564Y-47169692D01*
X61941942Y-47168689D01*
X61942098Y-47167500D01*
X61882721Y-47150065D01*
X61836966Y-47097261D01*
X61835199Y-47093203D01*
X61809552Y-47031287D01*
X61805861Y-47022375D01*
X61717621Y-46907379D01*
X61602625Y-46819139D01*
X61602624Y-46819138D01*
X61602622Y-46819137D01*
X61468708Y-46763669D01*
X61460858Y-46761566D01*
X61461643Y-46758636D01*
X61410951Y-46736206D01*
X61372484Y-46677879D01*
X61368102Y-46657731D01*
X61361330Y-46606291D01*
X61305861Y-46472375D01*
X61217621Y-46357379D01*
X61102625Y-46269139D01*
X61102624Y-46269138D01*
X61102622Y-46269137D01*
X60968712Y-46213671D01*
X60968710Y-46213670D01*
X60968709Y-46213670D01*
X60896854Y-46204210D01*
X60825001Y-46194750D01*
X60824999Y-46194750D01*
X60681291Y-46213670D01*
X60681287Y-46213671D01*
X60547377Y-46269137D01*
X60526809Y-46284919D01*
X60495167Y-46309199D01*
X60430000Y-46334393D01*
X60361555Y-46320355D01*
X60311565Y-46271541D01*
X60295686Y-46211863D01*
X60273049Y-43513518D01*
X60292170Y-43446321D01*
X60298653Y-43437017D01*
X60305861Y-43427625D01*
X60361330Y-43293709D01*
X60380250Y-43150000D01*
X60364451Y-43029999D01*
X60659534Y-43029999D01*
X60659534Y-43030000D01*
X60679312Y-43180234D01*
X60679313Y-43180236D01*
X60726316Y-43293712D01*
X60737302Y-43320233D01*
X60829549Y-43440451D01*
X60949767Y-43532698D01*
X61089764Y-43590687D01*
X61164882Y-43600576D01*
X61239999Y-43610466D01*
X61240000Y-43610466D01*
X61240001Y-43610466D01*
X61290078Y-43603873D01*
X61390236Y-43590687D01*
X61530233Y-43532698D01*
X61650451Y-43440451D01*
X61742698Y-43320233D01*
X61800687Y-43180236D01*
X61804668Y-43149999D01*
X64019534Y-43149999D01*
X64019534Y-43150000D01*
X64039312Y-43300234D01*
X64039313Y-43300236D01*
X64095958Y-43436990D01*
X64097302Y-43440233D01*
X64189549Y-43560451D01*
X64309767Y-43652698D01*
X64449764Y-43710687D01*
X64524882Y-43720576D01*
X64599999Y-43730466D01*
X64600000Y-43730466D01*
X64600001Y-43730466D01*
X64650078Y-43723873D01*
X64750236Y-43710687D01*
X64890233Y-43652698D01*
X65010451Y-43560451D01*
X65102698Y-43440233D01*
X65160687Y-43300236D01*
X65180466Y-43150000D01*
X65160687Y-42999764D01*
X65102698Y-42859767D01*
X65010451Y-42739549D01*
X64890233Y-42647302D01*
X64890229Y-42647300D01*
X64750236Y-42589313D01*
X64750234Y-42589312D01*
X64600001Y-42569534D01*
X64599999Y-42569534D01*
X64449765Y-42589312D01*
X64449763Y-42589313D01*
X64309770Y-42647300D01*
X64309767Y-42647301D01*
X64309767Y-42647302D01*
X64189549Y-42739549D01*
X64135145Y-42810450D01*
X64097300Y-42859770D01*
X64039313Y-42999763D01*
X64039312Y-42999765D01*
X64019534Y-43149999D01*
X61804668Y-43149999D01*
X61813750Y-43081012D01*
X61842015Y-43017119D01*
X61900339Y-42978647D01*
X61952871Y-42974261D01*
X62000000Y-42980466D01*
X62150236Y-42960687D01*
X62290233Y-42902698D01*
X62410451Y-42810451D01*
X62502698Y-42690233D01*
X62560687Y-42550236D01*
X62580466Y-42400000D01*
X62560687Y-42249764D01*
X62502698Y-42109767D01*
X62410451Y-41989549D01*
X62290233Y-41897302D01*
X62290229Y-41897300D01*
X62150236Y-41839313D01*
X62150234Y-41839312D01*
X62000001Y-41819534D01*
X61999999Y-41819534D01*
X61849765Y-41839312D01*
X61849763Y-41839313D01*
X61709770Y-41897300D01*
X61589549Y-41989549D01*
X61497300Y-42109770D01*
X61439313Y-42249763D01*
X61439313Y-42249764D01*
X61426250Y-42348985D01*
X61397983Y-42412881D01*
X61339659Y-42451352D01*
X61287126Y-42455738D01*
X61240001Y-42449534D01*
X61239999Y-42449534D01*
X61089765Y-42469312D01*
X61089763Y-42469313D01*
X60949770Y-42527300D01*
X60949767Y-42527301D01*
X60949767Y-42527302D01*
X60829549Y-42619549D01*
X60737470Y-42739549D01*
X60737300Y-42739770D01*
X60679313Y-42879763D01*
X60679312Y-42879765D01*
X60659534Y-43029999D01*
X60364451Y-43029999D01*
X60361330Y-43006291D01*
X60305861Y-42872375D01*
X60292519Y-42854987D01*
X60267325Y-42789821D01*
X60266900Y-42780572D01*
X60262352Y-42238404D01*
X60281473Y-42171206D01*
X60333891Y-42125010D01*
X60370154Y-42114431D01*
X60393709Y-42111330D01*
X60527625Y-42055861D01*
X60642621Y-41967621D01*
X60730861Y-41852625D01*
X60786330Y-41718709D01*
X60805250Y-41575000D01*
X60786330Y-41431291D01*
X60730861Y-41297375D01*
X60642621Y-41182379D01*
X60527625Y-41094139D01*
X60527624Y-41094138D01*
X60527622Y-41094137D01*
X60393712Y-41038671D01*
X60393710Y-41038670D01*
X60393709Y-41038670D01*
X60359034Y-41034104D01*
X60295138Y-41005838D01*
X60256668Y-40947513D01*
X60251226Y-40912214D01*
X60240847Y-39674999D01*
X62619534Y-39674999D01*
X62619534Y-39675000D01*
X62639312Y-39825234D01*
X62639313Y-39825236D01*
X62689905Y-39947377D01*
X62697302Y-39965233D01*
X62789549Y-40085451D01*
X62909767Y-40177698D01*
X63049764Y-40235687D01*
X63124882Y-40245576D01*
X63199999Y-40255466D01*
X63200000Y-40255466D01*
X63200001Y-40255466D01*
X63250078Y-40248873D01*
X63350236Y-40235687D01*
X63490233Y-40177698D01*
X63610451Y-40085451D01*
X63702698Y-39965233D01*
X63760687Y-39825236D01*
X63762767Y-39809434D01*
X63791033Y-39745538D01*
X63849357Y-39707066D01*
X63869518Y-39702680D01*
X63993709Y-39686330D01*
X64080318Y-39650455D01*
X64149784Y-39642987D01*
X64212264Y-39674262D01*
X64247916Y-39734351D01*
X64245423Y-39804176D01*
X64226144Y-39840503D01*
X64144139Y-39947374D01*
X64144138Y-39947376D01*
X64088671Y-40081287D01*
X64088670Y-40081291D01*
X64069750Y-40224999D01*
X64069750Y-40225000D01*
X64088670Y-40368708D01*
X64088671Y-40368712D01*
X64144137Y-40502622D01*
X64144138Y-40502624D01*
X64144139Y-40502625D01*
X64232379Y-40617621D01*
X64347375Y-40705861D01*
X64481291Y-40761330D01*
X64608280Y-40778048D01*
X64624999Y-40780250D01*
X64625000Y-40780250D01*
X64625001Y-40780250D01*
X64639977Y-40778278D01*
X64768709Y-40761330D01*
X64902625Y-40705861D01*
X65017621Y-40617621D01*
X65105861Y-40502625D01*
X65161330Y-40368709D01*
X65180250Y-40225000D01*
X65161330Y-40081291D01*
X65105861Y-39947375D01*
X65017621Y-39832379D01*
X64902625Y-39744139D01*
X64902624Y-39744138D01*
X64902622Y-39744137D01*
X64768712Y-39688671D01*
X64768710Y-39688670D01*
X64768709Y-39688670D01*
X64664877Y-39675000D01*
X64625001Y-39669750D01*
X64624999Y-39669750D01*
X64481293Y-39688669D01*
X64464232Y-39695736D01*
X64394681Y-39724544D01*
X64325213Y-39732012D01*
X64262734Y-39700736D01*
X64227082Y-39640647D01*
X64229577Y-39570822D01*
X64248856Y-39534495D01*
X64277340Y-39497375D01*
X64330861Y-39427625D01*
X64386330Y-39293709D01*
X64405250Y-39150000D01*
X64386330Y-39006291D01*
X64330861Y-38872375D01*
X64242621Y-38757379D01*
X64127625Y-38669139D01*
X64127624Y-38669138D01*
X64127622Y-38669137D01*
X63993712Y-38613671D01*
X63993710Y-38613670D01*
X63993709Y-38613670D01*
X63921854Y-38604210D01*
X63850001Y-38594750D01*
X63849999Y-38594750D01*
X63706291Y-38613670D01*
X63706287Y-38613671D01*
X63572377Y-38669137D01*
X63457379Y-38757379D01*
X63369137Y-38872377D01*
X63310560Y-39013799D01*
X63308390Y-39012900D01*
X63278285Y-39062290D01*
X63215437Y-39092818D01*
X63208052Y-39093434D01*
X63208058Y-39093473D01*
X63049764Y-39114313D01*
X63049763Y-39114313D01*
X62909770Y-39172300D01*
X62909767Y-39172301D01*
X62909767Y-39172302D01*
X62789549Y-39264549D01*
X62699135Y-39382379D01*
X62697300Y-39384770D01*
X62639313Y-39524763D01*
X62639312Y-39524765D01*
X62619534Y-39674999D01*
X60240847Y-39674999D01*
X60211956Y-36231216D01*
X60212201Y-36222330D01*
X60213264Y-36205581D01*
X60229528Y-35949369D01*
X60231925Y-35931749D01*
X60231936Y-35931696D01*
X60287211Y-35668432D01*
X60292100Y-35651352D01*
X60384491Y-35398649D01*
X60391773Y-35382443D01*
X60519369Y-35145557D01*
X60528890Y-35130565D01*
X60689072Y-34914363D01*
X60700651Y-34900878D01*
X60890092Y-34709840D01*
X60903490Y-34698140D01*
X61118326Y-34536163D01*
X61133255Y-34526504D01*
X61369053Y-34396931D01*
X61385193Y-34389515D01*
X61637122Y-34295002D01*
X61654152Y-34289974D01*
X61917008Y-34232478D01*
X61934591Y-34229936D01*
X62207413Y-34210319D01*
X62216306Y-34210000D01*
X63620572Y-34210000D01*
X63629418Y-34210316D01*
X63900790Y-34229724D01*
X63918291Y-34232241D01*
X64179803Y-34289129D01*
X64196762Y-34294108D01*
X64447524Y-34387638D01*
X64463616Y-34394987D01*
X64698501Y-34523244D01*
X64713375Y-34532802D01*
X64927624Y-34693188D01*
X64940994Y-34704774D01*
X65130225Y-34894005D01*
X65141811Y-34907375D01*
X65210765Y-34999487D01*
X65302193Y-35121619D01*
X65311758Y-35136503D01*
X65440011Y-35371382D01*
X65447361Y-35387475D01*
X65540888Y-35638229D01*
X65545872Y-35655205D01*
X65602757Y-35916702D01*
X65605275Y-35934214D01*
X65624684Y-36205581D01*
X65625000Y-36214427D01*
X65625000Y-45335000D01*
X68100000Y-45325000D01*
X68107103Y-42334635D01*
X68126945Y-42267650D01*
X68132700Y-42259485D01*
X68210861Y-42157625D01*
X68266330Y-42023709D01*
X68285250Y-41880000D01*
X68266330Y-41736291D01*
X68210861Y-41602375D01*
X68134879Y-41503354D01*
X68109686Y-41438186D01*
X68109257Y-41427613D01*
X68109830Y-41186365D01*
X68129673Y-41119379D01*
X68182586Y-41073750D01*
X68251768Y-41063970D01*
X68309314Y-41088289D01*
X68397375Y-41155861D01*
X68531291Y-41211330D01*
X68658280Y-41228048D01*
X68674999Y-41230250D01*
X68675000Y-41230250D01*
X68675001Y-41230250D01*
X68689977Y-41228278D01*
X68818709Y-41211330D01*
X68952625Y-41155861D01*
X69067621Y-41067621D01*
X69155861Y-40952625D01*
X69211330Y-40818709D01*
X69230250Y-40675000D01*
X69211330Y-40531291D01*
X69155861Y-40397375D01*
X69067621Y-40282379D01*
X68952625Y-40194139D01*
X68952624Y-40194138D01*
X68952622Y-40194137D01*
X68818712Y-40138671D01*
X68818710Y-40138670D01*
X68818709Y-40138670D01*
X68746854Y-40129210D01*
X68675001Y-40119750D01*
X68674999Y-40119750D01*
X68531291Y-40138670D01*
X68531287Y-40138671D01*
X68397376Y-40194138D01*
X68397374Y-40194139D01*
X68311750Y-40259841D01*
X68246581Y-40285035D01*
X68178136Y-40270997D01*
X68128147Y-40222182D01*
X68112265Y-40161176D01*
X68113182Y-39774999D01*
X69644750Y-39774999D01*
X69644750Y-39775000D01*
X69663670Y-39918708D01*
X69663671Y-39918712D01*
X69719137Y-40052622D01*
X69719138Y-40052624D01*
X69719139Y-40052625D01*
X69807379Y-40167621D01*
X69922375Y-40255861D01*
X69922376Y-40255861D01*
X69922377Y-40255862D01*
X69958917Y-40270997D01*
X70056291Y-40311330D01*
X70183280Y-40328048D01*
X70199999Y-40330250D01*
X70200000Y-40330250D01*
X70200001Y-40330250D01*
X70214977Y-40328278D01*
X70343709Y-40311330D01*
X70477625Y-40255861D01*
X70592621Y-40167621D01*
X70680861Y-40052625D01*
X70736330Y-39918709D01*
X70755250Y-39775000D01*
X70736330Y-39631291D01*
X70680861Y-39497375D01*
X70592621Y-39382379D01*
X70477625Y-39294139D01*
X70477624Y-39294138D01*
X70477622Y-39294137D01*
X70343712Y-39238671D01*
X70343710Y-39238670D01*
X70343709Y-39238670D01*
X70271854Y-39229210D01*
X70200001Y-39219750D01*
X70199999Y-39219750D01*
X70056291Y-39238670D01*
X70056287Y-39238671D01*
X69922377Y-39294137D01*
X69807379Y-39382379D01*
X69719137Y-39497377D01*
X69663671Y-39631287D01*
X69663670Y-39631291D01*
X69644750Y-39774999D01*
X68113182Y-39774999D01*
X68115201Y-38925000D01*
X71219750Y-38925000D01*
X71231322Y-39012900D01*
X71238670Y-39068708D01*
X71238671Y-39068712D01*
X71294137Y-39202622D01*
X71294138Y-39202624D01*
X71294139Y-39202625D01*
X71382379Y-39317621D01*
X71497375Y-39405861D01*
X71631291Y-39461330D01*
X71758280Y-39478048D01*
X71774999Y-39480250D01*
X71775000Y-39480250D01*
X71775001Y-39480250D01*
X71789977Y-39478278D01*
X71918709Y-39461330D01*
X72052625Y-39405861D01*
X72167621Y-39317621D01*
X72255861Y-39202625D01*
X72311330Y-39068709D01*
X72330250Y-38925000D01*
X72311330Y-38781291D01*
X72255861Y-38647375D01*
X72167621Y-38532379D01*
X72052625Y-38444139D01*
X72052624Y-38444138D01*
X72052622Y-38444137D01*
X71918712Y-38388671D01*
X71918710Y-38388670D01*
X71918709Y-38388670D01*
X71846854Y-38379210D01*
X71775001Y-38369750D01*
X71774999Y-38369750D01*
X71631291Y-38388670D01*
X71631287Y-38388671D01*
X71497377Y-38444137D01*
X71382379Y-38532379D01*
X71294137Y-38647377D01*
X71238671Y-38781287D01*
X71238670Y-38781291D01*
X71219750Y-38925000D01*
X68115201Y-38925000D01*
X68119340Y-37182765D01*
X76777286Y-37182765D01*
X76777286Y-37182766D01*
X76796206Y-37326474D01*
X76796207Y-37326478D01*
X76851673Y-37460388D01*
X76851674Y-37460390D01*
X76851675Y-37460391D01*
X76939915Y-37575387D01*
X77054911Y-37663627D01*
X77188827Y-37719096D01*
X77315816Y-37735814D01*
X77332535Y-37738016D01*
X77332536Y-37738016D01*
X77332537Y-37738016D01*
X77347513Y-37736044D01*
X77476245Y-37719096D01*
X77610161Y-37663627D01*
X77725157Y-37575387D01*
X77813397Y-37460391D01*
X77868866Y-37326475D01*
X77887786Y-37182766D01*
X77868866Y-37039057D01*
X77813397Y-36905141D01*
X77725157Y-36790145D01*
X77610161Y-36701905D01*
X77610160Y-36701904D01*
X77610158Y-36701903D01*
X77476248Y-36646437D01*
X77476246Y-36646436D01*
X77476245Y-36646436D01*
X77404390Y-36636976D01*
X77332537Y-36627516D01*
X77332535Y-36627516D01*
X77188827Y-36646436D01*
X77188823Y-36646437D01*
X77054913Y-36701903D01*
X76939915Y-36790145D01*
X76851673Y-36905143D01*
X76796207Y-37039053D01*
X76796206Y-37039057D01*
X76777286Y-37182765D01*
X68119340Y-37182765D01*
X68120250Y-36799654D01*
X68120585Y-36790852D01*
X68140579Y-36519923D01*
X68143131Y-36502446D01*
X68200468Y-36241454D01*
X68205478Y-36224514D01*
X68206298Y-36222330D01*
X68299320Y-35974315D01*
X68306685Y-35958263D01*
X68319190Y-35935450D01*
X68435133Y-35723930D01*
X68444691Y-35709107D01*
X68605145Y-35495392D01*
X68616720Y-35482069D01*
X68653107Y-35445768D01*
X68714467Y-35412358D01*
X68784153Y-35417425D01*
X68839058Y-35458068D01*
X68841488Y-35461235D01*
X68841490Y-35461239D01*
X68929730Y-35576235D01*
X69044726Y-35664475D01*
X69178642Y-35719944D01*
X69305631Y-35736662D01*
X69322350Y-35738864D01*
X69322351Y-35738864D01*
X69322352Y-35738864D01*
X69337328Y-35736892D01*
X69466060Y-35719944D01*
X69599976Y-35664475D01*
X69714972Y-35576235D01*
X69803212Y-35461239D01*
X69847274Y-35354860D01*
X69891113Y-35300461D01*
X69957407Y-35278395D01*
X70025106Y-35295674D01*
X70072717Y-35346810D01*
X70084773Y-35386130D01*
X70093670Y-35453708D01*
X70093671Y-35453712D01*
X70149137Y-35587622D01*
X70149138Y-35587624D01*
X70149139Y-35587625D01*
X70237379Y-35702621D01*
X70352375Y-35790861D01*
X70486291Y-35846330D01*
X70613280Y-35863048D01*
X70629999Y-35865250D01*
X70630000Y-35865250D01*
X70630001Y-35865250D01*
X70644977Y-35863278D01*
X70773709Y-35846330D01*
X70907625Y-35790861D01*
X71022621Y-35702621D01*
X71110861Y-35587625D01*
X71136801Y-35524999D01*
X79969534Y-35524999D01*
X79969534Y-35525000D01*
X79989312Y-35675234D01*
X79989313Y-35675236D01*
X80037206Y-35790861D01*
X80047302Y-35815233D01*
X80139549Y-35935451D01*
X80259767Y-36027698D01*
X80399764Y-36085687D01*
X80474882Y-36095576D01*
X80549999Y-36105466D01*
X80550000Y-36105466D01*
X80550001Y-36105466D01*
X80600078Y-36098873D01*
X80700236Y-36085687D01*
X80840233Y-36027698D01*
X80960451Y-35935451D01*
X81052698Y-35815233D01*
X81110687Y-35675236D01*
X81130466Y-35525000D01*
X81110687Y-35374764D01*
X81052698Y-35234767D01*
X80960451Y-35114549D01*
X80840233Y-35022302D01*
X80840229Y-35022300D01*
X80700236Y-34964313D01*
X80700234Y-34964312D01*
X80550001Y-34944534D01*
X80549999Y-34944534D01*
X80399765Y-34964312D01*
X80399763Y-34964313D01*
X80259770Y-35022300D01*
X80259767Y-35022301D01*
X80259767Y-35022302D01*
X80189053Y-35076563D01*
X80139549Y-35114549D01*
X80047300Y-35234770D01*
X79989313Y-35374763D01*
X79989312Y-35374765D01*
X79969534Y-35524999D01*
X71136801Y-35524999D01*
X71166330Y-35453709D01*
X71185250Y-35310000D01*
X71166330Y-35166291D01*
X71110861Y-35032375D01*
X71110860Y-35032374D01*
X71110860Y-35032373D01*
X71085625Y-34999487D01*
X71060430Y-34934318D01*
X71074468Y-34865873D01*
X71123282Y-34815883D01*
X71184000Y-34800000D01*
X77866134Y-34800000D01*
X79875000Y-34800000D01*
X79871091Y-33916584D01*
X79952698Y-33810233D01*
X80010687Y-33670236D01*
X80030466Y-33520000D01*
X80010687Y-33369764D01*
X79952698Y-33229767D01*
X79874446Y-33127787D01*
X79867521Y-33109876D01*
X79858908Y-31163264D01*
X79859186Y-31154427D01*
X79877500Y-30882200D01*
X79879951Y-30864652D01*
X79935999Y-30602181D01*
X79940936Y-30585141D01*
X80033861Y-30333373D01*
X80041179Y-30317211D01*
X80169087Y-30081274D01*
X80178634Y-30066328D01*
X80338902Y-29851063D01*
X80350480Y-29837634D01*
X80539838Y-29647437D01*
X80553217Y-29635798D01*
X80630166Y-29577976D01*
X80767781Y-29474570D01*
X80782671Y-29464967D01*
X81018053Y-29336008D01*
X81034162Y-29328627D01*
X81285535Y-29234582D01*
X81302544Y-29229573D01*
X81564764Y-29172365D01*
X81582301Y-29169836D01*
X81854435Y-29150317D01*
X81863306Y-29150000D01*
X84657625Y-29150000D01*
X84667353Y-29150381D01*
G37*
%TD.AperFunction*%
%TD*%
M02*
