%TF.GenerationSoftware,KiCad,Pcbnew,9.0.3*%
%TF.CreationDate,2025-09-23T13:00:18-07:00*%
%TF.ProjectId,PGS_USBW_Board,5047535f-5553-4425-975f-426f6172642e,rev?*%
%TF.SameCoordinates,Original*%
%TF.FileFunction,Legend,Top*%
%TF.FilePolarity,Positive*%
%FSLAX46Y46*%
G04 Gerber Fmt 4.6, Leading zero omitted, Abs format (unit mm)*
G04 Created by KiCad (PCBNEW 9.0.3) date 2025-09-23 13:00:18*
%MOMM*%
%LPD*%
G01*
G04 APERTURE LIST*
%ADD10C,0.100000*%
%ADD11C,0.120000*%
%ADD12C,0.200000*%
%ADD13C,0.127000*%
G04 APERTURE END LIST*
D10*
X72564037Y-34898979D02*
X65477000Y-34898980D01*
X71493391Y-30731600D02*
X71493391Y-31881600D01*
X73143391Y-38731600D02*
X72940864Y-38037836D01*
X66802000Y-34898980D02*
X73593391Y-34898980D01*
X73593391Y-40106600D01*
X66802000Y-40106600D01*
X66802000Y-34898980D01*
X65467190Y-34868549D02*
X65469592Y-30731600D01*
X84050000Y-26950000D02*
X83450000Y-27425000D01*
X72564037Y-31881240D02*
X72564037Y-34898979D01*
X71493391Y-31881600D02*
X72564037Y-31881240D01*
X77700000Y-32725000D02*
X76800000Y-32275000D01*
X65469592Y-30731600D02*
X71493391Y-30731600D01*
G36*
X65175900Y-34295498D02*
G01*
X65052023Y-34295498D01*
X65052023Y-34682928D01*
X64871084Y-34682928D01*
X64871084Y-34341660D01*
X64748261Y-34341660D01*
X64748261Y-34682928D01*
X64600158Y-34682928D01*
X64600158Y-34312259D01*
X64478342Y-34312259D01*
X64478342Y-34824665D01*
X65175900Y-34824665D01*
X65175900Y-34295498D01*
G37*
G36*
X64683826Y-33732946D02*
G01*
X64655720Y-33735517D01*
X64628909Y-33740941D01*
X64604150Y-33748938D01*
X64580861Y-33759578D01*
X64559580Y-33772539D01*
X64539937Y-33787977D01*
X64522218Y-33805667D01*
X64506322Y-33825725D01*
X64492343Y-33848145D01*
X64480408Y-33872879D01*
X64462965Y-33929825D01*
X64455170Y-33997065D01*
X64454895Y-34013306D01*
X64456338Y-34049658D01*
X64460583Y-34083217D01*
X64467259Y-34113122D01*
X64476333Y-34140397D01*
X64487372Y-34164448D01*
X64500465Y-34186000D01*
X64515258Y-34204779D01*
X64531832Y-34221133D01*
X64569917Y-34246580D01*
X64614728Y-34262521D01*
X64666495Y-34268420D01*
X64669126Y-34268433D01*
X64696371Y-34266979D01*
X64721134Y-34262666D01*
X64742473Y-34255996D01*
X64761857Y-34246878D01*
X64795094Y-34221747D01*
X64823398Y-34185792D01*
X64841317Y-34151883D01*
X64865210Y-34084745D01*
X64894852Y-33960778D01*
X64903680Y-33926918D01*
X64913755Y-33900572D01*
X64923387Y-33883404D01*
X64934006Y-33870597D01*
X64944660Y-33862238D01*
X64956205Y-33856728D01*
X64983055Y-33852655D01*
X65000794Y-33854108D01*
X65016968Y-33858418D01*
X65030964Y-33865178D01*
X65043393Y-33874438D01*
X65063396Y-33900367D01*
X65076762Y-33937570D01*
X65081790Y-33988072D01*
X65080344Y-34016439D01*
X65076084Y-34042402D01*
X65069481Y-34064843D01*
X65060511Y-34084781D01*
X65049904Y-34101253D01*
X65037346Y-34115210D01*
X65023582Y-34126096D01*
X65008189Y-34134454D01*
X64991564Y-34140093D01*
X64973515Y-34143082D01*
X64966248Y-34143502D01*
X64966248Y-34284186D01*
X64995445Y-34282148D01*
X65022666Y-34277320D01*
X65047367Y-34270004D01*
X65070191Y-34260216D01*
X65110017Y-34233783D01*
X65142925Y-34198084D01*
X65169055Y-34152493D01*
X65187821Y-34096035D01*
X65197991Y-34027821D01*
X65199347Y-33989126D01*
X65197871Y-33948869D01*
X65193404Y-33910891D01*
X65186547Y-33877976D01*
X65177025Y-33847423D01*
X65165817Y-33821467D01*
X65152256Y-33797850D01*
X65137454Y-33778070D01*
X65120539Y-33760584D01*
X65102442Y-33746183D01*
X65082376Y-33734084D01*
X65060805Y-33724579D01*
X65037297Y-33717486D01*
X64984079Y-33710937D01*
X64977834Y-33710872D01*
X64949698Y-33712301D01*
X64924698Y-33716443D01*
X64903101Y-33722888D01*
X64884029Y-33731505D01*
X64852035Y-33754940D01*
X64825883Y-33787638D01*
X64808757Y-33820094D01*
X64784525Y-33886736D01*
X64747849Y-34026953D01*
X64737748Y-34062158D01*
X64726217Y-34089855D01*
X64715980Y-34106578D01*
X64704484Y-34119235D01*
X64693258Y-34127150D01*
X64680826Y-34132278D01*
X64659646Y-34135076D01*
X64643668Y-34133616D01*
X64629307Y-34129255D01*
X64617282Y-34122510D01*
X64606776Y-34113235D01*
X64590273Y-34086725D01*
X64580056Y-34046896D01*
X64577764Y-34010146D01*
X64579233Y-33980611D01*
X64583655Y-33954803D01*
X64590034Y-33935033D01*
X64598749Y-33918030D01*
X64608895Y-33904719D01*
X64621060Y-33893664D01*
X64651195Y-33878216D01*
X64683826Y-33871523D01*
X64683826Y-33732946D01*
G37*
G36*
X64849222Y-33083303D02*
G01*
X64922894Y-33092926D01*
X64987894Y-33112494D01*
X65043690Y-33140784D01*
X65090001Y-33176708D01*
X65126678Y-33219425D01*
X65153526Y-33268375D01*
X65163158Y-33295099D01*
X65170157Y-33323243D01*
X65174449Y-33352899D01*
X65175900Y-33383846D01*
X65175900Y-33675747D01*
X64478342Y-33675747D01*
X64478342Y-33425841D01*
X64599105Y-33425841D01*
X64599105Y-33534010D01*
X65057289Y-33534010D01*
X65057289Y-33413247D01*
X65056020Y-33386645D01*
X65046315Y-33341404D01*
X65027684Y-33305235D01*
X65014680Y-33289681D01*
X64999325Y-33276059D01*
X64980286Y-33263575D01*
X64958563Y-33253216D01*
X64931369Y-33244165D01*
X64900896Y-33237605D01*
X64862437Y-33233102D01*
X64819793Y-33231622D01*
X64775626Y-33233265D01*
X64717723Y-33242619D01*
X64675429Y-33258995D01*
X64643974Y-33282351D01*
X64631227Y-33297380D01*
X64620705Y-33314553D01*
X64611675Y-33335841D01*
X64605138Y-33359844D01*
X64600592Y-33390928D01*
X64599105Y-33425841D01*
X64478342Y-33425841D01*
X64478342Y-33405920D01*
X64479295Y-33378133D01*
X64489357Y-33314493D01*
X64509675Y-33257500D01*
X64539509Y-33207560D01*
X64578348Y-33165064D01*
X64601069Y-33146742D01*
X64625906Y-33130514D01*
X64652967Y-33116400D01*
X64682054Y-33104600D01*
X64713413Y-33095137D01*
X64746720Y-33088233D01*
X64782320Y-33083960D01*
X64819793Y-33082512D01*
X64849222Y-33083303D01*
G37*
G36*
X72944258Y-25242647D02*
G01*
X72970931Y-25244114D01*
X72994629Y-25248519D01*
X73013466Y-25255018D01*
X73029915Y-25263919D01*
X73043211Y-25274479D01*
X73054422Y-25287170D01*
X73070627Y-25318930D01*
X73078869Y-25361844D01*
X73079630Y-25382278D01*
X73078184Y-25403745D01*
X73073925Y-25423392D01*
X73067229Y-25440619D01*
X73058113Y-25456012D01*
X73033310Y-25480856D01*
X72999502Y-25498024D01*
X72956060Y-25506575D01*
X72938992Y-25507208D01*
X72479342Y-25507208D01*
X72479342Y-25655265D01*
X72952639Y-25655265D01*
X72985613Y-25653813D01*
X73016168Y-25649511D01*
X73043251Y-25642771D01*
X73068129Y-25633547D01*
X73090257Y-25622243D01*
X73110320Y-25608716D01*
X73144150Y-25575449D01*
X73170379Y-25533275D01*
X73188949Y-25481045D01*
X73198986Y-25417269D01*
X73200347Y-25380171D01*
X73198884Y-25340476D01*
X73194503Y-25303491D01*
X73187734Y-25271242D01*
X73178408Y-25241499D01*
X73167249Y-25215730D01*
X73153824Y-25192293D01*
X73138837Y-25172059D01*
X73121784Y-25154048D01*
X73103097Y-25138607D01*
X73082445Y-25125372D01*
X73035124Y-25105620D01*
X72978509Y-25095055D01*
X72944258Y-25093537D01*
X72479342Y-25093537D01*
X72479342Y-25242647D01*
X72944258Y-25242647D01*
G37*
G36*
X72684826Y-24507125D02*
G01*
X72656720Y-24509697D01*
X72629909Y-24515121D01*
X72605150Y-24523118D01*
X72581861Y-24533758D01*
X72560580Y-24546719D01*
X72540937Y-24562157D01*
X72523218Y-24579847D01*
X72507322Y-24599905D01*
X72493343Y-24622325D01*
X72481408Y-24647059D01*
X72463965Y-24704005D01*
X72456170Y-24771245D01*
X72455895Y-24787486D01*
X72457338Y-24823837D01*
X72461583Y-24857397D01*
X72468259Y-24887302D01*
X72477333Y-24914577D01*
X72488372Y-24938628D01*
X72501465Y-24960180D01*
X72516258Y-24978958D01*
X72532832Y-24995313D01*
X72570917Y-25020760D01*
X72615728Y-25036701D01*
X72667495Y-25042600D01*
X72670126Y-25042613D01*
X72697371Y-25041159D01*
X72722134Y-25036845D01*
X72743473Y-25030176D01*
X72762857Y-25021058D01*
X72796094Y-24995927D01*
X72824398Y-24959972D01*
X72842317Y-24926063D01*
X72866210Y-24858925D01*
X72895852Y-24734958D01*
X72904680Y-24701098D01*
X72914755Y-24674752D01*
X72924387Y-24657583D01*
X72935006Y-24644777D01*
X72945660Y-24636418D01*
X72957205Y-24630908D01*
X72984055Y-24626835D01*
X73001794Y-24628288D01*
X73017968Y-24632598D01*
X73031964Y-24639358D01*
X73044393Y-24648618D01*
X73064396Y-24674547D01*
X73077762Y-24711750D01*
X73082790Y-24762252D01*
X73081344Y-24790619D01*
X73077084Y-24816582D01*
X73070481Y-24839023D01*
X73061511Y-24858961D01*
X73050904Y-24875433D01*
X73038346Y-24889390D01*
X73024582Y-24900276D01*
X73009189Y-24908634D01*
X72992564Y-24914273D01*
X72974515Y-24917262D01*
X72967248Y-24917682D01*
X72967248Y-25058366D01*
X72996445Y-25056328D01*
X73023666Y-25051500D01*
X73048367Y-25044184D01*
X73071191Y-25034396D01*
X73111017Y-25007963D01*
X73143925Y-24972264D01*
X73170055Y-24926673D01*
X73188821Y-24870215D01*
X73198991Y-24802001D01*
X73200347Y-24763306D01*
X73198871Y-24723049D01*
X73194404Y-24685071D01*
X73187547Y-24652156D01*
X73178025Y-24621603D01*
X73166817Y-24595647D01*
X73153256Y-24572030D01*
X73138454Y-24552250D01*
X73121539Y-24534764D01*
X73103442Y-24520362D01*
X73083376Y-24508264D01*
X73061805Y-24498759D01*
X73038297Y-24491666D01*
X72985079Y-24485117D01*
X72978834Y-24485052D01*
X72950698Y-24486481D01*
X72925698Y-24490623D01*
X72904101Y-24497068D01*
X72885029Y-24505685D01*
X72853035Y-24529120D01*
X72826883Y-24561818D01*
X72809757Y-24594274D01*
X72785525Y-24660916D01*
X72748849Y-24801133D01*
X72738748Y-24836338D01*
X72727217Y-24864035D01*
X72716980Y-24880758D01*
X72705484Y-24893415D01*
X72694258Y-24901330D01*
X72681826Y-24906458D01*
X72660646Y-24909256D01*
X72644668Y-24907796D01*
X72630307Y-24903435D01*
X72618282Y-24896689D01*
X72607776Y-24887415D01*
X72591273Y-24860905D01*
X72581056Y-24821076D01*
X72578764Y-24784326D01*
X72580233Y-24754790D01*
X72584655Y-24728982D01*
X72591034Y-24709213D01*
X72599749Y-24692210D01*
X72609895Y-24678899D01*
X72622060Y-24667844D01*
X72652195Y-24652396D01*
X72684826Y-24645703D01*
X72684826Y-24507125D01*
G37*
G36*
X73020624Y-23880825D02*
G01*
X73064476Y-23895874D01*
X73101393Y-23920372D01*
X73117513Y-23936422D01*
X73131850Y-23954953D01*
X73144704Y-23976688D01*
X73155512Y-24001088D01*
X73164540Y-24029445D01*
X73171168Y-24060738D01*
X73175450Y-24096738D01*
X73176900Y-24135998D01*
X73176900Y-24449927D01*
X72479342Y-24449927D01*
X72479342Y-24133892D01*
X72600105Y-24133892D01*
X72600105Y-24309243D01*
X72751917Y-24309243D01*
X72751917Y-24125465D01*
X72751850Y-24122351D01*
X72870573Y-24122351D01*
X72870573Y-24309243D01*
X73058289Y-24309243D01*
X73058289Y-24124458D01*
X73055862Y-24097972D01*
X73051000Y-24080215D01*
X73043760Y-24064478D01*
X73034256Y-24050741D01*
X73022753Y-24039237D01*
X73009171Y-24029895D01*
X72993950Y-24023068D01*
X72976936Y-24018791D01*
X72958684Y-24017342D01*
X72944119Y-24018171D01*
X72914184Y-24026994D01*
X72901983Y-24035060D01*
X72891848Y-24045394D01*
X72882995Y-24059333D01*
X72876554Y-24075780D01*
X72872054Y-24097605D01*
X72870573Y-24122351D01*
X72751850Y-24122351D01*
X72751751Y-24117694D01*
X72745457Y-24082498D01*
X72731385Y-24058412D01*
X72721266Y-24049590D01*
X72709189Y-24043121D01*
X72693749Y-24038768D01*
X72676034Y-24037309D01*
X72671277Y-24037386D01*
X72641284Y-24042884D01*
X72629954Y-24048774D01*
X72620554Y-24056888D01*
X72612278Y-24068636D01*
X72606213Y-24083360D01*
X72601601Y-24106102D01*
X72600105Y-24133892D01*
X72479342Y-24133892D01*
X72479342Y-24106598D01*
X72480757Y-24074837D01*
X72491050Y-24021184D01*
X72510081Y-23977916D01*
X72522612Y-23959798D01*
X72537103Y-23943906D01*
X72553728Y-23930086D01*
X72572217Y-23918609D01*
X72593260Y-23909216D01*
X72616138Y-23902396D01*
X72642012Y-23898039D01*
X72669714Y-23896579D01*
X72671872Y-23896595D01*
X72693105Y-23898467D01*
X72713255Y-23903268D01*
X72732733Y-23911037D01*
X72750565Y-23921359D01*
X72766580Y-23934009D01*
X72780432Y-23948637D01*
X72800231Y-23981622D01*
X72815143Y-23950556D01*
X72840006Y-23919401D01*
X72872516Y-23896246D01*
X72892261Y-23887622D01*
X72914635Y-23881167D01*
X72940362Y-23877033D01*
X72969171Y-23875605D01*
X73020624Y-23880825D01*
G37*
G36*
X72907255Y-23597718D02*
G01*
X72801239Y-23597718D01*
X72801239Y-23858111D01*
X72907255Y-23858111D01*
X72907255Y-23597718D01*
G37*
G36*
X72936839Y-23085495D02*
G01*
X72964284Y-23093291D01*
X72988874Y-23103470D01*
X73008940Y-23114977D01*
X73026428Y-23128524D01*
X73040491Y-23143174D01*
X73052135Y-23159652D01*
X73067680Y-23197156D01*
X73073304Y-23242427D01*
X73073310Y-23244039D01*
X73071856Y-23268012D01*
X73067537Y-23290166D01*
X73060752Y-23309736D01*
X73051443Y-23327626D01*
X73025743Y-23358142D01*
X72989683Y-23382632D01*
X72941409Y-23400945D01*
X72878523Y-23411901D01*
X72827617Y-23414169D01*
X72786763Y-23412698D01*
X72749118Y-23408260D01*
X72717666Y-23401582D01*
X72689158Y-23392371D01*
X72665750Y-23381695D01*
X72645013Y-23368855D01*
X72628211Y-23354954D01*
X72613879Y-23339147D01*
X72602534Y-23322195D01*
X72593598Y-23303463D01*
X72583252Y-23260839D01*
X72581924Y-23236712D01*
X72587654Y-23195627D01*
X72604535Y-23157762D01*
X72616945Y-23140709D01*
X72631853Y-23125254D01*
X72649064Y-23111686D01*
X72668545Y-23100149D01*
X72707907Y-23085495D01*
X72707907Y-22939544D01*
X72678725Y-22943839D01*
X72650583Y-22950926D01*
X72623779Y-22960683D01*
X72598341Y-22973072D01*
X72574653Y-22987874D01*
X72552634Y-23005127D01*
X72532678Y-23024517D01*
X72514668Y-23046174D01*
X72498941Y-23069731D01*
X72485418Y-23095379D01*
X72474351Y-23122768D01*
X72465739Y-23152087D01*
X72459761Y-23183066D01*
X72456495Y-23215834D01*
X72455895Y-23237765D01*
X72457350Y-23271871D01*
X72461675Y-23304398D01*
X72468634Y-23334668D01*
X72478230Y-23363311D01*
X72490214Y-23389899D01*
X72504651Y-23414797D01*
X72540457Y-23459102D01*
X72585595Y-23496259D01*
X72640336Y-23525952D01*
X72705106Y-23547477D01*
X72780301Y-23559781D01*
X72835998Y-23562226D01*
X72877270Y-23560781D01*
X72916128Y-23556524D01*
X72952032Y-23549699D01*
X72985568Y-23540378D01*
X73016364Y-23528828D01*
X73044824Y-23515063D01*
X73070768Y-23499306D01*
X73094383Y-23481582D01*
X73115673Y-23461983D01*
X73134606Y-23440630D01*
X73165603Y-23392622D01*
X73187136Y-23337816D01*
X73198619Y-23276487D01*
X73200347Y-23239871D01*
X73198898Y-23207519D01*
X73194615Y-23176684D01*
X73187665Y-23147647D01*
X73178119Y-23120206D01*
X73166084Y-23094432D01*
X73151648Y-23070352D01*
X73115649Y-23027178D01*
X73070302Y-22991006D01*
X73015681Y-22962497D01*
X72951961Y-22942626D01*
X72936839Y-22939544D01*
X72936839Y-23085495D01*
G37*
G36*
X83529327Y-34354238D02*
G01*
X83554822Y-34360502D01*
X83578614Y-34369340D01*
X83600920Y-34380772D01*
X83621308Y-34394525D01*
X83639980Y-34410716D01*
X83656496Y-34428966D01*
X83670959Y-34449409D01*
X83683021Y-34471616D01*
X83692664Y-34495631D01*
X83699673Y-34521074D01*
X83703958Y-34547816D01*
X83705408Y-34575622D01*
X83701250Y-34622268D01*
X83686551Y-34670844D01*
X83662208Y-34712476D01*
X83629031Y-34746463D01*
X83609310Y-34760363D01*
X83587611Y-34772035D01*
X83563912Y-34781389D01*
X83538392Y-34788242D01*
X83510926Y-34792486D01*
X83481788Y-34793930D01*
X83320084Y-34793930D01*
X83320084Y-35047500D01*
X83174134Y-35047500D01*
X83174134Y-34675273D01*
X83320084Y-34675273D01*
X83458661Y-34675273D01*
X83494896Y-34672141D01*
X83529995Y-34660206D01*
X83543771Y-34651161D01*
X83555058Y-34640274D01*
X83564488Y-34626724D01*
X83571260Y-34611400D01*
X83575828Y-34592286D01*
X83577318Y-34571409D01*
X83573679Y-34541124D01*
X83560900Y-34512673D01*
X83551111Y-34500984D01*
X83538878Y-34490958D01*
X83523709Y-34482577D01*
X83505790Y-34476292D01*
X83483853Y-34472136D01*
X83458661Y-34470705D01*
X83320084Y-34470705D01*
X83320084Y-34675273D01*
X83174134Y-34675273D01*
X83174134Y-34349942D01*
X83481788Y-34349942D01*
X83529327Y-34354238D01*
G37*
G36*
X84106967Y-34328785D02*
G01*
X84170442Y-34340862D01*
X84225538Y-34362532D01*
X84250232Y-34376849D01*
X84273053Y-34393447D01*
X84294222Y-34412524D01*
X84313426Y-34433847D01*
X84331066Y-34458017D01*
X84346587Y-34484457D01*
X84360411Y-34514207D01*
X84371901Y-34546289D01*
X84381360Y-34582138D01*
X84388222Y-34620397D01*
X84392576Y-34662783D01*
X84394035Y-34707651D01*
X84392133Y-34758422D01*
X84381018Y-34832991D01*
X84361141Y-34895300D01*
X84333343Y-34947004D01*
X84297818Y-34989417D01*
X84276932Y-35007486D01*
X84254087Y-35023312D01*
X84228594Y-35037233D01*
X84201084Y-35048767D01*
X84170280Y-35058242D01*
X84137340Y-35065101D01*
X84100415Y-35069483D01*
X84061193Y-35070947D01*
X84017101Y-35068982D01*
X83951564Y-35057508D01*
X83895227Y-35036664D01*
X83847115Y-35006941D01*
X83825863Y-34988673D01*
X83806583Y-34968203D01*
X83788982Y-34945094D01*
X83773491Y-34919754D01*
X83759739Y-34891283D01*
X83748300Y-34860498D01*
X83738887Y-34826044D01*
X83732050Y-34789157D01*
X83727703Y-34748108D01*
X83726351Y-34707651D01*
X83870134Y-34707651D01*
X83872763Y-34759719D01*
X83884243Y-34818680D01*
X83903363Y-34864087D01*
X83929491Y-34898593D01*
X83945469Y-34912436D01*
X83963208Y-34923839D01*
X83983797Y-34933273D01*
X84006250Y-34940077D01*
X84032685Y-34944541D01*
X84061193Y-34946017D01*
X84096130Y-34943135D01*
X84138768Y-34930337D01*
X84175285Y-34907824D01*
X84191232Y-34892897D01*
X84205579Y-34875412D01*
X84218287Y-34855141D01*
X84229077Y-34832185D01*
X84237968Y-34805925D01*
X84244553Y-34776776D01*
X84248754Y-34743784D01*
X84250191Y-34707651D01*
X84246545Y-34645125D01*
X84233898Y-34585175D01*
X84213796Y-34538632D01*
X84187082Y-34503307D01*
X84171186Y-34489310D01*
X84153591Y-34477717D01*
X84133770Y-34468327D01*
X84112209Y-34461514D01*
X84087636Y-34457145D01*
X84061193Y-34455684D01*
X84024269Y-34458563D01*
X83981155Y-34471140D01*
X83962242Y-34481048D01*
X83945013Y-34493363D01*
X83929136Y-34508454D01*
X83915084Y-34526032D01*
X83902313Y-34547162D01*
X83891622Y-34570992D01*
X83882556Y-34599331D01*
X83875930Y-34630682D01*
X83871591Y-34667479D01*
X83870134Y-34707651D01*
X83726351Y-34707651D01*
X83726245Y-34704491D01*
X83729132Y-34643326D01*
X83741811Y-34569228D01*
X83763415Y-34506087D01*
X83793022Y-34453050D01*
X83830191Y-34409358D01*
X83851636Y-34390839D01*
X83874981Y-34374558D01*
X83900489Y-34360421D01*
X83927884Y-34348672D01*
X83957820Y-34339176D01*
X83989668Y-34332280D01*
X84024448Y-34327950D01*
X84061193Y-34326495D01*
X84106967Y-34328785D01*
G37*
G36*
X85043416Y-35047500D02*
G01*
X85238688Y-34349942D01*
X85089578Y-34349942D01*
X84976188Y-34801715D01*
X84870171Y-34349942D01*
X84716848Y-34349942D01*
X84620265Y-34801715D01*
X84505822Y-34349942D01*
X84350392Y-34349942D01*
X84547817Y-35047500D01*
X84684287Y-35047500D01*
X84794563Y-34593712D01*
X84902686Y-35047500D01*
X85043416Y-35047500D01*
G37*
G36*
X85798905Y-35047500D02*
G01*
X85798905Y-34923623D01*
X85411475Y-34923623D01*
X85411475Y-34742684D01*
X85752743Y-34742684D01*
X85752743Y-34619861D01*
X85411475Y-34619861D01*
X85411475Y-34471758D01*
X85782144Y-34471758D01*
X85782144Y-34349942D01*
X85269737Y-34349942D01*
X85269737Y-35047500D01*
X85798905Y-35047500D01*
G37*
G36*
X86217764Y-34352263D02*
G01*
X86244052Y-34357207D01*
X86268609Y-34364740D01*
X86291327Y-34374715D01*
X86312107Y-34386992D01*
X86330867Y-34401444D01*
X86347476Y-34417915D01*
X86361861Y-34436307D01*
X86373876Y-34456438D01*
X86383439Y-34478229D01*
X86390405Y-34501476D01*
X86394677Y-34526103D01*
X86396124Y-34551900D01*
X86393470Y-34585938D01*
X86380859Y-34629940D01*
X86359161Y-34666396D01*
X86329443Y-34694628D01*
X86311776Y-34705474D01*
X86292168Y-34714062D01*
X86299367Y-34716507D01*
X86333340Y-34733474D01*
X86355996Y-34756128D01*
X86364671Y-34771800D01*
X86370960Y-34790219D01*
X86375697Y-34817637D01*
X86377211Y-34850441D01*
X86377211Y-35047500D01*
X86234420Y-35047500D01*
X86234420Y-34868256D01*
X86233302Y-34846090D01*
X86225541Y-34815835D01*
X86218854Y-34804595D01*
X86209991Y-34795283D01*
X86197345Y-34787090D01*
X86181530Y-34781083D01*
X86156394Y-34776427D01*
X86125198Y-34774924D01*
X85969814Y-34774924D01*
X85969814Y-35047500D01*
X85828077Y-35047500D01*
X85828077Y-34657367D01*
X85969814Y-34657367D01*
X86152538Y-34657367D01*
X86175938Y-34656045D01*
X86211951Y-34646603D01*
X86225840Y-34638805D01*
X86237158Y-34629166D01*
X86246642Y-34616861D01*
X86253423Y-34602791D01*
X86258102Y-34584559D01*
X86259608Y-34564540D01*
X86257787Y-34542190D01*
X86247640Y-34512740D01*
X86228947Y-34490909D01*
X86215800Y-34482562D01*
X86200082Y-34476306D01*
X86180480Y-34472138D01*
X86157759Y-34470705D01*
X85969814Y-34470705D01*
X85969814Y-34657367D01*
X85828077Y-34657367D01*
X85828077Y-34349942D01*
X86181893Y-34349942D01*
X86217764Y-34352263D01*
G37*
G36*
X66580726Y-39570470D02*
G01*
X66453689Y-39570470D01*
X66453689Y-39915906D01*
X65883168Y-39915906D01*
X65883168Y-40061856D01*
X66580726Y-40061856D01*
X66580726Y-39570470D01*
G37*
G36*
X66580726Y-39353674D02*
G01*
X65883168Y-39117461D01*
X65883168Y-39268632D01*
X66372722Y-39419849D01*
X65883168Y-39572073D01*
X65883168Y-39727503D01*
X66580726Y-39491244D01*
X66580726Y-39353674D01*
G37*
G36*
X66580726Y-38593010D02*
G01*
X66453689Y-38593010D01*
X66453689Y-38938446D01*
X65883168Y-38938446D01*
X65883168Y-39084396D01*
X66580726Y-39084396D01*
X66580726Y-38593010D01*
G37*
G36*
X66088652Y-37772858D02*
G01*
X66060546Y-37775430D01*
X66033735Y-37780854D01*
X66008976Y-37788850D01*
X65985687Y-37799490D01*
X65964406Y-37812451D01*
X65944763Y-37827890D01*
X65927044Y-37845580D01*
X65911148Y-37865638D01*
X65897169Y-37888058D01*
X65885234Y-37912792D01*
X65867791Y-37969737D01*
X65859996Y-38036978D01*
X65859721Y-38053218D01*
X65861164Y-38089570D01*
X65865409Y-38123129D01*
X65872085Y-38153035D01*
X65881159Y-38180309D01*
X65892198Y-38204361D01*
X65905291Y-38225912D01*
X65920084Y-38244691D01*
X65936658Y-38261046D01*
X65974743Y-38286492D01*
X66019554Y-38302434D01*
X66071321Y-38308333D01*
X66073952Y-38308345D01*
X66101197Y-38306892D01*
X66125960Y-38302578D01*
X66147299Y-38295909D01*
X66166683Y-38286791D01*
X66199920Y-38261660D01*
X66228224Y-38225704D01*
X66246143Y-38191796D01*
X66270036Y-38124658D01*
X66299678Y-38000691D01*
X66308506Y-37966831D01*
X66318581Y-37940485D01*
X66328213Y-37923316D01*
X66338832Y-37910510D01*
X66349486Y-37902151D01*
X66361031Y-37896640D01*
X66387881Y-37892568D01*
X66405620Y-37894021D01*
X66421794Y-37898330D01*
X66435790Y-37905090D01*
X66448219Y-37914351D01*
X66468222Y-37940280D01*
X66481588Y-37977482D01*
X66486616Y-38027985D01*
X66485170Y-38056351D01*
X66480910Y-38082315D01*
X66474307Y-38104756D01*
X66465337Y-38124694D01*
X66454730Y-38141165D01*
X66442172Y-38155123D01*
X66428408Y-38166009D01*
X66413015Y-38174367D01*
X66396390Y-38180005D01*
X66378341Y-38182994D01*
X66371074Y-38183415D01*
X66371074Y-38324099D01*
X66400271Y-38322061D01*
X66427492Y-38317233D01*
X66452193Y-38309917D01*
X66475017Y-38300129D01*
X66514843Y-38273695D01*
X66547751Y-38237996D01*
X66573881Y-38192406D01*
X66592647Y-38135948D01*
X66602817Y-38067734D01*
X66604173Y-38029038D01*
X66602697Y-37988782D01*
X66598230Y-37950804D01*
X66591373Y-37917888D01*
X66581851Y-37887335D01*
X66570643Y-37861380D01*
X66557082Y-37837763D01*
X66542280Y-37817982D01*
X66525365Y-37800497D01*
X66507268Y-37786095D01*
X66487202Y-37773997D01*
X66465631Y-37764492D01*
X66442123Y-37757398D01*
X66388905Y-37750849D01*
X66382660Y-37750785D01*
X66354524Y-37752214D01*
X66329524Y-37756356D01*
X66307927Y-37762801D01*
X66288855Y-37771417D01*
X66256861Y-37794853D01*
X66230709Y-37827551D01*
X66213583Y-37860007D01*
X66189351Y-37926649D01*
X66152675Y-38066865D01*
X66142574Y-38102071D01*
X66131043Y-38129767D01*
X66120806Y-38146491D01*
X66109310Y-38159147D01*
X66098084Y-38167063D01*
X66085652Y-38172191D01*
X66064472Y-38174989D01*
X66048494Y-38173528D01*
X66034133Y-38169168D01*
X66022108Y-38162422D01*
X66011602Y-38153148D01*
X65995099Y-38126638D01*
X65984882Y-38086809D01*
X65982590Y-38050058D01*
X65984059Y-38020523D01*
X65988481Y-37994715D01*
X65994860Y-37974945D01*
X66003575Y-37957943D01*
X66013721Y-37944632D01*
X66025886Y-37933577D01*
X66056021Y-37918129D01*
X66088652Y-37911435D01*
X66088652Y-37772858D01*
G37*
G36*
X66580726Y-37150772D02*
G01*
X65883168Y-37150772D01*
X65883168Y-37297775D01*
X66145347Y-37297775D01*
X66145347Y-37569709D01*
X65883168Y-37569709D01*
X65883168Y-37715659D01*
X66580726Y-37715659D01*
X66580726Y-37569709D01*
X66267118Y-37569709D01*
X66267118Y-37297775D01*
X66580726Y-37297775D01*
X66580726Y-37150772D01*
G37*
G36*
X66580726Y-36953484D02*
G01*
X65883168Y-36953484D01*
X65883168Y-37099435D01*
X66580726Y-37099435D01*
X66580726Y-36953484D01*
G37*
G36*
X66287405Y-36450512D02*
G01*
X66164536Y-36450512D01*
X66164536Y-36757113D01*
X66004984Y-36757113D01*
X66004984Y-36406411D01*
X65883168Y-36406411D01*
X65883168Y-36903064D01*
X66580726Y-36903064D01*
X66580726Y-36757113D01*
X66287405Y-36757113D01*
X66287405Y-36450512D01*
G37*
G36*
X66580726Y-36024843D02*
G01*
X66004984Y-36024843D01*
X66004984Y-35813817D01*
X65883168Y-35813817D01*
X65883168Y-36380811D01*
X66004984Y-36380811D01*
X66004984Y-36170793D01*
X66580726Y-36170793D01*
X66580726Y-36024843D01*
G37*
G36*
X71075305Y-49547500D02*
G01*
X71075305Y-48849942D01*
X70865332Y-48849942D01*
X70739303Y-49361570D01*
X70613319Y-48849942D01*
X70399134Y-48849942D01*
X70399134Y-49547500D01*
X70534597Y-49547500D01*
X70534597Y-49071638D01*
X70663740Y-49547500D01*
X70808637Y-49547500D01*
X70938834Y-49069532D01*
X70938834Y-49547500D01*
X71075305Y-49547500D01*
G37*
G36*
X71770802Y-49547500D02*
G01*
X71612257Y-49547500D01*
X71568156Y-49403427D01*
X71310877Y-49403427D01*
X71261555Y-49547500D01*
X71107178Y-49547500D01*
X71201282Y-49283717D01*
X71348704Y-49283717D01*
X71526116Y-49283717D01*
X71438967Y-49006471D01*
X71437960Y-49006471D01*
X71348704Y-49283717D01*
X71201282Y-49283717D01*
X71356031Y-48849942D01*
X71525109Y-48849942D01*
X71770802Y-49547500D01*
G37*
G36*
X71948992Y-49547500D02*
G01*
X71948992Y-48849942D01*
X71803042Y-48849942D01*
X71803042Y-49547500D01*
X71948992Y-49547500D01*
G37*
G36*
X72567461Y-49547500D02*
G01*
X72567461Y-48849942D01*
X72430944Y-48849942D01*
X72430944Y-49298555D01*
X72153744Y-48849942D01*
X71999413Y-48849942D01*
X71999413Y-49547500D01*
X72134876Y-49547500D01*
X72134876Y-49079011D01*
X72433051Y-49547500D01*
X72567461Y-49547500D01*
G37*
G36*
X73247183Y-48851357D02*
G01*
X73300836Y-48861650D01*
X73344103Y-48880681D01*
X73362221Y-48893212D01*
X73378114Y-48907703D01*
X73391934Y-48924328D01*
X73403411Y-48942817D01*
X73412804Y-48963860D01*
X73419624Y-48986738D01*
X73423980Y-49012612D01*
X73425440Y-49040314D01*
X73425424Y-49042472D01*
X73423552Y-49063705D01*
X73418751Y-49083855D01*
X73410983Y-49103333D01*
X73400660Y-49121165D01*
X73388011Y-49137180D01*
X73373382Y-49151032D01*
X73340398Y-49170831D01*
X73371464Y-49185743D01*
X73402618Y-49210606D01*
X73425774Y-49243116D01*
X73434397Y-49262861D01*
X73440852Y-49285235D01*
X73444986Y-49310962D01*
X73446414Y-49339771D01*
X73441195Y-49391224D01*
X73426146Y-49435076D01*
X73401647Y-49471993D01*
X73385598Y-49488113D01*
X73367067Y-49502450D01*
X73345331Y-49515304D01*
X73320932Y-49526112D01*
X73292574Y-49535140D01*
X73261282Y-49541768D01*
X73225281Y-49546050D01*
X73186021Y-49547500D01*
X72872093Y-49547500D01*
X72872093Y-49428889D01*
X73012776Y-49428889D01*
X73197561Y-49428889D01*
X73224048Y-49426462D01*
X73241804Y-49421600D01*
X73257541Y-49414360D01*
X73271279Y-49404856D01*
X73282783Y-49393353D01*
X73292125Y-49379771D01*
X73298951Y-49364550D01*
X73303229Y-49347536D01*
X73304677Y-49329284D01*
X73303848Y-49314719D01*
X73295026Y-49284784D01*
X73286959Y-49272583D01*
X73276625Y-49262448D01*
X73262686Y-49253595D01*
X73246240Y-49247154D01*
X73224414Y-49242654D01*
X73199668Y-49241173D01*
X73012776Y-49241173D01*
X73012776Y-49428889D01*
X72872093Y-49428889D01*
X72872093Y-49122517D01*
X73012776Y-49122517D01*
X73196554Y-49122517D01*
X73204326Y-49122351D01*
X73239521Y-49116057D01*
X73263607Y-49101985D01*
X73272429Y-49091866D01*
X73278898Y-49079789D01*
X73283251Y-49064349D01*
X73284710Y-49046634D01*
X73284633Y-49041877D01*
X73279136Y-49011884D01*
X73273245Y-49000554D01*
X73265131Y-48991154D01*
X73253383Y-48982878D01*
X73238660Y-48976813D01*
X73215918Y-48972201D01*
X73188128Y-48970705D01*
X73012776Y-48970705D01*
X73012776Y-49122517D01*
X72872093Y-49122517D01*
X72872093Y-48849942D01*
X73215422Y-48849942D01*
X73247183Y-48851357D01*
G37*
G36*
X73846691Y-48828785D02*
G01*
X73910166Y-48840862D01*
X73965263Y-48862532D01*
X73989956Y-48876849D01*
X74012778Y-48893447D01*
X74033946Y-48912524D01*
X74053150Y-48933847D01*
X74070791Y-48958017D01*
X74086311Y-48984457D01*
X74100135Y-49014207D01*
X74111625Y-49046289D01*
X74121084Y-49082138D01*
X74127946Y-49120397D01*
X74132300Y-49162783D01*
X74133760Y-49207651D01*
X74131858Y-49258422D01*
X74120742Y-49332991D01*
X74100865Y-49395300D01*
X74073068Y-49447004D01*
X74037543Y-49489417D01*
X74016656Y-49507486D01*
X73993811Y-49523312D01*
X73968318Y-49537233D01*
X73940809Y-49548767D01*
X73910004Y-49558242D01*
X73877064Y-49565101D01*
X73840139Y-49569483D01*
X73800918Y-49570947D01*
X73756825Y-49568982D01*
X73691288Y-49557508D01*
X73634952Y-49536664D01*
X73586840Y-49506941D01*
X73565588Y-49488673D01*
X73546307Y-49468203D01*
X73528707Y-49445094D01*
X73513215Y-49419754D01*
X73499463Y-49391283D01*
X73488024Y-49360498D01*
X73478611Y-49326044D01*
X73471775Y-49289157D01*
X73467427Y-49248108D01*
X73466075Y-49207651D01*
X73609859Y-49207651D01*
X73612487Y-49259719D01*
X73623967Y-49318680D01*
X73643087Y-49364087D01*
X73669216Y-49398593D01*
X73685193Y-49412436D01*
X73702933Y-49423839D01*
X73723522Y-49433273D01*
X73745975Y-49440077D01*
X73772409Y-49444541D01*
X73800918Y-49446017D01*
X73835855Y-49443135D01*
X73878492Y-49430337D01*
X73915010Y-49407824D01*
X73930957Y-49392897D01*
X73945304Y-49375412D01*
X73958011Y-49355141D01*
X73968801Y-49332185D01*
X73977692Y-49305925D01*
X73984277Y-49276776D01*
X73988478Y-49243784D01*
X73989916Y-49207651D01*
X73986270Y-49145125D01*
X73973622Y-49085175D01*
X73953520Y-49038632D01*
X73926806Y-49003307D01*
X73910910Y-48989310D01*
X73893316Y-48977717D01*
X73873494Y-48968327D01*
X73851934Y-48961514D01*
X73827361Y-48957145D01*
X73800918Y-48955684D01*
X73763993Y-48958563D01*
X73720880Y-48971140D01*
X73701967Y-48981048D01*
X73684737Y-48993363D01*
X73668861Y-49008454D01*
X73654808Y-49026032D01*
X73642038Y-49047162D01*
X73631346Y-49070992D01*
X73622281Y-49099331D01*
X73615654Y-49130682D01*
X73611316Y-49167479D01*
X73609859Y-49207651D01*
X73466075Y-49207651D01*
X73465969Y-49204491D01*
X73468856Y-49143326D01*
X73481535Y-49069228D01*
X73503139Y-49006087D01*
X73532747Y-48953050D01*
X73569915Y-48909358D01*
X73591361Y-48890839D01*
X73614705Y-48874558D01*
X73640214Y-48860421D01*
X73667608Y-48848672D01*
X73697544Y-48839176D01*
X73729392Y-48832280D01*
X73764173Y-48827950D01*
X73800918Y-48826495D01*
X73846691Y-48828785D01*
G37*
G36*
X74744214Y-49547500D02*
G01*
X74585670Y-49547500D01*
X74541569Y-49403427D01*
X74284289Y-49403427D01*
X74234968Y-49547500D01*
X74080591Y-49547500D01*
X74174695Y-49283717D01*
X74322117Y-49283717D01*
X74499528Y-49283717D01*
X74412380Y-49006471D01*
X74411372Y-49006471D01*
X74322117Y-49283717D01*
X74174695Y-49283717D01*
X74329444Y-48849942D01*
X74498521Y-48849942D01*
X74744214Y-49547500D01*
G37*
G36*
X75166142Y-48852263D02*
G01*
X75192430Y-48857207D01*
X75216987Y-48864740D01*
X75239705Y-48874715D01*
X75260485Y-48886992D01*
X75279244Y-48901444D01*
X75295853Y-48917915D01*
X75310239Y-48936307D01*
X75322253Y-48956438D01*
X75331816Y-48978229D01*
X75338782Y-49001476D01*
X75343054Y-49026103D01*
X75344502Y-49051900D01*
X75341848Y-49085938D01*
X75329237Y-49129940D01*
X75307539Y-49166396D01*
X75277821Y-49194628D01*
X75260153Y-49205474D01*
X75240546Y-49214062D01*
X75247745Y-49216507D01*
X75281718Y-49233474D01*
X75304374Y-49256128D01*
X75313049Y-49271800D01*
X75319337Y-49290219D01*
X75324074Y-49317637D01*
X75325588Y-49350441D01*
X75325588Y-49547500D01*
X75182798Y-49547500D01*
X75182798Y-49368256D01*
X75181679Y-49346090D01*
X75173918Y-49315835D01*
X75167232Y-49304595D01*
X75158369Y-49295283D01*
X75145722Y-49287090D01*
X75129907Y-49281083D01*
X75104771Y-49276427D01*
X75073575Y-49274924D01*
X74918191Y-49274924D01*
X74918191Y-49547500D01*
X74776454Y-49547500D01*
X74776454Y-49157367D01*
X74918191Y-49157367D01*
X75100915Y-49157367D01*
X75124315Y-49156045D01*
X75160328Y-49146603D01*
X75174218Y-49138805D01*
X75185536Y-49129166D01*
X75195020Y-49116861D01*
X75201800Y-49102791D01*
X75206480Y-49084559D01*
X75207985Y-49064540D01*
X75206164Y-49042190D01*
X75196017Y-49012740D01*
X75177325Y-48990909D01*
X75164178Y-48982562D01*
X75148460Y-48976306D01*
X75128857Y-48972138D01*
X75106136Y-48970705D01*
X74918191Y-48970705D01*
X74918191Y-49157367D01*
X74776454Y-49157367D01*
X74776454Y-48849942D01*
X75130270Y-48849942D01*
X75166142Y-48852263D01*
G37*
G36*
X75680767Y-48850895D02*
G01*
X75744407Y-48860957D01*
X75801400Y-48881275D01*
X75851341Y-48911109D01*
X75893836Y-48949948D01*
X75912158Y-48972669D01*
X75928387Y-48997506D01*
X75942501Y-49024567D01*
X75954300Y-49053654D01*
X75963763Y-49085013D01*
X75970667Y-49118320D01*
X75974941Y-49153920D01*
X75976389Y-49191393D01*
X75975597Y-49220822D01*
X75965975Y-49294494D01*
X75946406Y-49359494D01*
X75918116Y-49415290D01*
X75882192Y-49461601D01*
X75839476Y-49498278D01*
X75790525Y-49525126D01*
X75763801Y-49534758D01*
X75735657Y-49541757D01*
X75706001Y-49546049D01*
X75675054Y-49547500D01*
X75383153Y-49547500D01*
X75383153Y-49428889D01*
X75524890Y-49428889D01*
X75645653Y-49428889D01*
X75672256Y-49427620D01*
X75717496Y-49417915D01*
X75753666Y-49399284D01*
X75769219Y-49386280D01*
X75782841Y-49370925D01*
X75795325Y-49351886D01*
X75805684Y-49330163D01*
X75814735Y-49302969D01*
X75821296Y-49272496D01*
X75825798Y-49234037D01*
X75827278Y-49191393D01*
X75825636Y-49147226D01*
X75816282Y-49089323D01*
X75799906Y-49047029D01*
X75776550Y-49015574D01*
X75761520Y-49002827D01*
X75744347Y-48992305D01*
X75723059Y-48983275D01*
X75699056Y-48976738D01*
X75667972Y-48972192D01*
X75633060Y-48970705D01*
X75524890Y-48970705D01*
X75524890Y-49428889D01*
X75383153Y-49428889D01*
X75383153Y-48849942D01*
X75652981Y-48849942D01*
X75680767Y-48850895D01*
G37*
G36*
X76740991Y-49307439D02*
G01*
X76733195Y-49334884D01*
X76723015Y-49359474D01*
X76711509Y-49379540D01*
X76697962Y-49397028D01*
X76683311Y-49411091D01*
X76666834Y-49422735D01*
X76629330Y-49438280D01*
X76584059Y-49443904D01*
X76582447Y-49443910D01*
X76558473Y-49442456D01*
X76536320Y-49438137D01*
X76516750Y-49431352D01*
X76498860Y-49422043D01*
X76468344Y-49396343D01*
X76443854Y-49360283D01*
X76425540Y-49312009D01*
X76414585Y-49249123D01*
X76412316Y-49198217D01*
X76413788Y-49157363D01*
X76418225Y-49119718D01*
X76424904Y-49088266D01*
X76434115Y-49059758D01*
X76444790Y-49036350D01*
X76457631Y-49015613D01*
X76471531Y-48998811D01*
X76487339Y-48984479D01*
X76504290Y-48973134D01*
X76523023Y-48964198D01*
X76565647Y-48953852D01*
X76589774Y-48952524D01*
X76630859Y-48958254D01*
X76668723Y-48975135D01*
X76685776Y-48987545D01*
X76701232Y-49002453D01*
X76714800Y-49019664D01*
X76726336Y-49039145D01*
X76740991Y-49078507D01*
X76886941Y-49078507D01*
X76882647Y-49049325D01*
X76875559Y-49021183D01*
X76865802Y-48994379D01*
X76853413Y-48968941D01*
X76838612Y-48945253D01*
X76821359Y-48923234D01*
X76801969Y-48903278D01*
X76780312Y-48885268D01*
X76756755Y-48869541D01*
X76731106Y-48856018D01*
X76703718Y-48844951D01*
X76674398Y-48836339D01*
X76643420Y-48830361D01*
X76610651Y-48827095D01*
X76588721Y-48826495D01*
X76554615Y-48827950D01*
X76522087Y-48832275D01*
X76491817Y-48839234D01*
X76463175Y-48848830D01*
X76436587Y-48860814D01*
X76411689Y-48875251D01*
X76367383Y-48911057D01*
X76330227Y-48956195D01*
X76300534Y-49010936D01*
X76279008Y-49075706D01*
X76266704Y-49150901D01*
X76264259Y-49206598D01*
X76265705Y-49247870D01*
X76269961Y-49286728D01*
X76276786Y-49322632D01*
X76286108Y-49356168D01*
X76297658Y-49386964D01*
X76311423Y-49415424D01*
X76327179Y-49441368D01*
X76344904Y-49464983D01*
X76364503Y-49486273D01*
X76385856Y-49505206D01*
X76433864Y-49536203D01*
X76488670Y-49557736D01*
X76549998Y-49569219D01*
X76586614Y-49570947D01*
X76618967Y-49569498D01*
X76649802Y-49565215D01*
X76678838Y-49558265D01*
X76706280Y-49548719D01*
X76732054Y-49536684D01*
X76756134Y-49522248D01*
X76799307Y-49486249D01*
X76835479Y-49440902D01*
X76863989Y-49386281D01*
X76883859Y-49322561D01*
X76886941Y-49307439D01*
X76740991Y-49307439D01*
G37*
G36*
X77288317Y-48828785D02*
G01*
X77351792Y-48840862D01*
X77406889Y-48862532D01*
X77431582Y-48876849D01*
X77454404Y-48893447D01*
X77475572Y-48912524D01*
X77494776Y-48933847D01*
X77512417Y-48958017D01*
X77527937Y-48984457D01*
X77541761Y-49014207D01*
X77553251Y-49046289D01*
X77562710Y-49082138D01*
X77569572Y-49120397D01*
X77573926Y-49162783D01*
X77575385Y-49207651D01*
X77573484Y-49258422D01*
X77562368Y-49332991D01*
X77542491Y-49395300D01*
X77514694Y-49447004D01*
X77479169Y-49489417D01*
X77458282Y-49507486D01*
X77435437Y-49523312D01*
X77409944Y-49537233D01*
X77382435Y-49548767D01*
X77351630Y-49558242D01*
X77318690Y-49565101D01*
X77281765Y-49569483D01*
X77242544Y-49570947D01*
X77198451Y-49568982D01*
X77132914Y-49557508D01*
X77076578Y-49536664D01*
X77028466Y-49506941D01*
X77007214Y-49488673D01*
X76987933Y-49468203D01*
X76970333Y-49445094D01*
X76954841Y-49419754D01*
X76941089Y-49391283D01*
X76929650Y-49360498D01*
X76920237Y-49326044D01*
X76913401Y-49289157D01*
X76909053Y-49248108D01*
X76907701Y-49207651D01*
X77051485Y-49207651D01*
X77054113Y-49259719D01*
X77065593Y-49318680D01*
X77084713Y-49364087D01*
X77110842Y-49398593D01*
X77126819Y-49412436D01*
X77144559Y-49423839D01*
X77165148Y-49433273D01*
X77187601Y-49440077D01*
X77214035Y-49444541D01*
X77242544Y-49446017D01*
X77277481Y-49443135D01*
X77320118Y-49430337D01*
X77356635Y-49407824D01*
X77372583Y-49392897D01*
X77386930Y-49375412D01*
X77399637Y-49355141D01*
X77410427Y-49332185D01*
X77419318Y-49305925D01*
X77425903Y-49276776D01*
X77430104Y-49243784D01*
X77431542Y-49207651D01*
X77427896Y-49145125D01*
X77415248Y-49085175D01*
X77395146Y-49038632D01*
X77368432Y-49003307D01*
X77352536Y-48989310D01*
X77334942Y-48977717D01*
X77315120Y-48968327D01*
X77293560Y-48961514D01*
X77268987Y-48957145D01*
X77242544Y-48955684D01*
X77205619Y-48958563D01*
X77162506Y-48971140D01*
X77143593Y-48981048D01*
X77126363Y-48993363D01*
X77110487Y-49008454D01*
X77096434Y-49026032D01*
X77083664Y-49047162D01*
X77072972Y-49070992D01*
X77063907Y-49099331D01*
X77057280Y-49130682D01*
X77052942Y-49167479D01*
X77051485Y-49207651D01*
X76907701Y-49207651D01*
X76907595Y-49204491D01*
X76910482Y-49143326D01*
X76923161Y-49069228D01*
X76944765Y-49006087D01*
X76974373Y-48953050D01*
X77011541Y-48909358D01*
X77032986Y-48890839D01*
X77056331Y-48874558D01*
X77081840Y-48860421D01*
X77109234Y-48848672D01*
X77139170Y-48839176D01*
X77171018Y-48832280D01*
X77205799Y-48827950D01*
X77242544Y-48826495D01*
X77288317Y-48828785D01*
G37*
G36*
X78187489Y-49547500D02*
G01*
X78187489Y-48849942D01*
X78050972Y-48849942D01*
X78050972Y-49298555D01*
X77773772Y-48849942D01*
X77619441Y-48849942D01*
X77619441Y-49547500D01*
X77754904Y-49547500D01*
X77754904Y-49079011D01*
X78053079Y-49547500D01*
X78187489Y-49547500D01*
G37*
G36*
X78807377Y-49547500D02*
G01*
X78807377Y-48849942D01*
X78670860Y-48849942D01*
X78670860Y-49298555D01*
X78393660Y-48849942D01*
X78239329Y-48849942D01*
X78239329Y-49547500D01*
X78374792Y-49547500D01*
X78374792Y-49079011D01*
X78672967Y-49547500D01*
X78807377Y-49547500D01*
G37*
G36*
X79388385Y-49547500D02*
G01*
X79388385Y-49423623D01*
X79000955Y-49423623D01*
X79000955Y-49242684D01*
X79342223Y-49242684D01*
X79342223Y-49119861D01*
X79000955Y-49119861D01*
X79000955Y-48971758D01*
X79371624Y-48971758D01*
X79371624Y-48849942D01*
X78859217Y-48849942D01*
X78859217Y-49547500D01*
X79388385Y-49547500D01*
G37*
G36*
X79885862Y-49307439D02*
G01*
X79878065Y-49334884D01*
X79867886Y-49359474D01*
X79856380Y-49379540D01*
X79842833Y-49397028D01*
X79828182Y-49411091D01*
X79811705Y-49422735D01*
X79774201Y-49438280D01*
X79728930Y-49443904D01*
X79727318Y-49443910D01*
X79703344Y-49442456D01*
X79681191Y-49438137D01*
X79661621Y-49431352D01*
X79643731Y-49422043D01*
X79613215Y-49396343D01*
X79588724Y-49360283D01*
X79570411Y-49312009D01*
X79559456Y-49249123D01*
X79557187Y-49198217D01*
X79558659Y-49157363D01*
X79563096Y-49119718D01*
X79569775Y-49088266D01*
X79578986Y-49059758D01*
X79589661Y-49036350D01*
X79602502Y-49015613D01*
X79616402Y-48998811D01*
X79632209Y-48984479D01*
X79649161Y-48973134D01*
X79667894Y-48964198D01*
X79710518Y-48953852D01*
X79734645Y-48952524D01*
X79775730Y-48958254D01*
X79813594Y-48975135D01*
X79830647Y-48987545D01*
X79846103Y-49002453D01*
X79859671Y-49019664D01*
X79871207Y-49039145D01*
X79885862Y-49078507D01*
X80031812Y-49078507D01*
X80027518Y-49049325D01*
X80020430Y-49021183D01*
X80010673Y-48994379D01*
X79998284Y-48968941D01*
X79983483Y-48945253D01*
X79966230Y-48923234D01*
X79946840Y-48903278D01*
X79925183Y-48885268D01*
X79901625Y-48869541D01*
X79875977Y-48856018D01*
X79848589Y-48844951D01*
X79819269Y-48836339D01*
X79788291Y-48830361D01*
X79755522Y-48827095D01*
X79733592Y-48826495D01*
X79699486Y-48827950D01*
X79666958Y-48832275D01*
X79636688Y-48839234D01*
X79608046Y-48848830D01*
X79581458Y-48860814D01*
X79556560Y-48875251D01*
X79512254Y-48911057D01*
X79475098Y-48956195D01*
X79445405Y-49010936D01*
X79423879Y-49075706D01*
X79411575Y-49150901D01*
X79409130Y-49206598D01*
X79410576Y-49247870D01*
X79414832Y-49286728D01*
X79421657Y-49322632D01*
X79430979Y-49356168D01*
X79442529Y-49386964D01*
X79456294Y-49415424D01*
X79472050Y-49441368D01*
X79489774Y-49464983D01*
X79509374Y-49486273D01*
X79530727Y-49505206D01*
X79578734Y-49536203D01*
X79633541Y-49557736D01*
X79694869Y-49569219D01*
X79731485Y-49570947D01*
X79763838Y-49569498D01*
X79794673Y-49565215D01*
X79823709Y-49558265D01*
X79851151Y-49548719D01*
X79876925Y-49536684D01*
X79901004Y-49522248D01*
X79944178Y-49486249D01*
X79980350Y-49440902D01*
X80008860Y-49386281D01*
X80028730Y-49322561D01*
X80031812Y-49307439D01*
X79885862Y-49307439D01*
G37*
G36*
X80371981Y-49547500D02*
G01*
X80371981Y-48971758D01*
X80583007Y-48971758D01*
X80583007Y-48849942D01*
X80016013Y-48849942D01*
X80016013Y-48971758D01*
X80226031Y-48971758D01*
X80226031Y-49547500D01*
X80371981Y-49547500D01*
G37*
G36*
X80957089Y-48828785D02*
G01*
X81020564Y-48840862D01*
X81075660Y-48862532D01*
X81100354Y-48876849D01*
X81123175Y-48893447D01*
X81144344Y-48912524D01*
X81163548Y-48933847D01*
X81181188Y-48958017D01*
X81196709Y-48984457D01*
X81210533Y-49014207D01*
X81222023Y-49046289D01*
X81231482Y-49082138D01*
X81238344Y-49120397D01*
X81242698Y-49162783D01*
X81244157Y-49207651D01*
X81242255Y-49258422D01*
X81231140Y-49332991D01*
X81211263Y-49395300D01*
X81183465Y-49447004D01*
X81147941Y-49489417D01*
X81127054Y-49507486D01*
X81104209Y-49523312D01*
X81078716Y-49537233D01*
X81051207Y-49548767D01*
X81020402Y-49558242D01*
X80987462Y-49565101D01*
X80950537Y-49569483D01*
X80911315Y-49570947D01*
X80867223Y-49568982D01*
X80801686Y-49557508D01*
X80745350Y-49536664D01*
X80697237Y-49506941D01*
X80675986Y-49488673D01*
X80656705Y-49468203D01*
X80639105Y-49445094D01*
X80623613Y-49419754D01*
X80609861Y-49391283D01*
X80598422Y-49360498D01*
X80589009Y-49326044D01*
X80582172Y-49289157D01*
X80577825Y-49248108D01*
X80576473Y-49207651D01*
X80720256Y-49207651D01*
X80722885Y-49259719D01*
X80734365Y-49318680D01*
X80753485Y-49364087D01*
X80779613Y-49398593D01*
X80795591Y-49412436D01*
X80813331Y-49423839D01*
X80833919Y-49433273D01*
X80856373Y-49440077D01*
X80882807Y-49444541D01*
X80911315Y-49446017D01*
X80946252Y-49443135D01*
X80988890Y-49430337D01*
X81025407Y-49407824D01*
X81041354Y-49392897D01*
X81055702Y-49375412D01*
X81068409Y-49355141D01*
X81079199Y-49332185D01*
X81088090Y-49305925D01*
X81094675Y-49276776D01*
X81098876Y-49243784D01*
X81100314Y-49207651D01*
X81096667Y-49145125D01*
X81084020Y-49085175D01*
X81063918Y-49038632D01*
X81037204Y-49003307D01*
X81021308Y-48989310D01*
X81003713Y-48977717D01*
X80983892Y-48968327D01*
X80962331Y-48961514D01*
X80937758Y-48957145D01*
X80911315Y-48955684D01*
X80874391Y-48958563D01*
X80831278Y-48971140D01*
X80812364Y-48981048D01*
X80795135Y-48993363D01*
X80779258Y-49008454D01*
X80765206Y-49026032D01*
X80752435Y-49047162D01*
X80741744Y-49070992D01*
X80732678Y-49099331D01*
X80726052Y-49130682D01*
X80721714Y-49167479D01*
X80720256Y-49207651D01*
X80576473Y-49207651D01*
X80576367Y-49204491D01*
X80579254Y-49143326D01*
X80591933Y-49069228D01*
X80613537Y-49006087D01*
X80643144Y-48953050D01*
X80680313Y-48909358D01*
X80701758Y-48890839D01*
X80725103Y-48874558D01*
X80750612Y-48860421D01*
X80778006Y-48848672D01*
X80807942Y-48839176D01*
X80839790Y-48832280D01*
X80874570Y-48827950D01*
X80911315Y-48826495D01*
X80957089Y-48828785D01*
G37*
G36*
X81677900Y-48852263D02*
G01*
X81704188Y-48857207D01*
X81728745Y-48864740D01*
X81751463Y-48874715D01*
X81772243Y-48886992D01*
X81791003Y-48901444D01*
X81807612Y-48917915D01*
X81821997Y-48936307D01*
X81834012Y-48956438D01*
X81843575Y-48978229D01*
X81850541Y-49001476D01*
X81854813Y-49026103D01*
X81856260Y-49051900D01*
X81853606Y-49085938D01*
X81840996Y-49129940D01*
X81819297Y-49166396D01*
X81789579Y-49194628D01*
X81771912Y-49205474D01*
X81752305Y-49214062D01*
X81759503Y-49216507D01*
X81793476Y-49233474D01*
X81816132Y-49256128D01*
X81824808Y-49271800D01*
X81831096Y-49290219D01*
X81835833Y-49317637D01*
X81837347Y-49350441D01*
X81837347Y-49547500D01*
X81694556Y-49547500D01*
X81694556Y-49368256D01*
X81693438Y-49346090D01*
X81685677Y-49315835D01*
X81678990Y-49304595D01*
X81670128Y-49295283D01*
X81657481Y-49287090D01*
X81641666Y-49281083D01*
X81616530Y-49276427D01*
X81585334Y-49274924D01*
X81429950Y-49274924D01*
X81429950Y-49547500D01*
X81288213Y-49547500D01*
X81288213Y-49157367D01*
X81429950Y-49157367D01*
X81612674Y-49157367D01*
X81636074Y-49156045D01*
X81672087Y-49146603D01*
X81685976Y-49138805D01*
X81697294Y-49129166D01*
X81706778Y-49116861D01*
X81713559Y-49102791D01*
X81718238Y-49084559D01*
X81719744Y-49064540D01*
X81717923Y-49042190D01*
X81707776Y-49012740D01*
X81689083Y-48990909D01*
X81675936Y-48982562D01*
X81660218Y-48976306D01*
X81640616Y-48972138D01*
X81617895Y-48970705D01*
X81429950Y-48970705D01*
X81429950Y-49157367D01*
X81288213Y-49157367D01*
X81288213Y-48849942D01*
X81642029Y-48849942D01*
X81677900Y-48852263D01*
G37*
G36*
X52763821Y-43127263D02*
G01*
X52790109Y-43132207D01*
X52814667Y-43139740D01*
X52837384Y-43149715D01*
X52858164Y-43161992D01*
X52876924Y-43176444D01*
X52893533Y-43192915D01*
X52907918Y-43211307D01*
X52919933Y-43231438D01*
X52929496Y-43253229D01*
X52936462Y-43276476D01*
X52940734Y-43301103D01*
X52942182Y-43326900D01*
X52939528Y-43360938D01*
X52926917Y-43404940D01*
X52905218Y-43441396D01*
X52875501Y-43469628D01*
X52857833Y-43480474D01*
X52838226Y-43489062D01*
X52845424Y-43491507D01*
X52879397Y-43508474D01*
X52902053Y-43531128D01*
X52910729Y-43546800D01*
X52917017Y-43565219D01*
X52921754Y-43592637D01*
X52923268Y-43625441D01*
X52923268Y-43822500D01*
X52780478Y-43822500D01*
X52780478Y-43643256D01*
X52779359Y-43621090D01*
X52771598Y-43590835D01*
X52764911Y-43579595D01*
X52756049Y-43570283D01*
X52743402Y-43562090D01*
X52727587Y-43556083D01*
X52702451Y-43551427D01*
X52671255Y-43549924D01*
X52515871Y-43549924D01*
X52515871Y-43822500D01*
X52374134Y-43822500D01*
X52374134Y-43432367D01*
X52515871Y-43432367D01*
X52698595Y-43432367D01*
X52721995Y-43431045D01*
X52758008Y-43421603D01*
X52771897Y-43413805D01*
X52783215Y-43404166D01*
X52792699Y-43391861D01*
X52799480Y-43377791D01*
X52804159Y-43359559D01*
X52805665Y-43339540D01*
X52803844Y-43317190D01*
X52793697Y-43287740D01*
X52775004Y-43265909D01*
X52761857Y-43257562D01*
X52746139Y-43251306D01*
X52726537Y-43247138D01*
X52703816Y-43245705D01*
X52515871Y-43245705D01*
X52515871Y-43432367D01*
X52374134Y-43432367D01*
X52374134Y-43124942D01*
X52727950Y-43124942D01*
X52763821Y-43127263D01*
G37*
G36*
X53336026Y-43129238D02*
G01*
X53361521Y-43135502D01*
X53385313Y-43144340D01*
X53407619Y-43155772D01*
X53428007Y-43169525D01*
X53446679Y-43185716D01*
X53463195Y-43203966D01*
X53477659Y-43224409D01*
X53489720Y-43246616D01*
X53499363Y-43270631D01*
X53506372Y-43296074D01*
X53510657Y-43322816D01*
X53512107Y-43350622D01*
X53507949Y-43397268D01*
X53493250Y-43445844D01*
X53468907Y-43487476D01*
X53435730Y-43521463D01*
X53416009Y-43535363D01*
X53394311Y-43547035D01*
X53370612Y-43556389D01*
X53345091Y-43563242D01*
X53317625Y-43567486D01*
X53288487Y-43568930D01*
X53126783Y-43568930D01*
X53126783Y-43822500D01*
X52980833Y-43822500D01*
X52980833Y-43450273D01*
X53126783Y-43450273D01*
X53265361Y-43450273D01*
X53301595Y-43447141D01*
X53336695Y-43435206D01*
X53350470Y-43426161D01*
X53361757Y-43415274D01*
X53371187Y-43401724D01*
X53377959Y-43386400D01*
X53382527Y-43367286D01*
X53384017Y-43346409D01*
X53380378Y-43316124D01*
X53367599Y-43287673D01*
X53357810Y-43275984D01*
X53345577Y-43265958D01*
X53330408Y-43257577D01*
X53312489Y-43251292D01*
X53290553Y-43247136D01*
X53265361Y-43245705D01*
X53126783Y-43245705D01*
X53126783Y-43450273D01*
X52980833Y-43450273D01*
X52980833Y-43124942D01*
X53288487Y-43124942D01*
X53336026Y-43129238D01*
G37*
G36*
X53996028Y-43822500D02*
G01*
X53996028Y-43703889D01*
X53695701Y-43703889D01*
X53703732Y-43676542D01*
X53726767Y-43640384D01*
X53767617Y-43598314D01*
X53792330Y-43578730D01*
X53856467Y-43530997D01*
X53906940Y-43487962D01*
X53933141Y-43461229D01*
X53954227Y-43434949D01*
X53968408Y-43412407D01*
X53979269Y-43389357D01*
X53991443Y-43342724D01*
X53993922Y-43305331D01*
X53992475Y-43276900D01*
X53988207Y-43250650D01*
X53981483Y-43227272D01*
X53972312Y-43205922D01*
X53960953Y-43186817D01*
X53947405Y-43169670D01*
X53913655Y-43140896D01*
X53870391Y-43119378D01*
X53816521Y-43105786D01*
X53757663Y-43101495D01*
X53727122Y-43102948D01*
X53698549Y-43107260D01*
X53672872Y-43114073D01*
X53649142Y-43123421D01*
X53627937Y-43134912D01*
X53608684Y-43148689D01*
X53576522Y-43182475D01*
X53552439Y-43224896D01*
X53536867Y-43276557D01*
X53530902Y-43338217D01*
X53530883Y-43342150D01*
X53662133Y-43342150D01*
X53663574Y-43313348D01*
X53667802Y-43288918D01*
X53673930Y-43270304D01*
X53682127Y-43254876D01*
X53691674Y-43243046D01*
X53702880Y-43233716D01*
X53730539Y-43221727D01*
X53763982Y-43218044D01*
X53787619Y-43219610D01*
X53809101Y-43224712D01*
X53823872Y-43231508D01*
X53836598Y-43241091D01*
X53845765Y-43251938D01*
X53852917Y-43265305D01*
X53860240Y-43299243D01*
X53860565Y-43309544D01*
X53859012Y-43331291D01*
X53854002Y-43351488D01*
X53835952Y-43384556D01*
X53801448Y-43421074D01*
X53731422Y-43475690D01*
X53684729Y-43511041D01*
X53645352Y-43544711D01*
X53615587Y-43573996D01*
X53590857Y-43602526D01*
X53571805Y-43628922D01*
X53556448Y-43655152D01*
X53535508Y-43707556D01*
X53524394Y-43765576D01*
X53521403Y-43822500D01*
X53996028Y-43822500D01*
G37*
G36*
X54954163Y-43822500D02*
G01*
X55149435Y-43124942D01*
X55000324Y-43124942D01*
X54886935Y-43576715D01*
X54780918Y-43124942D01*
X54627595Y-43124942D01*
X54531012Y-43576715D01*
X54416569Y-43124942D01*
X54261139Y-43124942D01*
X54458563Y-43822500D01*
X54595034Y-43822500D01*
X54705310Y-43368712D01*
X54813433Y-43822500D01*
X54954163Y-43822500D01*
G37*
G36*
X55326434Y-43822500D02*
G01*
X55326434Y-43124942D01*
X55180484Y-43124942D01*
X55180484Y-43822500D01*
X55326434Y-43822500D01*
G37*
G36*
X55766543Y-43127263D02*
G01*
X55792831Y-43132207D01*
X55817388Y-43139740D01*
X55840106Y-43149715D01*
X55860886Y-43161992D01*
X55879646Y-43176444D01*
X55896254Y-43192915D01*
X55910640Y-43211307D01*
X55922654Y-43231438D01*
X55932217Y-43253229D01*
X55939184Y-43276476D01*
X55943455Y-43301103D01*
X55944903Y-43326900D01*
X55942249Y-43360938D01*
X55929638Y-43404940D01*
X55907940Y-43441396D01*
X55878222Y-43469628D01*
X55860555Y-43480474D01*
X55840947Y-43489062D01*
X55848146Y-43491507D01*
X55882119Y-43508474D01*
X55904775Y-43531128D01*
X55913450Y-43546800D01*
X55919739Y-43565219D01*
X55924475Y-43592637D01*
X55925990Y-43625441D01*
X55925990Y-43822500D01*
X55783199Y-43822500D01*
X55783199Y-43643256D01*
X55782081Y-43621090D01*
X55774320Y-43590835D01*
X55767633Y-43579595D01*
X55758770Y-43570283D01*
X55746123Y-43562090D01*
X55730309Y-43556083D01*
X55705173Y-43551427D01*
X55673977Y-43549924D01*
X55518592Y-43549924D01*
X55518592Y-43822500D01*
X55376855Y-43822500D01*
X55376855Y-43432367D01*
X55518592Y-43432367D01*
X55701317Y-43432367D01*
X55724716Y-43431045D01*
X55760730Y-43421603D01*
X55774619Y-43413805D01*
X55785937Y-43404166D01*
X55795421Y-43391861D01*
X55802202Y-43377791D01*
X55806881Y-43359559D01*
X55808387Y-43339540D01*
X55806566Y-43317190D01*
X55796419Y-43287740D01*
X55777726Y-43265909D01*
X55764579Y-43257562D01*
X55748861Y-43251306D01*
X55729259Y-43247138D01*
X55706537Y-43245705D01*
X55518592Y-43245705D01*
X55518592Y-43432367D01*
X55376855Y-43432367D01*
X55376855Y-43124942D01*
X55730672Y-43124942D01*
X55766543Y-43127263D01*
G37*
G36*
X56512722Y-43822500D02*
G01*
X56512722Y-43698623D01*
X56125292Y-43698623D01*
X56125292Y-43517684D01*
X56466560Y-43517684D01*
X56466560Y-43394861D01*
X56125292Y-43394861D01*
X56125292Y-43246758D01*
X56495961Y-43246758D01*
X56495961Y-43124942D01*
X55983555Y-43124942D01*
X55983555Y-43822500D01*
X56512722Y-43822500D01*
G37*
G36*
X57033280Y-43822500D02*
G01*
X57033280Y-43695463D01*
X56687844Y-43695463D01*
X56687844Y-43124942D01*
X56541894Y-43124942D01*
X56541894Y-43822500D01*
X57033280Y-43822500D01*
G37*
G36*
X57596427Y-43822500D02*
G01*
X57596427Y-43698623D01*
X57208997Y-43698623D01*
X57208997Y-43517684D01*
X57550266Y-43517684D01*
X57550266Y-43394861D01*
X57208997Y-43394861D01*
X57208997Y-43246758D01*
X57579666Y-43246758D01*
X57579666Y-43124942D01*
X57067260Y-43124942D01*
X57067260Y-43822500D01*
X57596427Y-43822500D01*
G37*
G36*
X58158980Y-43330426D02*
G01*
X58156408Y-43302320D01*
X58150984Y-43275509D01*
X58142988Y-43250750D01*
X58132348Y-43227461D01*
X58119387Y-43206180D01*
X58103948Y-43186537D01*
X58086258Y-43168818D01*
X58066200Y-43152922D01*
X58043780Y-43138943D01*
X58019046Y-43127008D01*
X57962101Y-43109565D01*
X57894860Y-43101770D01*
X57878620Y-43101495D01*
X57842268Y-43102938D01*
X57808709Y-43107183D01*
X57778803Y-43113859D01*
X57751529Y-43122933D01*
X57727477Y-43133972D01*
X57705926Y-43147065D01*
X57687147Y-43161858D01*
X57670792Y-43178432D01*
X57645346Y-43216517D01*
X57629404Y-43261328D01*
X57623505Y-43313095D01*
X57623493Y-43315726D01*
X57624946Y-43342971D01*
X57629260Y-43367734D01*
X57635929Y-43389073D01*
X57645047Y-43408457D01*
X57670178Y-43441694D01*
X57706134Y-43469998D01*
X57740042Y-43487917D01*
X57807180Y-43511810D01*
X57931147Y-43541452D01*
X57965007Y-43550280D01*
X57991353Y-43560355D01*
X58008522Y-43569987D01*
X58021328Y-43580606D01*
X58029687Y-43591260D01*
X58035198Y-43602805D01*
X58039270Y-43629655D01*
X58037817Y-43647394D01*
X58033507Y-43663568D01*
X58026748Y-43677564D01*
X58017487Y-43689993D01*
X57991558Y-43709996D01*
X57954356Y-43723362D01*
X57903853Y-43728390D01*
X57875487Y-43726944D01*
X57849523Y-43722684D01*
X57827082Y-43716081D01*
X57807144Y-43707111D01*
X57790673Y-43696504D01*
X57776715Y-43683946D01*
X57765829Y-43670182D01*
X57757471Y-43654789D01*
X57751833Y-43638164D01*
X57748844Y-43620115D01*
X57748423Y-43612848D01*
X57607739Y-43612848D01*
X57609777Y-43642045D01*
X57614605Y-43669266D01*
X57621921Y-43693967D01*
X57631709Y-43716791D01*
X57658142Y-43756617D01*
X57693841Y-43789525D01*
X57739432Y-43815655D01*
X57795890Y-43834421D01*
X57864104Y-43844591D01*
X57902800Y-43845947D01*
X57943056Y-43844471D01*
X57981034Y-43840004D01*
X58013949Y-43833147D01*
X58044503Y-43823625D01*
X58070458Y-43812417D01*
X58094075Y-43798856D01*
X58113856Y-43784054D01*
X58131341Y-43767139D01*
X58145743Y-43749042D01*
X58157841Y-43728976D01*
X58167346Y-43707405D01*
X58174440Y-43683897D01*
X58180989Y-43630679D01*
X58181053Y-43624434D01*
X58179624Y-43596298D01*
X58175482Y-43571298D01*
X58169037Y-43549701D01*
X58160421Y-43530629D01*
X58136985Y-43498635D01*
X58104287Y-43472483D01*
X58071831Y-43455357D01*
X58005189Y-43431125D01*
X57864972Y-43394449D01*
X57829767Y-43384348D01*
X57802070Y-43372817D01*
X57785347Y-43362580D01*
X57772691Y-43351084D01*
X57764775Y-43339858D01*
X57759647Y-43327426D01*
X57756849Y-43306246D01*
X57758310Y-43290268D01*
X57762670Y-43275907D01*
X57769416Y-43263882D01*
X57778690Y-43253376D01*
X57805200Y-43236873D01*
X57845029Y-43226656D01*
X57881779Y-43224364D01*
X57911315Y-43225833D01*
X57937123Y-43230255D01*
X57956893Y-43236634D01*
X57973895Y-43245349D01*
X57987206Y-43255495D01*
X57998261Y-43267660D01*
X58013709Y-43297795D01*
X58020403Y-43330426D01*
X58158980Y-43330426D01*
G37*
G36*
X58749559Y-43330426D02*
G01*
X58746987Y-43302320D01*
X58741563Y-43275509D01*
X58733567Y-43250750D01*
X58722927Y-43227461D01*
X58709966Y-43206180D01*
X58694527Y-43186537D01*
X58676837Y-43168818D01*
X58656779Y-43152922D01*
X58634359Y-43138943D01*
X58609625Y-43127008D01*
X58552680Y-43109565D01*
X58485439Y-43101770D01*
X58469199Y-43101495D01*
X58432847Y-43102938D01*
X58399288Y-43107183D01*
X58369382Y-43113859D01*
X58342108Y-43122933D01*
X58318056Y-43133972D01*
X58296505Y-43147065D01*
X58277726Y-43161858D01*
X58261371Y-43178432D01*
X58235925Y-43216517D01*
X58219983Y-43261328D01*
X58214084Y-43313095D01*
X58214072Y-43315726D01*
X58215525Y-43342971D01*
X58219839Y-43367734D01*
X58226508Y-43389073D01*
X58235626Y-43408457D01*
X58260757Y-43441694D01*
X58296713Y-43469998D01*
X58330621Y-43487917D01*
X58397759Y-43511810D01*
X58521726Y-43541452D01*
X58555587Y-43550280D01*
X58581932Y-43560355D01*
X58599101Y-43569987D01*
X58611907Y-43580606D01*
X58620266Y-43591260D01*
X58625777Y-43602805D01*
X58629849Y-43629655D01*
X58628396Y-43647394D01*
X58624087Y-43663568D01*
X58617327Y-43677564D01*
X58608066Y-43689993D01*
X58582137Y-43709996D01*
X58544935Y-43723362D01*
X58494432Y-43728390D01*
X58466066Y-43726944D01*
X58440102Y-43722684D01*
X58417661Y-43716081D01*
X58397723Y-43707111D01*
X58381252Y-43696504D01*
X58367294Y-43683946D01*
X58356408Y-43670182D01*
X58348051Y-43654789D01*
X58342412Y-43638164D01*
X58339423Y-43620115D01*
X58339002Y-43612848D01*
X58198318Y-43612848D01*
X58200356Y-43642045D01*
X58205184Y-43669266D01*
X58212500Y-43693967D01*
X58222288Y-43716791D01*
X58248722Y-43756617D01*
X58284421Y-43789525D01*
X58330011Y-43815655D01*
X58386469Y-43834421D01*
X58454683Y-43844591D01*
X58493379Y-43845947D01*
X58533635Y-43844471D01*
X58571613Y-43840004D01*
X58604529Y-43833147D01*
X58635082Y-43823625D01*
X58661037Y-43812417D01*
X58684654Y-43798856D01*
X58704435Y-43784054D01*
X58721921Y-43767139D01*
X58736322Y-43749042D01*
X58748420Y-43728976D01*
X58757925Y-43707405D01*
X58765019Y-43683897D01*
X58771568Y-43630679D01*
X58771632Y-43624434D01*
X58770203Y-43596298D01*
X58766061Y-43571298D01*
X58759616Y-43549701D01*
X58751000Y-43530629D01*
X58727564Y-43498635D01*
X58694866Y-43472483D01*
X58662410Y-43455357D01*
X58595768Y-43431125D01*
X58455552Y-43394449D01*
X58420346Y-43384348D01*
X58392650Y-43372817D01*
X58375926Y-43362580D01*
X58363270Y-43351084D01*
X58355354Y-43339858D01*
X58350226Y-43327426D01*
X58347428Y-43306246D01*
X58348889Y-43290268D01*
X58353249Y-43275907D01*
X58359995Y-43263882D01*
X58369269Y-43253376D01*
X58395779Y-43236873D01*
X58435608Y-43226656D01*
X58472359Y-43224364D01*
X58501894Y-43225833D01*
X58527702Y-43230255D01*
X58547472Y-43236634D01*
X58564475Y-43245349D01*
X58577785Y-43255495D01*
X58588840Y-43267660D01*
X58604288Y-43297795D01*
X58610982Y-43330426D01*
X58749559Y-43330426D01*
G37*
X78228571Y-32976109D02*
X78061905Y-32738014D01*
X77942857Y-32976109D02*
X77942857Y-32476109D01*
X77942857Y-32476109D02*
X78133333Y-32476109D01*
X78133333Y-32476109D02*
X78180952Y-32499919D01*
X78180952Y-32499919D02*
X78204762Y-32523728D01*
X78204762Y-32523728D02*
X78228571Y-32571347D01*
X78228571Y-32571347D02*
X78228571Y-32642776D01*
X78228571Y-32642776D02*
X78204762Y-32690395D01*
X78204762Y-32690395D02*
X78180952Y-32714204D01*
X78180952Y-32714204D02*
X78133333Y-32738014D01*
X78133333Y-32738014D02*
X77942857Y-32738014D01*
X78704762Y-32976109D02*
X78419048Y-32976109D01*
X78561905Y-32976109D02*
X78561905Y-32476109D01*
X78561905Y-32476109D02*
X78514286Y-32547538D01*
X78514286Y-32547538D02*
X78466667Y-32595157D01*
X78466667Y-32595157D02*
X78419048Y-32618966D01*
X78871428Y-32476109D02*
X79180952Y-32476109D01*
X79180952Y-32476109D02*
X79014285Y-32666585D01*
X79014285Y-32666585D02*
X79085714Y-32666585D01*
X79085714Y-32666585D02*
X79133333Y-32690395D01*
X79133333Y-32690395D02*
X79157142Y-32714204D01*
X79157142Y-32714204D02*
X79180952Y-32761823D01*
X79180952Y-32761823D02*
X79180952Y-32880871D01*
X79180952Y-32880871D02*
X79157142Y-32928490D01*
X79157142Y-32928490D02*
X79133333Y-32952300D01*
X79133333Y-32952300D02*
X79085714Y-32976109D01*
X79085714Y-32976109D02*
X78942857Y-32976109D01*
X78942857Y-32976109D02*
X78895238Y-32952300D01*
X78895238Y-32952300D02*
X78871428Y-32928490D01*
X69566666Y-39676109D02*
X69400000Y-39438014D01*
X69280952Y-39676109D02*
X69280952Y-39176109D01*
X69280952Y-39176109D02*
X69471428Y-39176109D01*
X69471428Y-39176109D02*
X69519047Y-39199919D01*
X69519047Y-39199919D02*
X69542857Y-39223728D01*
X69542857Y-39223728D02*
X69566666Y-39271347D01*
X69566666Y-39271347D02*
X69566666Y-39342776D01*
X69566666Y-39342776D02*
X69542857Y-39390395D01*
X69542857Y-39390395D02*
X69519047Y-39414204D01*
X69519047Y-39414204D02*
X69471428Y-39438014D01*
X69471428Y-39438014D02*
X69280952Y-39438014D01*
X69733333Y-39176109D02*
X70042857Y-39176109D01*
X70042857Y-39176109D02*
X69876190Y-39366585D01*
X69876190Y-39366585D02*
X69947619Y-39366585D01*
X69947619Y-39366585D02*
X69995238Y-39390395D01*
X69995238Y-39390395D02*
X70019047Y-39414204D01*
X70019047Y-39414204D02*
X70042857Y-39461823D01*
X70042857Y-39461823D02*
X70042857Y-39580871D01*
X70042857Y-39580871D02*
X70019047Y-39628490D01*
X70019047Y-39628490D02*
X69995238Y-39652300D01*
X69995238Y-39652300D02*
X69947619Y-39676109D01*
X69947619Y-39676109D02*
X69804762Y-39676109D01*
X69804762Y-39676109D02*
X69757143Y-39652300D01*
X69757143Y-39652300D02*
X69733333Y-39628490D01*
X67566666Y-41501109D02*
X67400000Y-41263014D01*
X67280952Y-41501109D02*
X67280952Y-41001109D01*
X67280952Y-41001109D02*
X67471428Y-41001109D01*
X67471428Y-41001109D02*
X67519047Y-41024919D01*
X67519047Y-41024919D02*
X67542857Y-41048728D01*
X67542857Y-41048728D02*
X67566666Y-41096347D01*
X67566666Y-41096347D02*
X67566666Y-41167776D01*
X67566666Y-41167776D02*
X67542857Y-41215395D01*
X67542857Y-41215395D02*
X67519047Y-41239204D01*
X67519047Y-41239204D02*
X67471428Y-41263014D01*
X67471428Y-41263014D02*
X67280952Y-41263014D01*
X67995238Y-41167776D02*
X67995238Y-41501109D01*
X67876190Y-40977300D02*
X67757143Y-41334442D01*
X67757143Y-41334442D02*
X68066666Y-41334442D01*
X77369047Y-31051109D02*
X77369047Y-31455871D01*
X77369047Y-31455871D02*
X77392857Y-31503490D01*
X77392857Y-31503490D02*
X77416666Y-31527300D01*
X77416666Y-31527300D02*
X77464285Y-31551109D01*
X77464285Y-31551109D02*
X77559523Y-31551109D01*
X77559523Y-31551109D02*
X77607142Y-31527300D01*
X77607142Y-31527300D02*
X77630952Y-31503490D01*
X77630952Y-31503490D02*
X77654761Y-31455871D01*
X77654761Y-31455871D02*
X77654761Y-31051109D01*
X78130952Y-31051109D02*
X77892857Y-31051109D01*
X77892857Y-31051109D02*
X77869048Y-31289204D01*
X77869048Y-31289204D02*
X77892857Y-31265395D01*
X77892857Y-31265395D02*
X77940476Y-31241585D01*
X77940476Y-31241585D02*
X78059524Y-31241585D01*
X78059524Y-31241585D02*
X78107143Y-31265395D01*
X78107143Y-31265395D02*
X78130952Y-31289204D01*
X78130952Y-31289204D02*
X78154762Y-31336823D01*
X78154762Y-31336823D02*
X78154762Y-31455871D01*
X78154762Y-31455871D02*
X78130952Y-31503490D01*
X78130952Y-31503490D02*
X78107143Y-31527300D01*
X78107143Y-31527300D02*
X78059524Y-31551109D01*
X78059524Y-31551109D02*
X77940476Y-31551109D01*
X77940476Y-31551109D02*
X77892857Y-31527300D01*
X77892857Y-31527300D02*
X77869048Y-31503490D01*
X67401109Y-29978333D02*
X67163014Y-30144999D01*
X67401109Y-30264047D02*
X66901109Y-30264047D01*
X66901109Y-30264047D02*
X66901109Y-30073571D01*
X66901109Y-30073571D02*
X66924919Y-30025952D01*
X66924919Y-30025952D02*
X66948728Y-30002142D01*
X66948728Y-30002142D02*
X66996347Y-29978333D01*
X66996347Y-29978333D02*
X67067776Y-29978333D01*
X67067776Y-29978333D02*
X67115395Y-30002142D01*
X67115395Y-30002142D02*
X67139204Y-30025952D01*
X67139204Y-30025952D02*
X67163014Y-30073571D01*
X67163014Y-30073571D02*
X67163014Y-30264047D01*
X66948728Y-29787856D02*
X66924919Y-29764047D01*
X66924919Y-29764047D02*
X66901109Y-29716428D01*
X66901109Y-29716428D02*
X66901109Y-29597380D01*
X66901109Y-29597380D02*
X66924919Y-29549761D01*
X66924919Y-29549761D02*
X66948728Y-29525952D01*
X66948728Y-29525952D02*
X66996347Y-29502142D01*
X66996347Y-29502142D02*
X67043966Y-29502142D01*
X67043966Y-29502142D02*
X67115395Y-29525952D01*
X67115395Y-29525952D02*
X67401109Y-29811666D01*
X67401109Y-29811666D02*
X67401109Y-29502142D01*
X62805952Y-28376109D02*
X62805952Y-27876109D01*
X62805952Y-27876109D02*
X62996428Y-27876109D01*
X62996428Y-27876109D02*
X63044047Y-27899919D01*
X63044047Y-27899919D02*
X63067857Y-27923728D01*
X63067857Y-27923728D02*
X63091666Y-27971347D01*
X63091666Y-27971347D02*
X63091666Y-28042776D01*
X63091666Y-28042776D02*
X63067857Y-28090395D01*
X63067857Y-28090395D02*
X63044047Y-28114204D01*
X63044047Y-28114204D02*
X62996428Y-28138014D01*
X62996428Y-28138014D02*
X62805952Y-28138014D01*
X63567857Y-28376109D02*
X63282143Y-28376109D01*
X63425000Y-28376109D02*
X63425000Y-27876109D01*
X63425000Y-27876109D02*
X63377381Y-27947538D01*
X63377381Y-27947538D02*
X63329762Y-27995157D01*
X63329762Y-27995157D02*
X63282143Y-28018966D01*
X73348728Y-39472619D02*
X73324919Y-39520238D01*
X73324919Y-39520238D02*
X73277300Y-39567857D01*
X73277300Y-39567857D02*
X73205871Y-39639285D01*
X73205871Y-39639285D02*
X73182061Y-39686904D01*
X73182061Y-39686904D02*
X73182061Y-39734523D01*
X73301109Y-39710714D02*
X73277300Y-39758333D01*
X73277300Y-39758333D02*
X73229680Y-39805952D01*
X73229680Y-39805952D02*
X73134442Y-39829761D01*
X73134442Y-39829761D02*
X72967776Y-39829761D01*
X72967776Y-39829761D02*
X72872538Y-39805952D01*
X72872538Y-39805952D02*
X72824919Y-39758333D01*
X72824919Y-39758333D02*
X72801109Y-39710714D01*
X72801109Y-39710714D02*
X72801109Y-39615476D01*
X72801109Y-39615476D02*
X72824919Y-39567857D01*
X72824919Y-39567857D02*
X72872538Y-39520238D01*
X72872538Y-39520238D02*
X72967776Y-39496428D01*
X72967776Y-39496428D02*
X73134442Y-39496428D01*
X73134442Y-39496428D02*
X73229680Y-39520238D01*
X73229680Y-39520238D02*
X73277300Y-39567857D01*
X73277300Y-39567857D02*
X73301109Y-39615476D01*
X73301109Y-39615476D02*
X73301109Y-39710714D01*
X72848728Y-39305951D02*
X72824919Y-39282142D01*
X72824919Y-39282142D02*
X72801109Y-39234523D01*
X72801109Y-39234523D02*
X72801109Y-39115475D01*
X72801109Y-39115475D02*
X72824919Y-39067856D01*
X72824919Y-39067856D02*
X72848728Y-39044047D01*
X72848728Y-39044047D02*
X72896347Y-39020237D01*
X72896347Y-39020237D02*
X72943966Y-39020237D01*
X72943966Y-39020237D02*
X73015395Y-39044047D01*
X73015395Y-39044047D02*
X73301109Y-39329761D01*
X73301109Y-39329761D02*
X73301109Y-39020237D01*
X64869109Y-36583133D02*
X64869109Y-36821228D01*
X64869109Y-36821228D02*
X64369109Y-36821228D01*
X64416728Y-36440275D02*
X64392919Y-36416466D01*
X64392919Y-36416466D02*
X64369109Y-36368847D01*
X64369109Y-36368847D02*
X64369109Y-36249799D01*
X64369109Y-36249799D02*
X64392919Y-36202180D01*
X64392919Y-36202180D02*
X64416728Y-36178371D01*
X64416728Y-36178371D02*
X64464347Y-36154561D01*
X64464347Y-36154561D02*
X64511966Y-36154561D01*
X64511966Y-36154561D02*
X64583395Y-36178371D01*
X64583395Y-36178371D02*
X64869109Y-36464085D01*
X64869109Y-36464085D02*
X64869109Y-36154561D01*
X67491666Y-35801109D02*
X67325000Y-35563014D01*
X67205952Y-35801109D02*
X67205952Y-35301109D01*
X67205952Y-35301109D02*
X67396428Y-35301109D01*
X67396428Y-35301109D02*
X67444047Y-35324919D01*
X67444047Y-35324919D02*
X67467857Y-35348728D01*
X67467857Y-35348728D02*
X67491666Y-35396347D01*
X67491666Y-35396347D02*
X67491666Y-35467776D01*
X67491666Y-35467776D02*
X67467857Y-35515395D01*
X67467857Y-35515395D02*
X67444047Y-35539204D01*
X67444047Y-35539204D02*
X67396428Y-35563014D01*
X67396428Y-35563014D02*
X67205952Y-35563014D01*
X67658333Y-35301109D02*
X67991666Y-35301109D01*
X67991666Y-35301109D02*
X67777381Y-35801109D01*
X80048490Y-31733333D02*
X80072300Y-31757142D01*
X80072300Y-31757142D02*
X80096109Y-31828571D01*
X80096109Y-31828571D02*
X80096109Y-31876190D01*
X80096109Y-31876190D02*
X80072300Y-31947618D01*
X80072300Y-31947618D02*
X80024680Y-31995237D01*
X80024680Y-31995237D02*
X79977061Y-32019047D01*
X79977061Y-32019047D02*
X79881823Y-32042856D01*
X79881823Y-32042856D02*
X79810395Y-32042856D01*
X79810395Y-32042856D02*
X79715157Y-32019047D01*
X79715157Y-32019047D02*
X79667538Y-31995237D01*
X79667538Y-31995237D02*
X79619919Y-31947618D01*
X79619919Y-31947618D02*
X79596109Y-31876190D01*
X79596109Y-31876190D02*
X79596109Y-31828571D01*
X79596109Y-31828571D02*
X79619919Y-31757142D01*
X79619919Y-31757142D02*
X79643728Y-31733333D01*
X79643728Y-31542856D02*
X79619919Y-31519047D01*
X79619919Y-31519047D02*
X79596109Y-31471428D01*
X79596109Y-31471428D02*
X79596109Y-31352380D01*
X79596109Y-31352380D02*
X79619919Y-31304761D01*
X79619919Y-31304761D02*
X79643728Y-31280952D01*
X79643728Y-31280952D02*
X79691347Y-31257142D01*
X79691347Y-31257142D02*
X79738966Y-31257142D01*
X79738966Y-31257142D02*
X79810395Y-31280952D01*
X79810395Y-31280952D02*
X80096109Y-31566666D01*
X80096109Y-31566666D02*
X80096109Y-31257142D01*
X73166666Y-32426109D02*
X73000000Y-32188014D01*
X72880952Y-32426109D02*
X72880952Y-31926109D01*
X72880952Y-31926109D02*
X73071428Y-31926109D01*
X73071428Y-31926109D02*
X73119047Y-31949919D01*
X73119047Y-31949919D02*
X73142857Y-31973728D01*
X73142857Y-31973728D02*
X73166666Y-32021347D01*
X73166666Y-32021347D02*
X73166666Y-32092776D01*
X73166666Y-32092776D02*
X73142857Y-32140395D01*
X73142857Y-32140395D02*
X73119047Y-32164204D01*
X73119047Y-32164204D02*
X73071428Y-32188014D01*
X73071428Y-32188014D02*
X72880952Y-32188014D01*
X73452381Y-32140395D02*
X73404762Y-32116585D01*
X73404762Y-32116585D02*
X73380952Y-32092776D01*
X73380952Y-32092776D02*
X73357143Y-32045157D01*
X73357143Y-32045157D02*
X73357143Y-32021347D01*
X73357143Y-32021347D02*
X73380952Y-31973728D01*
X73380952Y-31973728D02*
X73404762Y-31949919D01*
X73404762Y-31949919D02*
X73452381Y-31926109D01*
X73452381Y-31926109D02*
X73547619Y-31926109D01*
X73547619Y-31926109D02*
X73595238Y-31949919D01*
X73595238Y-31949919D02*
X73619047Y-31973728D01*
X73619047Y-31973728D02*
X73642857Y-32021347D01*
X73642857Y-32021347D02*
X73642857Y-32045157D01*
X73642857Y-32045157D02*
X73619047Y-32092776D01*
X73619047Y-32092776D02*
X73595238Y-32116585D01*
X73595238Y-32116585D02*
X73547619Y-32140395D01*
X73547619Y-32140395D02*
X73452381Y-32140395D01*
X73452381Y-32140395D02*
X73404762Y-32164204D01*
X73404762Y-32164204D02*
X73380952Y-32188014D01*
X73380952Y-32188014D02*
X73357143Y-32235633D01*
X73357143Y-32235633D02*
X73357143Y-32330871D01*
X73357143Y-32330871D02*
X73380952Y-32378490D01*
X73380952Y-32378490D02*
X73404762Y-32402300D01*
X73404762Y-32402300D02*
X73452381Y-32426109D01*
X73452381Y-32426109D02*
X73547619Y-32426109D01*
X73547619Y-32426109D02*
X73595238Y-32402300D01*
X73595238Y-32402300D02*
X73619047Y-32378490D01*
X73619047Y-32378490D02*
X73642857Y-32330871D01*
X73642857Y-32330871D02*
X73642857Y-32235633D01*
X73642857Y-32235633D02*
X73619047Y-32188014D01*
X73619047Y-32188014D02*
X73595238Y-32164204D01*
X73595238Y-32164204D02*
X73547619Y-32140395D01*
X77101110Y-34994047D02*
X76601110Y-34994047D01*
X76601110Y-34994047D02*
X76601110Y-34874999D01*
X76601110Y-34874999D02*
X76624920Y-34803571D01*
X76624920Y-34803571D02*
X76672539Y-34755952D01*
X76672539Y-34755952D02*
X76720158Y-34732142D01*
X76720158Y-34732142D02*
X76815396Y-34708333D01*
X76815396Y-34708333D02*
X76886824Y-34708333D01*
X76886824Y-34708333D02*
X76982062Y-34732142D01*
X76982062Y-34732142D02*
X77029681Y-34755952D01*
X77029681Y-34755952D02*
X77077301Y-34803571D01*
X77077301Y-34803571D02*
X77101110Y-34874999D01*
X77101110Y-34874999D02*
X77101110Y-34994047D01*
X76601110Y-34541666D02*
X76601110Y-34232142D01*
X76601110Y-34232142D02*
X76791586Y-34398809D01*
X76791586Y-34398809D02*
X76791586Y-34327380D01*
X76791586Y-34327380D02*
X76815396Y-34279761D01*
X76815396Y-34279761D02*
X76839205Y-34255952D01*
X76839205Y-34255952D02*
X76886824Y-34232142D01*
X76886824Y-34232142D02*
X77005872Y-34232142D01*
X77005872Y-34232142D02*
X77053491Y-34255952D01*
X77053491Y-34255952D02*
X77077301Y-34279761D01*
X77077301Y-34279761D02*
X77101110Y-34327380D01*
X77101110Y-34327380D02*
X77101110Y-34470237D01*
X77101110Y-34470237D02*
X77077301Y-34517856D01*
X77077301Y-34517856D02*
X77053491Y-34541666D01*
X86018490Y-27073333D02*
X86042300Y-27097142D01*
X86042300Y-27097142D02*
X86066109Y-27168571D01*
X86066109Y-27168571D02*
X86066109Y-27216190D01*
X86066109Y-27216190D02*
X86042300Y-27287618D01*
X86042300Y-27287618D02*
X85994680Y-27335237D01*
X85994680Y-27335237D02*
X85947061Y-27359047D01*
X85947061Y-27359047D02*
X85851823Y-27382856D01*
X85851823Y-27382856D02*
X85780395Y-27382856D01*
X85780395Y-27382856D02*
X85685157Y-27359047D01*
X85685157Y-27359047D02*
X85637538Y-27335237D01*
X85637538Y-27335237D02*
X85589919Y-27287618D01*
X85589919Y-27287618D02*
X85566109Y-27216190D01*
X85566109Y-27216190D02*
X85566109Y-27168571D01*
X85566109Y-27168571D02*
X85589919Y-27097142D01*
X85589919Y-27097142D02*
X85613728Y-27073333D01*
X85732776Y-26644761D02*
X86066109Y-26644761D01*
X85542300Y-26763809D02*
X85899442Y-26882856D01*
X85899442Y-26882856D02*
X85899442Y-26573333D01*
X51178571Y-44801109D02*
X51011905Y-44563014D01*
X50892857Y-44801109D02*
X50892857Y-44301109D01*
X50892857Y-44301109D02*
X51083333Y-44301109D01*
X51083333Y-44301109D02*
X51130952Y-44324919D01*
X51130952Y-44324919D02*
X51154762Y-44348728D01*
X51154762Y-44348728D02*
X51178571Y-44396347D01*
X51178571Y-44396347D02*
X51178571Y-44467776D01*
X51178571Y-44467776D02*
X51154762Y-44515395D01*
X51154762Y-44515395D02*
X51130952Y-44539204D01*
X51130952Y-44539204D02*
X51083333Y-44563014D01*
X51083333Y-44563014D02*
X50892857Y-44563014D01*
X51654762Y-44801109D02*
X51369048Y-44801109D01*
X51511905Y-44801109D02*
X51511905Y-44301109D01*
X51511905Y-44301109D02*
X51464286Y-44372538D01*
X51464286Y-44372538D02*
X51416667Y-44420157D01*
X51416667Y-44420157D02*
X51369048Y-44443966D01*
X51845238Y-44348728D02*
X51869047Y-44324919D01*
X51869047Y-44324919D02*
X51916666Y-44301109D01*
X51916666Y-44301109D02*
X52035714Y-44301109D01*
X52035714Y-44301109D02*
X52083333Y-44324919D01*
X52083333Y-44324919D02*
X52107142Y-44348728D01*
X52107142Y-44348728D02*
X52130952Y-44396347D01*
X52130952Y-44396347D02*
X52130952Y-44443966D01*
X52130952Y-44443966D02*
X52107142Y-44515395D01*
X52107142Y-44515395D02*
X51821428Y-44801109D01*
X51821428Y-44801109D02*
X52130952Y-44801109D01*
X70556109Y-32020952D02*
X70960871Y-32020952D01*
X70960871Y-32020952D02*
X71008490Y-31997142D01*
X71008490Y-31997142D02*
X71032300Y-31973333D01*
X71032300Y-31973333D02*
X71056109Y-31925714D01*
X71056109Y-31925714D02*
X71056109Y-31830476D01*
X71056109Y-31830476D02*
X71032300Y-31782857D01*
X71032300Y-31782857D02*
X71008490Y-31759047D01*
X71008490Y-31759047D02*
X70960871Y-31735238D01*
X70960871Y-31735238D02*
X70556109Y-31735238D01*
X70556109Y-31544761D02*
X70556109Y-31235237D01*
X70556109Y-31235237D02*
X70746585Y-31401904D01*
X70746585Y-31401904D02*
X70746585Y-31330475D01*
X70746585Y-31330475D02*
X70770395Y-31282856D01*
X70770395Y-31282856D02*
X70794204Y-31259047D01*
X70794204Y-31259047D02*
X70841823Y-31235237D01*
X70841823Y-31235237D02*
X70960871Y-31235237D01*
X70960871Y-31235237D02*
X71008490Y-31259047D01*
X71008490Y-31259047D02*
X71032300Y-31282856D01*
X71032300Y-31282856D02*
X71056109Y-31330475D01*
X71056109Y-31330475D02*
X71056109Y-31473332D01*
X71056109Y-31473332D02*
X71032300Y-31520951D01*
X71032300Y-31520951D02*
X71008490Y-31544761D01*
X70722371Y-42491709D02*
X70555705Y-42253614D01*
X70436657Y-42491709D02*
X70436657Y-41991709D01*
X70436657Y-41991709D02*
X70627133Y-41991709D01*
X70627133Y-41991709D02*
X70674752Y-42015519D01*
X70674752Y-42015519D02*
X70698562Y-42039328D01*
X70698562Y-42039328D02*
X70722371Y-42086947D01*
X70722371Y-42086947D02*
X70722371Y-42158376D01*
X70722371Y-42158376D02*
X70698562Y-42205995D01*
X70698562Y-42205995D02*
X70674752Y-42229804D01*
X70674752Y-42229804D02*
X70627133Y-42253614D01*
X70627133Y-42253614D02*
X70436657Y-42253614D01*
X71198562Y-42491709D02*
X70912848Y-42491709D01*
X71055705Y-42491709D02*
X71055705Y-41991709D01*
X71055705Y-41991709D02*
X71008086Y-42063138D01*
X71008086Y-42063138D02*
X70960467Y-42110757D01*
X70960467Y-42110757D02*
X70912848Y-42134566D01*
X71508085Y-41991709D02*
X71555704Y-41991709D01*
X71555704Y-41991709D02*
X71603323Y-42015519D01*
X71603323Y-42015519D02*
X71627133Y-42039328D01*
X71627133Y-42039328D02*
X71650942Y-42086947D01*
X71650942Y-42086947D02*
X71674752Y-42182185D01*
X71674752Y-42182185D02*
X71674752Y-42301233D01*
X71674752Y-42301233D02*
X71650942Y-42396471D01*
X71650942Y-42396471D02*
X71627133Y-42444090D01*
X71627133Y-42444090D02*
X71603323Y-42467900D01*
X71603323Y-42467900D02*
X71555704Y-42491709D01*
X71555704Y-42491709D02*
X71508085Y-42491709D01*
X71508085Y-42491709D02*
X71460466Y-42467900D01*
X71460466Y-42467900D02*
X71436657Y-42444090D01*
X71436657Y-42444090D02*
X71412847Y-42396471D01*
X71412847Y-42396471D02*
X71389038Y-42301233D01*
X71389038Y-42301233D02*
X71389038Y-42182185D01*
X71389038Y-42182185D02*
X71412847Y-42086947D01*
X71412847Y-42086947D02*
X71436657Y-42039328D01*
X71436657Y-42039328D02*
X71460466Y-42015519D01*
X71460466Y-42015519D02*
X71508085Y-41991709D01*
X68291666Y-36401109D02*
X68125000Y-36163014D01*
X68005952Y-36401109D02*
X68005952Y-35901109D01*
X68005952Y-35901109D02*
X68196428Y-35901109D01*
X68196428Y-35901109D02*
X68244047Y-35924919D01*
X68244047Y-35924919D02*
X68267857Y-35948728D01*
X68267857Y-35948728D02*
X68291666Y-35996347D01*
X68291666Y-35996347D02*
X68291666Y-36067776D01*
X68291666Y-36067776D02*
X68267857Y-36115395D01*
X68267857Y-36115395D02*
X68244047Y-36139204D01*
X68244047Y-36139204D02*
X68196428Y-36163014D01*
X68196428Y-36163014D02*
X68005952Y-36163014D01*
X68720238Y-35901109D02*
X68625000Y-35901109D01*
X68625000Y-35901109D02*
X68577381Y-35924919D01*
X68577381Y-35924919D02*
X68553571Y-35948728D01*
X68553571Y-35948728D02*
X68505952Y-36020157D01*
X68505952Y-36020157D02*
X68482143Y-36115395D01*
X68482143Y-36115395D02*
X68482143Y-36305871D01*
X68482143Y-36305871D02*
X68505952Y-36353490D01*
X68505952Y-36353490D02*
X68529762Y-36377300D01*
X68529762Y-36377300D02*
X68577381Y-36401109D01*
X68577381Y-36401109D02*
X68672619Y-36401109D01*
X68672619Y-36401109D02*
X68720238Y-36377300D01*
X68720238Y-36377300D02*
X68744047Y-36353490D01*
X68744047Y-36353490D02*
X68767857Y-36305871D01*
X68767857Y-36305871D02*
X68767857Y-36186823D01*
X68767857Y-36186823D02*
X68744047Y-36139204D01*
X68744047Y-36139204D02*
X68720238Y-36115395D01*
X68720238Y-36115395D02*
X68672619Y-36091585D01*
X68672619Y-36091585D02*
X68577381Y-36091585D01*
X68577381Y-36091585D02*
X68529762Y-36115395D01*
X68529762Y-36115395D02*
X68505952Y-36139204D01*
X68505952Y-36139204D02*
X68482143Y-36186823D01*
X76908490Y-28683333D02*
X76932300Y-28707142D01*
X76932300Y-28707142D02*
X76956109Y-28778571D01*
X76956109Y-28778571D02*
X76956109Y-28826190D01*
X76956109Y-28826190D02*
X76932300Y-28897618D01*
X76932300Y-28897618D02*
X76884680Y-28945237D01*
X76884680Y-28945237D02*
X76837061Y-28969047D01*
X76837061Y-28969047D02*
X76741823Y-28992856D01*
X76741823Y-28992856D02*
X76670395Y-28992856D01*
X76670395Y-28992856D02*
X76575157Y-28969047D01*
X76575157Y-28969047D02*
X76527538Y-28945237D01*
X76527538Y-28945237D02*
X76479919Y-28897618D01*
X76479919Y-28897618D02*
X76456109Y-28826190D01*
X76456109Y-28826190D02*
X76456109Y-28778571D01*
X76456109Y-28778571D02*
X76479919Y-28707142D01*
X76479919Y-28707142D02*
X76503728Y-28683333D01*
X76456109Y-28516666D02*
X76456109Y-28183333D01*
X76456109Y-28183333D02*
X76956109Y-28397618D01*
X76730909Y-40797894D02*
X76230909Y-40797894D01*
X76683290Y-40274085D02*
X76707100Y-40297894D01*
X76707100Y-40297894D02*
X76730909Y-40369323D01*
X76730909Y-40369323D02*
X76730909Y-40416942D01*
X76730909Y-40416942D02*
X76707100Y-40488370D01*
X76707100Y-40488370D02*
X76659480Y-40535989D01*
X76659480Y-40535989D02*
X76611861Y-40559799D01*
X76611861Y-40559799D02*
X76516623Y-40583608D01*
X76516623Y-40583608D02*
X76445195Y-40583608D01*
X76445195Y-40583608D02*
X76349957Y-40559799D01*
X76349957Y-40559799D02*
X76302338Y-40535989D01*
X76302338Y-40535989D02*
X76254719Y-40488370D01*
X76254719Y-40488370D02*
X76230909Y-40416942D01*
X76230909Y-40416942D02*
X76230909Y-40369323D01*
X76230909Y-40369323D02*
X76254719Y-40297894D01*
X76254719Y-40297894D02*
X76278528Y-40274085D01*
X76730909Y-39797894D02*
X76730909Y-40083608D01*
X76730909Y-39940751D02*
X76230909Y-39940751D01*
X76230909Y-39940751D02*
X76302338Y-39988370D01*
X76302338Y-39988370D02*
X76349957Y-40035989D01*
X76349957Y-40035989D02*
X76373766Y-40083608D01*
X82266666Y-35678490D02*
X82242857Y-35702300D01*
X82242857Y-35702300D02*
X82171428Y-35726109D01*
X82171428Y-35726109D02*
X82123809Y-35726109D01*
X82123809Y-35726109D02*
X82052381Y-35702300D01*
X82052381Y-35702300D02*
X82004762Y-35654680D01*
X82004762Y-35654680D02*
X81980952Y-35607061D01*
X81980952Y-35607061D02*
X81957143Y-35511823D01*
X81957143Y-35511823D02*
X81957143Y-35440395D01*
X81957143Y-35440395D02*
X81980952Y-35345157D01*
X81980952Y-35345157D02*
X82004762Y-35297538D01*
X82004762Y-35297538D02*
X82052381Y-35249919D01*
X82052381Y-35249919D02*
X82123809Y-35226109D01*
X82123809Y-35226109D02*
X82171428Y-35226109D01*
X82171428Y-35226109D02*
X82242857Y-35249919D01*
X82242857Y-35249919D02*
X82266666Y-35273728D01*
X82433333Y-35226109D02*
X82742857Y-35226109D01*
X82742857Y-35226109D02*
X82576190Y-35416585D01*
X82576190Y-35416585D02*
X82647619Y-35416585D01*
X82647619Y-35416585D02*
X82695238Y-35440395D01*
X82695238Y-35440395D02*
X82719047Y-35464204D01*
X82719047Y-35464204D02*
X82742857Y-35511823D01*
X82742857Y-35511823D02*
X82742857Y-35630871D01*
X82742857Y-35630871D02*
X82719047Y-35678490D01*
X82719047Y-35678490D02*
X82695238Y-35702300D01*
X82695238Y-35702300D02*
X82647619Y-35726109D01*
X82647619Y-35726109D02*
X82504762Y-35726109D01*
X82504762Y-35726109D02*
X82457143Y-35702300D01*
X82457143Y-35702300D02*
X82433333Y-35678490D01*
X81941090Y-41571028D02*
X81964900Y-41594837D01*
X81964900Y-41594837D02*
X81988709Y-41666266D01*
X81988709Y-41666266D02*
X81988709Y-41713885D01*
X81988709Y-41713885D02*
X81964900Y-41785313D01*
X81964900Y-41785313D02*
X81917280Y-41832932D01*
X81917280Y-41832932D02*
X81869661Y-41856742D01*
X81869661Y-41856742D02*
X81774423Y-41880551D01*
X81774423Y-41880551D02*
X81702995Y-41880551D01*
X81702995Y-41880551D02*
X81607757Y-41856742D01*
X81607757Y-41856742D02*
X81560138Y-41832932D01*
X81560138Y-41832932D02*
X81512519Y-41785313D01*
X81512519Y-41785313D02*
X81488709Y-41713885D01*
X81488709Y-41713885D02*
X81488709Y-41666266D01*
X81488709Y-41666266D02*
X81512519Y-41594837D01*
X81512519Y-41594837D02*
X81536328Y-41571028D01*
X81988709Y-41094837D02*
X81988709Y-41380551D01*
X81988709Y-41237694D02*
X81488709Y-41237694D01*
X81488709Y-41237694D02*
X81560138Y-41285313D01*
X81560138Y-41285313D02*
X81607757Y-41332932D01*
X81607757Y-41332932D02*
X81631566Y-41380551D01*
X81655376Y-40666266D02*
X81988709Y-40666266D01*
X81464900Y-40785314D02*
X81822042Y-40904361D01*
X81822042Y-40904361D02*
X81822042Y-40594838D01*
X84266109Y-32627952D02*
X84670871Y-32627952D01*
X84670871Y-32627952D02*
X84718490Y-32604142D01*
X84718490Y-32604142D02*
X84742300Y-32580333D01*
X84742300Y-32580333D02*
X84766109Y-32532714D01*
X84766109Y-32532714D02*
X84766109Y-32437476D01*
X84766109Y-32437476D02*
X84742300Y-32389857D01*
X84742300Y-32389857D02*
X84718490Y-32366047D01*
X84718490Y-32366047D02*
X84670871Y-32342238D01*
X84670871Y-32342238D02*
X84266109Y-32342238D01*
X84432776Y-31889856D02*
X84766109Y-31889856D01*
X84242300Y-32008904D02*
X84599442Y-32127951D01*
X84599442Y-32127951D02*
X84599442Y-31818428D01*
X78799571Y-45133309D02*
X78632905Y-44895214D01*
X78513857Y-45133309D02*
X78513857Y-44633309D01*
X78513857Y-44633309D02*
X78704333Y-44633309D01*
X78704333Y-44633309D02*
X78751952Y-44657119D01*
X78751952Y-44657119D02*
X78775762Y-44680928D01*
X78775762Y-44680928D02*
X78799571Y-44728547D01*
X78799571Y-44728547D02*
X78799571Y-44799976D01*
X78799571Y-44799976D02*
X78775762Y-44847595D01*
X78775762Y-44847595D02*
X78751952Y-44871404D01*
X78751952Y-44871404D02*
X78704333Y-44895214D01*
X78704333Y-44895214D02*
X78513857Y-44895214D01*
X78990048Y-44680928D02*
X79013857Y-44657119D01*
X79013857Y-44657119D02*
X79061476Y-44633309D01*
X79061476Y-44633309D02*
X79180524Y-44633309D01*
X79180524Y-44633309D02*
X79228143Y-44657119D01*
X79228143Y-44657119D02*
X79251952Y-44680928D01*
X79251952Y-44680928D02*
X79275762Y-44728547D01*
X79275762Y-44728547D02*
X79275762Y-44776166D01*
X79275762Y-44776166D02*
X79251952Y-44847595D01*
X79251952Y-44847595D02*
X78966238Y-45133309D01*
X78966238Y-45133309D02*
X79275762Y-45133309D01*
X79513857Y-45133309D02*
X79609095Y-45133309D01*
X79609095Y-45133309D02*
X79656714Y-45109500D01*
X79656714Y-45109500D02*
X79680523Y-45085690D01*
X79680523Y-45085690D02*
X79728142Y-45014261D01*
X79728142Y-45014261D02*
X79751952Y-44919023D01*
X79751952Y-44919023D02*
X79751952Y-44728547D01*
X79751952Y-44728547D02*
X79728142Y-44680928D01*
X79728142Y-44680928D02*
X79704333Y-44657119D01*
X79704333Y-44657119D02*
X79656714Y-44633309D01*
X79656714Y-44633309D02*
X79561476Y-44633309D01*
X79561476Y-44633309D02*
X79513857Y-44657119D01*
X79513857Y-44657119D02*
X79490047Y-44680928D01*
X79490047Y-44680928D02*
X79466238Y-44728547D01*
X79466238Y-44728547D02*
X79466238Y-44847595D01*
X79466238Y-44847595D02*
X79490047Y-44895214D01*
X79490047Y-44895214D02*
X79513857Y-44919023D01*
X79513857Y-44919023D02*
X79561476Y-44942833D01*
X79561476Y-44942833D02*
X79656714Y-44942833D01*
X79656714Y-44942833D02*
X79704333Y-44919023D01*
X79704333Y-44919023D02*
X79728142Y-44895214D01*
X79728142Y-44895214D02*
X79751952Y-44847595D01*
X68076109Y-31990952D02*
X68480871Y-31990952D01*
X68480871Y-31990952D02*
X68528490Y-31967142D01*
X68528490Y-31967142D02*
X68552300Y-31943333D01*
X68552300Y-31943333D02*
X68576109Y-31895714D01*
X68576109Y-31895714D02*
X68576109Y-31800476D01*
X68576109Y-31800476D02*
X68552300Y-31752857D01*
X68552300Y-31752857D02*
X68528490Y-31729047D01*
X68528490Y-31729047D02*
X68480871Y-31705238D01*
X68480871Y-31705238D02*
X68076109Y-31705238D01*
X68123728Y-31490951D02*
X68099919Y-31467142D01*
X68099919Y-31467142D02*
X68076109Y-31419523D01*
X68076109Y-31419523D02*
X68076109Y-31300475D01*
X68076109Y-31300475D02*
X68099919Y-31252856D01*
X68099919Y-31252856D02*
X68123728Y-31229047D01*
X68123728Y-31229047D02*
X68171347Y-31205237D01*
X68171347Y-31205237D02*
X68218966Y-31205237D01*
X68218966Y-31205237D02*
X68290395Y-31229047D01*
X68290395Y-31229047D02*
X68576109Y-31514761D01*
X68576109Y-31514761D02*
X68576109Y-31205237D01*
X63328571Y-42176109D02*
X63161905Y-41938014D01*
X63042857Y-42176109D02*
X63042857Y-41676109D01*
X63042857Y-41676109D02*
X63233333Y-41676109D01*
X63233333Y-41676109D02*
X63280952Y-41699919D01*
X63280952Y-41699919D02*
X63304762Y-41723728D01*
X63304762Y-41723728D02*
X63328571Y-41771347D01*
X63328571Y-41771347D02*
X63328571Y-41842776D01*
X63328571Y-41842776D02*
X63304762Y-41890395D01*
X63304762Y-41890395D02*
X63280952Y-41914204D01*
X63280952Y-41914204D02*
X63233333Y-41938014D01*
X63233333Y-41938014D02*
X63042857Y-41938014D01*
X63804762Y-42176109D02*
X63519048Y-42176109D01*
X63661905Y-42176109D02*
X63661905Y-41676109D01*
X63661905Y-41676109D02*
X63614286Y-41747538D01*
X63614286Y-41747538D02*
X63566667Y-41795157D01*
X63566667Y-41795157D02*
X63519048Y-41818966D01*
X64233333Y-41842776D02*
X64233333Y-42176109D01*
X64114285Y-41652300D02*
X63995238Y-42009442D01*
X63995238Y-42009442D02*
X64304761Y-42009442D01*
X75376108Y-34994047D02*
X74876108Y-34994047D01*
X74876108Y-34994047D02*
X74876108Y-34874999D01*
X74876108Y-34874999D02*
X74899918Y-34803571D01*
X74899918Y-34803571D02*
X74947537Y-34755952D01*
X74947537Y-34755952D02*
X74995156Y-34732142D01*
X74995156Y-34732142D02*
X75090394Y-34708333D01*
X75090394Y-34708333D02*
X75161822Y-34708333D01*
X75161822Y-34708333D02*
X75257060Y-34732142D01*
X75257060Y-34732142D02*
X75304679Y-34755952D01*
X75304679Y-34755952D02*
X75352299Y-34803571D01*
X75352299Y-34803571D02*
X75376108Y-34874999D01*
X75376108Y-34874999D02*
X75376108Y-34994047D01*
X75042775Y-34279761D02*
X75376108Y-34279761D01*
X74852299Y-34398809D02*
X75209441Y-34517856D01*
X75209441Y-34517856D02*
X75209441Y-34208333D01*
X84566666Y-26876109D02*
X84328571Y-26876109D01*
X84328571Y-26876109D02*
X84328571Y-26376109D01*
X84995238Y-26876109D02*
X84709524Y-26876109D01*
X84852381Y-26876109D02*
X84852381Y-26376109D01*
X84852381Y-26376109D02*
X84804762Y-26447538D01*
X84804762Y-26447538D02*
X84757143Y-26495157D01*
X84757143Y-26495157D02*
X84709524Y-26518966D01*
X79566666Y-34951109D02*
X79400000Y-34713014D01*
X79280952Y-34951109D02*
X79280952Y-34451109D01*
X79280952Y-34451109D02*
X79471428Y-34451109D01*
X79471428Y-34451109D02*
X79519047Y-34474919D01*
X79519047Y-34474919D02*
X79542857Y-34498728D01*
X79542857Y-34498728D02*
X79566666Y-34546347D01*
X79566666Y-34546347D02*
X79566666Y-34617776D01*
X79566666Y-34617776D02*
X79542857Y-34665395D01*
X79542857Y-34665395D02*
X79519047Y-34689204D01*
X79519047Y-34689204D02*
X79471428Y-34713014D01*
X79471428Y-34713014D02*
X79280952Y-34713014D01*
X79804762Y-34951109D02*
X79900000Y-34951109D01*
X79900000Y-34951109D02*
X79947619Y-34927300D01*
X79947619Y-34927300D02*
X79971428Y-34903490D01*
X79971428Y-34903490D02*
X80019047Y-34832061D01*
X80019047Y-34832061D02*
X80042857Y-34736823D01*
X80042857Y-34736823D02*
X80042857Y-34546347D01*
X80042857Y-34546347D02*
X80019047Y-34498728D01*
X80019047Y-34498728D02*
X79995238Y-34474919D01*
X79995238Y-34474919D02*
X79947619Y-34451109D01*
X79947619Y-34451109D02*
X79852381Y-34451109D01*
X79852381Y-34451109D02*
X79804762Y-34474919D01*
X79804762Y-34474919D02*
X79780952Y-34498728D01*
X79780952Y-34498728D02*
X79757143Y-34546347D01*
X79757143Y-34546347D02*
X79757143Y-34665395D01*
X79757143Y-34665395D02*
X79780952Y-34713014D01*
X79780952Y-34713014D02*
X79804762Y-34736823D01*
X79804762Y-34736823D02*
X79852381Y-34760633D01*
X79852381Y-34760633D02*
X79947619Y-34760633D01*
X79947619Y-34760633D02*
X79995238Y-34736823D01*
X79995238Y-34736823D02*
X80019047Y-34713014D01*
X80019047Y-34713014D02*
X80042857Y-34665395D01*
X79180571Y-38913490D02*
X79156762Y-38937300D01*
X79156762Y-38937300D02*
X79085333Y-38961109D01*
X79085333Y-38961109D02*
X79037714Y-38961109D01*
X79037714Y-38961109D02*
X78966286Y-38937300D01*
X78966286Y-38937300D02*
X78918667Y-38889680D01*
X78918667Y-38889680D02*
X78894857Y-38842061D01*
X78894857Y-38842061D02*
X78871048Y-38746823D01*
X78871048Y-38746823D02*
X78871048Y-38675395D01*
X78871048Y-38675395D02*
X78894857Y-38580157D01*
X78894857Y-38580157D02*
X78918667Y-38532538D01*
X78918667Y-38532538D02*
X78966286Y-38484919D01*
X78966286Y-38484919D02*
X79037714Y-38461109D01*
X79037714Y-38461109D02*
X79085333Y-38461109D01*
X79085333Y-38461109D02*
X79156762Y-38484919D01*
X79156762Y-38484919D02*
X79180571Y-38508728D01*
X79656762Y-38961109D02*
X79371048Y-38961109D01*
X79513905Y-38961109D02*
X79513905Y-38461109D01*
X79513905Y-38461109D02*
X79466286Y-38532538D01*
X79466286Y-38532538D02*
X79418667Y-38580157D01*
X79418667Y-38580157D02*
X79371048Y-38603966D01*
X80109142Y-38461109D02*
X79871047Y-38461109D01*
X79871047Y-38461109D02*
X79847238Y-38699204D01*
X79847238Y-38699204D02*
X79871047Y-38675395D01*
X79871047Y-38675395D02*
X79918666Y-38651585D01*
X79918666Y-38651585D02*
X80037714Y-38651585D01*
X80037714Y-38651585D02*
X80085333Y-38675395D01*
X80085333Y-38675395D02*
X80109142Y-38699204D01*
X80109142Y-38699204D02*
X80132952Y-38746823D01*
X80132952Y-38746823D02*
X80132952Y-38865871D01*
X80132952Y-38865871D02*
X80109142Y-38913490D01*
X80109142Y-38913490D02*
X80085333Y-38937300D01*
X80085333Y-38937300D02*
X80037714Y-38961109D01*
X80037714Y-38961109D02*
X79918666Y-38961109D01*
X79918666Y-38961109D02*
X79871047Y-38937300D01*
X79871047Y-38937300D02*
X79847238Y-38913490D01*
X71366666Y-39026109D02*
X71200000Y-38788014D01*
X71080952Y-39026109D02*
X71080952Y-38526109D01*
X71080952Y-38526109D02*
X71271428Y-38526109D01*
X71271428Y-38526109D02*
X71319047Y-38549919D01*
X71319047Y-38549919D02*
X71342857Y-38573728D01*
X71342857Y-38573728D02*
X71366666Y-38621347D01*
X71366666Y-38621347D02*
X71366666Y-38692776D01*
X71366666Y-38692776D02*
X71342857Y-38740395D01*
X71342857Y-38740395D02*
X71319047Y-38764204D01*
X71319047Y-38764204D02*
X71271428Y-38788014D01*
X71271428Y-38788014D02*
X71080952Y-38788014D01*
X71819047Y-38526109D02*
X71580952Y-38526109D01*
X71580952Y-38526109D02*
X71557143Y-38764204D01*
X71557143Y-38764204D02*
X71580952Y-38740395D01*
X71580952Y-38740395D02*
X71628571Y-38716585D01*
X71628571Y-38716585D02*
X71747619Y-38716585D01*
X71747619Y-38716585D02*
X71795238Y-38740395D01*
X71795238Y-38740395D02*
X71819047Y-38764204D01*
X71819047Y-38764204D02*
X71842857Y-38811823D01*
X71842857Y-38811823D02*
X71842857Y-38930871D01*
X71842857Y-38930871D02*
X71819047Y-38978490D01*
X71819047Y-38978490D02*
X71795238Y-39002300D01*
X71795238Y-39002300D02*
X71747619Y-39026109D01*
X71747619Y-39026109D02*
X71628571Y-39026109D01*
X71628571Y-39026109D02*
X71580952Y-39002300D01*
X71580952Y-39002300D02*
X71557143Y-38978490D01*
X66908331Y-22131109D02*
X66908331Y-22488252D01*
X66908331Y-22488252D02*
X66884522Y-22559680D01*
X66884522Y-22559680D02*
X66836903Y-22607300D01*
X66836903Y-22607300D02*
X66765474Y-22631109D01*
X66765474Y-22631109D02*
X66717855Y-22631109D01*
X67122617Y-22178728D02*
X67146426Y-22154919D01*
X67146426Y-22154919D02*
X67194045Y-22131109D01*
X67194045Y-22131109D02*
X67313093Y-22131109D01*
X67313093Y-22131109D02*
X67360712Y-22154919D01*
X67360712Y-22154919D02*
X67384521Y-22178728D01*
X67384521Y-22178728D02*
X67408331Y-22226347D01*
X67408331Y-22226347D02*
X67408331Y-22273966D01*
X67408331Y-22273966D02*
X67384521Y-22345395D01*
X67384521Y-22345395D02*
X67098807Y-22631109D01*
X67098807Y-22631109D02*
X67408331Y-22631109D01*
X78880952Y-25401109D02*
X78880952Y-24901109D01*
X78880952Y-24901109D02*
X79000000Y-24901109D01*
X79000000Y-24901109D02*
X79071428Y-24924919D01*
X79071428Y-24924919D02*
X79119047Y-24972538D01*
X79119047Y-24972538D02*
X79142857Y-25020157D01*
X79142857Y-25020157D02*
X79166666Y-25115395D01*
X79166666Y-25115395D02*
X79166666Y-25186823D01*
X79166666Y-25186823D02*
X79142857Y-25282061D01*
X79142857Y-25282061D02*
X79119047Y-25329680D01*
X79119047Y-25329680D02*
X79071428Y-25377300D01*
X79071428Y-25377300D02*
X79000000Y-25401109D01*
X79000000Y-25401109D02*
X78880952Y-25401109D01*
X79642857Y-25401109D02*
X79357143Y-25401109D01*
X79500000Y-25401109D02*
X79500000Y-24901109D01*
X79500000Y-24901109D02*
X79452381Y-24972538D01*
X79452381Y-24972538D02*
X79404762Y-25020157D01*
X79404762Y-25020157D02*
X79357143Y-25043966D01*
X65896109Y-31940952D02*
X66300871Y-31940952D01*
X66300871Y-31940952D02*
X66348490Y-31917142D01*
X66348490Y-31917142D02*
X66372300Y-31893333D01*
X66372300Y-31893333D02*
X66396109Y-31845714D01*
X66396109Y-31845714D02*
X66396109Y-31750476D01*
X66396109Y-31750476D02*
X66372300Y-31702857D01*
X66372300Y-31702857D02*
X66348490Y-31679047D01*
X66348490Y-31679047D02*
X66300871Y-31655238D01*
X66300871Y-31655238D02*
X65896109Y-31655238D01*
X66396109Y-31155237D02*
X66396109Y-31440951D01*
X66396109Y-31298094D02*
X65896109Y-31298094D01*
X65896109Y-31298094D02*
X65967538Y-31345713D01*
X65967538Y-31345713D02*
X66015157Y-31393332D01*
X66015157Y-31393332D02*
X66038966Y-31440951D01*
X75410109Y-44365028D02*
X75172014Y-44531694D01*
X75410109Y-44650742D02*
X74910109Y-44650742D01*
X74910109Y-44650742D02*
X74910109Y-44460266D01*
X74910109Y-44460266D02*
X74933919Y-44412647D01*
X74933919Y-44412647D02*
X74957728Y-44388837D01*
X74957728Y-44388837D02*
X75005347Y-44365028D01*
X75005347Y-44365028D02*
X75076776Y-44365028D01*
X75076776Y-44365028D02*
X75124395Y-44388837D01*
X75124395Y-44388837D02*
X75148204Y-44412647D01*
X75148204Y-44412647D02*
X75172014Y-44460266D01*
X75172014Y-44460266D02*
X75172014Y-44650742D01*
X74957728Y-44174551D02*
X74933919Y-44150742D01*
X74933919Y-44150742D02*
X74910109Y-44103123D01*
X74910109Y-44103123D02*
X74910109Y-43984075D01*
X74910109Y-43984075D02*
X74933919Y-43936456D01*
X74933919Y-43936456D02*
X74957728Y-43912647D01*
X74957728Y-43912647D02*
X75005347Y-43888837D01*
X75005347Y-43888837D02*
X75052966Y-43888837D01*
X75052966Y-43888837D02*
X75124395Y-43912647D01*
X75124395Y-43912647D02*
X75410109Y-44198361D01*
X75410109Y-44198361D02*
X75410109Y-43888837D01*
X74910109Y-43579314D02*
X74910109Y-43531695D01*
X74910109Y-43531695D02*
X74933919Y-43484076D01*
X74933919Y-43484076D02*
X74957728Y-43460266D01*
X74957728Y-43460266D02*
X75005347Y-43436457D01*
X75005347Y-43436457D02*
X75100585Y-43412647D01*
X75100585Y-43412647D02*
X75219633Y-43412647D01*
X75219633Y-43412647D02*
X75314871Y-43436457D01*
X75314871Y-43436457D02*
X75362490Y-43460266D01*
X75362490Y-43460266D02*
X75386300Y-43484076D01*
X75386300Y-43484076D02*
X75410109Y-43531695D01*
X75410109Y-43531695D02*
X75410109Y-43579314D01*
X75410109Y-43579314D02*
X75386300Y-43626933D01*
X75386300Y-43626933D02*
X75362490Y-43650742D01*
X75362490Y-43650742D02*
X75314871Y-43674552D01*
X75314871Y-43674552D02*
X75219633Y-43698361D01*
X75219633Y-43698361D02*
X75100585Y-43698361D01*
X75100585Y-43698361D02*
X75005347Y-43674552D01*
X75005347Y-43674552D02*
X74957728Y-43650742D01*
X74957728Y-43650742D02*
X74933919Y-43626933D01*
X74933919Y-43626933D02*
X74910109Y-43579314D01*
X67812908Y-37494447D02*
X67789099Y-37542066D01*
X67789099Y-37542066D02*
X67741480Y-37589685D01*
X67741480Y-37589685D02*
X67670051Y-37661113D01*
X67670051Y-37661113D02*
X67646241Y-37708732D01*
X67646241Y-37708732D02*
X67646241Y-37756351D01*
X67765289Y-37732542D02*
X67741480Y-37780161D01*
X67741480Y-37780161D02*
X67693860Y-37827780D01*
X67693860Y-37827780D02*
X67598622Y-37851589D01*
X67598622Y-37851589D02*
X67431956Y-37851589D01*
X67431956Y-37851589D02*
X67336718Y-37827780D01*
X67336718Y-37827780D02*
X67289099Y-37780161D01*
X67289099Y-37780161D02*
X67265289Y-37732542D01*
X67265289Y-37732542D02*
X67265289Y-37637304D01*
X67265289Y-37637304D02*
X67289099Y-37589685D01*
X67289099Y-37589685D02*
X67336718Y-37542066D01*
X67336718Y-37542066D02*
X67431956Y-37518256D01*
X67431956Y-37518256D02*
X67598622Y-37518256D01*
X67598622Y-37518256D02*
X67693860Y-37542066D01*
X67693860Y-37542066D02*
X67741480Y-37589685D01*
X67741480Y-37589685D02*
X67765289Y-37637304D01*
X67765289Y-37637304D02*
X67765289Y-37732542D01*
X67765289Y-37042065D02*
X67765289Y-37327779D01*
X67765289Y-37184922D02*
X67265289Y-37184922D01*
X67265289Y-37184922D02*
X67336718Y-37232541D01*
X67336718Y-37232541D02*
X67384337Y-37280160D01*
X67384337Y-37280160D02*
X67408146Y-37327779D01*
X63183333Y-46401109D02*
X63183333Y-46758252D01*
X63183333Y-46758252D02*
X63159524Y-46829680D01*
X63159524Y-46829680D02*
X63111905Y-46877300D01*
X63111905Y-46877300D02*
X63040476Y-46901109D01*
X63040476Y-46901109D02*
X62992857Y-46901109D01*
X63683333Y-46901109D02*
X63397619Y-46901109D01*
X63540476Y-46901109D02*
X63540476Y-46401109D01*
X63540476Y-46401109D02*
X63492857Y-46472538D01*
X63492857Y-46472538D02*
X63445238Y-46520157D01*
X63445238Y-46520157D02*
X63397619Y-46543966D01*
X71616666Y-29576109D02*
X71450000Y-29338014D01*
X71330952Y-29576109D02*
X71330952Y-29076109D01*
X71330952Y-29076109D02*
X71521428Y-29076109D01*
X71521428Y-29076109D02*
X71569047Y-29099919D01*
X71569047Y-29099919D02*
X71592857Y-29123728D01*
X71592857Y-29123728D02*
X71616666Y-29171347D01*
X71616666Y-29171347D02*
X71616666Y-29242776D01*
X71616666Y-29242776D02*
X71592857Y-29290395D01*
X71592857Y-29290395D02*
X71569047Y-29314204D01*
X71569047Y-29314204D02*
X71521428Y-29338014D01*
X71521428Y-29338014D02*
X71330952Y-29338014D01*
X72092857Y-29576109D02*
X71807143Y-29576109D01*
X71950000Y-29576109D02*
X71950000Y-29076109D01*
X71950000Y-29076109D02*
X71902381Y-29147538D01*
X71902381Y-29147538D02*
X71854762Y-29195157D01*
X71854762Y-29195157D02*
X71807143Y-29218966D01*
X74916666Y-25253490D02*
X74892857Y-25277300D01*
X74892857Y-25277300D02*
X74821428Y-25301109D01*
X74821428Y-25301109D02*
X74773809Y-25301109D01*
X74773809Y-25301109D02*
X74702381Y-25277300D01*
X74702381Y-25277300D02*
X74654762Y-25229680D01*
X74654762Y-25229680D02*
X74630952Y-25182061D01*
X74630952Y-25182061D02*
X74607143Y-25086823D01*
X74607143Y-25086823D02*
X74607143Y-25015395D01*
X74607143Y-25015395D02*
X74630952Y-24920157D01*
X74630952Y-24920157D02*
X74654762Y-24872538D01*
X74654762Y-24872538D02*
X74702381Y-24824919D01*
X74702381Y-24824919D02*
X74773809Y-24801109D01*
X74773809Y-24801109D02*
X74821428Y-24801109D01*
X74821428Y-24801109D02*
X74892857Y-24824919D01*
X74892857Y-24824919D02*
X74916666Y-24848728D01*
X75392857Y-25301109D02*
X75107143Y-25301109D01*
X75250000Y-25301109D02*
X75250000Y-24801109D01*
X75250000Y-24801109D02*
X75202381Y-24872538D01*
X75202381Y-24872538D02*
X75154762Y-24920157D01*
X75154762Y-24920157D02*
X75107143Y-24943966D01*
%TO.C,U5*%
X76117000Y-29912200D02*
X77133000Y-29912200D01*
X76117000Y-31537800D02*
X76117000Y-29912200D01*
X77133000Y-29912200D02*
X77133000Y-31537800D01*
X77133000Y-31537800D02*
X76117000Y-31537800D01*
X76027392Y-29709000D02*
G75*
G02*
X75800208Y-29709000I-113592J0D01*
G01*
X75800208Y-29709000D02*
G75*
G02*
X76027392Y-29709000I113592J0D01*
G01*
%TO.C,P1*%
X46500000Y-25675000D02*
X62500000Y-25675000D01*
X46500000Y-30750000D02*
X62500000Y-30750000D01*
X46500000Y-42925000D02*
X46500000Y-25675000D01*
X46500000Y-42925000D02*
X62500000Y-42925000D01*
X62500000Y-42925000D02*
X62500000Y-25675000D01*
D11*
%TO.C,Q2*%
X71015000Y-37235000D02*
X71015000Y-35825000D01*
X73335000Y-37225000D02*
X73335000Y-35825000D01*
X71065000Y-37605000D02*
X70735000Y-37845000D01*
X70735000Y-37365000D01*
X71065000Y-37605000D01*
G36*
X71065000Y-37605000D02*
G01*
X70735000Y-37845000D01*
X70735000Y-37365000D01*
X71065000Y-37605000D01*
G37*
%TO.C,L2*%
X62865000Y-37012220D02*
X62865000Y-37337780D01*
X63885000Y-37012220D02*
X63885000Y-37337780D01*
%TO.C,C2*%
X78440000Y-29313747D02*
X78440000Y-29836253D01*
X79910000Y-29313747D02*
X79910000Y-29836253D01*
%TO.C,D3*%
X74175000Y-32615000D02*
X74175000Y-35875000D01*
X75875000Y-32615000D02*
X74175000Y-32615000D01*
X75875000Y-32615000D02*
X75875000Y-35875000D01*
%TO.C,C4*%
X84465000Y-29511252D02*
X84465000Y-28988746D01*
X85935000Y-29511252D02*
X85935000Y-28988746D01*
%TO.C,U3*%
X70447500Y-32700000D02*
X70447500Y-33750000D01*
X72427500Y-32700000D02*
X72427500Y-34000000D01*
X70447500Y-34400000D02*
X70167500Y-34120000D01*
X70447500Y-34120000D01*
X70447500Y-34400000D01*
G36*
X70447500Y-34400000D02*
G01*
X70167500Y-34120000D01*
X70447500Y-34120000D01*
X70447500Y-34400000D01*
G37*
D12*
%TO.C,IC1*%
X77676800Y-40770600D02*
X79666800Y-40770600D01*
X77676800Y-42265600D02*
X77676800Y-40770600D01*
X78171800Y-42760600D02*
X77676800Y-42265600D01*
X79666800Y-40770600D02*
X79666800Y-42760600D01*
X79666800Y-42760600D02*
X78171800Y-42760600D01*
X77776800Y-42760600D02*
G75*
G02*
X77576800Y-42760600I-100000J0D01*
G01*
X77576800Y-42760600D02*
G75*
G02*
X77776800Y-42760600I100000J0D01*
G01*
D13*
%TO.C,U4*%
X80700000Y-30825000D02*
X80700000Y-31630000D01*
X80700000Y-33020000D02*
X80700000Y-33825000D01*
X83700000Y-30825000D02*
X83700000Y-31630000D01*
X83700000Y-33020000D02*
X83700000Y-33825000D01*
D12*
X83500000Y-29930000D02*
G75*
G02*
X83300000Y-29930000I-100000J0D01*
G01*
X83300000Y-29930000D02*
G75*
G02*
X83500000Y-29930000I100000J0D01*
G01*
D11*
%TO.C,U2*%
X68197500Y-32700000D02*
X68197500Y-33750000D01*
X70177500Y-32700000D02*
X70177500Y-34000000D01*
X68197500Y-34400000D02*
X67917500Y-34120000D01*
X68197500Y-34120000D01*
X68197500Y-34400000D01*
G36*
X68197500Y-34400000D02*
G01*
X67917500Y-34120000D01*
X68197500Y-34120000D01*
X68197500Y-34400000D01*
G37*
%TO.C,D4*%
X76150000Y-36635000D02*
X76150000Y-33375000D01*
X76150000Y-36635000D02*
X77850000Y-36635000D01*
X77850000Y-36635000D02*
X77850000Y-33375000D01*
%TO.C,L1*%
X81938748Y-27790000D02*
X82461252Y-27790000D01*
X81938748Y-30010000D02*
X82461252Y-30010000D01*
D12*
%TO.C,J2*%
X62149998Y-17470000D02*
X62149998Y-18805000D01*
X62149998Y-21205000D02*
X62149998Y-23605000D01*
X62149998Y-27340000D02*
X62149998Y-25405000D01*
D10*
X69874998Y-27805000D02*
X69874998Y-27805000D01*
X69874998Y-27905000D02*
X69874998Y-27905000D01*
D12*
X71999998Y-17470000D02*
X62149998Y-17470000D01*
X71999998Y-18805000D02*
X71999998Y-17470000D01*
X71999998Y-23605000D02*
X71999998Y-21205000D01*
X71999998Y-25405000D02*
X71999998Y-27340000D01*
X71999998Y-27340000D02*
X62149998Y-27340000D01*
D10*
X69874998Y-27805000D02*
G75*
G02*
X69874998Y-27905000I0J-50000D01*
G01*
X69874998Y-27905000D02*
G75*
G02*
X69874998Y-27805000I0J50000D01*
G01*
D11*
%TO.C,D1*%
X82760000Y-25650000D02*
X79500000Y-25650000D01*
X82760000Y-27350000D02*
X79500000Y-27350000D01*
X82760000Y-27350000D02*
X82760000Y-25650000D01*
%TO.C,U1*%
X65935000Y-32700000D02*
X65935000Y-33750000D01*
X67915000Y-32700000D02*
X67915000Y-34000000D01*
X65935000Y-34400000D02*
X65655000Y-34120000D01*
X65935000Y-34120000D01*
X65935000Y-34400000D01*
G36*
X65935000Y-34400000D02*
G01*
X65655000Y-34120000D01*
X65935000Y-34120000D01*
X65935000Y-34400000D01*
G37*
%TO.C,Q1*%
X68165000Y-39185000D02*
X68165000Y-37775000D01*
X70485000Y-39175000D02*
X70485000Y-37775000D01*
X68215000Y-39555000D02*
X67885000Y-39795000D01*
X67885000Y-39315000D01*
X68215000Y-39555000D01*
G36*
X68215000Y-39555000D02*
G01*
X67885000Y-39795000D01*
X67885000Y-39315000D01*
X68215000Y-39555000D01*
G37*
D10*
%TO.C,J1*%
X56750000Y-44300000D02*
X58350000Y-44300000D01*
X56750000Y-45800000D02*
X56750000Y-44300000D01*
X56750000Y-48300000D02*
X56750000Y-49550000D01*
X56750000Y-49550000D02*
X69950000Y-49550000D01*
X58350000Y-44300000D02*
X58850000Y-44300000D01*
X67850000Y-44300000D02*
X69950000Y-44300000D01*
X69950000Y-44300000D02*
X69950000Y-45800000D01*
X69950000Y-49550000D02*
X69950000Y-48300000D01*
D11*
%TO.C,C1*%
X74750000Y-27535000D02*
X78660000Y-27535000D01*
X78660000Y-25665000D02*
X74750000Y-25665000D01*
X78660000Y-27535000D02*
X78660000Y-25665000D01*
%TD*%
M02*
