M48
; DRILL file {KiCad 9.0.3} date 2025-09-24T00:53:31-0700
; FORMAT={-:-/ absolute / metric / decimal}
; #@! TF.CreationDate,2025-09-24T00:53:31-07:00
; #@! TF.GenerationSoftware,Kicad,Pcbnew,9.0.3
; #@! TF.FileFunction,Plated,1,4,PTH
FMAT,2
METRIC
; #@! TA.AperFunction,Plated,PTH,ViaDrill
T1C0.300
; #@! TA.AperFunction,Plated,PTH,ComponentDrill
T2C0.400
; #@! TA.AperFunction,Plated,PTH,ComponentDrill
T3C0.500
; #@! TA.AperFunction,Plated,PTH,ComponentDrill
T4C0.750
%
G90
G05
T1
X45.78Y-40.51
X45.93Y-36.09
X49.375Y-38.175
X49.44Y-35.95
X49.51Y-39.82
X49.525Y-37.375
X49.74Y-31.6
X50.05Y-38.725
X50.15Y-43.425
X51.5Y-40.15
X54.19Y-45.09
X54.99Y-45.88
X55.71Y-44.99
X57.5Y-39.95
X59.22Y-31.61
X59.4Y-45.65
X59.825Y-43.15
X60.25Y-41.575
X60.825Y-46.75
X61.24Y-43.03
X61.325Y-47.3
X61.95Y-47.725
X62.0Y-42.4
X62.95Y-47.925
X63.025Y-47.175
X63.2Y-39.675
X63.4Y-35.025
X63.65Y-33.025
X63.85Y-39.15
X64.6Y-43.15
X64.625Y-40.225
X64.85Y-30.0
X65.0Y-42.1
X65.372Y-29.498
X65.859Y-28.447
X66.497Y-27.864
X66.762Y-35.992
X66.929Y-33.35
X67.253Y-27.864
X67.73Y-41.88
X68.326Y-28.372
X68.497Y-40.45
X68.758Y-29.159
X69.317Y-36.728
X69.325Y-38.456
X69.438Y-29.432
X70.25Y-29.711
X70.307Y-38.633
X70.63Y-35.31
X70.853Y-27.915
X70.942Y-41.326
X71.775Y-40.513
X73.53Y-34.14
X74.135Y-33.319
X74.568Y-29.326
X74.574Y-43.028
X74.7Y-31.1
X74.85Y-32.05
X74.92Y-27.78
X75.075Y-37.25
X75.2Y-30.575
X75.616Y-41.402
X77.14Y-41.148
X77.333Y-37.183
X77.45Y-32.125
X77.75Y-29.125
X78.461Y-38.583
X78.8Y-27.35
X79.175Y-31.875
X79.45Y-33.52
X80.55Y-35.525
X81.001Y-42.189
X83.35Y-26.5
X84.62Y-33.09
X85.2Y-31.73
T2
X64.275Y-24.563
X64.675Y-23.863
X65.475Y-23.863
X65.875Y-24.563
X66.275Y-23.863
X66.675Y-24.563
X67.475Y-24.563
X67.875Y-23.863
X68.275Y-24.563
X68.675Y-23.863
X69.475Y-23.863
X69.875Y-24.563
T4
X89.67Y-39.95
X89.67Y-41.95
T3
G00X62.585Y-19.873
M15
G01X62.585Y-19.273
M16
G05
G00X62.945Y-24.273
M15
G01X62.945Y-23.673
M16
G05
G00X71.205Y-24.273
M15
G01X71.205Y-23.673
M16
G05
G00X71.565Y-19.873
M15
G01X71.565Y-19.273
M16
G05
M30
