M48
; DRILL file {KiCad 8.0.2} date 2025-05-18T14:56:42-0700
; FORMAT={-:-/ absolute / inch / decimal}
; #@! TF.CreationDate,2025-05-18T14:56:42-07:00
; #@! TF.GenerationSoftware,Kicad,Pcbnew,8.0.2
; #@! TF.FileFunction,Plated,1,4,PTH
FMAT,2
INCH
; #@! TA.AperFunction,Plated,PTH,ViaDrill
T1C0.0118
; #@! TA.AperFunction,Plated,PTH,ComponentDrill
T2C0.0157
; #@! TA.AperFunction,Plated,PTH,ComponentDrill
T3C0.0197
; #@! TA.AperFunction,Plated,PTH,ComponentDrill
T4C0.0295
%
G90
G05
T1
X1.8024Y-1.5949
X1.8083Y-1.4209
X1.9439Y-1.503
X1.9465Y-1.4154
X1.9492Y-1.5677
X1.9498Y-1.4715
X1.9583Y-1.2441
X1.9705Y-1.5246
X1.9744Y-1.7096
X2.0276Y-1.5807
X2.1335Y-1.7752
X2.165Y-1.8063
X2.1933Y-1.7713
X2.2638Y-1.5728
X2.3315Y-1.2445
X2.3386Y-1.7972
X2.3553Y-1.6988
X2.372Y-1.6368
X2.3947Y-1.8406
X2.411Y-1.6941
X2.4144Y-1.8622
X2.439Y-1.8789
X2.4409Y-1.6693
X2.4783Y-1.8868
X2.4813Y-1.8573
X2.4882Y-1.562
X2.4961Y-1.3789
X2.5059Y-1.3002
X2.5138Y-1.5413
X2.5433Y-1.6988
X2.5443Y-1.5837
X2.5531Y-1.1811
X2.5591Y-1.6575
X2.5737Y-1.1613
X2.5929Y-1.12
X2.6122Y-1.0413
X2.627Y-1.3287
X2.6351Y-1.2414
X2.6516Y-1.0413
X2.6665Y-1.6488
X2.689Y-1.0728
X2.7037Y-1.6014
X2.7043Y-1.1494
X2.7244Y-1.253
X2.7292Y-1.3852
X2.7338Y-1.1494
X2.7633Y-1.1494
X2.7638Y-1.5659
X2.7807Y-1.3902
X2.7905Y-1.0734
X2.7933Y-1.5266
X2.812Y-1.253
X2.8258Y-1.5325
X2.8829Y-1.1546
X2.8949Y-1.3441
X2.9187Y-1.3118
X2.9409Y-1.2244
X2.9469Y-1.2618
X2.9496Y-1.0937
X2.9557Y-1.4665
X2.9606Y-1.2037
X3.0446Y-1.4639
X3.0492Y-1.2648
X3.061Y-1.1467
X3.1024Y-1.0768
X3.1171Y-1.2549
X3.128Y-1.3197
X3.1713Y-1.3986
X3.2815Y-1.0433
X3.3315Y-1.3028
X3.3543Y-1.2492
T2
X2.5305Y-0.9256
X2.5463Y-0.8981
X2.5778Y-0.8981
X2.5935Y-0.9256
X2.6093Y-0.8981
X2.625Y-0.9256
X2.6565Y-0.9256
X2.6722Y-0.8981
X2.688Y-0.9256
X2.7037Y-0.8981
X2.7352Y-0.8981
X2.751Y-0.9256
T4
X3.5303Y-1.5728
X3.5303Y-1.6516
T3
G00X2.464Y-0.741
M15
G01X2.464Y-0.7174
M16
G05
G00X2.4781Y-0.9142
M15
G01X2.4781Y-0.8906
M16
G05
G00X2.8033Y-0.9142
M15
G01X2.8033Y-0.8906
M16
G05
G00X2.8175Y-0.741
M15
G01X2.8175Y-0.7174
M16
G05
M30
