%TF.GenerationSoftware,KiCad,Pcbnew,8.0.2*%
%TF.CreationDate,2025-05-18T14:56:39-07:00*%
%TF.ProjectId,PGS_USBW_Board,5047535f-5553-4425-975f-426f6172642e,rev?*%
%TF.SameCoordinates,Original*%
%TF.FileFunction,Soldermask,Bot*%
%TF.FilePolarity,Negative*%
%FSLAX46Y46*%
G04 Gerber Fmt 4.6, Leading zero omitted, Abs format (unit mm)*
G04 Created by KiCad (PCBNEW 8.0.2) date 2025-05-18 14:56:39*
%MOMM*%
%LPD*%
G01*
G04 APERTURE LIST*
G04 Aperture macros list*
%AMRoundRect*
0 Rectangle with rounded corners*
0 $1 Rounding radius*
0 $2 $3 $4 $5 $6 $7 $8 $9 X,Y pos of 4 corners*
0 Add a 4 corners polygon primitive as box body*
4,1,4,$2,$3,$4,$5,$6,$7,$8,$9,$2,$3,0*
0 Add four circle primitives for the rounded corners*
1,1,$1+$1,$2,$3*
1,1,$1+$1,$4,$5*
1,1,$1+$1,$6,$7*
1,1,$1+$1,$8,$9*
0 Add four rect primitives between the rounded corners*
20,1,$1+$1,$2,$3,$4,$5,0*
20,1,$1+$1,$4,$5,$6,$7,0*
20,1,$1+$1,$6,$7,$8,$9,0*
20,1,$1+$1,$8,$9,$2,$3,0*%
G04 Aperture macros list end*
%ADD10C,0.100000*%
%ADD11O,1.750000X1.200000*%
%ADD12RoundRect,0.250000X0.625000X-0.350000X0.625000X0.350000X-0.625000X0.350000X-0.625000X-0.350000X0*%
%ADD13C,0.650000*%
%ADD14O,0.950000X0.650000*%
%ADD15C,0.600000*%
%ADD16O,0.800000X1.400000*%
%ADD17C,1.000000*%
G04 APERTURE END LIST*
D10*
G36*
X89028004Y-47700000D02*
G01*
X88833342Y-47700000D01*
X88833342Y-47371737D01*
X88617676Y-47371737D01*
X88568273Y-47368590D01*
X88508225Y-47355041D01*
X88455373Y-47331586D01*
X88410309Y-47299081D01*
X88373628Y-47258382D01*
X88345919Y-47210346D01*
X88327777Y-47155827D01*
X88319794Y-47095682D01*
X88319455Y-47079867D01*
X88319944Y-47074249D01*
X88490181Y-47074249D01*
X88497042Y-47124025D01*
X88522733Y-47169828D01*
X88569175Y-47200736D01*
X88618699Y-47212214D01*
X88648450Y-47213712D01*
X88833342Y-47213712D01*
X88833342Y-46938939D01*
X88648450Y-46938939D01*
X88592305Y-46944770D01*
X88543249Y-46964956D01*
X88507405Y-47002780D01*
X88491420Y-47052964D01*
X88490181Y-47074249D01*
X88319944Y-47074249D01*
X88324806Y-47018359D01*
X88340464Y-46961356D01*
X88365836Y-46909997D01*
X88400330Y-46865422D01*
X88443354Y-46828769D01*
X88494314Y-46801178D01*
X88552619Y-46783788D01*
X88617676Y-46777739D01*
X89028004Y-46777739D01*
X89028004Y-47700000D01*
G37*
G36*
X88094263Y-47700000D02*
G01*
X88094263Y-47344138D01*
X88088498Y-47288155D01*
X88067083Y-47237323D01*
X88029661Y-47202188D01*
X87976030Y-47182857D01*
X87927690Y-47178785D01*
X87878955Y-47182689D01*
X87877376Y-47182937D01*
X87877376Y-46996580D01*
X87901067Y-46996580D01*
X87955884Y-46999358D01*
X88008595Y-47012395D01*
X88052557Y-47037761D01*
X88088341Y-47073633D01*
X88105498Y-47097452D01*
X88105498Y-47012212D01*
X88276224Y-47012212D01*
X88276224Y-47700000D01*
X88094263Y-47700000D01*
G37*
G36*
X87589260Y-47000326D02*
G01*
X87643851Y-47011321D01*
X87693570Y-47029204D01*
X87738151Y-47053613D01*
X87777330Y-47084184D01*
X87810840Y-47120556D01*
X87838415Y-47162367D01*
X87859790Y-47209255D01*
X87874700Y-47260856D01*
X87882878Y-47316809D01*
X87884459Y-47356350D01*
X87881021Y-47413975D01*
X87870841Y-47467868D01*
X87854120Y-47517605D01*
X87831058Y-47562765D01*
X87801856Y-47602923D01*
X87766713Y-47637659D01*
X87725831Y-47666548D01*
X87679409Y-47689169D01*
X87627649Y-47705099D01*
X87570750Y-47713915D01*
X87530062Y-47715631D01*
X87471933Y-47711892D01*
X87418222Y-47700914D01*
X87369212Y-47683059D01*
X87325189Y-47658689D01*
X87286435Y-47628163D01*
X87253234Y-47591843D01*
X87225871Y-47550090D01*
X87204628Y-47503266D01*
X87189790Y-47451730D01*
X87181640Y-47395845D01*
X87180062Y-47356350D01*
X87363489Y-47356350D01*
X87367581Y-47415893D01*
X87379838Y-47465371D01*
X87405285Y-47511444D01*
X87449718Y-47546832D01*
X87500388Y-47561401D01*
X87530062Y-47563224D01*
X87586520Y-47555937D01*
X87631389Y-47534089D01*
X87664621Y-47497700D01*
X87686168Y-47446788D01*
X87695162Y-47393283D01*
X87696636Y-47356350D01*
X87692544Y-47296805D01*
X87680287Y-47247503D01*
X87654840Y-47201775D01*
X87610406Y-47166812D01*
X87559737Y-47152483D01*
X87530062Y-47150697D01*
X87473604Y-47157851D01*
X87428735Y-47179381D01*
X87395503Y-47215395D01*
X87373957Y-47265999D01*
X87364962Y-47319391D01*
X87363489Y-47356350D01*
X87180062Y-47356350D01*
X87183561Y-47297358D01*
X87193881Y-47242610D01*
X87210761Y-47192445D01*
X87233939Y-47147204D01*
X87263153Y-47107229D01*
X87298141Y-47072858D01*
X87338641Y-47044433D01*
X87384391Y-47022294D01*
X87435128Y-47006782D01*
X87490591Y-46998238D01*
X87530062Y-46996580D01*
X87589260Y-47000326D01*
G37*
G36*
X86264884Y-47699267D02*
G01*
X86264884Y-47200767D01*
X86652742Y-47200767D01*
X86652742Y-47356106D01*
X86446845Y-47356106D01*
X86453854Y-47408536D01*
X86473792Y-47456355D01*
X86505027Y-47497811D01*
X86545926Y-47531157D01*
X86594857Y-47554641D01*
X86650188Y-47566514D01*
X86673747Y-47567620D01*
X86736641Y-47559913D01*
X86790155Y-47538295D01*
X86834597Y-47505023D01*
X86870271Y-47462351D01*
X86897484Y-47412535D01*
X86916543Y-47357831D01*
X86927754Y-47300493D01*
X86931423Y-47242777D01*
X86928729Y-47184282D01*
X86920820Y-47131132D01*
X86907953Y-47083416D01*
X86883533Y-47028400D01*
X86851372Y-46983416D01*
X86812082Y-46948674D01*
X86766277Y-46924386D01*
X86714568Y-46910765D01*
X86672281Y-46907676D01*
X86623567Y-46912487D01*
X86569863Y-46929815D01*
X86524010Y-46957815D01*
X86488827Y-46994438D01*
X86465032Y-47045331D01*
X86462233Y-47061060D01*
X86266350Y-47061060D01*
X86274312Y-47011028D01*
X86290018Y-46964097D01*
X86312943Y-46920666D01*
X86342561Y-46881131D01*
X86378346Y-46845890D01*
X86419775Y-46815341D01*
X86466320Y-46789879D01*
X86517458Y-46769904D01*
X86572663Y-46755811D01*
X86631409Y-46747999D01*
X86672281Y-46746475D01*
X86727012Y-46748996D01*
X86778352Y-46756394D01*
X86826282Y-46768425D01*
X86891740Y-46794617D01*
X86949416Y-46829848D01*
X86999245Y-46873288D01*
X87041161Y-46924108D01*
X87075100Y-46981479D01*
X87100996Y-47044570D01*
X87118785Y-47112552D01*
X87128400Y-47184596D01*
X87130237Y-47234473D01*
X87125973Y-47306329D01*
X87113414Y-47376095D01*
X87092905Y-47442682D01*
X87064794Y-47505004D01*
X87029426Y-47561975D01*
X86987148Y-47612507D01*
X86938307Y-47655514D01*
X86883250Y-47689909D01*
X86822323Y-47714606D01*
X86755872Y-47728517D01*
X86708674Y-47731263D01*
X86650620Y-47727935D01*
X86596595Y-47718163D01*
X86547517Y-47702268D01*
X86496443Y-47675556D01*
X86455396Y-47641035D01*
X86429993Y-47606699D01*
X86425840Y-47700000D01*
X86264884Y-47699267D01*
G37*
G36*
X85573189Y-47382240D02*
G01*
X85588857Y-47432342D01*
X85616104Y-47482343D01*
X85652611Y-47520736D01*
X85698425Y-47546922D01*
X85753595Y-47560302D01*
X85784703Y-47562002D01*
X85837849Y-47556431D01*
X85883900Y-47540013D01*
X85931490Y-47504906D01*
X85961586Y-47465692D01*
X85984596Y-47417062D01*
X86000524Y-47359457D01*
X86007822Y-47310630D01*
X86011139Y-47257188D01*
X86011360Y-47238381D01*
X86009362Y-47184056D01*
X86003333Y-47134031D01*
X85988937Y-47074410D01*
X85967164Y-47023378D01*
X85937896Y-46981475D01*
X85901011Y-46949241D01*
X85856390Y-46927219D01*
X85803912Y-46915949D01*
X85774689Y-46914515D01*
X85724092Y-46920946D01*
X85677381Y-46939695D01*
X85636382Y-46969939D01*
X85602921Y-47010857D01*
X85578825Y-47061628D01*
X85573189Y-47080600D01*
X85378527Y-47080600D01*
X85387037Y-47029463D01*
X85402120Y-46980836D01*
X85423561Y-46935267D01*
X85451144Y-46893307D01*
X85484656Y-46855508D01*
X85523881Y-46822420D01*
X85568604Y-46794593D01*
X85618610Y-46772579D01*
X85673685Y-46756927D01*
X85733612Y-46748188D01*
X85776154Y-46746475D01*
X85848291Y-46751471D01*
X85914864Y-46766220D01*
X85975539Y-46790366D01*
X86029980Y-46823549D01*
X86077855Y-46865414D01*
X86118828Y-46915603D01*
X86152565Y-46973757D01*
X86178732Y-47039521D01*
X86191805Y-47087414D01*
X86201265Y-47138424D01*
X86207014Y-47192445D01*
X86208953Y-47249371D01*
X86206800Y-47306746D01*
X86200470Y-47360608D01*
X86190150Y-47410932D01*
X86167604Y-47479726D01*
X86137147Y-47540412D01*
X86099417Y-47592901D01*
X86055055Y-47637106D01*
X86004697Y-47672938D01*
X85948983Y-47700309D01*
X85888552Y-47719130D01*
X85824042Y-47729315D01*
X85779085Y-47731263D01*
X85720307Y-47727631D01*
X85665404Y-47716969D01*
X85614555Y-47699627D01*
X85567939Y-47675956D01*
X85525735Y-47646305D01*
X85488120Y-47611025D01*
X85455274Y-47570465D01*
X85427376Y-47524977D01*
X85404604Y-47474909D01*
X85387136Y-47420613D01*
X85378527Y-47382240D01*
X85573189Y-47382240D01*
G37*
G36*
X84715408Y-47382240D02*
G01*
X84731076Y-47432342D01*
X84758323Y-47482343D01*
X84794830Y-47520736D01*
X84840644Y-47546922D01*
X84895814Y-47560302D01*
X84926922Y-47562002D01*
X84980068Y-47556431D01*
X85026119Y-47540013D01*
X85073709Y-47504906D01*
X85103805Y-47465692D01*
X85126816Y-47417062D01*
X85142743Y-47359457D01*
X85150041Y-47310630D01*
X85153358Y-47257188D01*
X85153579Y-47238381D01*
X85151581Y-47184056D01*
X85145552Y-47134031D01*
X85131156Y-47074410D01*
X85109383Y-47023378D01*
X85080115Y-46981475D01*
X85043230Y-46949241D01*
X84998609Y-46927219D01*
X84946131Y-46915949D01*
X84916908Y-46914515D01*
X84866311Y-46920946D01*
X84819600Y-46939695D01*
X84778601Y-46969939D01*
X84745140Y-47010857D01*
X84721044Y-47061628D01*
X84715408Y-47080600D01*
X84520746Y-47080600D01*
X84529256Y-47029463D01*
X84544339Y-46980836D01*
X84565780Y-46935267D01*
X84593364Y-46893307D01*
X84626875Y-46855508D01*
X84666100Y-46822420D01*
X84710823Y-46794593D01*
X84760829Y-46772579D01*
X84815904Y-46756927D01*
X84875832Y-46748188D01*
X84918374Y-46746475D01*
X84990510Y-46751471D01*
X85057083Y-46766220D01*
X85117758Y-46790366D01*
X85172200Y-46823549D01*
X85220074Y-46865414D01*
X85261047Y-46915603D01*
X85294784Y-46973757D01*
X85320951Y-47039521D01*
X85334024Y-47087414D01*
X85343484Y-47138424D01*
X85349233Y-47192445D01*
X85351172Y-47249371D01*
X85349020Y-47306746D01*
X85342689Y-47360608D01*
X85332369Y-47410932D01*
X85309823Y-47479726D01*
X85279366Y-47540412D01*
X85241637Y-47592901D01*
X85197274Y-47637106D01*
X85146916Y-47672938D01*
X85091202Y-47700309D01*
X85030771Y-47719130D01*
X84966261Y-47729315D01*
X84921304Y-47731263D01*
X84862526Y-47727631D01*
X84807623Y-47716969D01*
X84756775Y-47699627D01*
X84710158Y-47675956D01*
X84667954Y-47646305D01*
X84630339Y-47611025D01*
X84597493Y-47570465D01*
X84569595Y-47524977D01*
X84546823Y-47474909D01*
X84529356Y-47420613D01*
X84520746Y-47382240D01*
X84715408Y-47382240D01*
G37*
G36*
X84171723Y-47339741D02*
G01*
X84171723Y-47497522D01*
X83810488Y-47497522D01*
X83810488Y-47700000D01*
X83628283Y-47700000D01*
X83628283Y-47497522D01*
X83523258Y-47497522D01*
X83523258Y-47356106D01*
X83628283Y-47356106D01*
X83806092Y-47356106D01*
X83996601Y-47356106D01*
X83806092Y-47032484D01*
X83806092Y-47356106D01*
X83628283Y-47356106D01*
X83628283Y-46777739D01*
X83832714Y-46777739D01*
X84171723Y-47339741D01*
G37*
G36*
X82591472Y-47391521D02*
G01*
X82595986Y-47443515D01*
X82613350Y-47493961D01*
X82650156Y-47536559D01*
X82695954Y-47559339D01*
X82744212Y-47568770D01*
X82777585Y-47570307D01*
X82831957Y-47562909D01*
X82876443Y-47541520D01*
X82914896Y-47500494D01*
X82935512Y-47452934D01*
X82943979Y-47395207D01*
X82944159Y-47384682D01*
X82944159Y-46777739D01*
X83141751Y-46777739D01*
X83141751Y-47402756D01*
X83138070Y-47462216D01*
X83127214Y-47515606D01*
X83109469Y-47562975D01*
X83075582Y-47616850D01*
X83030622Y-47660221D01*
X82975264Y-47693203D01*
X82927325Y-47711189D01*
X82874199Y-47723444D01*
X82816169Y-47730015D01*
X82774898Y-47731263D01*
X82709145Y-47728210D01*
X82649108Y-47719081D01*
X82594950Y-47703916D01*
X82546837Y-47682757D01*
X82504931Y-47655643D01*
X82458998Y-47610301D01*
X82424783Y-47554545D01*
X82407045Y-47505952D01*
X82396282Y-47451597D01*
X82392658Y-47391521D01*
X82392658Y-46777739D01*
X82591472Y-46777739D01*
X82591472Y-47391521D01*
G37*
G36*
X81610837Y-47050069D02*
G01*
X81619210Y-46986465D01*
X81639036Y-46928341D01*
X81670063Y-46876623D01*
X81712045Y-46832235D01*
X81764731Y-46796102D01*
X81811121Y-46774975D01*
X81863287Y-46759402D01*
X81921125Y-46749772D01*
X81984528Y-46746475D01*
X82045350Y-46749558D01*
X82100184Y-46758563D01*
X82149031Y-46773130D01*
X82204849Y-46800576D01*
X82250030Y-46836406D01*
X82284575Y-46879760D01*
X82308487Y-46929781D01*
X82321770Y-46985609D01*
X82324759Y-47030774D01*
X82320710Y-47081727D01*
X82305437Y-47134125D01*
X82279270Y-47178015D01*
X82242701Y-47214487D01*
X82196222Y-47244633D01*
X82169420Y-47257676D01*
X82117938Y-47277463D01*
X82068000Y-47292476D01*
X82019927Y-47304671D01*
X81965622Y-47317113D01*
X81914675Y-47328262D01*
X81866407Y-47340868D01*
X81817912Y-47361763D01*
X81780390Y-47398656D01*
X81770327Y-47444521D01*
X81779615Y-47493129D01*
X81812037Y-47535784D01*
X81858281Y-47560753D01*
X81910343Y-47572221D01*
X81951067Y-47574459D01*
X82006044Y-47570301D01*
X82053711Y-47558156D01*
X82100239Y-47533731D01*
X82138219Y-47492728D01*
X82156745Y-47439541D01*
X82158185Y-47422295D01*
X82345764Y-47422295D01*
X82340564Y-47477718D01*
X82327584Y-47527629D01*
X82298906Y-47585624D01*
X82258154Y-47633875D01*
X82206333Y-47672414D01*
X82160807Y-47694962D01*
X82110043Y-47712078D01*
X82054465Y-47723775D01*
X81994497Y-47730066D01*
X81952288Y-47731263D01*
X81893019Y-47728850D01*
X81837512Y-47721541D01*
X81786217Y-47709234D01*
X81739588Y-47691824D01*
X81685453Y-47660493D01*
X81641485Y-47619660D01*
X81608753Y-47569078D01*
X81588329Y-47508501D01*
X81581732Y-47456361D01*
X81581284Y-47437683D01*
X81585824Y-47381843D01*
X81602197Y-47327351D01*
X81628700Y-47284542D01*
X81669898Y-47246578D01*
X81719300Y-47218362D01*
X81726852Y-47214933D01*
X81776406Y-47195645D01*
X81825106Y-47180129D01*
X81878258Y-47165316D01*
X81934635Y-47150985D01*
X81983194Y-47139250D01*
X82002847Y-47134577D01*
X82054601Y-47119579D01*
X82099366Y-47098990D01*
X82136829Y-47061822D01*
X82146950Y-47018318D01*
X82133454Y-46967374D01*
X82093467Y-46931946D01*
X82044531Y-46915848D01*
X81990460Y-46910476D01*
X81980376Y-46910362D01*
X81929563Y-46913718D01*
X81879842Y-46926662D01*
X81836719Y-46954195D01*
X81808866Y-46995274D01*
X81795484Y-47050069D01*
X81610837Y-47050069D01*
G37*
G36*
X81534633Y-47700000D02*
G01*
X81116001Y-47700000D01*
X81053368Y-47697199D01*
X80997062Y-47688957D01*
X80947046Y-47675510D01*
X80890080Y-47649896D01*
X80844146Y-47616017D01*
X80809159Y-47574436D01*
X80785033Y-47525718D01*
X80771682Y-47470426D01*
X80768688Y-47424982D01*
X80769763Y-47411304D01*
X80957732Y-47411304D01*
X80967452Y-47463046D01*
X80995559Y-47504483D01*
X81040473Y-47531999D01*
X81092317Y-47541810D01*
X81100614Y-47541974D01*
X81347055Y-47541974D01*
X81347055Y-47295533D01*
X81097683Y-47295533D01*
X81045792Y-47300772D01*
X80999847Y-47320030D01*
X80967406Y-47359521D01*
X80957732Y-47411304D01*
X80769763Y-47411304D01*
X80773121Y-47368555D01*
X80785695Y-47321256D01*
X80809995Y-47275444D01*
X80848664Y-47235381D01*
X80895596Y-47207686D01*
X80910104Y-47201744D01*
X80865194Y-47174706D01*
X80829260Y-47135280D01*
X80805416Y-47086099D01*
X80797086Y-47038101D01*
X80984354Y-47038101D01*
X80996106Y-47089781D01*
X81035563Y-47125225D01*
X81087837Y-47136861D01*
X81101835Y-47137264D01*
X81347055Y-47137264D01*
X81347055Y-46938939D01*
X81113070Y-46938939D01*
X81060894Y-46943209D01*
X81014640Y-46962142D01*
X80987185Y-47008121D01*
X80984354Y-47038101D01*
X80797086Y-47038101D01*
X80796918Y-47037134D01*
X80796775Y-47029797D01*
X80801339Y-46974788D01*
X80814922Y-46925498D01*
X80844335Y-46872686D01*
X80887266Y-46830560D01*
X80931129Y-46805207D01*
X80983278Y-46787814D01*
X81043548Y-46778879D01*
X81076678Y-46777739D01*
X81534633Y-46777739D01*
X81534633Y-47700000D01*
G37*
G36*
X80336622Y-47543684D02*
G01*
X80336622Y-47284542D01*
X80072107Y-47284542D01*
X80072107Y-47152896D01*
X80336622Y-47152896D01*
X80336622Y-46887159D01*
X80468269Y-46887159D01*
X80468269Y-47152896D01*
X80731563Y-47152896D01*
X80731563Y-47284542D01*
X80468269Y-47284542D01*
X80468269Y-47543684D01*
X80336622Y-47543684D01*
G37*
G36*
X79103684Y-47700000D02*
G01*
X78843321Y-46777739D01*
X79042135Y-46777739D01*
X79193321Y-47375157D01*
X79334738Y-46777739D01*
X79539169Y-46777739D01*
X79667885Y-47375157D01*
X79820537Y-46777739D01*
X80027655Y-46777739D01*
X79764605Y-47700000D01*
X79582400Y-47700000D01*
X79435366Y-47100139D01*
X79291263Y-47700000D01*
X79103684Y-47700000D01*
G37*
G36*
X77563244Y-47700000D02*
G01*
X77563244Y-46777739D01*
X77843147Y-46777739D01*
X78011186Y-47454291D01*
X78179225Y-46777739D01*
X78464989Y-46777739D01*
X78464989Y-47700000D01*
X78284249Y-47700000D01*
X78284249Y-47071074D01*
X78112058Y-47700000D01*
X77918862Y-47700000D01*
X77745205Y-47068143D01*
X77745205Y-47700000D01*
X77563244Y-47700000D01*
G37*
G36*
X77207962Y-47000326D02*
G01*
X77262553Y-47011321D01*
X77312272Y-47029204D01*
X77356854Y-47053613D01*
X77396032Y-47084184D01*
X77429542Y-47120556D01*
X77457117Y-47162367D01*
X77478492Y-47209255D01*
X77493402Y-47260856D01*
X77501580Y-47316809D01*
X77503161Y-47356350D01*
X77499723Y-47413975D01*
X77489543Y-47467868D01*
X77472822Y-47517605D01*
X77449760Y-47562765D01*
X77420558Y-47602923D01*
X77385415Y-47637659D01*
X77344533Y-47666548D01*
X77298111Y-47689169D01*
X77246351Y-47705099D01*
X77189452Y-47713915D01*
X77148764Y-47715631D01*
X77090635Y-47711892D01*
X77036924Y-47700914D01*
X76987914Y-47683059D01*
X76943891Y-47658689D01*
X76905137Y-47628163D01*
X76871936Y-47591843D01*
X76844573Y-47550090D01*
X76823330Y-47503266D01*
X76808492Y-47451730D01*
X76800342Y-47395845D01*
X76798764Y-47356350D01*
X76982191Y-47356350D01*
X76986283Y-47415893D01*
X76998540Y-47465371D01*
X77023987Y-47511444D01*
X77068420Y-47546832D01*
X77119090Y-47561401D01*
X77148764Y-47563224D01*
X77205222Y-47555937D01*
X77250091Y-47534089D01*
X77283323Y-47497700D01*
X77304870Y-47446788D01*
X77313864Y-47393283D01*
X77315338Y-47356350D01*
X77311246Y-47296805D01*
X77298989Y-47247503D01*
X77273542Y-47201775D01*
X77229108Y-47166812D01*
X77178439Y-47152483D01*
X77148764Y-47150697D01*
X77092306Y-47157851D01*
X77047437Y-47179381D01*
X77014205Y-47215395D01*
X76992659Y-47265999D01*
X76983664Y-47319391D01*
X76982191Y-47356350D01*
X76798764Y-47356350D01*
X76802263Y-47297358D01*
X76812583Y-47242610D01*
X76829463Y-47192445D01*
X76852641Y-47147204D01*
X76881855Y-47107229D01*
X76916843Y-47072858D01*
X76957343Y-47044433D01*
X77003093Y-47022294D01*
X77053830Y-47006782D01*
X77109293Y-46998238D01*
X77148764Y-46996580D01*
X77207962Y-47000326D01*
G37*
G36*
X76260209Y-47104535D02*
G01*
X76296429Y-47062145D01*
X76337251Y-47030400D01*
X76382858Y-47009147D01*
X76433436Y-46998234D01*
X76464640Y-46996580D01*
X76527844Y-47003303D01*
X76583846Y-47022790D01*
X76632269Y-47054025D01*
X76672735Y-47095987D01*
X76704866Y-47147658D01*
X76728285Y-47208018D01*
X76739904Y-47258378D01*
X76746250Y-47312623D01*
X76747473Y-47350732D01*
X76744251Y-47412389D01*
X76734833Y-47469027D01*
X76719593Y-47520417D01*
X76698903Y-47566330D01*
X76663484Y-47618636D01*
X76619926Y-47660260D01*
X76569111Y-47690661D01*
X76511925Y-47709298D01*
X76449253Y-47715631D01*
X76396935Y-47710974D01*
X76344131Y-47693911D01*
X76298912Y-47663777D01*
X76265675Y-47626236D01*
X76257278Y-47613538D01*
X76256057Y-47700000D01*
X76080935Y-47700000D01*
X76080935Y-47372714D01*
X76253126Y-47372714D01*
X76257864Y-47423713D01*
X76275011Y-47476780D01*
X76302890Y-47519272D01*
X76346480Y-47553068D01*
X76399151Y-47567142D01*
X76407243Y-47567376D01*
X76462683Y-47555773D01*
X76508157Y-47522937D01*
X76537388Y-47480138D01*
X76556032Y-47425778D01*
X76562394Y-47372993D01*
X76562581Y-47361723D01*
X76560212Y-47312748D01*
X76550511Y-47260635D01*
X76528812Y-47211500D01*
X76489333Y-47172726D01*
X76443089Y-47155457D01*
X76405778Y-47152163D01*
X76354232Y-47159875D01*
X76307326Y-47188419D01*
X76278583Y-47229706D01*
X76262792Y-47276017D01*
X76254489Y-47333186D01*
X76253126Y-47372714D01*
X76080935Y-47372714D01*
X76080935Y-46762107D01*
X76260209Y-46762107D01*
X76260209Y-47104535D01*
G37*
G36*
X75381423Y-47697557D02*
G01*
X75381423Y-47012212D01*
X75561919Y-47012212D01*
X75561919Y-47407397D01*
X75568905Y-47462701D01*
X75589618Y-47508306D01*
X75629626Y-47545284D01*
X75678514Y-47561531D01*
X75703335Y-47563224D01*
X75754061Y-47555350D01*
X75797237Y-47523101D01*
X75816736Y-47472409D01*
X75819595Y-47435240D01*
X75819595Y-47012212D01*
X76001556Y-47012212D01*
X76001556Y-47463084D01*
X75997142Y-47517132D01*
X75984337Y-47566017D01*
X75957522Y-47618903D01*
X75919890Y-47661507D01*
X75872714Y-47692599D01*
X75817269Y-47710950D01*
X75767815Y-47715631D01*
X75716757Y-47711756D01*
X75663558Y-47697236D01*
X75617203Y-47671612D01*
X75577676Y-47634532D01*
X75553614Y-47600837D01*
X75553614Y-47700000D01*
X75381423Y-47697557D01*
G37*
G36*
X75120083Y-47700000D02*
G01*
X75120083Y-46762107D01*
X75302044Y-46762107D01*
X75302044Y-47700000D01*
X75120083Y-47700000D01*
G37*
G36*
X74782485Y-47000145D02*
G01*
X74834697Y-47010626D01*
X74881863Y-47027697D01*
X74936627Y-47060153D01*
X74981760Y-47102985D01*
X75016883Y-47155425D01*
X75036430Y-47200599D01*
X75049975Y-47250423D01*
X75057358Y-47304573D01*
X75058778Y-47342916D01*
X75055745Y-47409167D01*
X75046649Y-47469007D01*
X75031490Y-47522412D01*
X75010272Y-47569360D01*
X74972561Y-47621872D01*
X74924087Y-47662810D01*
X74880673Y-47685885D01*
X74831210Y-47702395D01*
X74775703Y-47712318D01*
X74714152Y-47715631D01*
X74660667Y-47711934D01*
X74610783Y-47700980D01*
X74564941Y-47682980D01*
X74513993Y-47650889D01*
X74470909Y-47608522D01*
X74442683Y-47567503D01*
X74420482Y-47520378D01*
X74411779Y-47494591D01*
X74599357Y-47494591D01*
X74625009Y-47536875D01*
X74670568Y-47563326D01*
X74722700Y-47571528D01*
X74776841Y-47562340D01*
X74820696Y-47536036D01*
X74852885Y-47494502D01*
X74870142Y-47448209D01*
X74876573Y-47403000D01*
X74402009Y-47403000D01*
X74403320Y-47354080D01*
X74409999Y-47288206D01*
X74589588Y-47288206D01*
X74870956Y-47288206D01*
X74861738Y-47240150D01*
X74838888Y-47195158D01*
X74799981Y-47159581D01*
X74751113Y-47142350D01*
X74731004Y-47140928D01*
X74679233Y-47149961D01*
X74634651Y-47177289D01*
X74602891Y-47223257D01*
X74590049Y-47279038D01*
X74589588Y-47288206D01*
X74409999Y-47288206D01*
X74410171Y-47286514D01*
X74422827Y-47225947D01*
X74441225Y-47172406D01*
X74465299Y-47125918D01*
X74494988Y-47086509D01*
X74543193Y-47045021D01*
X74601112Y-47016229D01*
X74650834Y-47003004D01*
X74705871Y-46996982D01*
X74725387Y-46996580D01*
X74782485Y-47000145D01*
G37*
G36*
X89056003Y-48762500D02*
G01*
X88764010Y-48762500D01*
X88714841Y-48758781D01*
X88669131Y-48747882D01*
X88627182Y-48730182D01*
X88589293Y-48706066D01*
X88555766Y-48675914D01*
X88526901Y-48640110D01*
X88502999Y-48599035D01*
X88484360Y-48553071D01*
X88471285Y-48502601D01*
X88464076Y-48448006D01*
X88462676Y-48409508D01*
X88611786Y-48409508D01*
X88613240Y-48451227D01*
X88617662Y-48488897D01*
X88628326Y-48532804D01*
X88644635Y-48569462D01*
X88666797Y-48598845D01*
X88703053Y-48625298D01*
X88739156Y-48638207D01*
X88781796Y-48643749D01*
X88793503Y-48643981D01*
X88914220Y-48643981D01*
X88914220Y-48191704D01*
X88805959Y-48191704D01*
X88768917Y-48193367D01*
X88726240Y-48200948D01*
X88690908Y-48214997D01*
X88656528Y-48242216D01*
X88632372Y-48280840D01*
X88619941Y-48320434D01*
X88613250Y-48368158D01*
X88611786Y-48409508D01*
X88462676Y-48409508D01*
X88464232Y-48371169D01*
X88468822Y-48334787D01*
X88481140Y-48284038D01*
X88499624Y-48238091D01*
X88523880Y-48197189D01*
X88553511Y-48161571D01*
X88588122Y-48131478D01*
X88627317Y-48107152D01*
X88670700Y-48088833D01*
X88717876Y-48076762D01*
X88768448Y-48071181D01*
X88785992Y-48070804D01*
X89056003Y-48070804D01*
X89056003Y-48762500D01*
G37*
G36*
X88220468Y-48237609D02*
G01*
X88259627Y-48245469D01*
X88295002Y-48258273D01*
X88336075Y-48282615D01*
X88369924Y-48314739D01*
X88396267Y-48354069D01*
X88410927Y-48387949D01*
X88421085Y-48425317D01*
X88426623Y-48465930D01*
X88427688Y-48494687D01*
X88425413Y-48544375D01*
X88418591Y-48589255D01*
X88407222Y-48629309D01*
X88391308Y-48664520D01*
X88363025Y-48703904D01*
X88326669Y-48734608D01*
X88294109Y-48751914D01*
X88257012Y-48764296D01*
X88215381Y-48771739D01*
X88169218Y-48774223D01*
X88129105Y-48771450D01*
X88091692Y-48763235D01*
X88057310Y-48749735D01*
X88019099Y-48725667D01*
X87986786Y-48693891D01*
X87965617Y-48663127D01*
X87948966Y-48627784D01*
X87942438Y-48608443D01*
X88083122Y-48608443D01*
X88102361Y-48640156D01*
X88136530Y-48659994D01*
X88175629Y-48666146D01*
X88216235Y-48659255D01*
X88249127Y-48639527D01*
X88273268Y-48608376D01*
X88286211Y-48573657D01*
X88291034Y-48539750D01*
X87935111Y-48539750D01*
X87936094Y-48503060D01*
X87941103Y-48453654D01*
X88075795Y-48453654D01*
X88286821Y-48453654D01*
X88279908Y-48417612D01*
X88262771Y-48383868D01*
X88233590Y-48357185D01*
X88196939Y-48344263D01*
X88181857Y-48343196D01*
X88143029Y-48349970D01*
X88109592Y-48370467D01*
X88085773Y-48404942D01*
X88076141Y-48446778D01*
X88075795Y-48453654D01*
X87941103Y-48453654D01*
X87941232Y-48452385D01*
X87950725Y-48406960D01*
X87964523Y-48366804D01*
X87982579Y-48331938D01*
X88004845Y-48302381D01*
X88040999Y-48271266D01*
X88084438Y-48249671D01*
X88121730Y-48239753D01*
X88163008Y-48235236D01*
X88177644Y-48234935D01*
X88220468Y-48237609D01*
G37*
G36*
X87446381Y-48404195D02*
G01*
X87451980Y-48365261D01*
X87467267Y-48323493D01*
X87492235Y-48289555D01*
X87527386Y-48263623D01*
X87563177Y-48248761D01*
X87606065Y-48239226D01*
X87643043Y-48235624D01*
X87670047Y-48234935D01*
X87711810Y-48236645D01*
X87748612Y-48241624D01*
X87790284Y-48252954D01*
X87823909Y-48269147D01*
X87855296Y-48295405D01*
X87875663Y-48327362D01*
X87885873Y-48363961D01*
X87887484Y-48387709D01*
X87883159Y-48424532D01*
X87866593Y-48461546D01*
X87838958Y-48490867D01*
X87822271Y-48502564D01*
X87787974Y-48520210D01*
X87749891Y-48534120D01*
X87708618Y-48546047D01*
X87665980Y-48556821D01*
X87650080Y-48560633D01*
X87611271Y-48571335D01*
X87577453Y-48591168D01*
X87567098Y-48618518D01*
X87583269Y-48652174D01*
X87619802Y-48667812D01*
X87658506Y-48671458D01*
X87698134Y-48667470D01*
X87733315Y-48653610D01*
X87759944Y-48623486D01*
X87765668Y-48594705D01*
X87906352Y-48594705D01*
X87901530Y-48632554D01*
X87888835Y-48667036D01*
X87868446Y-48697632D01*
X87840543Y-48723825D01*
X87805308Y-48745098D01*
X87762920Y-48760934D01*
X87726543Y-48768931D01*
X87686321Y-48773360D01*
X87657407Y-48774223D01*
X87617894Y-48772555D01*
X87570890Y-48765262D01*
X87530492Y-48752401D01*
X87496825Y-48734213D01*
X87464397Y-48704358D01*
X87442923Y-48667033D01*
X87432647Y-48622712D01*
X87431727Y-48603131D01*
X87436027Y-48563996D01*
X87451130Y-48528752D01*
X87476541Y-48502058D01*
X87511677Y-48482283D01*
X87516723Y-48480216D01*
X87553874Y-48467985D01*
X87591811Y-48457731D01*
X87627826Y-48448531D01*
X87665643Y-48438516D01*
X87671146Y-48436985D01*
X87707748Y-48425596D01*
X87741125Y-48408328D01*
X87755043Y-48379099D01*
X87733954Y-48346836D01*
X87696738Y-48337887D01*
X87674260Y-48336967D01*
X87634086Y-48340531D01*
X87600032Y-48356475D01*
X87580322Y-48391791D01*
X87577723Y-48405111D01*
X87446381Y-48404195D01*
G37*
G36*
X87253490Y-48762500D02*
G01*
X87253490Y-48246659D01*
X87389961Y-48246659D01*
X87389961Y-48762500D01*
X87253490Y-48762500D01*
G37*
G36*
X87253490Y-48186209D02*
G01*
X87253490Y-48059080D01*
X87389961Y-48059080D01*
X87389961Y-48186209D01*
X87253490Y-48186209D01*
G37*
G36*
X87021910Y-48239894D02*
G01*
X87064332Y-48254309D01*
X87102701Y-48277487D01*
X87136116Y-48308734D01*
X87163675Y-48347358D01*
X87179959Y-48380748D01*
X87192061Y-48417606D01*
X87199601Y-48457637D01*
X87202199Y-48500549D01*
X87200606Y-48537616D01*
X87193208Y-48585718D01*
X87179219Y-48630948D01*
X87158024Y-48671825D01*
X87129005Y-48706864D01*
X87091548Y-48734582D01*
X87057546Y-48749675D01*
X87018190Y-48759189D01*
X86973222Y-48762500D01*
X86931025Y-48758670D01*
X86893729Y-48747532D01*
X86859143Y-48726535D01*
X86835402Y-48697476D01*
X86831439Y-48689043D01*
X86831439Y-48774590D01*
X86837258Y-48811870D01*
X86857188Y-48847345D01*
X86888674Y-48873068D01*
X86922793Y-48886464D01*
X86961681Y-48891093D01*
X87002953Y-48885698D01*
X87036176Y-48870017D01*
X87062534Y-48840475D01*
X87073901Y-48805311D01*
X87075071Y-48787779D01*
X87202199Y-48787779D01*
X87199459Y-48825143D01*
X87187687Y-48870190D01*
X87167369Y-48909487D01*
X87139304Y-48942712D01*
X87104290Y-48969544D01*
X87063126Y-48989659D01*
X87016610Y-49002737D01*
X86978691Y-49007733D01*
X86952156Y-49008696D01*
X86912583Y-49006490D01*
X86875024Y-48999891D01*
X86839888Y-48988934D01*
X86797521Y-48967599D01*
X86761165Y-48938651D01*
X86731793Y-48902165D01*
X86710377Y-48858220D01*
X86700121Y-48820412D01*
X86695298Y-48778484D01*
X86694968Y-48763599D01*
X86694968Y-48515020D01*
X86827226Y-48515020D01*
X86830784Y-48552848D01*
X86843684Y-48591487D01*
X86864714Y-48621870D01*
X86897705Y-48645624D01*
X86937744Y-48655361D01*
X86943913Y-48655521D01*
X86985053Y-48647472D01*
X87019142Y-48624368D01*
X87041232Y-48593769D01*
X87055410Y-48554243D01*
X87060273Y-48515198D01*
X87060416Y-48506777D01*
X87058551Y-48470140D01*
X87051013Y-48431385D01*
X87034433Y-48395106D01*
X87004863Y-48366718D01*
X86964479Y-48353141D01*
X86943913Y-48351805D01*
X86904235Y-48357386D01*
X86868336Y-48378204D01*
X86846466Y-48408558D01*
X86832802Y-48450690D01*
X86827681Y-48494954D01*
X86827226Y-48515020D01*
X86694968Y-48515020D01*
X86694968Y-48246659D01*
X86831439Y-48246659D01*
X86831439Y-48310772D01*
X86854973Y-48281222D01*
X86887272Y-48256338D01*
X86925614Y-48240934D01*
X86964350Y-48235231D01*
X86976336Y-48234935D01*
X87021910Y-48239894D01*
G37*
G36*
X86167220Y-48762500D02*
G01*
X86167220Y-48406943D01*
X86170522Y-48367365D01*
X86183368Y-48324912D01*
X86204919Y-48290424D01*
X86234122Y-48264077D01*
X86269925Y-48246046D01*
X86311277Y-48236508D01*
X86338312Y-48234935D01*
X86375019Y-48237223D01*
X86413487Y-48245896D01*
X86451142Y-48263929D01*
X86481576Y-48290181D01*
X86505375Y-48324328D01*
X86505375Y-48246659D01*
X86635434Y-48246659D01*
X86635434Y-48762500D01*
X86498963Y-48762500D01*
X86498963Y-48467027D01*
X86495297Y-48426924D01*
X86481674Y-48390540D01*
X86453611Y-48362745D01*
X86417970Y-48350553D01*
X86392901Y-48348691D01*
X86356049Y-48352219D01*
X86321948Y-48372631D01*
X86307349Y-48411287D01*
X86304790Y-48450174D01*
X86304790Y-48762500D01*
X86167220Y-48762500D01*
G37*
G36*
X85912373Y-48237609D02*
G01*
X85951532Y-48245469D01*
X85986907Y-48258273D01*
X86027980Y-48282615D01*
X86061829Y-48314739D01*
X86088172Y-48354069D01*
X86102832Y-48387949D01*
X86112990Y-48425317D01*
X86118528Y-48465930D01*
X86119593Y-48494687D01*
X86117318Y-48544375D01*
X86110496Y-48589255D01*
X86099127Y-48629309D01*
X86083213Y-48664520D01*
X86054930Y-48703904D01*
X86018575Y-48734608D01*
X85986014Y-48751914D01*
X85948917Y-48764296D01*
X85907286Y-48771739D01*
X85861123Y-48774223D01*
X85821010Y-48771450D01*
X85783597Y-48763235D01*
X85749215Y-48749735D01*
X85711004Y-48725667D01*
X85678691Y-48693891D01*
X85657522Y-48663127D01*
X85640871Y-48627784D01*
X85634344Y-48608443D01*
X85775027Y-48608443D01*
X85794266Y-48640156D01*
X85828435Y-48659994D01*
X85867534Y-48666146D01*
X85908140Y-48659255D01*
X85941032Y-48639527D01*
X85965173Y-48608376D01*
X85978116Y-48573657D01*
X85982939Y-48539750D01*
X85627016Y-48539750D01*
X85627999Y-48503060D01*
X85633008Y-48453654D01*
X85767700Y-48453654D01*
X85978726Y-48453654D01*
X85971813Y-48417612D01*
X85954676Y-48383868D01*
X85925495Y-48357185D01*
X85888844Y-48344263D01*
X85873763Y-48343196D01*
X85834934Y-48349970D01*
X85801497Y-48370467D01*
X85777678Y-48404942D01*
X85768046Y-48446778D01*
X85767700Y-48453654D01*
X85633008Y-48453654D01*
X85633137Y-48452385D01*
X85642630Y-48406960D01*
X85656428Y-48366804D01*
X85674484Y-48331938D01*
X85696750Y-48302381D01*
X85732904Y-48271266D01*
X85776343Y-48249671D01*
X85813635Y-48239753D01*
X85854913Y-48235236D01*
X85869549Y-48234935D01*
X85912373Y-48237609D01*
G37*
G36*
X85225481Y-48315901D02*
G01*
X85252646Y-48284108D01*
X85283262Y-48260300D01*
X85317468Y-48244360D01*
X85355402Y-48236175D01*
X85378804Y-48234935D01*
X85426207Y-48239977D01*
X85468209Y-48254593D01*
X85504526Y-48278019D01*
X85534876Y-48309490D01*
X85558974Y-48348243D01*
X85576538Y-48393513D01*
X85585252Y-48431283D01*
X85590012Y-48471967D01*
X85590929Y-48500549D01*
X85588513Y-48546792D01*
X85581449Y-48589270D01*
X85570019Y-48627812D01*
X85554502Y-48662248D01*
X85527938Y-48701477D01*
X85495269Y-48732695D01*
X85457158Y-48755496D01*
X85414268Y-48769474D01*
X85367264Y-48774223D01*
X85328026Y-48770730D01*
X85288423Y-48757933D01*
X85254508Y-48735332D01*
X85229581Y-48707177D01*
X85223283Y-48697653D01*
X85222367Y-48762500D01*
X85091025Y-48762500D01*
X85091025Y-48517035D01*
X85220169Y-48517035D01*
X85223723Y-48555284D01*
X85236583Y-48595085D01*
X85257492Y-48626954D01*
X85290184Y-48652301D01*
X85329688Y-48662857D01*
X85335757Y-48663032D01*
X85377337Y-48654329D01*
X85411442Y-48629703D01*
X85433366Y-48597603D01*
X85447348Y-48556833D01*
X85452120Y-48517245D01*
X85452260Y-48508792D01*
X85450483Y-48472061D01*
X85443208Y-48432976D01*
X85426933Y-48396125D01*
X85397324Y-48367044D01*
X85362641Y-48354093D01*
X85334658Y-48351622D01*
X85295999Y-48357406D01*
X85260819Y-48378814D01*
X85239261Y-48409779D01*
X85227419Y-48444512D01*
X85221191Y-48487390D01*
X85220169Y-48517035D01*
X85091025Y-48517035D01*
X85091025Y-48059080D01*
X85225481Y-48059080D01*
X85225481Y-48315901D01*
G37*
G36*
X84778700Y-48762500D02*
G01*
X84647541Y-48762500D01*
X84646442Y-48700034D01*
X84622817Y-48729235D01*
X84590401Y-48753576D01*
X84552276Y-48768480D01*
X84514285Y-48773941D01*
X84502644Y-48774223D01*
X84455640Y-48769472D01*
X84412751Y-48755478D01*
X84374640Y-48732637D01*
X84341971Y-48701340D01*
X84315407Y-48661979D01*
X84299889Y-48627404D01*
X84288459Y-48588681D01*
X84281396Y-48545974D01*
X84279464Y-48508792D01*
X84417648Y-48508792D01*
X84421069Y-48549294D01*
X84430907Y-48584907D01*
X84450277Y-48620052D01*
X84476854Y-48645596D01*
X84515489Y-48661394D01*
X84534152Y-48663032D01*
X84574350Y-48654765D01*
X84608097Y-48631399D01*
X84630188Y-48600984D01*
X84644479Y-48562411D01*
X84649410Y-48525013D01*
X84649556Y-48517035D01*
X84647740Y-48478161D01*
X84640390Y-48436915D01*
X84624184Y-48398161D01*
X84595204Y-48367702D01*
X84555509Y-48353067D01*
X84535251Y-48351622D01*
X84494740Y-48357179D01*
X84458478Y-48377669D01*
X84436626Y-48407188D01*
X84423111Y-48447698D01*
X84418091Y-48489820D01*
X84417648Y-48508792D01*
X84279464Y-48508792D01*
X84278979Y-48499450D01*
X84281036Y-48457284D01*
X84287127Y-48417764D01*
X84297133Y-48381219D01*
X84316357Y-48337684D01*
X84342045Y-48300796D01*
X84373913Y-48271333D01*
X84411678Y-48250071D01*
X84455057Y-48237788D01*
X84491104Y-48234935D01*
X84531156Y-48238741D01*
X84567472Y-48250235D01*
X84600156Y-48269533D01*
X84629312Y-48296750D01*
X84644427Y-48315901D01*
X84644427Y-48059080D01*
X84778700Y-48059080D01*
X84778700Y-48762500D01*
G37*
G36*
X83899792Y-48773674D02*
G01*
X83904292Y-48811243D01*
X83919431Y-48846996D01*
X83946601Y-48875755D01*
X83980595Y-48889911D01*
X83994314Y-48891093D01*
X84030732Y-48887001D01*
X84067569Y-48869541D01*
X84091010Y-48839669D01*
X84101057Y-48798810D01*
X84101475Y-48787046D01*
X84228421Y-48787046D01*
X84226403Y-48824598D01*
X84217450Y-48869841D01*
X84201359Y-48909280D01*
X84178155Y-48942603D01*
X84147861Y-48969495D01*
X84110500Y-48989643D01*
X84066097Y-49002734D01*
X84028187Y-49007733D01*
X84000725Y-49008696D01*
X83952499Y-49004747D01*
X83907757Y-48993037D01*
X83867408Y-48973775D01*
X83832358Y-48947170D01*
X83803516Y-48913429D01*
X83781791Y-48872761D01*
X83770713Y-48837839D01*
X83764532Y-48799225D01*
X83763321Y-48771475D01*
X83763321Y-48246659D01*
X83899792Y-48246659D01*
X83899792Y-48557152D01*
X83907486Y-48595143D01*
X83929055Y-48625319D01*
X83962234Y-48645226D01*
X83999007Y-48652289D01*
X84004755Y-48652407D01*
X84042800Y-48646385D01*
X84075181Y-48622065D01*
X84089806Y-48584431D01*
X84091950Y-48557152D01*
X84091950Y-48246659D01*
X84228421Y-48246659D01*
X84228421Y-48576753D01*
X84224738Y-48616974D01*
X84214110Y-48653148D01*
X84192010Y-48692058D01*
X84161260Y-48723219D01*
X84123083Y-48745838D01*
X84088018Y-48757251D01*
X84049611Y-48762285D01*
X84039560Y-48762500D01*
X83998857Y-48758670D01*
X83962180Y-48747532D01*
X83927656Y-48726535D01*
X83903766Y-48697476D01*
X83899792Y-48689043D01*
X83899792Y-48773674D01*
G37*
G36*
X82775786Y-48762500D02*
G01*
X82775786Y-48070804D01*
X82985713Y-48070804D01*
X83111742Y-48578218D01*
X83237772Y-48070804D01*
X83452095Y-48070804D01*
X83452095Y-48762500D01*
X83316540Y-48762500D01*
X83316540Y-48290806D01*
X83187397Y-48762500D01*
X83042500Y-48762500D01*
X82912257Y-48288607D01*
X82912257Y-48762500D01*
X82775786Y-48762500D01*
G37*
G36*
X82579415Y-48762500D02*
G01*
X82579415Y-48246659D01*
X82715886Y-48246659D01*
X82715886Y-48762500D01*
X82579415Y-48762500D01*
G37*
G36*
X82579415Y-48186209D02*
G01*
X82579415Y-48059080D01*
X82715886Y-48059080D01*
X82715886Y-48186209D01*
X82579415Y-48186209D01*
G37*
G36*
X82224591Y-48555687D02*
G01*
X82228262Y-48593411D01*
X82244054Y-48629532D01*
X82276817Y-48651921D01*
X82304459Y-48655704D01*
X82343919Y-48647029D01*
X82371161Y-48618212D01*
X82381500Y-48581884D01*
X82383227Y-48553672D01*
X82383227Y-48343379D01*
X82097463Y-48343379D01*
X82097463Y-48246659D01*
X82383227Y-48246659D01*
X82383227Y-48105975D01*
X82517500Y-48105975D01*
X82517500Y-48567227D01*
X82514638Y-48607835D01*
X82505804Y-48646170D01*
X82490625Y-48681264D01*
X82468727Y-48712147D01*
X82439737Y-48737853D01*
X82403280Y-48757413D01*
X82358983Y-48769859D01*
X82320391Y-48773943D01*
X82306474Y-48774223D01*
X82267584Y-48771720D01*
X82222367Y-48761116D01*
X82184520Y-48743139D01*
X82153810Y-48718806D01*
X82130001Y-48689136D01*
X82112861Y-48655146D01*
X82102154Y-48617853D01*
X82097648Y-48578276D01*
X82097463Y-48568143D01*
X82097463Y-48422513D01*
X82224591Y-48422513D01*
X82224591Y-48555687D01*
G37*
G36*
X81714429Y-48573822D02*
G01*
X81724890Y-48610922D01*
X81750152Y-48640530D01*
X81786474Y-48656776D01*
X81815179Y-48659918D01*
X81853593Y-48649774D01*
X81882222Y-48624115D01*
X81901018Y-48589508D01*
X81911397Y-48551686D01*
X81915975Y-48505626D01*
X81916113Y-48495420D01*
X81913969Y-48457288D01*
X81905712Y-48418787D01*
X81888733Y-48384857D01*
X81861003Y-48360260D01*
X81821686Y-48348940D01*
X81810966Y-48348508D01*
X81770954Y-48355773D01*
X81739459Y-48376720D01*
X81719000Y-48410078D01*
X81713330Y-48433504D01*
X81575760Y-48433504D01*
X81582732Y-48389998D01*
X81597015Y-48351087D01*
X81618142Y-48317143D01*
X81645644Y-48288539D01*
X81679054Y-48265644D01*
X81717904Y-48248831D01*
X81761725Y-48238471D01*
X81810050Y-48234935D01*
X81849488Y-48237087D01*
X81886137Y-48243611D01*
X81930253Y-48259287D01*
X81968424Y-48283161D01*
X82000085Y-48315474D01*
X82024672Y-48356469D01*
X82038130Y-48393059D01*
X82047053Y-48434772D01*
X82051203Y-48481709D01*
X82051484Y-48498534D01*
X82048982Y-48547450D01*
X82041648Y-48591658D01*
X82029741Y-48631136D01*
X82013520Y-48665861D01*
X81985630Y-48704728D01*
X81951145Y-48735052D01*
X81910680Y-48756778D01*
X81864848Y-48769853D01*
X81827321Y-48773950D01*
X81814263Y-48774223D01*
X81768742Y-48770518D01*
X81726447Y-48759732D01*
X81688030Y-48742355D01*
X81654139Y-48718879D01*
X81625426Y-48689797D01*
X81602542Y-48655598D01*
X81586136Y-48616776D01*
X81576859Y-48573822D01*
X81714429Y-48573822D01*
G37*
G36*
X81068895Y-48762500D02*
G01*
X81068895Y-48399616D01*
X81072259Y-48363087D01*
X81085418Y-48323150D01*
X81107654Y-48290033D01*
X81138033Y-48264232D01*
X81175619Y-48246241D01*
X81219477Y-48236555D01*
X81248414Y-48234935D01*
X81286463Y-48238451D01*
X81321743Y-48248382D01*
X81357458Y-48266837D01*
X81385109Y-48291288D01*
X81400638Y-48315901D01*
X81400638Y-48059080D01*
X81537109Y-48059080D01*
X81537109Y-48762500D01*
X81400638Y-48762500D01*
X81400638Y-48468309D01*
X81396705Y-48431254D01*
X81382434Y-48393626D01*
X81358161Y-48364670D01*
X81324336Y-48347160D01*
X81294576Y-48343196D01*
X81254688Y-48348150D01*
X81222304Y-48371158D01*
X81209291Y-48406343D01*
X81206465Y-48444312D01*
X81206465Y-48762500D01*
X81068895Y-48762500D01*
G37*
G36*
X80440127Y-48106943D02*
G01*
X80480283Y-48112493D01*
X80518116Y-48121552D01*
X80553561Y-48133964D01*
X80602105Y-48158529D01*
X80644902Y-48189763D01*
X80681729Y-48227138D01*
X80712362Y-48270128D01*
X80736576Y-48318209D01*
X80749044Y-48352830D01*
X80758493Y-48389324D01*
X80764857Y-48427534D01*
X80768072Y-48467305D01*
X80768476Y-48487726D01*
X80766990Y-48526514D01*
X80762546Y-48563851D01*
X80750382Y-48616820D01*
X80731685Y-48665709D01*
X80706528Y-48710028D01*
X80674985Y-48749287D01*
X80637129Y-48782997D01*
X80593034Y-48810668D01*
X80542773Y-48831808D01*
X80505876Y-48842032D01*
X80466293Y-48848992D01*
X80424045Y-48852541D01*
X80401929Y-48852991D01*
X80358225Y-48852057D01*
X80318046Y-48849382D01*
X80281312Y-48845157D01*
X80237558Y-48837444D01*
X80199602Y-48827767D01*
X80160027Y-48813602D01*
X80123598Y-48794736D01*
X80105724Y-48781734D01*
X80138330Y-48717254D01*
X80173469Y-48738106D01*
X80213932Y-48752696D01*
X80254334Y-48762234D01*
X80290700Y-48767983D01*
X80330403Y-48771933D01*
X80373209Y-48773964D01*
X80395701Y-48774223D01*
X80445354Y-48771413D01*
X80490857Y-48763086D01*
X80532050Y-48749395D01*
X80568773Y-48730492D01*
X80600864Y-48706531D01*
X80628165Y-48677665D01*
X80650514Y-48644047D01*
X80667752Y-48605830D01*
X80679718Y-48563167D01*
X80686251Y-48516211D01*
X80687510Y-48482597D01*
X80684865Y-48440541D01*
X80676973Y-48398894D01*
X80663903Y-48358469D01*
X80645721Y-48320081D01*
X80622494Y-48284543D01*
X80594289Y-48252671D01*
X80561173Y-48225278D01*
X80523213Y-48203179D01*
X80480476Y-48187187D01*
X80433029Y-48178116D01*
X80398815Y-48176317D01*
X80354656Y-48178202D01*
X80313915Y-48183963D01*
X80276795Y-48193754D01*
X80233284Y-48213347D01*
X80197046Y-48240753D01*
X80168562Y-48276339D01*
X80148310Y-48320476D01*
X80138811Y-48359412D01*
X80134414Y-48403520D01*
X80134117Y-48419399D01*
X80136738Y-48461275D01*
X80144060Y-48497595D01*
X80158588Y-48535170D01*
X80181812Y-48568760D01*
X80213431Y-48592055D01*
X80241278Y-48598368D01*
X80265458Y-48578768D01*
X80259047Y-48541582D01*
X80237446Y-48440099D01*
X80327374Y-48440099D01*
X80330295Y-48481232D01*
X80338771Y-48517636D01*
X80355676Y-48553786D01*
X80383745Y-48583568D01*
X80419687Y-48597603D01*
X80431238Y-48598368D01*
X80468353Y-48592627D01*
X80496961Y-48569700D01*
X80508472Y-48534671D01*
X80510006Y-48509525D01*
X80507815Y-48470997D01*
X80499336Y-48430959D01*
X80481777Y-48394303D01*
X80452824Y-48366382D01*
X80416801Y-48353417D01*
X80399731Y-48352172D01*
X80362007Y-48361312D01*
X80336151Y-48391259D01*
X80327667Y-48429904D01*
X80327374Y-48440099D01*
X80237446Y-48440099D01*
X80204459Y-48285127D01*
X80286341Y-48285127D01*
X80300080Y-48340631D01*
X80320489Y-48305813D01*
X80352584Y-48283834D01*
X80389409Y-48275086D01*
X80403028Y-48274502D01*
X80445809Y-48279169D01*
X80484175Y-48292600D01*
X80517728Y-48313944D01*
X80546070Y-48342348D01*
X80568806Y-48376961D01*
X80585538Y-48416929D01*
X80595868Y-48461401D01*
X80599399Y-48509525D01*
X80596090Y-48549774D01*
X80585856Y-48587852D01*
X80568242Y-48621854D01*
X80542790Y-48649878D01*
X80509043Y-48670019D01*
X80466544Y-48680374D01*
X80446992Y-48681350D01*
X80407824Y-48677685D01*
X80370902Y-48664087D01*
X80342449Y-48638971D01*
X80335800Y-48628960D01*
X80315810Y-48662195D01*
X80283153Y-48679244D01*
X80245609Y-48684756D01*
X80240179Y-48684830D01*
X80199393Y-48677869D01*
X80159415Y-48657157D01*
X80129694Y-48630859D01*
X80103370Y-48596054D01*
X80081720Y-48552874D01*
X80069321Y-48515071D01*
X80060811Y-48472686D01*
X80056730Y-48425775D01*
X80056448Y-48409141D01*
X80058250Y-48370014D01*
X80067417Y-48316873D01*
X80083779Y-48270206D01*
X80106702Y-48229806D01*
X80135554Y-48195466D01*
X80169702Y-48166977D01*
X80208512Y-48144133D01*
X80251351Y-48126727D01*
X80297587Y-48114551D01*
X80346586Y-48107397D01*
X80397716Y-48105059D01*
X80440127Y-48106943D01*
G37*
G36*
X79199338Y-48762500D02*
G01*
X79199338Y-48070804D01*
X79346250Y-48070804D01*
X79346250Y-48328724D01*
X79618276Y-48328724D01*
X79618276Y-48070804D01*
X79764272Y-48070804D01*
X79764272Y-48762500D01*
X79618276Y-48762500D01*
X79618276Y-48450540D01*
X79346250Y-48450540D01*
X79346250Y-48762500D01*
X79199338Y-48762500D01*
G37*
G36*
X78583114Y-48762500D02*
G01*
X78583114Y-48070804D01*
X78730026Y-48070804D01*
X78730026Y-48328724D01*
X79002051Y-48328724D01*
X79002051Y-48070804D01*
X79148047Y-48070804D01*
X79148047Y-48762500D01*
X79002051Y-48762500D01*
X79002051Y-48450540D01*
X78730026Y-48450540D01*
X78730026Y-48762500D01*
X78583114Y-48762500D01*
G37*
G36*
X78040345Y-48762500D02*
G01*
X78040345Y-48635554D01*
X78385826Y-48635554D01*
X78385826Y-48070804D01*
X78531823Y-48070804D01*
X78531823Y-48762500D01*
X78040345Y-48762500D01*
G37*
D11*
%TO.C,J4*%
X89670000Y-39950000D03*
D12*
X89670000Y-41950000D03*
%TD*%
D13*
%TO.C,J2*%
X70674998Y-24161124D03*
D14*
X63474998Y-24161124D03*
D15*
X64274998Y-23511124D03*
X64674998Y-22811124D03*
X65474998Y-22811124D03*
X65874998Y-23511124D03*
X66274998Y-22811124D03*
X66674998Y-23511124D03*
X67474998Y-23511124D03*
X67874998Y-22811124D03*
X68274998Y-23511124D03*
X68674998Y-22811124D03*
X69474998Y-22811124D03*
X69874998Y-23511124D03*
D16*
X71204998Y-22921124D03*
X62944998Y-22921124D03*
X62584998Y-18521124D03*
X71564998Y-18521124D03*
%TD*%
D17*
%TO.C,TP1*%
X63650000Y-29025000D03*
%TD*%
%TO.C,TP7*%
X63650000Y-33025000D03*
%TD*%
%TO.C,TP6*%
X64075000Y-21350000D03*
%TD*%
%TO.C,TP2*%
X63650000Y-27025000D03*
%TD*%
%TO.C,TP4*%
X68000000Y-25600000D03*
%TD*%
%TO.C,TP5*%
X66125000Y-25600000D03*
%TD*%
%TO.C,TP3*%
X63650000Y-31025000D03*
%TD*%
M02*
