%TF.GenerationSoftware,KiCad,Pcbnew,9.0.3*%
%TF.CreationDate,2025-09-23T14:50:51-07:00*%
%TF.ProjectId,PGS_USBW_Board,5047535f-5553-4425-975f-426f6172642e,rev?*%
%TF.SameCoordinates,Original*%
%TF.FileFunction,Soldermask,Top*%
%TF.FilePolarity,Negative*%
%FSLAX46Y46*%
G04 Gerber Fmt 4.6, Leading zero omitted, Abs format (unit mm)*
G04 Created by KiCad (PCBNEW 9.0.3) date 2025-09-23 14:50:51*
%MOMM*%
%LPD*%
G01*
G04 APERTURE LIST*
G04 Aperture macros list*
%AMRoundRect*
0 Rectangle with rounded corners*
0 $1 Rounding radius*
0 $2 $3 $4 $5 $6 $7 $8 $9 X,Y pos of 4 corners*
0 Add a 4 corners polygon primitive as box body*
4,1,4,$2,$3,$4,$5,$6,$7,$8,$9,$2,$3,0*
0 Add four circle primitives for the rounded corners*
1,1,$1+$1,$2,$3*
1,1,$1+$1,$4,$5*
1,1,$1+$1,$6,$7*
1,1,$1+$1,$8,$9*
0 Add four rect primitives between the rounded corners*
20,1,$1+$1,$2,$3,$4,$5,0*
20,1,$1+$1,$4,$5,$6,$7,0*
20,1,$1+$1,$6,$7,$8,$9,0*
20,1,$1+$1,$8,$9,$2,$3,0*%
G04 Aperture macros list end*
%ADD10C,0.010000*%
%ADD11RoundRect,0.100000X0.130000X0.100000X-0.130000X0.100000X-0.130000X-0.100000X0.130000X-0.100000X0*%
%ADD12RoundRect,0.100000X-0.130000X-0.100000X0.130000X-0.100000X0.130000X0.100000X-0.130000X0.100000X0*%
%ADD13C,0.230000*%
%ADD14RoundRect,0.100000X0.100000X-0.130000X0.100000X0.130000X-0.100000X0.130000X-0.100000X-0.130000X0*%
%ADD15R,2.000000X1.000000*%
%ADD16R,1.000000X2.000000*%
%ADD17RoundRect,0.100000X0.100000X-0.225000X0.100000X0.225000X-0.100000X0.225000X-0.100000X-0.225000X0*%
%ADD18RoundRect,0.218750X-0.256250X0.218750X-0.256250X-0.218750X0.256250X-0.218750X0.256250X0.218750X0*%
%ADD19RoundRect,0.250000X-0.475000X0.250000X-0.475000X-0.250000X0.475000X-0.250000X0.475000X0.250000X0*%
%ADD20RoundRect,0.250000X-0.250000X0.250000X-0.250000X-0.250000X0.250000X-0.250000X0.250000X0.250000X0*%
%ADD21RoundRect,0.250000X0.475000X-0.250000X0.475000X0.250000X-0.475000X0.250000X-0.475000X-0.250000X0*%
%ADD22RoundRect,0.093750X0.093750X-0.156250X0.093750X0.156250X-0.093750X0.156250X-0.093750X-0.156250X0*%
%ADD23RoundRect,0.075000X0.075000X-0.250000X0.075000X0.250000X-0.075000X0.250000X-0.075000X-0.250000X0*%
%ADD24C,0.290000*%
%ADD25RoundRect,0.250000X0.250000X-0.250000X0.250000X0.250000X-0.250000X0.250000X-0.250000X-0.250000X0*%
%ADD26RoundRect,0.250000X-0.375000X-0.850000X0.375000X-0.850000X0.375000X0.850000X-0.375000X0.850000X0*%
%ADD27O,0.800000X1.400000*%
%ADD28C,0.600000*%
%ADD29R,0.300000X0.900000*%
%ADD30O,0.950000X0.650000*%
%ADD31C,0.650000*%
%ADD32RoundRect,0.250000X0.250000X0.250000X-0.250000X0.250000X-0.250000X-0.250000X0.250000X-0.250000X0*%
%ADD33R,0.300000X1.000000*%
%ADD34R,2.000000X1.300000*%
%ADD35RoundRect,0.250000X0.450000X0.425000X-0.450000X0.425000X-0.450000X-0.425000X0.450000X-0.425000X0*%
%ADD36RoundRect,0.250000X0.625000X-0.350000X0.625000X0.350000X-0.625000X0.350000X-0.625000X-0.350000X0*%
%ADD37O,1.750000X1.200000*%
G04 APERTURE END LIST*
D10*
%TO.C,U4*%
X81390001Y-34095000D02*
X81010000Y-34095000D01*
X81010000Y-33355000D01*
X81390000Y-33354999D01*
X81390001Y-34095000D01*
G36*
X81390001Y-34095000D02*
G01*
X81010000Y-34095000D01*
X81010000Y-33355000D01*
X81390000Y-33354999D01*
X81390001Y-34095000D01*
G37*
X81390000Y-31295001D02*
X81010000Y-31295000D01*
X81010000Y-30555000D01*
X81390001Y-30555000D01*
X81390000Y-31295001D01*
G36*
X81390000Y-31295001D02*
G01*
X81010000Y-31295000D01*
X81010000Y-30555000D01*
X81390001Y-30555000D01*
X81390000Y-31295001D01*
G37*
X81890000Y-31295000D02*
X81510000Y-31295000D01*
X81510000Y-30555000D01*
X81890000Y-30555000D01*
X81890000Y-31295000D01*
G36*
X81890000Y-31295000D02*
G01*
X81510000Y-31295000D01*
X81510000Y-30555000D01*
X81890000Y-30555000D01*
X81890000Y-31295000D01*
G37*
X81890000Y-34095000D02*
X81510000Y-34095000D01*
X81510000Y-33355000D01*
X81890000Y-33355000D01*
X81890000Y-34095000D01*
G36*
X81890000Y-34095000D02*
G01*
X81510000Y-34095000D01*
X81510000Y-33355000D01*
X81890000Y-33355000D01*
X81890000Y-34095000D01*
G37*
X82390000Y-31295000D02*
X82010000Y-31295000D01*
X82010000Y-30555000D01*
X82390000Y-30555000D01*
X82390000Y-31295000D01*
G36*
X82390000Y-31295000D02*
G01*
X82010000Y-31295000D01*
X82010000Y-30555000D01*
X82390000Y-30555000D01*
X82390000Y-31295000D01*
G37*
X82390000Y-34095000D02*
X82010000Y-34095000D01*
X82010000Y-33355000D01*
X82390000Y-33355000D01*
X82390000Y-34095000D01*
G36*
X82390000Y-34095000D02*
G01*
X82010000Y-34095000D01*
X82010000Y-33355000D01*
X82390000Y-33355000D01*
X82390000Y-34095000D01*
G37*
X82890000Y-31295000D02*
X82510000Y-31295000D01*
X82510000Y-30555000D01*
X82890000Y-30555000D01*
X82890000Y-31295000D01*
G36*
X82890000Y-31295000D02*
G01*
X82510000Y-31295000D01*
X82510000Y-30555000D01*
X82890000Y-30555000D01*
X82890000Y-31295000D01*
G37*
X82890000Y-34095000D02*
X82510000Y-34095000D01*
X82510000Y-33355000D01*
X82890000Y-33355000D01*
X82890000Y-34095000D01*
G36*
X82890000Y-34095000D02*
G01*
X82510000Y-34095000D01*
X82510000Y-33355000D01*
X82890000Y-33355000D01*
X82890000Y-34095000D01*
G37*
X83390000Y-31295000D02*
X83010000Y-31295001D01*
X83009999Y-30555000D01*
X83390000Y-30555000D01*
X83390000Y-31295000D01*
G36*
X83390000Y-31295000D02*
G01*
X83010000Y-31295001D01*
X83009999Y-30555000D01*
X83390000Y-30555000D01*
X83390000Y-31295000D01*
G37*
X83390000Y-33355000D02*
X83390000Y-34095000D01*
X83009999Y-34095000D01*
X83010000Y-33354999D01*
X83390000Y-33355000D01*
G36*
X83390000Y-33355000D02*
G01*
X83390000Y-34095000D01*
X83009999Y-34095000D01*
X83010000Y-33354999D01*
X83390000Y-33355000D01*
G37*
X83470000Y-31880000D02*
X83970000Y-31879999D01*
X83970000Y-32270000D01*
X83470000Y-32270001D01*
X83470000Y-32379999D01*
X83970000Y-32380000D01*
X83970000Y-32770001D01*
X83470000Y-32770000D01*
X83470000Y-33220000D01*
X80930000Y-33220000D01*
X80930000Y-32770000D01*
X80430000Y-32770001D01*
X80430000Y-32380000D01*
X80930000Y-32379999D01*
X80930000Y-32270001D01*
X80430000Y-32270000D01*
X80430000Y-31879999D01*
X80930000Y-31880000D01*
X80930000Y-31430000D01*
X83470000Y-31430000D01*
X83470000Y-31880000D01*
G36*
X83470000Y-31880000D02*
G01*
X83970000Y-31879999D01*
X83970000Y-32270000D01*
X83470000Y-32270001D01*
X83470000Y-32379999D01*
X83970000Y-32380000D01*
X83970000Y-32770001D01*
X83470000Y-32770000D01*
X83470000Y-33220000D01*
X80930000Y-33220000D01*
X80930000Y-32770000D01*
X80430000Y-32770001D01*
X80430000Y-32380000D01*
X80930000Y-32379999D01*
X80930000Y-32270001D01*
X80430000Y-32270000D01*
X80430000Y-31879999D01*
X80930000Y-31880000D01*
X80930000Y-31430000D01*
X83470000Y-31430000D01*
X83470000Y-31880000D01*
G37*
%TD*%
D11*
%TO.C,R13*%
X76305091Y-32183329D03*
X75665091Y-32183329D03*
%TD*%
D12*
%TO.C,R3*%
X69330000Y-40500000D03*
X69970000Y-40500000D03*
%TD*%
D11*
%TO.C,R4*%
X69315000Y-41275000D03*
X68675000Y-41275000D03*
%TD*%
D13*
%TO.C,U5*%
X76425001Y-30125000D03*
X76824999Y-30125000D03*
X76425000Y-30525000D03*
X76825000Y-30525000D03*
X76425000Y-30925000D03*
X76825000Y-30925000D03*
X76425001Y-31325000D03*
X76824999Y-31325000D03*
%TD*%
D14*
%TO.C,R2*%
X67975000Y-30215000D03*
X67975000Y-29575000D03*
%TD*%
D15*
%TO.C,P1*%
X47750000Y-31375000D03*
X47750000Y-32875000D03*
X47750000Y-34375000D03*
X47750000Y-35875000D03*
X47750000Y-37375000D03*
X47750000Y-38875000D03*
X47750000Y-40375000D03*
D16*
X50000000Y-41675000D03*
X51500000Y-41675000D03*
X53000000Y-41675000D03*
X54500000Y-41675000D03*
X56000000Y-41675000D03*
X57500000Y-41675000D03*
X59000000Y-41675000D03*
D15*
X61250000Y-40375000D03*
X61250000Y-38875000D03*
X61250000Y-37375000D03*
X61250000Y-35875000D03*
X61250000Y-34375000D03*
X61250000Y-32875000D03*
X61250000Y-31375000D03*
%TD*%
D17*
%TO.C,Q2*%
X71525000Y-37475000D03*
X72175000Y-37474999D03*
X72825000Y-37475000D03*
X72825000Y-35575000D03*
X72175000Y-35575001D03*
X71525000Y-35575000D03*
%TD*%
D18*
%TO.C,L2*%
X63375000Y-36387499D03*
X63375000Y-37962501D03*
%TD*%
D11*
%TO.C,R7*%
X69095000Y-35275000D03*
X68455000Y-35275000D03*
%TD*%
D19*
%TO.C,C2*%
X79175000Y-28625001D03*
X79175000Y-30524999D03*
%TD*%
D11*
%TO.C,R8*%
X73620000Y-32950000D03*
X72980000Y-32950000D03*
%TD*%
D20*
%TO.C,D3*%
X75025000Y-33375001D03*
X75025000Y-35874999D03*
%TD*%
D21*
%TO.C,C4*%
X85200000Y-30199998D03*
X85200000Y-28300000D03*
%TD*%
D11*
%TO.C,R12*%
X51820000Y-43525000D03*
X51180000Y-43525000D03*
%TD*%
D22*
%TO.C,U3*%
X70900000Y-34200000D03*
D23*
X71437500Y-34275000D03*
D22*
X71975000Y-34200000D03*
X71975000Y-32500000D03*
D23*
X71437500Y-32425000D03*
D22*
X70900000Y-32500000D03*
%TD*%
D12*
%TO.C,R10*%
X69072800Y-42164000D03*
X69712800Y-42164000D03*
%TD*%
%TO.C,R6*%
X69330000Y-36050000D03*
X69970000Y-36050000D03*
%TD*%
D14*
%TO.C,C7*%
X76001741Y-29191248D03*
X76001741Y-28551248D03*
%TD*%
D24*
%TO.C,IC1*%
X78171800Y-42265600D03*
X78171801Y-41765600D03*
X78171800Y-41265600D03*
X78671800Y-42265599D03*
X78671800Y-41765600D03*
X78671800Y-41265601D03*
X79171800Y-42265600D03*
X79171799Y-41765600D03*
X79171800Y-41265600D03*
%TD*%
D11*
%TO.C,C3*%
X82670000Y-34725000D03*
X82030000Y-34725000D03*
%TD*%
D14*
%TO.C,C14*%
X80899000Y-41264800D03*
X80899000Y-40624800D03*
%TD*%
D11*
%TO.C,R29*%
X79314000Y-44043600D03*
X78674000Y-44043600D03*
%TD*%
D22*
%TO.C,U2*%
X68650000Y-34200000D03*
D23*
X69187500Y-34275000D03*
D22*
X69725000Y-34200000D03*
X69725000Y-32500000D03*
D23*
X69187500Y-32425000D03*
D22*
X68650000Y-32500000D03*
%TD*%
D11*
%TO.C,R14*%
X63970000Y-40900000D03*
X63330000Y-40900000D03*
%TD*%
D25*
%TO.C,D4*%
X77000000Y-35874999D03*
X77000000Y-33375001D03*
%TD*%
D26*
%TO.C,L1*%
X81125000Y-28900000D03*
X83275000Y-28900000D03*
%TD*%
D12*
%TO.C,R9*%
X80555000Y-34725000D03*
X81195000Y-34725000D03*
%TD*%
D11*
%TO.C,C15*%
X78679000Y-39497000D03*
X78039000Y-39497000D03*
%TD*%
D12*
%TO.C,R5*%
X71130000Y-39575000D03*
X71770000Y-39575000D03*
%TD*%
D27*
%TO.C,J2*%
X71564998Y-19800000D03*
X62584998Y-19800000D03*
X62944998Y-24200000D03*
X71204998Y-24200000D03*
D28*
X69874998Y-24790000D03*
X69474998Y-24090000D03*
X68674998Y-24090000D03*
X68274998Y-24790000D03*
X67874998Y-24090000D03*
X67474998Y-24790000D03*
X66674998Y-24790000D03*
X66274998Y-24090000D03*
X65874998Y-24790000D03*
X65474998Y-24090000D03*
X64674998Y-24090000D03*
X64274998Y-24790000D03*
D29*
X64324998Y-26000000D03*
X64824998Y-26000000D03*
X65324998Y-26000000D03*
X65824998Y-26000000D03*
X66324998Y-26000000D03*
X66824998Y-26000000D03*
X67324998Y-26000000D03*
X67824998Y-26000000D03*
X68324998Y-26000000D03*
X68824998Y-26000000D03*
X69324998Y-26000000D03*
X69824998Y-26000000D03*
D30*
X63474998Y-25440000D03*
D31*
X70674998Y-25440000D03*
%TD*%
D32*
%TO.C,D1*%
X81999999Y-26500000D03*
X79500001Y-26500000D03*
%TD*%
D22*
%TO.C,U1*%
X66387500Y-34200000D03*
D23*
X66925000Y-34275000D03*
D22*
X67462500Y-34200000D03*
X67462500Y-32500000D03*
D23*
X66925000Y-32425000D03*
D22*
X66387500Y-32500000D03*
%TD*%
D14*
%TO.C,R20*%
X75463400Y-42880200D03*
X75463400Y-42240200D03*
%TD*%
D17*
%TO.C,Q1*%
X68675000Y-39425000D03*
X69325000Y-39424999D03*
X69975000Y-39425000D03*
X69975000Y-37525000D03*
X69325000Y-37525001D03*
X68675000Y-37525000D03*
%TD*%
D33*
%TO.C,J1*%
X59350000Y-44300000D03*
X59850000Y-44300000D03*
X60350000Y-44300000D03*
X60850000Y-44300000D03*
X61350000Y-44300000D03*
X61850000Y-44300000D03*
X62350000Y-44300000D03*
X62850000Y-44300000D03*
X63350000Y-44300000D03*
X63850000Y-44300000D03*
X64350000Y-44300000D03*
X64850000Y-44300000D03*
X65350000Y-44300000D03*
X65850000Y-44300000D03*
X66350000Y-44300000D03*
X66850000Y-44300000D03*
X67350000Y-44300000D03*
D34*
X57050000Y-47000000D03*
X69650000Y-47000000D03*
%TD*%
D12*
%TO.C,R1*%
X72605000Y-29550000D03*
X73245000Y-29550000D03*
%TD*%
D35*
%TO.C,C1*%
X77700000Y-26600000D03*
X75000000Y-26600000D03*
%TD*%
D36*
%TO.C,J4*%
X89670000Y-41950000D03*
D37*
X89670000Y-39950000D03*
%TD*%
M02*
