%TF.GenerationSoftware,KiCad,Pcbnew,8.0.2*%
%TF.CreationDate,2025-05-18T14:56:43-07:00*%
%TF.ProjectId,PGS_USBW_Board,5047535f-5553-4425-975f-426f6172642e,rev?*%
%TF.SameCoordinates,Original*%
%TF.FileFunction,Drillmap*%
%TF.FilePolarity,Positive*%
%FSLAX45Y45*%
G04 Gerber Fmt 4.5, Leading zero omitted, Abs format (unit mm)*
G04 Created by KiCad (PCBNEW 8.0.2) date 2025-05-18 14:56:43*
%MOMM*%
%LPD*%
G01*
G04 APERTURE LIST*
%ADD10C,0.010000*%
%ADD11C,0.200000*%
%ADD12C,0.100000*%
G04 APERTURE END LIST*
D10*
X7352699Y-2272569D02*
G75*
G02*
X7390803Y-2300395I1J-40001D01*
G01*
X8805508Y-3657500D02*
G75*
G02*
X8805508Y-3422500I2J117500D01*
G01*
X7187500Y-1757134D02*
X6227500Y-1757134D01*
X9104000Y-3657500D02*
G75*
G02*
X9154000Y-3707500I0J-50000D01*
G01*
X6177500Y-1807134D02*
X6177500Y-2232577D01*
X4432500Y-4469790D02*
X4432500Y-4822134D01*
X4126530Y-3814980D02*
X4305784Y-3814980D01*
X4578344Y-3477209D02*
X4578598Y-3476196D01*
X4578845Y-3475183D01*
X4579084Y-3474167D01*
X4579315Y-3473150D01*
X4579537Y-3472131D01*
X4579752Y-3471111D01*
X4579959Y-3470089D01*
X4580157Y-3469066D01*
X4580348Y-3468041D01*
X4580531Y-3467015D01*
X4580705Y-3465988D01*
X4580872Y-3464959D01*
X4581030Y-3463930D01*
X4581180Y-3462899D01*
X4581323Y-3461867D01*
X4581457Y-3460834D01*
X4581583Y-3459800D01*
X4581701Y-3458765D01*
X4581811Y-3457729D01*
X4581913Y-3456692D01*
X4582006Y-3455654D01*
X4582092Y-3454616D01*
X4582169Y-3453576D01*
X4582239Y-3452537D01*
X4582300Y-3451496D01*
X4582353Y-3450455D01*
X4582398Y-3449413D01*
X4582435Y-3448371D01*
X4582463Y-3447328D01*
X4582484Y-3446285D01*
X4582496Y-3445242D01*
X4582500Y-3444198D01*
X7352699Y-2272569D02*
X7277500Y-2272569D01*
X8896739Y-2575232D02*
X7867914Y-2427228D01*
X9154000Y-4822134D02*
X9154000Y-4092916D01*
X8982500Y-3372500D02*
X8982500Y-2674213D01*
X8982500Y-3372500D02*
G75*
G02*
X8932500Y-3422500I-50000J0D01*
G01*
X4126530Y-3814980D02*
G75*
G02*
X4084504Y-3737892I0J50000D01*
G01*
X6024198Y-2300395D02*
G75*
G02*
X5857500Y-2422131I-166698J53265D01*
G01*
X5547085Y-2427229D02*
X4667948Y-2553698D01*
X4084501Y-4127069D02*
G75*
G02*
X4126530Y-4049978I42029J27089D01*
G01*
X6024198Y-2300395D02*
G75*
G02*
X6062308Y-2272567I38112J-12185D01*
G01*
X5857500Y-2422134D02*
X5618280Y-2422134D01*
X4854953Y-4672134D02*
G75*
G02*
X4554953Y-4672134I-150000J0D01*
G01*
X4554953Y-4672134D02*
G75*
G02*
X4854953Y-4672134I150000J0D01*
G01*
X4305784Y-4282480D02*
G75*
G02*
X4084498Y-4127071I80597J350010D01*
G01*
X4305784Y-3814980D02*
G75*
G02*
X4305784Y-4049980I0J-117500D01*
G01*
X4432308Y-3576268D02*
X4433942Y-3576469D01*
X4435578Y-3576649D01*
X4437215Y-3576809D01*
X4438853Y-3576948D01*
X4440491Y-3577068D01*
X4442131Y-3577167D01*
X4443770Y-3577245D01*
X4445411Y-3577304D01*
X4447051Y-3577342D01*
X4448691Y-3577360D01*
X4450331Y-3577358D01*
X4451970Y-3577336D01*
X4453609Y-3577293D01*
X4455247Y-3577230D01*
X4456884Y-3577148D01*
X4458520Y-3577045D01*
X4460154Y-3576922D01*
X4461787Y-3576778D01*
X4463418Y-3576615D01*
X4465047Y-3576432D01*
X4466674Y-3576228D01*
X4468298Y-3576005D01*
X4469920Y-3575761D01*
X4471540Y-3575498D01*
X4473156Y-3575214D01*
X4474769Y-3574910D01*
X4476380Y-3574587D01*
X4477986Y-3574243D01*
X4479589Y-3573880D01*
X4481188Y-3573496D01*
X4482784Y-3573093D01*
X4484375Y-3572669D01*
X6177500Y-1807134D02*
G75*
G02*
X6227500Y-1757130I50000J4D01*
G01*
X8896739Y-2575232D02*
G75*
G02*
X8982497Y-2674213I-14239J-98978D01*
G01*
X6174840Y-2461437D02*
G75*
G02*
X6024840Y-2461437I-75000J0D01*
G01*
X6024840Y-2461437D02*
G75*
G02*
X6174840Y-2461437I75000J0D01*
G01*
X6137500Y-2272569D02*
X6062308Y-2272569D01*
X4084501Y-3737890D02*
G75*
G02*
X4432308Y-3576268I301884J-194599D01*
G01*
X4582500Y-2652634D02*
G75*
G02*
X4667947Y-2553695I100000J4D01*
G01*
X7557500Y-2422134D02*
G75*
G02*
X7390799Y-2300396I0J175004D01*
G01*
X7796721Y-2422134D02*
X7557500Y-2422134D01*
X4582500Y-2652634D02*
X4582500Y-3444198D01*
X9104000Y-3657500D02*
X8805508Y-3657500D01*
X7796721Y-2422134D02*
G75*
G02*
X7867914Y-2427229I-1J-499976D01*
G01*
X4531206Y-3549222D02*
X4532473Y-3548222D01*
X4533727Y-3547207D01*
X4534968Y-3546178D01*
X4536196Y-3545134D01*
X4537410Y-3544076D01*
X4538612Y-3543003D01*
X4539799Y-3541917D01*
X4540974Y-3540817D01*
X4542134Y-3539703D01*
X4543281Y-3538575D01*
X4544413Y-3537434D01*
X4545532Y-3536279D01*
X4546636Y-3535111D01*
X4547727Y-3533930D01*
X4548802Y-3532737D01*
X4549864Y-3531530D01*
X4550910Y-3530310D01*
X4551942Y-3529078D01*
X4552959Y-3527833D01*
X4553961Y-3526577D01*
X4554948Y-3525308D01*
X4555920Y-3524026D01*
X4556876Y-3522733D01*
X4557817Y-3521429D01*
X4558742Y-3520112D01*
X4559652Y-3518784D01*
X4560546Y-3517445D01*
X4561423Y-3516094D01*
X4562285Y-3514732D01*
X4563131Y-3513360D01*
X4563961Y-3511976D01*
X4564774Y-3510582D01*
X4484375Y-3572669D02*
X4485966Y-3572225D01*
X4487551Y-3571761D01*
X4489129Y-3571277D01*
X4490700Y-3570775D01*
X4492264Y-3570253D01*
X4493821Y-3569712D01*
X4495370Y-3569152D01*
X4496912Y-3568573D01*
X4498446Y-3567975D01*
X4499973Y-3567359D01*
X4501491Y-3566723D01*
X4503001Y-3566070D01*
X4504502Y-3565397D01*
X4505995Y-3564707D01*
X4507479Y-3563998D01*
X4508954Y-3563270D01*
X4510420Y-3562525D01*
X4511877Y-3561762D01*
X4513325Y-3560980D01*
X4514763Y-3560181D01*
X4516191Y-3559363D01*
X4517609Y-3558528D01*
X4519017Y-3557676D01*
X4520414Y-3556806D01*
X4521802Y-3555918D01*
X4523178Y-3555013D01*
X4524544Y-3554090D01*
X4525899Y-3553151D01*
X4527243Y-3552194D01*
X4528575Y-3551220D01*
X4529896Y-3550229D01*
X4531206Y-3549222D01*
X4632500Y-5022134D02*
G75*
G02*
X4432496Y-4822134I0J200004D01*
G01*
X4564774Y-3510582D02*
X4565333Y-3509599D01*
X4565884Y-3508612D01*
X4566427Y-3507620D01*
X4566961Y-3506625D01*
X4567486Y-3505624D01*
X4568003Y-3504620D01*
X4568511Y-3503611D01*
X4569011Y-3502599D01*
X4569501Y-3501582D01*
X4569984Y-3500561D01*
X4570457Y-3499537D01*
X4570922Y-3498508D01*
X4571378Y-3497476D01*
X4571825Y-3496440D01*
X4572263Y-3495400D01*
X4572692Y-3494356D01*
X4573113Y-3493309D01*
X4573525Y-3492258D01*
X4573928Y-3491204D01*
X4574321Y-3490147D01*
X4574706Y-3489086D01*
X4575082Y-3488021D01*
X4575449Y-3486954D01*
X4575807Y-3485883D01*
X4576156Y-3484809D01*
X4576496Y-3483732D01*
X4576827Y-3482652D01*
X4577149Y-3481569D01*
X4577461Y-3480483D01*
X4577764Y-3479394D01*
X4578059Y-3478303D01*
X4578344Y-3477209D01*
X6177500Y-2232577D02*
G75*
G02*
X6137500Y-2272570I-39990J-3D01*
G01*
X4632500Y-5022134D02*
X8954000Y-5022134D01*
X9154000Y-4092916D02*
X9154000Y-3707500D01*
X5547085Y-2427229D02*
G75*
G02*
X5618280Y-2422134I71195J-494891D01*
G01*
X7390160Y-2660582D02*
G75*
G02*
X7240160Y-2660582I-75000J0D01*
G01*
X7240160Y-2660582D02*
G75*
G02*
X7390160Y-2660582I75000J0D01*
G01*
X7187500Y-1757134D02*
G75*
G02*
X7237496Y-1807134I0J-49996D01*
G01*
X7237500Y-2232569D02*
X7237500Y-1807134D01*
X9154000Y-4822134D02*
G75*
G02*
X8954000Y-5022130I-200000J4D01*
G01*
X4305784Y-4282480D02*
G75*
G02*
X4432503Y-4469790I-73304J-186110D01*
G01*
X8805508Y-3422500D02*
X8932500Y-3422500D01*
X4305784Y-4049980D02*
X4126530Y-4049980D01*
X7277500Y-2272569D02*
G75*
G02*
X7237501Y-2232569I0J39999D01*
G01*
D11*
D12*
X4563000Y-4036000D02*
X4593000Y-4066000D01*
X4593000Y-4036000D02*
X4563000Y-4066000D01*
X4578000Y-3594000D02*
X4608000Y-3624000D01*
X4608000Y-3594000D02*
X4578000Y-3624000D01*
X4922500Y-3802500D02*
X4952500Y-3832500D01*
X4952500Y-3802500D02*
X4922500Y-3832500D01*
X4929000Y-3580000D02*
X4959000Y-3610000D01*
X4959000Y-3580000D02*
X4929000Y-3610000D01*
X4936000Y-3967000D02*
X4966000Y-3997000D01*
X4966000Y-3967000D02*
X4936000Y-3997000D01*
X4937500Y-3722500D02*
X4967500Y-3752500D01*
X4967500Y-3722500D02*
X4937500Y-3752500D01*
X4959000Y-3145000D02*
X4989000Y-3175000D01*
X4989000Y-3145000D02*
X4959000Y-3175000D01*
X4990000Y-3857500D02*
X5020000Y-3887500D01*
X5020000Y-3857500D02*
X4990000Y-3887500D01*
X5000000Y-4327500D02*
X5030000Y-4357500D01*
X5030000Y-4327500D02*
X5000000Y-4357500D01*
X5135000Y-4000000D02*
X5165000Y-4030000D01*
X5165000Y-4000000D02*
X5135000Y-4030000D01*
X5404000Y-4494000D02*
X5434000Y-4524000D01*
X5434000Y-4494000D02*
X5404000Y-4524000D01*
X5484000Y-4573000D02*
X5514000Y-4603000D01*
X5514000Y-4573000D02*
X5484000Y-4603000D01*
X5556000Y-4484000D02*
X5586000Y-4514000D01*
X5586000Y-4484000D02*
X5556000Y-4514000D01*
X5735000Y-3980000D02*
X5765000Y-4010000D01*
X5765000Y-3980000D02*
X5735000Y-4010000D01*
X5907000Y-3146000D02*
X5937000Y-3176000D01*
X5937000Y-3146000D02*
X5907000Y-3176000D01*
X5925000Y-4550000D02*
X5955000Y-4580000D01*
X5955000Y-4550000D02*
X5925000Y-4580000D01*
X5967500Y-4300000D02*
X5997500Y-4330000D01*
X5997500Y-4300000D02*
X5967500Y-4330000D01*
X6010000Y-4142500D02*
X6040000Y-4172500D01*
X6040000Y-4142500D02*
X6010000Y-4172500D01*
X6067500Y-4660000D02*
X6097500Y-4690000D01*
X6097500Y-4660000D02*
X6067500Y-4690000D01*
X6109000Y-4288000D02*
X6139000Y-4318000D01*
X6139000Y-4288000D02*
X6109000Y-4318000D01*
X6117500Y-4715000D02*
X6147500Y-4745000D01*
X6147500Y-4715000D02*
X6117500Y-4745000D01*
X6180000Y-4757500D02*
X6210000Y-4787500D01*
X6210000Y-4757500D02*
X6180000Y-4787500D01*
X6185000Y-4225000D02*
X6215000Y-4255000D01*
X6215000Y-4225000D02*
X6185000Y-4255000D01*
X6280000Y-4777500D02*
X6310000Y-4807500D01*
X6310000Y-4777500D02*
X6280000Y-4807500D01*
X6287500Y-4702500D02*
X6317500Y-4732500D01*
X6317500Y-4702500D02*
X6287500Y-4732500D01*
X6305000Y-3952500D02*
X6335000Y-3982500D01*
X6335000Y-3952500D02*
X6305000Y-3982500D01*
X6325000Y-3487500D02*
X6355000Y-3517500D01*
X6355000Y-3487500D02*
X6325000Y-3517500D01*
X6350000Y-3287500D02*
X6380000Y-3317500D01*
X6380000Y-3287500D02*
X6350000Y-3317500D01*
X6370000Y-3900000D02*
X6400000Y-3930000D01*
X6400000Y-3900000D02*
X6370000Y-3930000D01*
X6445000Y-4300000D02*
X6475000Y-4330000D01*
X6475000Y-4300000D02*
X6445000Y-4330000D01*
X6447500Y-4007500D02*
X6477500Y-4037500D01*
X6477500Y-4007500D02*
X6447500Y-4037500D01*
X6470000Y-2985000D02*
X6500000Y-3015000D01*
X6500000Y-2985000D02*
X6470000Y-3015000D01*
X6485000Y-4195000D02*
X6515000Y-4225000D01*
X6515000Y-4195000D02*
X6485000Y-4225000D01*
X6522239Y-2934759D02*
X6552239Y-2964759D01*
X6552239Y-2934759D02*
X6522239Y-2964759D01*
X6570890Y-2829746D02*
X6600890Y-2859746D01*
X6600890Y-2829746D02*
X6570890Y-2859746D01*
X6620000Y-2630000D02*
X6650000Y-2660000D01*
X6650000Y-2630000D02*
X6620000Y-2660000D01*
X6657500Y-3360000D02*
X6687500Y-3390000D01*
X6687500Y-3360000D02*
X6657500Y-3390000D01*
X6678170Y-3138193D02*
X6708170Y-3168193D01*
X6708170Y-3138193D02*
X6678170Y-3168193D01*
X6720000Y-2630000D02*
X6750000Y-2660000D01*
X6750000Y-2630000D02*
X6720000Y-2660000D01*
X6758000Y-4173000D02*
X6788000Y-4203000D01*
X6788000Y-4173000D02*
X6758000Y-4203000D01*
X6815000Y-2710000D02*
X6845000Y-2740000D01*
X6845000Y-2710000D02*
X6815000Y-2740000D01*
X6852500Y-4052500D02*
X6882500Y-4082500D01*
X6882500Y-4052500D02*
X6852500Y-4082500D01*
X6853840Y-2904351D02*
X6883840Y-2934351D01*
X6883840Y-2904351D02*
X6853840Y-2934351D01*
X6905000Y-3167500D02*
X6935000Y-3197500D01*
X6935000Y-3167500D02*
X6905000Y-3197500D01*
X6917235Y-3503361D02*
X6947235Y-3533361D01*
X6947235Y-3503361D02*
X6917235Y-3533361D01*
X6928840Y-2904351D02*
X6958840Y-2934351D01*
X6958840Y-2904351D02*
X6928840Y-2934351D01*
X7003840Y-2904351D02*
X7033840Y-2934351D01*
X7033840Y-2904351D02*
X7003840Y-2934351D01*
X7005000Y-3962500D02*
X7035000Y-3992500D01*
X7035000Y-3962500D02*
X7005000Y-3992500D01*
X7048000Y-3516000D02*
X7078000Y-3546000D01*
X7078000Y-3516000D02*
X7048000Y-3546000D01*
X7072873Y-2711507D02*
X7102873Y-2741507D01*
X7102873Y-2711507D02*
X7072873Y-2741507D01*
X7080000Y-3862500D02*
X7110000Y-3892500D01*
X7110000Y-3862500D02*
X7080000Y-3892500D01*
X7127500Y-3167500D02*
X7157500Y-3197500D01*
X7157500Y-3167500D02*
X7127500Y-3197500D01*
X7162500Y-3877500D02*
X7192500Y-3907500D01*
X7192500Y-3877500D02*
X7162500Y-3907500D01*
X7307684Y-2917619D02*
X7337684Y-2947619D01*
X7337684Y-2917619D02*
X7307684Y-2947619D01*
X7338000Y-3399000D02*
X7368000Y-3429000D01*
X7368000Y-3399000D02*
X7338000Y-3429000D01*
X7398527Y-3316945D02*
X7428527Y-3346945D01*
X7428527Y-3316945D02*
X7398527Y-3346945D01*
X7455000Y-3095000D02*
X7485000Y-3125000D01*
X7485000Y-3095000D02*
X7455000Y-3125000D01*
X7470000Y-3190000D02*
X7500000Y-3220000D01*
X7500000Y-3190000D02*
X7470000Y-3220000D01*
X7477000Y-2763000D02*
X7507000Y-2793000D01*
X7507000Y-2763000D02*
X7477000Y-2793000D01*
X7492500Y-3710000D02*
X7522500Y-3740000D01*
X7522500Y-3710000D02*
X7492500Y-3740000D01*
X7505000Y-3042500D02*
X7535000Y-3072500D01*
X7535000Y-3042500D02*
X7505000Y-3072500D01*
X7718254Y-3703277D02*
X7748254Y-3733277D01*
X7748254Y-3703277D02*
X7718254Y-3733277D01*
X7730000Y-3197500D02*
X7760000Y-3227500D01*
X7760000Y-3197500D02*
X7730000Y-3227500D01*
X7760000Y-2897500D02*
X7790000Y-2927500D01*
X7790000Y-2897500D02*
X7760000Y-2927500D01*
X7865000Y-2720000D02*
X7895000Y-2750000D01*
X7895000Y-2720000D02*
X7865000Y-2750000D01*
X7902500Y-3172500D02*
X7932500Y-3202500D01*
X7932500Y-3172500D02*
X7902500Y-3202500D01*
X7930000Y-3337000D02*
X7960000Y-3367000D01*
X7960000Y-3337000D02*
X7930000Y-3367000D01*
X8040000Y-3537500D02*
X8070000Y-3567500D01*
X8070000Y-3537500D02*
X8040000Y-3567500D01*
X8320000Y-2635000D02*
X8350000Y-2665000D01*
X8350000Y-2635000D02*
X8320000Y-2665000D01*
X8447000Y-3294000D02*
X8477000Y-3324000D01*
X8477000Y-3294000D02*
X8447000Y-3324000D01*
X8505000Y-3158000D02*
X8535000Y-3188000D01*
X8535000Y-3158000D02*
X8505000Y-3188000D01*
X6447500Y-2351112D02*
G75*
G02*
X6407500Y-2351112I-20000J0D01*
G01*
X6407500Y-2351112D02*
G75*
G02*
X6447500Y-2351112I20000J0D01*
G01*
X6487500Y-2281112D02*
G75*
G02*
X6447500Y-2281112I-20000J0D01*
G01*
X6447500Y-2281112D02*
G75*
G02*
X6487500Y-2281112I20000J0D01*
G01*
X6567500Y-2281112D02*
G75*
G02*
X6527500Y-2281112I-20000J0D01*
G01*
X6527500Y-2281112D02*
G75*
G02*
X6567500Y-2281112I20000J0D01*
G01*
X6607500Y-2351112D02*
G75*
G02*
X6567500Y-2351112I-20000J0D01*
G01*
X6567500Y-2351112D02*
G75*
G02*
X6607500Y-2351112I20000J0D01*
G01*
X6647500Y-2281112D02*
G75*
G02*
X6607500Y-2281112I-20000J0D01*
G01*
X6607500Y-2281112D02*
G75*
G02*
X6647500Y-2281112I20000J0D01*
G01*
X6687500Y-2351112D02*
G75*
G02*
X6647500Y-2351112I-20000J0D01*
G01*
X6647500Y-2351112D02*
G75*
G02*
X6687500Y-2351112I20000J0D01*
G01*
X6767500Y-2351112D02*
G75*
G02*
X6727500Y-2351112I-20000J0D01*
G01*
X6727500Y-2351112D02*
G75*
G02*
X6767500Y-2351112I20000J0D01*
G01*
X6807500Y-2281112D02*
G75*
G02*
X6767500Y-2281112I-20000J0D01*
G01*
X6767500Y-2281112D02*
G75*
G02*
X6807500Y-2281112I20000J0D01*
G01*
X6847500Y-2351112D02*
G75*
G02*
X6807500Y-2351112I-20000J0D01*
G01*
X6807500Y-2351112D02*
G75*
G02*
X6847500Y-2351112I20000J0D01*
G01*
X6887500Y-2281112D02*
G75*
G02*
X6847500Y-2281112I-20000J0D01*
G01*
X6847500Y-2281112D02*
G75*
G02*
X6887500Y-2281112I20000J0D01*
G01*
X6967500Y-2281112D02*
G75*
G02*
X6927500Y-2281112I-20000J0D01*
G01*
X6927500Y-2281112D02*
G75*
G02*
X6967500Y-2281112I20000J0D01*
G01*
X7007500Y-2351112D02*
G75*
G02*
X6967500Y-2351112I-20000J0D01*
G01*
X6967500Y-2351112D02*
G75*
G02*
X7007500Y-2351112I20000J0D01*
G01*
X6258500Y-1827112D02*
X6258500Y-1877112D01*
X6233500Y-1852112D02*
X6283500Y-1852112D01*
X6283500Y-1882112D02*
X6283500Y-1822112D01*
X6233500Y-1822112D02*
G75*
G02*
X6283500Y-1822112I25000J0D01*
G01*
X6233500Y-1822112D02*
X6233500Y-1882112D01*
X6233500Y-1882112D02*
G75*
G03*
X6283500Y-1882112I25000J0D01*
G01*
X6294500Y-2267112D02*
X6294500Y-2317112D01*
X6269500Y-2292112D02*
X6319500Y-2292112D01*
X6319500Y-2322112D02*
X6319500Y-2262112D01*
X6269500Y-2262112D02*
G75*
G02*
X6319500Y-2262112I25000J0D01*
G01*
X6269500Y-2262112D02*
X6269500Y-2322112D01*
X6269500Y-2322112D02*
G75*
G03*
X6319500Y-2322112I25000J0D01*
G01*
X7120500Y-2267112D02*
X7120500Y-2317112D01*
X7095500Y-2292112D02*
X7145500Y-2292112D01*
X7145500Y-2322112D02*
X7145500Y-2262112D01*
X7095500Y-2262112D02*
G75*
G02*
X7145500Y-2262112I25000J0D01*
G01*
X7095500Y-2262112D02*
X7095500Y-2322112D01*
X7095500Y-2322112D02*
G75*
G03*
X7145500Y-2322112I25000J0D01*
G01*
X7156500Y-1827112D02*
X7156500Y-1877112D01*
X7131500Y-1852112D02*
X7181500Y-1852112D01*
X7181500Y-1882112D02*
X7181500Y-1822112D01*
X7131500Y-1822112D02*
G75*
G02*
X7181500Y-1822112I25000J0D01*
G01*
X7131500Y-1822112D02*
X7131500Y-1882112D01*
X7131500Y-1882112D02*
G75*
G03*
X7181500Y-1882112I25000J0D01*
G01*
X8993517Y-4021517D02*
X8993517Y-3968483D01*
X8940483Y-3968483D01*
X8940483Y-4021517D01*
X8993517Y-4021517D01*
X8993517Y-4221517D02*
X8993517Y-4168483D01*
X8940483Y-4168483D01*
X8940483Y-4221517D01*
X8993517Y-4221517D01*
D11*
X4336805Y-5334118D02*
X4336805Y-5134118D01*
X4336805Y-5134118D02*
X4384424Y-5134118D01*
X4384424Y-5134118D02*
X4412995Y-5143641D01*
X4412995Y-5143641D02*
X4432043Y-5162689D01*
X4432043Y-5162689D02*
X4441567Y-5181737D01*
X4441567Y-5181737D02*
X4451090Y-5219832D01*
X4451090Y-5219832D02*
X4451090Y-5248403D01*
X4451090Y-5248403D02*
X4441567Y-5286498D01*
X4441567Y-5286498D02*
X4432043Y-5305546D01*
X4432043Y-5305546D02*
X4412995Y-5324594D01*
X4412995Y-5324594D02*
X4384424Y-5334118D01*
X4384424Y-5334118D02*
X4336805Y-5334118D01*
X4536805Y-5334118D02*
X4536805Y-5200784D01*
X4536805Y-5238879D02*
X4546328Y-5219832D01*
X4546328Y-5219832D02*
X4555852Y-5210308D01*
X4555852Y-5210308D02*
X4574900Y-5200784D01*
X4574900Y-5200784D02*
X4593948Y-5200784D01*
X4660614Y-5334118D02*
X4660614Y-5200784D01*
X4660614Y-5134118D02*
X4651090Y-5143641D01*
X4651090Y-5143641D02*
X4660614Y-5153165D01*
X4660614Y-5153165D02*
X4670138Y-5143641D01*
X4670138Y-5143641D02*
X4660614Y-5134118D01*
X4660614Y-5134118D02*
X4660614Y-5153165D01*
X4784424Y-5334118D02*
X4765376Y-5324594D01*
X4765376Y-5324594D02*
X4755852Y-5305546D01*
X4755852Y-5305546D02*
X4755852Y-5134118D01*
X4889186Y-5334118D02*
X4870138Y-5324594D01*
X4870138Y-5324594D02*
X4860614Y-5305546D01*
X4860614Y-5305546D02*
X4860614Y-5134118D01*
X5117757Y-5334118D02*
X5117757Y-5134118D01*
X5117757Y-5134118D02*
X5184424Y-5276975D01*
X5184424Y-5276975D02*
X5251090Y-5134118D01*
X5251090Y-5134118D02*
X5251090Y-5334118D01*
X5432043Y-5334118D02*
X5432043Y-5229356D01*
X5432043Y-5229356D02*
X5422519Y-5210308D01*
X5422519Y-5210308D02*
X5403471Y-5200784D01*
X5403471Y-5200784D02*
X5365376Y-5200784D01*
X5365376Y-5200784D02*
X5346328Y-5210308D01*
X5432043Y-5324594D02*
X5412995Y-5334118D01*
X5412995Y-5334118D02*
X5365376Y-5334118D01*
X5365376Y-5334118D02*
X5346328Y-5324594D01*
X5346328Y-5324594D02*
X5336805Y-5305546D01*
X5336805Y-5305546D02*
X5336805Y-5286498D01*
X5336805Y-5286498D02*
X5346328Y-5267451D01*
X5346328Y-5267451D02*
X5365376Y-5257927D01*
X5365376Y-5257927D02*
X5412995Y-5257927D01*
X5412995Y-5257927D02*
X5432043Y-5248403D01*
X5527281Y-5200784D02*
X5527281Y-5400784D01*
X5527281Y-5210308D02*
X5546328Y-5200784D01*
X5546328Y-5200784D02*
X5584424Y-5200784D01*
X5584424Y-5200784D02*
X5603471Y-5210308D01*
X5603471Y-5210308D02*
X5612995Y-5219832D01*
X5612995Y-5219832D02*
X5622519Y-5238879D01*
X5622519Y-5238879D02*
X5622519Y-5296022D01*
X5622519Y-5296022D02*
X5612995Y-5315070D01*
X5612995Y-5315070D02*
X5603471Y-5324594D01*
X5603471Y-5324594D02*
X5584424Y-5334118D01*
X5584424Y-5334118D02*
X5546328Y-5334118D01*
X5546328Y-5334118D02*
X5527281Y-5324594D01*
X5708233Y-5315070D02*
X5717757Y-5324594D01*
X5717757Y-5324594D02*
X5708233Y-5334118D01*
X5708233Y-5334118D02*
X5698709Y-5324594D01*
X5698709Y-5324594D02*
X5708233Y-5315070D01*
X5708233Y-5315070D02*
X5708233Y-5334118D01*
X5708233Y-5210308D02*
X5717757Y-5219832D01*
X5717757Y-5219832D02*
X5708233Y-5229356D01*
X5708233Y-5229356D02*
X5698709Y-5219832D01*
X5698709Y-5219832D02*
X5708233Y-5210308D01*
X5708233Y-5210308D02*
X5708233Y-5229356D01*
D12*
X4046028Y-5647634D02*
X4076028Y-5677634D01*
X4076028Y-5647634D02*
X4046028Y-5677634D01*
D11*
X4374900Y-5554118D02*
X4393948Y-5554118D01*
X4393948Y-5554118D02*
X4412995Y-5563641D01*
X4412995Y-5563641D02*
X4422519Y-5573165D01*
X4422519Y-5573165D02*
X4432043Y-5592213D01*
X4432043Y-5592213D02*
X4441567Y-5630308D01*
X4441567Y-5630308D02*
X4441567Y-5677927D01*
X4441567Y-5677927D02*
X4432043Y-5716022D01*
X4432043Y-5716022D02*
X4422519Y-5735070D01*
X4422519Y-5735070D02*
X4412995Y-5744594D01*
X4412995Y-5744594D02*
X4393948Y-5754117D01*
X4393948Y-5754117D02*
X4374900Y-5754117D01*
X4374900Y-5754117D02*
X4355852Y-5744594D01*
X4355852Y-5744594D02*
X4346328Y-5735070D01*
X4346328Y-5735070D02*
X4336805Y-5716022D01*
X4336805Y-5716022D02*
X4327281Y-5677927D01*
X4327281Y-5677927D02*
X4327281Y-5630308D01*
X4327281Y-5630308D02*
X4336805Y-5592213D01*
X4336805Y-5592213D02*
X4346328Y-5573165D01*
X4346328Y-5573165D02*
X4355852Y-5563641D01*
X4355852Y-5563641D02*
X4374900Y-5554118D01*
X4527281Y-5735070D02*
X4536805Y-5744594D01*
X4536805Y-5744594D02*
X4527281Y-5754117D01*
X4527281Y-5754117D02*
X4517757Y-5744594D01*
X4517757Y-5744594D02*
X4527281Y-5735070D01*
X4527281Y-5735070D02*
X4527281Y-5754117D01*
X4603471Y-5554118D02*
X4727281Y-5554118D01*
X4727281Y-5554118D02*
X4660614Y-5630308D01*
X4660614Y-5630308D02*
X4689186Y-5630308D01*
X4689186Y-5630308D02*
X4708233Y-5639832D01*
X4708233Y-5639832D02*
X4717757Y-5649356D01*
X4717757Y-5649356D02*
X4727281Y-5668403D01*
X4727281Y-5668403D02*
X4727281Y-5716022D01*
X4727281Y-5716022D02*
X4717757Y-5735070D01*
X4717757Y-5735070D02*
X4708233Y-5744594D01*
X4708233Y-5744594D02*
X4689186Y-5754117D01*
X4689186Y-5754117D02*
X4632043Y-5754117D01*
X4632043Y-5754117D02*
X4612995Y-5744594D01*
X4612995Y-5744594D02*
X4603471Y-5735070D01*
X4851090Y-5554118D02*
X4870138Y-5554118D01*
X4870138Y-5554118D02*
X4889186Y-5563641D01*
X4889186Y-5563641D02*
X4898709Y-5573165D01*
X4898709Y-5573165D02*
X4908233Y-5592213D01*
X4908233Y-5592213D02*
X4917757Y-5630308D01*
X4917757Y-5630308D02*
X4917757Y-5677927D01*
X4917757Y-5677927D02*
X4908233Y-5716022D01*
X4908233Y-5716022D02*
X4898709Y-5735070D01*
X4898709Y-5735070D02*
X4889186Y-5744594D01*
X4889186Y-5744594D02*
X4870138Y-5754117D01*
X4870138Y-5754117D02*
X4851090Y-5754117D01*
X4851090Y-5754117D02*
X4832043Y-5744594D01*
X4832043Y-5744594D02*
X4822519Y-5735070D01*
X4822519Y-5735070D02*
X4812995Y-5716022D01*
X4812995Y-5716022D02*
X4803471Y-5677927D01*
X4803471Y-5677927D02*
X4803471Y-5630308D01*
X4803471Y-5630308D02*
X4812995Y-5592213D01*
X4812995Y-5592213D02*
X4822519Y-5573165D01*
X4822519Y-5573165D02*
X4832043Y-5563641D01*
X4832043Y-5563641D02*
X4851090Y-5554118D01*
X5041567Y-5554118D02*
X5060614Y-5554118D01*
X5060614Y-5554118D02*
X5079662Y-5563641D01*
X5079662Y-5563641D02*
X5089186Y-5573165D01*
X5089186Y-5573165D02*
X5098709Y-5592213D01*
X5098709Y-5592213D02*
X5108233Y-5630308D01*
X5108233Y-5630308D02*
X5108233Y-5677927D01*
X5108233Y-5677927D02*
X5098709Y-5716022D01*
X5098709Y-5716022D02*
X5089186Y-5735070D01*
X5089186Y-5735070D02*
X5079662Y-5744594D01*
X5079662Y-5744594D02*
X5060614Y-5754117D01*
X5060614Y-5754117D02*
X5041567Y-5754117D01*
X5041567Y-5754117D02*
X5022519Y-5744594D01*
X5022519Y-5744594D02*
X5012995Y-5735070D01*
X5012995Y-5735070D02*
X5003471Y-5716022D01*
X5003471Y-5716022D02*
X4993948Y-5677927D01*
X4993948Y-5677927D02*
X4993948Y-5630308D01*
X4993948Y-5630308D02*
X5003471Y-5592213D01*
X5003471Y-5592213D02*
X5012995Y-5573165D01*
X5012995Y-5573165D02*
X5022519Y-5563641D01*
X5022519Y-5563641D02*
X5041567Y-5554118D01*
X5193948Y-5754117D02*
X5193948Y-5620784D01*
X5193948Y-5639832D02*
X5203471Y-5630308D01*
X5203471Y-5630308D02*
X5222519Y-5620784D01*
X5222519Y-5620784D02*
X5251090Y-5620784D01*
X5251090Y-5620784D02*
X5270138Y-5630308D01*
X5270138Y-5630308D02*
X5279662Y-5649356D01*
X5279662Y-5649356D02*
X5279662Y-5754117D01*
X5279662Y-5649356D02*
X5289186Y-5630308D01*
X5289186Y-5630308D02*
X5308233Y-5620784D01*
X5308233Y-5620784D02*
X5336805Y-5620784D01*
X5336805Y-5620784D02*
X5355852Y-5630308D01*
X5355852Y-5630308D02*
X5365376Y-5649356D01*
X5365376Y-5649356D02*
X5365376Y-5754117D01*
X5460614Y-5754117D02*
X5460614Y-5620784D01*
X5460614Y-5639832D02*
X5470138Y-5630308D01*
X5470138Y-5630308D02*
X5489186Y-5620784D01*
X5489186Y-5620784D02*
X5517757Y-5620784D01*
X5517757Y-5620784D02*
X5536805Y-5630308D01*
X5536805Y-5630308D02*
X5546329Y-5649356D01*
X5546329Y-5649356D02*
X5546329Y-5754117D01*
X5546329Y-5649356D02*
X5555852Y-5630308D01*
X5555852Y-5630308D02*
X5574900Y-5620784D01*
X5574900Y-5620784D02*
X5603471Y-5620784D01*
X5603471Y-5620784D02*
X5622519Y-5630308D01*
X5622519Y-5630308D02*
X5632043Y-5649356D01*
X5632043Y-5649356D02*
X5632043Y-5754117D01*
X6022519Y-5544594D02*
X5851090Y-5801736D01*
X6279662Y-5554118D02*
X6298710Y-5554118D01*
X6298710Y-5554118D02*
X6317757Y-5563641D01*
X6317757Y-5563641D02*
X6327281Y-5573165D01*
X6327281Y-5573165D02*
X6336805Y-5592213D01*
X6336805Y-5592213D02*
X6346329Y-5630308D01*
X6346329Y-5630308D02*
X6346329Y-5677927D01*
X6346329Y-5677927D02*
X6336805Y-5716022D01*
X6336805Y-5716022D02*
X6327281Y-5735070D01*
X6327281Y-5735070D02*
X6317757Y-5744594D01*
X6317757Y-5744594D02*
X6298710Y-5754117D01*
X6298710Y-5754117D02*
X6279662Y-5754117D01*
X6279662Y-5754117D02*
X6260614Y-5744594D01*
X6260614Y-5744594D02*
X6251090Y-5735070D01*
X6251090Y-5735070D02*
X6241567Y-5716022D01*
X6241567Y-5716022D02*
X6232043Y-5677927D01*
X6232043Y-5677927D02*
X6232043Y-5630308D01*
X6232043Y-5630308D02*
X6241567Y-5592213D01*
X6241567Y-5592213D02*
X6251090Y-5573165D01*
X6251090Y-5573165D02*
X6260614Y-5563641D01*
X6260614Y-5563641D02*
X6279662Y-5554118D01*
X6432043Y-5735070D02*
X6441567Y-5744594D01*
X6441567Y-5744594D02*
X6432043Y-5754117D01*
X6432043Y-5754117D02*
X6422519Y-5744594D01*
X6422519Y-5744594D02*
X6432043Y-5735070D01*
X6432043Y-5735070D02*
X6432043Y-5754117D01*
X6565376Y-5554118D02*
X6584424Y-5554118D01*
X6584424Y-5554118D02*
X6603471Y-5563641D01*
X6603471Y-5563641D02*
X6612995Y-5573165D01*
X6612995Y-5573165D02*
X6622519Y-5592213D01*
X6622519Y-5592213D02*
X6632043Y-5630308D01*
X6632043Y-5630308D02*
X6632043Y-5677927D01*
X6632043Y-5677927D02*
X6622519Y-5716022D01*
X6622519Y-5716022D02*
X6612995Y-5735070D01*
X6612995Y-5735070D02*
X6603471Y-5744594D01*
X6603471Y-5744594D02*
X6584424Y-5754117D01*
X6584424Y-5754117D02*
X6565376Y-5754117D01*
X6565376Y-5754117D02*
X6546329Y-5744594D01*
X6546329Y-5744594D02*
X6536805Y-5735070D01*
X6536805Y-5735070D02*
X6527281Y-5716022D01*
X6527281Y-5716022D02*
X6517757Y-5677927D01*
X6517757Y-5677927D02*
X6517757Y-5630308D01*
X6517757Y-5630308D02*
X6527281Y-5592213D01*
X6527281Y-5592213D02*
X6536805Y-5573165D01*
X6536805Y-5573165D02*
X6546329Y-5563641D01*
X6546329Y-5563641D02*
X6565376Y-5554118D01*
X6822519Y-5754117D02*
X6708233Y-5754117D01*
X6765376Y-5754117D02*
X6765376Y-5554118D01*
X6765376Y-5554118D02*
X6746329Y-5582689D01*
X6746329Y-5582689D02*
X6727281Y-5601736D01*
X6727281Y-5601736D02*
X6708233Y-5611260D01*
X7012995Y-5754117D02*
X6898710Y-5754117D01*
X6955852Y-5754117D02*
X6955852Y-5554118D01*
X6955852Y-5554118D02*
X6936805Y-5582689D01*
X6936805Y-5582689D02*
X6917757Y-5601736D01*
X6917757Y-5601736D02*
X6898710Y-5611260D01*
X7127281Y-5639832D02*
X7108233Y-5630308D01*
X7108233Y-5630308D02*
X7098710Y-5620784D01*
X7098710Y-5620784D02*
X7089186Y-5601736D01*
X7089186Y-5601736D02*
X7089186Y-5592213D01*
X7089186Y-5592213D02*
X7098710Y-5573165D01*
X7098710Y-5573165D02*
X7108233Y-5563641D01*
X7108233Y-5563641D02*
X7127281Y-5554118D01*
X7127281Y-5554118D02*
X7165376Y-5554118D01*
X7165376Y-5554118D02*
X7184424Y-5563641D01*
X7184424Y-5563641D02*
X7193948Y-5573165D01*
X7193948Y-5573165D02*
X7203471Y-5592213D01*
X7203471Y-5592213D02*
X7203471Y-5601736D01*
X7203471Y-5601736D02*
X7193948Y-5620784D01*
X7193948Y-5620784D02*
X7184424Y-5630308D01*
X7184424Y-5630308D02*
X7165376Y-5639832D01*
X7165376Y-5639832D02*
X7127281Y-5639832D01*
X7127281Y-5639832D02*
X7108233Y-5649356D01*
X7108233Y-5649356D02*
X7098710Y-5658879D01*
X7098710Y-5658879D02*
X7089186Y-5677927D01*
X7089186Y-5677927D02*
X7089186Y-5716022D01*
X7089186Y-5716022D02*
X7098710Y-5735070D01*
X7098710Y-5735070D02*
X7108233Y-5744594D01*
X7108233Y-5744594D02*
X7127281Y-5754117D01*
X7127281Y-5754117D02*
X7165376Y-5754117D01*
X7165376Y-5754117D02*
X7184424Y-5744594D01*
X7184424Y-5744594D02*
X7193948Y-5735070D01*
X7193948Y-5735070D02*
X7203471Y-5716022D01*
X7203471Y-5716022D02*
X7203471Y-5677927D01*
X7203471Y-5677927D02*
X7193948Y-5658879D01*
X7193948Y-5658879D02*
X7184424Y-5649356D01*
X7184424Y-5649356D02*
X7165376Y-5639832D01*
X7279662Y-5554118D02*
X7279662Y-5592213D01*
X7355852Y-5554118D02*
X7355852Y-5592213D01*
X7651091Y-5830308D02*
X7641567Y-5820784D01*
X7641567Y-5820784D02*
X7622519Y-5792213D01*
X7622519Y-5792213D02*
X7612995Y-5773165D01*
X7612995Y-5773165D02*
X7603472Y-5744594D01*
X7603472Y-5744594D02*
X7593948Y-5696975D01*
X7593948Y-5696975D02*
X7593948Y-5658879D01*
X7593948Y-5658879D02*
X7603472Y-5611260D01*
X7603472Y-5611260D02*
X7612995Y-5582689D01*
X7612995Y-5582689D02*
X7622519Y-5563641D01*
X7622519Y-5563641D02*
X7641567Y-5535070D01*
X7641567Y-5535070D02*
X7651091Y-5525546D01*
X7708233Y-5554118D02*
X7841567Y-5554118D01*
X7841567Y-5554118D02*
X7755852Y-5754117D01*
X8022519Y-5754117D02*
X7908233Y-5754117D01*
X7965376Y-5754117D02*
X7965376Y-5554118D01*
X7965376Y-5554118D02*
X7946329Y-5582689D01*
X7946329Y-5582689D02*
X7927281Y-5601736D01*
X7927281Y-5601736D02*
X7908233Y-5611260D01*
X8260614Y-5754117D02*
X8260614Y-5554118D01*
X8346329Y-5754117D02*
X8346329Y-5649356D01*
X8346329Y-5649356D02*
X8336805Y-5630308D01*
X8336805Y-5630308D02*
X8317757Y-5620784D01*
X8317757Y-5620784D02*
X8289186Y-5620784D01*
X8289186Y-5620784D02*
X8270138Y-5630308D01*
X8270138Y-5630308D02*
X8260614Y-5639832D01*
X8470138Y-5754117D02*
X8451091Y-5744594D01*
X8451091Y-5744594D02*
X8441567Y-5735070D01*
X8441567Y-5735070D02*
X8432043Y-5716022D01*
X8432043Y-5716022D02*
X8432043Y-5658879D01*
X8432043Y-5658879D02*
X8441567Y-5639832D01*
X8441567Y-5639832D02*
X8451091Y-5630308D01*
X8451091Y-5630308D02*
X8470138Y-5620784D01*
X8470138Y-5620784D02*
X8498710Y-5620784D01*
X8498710Y-5620784D02*
X8517757Y-5630308D01*
X8517757Y-5630308D02*
X8527281Y-5639832D01*
X8527281Y-5639832D02*
X8536805Y-5658879D01*
X8536805Y-5658879D02*
X8536805Y-5716022D01*
X8536805Y-5716022D02*
X8527281Y-5735070D01*
X8527281Y-5735070D02*
X8517757Y-5744594D01*
X8517757Y-5744594D02*
X8498710Y-5754117D01*
X8498710Y-5754117D02*
X8470138Y-5754117D01*
X8651091Y-5754117D02*
X8632043Y-5744594D01*
X8632043Y-5744594D02*
X8622519Y-5725546D01*
X8622519Y-5725546D02*
X8622519Y-5554118D01*
X8803472Y-5744594D02*
X8784424Y-5754117D01*
X8784424Y-5754117D02*
X8746329Y-5754117D01*
X8746329Y-5754117D02*
X8727281Y-5744594D01*
X8727281Y-5744594D02*
X8717757Y-5725546D01*
X8717757Y-5725546D02*
X8717757Y-5649356D01*
X8717757Y-5649356D02*
X8727281Y-5630308D01*
X8727281Y-5630308D02*
X8746329Y-5620784D01*
X8746329Y-5620784D02*
X8784424Y-5620784D01*
X8784424Y-5620784D02*
X8803472Y-5630308D01*
X8803472Y-5630308D02*
X8812996Y-5649356D01*
X8812996Y-5649356D02*
X8812996Y-5668403D01*
X8812996Y-5668403D02*
X8717757Y-5687451D01*
X8889186Y-5744594D02*
X8908234Y-5754117D01*
X8908234Y-5754117D02*
X8946329Y-5754117D01*
X8946329Y-5754117D02*
X8965377Y-5744594D01*
X8965377Y-5744594D02*
X8974900Y-5725546D01*
X8974900Y-5725546D02*
X8974900Y-5716022D01*
X8974900Y-5716022D02*
X8965377Y-5696975D01*
X8965377Y-5696975D02*
X8946329Y-5687451D01*
X8946329Y-5687451D02*
X8917757Y-5687451D01*
X8917757Y-5687451D02*
X8898710Y-5677927D01*
X8898710Y-5677927D02*
X8889186Y-5658879D01*
X8889186Y-5658879D02*
X8889186Y-5649356D01*
X8889186Y-5649356D02*
X8898710Y-5630308D01*
X8898710Y-5630308D02*
X8917757Y-5620784D01*
X8917757Y-5620784D02*
X8946329Y-5620784D01*
X8946329Y-5620784D02*
X8965377Y-5630308D01*
X9041567Y-5830308D02*
X9051091Y-5820784D01*
X9051091Y-5820784D02*
X9070138Y-5792213D01*
X9070138Y-5792213D02*
X9079662Y-5773165D01*
X9079662Y-5773165D02*
X9089186Y-5744594D01*
X9089186Y-5744594D02*
X9098710Y-5696975D01*
X9098710Y-5696975D02*
X9098710Y-5658879D01*
X9098710Y-5658879D02*
X9089186Y-5611260D01*
X9089186Y-5611260D02*
X9079662Y-5582689D01*
X9079662Y-5582689D02*
X9070138Y-5563641D01*
X9070138Y-5563641D02*
X9051091Y-5535070D01*
X9051091Y-5535070D02*
X9041567Y-5525546D01*
D12*
X4076028Y-5926634D02*
G75*
G02*
X4036028Y-5926634I-20000J0D01*
G01*
X4036028Y-5926634D02*
G75*
G02*
X4076028Y-5926634I20000J0D01*
G01*
D11*
X4374900Y-5818117D02*
X4393948Y-5818117D01*
X4393948Y-5818117D02*
X4412995Y-5827641D01*
X4412995Y-5827641D02*
X4422519Y-5837165D01*
X4422519Y-5837165D02*
X4432043Y-5856213D01*
X4432043Y-5856213D02*
X4441567Y-5894308D01*
X4441567Y-5894308D02*
X4441567Y-5941927D01*
X4441567Y-5941927D02*
X4432043Y-5980022D01*
X4432043Y-5980022D02*
X4422519Y-5999070D01*
X4422519Y-5999070D02*
X4412995Y-6008594D01*
X4412995Y-6008594D02*
X4393948Y-6018117D01*
X4393948Y-6018117D02*
X4374900Y-6018117D01*
X4374900Y-6018117D02*
X4355852Y-6008594D01*
X4355852Y-6008594D02*
X4346328Y-5999070D01*
X4346328Y-5999070D02*
X4336805Y-5980022D01*
X4336805Y-5980022D02*
X4327281Y-5941927D01*
X4327281Y-5941927D02*
X4327281Y-5894308D01*
X4327281Y-5894308D02*
X4336805Y-5856213D01*
X4336805Y-5856213D02*
X4346328Y-5837165D01*
X4346328Y-5837165D02*
X4355852Y-5827641D01*
X4355852Y-5827641D02*
X4374900Y-5818117D01*
X4527281Y-5999070D02*
X4536805Y-6008594D01*
X4536805Y-6008594D02*
X4527281Y-6018117D01*
X4527281Y-6018117D02*
X4517757Y-6008594D01*
X4517757Y-6008594D02*
X4527281Y-5999070D01*
X4527281Y-5999070D02*
X4527281Y-6018117D01*
X4708233Y-5884784D02*
X4708233Y-6018117D01*
X4660614Y-5808594D02*
X4612995Y-5951451D01*
X4612995Y-5951451D02*
X4736805Y-5951451D01*
X4851090Y-5818117D02*
X4870138Y-5818117D01*
X4870138Y-5818117D02*
X4889186Y-5827641D01*
X4889186Y-5827641D02*
X4898709Y-5837165D01*
X4898709Y-5837165D02*
X4908233Y-5856213D01*
X4908233Y-5856213D02*
X4917757Y-5894308D01*
X4917757Y-5894308D02*
X4917757Y-5941927D01*
X4917757Y-5941927D02*
X4908233Y-5980022D01*
X4908233Y-5980022D02*
X4898709Y-5999070D01*
X4898709Y-5999070D02*
X4889186Y-6008594D01*
X4889186Y-6008594D02*
X4870138Y-6018117D01*
X4870138Y-6018117D02*
X4851090Y-6018117D01*
X4851090Y-6018117D02*
X4832043Y-6008594D01*
X4832043Y-6008594D02*
X4822519Y-5999070D01*
X4822519Y-5999070D02*
X4812995Y-5980022D01*
X4812995Y-5980022D02*
X4803471Y-5941927D01*
X4803471Y-5941927D02*
X4803471Y-5894308D01*
X4803471Y-5894308D02*
X4812995Y-5856213D01*
X4812995Y-5856213D02*
X4822519Y-5837165D01*
X4822519Y-5837165D02*
X4832043Y-5827641D01*
X4832043Y-5827641D02*
X4851090Y-5818117D01*
X5041567Y-5818117D02*
X5060614Y-5818117D01*
X5060614Y-5818117D02*
X5079662Y-5827641D01*
X5079662Y-5827641D02*
X5089186Y-5837165D01*
X5089186Y-5837165D02*
X5098709Y-5856213D01*
X5098709Y-5856213D02*
X5108233Y-5894308D01*
X5108233Y-5894308D02*
X5108233Y-5941927D01*
X5108233Y-5941927D02*
X5098709Y-5980022D01*
X5098709Y-5980022D02*
X5089186Y-5999070D01*
X5089186Y-5999070D02*
X5079662Y-6008594D01*
X5079662Y-6008594D02*
X5060614Y-6018117D01*
X5060614Y-6018117D02*
X5041567Y-6018117D01*
X5041567Y-6018117D02*
X5022519Y-6008594D01*
X5022519Y-6008594D02*
X5012995Y-5999070D01*
X5012995Y-5999070D02*
X5003471Y-5980022D01*
X5003471Y-5980022D02*
X4993948Y-5941927D01*
X4993948Y-5941927D02*
X4993948Y-5894308D01*
X4993948Y-5894308D02*
X5003471Y-5856213D01*
X5003471Y-5856213D02*
X5012995Y-5837165D01*
X5012995Y-5837165D02*
X5022519Y-5827641D01*
X5022519Y-5827641D02*
X5041567Y-5818117D01*
X5193948Y-6018117D02*
X5193948Y-5884784D01*
X5193948Y-5903832D02*
X5203471Y-5894308D01*
X5203471Y-5894308D02*
X5222519Y-5884784D01*
X5222519Y-5884784D02*
X5251090Y-5884784D01*
X5251090Y-5884784D02*
X5270138Y-5894308D01*
X5270138Y-5894308D02*
X5279662Y-5913356D01*
X5279662Y-5913356D02*
X5279662Y-6018117D01*
X5279662Y-5913356D02*
X5289186Y-5894308D01*
X5289186Y-5894308D02*
X5308233Y-5884784D01*
X5308233Y-5884784D02*
X5336805Y-5884784D01*
X5336805Y-5884784D02*
X5355852Y-5894308D01*
X5355852Y-5894308D02*
X5365376Y-5913356D01*
X5365376Y-5913356D02*
X5365376Y-6018117D01*
X5460614Y-6018117D02*
X5460614Y-5884784D01*
X5460614Y-5903832D02*
X5470138Y-5894308D01*
X5470138Y-5894308D02*
X5489186Y-5884784D01*
X5489186Y-5884784D02*
X5517757Y-5884784D01*
X5517757Y-5884784D02*
X5536805Y-5894308D01*
X5536805Y-5894308D02*
X5546329Y-5913356D01*
X5546329Y-5913356D02*
X5546329Y-6018117D01*
X5546329Y-5913356D02*
X5555852Y-5894308D01*
X5555852Y-5894308D02*
X5574900Y-5884784D01*
X5574900Y-5884784D02*
X5603471Y-5884784D01*
X5603471Y-5884784D02*
X5622519Y-5894308D01*
X5622519Y-5894308D02*
X5632043Y-5913356D01*
X5632043Y-5913356D02*
X5632043Y-6018117D01*
X6022519Y-5808594D02*
X5851090Y-6065736D01*
X6279662Y-5818117D02*
X6298710Y-5818117D01*
X6298710Y-5818117D02*
X6317757Y-5827641D01*
X6317757Y-5827641D02*
X6327281Y-5837165D01*
X6327281Y-5837165D02*
X6336805Y-5856213D01*
X6336805Y-5856213D02*
X6346329Y-5894308D01*
X6346329Y-5894308D02*
X6346329Y-5941927D01*
X6346329Y-5941927D02*
X6336805Y-5980022D01*
X6336805Y-5980022D02*
X6327281Y-5999070D01*
X6327281Y-5999070D02*
X6317757Y-6008594D01*
X6317757Y-6008594D02*
X6298710Y-6018117D01*
X6298710Y-6018117D02*
X6279662Y-6018117D01*
X6279662Y-6018117D02*
X6260614Y-6008594D01*
X6260614Y-6008594D02*
X6251090Y-5999070D01*
X6251090Y-5999070D02*
X6241567Y-5980022D01*
X6241567Y-5980022D02*
X6232043Y-5941927D01*
X6232043Y-5941927D02*
X6232043Y-5894308D01*
X6232043Y-5894308D02*
X6241567Y-5856213D01*
X6241567Y-5856213D02*
X6251090Y-5837165D01*
X6251090Y-5837165D02*
X6260614Y-5827641D01*
X6260614Y-5827641D02*
X6279662Y-5818117D01*
X6432043Y-5999070D02*
X6441567Y-6008594D01*
X6441567Y-6008594D02*
X6432043Y-6018117D01*
X6432043Y-6018117D02*
X6422519Y-6008594D01*
X6422519Y-6008594D02*
X6432043Y-5999070D01*
X6432043Y-5999070D02*
X6432043Y-6018117D01*
X6565376Y-5818117D02*
X6584424Y-5818117D01*
X6584424Y-5818117D02*
X6603471Y-5827641D01*
X6603471Y-5827641D02*
X6612995Y-5837165D01*
X6612995Y-5837165D02*
X6622519Y-5856213D01*
X6622519Y-5856213D02*
X6632043Y-5894308D01*
X6632043Y-5894308D02*
X6632043Y-5941927D01*
X6632043Y-5941927D02*
X6622519Y-5980022D01*
X6622519Y-5980022D02*
X6612995Y-5999070D01*
X6612995Y-5999070D02*
X6603471Y-6008594D01*
X6603471Y-6008594D02*
X6584424Y-6018117D01*
X6584424Y-6018117D02*
X6565376Y-6018117D01*
X6565376Y-6018117D02*
X6546329Y-6008594D01*
X6546329Y-6008594D02*
X6536805Y-5999070D01*
X6536805Y-5999070D02*
X6527281Y-5980022D01*
X6527281Y-5980022D02*
X6517757Y-5941927D01*
X6517757Y-5941927D02*
X6517757Y-5894308D01*
X6517757Y-5894308D02*
X6527281Y-5856213D01*
X6527281Y-5856213D02*
X6536805Y-5837165D01*
X6536805Y-5837165D02*
X6546329Y-5827641D01*
X6546329Y-5827641D02*
X6565376Y-5818117D01*
X6822519Y-6018117D02*
X6708233Y-6018117D01*
X6765376Y-6018117D02*
X6765376Y-5818117D01*
X6765376Y-5818117D02*
X6746329Y-5846689D01*
X6746329Y-5846689D02*
X6727281Y-5865736D01*
X6727281Y-5865736D02*
X6708233Y-5875260D01*
X7003471Y-5818117D02*
X6908233Y-5818117D01*
X6908233Y-5818117D02*
X6898710Y-5913356D01*
X6898710Y-5913356D02*
X6908233Y-5903832D01*
X6908233Y-5903832D02*
X6927281Y-5894308D01*
X6927281Y-5894308D02*
X6974900Y-5894308D01*
X6974900Y-5894308D02*
X6993948Y-5903832D01*
X6993948Y-5903832D02*
X7003471Y-5913356D01*
X7003471Y-5913356D02*
X7012995Y-5932403D01*
X7012995Y-5932403D02*
X7012995Y-5980022D01*
X7012995Y-5980022D02*
X7003471Y-5999070D01*
X7003471Y-5999070D02*
X6993948Y-6008594D01*
X6993948Y-6008594D02*
X6974900Y-6018117D01*
X6974900Y-6018117D02*
X6927281Y-6018117D01*
X6927281Y-6018117D02*
X6908233Y-6008594D01*
X6908233Y-6008594D02*
X6898710Y-5999070D01*
X7079662Y-5818117D02*
X7212995Y-5818117D01*
X7212995Y-5818117D02*
X7127281Y-6018117D01*
X7279662Y-5818117D02*
X7279662Y-5856213D01*
X7355852Y-5818117D02*
X7355852Y-5856213D01*
X7651091Y-6094308D02*
X7641567Y-6084784D01*
X7641567Y-6084784D02*
X7622519Y-6056213D01*
X7622519Y-6056213D02*
X7612995Y-6037165D01*
X7612995Y-6037165D02*
X7603472Y-6008594D01*
X7603472Y-6008594D02*
X7593948Y-5960975D01*
X7593948Y-5960975D02*
X7593948Y-5922879D01*
X7593948Y-5922879D02*
X7603472Y-5875260D01*
X7603472Y-5875260D02*
X7612995Y-5846689D01*
X7612995Y-5846689D02*
X7622519Y-5827641D01*
X7622519Y-5827641D02*
X7641567Y-5799070D01*
X7641567Y-5799070D02*
X7651091Y-5789546D01*
X7832043Y-6018117D02*
X7717757Y-6018117D01*
X7774900Y-6018117D02*
X7774900Y-5818117D01*
X7774900Y-5818117D02*
X7755852Y-5846689D01*
X7755852Y-5846689D02*
X7736805Y-5865736D01*
X7736805Y-5865736D02*
X7717757Y-5875260D01*
X7908233Y-5837165D02*
X7917757Y-5827641D01*
X7917757Y-5827641D02*
X7936805Y-5818117D01*
X7936805Y-5818117D02*
X7984424Y-5818117D01*
X7984424Y-5818117D02*
X8003472Y-5827641D01*
X8003472Y-5827641D02*
X8012995Y-5837165D01*
X8012995Y-5837165D02*
X8022519Y-5856213D01*
X8022519Y-5856213D02*
X8022519Y-5875260D01*
X8022519Y-5875260D02*
X8012995Y-5903832D01*
X8012995Y-5903832D02*
X7898710Y-6018117D01*
X7898710Y-6018117D02*
X8022519Y-6018117D01*
X8260614Y-6018117D02*
X8260614Y-5818117D01*
X8346329Y-6018117D02*
X8346329Y-5913356D01*
X8346329Y-5913356D02*
X8336805Y-5894308D01*
X8336805Y-5894308D02*
X8317757Y-5884784D01*
X8317757Y-5884784D02*
X8289186Y-5884784D01*
X8289186Y-5884784D02*
X8270138Y-5894308D01*
X8270138Y-5894308D02*
X8260614Y-5903832D01*
X8470138Y-6018117D02*
X8451091Y-6008594D01*
X8451091Y-6008594D02*
X8441567Y-5999070D01*
X8441567Y-5999070D02*
X8432043Y-5980022D01*
X8432043Y-5980022D02*
X8432043Y-5922879D01*
X8432043Y-5922879D02*
X8441567Y-5903832D01*
X8441567Y-5903832D02*
X8451091Y-5894308D01*
X8451091Y-5894308D02*
X8470138Y-5884784D01*
X8470138Y-5884784D02*
X8498710Y-5884784D01*
X8498710Y-5884784D02*
X8517757Y-5894308D01*
X8517757Y-5894308D02*
X8527281Y-5903832D01*
X8527281Y-5903832D02*
X8536805Y-5922879D01*
X8536805Y-5922879D02*
X8536805Y-5980022D01*
X8536805Y-5980022D02*
X8527281Y-5999070D01*
X8527281Y-5999070D02*
X8517757Y-6008594D01*
X8517757Y-6008594D02*
X8498710Y-6018117D01*
X8498710Y-6018117D02*
X8470138Y-6018117D01*
X8651091Y-6018117D02*
X8632043Y-6008594D01*
X8632043Y-6008594D02*
X8622519Y-5989546D01*
X8622519Y-5989546D02*
X8622519Y-5818117D01*
X8803472Y-6008594D02*
X8784424Y-6018117D01*
X8784424Y-6018117D02*
X8746329Y-6018117D01*
X8746329Y-6018117D02*
X8727281Y-6008594D01*
X8727281Y-6008594D02*
X8717757Y-5989546D01*
X8717757Y-5989546D02*
X8717757Y-5913356D01*
X8717757Y-5913356D02*
X8727281Y-5894308D01*
X8727281Y-5894308D02*
X8746329Y-5884784D01*
X8746329Y-5884784D02*
X8784424Y-5884784D01*
X8784424Y-5884784D02*
X8803472Y-5894308D01*
X8803472Y-5894308D02*
X8812996Y-5913356D01*
X8812996Y-5913356D02*
X8812996Y-5932403D01*
X8812996Y-5932403D02*
X8717757Y-5951451D01*
X8889186Y-6008594D02*
X8908234Y-6018117D01*
X8908234Y-6018117D02*
X8946329Y-6018117D01*
X8946329Y-6018117D02*
X8965377Y-6008594D01*
X8965377Y-6008594D02*
X8974900Y-5989546D01*
X8974900Y-5989546D02*
X8974900Y-5980022D01*
X8974900Y-5980022D02*
X8965377Y-5960975D01*
X8965377Y-5960975D02*
X8946329Y-5951451D01*
X8946329Y-5951451D02*
X8917757Y-5951451D01*
X8917757Y-5951451D02*
X8898710Y-5941927D01*
X8898710Y-5941927D02*
X8889186Y-5922879D01*
X8889186Y-5922879D02*
X8889186Y-5913356D01*
X8889186Y-5913356D02*
X8898710Y-5894308D01*
X8898710Y-5894308D02*
X8917757Y-5884784D01*
X8917757Y-5884784D02*
X8946329Y-5884784D01*
X8946329Y-5884784D02*
X8965377Y-5894308D01*
X9041567Y-6094308D02*
X9051091Y-6084784D01*
X9051091Y-6084784D02*
X9070138Y-6056213D01*
X9070138Y-6056213D02*
X9079662Y-6037165D01*
X9079662Y-6037165D02*
X9089186Y-6008594D01*
X9089186Y-6008594D02*
X9098710Y-5960975D01*
X9098710Y-5960975D02*
X9098710Y-5922879D01*
X9098710Y-5922879D02*
X9089186Y-5875260D01*
X9089186Y-5875260D02*
X9079662Y-5846689D01*
X9079662Y-5846689D02*
X9070138Y-5827641D01*
X9070138Y-5827641D02*
X9051091Y-5799070D01*
X9051091Y-5799070D02*
X9041567Y-5789546D01*
D12*
X4051028Y-6165634D02*
X4051028Y-6215634D01*
X4026028Y-6190634D02*
X4076028Y-6190634D01*
D11*
X4374900Y-6082117D02*
X4393948Y-6082117D01*
X4393948Y-6082117D02*
X4412995Y-6091641D01*
X4412995Y-6091641D02*
X4422519Y-6101165D01*
X4422519Y-6101165D02*
X4432043Y-6120213D01*
X4432043Y-6120213D02*
X4441567Y-6158308D01*
X4441567Y-6158308D02*
X4441567Y-6205927D01*
X4441567Y-6205927D02*
X4432043Y-6244022D01*
X4432043Y-6244022D02*
X4422519Y-6263070D01*
X4422519Y-6263070D02*
X4412995Y-6272594D01*
X4412995Y-6272594D02*
X4393948Y-6282117D01*
X4393948Y-6282117D02*
X4374900Y-6282117D01*
X4374900Y-6282117D02*
X4355852Y-6272594D01*
X4355852Y-6272594D02*
X4346328Y-6263070D01*
X4346328Y-6263070D02*
X4336805Y-6244022D01*
X4336805Y-6244022D02*
X4327281Y-6205927D01*
X4327281Y-6205927D02*
X4327281Y-6158308D01*
X4327281Y-6158308D02*
X4336805Y-6120213D01*
X4336805Y-6120213D02*
X4346328Y-6101165D01*
X4346328Y-6101165D02*
X4355852Y-6091641D01*
X4355852Y-6091641D02*
X4374900Y-6082117D01*
X4527281Y-6263070D02*
X4536805Y-6272594D01*
X4536805Y-6272594D02*
X4527281Y-6282117D01*
X4527281Y-6282117D02*
X4517757Y-6272594D01*
X4517757Y-6272594D02*
X4527281Y-6263070D01*
X4527281Y-6263070D02*
X4527281Y-6282117D01*
X4717757Y-6082117D02*
X4622519Y-6082117D01*
X4622519Y-6082117D02*
X4612995Y-6177356D01*
X4612995Y-6177356D02*
X4622519Y-6167832D01*
X4622519Y-6167832D02*
X4641567Y-6158308D01*
X4641567Y-6158308D02*
X4689186Y-6158308D01*
X4689186Y-6158308D02*
X4708233Y-6167832D01*
X4708233Y-6167832D02*
X4717757Y-6177356D01*
X4717757Y-6177356D02*
X4727281Y-6196403D01*
X4727281Y-6196403D02*
X4727281Y-6244022D01*
X4727281Y-6244022D02*
X4717757Y-6263070D01*
X4717757Y-6263070D02*
X4708233Y-6272594D01*
X4708233Y-6272594D02*
X4689186Y-6282117D01*
X4689186Y-6282117D02*
X4641567Y-6282117D01*
X4641567Y-6282117D02*
X4622519Y-6272594D01*
X4622519Y-6272594D02*
X4612995Y-6263070D01*
X4851090Y-6082117D02*
X4870138Y-6082117D01*
X4870138Y-6082117D02*
X4889186Y-6091641D01*
X4889186Y-6091641D02*
X4898709Y-6101165D01*
X4898709Y-6101165D02*
X4908233Y-6120213D01*
X4908233Y-6120213D02*
X4917757Y-6158308D01*
X4917757Y-6158308D02*
X4917757Y-6205927D01*
X4917757Y-6205927D02*
X4908233Y-6244022D01*
X4908233Y-6244022D02*
X4898709Y-6263070D01*
X4898709Y-6263070D02*
X4889186Y-6272594D01*
X4889186Y-6272594D02*
X4870138Y-6282117D01*
X4870138Y-6282117D02*
X4851090Y-6282117D01*
X4851090Y-6282117D02*
X4832043Y-6272594D01*
X4832043Y-6272594D02*
X4822519Y-6263070D01*
X4822519Y-6263070D02*
X4812995Y-6244022D01*
X4812995Y-6244022D02*
X4803471Y-6205927D01*
X4803471Y-6205927D02*
X4803471Y-6158308D01*
X4803471Y-6158308D02*
X4812995Y-6120213D01*
X4812995Y-6120213D02*
X4822519Y-6101165D01*
X4822519Y-6101165D02*
X4832043Y-6091641D01*
X4832043Y-6091641D02*
X4851090Y-6082117D01*
X5041567Y-6082117D02*
X5060614Y-6082117D01*
X5060614Y-6082117D02*
X5079662Y-6091641D01*
X5079662Y-6091641D02*
X5089186Y-6101165D01*
X5089186Y-6101165D02*
X5098709Y-6120213D01*
X5098709Y-6120213D02*
X5108233Y-6158308D01*
X5108233Y-6158308D02*
X5108233Y-6205927D01*
X5108233Y-6205927D02*
X5098709Y-6244022D01*
X5098709Y-6244022D02*
X5089186Y-6263070D01*
X5089186Y-6263070D02*
X5079662Y-6272594D01*
X5079662Y-6272594D02*
X5060614Y-6282117D01*
X5060614Y-6282117D02*
X5041567Y-6282117D01*
X5041567Y-6282117D02*
X5022519Y-6272594D01*
X5022519Y-6272594D02*
X5012995Y-6263070D01*
X5012995Y-6263070D02*
X5003471Y-6244022D01*
X5003471Y-6244022D02*
X4993948Y-6205927D01*
X4993948Y-6205927D02*
X4993948Y-6158308D01*
X4993948Y-6158308D02*
X5003471Y-6120213D01*
X5003471Y-6120213D02*
X5012995Y-6101165D01*
X5012995Y-6101165D02*
X5022519Y-6091641D01*
X5022519Y-6091641D02*
X5041567Y-6082117D01*
X5193948Y-6282117D02*
X5193948Y-6148784D01*
X5193948Y-6167832D02*
X5203471Y-6158308D01*
X5203471Y-6158308D02*
X5222519Y-6148784D01*
X5222519Y-6148784D02*
X5251090Y-6148784D01*
X5251090Y-6148784D02*
X5270138Y-6158308D01*
X5270138Y-6158308D02*
X5279662Y-6177356D01*
X5279662Y-6177356D02*
X5279662Y-6282117D01*
X5279662Y-6177356D02*
X5289186Y-6158308D01*
X5289186Y-6158308D02*
X5308233Y-6148784D01*
X5308233Y-6148784D02*
X5336805Y-6148784D01*
X5336805Y-6148784D02*
X5355852Y-6158308D01*
X5355852Y-6158308D02*
X5365376Y-6177356D01*
X5365376Y-6177356D02*
X5365376Y-6282117D01*
X5460614Y-6282117D02*
X5460614Y-6148784D01*
X5460614Y-6167832D02*
X5470138Y-6158308D01*
X5470138Y-6158308D02*
X5489186Y-6148784D01*
X5489186Y-6148784D02*
X5517757Y-6148784D01*
X5517757Y-6148784D02*
X5536805Y-6158308D01*
X5536805Y-6158308D02*
X5546329Y-6177356D01*
X5546329Y-6177356D02*
X5546329Y-6282117D01*
X5546329Y-6177356D02*
X5555852Y-6158308D01*
X5555852Y-6158308D02*
X5574900Y-6148784D01*
X5574900Y-6148784D02*
X5603471Y-6148784D01*
X5603471Y-6148784D02*
X5622519Y-6158308D01*
X5622519Y-6158308D02*
X5632043Y-6177356D01*
X5632043Y-6177356D02*
X5632043Y-6282117D01*
X6022519Y-6072594D02*
X5851090Y-6329736D01*
X6279662Y-6082117D02*
X6298710Y-6082117D01*
X6298710Y-6082117D02*
X6317757Y-6091641D01*
X6317757Y-6091641D02*
X6327281Y-6101165D01*
X6327281Y-6101165D02*
X6336805Y-6120213D01*
X6336805Y-6120213D02*
X6346329Y-6158308D01*
X6346329Y-6158308D02*
X6346329Y-6205927D01*
X6346329Y-6205927D02*
X6336805Y-6244022D01*
X6336805Y-6244022D02*
X6327281Y-6263070D01*
X6327281Y-6263070D02*
X6317757Y-6272594D01*
X6317757Y-6272594D02*
X6298710Y-6282117D01*
X6298710Y-6282117D02*
X6279662Y-6282117D01*
X6279662Y-6282117D02*
X6260614Y-6272594D01*
X6260614Y-6272594D02*
X6251090Y-6263070D01*
X6251090Y-6263070D02*
X6241567Y-6244022D01*
X6241567Y-6244022D02*
X6232043Y-6205927D01*
X6232043Y-6205927D02*
X6232043Y-6158308D01*
X6232043Y-6158308D02*
X6241567Y-6120213D01*
X6241567Y-6120213D02*
X6251090Y-6101165D01*
X6251090Y-6101165D02*
X6260614Y-6091641D01*
X6260614Y-6091641D02*
X6279662Y-6082117D01*
X6432043Y-6263070D02*
X6441567Y-6272594D01*
X6441567Y-6272594D02*
X6432043Y-6282117D01*
X6432043Y-6282117D02*
X6422519Y-6272594D01*
X6422519Y-6272594D02*
X6432043Y-6263070D01*
X6432043Y-6263070D02*
X6432043Y-6282117D01*
X6565376Y-6082117D02*
X6584424Y-6082117D01*
X6584424Y-6082117D02*
X6603471Y-6091641D01*
X6603471Y-6091641D02*
X6612995Y-6101165D01*
X6612995Y-6101165D02*
X6622519Y-6120213D01*
X6622519Y-6120213D02*
X6632043Y-6158308D01*
X6632043Y-6158308D02*
X6632043Y-6205927D01*
X6632043Y-6205927D02*
X6622519Y-6244022D01*
X6622519Y-6244022D02*
X6612995Y-6263070D01*
X6612995Y-6263070D02*
X6603471Y-6272594D01*
X6603471Y-6272594D02*
X6584424Y-6282117D01*
X6584424Y-6282117D02*
X6565376Y-6282117D01*
X6565376Y-6282117D02*
X6546329Y-6272594D01*
X6546329Y-6272594D02*
X6536805Y-6263070D01*
X6536805Y-6263070D02*
X6527281Y-6244022D01*
X6527281Y-6244022D02*
X6517757Y-6205927D01*
X6517757Y-6205927D02*
X6517757Y-6158308D01*
X6517757Y-6158308D02*
X6527281Y-6120213D01*
X6527281Y-6120213D02*
X6536805Y-6101165D01*
X6536805Y-6101165D02*
X6546329Y-6091641D01*
X6546329Y-6091641D02*
X6565376Y-6082117D01*
X6822519Y-6282117D02*
X6708233Y-6282117D01*
X6765376Y-6282117D02*
X6765376Y-6082117D01*
X6765376Y-6082117D02*
X6746329Y-6110689D01*
X6746329Y-6110689D02*
X6727281Y-6129736D01*
X6727281Y-6129736D02*
X6708233Y-6139260D01*
X6917757Y-6282117D02*
X6955852Y-6282117D01*
X6955852Y-6282117D02*
X6974900Y-6272594D01*
X6974900Y-6272594D02*
X6984424Y-6263070D01*
X6984424Y-6263070D02*
X7003471Y-6234498D01*
X7003471Y-6234498D02*
X7012995Y-6196403D01*
X7012995Y-6196403D02*
X7012995Y-6120213D01*
X7012995Y-6120213D02*
X7003471Y-6101165D01*
X7003471Y-6101165D02*
X6993948Y-6091641D01*
X6993948Y-6091641D02*
X6974900Y-6082117D01*
X6974900Y-6082117D02*
X6936805Y-6082117D01*
X6936805Y-6082117D02*
X6917757Y-6091641D01*
X6917757Y-6091641D02*
X6908233Y-6101165D01*
X6908233Y-6101165D02*
X6898710Y-6120213D01*
X6898710Y-6120213D02*
X6898710Y-6167832D01*
X6898710Y-6167832D02*
X6908233Y-6186879D01*
X6908233Y-6186879D02*
X6917757Y-6196403D01*
X6917757Y-6196403D02*
X6936805Y-6205927D01*
X6936805Y-6205927D02*
X6974900Y-6205927D01*
X6974900Y-6205927D02*
X6993948Y-6196403D01*
X6993948Y-6196403D02*
X7003471Y-6186879D01*
X7003471Y-6186879D02*
X7012995Y-6167832D01*
X7079662Y-6082117D02*
X7212995Y-6082117D01*
X7212995Y-6082117D02*
X7127281Y-6282117D01*
X7279662Y-6082117D02*
X7279662Y-6120213D01*
X7355852Y-6082117D02*
X7355852Y-6120213D01*
X7651091Y-6358308D02*
X7641567Y-6348784D01*
X7641567Y-6348784D02*
X7622519Y-6320213D01*
X7622519Y-6320213D02*
X7612995Y-6301165D01*
X7612995Y-6301165D02*
X7603472Y-6272594D01*
X7603472Y-6272594D02*
X7593948Y-6224975D01*
X7593948Y-6224975D02*
X7593948Y-6186879D01*
X7593948Y-6186879D02*
X7603472Y-6139260D01*
X7603472Y-6139260D02*
X7612995Y-6110689D01*
X7612995Y-6110689D02*
X7622519Y-6091641D01*
X7622519Y-6091641D02*
X7641567Y-6063070D01*
X7641567Y-6063070D02*
X7651091Y-6053546D01*
X7765376Y-6082117D02*
X7784424Y-6082117D01*
X7784424Y-6082117D02*
X7803472Y-6091641D01*
X7803472Y-6091641D02*
X7812995Y-6101165D01*
X7812995Y-6101165D02*
X7822519Y-6120213D01*
X7822519Y-6120213D02*
X7832043Y-6158308D01*
X7832043Y-6158308D02*
X7832043Y-6205927D01*
X7832043Y-6205927D02*
X7822519Y-6244022D01*
X7822519Y-6244022D02*
X7812995Y-6263070D01*
X7812995Y-6263070D02*
X7803472Y-6272594D01*
X7803472Y-6272594D02*
X7784424Y-6282117D01*
X7784424Y-6282117D02*
X7765376Y-6282117D01*
X7765376Y-6282117D02*
X7746329Y-6272594D01*
X7746329Y-6272594D02*
X7736805Y-6263070D01*
X7736805Y-6263070D02*
X7727281Y-6244022D01*
X7727281Y-6244022D02*
X7717757Y-6205927D01*
X7717757Y-6205927D02*
X7717757Y-6158308D01*
X7717757Y-6158308D02*
X7727281Y-6120213D01*
X7727281Y-6120213D02*
X7736805Y-6101165D01*
X7736805Y-6101165D02*
X7746329Y-6091641D01*
X7746329Y-6091641D02*
X7765376Y-6082117D01*
X8070138Y-6282117D02*
X8070138Y-6082117D01*
X8155853Y-6282117D02*
X8155853Y-6177356D01*
X8155853Y-6177356D02*
X8146329Y-6158308D01*
X8146329Y-6158308D02*
X8127281Y-6148784D01*
X8127281Y-6148784D02*
X8098710Y-6148784D01*
X8098710Y-6148784D02*
X8079662Y-6158308D01*
X8079662Y-6158308D02*
X8070138Y-6167832D01*
X8279662Y-6282117D02*
X8260614Y-6272594D01*
X8260614Y-6272594D02*
X8251091Y-6263070D01*
X8251091Y-6263070D02*
X8241567Y-6244022D01*
X8241567Y-6244022D02*
X8241567Y-6186879D01*
X8241567Y-6186879D02*
X8251091Y-6167832D01*
X8251091Y-6167832D02*
X8260614Y-6158308D01*
X8260614Y-6158308D02*
X8279662Y-6148784D01*
X8279662Y-6148784D02*
X8308234Y-6148784D01*
X8308234Y-6148784D02*
X8327281Y-6158308D01*
X8327281Y-6158308D02*
X8336805Y-6167832D01*
X8336805Y-6167832D02*
X8346329Y-6186879D01*
X8346329Y-6186879D02*
X8346329Y-6244022D01*
X8346329Y-6244022D02*
X8336805Y-6263070D01*
X8336805Y-6263070D02*
X8327281Y-6272594D01*
X8327281Y-6272594D02*
X8308234Y-6282117D01*
X8308234Y-6282117D02*
X8279662Y-6282117D01*
X8460615Y-6282117D02*
X8441567Y-6272594D01*
X8441567Y-6272594D02*
X8432043Y-6253546D01*
X8432043Y-6253546D02*
X8432043Y-6082117D01*
X8612996Y-6272594D02*
X8593948Y-6282117D01*
X8593948Y-6282117D02*
X8555853Y-6282117D01*
X8555853Y-6282117D02*
X8536805Y-6272594D01*
X8536805Y-6272594D02*
X8527281Y-6253546D01*
X8527281Y-6253546D02*
X8527281Y-6177356D01*
X8527281Y-6177356D02*
X8536805Y-6158308D01*
X8536805Y-6158308D02*
X8555853Y-6148784D01*
X8555853Y-6148784D02*
X8593948Y-6148784D01*
X8593948Y-6148784D02*
X8612996Y-6158308D01*
X8612996Y-6158308D02*
X8622519Y-6177356D01*
X8622519Y-6177356D02*
X8622519Y-6196403D01*
X8622519Y-6196403D02*
X8527281Y-6215451D01*
X8698710Y-6272594D02*
X8717757Y-6282117D01*
X8717757Y-6282117D02*
X8755853Y-6282117D01*
X8755853Y-6282117D02*
X8774900Y-6272594D01*
X8774900Y-6272594D02*
X8784424Y-6253546D01*
X8784424Y-6253546D02*
X8784424Y-6244022D01*
X8784424Y-6244022D02*
X8774900Y-6224975D01*
X8774900Y-6224975D02*
X8755853Y-6215451D01*
X8755853Y-6215451D02*
X8727281Y-6215451D01*
X8727281Y-6215451D02*
X8708234Y-6205927D01*
X8708234Y-6205927D02*
X8698710Y-6186879D01*
X8698710Y-6186879D02*
X8698710Y-6177356D01*
X8698710Y-6177356D02*
X8708234Y-6158308D01*
X8708234Y-6158308D02*
X8727281Y-6148784D01*
X8727281Y-6148784D02*
X8755853Y-6148784D01*
X8755853Y-6148784D02*
X8774900Y-6158308D01*
X9022519Y-6205927D02*
X9174900Y-6205927D01*
X9098710Y-6282117D02*
X9098710Y-6129736D01*
X9508234Y-6148784D02*
X9508234Y-6282117D01*
X9460615Y-6072594D02*
X9412996Y-6215451D01*
X9412996Y-6215451D02*
X9536805Y-6215451D01*
X9755853Y-6272594D02*
X9774900Y-6282117D01*
X9774900Y-6282117D02*
X9812996Y-6282117D01*
X9812996Y-6282117D02*
X9832043Y-6272594D01*
X9832043Y-6272594D02*
X9841567Y-6253546D01*
X9841567Y-6253546D02*
X9841567Y-6244022D01*
X9841567Y-6244022D02*
X9832043Y-6224975D01*
X9832043Y-6224975D02*
X9812996Y-6215451D01*
X9812996Y-6215451D02*
X9784424Y-6215451D01*
X9784424Y-6215451D02*
X9765377Y-6205927D01*
X9765377Y-6205927D02*
X9755853Y-6186879D01*
X9755853Y-6186879D02*
X9755853Y-6177356D01*
X9755853Y-6177356D02*
X9765377Y-6158308D01*
X9765377Y-6158308D02*
X9784424Y-6148784D01*
X9784424Y-6148784D02*
X9812996Y-6148784D01*
X9812996Y-6148784D02*
X9832043Y-6158308D01*
X9955853Y-6282117D02*
X9936805Y-6272594D01*
X9936805Y-6272594D02*
X9927281Y-6253546D01*
X9927281Y-6253546D02*
X9927281Y-6082117D01*
X10060615Y-6282117D02*
X10041567Y-6272594D01*
X10041567Y-6272594D02*
X10032043Y-6263070D01*
X10032043Y-6263070D02*
X10022520Y-6244022D01*
X10022520Y-6244022D02*
X10022520Y-6186879D01*
X10022520Y-6186879D02*
X10032043Y-6167832D01*
X10032043Y-6167832D02*
X10041567Y-6158308D01*
X10041567Y-6158308D02*
X10060615Y-6148784D01*
X10060615Y-6148784D02*
X10089186Y-6148784D01*
X10089186Y-6148784D02*
X10108234Y-6158308D01*
X10108234Y-6158308D02*
X10117758Y-6167832D01*
X10117758Y-6167832D02*
X10127281Y-6186879D01*
X10127281Y-6186879D02*
X10127281Y-6244022D01*
X10127281Y-6244022D02*
X10117758Y-6263070D01*
X10117758Y-6263070D02*
X10108234Y-6272594D01*
X10108234Y-6272594D02*
X10089186Y-6282117D01*
X10089186Y-6282117D02*
X10060615Y-6282117D01*
X10184424Y-6148784D02*
X10260615Y-6148784D01*
X10212996Y-6082117D02*
X10212996Y-6253546D01*
X10212996Y-6253546D02*
X10222520Y-6272594D01*
X10222520Y-6272594D02*
X10241567Y-6282117D01*
X10241567Y-6282117D02*
X10260615Y-6282117D01*
X10317758Y-6272594D02*
X10336805Y-6282117D01*
X10336805Y-6282117D02*
X10374900Y-6282117D01*
X10374900Y-6282117D02*
X10393948Y-6272594D01*
X10393948Y-6272594D02*
X10403472Y-6253546D01*
X10403472Y-6253546D02*
X10403472Y-6244022D01*
X10403472Y-6244022D02*
X10393948Y-6224975D01*
X10393948Y-6224975D02*
X10374900Y-6215451D01*
X10374900Y-6215451D02*
X10346329Y-6215451D01*
X10346329Y-6215451D02*
X10327281Y-6205927D01*
X10327281Y-6205927D02*
X10317758Y-6186879D01*
X10317758Y-6186879D02*
X10317758Y-6177356D01*
X10317758Y-6177356D02*
X10327281Y-6158308D01*
X10327281Y-6158308D02*
X10346329Y-6148784D01*
X10346329Y-6148784D02*
X10374900Y-6148784D01*
X10374900Y-6148784D02*
X10393948Y-6158308D01*
X10470139Y-6358308D02*
X10479662Y-6348784D01*
X10479662Y-6348784D02*
X10498710Y-6320213D01*
X10498710Y-6320213D02*
X10508234Y-6301165D01*
X10508234Y-6301165D02*
X10517758Y-6272594D01*
X10517758Y-6272594D02*
X10527281Y-6224975D01*
X10527281Y-6224975D02*
X10527281Y-6186879D01*
X10527281Y-6186879D02*
X10517758Y-6139260D01*
X10517758Y-6139260D02*
X10508234Y-6110689D01*
X10508234Y-6110689D02*
X10498710Y-6091641D01*
X10498710Y-6091641D02*
X10479662Y-6063070D01*
X10479662Y-6063070D02*
X10470139Y-6053546D01*
D12*
X4065045Y-6481150D02*
X4065045Y-6428117D01*
X4012011Y-6428117D01*
X4012011Y-6481150D01*
X4065045Y-6481150D01*
D11*
X4374900Y-6346117D02*
X4393948Y-6346117D01*
X4393948Y-6346117D02*
X4412995Y-6355641D01*
X4412995Y-6355641D02*
X4422519Y-6365165D01*
X4422519Y-6365165D02*
X4432043Y-6384213D01*
X4432043Y-6384213D02*
X4441567Y-6422308D01*
X4441567Y-6422308D02*
X4441567Y-6469927D01*
X4441567Y-6469927D02*
X4432043Y-6508022D01*
X4432043Y-6508022D02*
X4422519Y-6527070D01*
X4422519Y-6527070D02*
X4412995Y-6536594D01*
X4412995Y-6536594D02*
X4393948Y-6546117D01*
X4393948Y-6546117D02*
X4374900Y-6546117D01*
X4374900Y-6546117D02*
X4355852Y-6536594D01*
X4355852Y-6536594D02*
X4346328Y-6527070D01*
X4346328Y-6527070D02*
X4336805Y-6508022D01*
X4336805Y-6508022D02*
X4327281Y-6469927D01*
X4327281Y-6469927D02*
X4327281Y-6422308D01*
X4327281Y-6422308D02*
X4336805Y-6384213D01*
X4336805Y-6384213D02*
X4346328Y-6365165D01*
X4346328Y-6365165D02*
X4355852Y-6355641D01*
X4355852Y-6355641D02*
X4374900Y-6346117D01*
X4527281Y-6527070D02*
X4536805Y-6536594D01*
X4536805Y-6536594D02*
X4527281Y-6546117D01*
X4527281Y-6546117D02*
X4517757Y-6536594D01*
X4517757Y-6536594D02*
X4527281Y-6527070D01*
X4527281Y-6527070D02*
X4527281Y-6546117D01*
X4603471Y-6346117D02*
X4736805Y-6346117D01*
X4736805Y-6346117D02*
X4651090Y-6546117D01*
X4908233Y-6346117D02*
X4812995Y-6346117D01*
X4812995Y-6346117D02*
X4803471Y-6441356D01*
X4803471Y-6441356D02*
X4812995Y-6431832D01*
X4812995Y-6431832D02*
X4832043Y-6422308D01*
X4832043Y-6422308D02*
X4879662Y-6422308D01*
X4879662Y-6422308D02*
X4898709Y-6431832D01*
X4898709Y-6431832D02*
X4908233Y-6441356D01*
X4908233Y-6441356D02*
X4917757Y-6460403D01*
X4917757Y-6460403D02*
X4917757Y-6508022D01*
X4917757Y-6508022D02*
X4908233Y-6527070D01*
X4908233Y-6527070D02*
X4898709Y-6536594D01*
X4898709Y-6536594D02*
X4879662Y-6546117D01*
X4879662Y-6546117D02*
X4832043Y-6546117D01*
X4832043Y-6546117D02*
X4812995Y-6536594D01*
X4812995Y-6536594D02*
X4803471Y-6527070D01*
X5041567Y-6346117D02*
X5060614Y-6346117D01*
X5060614Y-6346117D02*
X5079662Y-6355641D01*
X5079662Y-6355641D02*
X5089186Y-6365165D01*
X5089186Y-6365165D02*
X5098709Y-6384213D01*
X5098709Y-6384213D02*
X5108233Y-6422308D01*
X5108233Y-6422308D02*
X5108233Y-6469927D01*
X5108233Y-6469927D02*
X5098709Y-6508022D01*
X5098709Y-6508022D02*
X5089186Y-6527070D01*
X5089186Y-6527070D02*
X5079662Y-6536594D01*
X5079662Y-6536594D02*
X5060614Y-6546117D01*
X5060614Y-6546117D02*
X5041567Y-6546117D01*
X5041567Y-6546117D02*
X5022519Y-6536594D01*
X5022519Y-6536594D02*
X5012995Y-6527070D01*
X5012995Y-6527070D02*
X5003471Y-6508022D01*
X5003471Y-6508022D02*
X4993948Y-6469927D01*
X4993948Y-6469927D02*
X4993948Y-6422308D01*
X4993948Y-6422308D02*
X5003471Y-6384213D01*
X5003471Y-6384213D02*
X5012995Y-6365165D01*
X5012995Y-6365165D02*
X5022519Y-6355641D01*
X5022519Y-6355641D02*
X5041567Y-6346117D01*
X5193948Y-6546117D02*
X5193948Y-6412784D01*
X5193948Y-6431832D02*
X5203471Y-6422308D01*
X5203471Y-6422308D02*
X5222519Y-6412784D01*
X5222519Y-6412784D02*
X5251090Y-6412784D01*
X5251090Y-6412784D02*
X5270138Y-6422308D01*
X5270138Y-6422308D02*
X5279662Y-6441356D01*
X5279662Y-6441356D02*
X5279662Y-6546117D01*
X5279662Y-6441356D02*
X5289186Y-6422308D01*
X5289186Y-6422308D02*
X5308233Y-6412784D01*
X5308233Y-6412784D02*
X5336805Y-6412784D01*
X5336805Y-6412784D02*
X5355852Y-6422308D01*
X5355852Y-6422308D02*
X5365376Y-6441356D01*
X5365376Y-6441356D02*
X5365376Y-6546117D01*
X5460614Y-6546117D02*
X5460614Y-6412784D01*
X5460614Y-6431832D02*
X5470138Y-6422308D01*
X5470138Y-6422308D02*
X5489186Y-6412784D01*
X5489186Y-6412784D02*
X5517757Y-6412784D01*
X5517757Y-6412784D02*
X5536805Y-6422308D01*
X5536805Y-6422308D02*
X5546329Y-6441356D01*
X5546329Y-6441356D02*
X5546329Y-6546117D01*
X5546329Y-6441356D02*
X5555852Y-6422308D01*
X5555852Y-6422308D02*
X5574900Y-6412784D01*
X5574900Y-6412784D02*
X5603471Y-6412784D01*
X5603471Y-6412784D02*
X5622519Y-6422308D01*
X5622519Y-6422308D02*
X5632043Y-6441356D01*
X5632043Y-6441356D02*
X5632043Y-6546117D01*
X6022519Y-6336594D02*
X5851090Y-6593736D01*
X6279662Y-6346117D02*
X6298710Y-6346117D01*
X6298710Y-6346117D02*
X6317757Y-6355641D01*
X6317757Y-6355641D02*
X6327281Y-6365165D01*
X6327281Y-6365165D02*
X6336805Y-6384213D01*
X6336805Y-6384213D02*
X6346329Y-6422308D01*
X6346329Y-6422308D02*
X6346329Y-6469927D01*
X6346329Y-6469927D02*
X6336805Y-6508022D01*
X6336805Y-6508022D02*
X6327281Y-6527070D01*
X6327281Y-6527070D02*
X6317757Y-6536594D01*
X6317757Y-6536594D02*
X6298710Y-6546117D01*
X6298710Y-6546117D02*
X6279662Y-6546117D01*
X6279662Y-6546117D02*
X6260614Y-6536594D01*
X6260614Y-6536594D02*
X6251090Y-6527070D01*
X6251090Y-6527070D02*
X6241567Y-6508022D01*
X6241567Y-6508022D02*
X6232043Y-6469927D01*
X6232043Y-6469927D02*
X6232043Y-6422308D01*
X6232043Y-6422308D02*
X6241567Y-6384213D01*
X6241567Y-6384213D02*
X6251090Y-6365165D01*
X6251090Y-6365165D02*
X6260614Y-6355641D01*
X6260614Y-6355641D02*
X6279662Y-6346117D01*
X6432043Y-6527070D02*
X6441567Y-6536594D01*
X6441567Y-6536594D02*
X6432043Y-6546117D01*
X6432043Y-6546117D02*
X6422519Y-6536594D01*
X6422519Y-6536594D02*
X6432043Y-6527070D01*
X6432043Y-6527070D02*
X6432043Y-6546117D01*
X6565376Y-6346117D02*
X6584424Y-6346117D01*
X6584424Y-6346117D02*
X6603471Y-6355641D01*
X6603471Y-6355641D02*
X6612995Y-6365165D01*
X6612995Y-6365165D02*
X6622519Y-6384213D01*
X6622519Y-6384213D02*
X6632043Y-6422308D01*
X6632043Y-6422308D02*
X6632043Y-6469927D01*
X6632043Y-6469927D02*
X6622519Y-6508022D01*
X6622519Y-6508022D02*
X6612995Y-6527070D01*
X6612995Y-6527070D02*
X6603471Y-6536594D01*
X6603471Y-6536594D02*
X6584424Y-6546117D01*
X6584424Y-6546117D02*
X6565376Y-6546117D01*
X6565376Y-6546117D02*
X6546329Y-6536594D01*
X6546329Y-6536594D02*
X6536805Y-6527070D01*
X6536805Y-6527070D02*
X6527281Y-6508022D01*
X6527281Y-6508022D02*
X6517757Y-6469927D01*
X6517757Y-6469927D02*
X6517757Y-6422308D01*
X6517757Y-6422308D02*
X6527281Y-6384213D01*
X6527281Y-6384213D02*
X6536805Y-6365165D01*
X6536805Y-6365165D02*
X6546329Y-6355641D01*
X6546329Y-6355641D02*
X6565376Y-6346117D01*
X6708233Y-6365165D02*
X6717757Y-6355641D01*
X6717757Y-6355641D02*
X6736805Y-6346117D01*
X6736805Y-6346117D02*
X6784424Y-6346117D01*
X6784424Y-6346117D02*
X6803471Y-6355641D01*
X6803471Y-6355641D02*
X6812995Y-6365165D01*
X6812995Y-6365165D02*
X6822519Y-6384213D01*
X6822519Y-6384213D02*
X6822519Y-6403260D01*
X6822519Y-6403260D02*
X6812995Y-6431832D01*
X6812995Y-6431832D02*
X6698710Y-6546117D01*
X6698710Y-6546117D02*
X6822519Y-6546117D01*
X6917757Y-6546117D02*
X6955852Y-6546117D01*
X6955852Y-6546117D02*
X6974900Y-6536594D01*
X6974900Y-6536594D02*
X6984424Y-6527070D01*
X6984424Y-6527070D02*
X7003471Y-6498498D01*
X7003471Y-6498498D02*
X7012995Y-6460403D01*
X7012995Y-6460403D02*
X7012995Y-6384213D01*
X7012995Y-6384213D02*
X7003471Y-6365165D01*
X7003471Y-6365165D02*
X6993948Y-6355641D01*
X6993948Y-6355641D02*
X6974900Y-6346117D01*
X6974900Y-6346117D02*
X6936805Y-6346117D01*
X6936805Y-6346117D02*
X6917757Y-6355641D01*
X6917757Y-6355641D02*
X6908233Y-6365165D01*
X6908233Y-6365165D02*
X6898710Y-6384213D01*
X6898710Y-6384213D02*
X6898710Y-6431832D01*
X6898710Y-6431832D02*
X6908233Y-6450879D01*
X6908233Y-6450879D02*
X6917757Y-6460403D01*
X6917757Y-6460403D02*
X6936805Y-6469927D01*
X6936805Y-6469927D02*
X6974900Y-6469927D01*
X6974900Y-6469927D02*
X6993948Y-6460403D01*
X6993948Y-6460403D02*
X7003471Y-6450879D01*
X7003471Y-6450879D02*
X7012995Y-6431832D01*
X7193948Y-6346117D02*
X7098710Y-6346117D01*
X7098710Y-6346117D02*
X7089186Y-6441356D01*
X7089186Y-6441356D02*
X7098710Y-6431832D01*
X7098710Y-6431832D02*
X7117757Y-6422308D01*
X7117757Y-6422308D02*
X7165376Y-6422308D01*
X7165376Y-6422308D02*
X7184424Y-6431832D01*
X7184424Y-6431832D02*
X7193948Y-6441356D01*
X7193948Y-6441356D02*
X7203471Y-6460403D01*
X7203471Y-6460403D02*
X7203471Y-6508022D01*
X7203471Y-6508022D02*
X7193948Y-6527070D01*
X7193948Y-6527070D02*
X7184424Y-6536594D01*
X7184424Y-6536594D02*
X7165376Y-6546117D01*
X7165376Y-6546117D02*
X7117757Y-6546117D01*
X7117757Y-6546117D02*
X7098710Y-6536594D01*
X7098710Y-6536594D02*
X7089186Y-6527070D01*
X7279662Y-6346117D02*
X7279662Y-6384213D01*
X7355852Y-6346117D02*
X7355852Y-6384213D01*
X7651091Y-6622308D02*
X7641567Y-6612784D01*
X7641567Y-6612784D02*
X7622519Y-6584213D01*
X7622519Y-6584213D02*
X7612995Y-6565165D01*
X7612995Y-6565165D02*
X7603472Y-6536594D01*
X7603472Y-6536594D02*
X7593948Y-6488975D01*
X7593948Y-6488975D02*
X7593948Y-6450879D01*
X7593948Y-6450879D02*
X7603472Y-6403260D01*
X7603472Y-6403260D02*
X7612995Y-6374689D01*
X7612995Y-6374689D02*
X7622519Y-6355641D01*
X7622519Y-6355641D02*
X7641567Y-6327070D01*
X7641567Y-6327070D02*
X7651091Y-6317546D01*
X7717757Y-6365165D02*
X7727281Y-6355641D01*
X7727281Y-6355641D02*
X7746329Y-6346117D01*
X7746329Y-6346117D02*
X7793948Y-6346117D01*
X7793948Y-6346117D02*
X7812995Y-6355641D01*
X7812995Y-6355641D02*
X7822519Y-6365165D01*
X7822519Y-6365165D02*
X7832043Y-6384213D01*
X7832043Y-6384213D02*
X7832043Y-6403260D01*
X7832043Y-6403260D02*
X7822519Y-6431832D01*
X7822519Y-6431832D02*
X7708233Y-6546117D01*
X7708233Y-6546117D02*
X7832043Y-6546117D01*
X8070138Y-6546117D02*
X8070138Y-6346117D01*
X8155853Y-6546117D02*
X8155853Y-6441356D01*
X8155853Y-6441356D02*
X8146329Y-6422308D01*
X8146329Y-6422308D02*
X8127281Y-6412784D01*
X8127281Y-6412784D02*
X8098710Y-6412784D01*
X8098710Y-6412784D02*
X8079662Y-6422308D01*
X8079662Y-6422308D02*
X8070138Y-6431832D01*
X8279662Y-6546117D02*
X8260614Y-6536594D01*
X8260614Y-6536594D02*
X8251091Y-6527070D01*
X8251091Y-6527070D02*
X8241567Y-6508022D01*
X8241567Y-6508022D02*
X8241567Y-6450879D01*
X8241567Y-6450879D02*
X8251091Y-6431832D01*
X8251091Y-6431832D02*
X8260614Y-6422308D01*
X8260614Y-6422308D02*
X8279662Y-6412784D01*
X8279662Y-6412784D02*
X8308234Y-6412784D01*
X8308234Y-6412784D02*
X8327281Y-6422308D01*
X8327281Y-6422308D02*
X8336805Y-6431832D01*
X8336805Y-6431832D02*
X8346329Y-6450879D01*
X8346329Y-6450879D02*
X8346329Y-6508022D01*
X8346329Y-6508022D02*
X8336805Y-6527070D01*
X8336805Y-6527070D02*
X8327281Y-6536594D01*
X8327281Y-6536594D02*
X8308234Y-6546117D01*
X8308234Y-6546117D02*
X8279662Y-6546117D01*
X8460615Y-6546117D02*
X8441567Y-6536594D01*
X8441567Y-6536594D02*
X8432043Y-6517546D01*
X8432043Y-6517546D02*
X8432043Y-6346117D01*
X8612996Y-6536594D02*
X8593948Y-6546117D01*
X8593948Y-6546117D02*
X8555853Y-6546117D01*
X8555853Y-6546117D02*
X8536805Y-6536594D01*
X8536805Y-6536594D02*
X8527281Y-6517546D01*
X8527281Y-6517546D02*
X8527281Y-6441356D01*
X8527281Y-6441356D02*
X8536805Y-6422308D01*
X8536805Y-6422308D02*
X8555853Y-6412784D01*
X8555853Y-6412784D02*
X8593948Y-6412784D01*
X8593948Y-6412784D02*
X8612996Y-6422308D01*
X8612996Y-6422308D02*
X8622519Y-6441356D01*
X8622519Y-6441356D02*
X8622519Y-6460403D01*
X8622519Y-6460403D02*
X8527281Y-6479451D01*
X8698710Y-6536594D02*
X8717757Y-6546117D01*
X8717757Y-6546117D02*
X8755853Y-6546117D01*
X8755853Y-6546117D02*
X8774900Y-6536594D01*
X8774900Y-6536594D02*
X8784424Y-6517546D01*
X8784424Y-6517546D02*
X8784424Y-6508022D01*
X8784424Y-6508022D02*
X8774900Y-6488975D01*
X8774900Y-6488975D02*
X8755853Y-6479451D01*
X8755853Y-6479451D02*
X8727281Y-6479451D01*
X8727281Y-6479451D02*
X8708234Y-6469927D01*
X8708234Y-6469927D02*
X8698710Y-6450879D01*
X8698710Y-6450879D02*
X8698710Y-6441356D01*
X8698710Y-6441356D02*
X8708234Y-6422308D01*
X8708234Y-6422308D02*
X8727281Y-6412784D01*
X8727281Y-6412784D02*
X8755853Y-6412784D01*
X8755853Y-6412784D02*
X8774900Y-6422308D01*
X8851091Y-6622308D02*
X8860615Y-6612784D01*
X8860615Y-6612784D02*
X8879662Y-6584213D01*
X8879662Y-6584213D02*
X8889186Y-6565165D01*
X8889186Y-6565165D02*
X8898710Y-6536594D01*
X8898710Y-6536594D02*
X8908234Y-6488975D01*
X8908234Y-6488975D02*
X8908234Y-6450879D01*
X8908234Y-6450879D02*
X8898710Y-6403260D01*
X8898710Y-6403260D02*
X8889186Y-6374689D01*
X8889186Y-6374689D02*
X8879662Y-6355641D01*
X8879662Y-6355641D02*
X8860615Y-6327070D01*
X8860615Y-6327070D02*
X8851091Y-6317546D01*
M02*
