%TF.GenerationSoftware,KiCad,Pcbnew,9.0.3*%
%TF.CreationDate,2025-09-23T14:50:51-07:00*%
%TF.ProjectId,PGS_USBW_Board,5047535f-5553-4425-975f-426f6172642e,rev?*%
%TF.SameCoordinates,Original*%
%TF.FileFunction,Copper,L1,Top*%
%TF.FilePolarity,Positive*%
%FSLAX46Y46*%
G04 Gerber Fmt 4.6, Leading zero omitted, Abs format (unit mm)*
G04 Created by KiCad (PCBNEW 9.0.3) date 2025-09-23 14:50:51*
%MOMM*%
%LPD*%
G01*
G04 APERTURE LIST*
G04 Aperture macros list*
%AMRoundRect*
0 Rectangle with rounded corners*
0 $1 Rounding radius*
0 $2 $3 $4 $5 $6 $7 $8 $9 X,Y pos of 4 corners*
0 Add a 4 corners polygon primitive as box body*
4,1,4,$2,$3,$4,$5,$6,$7,$8,$9,$2,$3,0*
0 Add four circle primitives for the rounded corners*
1,1,$1+$1,$2,$3*
1,1,$1+$1,$4,$5*
1,1,$1+$1,$6,$7*
1,1,$1+$1,$8,$9*
0 Add four rect primitives between the rounded corners*
20,1,$1+$1,$2,$3,$4,$5,0*
20,1,$1+$1,$4,$5,$6,$7,0*
20,1,$1+$1,$6,$7,$8,$9,0*
20,1,$1+$1,$8,$9,$2,$3,0*%
%AMFreePoly0*
4,1,45,-0.121464,1.703536,-0.120000,1.700000,-0.120000,1.205000,0.120000,1.205000,0.120000,1.700000,0.121464,1.703536,0.125000,1.705000,0.375000,1.705000,0.378536,1.703536,0.380000,1.700000,0.380000,1.205000,0.825000,1.205000,0.828536,1.203536,0.830000,1.200000,0.830000,-1.200000,0.828536,-1.203536,0.825000,-1.205000,0.380000,-1.205000,0.380000,-1.700000,0.378536,-1.703536,
0.375000,-1.705000,0.125000,-1.705000,0.121464,-1.703536,0.120000,-1.700000,0.120000,-1.205000,-0.120000,-1.205000,-0.120000,-1.700000,-0.121464,-1.703536,-0.125000,-1.705000,-0.375000,-1.705000,-0.378536,-1.703536,-0.380000,-1.700000,-0.380000,-1.205000,-0.825000,-1.205000,-0.828536,-1.203536,-0.830000,-1.200000,-0.830000,1.200000,-0.828536,1.203536,-0.825000,1.205000,-0.380000,1.205000,
-0.380000,1.700000,-0.378536,1.703536,-0.375000,1.705000,-0.125000,1.705000,-0.121464,1.703536,-0.121464,1.703536,$1*%
G04 Aperture macros list end*
%TA.AperFunction,SMDPad,CuDef*%
%ADD10RoundRect,0.100000X0.130000X0.100000X-0.130000X0.100000X-0.130000X-0.100000X0.130000X-0.100000X0*%
%TD*%
%TA.AperFunction,SMDPad,CuDef*%
%ADD11RoundRect,0.100000X-0.130000X-0.100000X0.130000X-0.100000X0.130000X0.100000X-0.130000X0.100000X0*%
%TD*%
%TA.AperFunction,SMDPad,CuDef*%
%ADD12C,0.230000*%
%TD*%
%TA.AperFunction,SMDPad,CuDef*%
%ADD13RoundRect,0.100000X0.100000X-0.130000X0.100000X0.130000X-0.100000X0.130000X-0.100000X-0.130000X0*%
%TD*%
%TA.AperFunction,SMDPad,CuDef*%
%ADD14R,2.000000X1.000000*%
%TD*%
%TA.AperFunction,SMDPad,CuDef*%
%ADD15R,1.000000X2.000000*%
%TD*%
%TA.AperFunction,SMDPad,CuDef*%
%ADD16RoundRect,0.100000X0.100000X-0.225000X0.100000X0.225000X-0.100000X0.225000X-0.100000X-0.225000X0*%
%TD*%
%TA.AperFunction,SMDPad,CuDef*%
%ADD17RoundRect,0.218750X-0.256250X0.218750X-0.256250X-0.218750X0.256250X-0.218750X0.256250X0.218750X0*%
%TD*%
%TA.AperFunction,SMDPad,CuDef*%
%ADD18RoundRect,0.250000X-0.475000X0.250000X-0.475000X-0.250000X0.475000X-0.250000X0.475000X0.250000X0*%
%TD*%
%TA.AperFunction,SMDPad,CuDef*%
%ADD19RoundRect,0.250000X-0.250000X0.250000X-0.250000X-0.250000X0.250000X-0.250000X0.250000X0.250000X0*%
%TD*%
%TA.AperFunction,SMDPad,CuDef*%
%ADD20RoundRect,0.250000X0.475000X-0.250000X0.475000X0.250000X-0.475000X0.250000X-0.475000X-0.250000X0*%
%TD*%
%TA.AperFunction,SMDPad,CuDef*%
%ADD21RoundRect,0.093750X0.093750X-0.156250X0.093750X0.156250X-0.093750X0.156250X-0.093750X-0.156250X0*%
%TD*%
%TA.AperFunction,SMDPad,CuDef*%
%ADD22RoundRect,0.075000X0.075000X-0.250000X0.075000X0.250000X-0.075000X0.250000X-0.075000X-0.250000X0*%
%TD*%
%TA.AperFunction,SMDPad,CuDef*%
%ADD23C,0.290000*%
%TD*%
%TA.AperFunction,SMDPad,CuDef*%
%ADD24RoundRect,0.007200X-0.112800X0.292800X-0.112800X-0.292800X0.112800X-0.292800X0.112800X0.292800X0*%
%TD*%
%TA.AperFunction,SMDPad,CuDef*%
%ADD25FreePoly0,270.000000*%
%TD*%
%TA.AperFunction,SMDPad,CuDef*%
%ADD26RoundRect,0.250000X0.250000X-0.250000X0.250000X0.250000X-0.250000X0.250000X-0.250000X-0.250000X0*%
%TD*%
%TA.AperFunction,SMDPad,CuDef*%
%ADD27RoundRect,0.250000X-0.375000X-0.850000X0.375000X-0.850000X0.375000X0.850000X-0.375000X0.850000X0*%
%TD*%
%TA.AperFunction,ComponentPad*%
%ADD28O,0.800000X1.400000*%
%TD*%
%TA.AperFunction,ComponentPad*%
%ADD29C,0.600000*%
%TD*%
%TA.AperFunction,SMDPad,CuDef*%
%ADD30R,0.300000X0.900000*%
%TD*%
%TA.AperFunction,SMDPad,CuDef*%
%ADD31RoundRect,0.250000X0.250000X0.250000X-0.250000X0.250000X-0.250000X-0.250000X0.250000X-0.250000X0*%
%TD*%
%TA.AperFunction,SMDPad,CuDef*%
%ADD32R,0.300000X1.000000*%
%TD*%
%TA.AperFunction,SMDPad,CuDef*%
%ADD33R,2.000000X1.300000*%
%TD*%
%TA.AperFunction,SMDPad,CuDef*%
%ADD34RoundRect,0.250000X0.450000X0.425000X-0.450000X0.425000X-0.450000X-0.425000X0.450000X-0.425000X0*%
%TD*%
%TA.AperFunction,ComponentPad*%
%ADD35RoundRect,0.250000X0.625000X-0.350000X0.625000X0.350000X-0.625000X0.350000X-0.625000X-0.350000X0*%
%TD*%
%TA.AperFunction,ComponentPad*%
%ADD36O,1.750000X1.200000*%
%TD*%
%TA.AperFunction,ViaPad*%
%ADD37C,0.600000*%
%TD*%
%TA.AperFunction,ViaPad*%
%ADD38C,0.650000*%
%TD*%
%TA.AperFunction,ViaPad*%
%ADD39C,1.000000*%
%TD*%
%TA.AperFunction,Conductor*%
%ADD40C,0.200000*%
%TD*%
%TA.AperFunction,Conductor*%
%ADD41C,0.150000*%
%TD*%
%TA.AperFunction,Conductor*%
%ADD42C,0.450000*%
%TD*%
%TA.AperFunction,Conductor*%
%ADD43C,0.342500*%
%TD*%
G04 APERTURE END LIST*
D10*
%TO.P,R13,1*%
%TO.N,Net-(D4-A)*%
X76305091Y-32183329D03*
%TO.P,R13,2*%
%TO.N,GND*%
X75665091Y-32183329D03*
%TD*%
D11*
%TO.P,R3,1*%
%TO.N,+3V3*%
X69330000Y-40500000D03*
%TO.P,R3,2*%
%TO.N,N_LATCH_3.3*%
X69970000Y-40500000D03*
%TD*%
D10*
%TO.P,R4,1*%
%TO.N,+3V3*%
X69315000Y-41275000D03*
%TO.P,R4,2*%
%TO.N,N_CLOCK_3.3*%
X68675000Y-41275000D03*
%TD*%
D12*
%TO.P,U5,A1,/INT*%
%TO.N,unconnected-(U5-{slash}INT-PadA1)*%
X76425001Y-30125000D03*
%TO.P,U5,A2,IN*%
%TO.N,VBUS*%
X76824999Y-30125000D03*
%TO.P,U5,B1,SCL*%
%TO.N,I2C1_SCL*%
X76425000Y-30525000D03*
%TO.P,U5,B2,SYS*%
%TO.N,VBUS_SYS*%
X76825000Y-30525000D03*
%TO.P,U5,C1,SDA*%
%TO.N,I2C1_SDA*%
X76425000Y-30925000D03*
%TO.P,U5,C2,BAT*%
%TO.N,BATTERY_POS*%
X76825000Y-30925000D03*
%TO.P,U5,D1,TS/MR*%
%TO.N,Net-(D4-A)*%
X76425001Y-31325000D03*
%TO.P,U5,D2,GND*%
%TO.N,GND*%
X76824999Y-31325000D03*
%TD*%
D13*
%TO.P,R2,1*%
%TO.N,GND*%
X67975000Y-30215000D03*
%TO.P,R2,2*%
%TO.N,Net-(J2-CC1)*%
X67975000Y-29575000D03*
%TD*%
D14*
%TO.P,P1,A1,GND*%
%TO.N,GND*%
X47750000Y-31375000D03*
%TO.P,P1,A2,NC1*%
%TO.N,unconnected-(P1A-NC1-PadA2)*%
X47750000Y-32875000D03*
%TO.P,P1,A3,SCLK*%
%TO.N,WL_CLK*%
X47750000Y-34375000D03*
%TO.P,P1,A4,GND*%
%TO.N,GND*%
X47750000Y-35875000D03*
%TO.P,P1,A5,DI*%
%TO.N,WL_D*%
X47750000Y-37375000D03*
%TO.P,P1,A6,DO*%
%TO.N,Net-(P1A-DO)*%
X47750000Y-38875000D03*
%TO.P,P1,A7,GND*%
%TO.N,GND*%
X47750000Y-40375000D03*
D15*
%TO.P,P1,B1,GPIO0*%
%TO.N,WL_GP0*%
X50000000Y-41675000D03*
%TO.P,P1,B2,CS*%
%TO.N,WL_CS*%
X51500000Y-41675000D03*
%TO.P,P1,B3,IRQ*%
%TO.N,Net-(P1B-IRQ)*%
X53000000Y-41675000D03*
%TO.P,P1,B4,GND*%
%TO.N,GND*%
X54500000Y-41675000D03*
%TO.P,P1,B5,WLON*%
%TO.N,WL_ON*%
X56000000Y-41675000D03*
%TO.P,P1,B6,BTON*%
X57500000Y-41675000D03*
%TO.P,P1,B7,VDDIO*%
%TO.N,VDDBAT*%
X59000000Y-41675000D03*
D14*
%TO.P,P1,C1,GND*%
%TO.N,GND*%
X61250000Y-40375000D03*
%TO.P,P1,C2,VDDBAT*%
%TO.N,VDDBAT*%
X61250000Y-38875000D03*
%TO.P,P1,C3,GPIO2*%
%TO.N,WL_GP2*%
X61250000Y-37375000D03*
%TO.P,P1,C4,GPIO1*%
%TO.N,WL_GP1*%
X61250000Y-35875000D03*
%TO.P,P1,C5,NC2*%
%TO.N,unconnected-(P1C-NC2-PadC5)*%
X61250000Y-34375000D03*
%TO.P,P1,C6,NC3*%
%TO.N,unconnected-(P1C-NC3-PadC6)*%
X61250000Y-32875000D03*
%TO.P,P1,C7,GND*%
%TO.N,GND*%
X61250000Y-31375000D03*
%TD*%
D16*
%TO.P,Q2,1,S1*%
%TO.N,unconnected-(Q2A-S1-Pad1)*%
X71525000Y-37475000D03*
%TO.P,Q2,2,G1*%
%TO.N,+3V3*%
X72175000Y-37474999D03*
%TO.P,Q2,3,D2*%
%TO.N,N_DATA_3.3*%
X72825000Y-37475000D03*
%TO.P,Q2,4,S2*%
%TO.N,N_DATA_SAFE*%
X72825000Y-35575000D03*
%TO.P,Q2,5,G2*%
%TO.N,+3V3*%
X72175000Y-35575001D03*
%TO.P,Q2,6,D1*%
%TO.N,unconnected-(Q2A-D1-Pad6)*%
X71525000Y-35575000D03*
%TD*%
D17*
%TO.P,L2,1,1*%
%TO.N,+3V3*%
X63375000Y-36387499D03*
%TO.P,L2,2,2*%
%TO.N,VDDBAT*%
X63375000Y-37962501D03*
%TD*%
D10*
%TO.P,R7,1*%
%TO.N,SHARED_PU*%
X69095000Y-35275000D03*
%TO.P,R7,2*%
%TO.N,N_CLOCK_SAFE*%
X68455000Y-35275000D03*
%TD*%
D18*
%TO.P,C2,1*%
%TO.N,GND*%
X79175000Y-28625001D03*
%TO.P,C2,2*%
%TO.N,VBUS_SYS*%
X79175000Y-30524999D03*
%TD*%
D10*
%TO.P,R8,1*%
%TO.N,SHARED_PU*%
X73620000Y-32950000D03*
%TO.P,R8,2*%
%TO.N,N_DATA_SAFE*%
X72980000Y-32950000D03*
%TD*%
D19*
%TO.P,D3,1,K*%
%TO.N,SHARED_PU*%
X75025000Y-33375001D03*
%TO.P,D3,2,A*%
%TO.N,+3V3*%
X75025000Y-35874999D03*
%TD*%
D20*
%TO.P,C4,1*%
%TO.N,+3V3*%
X85200000Y-30199998D03*
%TO.P,C4,2*%
%TO.N,GND*%
X85200000Y-28300000D03*
%TD*%
D10*
%TO.P,R12,1*%
%TO.N,Net-(P1B-IRQ)*%
X51820000Y-43525000D03*
%TO.P,R12,2*%
%TO.N,WL_D*%
X51180000Y-43525000D03*
%TD*%
D21*
%TO.P,U3,1,I/O1*%
%TO.N,N_DATA_SAFE*%
X70900000Y-34200000D03*
D22*
%TO.P,U3,2,GND*%
%TO.N,GND*%
X71437500Y-34275000D03*
D21*
%TO.P,U3,3,I/O2*%
%TO.N,unconnected-(U3-I{slash}O2-Pad3)*%
X71975000Y-34200000D03*
%TO.P,U3,4,I/O2*%
%TO.N,unconnected-(U3-I{slash}O2-Pad4)*%
X71975000Y-32500000D03*
D22*
%TO.P,U3,5,VBUS*%
%TO.N,+3.3V_PRE*%
X71437500Y-32425000D03*
D21*
%TO.P,U3,6,I/O1*%
%TO.N,N_DATA*%
X70900000Y-32500000D03*
%TD*%
D11*
%TO.P,R10,1*%
%TO.N,BAT_LVL*%
X69072800Y-42164000D03*
%TO.P,R10,2*%
%TO.N,BAT_MON_GPIO*%
X69712800Y-42164000D03*
%TD*%
%TO.P,R6,1*%
%TO.N,SHARED_PU*%
X69330000Y-36050000D03*
%TO.P,R6,2*%
%TO.N,N_LATCH_SAFE*%
X69970000Y-36050000D03*
%TD*%
D13*
%TO.P,C7,1*%
%TO.N,VBUS*%
X76001741Y-29191248D03*
%TO.P,C7,2*%
%TO.N,GND*%
X76001741Y-28551248D03*
%TD*%
D23*
%TO.P,IC1,A1,GPOUT*%
%TO.N,BAT_MON_GPIO*%
X78171800Y-42265600D03*
%TO.P,IC1,A2,SDA*%
%TO.N,I2C1_SDA*%
X78171801Y-41765600D03*
%TO.P,IC1,A3,SCL*%
%TO.N,I2C1_SCL*%
X78171800Y-41265600D03*
%TO.P,IC1,B1,BIN*%
%TO.N,Net-(IC1-BIN)*%
X78671800Y-42265599D03*
%TO.P,IC1,B2,VSS_1*%
%TO.N,GND*%
X78671800Y-41765600D03*
%TO.P,IC1,B3,VDD*%
%TO.N,Net-(IC1-VDD)*%
X78671800Y-41265601D03*
%TO.P,IC1,C1,VSS_2*%
%TO.N,GND*%
X79171800Y-42265600D03*
%TO.P,IC1,C2,BAT_1*%
%TO.N,BATTERY_POS*%
X79171799Y-41765600D03*
%TO.P,IC1,C3,BAT_2*%
X79171800Y-41265600D03*
%TD*%
D10*
%TO.P,C3,1*%
%TO.N,GND*%
X82670000Y-34725000D03*
%TO.P,C3,2*%
%TO.N,Net-(U4-EN)*%
X82030000Y-34725000D03*
%TD*%
D13*
%TO.P,C14,1*%
%TO.N,GND*%
X80899000Y-41264800D03*
%TO.P,C14,2*%
%TO.N,BATTERY_POS*%
X80899000Y-40624800D03*
%TD*%
D24*
%TO.P,U4,1,VOUT*%
%TO.N,+3V3*%
X83200000Y-30925000D03*
%TO.P,U4,2,L2*%
%TO.N,Net-(U4-L2)*%
X82700000Y-30925000D03*
%TO.P,U4,3,PGND*%
%TO.N,GND*%
X82200000Y-30925001D03*
%TO.P,U4,4,L1*%
%TO.N,Net-(U4-L1)*%
X81700000Y-30925000D03*
%TO.P,U4,5,VIN*%
%TO.N,VBUS_SYS*%
X81200000Y-30925000D03*
%TO.P,U4,6,EN*%
%TO.N,Net-(U4-EN)*%
X81200000Y-33725000D03*
%TO.P,U4,7,PS/SYNC*%
X81700000Y-33725000D03*
%TO.P,U4,8,VINA*%
X82200000Y-33724999D03*
%TO.P,U4,9,GND*%
%TO.N,GND*%
X82700000Y-33725000D03*
%TO.P,U4,10,FB*%
%TO.N,+3V3*%
X83200000Y-33725000D03*
D25*
%TO.P,U4,11,EP*%
%TO.N,GND*%
X82200000Y-32325000D03*
%TD*%
D10*
%TO.P,R29,1*%
%TO.N,GND*%
X79314000Y-44043600D03*
%TO.P,R29,2*%
%TO.N,Net-(IC1-BIN)*%
X78674000Y-44043600D03*
%TD*%
D21*
%TO.P,U2,1,I/O1*%
%TO.N,N_CLOCK_SAFE*%
X68650000Y-34200000D03*
D22*
%TO.P,U2,2,GND*%
%TO.N,GND*%
X69187500Y-34275000D03*
D21*
%TO.P,U2,3,I/O2*%
%TO.N,N_LATCH_SAFE*%
X69725000Y-34200000D03*
%TO.P,U2,4,I/O2*%
%TO.N,N_LATCH*%
X69725000Y-32500000D03*
D22*
%TO.P,U2,5,VBUS*%
%TO.N,unconnected-(U2-VBUS-Pad5)*%
X69187500Y-32425000D03*
D21*
%TO.P,U2,6,I/O1*%
%TO.N,N_CLOCK*%
X68650000Y-32500000D03*
%TD*%
D10*
%TO.P,R14,1*%
%TO.N,WL_D*%
X63970000Y-40900000D03*
%TO.P,R14,2*%
%TO.N,Net-(P1A-DO)*%
X63330000Y-40900000D03*
%TD*%
D26*
%TO.P,D4,1,K*%
%TO.N,BTN_PWR*%
X77000000Y-35874999D03*
%TO.P,D4,2,A*%
%TO.N,Net-(D4-A)*%
X77000000Y-33375001D03*
%TD*%
D27*
%TO.P,L1,1,1*%
%TO.N,Net-(U4-L1)*%
X81125000Y-28900000D03*
%TO.P,L1,2,2*%
%TO.N,Net-(U4-L2)*%
X83275000Y-28900000D03*
%TD*%
D11*
%TO.P,R9,1*%
%TO.N,VBUS_SYS*%
X80555000Y-34725000D03*
%TO.P,R9,2*%
%TO.N,Net-(U4-EN)*%
X81195000Y-34725000D03*
%TD*%
D10*
%TO.P,C15,1*%
%TO.N,Net-(IC1-VDD)*%
X78679000Y-39497000D03*
%TO.P,C15,2*%
%TO.N,GND*%
X78039000Y-39497000D03*
%TD*%
D11*
%TO.P,R5,1*%
%TO.N,+3V3*%
X71130000Y-39575000D03*
%TO.P,R5,2*%
%TO.N,N_DATA_3.3*%
X71770000Y-39575000D03*
%TD*%
D28*
%TO.P,J2,MH4,MH4*%
%TO.N,GND*%
X71564998Y-19800000D03*
%TO.P,J2,MH3,MH3*%
X62584998Y-19800000D03*
%TO.P,J2,MH2,MH2*%
X62944998Y-24200000D03*
%TO.P,J2,MH1,MH1*%
X71204998Y-24200000D03*
D29*
%TO.P,J2,B12,GND_4*%
X69874998Y-24790000D03*
%TO.P,J2,B11,SSRXP1*%
%TO.N,N_DATA*%
X69474998Y-24090000D03*
%TO.P,J2,B10,SSRXN1*%
%TO.N,N_LATCH*%
X68674998Y-24090000D03*
%TO.P,J2,B9,VBUS_4*%
%TO.N,VBUS*%
X68274998Y-24790000D03*
%TO.P,J2,B8,SBU2*%
%TO.N,unconnected-(J2-SBU2-PadB8)*%
X67874998Y-24090000D03*
%TO.P,J2,B7,DN2*%
%TO.N,D-*%
X67474998Y-24790000D03*
%TO.P,J2,B6,DP2*%
%TO.N,D+*%
X66674998Y-24790000D03*
%TO.P,J2,B5,CC2*%
%TO.N,Net-(J2-CC2)*%
X66274998Y-24090000D03*
%TO.P,J2,B4,VBUS_3*%
%TO.N,VBUS*%
X65874998Y-24790000D03*
%TO.P,J2,B3,SSTXN2*%
%TO.N,N_CLOCK*%
X65474998Y-24090000D03*
%TO.P,J2,B2,SSTXP2*%
%TO.N,+3.3V_PRE*%
X64674998Y-24090000D03*
%TO.P,J2,B1,GND_3*%
%TO.N,GND*%
X64274998Y-24790000D03*
D30*
%TO.P,J2,A12,GND_2*%
X64324998Y-26000000D03*
%TO.P,J2,A11,SSRXP2*%
%TO.N,N_DATA*%
X64824998Y-26000000D03*
%TO.P,J2,A10,SSRXN2*%
%TO.N,N_LATCH*%
X65324998Y-26000000D03*
%TO.P,J2,A9,VBUS_2*%
%TO.N,VBUS*%
X65824998Y-26000000D03*
%TO.P,J2,A8,SBU1*%
%TO.N,unconnected-(J2-SBU1-PadA8)*%
X66324998Y-26000000D03*
%TO.P,J2,A7,DN1*%
%TO.N,D-*%
X66824998Y-26000000D03*
%TO.P,J2,A6,DP1*%
%TO.N,D+*%
X67324998Y-26000000D03*
%TO.P,J2,A5,CC1*%
%TO.N,Net-(J2-CC1)*%
X67824998Y-26000000D03*
%TO.P,J2,A4,VBUS_1*%
%TO.N,VBUS*%
X68324998Y-26000000D03*
%TO.P,J2,A3,SSTXN1*%
%TO.N,N_CLOCK*%
X68824998Y-26000000D03*
%TO.P,J2,A2,SSTXP1*%
%TO.N,+3.3V_PRE*%
X69324998Y-26000000D03*
%TO.P,J2,A1,GND_1*%
%TO.N,GND*%
X69824998Y-26000000D03*
%TD*%
D31*
%TO.P,D1,1,K*%
%TO.N,VBUS_SYS*%
X81999999Y-26500000D03*
%TO.P,D1,2,A*%
%TO.N,+3.3V_PRE*%
X79500001Y-26500000D03*
%TD*%
D21*
%TO.P,U1,1,I/O1*%
%TO.N,SAFE_D+*%
X66387500Y-34200000D03*
D22*
%TO.P,U1,2,GND*%
%TO.N,GND*%
X66925000Y-34275000D03*
D21*
%TO.P,U1,3,I/O2*%
%TO.N,SAFE_D-*%
X67462500Y-34200000D03*
%TO.P,U1,4,I/O2*%
%TO.N,D-*%
X67462500Y-32500000D03*
D22*
%TO.P,U1,5,VBUS*%
%TO.N,VBUS*%
X66925000Y-32425000D03*
D21*
%TO.P,U1,6,I/O1*%
%TO.N,D+*%
X66387500Y-32500000D03*
%TD*%
D13*
%TO.P,R20,1*%
%TO.N,+3V3*%
X75463400Y-42880200D03*
%TO.P,R20,2*%
%TO.N,BAT_MON_GPIO*%
X75463400Y-42240200D03*
%TD*%
D16*
%TO.P,Q1,1,S1*%
%TO.N,N_CLOCK_3.3*%
X68675000Y-39425000D03*
%TO.P,Q1,2,G1*%
%TO.N,+3V3*%
X69325000Y-39424999D03*
%TO.P,Q1,3,D2*%
%TO.N,N_LATCH_3.3*%
X69975000Y-39425000D03*
%TO.P,Q1,4,S2*%
%TO.N,N_LATCH_SAFE*%
X69975000Y-37525000D03*
%TO.P,Q1,5,G2*%
%TO.N,+3V3*%
X69325000Y-37525001D03*
%TO.P,Q1,6,D1*%
%TO.N,N_CLOCK_SAFE*%
X68675000Y-37525000D03*
%TD*%
D32*
%TO.P,J1,1,Pin_1*%
%TO.N,BTN_PWR*%
X59350000Y-44300000D03*
%TO.P,J1,2,Pin_2*%
%TO.N,WL_CS*%
X59850000Y-44300000D03*
%TO.P,J1,3,Pin_3*%
%TO.N,WL_CLK*%
X60350000Y-44300000D03*
%TO.P,J1,4,Pin_4*%
%TO.N,N_CLOCK_3.3*%
X60850000Y-44300000D03*
%TO.P,J1,5,Pin_5*%
%TO.N,N_LATCH_3.3*%
X61350000Y-44300000D03*
%TO.P,J1,6,Pin_6*%
%TO.N,N_DATA_3.3*%
X61850000Y-44300000D03*
%TO.P,J1,7,Pin_7*%
%TO.N,I2C1_SCL*%
X62350000Y-44300000D03*
%TO.P,J1,8,Pin_8*%
%TO.N,I2C1_SDA*%
X62850000Y-44300000D03*
%TO.P,J1,9,Pin_9*%
%TO.N,WL_D*%
X63350000Y-44300000D03*
%TO.P,J1,10,Pin_10*%
%TO.N,WL_ON*%
X63850000Y-44300000D03*
%TO.P,J1,11,Pin_11*%
%TO.N,GND*%
X64350000Y-44300000D03*
%TO.P,J1,12,Pin_12*%
X64850000Y-44300000D03*
%TO.P,J1,13,Pin_13*%
%TO.N,+3V3*%
X65350000Y-44300000D03*
%TO.P,J1,14,Pin_14*%
X65850000Y-44300000D03*
%TO.P,J1,15,Pin_15*%
%TO.N,SAFE_D+*%
X66350000Y-44300000D03*
%TO.P,J1,16,Pin_16*%
%TO.N,SAFE_D-*%
X66850000Y-44300000D03*
%TO.P,J1,17,Pin_17*%
%TO.N,BAT_LVL*%
X67350000Y-44300000D03*
D33*
%TO.P,J1,18*%
%TO.N,N/C*%
X57050000Y-47000000D03*
%TO.P,J1,19*%
X69650000Y-47000000D03*
%TD*%
D11*
%TO.P,R1,1*%
%TO.N,Net-(J2-CC2)*%
X72605000Y-29550000D03*
%TO.P,R1,2*%
%TO.N,GND*%
X73245000Y-29550000D03*
%TD*%
D34*
%TO.P,C1,1*%
%TO.N,+3.3V_PRE*%
X77700000Y-26600000D03*
%TO.P,C1,2*%
%TO.N,GND*%
X75000000Y-26600000D03*
%TD*%
D35*
%TO.P,J4,1,Pin_1*%
%TO.N,GND*%
X89670000Y-41950000D03*
D36*
%TO.P,J4,2,Pin_2*%
%TO.N,BATTERY_POS*%
X89670000Y-39950000D03*
%TD*%
D37*
%TO.N,D-*%
X67253014Y-27863800D03*
%TO.N,N_LATCH_3.3*%
X70307200Y-38633400D03*
X61325000Y-47300000D03*
%TO.N,N_CLOCK_3.3*%
X68497341Y-40450468D03*
X60825000Y-46750000D03*
D38*
%TO.N,+3V3*%
X85200000Y-31730000D03*
D37*
X69325000Y-38455600D03*
D39*
X65000000Y-42100000D03*
D37*
X75075000Y-37250000D03*
D39*
X63400000Y-35025000D03*
D37*
X74574400Y-43027600D03*
D38*
X84620000Y-33090000D03*
D37*
X70942200Y-41325800D03*
%TO.N,WL_CLK*%
X50050000Y-38725000D03*
X60250000Y-41575000D03*
D38*
%TO.N,GND*%
X54990000Y-45880000D03*
X55710000Y-44990000D03*
D37*
X78460600Y-38582600D03*
X81000600Y-42189400D03*
D38*
X45780000Y-40510000D03*
X49740000Y-31600000D03*
X59220000Y-31610000D03*
D37*
X66762050Y-35991800D03*
D38*
X64600000Y-43150000D03*
X49510000Y-39820000D03*
X79450000Y-33520000D03*
D37*
X73530000Y-34140000D03*
D38*
X61240000Y-43030000D03*
X77750000Y-29125000D03*
X54190000Y-45090000D03*
D37*
X77450000Y-32125000D03*
D38*
X74920000Y-27780000D03*
X49440000Y-35950000D03*
D37*
X70630000Y-35310000D03*
D38*
X45930000Y-36090000D03*
X62000000Y-42400000D03*
D37*
X67730000Y-41880000D03*
X74850000Y-32050000D03*
%TO.N,N_DATA_3.3*%
X71775000Y-40513000D03*
X61950000Y-47725000D03*
%TO.N,BTN_PWR*%
X77332536Y-37182766D03*
X59400000Y-45650000D03*
%TO.N,I2C1_SCL*%
X62950000Y-47925000D03*
X77139800Y-41148000D03*
X75200000Y-30575000D03*
%TO.N,WL_D*%
X49525000Y-37375000D03*
X63850000Y-39150000D03*
D38*
X50150000Y-43425000D03*
D37*
%TO.N,I2C1_SDA*%
X74700000Y-31100000D03*
X63025000Y-47175000D03*
X75615800Y-41402000D03*
%TO.N,WL_ON*%
X64625000Y-40225000D03*
X57500000Y-39950000D03*
%TO.N,WL_CS*%
X59825000Y-43150000D03*
X51500000Y-40150000D03*
%TO.N,D+*%
X66497200Y-27863800D03*
%TO.N,+3.3V_PRE*%
X70853300Y-27914600D03*
D38*
X78800000Y-27350000D03*
D37*
%TO.N,N_DATA*%
X64850000Y-30000000D03*
X70249947Y-29710723D03*
%TO.N,N_LATCH*%
X65372391Y-29497588D03*
X69438400Y-29431600D03*
%TO.N,N_CLOCK*%
X68757800Y-29159200D03*
D38*
%TO.N,VBUS_SYS*%
X80550000Y-35525000D03*
X79175000Y-31875000D03*
X83350000Y-26500000D03*
D37*
%TO.N,VBUS*%
X74568199Y-29326195D03*
D38*
X63650000Y-33025000D03*
D37*
X68326000Y-28371800D03*
X65858902Y-28447463D03*
X66929000Y-33350200D03*
%TO.N,SHARED_PU*%
X74135268Y-33319448D03*
X69316600Y-36728400D03*
D38*
%TO.N,Net-(P1A-DO)*%
X63200000Y-39675000D03*
X49375000Y-38175000D03*
%TD*%
D40*
%TO.N,Net-(J2-CC1)*%
X67970400Y-29570400D02*
X67975000Y-29575000D01*
X67970400Y-28879800D02*
X67970400Y-29570400D01*
X67778014Y-28687414D02*
X67970400Y-28879800D01*
X67778014Y-26318108D02*
X67778014Y-28687414D01*
X67824998Y-26271124D02*
X67778014Y-26318108D01*
%TO.N,D-*%
X67474998Y-24807195D02*
X67474998Y-24790000D01*
X66824998Y-25457195D02*
X67474998Y-24807195D01*
X66824998Y-26271124D02*
X66824998Y-25457195D01*
%TO.N,GND*%
X64324998Y-24840000D02*
X64274998Y-24790000D01*
X64324998Y-26000000D02*
X64324998Y-24840000D01*
D41*
%TO.N,Net-(J2-CC2)*%
X72605000Y-28605000D02*
X72605000Y-29550000D01*
X71856600Y-23393400D02*
X71856600Y-27856600D01*
X71856600Y-27856600D02*
X72605000Y-28605000D01*
X67157600Y-23114000D02*
X71577200Y-23114000D01*
X66274998Y-23996602D02*
X67157600Y-23114000D01*
X71577200Y-23114000D02*
X71856600Y-23393400D01*
X66274998Y-24090000D02*
X66274998Y-23996602D01*
D40*
%TO.N,VBUS*%
X65824998Y-24840000D02*
X65874998Y-24790000D01*
X65824998Y-28413559D02*
X65824998Y-24840000D01*
X65858902Y-28447463D02*
X65824998Y-28413559D01*
X68324998Y-24840000D02*
X68274998Y-24790000D01*
X68324998Y-28370798D02*
X68324998Y-24840000D01*
X68326000Y-28371800D02*
X68324998Y-28370798D01*
%TO.N,GND*%
X69824998Y-24840000D02*
X69874998Y-24790000D01*
X69824998Y-26000000D02*
X69824998Y-24840000D01*
%TO.N,D+*%
X67324998Y-26909002D02*
X67324998Y-26000000D01*
X66497200Y-27736800D02*
X67324998Y-26909002D01*
X66497200Y-27863800D02*
X66497200Y-27736800D01*
%TO.N,N_DATA*%
X64824998Y-29974998D02*
X64850000Y-30000000D01*
X64824998Y-26000000D02*
X64824998Y-29974998D01*
%TO.N,N_LATCH*%
X65324998Y-29450195D02*
X65324998Y-26000000D01*
X65372391Y-29497588D02*
X65324998Y-29450195D01*
%TO.N,+3.3V_PRE*%
X69324998Y-27440398D02*
X69799200Y-27914600D01*
X69324998Y-26000000D02*
X69324998Y-27440398D01*
X69799200Y-27914600D02*
X70853300Y-27914600D01*
%TO.N,N_CLOCK*%
X68873319Y-29043681D02*
X68873319Y-26061383D01*
X68757800Y-29159200D02*
X68873319Y-29043681D01*
%TO.N,N_LATCH_3.3*%
X70307200Y-38633400D02*
X70032322Y-38908278D01*
X70032322Y-39367678D02*
X69975000Y-39425000D01*
X69975000Y-40495000D02*
X69970000Y-40500000D01*
X69975000Y-39425000D02*
X69975000Y-40495000D01*
X61350000Y-44300000D02*
X61350000Y-47275000D01*
X61350000Y-47275000D02*
X61325000Y-47300000D01*
X70032322Y-38908278D02*
X70032322Y-39367678D01*
%TO.N,N_CLOCK_3.3*%
X68675000Y-40534017D02*
X68675000Y-41275000D01*
X60850000Y-44300000D02*
X60850000Y-46725000D01*
X68497341Y-40450468D02*
X68618469Y-40450468D01*
X60850000Y-46725000D02*
X60825000Y-46750000D01*
X68497341Y-40450468D02*
X68591451Y-40450468D01*
X68618469Y-40450468D02*
X68675000Y-40393937D01*
X68591451Y-40450468D02*
X68675000Y-40534017D01*
X68675000Y-40393937D02*
X68675000Y-39425000D01*
D42*
%TO.N,+3V3*%
X84403420Y-30996578D02*
X83303664Y-30996578D01*
D40*
X69315000Y-40515000D02*
X69330000Y-40500000D01*
D42*
X83911080Y-33798920D02*
X83306522Y-33798920D01*
D40*
X74721800Y-42880200D02*
X74574400Y-43027600D01*
X72175000Y-38289600D02*
X72175000Y-37474999D01*
X75463400Y-42880200D02*
X74721800Y-42880200D01*
X75025000Y-37200000D02*
X75075000Y-37250000D01*
X69330000Y-39429999D02*
X69325000Y-39424999D01*
X65019086Y-42100000D02*
X65000000Y-42100000D01*
D42*
X84620000Y-33090000D02*
X83911080Y-33798920D01*
X63375000Y-35050000D02*
X63400000Y-35025000D01*
D40*
X65350000Y-44300000D02*
X65350000Y-42694871D01*
D42*
X63375000Y-36387499D02*
X63375000Y-35050000D01*
D40*
X65850000Y-42930914D02*
X65019086Y-42100000D01*
X72175000Y-35575001D02*
X72175000Y-37474999D01*
X69325000Y-38455600D02*
X69325000Y-39424999D01*
X71130000Y-41138000D02*
X70942200Y-41325800D01*
D42*
X85200000Y-32510000D02*
X84620000Y-33090000D01*
X85200000Y-30199998D02*
X84403420Y-30996578D01*
D40*
X69330000Y-40500000D02*
X69330000Y-39429999D01*
X69315000Y-41275000D02*
X69315000Y-40515000D01*
X65350000Y-42694871D02*
X65117096Y-42461967D01*
X75025000Y-35874999D02*
X75025000Y-37200000D01*
D42*
X85200000Y-30199998D02*
X85200000Y-32510000D01*
D40*
X65350000Y-42450000D02*
X65000000Y-42100000D01*
X71130000Y-39575000D02*
X71130000Y-41138000D01*
X71130000Y-39575000D02*
X71130000Y-39334600D01*
X65850000Y-44300000D02*
X65850000Y-42930914D01*
X71130000Y-39334600D02*
X72175000Y-38289600D01*
X69325000Y-37525001D02*
X69325000Y-38455600D01*
%TO.N,WL_CLK*%
X50300000Y-38475000D02*
X50300000Y-35210000D01*
X50300000Y-35210000D02*
X49465000Y-34375000D01*
X60350000Y-44300000D02*
X60350000Y-41675000D01*
X49465000Y-34375000D02*
X47750000Y-34375000D01*
X60350000Y-41675000D02*
X60250000Y-41575000D01*
X50050000Y-38725000D02*
X50300000Y-38475000D01*
%TO.N,GND*%
X80010000Y-32325000D02*
X79795000Y-32325000D01*
X66925000Y-34275000D02*
X66878200Y-34321800D01*
X79171800Y-42265600D02*
X80924400Y-42265600D01*
X82200000Y-30925001D02*
X82200000Y-29790000D01*
X66878200Y-35875650D02*
X66762050Y-35991800D01*
X71437500Y-34275000D02*
X71437500Y-33794700D01*
X45915000Y-40375000D02*
X45780000Y-40510000D01*
X47750000Y-40375000D02*
X48955000Y-40375000D01*
X80899000Y-41264800D02*
X80899000Y-42087800D01*
X82700000Y-33725000D02*
X82700000Y-32825000D01*
X82200000Y-32325000D02*
X81965607Y-32090607D01*
X64850000Y-43400000D02*
X64600000Y-43150000D01*
X64350000Y-43400000D02*
X64600000Y-43150000D01*
X76824999Y-31325000D02*
X76824999Y-31499999D01*
X61250000Y-40375000D02*
X61250000Y-41440000D01*
X80924400Y-42265600D02*
X81000600Y-42189400D01*
X80289400Y-44043600D02*
X81000600Y-43332400D01*
X46145000Y-35875000D02*
X45930000Y-36090000D01*
X80244393Y-32090607D02*
X80010000Y-32325000D01*
X61250000Y-31375000D02*
X59455000Y-31375000D01*
X71437500Y-33794700D02*
X71577200Y-33655000D01*
X82700000Y-33725000D02*
X82700000Y-34695000D01*
X82200000Y-30925001D02*
X82200000Y-32325000D01*
X49485000Y-31375000D02*
X49730000Y-31620000D01*
X78039000Y-39004200D02*
X78460600Y-38582600D01*
D42*
X78249999Y-28625001D02*
X77750000Y-29125000D01*
D40*
X48955000Y-40375000D02*
X49510000Y-39820000D01*
X75665091Y-32183329D02*
X74983329Y-32183329D01*
D42*
X54500000Y-43720000D02*
X54420000Y-43800000D01*
D40*
X66878200Y-34321800D02*
X66878200Y-35875650D01*
X79795000Y-32325000D02*
X79510000Y-32610000D01*
X47125000Y-31375000D02*
X46220000Y-32280000D01*
X49365000Y-35875000D02*
X49440000Y-35950000D01*
X73245000Y-28000000D02*
X74700000Y-28000000D01*
X61250000Y-41440000D02*
X61150000Y-41540000D01*
X74983329Y-32183329D02*
X74850000Y-32050000D01*
D42*
X79175000Y-28625001D02*
X78249999Y-28625001D01*
D40*
X81000600Y-43332400D02*
X81000600Y-42189400D01*
X79314000Y-44043600D02*
X80289400Y-44043600D01*
D42*
X54500000Y-41675000D02*
X54500000Y-43720000D01*
D40*
X80899000Y-42087800D02*
X81000600Y-42189400D01*
X81965607Y-32090607D02*
X80244393Y-32090607D01*
D42*
X76001741Y-28551248D02*
X76001741Y-27601741D01*
X76001741Y-27601741D02*
X75000000Y-26600000D01*
D40*
X47750000Y-31375000D02*
X49485000Y-31375000D01*
X47750000Y-31375000D02*
X47125000Y-31375000D01*
X64850000Y-44300000D02*
X64850000Y-43400000D01*
X47750000Y-35875000D02*
X49365000Y-35875000D01*
D42*
X77176248Y-28551248D02*
X77750000Y-29125000D01*
D40*
X82200000Y-29790000D02*
X82190000Y-29780000D01*
X49730000Y-31620000D02*
X49730000Y-31610000D01*
X59455000Y-31375000D02*
X59220000Y-31610000D01*
D41*
X78671800Y-41765600D02*
X79171800Y-42265600D01*
D40*
X47750000Y-40375000D02*
X45915000Y-40375000D01*
X81949884Y-32575116D02*
X79964884Y-32575116D01*
X79964884Y-32575116D02*
X79710000Y-32830000D01*
X82700000Y-32825000D02*
X82200000Y-32325000D01*
X49730000Y-31610000D02*
X49740000Y-31600000D01*
X74700000Y-28000000D02*
X74920000Y-27780000D01*
X78039000Y-39497000D02*
X78039000Y-39004200D01*
X47750000Y-35875000D02*
X46145000Y-35875000D01*
X64350000Y-44300000D02*
X64350000Y-43400000D01*
X62565000Y-31375000D02*
X62980000Y-31790000D01*
D42*
X76001741Y-28551248D02*
X77176248Y-28551248D01*
D40*
X71653400Y-33578800D02*
X72212200Y-33578800D01*
X71577200Y-33655000D02*
X71653400Y-33578800D01*
X82200000Y-32325000D02*
X81949884Y-32575116D01*
X61250000Y-31375000D02*
X62565000Y-31375000D01*
X76824999Y-31499999D02*
X77450000Y-32125000D01*
X82700000Y-34695000D02*
X82670000Y-34725000D01*
%TO.N,N_DATA_3.3*%
X72825000Y-38833400D02*
X72825000Y-37475000D01*
X71770000Y-40508000D02*
X71775000Y-40513000D01*
X71770000Y-39575000D02*
X72083400Y-39575000D01*
X61850000Y-47625000D02*
X61950000Y-47725000D01*
X71770000Y-39575000D02*
X71770000Y-40508000D01*
X61850000Y-44300000D02*
X61850000Y-47625000D01*
X72083400Y-39575000D02*
X72825000Y-38833400D01*
%TO.N,BTN_PWR*%
X59350000Y-44300000D02*
X59350000Y-45600000D01*
X59350000Y-45600000D02*
X59400000Y-45650000D01*
X77000000Y-36850230D02*
X77332536Y-37182766D01*
X77000000Y-35849999D02*
X77000000Y-36850230D01*
%TO.N,I2C1_SCL*%
X78162400Y-41275000D02*
X78171800Y-41265600D01*
X77266800Y-41275000D02*
X78162400Y-41275000D01*
X75250000Y-30525000D02*
X76425000Y-30525000D01*
X62350000Y-47325000D02*
X62950000Y-47925000D01*
X75200000Y-30575000D02*
X75250000Y-30525000D01*
X77139800Y-41148000D02*
X77266800Y-41275000D01*
X62350000Y-44300000D02*
X62350000Y-47325000D01*
%TO.N,WL_D*%
X63350000Y-44300000D02*
X63350000Y-42025000D01*
X49525000Y-37375000D02*
X47750000Y-37375000D01*
X50250000Y-43525000D02*
X51180000Y-43525000D01*
X64100000Y-41275000D02*
X64100000Y-39400000D01*
X64100000Y-39400000D02*
X63850000Y-39150000D01*
X50150000Y-43425000D02*
X50250000Y-43525000D01*
X63350000Y-42025000D02*
X64100000Y-41275000D01*
%TO.N,BAT_LVL*%
X67350000Y-43375000D02*
X68561000Y-42164000D01*
X68561000Y-42164000D02*
X69072800Y-42164000D01*
X67350000Y-44300000D02*
X67350000Y-43375000D01*
%TO.N,I2C1_SDA*%
X78171801Y-41765600D02*
X75979400Y-41765600D01*
X75950000Y-30925000D02*
X76425000Y-30925000D01*
X75979400Y-41765600D02*
X75615800Y-41402000D01*
X62850000Y-44300000D02*
X62850000Y-47000000D01*
X75775000Y-31100000D02*
X75950000Y-30925000D01*
X74700000Y-31100000D02*
X75775000Y-31100000D01*
X62850000Y-47000000D02*
X63025000Y-47175000D01*
D42*
%TO.N,WL_ON*%
X56450000Y-43550000D02*
X56000000Y-43100000D01*
X56000000Y-43100000D02*
X56000000Y-41675000D01*
X57050000Y-43550000D02*
X56450000Y-43550000D01*
X57500000Y-41675000D02*
X57500000Y-43100000D01*
D40*
X64625000Y-41325000D02*
X63850000Y-42100000D01*
X63850000Y-42100000D02*
X63850000Y-44300000D01*
X64625000Y-40225000D02*
X64625000Y-41325000D01*
X57500000Y-39950000D02*
X57500000Y-41675000D01*
D42*
X57500000Y-43100000D02*
X57050000Y-43550000D01*
D40*
%TO.N,WL_CS*%
X51500000Y-40150000D02*
X51500000Y-41675000D01*
X59850000Y-43175000D02*
X59825000Y-43150000D01*
X59850000Y-44300000D02*
X59850000Y-43175000D01*
%TO.N,D+*%
X66387500Y-32500000D02*
X66471800Y-32415700D01*
X66471800Y-32415700D02*
X66471800Y-27889200D01*
X66471800Y-27889200D02*
X66497200Y-27863800D01*
D42*
%TO.N,+3.3V_PRE*%
X79500001Y-26649999D02*
X78800000Y-27350000D01*
X78050000Y-26600000D02*
X78800000Y-27350000D01*
X79500001Y-26500000D02*
X79500001Y-26649999D01*
D40*
X71437500Y-28498800D02*
X71437500Y-32425000D01*
X70853300Y-27914600D02*
X71437500Y-28498800D01*
D42*
X77700000Y-26600000D02*
X78050000Y-26600000D01*
D40*
%TO.N,N_DATA*%
X70249947Y-29710723D02*
X70900000Y-30360776D01*
X70900000Y-30360776D02*
X70900000Y-32500000D01*
%TO.N,N_LATCH*%
X69725000Y-32500000D02*
X69725000Y-29718200D01*
X69725000Y-29718200D02*
X69438400Y-29431600D01*
%TO.N,N_CLOCK*%
X68650000Y-32500000D02*
X68650000Y-29267000D01*
X68650000Y-29267000D02*
X68757800Y-29159200D01*
D43*
%TO.N,SAFE_D-*%
X66925000Y-42575000D02*
X66925000Y-37596000D01*
X67665600Y-36855400D02*
X67665600Y-34690600D01*
D40*
X66850000Y-44300000D02*
X66850000Y-42650000D01*
D43*
X66925000Y-37596000D02*
X67665600Y-36855400D01*
D40*
X66850000Y-42650000D02*
X66925000Y-42575000D01*
D43*
X67665600Y-34690600D02*
X67462500Y-34487500D01*
X67462500Y-34487500D02*
X67462500Y-34200000D01*
%TO.N,SAFE_D+*%
X66275000Y-37446000D02*
X66275000Y-42575000D01*
X66387500Y-34200000D02*
X66387500Y-34887500D01*
X65862200Y-35412800D02*
X65862200Y-37033200D01*
X65862200Y-37033200D02*
X66275000Y-37446000D01*
X66387500Y-34887500D02*
X65862200Y-35412800D01*
D40*
X66350000Y-42650000D02*
X66275000Y-42575000D01*
X66350000Y-44300000D02*
X66350000Y-42650000D01*
%TO.N,N_LATCH_SAFE*%
X69970000Y-35970000D02*
X69975000Y-35975000D01*
X69970000Y-35070400D02*
X69970000Y-36050000D01*
X69725000Y-34200000D02*
X69725000Y-34825400D01*
X69725000Y-34825400D02*
X69970000Y-35070400D01*
X69970000Y-37520000D02*
X69975000Y-37525000D01*
X69970000Y-36050000D02*
X69970000Y-37520000D01*
%TO.N,N_CLOCK_SAFE*%
X68455000Y-35892200D02*
X68675000Y-36112200D01*
X68455000Y-35275000D02*
X68455000Y-35892200D01*
X68675000Y-36112200D02*
X68675000Y-37525000D01*
X68650000Y-34499400D02*
X68455000Y-34694400D01*
X68650000Y-34200000D02*
X68650000Y-34499400D01*
X68455000Y-34694400D02*
X68455000Y-35275000D01*
%TO.N,N_DATA_SAFE*%
X72833800Y-33096200D02*
X72980000Y-32950000D01*
X71348600Y-33096200D02*
X72833800Y-33096200D01*
X72825000Y-35207600D02*
X72825000Y-35575000D01*
X71201299Y-34904699D02*
X72522099Y-34904699D01*
D41*
X72980000Y-32950000D02*
X72975000Y-32950000D01*
D40*
X70900000Y-34200000D02*
X70900000Y-33544800D01*
X72522099Y-34904699D02*
X72825000Y-35207600D01*
X70900000Y-34603400D02*
X71201299Y-34904699D01*
X70900000Y-34200000D02*
X70900000Y-34603400D01*
X70900000Y-33544800D02*
X71348600Y-33096200D01*
%TO.N,VBUS_SYS*%
X76825000Y-30525000D02*
X78243869Y-30525000D01*
D42*
X79175000Y-30524999D02*
X79500409Y-30850408D01*
D40*
X80550000Y-35525000D02*
X80550000Y-34730000D01*
D42*
X81999999Y-26500000D02*
X83350000Y-26500000D01*
X79175000Y-30524999D02*
X79175000Y-31875000D01*
D40*
X78243869Y-30525000D02*
X78634040Y-30915171D01*
X80550000Y-34730000D02*
X80555000Y-34725000D01*
D42*
X79500409Y-30850408D02*
X81096309Y-30850408D01*
D40*
%TO.N,Net-(U4-EN)*%
X82155451Y-33769548D02*
X82155451Y-34599549D01*
X81200000Y-34720000D02*
X81195000Y-34725000D01*
X82155451Y-34599549D02*
X82030000Y-34725000D01*
X82200877Y-33925000D02*
X81202921Y-33925000D01*
X82218168Y-33907709D02*
X82200877Y-33925000D01*
X81202921Y-33925000D02*
X81188218Y-33910297D01*
X82200000Y-33724999D02*
X82155451Y-33769548D01*
X81200000Y-33725000D02*
X81200000Y-34720000D01*
D42*
%TO.N,BATTERY_POS*%
X78250000Y-31883312D02*
X78250000Y-37178200D01*
X78250000Y-37178200D02*
X81021800Y-39950000D01*
D40*
X80533200Y-40624800D02*
X80899000Y-40624800D01*
X80899000Y-40624800D02*
X80924400Y-40599400D01*
X80924400Y-40599400D02*
X80924400Y-39966200D01*
D42*
X89610000Y-39890000D02*
X89670000Y-39950000D01*
D40*
X77472479Y-30925000D02*
X76825000Y-30925000D01*
D42*
X81021800Y-39950000D02*
X89670000Y-39950000D01*
D40*
X79171799Y-41765600D02*
X79392400Y-41765600D01*
X79392400Y-41765600D02*
X79984600Y-41173400D01*
X79892400Y-41265600D02*
X79984600Y-41173400D01*
X79984600Y-41173400D02*
X80533200Y-40624800D01*
D42*
X77675000Y-31308312D02*
X78250000Y-31883312D01*
D40*
X77768937Y-31221458D02*
X77472479Y-30925000D01*
X79171800Y-41265600D02*
X79892400Y-41265600D01*
D42*
%TO.N,VBUS*%
X75999505Y-29189012D02*
X76001741Y-29191248D01*
D40*
X76824999Y-29649999D02*
X76824999Y-30125000D01*
D42*
X74568199Y-29326195D02*
X74705382Y-29189012D01*
D40*
X76366248Y-29191248D02*
X76824999Y-29649999D01*
X76001741Y-29191248D02*
X76366248Y-29191248D01*
D42*
X74705382Y-29189012D02*
X75999505Y-29189012D01*
D40*
X66925000Y-33346200D02*
X66929000Y-33350200D01*
X66925000Y-32425000D02*
X66925000Y-33346200D01*
%TO.N,SHARED_PU*%
X75025000Y-33350001D02*
X75000001Y-33350001D01*
X69095000Y-35815000D02*
X69330000Y-36050000D01*
X75000001Y-33350001D02*
X74969448Y-33319448D01*
X73765820Y-32950000D02*
X73620000Y-32950000D01*
X69095000Y-35275000D02*
X69095000Y-35815000D01*
X69316600Y-36728400D02*
X69316600Y-36063400D01*
X74135268Y-33319448D02*
X73765820Y-32950000D01*
X69316600Y-36063400D02*
X69330000Y-36050000D01*
X74969448Y-33319448D02*
X74135268Y-33319448D01*
%TO.N,Net-(D4-A)*%
X77000000Y-32950000D02*
X76425001Y-32375001D01*
X77000000Y-33350001D02*
X77000000Y-32950000D01*
X76425001Y-32375001D02*
X76425001Y-31325000D01*
%TO.N,Net-(U4-L1)*%
X81700000Y-30225000D02*
X81125000Y-29650000D01*
X81700000Y-30925000D02*
X81700000Y-30225000D01*
%TO.N,Net-(U4-L2)*%
X83121893Y-29797967D02*
X83121893Y-29053107D01*
X83121893Y-29053107D02*
X83275000Y-28900000D01*
X82700000Y-30219860D02*
X83121893Y-29797967D01*
X82700000Y-30925000D02*
X82700000Y-30219860D01*
D42*
%TO.N,VDDBAT*%
X59875000Y-38875000D02*
X59000000Y-39750000D01*
X59000000Y-39750000D02*
X59000000Y-41675000D01*
X62875000Y-38875000D02*
X61250000Y-38875000D01*
X61250000Y-38875000D02*
X59875000Y-38875000D01*
X63375000Y-37962501D02*
X63375000Y-38375000D01*
X63375000Y-38375000D02*
X62875000Y-38875000D01*
D40*
%TO.N,Net-(P1B-IRQ)*%
X53000000Y-42950000D02*
X53000000Y-41675000D01*
X51820000Y-43525000D02*
X52425000Y-43525000D01*
X52425000Y-43525000D02*
X53000000Y-42950000D01*
%TO.N,Net-(P1A-DO)*%
X63330000Y-39805000D02*
X63200000Y-39675000D01*
X63330000Y-40900000D02*
X63330000Y-39805000D01*
X49375000Y-38675000D02*
X49175000Y-38875000D01*
X49175000Y-38875000D02*
X47750000Y-38875000D01*
X49375000Y-38175000D02*
X49375000Y-38675000D01*
%TO.N,Net-(IC1-VDD)*%
X78679000Y-41258401D02*
X78671800Y-41265601D01*
X78679000Y-39497000D02*
X78679000Y-41258401D01*
%TO.N,BAT_MON_GPIO*%
X78082745Y-42176545D02*
X69725345Y-42176545D01*
X78171800Y-42265600D02*
X78082745Y-42176545D01*
X69725345Y-42176545D02*
X69712800Y-42164000D01*
%TO.N,Net-(IC1-BIN)*%
X78671800Y-42265599D02*
X78671800Y-44041400D01*
X78671800Y-44041400D02*
X78674000Y-44043600D01*
%TO.N,D-*%
X67462500Y-32500000D02*
X67335400Y-32372900D01*
X67335400Y-28065603D02*
X67253014Y-27983217D01*
X67253014Y-27983217D02*
X67253014Y-27863800D01*
X67335400Y-32372900D02*
X67335400Y-28065603D01*
%TD*%
%TA.AperFunction,Conductor*%
%TO.N,GND*%
G36*
X71846353Y-17696838D02*
G01*
X71866875Y-17696838D01*
X71883057Y-17697899D01*
X71955735Y-17707467D01*
X71987004Y-17715846D01*
X72047152Y-17740761D01*
X72075187Y-17756947D01*
X72126840Y-17796584D01*
X72149730Y-17819476D01*
X72189365Y-17871134D01*
X72205538Y-17899149D01*
X72205550Y-17899170D01*
X72230462Y-17959323D01*
X72238838Y-17990592D01*
X72248436Y-18063535D01*
X72249496Y-18079719D01*
X72249494Y-18114391D01*
X72249497Y-18114416D01*
X72249497Y-18642958D01*
X72229812Y-18709997D01*
X72177008Y-18755752D01*
X72107850Y-18765696D01*
X72056606Y-18746060D01*
X71991314Y-18702433D01*
X71991305Y-18702428D01*
X71827517Y-18634585D01*
X71814998Y-18632094D01*
X71814998Y-19450272D01*
X71776938Y-19358386D01*
X71706612Y-19288060D01*
X71614726Y-19250000D01*
X71515270Y-19250000D01*
X71423384Y-19288060D01*
X71353058Y-19358386D01*
X71314998Y-19450272D01*
X71314998Y-18632095D01*
X71314997Y-18632094D01*
X71302478Y-18634585D01*
X71138690Y-18702428D01*
X71138681Y-18702433D01*
X70991281Y-18800923D01*
X70991277Y-18800926D01*
X70865924Y-18926279D01*
X70865921Y-18926283D01*
X70767431Y-19073683D01*
X70767426Y-19073692D01*
X70699584Y-19237479D01*
X70699582Y-19237487D01*
X70664998Y-19411353D01*
X70664998Y-19550000D01*
X71314998Y-19550000D01*
X71314998Y-20050000D01*
X70664998Y-20050000D01*
X70664998Y-20188646D01*
X70699582Y-20362512D01*
X70699584Y-20362520D01*
X70767426Y-20526307D01*
X70767431Y-20526316D01*
X70865921Y-20673716D01*
X70865924Y-20673720D01*
X70991277Y-20799073D01*
X70991281Y-20799076D01*
X71138681Y-20897566D01*
X71138691Y-20897571D01*
X71302474Y-20965412D01*
X71302481Y-20965415D01*
X71314998Y-20967904D01*
X71314998Y-20149728D01*
X71353058Y-20241614D01*
X71423384Y-20311940D01*
X71515270Y-20350000D01*
X71614726Y-20350000D01*
X71706612Y-20311940D01*
X71776938Y-20241614D01*
X71814998Y-20149728D01*
X71814998Y-20967903D01*
X71827514Y-20965415D01*
X71827521Y-20965412D01*
X71991304Y-20897571D01*
X71991308Y-20897569D01*
X72056605Y-20853939D01*
X72123283Y-20833061D01*
X72190663Y-20851545D01*
X72237353Y-20903523D01*
X72249497Y-20957041D01*
X72249497Y-22362627D01*
X72249508Y-22362741D01*
X72249508Y-22384896D01*
X72275856Y-22500346D01*
X72327233Y-22607039D01*
X72401065Y-22699623D01*
X72493647Y-22773457D01*
X72493651Y-22773460D01*
X72570942Y-22810682D01*
X72600338Y-22824839D01*
X72715787Y-22851190D01*
X72750031Y-22851190D01*
X72750033Y-22851191D01*
X72773279Y-22851190D01*
X72774996Y-22851191D01*
X72775031Y-22851191D01*
X72854995Y-22851191D01*
X72855004Y-22851190D01*
X73517197Y-22851190D01*
X73536667Y-22852728D01*
X73592670Y-22861632D01*
X73629696Y-22873712D01*
X73671339Y-22895026D01*
X73702792Y-22917995D01*
X73735772Y-22951177D01*
X73758546Y-22982765D01*
X73783976Y-23033203D01*
X73791357Y-23051247D01*
X73824532Y-23154984D01*
X73824534Y-23154989D01*
X73924461Y-23369789D01*
X73924467Y-23369801D01*
X73991170Y-23475819D01*
X74050624Y-23570317D01*
X74201013Y-23753377D01*
X74330082Y-23875295D01*
X74373240Y-23916062D01*
X74564566Y-24055783D01*
X74564570Y-24055785D01*
X74637089Y-24095837D01*
X74771951Y-24170321D01*
X74771960Y-24170324D01*
X74771961Y-24170325D01*
X74992101Y-24257859D01*
X75163420Y-24302024D01*
X75221511Y-24317000D01*
X75456541Y-24346808D01*
X75536432Y-24346826D01*
X75536521Y-24346837D01*
X75550034Y-24346837D01*
X75574998Y-24346837D01*
X75603642Y-24346837D01*
X77938561Y-24346837D01*
X77965723Y-24346837D01*
X77968675Y-24346872D01*
X77973191Y-24346979D01*
X78196330Y-24352294D01*
X78202179Y-24352572D01*
X78427876Y-24368724D01*
X78433704Y-24369281D01*
X78659848Y-24396336D01*
X78662732Y-24396715D01*
X88944038Y-25875750D01*
X88954899Y-25877812D01*
X89062404Y-25903224D01*
X89083932Y-25908313D01*
X89090418Y-25909846D01*
X89111390Y-25916827D01*
X89219053Y-25963701D01*
X89233965Y-25970193D01*
X89253364Y-25980787D01*
X89364520Y-26055069D01*
X89381726Y-26068936D01*
X89462550Y-26146934D01*
X89477925Y-26161771D01*
X89492398Y-26178476D01*
X89570588Y-26286918D01*
X89581864Y-26305924D01*
X89639561Y-26426530D01*
X89647283Y-26447237D01*
X89682646Y-26576163D01*
X89686570Y-26597914D01*
X89699007Y-26736944D01*
X89699500Y-26747979D01*
X89699500Y-33716873D01*
X89698439Y-33733058D01*
X89688870Y-33805741D01*
X89680492Y-33837009D01*
X89655573Y-33897168D01*
X89639388Y-33925201D01*
X89599749Y-33976860D01*
X89576859Y-33999750D01*
X89525200Y-34039389D01*
X89497168Y-34055573D01*
X89486741Y-34059893D01*
X89437007Y-34080493D01*
X89405741Y-34088870D01*
X89333051Y-34098440D01*
X89316865Y-34099501D01*
X88106444Y-34099501D01*
X88106433Y-34099498D01*
X87947315Y-34099500D01*
X87734737Y-34134977D01*
X87530894Y-34204958D01*
X87341346Y-34307539D01*
X87341341Y-34307542D01*
X87171270Y-34439916D01*
X87171268Y-34439917D01*
X87171268Y-34439918D01*
X87120648Y-34494907D01*
X87025298Y-34598487D01*
X86907422Y-34778911D01*
X86820846Y-34976286D01*
X86767939Y-35185216D01*
X86750142Y-35399994D01*
X86750142Y-35400005D01*
X86767939Y-35614783D01*
X86820846Y-35823713D01*
X86836324Y-35859000D01*
X86901016Y-36006485D01*
X86907422Y-36021088D01*
X87025298Y-36201512D01*
X87025300Y-36201515D01*
X87171268Y-36360082D01*
X87341345Y-36492460D01*
X87530891Y-36595040D01*
X87734735Y-36665022D01*
X87875713Y-36688549D01*
X87947306Y-36700497D01*
X87947309Y-36700497D01*
X87947319Y-36700499D01*
X88015679Y-36700499D01*
X88015685Y-36700501D01*
X88030118Y-36700501D01*
X88055080Y-36700501D01*
X88083725Y-36700501D01*
X91011355Y-36700501D01*
X91031873Y-36700501D01*
X91048057Y-36701561D01*
X91120743Y-36711131D01*
X91152008Y-36719508D01*
X91182614Y-36732186D01*
X91212165Y-36744426D01*
X91240197Y-36760609D01*
X91291861Y-36800252D01*
X91314747Y-36823138D01*
X91329402Y-36842237D01*
X91354388Y-36874800D01*
X91370572Y-36902832D01*
X91395491Y-36962992D01*
X91403869Y-36994261D01*
X91413438Y-37066951D01*
X91414499Y-37083135D01*
X91414499Y-48217281D01*
X91414233Y-48225393D01*
X91398990Y-48457898D01*
X91396873Y-48473978D01*
X91352206Y-48698524D01*
X91348008Y-48714191D01*
X91274415Y-48930984D01*
X91268208Y-48945968D01*
X91166950Y-49151301D01*
X91158841Y-49165348D01*
X91031646Y-49355712D01*
X91021775Y-49368576D01*
X91021772Y-49368580D01*
X90870819Y-49540712D01*
X90859351Y-49552180D01*
X90687229Y-49703134D01*
X90674361Y-49713009D01*
X90484001Y-49840210D01*
X90469955Y-49848320D01*
X90264623Y-49949586D01*
X90249639Y-49955793D01*
X90032844Y-50029394D01*
X90017177Y-50033592D01*
X89792639Y-50078265D01*
X89776559Y-50080383D01*
X89545011Y-50095571D01*
X89536895Y-50095837D01*
X46329051Y-50095837D01*
X46320941Y-50095571D01*
X46088436Y-50080331D01*
X46072355Y-50078214D01*
X45847809Y-50033550D01*
X45832142Y-50029352D01*
X45615354Y-49955763D01*
X45600369Y-49949557D01*
X45395029Y-49848296D01*
X45380982Y-49840186D01*
X45190621Y-49712993D01*
X45177753Y-49703119D01*
X45005623Y-49552167D01*
X44994154Y-49540698D01*
X44843204Y-49368576D01*
X44833329Y-49355708D01*
X44706127Y-49165341D01*
X44698018Y-49151294D01*
X44596759Y-48945968D01*
X44590551Y-48930983D01*
X44516956Y-48714188D01*
X44512758Y-48698521D01*
X44468089Y-48473976D01*
X44465972Y-48457895D01*
X44464666Y-48437982D01*
X44450765Y-48225941D01*
X44450499Y-48217829D01*
X44450499Y-46593407D01*
X45424033Y-46593407D01*
X45424033Y-46849266D01*
X45464059Y-47101977D01*
X45543121Y-47345309D01*
X45543122Y-47345312D01*
X45640341Y-47536113D01*
X45659281Y-47573284D01*
X45809671Y-47780278D01*
X45990591Y-47961198D01*
X46197585Y-48111588D01*
X46303414Y-48165511D01*
X46425556Y-48227746D01*
X46425559Y-48227747D01*
X46534092Y-48263011D01*
X46668893Y-48306810D01*
X46921602Y-48346836D01*
X46921603Y-48346836D01*
X47177461Y-48346836D01*
X47177462Y-48346836D01*
X47430171Y-48306810D01*
X47673507Y-48227746D01*
X47901479Y-48111588D01*
X48108473Y-47961198D01*
X48289393Y-47780278D01*
X48439783Y-47573284D01*
X48555941Y-47345312D01*
X48635005Y-47101976D01*
X48675031Y-46849267D01*
X48675031Y-46593407D01*
X48666178Y-46537511D01*
X48635005Y-46340697D01*
X48630009Y-46325321D01*
X55799500Y-46325321D01*
X55799500Y-47674678D01*
X55814032Y-47747735D01*
X55814033Y-47747739D01*
X55814034Y-47747740D01*
X55869399Y-47830601D01*
X55928642Y-47870185D01*
X55952260Y-47885966D01*
X55952264Y-47885967D01*
X56025321Y-47900499D01*
X56025324Y-47900500D01*
X56025326Y-47900500D01*
X58074676Y-47900500D01*
X58074677Y-47900499D01*
X58147740Y-47885966D01*
X58230601Y-47830601D01*
X58285966Y-47747740D01*
X58300500Y-47674674D01*
X58300500Y-46325326D01*
X58300500Y-46325323D01*
X58300499Y-46325321D01*
X58285967Y-46252264D01*
X58285966Y-46252260D01*
X58281525Y-46245613D01*
X58230601Y-46169399D01*
X58147740Y-46114034D01*
X58147739Y-46114033D01*
X58147735Y-46114032D01*
X58074677Y-46099500D01*
X58074674Y-46099500D01*
X56025326Y-46099500D01*
X56025323Y-46099500D01*
X55952264Y-46114032D01*
X55952260Y-46114033D01*
X55869399Y-46169399D01*
X55814033Y-46252260D01*
X55814032Y-46252264D01*
X55799500Y-46325321D01*
X48630009Y-46325321D01*
X48555942Y-46097364D01*
X48555941Y-46097361D01*
X48439782Y-45869389D01*
X48410199Y-45828671D01*
X48289393Y-45662396D01*
X48108473Y-45481476D01*
X47901479Y-45331086D01*
X47673507Y-45214927D01*
X47673504Y-45214926D01*
X47430172Y-45135864D01*
X47250845Y-45107461D01*
X47177462Y-45095838D01*
X46921602Y-45095838D01*
X46848219Y-45107461D01*
X46668891Y-45135864D01*
X46425559Y-45214926D01*
X46425556Y-45214927D01*
X46197584Y-45331086D01*
X45990588Y-45481478D01*
X45809673Y-45662393D01*
X45659281Y-45869389D01*
X45543122Y-46097361D01*
X45543121Y-46097364D01*
X45464059Y-46340696D01*
X45424033Y-46593407D01*
X44450499Y-46593407D01*
X44450499Y-46537511D01*
X44450499Y-44702481D01*
X44450501Y-44702088D01*
X44450523Y-44698655D01*
X44450524Y-44698655D01*
X44451334Y-44570787D01*
X44422202Y-44316710D01*
X44362824Y-44067958D01*
X44282754Y-43851614D01*
X44274058Y-43828118D01*
X44201188Y-43686295D01*
X44157180Y-43600645D01*
X44013879Y-43388823D01*
X43883198Y-43238299D01*
X43846223Y-43195709D01*
X43834019Y-43184662D01*
X43753297Y-43111591D01*
X43656616Y-43024074D01*
X43656614Y-43024073D01*
X43447824Y-42876422D01*
X43447817Y-42876417D01*
X43409289Y-42855600D01*
X43222822Y-42754850D01*
X43222814Y-42754847D01*
X43138900Y-42721827D01*
X43138891Y-42721823D01*
X43121445Y-42714956D01*
X43113911Y-42708925D01*
X43095138Y-42704602D01*
X43086540Y-42701218D01*
X43086536Y-42701215D01*
X43086513Y-42701208D01*
X43077173Y-42697529D01*
X43065621Y-42695773D01*
X43050642Y-42692537D01*
X42769974Y-42613479D01*
X42758632Y-42609685D01*
X42458240Y-42492809D01*
X42447317Y-42487941D01*
X42159568Y-42342666D01*
X42149173Y-42336773D01*
X41876753Y-42164447D01*
X41866975Y-42157580D01*
X41813584Y-42116100D01*
X41612426Y-41959816D01*
X41603350Y-41952035D01*
X41582090Y-41931950D01*
X41464654Y-41821002D01*
X41369044Y-41730674D01*
X41360757Y-41722051D01*
X41148872Y-41479156D01*
X41141454Y-41469776D01*
X41073672Y-41374999D01*
X47103551Y-41374999D01*
X47103552Y-41375000D01*
X48396448Y-41375000D01*
X48396448Y-41374999D01*
X47750000Y-40728552D01*
X47103551Y-41374999D01*
X41073672Y-41374999D01*
X40963161Y-41220475D01*
X40957195Y-41212133D01*
X40945793Y-41192658D01*
X40915117Y-41127256D01*
X40905183Y-41095664D01*
X40893867Y-41030002D01*
X40892653Y-40996915D01*
X40899123Y-40930602D01*
X40906713Y-40898367D01*
X40930504Y-40836138D01*
X40946356Y-40807060D01*
X40985773Y-40753347D01*
X41008755Y-40729506D01*
X41060987Y-40688142D01*
X41089463Y-40671235D01*
X41150776Y-40645175D01*
X41182710Y-40636408D01*
X41256637Y-40626445D01*
X41273042Y-40625335D01*
X41293943Y-40625335D01*
X41293989Y-40625311D01*
X41308408Y-40625296D01*
X41308447Y-40625307D01*
X41308545Y-40625296D01*
X43006471Y-40625296D01*
X43006495Y-40625303D01*
X43057840Y-40625303D01*
X43165603Y-40625303D01*
X43378189Y-40589829D01*
X43582037Y-40519848D01*
X43771586Y-40417269D01*
X43941666Y-40284890D01*
X44087637Y-40126323D01*
X44205518Y-39945892D01*
X44292094Y-39748519D01*
X44345002Y-39539589D01*
X44354977Y-39419205D01*
X44362800Y-39324804D01*
X44362800Y-39324793D01*
X44345003Y-39110018D01*
X44345002Y-39110015D01*
X44345002Y-39110010D01*
X44292093Y-38901080D01*
X44205518Y-38703707D01*
X44195741Y-38688743D01*
X44112233Y-38560925D01*
X44087636Y-38523276D01*
X43941665Y-38364709D01*
X43852593Y-38295382D01*
X43771587Y-38232332D01*
X43582037Y-38129752D01*
X43582028Y-38129749D01*
X43378190Y-38059771D01*
X43165602Y-38024297D01*
X43082803Y-38024297D01*
X41273617Y-38024297D01*
X41257055Y-38023186D01*
X41182722Y-38013168D01*
X41150782Y-38004400D01*
X41150662Y-38004349D01*
X41089473Y-37978343D01*
X41060997Y-37961434D01*
X41008774Y-37920078D01*
X40985790Y-37896235D01*
X40946373Y-37842523D01*
X40930523Y-37813447D01*
X40925573Y-37800500D01*
X40906734Y-37751224D01*
X40899145Y-37718985D01*
X40897183Y-37698871D01*
X40892677Y-37652683D01*
X40893892Y-37619589D01*
X40905207Y-37553939D01*
X40915137Y-37522354D01*
X40945704Y-37457187D01*
X40957316Y-37437423D01*
X41003125Y-37373767D01*
X41154033Y-37164066D01*
X41161943Y-37154182D01*
X41389112Y-36898382D01*
X41397996Y-36889354D01*
X41650125Y-36658115D01*
X41659884Y-36650044D01*
X41934318Y-36445798D01*
X41944864Y-36438757D01*
X42238750Y-36263628D01*
X42249941Y-36257714D01*
X42560196Y-36113542D01*
X42571943Y-36108799D01*
X42895299Y-35997101D01*
X42907455Y-35993587D01*
X43240544Y-35915527D01*
X43253010Y-35913272D01*
X43592332Y-35869670D01*
X43604964Y-35868700D01*
X43946954Y-35860015D01*
X43959614Y-35860341D01*
X44277317Y-35884856D01*
X44278443Y-35884950D01*
X44290764Y-35886042D01*
X44292893Y-35887031D01*
X44309938Y-35887743D01*
X44312830Y-35888000D01*
X44313205Y-35888147D01*
X44317732Y-35888533D01*
X44320173Y-35888847D01*
X44335446Y-35890817D01*
X44335450Y-35890815D01*
X44341400Y-35890242D01*
X44358493Y-35889776D01*
X44530864Y-35896991D01*
X44538846Y-35899502D01*
X44555594Y-35898026D01*
X44572390Y-35898729D01*
X44572394Y-35898727D01*
X44584463Y-35896848D01*
X44584503Y-35897108D01*
X44596582Y-35894413D01*
X44642611Y-35890356D01*
X44656186Y-35889907D01*
X44664832Y-35890094D01*
X44664838Y-35890096D01*
X44678782Y-35887635D01*
X44689407Y-35886233D01*
X44703504Y-35884991D01*
X44703507Y-35884989D01*
X44711785Y-35882570D01*
X44725008Y-35879480D01*
X44768502Y-35871807D01*
X44784355Y-35870054D01*
X44787235Y-35869921D01*
X44787241Y-35869922D01*
X44803304Y-35865954D01*
X44811487Y-35864224D01*
X44817909Y-35863090D01*
X44827772Y-35861351D01*
X44827772Y-35861350D01*
X44829317Y-35861078D01*
X44852214Y-35854897D01*
X44863660Y-35853092D01*
X44863666Y-35853093D01*
X44874146Y-35849235D01*
X44887236Y-35845223D01*
X44898076Y-35842547D01*
X44898079Y-35842544D01*
X44909134Y-35837360D01*
X44909475Y-35838087D01*
X44920356Y-35832227D01*
X45087187Y-35770827D01*
X45095521Y-35770078D01*
X45110416Y-35762278D01*
X45126192Y-35756472D01*
X45126194Y-35756469D01*
X45136613Y-35750097D01*
X45136750Y-35750321D01*
X45146868Y-35743189D01*
X45187803Y-35721754D01*
X45200170Y-35716120D01*
X45208214Y-35712973D01*
X45208222Y-35712972D01*
X45220154Y-35705338D01*
X45229409Y-35699968D01*
X45241955Y-35693399D01*
X45241959Y-35693394D01*
X45248666Y-35687983D01*
X45259693Y-35680044D01*
X45296879Y-35656256D01*
X45310780Y-35648573D01*
X45313541Y-35647269D01*
X45313548Y-35647268D01*
X45326788Y-35637465D01*
X45333730Y-35632683D01*
X45347593Y-35623816D01*
X45347593Y-35623815D01*
X45357887Y-35617231D01*
X45357958Y-35617342D01*
X45370112Y-35609730D01*
X45368779Y-35607566D01*
X45379175Y-35601160D01*
X45379178Y-35601160D01*
X45387292Y-35593621D01*
X45397903Y-35584813D01*
X45402401Y-35581483D01*
X45406798Y-35578228D01*
X45406799Y-35578224D01*
X45415010Y-35569181D01*
X45415589Y-35569707D01*
X45423369Y-35560110D01*
X45553699Y-35439051D01*
X45561100Y-35435146D01*
X45571834Y-35422206D01*
X45584151Y-35410766D01*
X45584154Y-35410757D01*
X45591307Y-35400865D01*
X45591520Y-35401019D01*
X45598102Y-35390540D01*
X45627620Y-35354959D01*
X45636856Y-35344994D01*
X45643061Y-35338993D01*
X45643061Y-35338992D01*
X45643064Y-35338991D01*
X45651120Y-35327359D01*
X45657603Y-35318817D01*
X45666641Y-35307924D01*
X45666643Y-35307915D01*
X45670756Y-35300319D01*
X45677857Y-35288760D01*
X45703050Y-35252389D01*
X45713293Y-35239520D01*
X45714515Y-35238176D01*
X45714523Y-35238171D01*
X45723307Y-35223586D01*
X45727584Y-35216971D01*
X45737282Y-35202972D01*
X45737282Y-35202969D01*
X45741915Y-35196282D01*
X45748494Y-35184807D01*
X45750994Y-35181388D01*
X45751000Y-35181384D01*
X45755910Y-35170825D01*
X45762121Y-35159147D01*
X45768121Y-35149189D01*
X45768121Y-35149184D01*
X45772262Y-35137692D01*
X45773121Y-35138001D01*
X45776680Y-35126171D01*
X45851735Y-34964813D01*
X45857319Y-34958081D01*
X45862171Y-34942377D01*
X45869104Y-34927473D01*
X45871995Y-34915609D01*
X45872096Y-34915633D01*
X45874203Y-34903435D01*
X45898554Y-34824628D01*
X45903178Y-34817200D01*
X45905860Y-34800985D01*
X45910712Y-34785285D01*
X45910712Y-34785282D01*
X45911973Y-34773130D01*
X45912075Y-34773140D01*
X45912513Y-34760770D01*
X45942070Y-34582131D01*
X45945449Y-34574791D01*
X45946110Y-34557709D01*
X45948901Y-34540844D01*
X45948899Y-34540838D01*
X45948505Y-34528637D01*
X45948889Y-34528624D01*
X45947713Y-34516304D01*
X45949034Y-34482194D01*
X45950499Y-34469803D01*
X45950499Y-34446809D01*
X45950592Y-34442008D01*
X45950796Y-34436756D01*
X45951371Y-34421898D01*
X45951370Y-34421897D01*
X45951481Y-34419057D01*
X45950499Y-34406618D01*
X45950499Y-26554979D01*
X45950500Y-26554977D01*
X45950499Y-26531843D01*
X45950990Y-26520827D01*
X45951100Y-26519593D01*
X45963342Y-26382428D01*
X45967247Y-26360731D01*
X45970061Y-26350448D01*
X46002461Y-26232047D01*
X46010143Y-26211398D01*
X46067600Y-26090984D01*
X46078819Y-26072020D01*
X46156695Y-25963697D01*
X46171107Y-25947010D01*
X46243068Y-25877316D01*
X46266937Y-25854199D01*
X46284070Y-25840333D01*
X46394839Y-25765960D01*
X46414154Y-25755352D01*
X46536343Y-25701781D01*
X46557233Y-25694762D01*
X46691789Y-25662532D01*
X46702967Y-25660394D01*
X47108348Y-25602077D01*
X47177503Y-25612016D01*
X47230310Y-25657767D01*
X47250000Y-25724805D01*
X47250000Y-30251000D01*
X47230315Y-30318039D01*
X47177511Y-30363794D01*
X47126000Y-30375000D01*
X47103552Y-30375000D01*
X47213681Y-30485128D01*
X47247166Y-30546452D01*
X47250000Y-30572810D01*
X47250000Y-30775000D01*
X47452190Y-30775000D01*
X47519229Y-30794685D01*
X47539871Y-30811319D01*
X47839095Y-31110543D01*
X47872580Y-31171866D01*
X47867596Y-31241558D01*
X47839095Y-31285905D01*
X47660905Y-31464095D01*
X47599582Y-31497580D01*
X47529890Y-31492596D01*
X47485543Y-31464095D01*
X46476561Y-30455113D01*
X46392817Y-30517805D01*
X46392808Y-30517814D01*
X46306649Y-30632906D01*
X46306645Y-30632913D01*
X46256403Y-30767620D01*
X46256401Y-30767627D01*
X46250000Y-30827155D01*
X46250000Y-31922844D01*
X46256401Y-31982372D01*
X46256403Y-31982379D01*
X46306645Y-32117086D01*
X46306649Y-32117093D01*
X46392808Y-32232186D01*
X46449811Y-32274858D01*
X46491682Y-32330792D01*
X46499500Y-32374125D01*
X46499500Y-33399678D01*
X46514032Y-33472735D01*
X46514033Y-33472739D01*
X46569739Y-33556110D01*
X46590616Y-33622788D01*
X46572131Y-33690168D01*
X46569739Y-33693890D01*
X46514033Y-33777260D01*
X46514032Y-33777264D01*
X46499500Y-33850321D01*
X46499500Y-34875873D01*
X46479815Y-34942912D01*
X46449812Y-34975139D01*
X46392814Y-35017807D01*
X46392808Y-35017814D01*
X46306649Y-35132906D01*
X46306645Y-35132913D01*
X46256403Y-35267620D01*
X46256401Y-35267627D01*
X46250000Y-35327155D01*
X46250000Y-36422844D01*
X46256401Y-36482372D01*
X46256403Y-36482379D01*
X46306645Y-36617086D01*
X46306649Y-36617093D01*
X46392808Y-36732186D01*
X46449811Y-36774858D01*
X46491682Y-36830792D01*
X46499500Y-36874125D01*
X46499500Y-37899678D01*
X46514032Y-37972735D01*
X46514033Y-37972739D01*
X46569739Y-38056110D01*
X46590616Y-38122788D01*
X46572131Y-38190168D01*
X46569739Y-38193890D01*
X46514033Y-38277260D01*
X46514032Y-38277264D01*
X46499500Y-38350321D01*
X46499500Y-39375873D01*
X46479815Y-39442912D01*
X46449812Y-39475139D01*
X46392814Y-39517807D01*
X46392808Y-39517814D01*
X46306649Y-39632906D01*
X46306645Y-39632913D01*
X46256403Y-39767620D01*
X46256401Y-39767627D01*
X46250000Y-39827155D01*
X46250000Y-40922844D01*
X46256401Y-40982372D01*
X46256403Y-40982379D01*
X46306645Y-41117086D01*
X46306649Y-41117093D01*
X46392809Y-41232186D01*
X46476563Y-41294884D01*
X46513224Y-41258224D01*
X47485543Y-40285905D01*
X47546866Y-40252420D01*
X47616558Y-40257404D01*
X47660905Y-40285905D01*
X47749999Y-40374999D01*
X47839093Y-40285905D01*
X47900416Y-40252420D01*
X47970108Y-40257404D01*
X48014456Y-40285905D01*
X49023435Y-41294884D01*
X49051189Y-41274109D01*
X49116653Y-41249692D01*
X49184926Y-41264543D01*
X49234332Y-41313949D01*
X49249500Y-41373376D01*
X49249500Y-42699678D01*
X49264032Y-42772735D01*
X49264033Y-42772739D01*
X49277554Y-42792974D01*
X49319399Y-42855601D01*
X49401711Y-42910599D01*
X49402260Y-42910966D01*
X49402264Y-42910967D01*
X49475321Y-42925499D01*
X49475324Y-42925500D01*
X49475326Y-42925500D01*
X49559082Y-42925500D01*
X49626121Y-42945185D01*
X49671876Y-42997989D01*
X49681820Y-43067147D01*
X49666470Y-43111497D01*
X49652438Y-43135802D01*
X49613719Y-43202863D01*
X49583604Y-43315258D01*
X49574500Y-43349234D01*
X49574500Y-43500766D01*
X49587558Y-43549500D01*
X49613719Y-43647136D01*
X49645546Y-43702261D01*
X49689485Y-43778365D01*
X49796635Y-43885515D01*
X49927865Y-43961281D01*
X50074234Y-44000500D01*
X50074236Y-44000500D01*
X50225764Y-44000500D01*
X50225766Y-44000500D01*
X50372135Y-43961281D01*
X50491937Y-43892112D01*
X50507425Y-43887962D01*
X50519002Y-43880523D01*
X50553937Y-43875500D01*
X50753456Y-43875500D01*
X50820495Y-43895185D01*
X50841137Y-43911819D01*
X50843514Y-43914196D01*
X50843515Y-43914196D01*
X50843517Y-43914198D01*
X50948607Y-43965573D01*
X50982673Y-43970536D01*
X51016739Y-43975500D01*
X51016740Y-43975500D01*
X51343255Y-43975500D01*
X51343260Y-43975500D01*
X51411393Y-43965573D01*
X51445539Y-43948879D01*
X51514410Y-43937119D01*
X51554459Y-43948878D01*
X51588607Y-43965573D01*
X51656740Y-43975500D01*
X51656745Y-43975500D01*
X51983261Y-43975500D01*
X52005971Y-43972191D01*
X52051393Y-43965573D01*
X52156483Y-43914198D01*
X52156485Y-43914196D01*
X52158863Y-43911819D01*
X52162914Y-43909606D01*
X52164847Y-43908227D01*
X52165013Y-43908460D01*
X52220186Y-43878334D01*
X52246544Y-43875500D01*
X52471142Y-43875500D01*
X52471144Y-43875500D01*
X52560288Y-43851614D01*
X52577002Y-43841964D01*
X52640212Y-43805470D01*
X53280470Y-43165212D01*
X53326614Y-43085288D01*
X53344803Y-43017405D01*
X53359295Y-42993629D01*
X53370864Y-42968297D01*
X53377229Y-42964206D01*
X53381167Y-42957746D01*
X53406214Y-42945578D01*
X53429642Y-42930523D01*
X53440389Y-42928977D01*
X53444014Y-42927217D01*
X53464577Y-42925500D01*
X53500874Y-42925500D01*
X53567913Y-42945185D01*
X53600141Y-42975189D01*
X53642809Y-43032186D01*
X53642814Y-43032191D01*
X53757906Y-43118350D01*
X53757913Y-43118354D01*
X53892620Y-43168596D01*
X53892627Y-43168598D01*
X53952155Y-43174999D01*
X53952172Y-43175000D01*
X55047828Y-43175000D01*
X55047844Y-43174999D01*
X55107372Y-43168598D01*
X55107379Y-43168596D01*
X55242086Y-43118354D01*
X55242089Y-43118352D01*
X55326188Y-43055396D01*
X55391653Y-43030978D01*
X55459926Y-43045829D01*
X55509332Y-43095234D01*
X55524500Y-43154662D01*
X55524500Y-43162601D01*
X55556905Y-43283536D01*
X55619505Y-43391964D01*
X56069505Y-43841964D01*
X56158036Y-43930495D01*
X56266464Y-43993095D01*
X56387399Y-44025500D01*
X56387401Y-44025500D01*
X57112599Y-44025500D01*
X57112601Y-44025500D01*
X57233536Y-43993095D01*
X57341964Y-43930495D01*
X57880495Y-43391964D01*
X57943095Y-43283536D01*
X57975500Y-43162601D01*
X57975500Y-43037399D01*
X57975500Y-43037045D01*
X57995185Y-42970006D01*
X58042050Y-42927157D01*
X58057837Y-42918903D01*
X58097740Y-42910966D01*
X58180601Y-42855601D01*
X58181503Y-42854250D01*
X58192550Y-42848475D01*
X58220547Y-42842912D01*
X58247787Y-42834383D01*
X58254376Y-42836190D01*
X58261080Y-42834859D01*
X58287642Y-42845316D01*
X58315167Y-42852868D01*
X58318890Y-42855261D01*
X58402256Y-42910964D01*
X58402258Y-42910964D01*
X58402260Y-42910966D01*
X58402262Y-42910966D01*
X58402264Y-42910967D01*
X58475321Y-42925499D01*
X58475324Y-42925500D01*
X58475326Y-42925500D01*
X59153635Y-42925500D01*
X59220674Y-42945185D01*
X59266429Y-42997989D01*
X59276373Y-43067147D01*
X59274958Y-43074045D01*
X59274500Y-43077523D01*
X59274500Y-43077525D01*
X59274500Y-43222475D01*
X59308001Y-43347502D01*
X59312017Y-43362489D01*
X59312018Y-43362492D01*
X59312603Y-43363504D01*
X59312836Y-43364465D01*
X59315128Y-43369999D01*
X59314265Y-43370356D01*
X59329073Y-43431405D01*
X59306219Y-43497431D01*
X59251296Y-43540619D01*
X59205214Y-43549500D01*
X59175323Y-43549500D01*
X59102264Y-43564032D01*
X59102260Y-43564033D01*
X59019399Y-43619399D01*
X58964033Y-43702260D01*
X58964032Y-43702264D01*
X58949500Y-43775321D01*
X58949500Y-44824678D01*
X58964032Y-44897735D01*
X58964034Y-44897739D01*
X58964034Y-44897740D01*
X58978601Y-44919542D01*
X58984252Y-44937586D01*
X58994477Y-44953497D01*
X58998928Y-44984454D01*
X58999480Y-44986217D01*
X58999500Y-44988432D01*
X58999500Y-45220614D01*
X58979815Y-45287653D01*
X58963181Y-45308295D01*
X58959493Y-45311982D01*
X58959488Y-45311988D01*
X58887017Y-45437511D01*
X58887016Y-45437515D01*
X58849500Y-45577525D01*
X58849500Y-45722475D01*
X58887016Y-45862485D01*
X58887017Y-45862488D01*
X58959488Y-45988011D01*
X58959490Y-45988013D01*
X58959491Y-45988015D01*
X59061985Y-46090509D01*
X59061986Y-46090510D01*
X59061988Y-46090511D01*
X59187511Y-46162982D01*
X59187512Y-46162982D01*
X59187515Y-46162984D01*
X59327525Y-46200500D01*
X59327528Y-46200500D01*
X59472472Y-46200500D01*
X59472475Y-46200500D01*
X59612485Y-46162984D01*
X59738015Y-46090509D01*
X59840509Y-45988015D01*
X59912984Y-45862485D01*
X59950500Y-45722475D01*
X59950500Y-45577525D01*
X59912984Y-45437515D01*
X59840509Y-45311985D01*
X59790705Y-45262181D01*
X59781730Y-45245745D01*
X59768686Y-45232309D01*
X59765332Y-45215715D01*
X59757220Y-45200858D01*
X59758555Y-45182180D01*
X59754846Y-45163823D01*
X59760996Y-45148050D01*
X59762204Y-45131166D01*
X59773426Y-45116174D01*
X59780230Y-45098728D01*
X59793931Y-45088784D01*
X59804076Y-45075233D01*
X59821620Y-45068689D01*
X59836778Y-45057689D01*
X59863484Y-45053074D01*
X59869540Y-45050816D01*
X59871372Y-45050699D01*
X59874885Y-45050500D01*
X60024674Y-45050500D01*
X60084323Y-45038634D01*
X60092986Y-45038144D01*
X60102356Y-45040328D01*
X60124189Y-45040328D01*
X60175326Y-45050500D01*
X60375500Y-45050500D01*
X60442539Y-45070185D01*
X60488294Y-45122989D01*
X60499500Y-45174500D01*
X60499500Y-46245613D01*
X60479815Y-46312652D01*
X60463182Y-46333294D01*
X60384488Y-46411988D01*
X60312017Y-46537511D01*
X60312016Y-46537515D01*
X60274500Y-46677525D01*
X60274500Y-46822475D01*
X60312016Y-46962485D01*
X60312017Y-46962488D01*
X60384488Y-47088011D01*
X60384490Y-47088013D01*
X60384491Y-47088015D01*
X60486985Y-47190509D01*
X60612515Y-47262984D01*
X60686272Y-47282747D01*
X60745931Y-47319111D01*
X60773952Y-47370427D01*
X60774500Y-47372472D01*
X60774500Y-47372475D01*
X60812016Y-47512485D01*
X60812017Y-47512488D01*
X60884488Y-47638011D01*
X60884490Y-47638013D01*
X60884491Y-47638015D01*
X60986985Y-47740509D01*
X60986986Y-47740510D01*
X60986988Y-47740511D01*
X61112511Y-47812982D01*
X61112512Y-47812982D01*
X61112515Y-47812984D01*
X61252525Y-47850500D01*
X61252528Y-47850500D01*
X61318560Y-47850500D01*
X61385599Y-47870185D01*
X61431354Y-47922989D01*
X61433872Y-47929993D01*
X61433907Y-47929979D01*
X61437017Y-47937488D01*
X61509488Y-48063011D01*
X61509490Y-48063013D01*
X61509491Y-48063015D01*
X61611985Y-48165509D01*
X61611986Y-48165510D01*
X61611988Y-48165511D01*
X61737511Y-48237982D01*
X61737512Y-48237982D01*
X61737515Y-48237984D01*
X61877525Y-48275500D01*
X61877528Y-48275500D01*
X62022472Y-48275500D01*
X62022475Y-48275500D01*
X62162485Y-48237984D01*
X62288015Y-48165509D01*
X62288020Y-48165503D01*
X62290304Y-48163752D01*
X62292587Y-48162869D01*
X62295054Y-48161445D01*
X62295276Y-48161829D01*
X62355472Y-48138555D01*
X62423917Y-48152591D01*
X62473180Y-48200123D01*
X62509491Y-48263015D01*
X62611985Y-48365509D01*
X62611986Y-48365510D01*
X62611988Y-48365511D01*
X62737511Y-48437982D01*
X62737512Y-48437982D01*
X62737515Y-48437984D01*
X62877525Y-48475500D01*
X62877528Y-48475500D01*
X63022472Y-48475500D01*
X63022475Y-48475500D01*
X63162485Y-48437984D01*
X63288015Y-48365509D01*
X63390509Y-48263015D01*
X63462984Y-48137485D01*
X63500500Y-47997475D01*
X63500500Y-47852525D01*
X63462984Y-47712515D01*
X63438459Y-47670036D01*
X63421987Y-47602140D01*
X63444839Y-47536113D01*
X63458164Y-47520359D01*
X63465509Y-47513015D01*
X63537984Y-47387485D01*
X63575500Y-47247475D01*
X63575500Y-47102525D01*
X63537984Y-46962515D01*
X63537968Y-46962488D01*
X63465511Y-46836988D01*
X63465506Y-46836982D01*
X63363017Y-46734493D01*
X63363015Y-46734491D01*
X63262498Y-46676457D01*
X63254215Y-46667770D01*
X63243297Y-46662784D01*
X63230552Y-46642953D01*
X63214284Y-46625891D01*
X63211068Y-46612634D01*
X63205523Y-46604006D01*
X63200500Y-46569071D01*
X63200500Y-46325321D01*
X68399500Y-46325321D01*
X68399500Y-47674678D01*
X68414032Y-47747735D01*
X68414033Y-47747739D01*
X68414034Y-47747740D01*
X68469399Y-47830601D01*
X68528642Y-47870185D01*
X68552260Y-47885966D01*
X68552264Y-47885967D01*
X68625321Y-47900499D01*
X68625324Y-47900500D01*
X68625326Y-47900500D01*
X70674676Y-47900500D01*
X70674677Y-47900499D01*
X70747740Y-47885966D01*
X70830601Y-47830601D01*
X70885966Y-47747740D01*
X70900500Y-47674674D01*
X70900500Y-46325326D01*
X70900500Y-46325323D01*
X70900499Y-46325321D01*
X70885967Y-46252264D01*
X70885966Y-46252260D01*
X70881525Y-46245613D01*
X70830601Y-46169399D01*
X70747740Y-46114034D01*
X70747739Y-46114033D01*
X70747735Y-46114032D01*
X70674677Y-46099500D01*
X70674674Y-46099500D01*
X68625326Y-46099500D01*
X68625323Y-46099500D01*
X68552264Y-46114032D01*
X68552260Y-46114033D01*
X68469399Y-46169399D01*
X68414033Y-46252260D01*
X68414032Y-46252264D01*
X68399500Y-46325321D01*
X63200500Y-46325321D01*
X63200500Y-45174500D01*
X63220185Y-45107461D01*
X63272989Y-45061706D01*
X63324500Y-45050500D01*
X63524674Y-45050500D01*
X63575812Y-45040327D01*
X63578649Y-45040224D01*
X63580027Y-45039564D01*
X63591423Y-45039761D01*
X63615315Y-45038894D01*
X63619762Y-45039447D01*
X63675326Y-45050500D01*
X63708564Y-45050500D01*
X63716189Y-45051449D01*
X63741475Y-45062421D01*
X63767913Y-45070185D01*
X63775376Y-45077133D01*
X63780284Y-45079263D01*
X63784624Y-45085743D01*
X63800141Y-45100189D01*
X63842809Y-45157186D01*
X63842814Y-45157191D01*
X63957906Y-45243350D01*
X63957913Y-45243354D01*
X64092620Y-45293596D01*
X64092627Y-45293598D01*
X64152155Y-45299999D01*
X64152172Y-45300000D01*
X64200000Y-45300000D01*
X64500000Y-45300000D01*
X64547821Y-45300000D01*
X64547831Y-45299999D01*
X64586742Y-45295815D01*
X64613258Y-45295815D01*
X64652168Y-45299999D01*
X64652179Y-45300000D01*
X64700000Y-45300000D01*
X64700000Y-43300000D01*
X64652164Y-43300000D01*
X64613252Y-43304183D01*
X64586748Y-43304183D01*
X64547835Y-43300000D01*
X64500000Y-43300000D01*
X64500000Y-45300000D01*
X64200000Y-45300000D01*
X64200000Y-44989181D01*
X64219685Y-44922142D01*
X64220856Y-44920352D01*
X64235966Y-44897740D01*
X64250500Y-44824674D01*
X64250500Y-43775326D01*
X64250500Y-43775323D01*
X64235966Y-43702261D01*
X64235966Y-43702260D01*
X64221396Y-43680454D01*
X64200520Y-43613778D01*
X64200500Y-43611566D01*
X64200500Y-42661107D01*
X64220185Y-42594068D01*
X64272989Y-42548313D01*
X64342147Y-42538369D01*
X64405703Y-42567394D01*
X64412485Y-42574364D01*
X64412741Y-42574109D01*
X64521580Y-42682948D01*
X64521584Y-42682951D01*
X64644498Y-42765080D01*
X64644511Y-42765087D01*
X64781082Y-42821656D01*
X64781087Y-42821658D01*
X64781091Y-42821658D01*
X64781092Y-42821659D01*
X64899692Y-42845251D01*
X64961603Y-42877636D01*
X64996177Y-42938352D01*
X64999500Y-42966868D01*
X64999500Y-43611566D01*
X64979815Y-43678605D01*
X64978603Y-43680456D01*
X64964033Y-43702261D01*
X64949500Y-43775323D01*
X64949500Y-44824678D01*
X64964032Y-44897735D01*
X64964033Y-44897739D01*
X64964034Y-44897740D01*
X64979102Y-44920292D01*
X64999980Y-44986967D01*
X65000000Y-44989181D01*
X65000000Y-45300000D01*
X65047828Y-45300000D01*
X65047844Y-45299999D01*
X65107372Y-45293598D01*
X65107379Y-45293596D01*
X65242086Y-45243354D01*
X65242093Y-45243350D01*
X65357185Y-45157191D01*
X65357190Y-45157186D01*
X65399859Y-45100189D01*
X65425330Y-45081121D01*
X65449764Y-45060749D01*
X65453613Y-45059949D01*
X65455793Y-45058318D01*
X65483811Y-45051449D01*
X65491436Y-45050500D01*
X65524674Y-45050500D01*
X65580237Y-45039447D01*
X65584685Y-45038894D01*
X65593472Y-45040328D01*
X65624189Y-45040328D01*
X65675326Y-45050500D01*
X66024674Y-45050500D01*
X66075811Y-45040328D01*
X66124189Y-45040328D01*
X66175326Y-45050500D01*
X66524674Y-45050500D01*
X66575811Y-45040328D01*
X66624189Y-45040328D01*
X66675326Y-45050500D01*
X67024674Y-45050500D01*
X67075811Y-45040328D01*
X67124189Y-45040328D01*
X67175326Y-45050500D01*
X67524676Y-45050500D01*
X67524677Y-45050499D01*
X67597740Y-45035966D01*
X67680601Y-44980601D01*
X67735966Y-44897740D01*
X67750500Y-44824674D01*
X67750500Y-43775326D01*
X67750500Y-43775323D01*
X67735966Y-43702261D01*
X67735966Y-43702260D01*
X67721396Y-43680454D01*
X67715746Y-43662409D01*
X67705523Y-43646501D01*
X67701071Y-43615538D01*
X67700520Y-43613778D01*
X67700500Y-43611566D01*
X67700500Y-43571543D01*
X67720185Y-43504504D01*
X67736815Y-43483866D01*
X68627483Y-42593197D01*
X68688804Y-42559714D01*
X68758495Y-42564698D01*
X68769619Y-42569478D01*
X68831533Y-42599746D01*
X68841407Y-42604573D01*
X68909539Y-42614500D01*
X68909540Y-42614500D01*
X69236055Y-42614500D01*
X69236060Y-42614500D01*
X69304193Y-42604573D01*
X69338339Y-42587879D01*
X69407210Y-42576119D01*
X69447259Y-42587878D01*
X69481407Y-42604573D01*
X69549540Y-42614500D01*
X69549545Y-42614500D01*
X69876061Y-42614500D01*
X69909107Y-42609685D01*
X69944193Y-42604573D01*
X70049283Y-42553198D01*
X70049284Y-42553196D01*
X70049286Y-42553196D01*
X70053585Y-42550127D01*
X70119583Y-42527193D01*
X70125637Y-42527045D01*
X74012959Y-42527045D01*
X74079998Y-42546730D01*
X74125753Y-42599534D01*
X74135697Y-42668692D01*
X74120346Y-42713045D01*
X74061417Y-42815111D01*
X74056983Y-42831655D01*
X74023900Y-42955125D01*
X74023900Y-43100075D01*
X74061416Y-43240085D01*
X74061417Y-43240088D01*
X74133888Y-43365611D01*
X74133890Y-43365613D01*
X74133891Y-43365615D01*
X74236385Y-43468109D01*
X74236386Y-43468110D01*
X74236388Y-43468111D01*
X74361911Y-43540582D01*
X74361912Y-43540582D01*
X74361915Y-43540584D01*
X74501925Y-43578100D01*
X74501928Y-43578100D01*
X74646872Y-43578100D01*
X74646875Y-43578100D01*
X74786885Y-43540584D01*
X74912415Y-43468109D01*
X75014909Y-43365615D01*
X75018112Y-43360066D01*
X75068674Y-43311851D01*
X75137281Y-43298625D01*
X75179960Y-43310663D01*
X75262007Y-43350773D01*
X75296073Y-43355736D01*
X75330139Y-43360700D01*
X75330140Y-43360700D01*
X75596661Y-43360700D01*
X75619371Y-43357391D01*
X75664793Y-43350773D01*
X75769883Y-43299398D01*
X75852598Y-43216683D01*
X75903973Y-43111593D01*
X75913900Y-43043460D01*
X75913900Y-42716940D01*
X75913332Y-42713045D01*
X75906904Y-42668923D01*
X75916717Y-42599746D01*
X75962372Y-42546856D01*
X76029375Y-42527045D01*
X77822561Y-42527045D01*
X77889600Y-42546730D01*
X77910242Y-42563364D01*
X77928957Y-42582079D01*
X78019143Y-42634148D01*
X78119731Y-42661100D01*
X78119733Y-42661100D01*
X78197300Y-42661100D01*
X78264339Y-42680785D01*
X78310094Y-42733589D01*
X78321300Y-42785100D01*
X78321300Y-43619256D01*
X78301615Y-43686295D01*
X78284981Y-43706937D01*
X78254803Y-43737114D01*
X78203426Y-43842208D01*
X78193500Y-43910339D01*
X78193500Y-44176860D01*
X78203426Y-44244991D01*
X78254803Y-44350085D01*
X78337514Y-44432796D01*
X78337515Y-44432796D01*
X78337517Y-44432798D01*
X78442607Y-44484173D01*
X78476673Y-44489136D01*
X78510739Y-44494100D01*
X78635515Y-44494100D01*
X78702554Y-44513785D01*
X78733891Y-44542613D01*
X78756075Y-44571524D01*
X78881413Y-44667700D01*
X79027365Y-44728154D01*
X79027369Y-44728155D01*
X79114000Y-44739561D01*
X79114000Y-44739559D01*
X79514000Y-44739559D01*
X79514001Y-44739560D01*
X79600627Y-44728157D01*
X79600633Y-44728155D01*
X79746585Y-44667700D01*
X79871924Y-44571524D01*
X79968100Y-44446186D01*
X80028555Y-44300231D01*
X80036012Y-44243600D01*
X79514000Y-44243600D01*
X79514000Y-44739559D01*
X79114000Y-44739559D01*
X79114000Y-44336217D01*
X79118433Y-44303358D01*
X79121504Y-44292179D01*
X79144573Y-44244993D01*
X79154500Y-44176860D01*
X79154500Y-43910340D01*
X79152292Y-43895185D01*
X79144776Y-43843600D01*
X79514000Y-43843600D01*
X80036010Y-43843600D01*
X80036011Y-43843598D01*
X80028557Y-43786972D01*
X80028555Y-43786966D01*
X79968100Y-43641014D01*
X79871924Y-43515675D01*
X79746586Y-43419499D01*
X79600631Y-43359044D01*
X79514000Y-43347638D01*
X79514000Y-43843600D01*
X79144776Y-43843600D01*
X79144574Y-43842211D01*
X79144573Y-43842208D01*
X79144573Y-43842207D01*
X79143574Y-43840164D01*
X79126599Y-43805438D01*
X79114000Y-43750980D01*
X79114000Y-43351165D01*
X79068980Y-43315258D01*
X79056907Y-43298055D01*
X79041192Y-43284106D01*
X79037087Y-43269812D01*
X79028844Y-43258066D01*
X79028038Y-43238299D01*
X79022300Y-43218316D01*
X79022300Y-43034600D01*
X79041985Y-42967561D01*
X79094789Y-42921806D01*
X79146300Y-42910600D01*
X79235328Y-42910600D01*
X79235331Y-42910599D01*
X79359932Y-42885814D01*
X79359944Y-42885811D01*
X79477317Y-42837194D01*
X79477319Y-42837193D01*
X79513894Y-42812755D01*
X79156950Y-42455811D01*
X79152611Y-42447865D01*
X79145364Y-42442440D01*
X79136129Y-42417680D01*
X79123465Y-42394488D01*
X79124110Y-42385458D01*
X79120947Y-42376976D01*
X79126563Y-42351155D01*
X79128449Y-42324796D01*
X79134267Y-42315742D01*
X79135799Y-42308703D01*
X79156950Y-42280449D01*
X79186649Y-42250750D01*
X79247972Y-42217265D01*
X79317664Y-42222249D01*
X79362011Y-42250750D01*
X79718955Y-42607694D01*
X79743393Y-42571119D01*
X79743394Y-42571117D01*
X79792011Y-42453744D01*
X79792014Y-42453732D01*
X79816799Y-42329131D01*
X79816800Y-42329128D01*
X79816800Y-42202074D01*
X79812083Y-42178363D01*
X79756159Y-41989106D01*
X79756109Y-41960446D01*
X79753046Y-41931950D01*
X79756050Y-41925947D01*
X79756039Y-41919236D01*
X79771493Y-41895097D01*
X79784321Y-41869471D01*
X79787349Y-41866331D01*
X80050360Y-41603320D01*
X80111681Y-41569837D01*
X80181373Y-41574821D01*
X80237306Y-41616693D01*
X80252600Y-41643550D01*
X80274900Y-41697387D01*
X80371075Y-41822724D01*
X80496414Y-41918900D01*
X80642366Y-41979355D01*
X80642372Y-41979357D01*
X80698998Y-41986811D01*
X80699000Y-41986810D01*
X81099000Y-41986810D01*
X81099001Y-41986811D01*
X81155627Y-41979357D01*
X81155633Y-41979355D01*
X81301585Y-41918900D01*
X81426924Y-41822724D01*
X81523100Y-41697386D01*
X81583554Y-41551434D01*
X81583555Y-41551430D01*
X81594961Y-41464800D01*
X81099000Y-41464800D01*
X81099000Y-41986810D01*
X80699000Y-41986810D01*
X80699000Y-41388800D01*
X80718685Y-41321761D01*
X80771489Y-41276006D01*
X80823000Y-41264800D01*
X80899000Y-41264800D01*
X80899000Y-41229300D01*
X80918685Y-41162261D01*
X80971489Y-41116506D01*
X80994040Y-41108729D01*
X81008316Y-41105300D01*
X81032260Y-41105300D01*
X81100393Y-41095373D01*
X81149405Y-41071412D01*
X81162659Y-41068229D01*
X81174287Y-41068809D01*
X81191619Y-41064800D01*
X81594959Y-41064800D01*
X81594960Y-41064798D01*
X81583557Y-40978172D01*
X81583555Y-40978166D01*
X81523100Y-40832214D01*
X81426921Y-40706871D01*
X81398013Y-40684689D01*
X81395765Y-40681611D01*
X81392297Y-40680027D01*
X81375319Y-40653608D01*
X81356811Y-40628261D01*
X81355985Y-40623524D01*
X81354523Y-40621249D01*
X81349500Y-40586314D01*
X81349500Y-40549500D01*
X81369185Y-40482461D01*
X81421989Y-40436706D01*
X81473500Y-40425500D01*
X88623552Y-40425500D01*
X88690591Y-40445185D01*
X88726653Y-40480607D01*
X88734081Y-40491724D01*
X88734376Y-40492165D01*
X88852835Y-40610624D01*
X88852838Y-40610626D01*
X88904901Y-40645414D01*
X88949707Y-40699025D01*
X88958414Y-40768350D01*
X88928260Y-40831378D01*
X88875016Y-40866222D01*
X88725878Y-40915642D01*
X88725875Y-40915643D01*
X88576654Y-41007684D01*
X88452684Y-41131654D01*
X88360643Y-41280875D01*
X88360641Y-41280880D01*
X88305494Y-41447302D01*
X88305493Y-41447309D01*
X88295000Y-41550013D01*
X88295000Y-41700000D01*
X89389670Y-41700000D01*
X89369925Y-41719745D01*
X89320556Y-41805255D01*
X89295000Y-41900630D01*
X89295000Y-41999370D01*
X89320556Y-42094745D01*
X89369925Y-42180255D01*
X89389670Y-42200000D01*
X88295001Y-42200000D01*
X88295001Y-42349986D01*
X88305494Y-42452697D01*
X88360641Y-42619119D01*
X88360643Y-42619124D01*
X88452684Y-42768345D01*
X88576654Y-42892315D01*
X88725875Y-42984356D01*
X88725880Y-42984358D01*
X88892302Y-43039505D01*
X88892309Y-43039506D01*
X88995019Y-43049999D01*
X89419999Y-43049999D01*
X89420000Y-43049998D01*
X89420000Y-42230330D01*
X89439745Y-42250075D01*
X89525255Y-42299444D01*
X89620630Y-42325000D01*
X89719370Y-42325000D01*
X89814745Y-42299444D01*
X89900255Y-42250075D01*
X89920000Y-42230330D01*
X89920000Y-43049999D01*
X90344972Y-43049999D01*
X90344986Y-43049998D01*
X90447697Y-43039505D01*
X90614119Y-42984358D01*
X90614124Y-42984356D01*
X90763345Y-42892315D01*
X90887315Y-42768345D01*
X90979356Y-42619124D01*
X90979358Y-42619119D01*
X91034505Y-42452697D01*
X91034506Y-42452690D01*
X91044999Y-42349986D01*
X91045000Y-42349973D01*
X91045000Y-42200000D01*
X89950330Y-42200000D01*
X89970075Y-42180255D01*
X90019444Y-42094745D01*
X90045000Y-41999370D01*
X90045000Y-41900630D01*
X90019444Y-41805255D01*
X89970075Y-41719745D01*
X89950330Y-41700000D01*
X91044999Y-41700000D01*
X91044999Y-41550028D01*
X91044998Y-41550013D01*
X91034505Y-41447302D01*
X90979358Y-41280880D01*
X90979356Y-41280875D01*
X90887315Y-41131654D01*
X90763345Y-41007684D01*
X90614124Y-40915643D01*
X90614119Y-40915641D01*
X90464983Y-40866223D01*
X90407538Y-40826451D01*
X90380715Y-40761935D01*
X90393030Y-40693159D01*
X90435095Y-40645416D01*
X90487162Y-40610626D01*
X90605626Y-40492162D01*
X90698703Y-40352863D01*
X90762816Y-40198082D01*
X90795500Y-40033767D01*
X90795500Y-39866233D01*
X90762816Y-39701918D01*
X90698703Y-39547137D01*
X90650168Y-39474500D01*
X90605626Y-39407837D01*
X90487162Y-39289373D01*
X90347860Y-39196295D01*
X90193082Y-39132184D01*
X90193074Y-39132182D01*
X90028771Y-39099500D01*
X90028767Y-39099500D01*
X89311233Y-39099500D01*
X89311228Y-39099500D01*
X89146925Y-39132182D01*
X89146917Y-39132184D01*
X88992139Y-39196295D01*
X88852837Y-39289373D01*
X88734376Y-39407834D01*
X88726654Y-39419392D01*
X88673041Y-39464196D01*
X88623552Y-39474500D01*
X81270121Y-39474500D01*
X81203082Y-39454815D01*
X81182440Y-39438181D01*
X78761819Y-37017560D01*
X78728334Y-36956237D01*
X78725500Y-36929879D01*
X78725500Y-32494786D01*
X78745185Y-32427747D01*
X78797989Y-32381992D01*
X78867147Y-32372048D01*
X78911499Y-32387398D01*
X78952865Y-32411281D01*
X79099234Y-32450500D01*
X79099236Y-32450500D01*
X79250764Y-32450500D01*
X79250766Y-32450500D01*
X79397135Y-32411281D01*
X79528365Y-32335515D01*
X79635515Y-32228365D01*
X79711281Y-32097135D01*
X79750500Y-31950766D01*
X79750500Y-31799234D01*
X79711281Y-31652865D01*
X79667113Y-31576363D01*
X79662962Y-31560874D01*
X79655523Y-31549298D01*
X79650500Y-31514363D01*
X79650500Y-31449908D01*
X79670185Y-31382869D01*
X79722989Y-31337114D01*
X79774500Y-31325908D01*
X80106940Y-31325908D01*
X80173979Y-31345593D01*
X80219734Y-31398397D01*
X80229678Y-31467555D01*
X80200653Y-31531111D01*
X80191435Y-31540664D01*
X80099722Y-31626049D01*
X80099721Y-31626051D01*
X80026370Y-31749672D01*
X80023445Y-31756732D01*
X80005455Y-31807728D01*
X79997799Y-31860975D01*
X79985000Y-32022382D01*
X79985000Y-32200002D01*
X79987894Y-32253990D01*
X79997969Y-32293463D01*
X80000559Y-32341775D01*
X79985000Y-32449996D01*
X79985000Y-32700002D01*
X79987893Y-32753988D01*
X80023442Y-32893259D01*
X80026371Y-32900330D01*
X80078106Y-32995076D01*
X80176049Y-33100277D01*
X80176051Y-33100278D01*
X80299672Y-33173629D01*
X80306732Y-33176554D01*
X80357727Y-33194544D01*
X80408340Y-33201821D01*
X80471895Y-33230846D01*
X80509670Y-33289624D01*
X80510840Y-33293889D01*
X80523441Y-33343256D01*
X80523444Y-33343264D01*
X80526371Y-33350330D01*
X80578106Y-33445077D01*
X80578109Y-33445080D01*
X80649589Y-33521857D01*
X80675158Y-33522313D01*
X80679131Y-33520144D01*
X80748823Y-33525122D01*
X80804760Y-33566988D01*
X80829183Y-33632451D01*
X80829500Y-33641308D01*
X80829500Y-34043181D01*
X80846059Y-34126433D01*
X80839830Y-34196025D01*
X80796966Y-34251201D01*
X80731076Y-34274444D01*
X80722747Y-34274367D01*
X80722747Y-34274500D01*
X80391739Y-34274500D01*
X80323608Y-34284426D01*
X80218514Y-34335803D01*
X80135803Y-34418514D01*
X80084426Y-34523608D01*
X80074500Y-34591739D01*
X80074500Y-34858260D01*
X80084426Y-34926391D01*
X80084427Y-34926393D01*
X80110313Y-34979345D01*
X80127729Y-35014969D01*
X80139488Y-35083842D01*
X80112144Y-35148139D01*
X80104011Y-35157108D01*
X80089488Y-35171630D01*
X80089485Y-35171635D01*
X80013719Y-35302863D01*
X79985939Y-35406543D01*
X79974500Y-35449234D01*
X79974500Y-35600766D01*
X79990208Y-35659391D01*
X80013719Y-35747136D01*
X80051602Y-35812750D01*
X80089485Y-35878365D01*
X80196635Y-35985515D01*
X80327865Y-36061281D01*
X80474234Y-36100500D01*
X80474236Y-36100500D01*
X80625764Y-36100500D01*
X80625766Y-36100500D01*
X80772135Y-36061281D01*
X80903365Y-35985515D01*
X81010515Y-35878365D01*
X81086281Y-35747135D01*
X81125500Y-35600766D01*
X81125500Y-35449234D01*
X81093978Y-35331591D01*
X81095641Y-35261743D01*
X81134804Y-35203881D01*
X81199032Y-35176377D01*
X81213753Y-35175500D01*
X81358261Y-35175500D01*
X81384821Y-35171630D01*
X81426393Y-35165573D01*
X81531483Y-35114198D01*
X81531486Y-35114195D01*
X81539847Y-35108227D01*
X81542129Y-35111424D01*
X81586041Y-35087399D01*
X81655737Y-35092325D01*
X81683683Y-35110285D01*
X81685153Y-35108227D01*
X81693513Y-35114195D01*
X81693514Y-35114195D01*
X81693517Y-35114198D01*
X81798607Y-35165573D01*
X81832673Y-35170536D01*
X81866739Y-35175500D01*
X81991515Y-35175500D01*
X82058554Y-35195185D01*
X82089891Y-35224013D01*
X82112075Y-35252924D01*
X82237413Y-35349100D01*
X82383365Y-35409554D01*
X82383369Y-35409555D01*
X82470000Y-35420961D01*
X82470000Y-35420959D01*
X82870000Y-35420959D01*
X82870001Y-35420960D01*
X82956627Y-35409557D01*
X82956633Y-35409555D01*
X83102585Y-35349100D01*
X83227924Y-35252924D01*
X83324100Y-35127586D01*
X83384555Y-34981631D01*
X83392012Y-34925000D01*
X82870000Y-34925000D01*
X82870000Y-35420959D01*
X82470000Y-35420959D01*
X82470000Y-35017617D01*
X82474433Y-34984758D01*
X82477504Y-34973579D01*
X82500573Y-34926393D01*
X82510500Y-34858260D01*
X82510500Y-34846663D01*
X82510589Y-34844313D01*
X82520977Y-34813316D01*
X82530185Y-34781961D01*
X82532020Y-34780370D01*
X82532793Y-34778065D01*
X82558303Y-34757595D01*
X82582989Y-34736206D01*
X82585696Y-34735617D01*
X82587289Y-34734339D01*
X82595593Y-34733463D01*
X82634500Y-34725000D01*
X82670000Y-34725000D01*
X82670000Y-34649000D01*
X82689685Y-34581961D01*
X82742489Y-34536206D01*
X82794000Y-34525000D01*
X83392010Y-34525000D01*
X83392011Y-34524998D01*
X83384557Y-34468372D01*
X83384556Y-34468369D01*
X83375238Y-34445873D01*
X83367769Y-34376404D01*
X83399044Y-34313924D01*
X83459133Y-34278272D01*
X83489799Y-34274420D01*
X83973679Y-34274420D01*
X83973681Y-34274420D01*
X84094616Y-34242015D01*
X84203044Y-34179415D01*
X84701223Y-33681234D01*
X84756806Y-33649143D01*
X84842135Y-33626281D01*
X84973365Y-33550515D01*
X85080515Y-33443365D01*
X85156281Y-33312135D01*
X85179143Y-33226806D01*
X85211234Y-33171223D01*
X85580495Y-32801964D01*
X85643095Y-32693536D01*
X85675500Y-32572601D01*
X85675500Y-32447399D01*
X85675500Y-32090635D01*
X85692114Y-32028634D01*
X85718819Y-31982379D01*
X85736281Y-31952135D01*
X85775500Y-31805766D01*
X85775500Y-31654234D01*
X85736281Y-31507865D01*
X85713008Y-31467555D01*
X85692113Y-31431363D01*
X85675500Y-31369363D01*
X85675500Y-31066974D01*
X85695185Y-30999935D01*
X85747989Y-30954180D01*
X85775135Y-30946734D01*
X85774932Y-30945874D01*
X85782479Y-30944090D01*
X85782481Y-30944089D01*
X85782483Y-30944089D01*
X85917331Y-30893794D01*
X86032546Y-30807544D01*
X86118796Y-30692329D01*
X86169091Y-30557481D01*
X86175500Y-30497871D01*
X86175499Y-29902126D01*
X86170299Y-29853755D01*
X86169091Y-29842514D01*
X86118797Y-29707669D01*
X86118793Y-29707662D01*
X86032547Y-29592453D01*
X86032544Y-29592450D01*
X85917335Y-29506204D01*
X85917323Y-29506198D01*
X85897532Y-29498816D01*
X85841598Y-29456945D01*
X85817182Y-29391480D01*
X85832034Y-29323207D01*
X85881440Y-29273802D01*
X85901863Y-29264929D01*
X85994117Y-29234359D01*
X85994124Y-29234356D01*
X86143345Y-29142315D01*
X86267315Y-29018345D01*
X86359356Y-28869124D01*
X86359358Y-28869119D01*
X86414505Y-28702697D01*
X86414506Y-28702690D01*
X86424999Y-28599986D01*
X86425000Y-28599973D01*
X86425000Y-28550000D01*
X85324000Y-28550000D01*
X85256961Y-28530315D01*
X85211206Y-28477511D01*
X85200000Y-28426000D01*
X85200000Y-28300000D01*
X85074000Y-28300000D01*
X85006961Y-28280315D01*
X84961206Y-28227511D01*
X84950000Y-28176000D01*
X84950000Y-28050000D01*
X85450000Y-28050000D01*
X86424999Y-28050000D01*
X86424999Y-28000028D01*
X86424998Y-28000013D01*
X86414505Y-27897302D01*
X86359358Y-27730880D01*
X86359356Y-27730875D01*
X86267315Y-27581654D01*
X86143345Y-27457684D01*
X85994124Y-27365643D01*
X85994119Y-27365641D01*
X85827697Y-27310494D01*
X85827690Y-27310493D01*
X85724986Y-27300000D01*
X85450000Y-27300000D01*
X85450000Y-28050000D01*
X84950000Y-28050000D01*
X84950000Y-27300000D01*
X84675029Y-27300000D01*
X84675012Y-27300001D01*
X84572302Y-27310494D01*
X84405880Y-27365641D01*
X84405875Y-27365643D01*
X84256654Y-27457684D01*
X84132683Y-27581655D01*
X84117629Y-27606061D01*
X84065680Y-27652784D01*
X83996717Y-27664004D01*
X83937781Y-27640228D01*
X83892330Y-27606203D01*
X83892328Y-27606202D01*
X83757482Y-27555908D01*
X83757483Y-27555908D01*
X83697883Y-27549501D01*
X83697881Y-27549500D01*
X83697873Y-27549500D01*
X83697864Y-27549500D01*
X82852129Y-27549500D01*
X82852123Y-27549501D01*
X82792516Y-27555908D01*
X82657671Y-27606202D01*
X82657664Y-27606206D01*
X82542455Y-27692452D01*
X82542452Y-27692455D01*
X82456206Y-27807664D01*
X82456202Y-27807671D01*
X82405908Y-27942517D01*
X82399501Y-28002116D01*
X82399501Y-28002123D01*
X82399500Y-28002135D01*
X82399500Y-29797870D01*
X82399501Y-29797876D01*
X82405908Y-29857483D01*
X82424185Y-29906484D01*
X82424294Y-29908012D01*
X82425182Y-29909259D01*
X82426777Y-29942730D01*
X82429169Y-29976176D01*
X82428458Y-29978013D01*
X82428508Y-29979049D01*
X82415391Y-30011815D01*
X82391773Y-30052724D01*
X82391769Y-30052732D01*
X82385836Y-30063007D01*
X82335266Y-30111220D01*
X82278452Y-30125001D01*
X82118579Y-30125001D01*
X82051540Y-30105316D01*
X82011192Y-30063001D01*
X82010624Y-30062017D01*
X81983443Y-30014938D01*
X81966971Y-29947040D01*
X81974648Y-29909609D01*
X81994091Y-29857483D01*
X82000500Y-29797873D01*
X82000499Y-28002128D01*
X81994091Y-27942517D01*
X81980715Y-27906655D01*
X81943797Y-27807671D01*
X81943793Y-27807664D01*
X81857547Y-27692455D01*
X81857544Y-27692452D01*
X81742335Y-27606206D01*
X81742328Y-27606202D01*
X81607482Y-27555908D01*
X81607483Y-27555908D01*
X81547883Y-27549501D01*
X81547881Y-27549500D01*
X81547873Y-27549500D01*
X81547864Y-27549500D01*
X80702129Y-27549500D01*
X80702123Y-27549501D01*
X80642516Y-27555908D01*
X80507671Y-27606202D01*
X80507664Y-27606206D01*
X80392455Y-27692452D01*
X80322232Y-27786256D01*
X80266297Y-27828127D01*
X80196605Y-27833110D01*
X80135285Y-27799625D01*
X80118345Y-27782685D01*
X79969124Y-27690644D01*
X79969119Y-27690642D01*
X79802697Y-27635495D01*
X79802690Y-27635494D01*
X79699986Y-27625001D01*
X79496819Y-27625001D01*
X79475573Y-27618762D01*
X79453485Y-27617183D01*
X79442701Y-27609110D01*
X79429780Y-27605316D01*
X79415280Y-27588582D01*
X79397552Y-27575311D01*
X79392844Y-27562690D01*
X79384025Y-27552512D01*
X79380873Y-27530594D01*
X79373135Y-27509847D01*
X79375997Y-27496686D01*
X79374081Y-27483354D01*
X79383280Y-27463210D01*
X79387987Y-27441574D01*
X79401255Y-27423848D01*
X79403106Y-27419798D01*
X79409138Y-27413320D01*
X79535640Y-27286818D01*
X79596963Y-27253333D01*
X79623321Y-27250499D01*
X79797872Y-27250499D01*
X79797873Y-27250499D01*
X79857484Y-27244091D01*
X79992332Y-27193796D01*
X80107547Y-27107546D01*
X80193797Y-26992331D01*
X80244092Y-26857483D01*
X80250501Y-26797873D01*
X80250500Y-26202128D01*
X80250500Y-26202127D01*
X81249499Y-26202127D01*
X81249499Y-26202134D01*
X81249499Y-26202135D01*
X81249499Y-26797870D01*
X81249500Y-26797876D01*
X81255907Y-26857483D01*
X81306201Y-26992328D01*
X81306205Y-26992335D01*
X81392451Y-27107544D01*
X81392454Y-27107547D01*
X81507663Y-27193793D01*
X81507670Y-27193797D01*
X81533498Y-27203430D01*
X81642516Y-27244091D01*
X81702126Y-27250500D01*
X82297871Y-27250499D01*
X82357482Y-27244091D01*
X82492330Y-27193796D01*
X82607545Y-27107546D01*
X82669198Y-27025188D01*
X82672853Y-27022451D01*
X82674751Y-27018297D01*
X82700565Y-27001706D01*
X82725131Y-26983318D01*
X82730760Y-26982302D01*
X82733529Y-26980523D01*
X82768464Y-26975500D01*
X82989364Y-26975500D01*
X83051363Y-26992112D01*
X83127865Y-27036281D01*
X83274234Y-27075500D01*
X83274236Y-27075500D01*
X83425764Y-27075500D01*
X83425766Y-27075500D01*
X83572135Y-27036281D01*
X83703365Y-26960515D01*
X83810515Y-26853365D01*
X83886281Y-26722135D01*
X83925500Y-26575766D01*
X83925500Y-26424234D01*
X83886281Y-26277865D01*
X83810515Y-26146635D01*
X83703365Y-26039485D01*
X83618209Y-25990320D01*
X83572136Y-25963719D01*
X83456268Y-25932673D01*
X83425766Y-25924500D01*
X83274234Y-25924500D01*
X83127863Y-25963719D01*
X83081791Y-25990320D01*
X83051363Y-26007887D01*
X83035875Y-26012037D01*
X83024299Y-26019477D01*
X82989364Y-26024500D01*
X82768464Y-26024500D01*
X82701425Y-26004815D01*
X82669197Y-25974811D01*
X82607545Y-25892454D01*
X82566897Y-25862025D01*
X82492334Y-25806206D01*
X82492327Y-25806202D01*
X82357485Y-25755910D01*
X82357484Y-25755909D01*
X82357482Y-25755909D01*
X82297872Y-25749500D01*
X82297862Y-25749500D01*
X81702128Y-25749500D01*
X81702122Y-25749501D01*
X81642515Y-25755908D01*
X81507670Y-25806202D01*
X81507663Y-25806206D01*
X81392454Y-25892452D01*
X81392451Y-25892455D01*
X81306205Y-26007664D01*
X81306201Y-26007671D01*
X81261645Y-26127135D01*
X81255908Y-26142517D01*
X81249499Y-26202127D01*
X80250500Y-26202127D01*
X80244092Y-26142517D01*
X80238352Y-26127128D01*
X80193798Y-26007671D01*
X80193794Y-26007664D01*
X80107548Y-25892455D01*
X80107545Y-25892452D01*
X79992336Y-25806206D01*
X79992329Y-25806202D01*
X79857487Y-25755910D01*
X79857486Y-25755909D01*
X79857484Y-25755909D01*
X79797874Y-25749500D01*
X79797864Y-25749500D01*
X79202130Y-25749500D01*
X79202124Y-25749501D01*
X79142517Y-25755908D01*
X79007672Y-25806202D01*
X79007665Y-25806206D01*
X78892456Y-25892452D01*
X78819192Y-25990320D01*
X78763258Y-26032190D01*
X78693566Y-26037174D01*
X78632244Y-26003688D01*
X78603744Y-25959340D01*
X78593798Y-25932673D01*
X78593793Y-25932664D01*
X78507547Y-25817455D01*
X78507544Y-25817452D01*
X78392335Y-25731206D01*
X78392328Y-25731202D01*
X78257482Y-25680908D01*
X78257483Y-25680908D01*
X78197883Y-25674501D01*
X78197881Y-25674500D01*
X78197873Y-25674500D01*
X78197864Y-25674500D01*
X77202129Y-25674500D01*
X77202123Y-25674501D01*
X77142516Y-25680908D01*
X77007671Y-25731202D01*
X77007664Y-25731206D01*
X76892455Y-25817452D01*
X76892452Y-25817455D01*
X76806206Y-25932664D01*
X76806202Y-25932671D01*
X76755908Y-26067517D01*
X76749501Y-26127116D01*
X76749500Y-26127135D01*
X76749500Y-27072870D01*
X76749501Y-27072876D01*
X76755908Y-27132483D01*
X76806202Y-27267328D01*
X76806206Y-27267335D01*
X76892452Y-27382544D01*
X76892455Y-27382547D01*
X77007664Y-27468793D01*
X77007671Y-27468797D01*
X77142517Y-27519091D01*
X77142516Y-27519091D01*
X77149444Y-27519835D01*
X77202127Y-27525500D01*
X78165201Y-27525499D01*
X78176716Y-27528880D01*
X78188664Y-27527739D01*
X78209618Y-27538540D01*
X78232240Y-27545183D01*
X78241651Y-27555053D01*
X78250768Y-27559753D01*
X78272586Y-27587496D01*
X78284713Y-27608499D01*
X78301188Y-27676398D01*
X78278338Y-27742426D01*
X78242430Y-27776038D01*
X78231655Y-27782684D01*
X78107684Y-27906655D01*
X78015643Y-28055876D01*
X78015641Y-28055881D01*
X77960494Y-28222303D01*
X77960493Y-28222310D01*
X77950000Y-28325014D01*
X77950000Y-28375001D01*
X79051000Y-28375001D01*
X79118039Y-28394686D01*
X79163794Y-28447490D01*
X79175000Y-28499001D01*
X79175000Y-28751001D01*
X79155315Y-28818040D01*
X79102511Y-28863795D01*
X79051000Y-28875001D01*
X77950001Y-28875001D01*
X77950001Y-28924987D01*
X77960494Y-29027698D01*
X78015641Y-29194120D01*
X78015643Y-29194125D01*
X78107684Y-29343346D01*
X78231654Y-29467316D01*
X78380875Y-29559357D01*
X78380880Y-29559359D01*
X78473137Y-29589930D01*
X78530582Y-29629702D01*
X78557405Y-29694218D01*
X78545090Y-29762994D01*
X78497547Y-29814194D01*
X78477469Y-29823817D01*
X78457672Y-29831201D01*
X78457664Y-29831205D01*
X78342455Y-29917451D01*
X78342452Y-29917454D01*
X78256206Y-30032663D01*
X78256201Y-30032672D01*
X78233391Y-30093832D01*
X78191520Y-30149766D01*
X78126056Y-30174184D01*
X78117209Y-30174500D01*
X77299499Y-30174500D01*
X77232460Y-30154815D01*
X77186705Y-30102011D01*
X77175499Y-30050500D01*
X77175499Y-29603857D01*
X77175499Y-29603855D01*
X77151613Y-29514711D01*
X77142436Y-29498816D01*
X77142102Y-29498237D01*
X77142100Y-29498235D01*
X77105469Y-29434787D01*
X76692825Y-29022143D01*
X76659340Y-28960820D01*
X76664324Y-28891128D01*
X76665946Y-28887007D01*
X76686296Y-28837879D01*
X76686296Y-28837878D01*
X76697702Y-28751248D01*
X76294360Y-28751248D01*
X76239901Y-28738649D01*
X76231076Y-28734335D01*
X76203134Y-28720675D01*
X76203132Y-28720674D01*
X76203129Y-28720673D01*
X76135002Y-28710748D01*
X76135001Y-28710748D01*
X75868481Y-28710748D01*
X75858404Y-28712216D01*
X75840528Y-28713512D01*
X74767983Y-28713512D01*
X74642781Y-28713512D01*
X74521846Y-28745917D01*
X74521844Y-28745917D01*
X74521844Y-28745918D01*
X74462358Y-28780261D01*
X74432457Y-28792646D01*
X74355715Y-28813210D01*
X74355710Y-28813212D01*
X74230187Y-28885683D01*
X74230181Y-28885688D01*
X74127692Y-28988177D01*
X74127690Y-28988180D01*
X74069871Y-29088325D01*
X74019303Y-29136540D01*
X73950696Y-29149762D01*
X73885832Y-29123794D01*
X73864108Y-29101811D01*
X73802924Y-29022075D01*
X73677586Y-28925899D01*
X73531631Y-28865444D01*
X73445000Y-28854038D01*
X73445000Y-30245959D01*
X73445001Y-30245960D01*
X73531627Y-30234557D01*
X73531633Y-30234555D01*
X73677585Y-30174100D01*
X73802924Y-30077924D01*
X73899100Y-29952586D01*
X73959554Y-29806634D01*
X73959556Y-29806629D01*
X73962864Y-29781501D01*
X73991129Y-29717604D01*
X74049453Y-29679132D01*
X74119318Y-29678300D01*
X74173484Y-29710004D01*
X74230184Y-29766704D01*
X74230185Y-29766705D01*
X74230187Y-29766706D01*
X74355710Y-29839177D01*
X74355711Y-29839177D01*
X74355714Y-29839179D01*
X74495724Y-29876695D01*
X74495727Y-29876695D01*
X74640671Y-29876695D01*
X74640674Y-29876695D01*
X74780684Y-29839179D01*
X74906214Y-29766704D01*
X74972087Y-29700831D01*
X75033410Y-29667346D01*
X75059768Y-29664512D01*
X75809834Y-29664512D01*
X75827712Y-29665808D01*
X75868480Y-29671748D01*
X75868481Y-29671748D01*
X76135002Y-29671748D01*
X76212663Y-29660433D01*
X76212906Y-29662101D01*
X76271568Y-29661267D01*
X76330878Y-29698201D01*
X76360804Y-29761337D01*
X76351846Y-29830630D01*
X76306847Y-29884080D01*
X76285790Y-29895287D01*
X76274611Y-29899918D01*
X76274606Y-29899921D01*
X76199922Y-29974605D01*
X76159500Y-30072189D01*
X76159004Y-30074688D01*
X76156417Y-30079632D01*
X76154827Y-30083473D01*
X76154483Y-30083330D01*
X76126621Y-30136600D01*
X76065906Y-30171176D01*
X76037386Y-30174500D01*
X75629386Y-30174500D01*
X75562347Y-30154815D01*
X75541705Y-30138181D01*
X75538017Y-30134493D01*
X75538011Y-30134488D01*
X75412488Y-30062017D01*
X75412489Y-30062017D01*
X75388167Y-30055500D01*
X75272475Y-30024500D01*
X75127525Y-30024500D01*
X75011833Y-30055500D01*
X74987511Y-30062017D01*
X74861988Y-30134488D01*
X74861982Y-30134493D01*
X74759493Y-30236982D01*
X74759488Y-30236988D01*
X74687017Y-30362511D01*
X74687015Y-30362516D01*
X74656167Y-30477639D01*
X74619802Y-30537299D01*
X74568488Y-30565318D01*
X74487516Y-30587015D01*
X74487511Y-30587017D01*
X74361988Y-30659488D01*
X74361982Y-30659493D01*
X74259493Y-30761982D01*
X74259488Y-30761988D01*
X74187017Y-30887511D01*
X74185333Y-30893795D01*
X74149500Y-31027525D01*
X74149500Y-31172475D01*
X74177106Y-31275499D01*
X74187017Y-31312488D01*
X74259488Y-31438011D01*
X74259490Y-31438013D01*
X74259491Y-31438015D01*
X74361985Y-31540509D01*
X74361986Y-31540510D01*
X74361988Y-31540511D01*
X74487511Y-31612982D01*
X74487512Y-31612982D01*
X74487515Y-31612984D01*
X74627525Y-31650500D01*
X74627528Y-31650500D01*
X74772472Y-31650500D01*
X74772475Y-31650500D01*
X74858575Y-31627429D01*
X74928421Y-31629092D01*
X74986284Y-31668254D01*
X75013789Y-31732482D01*
X75005227Y-31794656D01*
X74950535Y-31926697D01*
X74943078Y-31983329D01*
X75541091Y-31983329D01*
X75549776Y-31985879D01*
X75558738Y-31984591D01*
X75582778Y-31995569D01*
X75608130Y-32003014D01*
X75614057Y-32009854D01*
X75622294Y-32013616D01*
X75636583Y-32035850D01*
X75653885Y-32055818D01*
X75656172Y-32066332D01*
X75660068Y-32072394D01*
X75665091Y-32107329D01*
X75665091Y-32259329D01*
X75645406Y-32326368D01*
X75592602Y-32372123D01*
X75541091Y-32383329D01*
X74943081Y-32383329D01*
X74943079Y-32383330D01*
X74950533Y-32439956D01*
X74950534Y-32439959D01*
X74955956Y-32453048D01*
X74963425Y-32522517D01*
X74932150Y-32584997D01*
X74872061Y-32620649D01*
X74841396Y-32624501D01*
X74727130Y-32624501D01*
X74727123Y-32624502D01*
X74667516Y-32630909D01*
X74532671Y-32681203D01*
X74532664Y-32681207D01*
X74412230Y-32771364D01*
X74411885Y-32771854D01*
X74411215Y-32772124D01*
X74410355Y-32772769D01*
X74410184Y-32772541D01*
X74385856Y-32782377D01*
X74361205Y-32795824D01*
X74352302Y-32795943D01*
X74347109Y-32798043D01*
X74325771Y-32796298D01*
X74311850Y-32796485D01*
X74307295Y-32795623D01*
X74207743Y-32768948D01*
X74166295Y-32768948D01*
X74154872Y-32766787D01*
X74133697Y-32755962D01*
X74110883Y-32749263D01*
X74102779Y-32740156D01*
X74092660Y-32734983D01*
X74082233Y-32717066D01*
X74066521Y-32699408D01*
X74065149Y-32696601D01*
X74039198Y-32643517D01*
X74039196Y-32643515D01*
X74039196Y-32643514D01*
X73956485Y-32560803D01*
X73851391Y-32509426D01*
X73783261Y-32499500D01*
X73783260Y-32499500D01*
X73456740Y-32499500D01*
X73456739Y-32499500D01*
X73388607Y-32509426D01*
X73388606Y-32509426D01*
X73354459Y-32526120D01*
X73285586Y-32537878D01*
X73245541Y-32526120D01*
X73211393Y-32509426D01*
X73143261Y-32499500D01*
X73143260Y-32499500D01*
X72816740Y-32499500D01*
X72816739Y-32499500D01*
X72748608Y-32509426D01*
X72643515Y-32560802D01*
X72624679Y-32579639D01*
X72563355Y-32613123D01*
X72493663Y-32608137D01*
X72437730Y-32566265D01*
X72413315Y-32500800D01*
X72412999Y-32491956D01*
X72412999Y-32303407D01*
X72407506Y-32261678D01*
X72406400Y-32253277D01*
X72406397Y-32253270D01*
X72406397Y-32253269D01*
X72355097Y-32143255D01*
X72355093Y-32143249D01*
X72269250Y-32057406D01*
X72269244Y-32057402D01*
X72159229Y-32006102D01*
X72159224Y-32006100D01*
X72159223Y-32006100D01*
X72159220Y-32006099D01*
X72159218Y-32006099D01*
X72109101Y-31999501D01*
X72109096Y-31999500D01*
X72109091Y-31999500D01*
X72109084Y-31999500D01*
X71912000Y-31999500D01*
X71844961Y-31979815D01*
X71799206Y-31927011D01*
X71788000Y-31875500D01*
X71788000Y-28547689D01*
X71807685Y-28480650D01*
X71860489Y-28434895D01*
X71929647Y-28424951D01*
X71993203Y-28453976D01*
X71999681Y-28460008D01*
X72243181Y-28703508D01*
X72276666Y-28764831D01*
X72279500Y-28791189D01*
X72279500Y-29098456D01*
X72259815Y-29165495D01*
X72243181Y-29186137D01*
X72185803Y-29243514D01*
X72134426Y-29348608D01*
X72124500Y-29416739D01*
X72124500Y-29683260D01*
X72134426Y-29751391D01*
X72134427Y-29751393D01*
X72173441Y-29831199D01*
X72185803Y-29856485D01*
X72268514Y-29939196D01*
X72268515Y-29939196D01*
X72268517Y-29939198D01*
X72373607Y-29990573D01*
X72398487Y-29994198D01*
X72441739Y-30000500D01*
X72566515Y-30000500D01*
X72633554Y-30020185D01*
X72664891Y-30049013D01*
X72687075Y-30077924D01*
X72812413Y-30174100D01*
X72958365Y-30234554D01*
X72958369Y-30234555D01*
X73045000Y-30245961D01*
X73045000Y-29842617D01*
X73057598Y-29788159D01*
X73075573Y-29751393D01*
X73085500Y-29683260D01*
X73085500Y-29416740D01*
X73075573Y-29348607D01*
X73073001Y-29343346D01*
X73057599Y-29311838D01*
X73045000Y-29257380D01*
X73045000Y-28854038D01*
X73034755Y-28845054D01*
X73001650Y-28839892D01*
X72949394Y-28793512D01*
X72930500Y-28727718D01*
X72930500Y-28562149D01*
X72930500Y-28562147D01*
X72908318Y-28479362D01*
X72907249Y-28477511D01*
X72865469Y-28405144D01*
X72865463Y-28405136D01*
X72218419Y-27758092D01*
X72184934Y-27696769D01*
X72182100Y-27670411D01*
X72182100Y-27139495D01*
X72201785Y-27072456D01*
X72254589Y-27026701D01*
X72323747Y-27016757D01*
X72387303Y-27045782D01*
X72409202Y-27070604D01*
X72471553Y-27163920D01*
X72593496Y-27285863D01*
X72593500Y-27285866D01*
X72736887Y-27381675D01*
X72736896Y-27381680D01*
X72772989Y-27396630D01*
X72896224Y-27447676D01*
X73065364Y-27481320D01*
X73065367Y-27481321D01*
X73065369Y-27481321D01*
X73237829Y-27481321D01*
X73237830Y-27481320D01*
X73406972Y-27447676D01*
X73566302Y-27381679D01*
X73687762Y-27300521D01*
X73754438Y-27279644D01*
X73821818Y-27298128D01*
X73862190Y-27338527D01*
X73957680Y-27493340D01*
X73957683Y-27493344D01*
X74081654Y-27617315D01*
X74230875Y-27709356D01*
X74230880Y-27709358D01*
X74397302Y-27764505D01*
X74397309Y-27764506D01*
X74500019Y-27774999D01*
X74749999Y-27774999D01*
X75250000Y-27774999D01*
X75393050Y-27774999D01*
X75460089Y-27794684D01*
X75505844Y-27847488D01*
X75515788Y-27916646D01*
X75486763Y-27980202D01*
X75479258Y-27987271D01*
X75479563Y-27987576D01*
X75473820Y-27993318D01*
X75377640Y-28118661D01*
X75317186Y-28264613D01*
X75317185Y-28264617D01*
X75305779Y-28351248D01*
X75801741Y-28351248D01*
X76201741Y-28351248D01*
X76697700Y-28351248D01*
X76697701Y-28351246D01*
X76686298Y-28264620D01*
X76686296Y-28264614D01*
X76625841Y-28118662D01*
X76529665Y-27993323D01*
X76404327Y-27897147D01*
X76258372Y-27836692D01*
X76201741Y-27829235D01*
X76201741Y-28351248D01*
X75801741Y-28351248D01*
X75801741Y-27806524D01*
X75796779Y-27798702D01*
X75797195Y-27728834D01*
X75835319Y-27670281D01*
X75850866Y-27658937D01*
X75918343Y-27617317D01*
X76042315Y-27493345D01*
X76134356Y-27344124D01*
X76134358Y-27344119D01*
X76189505Y-27177697D01*
X76189506Y-27177690D01*
X76199999Y-27074986D01*
X76200000Y-27074973D01*
X76200000Y-26850000D01*
X75250000Y-26850000D01*
X75250000Y-27774999D01*
X74749999Y-27774999D01*
X74750000Y-27774998D01*
X74750000Y-26350000D01*
X75250000Y-26350000D01*
X76199999Y-26350000D01*
X76199999Y-26125028D01*
X76199998Y-26125013D01*
X76189505Y-26022302D01*
X76134358Y-25855880D01*
X76134356Y-25855875D01*
X76042315Y-25706654D01*
X75918345Y-25582684D01*
X75769124Y-25490643D01*
X75769119Y-25490641D01*
X75602697Y-25435494D01*
X75602690Y-25435493D01*
X75499986Y-25425000D01*
X75250000Y-25425000D01*
X75250000Y-26350000D01*
X74750000Y-26350000D01*
X74750000Y-25425000D01*
X74500029Y-25425000D01*
X74500012Y-25425001D01*
X74397302Y-25435494D01*
X74230880Y-25490641D01*
X74230875Y-25490643D01*
X74081654Y-25582684D01*
X73957684Y-25706654D01*
X73865637Y-25855885D01*
X73864828Y-25857622D01*
X73863956Y-25858612D01*
X73861851Y-25862025D01*
X73861267Y-25861665D01*
X73818653Y-25910059D01*
X73751458Y-25929207D01*
X73684578Y-25908987D01*
X73683558Y-25908313D01*
X73566308Y-25829968D01*
X73566299Y-25829963D01*
X73406972Y-25763968D01*
X73406964Y-25763966D01*
X73237830Y-25730323D01*
X73237827Y-25730323D01*
X73065369Y-25730323D01*
X73065366Y-25730323D01*
X72896231Y-25763966D01*
X72896223Y-25763968D01*
X72736896Y-25829963D01*
X72736887Y-25829968D01*
X72593500Y-25925777D01*
X72593496Y-25925780D01*
X72471556Y-26047720D01*
X72471553Y-26047724D01*
X72409202Y-26141039D01*
X72355590Y-26185844D01*
X72286265Y-26194551D01*
X72223237Y-26164396D01*
X72186518Y-26104953D01*
X72182100Y-26072148D01*
X72182100Y-23350549D01*
X72182100Y-23350547D01*
X72159918Y-23267762D01*
X72159918Y-23267761D01*
X72117065Y-23193538D01*
X71777062Y-22853535D01*
X71739950Y-22832108D01*
X71702840Y-22810682D01*
X71661446Y-22799591D01*
X71620053Y-22788500D01*
X71620052Y-22788500D01*
X67208065Y-22788500D01*
X67208049Y-22788499D01*
X67200453Y-22788499D01*
X67114747Y-22788499D01*
X67081632Y-22797372D01*
X67031958Y-22810682D01*
X67007442Y-22824838D01*
X67007441Y-22824839D01*
X66961800Y-22851190D01*
X66957735Y-22853537D01*
X66308092Y-23503181D01*
X66246769Y-23536666D01*
X66220411Y-23539500D01*
X66202523Y-23539500D01*
X66087514Y-23570317D01*
X66062509Y-23577017D01*
X65936998Y-23649482D01*
X65869098Y-23665955D01*
X65812998Y-23649482D01*
X65687486Y-23577017D01*
X65687487Y-23577017D01*
X65662482Y-23570317D01*
X65547473Y-23539500D01*
X65402523Y-23539500D01*
X65287514Y-23570317D01*
X65262509Y-23577017D01*
X65136998Y-23649482D01*
X65069098Y-23665955D01*
X65012998Y-23649482D01*
X64887486Y-23577017D01*
X64887487Y-23577017D01*
X64862482Y-23570317D01*
X64747473Y-23539500D01*
X64602523Y-23539500D01*
X64487514Y-23570317D01*
X64462509Y-23577017D01*
X64336986Y-23649488D01*
X64336980Y-23649493D01*
X64234491Y-23751982D01*
X64234486Y-23751988D01*
X64162015Y-23877511D01*
X64162013Y-23877515D01*
X64148207Y-23929038D01*
X64143831Y-23936216D01*
X64142919Y-23944576D01*
X64125916Y-23965605D01*
X64111841Y-23988697D01*
X64103135Y-23993782D01*
X64098991Y-23998909D01*
X64082127Y-24006056D01*
X64067405Y-24014657D01*
X64007970Y-24034334D01*
X63977398Y-24035377D01*
X63966842Y-24036511D01*
X63974998Y-24074000D01*
X63974998Y-24136446D01*
X64179124Y-24340573D01*
X64198829Y-24366252D01*
X64216297Y-24396506D01*
X64234489Y-24428015D01*
X64234490Y-24428016D01*
X64234491Y-24428017D01*
X64342730Y-24536256D01*
X64341727Y-24537258D01*
X64346652Y-24544003D01*
X64360341Y-24554251D01*
X64366825Y-24571635D01*
X64377767Y-24586623D01*
X64378782Y-24603693D01*
X64384436Y-24618852D01*
X64314780Y-24590000D01*
X64235216Y-24590000D01*
X64161707Y-24620448D01*
X64105446Y-24676709D01*
X64074998Y-24750218D01*
X64074998Y-24829782D01*
X64105446Y-24903291D01*
X64113976Y-24911821D01*
X64054887Y-24907596D01*
X64010540Y-24879095D01*
X63581445Y-24450000D01*
X63194998Y-24450000D01*
X63194998Y-23950000D01*
X63850462Y-23950000D01*
X63848849Y-23947282D01*
X63848009Y-23940600D01*
X63846933Y-23938441D01*
X63847307Y-23935008D01*
X63844998Y-23916618D01*
X63844998Y-23811357D01*
X63844997Y-23811353D01*
X63810413Y-23637487D01*
X63810411Y-23637479D01*
X63742569Y-23473692D01*
X63742564Y-23473683D01*
X63644074Y-23326283D01*
X63644071Y-23326279D01*
X63518718Y-23200926D01*
X63518714Y-23200923D01*
X63371314Y-23102433D01*
X63371305Y-23102428D01*
X63207517Y-23034585D01*
X63194998Y-23032094D01*
X63194998Y-23850272D01*
X63156938Y-23758386D01*
X63086612Y-23688060D01*
X62994726Y-23650000D01*
X62895270Y-23650000D01*
X62803384Y-23688060D01*
X62733058Y-23758386D01*
X62694998Y-23850272D01*
X62694998Y-23032095D01*
X62694997Y-23032094D01*
X62682478Y-23034585D01*
X62518690Y-23102428D01*
X62518681Y-23102433D01*
X62371281Y-23200923D01*
X62371277Y-23200926D01*
X62245924Y-23326279D01*
X62245921Y-23326283D01*
X62147431Y-23473683D01*
X62147426Y-23473692D01*
X62079584Y-23637479D01*
X62079582Y-23637487D01*
X62044998Y-23811353D01*
X62044998Y-23950000D01*
X62694998Y-23950000D01*
X62694998Y-24450000D01*
X62038046Y-24450000D01*
X61992035Y-24475123D01*
X61922343Y-24470137D01*
X61866411Y-24428265D01*
X61850617Y-24400181D01*
X61846314Y-24389471D01*
X61840253Y-24358998D01*
X61774256Y-24199668D01*
X61763740Y-24183930D01*
X61758938Y-24171976D01*
X61756765Y-24149504D01*
X61750020Y-24127962D01*
X61750000Y-24125751D01*
X61750000Y-22741747D01*
X61769685Y-22674708D01*
X61777045Y-22664444D01*
X61822771Y-22607114D01*
X61826096Y-22600211D01*
X61851353Y-22547766D01*
X61874154Y-22500421D01*
X61900501Y-22384967D01*
X61900498Y-22325757D01*
X61900498Y-22325687D01*
X61900498Y-20957041D01*
X61920183Y-20890002D01*
X61972987Y-20844247D01*
X62042145Y-20834303D01*
X62093389Y-20853939D01*
X62158681Y-20897566D01*
X62158691Y-20897571D01*
X62322474Y-20965412D01*
X62322481Y-20965415D01*
X62334998Y-20967904D01*
X62334998Y-20149728D01*
X62373058Y-20241614D01*
X62443384Y-20311940D01*
X62535270Y-20350000D01*
X62634726Y-20350000D01*
X62726612Y-20311940D01*
X62796938Y-20241614D01*
X62834998Y-20149728D01*
X62834998Y-20967903D01*
X62847514Y-20965415D01*
X62847521Y-20965412D01*
X63011304Y-20897571D01*
X63011314Y-20897566D01*
X63158714Y-20799076D01*
X63158718Y-20799073D01*
X63284071Y-20673720D01*
X63284074Y-20673716D01*
X63382564Y-20526316D01*
X63382569Y-20526307D01*
X63450411Y-20362520D01*
X63450413Y-20362512D01*
X63484997Y-20188646D01*
X63484998Y-20188643D01*
X63484998Y-20050000D01*
X62834998Y-20050000D01*
X62834998Y-19550000D01*
X63484998Y-19550000D01*
X63484998Y-19411357D01*
X63484997Y-19411353D01*
X63450413Y-19237487D01*
X63450411Y-19237479D01*
X63382569Y-19073692D01*
X63382564Y-19073683D01*
X63284074Y-18926283D01*
X63284071Y-18926279D01*
X63158718Y-18800926D01*
X63158714Y-18800923D01*
X63011314Y-18702433D01*
X63011305Y-18702428D01*
X62847517Y-18634585D01*
X62834998Y-18632094D01*
X62834998Y-19450272D01*
X62796938Y-19358386D01*
X62726612Y-19288060D01*
X62634726Y-19250000D01*
X62535270Y-19250000D01*
X62443384Y-19288060D01*
X62373058Y-19358386D01*
X62334998Y-19450272D01*
X62334998Y-18632095D01*
X62334997Y-18632094D01*
X62322478Y-18634585D01*
X62158690Y-18702428D01*
X62158683Y-18702432D01*
X62093388Y-18746061D01*
X62026710Y-18766938D01*
X61959330Y-18748453D01*
X61912641Y-18696474D01*
X61900498Y-18642958D01*
X61900498Y-18099976D01*
X61900500Y-18099972D01*
X61900498Y-18079432D01*
X61901557Y-18063277D01*
X61911123Y-17990578D01*
X61919498Y-17959314D01*
X61944417Y-17899142D01*
X61960598Y-17871114D01*
X62000240Y-17819447D01*
X62023124Y-17796561D01*
X62074793Y-17756912D01*
X62102817Y-17740731D01*
X62162991Y-17715805D01*
X62194249Y-17707429D01*
X62266636Y-17697899D01*
X62266644Y-17697898D01*
X62282829Y-17696837D01*
X71821689Y-17696837D01*
X71846352Y-17696837D01*
X71846353Y-17696838D01*
G37*
%TD.AperFunction*%
%TA.AperFunction,Conductor*%
G36*
X61470109Y-40257404D02*
G01*
X61514456Y-40285905D01*
X62523436Y-41294885D01*
X62607189Y-41232187D01*
X62607193Y-41232184D01*
X62676888Y-41139083D01*
X62732821Y-41097211D01*
X62802513Y-41092227D01*
X62863836Y-41125712D01*
X62887555Y-41158932D01*
X62910802Y-41206483D01*
X62910802Y-41206484D01*
X62993514Y-41289196D01*
X62993515Y-41289196D01*
X62993517Y-41289198D01*
X63098607Y-41340573D01*
X63132673Y-41345536D01*
X63166739Y-41350500D01*
X63229455Y-41350500D01*
X63296494Y-41370185D01*
X63342249Y-41422989D01*
X63352193Y-41492147D01*
X63323168Y-41555703D01*
X63317136Y-41562181D01*
X63069529Y-41809788D01*
X63045183Y-41851958D01*
X63028366Y-41881087D01*
X63028364Y-41881091D01*
X63023386Y-41889711D01*
X62999500Y-41978856D01*
X62999500Y-43425500D01*
X62979815Y-43492539D01*
X62927011Y-43538294D01*
X62875500Y-43549500D01*
X62675326Y-43549500D01*
X62624190Y-43559671D01*
X62575810Y-43559671D01*
X62524674Y-43549500D01*
X62175326Y-43549500D01*
X62124190Y-43559671D01*
X62075810Y-43559671D01*
X62024674Y-43549500D01*
X61675326Y-43549500D01*
X61624190Y-43559671D01*
X61575810Y-43559671D01*
X61524674Y-43549500D01*
X61175326Y-43549500D01*
X61124190Y-43559671D01*
X61075810Y-43559671D01*
X61024674Y-43549500D01*
X60824500Y-43549500D01*
X60757461Y-43529815D01*
X60711706Y-43477011D01*
X60700500Y-43425500D01*
X60700500Y-41928935D01*
X60717112Y-41866936D01*
X60762984Y-41787485D01*
X60800500Y-41647475D01*
X60800500Y-41502525D01*
X60800500Y-41499000D01*
X60820185Y-41431961D01*
X60872989Y-41386206D01*
X60924500Y-41375000D01*
X61896448Y-41375000D01*
X61896448Y-41374999D01*
X61160905Y-40639456D01*
X61127420Y-40578133D01*
X61132404Y-40508441D01*
X61160905Y-40464094D01*
X61339094Y-40285905D01*
X61400417Y-40252420D01*
X61470109Y-40257404D01*
G37*
%TD.AperFunction*%
%TA.AperFunction,Conductor*%
G36*
X68136032Y-37053053D02*
G01*
X68148154Y-37053076D01*
X68167864Y-37065795D01*
X68189643Y-37074513D01*
X68196674Y-37084386D01*
X68206861Y-37090960D01*
X68216566Y-37112318D01*
X68230174Y-37131425D01*
X68231468Y-37145110D01*
X68235767Y-37154570D01*
X68235701Y-37189864D01*
X68234427Y-37198606D01*
X68234427Y-37198607D01*
X68224500Y-37266740D01*
X68224500Y-37266745D01*
X68224500Y-37783260D01*
X68234426Y-37851391D01*
X68285803Y-37956485D01*
X68368514Y-38039196D01*
X68368515Y-38039196D01*
X68368517Y-38039198D01*
X68473607Y-38090573D01*
X68507430Y-38095501D01*
X68541739Y-38100500D01*
X68688630Y-38100500D01*
X68755669Y-38120185D01*
X68801424Y-38172989D01*
X68811368Y-38242147D01*
X68808407Y-38256582D01*
X68774500Y-38383125D01*
X68774500Y-38528075D01*
X68796529Y-38610287D01*
X68812017Y-38668089D01*
X68815128Y-38675599D01*
X68812562Y-38676661D01*
X68825840Y-38731409D01*
X68802983Y-38797434D01*
X68748059Y-38840621D01*
X68701981Y-38849500D01*
X68541739Y-38849500D01*
X68473608Y-38859426D01*
X68368514Y-38910803D01*
X68285803Y-38993514D01*
X68234426Y-39098608D01*
X68224500Y-39166739D01*
X68224500Y-39683260D01*
X68234426Y-39751392D01*
X68234426Y-39751393D01*
X68265644Y-39815251D01*
X68277402Y-39884124D01*
X68250058Y-39948421D01*
X68216244Y-39977096D01*
X68159332Y-40009955D01*
X68159323Y-40009961D01*
X68056834Y-40112450D01*
X68056829Y-40112456D01*
X67984358Y-40237979D01*
X67984357Y-40237983D01*
X67946841Y-40377993D01*
X67946841Y-40522943D01*
X67980300Y-40647812D01*
X67984358Y-40662956D01*
X68056829Y-40788479D01*
X68056831Y-40788481D01*
X68056832Y-40788483D01*
X68159326Y-40890977D01*
X68163894Y-40893614D01*
X68212110Y-40944179D01*
X68225335Y-41012785D01*
X68213298Y-41055460D01*
X68204426Y-41073607D01*
X68194500Y-41141739D01*
X68194500Y-41408260D01*
X68204426Y-41476391D01*
X68255803Y-41581485D01*
X68338513Y-41664195D01*
X68338514Y-41664195D01*
X68338517Y-41664198D01*
X68338877Y-41664374D01*
X68339286Y-41664748D01*
X68346878Y-41670168D01*
X68346223Y-41671084D01*
X68390460Y-41711497D01*
X68408378Y-41779030D01*
X68386941Y-41845530D01*
X68351872Y-41878103D01*
X68352239Y-41878580D01*
X68347180Y-41882462D01*
X68346433Y-41883156D01*
X68345797Y-41883522D01*
X68345786Y-41883531D01*
X67558431Y-42670887D01*
X67497108Y-42704372D01*
X67427416Y-42699388D01*
X67371483Y-42657516D01*
X67347066Y-42592052D01*
X67346750Y-42583206D01*
X67346750Y-37822057D01*
X67366435Y-37755018D01*
X67383069Y-37734376D01*
X67680022Y-37437423D01*
X68003084Y-37114361D01*
X68005606Y-37109991D01*
X68014378Y-37101626D01*
X68019435Y-37090609D01*
X68039193Y-37077963D01*
X68056171Y-37061774D01*
X68068074Y-37059479D01*
X68078284Y-37052945D01*
X68101740Y-37052988D01*
X68124777Y-37048548D01*
X68136032Y-37053053D01*
G37*
%TD.AperFunction*%
%TA.AperFunction,Conductor*%
G36*
X76194683Y-32798450D02*
G01*
X76221897Y-32804370D01*
X76227245Y-32809718D01*
X76234393Y-32812192D01*
X76251609Y-32834082D01*
X76271302Y-32853775D01*
X76272909Y-32861165D01*
X76277586Y-32867111D01*
X76280234Y-32894834D01*
X76286155Y-32922048D01*
X76283847Y-32932653D01*
X76284231Y-32936664D01*
X76278653Y-32956535D01*
X76255910Y-33017512D01*
X76255909Y-33017516D01*
X76255909Y-33017518D01*
X76249500Y-33077128D01*
X76249500Y-33077135D01*
X76249500Y-33077136D01*
X76249500Y-33672871D01*
X76249501Y-33672877D01*
X76255908Y-33732484D01*
X76306202Y-33867329D01*
X76306206Y-33867336D01*
X76392452Y-33982545D01*
X76392455Y-33982548D01*
X76507664Y-34068794D01*
X76507671Y-34068798D01*
X76552618Y-34085562D01*
X76642517Y-34119092D01*
X76702127Y-34125501D01*
X77297872Y-34125500D01*
X77357483Y-34119092D01*
X77492331Y-34068797D01*
X77576189Y-34006020D01*
X77641652Y-33981603D01*
X77709926Y-33996454D01*
X77759331Y-34045859D01*
X77774500Y-34105287D01*
X77774500Y-35144712D01*
X77754815Y-35211751D01*
X77702011Y-35257506D01*
X77632853Y-35267450D01*
X77576189Y-35243979D01*
X77559269Y-35231313D01*
X77492331Y-35181203D01*
X77492329Y-35181202D01*
X77492328Y-35181201D01*
X77357486Y-35130909D01*
X77357485Y-35130908D01*
X77357483Y-35130908D01*
X77297873Y-35124499D01*
X77297863Y-35124499D01*
X76702129Y-35124499D01*
X76702123Y-35124500D01*
X76642516Y-35130907D01*
X76507671Y-35181201D01*
X76507664Y-35181205D01*
X76392455Y-35267451D01*
X76392452Y-35267454D01*
X76306206Y-35382663D01*
X76306202Y-35382670D01*
X76255910Y-35517512D01*
X76255909Y-35517516D01*
X76249500Y-35577126D01*
X76249500Y-35577133D01*
X76249500Y-35577134D01*
X76249500Y-36172869D01*
X76249501Y-36172875D01*
X76255908Y-36232482D01*
X76306202Y-36367327D01*
X76306206Y-36367334D01*
X76392452Y-36482543D01*
X76392455Y-36482546D01*
X76507664Y-36568792D01*
X76507669Y-36568795D01*
X76568833Y-36591607D01*
X76624766Y-36633477D01*
X76649184Y-36698941D01*
X76649500Y-36707789D01*
X76649500Y-36896374D01*
X76666764Y-36960803D01*
X76671391Y-36978073D01*
X76673386Y-36985519D01*
X76719527Y-37065438D01*
X76719531Y-37065443D01*
X76745717Y-37091629D01*
X76779202Y-37152952D01*
X76782036Y-37179310D01*
X76782036Y-37255241D01*
X76819552Y-37395251D01*
X76819553Y-37395254D01*
X76892024Y-37520777D01*
X76892026Y-37520779D01*
X76892027Y-37520781D01*
X76994521Y-37623275D01*
X76994522Y-37623276D01*
X76994524Y-37623277D01*
X77120047Y-37695748D01*
X77120048Y-37695748D01*
X77120051Y-37695750D01*
X77260061Y-37733266D01*
X77260064Y-37733266D01*
X77405008Y-37733266D01*
X77405011Y-37733266D01*
X77545021Y-37695750D01*
X77670551Y-37623275D01*
X77758905Y-37534920D01*
X77820224Y-37501438D01*
X77889916Y-37506422D01*
X77934264Y-37534923D01*
X80482342Y-40083001D01*
X80515827Y-40144324D01*
X80510843Y-40214016D01*
X80468971Y-40269949D01*
X80426757Y-40290456D01*
X80399396Y-40297788D01*
X80397915Y-40298184D01*
X80397909Y-40298187D01*
X80317991Y-40344327D01*
X80317986Y-40344331D01*
X79783537Y-40878781D01*
X79722214Y-40912266D01*
X79695856Y-40915100D01*
X79388943Y-40915100D01*
X79365664Y-40912895D01*
X79345085Y-40908961D01*
X79324457Y-40897052D01*
X79223869Y-40870100D01*
X79141758Y-40870100D01*
X79130221Y-40867895D01*
X79109167Y-40857082D01*
X79086461Y-40850415D01*
X79078663Y-40841416D01*
X79068069Y-40835975D01*
X79056202Y-40815494D01*
X79040706Y-40797611D01*
X79037619Y-40783422D01*
X79033041Y-40775521D01*
X79033540Y-40764674D01*
X79029500Y-40746100D01*
X79029500Y-39923543D01*
X79049185Y-39856504D01*
X79065820Y-39835861D01*
X79098196Y-39803485D01*
X79098198Y-39803483D01*
X79149573Y-39698393D01*
X79159500Y-39630260D01*
X79159500Y-39363740D01*
X79149573Y-39295607D01*
X79098198Y-39190517D01*
X79098196Y-39190515D01*
X79098196Y-39190514D01*
X79015485Y-39107803D01*
X78910391Y-39056426D01*
X78842261Y-39046500D01*
X78842260Y-39046500D01*
X78717485Y-39046500D01*
X78650446Y-39026815D01*
X78619109Y-38997987D01*
X78596924Y-38969075D01*
X78471586Y-38872899D01*
X78325631Y-38812444D01*
X78239000Y-38801038D01*
X78239000Y-39204380D01*
X78226401Y-39258838D01*
X78208429Y-39295601D01*
X78208425Y-39295611D01*
X78198500Y-39363739D01*
X78198500Y-39630260D01*
X78208426Y-39698390D01*
X78208426Y-39698391D01*
X78208427Y-39698393D01*
X78226401Y-39735159D01*
X78239000Y-39789617D01*
X78239000Y-40192959D01*
X78281241Y-40230004D01*
X78280452Y-40230902D01*
X78309603Y-40256773D01*
X78328500Y-40322571D01*
X78328500Y-40746100D01*
X78308815Y-40813139D01*
X78256011Y-40858894D01*
X78204500Y-40870100D01*
X78119731Y-40870100D01*
X78019143Y-40897052D01*
X78019142Y-40897052D01*
X78019140Y-40897053D01*
X78019137Y-40897054D01*
X78000377Y-40907886D01*
X77984889Y-40912036D01*
X77973311Y-40919477D01*
X77938376Y-40924500D01*
X77718016Y-40924500D01*
X77650977Y-40904815D01*
X77610629Y-40862500D01*
X77580311Y-40809988D01*
X77580307Y-40809983D01*
X77477817Y-40707493D01*
X77477811Y-40707488D01*
X77352288Y-40635017D01*
X77352289Y-40635017D01*
X77327075Y-40628261D01*
X77212275Y-40597500D01*
X77067325Y-40597500D01*
X76952525Y-40628261D01*
X76927311Y-40635017D01*
X76801788Y-40707488D01*
X76801782Y-40707493D01*
X76699293Y-40809982D01*
X76699288Y-40809988D01*
X76626817Y-40935511D01*
X76626816Y-40935515D01*
X76589300Y-41075525D01*
X76589300Y-41220475D01*
X76599624Y-41259007D01*
X76599029Y-41284001D01*
X76602588Y-41308747D01*
X76598212Y-41318327D01*
X76597962Y-41328856D01*
X76583949Y-41349560D01*
X76573563Y-41372303D01*
X76564703Y-41377996D01*
X76558800Y-41386719D01*
X76535816Y-41396560D01*
X76514785Y-41410077D01*
X76498929Y-41412356D01*
X76494571Y-41414223D01*
X76479850Y-41415100D01*
X76284378Y-41415100D01*
X76217339Y-41395415D01*
X76171584Y-41342611D01*
X76164605Y-41323200D01*
X76128784Y-41189515D01*
X76114981Y-41165608D01*
X76056311Y-41063988D01*
X76056306Y-41063982D01*
X75953817Y-40961493D01*
X75953811Y-40961488D01*
X75828288Y-40889017D01*
X75828289Y-40889017D01*
X75793547Y-40879708D01*
X75688275Y-40851500D01*
X75543325Y-40851500D01*
X75438053Y-40879708D01*
X75403311Y-40889017D01*
X75277788Y-40961488D01*
X75277782Y-40961493D01*
X75175293Y-41063982D01*
X75175288Y-41063988D01*
X75102817Y-41189511D01*
X75102816Y-41189515D01*
X75065300Y-41329525D01*
X75065300Y-41474475D01*
X75091393Y-41571853D01*
X75102817Y-41614489D01*
X75102818Y-41614490D01*
X75117572Y-41640044D01*
X75134046Y-41707944D01*
X75111194Y-41773971D01*
X75056274Y-41817162D01*
X75010186Y-41826045D01*
X71503820Y-41826045D01*
X71436781Y-41806360D01*
X71391026Y-41753556D01*
X71381082Y-41684398D01*
X71396433Y-41640045D01*
X71430244Y-41581483D01*
X71455184Y-41538285D01*
X71492700Y-41398275D01*
X71492700Y-41253325D01*
X71484725Y-41223562D01*
X71480500Y-41191469D01*
X71480500Y-41165608D01*
X71500185Y-41098569D01*
X71552989Y-41052814D01*
X71622147Y-41042870D01*
X71636583Y-41045830D01*
X71702525Y-41063500D01*
X71702528Y-41063500D01*
X71847472Y-41063500D01*
X71847475Y-41063500D01*
X71987485Y-41025984D01*
X72113015Y-40953509D01*
X72215509Y-40851015D01*
X72287984Y-40725485D01*
X72325500Y-40585475D01*
X72325500Y-40440525D01*
X72287984Y-40300515D01*
X72286882Y-40298607D01*
X72215511Y-40174988D01*
X72215506Y-40174982D01*
X72156819Y-40116295D01*
X72142115Y-40089367D01*
X72125523Y-40063549D01*
X72124631Y-40057348D01*
X72123334Y-40054972D01*
X72120500Y-40028614D01*
X72120500Y-40023072D01*
X72140185Y-39956033D01*
X72192989Y-39910278D01*
X72212410Y-39903296D01*
X72218688Y-39901614D01*
X72226446Y-39897135D01*
X72298612Y-39855470D01*
X72457081Y-39697001D01*
X77316988Y-39697001D01*
X77324442Y-39753627D01*
X77324444Y-39753633D01*
X77384899Y-39899585D01*
X77481075Y-40024924D01*
X77606413Y-40121100D01*
X77752365Y-40181554D01*
X77752369Y-40181555D01*
X77839000Y-40192961D01*
X77839000Y-39697000D01*
X77316990Y-39697000D01*
X77316988Y-39697001D01*
X72457081Y-39697001D01*
X72857082Y-39297000D01*
X77316987Y-39297000D01*
X77839000Y-39297000D01*
X77839000Y-38801038D01*
X77752369Y-38812444D01*
X77752365Y-38812445D01*
X77606413Y-38872899D01*
X77481075Y-38969075D01*
X77384899Y-39094413D01*
X77324444Y-39240368D01*
X77316987Y-39297000D01*
X72857082Y-39297000D01*
X73105470Y-39048612D01*
X73151614Y-38968688D01*
X73175500Y-38879544D01*
X73175500Y-38787256D01*
X73175500Y-37996543D01*
X73195185Y-37929504D01*
X73211818Y-37908862D01*
X73214198Y-37906483D01*
X73265573Y-37801393D01*
X73275500Y-37733260D01*
X73275500Y-37216740D01*
X73265573Y-37148607D01*
X73214198Y-37043517D01*
X73214196Y-37043515D01*
X73214196Y-37043514D01*
X73131485Y-36960803D01*
X73124499Y-36957388D01*
X73026393Y-36909427D01*
X73026391Y-36909426D01*
X72958261Y-36899500D01*
X72958260Y-36899500D01*
X72691740Y-36899500D01*
X72667375Y-36903049D01*
X72598199Y-36893235D01*
X72545310Y-36847579D01*
X72525500Y-36780576D01*
X72525500Y-36269654D01*
X72545185Y-36202615D01*
X72597989Y-36156860D01*
X72667144Y-36146916D01*
X72691740Y-36150500D01*
X72691742Y-36150500D01*
X72958261Y-36150500D01*
X72982858Y-36146916D01*
X73026393Y-36140573D01*
X73131483Y-36089198D01*
X73214198Y-36006483D01*
X73265573Y-35901393D01*
X73275500Y-35833260D01*
X73275500Y-35577126D01*
X74274500Y-35577126D01*
X74274500Y-35577133D01*
X74274500Y-35577134D01*
X74274500Y-36172869D01*
X74274501Y-36172875D01*
X74280908Y-36232482D01*
X74331202Y-36367327D01*
X74331206Y-36367334D01*
X74417452Y-36482543D01*
X74417455Y-36482546D01*
X74532664Y-36568792D01*
X74532669Y-36568795D01*
X74593833Y-36591607D01*
X74611558Y-36604876D01*
X74631703Y-36614076D01*
X74638984Y-36625406D01*
X74649766Y-36633477D01*
X74657504Y-36654225D01*
X74669477Y-36672854D01*
X74672628Y-36694769D01*
X74674184Y-36698941D01*
X74674500Y-36707789D01*
X74674500Y-36820614D01*
X74654815Y-36887653D01*
X74638181Y-36908295D01*
X74634493Y-36911982D01*
X74634488Y-36911988D01*
X74562017Y-37037511D01*
X74562016Y-37037515D01*
X74524500Y-37177525D01*
X74524500Y-37322475D01*
X74560598Y-37457194D01*
X74562017Y-37462488D01*
X74634488Y-37588011D01*
X74634490Y-37588013D01*
X74634491Y-37588015D01*
X74736985Y-37690509D01*
X74736986Y-37690510D01*
X74736988Y-37690511D01*
X74862511Y-37762982D01*
X74862512Y-37762982D01*
X74862515Y-37762984D01*
X75002525Y-37800500D01*
X75002528Y-37800500D01*
X75147472Y-37800500D01*
X75147475Y-37800500D01*
X75287485Y-37762984D01*
X75413015Y-37690509D01*
X75515509Y-37588015D01*
X75587984Y-37462485D01*
X75625500Y-37322475D01*
X75625500Y-37177525D01*
X75587984Y-37037515D01*
X75579220Y-37022336D01*
X75515511Y-36911988D01*
X75515510Y-36911987D01*
X75515509Y-36911985D01*
X75413015Y-36809491D01*
X75413014Y-36809490D01*
X75411818Y-36808294D01*
X75397111Y-36781360D01*
X75380523Y-36755548D01*
X75379631Y-36749347D01*
X75378334Y-36746971D01*
X75375500Y-36720613D01*
X75375500Y-36707789D01*
X75395185Y-36640750D01*
X75447989Y-36594995D01*
X75456146Y-36591615D01*
X75517331Y-36568795D01*
X75632546Y-36482545D01*
X75718796Y-36367330D01*
X75769091Y-36232482D01*
X75775500Y-36172872D01*
X75775499Y-35577127D01*
X75769091Y-35517516D01*
X75763833Y-35503419D01*
X75718797Y-35382670D01*
X75718793Y-35382663D01*
X75632547Y-35267454D01*
X75632544Y-35267451D01*
X75517335Y-35181205D01*
X75517328Y-35181201D01*
X75382486Y-35130909D01*
X75382485Y-35130908D01*
X75382483Y-35130908D01*
X75322873Y-35124499D01*
X75322863Y-35124499D01*
X74727129Y-35124499D01*
X74727123Y-35124500D01*
X74667516Y-35130907D01*
X74532671Y-35181201D01*
X74532664Y-35181205D01*
X74417455Y-35267451D01*
X74417452Y-35267454D01*
X74331206Y-35382663D01*
X74331202Y-35382670D01*
X74280910Y-35517512D01*
X74280909Y-35517516D01*
X74274500Y-35577126D01*
X73275500Y-35577126D01*
X73275500Y-35316740D01*
X73275134Y-35314231D01*
X73267487Y-35261743D01*
X73265573Y-35248607D01*
X73214198Y-35143517D01*
X73214196Y-35143515D01*
X73214196Y-35143514D01*
X73174933Y-35104252D01*
X73155224Y-35078567D01*
X73151614Y-35072315D01*
X73151614Y-35072312D01*
X73139518Y-35051361D01*
X73138900Y-35050290D01*
X73105474Y-34992394D01*
X73105468Y-34992386D01*
X72737312Y-34624230D01*
X72737307Y-34624226D01*
X72657389Y-34578086D01*
X72657388Y-34578085D01*
X72657387Y-34578085D01*
X72568243Y-34554199D01*
X72568242Y-34554199D01*
X72533645Y-34554199D01*
X72466606Y-34534514D01*
X72420851Y-34481710D01*
X72410706Y-34414013D01*
X72413000Y-34396591D01*
X72412999Y-34003410D01*
X72412997Y-34003398D01*
X72409504Y-33976860D01*
X72406400Y-33953277D01*
X72406397Y-33953270D01*
X72406397Y-33953269D01*
X72355097Y-33843255D01*
X72355093Y-33843249D01*
X72269250Y-33757406D01*
X72269244Y-33757402D01*
X72159229Y-33706102D01*
X72159224Y-33706100D01*
X72159223Y-33706100D01*
X72159220Y-33706099D01*
X72159218Y-33706099D01*
X72109101Y-33699501D01*
X72109096Y-33699500D01*
X72109091Y-33699500D01*
X72109084Y-33699500D01*
X72048657Y-33699500D01*
X72044997Y-33698425D01*
X72041281Y-33699280D01*
X72011737Y-33688659D01*
X71981618Y-33679815D01*
X71978078Y-33676558D01*
X71975531Y-33675643D01*
X71950280Y-33650984D01*
X71946597Y-33646184D01*
X71921404Y-33581014D01*
X71935444Y-33512570D01*
X71984259Y-33462581D01*
X72044974Y-33446700D01*
X72879942Y-33446700D01*
X72879944Y-33446700D01*
X72969088Y-33422814D01*
X72973642Y-33420185D01*
X72978962Y-33417114D01*
X73040963Y-33400500D01*
X73143255Y-33400500D01*
X73143260Y-33400500D01*
X73211393Y-33390573D01*
X73245539Y-33373879D01*
X73314410Y-33362119D01*
X73324828Y-33363790D01*
X73340282Y-33366948D01*
X73388607Y-33390573D01*
X73456740Y-33400500D01*
X73504459Y-33400500D01*
X73516746Y-33403011D01*
X73536984Y-33413733D01*
X73558957Y-33420185D01*
X73567268Y-33429777D01*
X73578486Y-33435720D01*
X73589715Y-33455681D01*
X73604712Y-33472989D01*
X73611691Y-33492401D01*
X73619820Y-33522736D01*
X73622285Y-33531936D01*
X73694756Y-33657459D01*
X73694758Y-33657461D01*
X73694759Y-33657463D01*
X73797253Y-33759957D01*
X73797254Y-33759958D01*
X73797256Y-33759959D01*
X73922779Y-33832430D01*
X73922780Y-33832430D01*
X73922783Y-33832432D01*
X74062793Y-33869948D01*
X74062796Y-33869948D01*
X74207741Y-33869948D01*
X74207743Y-33869948D01*
X74231141Y-33863678D01*
X74300989Y-33865339D01*
X74358853Y-33904500D01*
X74362487Y-33909120D01*
X74417454Y-33982547D01*
X74445330Y-34003415D01*
X74532664Y-34068794D01*
X74532671Y-34068798D01*
X74577618Y-34085562D01*
X74667517Y-34119092D01*
X74727127Y-34125501D01*
X75322872Y-34125500D01*
X75382483Y-34119092D01*
X75517331Y-34068797D01*
X75632546Y-33982547D01*
X75718796Y-33867332D01*
X75769091Y-33732484D01*
X75775500Y-33672874D01*
X75775499Y-33077129D01*
X75769091Y-33017518D01*
X75769090Y-33017516D01*
X75768720Y-33014069D01*
X75781127Y-32945309D01*
X75828738Y-32894173D01*
X75875827Y-32877876D01*
X75951718Y-32867886D01*
X75951724Y-32867884D01*
X76097676Y-32807429D01*
X76100466Y-32805819D01*
X76103120Y-32805174D01*
X76105189Y-32804318D01*
X76105322Y-32804640D01*
X76127528Y-32799252D01*
X76153623Y-32789519D01*
X76161014Y-32791126D01*
X76168365Y-32789343D01*
X76194683Y-32798450D01*
G37*
%TD.AperFunction*%
%TA.AperFunction,Conductor*%
G36*
X62015428Y-24715134D02*
G01*
X62072100Y-24756000D01*
X62088737Y-24784618D01*
X62147426Y-24926307D01*
X62147431Y-24926316D01*
X62245921Y-25073716D01*
X62245924Y-25073720D01*
X62371277Y-25199073D01*
X62371281Y-25199076D01*
X62518681Y-25297566D01*
X62518694Y-25297573D01*
X62672950Y-25361467D01*
X62727354Y-25405307D01*
X62749419Y-25471601D01*
X62749498Y-25476028D01*
X62749498Y-25515765D01*
X62788717Y-25662136D01*
X62811608Y-25701784D01*
X62864483Y-25793365D01*
X62971633Y-25900515D01*
X63102863Y-25976281D01*
X63249232Y-26015500D01*
X63249234Y-26015500D01*
X63550998Y-26015500D01*
X63618037Y-26035185D01*
X63663792Y-26087989D01*
X63674998Y-26139500D01*
X63674998Y-26497844D01*
X63681399Y-26557372D01*
X63681401Y-26557379D01*
X63731643Y-26692086D01*
X63731647Y-26692093D01*
X63817807Y-26807187D01*
X63817810Y-26807190D01*
X63932904Y-26893350D01*
X63932911Y-26893354D01*
X64067618Y-26943596D01*
X64067625Y-26943598D01*
X64127153Y-26949999D01*
X64127170Y-26950000D01*
X64174998Y-26950000D01*
X64174998Y-26124000D01*
X64177548Y-26115314D01*
X64176260Y-26106353D01*
X64187238Y-26082312D01*
X64194683Y-26056961D01*
X64201523Y-26051033D01*
X64205285Y-26042797D01*
X64227519Y-26028507D01*
X64247487Y-26011206D01*
X64258001Y-26008918D01*
X64264063Y-26005023D01*
X64298998Y-26000000D01*
X64300498Y-26000000D01*
X64367537Y-26019685D01*
X64413292Y-26072489D01*
X64424498Y-26124000D01*
X64424498Y-26474678D01*
X64439030Y-26547735D01*
X64439032Y-26547740D01*
X64453599Y-26569542D01*
X64474478Y-26636217D01*
X64474498Y-26638432D01*
X64474498Y-29545616D01*
X64454813Y-29612655D01*
X64438179Y-29633297D01*
X64409493Y-29661982D01*
X64409488Y-29661988D01*
X64337017Y-29787511D01*
X64336218Y-29790494D01*
X64299500Y-29927525D01*
X64299500Y-30072475D01*
X64332009Y-30193797D01*
X64337017Y-30212488D01*
X64409488Y-30338011D01*
X64409490Y-30338013D01*
X64409491Y-30338015D01*
X64511985Y-30440509D01*
X64511986Y-30440510D01*
X64511988Y-30440511D01*
X64637511Y-30512982D01*
X64637512Y-30512982D01*
X64637515Y-30512984D01*
X64777525Y-30550500D01*
X64777528Y-30550500D01*
X64922472Y-30550500D01*
X64922475Y-30550500D01*
X65062485Y-30512984D01*
X65188015Y-30440509D01*
X65290509Y-30338015D01*
X65362984Y-30212485D01*
X65385579Y-30128158D01*
X65421943Y-30068500D01*
X65473257Y-30040480D01*
X65584876Y-30010572D01*
X65710406Y-29938097D01*
X65812900Y-29835603D01*
X65852681Y-29766701D01*
X65889439Y-29703035D01*
X65892240Y-29704652D01*
X65926559Y-29662048D01*
X65992849Y-29639970D01*
X66060552Y-29657235D01*
X66108173Y-29708363D01*
X66121300Y-29763890D01*
X66121300Y-31977994D01*
X66101615Y-32045033D01*
X66084981Y-32065675D01*
X66007406Y-32143249D01*
X66007402Y-32143255D01*
X65956102Y-32253270D01*
X65956099Y-32253281D01*
X65949501Y-32303398D01*
X65949500Y-32303415D01*
X65949500Y-32696592D01*
X65956099Y-32746719D01*
X65956102Y-32746730D01*
X66007402Y-32856744D01*
X66007406Y-32856750D01*
X66093250Y-32942594D01*
X66093251Y-32942594D01*
X66093255Y-32942597D01*
X66203270Y-32993897D01*
X66203271Y-32993897D01*
X66203277Y-32993900D01*
X66253409Y-33000500D01*
X66291181Y-33000499D01*
X66358219Y-33020182D01*
X66403975Y-33072985D01*
X66413920Y-33142143D01*
X66410957Y-33156592D01*
X66386696Y-33247136D01*
X66378500Y-33277725D01*
X66378500Y-33422675D01*
X66389788Y-33464801D01*
X66410850Y-33543407D01*
X66409187Y-33613257D01*
X66370024Y-33671119D01*
X66305796Y-33698623D01*
X66291078Y-33699500D01*
X66253408Y-33699500D01*
X66203280Y-33706099D01*
X66203269Y-33706102D01*
X66093255Y-33757402D01*
X66093249Y-33757406D01*
X66007406Y-33843249D01*
X66007402Y-33843255D01*
X65956102Y-33953270D01*
X65956099Y-33953281D01*
X65949501Y-34003398D01*
X65949500Y-34003415D01*
X65949500Y-34396592D01*
X65956099Y-34446722D01*
X65958755Y-34455832D01*
X65958175Y-34456001D01*
X65960727Y-34459972D01*
X65965750Y-34494907D01*
X65965750Y-34661443D01*
X65946065Y-34728482D01*
X65929431Y-34749124D01*
X65524717Y-35153837D01*
X65524715Y-35153839D01*
X65469192Y-35250010D01*
X65458816Y-35288735D01*
X65448522Y-35327155D01*
X65445351Y-35338988D01*
X65445350Y-35338991D01*
X65441070Y-35354964D01*
X65440450Y-35357276D01*
X65440450Y-36977675D01*
X65440450Y-37088725D01*
X65466794Y-37187040D01*
X65469192Y-37195989D01*
X65524150Y-37291182D01*
X65524716Y-37292161D01*
X65679464Y-37446909D01*
X65816931Y-37584375D01*
X65850416Y-37645698D01*
X65853250Y-37672056D01*
X65853250Y-41617341D01*
X65833565Y-41684380D01*
X65780761Y-41730135D01*
X65711603Y-41740079D01*
X65648047Y-41711054D01*
X65626148Y-41686232D01*
X65582951Y-41621584D01*
X65582948Y-41621580D01*
X65478419Y-41517051D01*
X65478415Y-41517048D01*
X65355501Y-41434919D01*
X65355488Y-41434912D01*
X65218917Y-41378343D01*
X65218907Y-41378340D01*
X65075308Y-41349776D01*
X65013397Y-41317391D01*
X64978823Y-41256675D01*
X64975500Y-41228159D01*
X64975500Y-40704386D01*
X64995185Y-40637347D01*
X65011819Y-40616705D01*
X65035007Y-40593517D01*
X65065509Y-40563015D01*
X65137984Y-40437485D01*
X65175500Y-40297475D01*
X65175500Y-40152525D01*
X65137984Y-40012515D01*
X65136509Y-40009961D01*
X65065511Y-39886988D01*
X65065506Y-39886982D01*
X64963017Y-39784493D01*
X64963011Y-39784488D01*
X64837488Y-39712017D01*
X64837489Y-39712017D01*
X64799795Y-39701917D01*
X64697475Y-39674500D01*
X64574500Y-39674500D01*
X64507461Y-39654815D01*
X64461706Y-39602011D01*
X64450500Y-39550500D01*
X64450500Y-39353858D01*
X64450500Y-39353856D01*
X64426614Y-39264712D01*
X64417113Y-39248256D01*
X64400500Y-39186255D01*
X64400500Y-39077527D01*
X64400500Y-39077525D01*
X64362984Y-38937515D01*
X64362968Y-38937488D01*
X64290511Y-38811988D01*
X64290506Y-38811982D01*
X64188017Y-38709493D01*
X64188011Y-38709488D01*
X64055447Y-38632952D01*
X64056898Y-38630437D01*
X64013385Y-38595369D01*
X63991322Y-38529074D01*
X64008603Y-38461375D01*
X64015965Y-38450357D01*
X64047336Y-38408451D01*
X64094491Y-38282023D01*
X64098997Y-38240114D01*
X64100499Y-38226145D01*
X64100500Y-38226130D01*
X64100500Y-37698871D01*
X64100499Y-37698856D01*
X64097617Y-37672056D01*
X64094491Y-37642979D01*
X64085766Y-37619586D01*
X64047337Y-37516553D01*
X64047335Y-37516550D01*
X64046306Y-37515175D01*
X63966472Y-37408529D01*
X63858450Y-37327665D01*
X63858447Y-37327663D01*
X63760636Y-37291182D01*
X63704702Y-37249311D01*
X63680285Y-37183846D01*
X63695137Y-37115573D01*
X63744542Y-37066168D01*
X63760636Y-37058818D01*
X63837004Y-37030333D01*
X63858450Y-37022335D01*
X63966472Y-36941471D01*
X64047336Y-36833449D01*
X64094491Y-36707021D01*
X64098495Y-36669782D01*
X64100499Y-36651143D01*
X64100500Y-36651128D01*
X64100500Y-36123869D01*
X64100499Y-36123854D01*
X64096772Y-36089196D01*
X64094491Y-36067977D01*
X64081244Y-36032460D01*
X64047337Y-35941551D01*
X64047335Y-35941548D01*
X64028764Y-35916740D01*
X63966472Y-35833527D01*
X63901667Y-35785014D01*
X63859797Y-35729082D01*
X63854813Y-35659391D01*
X63888296Y-35598070D01*
X63982951Y-35503416D01*
X64065084Y-35380495D01*
X64065213Y-35380185D01*
X64091492Y-35316740D01*
X64121658Y-35243913D01*
X64134132Y-35181203D01*
X64150500Y-35098920D01*
X64150500Y-34951079D01*
X64121659Y-34806092D01*
X64121658Y-34806091D01*
X64121658Y-34806087D01*
X64110403Y-34778914D01*
X64065087Y-34669511D01*
X64065080Y-34669498D01*
X63982951Y-34546584D01*
X63982948Y-34546580D01*
X63878419Y-34442051D01*
X63878415Y-34442048D01*
X63755501Y-34359919D01*
X63755488Y-34359912D01*
X63618917Y-34303343D01*
X63618907Y-34303340D01*
X63473920Y-34274500D01*
X63473918Y-34274500D01*
X63326082Y-34274500D01*
X63326080Y-34274500D01*
X63181092Y-34303340D01*
X63181082Y-34303343D01*
X63044511Y-34359912D01*
X63044498Y-34359919D01*
X62921584Y-34442048D01*
X62921580Y-34442051D01*
X62817051Y-34546580D01*
X62817048Y-34546584D01*
X62734914Y-34669506D01*
X62733859Y-34671481D01*
X62733033Y-34672321D01*
X62731531Y-34674570D01*
X62731104Y-34674285D01*
X62684898Y-34721326D01*
X62616761Y-34736788D01*
X62551080Y-34712958D01*
X62508711Y-34657401D01*
X62500500Y-34613030D01*
X62500500Y-33850323D01*
X62500499Y-33850321D01*
X62485967Y-33777264D01*
X62485966Y-33777262D01*
X62485966Y-33777260D01*
X62485964Y-33777258D01*
X62485964Y-33777256D01*
X62430261Y-33693890D01*
X62409383Y-33627213D01*
X62427868Y-33559833D01*
X62430261Y-33556110D01*
X62485964Y-33472743D01*
X62485964Y-33472742D01*
X62485966Y-33472740D01*
X62500500Y-33399674D01*
X62500500Y-32949234D01*
X63074500Y-32949234D01*
X63074500Y-33100765D01*
X63113719Y-33247136D01*
X63151247Y-33312135D01*
X63189485Y-33378365D01*
X63296635Y-33485515D01*
X63409213Y-33550512D01*
X63421927Y-33557853D01*
X63427865Y-33561281D01*
X63574234Y-33600500D01*
X63574236Y-33600500D01*
X63725764Y-33600500D01*
X63725766Y-33600500D01*
X63872135Y-33561281D01*
X64003365Y-33485515D01*
X64110515Y-33378365D01*
X64186281Y-33247135D01*
X64225500Y-33100766D01*
X64225500Y-32949234D01*
X64186281Y-32802865D01*
X64185761Y-32801965D01*
X64168773Y-32772541D01*
X64110515Y-32671635D01*
X64003365Y-32564485D01*
X63930224Y-32522257D01*
X63872136Y-32488719D01*
X63758582Y-32458293D01*
X63725766Y-32449500D01*
X63574234Y-32449500D01*
X63427863Y-32488719D01*
X63296635Y-32564485D01*
X63296632Y-32564487D01*
X63189487Y-32671632D01*
X63189485Y-32671635D01*
X63113719Y-32802863D01*
X63074500Y-32949234D01*
X62500500Y-32949234D01*
X62500500Y-32374125D01*
X62520185Y-32307086D01*
X62550189Y-32274858D01*
X62607189Y-32232187D01*
X62607190Y-32232186D01*
X62693352Y-32117088D01*
X62693354Y-32117086D01*
X62743596Y-31982379D01*
X62743598Y-31982372D01*
X62749999Y-31922844D01*
X62750000Y-31922827D01*
X62750000Y-30827172D01*
X62749999Y-30827155D01*
X62743598Y-30767627D01*
X62743596Y-30767620D01*
X62693354Y-30632913D01*
X62693350Y-30632906D01*
X62607191Y-30517814D01*
X62607186Y-30517809D01*
X62523436Y-30455113D01*
X62523436Y-30455114D01*
X61514456Y-31464094D01*
X61453133Y-31497579D01*
X61383441Y-31492595D01*
X61339094Y-31464094D01*
X61160905Y-31285905D01*
X61127420Y-31224582D01*
X61132404Y-31154890D01*
X61160905Y-31110543D01*
X61460129Y-30811319D01*
X61521452Y-30777834D01*
X61547810Y-30775000D01*
X61750000Y-30775000D01*
X61750000Y-30572810D01*
X61769685Y-30505771D01*
X61786319Y-30485128D01*
X61896448Y-30375000D01*
X61874000Y-30375000D01*
X61806961Y-30355315D01*
X61761206Y-30302511D01*
X61750000Y-30251000D01*
X61750000Y-25102992D01*
X61769685Y-25035953D01*
X61770898Y-25034101D01*
X61774256Y-25029076D01*
X61840253Y-24869746D01*
X61852559Y-24807878D01*
X61884943Y-24745969D01*
X61945659Y-24711395D01*
X62015428Y-24715134D01*
G37*
%TD.AperFunction*%
%TA.AperFunction,Conductor*%
G36*
X59693039Y-30794685D02*
G01*
X59738794Y-30847489D01*
X59750000Y-30899000D01*
X59750000Y-31922844D01*
X59756401Y-31982372D01*
X59756403Y-31982379D01*
X59806645Y-32117086D01*
X59806649Y-32117093D01*
X59892808Y-32232186D01*
X59949811Y-32274858D01*
X59991682Y-32330792D01*
X59999500Y-32374125D01*
X59999500Y-33399678D01*
X60014032Y-33472735D01*
X60014033Y-33472739D01*
X60069739Y-33556110D01*
X60090616Y-33622788D01*
X60072131Y-33690168D01*
X60069739Y-33693890D01*
X60014033Y-33777260D01*
X60014032Y-33777264D01*
X59999500Y-33850321D01*
X59999500Y-34899678D01*
X60014032Y-34972735D01*
X60014033Y-34972739D01*
X60069739Y-35056110D01*
X60090616Y-35122788D01*
X60072131Y-35190168D01*
X60069739Y-35193890D01*
X60014033Y-35277260D01*
X60014032Y-35277264D01*
X59999500Y-35350321D01*
X59999500Y-36399678D01*
X60014032Y-36472735D01*
X60014033Y-36472739D01*
X60069739Y-36556110D01*
X60090616Y-36622788D01*
X60072131Y-36690168D01*
X60069739Y-36693890D01*
X60014033Y-36777260D01*
X60014032Y-36777264D01*
X59999500Y-36850321D01*
X59999500Y-37899678D01*
X60014032Y-37972735D01*
X60014033Y-37972739D01*
X60069739Y-38056110D01*
X60073759Y-38068950D01*
X60082016Y-38079574D01*
X60083995Y-38101644D01*
X60090616Y-38122788D01*
X60087192Y-38137280D01*
X60088259Y-38149164D01*
X60079243Y-38170936D01*
X60076524Y-38182450D01*
X60070748Y-38193497D01*
X60069399Y-38194399D01*
X60014034Y-38277260D01*
X60006097Y-38317159D01*
X59997842Y-38332950D01*
X59985455Y-38345792D01*
X59977185Y-38361603D01*
X59961704Y-38370418D01*
X59949338Y-38383240D01*
X59931975Y-38387347D01*
X59916469Y-38396177D01*
X59887954Y-38399500D01*
X59812399Y-38399500D01*
X59732493Y-38420911D01*
X59691463Y-38431905D01*
X59583037Y-38494504D01*
X59583034Y-38494506D01*
X58619506Y-39458034D01*
X58619504Y-39458037D01*
X58556905Y-39566463D01*
X58544708Y-39611982D01*
X58527957Y-39674500D01*
X58524500Y-39687400D01*
X58524500Y-40312954D01*
X58504815Y-40379993D01*
X58457950Y-40422842D01*
X58442159Y-40431097D01*
X58402260Y-40439034D01*
X58319399Y-40494399D01*
X58318497Y-40495748D01*
X58307450Y-40501524D01*
X58279454Y-40507086D01*
X58252212Y-40515616D01*
X58245622Y-40513808D01*
X58238920Y-40515140D01*
X58212360Y-40504683D01*
X58184832Y-40497131D01*
X58181110Y-40494739D01*
X58097739Y-40439033D01*
X58097737Y-40439032D01*
X58048211Y-40429181D01*
X57986301Y-40396795D01*
X57951727Y-40336079D01*
X57955468Y-40266310D01*
X57965012Y-40245573D01*
X58012984Y-40162485D01*
X58050500Y-40022475D01*
X58050500Y-39877525D01*
X58012984Y-39737515D01*
X58011621Y-39735155D01*
X57940511Y-39611988D01*
X57940506Y-39611982D01*
X57838017Y-39509493D01*
X57838011Y-39509488D01*
X57712488Y-39437017D01*
X57712489Y-39437017D01*
X57701006Y-39433940D01*
X57572475Y-39399500D01*
X57427525Y-39399500D01*
X57298993Y-39433940D01*
X57287511Y-39437017D01*
X57161988Y-39509488D01*
X57161982Y-39509493D01*
X57059493Y-39611982D01*
X57059488Y-39611988D01*
X56987017Y-39737511D01*
X56987016Y-39737515D01*
X56949500Y-39877525D01*
X56949500Y-40022475D01*
X56987016Y-40162485D01*
X57034982Y-40245565D01*
X57051455Y-40313463D01*
X57028603Y-40379490D01*
X56980651Y-40419640D01*
X56966803Y-40426195D01*
X56902260Y-40439034D01*
X56819399Y-40494399D01*
X56817858Y-40496704D01*
X56803056Y-40503712D01*
X56777195Y-40507793D01*
X56752212Y-40515616D01*
X56743236Y-40513153D01*
X56734041Y-40514605D01*
X56710080Y-40504057D01*
X56684832Y-40497131D01*
X56681110Y-40494739D01*
X56597739Y-40439033D01*
X56597735Y-40439032D01*
X56524677Y-40424500D01*
X56524674Y-40424500D01*
X55499126Y-40424500D01*
X55432087Y-40404815D01*
X55399860Y-40374812D01*
X55357187Y-40317809D01*
X55242093Y-40231649D01*
X55242086Y-40231645D01*
X55107379Y-40181403D01*
X55107372Y-40181401D01*
X55047844Y-40175000D01*
X53952155Y-40175000D01*
X53892627Y-40181401D01*
X53892620Y-40181403D01*
X53757913Y-40231645D01*
X53757906Y-40231649D01*
X53642814Y-40317808D01*
X53642807Y-40317814D01*
X53600139Y-40374812D01*
X53544205Y-40416682D01*
X53500873Y-40424500D01*
X52475323Y-40424500D01*
X52402264Y-40439032D01*
X52402260Y-40439033D01*
X52318890Y-40494739D01*
X52300385Y-40500532D01*
X52283992Y-40510886D01*
X52267729Y-40510757D01*
X52252212Y-40515616D01*
X52233514Y-40510486D01*
X52214124Y-40510333D01*
X52188033Y-40498009D01*
X52184832Y-40497131D01*
X52182137Y-40495417D01*
X52180617Y-40494423D01*
X52180601Y-40494399D01*
X52097740Y-40439034D01*
X52095112Y-40438511D01*
X52083046Y-40430621D01*
X52067591Y-40412497D01*
X52049048Y-40397552D01*
X52045337Y-40386401D01*
X52037710Y-40377457D01*
X52034507Y-40353853D01*
X52026988Y-40331257D01*
X52029016Y-40313392D01*
X52028315Y-40308222D01*
X52030018Y-40304568D01*
X52031133Y-40294751D01*
X52050500Y-40222475D01*
X52050500Y-40077525D01*
X52012984Y-39937515D01*
X52004917Y-39923543D01*
X51940511Y-39811988D01*
X51940506Y-39811982D01*
X51838017Y-39709493D01*
X51838011Y-39709488D01*
X51712488Y-39637017D01*
X51712489Y-39637017D01*
X51701006Y-39633940D01*
X51572475Y-39599500D01*
X51427525Y-39599500D01*
X51298993Y-39633940D01*
X51287511Y-39637017D01*
X51161988Y-39709488D01*
X51161982Y-39709493D01*
X51059493Y-39811982D01*
X51059488Y-39811988D01*
X50987017Y-39937511D01*
X50987016Y-39937515D01*
X50949500Y-40077525D01*
X50949500Y-40222475D01*
X50956749Y-40249528D01*
X50968865Y-40294747D01*
X50967202Y-40364597D01*
X50928039Y-40422459D01*
X50916954Y-40430621D01*
X50904887Y-40438511D01*
X50902260Y-40439034D01*
X50819399Y-40494399D01*
X50819382Y-40494424D01*
X50817864Y-40495417D01*
X50784992Y-40505352D01*
X50752212Y-40515616D01*
X50751594Y-40515446D01*
X50750982Y-40515632D01*
X50717965Y-40506220D01*
X50684832Y-40497131D01*
X50683840Y-40496493D01*
X50683789Y-40496479D01*
X50683751Y-40496436D01*
X50681110Y-40494739D01*
X50597739Y-40439033D01*
X50597735Y-40439032D01*
X50524677Y-40424500D01*
X50524674Y-40424500D01*
X49475326Y-40424500D01*
X49475321Y-40424500D01*
X49398191Y-40439842D01*
X49328599Y-40433615D01*
X49273422Y-40390751D01*
X49250178Y-40324861D01*
X49250000Y-40318225D01*
X49250000Y-39827172D01*
X49249999Y-39827155D01*
X49243598Y-39767627D01*
X49243596Y-39767620D01*
X49193354Y-39632913D01*
X49193350Y-39632906D01*
X49107191Y-39517814D01*
X49107185Y-39517807D01*
X49050188Y-39475139D01*
X49047451Y-39471483D01*
X49043297Y-39469586D01*
X49026705Y-39443768D01*
X49008318Y-39419205D01*
X49007302Y-39413577D01*
X49005523Y-39410808D01*
X49000500Y-39375873D01*
X49000500Y-39349500D01*
X49020185Y-39282461D01*
X49072989Y-39236706D01*
X49124500Y-39225500D01*
X49221142Y-39225500D01*
X49221144Y-39225500D01*
X49310288Y-39201614D01*
X49319762Y-39196144D01*
X49390212Y-39155470D01*
X49463735Y-39081945D01*
X49469667Y-39077305D01*
X49495405Y-39067074D01*
X49519718Y-39053798D01*
X49527420Y-39054348D01*
X49534595Y-39051497D01*
X49561780Y-39056806D01*
X49589410Y-39058782D01*
X49597054Y-39063694D01*
X49603169Y-39064889D01*
X49611837Y-39073195D01*
X49633759Y-39087283D01*
X49711985Y-39165509D01*
X49711986Y-39165510D01*
X49711988Y-39165511D01*
X49837511Y-39237982D01*
X49837512Y-39237982D01*
X49837515Y-39237984D01*
X49977525Y-39275500D01*
X49977528Y-39275500D01*
X50122472Y-39275500D01*
X50122475Y-39275500D01*
X50262485Y-39237984D01*
X50388015Y-39165509D01*
X50490509Y-39063015D01*
X50562984Y-38937485D01*
X50600500Y-38797475D01*
X50600500Y-38688743D01*
X50617115Y-38626740D01*
X50626614Y-38610288D01*
X50630084Y-38597337D01*
X50633917Y-38583035D01*
X50639986Y-38560381D01*
X50650500Y-38521144D01*
X50650500Y-35163856D01*
X50626614Y-35074712D01*
X50626611Y-35074706D01*
X50580473Y-34994794D01*
X50580470Y-34994791D01*
X50580469Y-34994788D01*
X50515212Y-34929531D01*
X49680212Y-34094530D01*
X49680211Y-34094529D01*
X49680208Y-34094527D01*
X49600288Y-34048386D01*
X49589836Y-34045585D01*
X49589835Y-34045585D01*
X49550489Y-34035042D01*
X49511144Y-34024500D01*
X49511143Y-34024500D01*
X49124500Y-34024500D01*
X49057461Y-34004815D01*
X49011706Y-33952011D01*
X49000500Y-33900500D01*
X49000500Y-33850323D01*
X49000499Y-33850321D01*
X48985967Y-33777264D01*
X48985966Y-33777262D01*
X48985966Y-33777260D01*
X48985964Y-33777258D01*
X48985964Y-33777256D01*
X48930261Y-33693890D01*
X48909383Y-33627213D01*
X48927868Y-33559833D01*
X48930261Y-33556110D01*
X48985964Y-33472743D01*
X48985964Y-33472742D01*
X48985966Y-33472740D01*
X49000500Y-33399674D01*
X49000500Y-32374125D01*
X49020185Y-32307086D01*
X49050189Y-32274858D01*
X49107189Y-32232187D01*
X49107190Y-32232186D01*
X49193352Y-32117088D01*
X49193354Y-32117086D01*
X49243596Y-31982379D01*
X49243598Y-31982372D01*
X49249999Y-31922844D01*
X49250000Y-31922827D01*
X49250000Y-30899000D01*
X49269685Y-30831961D01*
X49322489Y-30786206D01*
X49374000Y-30775000D01*
X59626000Y-30775000D01*
X59693039Y-30794685D01*
G37*
%TD.AperFunction*%
%TA.AperFunction,Conductor*%
G36*
X68118039Y-30234685D02*
G01*
X68163794Y-30287489D01*
X68175000Y-30339000D01*
X68175000Y-30937010D01*
X68181257Y-30942497D01*
X68228352Y-30949842D01*
X68280607Y-30996223D01*
X68299500Y-31062015D01*
X68299500Y-32062294D01*
X68279815Y-32129333D01*
X68275890Y-32134203D01*
X68276126Y-32134368D01*
X68269902Y-32143255D01*
X68218602Y-32253270D01*
X68218599Y-32253281D01*
X68212001Y-32303398D01*
X68212000Y-32303415D01*
X68212000Y-32696592D01*
X68218599Y-32746719D01*
X68218602Y-32746730D01*
X68269902Y-32856744D01*
X68269906Y-32856750D01*
X68355750Y-32942594D01*
X68355751Y-32942594D01*
X68355755Y-32942597D01*
X68465770Y-32993897D01*
X68465771Y-32993897D01*
X68465777Y-32993900D01*
X68515909Y-33000500D01*
X68784090Y-33000499D01*
X68784092Y-33000499D01*
X68800801Y-32998299D01*
X68834223Y-32993900D01*
X68877800Y-32973579D01*
X68946874Y-32963087D01*
X68982601Y-32973576D01*
X69026955Y-32994259D01*
X69074361Y-33000500D01*
X69300638Y-33000499D01*
X69348045Y-32994259D01*
X69392391Y-32973579D01*
X69461466Y-32963088D01*
X69497200Y-32973580D01*
X69540775Y-32993899D01*
X69540776Y-32993900D01*
X69549710Y-32995076D01*
X69590909Y-33000500D01*
X69859090Y-33000499D01*
X69859092Y-33000499D01*
X69875801Y-32998299D01*
X69909223Y-32993900D01*
X69909228Y-32993897D01*
X69909230Y-32993897D01*
X70019244Y-32942597D01*
X70019245Y-32942596D01*
X70019250Y-32942594D01*
X70105094Y-32856750D01*
X70156400Y-32746723D01*
X70163000Y-32696591D01*
X70162999Y-32303410D01*
X70162997Y-32303398D01*
X70157506Y-32261678D01*
X70156400Y-32253277D01*
X70156397Y-32253270D01*
X70156397Y-32253269D01*
X70105097Y-32143255D01*
X70105094Y-32143252D01*
X70105094Y-32143250D01*
X70105092Y-32143248D01*
X70098874Y-32134368D01*
X70102073Y-32132127D01*
X70101206Y-32130538D01*
X70086706Y-32113805D01*
X70083154Y-32097480D01*
X70078334Y-32088652D01*
X70079051Y-32078619D01*
X70075500Y-32062294D01*
X70075500Y-30385223D01*
X70095185Y-30318184D01*
X70147989Y-30272429D01*
X70199500Y-30261223D01*
X70253403Y-30261223D01*
X70320442Y-30280908D01*
X70341084Y-30297542D01*
X70513181Y-30469639D01*
X70546666Y-30530962D01*
X70549500Y-30557320D01*
X70549500Y-32062294D01*
X70546949Y-32070979D01*
X70548238Y-32079941D01*
X70537259Y-32103981D01*
X70529815Y-32129333D01*
X70525890Y-32134203D01*
X70526126Y-32134368D01*
X70519902Y-32143255D01*
X70468602Y-32253270D01*
X70468599Y-32253281D01*
X70462001Y-32303398D01*
X70462000Y-32303415D01*
X70462000Y-32696592D01*
X70468599Y-32746719D01*
X70468602Y-32746730D01*
X70519902Y-32856744D01*
X70519906Y-32856750D01*
X70605750Y-32942594D01*
X70715777Y-32993900D01*
X70715779Y-32993900D01*
X70718573Y-32995203D01*
X70771012Y-33041375D01*
X70790165Y-33108569D01*
X70769950Y-33175450D01*
X70753851Y-33195267D01*
X70619527Y-33329591D01*
X70580990Y-33396341D01*
X70580989Y-33396343D01*
X70573386Y-33409510D01*
X70549500Y-33498656D01*
X70549500Y-33762294D01*
X70529815Y-33829333D01*
X70525890Y-33834203D01*
X70526126Y-33834368D01*
X70519902Y-33843255D01*
X70468602Y-33953270D01*
X70468599Y-33953281D01*
X70462001Y-34003398D01*
X70462000Y-34003415D01*
X70462000Y-34396592D01*
X70468599Y-34446719D01*
X70468602Y-34446730D01*
X70519902Y-34556744D01*
X70526126Y-34565632D01*
X70522926Y-34567872D01*
X70528691Y-34578430D01*
X70545417Y-34606148D01*
X70545910Y-34609965D01*
X70546666Y-34611348D01*
X70546460Y-34614216D01*
X70549500Y-34637706D01*
X70549500Y-34649544D01*
X70552688Y-34661443D01*
X70566934Y-34714610D01*
X70573386Y-34738687D01*
X70573387Y-34738690D01*
X70619527Y-34818608D01*
X70619529Y-34818611D01*
X70619530Y-34818612D01*
X70986087Y-35185169D01*
X71012808Y-35200596D01*
X71061023Y-35251161D01*
X71073528Y-35312253D01*
X71074500Y-35312253D01*
X71074500Y-35833260D01*
X71084426Y-35901391D01*
X71135803Y-36006485D01*
X71218514Y-36089196D01*
X71218515Y-36089196D01*
X71218517Y-36089198D01*
X71323607Y-36140573D01*
X71357673Y-36145536D01*
X71391739Y-36150500D01*
X71391740Y-36150500D01*
X71658258Y-36150500D01*
X71658260Y-36150500D01*
X71682622Y-36146950D01*
X71751797Y-36156762D01*
X71804688Y-36202416D01*
X71824500Y-36269418D01*
X71824500Y-36780345D01*
X71804815Y-36847384D01*
X71752011Y-36893139D01*
X71682853Y-36903083D01*
X71682722Y-36903064D01*
X71658260Y-36899500D01*
X71391740Y-36899500D01*
X71391739Y-36899500D01*
X71323608Y-36909426D01*
X71218514Y-36960803D01*
X71135803Y-37043514D01*
X71084426Y-37148608D01*
X71074500Y-37216739D01*
X71074500Y-37733260D01*
X71084426Y-37801391D01*
X71135803Y-37906485D01*
X71218514Y-37989196D01*
X71218515Y-37989196D01*
X71218517Y-37989198D01*
X71323607Y-38040573D01*
X71357673Y-38045536D01*
X71391739Y-38050500D01*
X71619056Y-38050500D01*
X71686095Y-38070185D01*
X71731850Y-38122989D01*
X71741794Y-38192147D01*
X71712769Y-38255703D01*
X71706737Y-38262181D01*
X71036563Y-38932354D01*
X70975240Y-38965839D01*
X70905548Y-38960855D01*
X70849615Y-38918983D01*
X70825198Y-38853519D01*
X70829106Y-38812587D01*
X70857700Y-38705875D01*
X70857700Y-38560925D01*
X70820184Y-38420915D01*
X70805901Y-38396177D01*
X70747711Y-38295388D01*
X70747706Y-38295382D01*
X70645217Y-38192893D01*
X70645211Y-38192888D01*
X70519688Y-38120417D01*
X70519689Y-38120417D01*
X70509120Y-38117585D01*
X70456778Y-38103560D01*
X70397120Y-38067196D01*
X70366591Y-38004349D01*
X70374886Y-37934973D01*
X70377464Y-37929345D01*
X70415573Y-37851393D01*
X70425500Y-37783260D01*
X70425500Y-37266740D01*
X70415573Y-37198607D01*
X70364198Y-37093517D01*
X70364196Y-37093515D01*
X70364196Y-37093514D01*
X70356819Y-37086137D01*
X70323334Y-37024814D01*
X70320500Y-36998456D01*
X70320500Y-36476543D01*
X70340185Y-36409504D01*
X70356820Y-36388861D01*
X70389196Y-36356485D01*
X70389198Y-36356483D01*
X70440573Y-36251393D01*
X70450500Y-36183260D01*
X70450500Y-35916740D01*
X70450112Y-35914080D01*
X70444909Y-35878364D01*
X70440573Y-35848607D01*
X70389198Y-35743517D01*
X70389196Y-35743515D01*
X70389196Y-35743514D01*
X70356819Y-35711137D01*
X70323334Y-35649814D01*
X70320500Y-35623456D01*
X70320500Y-35024258D01*
X70320500Y-35024256D01*
X70296614Y-34935112D01*
X70296611Y-34935106D01*
X70250473Y-34855194D01*
X70250470Y-34855191D01*
X70250469Y-34855188D01*
X70185212Y-34789931D01*
X70185210Y-34789928D01*
X70115630Y-34720348D01*
X70082145Y-34659025D01*
X70087129Y-34589333D01*
X70101744Y-34561533D01*
X70105089Y-34556754D01*
X70105094Y-34556750D01*
X70108224Y-34550039D01*
X70146750Y-34467417D01*
X70156400Y-34446723D01*
X70163000Y-34396591D01*
X70162999Y-34003410D01*
X70162997Y-34003398D01*
X70159504Y-33976860D01*
X70156400Y-33953277D01*
X70156397Y-33953270D01*
X70156397Y-33953269D01*
X70105097Y-33843255D01*
X70105093Y-33843249D01*
X70019250Y-33757406D01*
X70019244Y-33757402D01*
X69909229Y-33706102D01*
X69909224Y-33706100D01*
X69909223Y-33706100D01*
X69909220Y-33706099D01*
X69909218Y-33706099D01*
X69859101Y-33699501D01*
X69859096Y-33699500D01*
X69859091Y-33699500D01*
X69859084Y-33699500D01*
X69798657Y-33699500D01*
X69731618Y-33679815D01*
X69700282Y-33650987D01*
X69672596Y-33614907D01*
X69552478Y-33522736D01*
X69412608Y-33464801D01*
X69412603Y-33464800D01*
X69337500Y-33454911D01*
X69337500Y-33831642D01*
X69334949Y-33840327D01*
X69336238Y-33849289D01*
X69325882Y-33884047D01*
X69299882Y-33939804D01*
X69253710Y-33992243D01*
X69186516Y-34011395D01*
X69119635Y-33991179D01*
X69075118Y-33939804D01*
X69049118Y-33884047D01*
X69048993Y-33883484D01*
X69048706Y-33883153D01*
X69048311Y-33880408D01*
X69037500Y-33831642D01*
X69037500Y-33454911D01*
X69037499Y-33454911D01*
X68962396Y-33464800D01*
X68962391Y-33464801D01*
X68822521Y-33522736D01*
X68702401Y-33614908D01*
X68674717Y-33650987D01*
X68618289Y-33692190D01*
X68576344Y-33699500D01*
X68515908Y-33699500D01*
X68465780Y-33706099D01*
X68465769Y-33706102D01*
X68355755Y-33757402D01*
X68355749Y-33757406D01*
X68269906Y-33843249D01*
X68269902Y-33843255D01*
X68218602Y-33953270D01*
X68218599Y-33953281D01*
X68212001Y-34003398D01*
X68212000Y-34003415D01*
X68212000Y-34341193D01*
X68205761Y-34362438D01*
X68204182Y-34384527D01*
X68196109Y-34395310D01*
X68192315Y-34408232D01*
X68175581Y-34422731D01*
X68162310Y-34440460D01*
X68149689Y-34445167D01*
X68139511Y-34453987D01*
X68117593Y-34457138D01*
X68096846Y-34464877D01*
X68083685Y-34462014D01*
X68070353Y-34463931D01*
X68050209Y-34454731D01*
X68028573Y-34450025D01*
X68010847Y-34436756D01*
X68006797Y-34434906D01*
X68000319Y-34428874D01*
X67936818Y-34365373D01*
X67903333Y-34304050D01*
X67900499Y-34277692D01*
X67900499Y-34003407D01*
X67897004Y-33976860D01*
X67893900Y-33953277D01*
X67893897Y-33953270D01*
X67893897Y-33953269D01*
X67842597Y-33843255D01*
X67842593Y-33843249D01*
X67756750Y-33757406D01*
X67756744Y-33757402D01*
X67646729Y-33706102D01*
X67646724Y-33706100D01*
X67646723Y-33706100D01*
X67646720Y-33706099D01*
X67646718Y-33706099D01*
X67596601Y-33699501D01*
X67596596Y-33699500D01*
X67596591Y-33699500D01*
X67596584Y-33699500D01*
X67566924Y-33699500D01*
X67499885Y-33679815D01*
X67454130Y-33627011D01*
X67444186Y-33557853D01*
X67447146Y-33543419D01*
X67479500Y-33422675D01*
X67479500Y-33277725D01*
X67447042Y-33156591D01*
X67448705Y-33086743D01*
X67487867Y-33028880D01*
X67552096Y-33001376D01*
X67566817Y-33000499D01*
X67596592Y-33000499D01*
X67613301Y-32998299D01*
X67646723Y-32993900D01*
X67646728Y-32993897D01*
X67646730Y-32993897D01*
X67756744Y-32942597D01*
X67756745Y-32942596D01*
X67756750Y-32942594D01*
X67842594Y-32856750D01*
X67893900Y-32746723D01*
X67900500Y-32696591D01*
X67900499Y-32303410D01*
X67900497Y-32303398D01*
X67895006Y-32261678D01*
X67893900Y-32253277D01*
X67893897Y-32253270D01*
X67893897Y-32253269D01*
X67842597Y-32143255D01*
X67842593Y-32143249D01*
X67756749Y-32057405D01*
X67747863Y-32051183D01*
X67748690Y-32050001D01*
X67705052Y-32011575D01*
X67685900Y-31945371D01*
X67685900Y-31066674D01*
X67705585Y-30999635D01*
X67733772Y-30975210D01*
X67732759Y-30974055D01*
X67775000Y-30937010D01*
X67775000Y-30339000D01*
X67777550Y-30330314D01*
X67776262Y-30321353D01*
X67787240Y-30297312D01*
X67794685Y-30271961D01*
X67801525Y-30266033D01*
X67805287Y-30257797D01*
X67827521Y-30243507D01*
X67847489Y-30226206D01*
X67858003Y-30223918D01*
X67864065Y-30220023D01*
X67899000Y-30215000D01*
X68051000Y-30215000D01*
X68118039Y-30234685D01*
G37*
%TD.AperFunction*%
%TA.AperFunction,Conductor*%
G36*
X67014453Y-34527214D02*
G01*
X67052227Y-34585992D01*
X67053014Y-34588795D01*
X67069492Y-34650289D01*
X67070775Y-34655076D01*
X67075000Y-34687170D01*
X67075000Y-35095086D01*
X67103665Y-35091313D01*
X67172701Y-35102079D01*
X67224956Y-35148459D01*
X67243850Y-35214252D01*
X67243850Y-36629342D01*
X67224165Y-36696381D01*
X67207531Y-36717023D01*
X66762680Y-37161874D01*
X66754734Y-37166212D01*
X66749309Y-37173460D01*
X66724549Y-37182694D01*
X66701357Y-37195359D01*
X66692327Y-37194713D01*
X66683845Y-37197877D01*
X66658024Y-37192260D01*
X66631665Y-37190375D01*
X66622611Y-37184556D01*
X66615572Y-37183025D01*
X66587318Y-37161874D01*
X66533960Y-37108516D01*
X66320269Y-36894824D01*
X66286784Y-36833501D01*
X66283950Y-36807143D01*
X66283950Y-35638856D01*
X66303635Y-35571817D01*
X66320269Y-35551175D01*
X66522344Y-35349100D01*
X66724983Y-35146461D01*
X66726683Y-35143518D01*
X66758966Y-35087601D01*
X66780508Y-35050290D01*
X66794918Y-34996510D01*
X66809250Y-34943024D01*
X66809250Y-34620927D01*
X66828935Y-34553888D01*
X66881739Y-34508133D01*
X66950897Y-34498189D01*
X67014453Y-34527214D01*
G37*
%TD.AperFunction*%
%TA.AperFunction,Conductor*%
G36*
X49335495Y-34745185D02*
G01*
X49356137Y-34761819D01*
X49913181Y-35318862D01*
X49946666Y-35380185D01*
X49949500Y-35406543D01*
X49949500Y-36769648D01*
X49929815Y-36836687D01*
X49877011Y-36882442D01*
X49807853Y-36892386D01*
X49763500Y-36877035D01*
X49737488Y-36862017D01*
X49737489Y-36862017D01*
X49724382Y-36858505D01*
X49597475Y-36824500D01*
X49452525Y-36824500D01*
X49325618Y-36858505D01*
X49312511Y-36862017D01*
X49303304Y-36867333D01*
X49235403Y-36883803D01*
X49169377Y-36860949D01*
X49126188Y-36806027D01*
X49119549Y-36736473D01*
X49142041Y-36685632D01*
X49193352Y-36617089D01*
X49193354Y-36617086D01*
X49243596Y-36482379D01*
X49243598Y-36482372D01*
X49249999Y-36422844D01*
X49250000Y-36422827D01*
X49250000Y-35327172D01*
X49249999Y-35327155D01*
X49243598Y-35267627D01*
X49243596Y-35267620D01*
X49193354Y-35132913D01*
X49193350Y-35132906D01*
X49107191Y-35017814D01*
X49107185Y-35017807D01*
X49050188Y-34975139D01*
X49047451Y-34971483D01*
X49043297Y-34969586D01*
X49026705Y-34943768D01*
X49008318Y-34919205D01*
X49007302Y-34913577D01*
X49005523Y-34910808D01*
X49000500Y-34875873D01*
X49000500Y-34849500D01*
X49020185Y-34782461D01*
X49072989Y-34736706D01*
X49124500Y-34725500D01*
X49268456Y-34725500D01*
X49335495Y-34745185D01*
G37*
%TD.AperFunction*%
%TA.AperFunction,Conductor*%
G36*
X82066556Y-32207403D02*
G01*
X82110904Y-32235904D01*
X82289094Y-32414094D01*
X82322579Y-32475417D01*
X82317595Y-32545109D01*
X82289094Y-32589456D01*
X81740369Y-33138181D01*
X81718571Y-33150083D01*
X81699090Y-33165491D01*
X81685534Y-33168122D01*
X81679046Y-33171666D01*
X81664814Y-33173906D01*
X81658762Y-33174500D01*
X81561818Y-33174501D01*
X81486650Y-33189452D01*
X81483210Y-33191750D01*
X81462126Y-33193822D01*
X81445086Y-33190586D01*
X81427843Y-33192420D01*
X81425355Y-33191688D01*
X81425327Y-33191834D01*
X81338185Y-33174500D01*
X81296309Y-33174500D01*
X81229270Y-33154815D01*
X81183515Y-33102011D01*
X81173571Y-33032853D01*
X81202596Y-32969297D01*
X81208628Y-32962819D01*
X81935542Y-32235904D01*
X81996865Y-32202419D01*
X82066556Y-32207403D01*
G37*
%TD.AperFunction*%
%TA.AperFunction,Conductor*%
G36*
X77400318Y-31721936D02*
G01*
X77444666Y-31750437D01*
X77738181Y-32043952D01*
X77771666Y-32105275D01*
X77774500Y-32131633D01*
X77774500Y-32644714D01*
X77754815Y-32711753D01*
X77702011Y-32757508D01*
X77632853Y-32767452D01*
X77576189Y-32743981D01*
X77540235Y-32717066D01*
X77492331Y-32681205D01*
X77492329Y-32681204D01*
X77492328Y-32681203D01*
X77357482Y-32630909D01*
X77357483Y-32630909D01*
X77297883Y-32624502D01*
X77297881Y-32624501D01*
X77297873Y-32624501D01*
X77297865Y-32624501D01*
X77221544Y-32624501D01*
X77154505Y-32604816D01*
X77133863Y-32588182D01*
X76821910Y-32276228D01*
X76807206Y-32249300D01*
X76790614Y-32223482D01*
X76789722Y-32217281D01*
X76788425Y-32214905D01*
X76785591Y-32188547D01*
X76785591Y-32061651D01*
X76805276Y-31994612D01*
X76858080Y-31948857D01*
X76885400Y-31940033D01*
X77004390Y-31916364D01*
X77004392Y-31916364D01*
X77116309Y-31870007D01*
X77116313Y-31870005D01*
X77217034Y-31802705D01*
X77217042Y-31802699D01*
X77269303Y-31750438D01*
X77330626Y-31716952D01*
X77400318Y-31721936D01*
G37*
%TD.AperFunction*%
%TA.AperFunction,Conductor*%
G36*
X71452504Y-25388472D02*
G01*
X71507680Y-25431337D01*
X71530922Y-25497227D01*
X71531100Y-25503861D01*
X71531100Y-27524810D01*
X71511415Y-27591849D01*
X71458611Y-27637604D01*
X71389453Y-27647548D01*
X71325897Y-27618523D01*
X71299715Y-27586813D01*
X71293812Y-27576591D01*
X71293809Y-27576585D01*
X71191315Y-27474091D01*
X71191313Y-27474090D01*
X71191311Y-27474088D01*
X71065788Y-27401617D01*
X71065789Y-27401617D01*
X71054306Y-27398540D01*
X70925775Y-27364100D01*
X70780825Y-27364100D01*
X70652293Y-27398540D01*
X70640811Y-27401617D01*
X70515288Y-27474088D01*
X70515282Y-27474093D01*
X70461595Y-27527781D01*
X70400272Y-27561266D01*
X70373914Y-27564100D01*
X69995744Y-27564100D01*
X69928705Y-27544415D01*
X69908063Y-27527781D01*
X69711817Y-27331535D01*
X69678332Y-27270212D01*
X69675498Y-27243854D01*
X69675498Y-26638432D01*
X69695183Y-26571393D01*
X69696356Y-26569602D01*
X69710964Y-26547740D01*
X69725498Y-26474674D01*
X69725498Y-26124000D01*
X69728048Y-26115314D01*
X69726760Y-26106353D01*
X69737738Y-26082312D01*
X69745183Y-26056961D01*
X69752023Y-26051033D01*
X69755785Y-26042797D01*
X69778019Y-26028507D01*
X69797987Y-26011206D01*
X69808501Y-26008918D01*
X69814563Y-26005023D01*
X69849498Y-26000000D01*
X69850998Y-26000000D01*
X69918037Y-26019685D01*
X69963792Y-26072489D01*
X69974998Y-26124000D01*
X69974998Y-26950000D01*
X70022826Y-26950000D01*
X70022842Y-26949999D01*
X70082370Y-26943598D01*
X70082377Y-26943596D01*
X70217084Y-26893354D01*
X70217091Y-26893350D01*
X70332185Y-26807190D01*
X70332188Y-26807187D01*
X70418348Y-26692093D01*
X70418352Y-26692086D01*
X70468594Y-26557379D01*
X70468596Y-26557372D01*
X70474997Y-26497844D01*
X70474998Y-26497827D01*
X70474998Y-26139500D01*
X70494683Y-26072461D01*
X70547487Y-26026706D01*
X70598998Y-26015500D01*
X70750762Y-26015500D01*
X70750764Y-26015500D01*
X70897133Y-25976281D01*
X71028363Y-25900515D01*
X71135513Y-25793365D01*
X71211279Y-25662135D01*
X71250498Y-25515766D01*
X71250498Y-25510345D01*
X71259444Y-25479877D01*
X71266746Y-25448982D01*
X71269216Y-25446598D01*
X71270183Y-25443306D01*
X71294171Y-25422520D01*
X71317026Y-25400468D01*
X71321402Y-25398924D01*
X71322987Y-25397551D01*
X71350310Y-25388727D01*
X71382912Y-25382243D01*
X71452504Y-25388472D01*
G37*
%TD.AperFunction*%
%TA.AperFunction,Conductor*%
G36*
X70303050Y-23459185D02*
G01*
X70348805Y-23511989D01*
X70358749Y-23581147D01*
X70350572Y-23610953D01*
X70339584Y-23637479D01*
X70339582Y-23637487D01*
X70304998Y-23811353D01*
X70304998Y-23875295D01*
X70361009Y-23950000D01*
X70954998Y-23950000D01*
X70954998Y-24450000D01*
X70568550Y-24450000D01*
X70139455Y-24879095D01*
X70131509Y-24883433D01*
X70126084Y-24890681D01*
X70101324Y-24899915D01*
X70078132Y-24912580D01*
X70069102Y-24911934D01*
X70060620Y-24915098D01*
X70037723Y-24910117D01*
X70044550Y-24903291D01*
X70074998Y-24829782D01*
X70074998Y-24750218D01*
X70044550Y-24676709D01*
X69988289Y-24620448D01*
X69914780Y-24590000D01*
X69835216Y-24590000D01*
X69770480Y-24616814D01*
X69772739Y-24585227D01*
X69808231Y-24537221D01*
X69807266Y-24536256D01*
X69815379Y-24528143D01*
X69915507Y-24428015D01*
X69951168Y-24366248D01*
X69970870Y-24340573D01*
X70174998Y-24136445D01*
X70174998Y-24115322D01*
X70103336Y-24019745D01*
X70097365Y-24018557D01*
X70035456Y-23986170D01*
X70001787Y-23929035D01*
X69987982Y-23877515D01*
X69986700Y-23875295D01*
X69915509Y-23751988D01*
X69915504Y-23751982D01*
X69814703Y-23651181D01*
X69781218Y-23589858D01*
X69786202Y-23520166D01*
X69828074Y-23464233D01*
X69893538Y-23439816D01*
X69902384Y-23439500D01*
X70236011Y-23439500D01*
X70303050Y-23459185D01*
G37*
%TD.AperFunction*%
%TA.AperFunction,Conductor*%
G36*
X71474139Y-23969685D02*
G01*
X71519894Y-24022489D01*
X71531100Y-24074000D01*
X71531100Y-24326000D01*
X71511415Y-24393039D01*
X71458611Y-24438794D01*
X71454998Y-24439579D01*
X71454998Y-23964064D01*
X71474139Y-23969685D01*
G37*
%TD.AperFunction*%
%TD*%
M02*
