                                                                        S      1
,,29H5862K139_Neodymium Magnet (4),6HMagnet,7Hunknown,7Hunknown,32,38,7,G      1
99,15,,1.,2,2HMM,1,0.08,15H20250519.132614,0.01,10000.,7Hunknown,7HunknoG      2
wn,11,0,;                                                               G      3
     186       1                                                00000000D      1
     186             -49       1       0                               0D      2
     514       2                                                00010000D      3
     514                       1       1                               0D      4
     510       3                                                00010000D      5
     510             -49       1       1                               0D      6
     510       4                                                00010000D      7
     510             -49       1       1                               0D      8
     510       5                                                00010000D      9
     510             -49       1       1                               0D     10
     510       6                                                00010000D     11
     510             -49       1       1                               0D     12
     508       7                                                00010000D     13
     508                       1       1                               0D     14
     508       8                                                00010000D     15
     508                       2       1                               0D     16
     508      10                                                00010000D     17
     508                       1       1                               0D     18
     508      11                                                00010000D     19
     508                       1       1                               0D     20
     126      12                                                00010000D     21
     126       0              11       0                               0D     22
     126      23                                                00010000D     23
     126       0               4       0                               0D     24
     126      27                                                00010000D     25
     126       0               8       0                               0D     26
     126      35                                                00010000D     27
     126       0               8       0                               0D     28
     126      43                                                00010000D     29
     126       0               6       0                               0D     30
     126      49                                                00010000D     31
     126       0               8       0                               0D     32
     126      57                                                00010000D     33
     126       0               4       0                               0D     34
     128      61                                                00010000D     35
     128       0     -49      16       0                               0D     36
     128      77                                                00010000D     37
     128       0     -49      22       0                               0D     38
     128      99                                                00010000D     39
     128       0     -49       5       0                               0D     40
     128     104                                                00010000D     41
     128       0     -49       4       0                               0D     42
     502     108                                                00010000D     43
     502                       3       1                               0D     44
     504     111                                                00010001D     45
     504                       2       1                               0D     46
     406     113                                                00000000D     47
     406                       1      15                               0D     48
     314     114                                                00000200D     49
     314                       2       0                               0D     50
186,3,1,0,0,1,47;                                                      1P      1
514,4,5,1,7,1,9,1,11,1;                                                3P      2
510,35,1,1,13;                                                         5P      3
510,37,1,1,15;                                                         7P      4
510,39,1,1,17;                                                         9P      5
510,41,1,1,19;                                                        11P      6
508,5,0,45,1,0,0,0,45,2,1,0,0,45,3,1,0,0,45,4,1,0,0,45,2,0,0;         13P      7
508,6,0,45,5,0,0,0,45,6,0,0,0,45,7,1,0,0,45,3,0,0,0,45,4,0,0,0,       15P      8
45,7,0,0;                                                             15P      9
508,2,0,45,5,1,0,0,45,6,1,0;                                          17P     10
508,1,0,45,1,1,0;                                                     19P     11
126,8,2,0,1,0,0,-3.14159265358979,-3.14159265358979,                  21P     12
-3.14159265358979,-1.5707963267949,-1.5707963267949,0.,0.,            21P     13
1.5707963267949,1.5707963267949,3.14159265358979,                     21P     14
3.14159265358979,3.14159265358979,1.,0.707106781186548,1.,            21P     15
0.707106781186549,1.,0.707106781186549,1.,0.707106781186548,1.,       21P     16
2.38125,-2.91619019046964D-16,-0.74375,2.38125,-2.38125,              21P     17
-0.74375,-1.45809509523482D-16,-2.38125,-0.74375,-2.38125,            21P     18
-2.38125,-0.74375,-2.38125,0.,-0.74375,-2.38125,2.38125,              21P     19
-0.74375,-1.45809509523482D-16,2.38125,-0.74375,2.38125,2.38125,      21P     20
-0.74375,2.38125,2.91619019046964D-16,-0.74375,                       21P     21
-3.14159265358979,3.14159265358979,0.,0.,0.;                          21P     22
126,1,1,0,0,1,0,-0.645669291338583,-0.645669291338583,                23P     23
-0.0166666666666667,-0.0166666666666667,1.,1.,2.38125,0.,             23P     24
-0.74375,2.38125,0.,0.7540625,-0.645669291338583,                     23P     25
-0.0166666666666667,0.,0.,0.;                                         23P     26
126,4,2,0,0,0,0,-6.28318530717959,-6.28318530717959,                  25P     27
-6.28318530717959,-4.71238898038469,-4.71238898038469,                25P     28
-3.14159265358979,-3.14159265358979,-3.14159265358979,1.,             25P     29
0.707106781186548,1.,0.707106781186548,1.,2.38125,                    25P     30
-5.83238038093927D-16,0.7540625,2.38125,-2.38125,0.7540625,           25P     31
-4.37428528570445D-16,-2.38125,0.7540625,-2.38125,-2.38125,           25P     32
0.7540625,-2.38125,2.91619019046964D-16,0.7540625,                    25P     33
-6.28318530717959,-3.14159265358979,0.,0.,0.;                         25P     34
126,4,2,0,0,0,0,-3.14159265358979,-3.14159265358979,                  27P     35
-3.14159265358979,-1.5707963267949,-1.5707963267949,                  27P     36
-1.22464679914735D-16,-1.22464679914735D-16,                          27P     37
-1.22464679914735D-16,1.,0.707106781186548,1.,0.707106781186548,      27P     38
1.,-2.38125,2.91619019046964D-16,0.7540625,-2.38125,2.38125,          27P     39
0.7540625,1.45809509523482D-16,2.38125,0.7540625,2.38125,             27P     40
2.38125,0.7540625,2.38125,2.91619019046963D-16,0.7540625,             27P     41
-3.14159265358979,-1.22464679914735D-16,0.,0.,0.;                     27P     42
126,4,2,0,0,0,0,0.,0.,0.,1.5707963267949,1.5707963267949,             29P     43
3.14159265358979,3.14159265358979,3.14159265358979,1.,                29P     44
0.707106781186548,1.,0.707106781186548,1.,2.3415625,0.,0.79375,       29P     45
2.3415625,2.3415625,0.79375,1.43379351031424D-16,2.3415625,           29P     46
0.79375,-2.3415625,2.3415625,0.79375,-2.3415625,                      29P     47
2.86758702062847D-16,0.79375,0.,3.14159265358979,0.,0.,0.;            29P     48
126,4,2,0,0,0,0,3.14159265358979,3.14159265358979,                    31P     49
3.14159265358979,4.71238898038469,4.71238898038469,                   31P     50
6.28318530717959,6.28318530717959,6.28318530717959,1.,                31P     51
0.707106781186548,1.,0.707106781186548,1.,-2.3415625,                 31P     52
2.86758702062847D-16,0.79375,-2.3415625,-2.3415625,0.79375,           31P     53
-4.30138053094271D-16,-2.3415625,0.79375,2.3415625,-2.3415625,        31P     54
0.79375,2.3415625,-5.73517404125695D-16,0.79375,                      31P     55
3.14159265358979,6.28318530717959,0.,0.,0.;                           31P     56
126,2,2,0,0,0,0,-1.57079632679491,-1.57079632679491,                  33P     57
-1.57079632679491,0.,0.,0.,1.,0.707106781186542,1.,-2.3415625,        33P     58
0.,0.79375,-2.38125,0.,0.79375,-2.38125,0.,0.7540625,                 33P     59
-1.57079632679491,0.,0.,0.,0.;                                        33P     60
128,1,8,1,2,0,1,0,0,1,0.0166666666666667,0.0166666666666667,          35P     61
0.645669291338583,0.645669291338583,-3.14159265358979,                35P     62
-3.14159265358979,-3.14159265358979,-1.5707963267949,                 35P     63
-1.5707963267949,0.,0.,1.5707963267949,1.5707963267949,               35P     64
3.14159265358979,3.14159265358979,3.14159265358979,1.,1.,             35P     65
0.707106781186548,0.707106781186548,1.,1.,0.707106781186548,          35P     66
0.707106781186548,1.,1.,0.707106781186548,0.707106781186548,1.,       35P     67
1.,0.707106781186548,0.707106781186548,1.,1.,2.38125,0.,              35P     68
-0.74375,2.38125,0.,0.7540625,2.38125,-2.38125,-0.74375,2.38125,      35P     69
-2.38125,0.7540625,0.,-2.38125,-0.74375,0.,-2.38125,0.7540625,        35P     70
-2.38125,-2.38125,-0.74375,-2.38125,-2.38125,0.7540625,-2.38125,      35P     71
0.,-0.74375,-2.38125,0.,0.7540625,-2.38125,2.38125,-0.74375,          35P     72
-2.38125,2.38125,0.7540625,0.,2.38125,-0.74375,0.,2.38125,            35P     73
0.7540625,2.38125,2.38125,-0.74375,2.38125,2.38125,0.7540625,         35P     74
2.38125,0.,-0.74375,2.38125,0.,0.7540625,0.0166666666666667,          35P     75
0.645669291338583,-3.14159265358979,3.14159265358979;                 35P     76
128,2,8,2,2,0,1,0,0,1,0.,0.,0.,1.57079632679491,                      37P     77
1.57079632679491,1.57079632679491,-3.14159265358979,                  37P     78
-3.14159265358979,-3.14159265358979,-1.5707963267949,                 37P     79
-1.5707963267949,0.,0.,1.5707963267949,1.5707963267949,               37P     80
3.14159265358979,3.14159265358979,3.14159265358979,1.,                37P     81
0.707106781186542,1.,0.707106781186548,0.499999999999996,             37P     82
0.707106781186548,1.,0.707106781186542,1.,0.707106781186548,          37P     83
0.499999999999996,0.707106781186548,1.,0.707106781186542,1.,          37P     84
0.707106781186548,0.499999999999996,0.707106781186548,1.,             37P     85
0.707106781186542,1.,0.707106781186548,0.499999999999996,             37P     86
0.707106781186548,1.,0.707106781186542,1.,-2.3415625,0.,0.79375,      37P     87
-2.38125,0.,0.79375,-2.38125,0.,0.7540625,-2.3415625,-2.3415625,      37P     88
0.79375,-2.38125,-2.38125,0.79375,-2.38125,-2.38125,0.7540625,        37P     89
0.,-2.3415625,0.79375,0.,-2.38125,0.79375,0.,-2.38125,0.7540625,      37P     90
2.3415625,-2.3415625,0.79375,2.38125,-2.38125,0.79375,2.38125,        37P     91
-2.38125,0.7540625,2.3415625,0.,0.79375,2.38125,0.,0.79375,           37P     92
2.38125,0.,0.7540625,2.3415625,2.3415625,0.79375,2.38125,             37P     93
2.38125,0.79375,2.38125,2.38125,0.7540625,0.,2.3415625,0.79375,       37P     94
0.,2.38125,0.79375,0.,2.38125,0.7540625,-2.3415625,2.3415625,         37P     95
0.79375,-2.38125,2.38125,0.79375,-2.38125,2.38125,0.7540625,          37P     96
-2.3415625,0.,0.79375,-2.38125,0.,0.79375,-2.38125,0.,0.7540625,      37P     97
0.,1.57079632679491,-3.14159265358979,3.14159265358979;               37P     98
128,1,1,1,1,0,0,1,0,0,-0.0931875,-0.0931875,0.0931875,0.0931875,      39P     99
-0.0931875,-0.0931875,0.0931875,0.0931875,1.,1.,1.,1.,                39P    100
-2.3669625,-2.3669625,0.79375,2.3669625,-2.3669625,0.79375,           39P    101
-2.3669625,2.3669625,0.79375,2.3669625,2.3669625,0.79375,             39P    102
-0.0931875,0.0931875,-0.0931875,0.0931875;                            39P    103
128,1,1,1,1,0,0,1,0,0,-0.09475,-0.09475,0.09475,0.09475,              41P    104
-0.09475,-0.09475,0.09475,0.09475,1.,1.,1.,1.,2.40665,-2.40665,       41P    105
-0.74375,-2.40665,-2.40665,-0.74375,2.40665,2.40665,-0.74375,         41P    106
-2.40665,2.40665,-0.74375,-0.09475,0.09475,-0.09475,0.09475;          41P    107
502,5,2.38125,2.91619019046964D-16,-0.74375,2.38125,                  43P    108
2.91619019046963D-16,0.7540625,-2.38125,0.,0.7540625,2.3415625,       43P    109
0.,0.79375,-2.3415625,0.,0.79375;                                     43P    110
504,7,21,43,1,43,1,23,43,1,43,2,25,43,2,43,3,27,43,3,43,2,29,43,      45P    111
4,43,5,31,43,5,43,4,33,43,5,43,3;                                     45P    112
406,1,5HBody1;                                                        47P    113
314,62.7450980392157,62.7450980392157,62.7450980392157,13HSteel       49P    114
- Satin;                                                              49P    115
S      1G      3D     50P    115                                        T      1
