M48
; DRILL file KiCad 10.0.5 date 2026-09-21T17:54:27
; FORMAT={-:-/ absolute / metric / decimal}
; #@! TF.CreationDate,2026-09-21T17:54:27-07:00
; #@! TF.GenerationSoftware,Kicad,Pcbnew,10.0.5
; #@! TF.FileFunction,Plated,1,4,PTH
FMAT,2
METRIC
; #@! TA.AperFunction,Plated,PTH,ComponentDrill
T1C0.250
; #@! TA.AperFunction,Plated,PTH,ViaDrill
T2C0.300
; #@! TA.AperFunction,Plated,PTH,ComponentDrill
T3C0.500
; #@! TA.AperFunction,Plated,PTH,ComponentDrill
T4C0.800
%
G90
G05
T1
X69.197Y-33.297
X69.999Y-32.496
X69.999Y-34.099
X70.8Y-31.694
X70.8Y-33.297
X70.8Y-34.9
X71.601Y-32.496
X71.601Y-34.099
X72.403Y-33.297
T2
X26.65Y-67.0
X28.175Y-66.2
X31.775Y-66.75
X31.925Y-61.45
X37.7Y-57.525
X38.9Y-56.225
X40.675Y-60.95
X40.7Y-56.25
X43.164Y-57.05
X44.8Y-59.1
X45.35Y-56.8
X46.35Y-57.025
X46.575Y-47.925
X46.6Y-53.525
X46.903Y-56.566
X47.475Y-57.65
X47.725Y-61.85
X47.925Y-56.925
X48.025Y-67.075
X48.7Y-58.075
X48.95Y-48.075
X49.5Y-54.425
X49.5Y-63.8
X49.55Y-52.7
X49.95Y-65.1
X50.325Y-49.275
X50.975Y-67.35
X51.825Y-56.95
X51.925Y-45.15
X54.075Y-54.075
X54.2Y-59.125
X54.65Y-16.725
X54.725Y-54.575
X55.425Y-56.15
X55.775Y-23.175
X55.85Y-14.825
X55.852Y-19.275
X55.95Y-26.15
X56.475Y-20.425
X56.65Y-26.025
X57.0Y-62.025
X57.2Y-56.175
X57.2Y-60.975
X57.287Y-19.912
X57.308Y-54.801
X58.0Y-18.75
X58.762Y-18.687
X59.05Y-58.25
X59.675Y-14.9
X59.75Y-25.625
X60.85Y-45.05
X61.65Y-45.025
X61.75Y-44.25
X61.8Y-37.55
X62.175Y-46.275
X62.275Y-28.486
X62.275Y-38.1
X62.3Y-37.025
X62.525Y-39.075
X62.603Y-46.978
X62.65Y-50.825
X62.675Y-36.4
X62.867Y-35.694
X62.925Y-38.45
X62.95Y-47.675
X63.325Y-32.25
X63.5Y-23.425
X63.559Y-55.825
X63.575Y-62.525
X65.875Y-70.4
X65.9Y-67.2
X66.0Y-24.75
X66.4Y-49.45
X66.425Y-32.525
X66.55Y-40.918
X66.6Y-47.475
X67.1Y-34.475
X67.575Y-45.773
X67.787Y-55.373
X68.15Y-45.1
X68.25Y-55.05
X68.731Y-52.767
X68.775Y-48.925
X68.9Y-23.325
X69.3Y-52.9
X69.5Y-37.7
X69.51Y-23.752
X69.864Y-30.654
X70.05Y-28.55
X70.199Y-23.874
X70.225Y-36.275
X70.65Y-25.05
X70.725Y-28.0
X71.354Y-25.371
X71.55Y-28.5
X71.662Y-30.662
X72.0Y-49.1
X72.075Y-29.1
X72.379Y-37.421
X72.475Y-23.525
X72.65Y-52.675
X73.0Y-24.025
X73.525Y-24.525
X73.775Y-33.525
X73.825Y-43.175
X73.893Y-40.777
X74.025Y-50.1
X74.475Y-22.75
X74.475Y-54.1
X74.575Y-21.95
X75.35Y-49.2
X75.525Y-27.2
X75.575Y-26.45
X75.9Y-52.675
X75.926Y-37.395
X76.3Y-26.45
X76.625Y-27.225
X76.79Y-22.239
X77.275Y-22.9
X78.75Y-32.575
X78.9Y-35.075
X79.65Y-29.05
X80.075Y-16.575
X80.275Y-32.8
X80.325Y-34.575
X81.525Y-14.85
X81.8Y-36.725
X81.8Y-38.7
X82.425Y-25.725
X82.9Y-18.925
X83.105Y-20.006
X83.125Y-20.8
X83.3Y-29.4
X83.625Y-19.3
X83.875Y-28.875
X84.35Y-22.15
X85.275Y-14.875
X85.475Y-22.475
X89.65Y-28.225
X93.025Y-32.025
X93.05Y-29.95
X93.147Y-30.975
X93.589Y-31.518
X93.604Y-30.378
X94.848Y-37.276
X94.875Y-37.975
X95.475Y-28.5
X97.475Y-38.1
X97.875Y-33.35
X98.4Y-32.75
X98.475Y-41.0
X98.75Y-41.725
X101.04Y-39.352
X101.35Y-41.575
X101.625Y-33.25
X102.225Y-38.1
X102.275Y-36.325
X105.537Y-29.612
X107.234Y-32.134
X107.55Y-41.375
X107.976Y-40.711
X108.375Y-38.875
X108.7Y-39.525
X108.7Y-40.3
X109.225Y-56.3
X109.375Y-27.85
X110.2Y-67.125
X110.25Y-31.275
X110.3Y-23.325
X110.3Y-43.275
X110.4Y-51.825
X110.5Y-49.425
X110.9Y-39.525
X111.425Y-44.85
X112.375Y-66.95
X112.875Y-49.6
X112.925Y-29.425
X113.225Y-23.25
X113.25Y-31.275
X113.25Y-51.725
X113.725Y-67.5
X113.925Y-43.6
X114.1Y-56.925
X114.125Y-27.825
X114.125Y-48.4
X114.15Y-46.55
X114.225Y-26.025
X119.725Y-61.6
X121.275Y-38.1
X122.2Y-32.725
X122.25Y-33.552
X122.3Y-41.525
X124.125Y-34.675
X124.75Y-39.275
X125.125Y-41.75
X125.35Y-40.875
X126.05Y-36.3
X126.05Y-38.15
T3
X35.6Y-70.125
X37.6Y-70.125
X118.05Y-66.75
X120.125Y-66.75
T4
X67.886Y-14.753
X69.886Y-14.753
X71.886Y-14.753
X73.886Y-14.753
M30
