%TF.GenerationSoftware,KiCad,Pcbnew,10.0.5*%
%TF.CreationDate,2026-09-21T17:54:25-07:00*%
%TF.ProjectId,PGS_Main_Board,5047535f-4d61-4696-9e5f-426f6172642e,2*%
%TF.SameCoordinates,Original*%
%TF.FileFunction,Soldermask,Bot*%
%TF.FilePolarity,Negative*%
%FSLAX46Y46*%
G04 Gerber Fmt 4.6, Leading zero omitted, Abs format (unit mm)*
G04 Created by KiCad (PCBNEW 10.0.5) date 2026-09-21 17:54:25*
%MOMM*%
%LPD*%
G01*
G04 APERTURE LIST*
G04 Aperture macros list*
%AMRoundRect*
0 Rectangle with rounded corners*
0 $1 Rounding radius*
0 $2 $3 $4 $5 $6 $7 $8 $9 X,Y pos of 4 corners*
0 Add a 4 corners polygon primitive as box body*
4,1,4,$2,$3,$4,$5,$6,$7,$8,$9,$2,$3,0*
0 Add four circle primitives for the rounded corners*
1,1,$1+$1,$2,$3*
1,1,$1+$1,$4,$5*
1,1,$1+$1,$6,$7*
1,1,$1+$1,$8,$9*
0 Add four rect primitives between the rounded corners*
20,1,$1+$1,$2,$3,$4,$5,0*
20,1,$1+$1,$4,$5,$6,$7,0*
20,1,$1+$1,$6,$7,$8,$9,0*
20,1,$1+$1,$8,$9,$2,$3,0*%
%AMRotRect*
0 Rectangle, with rotation*
0 The origin of the aperture is its center*
0 $1 length*
0 $2 width*
0 $3 Rotation angle, in degrees counterclockwise*
0 Add horizontal line*
21,1,$1,$2,0,0,$3*%
G04 Aperture macros list end*
%ADD10C,0.200000*%
%ADD11C,0.300000*%
%ADD12R,0.850000X0.850000*%
%ADD13R,0.300000X1.000000*%
%ADD14R,2.000000X1.300000*%
%ADD15RoundRect,0.140000X0.021213X-0.219203X0.219203X-0.021213X-0.021213X0.219203X-0.219203X0.021213X0*%
%ADD16RoundRect,0.100000X-0.021213X-0.162635X0.162635X0.021213X0.021213X0.162635X-0.162635X-0.021213X0*%
%ADD17RoundRect,0.137500X0.525000X0.137500X-0.525000X0.137500X-0.525000X-0.137500X0.525000X-0.137500X0*%
%ADD18RoundRect,0.100000X0.100000X-0.130000X0.100000X0.130000X-0.100000X0.130000X-0.100000X-0.130000X0*%
%ADD19RoundRect,0.140000X-0.219203X-0.021213X-0.021213X-0.219203X0.219203X0.021213X0.021213X0.219203X0*%
%ADD20RoundRect,0.150000X1.250000X0.350000X-1.250000X0.350000X-1.250000X-0.350000X1.250000X-0.350000X0*%
%ADD21RoundRect,0.100000X0.162635X-0.021213X-0.021213X0.162635X-0.162635X0.021213X0.021213X-0.162635X0*%
%ADD22RoundRect,0.100000X0.021213X0.162635X-0.162635X-0.021213X-0.021213X-0.162635X0.162635X0.021213X0*%
%ADD23RoundRect,0.100000X-0.130000X-0.100000X0.130000X-0.100000X0.130000X0.100000X-0.130000X0.100000X0*%
%ADD24RoundRect,0.137500X-0.137500X0.525000X-0.137500X-0.525000X0.137500X-0.525000X0.137500X0.525000X0*%
%ADD25RoundRect,0.102000X0.250000X0.500000X-0.250000X0.500000X-0.250000X-0.500000X0.250000X-0.500000X0*%
%ADD26RoundRect,0.102000X0.600000X0.850000X-0.600000X0.850000X-0.600000X-0.850000X0.600000X-0.850000X0*%
%ADD27R,0.745000X0.280000*%
%ADD28R,0.280000X0.745000*%
%ADD29RoundRect,0.100000X0.130000X0.100000X-0.130000X0.100000X-0.130000X-0.100000X0.130000X-0.100000X0*%
%ADD30RoundRect,0.055000X-0.275772X-0.197990X-0.197990X-0.275772X0.275772X0.197990X0.197990X0.275772X0*%
%ADD31RoundRect,0.055000X0.197990X-0.275772X0.275772X-0.197990X-0.197990X0.275772X-0.275772X0.197990X0*%
%ADD32C,0.600000*%
%ADD33RotRect,1.133333X1.133333X45.000000*%
%ADD34RoundRect,0.100000X-0.100000X0.130000X-0.100000X-0.130000X0.100000X-0.130000X0.100000X0.130000X0*%
%ADD35RotRect,0.700000X1.700000X45.000000*%
%ADD36RoundRect,0.100000X-0.162635X0.021213X0.021213X-0.162635X0.162635X-0.021213X-0.021213X0.162635X0*%
%ADD37RoundRect,0.140000X0.219203X0.021213X0.021213X0.219203X-0.219203X-0.021213X-0.021213X-0.219203X0*%
%ADD38R,1.350000X1.350000*%
%ADD39O,1.350000X1.350000*%
%ADD40RotRect,1.400000X1.200000X45.000000*%
%ADD41R,1.000000X0.300000*%
%ADD42R,1.300000X2.000000*%
G04 APERTURE END LIST*
D10*
G36*
X63879925Y-70124501D02*
G01*
X63879925Y-69330614D01*
X64049851Y-69330614D01*
X64049851Y-69627750D01*
X64354721Y-69627750D01*
X64354721Y-69330614D01*
X64523453Y-69330614D01*
X64523453Y-70124501D01*
X64354721Y-70124501D01*
X64354721Y-69769078D01*
X64049851Y-69769078D01*
X64049851Y-70124501D01*
X63879925Y-70124501D01*
G37*
G36*
X63602470Y-69521587D02*
G01*
X63641179Y-69526396D01*
X63673718Y-69533715D01*
X63702520Y-69543605D01*
X63726710Y-69555355D01*
X63747744Y-69569235D01*
X63765462Y-69584837D01*
X63780383Y-69602286D01*
X63802682Y-69643219D01*
X63815339Y-69693784D01*
X63818007Y-69729166D01*
X63670814Y-69729166D01*
X63665891Y-69705862D01*
X63657526Y-69685695D01*
X63647941Y-69671926D01*
X63635556Y-69660573D01*
X63621394Y-69652369D01*
X63604426Y-69646508D01*
X63566388Y-69642283D01*
X63539535Y-69643917D01*
X63516538Y-69648711D01*
X63499357Y-69655618D01*
X63485817Y-69664849D01*
X63477045Y-69674884D01*
X63471487Y-69686570D01*
X63469280Y-69701554D01*
X63471104Y-69719284D01*
X63477226Y-69733501D01*
X63496349Y-69749335D01*
X63534876Y-69761476D01*
X63566595Y-69766795D01*
X63653498Y-69780450D01*
X63692263Y-69789307D01*
X63727344Y-69800700D01*
X63758319Y-69815514D01*
X63784768Y-69834637D01*
X63806271Y-69858955D01*
X63822406Y-69889354D01*
X63834630Y-69939138D01*
X63836951Y-69978657D01*
X63835283Y-70004890D01*
X63830252Y-70029375D01*
X63822474Y-70050512D01*
X63811689Y-70069814D01*
X63798529Y-70086421D01*
X63782557Y-70101082D01*
X63742511Y-70123863D01*
X63689874Y-70137667D01*
X63640140Y-70141109D01*
X63577324Y-70134861D01*
X63548666Y-70127266D01*
X63522714Y-70117116D01*
X63499457Y-70104590D01*
X63479401Y-70090113D01*
X63464245Y-70075661D01*
X63454540Y-70124501D01*
X63307658Y-70124501D01*
X63307658Y-69839976D01*
X63465751Y-69839976D01*
X63466892Y-69900182D01*
X63473940Y-69938839D01*
X63493342Y-69973847D01*
X63507409Y-69989058D01*
X63523968Y-70002067D01*
X63542735Y-70012547D01*
X63563500Y-70020222D01*
X63605625Y-70025991D01*
X63627490Y-70024321D01*
X63645569Y-70019271D01*
X63657853Y-70012327D01*
X63667364Y-70002894D01*
X63677619Y-69978307D01*
X63678962Y-69962152D01*
X63677210Y-69942701D01*
X63671588Y-69925959D01*
X63663791Y-69914146D01*
X63652783Y-69903768D01*
X63618808Y-69886263D01*
X63563689Y-69872051D01*
X63506373Y-69859316D01*
X63473461Y-69846051D01*
X63465751Y-69839976D01*
X63307658Y-69839976D01*
X63307658Y-69752522D01*
X63309363Y-69713167D01*
X63314655Y-69677164D01*
X63322292Y-69648913D01*
X63332956Y-69623283D01*
X63345347Y-69602416D01*
X63360478Y-69583789D01*
X63377575Y-69568154D01*
X63397386Y-69554638D01*
X63445842Y-69534045D01*
X63509650Y-69522186D01*
X63559225Y-69519951D01*
X63602470Y-69521587D01*
G37*
G36*
X62709492Y-70124501D02*
G01*
X62709492Y-69716813D01*
X62711124Y-69686636D01*
X62715902Y-69658863D01*
X62723476Y-69633985D01*
X62733743Y-69611478D01*
X62746446Y-69591496D01*
X62761480Y-69573910D01*
X62798356Y-69545778D01*
X62844159Y-69527430D01*
X62898657Y-69520027D01*
X62905109Y-69519951D01*
X62938611Y-69521588D01*
X62969051Y-69526408D01*
X62995430Y-69533889D01*
X63019130Y-69544044D01*
X63039812Y-69556467D01*
X63058049Y-69571223D01*
X63087718Y-69607732D01*
X63092630Y-69616228D01*
X63092630Y-69536559D01*
X63243508Y-69536559D01*
X63243508Y-70124501D01*
X63085519Y-70124501D01*
X63085519Y-69787919D01*
X63083853Y-69757964D01*
X63078830Y-69731845D01*
X63071609Y-69712035D01*
X63061739Y-69695189D01*
X63050267Y-69682277D01*
X63036504Y-69671885D01*
X63002217Y-69658692D01*
X62966976Y-69655310D01*
X62936929Y-69657116D01*
X62913021Y-69663115D01*
X62899707Y-69670260D01*
X62888996Y-69680174D01*
X62875442Y-69707010D01*
X62869017Y-69751877D01*
X62868674Y-69768923D01*
X62868674Y-70124501D01*
X62709492Y-70124501D01*
G37*
G36*
X62243416Y-69608080D02*
G01*
X62261224Y-69585895D01*
X62280871Y-69566857D01*
X62301449Y-69551570D01*
X62323680Y-69539251D01*
X62372349Y-69523762D01*
X62415470Y-69519951D01*
X62444852Y-69521590D01*
X62472556Y-69526421D01*
X62498317Y-69534235D01*
X62522332Y-69544933D01*
X62565203Y-69574720D01*
X62601136Y-69615717D01*
X62629437Y-69668231D01*
X62648751Y-69732451D01*
X62657290Y-69807962D01*
X62657539Y-69824042D01*
X62655902Y-69865825D01*
X62651091Y-69904984D01*
X62643404Y-69940856D01*
X62632928Y-69974037D01*
X62620068Y-70003911D01*
X62604787Y-70031047D01*
X62587545Y-70054971D01*
X62568219Y-70076115D01*
X62547216Y-70094196D01*
X62524423Y-70109437D01*
X62474187Y-70131063D01*
X62417977Y-70140669D01*
X62402390Y-70141109D01*
X62372930Y-70139449D01*
X62345518Y-70134473D01*
X62321602Y-70126740D01*
X62299650Y-70116064D01*
X62280383Y-70102966D01*
X62263073Y-70087132D01*
X62240925Y-70058274D01*
X62239783Y-70124501D01*
X62087763Y-70124501D01*
X62087763Y-69844284D01*
X62237447Y-69844284D01*
X62239069Y-69872579D01*
X62243782Y-69898873D01*
X62251374Y-69922998D01*
X62261605Y-69944664D01*
X62274059Y-69963413D01*
X62288629Y-69979336D01*
X62304608Y-69991902D01*
X62322169Y-70001398D01*
X62340484Y-70007482D01*
X62359904Y-70010327D01*
X62366682Y-70010525D01*
X62386333Y-70008890D01*
X62404805Y-70004093D01*
X62437943Y-69985449D01*
X62465454Y-69954795D01*
X62485700Y-69911996D01*
X62496215Y-69857621D01*
X62497111Y-69834734D01*
X62495442Y-69795886D01*
X62490401Y-69761783D01*
X62483179Y-69735814D01*
X62473300Y-69713476D01*
X62462110Y-69696476D01*
X62448717Y-69682414D01*
X62417095Y-69663772D01*
X62376421Y-69655671D01*
X62365488Y-69655362D01*
X62342566Y-69657025D01*
X62321878Y-69662025D01*
X62304766Y-69669617D01*
X62289574Y-69680077D01*
X62265351Y-69709013D01*
X62248018Y-69751256D01*
X62238516Y-69811310D01*
X62237447Y-69844284D01*
X62087763Y-69844284D01*
X62087763Y-69320648D01*
X62243416Y-69320648D01*
X62243416Y-69608080D01*
G37*
G36*
X61097169Y-70124501D02*
G01*
X61097169Y-69330614D01*
X61267095Y-69330614D01*
X61267095Y-69627750D01*
X61571965Y-69627750D01*
X61571965Y-69330614D01*
X61740697Y-69330614D01*
X61740697Y-70124501D01*
X61571965Y-70124501D01*
X61571965Y-69769078D01*
X61267095Y-69769078D01*
X61267095Y-70124501D01*
X61097169Y-70124501D01*
G37*
G36*
X60803015Y-69521594D02*
G01*
X60836861Y-69526455D01*
X60867707Y-69534199D01*
X60896356Y-69544810D01*
X60922326Y-69557940D01*
X60946074Y-69573655D01*
X60986530Y-69612248D01*
X61017855Y-69660461D01*
X61039603Y-69718582D01*
X61050717Y-69786996D01*
X61051859Y-69819267D01*
X61050198Y-69865553D01*
X61045219Y-69908272D01*
X61037618Y-69944769D01*
X61027155Y-69978175D01*
X61014718Y-70006740D01*
X60999757Y-70032566D01*
X60983055Y-70054743D01*
X60964039Y-70074396D01*
X60919822Y-70105718D01*
X60865813Y-70127447D01*
X60799852Y-70139286D01*
X60757421Y-70141109D01*
X60724272Y-70139458D01*
X60692631Y-70134547D01*
X60663283Y-70126647D01*
X60635648Y-70115743D01*
X60610329Y-70102181D01*
X60586915Y-70085834D01*
X60565768Y-70066997D01*
X60546726Y-70045544D01*
X60529945Y-70021583D01*
X60515502Y-69995121D01*
X60498172Y-69949800D01*
X60661144Y-69949800D01*
X60674956Y-69977282D01*
X60700070Y-69998848D01*
X60735887Y-70012364D01*
X60764583Y-70015248D01*
X60786142Y-70013613D01*
X60806059Y-70008811D01*
X60824006Y-70001118D01*
X60840146Y-69990640D01*
X60866842Y-69961566D01*
X60885328Y-69921563D01*
X60893715Y-69872051D01*
X60490387Y-69872051D01*
X60492043Y-69820703D01*
X60496989Y-69773390D01*
X60497406Y-69771154D01*
X60653254Y-69771154D01*
X60888940Y-69771154D01*
X60885518Y-69746650D01*
X60879192Y-69724521D01*
X60870253Y-69704947D01*
X60858943Y-69687963D01*
X60845554Y-69673717D01*
X60830316Y-69662278D01*
X60795314Y-69648278D01*
X60771694Y-69645864D01*
X60750946Y-69647529D01*
X60731007Y-69652540D01*
X60713055Y-69660524D01*
X60696692Y-69671638D01*
X60683040Y-69685063D01*
X60671534Y-69701332D01*
X60662825Y-69719658D01*
X60656732Y-69740643D01*
X60653254Y-69771154D01*
X60497406Y-69771154D01*
X60504556Y-69732840D01*
X60514941Y-69695816D01*
X60527236Y-69664266D01*
X60541972Y-69635827D01*
X60558238Y-69611664D01*
X60576677Y-69590319D01*
X60596674Y-69572267D01*
X60618692Y-69556884D01*
X60668715Y-69534130D01*
X60728314Y-69521882D01*
X60766971Y-69519951D01*
X60803015Y-69521594D01*
G37*
G36*
X60282833Y-70124501D02*
G01*
X60282833Y-69320648D01*
X60440821Y-69320648D01*
X60440821Y-70124501D01*
X60282833Y-70124501D01*
G37*
G36*
X59818573Y-69608080D02*
G01*
X59836381Y-69585895D01*
X59856028Y-69566857D01*
X59876606Y-69551570D01*
X59898837Y-69539251D01*
X59947506Y-69523762D01*
X59990627Y-69519951D01*
X60020009Y-69521590D01*
X60047713Y-69526421D01*
X60073474Y-69534235D01*
X60097489Y-69544933D01*
X60140360Y-69574720D01*
X60176293Y-69615717D01*
X60204594Y-69668231D01*
X60223908Y-69732451D01*
X60232447Y-69807962D01*
X60232696Y-69824042D01*
X60231059Y-69865825D01*
X60226248Y-69904984D01*
X60218561Y-69940856D01*
X60208085Y-69974037D01*
X60195225Y-70003911D01*
X60179944Y-70031047D01*
X60162702Y-70054971D01*
X60143376Y-70076115D01*
X60122373Y-70094196D01*
X60099580Y-70109437D01*
X60049344Y-70131063D01*
X59993134Y-70140669D01*
X59977547Y-70141109D01*
X59948087Y-70139449D01*
X59920675Y-70134473D01*
X59896759Y-70126740D01*
X59874807Y-70116064D01*
X59855540Y-70102966D01*
X59838231Y-70087132D01*
X59816082Y-70058274D01*
X59814940Y-70124501D01*
X59662920Y-70124501D01*
X59662920Y-69844284D01*
X59812604Y-69844284D01*
X59814226Y-69872579D01*
X59818939Y-69898873D01*
X59826531Y-69922998D01*
X59836762Y-69944664D01*
X59849216Y-69963413D01*
X59863786Y-69979336D01*
X59879765Y-69991902D01*
X59897326Y-70001398D01*
X59915641Y-70007482D01*
X59935061Y-70010327D01*
X59941839Y-70010525D01*
X59961490Y-70008890D01*
X59979962Y-70004093D01*
X60013100Y-69985449D01*
X60040611Y-69954795D01*
X60060857Y-69911996D01*
X60071372Y-69857621D01*
X60072268Y-69834734D01*
X60070599Y-69795886D01*
X60065558Y-69761783D01*
X60058336Y-69735814D01*
X60048457Y-69713476D01*
X60037267Y-69696476D01*
X60023874Y-69682414D01*
X59992252Y-69663772D01*
X59951578Y-69655671D01*
X59940645Y-69655362D01*
X59917723Y-69657025D01*
X59897035Y-69662025D01*
X59879923Y-69669617D01*
X59864731Y-69680077D01*
X59840508Y-69709013D01*
X59823175Y-69751256D01*
X59813673Y-69811310D01*
X59812604Y-69844284D01*
X59662920Y-69844284D01*
X59662920Y-69320648D01*
X59818573Y-69320648D01*
X59818573Y-69608080D01*
G37*
G36*
X58755628Y-70124501D02*
G01*
X58755628Y-69977204D01*
X59147122Y-69977204D01*
X59147122Y-69330614D01*
X59315854Y-69330614D01*
X59315854Y-70124501D01*
X58755628Y-70124501D01*
G37*
G36*
X58511871Y-69521594D02*
G01*
X58545716Y-69526455D01*
X58576562Y-69534199D01*
X58605212Y-69544810D01*
X58631181Y-69557940D01*
X58654930Y-69573655D01*
X58695385Y-69612248D01*
X58726710Y-69660461D01*
X58748458Y-69718582D01*
X58759572Y-69786996D01*
X58760714Y-69819267D01*
X58759054Y-69865553D01*
X58754075Y-69908272D01*
X58746474Y-69944769D01*
X58736010Y-69978175D01*
X58723573Y-70006740D01*
X58708613Y-70032566D01*
X58691911Y-70054743D01*
X58672895Y-70074396D01*
X58628677Y-70105718D01*
X58574668Y-70127447D01*
X58508707Y-70139286D01*
X58466277Y-70141109D01*
X58433127Y-70139458D01*
X58401487Y-70134547D01*
X58372139Y-70126647D01*
X58344504Y-70115743D01*
X58319185Y-70102181D01*
X58295770Y-70085834D01*
X58274624Y-70066997D01*
X58255582Y-70045544D01*
X58238800Y-70021583D01*
X58224357Y-69995121D01*
X58207028Y-69949800D01*
X58369999Y-69949800D01*
X58383811Y-69977282D01*
X58408926Y-69998848D01*
X58444743Y-70012364D01*
X58473439Y-70015248D01*
X58494998Y-70013613D01*
X58514914Y-70008811D01*
X58532861Y-70001118D01*
X58549002Y-69990640D01*
X58575697Y-69961566D01*
X58594183Y-69921563D01*
X58602570Y-69872051D01*
X58199243Y-69872051D01*
X58200898Y-69820703D01*
X58205845Y-69773390D01*
X58206262Y-69771154D01*
X58362110Y-69771154D01*
X58597795Y-69771154D01*
X58594374Y-69746650D01*
X58588047Y-69724521D01*
X58579109Y-69704947D01*
X58567799Y-69687963D01*
X58554410Y-69673717D01*
X58539171Y-69662278D01*
X58504170Y-69648278D01*
X58480549Y-69645864D01*
X58459802Y-69647529D01*
X58439863Y-69652540D01*
X58421911Y-69660524D01*
X58405548Y-69671638D01*
X58391896Y-69685063D01*
X58380389Y-69701332D01*
X58371681Y-69719658D01*
X58365588Y-69740643D01*
X58362110Y-69771154D01*
X58206262Y-69771154D01*
X58213411Y-69732840D01*
X58223797Y-69695816D01*
X58236091Y-69664266D01*
X58250828Y-69635827D01*
X58267093Y-69611664D01*
X58285532Y-69590319D01*
X58305529Y-69572267D01*
X58327547Y-69556884D01*
X58377571Y-69534130D01*
X58437170Y-69521882D01*
X58475826Y-69519951D01*
X58511871Y-69521594D01*
G37*
G36*
X57959578Y-69526438D02*
G01*
X58011447Y-69545561D01*
X58058295Y-69576840D01*
X58098464Y-69619671D01*
X58115499Y-69645187D01*
X58130144Y-69673161D01*
X58142243Y-69703530D01*
X58151576Y-69736099D01*
X58157947Y-69770627D01*
X58161207Y-69807074D01*
X58161614Y-69825703D01*
X58159909Y-69867239D01*
X58154615Y-69907900D01*
X58146517Y-69943373D01*
X58135071Y-69977123D01*
X58121761Y-70005599D01*
X58105442Y-70031950D01*
X58087832Y-70053819D01*
X58067496Y-70073374D01*
X58045911Y-70089337D01*
X58021759Y-70102831D01*
X57995939Y-70113308D01*
X57967567Y-70121093D01*
X57936811Y-70125967D01*
X57903386Y-70127811D01*
X57900497Y-70127822D01*
X57842813Y-70121510D01*
X57816865Y-70113903D01*
X57793692Y-70103669D01*
X57774532Y-70091635D01*
X57758779Y-70077650D01*
X57741523Y-70051319D01*
X57741523Y-70139241D01*
X57743146Y-70159762D01*
X57747865Y-70178719D01*
X57765935Y-70211884D01*
X57794987Y-70238250D01*
X57834473Y-70256279D01*
X57882858Y-70263598D01*
X57887418Y-70263649D01*
X57913152Y-70262004D01*
X57936481Y-70257137D01*
X57956082Y-70249684D01*
X57973161Y-70239535D01*
X57986844Y-70227515D01*
X57997943Y-70213224D01*
X58006127Y-70197169D01*
X58011558Y-70179086D01*
X58014265Y-70151853D01*
X58161614Y-70151853D01*
X58159978Y-70182154D01*
X58155166Y-70210781D01*
X58147352Y-70237590D01*
X58136671Y-70262601D01*
X58107007Y-70307298D01*
X58066606Y-70344504D01*
X58015727Y-70373336D01*
X57954859Y-70392420D01*
X57885054Y-70400119D01*
X57876726Y-70400202D01*
X57840090Y-70398548D01*
X57804880Y-70393612D01*
X57772186Y-70385684D01*
X57741318Y-70374715D01*
X57713470Y-70361278D01*
X57687749Y-70345074D01*
X57665182Y-70326885D01*
X57644969Y-70306192D01*
X57627808Y-70283786D01*
X57613200Y-70259085D01*
X57601524Y-70232674D01*
X57592622Y-70204110D01*
X57586684Y-70173624D01*
X57583798Y-70141062D01*
X57583534Y-70127355D01*
X57583534Y-69844024D01*
X57736748Y-69844024D01*
X57738371Y-69871973D01*
X57743092Y-69897649D01*
X57750609Y-69920710D01*
X57760732Y-69941242D01*
X57773052Y-69958869D01*
X57787484Y-69973754D01*
X57803563Y-69985600D01*
X57821288Y-69994513D01*
X57840275Y-70000320D01*
X57860488Y-70002986D01*
X57867176Y-70003155D01*
X57887479Y-70001515D01*
X57906579Y-69996680D01*
X57940413Y-69978021D01*
X57967865Y-69947692D01*
X57987459Y-69905731D01*
X57997043Y-69852390D01*
X57997605Y-69834578D01*
X57995948Y-69797066D01*
X57990992Y-69764153D01*
X57983793Y-69738606D01*
X57973995Y-69716663D01*
X57962796Y-69699752D01*
X57949456Y-69685796D01*
X57917911Y-69667206D01*
X57877573Y-69659179D01*
X57867176Y-69658891D01*
X57843107Y-69660559D01*
X57821501Y-69665590D01*
X57803963Y-69673134D01*
X57788463Y-69683533D01*
X57764172Y-69712004D01*
X57747030Y-69753400D01*
X57737743Y-69812464D01*
X57736748Y-69844024D01*
X57583534Y-69844024D01*
X57583534Y-69536559D01*
X57741523Y-69536559D01*
X57741523Y-69604914D01*
X57756173Y-69584037D01*
X57772967Y-69566044D01*
X57791139Y-69551487D01*
X57811282Y-69539651D01*
X57857362Y-69524268D01*
X57904078Y-69519951D01*
X57959578Y-69526438D01*
G37*
G36*
X57283671Y-69521594D02*
G01*
X57317517Y-69526455D01*
X57348363Y-69534199D01*
X57377012Y-69544810D01*
X57402981Y-69557940D01*
X57426730Y-69573655D01*
X57467186Y-69612248D01*
X57498511Y-69660461D01*
X57520258Y-69718582D01*
X57531373Y-69786996D01*
X57532515Y-69819267D01*
X57530854Y-69865553D01*
X57525875Y-69908272D01*
X57518274Y-69944769D01*
X57507811Y-69978175D01*
X57495373Y-70006740D01*
X57480413Y-70032566D01*
X57463711Y-70054743D01*
X57444695Y-70074396D01*
X57400478Y-70105718D01*
X57346469Y-70127447D01*
X57280508Y-70139286D01*
X57238077Y-70141109D01*
X57204928Y-70139458D01*
X57173287Y-70134547D01*
X57143939Y-70126647D01*
X57116304Y-70115743D01*
X57090985Y-70102181D01*
X57067571Y-70085834D01*
X57046424Y-70066997D01*
X57027382Y-70045544D01*
X57010601Y-70021583D01*
X56996158Y-69995121D01*
X56978828Y-69949800D01*
X57141799Y-69949800D01*
X57155612Y-69977282D01*
X57180726Y-69998848D01*
X57216543Y-70012364D01*
X57245239Y-70015248D01*
X57266798Y-70013613D01*
X57286715Y-70008811D01*
X57304661Y-70001118D01*
X57320802Y-69990640D01*
X57347498Y-69961566D01*
X57365984Y-69921563D01*
X57374371Y-69872051D01*
X56971043Y-69872051D01*
X56972699Y-69820703D01*
X56977645Y-69773390D01*
X56978062Y-69771154D01*
X57133910Y-69771154D01*
X57369596Y-69771154D01*
X57366174Y-69746650D01*
X57359848Y-69724521D01*
X57350909Y-69704947D01*
X57339599Y-69687963D01*
X57326210Y-69673717D01*
X57310972Y-69662278D01*
X57275970Y-69648278D01*
X57252350Y-69645864D01*
X57231602Y-69647529D01*
X57211663Y-69652540D01*
X57193711Y-69660524D01*
X57177348Y-69671638D01*
X57163696Y-69685063D01*
X57152190Y-69701332D01*
X57143481Y-69719658D01*
X57137388Y-69740643D01*
X57133910Y-69771154D01*
X56978062Y-69771154D01*
X56985212Y-69732840D01*
X56995597Y-69695816D01*
X57007892Y-69664266D01*
X57022628Y-69635827D01*
X57038894Y-69611664D01*
X57057333Y-69590319D01*
X57077330Y-69572267D01*
X57099348Y-69556884D01*
X57149371Y-69534130D01*
X57208970Y-69521882D01*
X57247627Y-69519951D01*
X57283671Y-69521594D01*
G37*
G36*
X56387462Y-70124501D02*
G01*
X56387462Y-69716813D01*
X56389093Y-69686636D01*
X56393871Y-69658863D01*
X56401445Y-69633985D01*
X56411713Y-69611478D01*
X56424415Y-69591496D01*
X56439450Y-69573910D01*
X56476326Y-69545778D01*
X56522128Y-69527430D01*
X56576627Y-69520027D01*
X56583079Y-69519951D01*
X56616580Y-69521588D01*
X56647020Y-69526408D01*
X56673399Y-69533889D01*
X56697100Y-69544044D01*
X56717781Y-69556467D01*
X56736018Y-69571223D01*
X56765687Y-69607732D01*
X56770599Y-69616228D01*
X56770599Y-69536559D01*
X56921477Y-69536559D01*
X56921477Y-70124501D01*
X56763489Y-70124501D01*
X56763489Y-69787919D01*
X56761822Y-69757964D01*
X56756799Y-69731845D01*
X56749578Y-69712035D01*
X56739708Y-69695189D01*
X56728237Y-69682277D01*
X56714474Y-69671885D01*
X56680186Y-69658692D01*
X56644945Y-69655310D01*
X56614898Y-69657116D01*
X56590990Y-69663115D01*
X56577676Y-69670260D01*
X56566966Y-69680174D01*
X56553411Y-69707010D01*
X56546986Y-69751877D01*
X56546644Y-69768923D01*
X56546644Y-70124501D01*
X56387462Y-70124501D01*
G37*
G36*
X55921385Y-69608080D02*
G01*
X55939193Y-69585895D01*
X55958840Y-69566857D01*
X55979418Y-69551570D01*
X56001649Y-69539251D01*
X56050318Y-69523762D01*
X56093439Y-69519951D01*
X56122821Y-69521590D01*
X56150525Y-69526421D01*
X56176287Y-69534235D01*
X56200302Y-69544933D01*
X56243173Y-69574720D01*
X56279105Y-69615717D01*
X56307406Y-69668231D01*
X56326721Y-69732451D01*
X56335259Y-69807962D01*
X56335508Y-69824042D01*
X56333872Y-69865825D01*
X56329060Y-69904984D01*
X56321373Y-69940856D01*
X56310897Y-69974037D01*
X56298038Y-70003911D01*
X56282757Y-70031047D01*
X56265515Y-70054971D01*
X56246188Y-70076115D01*
X56225185Y-70094196D01*
X56202392Y-70109437D01*
X56152157Y-70131063D01*
X56095946Y-70140669D01*
X56080360Y-70141109D01*
X56050900Y-70139449D01*
X56023487Y-70134473D01*
X55999571Y-70126740D01*
X55977620Y-70116064D01*
X55958352Y-70102966D01*
X55941043Y-70087132D01*
X55918894Y-70058274D01*
X55917752Y-70124501D01*
X55765732Y-70124501D01*
X55765732Y-69844284D01*
X55915416Y-69844284D01*
X55917039Y-69872579D01*
X55921751Y-69898873D01*
X55929343Y-69922998D01*
X55939575Y-69944664D01*
X55952028Y-69963413D01*
X55966599Y-69979336D01*
X55982577Y-69991902D01*
X56000139Y-70001398D01*
X56018454Y-70007482D01*
X56037873Y-70010327D01*
X56044651Y-70010525D01*
X56064303Y-70008890D01*
X56082774Y-70004093D01*
X56115912Y-69985449D01*
X56143424Y-69954795D01*
X56163670Y-69911996D01*
X56174184Y-69857621D01*
X56175080Y-69834734D01*
X56173411Y-69795886D01*
X56168370Y-69761783D01*
X56161148Y-69735814D01*
X56151269Y-69713476D01*
X56140080Y-69696476D01*
X56126687Y-69682414D01*
X56095064Y-69663772D01*
X56054390Y-69655671D01*
X56043458Y-69655362D01*
X56020535Y-69657025D01*
X55999847Y-69662025D01*
X55982736Y-69669617D01*
X55967544Y-69680077D01*
X55943320Y-69709013D01*
X55925987Y-69751256D01*
X55916485Y-69811310D01*
X55915416Y-69844284D01*
X55765732Y-69844284D01*
X55765732Y-69320648D01*
X55921385Y-69320648D01*
X55921385Y-69608080D01*
G37*
G36*
X55705163Y-70310879D02*
G01*
X55669778Y-70301664D01*
X55639238Y-70289951D01*
X55616332Y-70277536D01*
X55596741Y-70262951D01*
X55581255Y-70247226D01*
X55568374Y-70229392D01*
X55549707Y-70186502D01*
X55539432Y-70128768D01*
X55537625Y-70083602D01*
X55537625Y-69960543D01*
X55705163Y-69960543D01*
X55705163Y-70124501D01*
X55613609Y-70124501D01*
X55615725Y-70152826D01*
X55621168Y-70177028D01*
X55628651Y-70194938D01*
X55638746Y-70210165D01*
X55665510Y-70232545D01*
X55705163Y-70247974D01*
X55705163Y-70310879D01*
G37*
G36*
X54635886Y-70124501D02*
G01*
X54635886Y-69977204D01*
X55027380Y-69977204D01*
X55027380Y-69330614D01*
X55196112Y-69330614D01*
X55196112Y-70124501D01*
X54635886Y-70124501D01*
G37*
G36*
X54040471Y-70124501D02*
G01*
X54040471Y-69977204D01*
X54431965Y-69977204D01*
X54431965Y-69330614D01*
X54600697Y-69330614D01*
X54600697Y-70124501D01*
X54040471Y-70124501D01*
G37*
G36*
X53519846Y-69849111D02*
G01*
X53528788Y-69880634D01*
X53540404Y-69908778D01*
X53553432Y-69931556D01*
X53568743Y-69951347D01*
X53585246Y-69967176D01*
X53603796Y-69980245D01*
X53646033Y-69997605D01*
X53698232Y-70003777D01*
X53725351Y-70002129D01*
X53750392Y-69997230D01*
X53772460Y-69989545D01*
X53792617Y-69978999D01*
X53826926Y-69949900D01*
X53854397Y-69909041D01*
X53874872Y-69854249D01*
X53887008Y-69782690D01*
X53889385Y-69726986D01*
X53887717Y-69680580D01*
X53882684Y-69637881D01*
X53875126Y-69602335D01*
X53864702Y-69570160D01*
X53852638Y-69543815D01*
X53838127Y-69520506D01*
X53822423Y-69501658D01*
X53804563Y-69485608D01*
X53785393Y-69472925D01*
X53764204Y-69462968D01*
X53715892Y-69451551D01*
X53689928Y-69450195D01*
X53643458Y-69456703D01*
X53600872Y-69475838D01*
X53581750Y-69489894D01*
X53564418Y-69506802D01*
X53549192Y-69526362D01*
X53536233Y-69548544D01*
X53519846Y-69592976D01*
X53351321Y-69592976D01*
X53356218Y-69559547D01*
X53364275Y-69527328D01*
X53375348Y-69496666D01*
X53389396Y-69467575D01*
X53406165Y-69440496D01*
X53425701Y-69415324D01*
X53447647Y-69392506D01*
X53472148Y-69371902D01*
X53498793Y-69353894D01*
X53527792Y-69338386D01*
X53558754Y-69325662D01*
X53591889Y-69315718D01*
X53626895Y-69308754D01*
X53663913Y-69304857D01*
X53691121Y-69304040D01*
X53729791Y-69305689D01*
X53766685Y-69310590D01*
X53801053Y-69318479D01*
X53833585Y-69329358D01*
X53863812Y-69342952D01*
X53892127Y-69359326D01*
X53942564Y-69399948D01*
X53984908Y-69451150D01*
X54018792Y-69513216D01*
X54043412Y-69586597D01*
X54057580Y-69671705D01*
X54060505Y-69736484D01*
X54058867Y-69783242D01*
X54054043Y-69827284D01*
X54046305Y-69868021D01*
X54035734Y-69906087D01*
X54022630Y-69941080D01*
X54007012Y-69973433D01*
X53989126Y-70002954D01*
X53969008Y-70029841D01*
X53946757Y-70054100D01*
X53922516Y-70075690D01*
X53868027Y-70111080D01*
X53805861Y-70135733D01*
X53736362Y-70148984D01*
X53693509Y-70151074D01*
X53656827Y-70149431D01*
X53621848Y-70144575D01*
X53588902Y-70136693D01*
X53557749Y-70125862D01*
X53528478Y-70112207D01*
X53501111Y-70095821D01*
X53451990Y-70054942D01*
X53410743Y-70003404D01*
X53378110Y-69941261D01*
X53355190Y-69868666D01*
X53351166Y-69849111D01*
X53519846Y-69849111D01*
G37*
G36*
X65191115Y-71552501D02*
G01*
X64858634Y-71552501D01*
X64823533Y-71550857D01*
X64789885Y-71545993D01*
X64757923Y-71538059D01*
X64727563Y-71527138D01*
X64671894Y-71496686D01*
X64623258Y-71455079D01*
X64582305Y-71402546D01*
X64550003Y-71339282D01*
X64527590Y-71265632D01*
X64516449Y-71182232D01*
X64515460Y-71147253D01*
X64687774Y-71147253D01*
X64689452Y-71195711D01*
X64694561Y-71239340D01*
X64701986Y-71273758D01*
X64712229Y-71304426D01*
X64723935Y-71328853D01*
X64738045Y-71350230D01*
X64753438Y-71367438D01*
X64771018Y-71381985D01*
X64811964Y-71402764D01*
X64863329Y-71413461D01*
X64891955Y-71414754D01*
X65027158Y-71414754D01*
X65027158Y-70898800D01*
X64906227Y-70898800D01*
X64866595Y-70900487D01*
X64831364Y-70905650D01*
X64804298Y-70913051D01*
X64780325Y-70923276D01*
X64761042Y-70935176D01*
X64744187Y-70949595D01*
X64718051Y-70985210D01*
X64699789Y-71033229D01*
X64689468Y-71099233D01*
X64687774Y-71147253D01*
X64515460Y-71147253D01*
X64517101Y-71104784D01*
X64521944Y-71064420D01*
X64529772Y-71026619D01*
X64540502Y-70991014D01*
X64553889Y-70957955D01*
X64569901Y-70927186D01*
X64588320Y-70898920D01*
X64609114Y-70873048D01*
X64657347Y-70828774D01*
X64714015Y-70794707D01*
X64778646Y-70771435D01*
X64850750Y-70759793D01*
X64883650Y-70758614D01*
X65191115Y-70758614D01*
X65191115Y-71552501D01*
G37*
G36*
X64230182Y-70949594D02*
G01*
X64264027Y-70954455D01*
X64294873Y-70962199D01*
X64323523Y-70972810D01*
X64349492Y-70985940D01*
X64373241Y-71001655D01*
X64413696Y-71040248D01*
X64445021Y-71088461D01*
X64466769Y-71146582D01*
X64477883Y-71214996D01*
X64479025Y-71247267D01*
X64477365Y-71293553D01*
X64472386Y-71336272D01*
X64464785Y-71372769D01*
X64454321Y-71406175D01*
X64441884Y-71434740D01*
X64426924Y-71460566D01*
X64410222Y-71482743D01*
X64391206Y-71502396D01*
X64346988Y-71533718D01*
X64292979Y-71555447D01*
X64227018Y-71567286D01*
X64184588Y-71569109D01*
X64151438Y-71567458D01*
X64119798Y-71562547D01*
X64090450Y-71554647D01*
X64062815Y-71543743D01*
X64037496Y-71530181D01*
X64014081Y-71513834D01*
X63992935Y-71494997D01*
X63973893Y-71473544D01*
X63957111Y-71449583D01*
X63942668Y-71423121D01*
X63925339Y-71377800D01*
X64088310Y-71377800D01*
X64102122Y-71405282D01*
X64127237Y-71426848D01*
X64163054Y-71440364D01*
X64191750Y-71443248D01*
X64213309Y-71441613D01*
X64233225Y-71436811D01*
X64251172Y-71429118D01*
X64267313Y-71418640D01*
X64294008Y-71389566D01*
X64312494Y-71349563D01*
X64320881Y-71300051D01*
X63917554Y-71300051D01*
X63919209Y-71248703D01*
X63924156Y-71201390D01*
X63924573Y-71199154D01*
X64080421Y-71199154D01*
X64316106Y-71199154D01*
X64312685Y-71174650D01*
X64306358Y-71152521D01*
X64297420Y-71132947D01*
X64286110Y-71115963D01*
X64272721Y-71101717D01*
X64257482Y-71090278D01*
X64222481Y-71076278D01*
X64198860Y-71073864D01*
X64178113Y-71075529D01*
X64158174Y-71080540D01*
X64140222Y-71088524D01*
X64123859Y-71099638D01*
X64110207Y-71113063D01*
X64098700Y-71129332D01*
X64089992Y-71147658D01*
X64083899Y-71168643D01*
X64080421Y-71199154D01*
X63924573Y-71199154D01*
X63931722Y-71160840D01*
X63942108Y-71123816D01*
X63954402Y-71092266D01*
X63969139Y-71063827D01*
X63985404Y-71039664D01*
X64003843Y-71018319D01*
X64023840Y-71000267D01*
X64045858Y-70984884D01*
X64095882Y-70962130D01*
X64155481Y-70949882D01*
X64194137Y-70947951D01*
X64230182Y-70949594D01*
G37*
G36*
X63363608Y-71144087D02*
G01*
X63367413Y-71111791D01*
X63374457Y-71082317D01*
X63383741Y-71058017D01*
X63395845Y-71036084D01*
X63409927Y-71017565D01*
X63426646Y-71001190D01*
X63467747Y-70975165D01*
X63521793Y-70957300D01*
X63592823Y-70948510D01*
X63618808Y-70947951D01*
X63662310Y-70949579D01*
X63701137Y-70954332D01*
X63733971Y-70961601D01*
X63762827Y-70971366D01*
X63786919Y-70982933D01*
X63807588Y-70996494D01*
X63824617Y-71011549D01*
X63838595Y-71028226D01*
X63857996Y-71066318D01*
X63866460Y-71111536D01*
X63866794Y-71123378D01*
X63865053Y-71149629D01*
X63859505Y-71174608D01*
X63851348Y-71194917D01*
X63839729Y-71214102D01*
X63825383Y-71231029D01*
X63807457Y-71246815D01*
X63792263Y-71257388D01*
X63736658Y-71284454D01*
X63647074Y-71311909D01*
X63596594Y-71324549D01*
X63563069Y-71333449D01*
X63534667Y-71344728D01*
X63514158Y-71360472D01*
X63507731Y-71370671D01*
X63504316Y-71382769D01*
X63503846Y-71389893D01*
X63505456Y-71402914D01*
X63510082Y-71414143D01*
X63527552Y-71431795D01*
X63558089Y-71444151D01*
X63605729Y-71449216D01*
X63633836Y-71447572D01*
X63658621Y-71442707D01*
X63678214Y-71435512D01*
X63694657Y-71425777D01*
X63706810Y-71414694D01*
X63716039Y-71401603D01*
X63722018Y-71387230D01*
X63725072Y-71371119D01*
X63725466Y-71362333D01*
X63888281Y-71362333D01*
X63886094Y-71388918D01*
X63880656Y-71414171D01*
X63872250Y-71437442D01*
X63860831Y-71459210D01*
X63829435Y-71497495D01*
X63786274Y-71528759D01*
X63730596Y-71552114D01*
X63661514Y-71566034D01*
X63604535Y-71569109D01*
X63562738Y-71567464D01*
X63524471Y-71562595D01*
X63491531Y-71555098D01*
X63461849Y-71544878D01*
X63436771Y-71532757D01*
X63414696Y-71518335D01*
X63396387Y-71502413D01*
X63380907Y-71484502D01*
X63358876Y-71443791D01*
X63348082Y-71395573D01*
X63347051Y-71373492D01*
X63348696Y-71346134D01*
X63353566Y-71321911D01*
X63360948Y-71301902D01*
X63370985Y-71284240D01*
X63398592Y-71255293D01*
X63438999Y-71232019D01*
X63444471Y-71229724D01*
X63514661Y-71207526D01*
X63551550Y-71197784D01*
X63619535Y-71179432D01*
X63672180Y-71161907D01*
X63690477Y-71152472D01*
X63703457Y-71141698D01*
X63709985Y-71131768D01*
X63713206Y-71120246D01*
X63713580Y-71114088D01*
X63711933Y-71101854D01*
X63707047Y-71091590D01*
X63689101Y-71077206D01*
X63655638Y-71068459D01*
X63623583Y-71066701D01*
X63591701Y-71068451D01*
X63566053Y-71074056D01*
X63550696Y-71081050D01*
X63538289Y-71090697D01*
X63522507Y-71115958D01*
X63515576Y-71144087D01*
X63363608Y-71144087D01*
G37*
G36*
X63145050Y-71552501D02*
G01*
X63145050Y-70964559D01*
X63303091Y-70964559D01*
X63303091Y-71552501D01*
X63145050Y-71552501D01*
G37*
G36*
X63145050Y-70895997D02*
G01*
X63145050Y-70748648D01*
X63303091Y-70748648D01*
X63303091Y-70895997D01*
X63145050Y-70895997D01*
G37*
G36*
X62888155Y-70954438D02*
G01*
X62940023Y-70973561D01*
X62986871Y-71004840D01*
X63027040Y-71047671D01*
X63044075Y-71073187D01*
X63058721Y-71101161D01*
X63070819Y-71131530D01*
X63080153Y-71164099D01*
X63086523Y-71198627D01*
X63089783Y-71235074D01*
X63090190Y-71253703D01*
X63088485Y-71295239D01*
X63083191Y-71335900D01*
X63075093Y-71371373D01*
X63063647Y-71405123D01*
X63050337Y-71433599D01*
X63034018Y-71459950D01*
X63016408Y-71481819D01*
X62996072Y-71501374D01*
X62974488Y-71517337D01*
X62950335Y-71530831D01*
X62924515Y-71541308D01*
X62896143Y-71549093D01*
X62865387Y-71553967D01*
X62831962Y-71555811D01*
X62829073Y-71555822D01*
X62771389Y-71549510D01*
X62745441Y-71541903D01*
X62722268Y-71531669D01*
X62703108Y-71519635D01*
X62687356Y-71505650D01*
X62670099Y-71479319D01*
X62670099Y-71567241D01*
X62671722Y-71587762D01*
X62676441Y-71606719D01*
X62694511Y-71639884D01*
X62723563Y-71666250D01*
X62763049Y-71684279D01*
X62811434Y-71691598D01*
X62815994Y-71691649D01*
X62841728Y-71690004D01*
X62865057Y-71685137D01*
X62884658Y-71677684D01*
X62901738Y-71667535D01*
X62915420Y-71655515D01*
X62926519Y-71641224D01*
X62934703Y-71625169D01*
X62940134Y-71607086D01*
X62942842Y-71579853D01*
X63090190Y-71579853D01*
X63088554Y-71610154D01*
X63083742Y-71638781D01*
X63075928Y-71665590D01*
X63065247Y-71690601D01*
X63035584Y-71735298D01*
X62995182Y-71772504D01*
X62944304Y-71801336D01*
X62883435Y-71820420D01*
X62813631Y-71828119D01*
X62805302Y-71828202D01*
X62768666Y-71826548D01*
X62733457Y-71821612D01*
X62700763Y-71813684D01*
X62669894Y-71802715D01*
X62642046Y-71789278D01*
X62616325Y-71773074D01*
X62593759Y-71754885D01*
X62573545Y-71734192D01*
X62556384Y-71711786D01*
X62541776Y-71687085D01*
X62530100Y-71660674D01*
X62521198Y-71632110D01*
X62515260Y-71601624D01*
X62512374Y-71569062D01*
X62512110Y-71555355D01*
X62512110Y-71272024D01*
X62665324Y-71272024D01*
X62666947Y-71299973D01*
X62671668Y-71325649D01*
X62679185Y-71348710D01*
X62689308Y-71369242D01*
X62701628Y-71386869D01*
X62716060Y-71401754D01*
X62732139Y-71413600D01*
X62749865Y-71422513D01*
X62768852Y-71428320D01*
X62789064Y-71430986D01*
X62795752Y-71431155D01*
X62816055Y-71429515D01*
X62835155Y-71424680D01*
X62868989Y-71406021D01*
X62896441Y-71375692D01*
X62916036Y-71333731D01*
X62925619Y-71280390D01*
X62926181Y-71262578D01*
X62924524Y-71225066D01*
X62919568Y-71192153D01*
X62912369Y-71166606D01*
X62902571Y-71144663D01*
X62891372Y-71127752D01*
X62878032Y-71113796D01*
X62846487Y-71095206D01*
X62806149Y-71087179D01*
X62795752Y-71086891D01*
X62771683Y-71088559D01*
X62750077Y-71093590D01*
X62732539Y-71101134D01*
X62717039Y-71111533D01*
X62692748Y-71140004D01*
X62675606Y-71181400D01*
X62666319Y-71240464D01*
X62665324Y-71272024D01*
X62512110Y-71272024D01*
X62512110Y-70964559D01*
X62670099Y-70964559D01*
X62670099Y-71032914D01*
X62684749Y-71012037D01*
X62701544Y-70994044D01*
X62719715Y-70979487D01*
X62739858Y-70967651D01*
X62785938Y-70952268D01*
X62832655Y-70947951D01*
X62888155Y-70954438D01*
G37*
G36*
X61913944Y-71552501D02*
G01*
X61913944Y-71144813D01*
X61915576Y-71114636D01*
X61920354Y-71086863D01*
X61927928Y-71061985D01*
X61938195Y-71039478D01*
X61950898Y-71019496D01*
X61965932Y-71001910D01*
X62002808Y-70973778D01*
X62048611Y-70955430D01*
X62103109Y-70948027D01*
X62109561Y-70947951D01*
X62143063Y-70949588D01*
X62173503Y-70954408D01*
X62199882Y-70961889D01*
X62223582Y-70972044D01*
X62244264Y-70984467D01*
X62262501Y-70999223D01*
X62292170Y-71035732D01*
X62297082Y-71044228D01*
X62297082Y-70964559D01*
X62447960Y-70964559D01*
X62447960Y-71552501D01*
X62289971Y-71552501D01*
X62289971Y-71215919D01*
X62288305Y-71185964D01*
X62283282Y-71159845D01*
X62276060Y-71140035D01*
X62266191Y-71123189D01*
X62254719Y-71110277D01*
X62240956Y-71099885D01*
X62206669Y-71086692D01*
X62171428Y-71083310D01*
X62141380Y-71085116D01*
X62117473Y-71091115D01*
X62104159Y-71098260D01*
X62093448Y-71108174D01*
X62079894Y-71135010D01*
X62073469Y-71179877D01*
X62073126Y-71196923D01*
X62073126Y-71552501D01*
X61913944Y-71552501D01*
G37*
G36*
X61614341Y-70949594D02*
G01*
X61648186Y-70954455D01*
X61679032Y-70962199D01*
X61707682Y-70972810D01*
X61733651Y-70985940D01*
X61757400Y-71001655D01*
X61797855Y-71040248D01*
X61829180Y-71088461D01*
X61850928Y-71146582D01*
X61862042Y-71214996D01*
X61863184Y-71247267D01*
X61861524Y-71293553D01*
X61856545Y-71336272D01*
X61848944Y-71372769D01*
X61838480Y-71406175D01*
X61826043Y-71434740D01*
X61811083Y-71460566D01*
X61794381Y-71482743D01*
X61775365Y-71502396D01*
X61731147Y-71533718D01*
X61677138Y-71555447D01*
X61611177Y-71567286D01*
X61568747Y-71569109D01*
X61535597Y-71567458D01*
X61503957Y-71562547D01*
X61474609Y-71554647D01*
X61446974Y-71543743D01*
X61421655Y-71530181D01*
X61398240Y-71513834D01*
X61377094Y-71494997D01*
X61358052Y-71473544D01*
X61341270Y-71449583D01*
X61326827Y-71423121D01*
X61309498Y-71377800D01*
X61472469Y-71377800D01*
X61486281Y-71405282D01*
X61511396Y-71426848D01*
X61547213Y-71440364D01*
X61575909Y-71443248D01*
X61597468Y-71441613D01*
X61617384Y-71436811D01*
X61635331Y-71429118D01*
X61651472Y-71418640D01*
X61678167Y-71389566D01*
X61696653Y-71349563D01*
X61705040Y-71300051D01*
X61301713Y-71300051D01*
X61303369Y-71248703D01*
X61308315Y-71201390D01*
X61308732Y-71199154D01*
X61464580Y-71199154D01*
X61700265Y-71199154D01*
X61696844Y-71174650D01*
X61690517Y-71152521D01*
X61681579Y-71132947D01*
X61670269Y-71115963D01*
X61656880Y-71101717D01*
X61641641Y-71090278D01*
X61606640Y-71076278D01*
X61583020Y-71073864D01*
X61562272Y-71075529D01*
X61542333Y-71080540D01*
X61524381Y-71088524D01*
X61508018Y-71099638D01*
X61494366Y-71113063D01*
X61482859Y-71129332D01*
X61474151Y-71147658D01*
X61468058Y-71168643D01*
X61464580Y-71199154D01*
X61308732Y-71199154D01*
X61315881Y-71160840D01*
X61326267Y-71123816D01*
X61338561Y-71092266D01*
X61353298Y-71063827D01*
X61369564Y-71039664D01*
X61388002Y-71018319D01*
X61407999Y-71000267D01*
X61430017Y-70984884D01*
X61480041Y-70962130D01*
X61539640Y-70949882D01*
X61578297Y-70947951D01*
X61614341Y-70949594D01*
G37*
G36*
X60849961Y-71036080D02*
G01*
X60867769Y-71013895D01*
X60887417Y-70994857D01*
X60907994Y-70979570D01*
X60930226Y-70967251D01*
X60978894Y-70951762D01*
X61022015Y-70947951D01*
X61051398Y-70949590D01*
X61079101Y-70954421D01*
X61104863Y-70962235D01*
X61128878Y-70972933D01*
X61171749Y-71002720D01*
X61207681Y-71043717D01*
X61235982Y-71096231D01*
X61255297Y-71160451D01*
X61263835Y-71235962D01*
X61264084Y-71252042D01*
X61262448Y-71293825D01*
X61257636Y-71332984D01*
X61249950Y-71368856D01*
X61239473Y-71402037D01*
X61226614Y-71431911D01*
X61211333Y-71459047D01*
X61194091Y-71482971D01*
X61174764Y-71504115D01*
X61153761Y-71522196D01*
X61130968Y-71537437D01*
X61080733Y-71559063D01*
X61024523Y-71568669D01*
X61008936Y-71569109D01*
X60979476Y-71567449D01*
X60952063Y-71562473D01*
X60928147Y-71554740D01*
X60906196Y-71544064D01*
X60886929Y-71530966D01*
X60869619Y-71515132D01*
X60847470Y-71486274D01*
X60846328Y-71552501D01*
X60694308Y-71552501D01*
X60694308Y-71272284D01*
X60843993Y-71272284D01*
X60845615Y-71300579D01*
X60850327Y-71326873D01*
X60857920Y-71350998D01*
X60868151Y-71372664D01*
X60880604Y-71391413D01*
X60895175Y-71407336D01*
X60911153Y-71419902D01*
X60928715Y-71429398D01*
X60947030Y-71435482D01*
X60966449Y-71438327D01*
X60973228Y-71438525D01*
X60992879Y-71436890D01*
X61011350Y-71432093D01*
X61044488Y-71413449D01*
X61072000Y-71382795D01*
X61092246Y-71339996D01*
X61102760Y-71285621D01*
X61103656Y-71262734D01*
X61101987Y-71223886D01*
X61096946Y-71189783D01*
X61089724Y-71163814D01*
X61079845Y-71141476D01*
X61068656Y-71124476D01*
X61055263Y-71110414D01*
X61023640Y-71091772D01*
X60982966Y-71083671D01*
X60972034Y-71083362D01*
X60949111Y-71085025D01*
X60928424Y-71090025D01*
X60911312Y-71097617D01*
X60896120Y-71108077D01*
X60871896Y-71137013D01*
X60854563Y-71179256D01*
X60845061Y-71239310D01*
X60843993Y-71272284D01*
X60694308Y-71272284D01*
X60694308Y-70748648D01*
X60849961Y-70748648D01*
X60849961Y-71036080D01*
G37*
G36*
X60347242Y-71552501D02*
G01*
X59989796Y-71552501D01*
X59945355Y-71550858D01*
X59904564Y-71546007D01*
X59869024Y-71538487D01*
X59836785Y-71528244D01*
X59808987Y-71515968D01*
X59784199Y-71501369D01*
X59763028Y-71485076D01*
X59744668Y-71466759D01*
X59716576Y-71424828D01*
X59699223Y-71375092D01*
X59693023Y-71315414D01*
X59693611Y-71303529D01*
X59856980Y-71303529D01*
X59858622Y-71324188D01*
X59863477Y-71343399D01*
X59871197Y-71360478D01*
X59881764Y-71375674D01*
X59894756Y-71388480D01*
X59910280Y-71399015D01*
X59928095Y-71406995D01*
X59948217Y-71412281D01*
X59976717Y-71414754D01*
X60184479Y-71414754D01*
X60184479Y-71205331D01*
X59974329Y-71205331D01*
X59946186Y-71207011D01*
X59921483Y-71212128D01*
X59903091Y-71219400D01*
X59887572Y-71229396D01*
X59876143Y-71240826D01*
X59867279Y-71254592D01*
X59857750Y-71288549D01*
X59856980Y-71303529D01*
X59693611Y-71303529D01*
X59694637Y-71282766D01*
X59699291Y-71253573D01*
X59706603Y-71227949D01*
X59716337Y-71205355D01*
X59742447Y-71168085D01*
X59777164Y-71139936D01*
X59810320Y-71123897D01*
X59775038Y-71102320D01*
X59744667Y-71068266D01*
X59732990Y-71047648D01*
X59724182Y-71025057D01*
X59718808Y-71001850D01*
X59717274Y-70983192D01*
X59879609Y-70983192D01*
X59881265Y-71003255D01*
X59886218Y-71020661D01*
X59893529Y-71034108D01*
X59903505Y-71045323D01*
X59930776Y-71060756D01*
X59970989Y-71067420D01*
X59977859Y-71067532D01*
X60184479Y-71067532D01*
X60184479Y-70898800D01*
X59987409Y-70898800D01*
X59955718Y-70900500D01*
X59929977Y-70905760D01*
X59913624Y-70912603D01*
X59900657Y-70921941D01*
X59885393Y-70945351D01*
X59879647Y-70979612D01*
X59879609Y-70983192D01*
X59717274Y-70983192D01*
X59716799Y-70977410D01*
X59716794Y-70976029D01*
X59718447Y-70944643D01*
X59723381Y-70915295D01*
X59731118Y-70889265D01*
X59741773Y-70865297D01*
X59754808Y-70844187D01*
X59770501Y-70825184D01*
X59788548Y-70808593D01*
X59809115Y-70794224D01*
X59858164Y-70772340D01*
X59918838Y-70760376D01*
X59956475Y-70758614D01*
X60347242Y-70758614D01*
X60347242Y-71552501D01*
G37*
G36*
X59288605Y-71569213D02*
G01*
X59290214Y-71592000D01*
X59294830Y-71612784D01*
X59302304Y-71631769D01*
X59312242Y-71648399D01*
X59338807Y-71674474D01*
X59354736Y-71683332D01*
X59371852Y-71689077D01*
X59394017Y-71691649D01*
X59420294Y-71690009D01*
X59443293Y-71685173D01*
X59461672Y-71677958D01*
X59477263Y-71668213D01*
X59489588Y-71656601D01*
X59499373Y-71642849D01*
X59511465Y-71608675D01*
X59513754Y-71581617D01*
X59661051Y-71581617D01*
X59659392Y-71616649D01*
X59654422Y-71649422D01*
X59646688Y-71678220D01*
X59636014Y-71704800D01*
X59623086Y-71728019D01*
X59607492Y-71749043D01*
X59589750Y-71767326D01*
X59569495Y-71783368D01*
X59521570Y-71808377D01*
X59462423Y-71823722D01*
X59401180Y-71828202D01*
X59367671Y-71826554D01*
X59335432Y-71821663D01*
X59305050Y-71813722D01*
X59276356Y-71802766D01*
X59250105Y-71789187D01*
X59225896Y-71772861D01*
X59204458Y-71754365D01*
X59185355Y-71733391D01*
X59169140Y-71710580D01*
X59155518Y-71685529D01*
X59144828Y-71658775D01*
X59136991Y-71629974D01*
X59132205Y-71599429D01*
X59130565Y-71566982D01*
X59130565Y-71566877D01*
X59130565Y-70964559D01*
X59288605Y-70964559D01*
X59288605Y-71323095D01*
X59290234Y-71342598D01*
X59294989Y-71360715D01*
X59313175Y-71392023D01*
X59341848Y-71415307D01*
X59359737Y-71423342D01*
X59379653Y-71428592D01*
X59405955Y-71430895D01*
X59428596Y-71429233D01*
X59448238Y-71424246D01*
X59463252Y-71416972D01*
X59475870Y-71407035D01*
X59493419Y-71380378D01*
X59502276Y-71341653D01*
X59503063Y-71323095D01*
X59503063Y-70964559D01*
X59661051Y-70964559D01*
X59661051Y-71345725D01*
X59659419Y-71374869D01*
X59654637Y-71402291D01*
X59646876Y-71427885D01*
X59636308Y-71451537D01*
X59607258Y-71492782D01*
X59568521Y-71525133D01*
X59521153Y-71547423D01*
X59466436Y-71558292D01*
X59445192Y-71559144D01*
X59389419Y-71552830D01*
X59363639Y-71545126D01*
X59340439Y-71534739D01*
X59321191Y-71522530D01*
X59305352Y-71508335D01*
X59288605Y-71482641D01*
X59288605Y-71569213D01*
G37*
G36*
X58011411Y-71552501D02*
G01*
X58011411Y-70758614D01*
X58252338Y-70758614D01*
X58393874Y-71333164D01*
X58535357Y-70758614D01*
X58781060Y-70758614D01*
X58781060Y-71552501D01*
X58624213Y-71552501D01*
X58625874Y-71011530D01*
X58480757Y-71552501D01*
X58314049Y-71552501D01*
X58167738Y-71009143D01*
X58169399Y-71552501D01*
X58011411Y-71552501D01*
G37*
G36*
X57789635Y-71552501D02*
G01*
X57789635Y-70964559D01*
X57947675Y-70964559D01*
X57947675Y-71552501D01*
X57789635Y-71552501D01*
G37*
G36*
X57789635Y-70895997D02*
G01*
X57789635Y-70748648D01*
X57947675Y-70748648D01*
X57947675Y-70895997D01*
X57789635Y-70895997D01*
G37*
G36*
X57390875Y-71318684D02*
G01*
X57392551Y-71347328D01*
X57397641Y-71372041D01*
X57404780Y-71389957D01*
X57414544Y-71404787D01*
X57425628Y-71415418D01*
X57438928Y-71423404D01*
X57471847Y-71431132D01*
X57479627Y-71431362D01*
X57499665Y-71429717D01*
X57516884Y-71424841D01*
X57530315Y-71417589D01*
X57541531Y-71407756D01*
X57557734Y-71380375D01*
X57566329Y-71338969D01*
X57567237Y-71316296D01*
X57567237Y-71077393D01*
X57243526Y-71077393D01*
X57243526Y-70964559D01*
X57567237Y-70964559D01*
X57567237Y-70805117D01*
X57722838Y-70805117D01*
X57722838Y-71331763D01*
X57721151Y-71365459D01*
X57715990Y-71397966D01*
X57707995Y-71426606D01*
X57696777Y-71453552D01*
X57683446Y-71476659D01*
X57667166Y-71497786D01*
X57649095Y-71515605D01*
X57628257Y-71531235D01*
X57605444Y-71544047D01*
X57579907Y-71554430D01*
X57551825Y-71562139D01*
X57520926Y-71567083D01*
X57482014Y-71569109D01*
X57448306Y-71567483D01*
X57417346Y-71562743D01*
X57389403Y-71555201D01*
X57364057Y-71545021D01*
X57341183Y-71532352D01*
X57320835Y-71517430D01*
X57286847Y-71480673D01*
X57262033Y-71434929D01*
X57247214Y-71380457D01*
X57243526Y-71332957D01*
X57243526Y-71164588D01*
X57390875Y-71164588D01*
X57390875Y-71318684D01*
G37*
G36*
X56812484Y-71338510D02*
G01*
X56816049Y-71359008D01*
X56822500Y-71377171D01*
X56831484Y-71392800D01*
X56842832Y-71406081D01*
X56872336Y-71425736D01*
X56910652Y-71435400D01*
X56925214Y-71436085D01*
X56942084Y-71434420D01*
X56958326Y-71429407D01*
X56973440Y-71421200D01*
X56987498Y-71409714D01*
X57011762Y-71376415D01*
X57029323Y-71327983D01*
X57034812Y-71297365D01*
X57037535Y-71262839D01*
X57037788Y-71247786D01*
X57036171Y-71211325D01*
X57031492Y-71180018D01*
X57024525Y-71154997D01*
X57015294Y-71134038D01*
X57004525Y-71117538D01*
X56992068Y-71104328D01*
X56962740Y-71086877D01*
X56926330Y-71079948D01*
X56920439Y-71079833D01*
X56899377Y-71081477D01*
X56879947Y-71086342D01*
X56862957Y-71094003D01*
X56847928Y-71104483D01*
X56835362Y-71117339D01*
X56825069Y-71132709D01*
X56817265Y-71150465D01*
X56812123Y-71170555D01*
X56811238Y-71176214D01*
X56652108Y-71176214D01*
X56655877Y-71145469D01*
X56662734Y-71116599D01*
X56672417Y-71090027D01*
X56684881Y-71065453D01*
X56699930Y-71043070D01*
X56717509Y-71022834D01*
X56760048Y-70988986D01*
X56812262Y-70964557D01*
X56873975Y-70950656D01*
X56919245Y-70947951D01*
X56956494Y-70949623D01*
X56991638Y-70954689D01*
X57022303Y-70962508D01*
X57050886Y-70973382D01*
X57075790Y-70986468D01*
X57098631Y-71002362D01*
X57118570Y-71020358D01*
X57136405Y-71041043D01*
X57151872Y-71064165D01*
X57165102Y-71089995D01*
X57184670Y-71150744D01*
X57194066Y-71225441D01*
X57194635Y-71251108D01*
X57192996Y-71294383D01*
X57188164Y-71334516D01*
X57180557Y-71370411D01*
X57170191Y-71403344D01*
X57157572Y-71432533D01*
X57142562Y-71458910D01*
X57125605Y-71482066D01*
X57106551Y-71502504D01*
X57062745Y-71535104D01*
X57011106Y-71557083D01*
X56951236Y-71568042D01*
X56924020Y-71569109D01*
X56891573Y-71567470D01*
X56860404Y-71562638D01*
X56830578Y-71554708D01*
X56802401Y-71543822D01*
X56776069Y-71530123D01*
X56751742Y-71513734D01*
X56729722Y-71494901D01*
X56710039Y-71473667D01*
X56693024Y-71450397D01*
X56678649Y-71425022D01*
X56667197Y-71397982D01*
X56658660Y-71369127D01*
X56653198Y-71338510D01*
X56812484Y-71338510D01*
G37*
G36*
X56077713Y-71552501D02*
G01*
X56077713Y-71136509D01*
X56079348Y-71108887D01*
X56084152Y-71083169D01*
X56091847Y-71059744D01*
X56102329Y-71038324D01*
X56131033Y-71001841D01*
X56169710Y-70973946D01*
X56218151Y-70955509D01*
X56275982Y-70948027D01*
X56282828Y-70947951D01*
X56337007Y-70954147D01*
X56388324Y-70972411D01*
X56410437Y-70985286D01*
X56429103Y-71000013D01*
X56442956Y-71015119D01*
X56452792Y-71031123D01*
X56453740Y-71033225D01*
X56453740Y-70748648D01*
X56611728Y-70748648D01*
X56611728Y-71552501D01*
X56453740Y-71552501D01*
X56453740Y-71215088D01*
X56452090Y-71188892D01*
X56447190Y-71164308D01*
X56439499Y-71142650D01*
X56428945Y-71123263D01*
X56416544Y-71107535D01*
X56401745Y-71094442D01*
X56385708Y-71084825D01*
X56367642Y-71078070D01*
X56335196Y-71073864D01*
X56307529Y-71075629D01*
X56284772Y-71081340D01*
X56270849Y-71088552D01*
X56259449Y-71098573D01*
X56244659Y-71125517D01*
X56237399Y-71168785D01*
X56236895Y-71187684D01*
X56236895Y-71552501D01*
X56077713Y-71552501D01*
G37*
G36*
X55199797Y-71277111D02*
G01*
X55208739Y-71308634D01*
X55220355Y-71336778D01*
X55233383Y-71359556D01*
X55248694Y-71379347D01*
X55265197Y-71395176D01*
X55283747Y-71408245D01*
X55325984Y-71425605D01*
X55378183Y-71431777D01*
X55405302Y-71430129D01*
X55430343Y-71425230D01*
X55452411Y-71417545D01*
X55472568Y-71406999D01*
X55506877Y-71377900D01*
X55534348Y-71337041D01*
X55554823Y-71282249D01*
X55566959Y-71210690D01*
X55569336Y-71154986D01*
X55567668Y-71108580D01*
X55562635Y-71065881D01*
X55555077Y-71030335D01*
X55544653Y-70998160D01*
X55532589Y-70971815D01*
X55518078Y-70948506D01*
X55502374Y-70929658D01*
X55484514Y-70913608D01*
X55465344Y-70900925D01*
X55444155Y-70890968D01*
X55395842Y-70879551D01*
X55369878Y-70878195D01*
X55323409Y-70884703D01*
X55280823Y-70903838D01*
X55261700Y-70917894D01*
X55244369Y-70934802D01*
X55229143Y-70954362D01*
X55216184Y-70976544D01*
X55199797Y-71020976D01*
X55031272Y-71020976D01*
X55036169Y-70987547D01*
X55044226Y-70955328D01*
X55055299Y-70924666D01*
X55069347Y-70895575D01*
X55086116Y-70868496D01*
X55105652Y-70843324D01*
X55127597Y-70820506D01*
X55152099Y-70799902D01*
X55178743Y-70781894D01*
X55207743Y-70766386D01*
X55238705Y-70753662D01*
X55271840Y-70743718D01*
X55306846Y-70736754D01*
X55343864Y-70732857D01*
X55371072Y-70732040D01*
X55409742Y-70733689D01*
X55446636Y-70738590D01*
X55481004Y-70746479D01*
X55513536Y-70757358D01*
X55543762Y-70770952D01*
X55572078Y-70787326D01*
X55622515Y-70827948D01*
X55664859Y-70879150D01*
X55698743Y-70941216D01*
X55723363Y-71014597D01*
X55737531Y-71099705D01*
X55740456Y-71164484D01*
X55738818Y-71211242D01*
X55733994Y-71255284D01*
X55726256Y-71296021D01*
X55715685Y-71334087D01*
X55702581Y-71369080D01*
X55686963Y-71401433D01*
X55669077Y-71430954D01*
X55648959Y-71457841D01*
X55626708Y-71482100D01*
X55602467Y-71503690D01*
X55547978Y-71539080D01*
X55485812Y-71563733D01*
X55416313Y-71576984D01*
X55373460Y-71579074D01*
X55336777Y-71577431D01*
X55301799Y-71572575D01*
X55268853Y-71564693D01*
X55237700Y-71553862D01*
X55208429Y-71540207D01*
X55181062Y-71523821D01*
X55131941Y-71482942D01*
X55090694Y-71431404D01*
X55058061Y-71369261D01*
X55035141Y-71296666D01*
X55031117Y-71277111D01*
X55199797Y-71277111D01*
G37*
G36*
X54779197Y-70949587D02*
G01*
X54817905Y-70954396D01*
X54850445Y-70961715D01*
X54879247Y-70971605D01*
X54903436Y-70983355D01*
X54924471Y-70997235D01*
X54942189Y-71012837D01*
X54957110Y-71030286D01*
X54979409Y-71071219D01*
X54992066Y-71121784D01*
X54994734Y-71157166D01*
X54847541Y-71157166D01*
X54842618Y-71133862D01*
X54834252Y-71113695D01*
X54824668Y-71099926D01*
X54812283Y-71088573D01*
X54798121Y-71080369D01*
X54781153Y-71074508D01*
X54743115Y-71070283D01*
X54716262Y-71071917D01*
X54693265Y-71076711D01*
X54676084Y-71083618D01*
X54662544Y-71092849D01*
X54653772Y-71102884D01*
X54648214Y-71114570D01*
X54646007Y-71129554D01*
X54647830Y-71147284D01*
X54653953Y-71161501D01*
X54673076Y-71177335D01*
X54711603Y-71189476D01*
X54743322Y-71194795D01*
X54830225Y-71208450D01*
X54868990Y-71217307D01*
X54904071Y-71228700D01*
X54935046Y-71243514D01*
X54961495Y-71262637D01*
X54982998Y-71286955D01*
X54999133Y-71317354D01*
X55011356Y-71367138D01*
X55013678Y-71406657D01*
X55012010Y-71432890D01*
X55006979Y-71457375D01*
X54999201Y-71478512D01*
X54988416Y-71497814D01*
X54975256Y-71514421D01*
X54959283Y-71529082D01*
X54919238Y-71551863D01*
X54866601Y-71565667D01*
X54816867Y-71569109D01*
X54754051Y-71562861D01*
X54725393Y-71555266D01*
X54699441Y-71545116D01*
X54676183Y-71532590D01*
X54656128Y-71518113D01*
X54640972Y-71503661D01*
X54631267Y-71552501D01*
X54484385Y-71552501D01*
X54484385Y-71267976D01*
X54642477Y-71267976D01*
X54643619Y-71328182D01*
X54650667Y-71366839D01*
X54670069Y-71401847D01*
X54684136Y-71417058D01*
X54700695Y-71430067D01*
X54719462Y-71440547D01*
X54740227Y-71448222D01*
X54782352Y-71453991D01*
X54804217Y-71452321D01*
X54822296Y-71447271D01*
X54834580Y-71440327D01*
X54844091Y-71430894D01*
X54854346Y-71406307D01*
X54855689Y-71390152D01*
X54853937Y-71370701D01*
X54848315Y-71353959D01*
X54840518Y-71342146D01*
X54829510Y-71331768D01*
X54795535Y-71314263D01*
X54740416Y-71300051D01*
X54683100Y-71287316D01*
X54650188Y-71274051D01*
X54642477Y-71267976D01*
X54484385Y-71267976D01*
X54484385Y-71180522D01*
X54486090Y-71141167D01*
X54491382Y-71105164D01*
X54499019Y-71076913D01*
X54509683Y-71051283D01*
X54522074Y-71030416D01*
X54537205Y-71011789D01*
X54554302Y-70996154D01*
X54574113Y-70982638D01*
X54622569Y-70962045D01*
X54686377Y-70950186D01*
X54735952Y-70947951D01*
X54779197Y-70949587D01*
G37*
G36*
X54258665Y-71552501D02*
G01*
X54258665Y-70964559D01*
X54416705Y-70964559D01*
X54416705Y-71552501D01*
X54258665Y-71552501D01*
G37*
G36*
X54258665Y-70895997D02*
G01*
X54258665Y-70748648D01*
X54416705Y-70748648D01*
X54416705Y-70895997D01*
X54258665Y-70895997D01*
G37*
G36*
X54033879Y-71552501D02*
G01*
X54033879Y-71246022D01*
X54032214Y-71216818D01*
X54027197Y-71191027D01*
X54019867Y-71170890D01*
X54009825Y-71153471D01*
X53997967Y-71139644D01*
X53983704Y-71128192D01*
X53947866Y-71112400D01*
X53898960Y-71106036D01*
X53893901Y-71105991D01*
X53849421Y-71109884D01*
X53849421Y-70947951D01*
X53871323Y-70947951D01*
X53922798Y-70950872D01*
X53947698Y-70955942D01*
X53971851Y-70964680D01*
X53991760Y-70975744D01*
X54010931Y-70990752D01*
X54043377Y-71029696D01*
X54043377Y-70964559D01*
X54191868Y-70964559D01*
X54191868Y-71552501D01*
X54033879Y-71552501D01*
G37*
G36*
X53275856Y-71552501D02*
G01*
X53275856Y-71144813D01*
X53277488Y-71114636D01*
X53282266Y-71086863D01*
X53289840Y-71061985D01*
X53300107Y-71039478D01*
X53312810Y-71019496D01*
X53327844Y-71001910D01*
X53364721Y-70973778D01*
X53410523Y-70955430D01*
X53465021Y-70948027D01*
X53471473Y-70947951D01*
X53504975Y-70949588D01*
X53535415Y-70954408D01*
X53561794Y-70961889D01*
X53585494Y-70972044D01*
X53606176Y-70984467D01*
X53624413Y-70999223D01*
X53654082Y-71035732D01*
X53658994Y-71044228D01*
X53658994Y-70964559D01*
X53809872Y-70964559D01*
X53809872Y-71552501D01*
X53651883Y-71552501D01*
X53651883Y-71215919D01*
X53650217Y-71185964D01*
X53645194Y-71159845D01*
X53637973Y-71140035D01*
X53628103Y-71123189D01*
X53616632Y-71110277D01*
X53602868Y-71099885D01*
X53568581Y-71086692D01*
X53533340Y-71083310D01*
X53503293Y-71085116D01*
X53479385Y-71091115D01*
X53466071Y-71098260D01*
X53455360Y-71108174D01*
X53441806Y-71135010D01*
X53435381Y-71179877D01*
X53435039Y-71196923D01*
X53435039Y-71552501D01*
X53275856Y-71552501D01*
G37*
G36*
X52707586Y-71144087D02*
G01*
X52711390Y-71111791D01*
X52718435Y-71082317D01*
X52727719Y-71058017D01*
X52739823Y-71036084D01*
X52753905Y-71017565D01*
X52770624Y-71001190D01*
X52811725Y-70975165D01*
X52865771Y-70957300D01*
X52936801Y-70948510D01*
X52962786Y-70947951D01*
X53006287Y-70949579D01*
X53045115Y-70954332D01*
X53077948Y-70961601D01*
X53106804Y-70971366D01*
X53130896Y-70982933D01*
X53151566Y-70996494D01*
X53168594Y-71011549D01*
X53182573Y-71028226D01*
X53201974Y-71066318D01*
X53210437Y-71111536D01*
X53210772Y-71123378D01*
X53209030Y-71149629D01*
X53203483Y-71174608D01*
X53195326Y-71194917D01*
X53183707Y-71214102D01*
X53169360Y-71231029D01*
X53151434Y-71246815D01*
X53136241Y-71257388D01*
X53080636Y-71284454D01*
X52991052Y-71311909D01*
X52940572Y-71324549D01*
X52907047Y-71333449D01*
X52878644Y-71344728D01*
X52858136Y-71360472D01*
X52851708Y-71370671D01*
X52848294Y-71382769D01*
X52847824Y-71389893D01*
X52849434Y-71402914D01*
X52854059Y-71414143D01*
X52871530Y-71431795D01*
X52902067Y-71444151D01*
X52949707Y-71449216D01*
X52977814Y-71447572D01*
X53002598Y-71442707D01*
X53022191Y-71435512D01*
X53038635Y-71425777D01*
X53050787Y-71414694D01*
X53060017Y-71401603D01*
X53065996Y-71387230D01*
X53069050Y-71371119D01*
X53069444Y-71362333D01*
X53232259Y-71362333D01*
X53230071Y-71388918D01*
X53224634Y-71414171D01*
X53216227Y-71437442D01*
X53204809Y-71459210D01*
X53173413Y-71497495D01*
X53130252Y-71528759D01*
X53074574Y-71552114D01*
X53005491Y-71566034D01*
X52948513Y-71569109D01*
X52906716Y-71567464D01*
X52868448Y-71562595D01*
X52835509Y-71555098D01*
X52805827Y-71544878D01*
X52780748Y-71532757D01*
X52758673Y-71518335D01*
X52740364Y-71502413D01*
X52724885Y-71484502D01*
X52702854Y-71443791D01*
X52692060Y-71395573D01*
X52691029Y-71373492D01*
X52692674Y-71346134D01*
X52697544Y-71321911D01*
X52704926Y-71301902D01*
X52714963Y-71284240D01*
X52742569Y-71255293D01*
X52782977Y-71232019D01*
X52788448Y-71229724D01*
X52858639Y-71207526D01*
X52895528Y-71197784D01*
X52963512Y-71179432D01*
X53016158Y-71161907D01*
X53034454Y-71152472D01*
X53047435Y-71141698D01*
X53053963Y-71131768D01*
X53057183Y-71120246D01*
X53057558Y-71114088D01*
X53055911Y-71101854D01*
X53051025Y-71091590D01*
X53033079Y-71077206D01*
X52999616Y-71068459D01*
X52967561Y-71066701D01*
X52935679Y-71068451D01*
X52910031Y-71074056D01*
X52894674Y-71081050D01*
X52882267Y-71090697D01*
X52866484Y-71115958D01*
X52859554Y-71144087D01*
X52707586Y-71144087D01*
G37*
G36*
X60776583Y-72161676D02*
G01*
X60806131Y-72166485D01*
X60834174Y-72174351D01*
X60860503Y-72185113D01*
X60908013Y-72215048D01*
X60947768Y-72255559D01*
X60978574Y-72305864D01*
X60999013Y-72364916D01*
X61004898Y-72397345D01*
X61007647Y-72431296D01*
X61007845Y-72443423D01*
X61006215Y-72479103D01*
X61001446Y-72512502D01*
X60993764Y-72543405D01*
X60983333Y-72571888D01*
X60970389Y-72597781D01*
X60955075Y-72621115D01*
X60937602Y-72641778D01*
X60918124Y-72659734D01*
X60873808Y-72687239D01*
X60823378Y-72702989D01*
X60782437Y-72706616D01*
X60752578Y-72705010D01*
X60725850Y-72700412D01*
X60680286Y-72683327D01*
X60642082Y-72656168D01*
X60622528Y-72635978D01*
X60627464Y-72693678D01*
X60635435Y-72743508D01*
X60644583Y-72779308D01*
X60656069Y-72809624D01*
X60667894Y-72831345D01*
X60681575Y-72849046D01*
X60695473Y-72861517D01*
X60710953Y-72870782D01*
X60745386Y-72879644D01*
X60755084Y-72880019D01*
X60776490Y-72878353D01*
X60794704Y-72873332D01*
X60808003Y-72866166D01*
X60818833Y-72856387D01*
X60832664Y-72830192D01*
X60836829Y-72806215D01*
X60993728Y-72806215D01*
X60987912Y-72838041D01*
X60979183Y-72867270D01*
X60968052Y-72893060D01*
X60954382Y-72916332D01*
X60938613Y-72936658D01*
X60920585Y-72954490D01*
X60878199Y-72982477D01*
X60826912Y-73000290D01*
X60766075Y-73007052D01*
X60762195Y-73007074D01*
X60725128Y-73005399D01*
X60690546Y-73000314D01*
X60660921Y-72992549D01*
X60633399Y-72981755D01*
X60609246Y-72968662D01*
X60586982Y-72952727D01*
X60548741Y-72912916D01*
X60517326Y-72860486D01*
X60492540Y-72792286D01*
X60475199Y-72703996D01*
X60466977Y-72590108D01*
X60466615Y-72557451D01*
X60468277Y-72499178D01*
X60473265Y-72445390D01*
X60474374Y-72438700D01*
X60624656Y-72438700D01*
X60626282Y-72465415D01*
X60631025Y-72489915D01*
X60638525Y-72511633D01*
X60648641Y-72530809D01*
X60660796Y-72546819D01*
X60675061Y-72560055D01*
X60690765Y-72570082D01*
X60708126Y-72577149D01*
X60740811Y-72581896D01*
X60760135Y-72580257D01*
X60777980Y-72575427D01*
X60808294Y-72557102D01*
X60831696Y-72527402D01*
X60847071Y-72485783D01*
X60852192Y-72436312D01*
X60850543Y-72407092D01*
X60845641Y-72380032D01*
X60838090Y-72356880D01*
X60827760Y-72336446D01*
X60815887Y-72320420D01*
X60801769Y-72307303D01*
X60786755Y-72298022D01*
X60769895Y-72291718D01*
X60743199Y-72288341D01*
X60722485Y-72289974D01*
X60703592Y-72294764D01*
X60686868Y-72302379D01*
X60672010Y-72312723D01*
X60647749Y-72341568D01*
X60631333Y-72381949D01*
X60624687Y-72434566D01*
X60624656Y-72438700D01*
X60474374Y-72438700D01*
X60480844Y-72399659D01*
X60491276Y-72357825D01*
X60503513Y-72322515D01*
X60518212Y-72290610D01*
X60534232Y-72263810D01*
X60552421Y-72240040D01*
X60571831Y-72220174D01*
X60593226Y-72203108D01*
X60641013Y-72177813D01*
X60697118Y-72163406D01*
X60745535Y-72160040D01*
X60776583Y-72161676D01*
G37*
G36*
X60296430Y-72980501D02*
G01*
X60296430Y-72816543D01*
X60465162Y-72816543D01*
X60465162Y-72980501D01*
X60296430Y-72980501D01*
G37*
G36*
X59724007Y-72980501D02*
G01*
X59724007Y-72842754D01*
X60064222Y-72842754D01*
X60055225Y-72812942D01*
X60028751Y-72772240D01*
X59981435Y-72724273D01*
X59955540Y-72703917D01*
X59883062Y-72649976D01*
X59825893Y-72601255D01*
X59796042Y-72570842D01*
X59771984Y-72540933D01*
X59755775Y-72515274D01*
X59743334Y-72489038D01*
X59729329Y-72436045D01*
X59726395Y-72392715D01*
X59728034Y-72360469D01*
X59732868Y-72330674D01*
X59740496Y-72304084D01*
X59750896Y-72279782D01*
X59763789Y-72257998D01*
X59779165Y-72238428D01*
X59817469Y-72205525D01*
X59866524Y-72180849D01*
X59927497Y-72165164D01*
X59995816Y-72160040D01*
X60030431Y-72161687D01*
X60062841Y-72166577D01*
X60091996Y-72174306D01*
X60118964Y-72184914D01*
X60143089Y-72197961D01*
X60165017Y-72213609D01*
X60201721Y-72252002D01*
X60229312Y-72300231D01*
X60247297Y-72358983D01*
X60254441Y-72429123D01*
X60254493Y-72436105D01*
X60102422Y-72436105D01*
X60100787Y-72402873D01*
X60095987Y-72374818D01*
X60089074Y-72353682D01*
X60079830Y-72336241D01*
X60069108Y-72322991D01*
X60056520Y-72312592D01*
X60025417Y-72299365D01*
X59988653Y-72295451D01*
X59961750Y-72297232D01*
X59937448Y-72303051D01*
X59921002Y-72310730D01*
X59906901Y-72321552D01*
X59896787Y-72333816D01*
X59888955Y-72348937D01*
X59881116Y-72387606D01*
X59880854Y-72397490D01*
X59882618Y-72422096D01*
X59888327Y-72444924D01*
X59908831Y-72482143D01*
X59948179Y-72523467D01*
X60026542Y-72584439D01*
X60079388Y-72624456D01*
X60123993Y-72662608D01*
X60157745Y-72695823D01*
X60185819Y-72728213D01*
X60207480Y-72758212D01*
X60224967Y-72788047D01*
X60248887Y-72847712D01*
X60261679Y-72913798D01*
X60265237Y-72980501D01*
X59724007Y-72980501D01*
G37*
G36*
X59392304Y-72980501D02*
G01*
X59392304Y-72186614D01*
X59521591Y-72186614D01*
X59526577Y-72217330D01*
X59535056Y-72244044D01*
X59544637Y-72262398D01*
X59557061Y-72278282D01*
X59571185Y-72290684D01*
X59588157Y-72301042D01*
X59632515Y-72315897D01*
X59697828Y-72322633D01*
X59712174Y-72322803D01*
X59712174Y-72433250D01*
X59550344Y-72433250D01*
X59550344Y-72980501D01*
X59392304Y-72980501D01*
G37*
G36*
X59168712Y-72980501D02*
G01*
X59168712Y-72816543D01*
X59337444Y-72816543D01*
X59337444Y-72980501D01*
X59168712Y-72980501D01*
G37*
G36*
X58596289Y-72980501D02*
G01*
X58596289Y-72842754D01*
X58936504Y-72842754D01*
X58927507Y-72812942D01*
X58901033Y-72772240D01*
X58853717Y-72724273D01*
X58827822Y-72703917D01*
X58755344Y-72649976D01*
X58698175Y-72601255D01*
X58668324Y-72570842D01*
X58644265Y-72540933D01*
X58628057Y-72515274D01*
X58615616Y-72489038D01*
X58601611Y-72436045D01*
X58598677Y-72392715D01*
X58600316Y-72360469D01*
X58605150Y-72330674D01*
X58612777Y-72304084D01*
X58623178Y-72279782D01*
X58636071Y-72257998D01*
X58651447Y-72238428D01*
X58689751Y-72205525D01*
X58738806Y-72180849D01*
X58799779Y-72165164D01*
X58868098Y-72160040D01*
X58902713Y-72161687D01*
X58935123Y-72166577D01*
X58964278Y-72174306D01*
X58991246Y-72184914D01*
X59015371Y-72197961D01*
X59037299Y-72213609D01*
X59074003Y-72252002D01*
X59101594Y-72300231D01*
X59119579Y-72358983D01*
X59126723Y-72429123D01*
X59126775Y-72436105D01*
X58974704Y-72436105D01*
X58973069Y-72402873D01*
X58968269Y-72374818D01*
X58961356Y-72353682D01*
X58952112Y-72336241D01*
X58941390Y-72322991D01*
X58928802Y-72312592D01*
X58897699Y-72299365D01*
X58860935Y-72295451D01*
X58834032Y-72297232D01*
X58809730Y-72303051D01*
X58793284Y-72310730D01*
X58779183Y-72321552D01*
X58769069Y-72333816D01*
X58761236Y-72348937D01*
X58753397Y-72387606D01*
X58753136Y-72397490D01*
X58754900Y-72422096D01*
X58760609Y-72444924D01*
X58781113Y-72482143D01*
X58820461Y-72523467D01*
X58898824Y-72584439D01*
X58951670Y-72624456D01*
X58996275Y-72662608D01*
X59030027Y-72695823D01*
X59058101Y-72728213D01*
X59079762Y-72758212D01*
X59097249Y-72788047D01*
X59121169Y-72847712D01*
X59133961Y-72913798D01*
X59137519Y-72980501D01*
X58596289Y-72980501D01*
G37*
G36*
X58331880Y-72161717D02*
G01*
X58363400Y-72166810D01*
X58390781Y-72174657D01*
X58416372Y-72185593D01*
X58439085Y-72198975D01*
X58460096Y-72215302D01*
X58496456Y-72256456D01*
X58526258Y-72311013D01*
X58549224Y-72382069D01*
X58564124Y-72473604D01*
X58568989Y-72579405D01*
X58567340Y-72643280D01*
X58562439Y-72701633D01*
X58554966Y-72751342D01*
X58544762Y-72796376D01*
X58532769Y-72834415D01*
X58518474Y-72868481D01*
X58502904Y-72897061D01*
X58485364Y-72922211D01*
X58466714Y-72943174D01*
X58446322Y-72961076D01*
X58401213Y-72987569D01*
X58348924Y-73002905D01*
X58298374Y-73007074D01*
X58266409Y-73005407D01*
X58236138Y-73000382D01*
X58209073Y-72992489D01*
X58183632Y-72981516D01*
X58160555Y-72967903D01*
X58139098Y-72951336D01*
X58101332Y-72909369D01*
X58069949Y-72853975D01*
X58045459Y-72782659D01*
X58029171Y-72692386D01*
X58023414Y-72584180D01*
X58183412Y-72584180D01*
X58185075Y-72657726D01*
X58190073Y-72719521D01*
X58196919Y-72763105D01*
X58206171Y-72799105D01*
X58216032Y-72824234D01*
X58227676Y-72844304D01*
X58239458Y-72858028D01*
X58252642Y-72868153D01*
X58281629Y-72878078D01*
X58293599Y-72878825D01*
X58311598Y-72877125D01*
X58328023Y-72871865D01*
X58341442Y-72863901D01*
X58353583Y-72852695D01*
X58374277Y-72819293D01*
X58390867Y-72764925D01*
X58401961Y-72678759D01*
X58404980Y-72581792D01*
X58403320Y-72508567D01*
X58398349Y-72447106D01*
X58391516Y-72403556D01*
X58382297Y-72367616D01*
X58372443Y-72342427D01*
X58360824Y-72322309D01*
X58349029Y-72308479D01*
X58335848Y-72298249D01*
X58306794Y-72288033D01*
X58293599Y-72287147D01*
X58275766Y-72288844D01*
X58259522Y-72294083D01*
X58246223Y-72302033D01*
X58234211Y-72313207D01*
X58213716Y-72346596D01*
X58197296Y-72401076D01*
X58186344Y-72487680D01*
X58183412Y-72584180D01*
X58023414Y-72584180D01*
X58023036Y-72577069D01*
X58024682Y-72515424D01*
X58029562Y-72459143D01*
X58037029Y-72410983D01*
X58047208Y-72367373D01*
X58059223Y-72330339D01*
X58073524Y-72297184D01*
X58089181Y-72269188D01*
X58106796Y-72244555D01*
X58125641Y-72223870D01*
X58146220Y-72206203D01*
X58192000Y-72179836D01*
X58245287Y-72164399D01*
X58298374Y-72160040D01*
X58331880Y-72161717D01*
G37*
G36*
X57460267Y-72980501D02*
G01*
X57460267Y-72842754D01*
X57800482Y-72842754D01*
X57791485Y-72812942D01*
X57765010Y-72772240D01*
X57717695Y-72724273D01*
X57691800Y-72703917D01*
X57619321Y-72649976D01*
X57562153Y-72601255D01*
X57532302Y-72570842D01*
X57508243Y-72540933D01*
X57492035Y-72515274D01*
X57479594Y-72489038D01*
X57465588Y-72436045D01*
X57462654Y-72392715D01*
X57464294Y-72360469D01*
X57469128Y-72330674D01*
X57476755Y-72304084D01*
X57487156Y-72279782D01*
X57500049Y-72257998D01*
X57515425Y-72238428D01*
X57553729Y-72205525D01*
X57602784Y-72180849D01*
X57663756Y-72165164D01*
X57732075Y-72160040D01*
X57766691Y-72161687D01*
X57799101Y-72166577D01*
X57828256Y-72174306D01*
X57855223Y-72184914D01*
X57879349Y-72197961D01*
X57901277Y-72213609D01*
X57937981Y-72252002D01*
X57965571Y-72300231D01*
X57983556Y-72358983D01*
X57990700Y-72429123D01*
X57990753Y-72436105D01*
X57838681Y-72436105D01*
X57837047Y-72402873D01*
X57832247Y-72374818D01*
X57825334Y-72353682D01*
X57816089Y-72336241D01*
X57805368Y-72322991D01*
X57792780Y-72312592D01*
X57761677Y-72299365D01*
X57724913Y-72295451D01*
X57698009Y-72297232D01*
X57673708Y-72303051D01*
X57657262Y-72310730D01*
X57643160Y-72321552D01*
X57633046Y-72333816D01*
X57625214Y-72348937D01*
X57617375Y-72387606D01*
X57617113Y-72397490D01*
X57618878Y-72422096D01*
X57624586Y-72444924D01*
X57645090Y-72482143D01*
X57684439Y-72523467D01*
X57762801Y-72584439D01*
X57815647Y-72624456D01*
X57860253Y-72662608D01*
X57894004Y-72695823D01*
X57922078Y-72728213D01*
X57943739Y-72758212D01*
X57961227Y-72788047D01*
X57985147Y-72847712D01*
X57997939Y-72913798D01*
X58001497Y-72980501D01*
X57460267Y-72980501D01*
G37*
G36*
X57176792Y-72161715D02*
G01*
X57211376Y-72166800D01*
X57241005Y-72174565D01*
X57268529Y-72185358D01*
X57292686Y-72198451D01*
X57314953Y-72214386D01*
X57353201Y-72254195D01*
X57384622Y-72306623D01*
X57409414Y-72374817D01*
X57426761Y-72463095D01*
X57434991Y-72576964D01*
X57435354Y-72609715D01*
X57433692Y-72667987D01*
X57428704Y-72721773D01*
X57421125Y-72767498D01*
X57410693Y-72809325D01*
X57398457Y-72844627D01*
X57383758Y-72876526D01*
X57367739Y-72903319D01*
X57349550Y-72927084D01*
X57330140Y-72946945D01*
X57308743Y-72964007D01*
X57260951Y-72989299D01*
X57204832Y-73003706D01*
X57156383Y-73007074D01*
X57125338Y-73005438D01*
X57095793Y-73000629D01*
X57067752Y-72992762D01*
X57041426Y-72982000D01*
X56993921Y-72952065D01*
X56954172Y-72911553D01*
X56923375Y-72861248D01*
X56902944Y-72802197D01*
X56897065Y-72769768D01*
X56894321Y-72735816D01*
X56894240Y-72730854D01*
X57049777Y-72730854D01*
X57051426Y-72760074D01*
X57056328Y-72787134D01*
X57063879Y-72810286D01*
X57074209Y-72830720D01*
X57086082Y-72846746D01*
X57100201Y-72859863D01*
X57115214Y-72869144D01*
X57132075Y-72875448D01*
X57158770Y-72878825D01*
X57179484Y-72877192D01*
X57198378Y-72872402D01*
X57215101Y-72864787D01*
X57229960Y-72854443D01*
X57254220Y-72825598D01*
X57270637Y-72785217D01*
X57277283Y-72732600D01*
X57277314Y-72728466D01*
X57275687Y-72701750D01*
X57270944Y-72677245D01*
X57263444Y-72655518D01*
X57253326Y-72636334D01*
X57241169Y-72620315D01*
X57226904Y-72607071D01*
X57211200Y-72597040D01*
X57193840Y-72589968D01*
X57161158Y-72585218D01*
X57141843Y-72586857D01*
X57124005Y-72591686D01*
X57093695Y-72610012D01*
X57070289Y-72639717D01*
X57054906Y-72681343D01*
X57049777Y-72730854D01*
X56894240Y-72730854D01*
X56894124Y-72723743D01*
X56895754Y-72688063D01*
X56900523Y-72654664D01*
X56908206Y-72623761D01*
X56918636Y-72595278D01*
X56931581Y-72569385D01*
X56946895Y-72546051D01*
X56964367Y-72525388D01*
X56983845Y-72507432D01*
X57028161Y-72479927D01*
X57078591Y-72464177D01*
X57119533Y-72460550D01*
X57149392Y-72462156D01*
X57176119Y-72466754D01*
X57221683Y-72483839D01*
X57259887Y-72510998D01*
X57279442Y-72531188D01*
X57274483Y-72473429D01*
X57266491Y-72423557D01*
X57257332Y-72387758D01*
X57245837Y-72357449D01*
X57234008Y-72335743D01*
X57220323Y-72318058D01*
X57206424Y-72305602D01*
X57190944Y-72296352D01*
X57156503Y-72287516D01*
X57146885Y-72287147D01*
X57125480Y-72288813D01*
X57107265Y-72293834D01*
X57093966Y-72301000D01*
X57083136Y-72310779D01*
X57069306Y-72336974D01*
X57065140Y-72360951D01*
X56908189Y-72360951D01*
X56914005Y-72329133D01*
X56922732Y-72299908D01*
X56933864Y-72274115D01*
X56947535Y-72250837D01*
X56963308Y-72230502D01*
X56981339Y-72212661D01*
X57023731Y-72184657D01*
X57075013Y-72166831D01*
X57135821Y-72160062D01*
X57139722Y-72160040D01*
X57176792Y-72161715D01*
G37*
D11*
G36*
X63686603Y-66051250D02*
G01*
X63418617Y-66051250D01*
X63418617Y-65594824D01*
X63130187Y-65594824D01*
X63077724Y-65592225D01*
X63028234Y-65584588D01*
X62982170Y-65572244D01*
X62939360Y-65555391D01*
X62900099Y-65534346D01*
X62864382Y-65509284D01*
X62804173Y-65447982D01*
X62759857Y-65372914D01*
X62732923Y-65285418D01*
X62725034Y-65199233D01*
X62725429Y-65191649D01*
X62960872Y-65191649D01*
X62963558Y-65229281D01*
X62971810Y-65263618D01*
X62983972Y-65290874D01*
X63000911Y-65314902D01*
X63021173Y-65334118D01*
X63045919Y-65350017D01*
X63109252Y-65370826D01*
X63171815Y-65375967D01*
X63418617Y-65375967D01*
X63418617Y-65013019D01*
X63171815Y-65013019D01*
X63126392Y-65015596D01*
X63086959Y-65023085D01*
X63054978Y-65034364D01*
X63027994Y-65049405D01*
X63006367Y-65067357D01*
X62989138Y-65088296D01*
X62966870Y-65139363D01*
X62960872Y-65191649D01*
X62725429Y-65191649D01*
X62727643Y-65149169D01*
X62735355Y-65100985D01*
X62747980Y-65055062D01*
X62765352Y-65011683D01*
X62787100Y-64971504D01*
X62813179Y-64934482D01*
X62842969Y-64901387D01*
X62876645Y-64871992D01*
X62913408Y-64846987D01*
X62953623Y-64826162D01*
X62996484Y-64810017D01*
X63042401Y-64798506D01*
X63130187Y-64790370D01*
X63686603Y-64790370D01*
X63686603Y-66051250D01*
G37*
G36*
X62421025Y-66051250D02*
G01*
X62421025Y-65564489D01*
X62418379Y-65518107D01*
X62410413Y-65477144D01*
X62398771Y-65445163D01*
X62382822Y-65417497D01*
X62363988Y-65395537D01*
X62341335Y-65377348D01*
X62284416Y-65352266D01*
X62206741Y-65342159D01*
X62198706Y-65342087D01*
X62128062Y-65348270D01*
X62128062Y-65091082D01*
X62162848Y-65091082D01*
X62244602Y-65095722D01*
X62284150Y-65103775D01*
X62322510Y-65117652D01*
X62354129Y-65135224D01*
X62384578Y-65159061D01*
X62436110Y-65220912D01*
X62436110Y-65117460D01*
X62671948Y-65117460D01*
X62671948Y-66051250D01*
X62421025Y-66051250D01*
G37*
G36*
X61719913Y-65093691D02*
G01*
X61774714Y-65101404D01*
X61825425Y-65113798D01*
X61872865Y-65130796D01*
X61916373Y-65151939D01*
X61956447Y-65177254D01*
X61992778Y-65206414D01*
X62025473Y-65239392D01*
X62079640Y-65316471D01*
X62118075Y-65408216D01*
X62139245Y-65514471D01*
X62142817Y-65584355D01*
X62140199Y-65644217D01*
X62132422Y-65701217D01*
X62119948Y-65753941D01*
X62102767Y-65803491D01*
X62081561Y-65848590D01*
X62056075Y-65890257D01*
X62027073Y-65927536D01*
X61994161Y-65961141D01*
X61957966Y-65990502D01*
X61918152Y-66015925D01*
X61875000Y-66037147D01*
X61828442Y-66054103D01*
X61724891Y-66074561D01*
X61661991Y-66077628D01*
X61605125Y-66075018D01*
X61551239Y-66067305D01*
X61501221Y-66054887D01*
X61454367Y-66037848D01*
X61411281Y-66016615D01*
X61371555Y-65991182D01*
X61302977Y-65928654D01*
X61249110Y-65851017D01*
X61210966Y-65758619D01*
X61190164Y-65651731D01*
X61186854Y-65584355D01*
X61439672Y-65584355D01*
X61442310Y-65642604D01*
X61450219Y-65694074D01*
X61461757Y-65734388D01*
X61477508Y-65769308D01*
X61495628Y-65796570D01*
X61517276Y-65819330D01*
X61568840Y-65850496D01*
X61635071Y-65865260D01*
X61661991Y-65866355D01*
X61703051Y-65863714D01*
X61739926Y-65855785D01*
X61770018Y-65843873D01*
X61796599Y-65827503D01*
X61837913Y-65783346D01*
X61866707Y-65720796D01*
X61882348Y-65634002D01*
X61884228Y-65584355D01*
X61881591Y-65526141D01*
X61873680Y-65474823D01*
X61862165Y-65434794D01*
X61846451Y-65400185D01*
X61828377Y-65373211D01*
X61806782Y-65350726D01*
X61755212Y-65319941D01*
X61688650Y-65305384D01*
X61661991Y-65304334D01*
X61620509Y-65306977D01*
X61583299Y-65314934D01*
X61553127Y-65326836D01*
X61526503Y-65343203D01*
X61485343Y-65387246D01*
X61456798Y-65449636D01*
X61441425Y-65536408D01*
X61439672Y-65584355D01*
X61186854Y-65584355D01*
X61189467Y-65523722D01*
X61197209Y-65466284D01*
X61209608Y-65413342D01*
X61226639Y-65363799D01*
X61247669Y-65318746D01*
X61272879Y-65277272D01*
X61301624Y-65240124D01*
X61334163Y-65206740D01*
X61370051Y-65177505D01*
X61409428Y-65152265D01*
X61498281Y-65114322D01*
X61600764Y-65094055D01*
X61661991Y-65091082D01*
X61719913Y-65093691D01*
G37*
G36*
X59951281Y-66050013D02*
G01*
X59951281Y-65370691D01*
X60480082Y-65370691D01*
X60480082Y-65585756D01*
X60202286Y-65585756D01*
X60212430Y-65658004D01*
X60242507Y-65725788D01*
X60291443Y-65785088D01*
X60322255Y-65810043D01*
X60356614Y-65831023D01*
X60393812Y-65847486D01*
X60433749Y-65859210D01*
X60505801Y-65867096D01*
X60548967Y-65864519D01*
X60589018Y-65857028D01*
X60660645Y-65828375D01*
X60722282Y-65782099D01*
X60774245Y-65717784D01*
X60815158Y-65634892D01*
X60841993Y-65534863D01*
X60850943Y-65430042D01*
X60848340Y-65361409D01*
X60840669Y-65298066D01*
X60828671Y-65242081D01*
X60812343Y-65191146D01*
X60792709Y-65146946D01*
X60769401Y-65107546D01*
X60743495Y-65074032D01*
X60714453Y-65045123D01*
X60683037Y-65021274D01*
X60648885Y-65001964D01*
X60572825Y-64977143D01*
X60503905Y-64970814D01*
X60423549Y-64980866D01*
X60348699Y-65010452D01*
X60315656Y-65031782D01*
X60286625Y-65056816D01*
X60262792Y-65084323D01*
X60243874Y-65114529D01*
X60231012Y-65145186D01*
X60223492Y-65177559D01*
X60222812Y-65182911D01*
X59953012Y-65182911D01*
X59970299Y-65089433D01*
X60007034Y-65003510D01*
X60062548Y-64926364D01*
X60136188Y-64859872D01*
X60226838Y-64806511D01*
X60332549Y-64769052D01*
X60390240Y-64757110D01*
X60450497Y-64750095D01*
X60503905Y-64748165D01*
X60568540Y-64750767D01*
X60629720Y-64758428D01*
X60686996Y-64770819D01*
X60740835Y-64787768D01*
X60791237Y-64809072D01*
X60838164Y-64834514D01*
X60922310Y-64897686D01*
X60993343Y-64976877D01*
X61050635Y-65071967D01*
X61092842Y-65182692D01*
X61118071Y-65308165D01*
X61124618Y-65418749D01*
X61114256Y-65548998D01*
X61101355Y-65612773D01*
X61083504Y-65674562D01*
X61060980Y-65733596D01*
X61033849Y-65789754D01*
X61002975Y-65841493D01*
X60967962Y-65889618D01*
X60930325Y-65932287D01*
X60889073Y-65970800D01*
X60846174Y-66003514D01*
X60800162Y-66031703D01*
X60753098Y-66054218D01*
X60703355Y-66071936D01*
X60652720Y-66084236D01*
X60599750Y-66091479D01*
X60553034Y-66093455D01*
X60493092Y-66090862D01*
X60436066Y-66083262D01*
X60382627Y-66070943D01*
X60333306Y-66054166D01*
X60290123Y-66033969D01*
X60251896Y-66010101D01*
X60221033Y-65984595D01*
X60195459Y-65956273D01*
X60179205Y-65931888D01*
X60173847Y-66051250D01*
X59951281Y-66050013D01*
G37*
G36*
X59023509Y-65613866D02*
G01*
X59037712Y-65663932D01*
X59056160Y-65708632D01*
X59076851Y-65744809D01*
X59101169Y-65776241D01*
X59127380Y-65801382D01*
X59156842Y-65822138D01*
X59223923Y-65849710D01*
X59306828Y-65859513D01*
X59349900Y-65856894D01*
X59389670Y-65849114D01*
X59424719Y-65836908D01*
X59456734Y-65820160D01*
X59511224Y-65773943D01*
X59554855Y-65709049D01*
X59587375Y-65622026D01*
X59606649Y-65508373D01*
X59610425Y-65419903D01*
X59607776Y-65346199D01*
X59599782Y-65278383D01*
X59587778Y-65221928D01*
X59571222Y-65170827D01*
X59552061Y-65128984D01*
X59529014Y-65091964D01*
X59504072Y-65062028D01*
X59475707Y-65036538D01*
X59445260Y-65016394D01*
X59411608Y-65000580D01*
X59334876Y-64982448D01*
X59293639Y-64980293D01*
X59219834Y-64990630D01*
X59152197Y-65021020D01*
X59121827Y-65043345D01*
X59094300Y-65070200D01*
X59070118Y-65101266D01*
X59049536Y-65136495D01*
X59023509Y-65207064D01*
X58755853Y-65207064D01*
X58763630Y-65153971D01*
X58776426Y-65102799D01*
X58794013Y-65054100D01*
X58816323Y-65007898D01*
X58842957Y-64964889D01*
X58873985Y-64924910D01*
X58908840Y-64888670D01*
X58947754Y-64855946D01*
X58990071Y-64827344D01*
X59036129Y-64802714D01*
X59085304Y-64782505D01*
X59137931Y-64766712D01*
X59193528Y-64755652D01*
X59252322Y-64749463D01*
X59295535Y-64748165D01*
X59356952Y-64750784D01*
X59415548Y-64758568D01*
X59470133Y-64771098D01*
X59521801Y-64788376D01*
X59569807Y-64809967D01*
X59614779Y-64835973D01*
X59694884Y-64900490D01*
X59762137Y-64981811D01*
X59815953Y-65080386D01*
X59855056Y-65196933D01*
X59877557Y-65332104D01*
X59882203Y-65434988D01*
X59879601Y-65509251D01*
X59871941Y-65579199D01*
X59859650Y-65643899D01*
X59842862Y-65704358D01*
X59822048Y-65759934D01*
X59797243Y-65811318D01*
X59768837Y-65858206D01*
X59736884Y-65900907D01*
X59701544Y-65939437D01*
X59663044Y-65973726D01*
X59576503Y-66029934D01*
X59477768Y-66069090D01*
X59367387Y-66090135D01*
X59299327Y-66093455D01*
X59241067Y-66090845D01*
X59185512Y-66083133D01*
X59133187Y-66070614D01*
X59083708Y-66053412D01*
X59037219Y-66031725D01*
X58993754Y-66005700D01*
X58915739Y-65940774D01*
X58850229Y-65858920D01*
X58798399Y-65760222D01*
X58761997Y-65644925D01*
X58755605Y-65613866D01*
X59023509Y-65613866D01*
G37*
G36*
X57865505Y-65613866D02*
G01*
X57879708Y-65663932D01*
X57898156Y-65708632D01*
X57918847Y-65744809D01*
X57943165Y-65776241D01*
X57969375Y-65801382D01*
X57998838Y-65822138D01*
X58065919Y-65849710D01*
X58148824Y-65859513D01*
X58191896Y-65856894D01*
X58231666Y-65849114D01*
X58266715Y-65836908D01*
X58298730Y-65820160D01*
X58353220Y-65773943D01*
X58396851Y-65709049D01*
X58429371Y-65622026D01*
X58448644Y-65508373D01*
X58452421Y-65419903D01*
X58449771Y-65346199D01*
X58441778Y-65278383D01*
X58429774Y-65221928D01*
X58413218Y-65170827D01*
X58394057Y-65128984D01*
X58371010Y-65091964D01*
X58346068Y-65062028D01*
X58317703Y-65036538D01*
X58287256Y-65016394D01*
X58253604Y-65000580D01*
X58176872Y-64982448D01*
X58135635Y-64980293D01*
X58061830Y-64990630D01*
X57994193Y-65021020D01*
X57963822Y-65043345D01*
X57936296Y-65070200D01*
X57912114Y-65101266D01*
X57891532Y-65136495D01*
X57865505Y-65207064D01*
X57597848Y-65207064D01*
X57605625Y-65153971D01*
X57618422Y-65102799D01*
X57636009Y-65054100D01*
X57658319Y-65007898D01*
X57684952Y-64964889D01*
X57715981Y-64924910D01*
X57750835Y-64888670D01*
X57789750Y-64855946D01*
X57832067Y-64827344D01*
X57878125Y-64802714D01*
X57927300Y-64782505D01*
X57979926Y-64766712D01*
X58035524Y-64755652D01*
X58094318Y-64749463D01*
X58137531Y-64748165D01*
X58198948Y-64750784D01*
X58257544Y-64758568D01*
X58312129Y-64771098D01*
X58363797Y-64788376D01*
X58411803Y-64809967D01*
X58456775Y-64835973D01*
X58536880Y-64900490D01*
X58604133Y-64981811D01*
X58657949Y-65080386D01*
X58697052Y-65196933D01*
X58719553Y-65332104D01*
X58724199Y-65434988D01*
X58721597Y-65509251D01*
X58713936Y-65579199D01*
X58701646Y-65643899D01*
X58684857Y-65704358D01*
X58664044Y-65759934D01*
X58639239Y-65811318D01*
X58610833Y-65858206D01*
X58578880Y-65900907D01*
X58543540Y-65939437D01*
X58505040Y-65973726D01*
X58418499Y-66029934D01*
X58319764Y-66069090D01*
X58209383Y-66090135D01*
X58141322Y-66093455D01*
X58083063Y-66090845D01*
X58027508Y-66083133D01*
X57975183Y-66070614D01*
X57925704Y-66053412D01*
X57879215Y-66031725D01*
X57835750Y-66005700D01*
X57757734Y-65940774D01*
X57692225Y-65858920D01*
X57640394Y-65760222D01*
X57603992Y-65644925D01*
X57597601Y-65613866D01*
X57865505Y-65613866D01*
G37*
G36*
X57131943Y-65560037D02*
G01*
X57131943Y-65776916D01*
X56644276Y-65776916D01*
X56644276Y-66051250D01*
X56393353Y-66051250D01*
X56393353Y-65776916D01*
X56251570Y-65776916D01*
X56251570Y-65580810D01*
X56393353Y-65580810D01*
X56638670Y-65580810D01*
X56888439Y-65580810D01*
X56638670Y-65150763D01*
X56638670Y-65580810D01*
X56393353Y-65580810D01*
X56393353Y-64790370D01*
X56673374Y-64790370D01*
X57131943Y-65560037D01*
G37*
G36*
X55928519Y-66051250D02*
G01*
X55928519Y-65790847D01*
X56196505Y-65790847D01*
X56196505Y-66051250D01*
X55928519Y-66051250D01*
G37*
G36*
X55537178Y-64750828D02*
G01*
X55587240Y-64758917D01*
X55630727Y-64771381D01*
X55671373Y-64788749D01*
X55707446Y-64810003D01*
X55740816Y-64835934D01*
X55798564Y-64901296D01*
X55845897Y-64987945D01*
X55882372Y-65100799D01*
X55906037Y-65246179D01*
X55913764Y-65414215D01*
X55911144Y-65515664D01*
X55903361Y-65608342D01*
X55891492Y-65687292D01*
X55875286Y-65758817D01*
X55856238Y-65819232D01*
X55833534Y-65873336D01*
X55808805Y-65918728D01*
X55780947Y-65958672D01*
X55751328Y-65991966D01*
X55718940Y-66020399D01*
X55647297Y-66062476D01*
X55564249Y-66086833D01*
X55483963Y-66093455D01*
X55433196Y-66090807D01*
X55385118Y-66082826D01*
X55342133Y-66070289D01*
X55301726Y-66052863D01*
X55265074Y-66031242D01*
X55230996Y-66004929D01*
X55171014Y-65938276D01*
X55121171Y-65850297D01*
X55082274Y-65737031D01*
X55056406Y-65593656D01*
X55047263Y-65421799D01*
X55301376Y-65421799D01*
X55304018Y-65538607D01*
X55311956Y-65636752D01*
X55322829Y-65705974D01*
X55337524Y-65763151D01*
X55353186Y-65803062D01*
X55371678Y-65834938D01*
X55390392Y-65856735D01*
X55411330Y-65872815D01*
X55457369Y-65888578D01*
X55476380Y-65889765D01*
X55504967Y-65887064D01*
X55531053Y-65878710D01*
X55552365Y-65866062D01*
X55571648Y-65848265D01*
X55604516Y-65795214D01*
X55630864Y-65708864D01*
X55648485Y-65572012D01*
X55653279Y-65418007D01*
X55650643Y-65301708D01*
X55642747Y-65204093D01*
X55631895Y-65134926D01*
X55617254Y-65077845D01*
X55601602Y-65037838D01*
X55583149Y-65005887D01*
X55564416Y-64983921D01*
X55543482Y-64967674D01*
X55497336Y-64951448D01*
X55476380Y-64950041D01*
X55448056Y-64952737D01*
X55422257Y-64961058D01*
X55401136Y-64973684D01*
X55382058Y-64991431D01*
X55349507Y-65044459D01*
X55323427Y-65130987D01*
X55306033Y-65268534D01*
X55301376Y-65421799D01*
X55047263Y-65421799D01*
X55046662Y-65410506D01*
X55049276Y-65312599D01*
X55057028Y-65223210D01*
X55068886Y-65146721D01*
X55085053Y-65077459D01*
X55104136Y-65018641D01*
X55126848Y-64965982D01*
X55151716Y-64921518D01*
X55179693Y-64882396D01*
X55209624Y-64849543D01*
X55242307Y-64821483D01*
X55315016Y-64779606D01*
X55399648Y-64755089D01*
X55483963Y-64748165D01*
X55537178Y-64750828D01*
G37*
G36*
X62387063Y-68319250D02*
G01*
X62387063Y-67058370D01*
X62769712Y-67058370D01*
X62994504Y-67970892D01*
X63219214Y-67058370D01*
X63609447Y-67058370D01*
X63609447Y-68319250D01*
X63360337Y-68319250D01*
X63362975Y-67460061D01*
X63132496Y-68319250D01*
X62867724Y-68319250D01*
X62635348Y-67456269D01*
X62637986Y-68319250D01*
X62387063Y-68319250D01*
G37*
G36*
X61943596Y-67361681D02*
G01*
X62005075Y-67369319D01*
X62056755Y-67380943D01*
X62102499Y-67396650D01*
X62140918Y-67415313D01*
X62174326Y-67437357D01*
X62202466Y-67462138D01*
X62226165Y-67489849D01*
X62261580Y-67554861D01*
X62281682Y-67635171D01*
X62285919Y-67691365D01*
X62052142Y-67691365D01*
X62044324Y-67654353D01*
X62031037Y-67622324D01*
X62015815Y-67600454D01*
X61996145Y-67582423D01*
X61973652Y-67569394D01*
X61946703Y-67560085D01*
X61886289Y-67553374D01*
X61843641Y-67555969D01*
X61807116Y-67563583D01*
X61779829Y-67574553D01*
X61758323Y-67589215D01*
X61744392Y-67605152D01*
X61735564Y-67623713D01*
X61732059Y-67647511D01*
X61734955Y-67675671D01*
X61744679Y-67698250D01*
X61775051Y-67723399D01*
X61836241Y-67742681D01*
X61886619Y-67751128D01*
X62024640Y-67772816D01*
X62086209Y-67786883D01*
X62141925Y-67804978D01*
X62191121Y-67828507D01*
X62233129Y-67858878D01*
X62267280Y-67897500D01*
X62292906Y-67945781D01*
X62312320Y-68024850D01*
X62316007Y-68087616D01*
X62313358Y-68129279D01*
X62305367Y-68168167D01*
X62293014Y-68201738D01*
X62275885Y-68232394D01*
X62254984Y-68258770D01*
X62229616Y-68282056D01*
X62166014Y-68318236D01*
X62082414Y-68340161D01*
X62003425Y-68345628D01*
X61903659Y-68335704D01*
X61858143Y-68323641D01*
X61816926Y-68307521D01*
X61779987Y-68287628D01*
X61748133Y-68264634D01*
X61724063Y-68241681D01*
X61708648Y-68319250D01*
X61475366Y-68319250D01*
X61475366Y-67867357D01*
X61726454Y-67867357D01*
X61728267Y-67962979D01*
X61739460Y-68024375D01*
X61770275Y-68079976D01*
X61792617Y-68104135D01*
X61818917Y-68124796D01*
X61848723Y-68141442D01*
X61881702Y-68153631D01*
X61948608Y-68162794D01*
X61983334Y-68160141D01*
X62012047Y-68152120D01*
X62031558Y-68141091D01*
X62046663Y-68126109D01*
X62062950Y-68087060D01*
X62065084Y-68061402D01*
X62062301Y-68030510D01*
X62053372Y-68003919D01*
X62040988Y-67985157D01*
X62023505Y-67968674D01*
X61969544Y-67940872D01*
X61882003Y-67918300D01*
X61790971Y-67898075D01*
X61738700Y-67877006D01*
X61726454Y-67867357D01*
X61475366Y-67867357D01*
X61475366Y-67728460D01*
X61478074Y-67665954D01*
X61486478Y-67608774D01*
X61498607Y-67563904D01*
X61515545Y-67523198D01*
X61535225Y-67490057D01*
X61559256Y-67460473D01*
X61586410Y-67435640D01*
X61617875Y-67414173D01*
X61694834Y-67381467D01*
X61796176Y-67362632D01*
X61874914Y-67359082D01*
X61943596Y-67361681D01*
G37*
G36*
X61116869Y-68319250D02*
G01*
X61116869Y-67385460D01*
X61367875Y-67385460D01*
X61367875Y-68319250D01*
X61116869Y-68319250D01*
G37*
G36*
X61116869Y-67276568D02*
G01*
X61116869Y-67042543D01*
X61367875Y-67042543D01*
X61367875Y-67276568D01*
X61116869Y-67276568D01*
G37*
G36*
X60162637Y-68319250D02*
G01*
X60162637Y-67671746D01*
X60165228Y-67623818D01*
X60172817Y-67579708D01*
X60184846Y-67540196D01*
X60201153Y-67504449D01*
X60221328Y-67472713D01*
X60245206Y-67444782D01*
X60303774Y-67400102D01*
X60376519Y-67370961D01*
X60463075Y-67359203D01*
X60473323Y-67359082D01*
X60526531Y-67361683D01*
X60574877Y-67369339D01*
X60616773Y-67381220D01*
X60654415Y-67397349D01*
X60687262Y-67417079D01*
X60716227Y-67440514D01*
X60763348Y-67498500D01*
X60771150Y-67511993D01*
X60771150Y-67385460D01*
X61010779Y-67385460D01*
X61010779Y-68319250D01*
X60759856Y-68319250D01*
X60759856Y-67784678D01*
X60757209Y-67737103D01*
X60749232Y-67695619D01*
X60737763Y-67664156D01*
X60722088Y-67637402D01*
X60703868Y-67616895D01*
X60682009Y-67600390D01*
X60627552Y-67579436D01*
X60571582Y-67574065D01*
X60523859Y-67576933D01*
X60485888Y-67586461D01*
X60464742Y-67597808D01*
X60447731Y-67613554D01*
X60426204Y-67656177D01*
X60416000Y-67727436D01*
X60415456Y-67754508D01*
X60415456Y-68319250D01*
X60162637Y-68319250D01*
G37*
G36*
X59611826Y-68319250D02*
G01*
X59044118Y-68319250D01*
X58973535Y-68316641D01*
X58908750Y-68308937D01*
X58852303Y-68296993D01*
X58801101Y-68280725D01*
X58756951Y-68261228D01*
X58717581Y-68238041D01*
X58683956Y-68212164D01*
X58654796Y-68183071D01*
X58610181Y-68116475D01*
X58582620Y-68037483D01*
X58572772Y-67942700D01*
X58573705Y-67923823D01*
X58833174Y-67923823D01*
X58835783Y-67956636D01*
X58843493Y-67987148D01*
X58855754Y-68014272D01*
X58872537Y-68038408D01*
X58893172Y-68058747D01*
X58917827Y-68075479D01*
X58946122Y-68088153D01*
X58978080Y-68096549D01*
X59023345Y-68100475D01*
X59353320Y-68100475D01*
X59353320Y-67767862D01*
X59019553Y-67767862D01*
X58974855Y-67770530D01*
X58935621Y-67778658D01*
X58906410Y-67790208D01*
X58881761Y-67806084D01*
X58863609Y-67824237D01*
X58849531Y-67846101D01*
X58834397Y-67900032D01*
X58833174Y-67923823D01*
X58573705Y-67923823D01*
X58575335Y-67890847D01*
X58582728Y-67844483D01*
X58594340Y-67803786D01*
X58609801Y-67767901D01*
X58651270Y-67708707D01*
X58706408Y-67664000D01*
X58759068Y-67638526D01*
X58703031Y-67604258D01*
X58654796Y-67550171D01*
X58636250Y-67517425D01*
X58622260Y-67481545D01*
X58613724Y-67444687D01*
X58611289Y-67415053D01*
X58869115Y-67415053D01*
X58871745Y-67446919D01*
X58879611Y-67474563D01*
X58891223Y-67495921D01*
X58907067Y-67513733D01*
X58950380Y-67538243D01*
X59014248Y-67548827D01*
X59025158Y-67549005D01*
X59353320Y-67549005D01*
X59353320Y-67281019D01*
X59040326Y-67281019D01*
X58989994Y-67283720D01*
X58949111Y-67292074D01*
X58923139Y-67302941D01*
X58902545Y-67317773D01*
X58878302Y-67354954D01*
X58869174Y-67409367D01*
X58869115Y-67415053D01*
X58611289Y-67415053D01*
X58610535Y-67405870D01*
X58610525Y-67403678D01*
X58613152Y-67353829D01*
X58620988Y-67307216D01*
X58633276Y-67265875D01*
X58650199Y-67227809D01*
X58670902Y-67194281D01*
X58695825Y-67164100D01*
X58724488Y-67137750D01*
X58757154Y-67114928D01*
X58835056Y-67080170D01*
X58931419Y-67061169D01*
X58991196Y-67058370D01*
X59611826Y-67058370D01*
X59611826Y-68319250D01*
G37*
G36*
X58119945Y-67361691D02*
G01*
X58174745Y-67369404D01*
X58225457Y-67381798D01*
X58272897Y-67398796D01*
X58316405Y-67419939D01*
X58356479Y-67445254D01*
X58392809Y-67474414D01*
X58425504Y-67507392D01*
X58479672Y-67584471D01*
X58518107Y-67676216D01*
X58539277Y-67782471D01*
X58542849Y-67852355D01*
X58540231Y-67912217D01*
X58532454Y-67969217D01*
X58519980Y-68021941D01*
X58502799Y-68071491D01*
X58481592Y-68116590D01*
X58456107Y-68158257D01*
X58427105Y-68195536D01*
X58394193Y-68229141D01*
X58357998Y-68258502D01*
X58318184Y-68283925D01*
X58275032Y-68305147D01*
X58228473Y-68322103D01*
X58124923Y-68342561D01*
X58062023Y-68345628D01*
X58005157Y-68343018D01*
X57951271Y-68335305D01*
X57901252Y-68322887D01*
X57854399Y-68305848D01*
X57811312Y-68284615D01*
X57771587Y-68259182D01*
X57703009Y-68196654D01*
X57649141Y-68119017D01*
X57610998Y-68026619D01*
X57590195Y-67919731D01*
X57586885Y-67852355D01*
X57839704Y-67852355D01*
X57842341Y-67910604D01*
X57850250Y-67962074D01*
X57861789Y-68002388D01*
X57877540Y-68037308D01*
X57895659Y-68064570D01*
X57917308Y-68087330D01*
X57968872Y-68118496D01*
X58035102Y-68133260D01*
X58062023Y-68134355D01*
X58103083Y-68131714D01*
X58139958Y-68123785D01*
X58170050Y-68111873D01*
X58196631Y-68095503D01*
X58237945Y-68051346D01*
X58266738Y-67988796D01*
X58282380Y-67902002D01*
X58284260Y-67852355D01*
X58281622Y-67794141D01*
X58273712Y-67742823D01*
X58262197Y-67702794D01*
X58246483Y-67668185D01*
X58228408Y-67641211D01*
X58206814Y-67618726D01*
X58155244Y-67587941D01*
X58088681Y-67573384D01*
X58062023Y-67572334D01*
X58020541Y-67574977D01*
X57983330Y-67582934D01*
X57953158Y-67594836D01*
X57926535Y-67611203D01*
X57885375Y-67655246D01*
X57856830Y-67717636D01*
X57841456Y-67804408D01*
X57839704Y-67852355D01*
X57586885Y-67852355D01*
X57589499Y-67791722D01*
X57597240Y-67734284D01*
X57609639Y-67681342D01*
X57626671Y-67631799D01*
X57647701Y-67586746D01*
X57672911Y-67545272D01*
X57701656Y-67508124D01*
X57734195Y-67474740D01*
X57770083Y-67445505D01*
X57809459Y-67420265D01*
X57898313Y-67382322D01*
X58000796Y-67362055D01*
X58062023Y-67359082D01*
X58119945Y-67361691D01*
G37*
G36*
X57155948Y-67361681D02*
G01*
X57217426Y-67369319D01*
X57269107Y-67380943D01*
X57314851Y-67396650D01*
X57353270Y-67415313D01*
X57386678Y-67437357D01*
X57414818Y-67462138D01*
X57438516Y-67489849D01*
X57473932Y-67554861D01*
X57494034Y-67635171D01*
X57498271Y-67691365D01*
X57264494Y-67691365D01*
X57256676Y-67654353D01*
X57243389Y-67622324D01*
X57228166Y-67600454D01*
X57208497Y-67582423D01*
X57186003Y-67569394D01*
X57159055Y-67560085D01*
X57098641Y-67553374D01*
X57055993Y-67555969D01*
X57019468Y-67563583D01*
X56992181Y-67574553D01*
X56970675Y-67589215D01*
X56956744Y-67605152D01*
X56947916Y-67623713D01*
X56944411Y-67647511D01*
X56947307Y-67675671D01*
X56957031Y-67698250D01*
X56987403Y-67723399D01*
X57048593Y-67742681D01*
X57098971Y-67751128D01*
X57236992Y-67772816D01*
X57298561Y-67786883D01*
X57354277Y-67804978D01*
X57403473Y-67828507D01*
X57445481Y-67858878D01*
X57479632Y-67897500D01*
X57505258Y-67945781D01*
X57524672Y-68024850D01*
X57528359Y-68087616D01*
X57525710Y-68129279D01*
X57517719Y-68168167D01*
X57505366Y-68201738D01*
X57488237Y-68232394D01*
X57467335Y-68258770D01*
X57441968Y-68282056D01*
X57378366Y-68318236D01*
X57294766Y-68340161D01*
X57215777Y-68345628D01*
X57116011Y-68335704D01*
X57070494Y-68323641D01*
X57029277Y-68307521D01*
X56992338Y-68287628D01*
X56960485Y-68264634D01*
X56936415Y-68241681D01*
X56921000Y-68319250D01*
X56687718Y-68319250D01*
X56687718Y-67867357D01*
X56938805Y-67867357D01*
X56940619Y-67962979D01*
X56951812Y-68024375D01*
X56982627Y-68079976D01*
X57004968Y-68104135D01*
X57031268Y-68124796D01*
X57061075Y-68141442D01*
X57094054Y-68153631D01*
X57160959Y-68162794D01*
X57195686Y-68160141D01*
X57224399Y-68152120D01*
X57243910Y-68141091D01*
X57259015Y-68126109D01*
X57275302Y-68087060D01*
X57277436Y-68061402D01*
X57274653Y-68030510D01*
X57265723Y-68003919D01*
X57253340Y-67985157D01*
X57235856Y-67968674D01*
X57181896Y-67940872D01*
X57094354Y-67918300D01*
X57003323Y-67898075D01*
X56951052Y-67877006D01*
X56938805Y-67867357D01*
X56687718Y-67867357D01*
X56687718Y-67728460D01*
X56690426Y-67665954D01*
X56698830Y-67608774D01*
X56710959Y-67563904D01*
X56727896Y-67523198D01*
X56747577Y-67490057D01*
X56771607Y-67460473D01*
X56798761Y-67435640D01*
X56830226Y-67414173D01*
X56907185Y-67381467D01*
X57008528Y-67362632D01*
X57087265Y-67359082D01*
X57155948Y-67361681D01*
G37*
G36*
X56334909Y-68319250D02*
G01*
X56334909Y-67832489D01*
X56332263Y-67786107D01*
X56324296Y-67745144D01*
X56312655Y-67713163D01*
X56296705Y-67685497D01*
X56277872Y-67663537D01*
X56255218Y-67645348D01*
X56198299Y-67620266D01*
X56120625Y-67610159D01*
X56112590Y-67610087D01*
X56041946Y-67616270D01*
X56041946Y-67359082D01*
X56076732Y-67359082D01*
X56158485Y-67363722D01*
X56198033Y-67371775D01*
X56236394Y-67385652D01*
X56268013Y-67403224D01*
X56298462Y-67427061D01*
X56349994Y-67488912D01*
X56349994Y-67385460D01*
X56585832Y-67385460D01*
X56585832Y-68319250D01*
X56334909Y-68319250D01*
G37*
G36*
X55397080Y-67499051D02*
G01*
X55425363Y-67463817D01*
X55456568Y-67433580D01*
X55489250Y-67409302D01*
X55524559Y-67389735D01*
X55601856Y-67365135D01*
X55670342Y-67359082D01*
X55717009Y-67361686D01*
X55761009Y-67369359D01*
X55801924Y-67381769D01*
X55840065Y-67398760D01*
X55908155Y-67446069D01*
X55965223Y-67511181D01*
X56010172Y-67594586D01*
X56040849Y-67696582D01*
X56054410Y-67816512D01*
X56054805Y-67842051D01*
X56052206Y-67908412D01*
X56044564Y-67970606D01*
X56032356Y-68027579D01*
X56015717Y-68080278D01*
X55995293Y-68127724D01*
X55971023Y-68170824D01*
X55943639Y-68208820D01*
X55912943Y-68242402D01*
X55879586Y-68271119D01*
X55843385Y-68295325D01*
X55763600Y-68329672D01*
X55674325Y-68344928D01*
X55649569Y-68345628D01*
X55602780Y-68342991D01*
X55559242Y-68335088D01*
X55521258Y-68322807D01*
X55486394Y-68305851D01*
X55455793Y-68285048D01*
X55428301Y-68259899D01*
X55393124Y-68214066D01*
X55391310Y-68319250D01*
X55149867Y-68319250D01*
X55149867Y-67874199D01*
X55387601Y-67874199D01*
X55390177Y-67919140D01*
X55397661Y-67960900D01*
X55409720Y-67999215D01*
X55425970Y-68033626D01*
X55445748Y-68063404D01*
X55468890Y-68088694D01*
X55494267Y-68108651D01*
X55522159Y-68123734D01*
X55551248Y-68133397D01*
X55582091Y-68137915D01*
X55592856Y-68138229D01*
X55624067Y-68135633D01*
X55653404Y-68128014D01*
X55706035Y-68098403D01*
X55749730Y-68049718D01*
X55781885Y-67981743D01*
X55798584Y-67895382D01*
X55800008Y-67859032D01*
X55797357Y-67797333D01*
X55789351Y-67743169D01*
X55777881Y-67701923D01*
X55762190Y-67666446D01*
X55744419Y-67639447D01*
X55723148Y-67617112D01*
X55672923Y-67587504D01*
X55608323Y-67574639D01*
X55590960Y-67574147D01*
X55554554Y-67576789D01*
X55521697Y-67584729D01*
X55494519Y-67596787D01*
X55470391Y-67613401D01*
X55431918Y-67659357D01*
X55404389Y-67726449D01*
X55389298Y-67821829D01*
X55387601Y-67874199D01*
X55149867Y-67874199D01*
X55149867Y-67042543D01*
X55397080Y-67042543D01*
X55397080Y-67499051D01*
G37*
D12*
%TO.C,T2*%
X37600000Y-70125000D03*
%TD*%
%TO.C,T3*%
X118050000Y-66750000D03*
%TD*%
%TO.C,T4*%
X120125001Y-66750000D03*
%TD*%
%TO.C,T1*%
X35600000Y-70125000D03*
%TD*%
D13*
%TO.C,J5*%
X48900000Y-55525000D03*
X48400000Y-55525000D03*
X47900000Y-55525000D03*
X47400000Y-55525000D03*
X46900000Y-55525000D03*
X46400000Y-55525000D03*
X45900000Y-55525000D03*
X45400000Y-55525000D03*
D14*
X51200000Y-58225000D03*
X43100000Y-58225000D03*
%TD*%
D15*
%TO.C,C39*%
X76976552Y-35673320D03*
X77655374Y-34994498D03*
%TD*%
D16*
%TO.C,C19*%
X76123726Y-28726274D03*
X76576274Y-28273726D03*
%TD*%
D17*
%TO.C,U6*%
X122515234Y-38116586D03*
X122515234Y-36316586D03*
X124790234Y-36316586D03*
X124790234Y-37216586D03*
X124790234Y-38116586D03*
%TD*%
D18*
%TO.C,C7*%
X50100000Y-50645000D03*
X50100000Y-50005000D03*
%TD*%
%TO.C,C18*%
X58350000Y-58920000D03*
X58350000Y-58280000D03*
%TD*%
D19*
%TO.C,C1*%
X60876552Y-27244498D03*
X61555374Y-27923320D03*
%TD*%
D20*
%TO.C,SW10*%
X117661814Y-60529128D03*
X111861814Y-60529128D03*
X117661814Y-64529128D03*
X111861814Y-64529128D03*
%TD*%
D21*
%TO.C,R3*%
X77188020Y-38026842D03*
X76735472Y-37574294D03*
%TD*%
D22*
%TO.C,C29*%
X65666429Y-38710433D03*
X65213881Y-39162981D03*
%TD*%
D16*
%TO.C,C32*%
X78323726Y-32076274D03*
X78776274Y-31623726D03*
%TD*%
D20*
%TO.C,SW9*%
X29706260Y-60529128D03*
X23906260Y-60529128D03*
X29706260Y-64529128D03*
X23906260Y-64529128D03*
%TD*%
D23*
%TO.C,C26*%
X58155000Y-14925000D03*
X58795000Y-14925000D03*
%TD*%
D22*
%TO.C,C35*%
X64876274Y-36598726D03*
X64423726Y-37051274D03*
%TD*%
D21*
%TO.C,C33*%
X65701267Y-29063783D03*
X65248719Y-28611235D03*
%TD*%
D24*
%TO.C,U9*%
X48938830Y-67971948D03*
X47138830Y-67971948D03*
X47138830Y-65696948D03*
X48038830Y-65696948D03*
X48938830Y-65696948D03*
%TD*%
D15*
%TO.C,C23*%
X66457600Y-26492272D03*
X67136422Y-25813450D03*
%TD*%
D25*
%TO.C,J1*%
X112375000Y-67925000D03*
X111575000Y-67925000D03*
D26*
X113675000Y-69875000D03*
X110275000Y-69875000D03*
%TD*%
D22*
%TO.C,R11*%
X79792237Y-34032635D03*
X79339689Y-34485183D03*
%TD*%
D27*
%TO.C,U4*%
X55852000Y-17575000D03*
X55852000Y-17075000D03*
X55852000Y-16575000D03*
X55852000Y-16075000D03*
D28*
X56750000Y-15677000D03*
X57250000Y-15677000D03*
X57750000Y-15677000D03*
D27*
X58648000Y-16075000D03*
X58648000Y-16575000D03*
X58648000Y-17075000D03*
X58648000Y-17575000D03*
D28*
X57750000Y-17973000D03*
X57250000Y-17973000D03*
X56750000Y-17973000D03*
%TD*%
D16*
%TO.C,C31*%
X77826525Y-31582041D03*
X78279073Y-31129493D03*
%TD*%
D29*
%TO.C,C24*%
X57320000Y-14925000D03*
X56680000Y-14925000D03*
%TD*%
D27*
%TO.C,U5*%
X81502000Y-17575000D03*
X81502000Y-17075000D03*
X81502000Y-16575000D03*
X81502000Y-16075000D03*
D28*
X82400000Y-15677000D03*
X82900000Y-15677000D03*
X83400000Y-15677000D03*
D27*
X84298000Y-16075000D03*
X84298000Y-16575000D03*
X84298000Y-17075000D03*
X84298000Y-17575000D03*
D28*
X83400000Y-17973000D03*
X82900000Y-17973000D03*
X82400000Y-17973000D03*
%TD*%
D17*
%TO.C,U1*%
X110615234Y-27829086D03*
X110615234Y-26029086D03*
X112890234Y-26029086D03*
X112890234Y-26929086D03*
X112890234Y-27829086D03*
%TD*%
D16*
%TO.C,R12*%
X68373726Y-42401274D03*
X68826274Y-41948726D03*
%TD*%
D13*
%TO.C,J11*%
X55774999Y-24749999D03*
X56275001Y-24749999D03*
X56775000Y-24749999D03*
X57274999Y-24749999D03*
X57775001Y-24749999D03*
D14*
X53475002Y-22050000D03*
X60074998Y-22050000D03*
%TD*%
D23*
%TO.C,C4*%
X111430000Y-49550000D03*
X112070000Y-49550000D03*
%TD*%
D24*
%TO.C,U10*%
X40688830Y-59721948D03*
X38888830Y-59721948D03*
X38888830Y-57446948D03*
X39788830Y-57446948D03*
X40688830Y-57446948D03*
%TD*%
D13*
%TO.C,J7*%
X83249999Y-24749999D03*
X83750001Y-24749999D03*
X84250000Y-24749999D03*
X84749999Y-24749999D03*
X85250001Y-24749999D03*
D14*
X80950002Y-22050000D03*
X87549998Y-22050000D03*
%TD*%
D30*
%TO.C,U2*%
X70024657Y-39446579D03*
X69741815Y-39163736D03*
X69458972Y-38880894D03*
X69176129Y-38598051D03*
X68893287Y-38315208D03*
X68610444Y-38032366D03*
X68327601Y-37749523D03*
X68044758Y-37466680D03*
X67761916Y-37183837D03*
X67479073Y-36900995D03*
X67196230Y-36618152D03*
X66913388Y-36335309D03*
X66630545Y-36052467D03*
X66347702Y-35769624D03*
X66064859Y-35486781D03*
X65782017Y-35203938D03*
X65499174Y-34921096D03*
X65216331Y-34638253D03*
X64933489Y-34355410D03*
X64650646Y-34072568D03*
D31*
X64650646Y-32521882D03*
X64933489Y-32239040D03*
X65216331Y-31956197D03*
X65499174Y-31673354D03*
X65782017Y-31390512D03*
X66064859Y-31107669D03*
X66347702Y-30824826D03*
X66630545Y-30541983D03*
X66913388Y-30259141D03*
X67196230Y-29976298D03*
X67479073Y-29693455D03*
X67761916Y-29410613D03*
X68044758Y-29127770D03*
X68327601Y-28844927D03*
X68610444Y-28562084D03*
X68893287Y-28279242D03*
X69176129Y-27996399D03*
X69458972Y-27713556D03*
X69741815Y-27430714D03*
X70024657Y-27147871D03*
D30*
X71575343Y-27147871D03*
X71858185Y-27430714D03*
X72141028Y-27713556D03*
X72423871Y-27996399D03*
X72706713Y-28279242D03*
X72989556Y-28562084D03*
X73272399Y-28844927D03*
X73555242Y-29127770D03*
X73838084Y-29410613D03*
X74120927Y-29693455D03*
X74403770Y-29976298D03*
X74686612Y-30259141D03*
X74969455Y-30541983D03*
X75252298Y-30824826D03*
X75535141Y-31107669D03*
X75817983Y-31390512D03*
X76100826Y-31673354D03*
X76383669Y-31956197D03*
X76666511Y-32239040D03*
X76949354Y-32521882D03*
D31*
X76949354Y-34072568D03*
X76666511Y-34355410D03*
X76383669Y-34638253D03*
X76100826Y-34921096D03*
X75817983Y-35203938D03*
X75535141Y-35486781D03*
X75252298Y-35769624D03*
X74969455Y-36052467D03*
X74686612Y-36335309D03*
X74403770Y-36618152D03*
X74120927Y-36900995D03*
X73838084Y-37183837D03*
X73555242Y-37466680D03*
X73272399Y-37749523D03*
X72989556Y-38032366D03*
X72706713Y-38315208D03*
X72423871Y-38598051D03*
X72141028Y-38880894D03*
X71858185Y-39163736D03*
X71575343Y-39446579D03*
D32*
X69197225Y-33297225D03*
D33*
X69197225Y-33297225D03*
D32*
X70800000Y-34900000D03*
D33*
X70800000Y-34900000D03*
D32*
X69998613Y-34098612D03*
D33*
X69998613Y-34098612D03*
D32*
X69998613Y-32495838D03*
D33*
X69998613Y-32495838D03*
D32*
X70800000Y-33297225D03*
D33*
X70800000Y-33297225D03*
D32*
X71601387Y-34098612D03*
D33*
X71601387Y-34098612D03*
D32*
X71601387Y-32495838D03*
D33*
X71601387Y-32495838D03*
D32*
X70800000Y-31694450D03*
D33*
X70800000Y-31694450D03*
D32*
X72402775Y-33297225D03*
D33*
X72402775Y-33297225D03*
%TD*%
D34*
%TO.C,C36*%
X73800000Y-41580000D03*
X73800000Y-42220000D03*
%TD*%
D23*
%TO.C,C3*%
X111455000Y-28975000D03*
X112095000Y-28975000D03*
%TD*%
D16*
%TO.C,R13*%
X68323726Y-41451274D03*
X68776274Y-40998726D03*
%TD*%
D15*
%TO.C,C41*%
X78726552Y-33948320D03*
X79405374Y-33269498D03*
%TD*%
D16*
%TO.C,R1*%
X65339689Y-27435183D03*
X65792237Y-26982635D03*
%TD*%
D35*
%TO.C,L1*%
X78795988Y-37328884D03*
X79785938Y-36338934D03*
%TD*%
D16*
%TO.C,R14*%
X67348726Y-41426274D03*
X67801274Y-40973726D03*
%TD*%
D29*
%TO.C,C25*%
X82970000Y-14900000D03*
X82330000Y-14900000D03*
%TD*%
D23*
%TO.C,C5*%
X123355000Y-39275000D03*
X123995000Y-39275000D03*
%TD*%
D24*
%TO.C,U11*%
X57188830Y-59721948D03*
X55388830Y-59721948D03*
X55388830Y-57446948D03*
X56288830Y-57446948D03*
X57188830Y-57446948D03*
%TD*%
D18*
%TO.C,C17*%
X37725000Y-58920000D03*
X37725000Y-58280000D03*
%TD*%
D15*
%TO.C,C40*%
X77626552Y-36323320D03*
X78305374Y-35644498D03*
%TD*%
D36*
%TO.C,C37*%
X76248726Y-38073726D03*
X76701274Y-38526274D03*
%TD*%
D37*
%TO.C,C2*%
X65180374Y-24298320D03*
X64501552Y-23619498D03*
%TD*%
D18*
%TO.C,C8*%
X50100000Y-67170000D03*
X50100000Y-66530000D03*
%TD*%
D38*
%TO.C,J8*%
X67885941Y-14753117D03*
D39*
X69885942Y-14753117D03*
X71885941Y-14753117D03*
X73885941Y-14753117D03*
%TD*%
D21*
%TO.C,C34*%
X64292100Y-30458230D03*
X63839552Y-30005682D03*
%TD*%
D16*
%TO.C,C38*%
X75623726Y-28226274D03*
X76076274Y-27773726D03*
%TD*%
D21*
%TO.C,R4*%
X77688020Y-37526842D03*
X77235472Y-37074294D03*
%TD*%
D17*
%TO.C,U7*%
X98715234Y-38116586D03*
X98715234Y-36316586D03*
X100990234Y-36316586D03*
X100990234Y-37216586D03*
X100990234Y-38116586D03*
%TD*%
D13*
%TO.C,J9*%
X63059000Y-53925000D03*
X63559000Y-53925000D03*
X64059000Y-53925000D03*
X64559000Y-53925000D03*
X65059000Y-53925000D03*
X65559000Y-53925000D03*
X66059000Y-53925000D03*
X66559000Y-53925000D03*
X67059000Y-53925000D03*
X67559000Y-53925000D03*
X68059000Y-53925000D03*
X68559000Y-53925000D03*
X69059000Y-53925000D03*
X69559000Y-53925000D03*
X70059000Y-53925000D03*
X70559000Y-53925000D03*
X71059000Y-53925000D03*
D14*
X60759000Y-51225000D03*
X73359000Y-51225000D03*
%TD*%
D23*
%TO.C,C27*%
X83805000Y-14900000D03*
X84445000Y-14900000D03*
%TD*%
D22*
%TO.C,C30*%
X68050732Y-39523726D03*
X67598184Y-39976274D03*
%TD*%
D40*
%TO.C,Y1*%
X62187105Y-26485686D03*
X63742740Y-24930051D03*
X64944821Y-26132132D03*
X63389186Y-27687767D03*
%TD*%
D25*
%TO.C,J2*%
X31375000Y-68175000D03*
X30575000Y-68175000D03*
D26*
X32675000Y-70125000D03*
X29275000Y-70125000D03*
%TD*%
D23*
%TO.C,C6*%
X99530000Y-39275000D03*
X100170000Y-39275000D03*
%TD*%
D24*
%TO.C,U8*%
X48938830Y-51471948D03*
X47138830Y-51471948D03*
X47138830Y-49196948D03*
X48038830Y-49196948D03*
X48938830Y-49196948D03*
%TD*%
D41*
%TO.C,J3*%
X109900000Y-38875000D03*
X109900000Y-39375000D03*
X109900000Y-39875000D03*
X109900000Y-40375000D03*
X109900000Y-40875000D03*
X109900000Y-41375000D03*
X109900000Y-41875000D03*
X109900000Y-42375000D03*
D42*
X112600000Y-36575000D03*
X112600000Y-44675000D03*
%TD*%
D17*
%TO.C,U3*%
X110615234Y-48404086D03*
X110615234Y-46604086D03*
X112890234Y-46604086D03*
X112890234Y-47504086D03*
X112890234Y-48404086D03*
%TD*%
M02*
