%TF.GenerationSoftware,KiCad,Pcbnew,10.0.5*%
%TF.CreationDate,2026-09-21T17:54:25-07:00*%
%TF.ProjectId,PGS_Main_Board,5047535f-4d61-4696-9e5f-426f6172642e,2*%
%TF.SameCoordinates,Original*%
%TF.FileFunction,Paste,Bot*%
%TF.FilePolarity,Positive*%
%FSLAX46Y46*%
G04 Gerber Fmt 4.6, Leading zero omitted, Abs format (unit mm)*
G04 Created by KiCad (PCBNEW 10.0.5) date 2026-09-21 17:54:25*
%MOMM*%
%LPD*%
G01*
G04 APERTURE LIST*
G04 Aperture macros list*
%AMRoundRect*
0 Rectangle with rounded corners*
0 $1 Rounding radius*
0 $2 $3 $4 $5 $6 $7 $8 $9 X,Y pos of 4 corners*
0 Add a 4 corners polygon primitive as box body*
4,1,4,$2,$3,$4,$5,$6,$7,$8,$9,$2,$3,0*
0 Add four circle primitives for the rounded corners*
1,1,$1+$1,$2,$3*
1,1,$1+$1,$4,$5*
1,1,$1+$1,$6,$7*
1,1,$1+$1,$8,$9*
0 Add four rect primitives between the rounded corners*
20,1,$1+$1,$2,$3,$4,$5,0*
20,1,$1+$1,$4,$5,$6,$7,0*
20,1,$1+$1,$6,$7,$8,$9,0*
20,1,$1+$1,$8,$9,$2,$3,0*%
%AMRotRect*
0 Rectangle, with rotation*
0 The origin of the aperture is its center*
0 $1 length*
0 $2 width*
0 $3 Rotation angle, in degrees counterclockwise*
0 Add horizontal line*
21,1,$1,$2,0,0,$3*%
G04 Aperture macros list end*
%ADD10R,0.300000X1.000000*%
%ADD11R,2.000000X1.300000*%
%ADD12RoundRect,0.140000X0.021213X-0.219203X0.219203X-0.021213X-0.021213X0.219203X-0.219203X0.021213X0*%
%ADD13RoundRect,0.079500X0.014849X-0.127279X0.127279X-0.014849X-0.014849X0.127279X-0.127279X0.014849X0*%
%ADD14RoundRect,0.137500X0.525000X0.137500X-0.525000X0.137500X-0.525000X-0.137500X0.525000X-0.137500X0*%
%ADD15RoundRect,0.079500X0.100500X-0.079500X0.100500X0.079500X-0.100500X0.079500X-0.100500X-0.079500X0*%
%ADD16RoundRect,0.140000X-0.219203X-0.021213X-0.021213X-0.219203X0.219203X0.021213X0.021213X0.219203X0*%
%ADD17RoundRect,0.150000X1.250000X0.350000X-1.250000X0.350000X-1.250000X-0.350000X1.250000X-0.350000X0*%
%ADD18RoundRect,0.079500X0.127279X0.014849X0.014849X0.127279X-0.127279X-0.014849X-0.014849X-0.127279X0*%
%ADD19RoundRect,0.079500X-0.014849X0.127279X-0.127279X0.014849X0.014849X-0.127279X0.127279X-0.014849X0*%
%ADD20RoundRect,0.079500X-0.079500X-0.100500X0.079500X-0.100500X0.079500X0.100500X-0.079500X0.100500X0*%
%ADD21RoundRect,0.137500X-0.137500X0.525000X-0.137500X-0.525000X0.137500X-0.525000X0.137500X0.525000X0*%
%ADD22R,0.500000X1.000000*%
%ADD23R,1.200000X1.700000*%
%ADD24R,0.745000X0.280000*%
%ADD25R,0.280000X0.745000*%
%ADD26RoundRect,0.079500X0.079500X0.100500X-0.079500X0.100500X-0.079500X-0.100500X0.079500X-0.100500X0*%
%ADD27RoundRect,0.250000X0.000000X-0.494975X0.494975X0.000000X0.000000X0.494975X-0.494975X0.000000X0*%
%ADD28RoundRect,0.055000X-0.275772X-0.197990X-0.197990X-0.275772X0.275772X0.197990X0.197990X0.275772X0*%
%ADD29RoundRect,0.055000X0.197990X-0.275772X0.275772X-0.197990X-0.197990X0.275772X-0.275772X0.197990X0*%
%ADD30RotRect,0.133333X0.133333X45.000000*%
%ADD31RoundRect,0.079500X-0.100500X0.079500X-0.100500X-0.079500X0.100500X-0.079500X0.100500X0.079500X0*%
%ADD32RotRect,0.700000X1.700000X45.000000*%
%ADD33RoundRect,0.079500X-0.127279X-0.014849X-0.014849X-0.127279X0.127279X0.014849X0.014849X0.127279X0*%
%ADD34RoundRect,0.140000X0.219203X0.021213X0.021213X0.219203X-0.219203X-0.021213X-0.021213X-0.219203X0*%
%ADD35RotRect,1.400000X1.200000X45.000000*%
%ADD36R,1.000000X0.300000*%
%ADD37R,1.300000X2.000000*%
G04 APERTURE END LIST*
D10*
%TO.C,J5*%
X48900000Y-55525000D03*
X48400000Y-55525000D03*
X47900000Y-55525000D03*
X47400000Y-55525000D03*
X46900000Y-55525000D03*
X46400000Y-55525000D03*
X45900000Y-55525000D03*
X45400000Y-55525000D03*
D11*
X51200000Y-58225000D03*
X43100000Y-58225000D03*
%TD*%
D12*
%TO.C,C39*%
X76976552Y-35673320D03*
X77655374Y-34994498D03*
%TD*%
D13*
%TO.C,C19*%
X76106048Y-28743952D03*
X76593952Y-28256048D03*
%TD*%
D14*
%TO.C,U6*%
X122515234Y-38116586D03*
X122515234Y-36316586D03*
X124790234Y-36316586D03*
X124790234Y-37216586D03*
X124790234Y-38116586D03*
%TD*%
D15*
%TO.C,C7*%
X50100000Y-50670000D03*
X50100000Y-49980000D03*
%TD*%
%TO.C,C18*%
X58350000Y-58945000D03*
X58350000Y-58255000D03*
%TD*%
D16*
%TO.C,C1*%
X60876552Y-27244498D03*
X61555374Y-27923320D03*
%TD*%
D17*
%TO.C,SW10*%
X117661814Y-60529128D03*
X111861814Y-60529128D03*
X117661814Y-64529128D03*
X111861814Y-64529128D03*
%TD*%
D18*
%TO.C,R3*%
X77205698Y-38044520D03*
X76717794Y-37556616D03*
%TD*%
D19*
%TO.C,C29*%
X65684107Y-38692755D03*
X65196203Y-39180659D03*
%TD*%
D13*
%TO.C,C32*%
X78306048Y-32093952D03*
X78793952Y-31606048D03*
%TD*%
D17*
%TO.C,SW9*%
X29706260Y-60529128D03*
X23906260Y-60529128D03*
X29706260Y-64529128D03*
X23906260Y-64529128D03*
%TD*%
D20*
%TO.C,C26*%
X58130000Y-14925000D03*
X58820000Y-14925000D03*
%TD*%
D19*
%TO.C,C35*%
X64893952Y-36581048D03*
X64406048Y-37068952D03*
%TD*%
D18*
%TO.C,C33*%
X65718945Y-29081461D03*
X65231041Y-28593557D03*
%TD*%
D21*
%TO.C,U9*%
X48938830Y-67971948D03*
X47138830Y-67971948D03*
X47138830Y-65696948D03*
X48038830Y-65696948D03*
X48938830Y-65696948D03*
%TD*%
D12*
%TO.C,C23*%
X66457600Y-26492272D03*
X67136422Y-25813450D03*
%TD*%
D22*
%TO.C,J1*%
X112375000Y-67925000D03*
X111575000Y-67925000D03*
D23*
X113675000Y-69875000D03*
X110275000Y-69875000D03*
%TD*%
D19*
%TO.C,R11*%
X79809915Y-34014957D03*
X79322011Y-34502861D03*
%TD*%
D24*
%TO.C,U4*%
X55852000Y-17575000D03*
X55852000Y-17075000D03*
X55852000Y-16575000D03*
X55852000Y-16075000D03*
D25*
X56750000Y-15677000D03*
X57250000Y-15677000D03*
X57750000Y-15677000D03*
D24*
X58648000Y-16075000D03*
X58648000Y-16575000D03*
X58648000Y-17075000D03*
X58648000Y-17575000D03*
D25*
X57750000Y-17973000D03*
X57250000Y-17973000D03*
X56750000Y-17973000D03*
%TD*%
D13*
%TO.C,C31*%
X77808847Y-31599719D03*
X78296751Y-31111815D03*
%TD*%
D26*
%TO.C,C24*%
X57345000Y-14925000D03*
X56655000Y-14925000D03*
%TD*%
D24*
%TO.C,U5*%
X81502000Y-17575000D03*
X81502000Y-17075000D03*
X81502000Y-16575000D03*
X81502000Y-16075000D03*
D25*
X82400000Y-15677000D03*
X82900000Y-15677000D03*
X83400000Y-15677000D03*
D24*
X84298000Y-16075000D03*
X84298000Y-16575000D03*
X84298000Y-17075000D03*
X84298000Y-17575000D03*
D25*
X83400000Y-17973000D03*
X82900000Y-17973000D03*
X82400000Y-17973000D03*
%TD*%
D14*
%TO.C,U1*%
X110615234Y-27829086D03*
X110615234Y-26029086D03*
X112890234Y-26029086D03*
X112890234Y-26929086D03*
X112890234Y-27829086D03*
%TD*%
D13*
%TO.C,R12*%
X68356048Y-42418952D03*
X68843952Y-41931048D03*
%TD*%
D10*
%TO.C,J11*%
X55774999Y-24749999D03*
X56275001Y-24749999D03*
X56775000Y-24749999D03*
X57274999Y-24749999D03*
X57775001Y-24749999D03*
D11*
X53475002Y-22050000D03*
X60074998Y-22050000D03*
%TD*%
D20*
%TO.C,C4*%
X111405000Y-49550000D03*
X112095000Y-49550000D03*
%TD*%
D21*
%TO.C,U10*%
X40688830Y-59721948D03*
X38888830Y-59721948D03*
X38888830Y-57446948D03*
X39788830Y-57446948D03*
X40688830Y-57446948D03*
%TD*%
D10*
%TO.C,J7*%
X83249999Y-24749999D03*
X83750001Y-24749999D03*
X84250000Y-24749999D03*
X84749999Y-24749999D03*
X85250001Y-24749999D03*
D11*
X80950002Y-22050000D03*
X87549998Y-22050000D03*
%TD*%
D27*
%TO.C,U2*%
X69810051Y-33297225D03*
X70800000Y-34287174D03*
X70800000Y-32307276D03*
X71789949Y-33297225D03*
D28*
X70024657Y-39446579D03*
X69741815Y-39163736D03*
X69458972Y-38880894D03*
X69176129Y-38598051D03*
X68893287Y-38315208D03*
X68610444Y-38032366D03*
X68327601Y-37749523D03*
X68044758Y-37466680D03*
X67761916Y-37183837D03*
X67479073Y-36900995D03*
X67196230Y-36618152D03*
X66913388Y-36335309D03*
X66630545Y-36052467D03*
X66347702Y-35769624D03*
X66064859Y-35486781D03*
X65782017Y-35203938D03*
X65499174Y-34921096D03*
X65216331Y-34638253D03*
X64933489Y-34355410D03*
X64650646Y-34072568D03*
D29*
X64650646Y-32521882D03*
X64933489Y-32239040D03*
X65216331Y-31956197D03*
X65499174Y-31673354D03*
X65782017Y-31390512D03*
X66064859Y-31107669D03*
X66347702Y-30824826D03*
X66630545Y-30541983D03*
X66913388Y-30259141D03*
X67196230Y-29976298D03*
X67479073Y-29693455D03*
X67761916Y-29410613D03*
X68044758Y-29127770D03*
X68327601Y-28844927D03*
X68610444Y-28562084D03*
X68893287Y-28279242D03*
X69176129Y-27996399D03*
X69458972Y-27713556D03*
X69741815Y-27430714D03*
X70024657Y-27147871D03*
D28*
X71575343Y-27147871D03*
X71858185Y-27430714D03*
X72141028Y-27713556D03*
X72423871Y-27996399D03*
X72706713Y-28279242D03*
X72989556Y-28562084D03*
X73272399Y-28844927D03*
X73555242Y-29127770D03*
X73838084Y-29410613D03*
X74120927Y-29693455D03*
X74403770Y-29976298D03*
X74686612Y-30259141D03*
X74969455Y-30541983D03*
X75252298Y-30824826D03*
X75535141Y-31107669D03*
X75817983Y-31390512D03*
X76100826Y-31673354D03*
X76383669Y-31956197D03*
X76666511Y-32239040D03*
X76949354Y-32521882D03*
D29*
X76949354Y-34072568D03*
X76666511Y-34355410D03*
X76383669Y-34638253D03*
X76100826Y-34921096D03*
X75817983Y-35203938D03*
X75535141Y-35486781D03*
X75252298Y-35769624D03*
X74969455Y-36052467D03*
X74686612Y-36335309D03*
X74403770Y-36618152D03*
X74120927Y-36900995D03*
X73838084Y-37183837D03*
X73555242Y-37466680D03*
X73272399Y-37749523D03*
X72989556Y-38032366D03*
X72706713Y-38315208D03*
X72423871Y-38598051D03*
X72141028Y-38880894D03*
X71858185Y-39163736D03*
X71575343Y-39446579D03*
D30*
X69197225Y-33297225D03*
X70800000Y-34900000D03*
X69998613Y-34098612D03*
X69998613Y-32495838D03*
X70800000Y-33297225D03*
X71601387Y-34098612D03*
X71601387Y-32495838D03*
X70800000Y-31694450D03*
X72402775Y-33297225D03*
%TD*%
D31*
%TO.C,C36*%
X73800000Y-41555000D03*
X73800000Y-42245000D03*
%TD*%
D20*
%TO.C,C3*%
X111430000Y-28975000D03*
X112120000Y-28975000D03*
%TD*%
D13*
%TO.C,R13*%
X68306048Y-41468952D03*
X68793952Y-40981048D03*
%TD*%
D12*
%TO.C,C41*%
X78726552Y-33948320D03*
X79405374Y-33269498D03*
%TD*%
D13*
%TO.C,R1*%
X65322011Y-27452861D03*
X65809915Y-26964957D03*
%TD*%
D32*
%TO.C,L1*%
X78795988Y-37328884D03*
X79785938Y-36338934D03*
%TD*%
D13*
%TO.C,R14*%
X67331048Y-41443952D03*
X67818952Y-40956048D03*
%TD*%
D26*
%TO.C,C25*%
X82995000Y-14900000D03*
X82305000Y-14900000D03*
%TD*%
D20*
%TO.C,C5*%
X123330000Y-39275000D03*
X124020000Y-39275000D03*
%TD*%
D21*
%TO.C,U11*%
X57188830Y-59721948D03*
X55388830Y-59721948D03*
X55388830Y-57446948D03*
X56288830Y-57446948D03*
X57188830Y-57446948D03*
%TD*%
D15*
%TO.C,C17*%
X37725000Y-58945000D03*
X37725000Y-58255000D03*
%TD*%
D12*
%TO.C,C40*%
X77626552Y-36323320D03*
X78305374Y-35644498D03*
%TD*%
D33*
%TO.C,C37*%
X76231048Y-38056048D03*
X76718952Y-38543952D03*
%TD*%
D34*
%TO.C,C2*%
X65180374Y-24298320D03*
X64501552Y-23619498D03*
%TD*%
D15*
%TO.C,C8*%
X50100000Y-67195000D03*
X50100000Y-66505000D03*
%TD*%
D18*
%TO.C,C34*%
X64309778Y-30475908D03*
X63821874Y-29988004D03*
%TD*%
D13*
%TO.C,C38*%
X75606048Y-28243952D03*
X76093952Y-27756048D03*
%TD*%
D18*
%TO.C,R4*%
X77705698Y-37544520D03*
X77217794Y-37056616D03*
%TD*%
D14*
%TO.C,U7*%
X98715234Y-38116586D03*
X98715234Y-36316586D03*
X100990234Y-36316586D03*
X100990234Y-37216586D03*
X100990234Y-38116586D03*
%TD*%
D10*
%TO.C,J9*%
X63059000Y-53925000D03*
X63559000Y-53925000D03*
X64059000Y-53925000D03*
X64559000Y-53925000D03*
X65059000Y-53925000D03*
X65559000Y-53925000D03*
X66059000Y-53925000D03*
X66559000Y-53925000D03*
X67059000Y-53925000D03*
X67559000Y-53925000D03*
X68059000Y-53925000D03*
X68559000Y-53925000D03*
X69059000Y-53925000D03*
X69559000Y-53925000D03*
X70059000Y-53925000D03*
X70559000Y-53925000D03*
X71059000Y-53925000D03*
D11*
X60759000Y-51225000D03*
X73359000Y-51225000D03*
%TD*%
D20*
%TO.C,C27*%
X83780000Y-14900000D03*
X84470000Y-14900000D03*
%TD*%
D19*
%TO.C,C30*%
X68068410Y-39506048D03*
X67580506Y-39993952D03*
%TD*%
D35*
%TO.C,Y1*%
X62187105Y-26485686D03*
X63742740Y-24930051D03*
X64944821Y-26132132D03*
X63389186Y-27687767D03*
%TD*%
D22*
%TO.C,J2*%
X31375000Y-68175000D03*
X30575000Y-68175000D03*
D23*
X32675000Y-70125000D03*
X29275000Y-70125000D03*
%TD*%
D20*
%TO.C,C6*%
X99505000Y-39275000D03*
X100195000Y-39275000D03*
%TD*%
D21*
%TO.C,U8*%
X48938830Y-51471948D03*
X47138830Y-51471948D03*
X47138830Y-49196948D03*
X48038830Y-49196948D03*
X48938830Y-49196948D03*
%TD*%
D36*
%TO.C,J3*%
X109900000Y-38875000D03*
X109900000Y-39375000D03*
X109900000Y-39875000D03*
X109900000Y-40375000D03*
X109900000Y-40875000D03*
X109900000Y-41375000D03*
X109900000Y-41875000D03*
X109900000Y-42375000D03*
D37*
X112600000Y-36575000D03*
X112600000Y-44675000D03*
%TD*%
D14*
%TO.C,U3*%
X110615234Y-48404086D03*
X110615234Y-46604086D03*
X112890234Y-46604086D03*
X112890234Y-47504086D03*
X112890234Y-48404086D03*
%TD*%
M02*
