%TF.GenerationSoftware,KiCad,Pcbnew,10.0.5*%
%TF.CreationDate,2026-09-21T17:54:25-07:00*%
%TF.ProjectId,PGS_Main_Board,5047535f-4d61-4696-9e5f-426f6172642e,2*%
%TF.SameCoordinates,Original*%
%TF.FileFunction,Copper,L3,Inr*%
%TF.FilePolarity,Positive*%
%FSLAX46Y46*%
G04 Gerber Fmt 4.6, Leading zero omitted, Abs format (unit mm)*
G04 Created by KiCad (PCBNEW 10.0.5) date 2026-09-21 17:54:25*
%MOMM*%
%LPD*%
G01*
G04 APERTURE LIST*
%TA.AperFunction,ComponentPad*%
%ADD10R,0.850000X0.850000*%
%TD*%
%TA.AperFunction,ComponentPad*%
%ADD11C,0.600000*%
%TD*%
%TA.AperFunction,ComponentPad*%
%ADD12R,1.350000X1.350000*%
%TD*%
%TA.AperFunction,ComponentPad*%
%ADD13O,1.350000X1.350000*%
%TD*%
%TA.AperFunction,ViaPad*%
%ADD14C,0.600000*%
%TD*%
%TA.AperFunction,ViaPad*%
%ADD15C,0.650000*%
%TD*%
%TA.AperFunction,Conductor*%
%ADD16C,0.200000*%
%TD*%
%TA.AperFunction,Conductor*%
%ADD17C,0.650000*%
%TD*%
G04 APERTURE END LIST*
D10*
%TO.N,LRA_L+*%
%TO.C,T2*%
X37600000Y-70125000D03*
%TD*%
%TO.N,LRA_R-*%
%TO.C,T3*%
X118050000Y-66750000D03*
%TD*%
%TO.N,LRA_R+*%
%TO.C,T4*%
X120125001Y-66750000D03*
%TD*%
%TO.N,LRA_L-*%
%TO.C,T1*%
X35600000Y-70125000D03*
%TD*%
D11*
%TO.N,GND*%
%TO.C,U2*%
X69197225Y-33297225D03*
X70800000Y-34900000D03*
X69998613Y-34098612D03*
X69998613Y-32495838D03*
X70800000Y-33297225D03*
X71601387Y-34098612D03*
X71601387Y-32495838D03*
X70800000Y-31694450D03*
X72402775Y-33297225D03*
%TD*%
D12*
%TO.N,SWD*%
%TO.C,J8*%
X67885941Y-14753117D03*
D13*
%TO.N,SWCLK*%
X69885942Y-14753117D03*
%TO.N,GND*%
X71885941Y-14753117D03*
%TO.N,+3V3*%
X73885941Y-14753117D03*
%TD*%
D14*
%TO.N,Net-(U2-GPIO16)*%
X62275000Y-38100000D03*
%TO.N,RGB_OUT*%
X110250000Y-31275000D03*
X110300000Y-23325000D03*
%TO.N,+3V3*%
X72650000Y-52675000D03*
X59675000Y-14900000D03*
X82425000Y-25725000D03*
X49500000Y-54425000D03*
X68730529Y-52767085D03*
X54200000Y-59125000D03*
X121275000Y-38100000D03*
X125125000Y-41750000D03*
X66600000Y-47475000D03*
X124125000Y-34675000D03*
X110500000Y-49425000D03*
X113725000Y-67500000D03*
X69300000Y-52900000D03*
X81525000Y-14850000D03*
X73893343Y-40777213D03*
X80325000Y-34575000D03*
X69500000Y-37700000D03*
X109375000Y-27850000D03*
X49550000Y-52700000D03*
X66425000Y-32525000D03*
X57200000Y-60975000D03*
X47925000Y-56925000D03*
X78749508Y-32575492D03*
X55850000Y-14825000D03*
X75525000Y-27200000D03*
X85275000Y-14875000D03*
X113925000Y-43600000D03*
X44800000Y-59100000D03*
X67100000Y-34475000D03*
X113225000Y-23250000D03*
X101350000Y-41575000D03*
X97475000Y-38100000D03*
X75925896Y-37394734D03*
X101625000Y-33250000D03*
X75900000Y-52675000D03*
X49500000Y-63800000D03*
X70725000Y-28000000D03*
X110900000Y-39525000D03*
X113250000Y-51725000D03*
X55774999Y-23175000D03*
X113250000Y-31275000D03*
X26650000Y-67000000D03*
X50975000Y-67350000D03*
X40675000Y-60950000D03*
%TO.N,Net-(RGB1-DOUT)*%
X122300000Y-41525000D03*
X122250000Y-33551586D03*
%TO.N,GND*%
X73825000Y-43175000D03*
X55425000Y-56150000D03*
X68775000Y-48925000D03*
X62275000Y-28485613D03*
X47475000Y-57650000D03*
X109225000Y-56300000D03*
X66000000Y-24750000D03*
X112875000Y-49600000D03*
X79650000Y-29050000D03*
X80075000Y-16575000D03*
X54650000Y-16725000D03*
X51925000Y-45150000D03*
X122200000Y-32725000D03*
X45350000Y-56800000D03*
X37700000Y-57525000D03*
X62925000Y-38450000D03*
X59050000Y-58250000D03*
X74025000Y-50100000D03*
X114225000Y-26025000D03*
X65875000Y-70400000D03*
X112925000Y-29425000D03*
X68250000Y-55050000D03*
X76625000Y-27225000D03*
X101039676Y-39352374D03*
X61750000Y-44250000D03*
X51825000Y-56950000D03*
X67786671Y-55372942D03*
X50325000Y-49275000D03*
D15*
X78900000Y-35075000D03*
D14*
X108700000Y-40300000D03*
X38900000Y-56225000D03*
X47725000Y-61850000D03*
X85475000Y-22475000D03*
X57307992Y-54800511D03*
X63500000Y-23425000D03*
X124750000Y-39275000D03*
X89650000Y-28225000D03*
X62650000Y-50825000D03*
X43163792Y-57049535D03*
X98400000Y-32750000D03*
X66400000Y-49450000D03*
X102275000Y-36325000D03*
X59750000Y-25625000D03*
X114150000Y-46550000D03*
X72000000Y-49100000D03*
X80275000Y-32800000D03*
X98475000Y-41000000D03*
X57000000Y-62025000D03*
X66549599Y-40918294D03*
X110300000Y-43275000D03*
X48025000Y-67075000D03*
X114100000Y-56925000D03*
X46600000Y-53525000D03*
X126050000Y-36300000D03*
X46575000Y-47925000D03*
%TO.N,Net-(RGB3-DOUT)*%
X125350000Y-40875000D03*
X111425000Y-44850000D03*
X110400000Y-51825000D03*
%TO.N,LRA_L-*%
X31775000Y-66750000D03*
%TO.N,Net-(RGB5-DOUT)*%
X97875000Y-33350000D03*
X98750000Y-41725000D03*
%TO.N,LRA_L+*%
X28175000Y-66200000D03*
%TO.N,LRA_R+*%
X112375000Y-66950000D03*
%TO.N,LRA_R-*%
X110200000Y-67125000D03*
%TO.N,STICK_L_BTN_IN*%
X54075000Y-54075000D03*
%TO.N,Net-(U2-GPIO13)*%
X60850000Y-45050000D03*
%TO.N,LRA_L*%
X62175000Y-46275000D03*
%TO.N,Net-(U2-GPIO29)*%
X69509846Y-23752178D03*
%TO.N,GRIP_L_BTN*%
X31925000Y-61450000D03*
%TO.N,Net-(U2-GPIO10)*%
X62603099Y-46978042D03*
%TO.N,BTN_PWR*%
X65900000Y-67200000D03*
%TO.N,Net-(U2-GPIO9)*%
X62950000Y-47675000D03*
%TO.N,RGB_DPAD_IN*%
X63575000Y-62525000D03*
X75350000Y-49200000D03*
X74475000Y-54100000D03*
X63559000Y-55825000D03*
%TO.N,Net-(U2-GPIO15)*%
X62525000Y-39075000D03*
%TO.N,I2C1_SDA*%
X68150000Y-45100000D03*
%TO.N,GRIP_R_BTN*%
X119725000Y-61600000D03*
%TO.N,Net-(U2-GPIO32)*%
X93589284Y-31517519D03*
X71353554Y-25371446D03*
%TO.N,Net-(U2-QSPI_SS)*%
X72378595Y-37421405D03*
%TO.N,STICK_R_RGB_OUT*%
X108375000Y-38875000D03*
%TO.N,LRA_R*%
X93025000Y-32025000D03*
X70650000Y-25050000D03*
%TO.N,STICK_R_RGB_IN*%
X108700000Y-39525000D03*
%TO.N,HOME_BTN*%
X81800000Y-36725000D03*
X81800000Y-38700000D03*
%TO.N,STICK_R_BTN_IN*%
X107234281Y-32134017D03*
%TO.N,Net-(U2-GPIO33)*%
X93146931Y-30975000D03*
X72475000Y-23525000D03*
%TO.N,Net-(U2-RUN)*%
X70050000Y-28550000D03*
%TO.N,I2C1_SCL*%
X67575000Y-45772984D03*
%TO.N,Net-(U2-GPIO35)*%
X93050000Y-29950000D03*
X73525000Y-24525000D03*
%TO.N,Net-(U2-GPIO30)*%
X70199149Y-23874092D03*
%TO.N,STICK_L_RGB_IN*%
X48700000Y-58075000D03*
%TO.N,STICK_L_X_OUT*%
X76300000Y-26450000D03*
X46903034Y-56566378D03*
%TO.N,STICK_L_Y_OUT*%
X46350000Y-57025000D03*
X75575000Y-26450000D03*
%TO.N,+1V1*%
X71661808Y-30662209D03*
X73775000Y-33525000D03*
X70225000Y-36275000D03*
X69864325Y-30654178D03*
%TO.N,ABXY_EN*%
X105537500Y-29612500D03*
X73000000Y-24025000D03*
X93603902Y-30378015D03*
X95475000Y-28500000D03*
%TO.N,ADC_3*%
X40700000Y-56250000D03*
X126050000Y-38150000D03*
X83300000Y-29400000D03*
X77275000Y-22900000D03*
%TO.N,DPAD_EN*%
X54725000Y-54575000D03*
X61650000Y-45025000D03*
%TO.N,ADC_1*%
X49950000Y-65100000D03*
X74575000Y-21950000D03*
X55950000Y-26150000D03*
X114125000Y-48400000D03*
%TO.N,SPI0_RX*%
X62866583Y-35693848D03*
X55852000Y-19275000D03*
X83125000Y-20800000D03*
%TO.N,IMU0_CS*%
X61800000Y-37550000D03*
X58000000Y-18750000D03*
%TO.N,SPI0_CLK*%
X82900000Y-18925000D03*
X62300000Y-37025000D03*
X57287500Y-19912500D03*
%TO.N,SPI0_TX*%
X56475000Y-20425000D03*
X62675000Y-36400000D03*
X83105094Y-20006048D03*
%TO.N,IMU1_CS*%
X58761643Y-18686643D03*
X83625000Y-19300000D03*
X63325000Y-32250000D03*
%TO.N,ADC_2*%
X83875000Y-28875000D03*
X114125000Y-27825000D03*
X76789874Y-22238799D03*
X48950000Y-48075000D03*
%TO.N,ADC_0*%
X74475000Y-22750000D03*
X56650000Y-26025000D03*
X57200000Y-56175000D03*
X102225000Y-38100000D03*
%TO.N,T_R_EN*%
X84350000Y-22150000D03*
X68900000Y-23325000D03*
%TO.N,SWCLK*%
X72075000Y-29100000D03*
%TO.N,SWD*%
X71550000Y-28500000D03*
%TO.N,STICK_R_X_OUT*%
X94848097Y-37275515D03*
X107976026Y-40711262D03*
%TO.N,STICK_R_Y_OUT*%
X107550000Y-41375000D03*
X94875000Y-37975000D03*
%TD*%
%TO.N,RGB_OUT*%
D16*
X110300000Y-23325000D02*
X110300000Y-31225000D01*
X110300000Y-31225000D02*
X110250000Y-31275000D01*
%TO.N,Net-(RGB1-DOUT)*%
X122300000Y-41525000D02*
X122250000Y-41475000D01*
X122250000Y-41475000D02*
X122250000Y-33551586D01*
%TO.N,Net-(RGB3-DOUT)*%
X110750000Y-51825000D02*
X111425000Y-51150000D01*
X123925000Y-44850000D02*
X125825000Y-42950000D01*
X125825000Y-41350000D02*
X125350000Y-40875000D01*
X125825000Y-42950000D02*
X125825000Y-41350000D01*
X110400000Y-51825000D02*
X110750000Y-51825000D01*
X111425000Y-44850000D02*
X123925000Y-44850000D01*
X111425000Y-51150000D02*
X111425000Y-44850000D01*
%TO.N,Net-(RGB5-DOUT)*%
X99100000Y-33350000D02*
X97875000Y-33350000D01*
X99500000Y-33750000D02*
X99100000Y-33350000D01*
X99500000Y-40975000D02*
X99500000Y-33750000D01*
X98750000Y-41725000D02*
X99500000Y-40975000D01*
%TO.N,Net-(U2-GPIO32)*%
X93581803Y-31525000D02*
X93589284Y-31517519D01*
X71353554Y-25603554D02*
X77275000Y-31525000D01*
X71353554Y-25371446D02*
X71353554Y-25603554D01*
X77275000Y-31525000D02*
X93581803Y-31525000D01*
%TO.N,LRA_R*%
X77300000Y-32025000D02*
X93025000Y-32025000D01*
X70675000Y-25400000D02*
X77300000Y-32025000D01*
X70675000Y-25075000D02*
X70675000Y-25400000D01*
X70650000Y-25050000D02*
X70675000Y-25075000D01*
%TO.N,Net-(U2-GPIO33)*%
X93146931Y-30975000D02*
X77250000Y-30975000D01*
X72475000Y-26200000D02*
X72475000Y-23525000D01*
X77250000Y-30975000D02*
X72475000Y-26200000D01*
%TO.N,Net-(U2-GPIO35)*%
X93050000Y-29950000D02*
X77300000Y-29950000D01*
X77300000Y-29950000D02*
X73525000Y-26175000D01*
X73525000Y-26175000D02*
X73525000Y-24525000D01*
%TO.N,+1V1*%
D17*
X73775000Y-32775401D02*
X73775000Y-33525000D01*
X71661808Y-30661808D02*
X71275000Y-30275000D01*
X73775000Y-33775000D02*
X73775000Y-33525000D01*
X71661808Y-30662209D02*
X71661808Y-30661808D01*
X71661808Y-30662209D02*
X73775000Y-32775401D01*
X71250000Y-36300000D02*
X73775000Y-33775000D01*
X71275000Y-30275000D02*
X70243503Y-30275000D01*
X67800000Y-33850000D02*
X67800000Y-32775000D01*
X70243503Y-30275000D02*
X69864325Y-30654178D01*
X67800000Y-32775000D02*
X69864325Y-30710675D01*
X70225000Y-36275000D02*
X67800000Y-33850000D01*
X70250000Y-36300000D02*
X71250000Y-36300000D01*
X69864325Y-30710675D02*
X69864325Y-30654178D01*
%TO.N,ABXY_EN*%
D16*
X93446985Y-30378015D02*
X93350000Y-30475000D01*
X93350000Y-30475000D02*
X92542893Y-30475000D01*
X73000000Y-26200000D02*
X73000000Y-24025000D01*
X92500000Y-30475000D02*
X77275000Y-30475000D01*
X93603902Y-30378015D02*
X93446985Y-30378015D01*
X77275000Y-30475000D02*
X73000000Y-26200000D01*
%TO.N,SPI0_RX*%
X62750000Y-35577265D02*
X62866583Y-35693848D01*
X55852000Y-19275000D02*
X57650000Y-19275000D01*
X57650000Y-19275000D02*
X58175000Y-19800000D01*
X62750000Y-32150000D02*
X62750000Y-35577265D01*
X58175000Y-27575000D02*
X62750000Y-32150000D01*
X58175000Y-19800000D02*
X58175000Y-27575000D01*
%TO.N,IMU0_CS*%
X57150000Y-28200000D02*
X61600000Y-32650000D01*
X61600000Y-32650000D02*
X61600000Y-37350000D01*
X55225000Y-19125000D02*
X55225000Y-20475000D01*
X56050000Y-21300000D02*
X56500000Y-21300000D01*
X58000000Y-18750000D02*
X55600000Y-18750000D01*
X55600000Y-18750000D02*
X55225000Y-19125000D01*
X61600000Y-37350000D02*
X61800000Y-37550000D01*
X55225000Y-20475000D02*
X56050000Y-21300000D01*
X56500000Y-21300000D02*
X57150000Y-21950000D01*
X57150000Y-21950000D02*
X57150000Y-28200000D01*
%TO.N,SPI0_CLK*%
X55950000Y-20725000D02*
X56175000Y-20950000D01*
X56175000Y-20950000D02*
X56800000Y-20950000D01*
X55950000Y-20125000D02*
X55950000Y-20725000D01*
X56800000Y-20950000D02*
X57475000Y-21625000D01*
X56375000Y-19700000D02*
X55950000Y-20125000D01*
X61950000Y-36675000D02*
X62300000Y-37025000D01*
X61950000Y-32425000D02*
X61950000Y-36675000D01*
X57475000Y-27950000D02*
X61950000Y-32425000D01*
X57075000Y-19700000D02*
X56375000Y-19700000D01*
X57475000Y-21625000D02*
X57475000Y-27950000D01*
X57287500Y-19912500D02*
X57075000Y-19700000D01*
%TO.N,SPI0_TX*%
X62325000Y-36050000D02*
X62675000Y-36400000D01*
X56475000Y-20425000D02*
X57050000Y-20425000D01*
X57825000Y-21200000D02*
X57825000Y-27725000D01*
X57050000Y-20425000D02*
X57825000Y-21200000D01*
X62325000Y-32225000D02*
X62325000Y-36050000D01*
X57825000Y-27725000D02*
X62325000Y-32225000D01*
%TO.N,IMU1_CS*%
X58525000Y-18923286D02*
X58525000Y-27375000D01*
X58761643Y-18686643D02*
X58525000Y-18923286D01*
X63325000Y-32175000D02*
X63325000Y-32250000D01*
X58525000Y-27375000D02*
X63325000Y-32175000D01*
%TO.N,SWCLK*%
X69600000Y-25500000D02*
X68275000Y-25500000D01*
X72075000Y-27975000D02*
X69600000Y-25500000D01*
X68275000Y-25500000D02*
X67600000Y-24825000D01*
X69885942Y-16314058D02*
X69885942Y-14753117D01*
X67600000Y-18600000D02*
X69885942Y-16314058D01*
X67600000Y-24825000D02*
X67600000Y-18600000D01*
X72075000Y-29100000D02*
X72075000Y-27975000D01*
%TO.N,SWD*%
X71550000Y-27950000D02*
X69425000Y-25825000D01*
X68100000Y-25825000D02*
X67275000Y-25000000D01*
X67275000Y-25000000D02*
X67275000Y-18450000D01*
X67885941Y-17839059D02*
X67885941Y-14753117D01*
X71550000Y-28500000D02*
X71550000Y-27950000D01*
X67275000Y-18450000D02*
X67885941Y-17839059D01*
X69425000Y-25825000D02*
X68100000Y-25825000D01*
%TD*%
%TA.AperFunction,Conductor*%
%TO.N,+3V3*%
G36*
X61736467Y-13512106D02*
G01*
X61965752Y-13527134D01*
X61981815Y-13529250D01*
X62203151Y-13573277D01*
X62218818Y-13577475D01*
X62330232Y-13615295D01*
X62432516Y-13650016D01*
X62447493Y-13656219D01*
X62570836Y-13717045D01*
X62649898Y-13756034D01*
X62663945Y-13764144D01*
X62701434Y-13789193D01*
X62851588Y-13889523D01*
X62864449Y-13899391D01*
X62864450Y-13899393D01*
X62864452Y-13899394D01*
X63034121Y-14048190D01*
X63045590Y-14059659D01*
X63194386Y-14229328D01*
X63204259Y-14242194D01*
X63207318Y-14246773D01*
X63329636Y-14429835D01*
X63337746Y-14443882D01*
X63437558Y-14646280D01*
X63443765Y-14661266D01*
X63516305Y-14874962D01*
X63520503Y-14890629D01*
X63564530Y-15111965D01*
X63566647Y-15128041D01*
X63571637Y-15204160D01*
X63581673Y-15357281D01*
X63581938Y-15365391D01*
X63581938Y-18532666D01*
X63581929Y-18534172D01*
X63580748Y-18631302D01*
X63612783Y-18826416D01*
X63678339Y-19012954D01*
X63678343Y-19012963D01*
X63749408Y-19139064D01*
X63765335Y-19167327D01*
X63775413Y-19185209D01*
X63775419Y-19185219D01*
X63868145Y-19297931D01*
X63901033Y-19337908D01*
X64051347Y-19466365D01*
X64221754Y-19566651D01*
X64407034Y-19635693D01*
X64601513Y-19671378D01*
X64797999Y-19672605D01*
X64799234Y-19672613D01*
X64799234Y-19672612D01*
X64799235Y-19672613D01*
X64994145Y-19639359D01*
X65180272Y-19572635D01*
X65351918Y-19474484D01*
X65503824Y-19347913D01*
X65590261Y-19245478D01*
X65631335Y-19196803D01*
X65631335Y-19196801D01*
X65631338Y-19196799D01*
X65730555Y-19025768D01*
X65798437Y-18840060D01*
X65798442Y-18840036D01*
X65816262Y-18739370D01*
X65832905Y-18645361D01*
X65832927Y-18576460D01*
X65832938Y-18576436D01*
X65832938Y-18410116D01*
X67074500Y-18410116D01*
X67074500Y-25039883D01*
X67086771Y-25069507D01*
X67105024Y-25113574D01*
X67930024Y-25938574D01*
X67986426Y-25994976D01*
X68060118Y-26025500D01*
X69290588Y-26025500D01*
X69357627Y-26045185D01*
X69378269Y-26061819D01*
X71312677Y-27996227D01*
X71346162Y-28057550D01*
X71341178Y-28127242D01*
X71308082Y-28172021D01*
X71309834Y-28173773D01*
X71229520Y-28254087D01*
X71176794Y-28345410D01*
X71176793Y-28345413D01*
X71149500Y-28447273D01*
X71149500Y-28552727D01*
X71176793Y-28654587D01*
X71229520Y-28745913D01*
X71304087Y-28820480D01*
X71395413Y-28873207D01*
X71497273Y-28900500D01*
X71497275Y-28900500D01*
X71552428Y-28900500D01*
X71619467Y-28920185D01*
X71665222Y-28972989D01*
X71675367Y-29040684D01*
X71674500Y-29047270D01*
X71674500Y-29047273D01*
X71674500Y-29152727D01*
X71701793Y-29254587D01*
X71754520Y-29345913D01*
X71829087Y-29420480D01*
X71920413Y-29473207D01*
X72022273Y-29500500D01*
X72022275Y-29500500D01*
X72127725Y-29500500D01*
X72127727Y-29500500D01*
X72229587Y-29473207D01*
X72320913Y-29420480D01*
X72395480Y-29345913D01*
X72448207Y-29254587D01*
X72475500Y-29152727D01*
X72475500Y-29047273D01*
X72448207Y-28945413D01*
X72395480Y-28854087D01*
X72320913Y-28779520D01*
X72320912Y-28779519D01*
X72315166Y-28773773D01*
X72316847Y-28772091D01*
X72282803Y-28725448D01*
X72275500Y-28683522D01*
X72275500Y-27935119D01*
X72275499Y-27935116D01*
X72244976Y-27861426D01*
X72188574Y-27805024D01*
X69713574Y-25330024D01*
X69666912Y-25310696D01*
X69639883Y-25299500D01*
X69639882Y-25299500D01*
X68409412Y-25299500D01*
X68342373Y-25279815D01*
X68321731Y-25263181D01*
X68055823Y-24997273D01*
X70249500Y-24997273D01*
X70249500Y-25102727D01*
X70276793Y-25204587D01*
X70329520Y-25295913D01*
X70404087Y-25370480D01*
X70404088Y-25370481D01*
X70404090Y-25370482D01*
X70422393Y-25381049D01*
X70470610Y-25431615D01*
X70474956Y-25440983D01*
X70505024Y-25513574D01*
X77186426Y-32194976D01*
X77260118Y-32225500D01*
X77339882Y-32225500D01*
X80006289Y-32225500D01*
X80073328Y-32245185D01*
X80119083Y-32297989D01*
X80129027Y-32367147D01*
X80100002Y-32430703D01*
X80068293Y-32456884D01*
X80029837Y-32479087D01*
X80029084Y-32479522D01*
X79954521Y-32554085D01*
X79901794Y-32645410D01*
X79901793Y-32645413D01*
X79874500Y-32747273D01*
X79874500Y-32852727D01*
X79901793Y-32954587D01*
X79954520Y-33045913D01*
X80029087Y-33120480D01*
X80120413Y-33173207D01*
X80222273Y-33200500D01*
X80222275Y-33200500D01*
X80327725Y-33200500D01*
X80327727Y-33200500D01*
X80429587Y-33173207D01*
X80520913Y-33120480D01*
X80595480Y-33045913D01*
X80648207Y-32954587D01*
X80675500Y-32852727D01*
X80675500Y-32747273D01*
X80648207Y-32645413D01*
X80595480Y-32554087D01*
X80520913Y-32479520D01*
X80481708Y-32456885D01*
X80433495Y-32406320D01*
X80420273Y-32337712D01*
X80446241Y-32272848D01*
X80503155Y-32232320D01*
X80543711Y-32225500D01*
X92608524Y-32225500D01*
X92675563Y-32245185D01*
X92698058Y-32265880D01*
X92698773Y-32265166D01*
X92704520Y-32270913D01*
X92779087Y-32345480D01*
X92870413Y-32398207D01*
X92972273Y-32425500D01*
X92972275Y-32425500D01*
X93077725Y-32425500D01*
X93077727Y-32425500D01*
X93179587Y-32398207D01*
X93270913Y-32345480D01*
X93345480Y-32270913D01*
X93398207Y-32179587D01*
X93424545Y-32081290D01*
X106833781Y-32081290D01*
X106833781Y-32186744D01*
X106861074Y-32288604D01*
X106913801Y-32379930D01*
X106988368Y-32454497D01*
X107079694Y-32507224D01*
X107181554Y-32534517D01*
X107181556Y-32534517D01*
X107287006Y-32534517D01*
X107287008Y-32534517D01*
X107388868Y-32507224D01*
X107480194Y-32454497D01*
X107554761Y-32379930D01*
X107607488Y-32288604D01*
X107634781Y-32186744D01*
X107634781Y-32081290D01*
X107607488Y-31979430D01*
X107554761Y-31888104D01*
X107480194Y-31813537D01*
X107393411Y-31763433D01*
X107388870Y-31760811D01*
X107388869Y-31760810D01*
X107388868Y-31760810D01*
X107287008Y-31733517D01*
X107181554Y-31733517D01*
X107079694Y-31760810D01*
X107079691Y-31760811D01*
X106988366Y-31813538D01*
X106913802Y-31888102D01*
X106861075Y-31979427D01*
X106861074Y-31979430D01*
X106833781Y-32081290D01*
X93424545Y-32081290D01*
X93425500Y-32077727D01*
X93425500Y-32042019D01*
X93445185Y-31974980D01*
X93497989Y-31929225D01*
X93549500Y-31918019D01*
X93642009Y-31918019D01*
X93642011Y-31918019D01*
X93743871Y-31890726D01*
X93835197Y-31837999D01*
X93909764Y-31763432D01*
X93962491Y-31672106D01*
X93989784Y-31570246D01*
X93989784Y-31464792D01*
X93962491Y-31362932D01*
X93909764Y-31271606D01*
X93860431Y-31222273D01*
X109849500Y-31222273D01*
X109849500Y-31327727D01*
X109876793Y-31429587D01*
X109929520Y-31520913D01*
X110004087Y-31595480D01*
X110095413Y-31648207D01*
X110197273Y-31675500D01*
X110197275Y-31675500D01*
X110302725Y-31675500D01*
X110302727Y-31675500D01*
X110404587Y-31648207D01*
X110495913Y-31595480D01*
X110570480Y-31520913D01*
X110623207Y-31429587D01*
X110650500Y-31327727D01*
X110650500Y-31222273D01*
X110623207Y-31120413D01*
X110570480Y-31029087D01*
X110536819Y-30995426D01*
X110503334Y-30934103D01*
X110500500Y-30907745D01*
X110500500Y-29372273D01*
X112524500Y-29372273D01*
X112524500Y-29477727D01*
X112551793Y-29579587D01*
X112604520Y-29670913D01*
X112679087Y-29745480D01*
X112770413Y-29798207D01*
X112872273Y-29825500D01*
X112872275Y-29825500D01*
X112977725Y-29825500D01*
X112977727Y-29825500D01*
X113079587Y-29798207D01*
X113170913Y-29745480D01*
X113245480Y-29670913D01*
X113298207Y-29579587D01*
X113325500Y-29477727D01*
X113325500Y-29372273D01*
X113298207Y-29270413D01*
X113245480Y-29179087D01*
X113170913Y-29104520D01*
X113079587Y-29051793D01*
X112977727Y-29024500D01*
X112872273Y-29024500D01*
X112770413Y-29051793D01*
X112770410Y-29051794D01*
X112679085Y-29104521D01*
X112604521Y-29179085D01*
X112551794Y-29270410D01*
X112551793Y-29270413D01*
X112524500Y-29372273D01*
X110500500Y-29372273D01*
X110500500Y-27772273D01*
X113724500Y-27772273D01*
X113724500Y-27877727D01*
X113751793Y-27979587D01*
X113804520Y-28070913D01*
X113879087Y-28145480D01*
X113970413Y-28198207D01*
X114072273Y-28225500D01*
X114072275Y-28225500D01*
X114177725Y-28225500D01*
X114177727Y-28225500D01*
X114279587Y-28198207D01*
X114370913Y-28145480D01*
X114445480Y-28070913D01*
X114498207Y-27979587D01*
X114525500Y-27877727D01*
X114525500Y-27772273D01*
X114498207Y-27670413D01*
X114445480Y-27579087D01*
X114370913Y-27504520D01*
X114279587Y-27451793D01*
X114177727Y-27424500D01*
X114072273Y-27424500D01*
X113970413Y-27451793D01*
X113970410Y-27451794D01*
X113879085Y-27504521D01*
X113804521Y-27579085D01*
X113751794Y-27670410D01*
X113751793Y-27670413D01*
X113724500Y-27772273D01*
X110500500Y-27772273D01*
X110500500Y-25972273D01*
X113824500Y-25972273D01*
X113824500Y-26077727D01*
X113851793Y-26179587D01*
X113904520Y-26270913D01*
X113979087Y-26345480D01*
X114070413Y-26398207D01*
X114172273Y-26425500D01*
X114172275Y-26425500D01*
X114277725Y-26425500D01*
X114277727Y-26425500D01*
X114379587Y-26398207D01*
X114470913Y-26345480D01*
X114499405Y-26316987D01*
X114560724Y-26283504D01*
X114630416Y-26288488D01*
X114686350Y-26330358D01*
X114710768Y-26395822D01*
X114705965Y-26435236D01*
X114707047Y-26435496D01*
X114705909Y-26440235D01*
X114677580Y-26619096D01*
X114677580Y-26800199D01*
X114705909Y-26979058D01*
X114761867Y-27151284D01*
X114761868Y-27151287D01*
X114844086Y-27312645D01*
X114950521Y-27459142D01*
X114950525Y-27459147D01*
X115078580Y-27587202D01*
X115078585Y-27587206D01*
X115182663Y-27662822D01*
X115225086Y-27693644D01*
X115330564Y-27747388D01*
X115386440Y-27775859D01*
X115386443Y-27775860D01*
X115472556Y-27803839D01*
X115558671Y-27831819D01*
X115641509Y-27844939D01*
X115737529Y-27860148D01*
X115737534Y-27860148D01*
X115918631Y-27860148D01*
X116005339Y-27846413D01*
X116097489Y-27831819D01*
X116269719Y-27775859D01*
X116431074Y-27693644D01*
X116577581Y-27587201D01*
X116705633Y-27459149D01*
X116812076Y-27312642D01*
X116894291Y-27151287D01*
X116950251Y-26979057D01*
X116968276Y-26865251D01*
X116978580Y-26800199D01*
X116978580Y-26619096D01*
X116959724Y-26500048D01*
X116950251Y-26440239D01*
X116907673Y-26309196D01*
X116894292Y-26268011D01*
X116894291Y-26268008D01*
X116849237Y-26179586D01*
X116812076Y-26106654D01*
X116779502Y-26061819D01*
X116705638Y-25960153D01*
X116705634Y-25960148D01*
X116577579Y-25832093D01*
X116577574Y-25832089D01*
X116431077Y-25725654D01*
X116431076Y-25725653D01*
X116431074Y-25725652D01*
X116363722Y-25691334D01*
X116269719Y-25643436D01*
X116269716Y-25643435D01*
X116097490Y-25587477D01*
X115918631Y-25559148D01*
X115918626Y-25559148D01*
X115737534Y-25559148D01*
X115737529Y-25559148D01*
X115558669Y-25587477D01*
X115386443Y-25643435D01*
X115386440Y-25643436D01*
X115225082Y-25725654D01*
X115078585Y-25832089D01*
X115078580Y-25832093D01*
X114950525Y-25960148D01*
X114950521Y-25960153D01*
X114849818Y-26098760D01*
X114794488Y-26141426D01*
X114724875Y-26147405D01*
X114663080Y-26114799D01*
X114628723Y-26053961D01*
X114625500Y-26025875D01*
X114625500Y-25972275D01*
X114625500Y-25972273D01*
X114598207Y-25870413D01*
X114545480Y-25779087D01*
X114470913Y-25704520D01*
X114379587Y-25651793D01*
X114277727Y-25624500D01*
X114172273Y-25624500D01*
X114070413Y-25651793D01*
X114070410Y-25651794D01*
X113979085Y-25704521D01*
X113904521Y-25779085D01*
X113851794Y-25870410D01*
X113851793Y-25870413D01*
X113824500Y-25972273D01*
X110500500Y-25972273D01*
X110500500Y-23741476D01*
X110520185Y-23674437D01*
X110540880Y-23651941D01*
X110540166Y-23651227D01*
X110573136Y-23618257D01*
X110620480Y-23570913D01*
X110673207Y-23479587D01*
X110700500Y-23377727D01*
X110700500Y-23272273D01*
X110673207Y-23170413D01*
X110620480Y-23079087D01*
X110545913Y-23004520D01*
X110456203Y-22952726D01*
X110454589Y-22951794D01*
X110454588Y-22951793D01*
X110454587Y-22951793D01*
X110352727Y-22924500D01*
X110247273Y-22924500D01*
X110145413Y-22951793D01*
X110145410Y-22951794D01*
X110054085Y-23004521D01*
X109979521Y-23079085D01*
X109926794Y-23170410D01*
X109926793Y-23170413D01*
X109899500Y-23272273D01*
X109899500Y-23377727D01*
X109926793Y-23479587D01*
X109969531Y-23553612D01*
X109979521Y-23570914D01*
X110059834Y-23651227D01*
X110058149Y-23652911D01*
X110092187Y-23699523D01*
X110099500Y-23741476D01*
X110099500Y-30827842D01*
X110079815Y-30894881D01*
X110037501Y-30935228D01*
X110004086Y-30954520D01*
X109929521Y-31029085D01*
X109876794Y-31120410D01*
X109876793Y-31120413D01*
X109849500Y-31222273D01*
X93860431Y-31222273D01*
X93835197Y-31197039D01*
X93743871Y-31144312D01*
X93642011Y-31117019D01*
X93642010Y-31117019D01*
X93639338Y-31116303D01*
X93579677Y-31079938D01*
X93549148Y-31017091D01*
X93547431Y-30996528D01*
X93547431Y-30922280D01*
X93547431Y-30922273D01*
X93547429Y-30922266D01*
X93546873Y-30918045D01*
X93547431Y-30914464D01*
X93547431Y-30914146D01*
X93547481Y-30914146D01*
X93557633Y-30849009D01*
X93604009Y-30796749D01*
X93648787Y-30780650D01*
X93648779Y-30780618D01*
X93649164Y-30780514D01*
X93653628Y-30778910D01*
X93656626Y-30778515D01*
X93656629Y-30778515D01*
X93758489Y-30751222D01*
X93849815Y-30698495D01*
X93924382Y-30623928D01*
X93977109Y-30532602D01*
X94004402Y-30430742D01*
X94004402Y-30325288D01*
X93977109Y-30223428D01*
X93924382Y-30132102D01*
X93849815Y-30057535D01*
X93772676Y-30012999D01*
X93758491Y-30004809D01*
X93758490Y-30004808D01*
X93758489Y-30004808D01*
X93656629Y-29977515D01*
X93567149Y-29977515D01*
X93500110Y-29957830D01*
X93454355Y-29905026D01*
X93447374Y-29885608D01*
X93445469Y-29878497D01*
X93423207Y-29795413D01*
X93370480Y-29704087D01*
X93295913Y-29629520D01*
X93209430Y-29579589D01*
X93204589Y-29576794D01*
X93204588Y-29576793D01*
X93204587Y-29576793D01*
X93141067Y-29559773D01*
X105137000Y-29559773D01*
X105137000Y-29665227D01*
X105164293Y-29767087D01*
X105217020Y-29858413D01*
X105291587Y-29932980D01*
X105382913Y-29985707D01*
X105484773Y-30013000D01*
X105484775Y-30013000D01*
X105590225Y-30013000D01*
X105590227Y-30013000D01*
X105692087Y-29985707D01*
X105783413Y-29932980D01*
X105857980Y-29858413D01*
X105910707Y-29767087D01*
X105938000Y-29665227D01*
X105938000Y-29559773D01*
X105910707Y-29457913D01*
X105857980Y-29366587D01*
X105783413Y-29292020D01*
X105692087Y-29239293D01*
X105590227Y-29212000D01*
X105484773Y-29212000D01*
X105382913Y-29239293D01*
X105382910Y-29239294D01*
X105291585Y-29292021D01*
X105217021Y-29366585D01*
X105164294Y-29457910D01*
X105164293Y-29457913D01*
X105137000Y-29559773D01*
X93141067Y-29559773D01*
X93102727Y-29549500D01*
X92997273Y-29549500D01*
X92895413Y-29576793D01*
X92895410Y-29576794D01*
X92804085Y-29629521D01*
X92723773Y-29709834D01*
X92722088Y-29708149D01*
X92675477Y-29742187D01*
X92633524Y-29749500D01*
X83775448Y-29749500D01*
X83708409Y-29729815D01*
X83662654Y-29677011D01*
X83652710Y-29607853D01*
X83668060Y-29563501D01*
X83673207Y-29554587D01*
X83700500Y-29452727D01*
X83700500Y-29399500D01*
X83720185Y-29332461D01*
X83772989Y-29286706D01*
X83824500Y-29275500D01*
X83927725Y-29275500D01*
X83927727Y-29275500D01*
X84029587Y-29248207D01*
X84120913Y-29195480D01*
X84195480Y-29120913D01*
X84248207Y-29029587D01*
X84275500Y-28927727D01*
X84275500Y-28822273D01*
X84248207Y-28720413D01*
X84195480Y-28629087D01*
X84120913Y-28554520D01*
X84029587Y-28501793D01*
X83927727Y-28474500D01*
X83822273Y-28474500D01*
X83720413Y-28501793D01*
X83720410Y-28501794D01*
X83629085Y-28554521D01*
X83554521Y-28629085D01*
X83501794Y-28720410D01*
X83501793Y-28720413D01*
X83474500Y-28822273D01*
X83474500Y-28875500D01*
X83454815Y-28942539D01*
X83402011Y-28988294D01*
X83350500Y-28999500D01*
X83247273Y-28999500D01*
X83145413Y-29026793D01*
X83145410Y-29026794D01*
X83054085Y-29079521D01*
X82979521Y-29154085D01*
X82926794Y-29245410D01*
X82926793Y-29245413D01*
X82899500Y-29347273D01*
X82899500Y-29452727D01*
X82926793Y-29554587D01*
X82931939Y-29563500D01*
X82948412Y-29631400D01*
X82925560Y-29697427D01*
X82870639Y-29740617D01*
X82824552Y-29749500D01*
X77434412Y-29749500D01*
X77367373Y-29729815D01*
X77346731Y-29713181D01*
X76630823Y-28997273D01*
X79249500Y-28997273D01*
X79249500Y-29102727D01*
X79276793Y-29204587D01*
X79329520Y-29295913D01*
X79404087Y-29370480D01*
X79495413Y-29423207D01*
X79597273Y-29450500D01*
X79597275Y-29450500D01*
X79702725Y-29450500D01*
X79702727Y-29450500D01*
X79804587Y-29423207D01*
X79895913Y-29370480D01*
X79970480Y-29295913D01*
X80023207Y-29204587D01*
X80050500Y-29102727D01*
X80050500Y-28997273D01*
X80023207Y-28895413D01*
X79970480Y-28804087D01*
X79895913Y-28729520D01*
X79804587Y-28676793D01*
X79702727Y-28649500D01*
X79597273Y-28649500D01*
X79495413Y-28676793D01*
X79495410Y-28676794D01*
X79404085Y-28729521D01*
X79329521Y-28804085D01*
X79276794Y-28895410D01*
X79276793Y-28895413D01*
X79249500Y-28997273D01*
X76630823Y-28997273D01*
X75805823Y-28172273D01*
X89249500Y-28172273D01*
X89249500Y-28277727D01*
X89276793Y-28379587D01*
X89329520Y-28470913D01*
X89404087Y-28545480D01*
X89495413Y-28598207D01*
X89597273Y-28625500D01*
X89597275Y-28625500D01*
X89702725Y-28625500D01*
X89702727Y-28625500D01*
X89804587Y-28598207D01*
X89895913Y-28545480D01*
X89970480Y-28470913D01*
X90023207Y-28379587D01*
X90050500Y-28277727D01*
X90050500Y-28172273D01*
X90023207Y-28070413D01*
X89970480Y-27979087D01*
X89895913Y-27904520D01*
X89804587Y-27851793D01*
X89702727Y-27824500D01*
X89597273Y-27824500D01*
X89495413Y-27851793D01*
X89495410Y-27851794D01*
X89404085Y-27904521D01*
X89329521Y-27979085D01*
X89276794Y-28070410D01*
X89276793Y-28070413D01*
X89249500Y-28172273D01*
X75805823Y-28172273D01*
X74030823Y-26397273D01*
X75174500Y-26397273D01*
X75174500Y-26502727D01*
X75201793Y-26604587D01*
X75254520Y-26695913D01*
X75329087Y-26770480D01*
X75420413Y-26823207D01*
X75522273Y-26850500D01*
X75522275Y-26850500D01*
X75627725Y-26850500D01*
X75627727Y-26850500D01*
X75729587Y-26823207D01*
X75820913Y-26770480D01*
X75849819Y-26741574D01*
X75911142Y-26708089D01*
X75980834Y-26713073D01*
X76025181Y-26741574D01*
X76054087Y-26770480D01*
X76145413Y-26823207D01*
X76205051Y-26839186D01*
X76264711Y-26875551D01*
X76295240Y-26938397D01*
X76286946Y-27007773D01*
X76280344Y-27020961D01*
X76251794Y-27070410D01*
X76251793Y-27070413D01*
X76224500Y-27172273D01*
X76224500Y-27277727D01*
X76251793Y-27379587D01*
X76304520Y-27470913D01*
X76379087Y-27545480D01*
X76470413Y-27598207D01*
X76572273Y-27625500D01*
X76572275Y-27625500D01*
X76677725Y-27625500D01*
X76677727Y-27625500D01*
X76779587Y-27598207D01*
X76870913Y-27545480D01*
X76945480Y-27470913D01*
X76998207Y-27379587D01*
X77025500Y-27277727D01*
X77025500Y-27232471D01*
X90388622Y-27232471D01*
X90388622Y-27256421D01*
X90388622Y-27448979D01*
X90390233Y-27459149D01*
X90422492Y-27662823D01*
X90489394Y-27868731D01*
X90489395Y-27868734D01*
X90585603Y-28057550D01*
X90587689Y-28061644D01*
X90714950Y-28236803D01*
X90868044Y-28389897D01*
X91043203Y-28517158D01*
X91084771Y-28538338D01*
X91236112Y-28615451D01*
X91236115Y-28615452D01*
X91317568Y-28641917D01*
X91442025Y-28682355D01*
X91655868Y-28716225D01*
X91655869Y-28716225D01*
X91872375Y-28716225D01*
X91872376Y-28716225D01*
X92086219Y-28682355D01*
X92292131Y-28615451D01*
X92485041Y-28517158D01*
X92581229Y-28447273D01*
X95074500Y-28447273D01*
X95074500Y-28552727D01*
X95101793Y-28654587D01*
X95154520Y-28745913D01*
X95229087Y-28820480D01*
X95320413Y-28873207D01*
X95422273Y-28900500D01*
X95422275Y-28900500D01*
X95527725Y-28900500D01*
X95527727Y-28900500D01*
X95629587Y-28873207D01*
X95720913Y-28820480D01*
X95795480Y-28745913D01*
X95848207Y-28654587D01*
X95875500Y-28552727D01*
X95875500Y-28447273D01*
X95848207Y-28345413D01*
X95795480Y-28254087D01*
X95720913Y-28179520D01*
X95629587Y-28126793D01*
X95527727Y-28099500D01*
X95422273Y-28099500D01*
X95320413Y-28126793D01*
X95320410Y-28126794D01*
X95229085Y-28179521D01*
X95154521Y-28254085D01*
X95101794Y-28345410D01*
X95101793Y-28345413D01*
X95074500Y-28447273D01*
X92581229Y-28447273D01*
X92660200Y-28389897D01*
X92813294Y-28236803D01*
X92940555Y-28061644D01*
X93038848Y-27868734D01*
X93105752Y-27662822D01*
X93139622Y-27448979D01*
X93139622Y-27232471D01*
X93105752Y-27018628D01*
X93055920Y-26865259D01*
X93038849Y-26812718D01*
X93038848Y-26812715D01*
X92957996Y-26654036D01*
X92940555Y-26619806D01*
X92813294Y-26444647D01*
X92660200Y-26291553D01*
X92485041Y-26164292D01*
X92451899Y-26147405D01*
X92292131Y-26065998D01*
X92292128Y-26065997D01*
X92086220Y-25999095D01*
X91916887Y-25972275D01*
X91872376Y-25965225D01*
X91655868Y-25965225D01*
X91611357Y-25972275D01*
X91442023Y-25999095D01*
X91236115Y-26065997D01*
X91236112Y-26065998D01*
X91043202Y-26164292D01*
X90973572Y-26214882D01*
X90868044Y-26291553D01*
X90868042Y-26291555D01*
X90868041Y-26291555D01*
X90714952Y-26444644D01*
X90714952Y-26444645D01*
X90714950Y-26444647D01*
X90672754Y-26502725D01*
X90587689Y-26619805D01*
X90489395Y-26812715D01*
X90489394Y-26812718D01*
X90422492Y-27018626D01*
X90400424Y-27157958D01*
X90388622Y-27232471D01*
X77025500Y-27232471D01*
X77025500Y-27172273D01*
X76998207Y-27070413D01*
X76945480Y-26979087D01*
X76870913Y-26904520D01*
X76779589Y-26851794D01*
X76779588Y-26851793D01*
X76719948Y-26835813D01*
X76660288Y-26799447D01*
X76629759Y-26736600D01*
X76638054Y-26667225D01*
X76644645Y-26654057D01*
X76673207Y-26604587D01*
X76700500Y-26502727D01*
X76700500Y-26397273D01*
X76673207Y-26295413D01*
X76620480Y-26204087D01*
X76545913Y-26129520D01*
X76456203Y-26077726D01*
X76454589Y-26076794D01*
X76454588Y-26076793D01*
X76454587Y-26076793D01*
X76352727Y-26049500D01*
X76247273Y-26049500D01*
X76145413Y-26076793D01*
X76145410Y-26076794D01*
X76054085Y-26129521D01*
X76025181Y-26158426D01*
X75963858Y-26191911D01*
X75894166Y-26186927D01*
X75849819Y-26158426D01*
X75820914Y-26129521D01*
X75820913Y-26129520D01*
X75731203Y-26077726D01*
X75729589Y-26076794D01*
X75729588Y-26076793D01*
X75729587Y-26076793D01*
X75627727Y-26049500D01*
X75522273Y-26049500D01*
X75420413Y-26076793D01*
X75420410Y-26076794D01*
X75329085Y-26129521D01*
X75254521Y-26204085D01*
X75201794Y-26295410D01*
X75201793Y-26295413D01*
X75174500Y-26397273D01*
X74030823Y-26397273D01*
X73761819Y-26128269D01*
X73728334Y-26066946D01*
X73725500Y-26040588D01*
X73725500Y-24941476D01*
X73745185Y-24874437D01*
X73765880Y-24851941D01*
X73765166Y-24851227D01*
X73782456Y-24833937D01*
X73845480Y-24770913D01*
X73898207Y-24679587D01*
X73925500Y-24577727D01*
X73925500Y-24472273D01*
X73898207Y-24370413D01*
X73845480Y-24279087D01*
X73770913Y-24204520D01*
X73679587Y-24151793D01*
X73577727Y-24124500D01*
X73524500Y-24124500D01*
X73457461Y-24104815D01*
X73411706Y-24052011D01*
X73400500Y-24000500D01*
X73400500Y-23972275D01*
X73400500Y-23972273D01*
X73373207Y-23870413D01*
X73320480Y-23779087D01*
X73245913Y-23704520D01*
X73169803Y-23660578D01*
X73154589Y-23651794D01*
X73154588Y-23651793D01*
X73154587Y-23651793D01*
X73052727Y-23624500D01*
X72999500Y-23624500D01*
X72932461Y-23604815D01*
X72886706Y-23552011D01*
X72875500Y-23500500D01*
X72875500Y-23472275D01*
X72875500Y-23472273D01*
X72848207Y-23370413D01*
X72795480Y-23279087D01*
X72720913Y-23204520D01*
X72629587Y-23151793D01*
X72527727Y-23124500D01*
X72422273Y-23124500D01*
X72320413Y-23151793D01*
X72320410Y-23151794D01*
X72229085Y-23204521D01*
X72154521Y-23279085D01*
X72101794Y-23370410D01*
X72101793Y-23370413D01*
X72074500Y-23472273D01*
X72074500Y-23577727D01*
X72101793Y-23679587D01*
X72139836Y-23745480D01*
X72154521Y-23770914D01*
X72234834Y-23851227D01*
X72233149Y-23852911D01*
X72267187Y-23899523D01*
X72274500Y-23941476D01*
X72274500Y-25941588D01*
X72254815Y-26008627D01*
X72202011Y-26054382D01*
X72132853Y-26064326D01*
X72069297Y-26035301D01*
X72062819Y-26029269D01*
X71732849Y-25699299D01*
X71699364Y-25637976D01*
X71704348Y-25568284D01*
X71713140Y-25549623D01*
X71726761Y-25526033D01*
X71754054Y-25424173D01*
X71754054Y-25318719D01*
X71726761Y-25216859D01*
X71674034Y-25125533D01*
X71599467Y-25050966D01*
X71510135Y-24999390D01*
X71508143Y-24998240D01*
X71508142Y-24998239D01*
X71508141Y-24998239D01*
X71406281Y-24970946D01*
X71300827Y-24970946D01*
X71198957Y-24998241D01*
X71196185Y-24999390D01*
X71193660Y-24999661D01*
X71191116Y-25000343D01*
X71191009Y-24999945D01*
X71126715Y-25006853D01*
X71064239Y-24975572D01*
X71028969Y-24916919D01*
X71023207Y-24895413D01*
X70970480Y-24804087D01*
X70895913Y-24729520D01*
X70809430Y-24679589D01*
X70804589Y-24676794D01*
X70804588Y-24676793D01*
X70804587Y-24676793D01*
X70702727Y-24649500D01*
X70597273Y-24649500D01*
X70495413Y-24676793D01*
X70495410Y-24676794D01*
X70404085Y-24729521D01*
X70329521Y-24804085D01*
X70276794Y-24895410D01*
X70276793Y-24895413D01*
X70249500Y-24997273D01*
X68055823Y-24997273D01*
X67836819Y-24778269D01*
X67803334Y-24716946D01*
X67800500Y-24690588D01*
X67800500Y-23272273D01*
X68499500Y-23272273D01*
X68499500Y-23377727D01*
X68526793Y-23479587D01*
X68579520Y-23570913D01*
X68654087Y-23645480D01*
X68745413Y-23698207D01*
X68847273Y-23725500D01*
X68847275Y-23725500D01*
X68952724Y-23725500D01*
X68952727Y-23725500D01*
X68959228Y-23723758D01*
X69029075Y-23725419D01*
X69086939Y-23764580D01*
X69111096Y-23811438D01*
X69136639Y-23906765D01*
X69189366Y-23998091D01*
X69263933Y-24072658D01*
X69355259Y-24125385D01*
X69457119Y-24152678D01*
X69457121Y-24152678D01*
X69562571Y-24152678D01*
X69562573Y-24152678D01*
X69664433Y-24125385D01*
X69721582Y-24092389D01*
X69789481Y-24075916D01*
X69855508Y-24098768D01*
X69872252Y-24114927D01*
X69872922Y-24114258D01*
X69878669Y-24120005D01*
X69953236Y-24194572D01*
X70044562Y-24247299D01*
X70146422Y-24274592D01*
X70146424Y-24274592D01*
X70251874Y-24274592D01*
X70251876Y-24274592D01*
X70353736Y-24247299D01*
X70445062Y-24194572D01*
X70519629Y-24120005D01*
X70572356Y-24028679D01*
X70599649Y-23926819D01*
X70599649Y-23821365D01*
X70572356Y-23719505D01*
X70519629Y-23628179D01*
X70445062Y-23553612D01*
X70371850Y-23511343D01*
X70353738Y-23500886D01*
X70353737Y-23500885D01*
X70353736Y-23500885D01*
X70251876Y-23473592D01*
X70146422Y-23473592D01*
X70044562Y-23500885D01*
X70044557Y-23500887D01*
X69987410Y-23533880D01*
X69919510Y-23550351D01*
X69853483Y-23527498D01*
X69836741Y-23511343D01*
X69836073Y-23512012D01*
X69755760Y-23431699D01*
X69755759Y-23431698D01*
X69664433Y-23378971D01*
X69562573Y-23351678D01*
X69457119Y-23351678D01*
X69450610Y-23353422D01*
X69380760Y-23351755D01*
X69322900Y-23312589D01*
X69298750Y-23265741D01*
X69273207Y-23170413D01*
X69220480Y-23079087D01*
X69145913Y-23004520D01*
X69056203Y-22952726D01*
X69054589Y-22951794D01*
X69054588Y-22951793D01*
X69054587Y-22951793D01*
X68952727Y-22924500D01*
X68847273Y-22924500D01*
X68745413Y-22951793D01*
X68745410Y-22951794D01*
X68654085Y-23004521D01*
X68579521Y-23079085D01*
X68526794Y-23170410D01*
X68526793Y-23170413D01*
X68499500Y-23272273D01*
X67800500Y-23272273D01*
X67800500Y-22697273D01*
X74074500Y-22697273D01*
X74074500Y-22802727D01*
X74101793Y-22904587D01*
X74154520Y-22995913D01*
X74229087Y-23070480D01*
X74320413Y-23123207D01*
X74422273Y-23150500D01*
X74422275Y-23150500D01*
X74527725Y-23150500D01*
X74527727Y-23150500D01*
X74629587Y-23123207D01*
X74720913Y-23070480D01*
X74795480Y-22995913D01*
X74848207Y-22904587D01*
X74875500Y-22802727D01*
X74875500Y-22697273D01*
X74848207Y-22595413D01*
X74795480Y-22504087D01*
X74770956Y-22479563D01*
X74737471Y-22418240D01*
X74742455Y-22348548D01*
X74784327Y-22292615D01*
X74796628Y-22284500D01*
X74820913Y-22270480D01*
X74895480Y-22195913D01*
X74901162Y-22186072D01*
X76389374Y-22186072D01*
X76389374Y-22291526D01*
X76412461Y-22377686D01*
X76416667Y-22393385D01*
X76416668Y-22393388D01*
X76421765Y-22402216D01*
X76469394Y-22484712D01*
X76543961Y-22559279D01*
X76635287Y-22612006D01*
X76737147Y-22639299D01*
X76737149Y-22639299D01*
X76768627Y-22639299D01*
X76835666Y-22658984D01*
X76881421Y-22711788D01*
X76891365Y-22780946D01*
X76888405Y-22795377D01*
X76874500Y-22847273D01*
X76874500Y-22952727D01*
X76901793Y-23054587D01*
X76954520Y-23145913D01*
X77029087Y-23220480D01*
X77120413Y-23273207D01*
X77222273Y-23300500D01*
X77222275Y-23300500D01*
X77327725Y-23300500D01*
X77327727Y-23300500D01*
X77429587Y-23273207D01*
X77520913Y-23220480D01*
X77595480Y-23145913D01*
X77648207Y-23054587D01*
X77675500Y-22952727D01*
X77675500Y-22847273D01*
X77648207Y-22745413D01*
X77595480Y-22654087D01*
X77520913Y-22579520D01*
X77431203Y-22527726D01*
X77429589Y-22526794D01*
X77429588Y-22526793D01*
X77429587Y-22526793D01*
X77327727Y-22499500D01*
X77296247Y-22499500D01*
X77229208Y-22479815D01*
X77183453Y-22427011D01*
X77173509Y-22357853D01*
X77176468Y-22343421D01*
X77190374Y-22291526D01*
X77190374Y-22186072D01*
X77166581Y-22097273D01*
X83949500Y-22097273D01*
X83949500Y-22202727D01*
X83976793Y-22304587D01*
X84029520Y-22395913D01*
X84104087Y-22470480D01*
X84195413Y-22523207D01*
X84297273Y-22550500D01*
X84297275Y-22550500D01*
X84402725Y-22550500D01*
X84402727Y-22550500D01*
X84504587Y-22523207D01*
X84595913Y-22470480D01*
X84644120Y-22422273D01*
X85074500Y-22422273D01*
X85074500Y-22527727D01*
X85101793Y-22629587D01*
X85154520Y-22720913D01*
X85229087Y-22795480D01*
X85320413Y-22848207D01*
X85422273Y-22875500D01*
X85422275Y-22875500D01*
X85527725Y-22875500D01*
X85527727Y-22875500D01*
X85629587Y-22848207D01*
X85720913Y-22795480D01*
X85795480Y-22720913D01*
X85848207Y-22629587D01*
X85875500Y-22527727D01*
X85875500Y-22422273D01*
X85848207Y-22320413D01*
X85795480Y-22229087D01*
X85720913Y-22154520D01*
X85634430Y-22104589D01*
X85629589Y-22101794D01*
X85629588Y-22101793D01*
X85629587Y-22101793D01*
X85527727Y-22074500D01*
X85422273Y-22074500D01*
X85320413Y-22101793D01*
X85320410Y-22101794D01*
X85229085Y-22154521D01*
X85154521Y-22229085D01*
X85101794Y-22320410D01*
X85101793Y-22320413D01*
X85074500Y-22422273D01*
X84644120Y-22422273D01*
X84670480Y-22395913D01*
X84693558Y-22355941D01*
X84695750Y-22352145D01*
X84706886Y-22332854D01*
X84723207Y-22304587D01*
X84750500Y-22202727D01*
X84750500Y-22097273D01*
X84723207Y-21995413D01*
X84670480Y-21904087D01*
X84595913Y-21829520D01*
X84520297Y-21785863D01*
X84504589Y-21776794D01*
X84504588Y-21776793D01*
X84504587Y-21776793D01*
X84402727Y-21749500D01*
X84297273Y-21749500D01*
X84195413Y-21776793D01*
X84195410Y-21776794D01*
X84104085Y-21829521D01*
X84029521Y-21904085D01*
X83976794Y-21995410D01*
X83976793Y-21995413D01*
X83949500Y-22097273D01*
X77166581Y-22097273D01*
X77163081Y-22084212D01*
X77110354Y-21992886D01*
X77035787Y-21918319D01*
X76944461Y-21865592D01*
X76842601Y-21838299D01*
X76737147Y-21838299D01*
X76635287Y-21865592D01*
X76635284Y-21865593D01*
X76543959Y-21918320D01*
X76469395Y-21992884D01*
X76416668Y-22084209D01*
X76416668Y-22084210D01*
X76416667Y-22084212D01*
X76389374Y-22186072D01*
X74901162Y-22186072D01*
X74948207Y-22104587D01*
X74975500Y-22002727D01*
X74975500Y-21897273D01*
X74948207Y-21795413D01*
X74895480Y-21704087D01*
X74820913Y-21629520D01*
X74729587Y-21576793D01*
X74627727Y-21549500D01*
X74522273Y-21549500D01*
X74420413Y-21576793D01*
X74420410Y-21576794D01*
X74329085Y-21629521D01*
X74254521Y-21704085D01*
X74201794Y-21795410D01*
X74201793Y-21795413D01*
X74174500Y-21897273D01*
X74174500Y-22002727D01*
X74201045Y-22101793D01*
X74201793Y-22104586D01*
X74201794Y-22104589D01*
X74211407Y-22121239D01*
X74248839Y-22186074D01*
X74254521Y-22195914D01*
X74279043Y-22220436D01*
X74312528Y-22281759D01*
X74307544Y-22351451D01*
X74265672Y-22407384D01*
X74253366Y-22415502D01*
X74229085Y-22429521D01*
X74154521Y-22504085D01*
X74101794Y-22595410D01*
X74101793Y-22595413D01*
X74074500Y-22697273D01*
X67800500Y-22697273D01*
X67800500Y-18734412D01*
X67820185Y-18667373D01*
X67836819Y-18646731D01*
X68944057Y-17539493D01*
X70055918Y-16427632D01*
X70086442Y-16353940D01*
X70086442Y-16274176D01*
X70086442Y-15592316D01*
X70106127Y-15525277D01*
X70158931Y-15479522D01*
X70162990Y-15477755D01*
X70253272Y-15440359D01*
X70253272Y-15440358D01*
X70253279Y-15440356D01*
X70380294Y-15355487D01*
X70488312Y-15247469D01*
X70573181Y-15120454D01*
X70631640Y-14979322D01*
X70661442Y-14829497D01*
X70661442Y-14676737D01*
X70631640Y-14526912D01*
X70584710Y-14413613D01*
X70573182Y-14385782D01*
X70573177Y-14385773D01*
X70488312Y-14258765D01*
X70488309Y-14258761D01*
X70380297Y-14150749D01*
X70380293Y-14150746D01*
X70253285Y-14065881D01*
X70253276Y-14065876D01*
X70112147Y-14007419D01*
X70112139Y-14007417D01*
X69962326Y-13977617D01*
X69962322Y-13977617D01*
X69809562Y-13977617D01*
X69809557Y-13977617D01*
X69659744Y-14007417D01*
X69659736Y-14007419D01*
X69518607Y-14065876D01*
X69518598Y-14065881D01*
X69391590Y-14150746D01*
X69391586Y-14150749D01*
X69283574Y-14258761D01*
X69283571Y-14258765D01*
X69198706Y-14385773D01*
X69198701Y-14385782D01*
X69140244Y-14526911D01*
X69140242Y-14526919D01*
X69110442Y-14676732D01*
X69110442Y-14829501D01*
X69140242Y-14979314D01*
X69140244Y-14979322D01*
X69198701Y-15120451D01*
X69198706Y-15120460D01*
X69283571Y-15247468D01*
X69283574Y-15247472D01*
X69391586Y-15355484D01*
X69391590Y-15355487D01*
X69518598Y-15440352D01*
X69518611Y-15440359D01*
X69608894Y-15477755D01*
X69663298Y-15521596D01*
X69685363Y-15587890D01*
X69685442Y-15592316D01*
X69685442Y-16179646D01*
X69665757Y-16246685D01*
X69649123Y-16267327D01*
X68298122Y-17618328D01*
X68236799Y-17651813D01*
X68167107Y-17646829D01*
X68111174Y-17604957D01*
X68086757Y-17539493D01*
X68086441Y-17530647D01*
X68086441Y-15652616D01*
X68106126Y-15585577D01*
X68158930Y-15539822D01*
X68210441Y-15528616D01*
X68570836Y-15528616D01*
X68570839Y-15528616D01*
X68600154Y-15522786D01*
X68633398Y-15500574D01*
X68655610Y-15467330D01*
X68661441Y-15438016D01*
X68661440Y-14068219D01*
X68655610Y-14038904D01*
X68651446Y-14032672D01*
X68633398Y-14005659D01*
X68600155Y-13983449D01*
X68600156Y-13983449D01*
X68600154Y-13983448D01*
X68600152Y-13983447D01*
X68600149Y-13983446D01*
X68570842Y-13977617D01*
X67201046Y-13977617D01*
X67201038Y-13977618D01*
X67171728Y-13983447D01*
X67138483Y-14005659D01*
X67116273Y-14038902D01*
X67116270Y-14038908D01*
X67110442Y-14068209D01*
X67110441Y-14068215D01*
X67110441Y-15438011D01*
X67110442Y-15438019D01*
X67116271Y-15467329D01*
X67138483Y-15500574D01*
X67155160Y-15511716D01*
X67171728Y-15522786D01*
X67171731Y-15522786D01*
X67171732Y-15522787D01*
X67181588Y-15524747D01*
X67201042Y-15528617D01*
X67561441Y-15528616D01*
X67628480Y-15548300D01*
X67674235Y-15601104D01*
X67685441Y-15652616D01*
X67685441Y-17704647D01*
X67665756Y-17771686D01*
X67649122Y-17792328D01*
X67105025Y-18336424D01*
X67105024Y-18336425D01*
X67074500Y-18410116D01*
X65832938Y-18410116D01*
X65832938Y-15365391D01*
X65833201Y-15357312D01*
X65848230Y-15128022D01*
X65850344Y-15111970D01*
X65894374Y-14890616D01*
X65898568Y-14874966D01*
X65971111Y-14661260D01*
X65977311Y-14646289D01*
X66077131Y-14443875D01*
X66085239Y-14429835D01*
X66170606Y-14302073D01*
X66210618Y-14242190D01*
X66220482Y-14229335D01*
X66369290Y-14059652D01*
X66380748Y-14048194D01*
X66550433Y-13899384D01*
X66563290Y-13889520D01*
X66750919Y-13764151D01*
X66750931Y-13764143D01*
X66764971Y-13756035D01*
X66967385Y-13656215D01*
X66982356Y-13650015D01*
X67196065Y-13577471D01*
X67211712Y-13573278D01*
X67433066Y-13529248D01*
X67449118Y-13527134D01*
X67678409Y-13512106D01*
X67686490Y-13511842D01*
X67716788Y-13511842D01*
X73217423Y-13511842D01*
X73284462Y-13531527D01*
X73330217Y-13584331D01*
X73340161Y-13653489D01*
X73311136Y-13717045D01*
X73273721Y-13746325D01*
X73270105Y-13748167D01*
X73120486Y-13856871D01*
X73120481Y-13856875D01*
X72989699Y-13987657D01*
X72989695Y-13987662D01*
X72880993Y-14137279D01*
X72797026Y-14302073D01*
X72784490Y-14340655D01*
X72745052Y-14398330D01*
X72680693Y-14425528D01*
X72611847Y-14413613D01*
X72563457Y-14371227D01*
X72488311Y-14258765D01*
X72488308Y-14258761D01*
X72380296Y-14150749D01*
X72380292Y-14150746D01*
X72253284Y-14065881D01*
X72253275Y-14065876D01*
X72112146Y-14007419D01*
X72112138Y-14007417D01*
X71962325Y-13977617D01*
X71962321Y-13977617D01*
X71809561Y-13977617D01*
X71809556Y-13977617D01*
X71659743Y-14007417D01*
X71659735Y-14007419D01*
X71518606Y-14065876D01*
X71518597Y-14065881D01*
X71391589Y-14150746D01*
X71391585Y-14150749D01*
X71283573Y-14258761D01*
X71283570Y-14258765D01*
X71198705Y-14385773D01*
X71198700Y-14385782D01*
X71140243Y-14526911D01*
X71140241Y-14526919D01*
X71110441Y-14676732D01*
X71110441Y-14829501D01*
X71140241Y-14979314D01*
X71140243Y-14979322D01*
X71198700Y-15120451D01*
X71198705Y-15120460D01*
X71283570Y-15247468D01*
X71283573Y-15247472D01*
X71391585Y-15355484D01*
X71391589Y-15355487D01*
X71518597Y-15440352D01*
X71518603Y-15440355D01*
X71518604Y-15440356D01*
X71659736Y-15498815D01*
X71780247Y-15522786D01*
X71809556Y-15528616D01*
X71809560Y-15528617D01*
X71809561Y-15528617D01*
X71962322Y-15528617D01*
X71962323Y-15528616D01*
X72112146Y-15498815D01*
X72253278Y-15440356D01*
X72380293Y-15355487D01*
X72488311Y-15247469D01*
X72563457Y-15135006D01*
X72617069Y-15090201D01*
X72686394Y-15081494D01*
X72749422Y-15111649D01*
X72784490Y-15165579D01*
X72797024Y-15204157D01*
X72797025Y-15204160D01*
X72880993Y-15368954D01*
X72989695Y-15518571D01*
X72989699Y-15518576D01*
X73120481Y-15649358D01*
X73120486Y-15649362D01*
X73270103Y-15758064D01*
X73434897Y-15842032D01*
X73434900Y-15842033D01*
X73610786Y-15899181D01*
X73610799Y-15899184D01*
X73635941Y-15903166D01*
X73635941Y-15068803D01*
X73640335Y-15073197D01*
X73731547Y-15125858D01*
X73833280Y-15153117D01*
X73938602Y-15153117D01*
X74040335Y-15125858D01*
X74131547Y-15073197D01*
X74135941Y-15068803D01*
X74135941Y-15903165D01*
X74161082Y-15899184D01*
X74161095Y-15899181D01*
X74336981Y-15842033D01*
X74336984Y-15842032D01*
X74501778Y-15758064D01*
X74651395Y-15649362D01*
X74651400Y-15649358D01*
X74782182Y-15518576D01*
X74782186Y-15518571D01*
X74890888Y-15368954D01*
X74974856Y-15204160D01*
X74974858Y-15204154D01*
X75032008Y-15028261D01*
X75035990Y-15003117D01*
X74201627Y-15003117D01*
X74206021Y-14998723D01*
X74258682Y-14907511D01*
X74285941Y-14805778D01*
X74285941Y-14700456D01*
X74258682Y-14598723D01*
X74206021Y-14507511D01*
X74201627Y-14503117D01*
X75035991Y-14503117D01*
X75035990Y-14503116D01*
X75032008Y-14477972D01*
X74974858Y-14302079D01*
X74974856Y-14302073D01*
X74890888Y-14137279D01*
X74844308Y-14073166D01*
X74820828Y-14007360D01*
X74836654Y-13939306D01*
X74886759Y-13890611D01*
X74955237Y-13876736D01*
X75020346Y-13902085D01*
X75026385Y-13907053D01*
X75187319Y-14048188D01*
X75198788Y-14059657D01*
X75347584Y-14229326D01*
X75357457Y-14242192D01*
X75360518Y-14246774D01*
X75482834Y-14429833D01*
X75490944Y-14443880D01*
X75590758Y-14646281D01*
X75596965Y-14661266D01*
X75654071Y-14829497D01*
X75669503Y-14874956D01*
X75673701Y-14890624D01*
X75717728Y-15111963D01*
X75719845Y-15128043D01*
X75734871Y-15357280D01*
X75735137Y-15365391D01*
X75735137Y-18532933D01*
X75735128Y-18534407D01*
X75733972Y-18631569D01*
X75733972Y-18631572D01*
X75766051Y-18826669D01*
X75831642Y-19013169D01*
X75831650Y-19013186D01*
X75876826Y-19093309D01*
X75928747Y-19185396D01*
X76054384Y-19338054D01*
X76054385Y-19338055D01*
X76054387Y-19338057D01*
X76054388Y-19338058D01*
X76099561Y-19376648D01*
X76204709Y-19466473D01*
X76375118Y-19566722D01*
X76519444Y-19620478D01*
X76560293Y-19635693D01*
X76560393Y-19635730D01*
X76754856Y-19671384D01*
X76754855Y-19671384D01*
X76754861Y-19671385D01*
X76952567Y-19672595D01*
X77035500Y-19658436D01*
X77147455Y-19639323D01*
X77244088Y-19604671D01*
X77333563Y-19572586D01*
X77505186Y-19474430D01*
X77657070Y-19347860D01*
X77784566Y-19196751D01*
X77883769Y-19025731D01*
X77939857Y-18872273D01*
X82499500Y-18872273D01*
X82499500Y-18977727D01*
X82526793Y-19079587D01*
X82579520Y-19170913D01*
X82654087Y-19245480D01*
X82745413Y-19298207D01*
X82847273Y-19325500D01*
X82847275Y-19325500D01*
X82952725Y-19325500D01*
X82952727Y-19325500D01*
X83054587Y-19298207D01*
X83054595Y-19298202D01*
X83062097Y-19295096D01*
X83063271Y-19297931D01*
X83116992Y-19284879D01*
X83183026Y-19307708D01*
X83226236Y-19362614D01*
X83230907Y-19376640D01*
X83250418Y-19449455D01*
X83248755Y-19519305D01*
X83209592Y-19577167D01*
X83145363Y-19604671D01*
X83130643Y-19605548D01*
X83052367Y-19605548D01*
X82950507Y-19632841D01*
X82950504Y-19632842D01*
X82859179Y-19685569D01*
X82784615Y-19760133D01*
X82731888Y-19851458D01*
X82731887Y-19851461D01*
X82704594Y-19953321D01*
X82704594Y-20058775D01*
X82731887Y-20160635D01*
X82773655Y-20232980D01*
X82784615Y-20251962D01*
X82857949Y-20325296D01*
X82891434Y-20386619D01*
X82886450Y-20456311D01*
X82857949Y-20500658D01*
X82804521Y-20554085D01*
X82751794Y-20645410D01*
X82751793Y-20645413D01*
X82724500Y-20747273D01*
X82724500Y-20852727D01*
X82751793Y-20954587D01*
X82804520Y-21045913D01*
X82879087Y-21120480D01*
X82970413Y-21173207D01*
X83072273Y-21200500D01*
X83072275Y-21200500D01*
X83177725Y-21200500D01*
X83177727Y-21200500D01*
X83279587Y-21173207D01*
X83370913Y-21120480D01*
X83445480Y-21045913D01*
X83498207Y-20954587D01*
X83525500Y-20852727D01*
X83525500Y-20747273D01*
X83498207Y-20645413D01*
X83445480Y-20554087D01*
X83372145Y-20480752D01*
X83338660Y-20419429D01*
X83343644Y-20349737D01*
X83372145Y-20305390D01*
X83391830Y-20285705D01*
X83425574Y-20251961D01*
X83478301Y-20160635D01*
X83505594Y-20058775D01*
X83505594Y-19953321D01*
X83479676Y-19856592D01*
X83481339Y-19786743D01*
X83520502Y-19728881D01*
X83584730Y-19701377D01*
X83599451Y-19700500D01*
X83677725Y-19700500D01*
X83677727Y-19700500D01*
X83779587Y-19673207D01*
X83870913Y-19620480D01*
X83945480Y-19545913D01*
X83998207Y-19454587D01*
X84025500Y-19352727D01*
X84025500Y-19247273D01*
X83998207Y-19145413D01*
X83945480Y-19054087D01*
X83870913Y-18979520D01*
X83789569Y-18932556D01*
X83779589Y-18926794D01*
X83779588Y-18926793D01*
X83779587Y-18926793D01*
X83677727Y-18899500D01*
X83572273Y-18899500D01*
X83470413Y-18926793D01*
X83462903Y-18929904D01*
X83461734Y-18927081D01*
X83407915Y-18940115D01*
X83341897Y-18917237D01*
X83298728Y-18862299D01*
X83294093Y-18848364D01*
X83273207Y-18770413D01*
X83220480Y-18679087D01*
X83145913Y-18604520D01*
X83054587Y-18551793D01*
X82952727Y-18524500D01*
X82847273Y-18524500D01*
X82745413Y-18551793D01*
X82745410Y-18551794D01*
X82654085Y-18604521D01*
X82579521Y-18679085D01*
X82526794Y-18770410D01*
X82526793Y-18770413D01*
X82499500Y-18872273D01*
X77939857Y-18872273D01*
X77951640Y-18840036D01*
X77986103Y-18645353D01*
X77986120Y-18589834D01*
X77986136Y-18589699D01*
X77986136Y-16522273D01*
X79674500Y-16522273D01*
X79674500Y-16627727D01*
X79701793Y-16729587D01*
X79754520Y-16820913D01*
X79829087Y-16895480D01*
X79920413Y-16948207D01*
X80022273Y-16975500D01*
X80022275Y-16975500D01*
X80127725Y-16975500D01*
X80127727Y-16975500D01*
X80229587Y-16948207D01*
X80320913Y-16895480D01*
X80395480Y-16820913D01*
X80448207Y-16729587D01*
X80475500Y-16627727D01*
X80475500Y-16522273D01*
X80448207Y-16420413D01*
X80395480Y-16329087D01*
X80320913Y-16254520D01*
X80229587Y-16201793D01*
X80127727Y-16174500D01*
X80022273Y-16174500D01*
X79920413Y-16201793D01*
X79920410Y-16201794D01*
X79829085Y-16254521D01*
X79754521Y-16329085D01*
X79701794Y-16420410D01*
X79701793Y-16420413D01*
X79674500Y-16522273D01*
X77986136Y-16522273D01*
X77986136Y-15365391D01*
X77986399Y-15357312D01*
X78001428Y-15128022D01*
X78003542Y-15111970D01*
X78047572Y-14890616D01*
X78051766Y-14874966D01*
X78124309Y-14661260D01*
X78130509Y-14646289D01*
X78230329Y-14443875D01*
X78238437Y-14429835D01*
X78323804Y-14302073D01*
X78363816Y-14242190D01*
X78373680Y-14229335D01*
X78522488Y-14059652D01*
X78533946Y-14048194D01*
X78703631Y-13899384D01*
X78716488Y-13889520D01*
X78904117Y-13764151D01*
X78904129Y-13764143D01*
X78918169Y-13756035D01*
X79120583Y-13656215D01*
X79135554Y-13650015D01*
X79349263Y-13577471D01*
X79364910Y-13573278D01*
X79586264Y-13529248D01*
X79602316Y-13527134D01*
X79831607Y-13512106D01*
X79839688Y-13511842D01*
X79869986Y-13511842D01*
X91087790Y-13511842D01*
X91118088Y-13511842D01*
X91126168Y-13512106D01*
X91355457Y-13527134D01*
X91371513Y-13529249D01*
X91592862Y-13573277D01*
X91608516Y-13577472D01*
X91822215Y-13650013D01*
X91837197Y-13656218D01*
X91958144Y-13715863D01*
X92039600Y-13756033D01*
X92053646Y-13764143D01*
X92241286Y-13889519D01*
X92254151Y-13899390D01*
X92343352Y-13977617D01*
X92423823Y-14048189D01*
X92435292Y-14059658D01*
X92584088Y-14229326D01*
X92593962Y-14242195D01*
X92719338Y-14429835D01*
X92727448Y-14443881D01*
X92827262Y-14646282D01*
X92833469Y-14661268D01*
X92906007Y-14874959D01*
X92910205Y-14890626D01*
X92954231Y-15111963D01*
X92956348Y-15128043D01*
X92971374Y-15357280D01*
X92971640Y-15365391D01*
X92971640Y-23218158D01*
X92971640Y-23252509D01*
X92971619Y-23437492D01*
X92974883Y-23472275D01*
X93006180Y-23805834D01*
X93006180Y-23805836D01*
X93006181Y-23805841D01*
X93071846Y-24152677D01*
X93075005Y-24169359D01*
X93075005Y-24169361D01*
X93177481Y-24524840D01*
X93312721Y-24869200D01*
X93479538Y-25199418D01*
X93479543Y-25199427D01*
X93676477Y-25512616D01*
X93885254Y-25784480D01*
X93901816Y-25806046D01*
X94049644Y-25965225D01*
X94153257Y-26076794D01*
X94153578Y-26077139D01*
X94323957Y-26229245D01*
X94429565Y-26323527D01*
X94727368Y-26543061D01*
X95044354Y-26733798D01*
X95044357Y-26733799D01*
X95044363Y-26733803D01*
X95233019Y-26824500D01*
X95377795Y-26894102D01*
X95724727Y-27022545D01*
X95724740Y-27022549D01*
X95724750Y-27022553D01*
X96082185Y-27118029D01*
X96082194Y-27118030D01*
X96082200Y-27118032D01*
X96278919Y-27151287D01*
X96446976Y-27179697D01*
X96631547Y-27193363D01*
X96815910Y-27207015D01*
X96815919Y-27207015D01*
X96815933Y-27207016D01*
X97185828Y-27199749D01*
X97553427Y-27157958D01*
X97915514Y-27082009D01*
X98112648Y-27020961D01*
X98268904Y-26972572D01*
X98268905Y-26972571D01*
X98268923Y-26972566D01*
X98437480Y-26902494D01*
X98441982Y-26900725D01*
X98793332Y-26770686D01*
X98802601Y-26767665D01*
X99160695Y-26666356D01*
X99170184Y-26664071D01*
X99535148Y-26591254D01*
X99544755Y-26589728D01*
X99914336Y-26545854D01*
X99924021Y-26545089D01*
X100298351Y-26530338D01*
X100303234Y-26530242D01*
X102500939Y-26530242D01*
X102500948Y-26530241D01*
X102547272Y-26530241D01*
X102547279Y-26530241D01*
X102800747Y-26500049D01*
X102800750Y-26500048D01*
X102800752Y-26500048D01*
X102923109Y-26470478D01*
X103048865Y-26440087D01*
X103288149Y-26351199D01*
X103515239Y-26234632D01*
X103726948Y-26092023D01*
X103726949Y-26092021D01*
X103726952Y-26092020D01*
X103726952Y-26092019D01*
X103920302Y-25925374D01*
X104092587Y-25737024D01*
X104241384Y-25529619D01*
X104364605Y-25306069D01*
X104427683Y-25150499D01*
X104460514Y-25069527D01*
X104460514Y-25069524D01*
X104460519Y-25069514D01*
X104474051Y-25019972D01*
X104474053Y-25019969D01*
X104485098Y-24979531D01*
X104485099Y-24979531D01*
X104493663Y-24948175D01*
X104494690Y-24944627D01*
X104626565Y-24513691D01*
X104628979Y-24506581D01*
X104641800Y-24472273D01*
X104786057Y-24086230D01*
X104788900Y-24079275D01*
X104890265Y-23851227D01*
X104971180Y-23669186D01*
X104974416Y-23662462D01*
X105181233Y-23264146D01*
X105184882Y-23257611D01*
X105415440Y-22872595D01*
X105419462Y-22866317D01*
X105672951Y-22495955D01*
X105677367Y-22489906D01*
X105952813Y-22135619D01*
X105957577Y-22129860D01*
X106253355Y-21793638D01*
X106266180Y-21781035D01*
X106389633Y-21676192D01*
X106411614Y-21661262D01*
X106544608Y-21590451D01*
X106566891Y-21581244D01*
X106697232Y-21541728D01*
X106720859Y-21537011D01*
X106854307Y-21523667D01*
X106878637Y-21521234D01*
X106890975Y-21520619D01*
X116630240Y-21520619D01*
X116657565Y-21523666D01*
X116829597Y-21562533D01*
X116835675Y-21564069D01*
X116906544Y-21583896D01*
X116924049Y-21590246D01*
X117068099Y-21655122D01*
X117084446Y-21664018D01*
X117134774Y-21696526D01*
X117149604Y-21707769D01*
X117271270Y-21815312D01*
X117281846Y-21825863D01*
X117480780Y-22049866D01*
X117484124Y-22053796D01*
X117678918Y-22292615D01*
X117680496Y-22294549D01*
X117683696Y-22298646D01*
X117855053Y-22527727D01*
X117866657Y-22543239D01*
X117872044Y-22551047D01*
X117910747Y-22612006D01*
X117914755Y-22618318D01*
X117923774Y-22635309D01*
X117971676Y-22745410D01*
X117986232Y-22778865D01*
X117992516Y-22797048D01*
X118009769Y-22863214D01*
X118013164Y-22882150D01*
X118029517Y-23045515D01*
X118030134Y-23057866D01*
X118030134Y-25835440D01*
X118030137Y-25928537D01*
X118058204Y-26173011D01*
X118113970Y-26412683D01*
X118113971Y-26412688D01*
X118113973Y-26412693D01*
X118155975Y-26530338D01*
X118196714Y-26644448D01*
X118305352Y-26865259D01*
X118406513Y-27022553D01*
X118438458Y-27072224D01*
X118594305Y-27262665D01*
X118594308Y-27262668D01*
X118594309Y-27262669D01*
X118770856Y-27434087D01*
X118770864Y-27434094D01*
X118818666Y-27470914D01*
X118965807Y-27584253D01*
X119034294Y-27625500D01*
X119035294Y-27626102D01*
X119035314Y-27626116D01*
X119045561Y-27632287D01*
X119045563Y-27632289D01*
X122128910Y-29489134D01*
X122155981Y-29505437D01*
X122160611Y-29508366D01*
X122290208Y-29594454D01*
X122299064Y-29600921D01*
X122418367Y-29696402D01*
X122426629Y-29703636D01*
X122538979Y-29811176D01*
X122542902Y-29815103D01*
X122626794Y-29902929D01*
X122626799Y-29902933D01*
X122626800Y-29902934D01*
X122818030Y-30061543D01*
X122818033Y-30061545D01*
X123026264Y-30197086D01*
X123248717Y-30307747D01*
X123301348Y-30326733D01*
X123444322Y-30378310D01*
X123482433Y-30392058D01*
X123724302Y-30448896D01*
X123724308Y-30448896D01*
X123724309Y-30448897D01*
X123971106Y-30477505D01*
X123971107Y-30477505D01*
X124095336Y-30477446D01*
X124129687Y-30477446D01*
X125511762Y-30477446D01*
X125543679Y-30477446D01*
X125548553Y-30477542D01*
X125922212Y-30492241D01*
X125931916Y-30493006D01*
X126266030Y-30532602D01*
X126300846Y-30536728D01*
X126310473Y-30538254D01*
X126674821Y-30610821D01*
X126684282Y-30613094D01*
X126902583Y-30674744D01*
X127041818Y-30714065D01*
X127051088Y-30717081D01*
X127143500Y-30751220D01*
X127399592Y-30845826D01*
X127408578Y-30849554D01*
X127645876Y-30959107D01*
X127745866Y-31005269D01*
X127754548Y-31009698D01*
X128060354Y-31181216D01*
X128078578Y-31191437D01*
X128086884Y-31196535D01*
X128352009Y-31373971D01*
X128395624Y-31403160D01*
X128403503Y-31408893D01*
X128474287Y-31464792D01*
X128695059Y-31639135D01*
X128702467Y-31645473D01*
X128975226Y-31898085D01*
X128981755Y-31904600D01*
X129335226Y-32284539D01*
X129340925Y-32291112D01*
X129667045Y-32695096D01*
X129672269Y-32702053D01*
X129964081Y-33120480D01*
X129969266Y-33127914D01*
X129973989Y-33135220D01*
X130240394Y-33580855D01*
X130244593Y-33588474D01*
X130479093Y-34051680D01*
X130482748Y-34059574D01*
X130684202Y-34538104D01*
X130687294Y-34546236D01*
X130854697Y-35037701D01*
X130857211Y-35046029D01*
X130989743Y-35548022D01*
X130991667Y-35556506D01*
X131088674Y-36066547D01*
X131089999Y-36075145D01*
X131151010Y-36590755D01*
X131151727Y-36599411D01*
X131176437Y-37118020D01*
X131176545Y-37126719D01*
X131164831Y-37645778D01*
X131164330Y-37654463D01*
X131116250Y-38171430D01*
X131115141Y-38180058D01*
X131030936Y-38692371D01*
X131029225Y-38700901D01*
X130909303Y-39206062D01*
X130906998Y-39214450D01*
X130751954Y-39709953D01*
X130749066Y-39718160D01*
X130559666Y-40201564D01*
X130556211Y-40209547D01*
X130333378Y-40678495D01*
X130329370Y-40686217D01*
X130074204Y-41138386D01*
X130069666Y-41145808D01*
X129783427Y-41578972D01*
X129778379Y-41586057D01*
X129462479Y-41998078D01*
X129456947Y-42004792D01*
X129112928Y-42393659D01*
X129106939Y-42399968D01*
X128736514Y-42763746D01*
X128730097Y-42769621D01*
X128335055Y-43106550D01*
X128328242Y-43111959D01*
X127930114Y-43405916D01*
X127911291Y-43416553D01*
X127906911Y-43419479D01*
X127906909Y-43419481D01*
X127906907Y-43419483D01*
X127903692Y-43422698D01*
X127886134Y-43437282D01*
X127878736Y-43442353D01*
X127876673Y-43444587D01*
X127871289Y-43451623D01*
X127871355Y-43451667D01*
X127864569Y-43461821D01*
X127859863Y-43473182D01*
X127852854Y-43487440D01*
X127844535Y-43501935D01*
X127840450Y-43515297D01*
X127836531Y-43514099D01*
X127820881Y-43555934D01*
X127802783Y-43575331D01*
X122117467Y-48490265D01*
X122117437Y-48490291D01*
X122017586Y-48576554D01*
X122017585Y-48576556D01*
X121840541Y-48772258D01*
X121840537Y-48772263D01*
X121765122Y-48879521D01*
X121688742Y-48988150D01*
X121613291Y-49129520D01*
X121564479Y-49220977D01*
X121469614Y-49467245D01*
X121469612Y-49467250D01*
X121405571Y-49723253D01*
X121405571Y-49723256D01*
X121405570Y-49723261D01*
X121405570Y-49723263D01*
X121397118Y-49791878D01*
X121373305Y-49985189D01*
X121373347Y-50117147D01*
X121373347Y-66360523D01*
X121373110Y-66368184D01*
X121359701Y-66584799D01*
X121357811Y-66600005D01*
X121318498Y-66809532D01*
X121314748Y-66824389D01*
X121249889Y-67027480D01*
X121244334Y-67041760D01*
X121154927Y-67235292D01*
X121147654Y-67248778D01*
X121035059Y-67429809D01*
X121026178Y-67442295D01*
X120892119Y-67608053D01*
X120881766Y-67619349D01*
X120728285Y-67767311D01*
X120716618Y-67777244D01*
X120546055Y-67905149D01*
X120533252Y-67913566D01*
X120344894Y-68021361D01*
X120338127Y-68024961D01*
X112758092Y-71761320D01*
X112751898Y-71764164D01*
X112473266Y-71882953D01*
X112460456Y-71887601D01*
X112173720Y-71974118D01*
X112160477Y-71977331D01*
X111865989Y-72031860D01*
X111852474Y-72033601D01*
X111553781Y-72055488D01*
X111540156Y-72055736D01*
X111240856Y-72044714D01*
X111227289Y-72043465D01*
X111079149Y-72021567D01*
X110931013Y-71999670D01*
X110917663Y-71996940D01*
X110627976Y-71920897D01*
X110615006Y-71916718D01*
X110335412Y-71809348D01*
X110322991Y-71803777D01*
X110126722Y-71702442D01*
X110056859Y-71666371D01*
X110045113Y-71659464D01*
X109795672Y-71493690D01*
X109784762Y-71485540D01*
X109555017Y-71293396D01*
X109545060Y-71284092D01*
X109337792Y-71067905D01*
X109328916Y-71057565D01*
X109146622Y-70819940D01*
X109138934Y-70808689D01*
X108983814Y-70552495D01*
X108977408Y-70540469D01*
X108849896Y-70265700D01*
X108847205Y-70259460D01*
X107978591Y-68081645D01*
X107978590Y-68081644D01*
X107973934Y-68069970D01*
X107973899Y-68069903D01*
X107943588Y-67993944D01*
X107943585Y-67993937D01*
X107833530Y-67770921D01*
X107833529Y-67770920D01*
X107833525Y-67770911D01*
X107706223Y-67557243D01*
X107680186Y-67520480D01*
X107562482Y-67354285D01*
X107562480Y-67354283D01*
X107562474Y-67354274D01*
X107403175Y-67163267D01*
X107346439Y-67105206D01*
X107346395Y-67105150D01*
X107318712Y-67076831D01*
X107318697Y-67076816D01*
X107316252Y-67074314D01*
X107316252Y-67074313D01*
X107314258Y-67072273D01*
X109799500Y-67072273D01*
X109799500Y-67177727D01*
X109826793Y-67279587D01*
X109879520Y-67370913D01*
X109954087Y-67445480D01*
X110045413Y-67498207D01*
X110147273Y-67525500D01*
X110147275Y-67525500D01*
X110252725Y-67525500D01*
X110252727Y-67525500D01*
X110354587Y-67498207D01*
X110445913Y-67445480D01*
X110520480Y-67370913D01*
X110573207Y-67279587D01*
X110600500Y-67177727D01*
X110600500Y-67072273D01*
X110573207Y-66970413D01*
X110530980Y-66897273D01*
X111974500Y-66897273D01*
X111974500Y-67002727D01*
X112001793Y-67104587D01*
X112054520Y-67195913D01*
X112129087Y-67270480D01*
X112220413Y-67323207D01*
X112322273Y-67350500D01*
X112322275Y-67350500D01*
X112427725Y-67350500D01*
X112427727Y-67350500D01*
X112529587Y-67323207D01*
X112620913Y-67270480D01*
X112695480Y-67195913D01*
X112748207Y-67104587D01*
X112775500Y-67002727D01*
X112775500Y-66897273D01*
X112748207Y-66795413D01*
X112695480Y-66704087D01*
X112620913Y-66629520D01*
X112529587Y-66576793D01*
X112427727Y-66549500D01*
X112322273Y-66549500D01*
X112220413Y-66576793D01*
X112220410Y-66576794D01*
X112129085Y-66629521D01*
X112054521Y-66704085D01*
X112001794Y-66795410D01*
X112001793Y-66795413D01*
X111974500Y-66897273D01*
X110530980Y-66897273D01*
X110520480Y-66879087D01*
X110445913Y-66804520D01*
X110359312Y-66754521D01*
X110354589Y-66751794D01*
X110354588Y-66751793D01*
X110354587Y-66751793D01*
X110252727Y-66724500D01*
X110147273Y-66724500D01*
X110045413Y-66751793D01*
X110045410Y-66751794D01*
X109954085Y-66804521D01*
X109879521Y-66879085D01*
X109826794Y-66970410D01*
X109826793Y-66970413D01*
X109799500Y-67072273D01*
X107314258Y-67072273D01*
X107295837Y-67053430D01*
X107295835Y-67053428D01*
X107246271Y-67002725D01*
X106931832Y-66681057D01*
X106926406Y-66675133D01*
X106887266Y-66629520D01*
X106778126Y-66502330D01*
X106768478Y-66489488D01*
X106654364Y-66315098D01*
X117524500Y-66315098D01*
X117524500Y-67184894D01*
X117524501Y-67184902D01*
X117530330Y-67214212D01*
X117552542Y-67247457D01*
X117569219Y-67258599D01*
X117585787Y-67269669D01*
X117585790Y-67269669D01*
X117585791Y-67269670D01*
X117589864Y-67270480D01*
X117615101Y-67275500D01*
X118484898Y-67275499D01*
X118514213Y-67269669D01*
X118547457Y-67247457D01*
X118569669Y-67214213D01*
X118575500Y-67184899D01*
X118575499Y-66315102D01*
X118575498Y-66315098D01*
X119599501Y-66315098D01*
X119599501Y-67184894D01*
X119599502Y-67184902D01*
X119605331Y-67214212D01*
X119627543Y-67247457D01*
X119644220Y-67258599D01*
X119660788Y-67269669D01*
X119660791Y-67269669D01*
X119660792Y-67269670D01*
X119664865Y-67270480D01*
X119690102Y-67275500D01*
X120559899Y-67275499D01*
X120589214Y-67269669D01*
X120622458Y-67247457D01*
X120644670Y-67214213D01*
X120650501Y-67184899D01*
X120650500Y-66315102D01*
X120644670Y-66285787D01*
X120644669Y-66285785D01*
X120622458Y-66252542D01*
X120589215Y-66230332D01*
X120589216Y-66230332D01*
X120589214Y-66230331D01*
X120589212Y-66230330D01*
X120589209Y-66230329D01*
X120559902Y-66224500D01*
X119690106Y-66224500D01*
X119690098Y-66224501D01*
X119660788Y-66230330D01*
X119627543Y-66252542D01*
X119605333Y-66285785D01*
X119605330Y-66285791D01*
X119599501Y-66315098D01*
X118575498Y-66315098D01*
X118569669Y-66285787D01*
X118569668Y-66285785D01*
X118547457Y-66252542D01*
X118514214Y-66230332D01*
X118514215Y-66230332D01*
X118514213Y-66230331D01*
X118514211Y-66230330D01*
X118514208Y-66230329D01*
X118484901Y-66224500D01*
X117615105Y-66224500D01*
X117615097Y-66224501D01*
X117585787Y-66230330D01*
X117552542Y-66252542D01*
X117530332Y-66285785D01*
X117530329Y-66285791D01*
X117524500Y-66315098D01*
X106654364Y-66315098D01*
X106646006Y-66302325D01*
X106638095Y-66288332D01*
X106636868Y-66285791D01*
X106540866Y-66086899D01*
X106534832Y-66072000D01*
X106495760Y-65954085D01*
X106464482Y-65859690D01*
X106460426Y-65844137D01*
X106418130Y-65624492D01*
X106416123Y-65608567D01*
X106402600Y-65385300D01*
X106402670Y-65369226D01*
X106418143Y-65146087D01*
X106420292Y-65130165D01*
X106464504Y-64910905D01*
X106468696Y-64895386D01*
X106505584Y-64787234D01*
X106542200Y-64679878D01*
X106545037Y-64672368D01*
X106694375Y-64312717D01*
X106960390Y-63572166D01*
X107190030Y-62819539D01*
X107288253Y-62430705D01*
X113511314Y-62430705D01*
X113511314Y-62627550D01*
X113542104Y-62821954D01*
X113602931Y-63009157D01*
X113646693Y-63095044D01*
X113692290Y-63184533D01*
X113807986Y-63343774D01*
X113947168Y-63482956D01*
X114106409Y-63598652D01*
X114189269Y-63640871D01*
X114281784Y-63688010D01*
X114281786Y-63688010D01*
X114281789Y-63688012D01*
X114358026Y-63712783D01*
X114468987Y-63748837D01*
X114663392Y-63779628D01*
X114663397Y-63779628D01*
X114860236Y-63779628D01*
X115054640Y-63748837D01*
X115241839Y-63688012D01*
X115417219Y-63598652D01*
X115576460Y-63482956D01*
X115715642Y-63343774D01*
X115831338Y-63184533D01*
X115920698Y-63009153D01*
X115981523Y-62821954D01*
X116012314Y-62627550D01*
X116012314Y-62430705D01*
X115981523Y-62236301D01*
X115935908Y-62095914D01*
X115920698Y-62049103D01*
X115920696Y-62049100D01*
X115920696Y-62049098D01*
X115861058Y-61932053D01*
X115831338Y-61873723D01*
X115715642Y-61714482D01*
X115576460Y-61575300D01*
X115537884Y-61547273D01*
X119324500Y-61547273D01*
X119324500Y-61652727D01*
X119351793Y-61754587D01*
X119404520Y-61845913D01*
X119479087Y-61920480D01*
X119570413Y-61973207D01*
X119672273Y-62000500D01*
X119672275Y-62000500D01*
X119777725Y-62000500D01*
X119777727Y-62000500D01*
X119879587Y-61973207D01*
X119970913Y-61920480D01*
X120045480Y-61845913D01*
X120098207Y-61754587D01*
X120125500Y-61652727D01*
X120125500Y-61547273D01*
X120098207Y-61445413D01*
X120045480Y-61354087D01*
X119970913Y-61279520D01*
X119879587Y-61226793D01*
X119777727Y-61199500D01*
X119672273Y-61199500D01*
X119570413Y-61226793D01*
X119570410Y-61226794D01*
X119479085Y-61279521D01*
X119404521Y-61354085D01*
X119351794Y-61445410D01*
X119351793Y-61445413D01*
X119324500Y-61547273D01*
X115537884Y-61547273D01*
X115417219Y-61459604D01*
X115397389Y-61449500D01*
X115241843Y-61370245D01*
X115054640Y-61309418D01*
X114860236Y-61278628D01*
X114860231Y-61278628D01*
X114663397Y-61278628D01*
X114663392Y-61278628D01*
X114468987Y-61309418D01*
X114281784Y-61370245D01*
X114106408Y-61459604D01*
X114015555Y-61525613D01*
X113947168Y-61575300D01*
X113947166Y-61575302D01*
X113947165Y-61575302D01*
X113807988Y-61714479D01*
X113807988Y-61714480D01*
X113807986Y-61714482D01*
X113767302Y-61770478D01*
X113692290Y-61873722D01*
X113602931Y-62049098D01*
X113542104Y-62236301D01*
X113511314Y-62430705D01*
X107288253Y-62430705D01*
X107382749Y-62056624D01*
X107538092Y-61285230D01*
X107655688Y-60507186D01*
X107655690Y-60507163D01*
X107655693Y-60507143D01*
X107735258Y-59724367D01*
X107735261Y-59724339D01*
X107776619Y-58938547D01*
X107779667Y-58151672D01*
X107767333Y-57876793D01*
X107744397Y-57365612D01*
X107744395Y-57365586D01*
X107744069Y-57362114D01*
X107698110Y-56872273D01*
X113699500Y-56872273D01*
X113699500Y-56977727D01*
X113726793Y-57079587D01*
X113779520Y-57170913D01*
X113854087Y-57245480D01*
X113945413Y-57298207D01*
X114047273Y-57325500D01*
X114047275Y-57325500D01*
X114152725Y-57325500D01*
X114152727Y-57325500D01*
X114254587Y-57298207D01*
X114345913Y-57245480D01*
X114420480Y-57170913D01*
X114473207Y-57079587D01*
X114500500Y-56977727D01*
X114500500Y-56872273D01*
X114473207Y-56770413D01*
X114420480Y-56679087D01*
X114345913Y-56604520D01*
X114279059Y-56565922D01*
X114254589Y-56551794D01*
X114254588Y-56551793D01*
X114254587Y-56551793D01*
X114152727Y-56524500D01*
X114047273Y-56524500D01*
X113945413Y-56551793D01*
X113945410Y-56551794D01*
X113854085Y-56604521D01*
X113779521Y-56679085D01*
X113726794Y-56770410D01*
X113726793Y-56770413D01*
X113699500Y-56872273D01*
X107698110Y-56872273D01*
X107670888Y-56582143D01*
X107622924Y-56247273D01*
X108824500Y-56247273D01*
X108824500Y-56352727D01*
X108848013Y-56440477D01*
X108851793Y-56454586D01*
X108851794Y-56454589D01*
X108860968Y-56470478D01*
X108904520Y-56545913D01*
X108979087Y-56620480D01*
X109070413Y-56673207D01*
X109172273Y-56700500D01*
X109172275Y-56700500D01*
X109277725Y-56700500D01*
X109277727Y-56700500D01*
X109379587Y-56673207D01*
X109470913Y-56620480D01*
X109545480Y-56545913D01*
X109598207Y-56454587D01*
X109625500Y-56352727D01*
X109625500Y-56247273D01*
X109598207Y-56145413D01*
X109545480Y-56054087D01*
X109470913Y-55979520D01*
X109384312Y-55929521D01*
X109379589Y-55926794D01*
X109379588Y-55926793D01*
X109379587Y-55926793D01*
X109277727Y-55899500D01*
X109172273Y-55899500D01*
X109070413Y-55926793D01*
X109070410Y-55926794D01*
X108979085Y-55979521D01*
X108904521Y-56054085D01*
X108851794Y-56145410D01*
X108851793Y-56145413D01*
X108824500Y-56247273D01*
X107622924Y-56247273D01*
X107559321Y-55803212D01*
X107409958Y-55030638D01*
X107300897Y-54584374D01*
X107223158Y-54266273D01*
X107223157Y-54266270D01*
X107223153Y-54266253D01*
X106999349Y-53511871D01*
X106739078Y-52769281D01*
X106442957Y-52040245D01*
X106365430Y-51873206D01*
X106339042Y-51816349D01*
X106318585Y-51772273D01*
X109999500Y-51772273D01*
X109999500Y-51877727D01*
X110026793Y-51979587D01*
X110079520Y-52070913D01*
X110154087Y-52145480D01*
X110245413Y-52198207D01*
X110347273Y-52225500D01*
X110347275Y-52225500D01*
X110452725Y-52225500D01*
X110452727Y-52225500D01*
X110554587Y-52198207D01*
X110645913Y-52145480D01*
X110720480Y-52070913D01*
X110720486Y-52070901D01*
X110720685Y-52070644D01*
X110720922Y-52070470D01*
X110726227Y-52065166D01*
X110727053Y-52065992D01*
X110777110Y-52029438D01*
X110787006Y-52026690D01*
X110789879Y-52025500D01*
X110789882Y-52025500D01*
X110863574Y-51994976D01*
X111594976Y-51263574D01*
X111625500Y-51189882D01*
X111625500Y-51110118D01*
X111625500Y-49547273D01*
X112474500Y-49547273D01*
X112474500Y-49652727D01*
X112501793Y-49754587D01*
X112554520Y-49845913D01*
X112629087Y-49920480D01*
X112720413Y-49973207D01*
X112822273Y-50000500D01*
X112822275Y-50000500D01*
X112927725Y-50000500D01*
X112927727Y-50000500D01*
X113029587Y-49973207D01*
X113120913Y-49920480D01*
X113195480Y-49845913D01*
X113248207Y-49754587D01*
X113275500Y-49652727D01*
X113275500Y-49547273D01*
X113248207Y-49445413D01*
X113195480Y-49354087D01*
X113120913Y-49279520D01*
X113029587Y-49226793D01*
X112927727Y-49199500D01*
X112822273Y-49199500D01*
X112720413Y-49226793D01*
X112720410Y-49226794D01*
X112629085Y-49279521D01*
X112554521Y-49354085D01*
X112501794Y-49445410D01*
X112501793Y-49445413D01*
X112474500Y-49547273D01*
X111625500Y-49547273D01*
X111625500Y-48347273D01*
X113724500Y-48347273D01*
X113724500Y-48452727D01*
X113751793Y-48554587D01*
X113804520Y-48645913D01*
X113879087Y-48720480D01*
X113970413Y-48773207D01*
X114072273Y-48800500D01*
X114072275Y-48800500D01*
X114177725Y-48800500D01*
X114177727Y-48800500D01*
X114279587Y-48773207D01*
X114370913Y-48720480D01*
X114445480Y-48645913D01*
X114498207Y-48554587D01*
X114525500Y-48452727D01*
X114525500Y-48347273D01*
X114498207Y-48245413D01*
X114445480Y-48154087D01*
X114370913Y-48079520D01*
X114279587Y-48026793D01*
X114177727Y-47999500D01*
X114072273Y-47999500D01*
X113970413Y-48026793D01*
X113970410Y-48026794D01*
X113879085Y-48079521D01*
X113804521Y-48154085D01*
X113751794Y-48245410D01*
X113751793Y-48245413D01*
X113724500Y-48347273D01*
X111625500Y-48347273D01*
X111625500Y-46497273D01*
X113749500Y-46497273D01*
X113749500Y-46602727D01*
X113776793Y-46704587D01*
X113829520Y-46795913D01*
X113904087Y-46870480D01*
X113995413Y-46923207D01*
X114097273Y-46950500D01*
X114097275Y-46950500D01*
X114202725Y-46950500D01*
X114202727Y-46950500D01*
X114304587Y-46923207D01*
X114395913Y-46870480D01*
X114470480Y-46795913D01*
X114523207Y-46704587D01*
X114550500Y-46602727D01*
X114550500Y-46497273D01*
X114523207Y-46395413D01*
X114470480Y-46304087D01*
X114395913Y-46229520D01*
X114322879Y-46187354D01*
X114304589Y-46176794D01*
X114304588Y-46176793D01*
X114304587Y-46176793D01*
X114202727Y-46149500D01*
X114097273Y-46149500D01*
X113995413Y-46176793D01*
X113995410Y-46176794D01*
X113904085Y-46229521D01*
X113829521Y-46304085D01*
X113776794Y-46395410D01*
X113776793Y-46395413D01*
X113749500Y-46497273D01*
X111625500Y-46497273D01*
X111625500Y-45266476D01*
X111645185Y-45199437D01*
X111665880Y-45176941D01*
X111665166Y-45176227D01*
X111751227Y-45090166D01*
X111752911Y-45091850D01*
X111799523Y-45057813D01*
X111841476Y-45050500D01*
X123964880Y-45050500D01*
X123964882Y-45050500D01*
X124038574Y-45019976D01*
X125994976Y-43063574D01*
X126025500Y-42989882D01*
X126025500Y-42910118D01*
X126025500Y-41310118D01*
X125994976Y-41236426D01*
X125938574Y-41180024D01*
X125931516Y-41172966D01*
X125931508Y-41172959D01*
X125786266Y-41027716D01*
X125752783Y-40966395D01*
X125751511Y-40935854D01*
X125750500Y-40935854D01*
X125750500Y-40822275D01*
X125750500Y-40822273D01*
X125723207Y-40720413D01*
X125670480Y-40629087D01*
X125595913Y-40554520D01*
X125504587Y-40501793D01*
X125402727Y-40474500D01*
X125297273Y-40474500D01*
X125195413Y-40501793D01*
X125195410Y-40501794D01*
X125104085Y-40554521D01*
X125029521Y-40629085D01*
X124976794Y-40720410D01*
X124976793Y-40720413D01*
X124949500Y-40822273D01*
X124949500Y-40927727D01*
X124976793Y-41029587D01*
X125029520Y-41120913D01*
X125104087Y-41195480D01*
X125195413Y-41248207D01*
X125297273Y-41275500D01*
X125297275Y-41275500D01*
X125410854Y-41275500D01*
X125410854Y-41277883D01*
X125467879Y-41286772D01*
X125502715Y-41311265D01*
X125588182Y-41396731D01*
X125621666Y-41458052D01*
X125624500Y-41484411D01*
X125624500Y-42815588D01*
X125604815Y-42882627D01*
X125588181Y-42903269D01*
X123878269Y-44613181D01*
X123816946Y-44646666D01*
X123790588Y-44649500D01*
X111841476Y-44649500D01*
X111774437Y-44629815D01*
X111751941Y-44609119D01*
X111751227Y-44609834D01*
X111670914Y-44529521D01*
X111670913Y-44529520D01*
X111579587Y-44476793D01*
X111477727Y-44449500D01*
X111372273Y-44449500D01*
X111270413Y-44476793D01*
X111270410Y-44476794D01*
X111179085Y-44529521D01*
X111104521Y-44604085D01*
X111051794Y-44695410D01*
X111051793Y-44695413D01*
X111024500Y-44797273D01*
X111024500Y-44902727D01*
X111051793Y-45004587D01*
X111102174Y-45091850D01*
X111104521Y-45095914D01*
X111184834Y-45176227D01*
X111183149Y-45177911D01*
X111217187Y-45224523D01*
X111224500Y-45266476D01*
X111224500Y-51015587D01*
X111204815Y-51082626D01*
X111188181Y-51103268D01*
X110802593Y-51488855D01*
X110741270Y-51522340D01*
X110671578Y-51517356D01*
X110652912Y-51508561D01*
X110554589Y-51451794D01*
X110554588Y-51451793D01*
X110554587Y-51451793D01*
X110452727Y-51424500D01*
X110347273Y-51424500D01*
X110245413Y-51451793D01*
X110245410Y-51451794D01*
X110154085Y-51504521D01*
X110079521Y-51579085D01*
X110026794Y-51670410D01*
X110026793Y-51670413D01*
X109999500Y-51772273D01*
X106318585Y-51772273D01*
X106111695Y-51326508D01*
X106111694Y-51326507D01*
X106111688Y-51326493D01*
X105746058Y-50629719D01*
X105346933Y-49951574D01*
X104915261Y-49293668D01*
X104898030Y-49270005D01*
X104538354Y-48776061D01*
X104452066Y-48657562D01*
X104442683Y-48645914D01*
X103958443Y-48044760D01*
X103958436Y-48044752D01*
X103661229Y-47710506D01*
X103661226Y-47710503D01*
X103592286Y-47632972D01*
X106526888Y-47632972D01*
X106526888Y-47814075D01*
X106555217Y-47992934D01*
X106611175Y-48165160D01*
X106611176Y-48165163D01*
X106652100Y-48245478D01*
X106692873Y-48325500D01*
X106693394Y-48326521D01*
X106799829Y-48473018D01*
X106799833Y-48473023D01*
X106927888Y-48601078D01*
X106927893Y-48601082D01*
X106989600Y-48645914D01*
X107074394Y-48707520D01*
X107168677Y-48755560D01*
X107235748Y-48789735D01*
X107235751Y-48789736D01*
X107321864Y-48817715D01*
X107407979Y-48845695D01*
X107490817Y-48858815D01*
X107586837Y-48874024D01*
X107586842Y-48874024D01*
X107767939Y-48874024D01*
X107854647Y-48860289D01*
X107946797Y-48845695D01*
X108119027Y-48789735D01*
X108280382Y-48707520D01*
X108426889Y-48601077D01*
X108554941Y-48473025D01*
X108661384Y-48326518D01*
X108743599Y-48165163D01*
X108799559Y-47992933D01*
X108814153Y-47900783D01*
X108827888Y-47814075D01*
X108827888Y-47632972D01*
X108810624Y-47523975D01*
X108799559Y-47454115D01*
X108769810Y-47362556D01*
X108743600Y-47281887D01*
X108743599Y-47281884D01*
X108715128Y-47226008D01*
X108661384Y-47120530D01*
X108626695Y-47072784D01*
X108554946Y-46974029D01*
X108554942Y-46974024D01*
X108426887Y-46845969D01*
X108426882Y-46845965D01*
X108280385Y-46739530D01*
X108280384Y-46739529D01*
X108280382Y-46739528D01*
X108211805Y-46704586D01*
X108119027Y-46657312D01*
X108119024Y-46657311D01*
X107946798Y-46601353D01*
X107767939Y-46573024D01*
X107767934Y-46573024D01*
X107586842Y-46573024D01*
X107586837Y-46573024D01*
X107407977Y-46601353D01*
X107235751Y-46657311D01*
X107235748Y-46657312D01*
X107074390Y-46739530D01*
X106927893Y-46845965D01*
X106927888Y-46845969D01*
X106799833Y-46974024D01*
X106799829Y-46974029D01*
X106693394Y-47120526D01*
X106611176Y-47281884D01*
X106611175Y-47281887D01*
X106555217Y-47454113D01*
X106526888Y-47632972D01*
X103592286Y-47632972D01*
X103451971Y-47475170D01*
X103435574Y-47456730D01*
X102884688Y-46894853D01*
X102307096Y-46360467D01*
X101704169Y-45854839D01*
X101077337Y-45379170D01*
X101077336Y-45379169D01*
X101077328Y-45379163D01*
X100516909Y-44995410D01*
X100428086Y-44934587D01*
X99757957Y-44522145D01*
X99753531Y-44519710D01*
X99276853Y-44257437D01*
X99068541Y-44142822D01*
X98682102Y-43954102D01*
X98361460Y-43797514D01*
X97638435Y-43487059D01*
X97638414Y-43487050D01*
X97218068Y-43330333D01*
X96928232Y-43222273D01*
X109899500Y-43222273D01*
X109899500Y-43327727D01*
X109926793Y-43429587D01*
X109979520Y-43520913D01*
X110054087Y-43595480D01*
X110145413Y-43648207D01*
X110247273Y-43675500D01*
X110247275Y-43675500D01*
X110352725Y-43675500D01*
X110352727Y-43675500D01*
X110454587Y-43648207D01*
X110545913Y-43595480D01*
X110620480Y-43520913D01*
X110673207Y-43429587D01*
X110700500Y-43327727D01*
X110700500Y-43222273D01*
X110673207Y-43120413D01*
X110620480Y-43029087D01*
X110545913Y-42954520D01*
X110454587Y-42901793D01*
X110352727Y-42874500D01*
X110247273Y-42874500D01*
X110145413Y-42901793D01*
X110145410Y-42901794D01*
X110054085Y-42954521D01*
X109979521Y-43029085D01*
X109926794Y-43120410D01*
X109926793Y-43120413D01*
X109899500Y-43222273D01*
X96928232Y-43222273D01*
X96901147Y-43212175D01*
X96901115Y-43212164D01*
X96151301Y-42973503D01*
X96151296Y-42973502D01*
X95390793Y-42771646D01*
X95390761Y-42771638D01*
X94621315Y-42607049D01*
X94621297Y-42607045D01*
X94621290Y-42607044D01*
X94339830Y-42561039D01*
X93844735Y-42480115D01*
X93844718Y-42480112D01*
X93062888Y-42391145D01*
X93062859Y-42391143D01*
X92277649Y-42340353D01*
X92277654Y-42340353D01*
X91490871Y-42327857D01*
X91490829Y-42327857D01*
X90704414Y-42353685D01*
X89920141Y-42417778D01*
X89920136Y-42417779D01*
X89802524Y-42433185D01*
X89139923Y-42519984D01*
X88457003Y-42643525D01*
X88365604Y-42660060D01*
X88365601Y-42660060D01*
X87599042Y-42837669D01*
X87599030Y-42837672D01*
X86842031Y-43052397D01*
X86842022Y-43052399D01*
X86842022Y-43052400D01*
X86374490Y-43209987D01*
X86096357Y-43303735D01*
X85865214Y-43394403D01*
X85363821Y-43591079D01*
X85363812Y-43591082D01*
X85363802Y-43591087D01*
X84646166Y-43913741D01*
X84646113Y-43913766D01*
X84306090Y-44087016D01*
X84296414Y-44091434D01*
X84109302Y-44167348D01*
X84094151Y-44172386D01*
X84010351Y-44194371D01*
X83999917Y-44196633D01*
X83905859Y-44212822D01*
X83897774Y-44213941D01*
X83866798Y-44217193D01*
X83860483Y-44217856D01*
X83847042Y-44218533D01*
X83648259Y-44217738D01*
X83632332Y-44216647D01*
X83546462Y-44205173D01*
X83535948Y-44203304D01*
X83442772Y-44182568D01*
X83434867Y-44180533D01*
X83398908Y-44170005D01*
X83386199Y-44165521D01*
X83353349Y-44151881D01*
X83200557Y-44088439D01*
X83187697Y-44082208D01*
X83146127Y-44059016D01*
X83134069Y-44051346D01*
X82971703Y-43934399D01*
X82960607Y-43925392D01*
X82949202Y-43914988D01*
X82938401Y-43905134D01*
X82930631Y-43896699D01*
X82915906Y-43883866D01*
X82909956Y-43878680D01*
X82905316Y-43874423D01*
X82888806Y-43858485D01*
X82888691Y-43858411D01*
X82874288Y-43847593D01*
X82634340Y-43638462D01*
X82622776Y-43626961D01*
X82620013Y-43623826D01*
X82620010Y-43623821D01*
X82620005Y-43623817D01*
X82620004Y-43623816D01*
X82603289Y-43611053D01*
X82597068Y-43605977D01*
X82581203Y-43592150D01*
X82581202Y-43592149D01*
X82581200Y-43592148D01*
X82577557Y-43590060D01*
X82563981Y-43581041D01*
X82532559Y-43557050D01*
X82521547Y-43547192D01*
X82500050Y-43532105D01*
X82496036Y-43529165D01*
X82475183Y-43513244D01*
X82462456Y-43505721D01*
X82363962Y-43436597D01*
X82350037Y-43425219D01*
X82343198Y-43420914D01*
X82330452Y-43412890D01*
X82325303Y-43409466D01*
X82306431Y-43396221D01*
X82306429Y-43396220D01*
X82306379Y-43396185D01*
X82290522Y-43387753D01*
X82189088Y-43323900D01*
X82174645Y-43313258D01*
X82154468Y-43301924D01*
X82149137Y-43298751D01*
X82129567Y-43286431D01*
X82113310Y-43278804D01*
X82019906Y-43226336D01*
X82008488Y-43219922D01*
X81993538Y-43210020D01*
X81990462Y-43208489D01*
X81972805Y-43199700D01*
X81967349Y-43196812D01*
X81947222Y-43185507D01*
X81947160Y-43185472D01*
X81930559Y-43178674D01*
X81823227Y-43125254D01*
X81807827Y-43116126D01*
X81786593Y-43106849D01*
X81780993Y-43104234D01*
X81760248Y-43093910D01*
X81743349Y-43087957D01*
X81633465Y-43039952D01*
X81617624Y-43031602D01*
X81595936Y-43023388D01*
X81590215Y-43021057D01*
X81568992Y-43011785D01*
X81551825Y-43006686D01*
X81440430Y-42964504D01*
X81426691Y-42958323D01*
X81420124Y-42954874D01*
X81420123Y-42954873D01*
X81401244Y-42949296D01*
X81392482Y-42946348D01*
X81374082Y-42939381D01*
X81374080Y-42939381D01*
X81374078Y-42939380D01*
X81366751Y-42938155D01*
X81352076Y-42934774D01*
X81046480Y-42844512D01*
X81034143Y-42838799D01*
X81033793Y-42839668D01*
X81022471Y-42835094D01*
X81022469Y-42835093D01*
X81022466Y-42835092D01*
X81022465Y-42835092D01*
X81011724Y-42833054D01*
X81006513Y-42832065D01*
X80994512Y-42829162D01*
X80978925Y-42824558D01*
X80966770Y-42823451D01*
X80966854Y-42822521D01*
X80953271Y-42821963D01*
X80908471Y-42813462D01*
X80641998Y-42762903D01*
X80628581Y-42759573D01*
X80618069Y-42756332D01*
X80599869Y-42754456D01*
X80589473Y-42752937D01*
X80571505Y-42749528D01*
X80560513Y-42749625D01*
X80546710Y-42748977D01*
X80353248Y-42729037D01*
X80336596Y-42726163D01*
X80333943Y-42725516D01*
X80333941Y-42725515D01*
X80333938Y-42725515D01*
X80312247Y-42724586D01*
X80304848Y-42724047D01*
X80283257Y-42721822D01*
X80280525Y-42722079D01*
X80263644Y-42722508D01*
X80143606Y-42717374D01*
X80125762Y-42715296D01*
X80102638Y-42715466D01*
X80096433Y-42715356D01*
X80073337Y-42714368D01*
X80055429Y-42715812D01*
X79935352Y-42716694D01*
X79917484Y-42715515D01*
X79894358Y-42716840D01*
X79888187Y-42717040D01*
X79864999Y-42717211D01*
X79847247Y-42719540D01*
X79726908Y-42726436D01*
X79709035Y-42726149D01*
X79685959Y-42728628D01*
X79679818Y-42729134D01*
X79658508Y-42730356D01*
X79656751Y-42730457D01*
X79656750Y-42730457D01*
X79656647Y-42730463D01*
X79639058Y-42733668D01*
X79519945Y-42746468D01*
X79504863Y-42747164D01*
X79497525Y-42747055D01*
X79478138Y-42750614D01*
X79469010Y-42751940D01*
X79449413Y-42754047D01*
X79442404Y-42756241D01*
X79427760Y-42759863D01*
X79112967Y-42817658D01*
X79099388Y-42818133D01*
X79099468Y-42819076D01*
X79087296Y-42820107D01*
X79071642Y-42824624D01*
X79059666Y-42827444D01*
X79043639Y-42830386D01*
X79032295Y-42834891D01*
X79031946Y-42834013D01*
X79019577Y-42839647D01*
X78713448Y-42927981D01*
X78699980Y-42929805D01*
X78700152Y-42930726D01*
X78688140Y-42932963D01*
X78673038Y-42939003D01*
X78661382Y-42943004D01*
X78645758Y-42947513D01*
X78634913Y-42953122D01*
X78634483Y-42952291D01*
X78622729Y-42959127D01*
X78330248Y-43076120D01*
X78316332Y-43080752D01*
X78308115Y-43082956D01*
X78290849Y-43091476D01*
X78282040Y-43095404D01*
X78264183Y-43102547D01*
X78257058Y-43107184D01*
X78244303Y-43114447D01*
X78117609Y-43176969D01*
X78101147Y-43183672D01*
X78100501Y-43183882D01*
X78080701Y-43194990D01*
X78074912Y-43198039D01*
X78054581Y-43208072D01*
X78054039Y-43208489D01*
X78039213Y-43218265D01*
X77934644Y-43276933D01*
X77918418Y-43284534D01*
X77898813Y-43296858D01*
X77893500Y-43300016D01*
X77873292Y-43311354D01*
X77858855Y-43321977D01*
X77757937Y-43385417D01*
X77744722Y-43392644D01*
X77738010Y-43395801D01*
X77722162Y-43407499D01*
X77714523Y-43412708D01*
X77697870Y-43423177D01*
X77692479Y-43428276D01*
X77680931Y-43437937D01*
X77424337Y-43627366D01*
X77412339Y-43633760D01*
X77412820Y-43634563D01*
X77402338Y-43640834D01*
X77390277Y-43651748D01*
X77380737Y-43659553D01*
X77367661Y-43669207D01*
X77359435Y-43678243D01*
X77358742Y-43677612D01*
X77350105Y-43688100D01*
X77114926Y-43900915D01*
X77103470Y-43910108D01*
X77096589Y-43914988D01*
X77083342Y-43928994D01*
X77076459Y-43935727D01*
X77062174Y-43948653D01*
X77057154Y-43955411D01*
X77047702Y-43966672D01*
X76951026Y-44068880D01*
X76937915Y-44080888D01*
X76937393Y-44081300D01*
X76922702Y-44098574D01*
X76918336Y-44103442D01*
X76902730Y-44119941D01*
X76902374Y-44120509D01*
X76891859Y-44134837D01*
X76820653Y-44218560D01*
X76814084Y-44226283D01*
X76801497Y-44239058D01*
X76787384Y-44257437D01*
X76783496Y-44262246D01*
X76768504Y-44279873D01*
X76758658Y-44294847D01*
X76686027Y-44389435D01*
X76676147Y-44400800D01*
X76670943Y-44406098D01*
X76660160Y-44422553D01*
X76654801Y-44430101D01*
X76642817Y-44445708D01*
X76639528Y-44452372D01*
X76632056Y-44465441D01*
X76457126Y-44732399D01*
X76448097Y-44742560D01*
X76448827Y-44743146D01*
X76441179Y-44752665D01*
X76433664Y-44767083D01*
X76427430Y-44777716D01*
X76418521Y-44791313D01*
X76413948Y-44802642D01*
X76413079Y-44802291D01*
X76408622Y-44815136D01*
X76262225Y-45096036D01*
X76255171Y-45107907D01*
X76249020Y-45117055D01*
X76241973Y-45133931D01*
X76237517Y-45143447D01*
X76229063Y-45159669D01*
X76225973Y-45170251D01*
X76221370Y-45183268D01*
X76146342Y-45362940D01*
X76138790Y-45378042D01*
X76137391Y-45380417D01*
X76130240Y-45400922D01*
X76127584Y-45407860D01*
X76119226Y-45427877D01*
X76118680Y-45430580D01*
X76114220Y-45446856D01*
X76105030Y-45473206D01*
X76074665Y-45560269D01*
X76067525Y-45576754D01*
X76065031Y-45585252D01*
X76062688Y-45593235D01*
X76061010Y-45598951D01*
X76059114Y-45604858D01*
X76051501Y-45626686D01*
X76047719Y-45644227D01*
X76013899Y-45759447D01*
X76007614Y-45776210D01*
X76002207Y-45798734D01*
X76000617Y-45804700D01*
X75994084Y-45826961D01*
X75991190Y-45844623D01*
X75963063Y-45961788D01*
X75957626Y-45978828D01*
X75953338Y-46001640D01*
X75952047Y-46007676D01*
X75946632Y-46030229D01*
X75944625Y-46047989D01*
X75922493Y-46165721D01*
X75918809Y-46180353D01*
X75916584Y-46187355D01*
X75914394Y-46206946D01*
X75913028Y-46216070D01*
X75909388Y-46235433D01*
X75909466Y-46242768D01*
X75908706Y-46257847D01*
X75873165Y-46575859D01*
X75869701Y-46588999D01*
X75870625Y-46589195D01*
X75868099Y-46601144D01*
X75867904Y-46617431D01*
X75867146Y-46629710D01*
X75865336Y-46645906D01*
X75866374Y-46658076D01*
X75865433Y-46658156D01*
X75867255Y-46671622D01*
X75863445Y-46990164D01*
X75861304Y-47003589D01*
X75862233Y-47003691D01*
X75860908Y-47015825D01*
X75862331Y-47032016D01*
X75862798Y-47044348D01*
X75862603Y-47060609D01*
X75864842Y-47072613D01*
X75863920Y-47072784D01*
X75867073Y-47086006D01*
X75894692Y-47400409D01*
X75895052Y-47416615D01*
X75894861Y-47421028D01*
X75898056Y-47441736D01*
X75899030Y-47449787D01*
X75900863Y-47470653D01*
X75902098Y-47474882D01*
X75905615Y-47490718D01*
X75912129Y-47532935D01*
X75913249Y-47547799D01*
X75918279Y-47573457D01*
X75919144Y-47578396D01*
X75923127Y-47604207D01*
X75927124Y-47618564D01*
X75950185Y-47736180D01*
X75952342Y-47754001D01*
X75957925Y-47776461D01*
X75959269Y-47782511D01*
X75963719Y-47805210D01*
X75969308Y-47822258D01*
X75998190Y-47938458D01*
X76001231Y-47956119D01*
X76001253Y-47956192D01*
X76001253Y-47956193D01*
X76007762Y-47977727D01*
X76007926Y-47978267D01*
X76009567Y-47984229D01*
X76015161Y-48006733D01*
X76021587Y-48023459D01*
X76056241Y-48138091D01*
X76060152Y-48155557D01*
X76060184Y-48155646D01*
X76067966Y-48177409D01*
X76069888Y-48183237D01*
X76076576Y-48205358D01*
X76076602Y-48205443D01*
X76083846Y-48221812D01*
X76123944Y-48333931D01*
X76128144Y-48348389D01*
X76129779Y-48355634D01*
X76137769Y-48373614D01*
X76141205Y-48382195D01*
X76147837Y-48400735D01*
X76147838Y-48400736D01*
X76151650Y-48407098D01*
X76158591Y-48420464D01*
X76181814Y-48472716D01*
X76288020Y-48711682D01*
X76291669Y-48724778D01*
X76292559Y-48724482D01*
X76296416Y-48736065D01*
X76304466Y-48750197D01*
X76310022Y-48761188D01*
X76316633Y-48776061D01*
X76316634Y-48776062D01*
X76323677Y-48786041D01*
X76322908Y-48786583D01*
X76331291Y-48797286D01*
X76488889Y-49073940D01*
X76493823Y-49086606D01*
X76494679Y-49086224D01*
X76499670Y-49097369D01*
X76509088Y-49110636D01*
X76515717Y-49121034D01*
X76523766Y-49135162D01*
X76523768Y-49135163D01*
X76531767Y-49144392D01*
X76531055Y-49145009D01*
X76540457Y-49154821D01*
X76587424Y-49220977D01*
X76724401Y-49413921D01*
X76733747Y-49429353D01*
X76733775Y-49429408D01*
X76733776Y-49429411D01*
X76733777Y-49429413D01*
X76735321Y-49432439D01*
X76736516Y-49434252D01*
X76749314Y-49449639D01*
X76755086Y-49457144D01*
X76765081Y-49471221D01*
X76765125Y-49471263D01*
X76777302Y-49484575D01*
X76777883Y-49485312D01*
X76784872Y-49492388D01*
X76852095Y-49573207D01*
X76861695Y-49584748D01*
X76872143Y-49599363D01*
X76887791Y-49616366D01*
X76891858Y-49621013D01*
X76906633Y-49638775D01*
X76906634Y-49638775D01*
X76906676Y-49638826D01*
X76919770Y-49651116D01*
X77022634Y-49762893D01*
X77027554Y-49768577D01*
X77157191Y-49927883D01*
X77166438Y-49940873D01*
X77186449Y-49973205D01*
X77212029Y-50014534D01*
X77217243Y-50023828D01*
X77260325Y-50109044D01*
X77263757Y-50116427D01*
X77278435Y-50150928D01*
X77283024Y-50163580D01*
X77340566Y-50353867D01*
X77344194Y-50369415D01*
X77358407Y-50454873D01*
X77359703Y-50465471D01*
X77367204Y-50560612D01*
X77367578Y-50568770D01*
X77368058Y-50606246D01*
X77367498Y-50619709D01*
X77348247Y-50819812D01*
X77346061Y-50833935D01*
X77336086Y-50880454D01*
X77332289Y-50894232D01*
X77268101Y-51083761D01*
X77262744Y-51097011D01*
X77237341Y-51150710D01*
X77235737Y-51153977D01*
X77086912Y-51446072D01*
X76810147Y-52049304D01*
X76558388Y-52663413D01*
X76332078Y-53287313D01*
X76131576Y-53920022D01*
X76053428Y-54207068D01*
X76053428Y-54207070D01*
X76045732Y-54235336D01*
X76042681Y-54244971D01*
X75981320Y-54414459D01*
X75972917Y-54432834D01*
X75887327Y-54585676D01*
X75876051Y-54602443D01*
X75766773Y-54739358D01*
X75752924Y-54754070D01*
X75622856Y-54871425D01*
X75606802Y-54883693D01*
X75459410Y-54978362D01*
X75441576Y-54987860D01*
X75280761Y-55057337D01*
X75261622Y-55063812D01*
X75091667Y-55106248D01*
X75071731Y-55109530D01*
X74892067Y-55124217D01*
X74881964Y-55124629D01*
X70818388Y-55124629D01*
X70784037Y-55124629D01*
X70585817Y-55124629D01*
X70514409Y-55131245D01*
X70191076Y-55161206D01*
X70191075Y-55161207D01*
X70191071Y-55161207D01*
X70191068Y-55161208D01*
X69801378Y-55234053D01*
X69801372Y-55234054D01*
X69801370Y-55234055D01*
X69420088Y-55342539D01*
X69420078Y-55342542D01*
X69420072Y-55342544D01*
X69286741Y-55394197D01*
X69050402Y-55485755D01*
X68695525Y-55662463D01*
X68358463Y-55871163D01*
X68042104Y-56110065D01*
X68042095Y-56110072D01*
X67749126Y-56377150D01*
X67482048Y-56670119D01*
X67482041Y-56670128D01*
X67243139Y-56986487D01*
X67034439Y-57323549D01*
X66857731Y-57678426D01*
X66808856Y-57804587D01*
X66724163Y-58023206D01*
X66714520Y-58048097D01*
X66714515Y-58048112D01*
X66606031Y-58429394D01*
X66606029Y-58429402D01*
X66564699Y-58650500D01*
X66533183Y-58819099D01*
X66533182Y-58819100D01*
X66496605Y-59213843D01*
X66496605Y-59610278D01*
X66533182Y-60005021D01*
X66533183Y-60005022D01*
X66533184Y-60005030D01*
X66606029Y-60394720D01*
X66606031Y-60394727D01*
X66606030Y-60394727D01*
X66693707Y-60702876D01*
X66714520Y-60776026D01*
X66857731Y-61145695D01*
X67034439Y-61500573D01*
X67234206Y-61823207D01*
X67243139Y-61837634D01*
X67482041Y-62153993D01*
X67482048Y-62154002D01*
X67545136Y-62223206D01*
X67749126Y-62446972D01*
X67927062Y-62609182D01*
X68042095Y-62714049D01*
X68042099Y-62714052D01*
X68358465Y-62952960D01*
X68695525Y-63161659D01*
X69050403Y-63338367D01*
X69420072Y-63481578D01*
X69801378Y-63590069D01*
X70191068Y-63662914D01*
X70191075Y-63662914D01*
X70191076Y-63662915D01*
X70381348Y-63680546D01*
X70585817Y-63699493D01*
X70754101Y-63699493D01*
X75473489Y-63699493D01*
X75503219Y-63699493D01*
X75512447Y-63699836D01*
X75676672Y-63712094D01*
X75694924Y-63714834D01*
X75717772Y-63720027D01*
X75851000Y-63750308D01*
X75868627Y-63755722D01*
X76003962Y-63808602D01*
X76017704Y-63813972D01*
X76034348Y-63821950D01*
X76173129Y-63901685D01*
X76188400Y-63912043D01*
X76313805Y-64011495D01*
X76327373Y-64024009D01*
X76436615Y-64140964D01*
X76448177Y-64155354D01*
X76538855Y-64287243D01*
X76548151Y-64303189D01*
X76620274Y-64451237D01*
X76624007Y-64459686D01*
X76754379Y-64787230D01*
X77047637Y-65438589D01*
X77369405Y-66076351D01*
X77719053Y-66699265D01*
X78095878Y-67306083D01*
X78230090Y-67502289D01*
X78499187Y-67895687D01*
X78593570Y-68021361D01*
X78928154Y-68466870D01*
X79152347Y-68739402D01*
X79157539Y-68746176D01*
X79245910Y-68870082D01*
X79254834Y-68884615D01*
X79323383Y-69015687D01*
X79330229Y-69031310D01*
X79380140Y-69170547D01*
X79384778Y-69186963D01*
X79415107Y-69331732D01*
X79417448Y-69348629D01*
X79427916Y-69500455D01*
X79428210Y-69508984D01*
X79428210Y-72041965D01*
X79427944Y-72050075D01*
X79412918Y-72279314D01*
X79410801Y-72295395D01*
X79366774Y-72516732D01*
X79362576Y-72532399D01*
X79290038Y-72746090D01*
X79283831Y-72761076D01*
X79184017Y-72963477D01*
X79175907Y-72977524D01*
X79050531Y-73165163D01*
X79040657Y-73178031D01*
X78891861Y-73347699D01*
X78880392Y-73359168D01*
X78710724Y-73507964D01*
X78697856Y-73517838D01*
X78510217Y-73643214D01*
X78496170Y-73651324D01*
X78293769Y-73751138D01*
X78278783Y-73757345D01*
X78065092Y-73829883D01*
X78049425Y-73834081D01*
X77828088Y-73878108D01*
X77812007Y-73880225D01*
X77582768Y-73895251D01*
X77574658Y-73895517D01*
X35474451Y-73895517D01*
X35469590Y-73895422D01*
X35096999Y-73880804D01*
X35087309Y-73880042D01*
X34719449Y-73836574D01*
X34709848Y-73835056D01*
X34346520Y-73762907D01*
X34337068Y-73760642D01*
X33980489Y-73660251D01*
X33971243Y-73657252D01*
X33621382Y-73528414D01*
X33616853Y-73526645D01*
X29227247Y-71711728D01*
X29222778Y-71709776D01*
X28882977Y-71553365D01*
X28874285Y-71548942D01*
X28549944Y-71367494D01*
X28541627Y-71362402D01*
X28232544Y-71156024D01*
X28224652Y-71150293D01*
X27932744Y-70920262D01*
X27925328Y-70913929D01*
X27817778Y-70814524D01*
X27650635Y-70660038D01*
X27647119Y-70656658D01*
X26680559Y-69690098D01*
X35074500Y-69690098D01*
X35074500Y-70559894D01*
X35074501Y-70559902D01*
X35080330Y-70589212D01*
X35102542Y-70622457D01*
X35119219Y-70633599D01*
X35135787Y-70644669D01*
X35135790Y-70644669D01*
X35135791Y-70644670D01*
X35142041Y-70645913D01*
X35165101Y-70650500D01*
X36034898Y-70650499D01*
X36064213Y-70644669D01*
X36097457Y-70622457D01*
X36119669Y-70589213D01*
X36125500Y-70559899D01*
X36125499Y-69690102D01*
X36125498Y-69690098D01*
X37074500Y-69690098D01*
X37074500Y-70559894D01*
X37074501Y-70559902D01*
X37080330Y-70589212D01*
X37102542Y-70622457D01*
X37119219Y-70633599D01*
X37135787Y-70644669D01*
X37135790Y-70644669D01*
X37135791Y-70644670D01*
X37142041Y-70645913D01*
X37165101Y-70650500D01*
X38034898Y-70650499D01*
X38064213Y-70644669D01*
X38097457Y-70622457D01*
X38119669Y-70589213D01*
X38119670Y-70589208D01*
X38125500Y-70559901D01*
X38125500Y-70418896D01*
X46888330Y-70418896D01*
X46888330Y-70599999D01*
X46916659Y-70778858D01*
X46972617Y-70951084D01*
X46972618Y-70951087D01*
X47054836Y-71112445D01*
X47161271Y-71258942D01*
X47161275Y-71258947D01*
X47289330Y-71387002D01*
X47289335Y-71387006D01*
X47417117Y-71479844D01*
X47435836Y-71493444D01*
X47541314Y-71547188D01*
X47597190Y-71575659D01*
X47597193Y-71575660D01*
X47683306Y-71603639D01*
X47769421Y-71631619D01*
X47852259Y-71644739D01*
X47948279Y-71659948D01*
X47948284Y-71659948D01*
X48129381Y-71659948D01*
X48216089Y-71646213D01*
X48308239Y-71631619D01*
X48480469Y-71575659D01*
X48641824Y-71493444D01*
X48788331Y-71387001D01*
X48916383Y-71258949D01*
X49022826Y-71112442D01*
X49105041Y-70951087D01*
X49161001Y-70778857D01*
X49180083Y-70658379D01*
X49189330Y-70599999D01*
X49189330Y-70418896D01*
X49179771Y-70358544D01*
X49177986Y-70347273D01*
X65474500Y-70347273D01*
X65474500Y-70452727D01*
X65501233Y-70552495D01*
X65501793Y-70554586D01*
X65501794Y-70554589D01*
X65515922Y-70579059D01*
X65554520Y-70645913D01*
X65629087Y-70720480D01*
X65720413Y-70773207D01*
X65822273Y-70800500D01*
X65822275Y-70800500D01*
X65927725Y-70800500D01*
X65927727Y-70800500D01*
X66029587Y-70773207D01*
X66120913Y-70720480D01*
X66195480Y-70645913D01*
X66248207Y-70554587D01*
X66275500Y-70452727D01*
X66275500Y-70347273D01*
X66248207Y-70245413D01*
X66195480Y-70154087D01*
X66120913Y-70079520D01*
X66029587Y-70026793D01*
X65927727Y-69999500D01*
X65822273Y-69999500D01*
X65720413Y-70026793D01*
X65720410Y-70026794D01*
X65629085Y-70079521D01*
X65554521Y-70154085D01*
X65501794Y-70245410D01*
X65501793Y-70245413D01*
X65474500Y-70347273D01*
X49177986Y-70347273D01*
X49164614Y-70262851D01*
X49161001Y-70240039D01*
X49118423Y-70108996D01*
X49105042Y-70067811D01*
X49105041Y-70067808D01*
X49076570Y-70011932D01*
X49022826Y-69906454D01*
X48916608Y-69760256D01*
X48916388Y-69759953D01*
X48916384Y-69759948D01*
X48788329Y-69631893D01*
X48788324Y-69631889D01*
X48641827Y-69525454D01*
X48641826Y-69525453D01*
X48641824Y-69525452D01*
X48590130Y-69499112D01*
X48480469Y-69443236D01*
X48480466Y-69443235D01*
X48308240Y-69387277D01*
X48129381Y-69358948D01*
X48129376Y-69358948D01*
X47948284Y-69358948D01*
X47948279Y-69358948D01*
X47769419Y-69387277D01*
X47597193Y-69443235D01*
X47597190Y-69443236D01*
X47435832Y-69525454D01*
X47289335Y-69631889D01*
X47289330Y-69631893D01*
X47161275Y-69759948D01*
X47161271Y-69759953D01*
X47054836Y-69906450D01*
X46972618Y-70067808D01*
X46972617Y-70067811D01*
X46916659Y-70240037D01*
X46888330Y-70418896D01*
X38125500Y-70418896D01*
X38125500Y-70414030D01*
X38125499Y-69690105D01*
X38125498Y-69690097D01*
X38119669Y-69660787D01*
X38097457Y-69627542D01*
X38064214Y-69605332D01*
X38064215Y-69605332D01*
X38064213Y-69605331D01*
X38064211Y-69605330D01*
X38064208Y-69605329D01*
X38034901Y-69599500D01*
X37165105Y-69599500D01*
X37165097Y-69599501D01*
X37135787Y-69605330D01*
X37102542Y-69627542D01*
X37080332Y-69660785D01*
X37080329Y-69660791D01*
X37074500Y-69690098D01*
X36125498Y-69690098D01*
X36119669Y-69660787D01*
X36100365Y-69631895D01*
X36097457Y-69627542D01*
X36064214Y-69605332D01*
X36064215Y-69605332D01*
X36064213Y-69605331D01*
X36064211Y-69605330D01*
X36064208Y-69605329D01*
X36034901Y-69599500D01*
X35165105Y-69599500D01*
X35165097Y-69599501D01*
X35135787Y-69605330D01*
X35102542Y-69627542D01*
X35080332Y-69660785D01*
X35080329Y-69660791D01*
X35074500Y-69690098D01*
X26680559Y-69690098D01*
X24217790Y-67227329D01*
X24214968Y-67224414D01*
X24157697Y-67163267D01*
X23879157Y-66865874D01*
X23873814Y-66859780D01*
X23848625Y-66829087D01*
X23740448Y-66697273D01*
X31374500Y-66697273D01*
X31374500Y-66802727D01*
X31401793Y-66904587D01*
X31454520Y-66995913D01*
X31529087Y-67070480D01*
X31620413Y-67123207D01*
X31722273Y-67150500D01*
X31722275Y-67150500D01*
X31827725Y-67150500D01*
X31827727Y-67150500D01*
X31929587Y-67123207D01*
X32020913Y-67070480D01*
X32069120Y-67022273D01*
X47624500Y-67022273D01*
X47624500Y-67127727D01*
X47651793Y-67229587D01*
X47704520Y-67320913D01*
X47779087Y-67395480D01*
X47870413Y-67448207D01*
X47972273Y-67475500D01*
X47972275Y-67475500D01*
X48077725Y-67475500D01*
X48077727Y-67475500D01*
X48179587Y-67448207D01*
X48270913Y-67395480D01*
X48345480Y-67320913D01*
X48398207Y-67229587D01*
X48420263Y-67147273D01*
X65499500Y-67147273D01*
X65499500Y-67252727D01*
X65526793Y-67354587D01*
X65579520Y-67445913D01*
X65654087Y-67520480D01*
X65745413Y-67573207D01*
X65847273Y-67600500D01*
X65847275Y-67600500D01*
X65952725Y-67600500D01*
X65952727Y-67600500D01*
X66054587Y-67573207D01*
X66145913Y-67520480D01*
X66220480Y-67445913D01*
X66273207Y-67354587D01*
X66300500Y-67252727D01*
X66300500Y-67147273D01*
X66273207Y-67045413D01*
X66220480Y-66954087D01*
X66145913Y-66879520D01*
X66079059Y-66840922D01*
X66054589Y-66826794D01*
X66054588Y-66826793D01*
X66054587Y-66826793D01*
X65952727Y-66799500D01*
X65847273Y-66799500D01*
X65745413Y-66826793D01*
X65745410Y-66826794D01*
X65654085Y-66879521D01*
X65579521Y-66954085D01*
X65526794Y-67045410D01*
X65526793Y-67045413D01*
X65499500Y-67147273D01*
X48420263Y-67147273D01*
X48425500Y-67127727D01*
X48425500Y-67022273D01*
X48398207Y-66920413D01*
X48345480Y-66829087D01*
X48270913Y-66754520D01*
X48204059Y-66715922D01*
X48179589Y-66701794D01*
X48179588Y-66701793D01*
X48179587Y-66701793D01*
X48077727Y-66674500D01*
X47972273Y-66674500D01*
X47870413Y-66701793D01*
X47870410Y-66701794D01*
X47779085Y-66754521D01*
X47704521Y-66829085D01*
X47651794Y-66920410D01*
X47651793Y-66920413D01*
X47624500Y-67022273D01*
X32069120Y-67022273D01*
X32095480Y-66995913D01*
X32111504Y-66968156D01*
X32120750Y-66952145D01*
X32131886Y-66932854D01*
X32148207Y-66904587D01*
X32175500Y-66802727D01*
X32175500Y-66697273D01*
X32148207Y-66595413D01*
X32095480Y-66504087D01*
X32020913Y-66429520D01*
X31929587Y-66376793D01*
X31827727Y-66349500D01*
X31722273Y-66349500D01*
X31620413Y-66376793D01*
X31620410Y-66376794D01*
X31529085Y-66429521D01*
X31454521Y-66504085D01*
X31401794Y-66595410D01*
X31401793Y-66595413D01*
X31374500Y-66697273D01*
X23740448Y-66697273D01*
X23563477Y-66481634D01*
X23558552Y-66475215D01*
X23383069Y-66230330D01*
X23369485Y-66211373D01*
X23323552Y-66147273D01*
X27774500Y-66147273D01*
X27774500Y-66252727D01*
X27801793Y-66354587D01*
X27854520Y-66445913D01*
X27929087Y-66520480D01*
X28020413Y-66573207D01*
X28122273Y-66600500D01*
X28122275Y-66600500D01*
X28227725Y-66600500D01*
X28227727Y-66600500D01*
X28329587Y-66573207D01*
X28420913Y-66520480D01*
X28495480Y-66445913D01*
X28548207Y-66354587D01*
X28575500Y-66252727D01*
X28575500Y-66147273D01*
X28548207Y-66045413D01*
X28495480Y-65954087D01*
X28420913Y-65879520D01*
X28329587Y-65826793D01*
X28227727Y-65799500D01*
X28122273Y-65799500D01*
X28020413Y-65826793D01*
X28020410Y-65826794D01*
X27929085Y-65879521D01*
X27854521Y-65954085D01*
X27801794Y-66045410D01*
X27801793Y-66045413D01*
X27774500Y-66147273D01*
X23323552Y-66147273D01*
X23273608Y-66077577D01*
X23269100Y-66070830D01*
X23010782Y-65655420D01*
X23006725Y-65648393D01*
X22913085Y-65473206D01*
X22776120Y-65216964D01*
X22772540Y-65209703D01*
X22729432Y-65114562D01*
X22698944Y-65047273D01*
X49549500Y-65047273D01*
X49549500Y-65152727D01*
X49576793Y-65254587D01*
X49629520Y-65345913D01*
X49704087Y-65420480D01*
X49795413Y-65473207D01*
X49897273Y-65500500D01*
X49897275Y-65500500D01*
X50002725Y-65500500D01*
X50002727Y-65500500D01*
X50104587Y-65473207D01*
X50195913Y-65420480D01*
X50270480Y-65345913D01*
X50323207Y-65254587D01*
X50350500Y-65152727D01*
X50350500Y-65047273D01*
X50323207Y-64945413D01*
X50270480Y-64854087D01*
X50195913Y-64779520D01*
X50104587Y-64726793D01*
X50002727Y-64699500D01*
X49897273Y-64699500D01*
X49795413Y-64726793D01*
X49795410Y-64726794D01*
X49704085Y-64779521D01*
X49629521Y-64854085D01*
X49576794Y-64945410D01*
X49576793Y-64945413D01*
X49549500Y-65047273D01*
X22698944Y-65047273D01*
X22577628Y-64779521D01*
X22570649Y-64764118D01*
X22567544Y-64756622D01*
X22537477Y-64676737D01*
X22395236Y-64298810D01*
X22392627Y-64291126D01*
X22318420Y-64046500D01*
X22250617Y-63822984D01*
X22248526Y-63815180D01*
X22137437Y-63338744D01*
X22135863Y-63330829D01*
X22056169Y-62848133D01*
X22055117Y-62840142D01*
X22014792Y-62430705D01*
X25555760Y-62430705D01*
X25555760Y-62627550D01*
X25586550Y-62821954D01*
X25647377Y-63009157D01*
X25691139Y-63095044D01*
X25736736Y-63184533D01*
X25852432Y-63343774D01*
X25991614Y-63482956D01*
X26150855Y-63598652D01*
X26233715Y-63640871D01*
X26326230Y-63688010D01*
X26326232Y-63688010D01*
X26326235Y-63688012D01*
X26402472Y-63712783D01*
X26513433Y-63748837D01*
X26707838Y-63779628D01*
X26707843Y-63779628D01*
X26904682Y-63779628D01*
X27099086Y-63748837D01*
X27286285Y-63688012D01*
X27461665Y-63598652D01*
X27620906Y-63482956D01*
X27760088Y-63343774D01*
X27875784Y-63184533D01*
X27965144Y-63009153D01*
X28025969Y-62821954D01*
X28056760Y-62627550D01*
X28056760Y-62472273D01*
X63174500Y-62472273D01*
X63174500Y-62577727D01*
X63201793Y-62679587D01*
X63254520Y-62770913D01*
X63329087Y-62845480D01*
X63420413Y-62898207D01*
X63522273Y-62925500D01*
X63522275Y-62925500D01*
X63627725Y-62925500D01*
X63627727Y-62925500D01*
X63729587Y-62898207D01*
X63820913Y-62845480D01*
X63895480Y-62770913D01*
X63948207Y-62679587D01*
X63975500Y-62577727D01*
X63975500Y-62472273D01*
X63948207Y-62370413D01*
X63895480Y-62279087D01*
X63820913Y-62204520D01*
X63729587Y-62151793D01*
X63627727Y-62124500D01*
X63522273Y-62124500D01*
X63420413Y-62151793D01*
X63420410Y-62151794D01*
X63329085Y-62204521D01*
X63254521Y-62279085D01*
X63201794Y-62370410D01*
X63201793Y-62370413D01*
X63174500Y-62472273D01*
X28056760Y-62472273D01*
X28056760Y-62430705D01*
X28025969Y-62236301D01*
X27980354Y-62095914D01*
X27965144Y-62049103D01*
X27965142Y-62049100D01*
X27965142Y-62049098D01*
X27905504Y-61932053D01*
X27875784Y-61873723D01*
X27760088Y-61714482D01*
X27620906Y-61575300D01*
X27461665Y-61459604D01*
X27441835Y-61449500D01*
X27339334Y-61397273D01*
X31524500Y-61397273D01*
X31524500Y-61502727D01*
X31551793Y-61604587D01*
X31604520Y-61695913D01*
X31679087Y-61770480D01*
X31770413Y-61823207D01*
X31872273Y-61850500D01*
X31872275Y-61850500D01*
X31977725Y-61850500D01*
X31977727Y-61850500D01*
X32079587Y-61823207D01*
X32124506Y-61797273D01*
X47324500Y-61797273D01*
X47324500Y-61902727D01*
X47351793Y-62004587D01*
X47404520Y-62095913D01*
X47479087Y-62170480D01*
X47570413Y-62223207D01*
X47672273Y-62250500D01*
X47672275Y-62250500D01*
X47777725Y-62250500D01*
X47777727Y-62250500D01*
X47879587Y-62223207D01*
X47970913Y-62170480D01*
X48045480Y-62095913D01*
X48098207Y-62004587D01*
X48106865Y-61972273D01*
X56599500Y-61972273D01*
X56599500Y-62077727D01*
X56626793Y-62179587D01*
X56679520Y-62270913D01*
X56754087Y-62345480D01*
X56845413Y-62398207D01*
X56947273Y-62425500D01*
X56947275Y-62425500D01*
X57052725Y-62425500D01*
X57052727Y-62425500D01*
X57154587Y-62398207D01*
X57245913Y-62345480D01*
X57320480Y-62270913D01*
X57373207Y-62179587D01*
X57400500Y-62077727D01*
X57400500Y-61972273D01*
X57373207Y-61870413D01*
X57320480Y-61779087D01*
X57245913Y-61704520D01*
X57156203Y-61652726D01*
X57154589Y-61651794D01*
X57154588Y-61651793D01*
X57154587Y-61651793D01*
X57052727Y-61624500D01*
X56947273Y-61624500D01*
X56845413Y-61651793D01*
X56845410Y-61651794D01*
X56754085Y-61704521D01*
X56679521Y-61779085D01*
X56626794Y-61870410D01*
X56626793Y-61870413D01*
X56599500Y-61972273D01*
X48106865Y-61972273D01*
X48125500Y-61902727D01*
X48125500Y-61797273D01*
X48098207Y-61695413D01*
X48045480Y-61604087D01*
X47970913Y-61529520D01*
X47879587Y-61476793D01*
X47777727Y-61449500D01*
X47672273Y-61449500D01*
X47570413Y-61476793D01*
X47570410Y-61476794D01*
X47479085Y-61529521D01*
X47404521Y-61604085D01*
X47351794Y-61695410D01*
X47351793Y-61695413D01*
X47324500Y-61797273D01*
X32124506Y-61797273D01*
X32170913Y-61770480D01*
X32245480Y-61695913D01*
X32298207Y-61604587D01*
X32325500Y-61502727D01*
X32325500Y-61397273D01*
X32298207Y-61295413D01*
X32245480Y-61204087D01*
X32170913Y-61129520D01*
X32079587Y-61076793D01*
X31977727Y-61049500D01*
X31872273Y-61049500D01*
X31770413Y-61076793D01*
X31770410Y-61076794D01*
X31679085Y-61129521D01*
X31604521Y-61204085D01*
X31551794Y-61295410D01*
X31551793Y-61295413D01*
X31524500Y-61397273D01*
X27339334Y-61397273D01*
X27286289Y-61370245D01*
X27099086Y-61309418D01*
X26904682Y-61278628D01*
X26904677Y-61278628D01*
X26707843Y-61278628D01*
X26707838Y-61278628D01*
X26513433Y-61309418D01*
X26326230Y-61370245D01*
X26150854Y-61459604D01*
X26060001Y-61525613D01*
X25991614Y-61575300D01*
X25991612Y-61575302D01*
X25991611Y-61575302D01*
X25852434Y-61714479D01*
X25852434Y-61714480D01*
X25852432Y-61714482D01*
X25811748Y-61770478D01*
X25736736Y-61873722D01*
X25647377Y-62049098D01*
X25586550Y-62236301D01*
X25555760Y-62430705D01*
X22014792Y-62430705D01*
X22007167Y-62353287D01*
X22006637Y-62345201D01*
X22005763Y-62318515D01*
X21990565Y-61854239D01*
X21990499Y-61850182D01*
X21990499Y-61216108D01*
X21990570Y-61211903D01*
X21993365Y-61129520D01*
X22007843Y-60702859D01*
X22008411Y-60694498D01*
X22059950Y-60189895D01*
X22061080Y-60181619D01*
X22146720Y-59681653D01*
X22148419Y-59673428D01*
X22163706Y-59610281D01*
X22267761Y-59180442D01*
X22270001Y-59172393D01*
X22422503Y-58688618D01*
X22425297Y-58680704D01*
X22447813Y-58623207D01*
X22610241Y-58208414D01*
X22613570Y-58200697D01*
X22615187Y-58197273D01*
X22830115Y-57742035D01*
X22833948Y-57734582D01*
X22980316Y-57472273D01*
X37299500Y-57472273D01*
X37299500Y-57577727D01*
X37326793Y-57679587D01*
X37379520Y-57770913D01*
X37454087Y-57845480D01*
X37545413Y-57898207D01*
X37647273Y-57925500D01*
X37647275Y-57925500D01*
X37752725Y-57925500D01*
X37752727Y-57925500D01*
X37854587Y-57898207D01*
X37945913Y-57845480D01*
X38020480Y-57770913D01*
X38073207Y-57679587D01*
X38095263Y-57597273D01*
X47074500Y-57597273D01*
X47074500Y-57702727D01*
X47101793Y-57804587D01*
X47154520Y-57895913D01*
X47229087Y-57970480D01*
X47320413Y-58023207D01*
X47422273Y-58050500D01*
X47422275Y-58050500D01*
X47527725Y-58050500D01*
X47527727Y-58050500D01*
X47629587Y-58023207D01*
X47631205Y-58022273D01*
X48299500Y-58022273D01*
X48299500Y-58127727D01*
X48326793Y-58229587D01*
X48379520Y-58320913D01*
X48454087Y-58395480D01*
X48545413Y-58448207D01*
X48647273Y-58475500D01*
X48647275Y-58475500D01*
X48752725Y-58475500D01*
X48752727Y-58475500D01*
X48854587Y-58448207D01*
X48945913Y-58395480D01*
X49020480Y-58320913D01*
X49073207Y-58229587D01*
X49081865Y-58197273D01*
X58649500Y-58197273D01*
X58649500Y-58302727D01*
X58676793Y-58404587D01*
X58729520Y-58495913D01*
X58804087Y-58570480D01*
X58895413Y-58623207D01*
X58997273Y-58650500D01*
X58997275Y-58650500D01*
X59102725Y-58650500D01*
X59102727Y-58650500D01*
X59204587Y-58623207D01*
X59295913Y-58570480D01*
X59370480Y-58495913D01*
X59423207Y-58404587D01*
X59450500Y-58302727D01*
X59450500Y-58197273D01*
X59423207Y-58095413D01*
X59370480Y-58004087D01*
X59295913Y-57929520D01*
X59204587Y-57876793D01*
X59102727Y-57849500D01*
X58997273Y-57849500D01*
X58895413Y-57876793D01*
X58895410Y-57876794D01*
X58804085Y-57929521D01*
X58729521Y-58004085D01*
X58676794Y-58095410D01*
X58676793Y-58095413D01*
X58649500Y-58197273D01*
X49081865Y-58197273D01*
X49100500Y-58127727D01*
X49100500Y-58022273D01*
X49073207Y-57920413D01*
X49020480Y-57829087D01*
X48945913Y-57754520D01*
X48856203Y-57702726D01*
X48854589Y-57701794D01*
X48854588Y-57701793D01*
X48854587Y-57701793D01*
X48752727Y-57674500D01*
X48647273Y-57674500D01*
X48545413Y-57701793D01*
X48545410Y-57701794D01*
X48454085Y-57754521D01*
X48379521Y-57829085D01*
X48326794Y-57920410D01*
X48326793Y-57920413D01*
X48299500Y-58022273D01*
X47631205Y-58022273D01*
X47720913Y-57970480D01*
X47795480Y-57895913D01*
X47848207Y-57804587D01*
X47875500Y-57702727D01*
X47875500Y-57597273D01*
X47848207Y-57495413D01*
X47795480Y-57404087D01*
X47720913Y-57329520D01*
X47642856Y-57284454D01*
X47629589Y-57276794D01*
X47629588Y-57276793D01*
X47629587Y-57276793D01*
X47527727Y-57249500D01*
X47422273Y-57249500D01*
X47320413Y-57276793D01*
X47320410Y-57276794D01*
X47229085Y-57329521D01*
X47154521Y-57404085D01*
X47101794Y-57495410D01*
X47101793Y-57495413D01*
X47074500Y-57597273D01*
X38095263Y-57597273D01*
X38100500Y-57577727D01*
X38100500Y-57472273D01*
X38073207Y-57370413D01*
X38020480Y-57279087D01*
X37945913Y-57204520D01*
X37854587Y-57151793D01*
X37752727Y-57124500D01*
X37647273Y-57124500D01*
X37545413Y-57151793D01*
X37545410Y-57151794D01*
X37454085Y-57204521D01*
X37379521Y-57279085D01*
X37326794Y-57370410D01*
X37326793Y-57370413D01*
X37299500Y-57472273D01*
X22980316Y-57472273D01*
X23081101Y-57291653D01*
X23085445Y-57284454D01*
X23088939Y-57279085D01*
X23272600Y-56996808D01*
X42763292Y-56996808D01*
X42763292Y-57102262D01*
X42790585Y-57204122D01*
X42843312Y-57295448D01*
X42917879Y-57370015D01*
X43009205Y-57422742D01*
X43111065Y-57450035D01*
X43111067Y-57450035D01*
X43216517Y-57450035D01*
X43216519Y-57450035D01*
X43318379Y-57422742D01*
X43409705Y-57370015D01*
X43484272Y-57295448D01*
X43536999Y-57204122D01*
X43564292Y-57102262D01*
X43564292Y-56996808D01*
X43536999Y-56894948D01*
X43484272Y-56803622D01*
X43427923Y-56747273D01*
X44949500Y-56747273D01*
X44949500Y-56852727D01*
X44976793Y-56954587D01*
X45029520Y-57045913D01*
X45104087Y-57120480D01*
X45195413Y-57173207D01*
X45297273Y-57200500D01*
X45297275Y-57200500D01*
X45402725Y-57200500D01*
X45402727Y-57200500D01*
X45504587Y-57173207D01*
X45595913Y-57120480D01*
X45670480Y-57045913D01*
X45712996Y-56972273D01*
X45949500Y-56972273D01*
X45949500Y-57077727D01*
X45976793Y-57179587D01*
X46029520Y-57270913D01*
X46104087Y-57345480D01*
X46195413Y-57398207D01*
X46297273Y-57425500D01*
X46297275Y-57425500D01*
X46402725Y-57425500D01*
X46402727Y-57425500D01*
X46504587Y-57398207D01*
X46595913Y-57345480D01*
X46670480Y-57270913D01*
X46723207Y-57179587D01*
X46750500Y-57077727D01*
X46750500Y-57077715D01*
X46750898Y-57074696D01*
X46751947Y-57072323D01*
X46752603Y-57069877D01*
X46752984Y-57069979D01*
X46779163Y-57010799D01*
X46837487Y-56972326D01*
X46873838Y-56966878D01*
X46955759Y-56966878D01*
X46955761Y-56966878D01*
X47057621Y-56939585D01*
X47130908Y-56897273D01*
X51424500Y-56897273D01*
X51424500Y-57002727D01*
X51451793Y-57104587D01*
X51504520Y-57195913D01*
X51579087Y-57270480D01*
X51670413Y-57323207D01*
X51772273Y-57350500D01*
X51772275Y-57350500D01*
X51877725Y-57350500D01*
X51877727Y-57350500D01*
X51979587Y-57323207D01*
X52070913Y-57270480D01*
X52145480Y-57195913D01*
X52198207Y-57104587D01*
X52225500Y-57002727D01*
X52225500Y-56897273D01*
X52198207Y-56795413D01*
X52145480Y-56704087D01*
X52070913Y-56629520D01*
X51988859Y-56582146D01*
X51979589Y-56576794D01*
X51979588Y-56576793D01*
X51979587Y-56576793D01*
X51877727Y-56549500D01*
X51772273Y-56549500D01*
X51670413Y-56576793D01*
X51670410Y-56576794D01*
X51579085Y-56629521D01*
X51504521Y-56704085D01*
X51451794Y-56795410D01*
X51451793Y-56795413D01*
X51424500Y-56897273D01*
X47130908Y-56897273D01*
X47148947Y-56886858D01*
X47223514Y-56812291D01*
X47276241Y-56720965D01*
X47303534Y-56619105D01*
X47303534Y-56513651D01*
X47276241Y-56411791D01*
X47223514Y-56320465D01*
X47148947Y-56245898D01*
X47057621Y-56193171D01*
X46955761Y-56165878D01*
X46850307Y-56165878D01*
X46748447Y-56193171D01*
X46748444Y-56193172D01*
X46657119Y-56245899D01*
X46582555Y-56320463D01*
X46529828Y-56411788D01*
X46529827Y-56411791D01*
X46502535Y-56513646D01*
X46502136Y-56516682D01*
X46501086Y-56519054D01*
X46500431Y-56521501D01*
X46500049Y-56521398D01*
X46473871Y-56580579D01*
X46415547Y-56619052D01*
X46379196Y-56624500D01*
X46297273Y-56624500D01*
X46195413Y-56651793D01*
X46195410Y-56651794D01*
X46104085Y-56704521D01*
X46029521Y-56779085D01*
X45991572Y-56844814D01*
X45991571Y-56844815D01*
X45976793Y-56870413D01*
X45949500Y-56972273D01*
X45712996Y-56972273D01*
X45723207Y-56954587D01*
X45750500Y-56852727D01*
X45750500Y-56747273D01*
X45723207Y-56645413D01*
X45670480Y-56554087D01*
X45595913Y-56479520D01*
X45504587Y-56426793D01*
X45402727Y-56399500D01*
X45297273Y-56399500D01*
X45195413Y-56426793D01*
X45195410Y-56426794D01*
X45104085Y-56479521D01*
X45029521Y-56554085D01*
X44976794Y-56645410D01*
X44976793Y-56645413D01*
X44949500Y-56747273D01*
X43427923Y-56747273D01*
X43409705Y-56729055D01*
X43318379Y-56676328D01*
X43216519Y-56649035D01*
X43111065Y-56649035D01*
X43009205Y-56676328D01*
X43009202Y-56676329D01*
X42917877Y-56729056D01*
X42843313Y-56803620D01*
X42790586Y-56894945D01*
X42790585Y-56894948D01*
X42763292Y-56996808D01*
X23272600Y-56996808D01*
X23362063Y-56859308D01*
X23366876Y-56852434D01*
X23671686Y-56447026D01*
X23676944Y-56440503D01*
X23908687Y-56172273D01*
X38499500Y-56172273D01*
X38499500Y-56277727D01*
X38526793Y-56379587D01*
X38579520Y-56470913D01*
X38654087Y-56545480D01*
X38745413Y-56598207D01*
X38847273Y-56625500D01*
X38847275Y-56625500D01*
X38952725Y-56625500D01*
X38952727Y-56625500D01*
X39054587Y-56598207D01*
X39145913Y-56545480D01*
X39220480Y-56470913D01*
X39273207Y-56379587D01*
X39300500Y-56277727D01*
X39300500Y-56197273D01*
X40299500Y-56197273D01*
X40299500Y-56302727D01*
X40326793Y-56404587D01*
X40379520Y-56495913D01*
X40454087Y-56570480D01*
X40545413Y-56623207D01*
X40647273Y-56650500D01*
X40647275Y-56650500D01*
X40752725Y-56650500D01*
X40752727Y-56650500D01*
X40854587Y-56623207D01*
X40945913Y-56570480D01*
X41020480Y-56495913D01*
X41073207Y-56404587D01*
X41100500Y-56302727D01*
X41100500Y-56197273D01*
X41073705Y-56097273D01*
X55024500Y-56097273D01*
X55024500Y-56202727D01*
X55051793Y-56304587D01*
X55104520Y-56395913D01*
X55179087Y-56470480D01*
X55270413Y-56523207D01*
X55372273Y-56550500D01*
X55372275Y-56550500D01*
X55477725Y-56550500D01*
X55477727Y-56550500D01*
X55579587Y-56523207D01*
X55670913Y-56470480D01*
X55745480Y-56395913D01*
X55798207Y-56304587D01*
X55825500Y-56202727D01*
X55825500Y-56122273D01*
X56799500Y-56122273D01*
X56799500Y-56227727D01*
X56826793Y-56329587D01*
X56879520Y-56420913D01*
X56954087Y-56495480D01*
X57045413Y-56548207D01*
X57147273Y-56575500D01*
X57147275Y-56575500D01*
X57252725Y-56575500D01*
X57252727Y-56575500D01*
X57354587Y-56548207D01*
X57445913Y-56495480D01*
X57520480Y-56420913D01*
X57573207Y-56329587D01*
X57600500Y-56227727D01*
X57600500Y-56122273D01*
X57573207Y-56020413D01*
X57520480Y-55929087D01*
X57445913Y-55854520D01*
X57354587Y-55801793D01*
X57252727Y-55774500D01*
X57147273Y-55774500D01*
X57045413Y-55801793D01*
X57045410Y-55801794D01*
X56954085Y-55854521D01*
X56879521Y-55929085D01*
X56826794Y-56020410D01*
X56826793Y-56020413D01*
X56799500Y-56122273D01*
X55825500Y-56122273D01*
X55825500Y-56097273D01*
X55798207Y-55995413D01*
X55745480Y-55904087D01*
X55670913Y-55829520D01*
X55579587Y-55776793D01*
X55562718Y-55772273D01*
X63158500Y-55772273D01*
X63158500Y-55877727D01*
X63185793Y-55979587D01*
X63238520Y-56070913D01*
X63313087Y-56145480D01*
X63404413Y-56198207D01*
X63506273Y-56225500D01*
X63506275Y-56225500D01*
X63611725Y-56225500D01*
X63611727Y-56225500D01*
X63713587Y-56198207D01*
X63804913Y-56145480D01*
X63879480Y-56070913D01*
X63932207Y-55979587D01*
X63959500Y-55877727D01*
X63959500Y-55772273D01*
X63932207Y-55670413D01*
X63879480Y-55579087D01*
X63804913Y-55504520D01*
X63713587Y-55451793D01*
X63611727Y-55424500D01*
X63506273Y-55424500D01*
X63404413Y-55451793D01*
X63404410Y-55451794D01*
X63313085Y-55504521D01*
X63238521Y-55579085D01*
X63185794Y-55670410D01*
X63185793Y-55670413D01*
X63158500Y-55772273D01*
X55562718Y-55772273D01*
X55477727Y-55749500D01*
X55372273Y-55749500D01*
X55270413Y-55776793D01*
X55270410Y-55776794D01*
X55179085Y-55829521D01*
X55104521Y-55904085D01*
X55051794Y-55995410D01*
X55051793Y-55995413D01*
X55024500Y-56097273D01*
X41073705Y-56097273D01*
X41073207Y-56095413D01*
X41020480Y-56004087D01*
X40945913Y-55929520D01*
X40856203Y-55877726D01*
X40854589Y-55876794D01*
X40854588Y-55876793D01*
X40854587Y-55876793D01*
X40752727Y-55849500D01*
X40647273Y-55849500D01*
X40545413Y-55876793D01*
X40545410Y-55876794D01*
X40454085Y-55929521D01*
X40379521Y-56004085D01*
X40326794Y-56095410D01*
X40326793Y-56095413D01*
X40299500Y-56197273D01*
X39300500Y-56197273D01*
X39300500Y-56172273D01*
X39273207Y-56070413D01*
X39220480Y-55979087D01*
X39145913Y-55904520D01*
X39059312Y-55854521D01*
X39054589Y-55851794D01*
X39054588Y-55851793D01*
X39054587Y-55851793D01*
X38952727Y-55824500D01*
X38847273Y-55824500D01*
X38745413Y-55851793D01*
X38745410Y-55851794D01*
X38654085Y-55904521D01*
X38579521Y-55979085D01*
X38526794Y-56070410D01*
X38526793Y-56070413D01*
X38499500Y-56172273D01*
X23908687Y-56172273D01*
X24008577Y-56056656D01*
X24014239Y-56050536D01*
X24371118Y-55690084D01*
X24377216Y-55684328D01*
X24757431Y-55349158D01*
X24764537Y-55343347D01*
X24795079Y-55320215D01*
X67386171Y-55320215D01*
X67386171Y-55425669D01*
X67413464Y-55527529D01*
X67466191Y-55618855D01*
X67540758Y-55693422D01*
X67632084Y-55746149D01*
X67733944Y-55773442D01*
X67733946Y-55773442D01*
X67839396Y-55773442D01*
X67839398Y-55773442D01*
X67941258Y-55746149D01*
X68032584Y-55693422D01*
X68107151Y-55618855D01*
X68159878Y-55527529D01*
X68159880Y-55527519D01*
X68160074Y-55527054D01*
X68160350Y-55526711D01*
X68163942Y-55520490D01*
X68164911Y-55521049D01*
X68203912Y-55472648D01*
X68270205Y-55450579D01*
X68274638Y-55450500D01*
X68302725Y-55450500D01*
X68302727Y-55450500D01*
X68404587Y-55423207D01*
X68495913Y-55370480D01*
X68570480Y-55295913D01*
X68623207Y-55204587D01*
X68650500Y-55102727D01*
X68650500Y-54997273D01*
X68623207Y-54895413D01*
X68570480Y-54804087D01*
X68495913Y-54729520D01*
X68404587Y-54676793D01*
X68302727Y-54649500D01*
X68197273Y-54649500D01*
X68095413Y-54676793D01*
X68095410Y-54676794D01*
X68004085Y-54729521D01*
X67929522Y-54804084D01*
X67929520Y-54804086D01*
X67929520Y-54804087D01*
X67919806Y-54820913D01*
X67876791Y-54895415D01*
X67876593Y-54895895D01*
X67876317Y-54896237D01*
X67872729Y-54902452D01*
X67871759Y-54901892D01*
X67832752Y-54950298D01*
X67766458Y-54972363D01*
X67762032Y-54972442D01*
X67733944Y-54972442D01*
X67632084Y-54999735D01*
X67632081Y-54999736D01*
X67540756Y-55052463D01*
X67466192Y-55127027D01*
X67413465Y-55218352D01*
X67413464Y-55218355D01*
X67386171Y-55320215D01*
X24795079Y-55320215D01*
X25069062Y-55112705D01*
X25077260Y-55107003D01*
X25399069Y-54901896D01*
X25407691Y-54896878D01*
X25745025Y-54718393D01*
X25754021Y-54714088D01*
X26104652Y-54563408D01*
X26113963Y-54559844D01*
X26475615Y-54437944D01*
X26485196Y-54435141D01*
X26855467Y-54342830D01*
X26865267Y-54340803D01*
X27244236Y-54278264D01*
X27249168Y-54277551D01*
X29311326Y-54022273D01*
X53674500Y-54022273D01*
X53674500Y-54127727D01*
X53701793Y-54229587D01*
X53754520Y-54320913D01*
X53829087Y-54395480D01*
X53920413Y-54448207D01*
X54022273Y-54475500D01*
X54022275Y-54475500D01*
X54127723Y-54475500D01*
X54127727Y-54475500D01*
X54168410Y-54464599D01*
X54238255Y-54466262D01*
X54296118Y-54505424D01*
X54323623Y-54569652D01*
X54324500Y-54584374D01*
X54324500Y-54627727D01*
X54351793Y-54729587D01*
X54404520Y-54820913D01*
X54479087Y-54895480D01*
X54570413Y-54948207D01*
X54672273Y-54975500D01*
X54672275Y-54975500D01*
X54777725Y-54975500D01*
X54777727Y-54975500D01*
X54879587Y-54948207D01*
X54970913Y-54895480D01*
X55045480Y-54820913D01*
X55087701Y-54747784D01*
X56907492Y-54747784D01*
X56907492Y-54853238D01*
X56932939Y-54948206D01*
X56934785Y-54955097D01*
X56934786Y-54955100D01*
X56946564Y-54975500D01*
X56987512Y-55046424D01*
X57062079Y-55120991D01*
X57153405Y-55173718D01*
X57255265Y-55201011D01*
X57255267Y-55201011D01*
X57360717Y-55201011D01*
X57360719Y-55201011D01*
X57462579Y-55173718D01*
X57553905Y-55120991D01*
X57628472Y-55046424D01*
X57681199Y-54955098D01*
X57708492Y-54853238D01*
X57708492Y-54747784D01*
X57681199Y-54645924D01*
X57628472Y-54554598D01*
X57553905Y-54480031D01*
X57462579Y-54427304D01*
X57360719Y-54400011D01*
X57255265Y-54400011D01*
X57153405Y-54427304D01*
X57153402Y-54427305D01*
X57062077Y-54480032D01*
X56987513Y-54554596D01*
X56934786Y-54645921D01*
X56934785Y-54645924D01*
X56907492Y-54747784D01*
X55087701Y-54747784D01*
X55098207Y-54729587D01*
X55125500Y-54627727D01*
X55125500Y-54522273D01*
X55098207Y-54420413D01*
X55045480Y-54329087D01*
X54970913Y-54254520D01*
X54888720Y-54207066D01*
X54879589Y-54201794D01*
X54879588Y-54201793D01*
X54879587Y-54201793D01*
X54777727Y-54174500D01*
X54672273Y-54174500D01*
X54672271Y-54174500D01*
X54631592Y-54185400D01*
X54606598Y-54184804D01*
X54581853Y-54188363D01*
X54572272Y-54183987D01*
X54561742Y-54183737D01*
X54541036Y-54169722D01*
X54518297Y-54159338D01*
X54512603Y-54150478D01*
X54503880Y-54144574D01*
X54494038Y-54121590D01*
X54480523Y-54100560D01*
X54478243Y-54084702D01*
X54476377Y-54080345D01*
X54475500Y-54065625D01*
X54475500Y-54047273D01*
X74074500Y-54047273D01*
X74074500Y-54152727D01*
X74101793Y-54254587D01*
X74154520Y-54345913D01*
X74229087Y-54420480D01*
X74320413Y-54473207D01*
X74422273Y-54500500D01*
X74422275Y-54500500D01*
X74527725Y-54500500D01*
X74527727Y-54500500D01*
X74629587Y-54473207D01*
X74720913Y-54420480D01*
X74795480Y-54345913D01*
X74848207Y-54254587D01*
X74875500Y-54152727D01*
X74875500Y-54047273D01*
X74848207Y-53945413D01*
X74795480Y-53854087D01*
X74720913Y-53779520D01*
X74629587Y-53726793D01*
X74527727Y-53699500D01*
X74422273Y-53699500D01*
X74320413Y-53726793D01*
X74320410Y-53726794D01*
X74229085Y-53779521D01*
X74154521Y-53854085D01*
X74101794Y-53945410D01*
X74101793Y-53945413D01*
X74074500Y-54047273D01*
X54475500Y-54047273D01*
X54475500Y-54022275D01*
X54475500Y-54022273D01*
X54448207Y-53920413D01*
X54395480Y-53829087D01*
X54320913Y-53754520D01*
X54229587Y-53701793D01*
X54127727Y-53674500D01*
X54022273Y-53674500D01*
X53920413Y-53701793D01*
X53920410Y-53701794D01*
X53829085Y-53754521D01*
X53754521Y-53829085D01*
X53701794Y-53920410D01*
X53701793Y-53920413D01*
X53674500Y-54022273D01*
X29311326Y-54022273D01*
X31574152Y-53742154D01*
X31574152Y-53742155D01*
X31574156Y-53742153D01*
X31723037Y-53723730D01*
X31960905Y-53694297D01*
X31960908Y-53694297D01*
X31960923Y-53694294D01*
X31960934Y-53694293D01*
X32728976Y-53561339D01*
X33127898Y-53472273D01*
X46199500Y-53472273D01*
X46199500Y-53577727D01*
X46226793Y-53679587D01*
X46279520Y-53770913D01*
X46354087Y-53845480D01*
X46445413Y-53898207D01*
X46547273Y-53925500D01*
X46547275Y-53925500D01*
X46652725Y-53925500D01*
X46652727Y-53925500D01*
X46754587Y-53898207D01*
X46845913Y-53845480D01*
X46920480Y-53770913D01*
X46973207Y-53679587D01*
X47000500Y-53577727D01*
X47000500Y-53472273D01*
X46973207Y-53370413D01*
X46920480Y-53279087D01*
X46845913Y-53204520D01*
X46754587Y-53151793D01*
X46652727Y-53124500D01*
X46547273Y-53124500D01*
X46445413Y-53151793D01*
X46445410Y-53151794D01*
X46354085Y-53204521D01*
X46279521Y-53279085D01*
X46226794Y-53370410D01*
X46226793Y-53370413D01*
X46199500Y-53472273D01*
X33127898Y-53472273D01*
X33489711Y-53391492D01*
X34241367Y-53185147D01*
X34982195Y-52942785D01*
X34982218Y-52942776D01*
X34982230Y-52942772D01*
X35303941Y-52820047D01*
X35710469Y-52664969D01*
X36424495Y-52352348D01*
X37122610Y-52005647D01*
X37803188Y-51625676D01*
X38464646Y-51213318D01*
X39101487Y-50772273D01*
X62249500Y-50772273D01*
X62249500Y-50877727D01*
X62276793Y-50979587D01*
X62329520Y-51070913D01*
X62404087Y-51145480D01*
X62495413Y-51198207D01*
X62597273Y-51225500D01*
X62597275Y-51225500D01*
X62702725Y-51225500D01*
X62702727Y-51225500D01*
X62804587Y-51198207D01*
X62895913Y-51145480D01*
X62970480Y-51070913D01*
X63023207Y-50979587D01*
X63050500Y-50877727D01*
X63050500Y-50772273D01*
X63023207Y-50670413D01*
X62970480Y-50579087D01*
X62895913Y-50504520D01*
X62809922Y-50454873D01*
X62804589Y-50451794D01*
X62804588Y-50451793D01*
X62804587Y-50451793D01*
X62702727Y-50424500D01*
X62597273Y-50424500D01*
X62495413Y-50451793D01*
X62495410Y-50451794D01*
X62404085Y-50504521D01*
X62329521Y-50579085D01*
X62276794Y-50670410D01*
X62276793Y-50670413D01*
X62249500Y-50772273D01*
X39101487Y-50772273D01*
X39105443Y-50769533D01*
X39724086Y-50295355D01*
X40017295Y-50047273D01*
X73624500Y-50047273D01*
X73624500Y-50152727D01*
X73651793Y-50254587D01*
X73704520Y-50345913D01*
X73779087Y-50420480D01*
X73870413Y-50473207D01*
X73972273Y-50500500D01*
X73972275Y-50500500D01*
X74077725Y-50500500D01*
X74077727Y-50500500D01*
X74179587Y-50473207D01*
X74270913Y-50420480D01*
X74345480Y-50345913D01*
X74398207Y-50254587D01*
X74425500Y-50152727D01*
X74425500Y-50047273D01*
X74398207Y-49945413D01*
X74345480Y-49854087D01*
X74270913Y-49779520D01*
X74179587Y-49726793D01*
X74077727Y-49699500D01*
X73972273Y-49699500D01*
X73870413Y-49726793D01*
X73870410Y-49726794D01*
X73779085Y-49779521D01*
X73704521Y-49854085D01*
X73651794Y-49945410D01*
X73651793Y-49945413D01*
X73624500Y-50047273D01*
X40017295Y-50047273D01*
X40319137Y-49791887D01*
X40889210Y-49260302D01*
X40926238Y-49222273D01*
X49924500Y-49222273D01*
X49924500Y-49327727D01*
X49951731Y-49429353D01*
X49951793Y-49429586D01*
X49951794Y-49429589D01*
X49954486Y-49434252D01*
X50004520Y-49520913D01*
X50079087Y-49595480D01*
X50170413Y-49648207D01*
X50272273Y-49675500D01*
X50272275Y-49675500D01*
X50377725Y-49675500D01*
X50377727Y-49675500D01*
X50479587Y-49648207D01*
X50570913Y-49595480D01*
X50645480Y-49520913D01*
X50698207Y-49429587D01*
X50706865Y-49397273D01*
X65999500Y-49397273D01*
X65999500Y-49502727D01*
X66025394Y-49599363D01*
X66026793Y-49604586D01*
X66026794Y-49604589D01*
X66040922Y-49629059D01*
X66079520Y-49695913D01*
X66154087Y-49770480D01*
X66245413Y-49823207D01*
X66347273Y-49850500D01*
X66347275Y-49850500D01*
X66452725Y-49850500D01*
X66452727Y-49850500D01*
X66554587Y-49823207D01*
X66645913Y-49770480D01*
X66720480Y-49695913D01*
X66773207Y-49604587D01*
X66800500Y-49502727D01*
X66800500Y-49397273D01*
X66773207Y-49295413D01*
X66720480Y-49204087D01*
X66645913Y-49129520D01*
X66559430Y-49079589D01*
X66554589Y-49076794D01*
X66554588Y-49076793D01*
X66554587Y-49076793D01*
X66452727Y-49049500D01*
X66347273Y-49049500D01*
X66245413Y-49076793D01*
X66245410Y-49076794D01*
X66154085Y-49129521D01*
X66079521Y-49204085D01*
X66026794Y-49295410D01*
X66026793Y-49295413D01*
X65999500Y-49397273D01*
X50706865Y-49397273D01*
X50725500Y-49327727D01*
X50725500Y-49222273D01*
X50698207Y-49120413D01*
X50645480Y-49029087D01*
X50570913Y-48954520D01*
X50479587Y-48901793D01*
X50377727Y-48874500D01*
X50272273Y-48874500D01*
X50170413Y-48901793D01*
X50170410Y-48901794D01*
X50079085Y-48954521D01*
X50004521Y-49029085D01*
X49951794Y-49120410D01*
X49951793Y-49120413D01*
X49924500Y-49222273D01*
X40926238Y-49222273D01*
X41267027Y-48872273D01*
X68374500Y-48872273D01*
X68374500Y-48977727D01*
X68401793Y-49079587D01*
X68454520Y-49170913D01*
X68529087Y-49245480D01*
X68620413Y-49298207D01*
X68722273Y-49325500D01*
X68722275Y-49325500D01*
X68827725Y-49325500D01*
X68827727Y-49325500D01*
X68929587Y-49298207D01*
X69020913Y-49245480D01*
X69095480Y-49170913D01*
X69148207Y-49079587D01*
X69156865Y-49047273D01*
X71599500Y-49047273D01*
X71599500Y-49152727D01*
X71626295Y-49252726D01*
X71626793Y-49254586D01*
X71626794Y-49254589D01*
X71635372Y-49269447D01*
X71679520Y-49345913D01*
X71754087Y-49420480D01*
X71845413Y-49473207D01*
X71947273Y-49500500D01*
X71947275Y-49500500D01*
X72052725Y-49500500D01*
X72052727Y-49500500D01*
X72154587Y-49473207D01*
X72245913Y-49420480D01*
X72320480Y-49345913D01*
X72373207Y-49254587D01*
X72400500Y-49152727D01*
X72400500Y-49147273D01*
X74949500Y-49147273D01*
X74949500Y-49252727D01*
X74976793Y-49354587D01*
X75029520Y-49445913D01*
X75104087Y-49520480D01*
X75195413Y-49573207D01*
X75297273Y-49600500D01*
X75297275Y-49600500D01*
X75402725Y-49600500D01*
X75402727Y-49600500D01*
X75504587Y-49573207D01*
X75595913Y-49520480D01*
X75670480Y-49445913D01*
X75723207Y-49354587D01*
X75750500Y-49252727D01*
X75750500Y-49147273D01*
X75723207Y-49045413D01*
X75670480Y-48954087D01*
X75595913Y-48879520D01*
X75504587Y-48826793D01*
X75402727Y-48799500D01*
X75297273Y-48799500D01*
X75195413Y-48826793D01*
X75195410Y-48826794D01*
X75104085Y-48879521D01*
X75029521Y-48954085D01*
X74976794Y-49045410D01*
X74976793Y-49045413D01*
X74949500Y-49147273D01*
X72400500Y-49147273D01*
X72400500Y-49047273D01*
X72373207Y-48945413D01*
X72320480Y-48854087D01*
X72245913Y-48779520D01*
X72170647Y-48736065D01*
X72154589Y-48726794D01*
X72154588Y-48726793D01*
X72154587Y-48726793D01*
X72052727Y-48699500D01*
X71947273Y-48699500D01*
X71845413Y-48726793D01*
X71845410Y-48726794D01*
X71754085Y-48779521D01*
X71679521Y-48854085D01*
X71626794Y-48945410D01*
X71626793Y-48945413D01*
X71599500Y-49047273D01*
X69156865Y-49047273D01*
X69175500Y-48977727D01*
X69175500Y-48872273D01*
X69148207Y-48770413D01*
X69095480Y-48679087D01*
X69020913Y-48604520D01*
X68934430Y-48554589D01*
X68929589Y-48551794D01*
X68929588Y-48551793D01*
X68929587Y-48551793D01*
X68827727Y-48524500D01*
X68722273Y-48524500D01*
X68620413Y-48551793D01*
X68620410Y-48551794D01*
X68529085Y-48604521D01*
X68454521Y-48679085D01*
X68401794Y-48770410D01*
X68401793Y-48770413D01*
X68374500Y-48872273D01*
X41267027Y-48872273D01*
X41357339Y-48779520D01*
X41432946Y-48701869D01*
X41432950Y-48701864D01*
X41432977Y-48701837D01*
X41949172Y-48117793D01*
X42145915Y-47872273D01*
X46174500Y-47872273D01*
X46174500Y-47977727D01*
X46201793Y-48079587D01*
X46254520Y-48170913D01*
X46329087Y-48245480D01*
X46420413Y-48298207D01*
X46522273Y-48325500D01*
X46522275Y-48325500D01*
X46627725Y-48325500D01*
X46627727Y-48325500D01*
X46729587Y-48298207D01*
X46820913Y-48245480D01*
X46895480Y-48170913D01*
X46948207Y-48079587D01*
X46975500Y-47977727D01*
X46975500Y-47872273D01*
X46948207Y-47770413D01*
X46895480Y-47679087D01*
X46820913Y-47604520D01*
X46729587Y-47551793D01*
X46627727Y-47524500D01*
X46522273Y-47524500D01*
X46420413Y-47551793D01*
X46420410Y-47551794D01*
X46329085Y-47604521D01*
X46254521Y-47679085D01*
X46201794Y-47770410D01*
X46201793Y-47770413D01*
X46174500Y-47872273D01*
X42145915Y-47872273D01*
X42436594Y-47509529D01*
X42894107Y-46878461D01*
X43096501Y-46568896D01*
X46888330Y-46568896D01*
X46888330Y-46749999D01*
X46916659Y-46928858D01*
X46972617Y-47101084D01*
X46972618Y-47101087D01*
X47054836Y-47262445D01*
X47161271Y-47408942D01*
X47161275Y-47408947D01*
X47289330Y-47537002D01*
X47289335Y-47537006D01*
X47382261Y-47604520D01*
X47435836Y-47643444D01*
X47541314Y-47697188D01*
X47597190Y-47725659D01*
X47597193Y-47725660D01*
X47683306Y-47753639D01*
X47769421Y-47781619D01*
X47852259Y-47794739D01*
X47948279Y-47809948D01*
X47948284Y-47809948D01*
X48129381Y-47809948D01*
X48216089Y-47796213D01*
X48308239Y-47781619D01*
X48430219Y-47741986D01*
X48500060Y-47739991D01*
X48559893Y-47776072D01*
X48590721Y-47838773D01*
X48582756Y-47908187D01*
X48577392Y-47918967D01*
X48576793Y-47920413D01*
X48549500Y-48022273D01*
X48549500Y-48127727D01*
X48576793Y-48229587D01*
X48629520Y-48320913D01*
X48704087Y-48395480D01*
X48795413Y-48448207D01*
X48897273Y-48475500D01*
X48897275Y-48475500D01*
X49002725Y-48475500D01*
X49002727Y-48475500D01*
X49104587Y-48448207D01*
X49195913Y-48395480D01*
X49270480Y-48320913D01*
X49323207Y-48229587D01*
X49350500Y-48127727D01*
X49350500Y-48022273D01*
X49323207Y-47920413D01*
X49270480Y-47829087D01*
X49195913Y-47754520D01*
X49104587Y-47701793D01*
X49002727Y-47674500D01*
X48950194Y-47674500D01*
X48883155Y-47654815D01*
X48837400Y-47602011D01*
X48827456Y-47532853D01*
X48856481Y-47469297D01*
X48862513Y-47462819D01*
X48883596Y-47441736D01*
X48916383Y-47408949D01*
X49022826Y-47262442D01*
X49105041Y-47101087D01*
X49161001Y-46928857D01*
X49177695Y-46823455D01*
X49189330Y-46749999D01*
X49189330Y-46568896D01*
X49167265Y-46429589D01*
X49161001Y-46390039D01*
X49110767Y-46235433D01*
X49106492Y-46222273D01*
X61774500Y-46222273D01*
X61774500Y-46327727D01*
X61801793Y-46429587D01*
X61854520Y-46520913D01*
X61929087Y-46595480D01*
X62020413Y-46648207D01*
X62122273Y-46675500D01*
X62122282Y-46675500D01*
X62124333Y-46675771D01*
X62125941Y-46676482D01*
X62130123Y-46677603D01*
X62129948Y-46678255D01*
X62188229Y-46704037D01*
X62226701Y-46762361D01*
X62227923Y-46830803D01*
X62223859Y-46845969D01*
X62202599Y-46925315D01*
X62202599Y-47030769D01*
X62229892Y-47132629D01*
X62282619Y-47223955D01*
X62357186Y-47298522D01*
X62448512Y-47351249D01*
X62490714Y-47362557D01*
X62550375Y-47398920D01*
X62580905Y-47461766D01*
X62578397Y-47514423D01*
X62549500Y-47622271D01*
X62549500Y-47622273D01*
X62549500Y-47727727D01*
X62576659Y-47829085D01*
X62576793Y-47829586D01*
X62576794Y-47829589D01*
X62590922Y-47854059D01*
X62629520Y-47920913D01*
X62704087Y-47995480D01*
X62795413Y-48048207D01*
X62897273Y-48075500D01*
X62897275Y-48075500D01*
X63002725Y-48075500D01*
X63002727Y-48075500D01*
X63104587Y-48048207D01*
X63195913Y-47995480D01*
X63270480Y-47920913D01*
X63323207Y-47829587D01*
X63350500Y-47727727D01*
X63350500Y-47622273D01*
X63323207Y-47520413D01*
X63270480Y-47429087D01*
X63195913Y-47354520D01*
X63104587Y-47301793D01*
X63062381Y-47290484D01*
X63002722Y-47254120D01*
X62972193Y-47191273D01*
X62974701Y-47138617D01*
X62976304Y-47132630D01*
X62976306Y-47132629D01*
X63003599Y-47030769D01*
X63003599Y-46925315D01*
X62976306Y-46823455D01*
X62923579Y-46732129D01*
X62849012Y-46657562D01*
X62757686Y-46604835D01*
X62655826Y-46577542D01*
X62655825Y-46577542D01*
X62655821Y-46577541D01*
X62653755Y-46577269D01*
X62652141Y-46576555D01*
X62647976Y-46575439D01*
X62648150Y-46574788D01*
X62589861Y-46548997D01*
X62551394Y-46490670D01*
X62550175Y-46422241D01*
X62575500Y-46327727D01*
X62575500Y-46222273D01*
X62548207Y-46120413D01*
X62495480Y-46029087D01*
X62420913Y-45954520D01*
X62329587Y-45901793D01*
X62227727Y-45874500D01*
X62122273Y-45874500D01*
X62020413Y-45901793D01*
X62020410Y-45901794D01*
X61929085Y-45954521D01*
X61854521Y-46029085D01*
X61801794Y-46120410D01*
X61801793Y-46120413D01*
X61774500Y-46222273D01*
X49106492Y-46222273D01*
X49105043Y-46217814D01*
X49105041Y-46217808D01*
X49076570Y-46161932D01*
X49022826Y-46056454D01*
X48964139Y-45975678D01*
X48916388Y-45909953D01*
X48916384Y-45909948D01*
X48788329Y-45781893D01*
X48788324Y-45781889D01*
X48703494Y-45720257D01*
X67174500Y-45720257D01*
X67174500Y-45825711D01*
X67201793Y-45927571D01*
X67254520Y-46018897D01*
X67329087Y-46093464D01*
X67420413Y-46146191D01*
X67522273Y-46173484D01*
X67522275Y-46173484D01*
X67627725Y-46173484D01*
X67627727Y-46173484D01*
X67729587Y-46146191D01*
X67820913Y-46093464D01*
X67895480Y-46018897D01*
X67948207Y-45927571D01*
X67975500Y-45825711D01*
X67975500Y-45720257D01*
X67958041Y-45655098D01*
X67959704Y-45585252D01*
X67998866Y-45527389D01*
X68063095Y-45499885D01*
X68094005Y-45500069D01*
X68097268Y-45500498D01*
X68097273Y-45500500D01*
X68097278Y-45500500D01*
X68202725Y-45500500D01*
X68202727Y-45500500D01*
X68304587Y-45473207D01*
X68395913Y-45420480D01*
X68470480Y-45345913D01*
X68523207Y-45254587D01*
X68550500Y-45152727D01*
X68550500Y-45047273D01*
X68523207Y-44945413D01*
X68470480Y-44854087D01*
X68395913Y-44779520D01*
X68309312Y-44729521D01*
X68304589Y-44726794D01*
X68304588Y-44726793D01*
X68304587Y-44726793D01*
X68202727Y-44699500D01*
X68097273Y-44699500D01*
X67995413Y-44726793D01*
X67995410Y-44726794D01*
X67904085Y-44779521D01*
X67829521Y-44854085D01*
X67776794Y-44945410D01*
X67776793Y-44945413D01*
X67749500Y-45047273D01*
X67749500Y-45152727D01*
X67754257Y-45170480D01*
X67766958Y-45217882D01*
X67765295Y-45287732D01*
X67726132Y-45345594D01*
X67661903Y-45373098D01*
X67631003Y-45372915D01*
X67627728Y-45372484D01*
X67627727Y-45372484D01*
X67522273Y-45372484D01*
X67420413Y-45399777D01*
X67420410Y-45399778D01*
X67329085Y-45452505D01*
X67254521Y-45527069D01*
X67201794Y-45618394D01*
X67201793Y-45618397D01*
X67174500Y-45720257D01*
X48703494Y-45720257D01*
X48641827Y-45675454D01*
X48641826Y-45675453D01*
X48641824Y-45675452D01*
X48580542Y-45644227D01*
X48480469Y-45593236D01*
X48480466Y-45593235D01*
X48308240Y-45537277D01*
X48129381Y-45508948D01*
X48129376Y-45508948D01*
X47948284Y-45508948D01*
X47948279Y-45508948D01*
X47769419Y-45537277D01*
X47597193Y-45593235D01*
X47597190Y-45593236D01*
X47435832Y-45675454D01*
X47289335Y-45781889D01*
X47289330Y-45781893D01*
X47161275Y-45909948D01*
X47161271Y-45909953D01*
X47054836Y-46056450D01*
X46972618Y-46217808D01*
X46972617Y-46217811D01*
X46916659Y-46390037D01*
X46888330Y-46568896D01*
X43096501Y-46568896D01*
X43144047Y-46496174D01*
X43144048Y-46496172D01*
X43269633Y-46304087D01*
X43320648Y-46226059D01*
X43715222Y-45553841D01*
X43944024Y-45117055D01*
X43954387Y-45097273D01*
X51524500Y-45097273D01*
X51524500Y-45202727D01*
X51551793Y-45304587D01*
X51604520Y-45395913D01*
X51679087Y-45470480D01*
X51770413Y-45523207D01*
X51872273Y-45550500D01*
X51872275Y-45550500D01*
X51977725Y-45550500D01*
X51977727Y-45550500D01*
X52079587Y-45523207D01*
X52170913Y-45470480D01*
X52245480Y-45395913D01*
X52298207Y-45304587D01*
X52325500Y-45202727D01*
X52325500Y-45097273D01*
X52298705Y-44997273D01*
X60449500Y-44997273D01*
X60449500Y-45102727D01*
X60476793Y-45204587D01*
X60529520Y-45295913D01*
X60604087Y-45370480D01*
X60695413Y-45423207D01*
X60797273Y-45450500D01*
X60797275Y-45450500D01*
X60902725Y-45450500D01*
X60902727Y-45450500D01*
X61004587Y-45423207D01*
X61095913Y-45370480D01*
X61170480Y-45295913D01*
X61170480Y-45295912D01*
X61174819Y-45291574D01*
X61236142Y-45258089D01*
X61305834Y-45263073D01*
X61350181Y-45291574D01*
X61404087Y-45345480D01*
X61495413Y-45398207D01*
X61597273Y-45425500D01*
X61597275Y-45425500D01*
X61702725Y-45425500D01*
X61702727Y-45425500D01*
X61804587Y-45398207D01*
X61895913Y-45345480D01*
X61970480Y-45270913D01*
X62023207Y-45179587D01*
X62050500Y-45077727D01*
X62050500Y-44972273D01*
X62023207Y-44870413D01*
X61970480Y-44779087D01*
X61961805Y-44770412D01*
X61928320Y-44709089D01*
X61933304Y-44639397D01*
X61975176Y-44583464D01*
X61987477Y-44575350D01*
X61995913Y-44570480D01*
X62070480Y-44495913D01*
X62123207Y-44404587D01*
X62150500Y-44302727D01*
X62150500Y-44197273D01*
X62123207Y-44095413D01*
X62070480Y-44004087D01*
X61995913Y-43929520D01*
X61904587Y-43876793D01*
X61802727Y-43849500D01*
X61697273Y-43849500D01*
X61595413Y-43876793D01*
X61595410Y-43876794D01*
X61504085Y-43929521D01*
X61429521Y-44004085D01*
X61376794Y-44095410D01*
X61376793Y-44095413D01*
X61349500Y-44197273D01*
X61349500Y-44302727D01*
X61376793Y-44404587D01*
X61420222Y-44479809D01*
X61429521Y-44495914D01*
X61438194Y-44504587D01*
X61471679Y-44565910D01*
X61466695Y-44635602D01*
X61424823Y-44691535D01*
X61412517Y-44699652D01*
X61410323Y-44700919D01*
X61404085Y-44704521D01*
X61325181Y-44783426D01*
X61263858Y-44816911D01*
X61194166Y-44811927D01*
X61149819Y-44783426D01*
X61095914Y-44729521D01*
X61095913Y-44729520D01*
X61004587Y-44676793D01*
X60902727Y-44649500D01*
X60797273Y-44649500D01*
X60695413Y-44676793D01*
X60695410Y-44676794D01*
X60604085Y-44729521D01*
X60529521Y-44804085D01*
X60476794Y-44895410D01*
X60476793Y-44895413D01*
X60449500Y-44997273D01*
X52298705Y-44997273D01*
X52298207Y-44995413D01*
X52245480Y-44904087D01*
X52170913Y-44829520D01*
X52084312Y-44779521D01*
X52079589Y-44776794D01*
X52079588Y-44776793D01*
X52079587Y-44776793D01*
X51977727Y-44749500D01*
X51872273Y-44749500D01*
X51770413Y-44776793D01*
X51770410Y-44776794D01*
X51679085Y-44829521D01*
X51604521Y-44904085D01*
X51551794Y-44995410D01*
X51551794Y-44995411D01*
X51551793Y-44995413D01*
X51524500Y-45097273D01*
X43954387Y-45097273D01*
X43988785Y-45031607D01*
X44008725Y-44993540D01*
X44076911Y-44863373D01*
X44404873Y-44156262D01*
X44561041Y-43771998D01*
X69330303Y-43771998D01*
X69330303Y-43775416D01*
X69330303Y-43984572D01*
X69333394Y-44004085D01*
X69361662Y-44182568D01*
X69363557Y-44194528D01*
X69426886Y-44389435D01*
X69429247Y-44396699D01*
X69525754Y-44586105D01*
X69650693Y-44758071D01*
X69801016Y-44908394D01*
X69972982Y-45033333D01*
X69972984Y-45033334D01*
X69972987Y-45033336D01*
X70162391Y-45129842D01*
X70364560Y-45195531D01*
X70574516Y-45228785D01*
X70574517Y-45228785D01*
X70787089Y-45228785D01*
X70787090Y-45228785D01*
X70997046Y-45195531D01*
X71199215Y-45129842D01*
X71388619Y-45033336D01*
X71472666Y-44972273D01*
X71560589Y-44908394D01*
X71560591Y-44908391D01*
X71560595Y-44908389D01*
X71710907Y-44758077D01*
X71710909Y-44758073D01*
X71710912Y-44758071D01*
X71835851Y-44586105D01*
X71835850Y-44586105D01*
X71835854Y-44586101D01*
X71932360Y-44396697D01*
X71998049Y-44194528D01*
X72031303Y-43984572D01*
X72031303Y-43771998D01*
X71998049Y-43562042D01*
X71932360Y-43359873D01*
X71867956Y-43233472D01*
X71835853Y-43170466D01*
X71800839Y-43122273D01*
X73424500Y-43122273D01*
X73424500Y-43227727D01*
X73451793Y-43329587D01*
X73504520Y-43420913D01*
X73579087Y-43495480D01*
X73670413Y-43548207D01*
X73772273Y-43575500D01*
X73772275Y-43575500D01*
X73877725Y-43575500D01*
X73877727Y-43575500D01*
X73979587Y-43548207D01*
X74070913Y-43495480D01*
X74145480Y-43420913D01*
X74198207Y-43329587D01*
X74225500Y-43227727D01*
X74225500Y-43122273D01*
X74198207Y-43020413D01*
X74145480Y-42929087D01*
X74070913Y-42854520D01*
X73979587Y-42801793D01*
X73877727Y-42774500D01*
X73772273Y-42774500D01*
X73670413Y-42801793D01*
X73670410Y-42801794D01*
X73579085Y-42854521D01*
X73504521Y-42929085D01*
X73451794Y-43020410D01*
X73451793Y-43020413D01*
X73424500Y-43122273D01*
X71800839Y-43122273D01*
X71710912Y-42998498D01*
X71560589Y-42848175D01*
X71388623Y-42723236D01*
X71199217Y-42626729D01*
X71199216Y-42626728D01*
X71199215Y-42626728D01*
X70997046Y-42561039D01*
X70997044Y-42561038D01*
X70997043Y-42561038D01*
X70835760Y-42535493D01*
X70787090Y-42527785D01*
X70574516Y-42527785D01*
X70525845Y-42535493D01*
X70364563Y-42561038D01*
X70162388Y-42626729D01*
X69972982Y-42723236D01*
X69801016Y-42848175D01*
X69650693Y-42998498D01*
X69525754Y-43170464D01*
X69429247Y-43359870D01*
X69429246Y-43359872D01*
X69429246Y-43359873D01*
X69402446Y-43442355D01*
X69363556Y-43562045D01*
X69337377Y-43727337D01*
X69330303Y-43771998D01*
X44561041Y-43771998D01*
X44634133Y-43592150D01*
X44698329Y-43434192D01*
X44698332Y-43434182D01*
X44698344Y-43434154D01*
X44956642Y-42698730D01*
X45179164Y-41951704D01*
X45365393Y-41194812D01*
X45514895Y-40429819D01*
X45627323Y-39658505D01*
X45702413Y-38882666D01*
X45739992Y-38104108D01*
X45739972Y-37324643D01*
X45702354Y-36546086D01*
X45701389Y-36536119D01*
X49078070Y-36536119D01*
X49078070Y-40788002D01*
X49096101Y-40907626D01*
X49115610Y-41037056D01*
X49115611Y-41037058D01*
X49115612Y-41037064D01*
X49189850Y-41277738D01*
X49299131Y-41504662D01*
X49299133Y-41504664D01*
X49299134Y-41504667D01*
X49429228Y-41695480D01*
X49441018Y-41712773D01*
X49612330Y-41897405D01*
X49612334Y-41897408D01*
X49612335Y-41897409D01*
X49809256Y-42054448D01*
X50027384Y-42180385D01*
X50261845Y-42272404D01*
X50507402Y-42328451D01*
X50579164Y-42333828D01*
X50758565Y-42347273D01*
X50758570Y-42347273D01*
X50758575Y-42347273D01*
X50915550Y-42335509D01*
X51009738Y-42328451D01*
X51255295Y-42272404D01*
X51489756Y-42180385D01*
X51707884Y-42054448D01*
X51904805Y-41897409D01*
X51921342Y-41879587D01*
X51952990Y-41845478D01*
X52076122Y-41712773D01*
X52218006Y-41504667D01*
X52327290Y-41277738D01*
X52401530Y-41037056D01*
X52427378Y-40865567D01*
X66149099Y-40865567D01*
X66149099Y-40971021D01*
X66171473Y-41054520D01*
X66176392Y-41072880D01*
X66176393Y-41072883D01*
X66190521Y-41097353D01*
X66229119Y-41164207D01*
X66303686Y-41238774D01*
X66395012Y-41291501D01*
X66496872Y-41318794D01*
X66496874Y-41318794D01*
X66602324Y-41318794D01*
X66602326Y-41318794D01*
X66704186Y-41291501D01*
X66795512Y-41238774D01*
X66870079Y-41164207D01*
X66922806Y-41072881D01*
X66950099Y-40971021D01*
X66950099Y-40865567D01*
X66922806Y-40763707D01*
X66870079Y-40672381D01*
X66795512Y-40597814D01*
X66720526Y-40554521D01*
X66704188Y-40545088D01*
X66704187Y-40545087D01*
X66704186Y-40545087D01*
X66602326Y-40517794D01*
X66496872Y-40517794D01*
X66395012Y-40545087D01*
X66395009Y-40545088D01*
X66303684Y-40597815D01*
X66229120Y-40672379D01*
X66176393Y-40763704D01*
X66176392Y-40763707D01*
X66149099Y-40865567D01*
X52427378Y-40865567D01*
X52439070Y-40787997D01*
X52439070Y-40662061D01*
X52439070Y-40627710D01*
X52439070Y-36632125D01*
X52439070Y-36536125D01*
X52401530Y-36287066D01*
X52327290Y-36046384D01*
X52218006Y-35819455D01*
X52076122Y-35611349D01*
X52021265Y-35552227D01*
X51904809Y-35426716D01*
X51866936Y-35396513D01*
X51707884Y-35269674D01*
X51489756Y-35143737D01*
X51255295Y-35051718D01*
X51255286Y-35051716D01*
X51255283Y-35051715D01*
X51009735Y-34995670D01*
X50758575Y-34976849D01*
X50758565Y-34976849D01*
X50507404Y-34995670D01*
X50261856Y-35051715D01*
X50261848Y-35051717D01*
X50261845Y-35051718D01*
X50261842Y-35051718D01*
X50261839Y-35051720D01*
X50027383Y-35143737D01*
X49809256Y-35269674D01*
X49612330Y-35426716D01*
X49441018Y-35611348D01*
X49299131Y-35819459D01*
X49189850Y-36046383D01*
X49115612Y-36287057D01*
X49115611Y-36287062D01*
X49115610Y-36287066D01*
X49105713Y-36352726D01*
X49078070Y-36536119D01*
X45701389Y-36536119D01*
X45627223Y-35770251D01*
X45583662Y-35471501D01*
X45514763Y-34998978D01*
X45514757Y-34998944D01*
X45505722Y-34952727D01*
X45365216Y-34233957D01*
X45344883Y-34151337D01*
X45178956Y-33477108D01*
X45178947Y-33477074D01*
X45176536Y-33468982D01*
X44956388Y-32730060D01*
X44698053Y-31994650D01*
X44583642Y-31713205D01*
X44570572Y-31681054D01*
X44568530Y-31673785D01*
X44564692Y-31664343D01*
X44564693Y-31664342D01*
X44553068Y-31635739D01*
X44550632Y-31629225D01*
X44539079Y-31595480D01*
X44450309Y-31336181D01*
X44446545Y-31322769D01*
X44437480Y-31281733D01*
X44409984Y-31157266D01*
X45391377Y-31157266D01*
X45391377Y-31373773D01*
X45425247Y-31587618D01*
X45492149Y-31793526D01*
X45492150Y-31793529D01*
X45583226Y-31972273D01*
X45590444Y-31986439D01*
X45717705Y-32161598D01*
X45870799Y-32314692D01*
X46045958Y-32441953D01*
X46140574Y-32490162D01*
X46238867Y-32540246D01*
X46238870Y-32540247D01*
X46331704Y-32570410D01*
X46444780Y-32607150D01*
X46658623Y-32641020D01*
X46658624Y-32641020D01*
X46875130Y-32641020D01*
X46875131Y-32641020D01*
X47088974Y-32607150D01*
X47294886Y-32540246D01*
X47487796Y-32441953D01*
X47662955Y-32314692D01*
X47816049Y-32161598D01*
X47943310Y-31986439D01*
X48041603Y-31793529D01*
X48108507Y-31587617D01*
X48142377Y-31373774D01*
X48142377Y-31157266D01*
X48108507Y-30943423D01*
X48055609Y-30780618D01*
X48041604Y-30737513D01*
X48041603Y-30737510D01*
X47983729Y-30623928D01*
X47943310Y-30544601D01*
X47816049Y-30369442D01*
X47662955Y-30216348D01*
X47487796Y-30089087D01*
X47294886Y-29990793D01*
X47294883Y-29990792D01*
X47088975Y-29923890D01*
X46956634Y-29902929D01*
X46875131Y-29890020D01*
X46658623Y-29890020D01*
X46587342Y-29901310D01*
X46444778Y-29923890D01*
X46238870Y-29990792D01*
X46238867Y-29990793D01*
X46045957Y-30089087D01*
X45948757Y-30159708D01*
X45870799Y-30216348D01*
X45870797Y-30216350D01*
X45870796Y-30216350D01*
X45717707Y-30369439D01*
X45717707Y-30369440D01*
X45717705Y-30369442D01*
X45673168Y-30430742D01*
X45590444Y-30544600D01*
X45492150Y-30737510D01*
X45492149Y-30737513D01*
X45425247Y-30943421D01*
X45391377Y-31157266D01*
X44409984Y-31157266D01*
X44380485Y-31023734D01*
X44378250Y-31009984D01*
X44372889Y-30959107D01*
X44346156Y-30705426D01*
X44345477Y-30691537D01*
X44347754Y-30385276D01*
X44348641Y-30371375D01*
X44351293Y-30349358D01*
X44385260Y-30067328D01*
X44387693Y-30053645D01*
X44458198Y-29755593D01*
X44462160Y-29742249D01*
X44466625Y-29729815D01*
X44501960Y-29631400D01*
X44565646Y-29454024D01*
X44571083Y-29441196D01*
X44706258Y-29166385D01*
X44713088Y-29154270D01*
X44878243Y-28896355D01*
X44886380Y-28885094D01*
X45081647Y-28644601D01*
X45086174Y-28639338D01*
X45095501Y-28629087D01*
X47526981Y-25956590D01*
X47526988Y-25956586D01*
X47567722Y-25911814D01*
X47567723Y-25911811D01*
X47690511Y-25776863D01*
X47910155Y-25485474D01*
X48102017Y-25175086D01*
X48264463Y-24848340D01*
X48396112Y-24508016D01*
X48495844Y-24157011D01*
X48562810Y-23798309D01*
X48562820Y-23798207D01*
X48574529Y-23671699D01*
X48596441Y-23434962D01*
X48596434Y-23252513D01*
X48596434Y-23218162D01*
X48596434Y-19085116D01*
X55024500Y-19085116D01*
X55024500Y-19085118D01*
X55024500Y-20435118D01*
X55024500Y-20514882D01*
X55055024Y-20588574D01*
X55936426Y-21469976D01*
X56010118Y-21500500D01*
X56089882Y-21500500D01*
X56365588Y-21500500D01*
X56432627Y-21520185D01*
X56453269Y-21536819D01*
X56913181Y-21996731D01*
X56946666Y-22058054D01*
X56949500Y-22084412D01*
X56949500Y-25529022D01*
X56929815Y-25596061D01*
X56877011Y-25641816D01*
X56807853Y-25651760D01*
X56793408Y-25648797D01*
X56702728Y-25624500D01*
X56702727Y-25624500D01*
X56597273Y-25624500D01*
X56495413Y-25651793D01*
X56495410Y-25651794D01*
X56404085Y-25704521D01*
X56329521Y-25779085D01*
X56327882Y-25781222D01*
X56326040Y-25782566D01*
X56323773Y-25784834D01*
X56323419Y-25784480D01*
X56271453Y-25822423D01*
X56201707Y-25826576D01*
X56167508Y-25813120D01*
X56104589Y-25776794D01*
X56104588Y-25776793D01*
X56104587Y-25776793D01*
X56002727Y-25749500D01*
X55897273Y-25749500D01*
X55795413Y-25776793D01*
X55795410Y-25776794D01*
X55704085Y-25829521D01*
X55629521Y-25904085D01*
X55576794Y-25995410D01*
X55576793Y-25995413D01*
X55549500Y-26097273D01*
X55549500Y-26202727D01*
X55576793Y-26304587D01*
X55629520Y-26395913D01*
X55704087Y-26470480D01*
X55795413Y-26523207D01*
X55897273Y-26550500D01*
X55897275Y-26550500D01*
X56002725Y-26550500D01*
X56002727Y-26550500D01*
X56104587Y-26523207D01*
X56195913Y-26470480D01*
X56270480Y-26395913D01*
X56270487Y-26395899D01*
X56272107Y-26393790D01*
X56273946Y-26392446D01*
X56276227Y-26390166D01*
X56276582Y-26390521D01*
X56328531Y-26352581D01*
X56398276Y-26348419D01*
X56432490Y-26361878D01*
X56495413Y-26398207D01*
X56597273Y-26425500D01*
X56597275Y-26425500D01*
X56702724Y-26425500D01*
X56702727Y-26425500D01*
X56793409Y-26401202D01*
X56863256Y-26402865D01*
X56921119Y-26442027D01*
X56948623Y-26506256D01*
X56949500Y-26520977D01*
X56949500Y-28239883D01*
X56965175Y-28277725D01*
X56980024Y-28313574D01*
X59177549Y-30511099D01*
X61363181Y-32696730D01*
X61396666Y-32758053D01*
X61399500Y-32784411D01*
X61399500Y-37389880D01*
X61399501Y-37389886D01*
X61400865Y-37393179D01*
X61401698Y-37400933D01*
X61401883Y-37401861D01*
X61401799Y-37401877D01*
X61408332Y-37462648D01*
X61406079Y-37472718D01*
X61399500Y-37497273D01*
X61399500Y-37602727D01*
X61426793Y-37704587D01*
X61479520Y-37795913D01*
X61554087Y-37870480D01*
X61645413Y-37923207D01*
X61747273Y-37950500D01*
X61747275Y-37950500D01*
X61750500Y-37950500D01*
X61753121Y-37951269D01*
X61755333Y-37951561D01*
X61755287Y-37951905D01*
X61817539Y-37970185D01*
X61863294Y-38022989D01*
X61874500Y-38074500D01*
X61874500Y-38152727D01*
X61901793Y-38254587D01*
X61954520Y-38345913D01*
X62029087Y-38420480D01*
X62120413Y-38473207D01*
X62222273Y-38500500D01*
X62222275Y-38500500D01*
X62256289Y-38500500D01*
X62323328Y-38520185D01*
X62369083Y-38572989D01*
X62379027Y-38642147D01*
X62350002Y-38705703D01*
X62318293Y-38731884D01*
X62282193Y-38752727D01*
X62279084Y-38754522D01*
X62204521Y-38829085D01*
X62151794Y-38920410D01*
X62151793Y-38920413D01*
X62124500Y-39022273D01*
X62124500Y-39127727D01*
X62151793Y-39229587D01*
X62204520Y-39320913D01*
X62279087Y-39395480D01*
X62370413Y-39448207D01*
X62472273Y-39475500D01*
X62472275Y-39475500D01*
X62577725Y-39475500D01*
X62577727Y-39475500D01*
X62679587Y-39448207D01*
X62770913Y-39395480D01*
X62845480Y-39320913D01*
X62898207Y-39229587D01*
X62925500Y-39127727D01*
X62925500Y-39022273D01*
X62918148Y-38994834D01*
X62919811Y-38924988D01*
X62958973Y-38867125D01*
X63005828Y-38842970D01*
X63079587Y-38823207D01*
X63170913Y-38770480D01*
X63245480Y-38695913D01*
X63273562Y-38647273D01*
X81399500Y-38647273D01*
X81399500Y-38752727D01*
X81426793Y-38854587D01*
X81479520Y-38945913D01*
X81554087Y-39020480D01*
X81645413Y-39073207D01*
X81747273Y-39100500D01*
X81747275Y-39100500D01*
X81852725Y-39100500D01*
X81852727Y-39100500D01*
X81954587Y-39073207D01*
X82045913Y-39020480D01*
X82120480Y-38945913D01*
X82173207Y-38854587D01*
X82200500Y-38752727D01*
X82200500Y-38647273D01*
X82173207Y-38545413D01*
X82120480Y-38454087D01*
X82045913Y-38379520D01*
X81954587Y-38326793D01*
X81852727Y-38299500D01*
X81747273Y-38299500D01*
X81645413Y-38326793D01*
X81645410Y-38326794D01*
X81554085Y-38379521D01*
X81479521Y-38454085D01*
X81426794Y-38545410D01*
X81426793Y-38545413D01*
X81399500Y-38647273D01*
X63273562Y-38647273D01*
X63298207Y-38604587D01*
X63325500Y-38502727D01*
X63325500Y-38397273D01*
X63298207Y-38295413D01*
X63245480Y-38204087D01*
X63170913Y-38129520D01*
X63079587Y-38076793D01*
X62977727Y-38049500D01*
X62872273Y-38049500D01*
X62872271Y-38049500D01*
X62809011Y-38066450D01*
X62739161Y-38064787D01*
X62681299Y-38025623D01*
X62657144Y-37978768D01*
X62648207Y-37945413D01*
X62595480Y-37854087D01*
X62520913Y-37779520D01*
X62454059Y-37740922D01*
X62429589Y-37726794D01*
X62429588Y-37726793D01*
X62429587Y-37726793D01*
X62327727Y-37699500D01*
X62324500Y-37699500D01*
X62321878Y-37698730D01*
X62319667Y-37698439D01*
X62319712Y-37698094D01*
X62257461Y-37679815D01*
X62211706Y-37627011D01*
X62200500Y-37575500D01*
X62200500Y-37549500D01*
X62220185Y-37482461D01*
X62272989Y-37436706D01*
X62324500Y-37425500D01*
X62352725Y-37425500D01*
X62352727Y-37425500D01*
X62454587Y-37398207D01*
X62505733Y-37368678D01*
X71978095Y-37368678D01*
X71978095Y-37474132D01*
X72005388Y-37575992D01*
X72058115Y-37667318D01*
X72132682Y-37741885D01*
X72224008Y-37794612D01*
X72325868Y-37821905D01*
X72325870Y-37821905D01*
X72431320Y-37821905D01*
X72431322Y-37821905D01*
X72533182Y-37794612D01*
X72624508Y-37741885D01*
X72699075Y-37667318D01*
X72751802Y-37575992D01*
X72779095Y-37474132D01*
X72779095Y-37368678D01*
X72751802Y-37266818D01*
X72726381Y-37222788D01*
X94447597Y-37222788D01*
X94447597Y-37328242D01*
X94474890Y-37430102D01*
X94505119Y-37482461D01*
X94527618Y-37521429D01*
X94557216Y-37551027D01*
X94590701Y-37612350D01*
X94585717Y-37682042D01*
X94557227Y-37726379D01*
X94554521Y-37729084D01*
X94501794Y-37820410D01*
X94501793Y-37820413D01*
X94474500Y-37922273D01*
X94474500Y-38027727D01*
X94501793Y-38129587D01*
X94554520Y-38220913D01*
X94629087Y-38295480D01*
X94720413Y-38348207D01*
X94822273Y-38375500D01*
X94822275Y-38375500D01*
X94927725Y-38375500D01*
X94927727Y-38375500D01*
X95029587Y-38348207D01*
X95120913Y-38295480D01*
X95195480Y-38220913D01*
X95248207Y-38129587D01*
X95275500Y-38027727D01*
X95275500Y-37922273D01*
X95248207Y-37820413D01*
X95195480Y-37729087D01*
X95165880Y-37699487D01*
X95132395Y-37638164D01*
X95137379Y-37568472D01*
X95165880Y-37524125D01*
X95168577Y-37521428D01*
X95221304Y-37430102D01*
X95248597Y-37328242D01*
X95248597Y-37222788D01*
X95221304Y-37120928D01*
X95168577Y-37029602D01*
X95094010Y-36955035D01*
X95002684Y-36902308D01*
X94900824Y-36875015D01*
X94795370Y-36875015D01*
X94693510Y-36902308D01*
X94693507Y-36902309D01*
X94602182Y-36955036D01*
X94527618Y-37029600D01*
X94474891Y-37120925D01*
X94474890Y-37120928D01*
X94447597Y-37222788D01*
X72726381Y-37222788D01*
X72699075Y-37175492D01*
X72624508Y-37100925D01*
X72533182Y-37048198D01*
X72431322Y-37020905D01*
X72325868Y-37020905D01*
X72224008Y-37048198D01*
X72224005Y-37048199D01*
X72132680Y-37100926D01*
X72058116Y-37175490D01*
X72005389Y-37266815D01*
X72005388Y-37266818D01*
X71978095Y-37368678D01*
X62505733Y-37368678D01*
X62545913Y-37345480D01*
X62620480Y-37270913D01*
X62673207Y-37179587D01*
X62700500Y-37077727D01*
X62700500Y-36972273D01*
X62691474Y-36938587D01*
X62693136Y-36868739D01*
X62732297Y-36810876D01*
X62779152Y-36786720D01*
X62829587Y-36773207D01*
X62920913Y-36720480D01*
X62995480Y-36645913D01*
X63048207Y-36554587D01*
X63075500Y-36452727D01*
X63075500Y-36347273D01*
X63048207Y-36245413D01*
X63026215Y-36207322D01*
X63009743Y-36139425D01*
X63032595Y-36073398D01*
X63071601Y-36037938D01*
X63112496Y-36014328D01*
X63187063Y-35939761D01*
X63239790Y-35848435D01*
X63267083Y-35746575D01*
X63267083Y-35641121D01*
X63239790Y-35539261D01*
X63187063Y-35447935D01*
X63112496Y-35373368D01*
X63021170Y-35320641D01*
X63014131Y-35316577D01*
X63015669Y-35313912D01*
X62972628Y-35279212D01*
X62950578Y-35212913D01*
X62950500Y-35208514D01*
X62950500Y-32718982D01*
X67374500Y-32718982D01*
X67374500Y-33793982D01*
X67374500Y-33906018D01*
X67403497Y-34014237D01*
X67459515Y-34111263D01*
X69909515Y-36561263D01*
X69988737Y-36640485D01*
X70085763Y-36696503D01*
X70193982Y-36725500D01*
X70193984Y-36725500D01*
X71306016Y-36725500D01*
X71306018Y-36725500D01*
X71414237Y-36696503D01*
X71456205Y-36672273D01*
X81399500Y-36672273D01*
X81399500Y-36777727D01*
X81426793Y-36879587D01*
X81479520Y-36970913D01*
X81554087Y-37045480D01*
X81645413Y-37098207D01*
X81747273Y-37125500D01*
X81747275Y-37125500D01*
X81852725Y-37125500D01*
X81852727Y-37125500D01*
X81954587Y-37098207D01*
X82045913Y-37045480D01*
X82120480Y-36970913D01*
X82173207Y-36879587D01*
X82200500Y-36777727D01*
X82200500Y-36672273D01*
X82173207Y-36570413D01*
X82120480Y-36479087D01*
X82045913Y-36404520D01*
X81956203Y-36352726D01*
X81954589Y-36351794D01*
X81954588Y-36351793D01*
X81954587Y-36351793D01*
X81852727Y-36324500D01*
X81747273Y-36324500D01*
X81645413Y-36351793D01*
X81645410Y-36351794D01*
X81554085Y-36404521D01*
X81479521Y-36479085D01*
X81426794Y-36570410D01*
X81426793Y-36570413D01*
X81399500Y-36672273D01*
X71456205Y-36672273D01*
X71511263Y-36640485D01*
X73132764Y-35018982D01*
X78474500Y-35018982D01*
X78474500Y-35131018D01*
X78503497Y-35239237D01*
X78559515Y-35336263D01*
X78638737Y-35415485D01*
X78735763Y-35471503D01*
X78843982Y-35500500D01*
X78843984Y-35500500D01*
X78956016Y-35500500D01*
X78956018Y-35500500D01*
X79064237Y-35471503D01*
X79161263Y-35415485D01*
X79240485Y-35336263D01*
X79296503Y-35239237D01*
X79325500Y-35131018D01*
X79325500Y-35018982D01*
X79296503Y-34910763D01*
X79240485Y-34813737D01*
X79161263Y-34734515D01*
X79064237Y-34678497D01*
X78956018Y-34649500D01*
X78843982Y-34649500D01*
X78735763Y-34678497D01*
X78735760Y-34678498D01*
X78638740Y-34734513D01*
X78638734Y-34734517D01*
X78559517Y-34813734D01*
X78559513Y-34813740D01*
X78503498Y-34910760D01*
X78503497Y-34910763D01*
X78474500Y-35018982D01*
X73132764Y-35018982D01*
X74026053Y-34125692D01*
X74026058Y-34125689D01*
X74036261Y-34115485D01*
X74036263Y-34115485D01*
X74115485Y-34036263D01*
X74171503Y-33939237D01*
X74200500Y-33831018D01*
X74200500Y-33468982D01*
X74200500Y-33297273D01*
X97474500Y-33297273D01*
X97474500Y-33402727D01*
X97501793Y-33504587D01*
X97554520Y-33595913D01*
X97629087Y-33670480D01*
X97720413Y-33723207D01*
X97822273Y-33750500D01*
X97822275Y-33750500D01*
X97927725Y-33750500D01*
X97927727Y-33750500D01*
X98029587Y-33723207D01*
X98120913Y-33670480D01*
X98195480Y-33595913D01*
X98195480Y-33595912D01*
X98201227Y-33590166D01*
X98202911Y-33591850D01*
X98249523Y-33557813D01*
X98291476Y-33550500D01*
X98965588Y-33550500D01*
X99032627Y-33570185D01*
X99053269Y-33586819D01*
X99263181Y-33796730D01*
X99296666Y-33858053D01*
X99299500Y-33884411D01*
X99299500Y-40840587D01*
X99279815Y-40907626D01*
X99263181Y-40928268D01*
X99087181Y-41104268D01*
X99025858Y-41137753D01*
X98956166Y-41132769D01*
X98900233Y-41090897D01*
X98875816Y-41025433D01*
X98875500Y-41016587D01*
X98875500Y-40947275D01*
X98875500Y-40947273D01*
X98848207Y-40845413D01*
X98795480Y-40754087D01*
X98720913Y-40679520D01*
X98654059Y-40640922D01*
X98629589Y-40626794D01*
X98629588Y-40626793D01*
X98629587Y-40626793D01*
X98527727Y-40599500D01*
X98422273Y-40599500D01*
X98320413Y-40626793D01*
X98320410Y-40626794D01*
X98229085Y-40679521D01*
X98154521Y-40754085D01*
X98101794Y-40845410D01*
X98101793Y-40845413D01*
X98074500Y-40947273D01*
X98074500Y-41052727D01*
X98101793Y-41154587D01*
X98154520Y-41245913D01*
X98229087Y-41320480D01*
X98320413Y-41373207D01*
X98320418Y-41373208D01*
X98327162Y-41376002D01*
X98381566Y-41419842D01*
X98403632Y-41486136D01*
X98387098Y-41552564D01*
X98376794Y-41570410D01*
X98376793Y-41570413D01*
X98349500Y-41672273D01*
X98349500Y-41777726D01*
X98376793Y-41879586D01*
X98376794Y-41879589D01*
X98387542Y-41898205D01*
X98429520Y-41970913D01*
X98504087Y-42045480D01*
X98595413Y-42098207D01*
X98697273Y-42125500D01*
X98697275Y-42125500D01*
X98802725Y-42125500D01*
X98802727Y-42125500D01*
X98904587Y-42098207D01*
X98995913Y-42045480D01*
X99070480Y-41970913D01*
X99123207Y-41879587D01*
X99150500Y-41777727D01*
X99150500Y-41672273D01*
X99150500Y-41664146D01*
X99152881Y-41664146D01*
X99161775Y-41607112D01*
X99186265Y-41572283D01*
X99436276Y-41322273D01*
X107149500Y-41322273D01*
X107149500Y-41427727D01*
X107176793Y-41529587D01*
X107229520Y-41620913D01*
X107304087Y-41695480D01*
X107395413Y-41748207D01*
X107497273Y-41775500D01*
X107497275Y-41775500D01*
X107602725Y-41775500D01*
X107602727Y-41775500D01*
X107704587Y-41748207D01*
X107795913Y-41695480D01*
X107870480Y-41620913D01*
X107923207Y-41529587D01*
X107950500Y-41427727D01*
X107950500Y-41322273D01*
X107935207Y-41265198D01*
X107936870Y-41195351D01*
X107976033Y-41137488D01*
X108022890Y-41113332D01*
X108028749Y-41111762D01*
X108028753Y-41111762D01*
X108130613Y-41084469D01*
X108221939Y-41031742D01*
X108296506Y-40957175D01*
X108349233Y-40865849D01*
X108376526Y-40763989D01*
X108376526Y-40763987D01*
X108378629Y-40756139D01*
X108382085Y-40757065D01*
X108403464Y-40708242D01*
X108461643Y-40669551D01*
X108531504Y-40668456D01*
X108544970Y-40673088D01*
X108545412Y-40673206D01*
X108545413Y-40673207D01*
X108647273Y-40700500D01*
X108647275Y-40700500D01*
X108752725Y-40700500D01*
X108752727Y-40700500D01*
X108854587Y-40673207D01*
X108945913Y-40620480D01*
X109020480Y-40545913D01*
X109073207Y-40454587D01*
X109100500Y-40352727D01*
X109100500Y-40247273D01*
X109073207Y-40145413D01*
X109020480Y-40054087D01*
X108966574Y-40000181D01*
X108933089Y-39938858D01*
X108938073Y-39869166D01*
X108966574Y-39824819D01*
X109020480Y-39770913D01*
X109073207Y-39679587D01*
X109100500Y-39577727D01*
X109100500Y-39472273D01*
X109073207Y-39370413D01*
X109020480Y-39279087D01*
X108945913Y-39204520D01*
X108854587Y-39151793D01*
X108854585Y-39151792D01*
X108844552Y-39149104D01*
X108784893Y-39112737D01*
X108754365Y-39049890D01*
X108756873Y-38997242D01*
X108775500Y-38927727D01*
X108775500Y-38822273D01*
X108748207Y-38720413D01*
X108695480Y-38629087D01*
X108620913Y-38554520D01*
X108531203Y-38502726D01*
X108529589Y-38501794D01*
X108529588Y-38501793D01*
X108529587Y-38501793D01*
X108427727Y-38474500D01*
X108322273Y-38474500D01*
X108220413Y-38501793D01*
X108220410Y-38501794D01*
X108129085Y-38554521D01*
X108054521Y-38629085D01*
X108001794Y-38720410D01*
X108001793Y-38720413D01*
X107974500Y-38822273D01*
X107974500Y-38927727D01*
X108001659Y-39029085D01*
X108001793Y-39029586D01*
X108001794Y-39029589D01*
X108013515Y-39049890D01*
X108054520Y-39120913D01*
X108129087Y-39195480D01*
X108220413Y-39248207D01*
X108230442Y-39250894D01*
X108290103Y-39287258D01*
X108320633Y-39350105D01*
X108318125Y-39402761D01*
X108299500Y-39472271D01*
X108299500Y-39472273D01*
X108299500Y-39577727D01*
X108326793Y-39679587D01*
X108369105Y-39752874D01*
X108379521Y-39770914D01*
X108433426Y-39824819D01*
X108466911Y-39886142D01*
X108461927Y-39955834D01*
X108433426Y-40000181D01*
X108379521Y-40054085D01*
X108326794Y-40145410D01*
X108326793Y-40145413D01*
X108297397Y-40255123D01*
X108294015Y-40254216D01*
X108272226Y-40303416D01*
X108213886Y-40341863D01*
X108144021Y-40342665D01*
X108131034Y-40338168D01*
X108130613Y-40338055D01*
X108028753Y-40310762D01*
X107923299Y-40310762D01*
X107821439Y-40338055D01*
X107821436Y-40338056D01*
X107730111Y-40390783D01*
X107655547Y-40465347D01*
X107602820Y-40556672D01*
X107602819Y-40556675D01*
X107575526Y-40658535D01*
X107575526Y-40763990D01*
X107590818Y-40821062D01*
X107589155Y-40890912D01*
X107549991Y-40948774D01*
X107503137Y-40972929D01*
X107497274Y-40974500D01*
X107497273Y-40974500D01*
X107482800Y-40978378D01*
X107395411Y-41001793D01*
X107395410Y-41001794D01*
X107304085Y-41054521D01*
X107229521Y-41129085D01*
X107176794Y-41220410D01*
X107176793Y-41220413D01*
X107149500Y-41322273D01*
X99436276Y-41322273D01*
X99669976Y-41088574D01*
X99700500Y-41014882D01*
X99700500Y-40935118D01*
X99700500Y-39299647D01*
X100639176Y-39299647D01*
X100639176Y-39405101D01*
X100666469Y-39506961D01*
X100719196Y-39598287D01*
X100793763Y-39672854D01*
X100885089Y-39725581D01*
X100986949Y-39752874D01*
X100986951Y-39752874D01*
X101092401Y-39752874D01*
X101092403Y-39752874D01*
X101194263Y-39725581D01*
X101285589Y-39672854D01*
X101360156Y-39598287D01*
X101412883Y-39506961D01*
X101440176Y-39405101D01*
X101440176Y-39299647D01*
X101412883Y-39197787D01*
X101360156Y-39106461D01*
X101285589Y-39031894D01*
X101194263Y-38979167D01*
X101092403Y-38951874D01*
X100986949Y-38951874D01*
X100885089Y-38979167D01*
X100885086Y-38979168D01*
X100793761Y-39031895D01*
X100719197Y-39106459D01*
X100666470Y-39197784D01*
X100666469Y-39197787D01*
X100639176Y-39299647D01*
X99700500Y-39299647D01*
X99700500Y-38047273D01*
X101824500Y-38047273D01*
X101824500Y-38152727D01*
X101851793Y-38254587D01*
X101904520Y-38345913D01*
X101979087Y-38420480D01*
X102070413Y-38473207D01*
X102172273Y-38500500D01*
X102172275Y-38500500D01*
X102277725Y-38500500D01*
X102277727Y-38500500D01*
X102379587Y-38473207D01*
X102470913Y-38420480D01*
X102545480Y-38345913D01*
X102598207Y-38254587D01*
X102625500Y-38152727D01*
X102625500Y-38047273D01*
X102598207Y-37945413D01*
X102545480Y-37854087D01*
X102470913Y-37779520D01*
X102404059Y-37740922D01*
X102379589Y-37726794D01*
X102379588Y-37726793D01*
X102379587Y-37726793D01*
X102277727Y-37699500D01*
X102172273Y-37699500D01*
X102070413Y-37726793D01*
X102070410Y-37726794D01*
X101979085Y-37779521D01*
X101904521Y-37854085D01*
X101851794Y-37945410D01*
X101851793Y-37945413D01*
X101824500Y-38047273D01*
X99700500Y-38047273D01*
X99700500Y-36272273D01*
X101874500Y-36272273D01*
X101874500Y-36377727D01*
X101901793Y-36479587D01*
X101954520Y-36570913D01*
X102029087Y-36645480D01*
X102120413Y-36698207D01*
X102222273Y-36725500D01*
X102222275Y-36725500D01*
X102327725Y-36725500D01*
X102327727Y-36725500D01*
X102429587Y-36698207D01*
X102520913Y-36645480D01*
X102595480Y-36570913D01*
X102648207Y-36479587D01*
X102675500Y-36377727D01*
X102675500Y-36272273D01*
X102648207Y-36170413D01*
X102595480Y-36079087D01*
X102520913Y-36004520D01*
X102429587Y-35951793D01*
X102327727Y-35924500D01*
X102222273Y-35924500D01*
X102120413Y-35951793D01*
X102120410Y-35951794D01*
X102029085Y-36004521D01*
X101954521Y-36079085D01*
X101901794Y-36170410D01*
X101901793Y-36170413D01*
X101874500Y-36272273D01*
X99700500Y-36272273D01*
X99700500Y-33710118D01*
X99669976Y-33636426D01*
X99613574Y-33580024D01*
X99606509Y-33572959D01*
X99606502Y-33572953D01*
X99213574Y-33180024D01*
X99139883Y-33149500D01*
X99139882Y-33149500D01*
X98846580Y-33149500D01*
X98779541Y-33129815D01*
X98733786Y-33077011D01*
X98723842Y-33007853D01*
X98739191Y-32963504D01*
X98773207Y-32904587D01*
X98800500Y-32802727D01*
X98800500Y-32697273D01*
X98793801Y-32672273D01*
X121799500Y-32672273D01*
X121799500Y-32777727D01*
X121826793Y-32879587D01*
X121879520Y-32970913D01*
X121954087Y-33045480D01*
X121954839Y-33045914D01*
X121963521Y-33050927D01*
X122011735Y-33101495D01*
X122024956Y-33170102D01*
X121998986Y-33234966D01*
X121989200Y-33245993D01*
X121929520Y-33305673D01*
X121876794Y-33396996D01*
X121876793Y-33396999D01*
X121849500Y-33498859D01*
X121849500Y-33604313D01*
X121874530Y-33697725D01*
X121876793Y-33706172D01*
X121876794Y-33706175D01*
X121879069Y-33710116D01*
X121927489Y-33793982D01*
X121929521Y-33797500D01*
X122009834Y-33877813D01*
X122008149Y-33879497D01*
X122042187Y-33926109D01*
X122049500Y-33968062D01*
X122049500Y-41157745D01*
X122029815Y-41224784D01*
X122013181Y-41245426D01*
X121979521Y-41279085D01*
X121926794Y-41370410D01*
X121926793Y-41370413D01*
X121899500Y-41472273D01*
X121899500Y-41577727D01*
X121926793Y-41679587D01*
X121979520Y-41770913D01*
X122054087Y-41845480D01*
X122145413Y-41898207D01*
X122247273Y-41925500D01*
X122247275Y-41925500D01*
X122352725Y-41925500D01*
X122352727Y-41925500D01*
X122454587Y-41898207D01*
X122545913Y-41845480D01*
X122620480Y-41770913D01*
X122673207Y-41679587D01*
X122700500Y-41577727D01*
X122700500Y-41472273D01*
X122673207Y-41370413D01*
X122620480Y-41279087D01*
X122545913Y-41204520D01*
X122512499Y-41185228D01*
X122464284Y-41134661D01*
X122450500Y-41077842D01*
X122450500Y-39222273D01*
X124349500Y-39222273D01*
X124349500Y-39327726D01*
X124376793Y-39429586D01*
X124376794Y-39429589D01*
X124387542Y-39448205D01*
X124429520Y-39520913D01*
X124504087Y-39595480D01*
X124595413Y-39648207D01*
X124697273Y-39675500D01*
X124697275Y-39675500D01*
X124802725Y-39675500D01*
X124802727Y-39675500D01*
X124904587Y-39648207D01*
X124995913Y-39595480D01*
X125070480Y-39520913D01*
X125123207Y-39429587D01*
X125150500Y-39327727D01*
X125150500Y-39222273D01*
X125123207Y-39120413D01*
X125070480Y-39029087D01*
X124995913Y-38954520D01*
X124904587Y-38901793D01*
X124802727Y-38874500D01*
X124697273Y-38874500D01*
X124595413Y-38901793D01*
X124595410Y-38901794D01*
X124504085Y-38954521D01*
X124429521Y-39029085D01*
X124376794Y-39120410D01*
X124376793Y-39120413D01*
X124349500Y-39222273D01*
X122450500Y-39222273D01*
X122450500Y-38097273D01*
X125649500Y-38097273D01*
X125649500Y-38202727D01*
X125676793Y-38304587D01*
X125729520Y-38395913D01*
X125804087Y-38470480D01*
X125895413Y-38523207D01*
X125997273Y-38550500D01*
X125997275Y-38550500D01*
X126102725Y-38550500D01*
X126102727Y-38550500D01*
X126204587Y-38523207D01*
X126295913Y-38470480D01*
X126370480Y-38395913D01*
X126423207Y-38304587D01*
X126450500Y-38202727D01*
X126450500Y-38097273D01*
X126423207Y-37995413D01*
X126370480Y-37904087D01*
X126295913Y-37829520D01*
X126209312Y-37779521D01*
X126204589Y-37776794D01*
X126204588Y-37776793D01*
X126204587Y-37776793D01*
X126102727Y-37749500D01*
X125997273Y-37749500D01*
X125895413Y-37776793D01*
X125895410Y-37776794D01*
X125804085Y-37829521D01*
X125729521Y-37904085D01*
X125676794Y-37995410D01*
X125676793Y-37995413D01*
X125649500Y-38097273D01*
X122450500Y-38097273D01*
X122450500Y-36247273D01*
X125649500Y-36247273D01*
X125649500Y-36352727D01*
X125676793Y-36454587D01*
X125729520Y-36545913D01*
X125804087Y-36620480D01*
X125895413Y-36673207D01*
X125997273Y-36700500D01*
X125997275Y-36700500D01*
X126102725Y-36700500D01*
X126102727Y-36700500D01*
X126204587Y-36673207D01*
X126295913Y-36620480D01*
X126370480Y-36545913D01*
X126423207Y-36454587D01*
X126450500Y-36352727D01*
X126450500Y-36247273D01*
X126423207Y-36145413D01*
X126370480Y-36054087D01*
X126295913Y-35979520D01*
X126204587Y-35926793D01*
X126102727Y-35899500D01*
X125997273Y-35899500D01*
X125895413Y-35926793D01*
X125895410Y-35926794D01*
X125804085Y-35979521D01*
X125729521Y-36054085D01*
X125676794Y-36145410D01*
X125676793Y-36145413D01*
X125649500Y-36247273D01*
X122450500Y-36247273D01*
X122450500Y-33968062D01*
X122470185Y-33901023D01*
X122490880Y-33878527D01*
X122490166Y-33877813D01*
X122515282Y-33852697D01*
X122570480Y-33797499D01*
X122623207Y-33706173D01*
X122650500Y-33604313D01*
X122650500Y-33498859D01*
X122623207Y-33396999D01*
X122570480Y-33305673D01*
X122495913Y-33231106D01*
X122492527Y-33229151D01*
X122486476Y-33225657D01*
X122438263Y-33175088D01*
X122425043Y-33106480D01*
X122451014Y-33041617D01*
X122460784Y-33030608D01*
X122520480Y-32970913D01*
X122573207Y-32879587D01*
X122600500Y-32777727D01*
X122600500Y-32672273D01*
X122573207Y-32570413D01*
X122520480Y-32479087D01*
X122445913Y-32404520D01*
X122354587Y-32351793D01*
X122252727Y-32324500D01*
X122147273Y-32324500D01*
X122045413Y-32351793D01*
X122045410Y-32351794D01*
X121954085Y-32404521D01*
X121879521Y-32479085D01*
X121826794Y-32570410D01*
X121826793Y-32570413D01*
X121799500Y-32672273D01*
X98793801Y-32672273D01*
X98773207Y-32595413D01*
X98720480Y-32504087D01*
X98645913Y-32429520D01*
X98560022Y-32379931D01*
X98554589Y-32376794D01*
X98554588Y-32376793D01*
X98554587Y-32376793D01*
X98452727Y-32349500D01*
X98347273Y-32349500D01*
X98245413Y-32376793D01*
X98245410Y-32376794D01*
X98154085Y-32429521D01*
X98079521Y-32504085D01*
X98026794Y-32595410D01*
X98026793Y-32595413D01*
X97999500Y-32697273D01*
X97999500Y-32802729D01*
X98000367Y-32809316D01*
X97989601Y-32878351D01*
X97943220Y-32930607D01*
X97877428Y-32949500D01*
X97822273Y-32949500D01*
X97720413Y-32976793D01*
X97720410Y-32976794D01*
X97629085Y-33029521D01*
X97554521Y-33104085D01*
X97501794Y-33195410D01*
X97501793Y-33195413D01*
X97474500Y-33297273D01*
X74200500Y-33297273D01*
X74200500Y-32719383D01*
X74171503Y-32611164D01*
X74115485Y-32514138D01*
X74036263Y-32434916D01*
X72009369Y-30408022D01*
X72006516Y-30404768D01*
X71968228Y-30366480D01*
X71923071Y-30321323D01*
X71536263Y-29934515D01*
X71471579Y-29897169D01*
X71439239Y-29878498D01*
X71439238Y-29878497D01*
X71439237Y-29878497D01*
X71331018Y-29849500D01*
X70299522Y-29849500D01*
X70187485Y-29849500D01*
X70079266Y-29878497D01*
X70079263Y-29878498D01*
X69982243Y-29934513D01*
X69982237Y-29934517D01*
X69523842Y-30392912D01*
X69523838Y-30392918D01*
X69467822Y-30489941D01*
X69466306Y-30493601D01*
X69439429Y-30533821D01*
X67538737Y-32434515D01*
X67459517Y-32513734D01*
X67459513Y-32513740D01*
X67403498Y-32610760D01*
X67403497Y-32610763D01*
X67374500Y-32718982D01*
X62950500Y-32718982D01*
X62950500Y-32711014D01*
X62970185Y-32643975D01*
X63022989Y-32598220D01*
X63092147Y-32588276D01*
X63136496Y-32603625D01*
X63170413Y-32623207D01*
X63272273Y-32650500D01*
X63272275Y-32650500D01*
X63377725Y-32650500D01*
X63377727Y-32650500D01*
X63479587Y-32623207D01*
X63570913Y-32570480D01*
X63645480Y-32495913D01*
X63698207Y-32404587D01*
X63725500Y-32302727D01*
X63725500Y-32197273D01*
X63698207Y-32095413D01*
X63645480Y-32004087D01*
X63570913Y-31929520D01*
X63479587Y-31876793D01*
X63377727Y-31849500D01*
X63377726Y-31849500D01*
X63334412Y-31849500D01*
X63267373Y-31829815D01*
X63246731Y-31813181D01*
X59866436Y-28432886D01*
X61874500Y-28432886D01*
X61874500Y-28538340D01*
X61901793Y-28640200D01*
X61954520Y-28731526D01*
X62029087Y-28806093D01*
X62120413Y-28858820D01*
X62222273Y-28886113D01*
X62222275Y-28886113D01*
X62327725Y-28886113D01*
X62327727Y-28886113D01*
X62429587Y-28858820D01*
X62520913Y-28806093D01*
X62595480Y-28731526D01*
X62648207Y-28640200D01*
X62675500Y-28538340D01*
X62675500Y-28497273D01*
X69649500Y-28497273D01*
X69649500Y-28602727D01*
X69676793Y-28704587D01*
X69729520Y-28795913D01*
X69804087Y-28870480D01*
X69895413Y-28923207D01*
X69997273Y-28950500D01*
X69997275Y-28950500D01*
X70102725Y-28950500D01*
X70102727Y-28950500D01*
X70204587Y-28923207D01*
X70295913Y-28870480D01*
X70370480Y-28795913D01*
X70423207Y-28704587D01*
X70450500Y-28602727D01*
X70450500Y-28497273D01*
X70423207Y-28395413D01*
X70370480Y-28304087D01*
X70295913Y-28229520D01*
X70209312Y-28179521D01*
X70204589Y-28176794D01*
X70204588Y-28176793D01*
X70204587Y-28176793D01*
X70102727Y-28149500D01*
X69997273Y-28149500D01*
X69895413Y-28176793D01*
X69895410Y-28176794D01*
X69804085Y-28229521D01*
X69729521Y-28304085D01*
X69676794Y-28395410D01*
X69676793Y-28395413D01*
X69649500Y-28497273D01*
X62675500Y-28497273D01*
X62675500Y-28432886D01*
X62648207Y-28331026D01*
X62595480Y-28239700D01*
X62520913Y-28165133D01*
X62454059Y-28126535D01*
X62429589Y-28112407D01*
X62429588Y-28112406D01*
X62429587Y-28112406D01*
X62327727Y-28085113D01*
X62222273Y-28085113D01*
X62120413Y-28112406D01*
X62120410Y-28112407D01*
X62029085Y-28165134D01*
X61954521Y-28239698D01*
X61901794Y-28331023D01*
X61901793Y-28331026D01*
X61874500Y-28432886D01*
X59866436Y-28432886D01*
X58761819Y-27328269D01*
X58728334Y-27266946D01*
X58725500Y-27240588D01*
X58725500Y-25572273D01*
X59349500Y-25572273D01*
X59349500Y-25677727D01*
X59376793Y-25779587D01*
X59429520Y-25870913D01*
X59504087Y-25945480D01*
X59595413Y-25998207D01*
X59697273Y-26025500D01*
X59697275Y-26025500D01*
X59802725Y-26025500D01*
X59802727Y-26025500D01*
X59904587Y-25998207D01*
X59995913Y-25945480D01*
X60070480Y-25870913D01*
X60123207Y-25779587D01*
X60150500Y-25677727D01*
X60150500Y-25572273D01*
X60123207Y-25470413D01*
X60070480Y-25379087D01*
X59995913Y-25304520D01*
X59904587Y-25251793D01*
X59802727Y-25224500D01*
X59697273Y-25224500D01*
X59595413Y-25251793D01*
X59595410Y-25251794D01*
X59504085Y-25304521D01*
X59429521Y-25379085D01*
X59376794Y-25470410D01*
X59376793Y-25470413D01*
X59349500Y-25572273D01*
X58725500Y-25572273D01*
X58725500Y-24697273D01*
X65599500Y-24697273D01*
X65599500Y-24802727D01*
X65618715Y-24874437D01*
X65626793Y-24904586D01*
X65626794Y-24904589D01*
X65640922Y-24929059D01*
X65679520Y-24995913D01*
X65754087Y-25070480D01*
X65845413Y-25123207D01*
X65947273Y-25150500D01*
X65947275Y-25150500D01*
X66052725Y-25150500D01*
X66052727Y-25150500D01*
X66154587Y-25123207D01*
X66245913Y-25070480D01*
X66320480Y-24995913D01*
X66373207Y-24904587D01*
X66400500Y-24802727D01*
X66400500Y-24697273D01*
X66373207Y-24595413D01*
X66320480Y-24504087D01*
X66245913Y-24429520D01*
X66154587Y-24376793D01*
X66052727Y-24349500D01*
X65947273Y-24349500D01*
X65845413Y-24376793D01*
X65845410Y-24376794D01*
X65754085Y-24429521D01*
X65679521Y-24504085D01*
X65626794Y-24595410D01*
X65626793Y-24595413D01*
X65599500Y-24697273D01*
X58725500Y-24697273D01*
X58725500Y-23372273D01*
X63099500Y-23372273D01*
X63099500Y-23477727D01*
X63126793Y-23579587D01*
X63179520Y-23670913D01*
X63254087Y-23745480D01*
X63345413Y-23798207D01*
X63447273Y-23825500D01*
X63447275Y-23825500D01*
X63552725Y-23825500D01*
X63552727Y-23825500D01*
X63654587Y-23798207D01*
X63745913Y-23745480D01*
X63820480Y-23670913D01*
X63873207Y-23579587D01*
X63900500Y-23477727D01*
X63900500Y-23372273D01*
X63873207Y-23270413D01*
X63820480Y-23179087D01*
X63745913Y-23104520D01*
X63659430Y-23054589D01*
X63654589Y-23051794D01*
X63654588Y-23051793D01*
X63654587Y-23051793D01*
X63552727Y-23024500D01*
X63447273Y-23024500D01*
X63345413Y-23051793D01*
X63345410Y-23051794D01*
X63254085Y-23104521D01*
X63179521Y-23179085D01*
X63126794Y-23270410D01*
X63126793Y-23270413D01*
X63099500Y-23372273D01*
X58725500Y-23372273D01*
X58725500Y-19206103D01*
X58745185Y-19139064D01*
X58797989Y-19093309D01*
X58817397Y-19086331D01*
X58916230Y-19059850D01*
X59007556Y-19007123D01*
X59082123Y-18932556D01*
X59134850Y-18841230D01*
X59162143Y-18739370D01*
X59162143Y-18633916D01*
X59134850Y-18532056D01*
X59082123Y-18440730D01*
X59007556Y-18366163D01*
X58916230Y-18313436D01*
X58814370Y-18286143D01*
X58708916Y-18286143D01*
X58607056Y-18313436D01*
X58607053Y-18313437D01*
X58515728Y-18366164D01*
X58436824Y-18445069D01*
X58375501Y-18478554D01*
X58305809Y-18473570D01*
X58261462Y-18445069D01*
X58245914Y-18429521D01*
X58245913Y-18429520D01*
X58154587Y-18376793D01*
X58052727Y-18349500D01*
X57947273Y-18349500D01*
X57845413Y-18376793D01*
X57845410Y-18376794D01*
X57754085Y-18429521D01*
X57673773Y-18509834D01*
X57672088Y-18508149D01*
X57625477Y-18542187D01*
X57583524Y-18549500D01*
X55560116Y-18549500D01*
X55486425Y-18580024D01*
X55055024Y-19011425D01*
X55024500Y-19085116D01*
X48596434Y-19085116D01*
X48596434Y-16672273D01*
X54249500Y-16672273D01*
X54249500Y-16777727D01*
X54276793Y-16879587D01*
X54329520Y-16970913D01*
X54404087Y-17045480D01*
X54495413Y-17098207D01*
X54597273Y-17125500D01*
X54597275Y-17125500D01*
X54702725Y-17125500D01*
X54702727Y-17125500D01*
X54804587Y-17098207D01*
X54895913Y-17045480D01*
X54970480Y-16970913D01*
X55023207Y-16879587D01*
X55050500Y-16777727D01*
X55050500Y-16672273D01*
X55023207Y-16570413D01*
X54970480Y-16479087D01*
X54895913Y-16404520D01*
X54829059Y-16365922D01*
X54804589Y-16351794D01*
X54804588Y-16351793D01*
X54804587Y-16351793D01*
X54702727Y-16324500D01*
X54597273Y-16324500D01*
X54495413Y-16351793D01*
X54495410Y-16351794D01*
X54404085Y-16404521D01*
X54329521Y-16479085D01*
X54276794Y-16570410D01*
X54276793Y-16570413D01*
X54249500Y-16672273D01*
X48596434Y-16672273D01*
X48596434Y-15365391D01*
X48596700Y-15357282D01*
X48611728Y-15128049D01*
X48613845Y-15111968D01*
X48613909Y-15111649D01*
X48657876Y-14890624D01*
X48662072Y-14874966D01*
X48734617Y-14661261D01*
X48740819Y-14646291D01*
X48840642Y-14443871D01*
X48848732Y-14429858D01*
X48974128Y-14242192D01*
X48983985Y-14229346D01*
X49132799Y-14059658D01*
X49144253Y-14048203D01*
X49313938Y-13899393D01*
X49326784Y-13889536D01*
X49514450Y-13764140D01*
X49528463Y-13756050D01*
X49730883Y-13656227D01*
X49745853Y-13650025D01*
X49959560Y-13577479D01*
X49975222Y-13573282D01*
X50196563Y-13529252D01*
X50212637Y-13527136D01*
X50441878Y-13512107D01*
X50449990Y-13511842D01*
X61698088Y-13511842D01*
X61728387Y-13511842D01*
X61736467Y-13512106D01*
G37*
%TD.AperFunction*%
%TD*%
M02*
