%TF.GenerationSoftware,KiCad,Pcbnew,10.0.5*%
%TF.CreationDate,2026-09-21T17:54:25-07:00*%
%TF.ProjectId,PGS_Main_Board,5047535f-4d61-4696-9e5f-426f6172642e,2*%
%TF.SameCoordinates,Original*%
%TF.FileFunction,Profile,NP*%
%FSLAX46Y46*%
G04 Gerber Fmt 4.6, Leading zero omitted, Abs format (unit mm)*
G04 Created by KiCad (PCBNEW 10.0.5) date 2026-09-21 17:54:25*
%MOMM*%
%LPD*%
G01*
G04 APERTURE LIST*
%TA.AperFunction,Profile*%
%ADD10C,0.010000*%
%TD*%
%ADD11C,0.010000*%
G04 APERTURE END LIST*
D10*
X21839999Y-61213998D02*
X21839999Y-61852223D01*
X21839999Y-61213998D02*
G75*
G02*
X24665224Y-55229930I7749811J88D01*
G01*
X24109922Y-67332301D02*
G75*
G02*
X21839983Y-61852223I5480078J5480101D01*
G01*
X24109922Y-67332301D02*
X27542407Y-70764786D01*
X24665223Y-55229929D02*
G75*
G02*
X27228227Y-54128490I3177277J-3860671D01*
G01*
X27906260Y-62529128D02*
G75*
G02*
X25706260Y-62529128I-1100000J0D01*
G01*
X25706260Y-62529128D02*
G75*
G02*
X27906260Y-62529128I1100000J0D01*
G01*
X29167503Y-71849883D02*
G75*
G02*
X27542405Y-70764788I1910397J4620583D01*
G01*
X29167503Y-71849883D02*
X33561573Y-73666647D01*
X31555664Y-53592794D02*
X27228228Y-54128495D01*
X35472010Y-74046017D02*
G75*
G02*
X33561565Y-73666667I-10J5000217D01*
G01*
X35472010Y-74046017D02*
X77578710Y-74046017D01*
X44411862Y-31690280D02*
G75*
G02*
X31555664Y-53592794I-14821577J-6024507D01*
G01*
X44412336Y-31689188D02*
G75*
G02*
X44972504Y-28540635I2779274J1129638D01*
G01*
X47991877Y-31265520D02*
G75*
G02*
X45541877Y-31265520I-1225000J0D01*
G01*
X45541877Y-31265520D02*
G75*
G02*
X47991877Y-31265520I1225000J0D01*
G01*
X47456400Y-25810533D02*
X44972506Y-28540637D01*
X49038830Y-46659448D02*
G75*
G02*
X47038830Y-46659448I-1000000J0D01*
G01*
X47038830Y-46659448D02*
G75*
G02*
X49038830Y-46659448I1000000J0D01*
G01*
X49038830Y-70509448D02*
G75*
G02*
X47038830Y-70509448I-1000000J0D01*
G01*
X47038830Y-70509448D02*
G75*
G02*
X49038830Y-70509448I1000000J0D01*
G01*
X48445934Y-15361342D02*
X48445934Y-23252509D01*
X48445934Y-15361342D02*
G75*
G02*
X50445934Y-13361334I2000066J-58D01*
G01*
X48445934Y-23252509D02*
G75*
G02*
X47456388Y-25810522I-3801334J109D01*
G01*
X49228570Y-36662061D02*
G75*
G02*
X52288570Y-36662061I1530000J0D01*
G01*
X49228570Y-40662061D02*
X49228570Y-36662061D01*
X52288570Y-36662061D02*
X52288570Y-40662061D01*
X52288570Y-40662061D02*
G75*
G02*
X49228570Y-40662061I-1530000J0D01*
G01*
X61732439Y-13361342D02*
X50445934Y-13361342D01*
X61732439Y-13361342D02*
G75*
G02*
X63732358Y-15361342I-39J-1999958D01*
G01*
X63732439Y-15370118D02*
X63732439Y-15361342D01*
X63732438Y-18534327D02*
X63732439Y-15370118D01*
X65682438Y-15361342D02*
X65682438Y-18546500D01*
X65682438Y-15361342D02*
G75*
G02*
X67682438Y-13361338I1999962J42D01*
G01*
X65682438Y-18546500D02*
G75*
G02*
X63732438Y-18534327I-975038J0D01*
G01*
X71880803Y-43878285D02*
G75*
G02*
X69480803Y-43878285I-1200000J0D01*
G01*
X69480803Y-43878285D02*
G75*
G02*
X71880803Y-43878285I1200000J0D01*
G01*
X70784037Y-55275129D02*
X74887027Y-55275129D01*
X70784037Y-63548993D02*
G75*
G02*
X70784037Y-55275127I3J4136933D01*
G01*
X73885637Y-13361342D02*
X67682438Y-13361342D01*
X73885637Y-13361342D02*
G75*
G02*
X75885558Y-15361340I-37J-1999958D01*
G01*
X75507839Y-63548993D02*
X70784037Y-63548993D01*
X75507839Y-63548993D02*
G75*
G02*
X76762097Y-64399744I-39J-1350007D01*
G01*
X75885638Y-18534569D02*
X75885637Y-15361340D01*
D11*
X76048167Y-47427665D02*
X76045768Y-47410056D01*
X76043448Y-47392431D01*
X76041206Y-47374789D01*
X76039043Y-47357132D01*
X76036959Y-47339459D01*
X76034953Y-47321771D01*
X76033026Y-47304068D01*
X76031178Y-47286352D01*
X76029409Y-47268622D01*
X76027719Y-47250878D01*
X76026108Y-47233121D01*
X76024577Y-47215352D01*
X76023124Y-47197571D01*
X76021751Y-47179778D01*
X76020458Y-47161974D01*
X76019243Y-47144159D01*
X76018108Y-47126334D01*
X76017053Y-47108499D01*
X76016077Y-47090655D01*
X76015181Y-47072801D01*
X76014364Y-47054938D01*
X76013628Y-47037068D01*
X76012970Y-47019190D01*
X76012393Y-47001304D01*
X76011895Y-46983412D01*
X76011478Y-46965513D01*
X76011140Y-46947608D01*
X76010882Y-46929698D01*
X76010704Y-46911782D01*
X76010606Y-46893862D01*
X76010588Y-46875938D01*
X76010649Y-46858010D01*
X76010791Y-46840079D01*
X76011013Y-46822145D01*
X76011315Y-46804209D01*
X76011697Y-46786271D01*
X76012159Y-46768331D01*
X76012701Y-46750391D01*
X76013323Y-46732450D01*
X76014025Y-46714509D01*
X76014807Y-46696568D01*
X76015669Y-46678628D01*
X76016611Y-46660690D01*
X76017633Y-46642754D01*
X76018736Y-46624820D01*
X76019918Y-46606888D01*
X76021180Y-46588960D01*
X76022522Y-46571036D01*
X76023944Y-46553116D01*
X76025445Y-46535200D01*
X76027027Y-46517290D01*
X76028688Y-46499385D01*
X76030429Y-46481486D01*
X76032250Y-46463594D01*
X76034151Y-46445709D01*
X76036131Y-46427832D01*
X76038191Y-46409962D01*
X76040331Y-46392101D01*
X76042549Y-46374249D01*
X76044848Y-46356406D01*
X76047226Y-46338573D01*
X76049683Y-46320750D01*
X76052219Y-46302938D01*
X76054835Y-46285138D01*
X76057529Y-46267349D01*
X76058906Y-46258459D01*
X76060303Y-46249573D01*
X76061719Y-46240689D01*
X76063156Y-46231809D01*
X76064612Y-46222932D01*
X76066087Y-46214058D01*
X76067583Y-46205188D01*
X76069098Y-46196321D01*
X76070632Y-46187458D01*
X76072187Y-46178599D01*
X76073761Y-46169743D01*
X76075355Y-46160890D01*
X76076968Y-46152042D01*
X76078601Y-46143197D01*
X76080254Y-46134357D01*
X76081926Y-46125520D01*
X76083618Y-46116687D01*
X76085329Y-46107858D01*
X76087060Y-46099033D01*
X76088811Y-46090213D01*
X76090581Y-46081397D01*
X76092371Y-46072584D01*
X76094180Y-46063777D01*
X76096009Y-46054974D01*
X76097857Y-46046175D01*
X76099725Y-46037381D01*
X76101612Y-46028591D01*
X76103519Y-46019806D01*
X76105445Y-46011026D01*
X76107390Y-46002250D01*
X76109355Y-45993480D01*
X76111340Y-45984713D01*
X76113343Y-45975953D01*
X76115367Y-45967196D01*
X76117409Y-45958446D01*
X76119471Y-45949700D01*
X76121552Y-45940959D01*
X76123653Y-45932223D01*
X76125772Y-45923494D01*
X76127911Y-45914768D01*
X76130070Y-45906049D01*
X76132247Y-45897335D01*
X76134444Y-45888627D01*
X76136660Y-45879923D01*
X76138896Y-45871226D01*
X76141150Y-45862534D01*
X76143424Y-45853849D01*
X76145717Y-45845168D01*
X76148029Y-45836494D01*
X76150360Y-45827825D01*
X76152710Y-45819163D01*
X76155080Y-45810506D01*
X76157468Y-45801856D01*
X76159876Y-45793211D01*
X76162302Y-45784573D01*
X76164748Y-45775941D01*
X76167212Y-45767315D01*
X76169696Y-45758695D01*
X76172198Y-45750083D01*
X76174720Y-45741476D01*
X76177260Y-45732876D01*
X76179820Y-45724282D01*
X76182398Y-45715696D01*
X76184995Y-45707115D01*
X76187611Y-45698542D01*
X76190246Y-45689975D01*
X76192900Y-45681415D01*
X76195573Y-45672862D01*
X76198264Y-45664316D01*
X76200974Y-45655776D01*
X76203703Y-45647245D01*
X76206451Y-45638719D01*
X76209217Y-45630202D01*
X76212002Y-45621691D01*
X76214805Y-45613188D01*
X76217628Y-45604691D01*
X76220469Y-45596203D01*
X76223329Y-45587721D01*
X76226207Y-45579248D01*
X76229104Y-45570780D01*
X76232019Y-45562322D01*
X76234953Y-45553870D01*
X76237905Y-45545427D01*
X76240876Y-45536991D01*
X76243865Y-45528564D01*
X76246873Y-45520143D01*
X76249899Y-45511731D01*
X76252944Y-45503326D01*
X76256007Y-45494930D01*
X76259088Y-45486541D01*
X76262188Y-45478161D01*
X76265306Y-45469788D01*
X76268442Y-45461425D01*
X76271597Y-45453068D01*
X76274770Y-45444722D01*
X76277961Y-45436382D01*
X76281170Y-45428052D01*
X76284398Y-45419728D01*
X76287644Y-45411415D01*
X76290908Y-45403109D01*
X76294189Y-45394813D01*
X76297490Y-45386524D01*
X76300808Y-45378245D01*
X76304144Y-45369974D01*
X76307498Y-45361713D01*
X76310871Y-45353458D01*
X76314261Y-45345215D01*
X76317669Y-45336979D01*
X76321095Y-45328753D01*
X76324540Y-45320535D01*
X76328001Y-45312327D01*
X76331481Y-45304127D01*
X76334979Y-45295938D01*
X76338495Y-45287756D01*
X76342028Y-45279585D01*
X76345579Y-45271422D01*
X76349148Y-45263270D01*
X76352735Y-45255125D01*
X76356338Y-45246992D01*
X76359961Y-45238866D01*
X76363600Y-45230752D01*
X76367258Y-45222645D01*
X76370932Y-45214550D01*
X76374625Y-45206463D01*
X76376362Y-45202676D01*
D10*
X76189621Y-54279743D02*
G75*
G02*
X74887027Y-55275134I-1302621J354643D01*
G01*
X76189621Y-54279743D02*
G75*
G02*
X77371666Y-51218715I15438179J-4202857D01*
G01*
D11*
X76376362Y-45202676D02*
X76383854Y-45186458D01*
X76391421Y-45170271D01*
X76399061Y-45154115D01*
X76406775Y-45137990D01*
X76414562Y-45121896D01*
X76422423Y-45105834D01*
X76430357Y-45089805D01*
X76438364Y-45073808D01*
X76446444Y-45057845D01*
X76454597Y-45041915D01*
X76462822Y-45026020D01*
X76471120Y-45010158D01*
X76479489Y-44994332D01*
X76487930Y-44978540D01*
X76496443Y-44962785D01*
X76505028Y-44947065D01*
X76513683Y-44931382D01*
X76522410Y-44915735D01*
X76531208Y-44900126D01*
X76540076Y-44884554D01*
X76549015Y-44869020D01*
X76558024Y-44853525D01*
X76567102Y-44838068D01*
X76576251Y-44822651D01*
X76585469Y-44807273D01*
X76594757Y-44791935D01*
X76604113Y-44776638D01*
X76613539Y-44761381D01*
X76623032Y-44746165D01*
X76632595Y-44730991D01*
X76642225Y-44715859D01*
X76651924Y-44700769D01*
X76661690Y-44685722D01*
X76671523Y-44670718D01*
X76681424Y-44655758D01*
X76691391Y-44640841D01*
X76701425Y-44625969D01*
X76706467Y-44618549D01*
X76711526Y-44611141D01*
X76716601Y-44603744D01*
X76721693Y-44596358D01*
X76726801Y-44588984D01*
X76731925Y-44581621D01*
X76737066Y-44574269D01*
X76742224Y-44566929D01*
X76747397Y-44559600D01*
X76752587Y-44552283D01*
X76757793Y-44544978D01*
X76763016Y-44537684D01*
X76768254Y-44530402D01*
X76773509Y-44523132D01*
X76778780Y-44515874D01*
X76784067Y-44508627D01*
X76789371Y-44501393D01*
X76794690Y-44494170D01*
X76800025Y-44486959D01*
X76805376Y-44479761D01*
X76810743Y-44472574D01*
X76816126Y-44465400D01*
X76821525Y-44458237D01*
X76826940Y-44451087D01*
X76832370Y-44443950D01*
X76837817Y-44436824D01*
X76843279Y-44429711D01*
X76848757Y-44422610D01*
X76854250Y-44415522D01*
X76859759Y-44408446D01*
X76865284Y-44401383D01*
X76870824Y-44394332D01*
X76876379Y-44387294D01*
X76881951Y-44380269D01*
X76887537Y-44373256D01*
X76893139Y-44366256D01*
X76898757Y-44359269D01*
X76904390Y-44352295D01*
X76910037Y-44345334D01*
X76915701Y-44338385D01*
X76921379Y-44331450D01*
X76927073Y-44324527D01*
X76932782Y-44317618D01*
X76938506Y-44310722D01*
X76944245Y-44303839D01*
X76949999Y-44296968D01*
X76955768Y-44290112D01*
X76961553Y-44283268D01*
X76967351Y-44276438D01*
X76973166Y-44269621D01*
X76978994Y-44262818D01*
X76984838Y-44256028D01*
X76990696Y-44249252D01*
X76996570Y-44242489D01*
X77002458Y-44235740D01*
X77008360Y-44229003D01*
X77014277Y-44222282D01*
X77020210Y-44215573D01*
X77026156Y-44208878D01*
X77032117Y-44202197D01*
X77038092Y-44195530D01*
X77044082Y-44188877D01*
X77050086Y-44182238D01*
X77056105Y-44175612D01*
X77062138Y-44169001D01*
X77068186Y-44162403D01*
X77074247Y-44155820D01*
X77080323Y-44149250D01*
X77086413Y-44142695D01*
X77092517Y-44136153D01*
X77098635Y-44129627D01*
X77104768Y-44123114D01*
X77110914Y-44116616D01*
X77117074Y-44110131D01*
X77123248Y-44103662D01*
X77129437Y-44097206D01*
X77135639Y-44090766D01*
X77141855Y-44084339D01*
X77148084Y-44077928D01*
X77154328Y-44071530D01*
X77160585Y-44065147D01*
X77166856Y-44058779D01*
X77173140Y-44052426D01*
X77179439Y-44046086D01*
X77185355Y-44040158D01*
X76870470Y-49359688D02*
X76859431Y-49345607D01*
X76848454Y-49331477D01*
X76837541Y-49317298D01*
X76826690Y-49303069D01*
X76815903Y-49288791D01*
X76805179Y-49274465D01*
X76794519Y-49260091D01*
X76783923Y-49245668D01*
X76773391Y-49231198D01*
X76762923Y-49216680D01*
X76752520Y-49202115D01*
X76742182Y-49187503D01*
X76731909Y-49172844D01*
X76721700Y-49158139D01*
X76711557Y-49143388D01*
X76701480Y-49128591D01*
X76691469Y-49113748D01*
X76681523Y-49098860D01*
X76671643Y-49083927D01*
X76661830Y-49068950D01*
X76652084Y-49053928D01*
X76642404Y-49038862D01*
X76632791Y-49023753D01*
X76623245Y-49008600D01*
X76613767Y-48993403D01*
X76604356Y-48978164D01*
X76595013Y-48962882D01*
X76585737Y-48947558D01*
X76576530Y-48932192D01*
X76567391Y-48916785D01*
X76558321Y-48901336D01*
X76549319Y-48885846D01*
X76540386Y-48870316D01*
X76531522Y-48854745D01*
X76522728Y-48839134D01*
X76514003Y-48823483D01*
X76505347Y-48807793D01*
X76496761Y-48792064D01*
X76488246Y-48776296D01*
X76479800Y-48760489D01*
X76471425Y-48744645D01*
X76463120Y-48728762D01*
X76454886Y-48712843D01*
X76446723Y-48696886D01*
X76438630Y-48680892D01*
X76430609Y-48664862D01*
X76422660Y-48648796D01*
X76414782Y-48632695D01*
X76406975Y-48616557D01*
X76399241Y-48600385D01*
X76391578Y-48584178D01*
X76383988Y-48567936D01*
X76376471Y-48551661D01*
X76369025Y-48535352D01*
X76361653Y-48519009D01*
X76354353Y-48502634D01*
X76347127Y-48486226D01*
X76339973Y-48469785D01*
X76332893Y-48453313D01*
X76325886Y-48436809D01*
X76318954Y-48420274D01*
X76312094Y-48403708D01*
X76305309Y-48387111D01*
X76298598Y-48370485D01*
X76291961Y-48353828D01*
X76285399Y-48337142D01*
X76278911Y-48320427D01*
X76272497Y-48303683D01*
X76266159Y-48286911D01*
X76259895Y-48270111D01*
X76253707Y-48253284D01*
X76247594Y-48236429D01*
X76244565Y-48227991D01*
X76241556Y-48219547D01*
X76238565Y-48211096D01*
X76235593Y-48202638D01*
X76232641Y-48194174D01*
X76229707Y-48185704D01*
X76226792Y-48177227D01*
X76223895Y-48168743D01*
X76221018Y-48160254D01*
X76218160Y-48151758D01*
X76215321Y-48143255D01*
X76212501Y-48134747D01*
X76209700Y-48126232D01*
X76206918Y-48117711D01*
X76204155Y-48109185D01*
X76201411Y-48100652D01*
X76198686Y-48092113D01*
X76195980Y-48083568D01*
X76193294Y-48075017D01*
X76190626Y-48066460D01*
X76187978Y-48057898D01*
X76185348Y-48049330D01*
X76182738Y-48040756D01*
X76180148Y-48032176D01*
X76177576Y-48023591D01*
X76175023Y-48015001D01*
X76172490Y-48006404D01*
X76169976Y-47997803D01*
X76167481Y-47989196D01*
X76165006Y-47980583D01*
X76162550Y-47971965D01*
X76160113Y-47963342D01*
X76157695Y-47954714D01*
X76155297Y-47946080D01*
X76152918Y-47937441D01*
X76150558Y-47928797D01*
X76148218Y-47920148D01*
X76145897Y-47911494D01*
X76143596Y-47902836D01*
X76141313Y-47894172D01*
X76139051Y-47885503D01*
X76136807Y-47876829D01*
X76134583Y-47868151D01*
X76132379Y-47859468D01*
X76130194Y-47850781D01*
X76128028Y-47842088D01*
X76125882Y-47833391D01*
X76123756Y-47824690D01*
X76121649Y-47815984D01*
X76119561Y-47807273D01*
X76117493Y-47798559D01*
X76115444Y-47789839D01*
X76113415Y-47781116D01*
X76111406Y-47772388D01*
X76109416Y-47763656D01*
X76107445Y-47754919D01*
X76105494Y-47746179D01*
X76103563Y-47737435D01*
X76101652Y-47728687D01*
X76099759Y-47719934D01*
X76097887Y-47711178D01*
X76096034Y-47702417D01*
X76094201Y-47693654D01*
X76092388Y-47684885D01*
X76090594Y-47676114D01*
X76088819Y-47667338D01*
X76087065Y-47658560D01*
X76085330Y-47649776D01*
X76083615Y-47640991D01*
X76081919Y-47632200D01*
X76080244Y-47623408D01*
X76078587Y-47614611D01*
X76076951Y-47605811D01*
X76075334Y-47597007D01*
X76073738Y-47588201D01*
X76072160Y-47579390D01*
X76070603Y-47570578D01*
X76069065Y-47561761D01*
X76067547Y-47552942D01*
X76066049Y-47544119D01*
X76064571Y-47535294D01*
X76063112Y-47526465D01*
X76061674Y-47517634D01*
X76060254Y-47508799D01*
X76058855Y-47499963D01*
X76057476Y-47491122D01*
X76056116Y-47482280D01*
X76054777Y-47473434D01*
X76053457Y-47464587D01*
X76052157Y-47455736D01*
X76050877Y-47446883D01*
X76049616Y-47438027D01*
X76048167Y-47427665D01*
X77139026Y-49667119D02*
X77132804Y-49660674D01*
X77126596Y-49654214D01*
X77120403Y-49647741D01*
X77114224Y-49641254D01*
X77108059Y-49634753D01*
X77101909Y-49628238D01*
X77095774Y-49621710D01*
X77089652Y-49615167D01*
X77083546Y-49608612D01*
X77077454Y-49602042D01*
X77071378Y-49595459D01*
X77065315Y-49588862D01*
X77059267Y-49582252D01*
X77053234Y-49575627D01*
X77047216Y-49568990D01*
X77041212Y-49562339D01*
X77035224Y-49555675D01*
X77029249Y-49548996D01*
X77023291Y-49542306D01*
X77017346Y-49535601D01*
X77011417Y-49528883D01*
X77005502Y-49522151D01*
X76999603Y-49515407D01*
X76993719Y-49508649D01*
X76987850Y-49501878D01*
X76981995Y-49495094D01*
X76976156Y-49488297D01*
X76970332Y-49481486D01*
X76964523Y-49474663D01*
X76958729Y-49467826D01*
X76952951Y-49460977D01*
X76947187Y-49454114D01*
X76941439Y-49447238D01*
X76935706Y-49440349D01*
X76929988Y-49433448D01*
X76924286Y-49426534D01*
X76918599Y-49419607D01*
X76912927Y-49412666D01*
X76907271Y-49405714D01*
X76901630Y-49398748D01*
X76896005Y-49391770D01*
X76890395Y-49384779D01*
X76884801Y-49377776D01*
X76879221Y-49370759D01*
X76870470Y-49359688D01*
X77139026Y-49667119D02*
X77146222Y-49674614D01*
X77153360Y-49682165D01*
X77160440Y-49689770D01*
X77167461Y-49697429D01*
X77174423Y-49705142D01*
X77181326Y-49712909D01*
X77188168Y-49720728D01*
X77194950Y-49728600D01*
X77201672Y-49736524D01*
X77208332Y-49744500D01*
X77214931Y-49752527D01*
X77221468Y-49760604D01*
X77227942Y-49768732D01*
X77234354Y-49776909D01*
X77240703Y-49785136D01*
X77246989Y-49793411D01*
X77253210Y-49801734D01*
X77259368Y-49810106D01*
X77265461Y-49818524D01*
X77271489Y-49826989D01*
X77277451Y-49835501D01*
X77283348Y-49844058D01*
X77289180Y-49852660D01*
X77294944Y-49861307D01*
X77300642Y-49869998D01*
X77303466Y-49874361D01*
X77306273Y-49878733D01*
X77309064Y-49883117D01*
X77311837Y-49887512D01*
X77314594Y-49891917D01*
X77317333Y-49896332D01*
X77320055Y-49900758D01*
X77322761Y-49905195D01*
X77325449Y-49909642D01*
X77328121Y-49914099D01*
X77330775Y-49918567D01*
X77333411Y-49923045D01*
X77336031Y-49927533D01*
X77338633Y-49932031D01*
X77341218Y-49936538D01*
X77343786Y-49941056D01*
X77346336Y-49945584D01*
X77348869Y-49950122D01*
X77351384Y-49954669D01*
X77353882Y-49959226D01*
X77356362Y-49963792D01*
X77358825Y-49968368D01*
X77361270Y-49972954D01*
X77363697Y-49977549D01*
X77366106Y-49982153D01*
X77368498Y-49986766D01*
X77370872Y-49991389D01*
X77373229Y-49996021D01*
X77375567Y-50000661D01*
X77377888Y-50005311D01*
X77380190Y-50009969D01*
X77382475Y-50014637D01*
X77384742Y-50019313D01*
X77386991Y-50023998D01*
X77389221Y-50028691D01*
X77391434Y-50033394D01*
X77393628Y-50038104D01*
X77395805Y-50042823D01*
X77397963Y-50047551D01*
X77400103Y-50052287D01*
X77402224Y-50057030D01*
X77404328Y-50061782D01*
X77406413Y-50066542D01*
X77408480Y-50071311D01*
X77410528Y-50076086D01*
X77412558Y-50080871D01*
X77414570Y-50085662D01*
X77416563Y-50090462D01*
X77418538Y-50095269D01*
X77420494Y-50100084D01*
X77422766Y-50105744D01*
X77185355Y-44040158D02*
X77198016Y-44027554D01*
X77210735Y-44015004D01*
X77223513Y-44002509D01*
X77236350Y-43990068D01*
X77249244Y-43977683D01*
X77262196Y-43965354D01*
X77275205Y-43953080D01*
X77288271Y-43940863D01*
X77301394Y-43928702D01*
X77314573Y-43916598D01*
X77327808Y-43904551D01*
X77341100Y-43892561D01*
X77354446Y-43880629D01*
X77367848Y-43868755D01*
X77381304Y-43856939D01*
X77394815Y-43845182D01*
X77408380Y-43833484D01*
X77421999Y-43821845D01*
X77435672Y-43810265D01*
X77449397Y-43798746D01*
X77463176Y-43787286D01*
X77477007Y-43775887D01*
X77490890Y-43764549D01*
X77504825Y-43753271D01*
X77518811Y-43742055D01*
X77532848Y-43730900D01*
X77546937Y-43719807D01*
X77561075Y-43708776D01*
X77575264Y-43697808D01*
X77589502Y-43686903D01*
X77603790Y-43676060D01*
X77618127Y-43665280D01*
X77632512Y-43654565D01*
X77646945Y-43643912D01*
X77661427Y-43633324D01*
X77675956Y-43622801D01*
X77690532Y-43612342D01*
X77705155Y-43601948D01*
X77719824Y-43591619D01*
X77734539Y-43581355D01*
X77749300Y-43571157D01*
X77764107Y-43561025D01*
X77778958Y-43550959D01*
X77786400Y-43545952D01*
X77793854Y-43540960D01*
X77801318Y-43535986D01*
X77808794Y-43531028D01*
X77816280Y-43526086D01*
X77823777Y-43521162D01*
X77831285Y-43516254D01*
X77838804Y-43511364D01*
X77846334Y-43506490D01*
X77853874Y-43501633D01*
X77861425Y-43496793D01*
X77868987Y-43491969D01*
X77876559Y-43487163D01*
X77884142Y-43482374D01*
X77891735Y-43477602D01*
X77899339Y-43472847D01*
X77906953Y-43468109D01*
X77914577Y-43463388D01*
X77922212Y-43458685D01*
X77929856Y-43453998D01*
X77937511Y-43449329D01*
X77945176Y-43444677D01*
X77952851Y-43440043D01*
X77960537Y-43435425D01*
X77968232Y-43430826D01*
X77975937Y-43426243D01*
X77983652Y-43421678D01*
X77991377Y-43417130D01*
X77999111Y-43412600D01*
X78006855Y-43408087D01*
X78014609Y-43403592D01*
X78022373Y-43399114D01*
X78030146Y-43394654D01*
X78037929Y-43390211D01*
X78045720Y-43385786D01*
X78053522Y-43381378D01*
X78061333Y-43376989D01*
X78069154Y-43372617D01*
X78076983Y-43368263D01*
X78084822Y-43363926D01*
X78092669Y-43359607D01*
X78100527Y-43355306D01*
X78108393Y-43351023D01*
X78116268Y-43346758D01*
X78124152Y-43342511D01*
X78132046Y-43338281D01*
X78139947Y-43334070D01*
X78147858Y-43329876D01*
X78155778Y-43325701D01*
X78163706Y-43321543D01*
X78171643Y-43317404D01*
X78179589Y-43313282D01*
X78187543Y-43309179D01*
X78195506Y-43305094D01*
X78203477Y-43301027D01*
X78211457Y-43296978D01*
X78219444Y-43292947D01*
X78227441Y-43288934D01*
X78235445Y-43284940D01*
X78243459Y-43280964D01*
X78251479Y-43277006D01*
X78259509Y-43273067D01*
X78267546Y-43269146D01*
X78275591Y-43265243D01*
X78283644Y-43261358D01*
X78291706Y-43257492D01*
X78299774Y-43253644D01*
X78307852Y-43249815D01*
X78315936Y-43246004D01*
X78324029Y-43242212D01*
X78332128Y-43238438D01*
X78340236Y-43234683D01*
X78347872Y-43231166D01*
X77422766Y-50105744D02*
X77426578Y-50115410D01*
X77430315Y-50125105D01*
X77433977Y-50134828D01*
X77437565Y-50144580D01*
X77441077Y-50154359D01*
X77444514Y-50164164D01*
X77447876Y-50173996D01*
X77451162Y-50183853D01*
X77454372Y-50193736D01*
X77457505Y-50203643D01*
X77460563Y-50213574D01*
X77463543Y-50223528D01*
X77466448Y-50233506D01*
X77469275Y-50243505D01*
X77472025Y-50253526D01*
X77474698Y-50263568D01*
X77477294Y-50273630D01*
X77479813Y-50283712D01*
X77482253Y-50293813D01*
X77484616Y-50303933D01*
X77486901Y-50314071D01*
X77489108Y-50324226D01*
X77491236Y-50334399D01*
X77493287Y-50344587D01*
X77495259Y-50354791D01*
X77496215Y-50359898D01*
X77497152Y-50365009D01*
X77498069Y-50370124D01*
X77498966Y-50375242D01*
X77499844Y-50380364D01*
X77500702Y-50385489D01*
X77501540Y-50390618D01*
X77502359Y-50395749D01*
X77503157Y-50400884D01*
X77503936Y-50406022D01*
X77504696Y-50411162D01*
X77505435Y-50416306D01*
X77506155Y-50421452D01*
X77506855Y-50426602D01*
X77507534Y-50431753D01*
X77508195Y-50436908D01*
X77508835Y-50442065D01*
X77509455Y-50447224D01*
X77510056Y-50452386D01*
X77510637Y-50457550D01*
X77511198Y-50462716D01*
X77511739Y-50467885D01*
X77512260Y-50473055D01*
X77512761Y-50478228D01*
X77513242Y-50483402D01*
X77513703Y-50488578D01*
X77514145Y-50493756D01*
X77514566Y-50498935D01*
X77514968Y-50504116D01*
X77515349Y-50509299D01*
X77515711Y-50514483D01*
X77516052Y-50519669D01*
X77516374Y-50524855D01*
X77516676Y-50530043D01*
X77516958Y-50535232D01*
X77517219Y-50540422D01*
X77517461Y-50545613D01*
X77517683Y-50550806D01*
X77517885Y-50555998D01*
X77518067Y-50561192D01*
X77518228Y-50566386D01*
X77518370Y-50571581D01*
X77518492Y-50576776D01*
X77518594Y-50581973D01*
X77518676Y-50587168D01*
X77518738Y-50592365D01*
X77518779Y-50597562D01*
X77518801Y-50602759D01*
X77518803Y-50607956D01*
X77518785Y-50613153D01*
X77518738Y-50619252D01*
X77479920Y-50927501D02*
X77477405Y-50937583D01*
X77474813Y-50947645D01*
X77472144Y-50957687D01*
X77469397Y-50967708D01*
X77466573Y-50977708D01*
X77463672Y-50987687D01*
X77460694Y-50997642D01*
X77457640Y-51007575D01*
X77454509Y-51017483D01*
X77451303Y-51027368D01*
X77448020Y-51037227D01*
X77444661Y-51047062D01*
X77441227Y-51056870D01*
X77437717Y-51066651D01*
X77434132Y-51076405D01*
X77432311Y-51081272D01*
X77430472Y-51086132D01*
X77428614Y-51090985D01*
X77426737Y-51095830D01*
X77424842Y-51100668D01*
X77422928Y-51105499D01*
X77420995Y-51110323D01*
X77419044Y-51115139D01*
X77417074Y-51119947D01*
X77415086Y-51124749D01*
X77413080Y-51129542D01*
X77411054Y-51134327D01*
X77409011Y-51139105D01*
X77406949Y-51143875D01*
X77404869Y-51148637D01*
X77402770Y-51153391D01*
X77400653Y-51158137D01*
X77398518Y-51162875D01*
X77396365Y-51167604D01*
X77394193Y-51172325D01*
X77392004Y-51177038D01*
X77389796Y-51181742D01*
X77387570Y-51186438D01*
X77385326Y-51191125D01*
X77383064Y-51195804D01*
X77380783Y-51200474D01*
X77378485Y-51205135D01*
X77376169Y-51209787D01*
X77371663Y-51218713D01*
X77518738Y-50619252D02*
X77518595Y-50629643D01*
X77518371Y-50640032D01*
X77518068Y-50650419D01*
X77517685Y-50660804D01*
X77517221Y-50671185D01*
X77516678Y-50681563D01*
X77516055Y-50691936D01*
X77515353Y-50702304D01*
X77514570Y-50712667D01*
X77513708Y-50723023D01*
X77512766Y-50733372D01*
X77511744Y-50743714D01*
X77510643Y-50754048D01*
X77509462Y-50764373D01*
X77508202Y-50774688D01*
X77507542Y-50779842D01*
X77506862Y-50784994D01*
X77506163Y-50790143D01*
X77505443Y-50795289D01*
X77504704Y-50800432D01*
X77503945Y-50805573D01*
X77503166Y-50810710D01*
X77502368Y-50815845D01*
X77501550Y-50820976D01*
X77500712Y-50826105D01*
X77499854Y-50831230D01*
X77498976Y-50836351D01*
X77498079Y-50841470D01*
X77497162Y-50846585D01*
X77496226Y-50851696D01*
X77495270Y-50856803D01*
X77494294Y-50861907D01*
X77493298Y-50867007D01*
X77492283Y-50872103D01*
X77491248Y-50877196D01*
X77490194Y-50882284D01*
X77489120Y-50887368D01*
X77488027Y-50892448D01*
X77486913Y-50897524D01*
X77485781Y-50902596D01*
X77484629Y-50907663D01*
X77483457Y-50912725D01*
X77482266Y-50917784D01*
X77479920Y-50927501D01*
D10*
X77835636Y-15361342D02*
X77835636Y-18546500D01*
X77835636Y-15361342D02*
G75*
G02*
X79835636Y-13361336I1999964J42D01*
G01*
X77835636Y-18546500D02*
G75*
G02*
X75885637Y-18534569I-975036J0D01*
G01*
D11*
X78347872Y-43231166D02*
X78364038Y-43223786D01*
X78380242Y-43216476D01*
X78396484Y-43209236D01*
X78412765Y-43202067D01*
X78429083Y-43194969D01*
X78445438Y-43187942D01*
X78461830Y-43180986D01*
X78478258Y-43174102D01*
X78494722Y-43167289D01*
X78511222Y-43160548D01*
X78527757Y-43153879D01*
X78544327Y-43147282D01*
X78560932Y-43140758D01*
X78577570Y-43134306D01*
X78594243Y-43127927D01*
X78610948Y-43121621D01*
X78627687Y-43115387D01*
X78644458Y-43109228D01*
X78661261Y-43103141D01*
X78678096Y-43097128D01*
X78694962Y-43091189D01*
X78711859Y-43085324D01*
X78728787Y-43079532D01*
X78745744Y-43073815D01*
X78762731Y-43068173D01*
X78779748Y-43062605D01*
X78796793Y-43057112D01*
X78813866Y-43051694D01*
X78830968Y-43046350D01*
X78848097Y-43041082D01*
X78865253Y-43035890D01*
X78882436Y-43030772D01*
X78899645Y-43025731D01*
X78916879Y-43020765D01*
X78934139Y-43015875D01*
X78951424Y-43011062D01*
X78968734Y-43006324D01*
X78986067Y-43001663D01*
X79003424Y-42997078D01*
X79020804Y-42992570D01*
X79038207Y-42988139D01*
X79055632Y-42983785D01*
X79073079Y-42979507D01*
X79090547Y-42975307D01*
X79108036Y-42971184D01*
X79125545Y-42967139D01*
X79143075Y-42963171D01*
X79160624Y-42959280D01*
X79178192Y-42955467D01*
X79195778Y-42951732D01*
X79213383Y-42948075D01*
X79231005Y-42944496D01*
X79248644Y-42940995D01*
X79266301Y-42937573D01*
X79283973Y-42934229D01*
X79301661Y-42930963D01*
X79319365Y-42927775D01*
X79337083Y-42924667D01*
X79354816Y-42921637D01*
X79372563Y-42918685D01*
X79390323Y-42915813D01*
X79408096Y-42913019D01*
X79425882Y-42910305D01*
X79434779Y-42908977D01*
X79443679Y-42907670D01*
X79452582Y-42906382D01*
X79461488Y-42905114D01*
X79470397Y-42903865D01*
X79479309Y-42902637D01*
X79488223Y-42901428D01*
X79497140Y-42900239D01*
X79506059Y-42899070D01*
X79514981Y-42897921D01*
X79523905Y-42896791D01*
X79532832Y-42895682D01*
X79541760Y-42894592D01*
X79550691Y-42893522D01*
X79559625Y-42892472D01*
X79568560Y-42891442D01*
X79577497Y-42890432D01*
X79586437Y-42889442D01*
X79595378Y-42888472D01*
X79604322Y-42887521D01*
X79613267Y-42886591D01*
X79622214Y-42885680D01*
X79631162Y-42884790D01*
X79640112Y-42883919D01*
X79649064Y-42883069D01*
X79658018Y-42882238D01*
X79666972Y-42881427D01*
X79675929Y-42880636D01*
X79684886Y-42879865D01*
X79693845Y-42879114D01*
X79702805Y-42878383D01*
X79711766Y-42877672D01*
X79720728Y-42876981D01*
X79729692Y-42876310D01*
X79738656Y-42875659D01*
X79747622Y-42875028D01*
X79756588Y-42874417D01*
X79765555Y-42873826D01*
X79774523Y-42873255D01*
X79783492Y-42872704D01*
X79792461Y-42872173D01*
X79801431Y-42871661D01*
X79810401Y-42871170D01*
X79819372Y-42870699D01*
X79828343Y-42870248D01*
X79837314Y-42869817D01*
X79846286Y-42869406D01*
X79855258Y-42869015D01*
X79864230Y-42868644D01*
X79873203Y-42868293D01*
X79882175Y-42867962D01*
X79891148Y-42867651D01*
X79900120Y-42867360D01*
X79909092Y-42867089D01*
X79918064Y-42866838D01*
X79927036Y-42866607D01*
X79936007Y-42866396D01*
X79944979Y-42866206D01*
X79953949Y-42866035D01*
X79962920Y-42865884D01*
X79971889Y-42865753D01*
X79980859Y-42865642D01*
X79989827Y-42865552D01*
X79998796Y-42865481D01*
X80007762Y-42865430D01*
X80016729Y-42865399D01*
X80025694Y-42865388D01*
X80034659Y-42865398D01*
X80043622Y-42865427D01*
X80052585Y-42865476D01*
X80061546Y-42865545D01*
X80070507Y-42865635D01*
X80079465Y-42865744D01*
X80088424Y-42865873D01*
X80097380Y-42866022D01*
X80106336Y-42866192D01*
X80115289Y-42866381D01*
X80124242Y-42866590D01*
X80133191Y-42866819D01*
X80142141Y-42867068D01*
X80151088Y-42867337D01*
X80160034Y-42867626D01*
X80168978Y-42867935D01*
X80177920Y-42868264D01*
X80186860Y-42868613D01*
X80195799Y-42868982D01*
X80204735Y-42869371D01*
X80213670Y-42869780D01*
X80222601Y-42870208D01*
X80231532Y-42870657D01*
X80240459Y-42871125D01*
X80249385Y-42871614D01*
X80258308Y-42872122D01*
X80267229Y-42872650D01*
X80276147Y-42873199D01*
X80285064Y-42873767D01*
X80293976Y-42874354D01*
X80302888Y-42874962D01*
X80311795Y-42875590D01*
X80320701Y-42876237D01*
X80329603Y-42876905D01*
X80338504Y-42877592D01*
X80347400Y-42878299D01*
X80356295Y-42879026D01*
X80365185Y-42879773D01*
X80374074Y-42880539D01*
X80382959Y-42881326D01*
X80391841Y-42882132D01*
X80400719Y-42882958D01*
X80409596Y-42883804D01*
X80418467Y-42884669D01*
X80427337Y-42885555D01*
X80436202Y-42886460D01*
X80445065Y-42887385D01*
X80453922Y-42888329D01*
X80462778Y-42889294D01*
X80471629Y-42890278D01*
X80480478Y-42891282D01*
X80489321Y-42892305D01*
X80498162Y-42893348D01*
X80506998Y-42894411D01*
X80515831Y-42895494D01*
X80524659Y-42896596D01*
X80533485Y-42897718D01*
X80542305Y-42898860D01*
X80551123Y-42900021D01*
X80559934Y-42901202D01*
X80568744Y-42902403D01*
X80572862Y-42902971D01*
D10*
X79271287Y-68647089D02*
G75*
G02*
X76762115Y-64399737I12356513J10164589D01*
G01*
X79271287Y-68647089D02*
G75*
G02*
X79578694Y-69504720I-1042587J-857611D01*
G01*
X79578710Y-72046017D02*
G75*
G02*
X77578710Y-74046010I-2000010J17D01*
G01*
X79578710Y-72046017D02*
X79578710Y-69504720D01*
D11*
X80572862Y-42902971D02*
X80590572Y-42905465D01*
X80608273Y-42908037D01*
X80625963Y-42910690D01*
X80643642Y-42913421D01*
X80661310Y-42916232D01*
X80678967Y-42919122D01*
X80696612Y-42922091D01*
X80714245Y-42925139D01*
X80731866Y-42928266D01*
X80749473Y-42931472D01*
X80767068Y-42934757D01*
X80784649Y-42938121D01*
X80802215Y-42941563D01*
X80819768Y-42945084D01*
X80837306Y-42948684D01*
X80854828Y-42952363D01*
X80872336Y-42956119D01*
X80889827Y-42959955D01*
X80907302Y-42963868D01*
X80924761Y-42967860D01*
X80942203Y-42971930D01*
X80959627Y-42976079D01*
X80977034Y-42980305D01*
X80994423Y-42984609D01*
X81011793Y-42988991D01*
X81029144Y-42993451D01*
X81046477Y-42997988D01*
X81063790Y-43002603D01*
X81081082Y-43007296D01*
X81098355Y-43012066D01*
X81115607Y-43016913D01*
X81132838Y-43021837D01*
X81150047Y-43026838D01*
X81167235Y-43031917D01*
X81184401Y-43037072D01*
X81201544Y-43042304D01*
X81218664Y-43047613D01*
X81235761Y-43052998D01*
X81252834Y-43058460D01*
X81269883Y-43063998D01*
X81286908Y-43069612D01*
X81303909Y-43075302D01*
X81320884Y-43081068D01*
X81337833Y-43086910D01*
X81354757Y-43092828D01*
X81371655Y-43098821D01*
X81380093Y-43101846D01*
X81388525Y-43104890D01*
X81396951Y-43107953D01*
X81405369Y-43111034D01*
X81413781Y-43114134D01*
X81422186Y-43117253D01*
X81430584Y-43120391D01*
X81438975Y-43123548D01*
X81447359Y-43126723D01*
X81455736Y-43129917D01*
X81464106Y-43133130D01*
X81472469Y-43136361D01*
X81480824Y-43139611D01*
X81489173Y-43142880D01*
X81497513Y-43146167D01*
X81505847Y-43149473D01*
X81514173Y-43152797D01*
X81522492Y-43156141D01*
X81530804Y-43159502D01*
X81539108Y-43162882D01*
X81547404Y-43166281D01*
X81555693Y-43169698D01*
X81563974Y-43173134D01*
X81572247Y-43176588D01*
X81580513Y-43180061D01*
X81588771Y-43183552D01*
X81597021Y-43187061D01*
X81605263Y-43190589D01*
X81613498Y-43194135D01*
X81621724Y-43197700D01*
X81629942Y-43201283D01*
X81638153Y-43204884D01*
X81646355Y-43208503D01*
X81654549Y-43212141D01*
X81662735Y-43215797D01*
X81670913Y-43219471D01*
X81679082Y-43223164D01*
X81687243Y-43226875D01*
X81695396Y-43230603D01*
X81703541Y-43234350D01*
X81711676Y-43238115D01*
X81719804Y-43241899D01*
X81727923Y-43245700D01*
X81736034Y-43249520D01*
X81744135Y-43253357D01*
X81752228Y-43257213D01*
X81760313Y-43261086D01*
X81768389Y-43264978D01*
X81776455Y-43268887D01*
X81784514Y-43272814D01*
X81792563Y-43276760D01*
X81800603Y-43280723D01*
X81808634Y-43284704D01*
X81816657Y-43288703D01*
X81824670Y-43292720D01*
X81832674Y-43296755D01*
X81840669Y-43300807D01*
X81848655Y-43304878D01*
X81856632Y-43308966D01*
X81864600Y-43313071D01*
X81872558Y-43317195D01*
X81880507Y-43321336D01*
X81888446Y-43325495D01*
X81896376Y-43329672D01*
X81904297Y-43333865D01*
X81912208Y-43338077D01*
X81920109Y-43342307D01*
X81928002Y-43346554D01*
X81935884Y-43350818D01*
X81943757Y-43355100D01*
X81951619Y-43359399D01*
X81959473Y-43363716D01*
X81967316Y-43368050D01*
X81975150Y-43372402D01*
X81982973Y-43376771D01*
X81990788Y-43381158D01*
X81998591Y-43385562D01*
X82006386Y-43389983D01*
X82014169Y-43394421D01*
X82021943Y-43398878D01*
X82029707Y-43403350D01*
X82037461Y-43407841D01*
X82045203Y-43412348D01*
X82052937Y-43416873D01*
X82060659Y-43421415D01*
X82068372Y-43425974D01*
X82076074Y-43430550D01*
X82083767Y-43435144D01*
X82091447Y-43439754D01*
X82099119Y-43444381D01*
X82106779Y-43449025D01*
X82114429Y-43453687D01*
X82122068Y-43458365D01*
X82129697Y-43463061D01*
X82137315Y-43467773D01*
X82144923Y-43472502D01*
X82152519Y-43477248D01*
X82160105Y-43482011D01*
X82167679Y-43486791D01*
X82175244Y-43491588D01*
X82182797Y-43496401D01*
X82190340Y-43501231D01*
X82197871Y-43506078D01*
X82205392Y-43510942D01*
X82212900Y-43515821D01*
X82220399Y-43520719D01*
X82227886Y-43525632D01*
X82235362Y-43530562D01*
X82242827Y-43535509D01*
X82250281Y-43540472D01*
X82257723Y-43545452D01*
X82265154Y-43550449D01*
X82272573Y-43555461D01*
X82279982Y-43560491D01*
X82287379Y-43565536D01*
X82294765Y-43570599D01*
X82302138Y-43575677D01*
X82309501Y-43580772D01*
X82316852Y-43585883D01*
X82324192Y-43591011D01*
X82331519Y-43596154D01*
X82338835Y-43601315D01*
X82346139Y-43606491D01*
X82353433Y-43611684D01*
X82360713Y-43616892D01*
X82367983Y-43622118D01*
X82375239Y-43627358D01*
X82382485Y-43632616D01*
X82389718Y-43637888D01*
X82396941Y-43643178D01*
X82404150Y-43648483D01*
X82411348Y-43653805D01*
X82418533Y-43659142D01*
X82425707Y-43664495D01*
X82432868Y-43669864D01*
X82440018Y-43675250D01*
X82447154Y-43680650D01*
X82454280Y-43686068D01*
X82461392Y-43691500D01*
X82468493Y-43696949D01*
X82475580Y-43702413D01*
X82482657Y-43707893D01*
X82489719Y-43713388D01*
X82496771Y-43718900D01*
X82504885Y-43725274D01*
X82504885Y-43725274D02*
X82518941Y-43736396D01*
X82532947Y-43747580D01*
X82546902Y-43758826D01*
X82560806Y-43770133D01*
X82574659Y-43781502D01*
X82588460Y-43792932D01*
X82602210Y-43804423D01*
X82615908Y-43815975D01*
X82629553Y-43827587D01*
X82643146Y-43839260D01*
X82656687Y-43850993D01*
X82670174Y-43862787D01*
X82683609Y-43874639D01*
X82696990Y-43886552D01*
X82710317Y-43898524D01*
X82723591Y-43910554D01*
X82736810Y-43922644D01*
X82749975Y-43934792D01*
X82763086Y-43946999D01*
X82776141Y-43959264D01*
X82789142Y-43971587D01*
X82802087Y-43983968D01*
X82812315Y-43993829D01*
X83058973Y-44182732D02*
X83050072Y-44177371D01*
X83041212Y-44171942D01*
X83032394Y-44166444D01*
X83023619Y-44160879D01*
X83014887Y-44155246D01*
X83006198Y-44149547D01*
X82997554Y-44143780D01*
X82988954Y-44137947D01*
X82980399Y-44132048D01*
X82971889Y-44126084D01*
X82963426Y-44120054D01*
X82955009Y-44113959D01*
X82946640Y-44107799D01*
X82938318Y-44101575D01*
X82930044Y-44095287D01*
X82925925Y-44092119D01*
X82921818Y-44088935D01*
X82917724Y-44085736D01*
X82913642Y-44082520D01*
X82909573Y-44079289D01*
X82905515Y-44076043D01*
X82901471Y-44072781D01*
X82897439Y-44069503D01*
X82893420Y-44066210D01*
X82889413Y-44062901D01*
X82885419Y-44059577D01*
X82881438Y-44056237D01*
X82877469Y-44052883D01*
X82873514Y-44049512D01*
X82869572Y-44046127D01*
X82865642Y-44042727D01*
X82861726Y-44039311D01*
X82857823Y-44035881D01*
X82853933Y-44032435D01*
X82850057Y-44028974D01*
X82846194Y-44025499D01*
X82842344Y-44022009D01*
X82838508Y-44018504D01*
X82834685Y-44014984D01*
X82830876Y-44011449D01*
X82827080Y-44007900D01*
X82823298Y-44004336D01*
X82819529Y-44000758D01*
X82812315Y-43993829D01*
X83342283Y-44310244D02*
X83332392Y-44307060D01*
X83322526Y-44303800D01*
X83312685Y-44300464D01*
X83302870Y-44297052D01*
X83293081Y-44293565D01*
X83283320Y-44290003D01*
X83273586Y-44286365D01*
X83263880Y-44282653D01*
X83254203Y-44278866D01*
X83244556Y-44275004D01*
X83234938Y-44271069D01*
X83225351Y-44267059D01*
X83215795Y-44262976D01*
X83206270Y-44258819D01*
X83196778Y-44254589D01*
X83192044Y-44252447D01*
X83187319Y-44250286D01*
X83182601Y-44248107D01*
X83177892Y-44245910D01*
X83173192Y-44243695D01*
X83168500Y-44241462D01*
X83163817Y-44239211D01*
X83159142Y-44236942D01*
X83154476Y-44234655D01*
X83149819Y-44232350D01*
X83145171Y-44230026D01*
X83140532Y-44227686D01*
X83135902Y-44225327D01*
X83131281Y-44222950D01*
X83126669Y-44220556D01*
X83122066Y-44218144D01*
X83117473Y-44215714D01*
X83112889Y-44213266D01*
X83108315Y-44210801D01*
X83103750Y-44208319D01*
X83099194Y-44205818D01*
X83094648Y-44203300D01*
X83090113Y-44200765D01*
X83085586Y-44198212D01*
X83081070Y-44195642D01*
X83076563Y-44193055D01*
X83072067Y-44190450D01*
X83067580Y-44187828D01*
X83058973Y-44182732D01*
X83861357Y-44369092D02*
X83850998Y-44369901D01*
X83840633Y-44370631D01*
X83830263Y-44371281D01*
X83819889Y-44371851D01*
X83809510Y-44372341D01*
X83799127Y-44372751D01*
X83788742Y-44373081D01*
X83778354Y-44373331D01*
X83767965Y-44373502D01*
X83757575Y-44373592D01*
X83747184Y-44373603D01*
X83736793Y-44373533D01*
X83726403Y-44373383D01*
X83716014Y-44373154D01*
X83705627Y-44372844D01*
X83695243Y-44372455D01*
X83684862Y-44371986D01*
X83674484Y-44371436D01*
X83664111Y-44370807D01*
X83653744Y-44370098D01*
X83643381Y-44369309D01*
X83633025Y-44368441D01*
X83622676Y-44367493D01*
X83612335Y-44366465D01*
X83602001Y-44365357D01*
X83596838Y-44364774D01*
X83591677Y-44364171D01*
X83586518Y-44363547D01*
X83581362Y-44362904D01*
X83576208Y-44362241D01*
X83571056Y-44361558D01*
X83565908Y-44360856D01*
X83560762Y-44360133D01*
X83555619Y-44359391D01*
X83550478Y-44358629D01*
X83545341Y-44357847D01*
X83540207Y-44357046D01*
X83535075Y-44356224D01*
X83529947Y-44355383D01*
X83524823Y-44354522D01*
X83519701Y-44353642D01*
X83514583Y-44352741D01*
X83509469Y-44351822D01*
X83504358Y-44350882D01*
X83499251Y-44349923D01*
X83494147Y-44348944D01*
X83489047Y-44347945D01*
X83483952Y-44346927D01*
X83478860Y-44345889D01*
X83473772Y-44344832D01*
X83468688Y-44343755D01*
X83463609Y-44342658D01*
X83458533Y-44341542D01*
X83453462Y-44340406D01*
X83448396Y-44339251D01*
X83443334Y-44338077D01*
X83438276Y-44336882D01*
X83433223Y-44335669D01*
X83428175Y-44334436D01*
X83423131Y-44333183D01*
X83418092Y-44331911D01*
X83413059Y-44330620D01*
X83408030Y-44329309D01*
X83403007Y-44327980D01*
X83397988Y-44326630D01*
X83392975Y-44325262D01*
X83387967Y-44323874D01*
X83382964Y-44322466D01*
X83377967Y-44321040D01*
X83372975Y-44319594D01*
X83367989Y-44318129D01*
X83363009Y-44316645D01*
X83358034Y-44315142D01*
X83353065Y-44313620D01*
X83348101Y-44312078D01*
X83342283Y-44310244D01*
X84363910Y-44226467D02*
X84354634Y-44231148D01*
X84345322Y-44235758D01*
X84335975Y-44240297D01*
X84326594Y-44244763D01*
X84317178Y-44249156D01*
X84307728Y-44253477D01*
X84298246Y-44257726D01*
X84288731Y-44261901D01*
X84279184Y-44266003D01*
X84269606Y-44270031D01*
X84259997Y-44273986D01*
X84250358Y-44277866D01*
X84240689Y-44281673D01*
X84230990Y-44285404D01*
X84221264Y-44289061D01*
X84211509Y-44292644D01*
X84201727Y-44296151D01*
X84191918Y-44299582D01*
X84182083Y-44302938D01*
X84172222Y-44306218D01*
X84162336Y-44309423D01*
X84152426Y-44312551D01*
X84142491Y-44315603D01*
X84132534Y-44318578D01*
X84122554Y-44321477D01*
X84117555Y-44322897D01*
X84112551Y-44324298D01*
X84107542Y-44325680D01*
X84102528Y-44327043D01*
X84097508Y-44328386D01*
X84092483Y-44329710D01*
X84087453Y-44331015D01*
X84082418Y-44332300D01*
X84077378Y-44333566D01*
X84072333Y-44334813D01*
X84067284Y-44336040D01*
X84062229Y-44337248D01*
X84057170Y-44338436D01*
X84052107Y-44339604D01*
X84047039Y-44340754D01*
X84041967Y-44341883D01*
X84036890Y-44342994D01*
X84031809Y-44344084D01*
X84026724Y-44345155D01*
X84021635Y-44346207D01*
X84016542Y-44347239D01*
X84011445Y-44348251D01*
X84006344Y-44349244D01*
X84001239Y-44350217D01*
X83996131Y-44351170D01*
X83991019Y-44352104D01*
X83985903Y-44353018D01*
X83980784Y-44353912D01*
X83975662Y-44354787D01*
X83970535Y-44355642D01*
X83965407Y-44356477D01*
X83960274Y-44357292D01*
X83955139Y-44358088D01*
X83950000Y-44358864D01*
X83944859Y-44359620D01*
X83939714Y-44360356D01*
X83934567Y-44361072D01*
X83929417Y-44361769D01*
X83924265Y-44362446D01*
X83919109Y-44363103D01*
X83913952Y-44363740D01*
X83908792Y-44364357D01*
X83903630Y-44364955D01*
X83898465Y-44365532D01*
X83893298Y-44366090D01*
X83888129Y-44366628D01*
X83882958Y-44367146D01*
X83877784Y-44367644D01*
X83872610Y-44368122D01*
X83867432Y-44368580D01*
X83861357Y-44369092D01*
D10*
X84363910Y-44226467D02*
G75*
G02*
X106404513Y-64618367I7263860J-14256103D01*
G01*
X91122140Y-13361342D02*
X79835636Y-13361342D01*
X91122140Y-13361342D02*
G75*
G02*
X93122058Y-15361342I-40J-1999958D01*
G01*
X92989122Y-27340725D02*
G75*
G02*
X90539122Y-27340725I-1225000J0D01*
G01*
X90539122Y-27340725D02*
G75*
G02*
X92989122Y-27340725I1225000J0D01*
G01*
X93122140Y-23252509D02*
X93122140Y-15361342D01*
X98381978Y-26762581D02*
G75*
G02*
X93122194Y-23252509I-1458678J3510081D01*
G01*
X98381978Y-26762581D02*
G75*
G02*
X100300787Y-26379741I1918822J-4617219D01*
G01*
X102419649Y-26379742D02*
X100300787Y-26379742D01*
X104348969Y-24906738D02*
G75*
G02*
X102419649Y-26379758I-1929369J527038D01*
G01*
X104348969Y-24906738D02*
G75*
G02*
X106146557Y-21687312I7403731J-2022362D01*
G01*
D11*
X106308995Y-21547227D02*
X106301656Y-21552342D01*
X106294362Y-21557522D01*
X106287115Y-21562768D01*
X106279916Y-21568078D01*
X106272764Y-21573452D01*
X106265660Y-21578890D01*
X106258605Y-21584392D01*
X106251599Y-21589956D01*
X106244644Y-21595583D01*
X106237739Y-21601272D01*
X106230885Y-21607022D01*
X106224083Y-21612834D01*
X106220701Y-21615762D01*
X106217332Y-21618706D01*
X106213977Y-21621664D01*
X106210635Y-21624638D01*
X106207306Y-21627626D01*
X106203991Y-21630630D01*
X106200689Y-21633648D01*
X106197401Y-21636681D01*
X106194126Y-21639729D01*
X106190865Y-21642791D01*
X106187618Y-21645868D01*
X106184384Y-21648959D01*
X106181164Y-21652065D01*
X106177958Y-21655185D01*
X106174766Y-21658319D01*
X106171588Y-21661468D01*
X106168425Y-21664631D01*
X106165275Y-21667808D01*
X106162140Y-21670999D01*
X106159018Y-21674204D01*
X106155912Y-21677423D01*
X106152819Y-21680656D01*
X106149742Y-21683902D01*
X106146678Y-21687163D01*
X106146547Y-21687303D01*
X106497553Y-21445002D02*
X106489292Y-21448435D01*
X106481063Y-21451942D01*
X106472865Y-21455522D01*
X106464699Y-21459175D01*
X106456566Y-21462901D01*
X106448467Y-21466700D01*
X106440402Y-21470571D01*
X106432372Y-21474514D01*
X106424377Y-21478529D01*
X106416419Y-21482616D01*
X106408497Y-21486773D01*
X106400612Y-21491001D01*
X106396684Y-21493141D01*
X106392766Y-21495299D01*
X106388857Y-21497475D01*
X106384958Y-21499667D01*
X106381069Y-21501878D01*
X106377190Y-21504106D01*
X106373321Y-21506351D01*
X106369461Y-21508613D01*
X106365612Y-21510892D01*
X106361773Y-21513189D01*
X106357945Y-21515503D01*
X106354127Y-21517834D01*
X106350319Y-21520182D01*
X106346522Y-21522547D01*
X106342735Y-21524929D01*
X106338959Y-21527329D01*
X106335194Y-21529744D01*
X106331439Y-21532177D01*
X106327696Y-21534626D01*
X106323963Y-21537093D01*
X106320242Y-21539576D01*
X106316532Y-21542075D01*
X106312833Y-21544591D01*
X106309144Y-21547124D01*
X106308995Y-21547227D01*
D10*
X106821405Y-66783391D02*
G75*
G02*
X106404467Y-64618348I1430195J1398091D01*
G01*
X106821405Y-66783391D02*
X107208639Y-67179527D01*
D11*
X106877280Y-21370119D02*
X106868337Y-21370159D01*
X106859395Y-21370279D01*
X106850454Y-21370479D01*
X106841516Y-21370759D01*
X106832580Y-21371118D01*
X106823648Y-21371558D01*
X106814719Y-21372078D01*
X106805796Y-21372677D01*
X106796878Y-21373356D01*
X106787966Y-21374115D01*
X106779062Y-21374954D01*
X106770165Y-21375872D01*
X106761276Y-21376869D01*
X106752397Y-21377947D01*
X106743527Y-21379103D01*
X106734668Y-21380339D01*
X106725821Y-21381654D01*
X106716985Y-21383048D01*
X106708162Y-21384521D01*
X106699352Y-21386073D01*
X106690556Y-21387704D01*
X106681775Y-21389413D01*
X106677390Y-21390297D01*
X106673010Y-21391201D01*
X106668633Y-21392124D01*
X106664261Y-21393067D01*
X106659892Y-21394030D01*
X106655528Y-21395012D01*
X106651169Y-21396013D01*
X106646814Y-21397034D01*
X106642463Y-21398074D01*
X106638117Y-21399134D01*
X106633777Y-21400214D01*
X106629440Y-21401312D01*
X106625109Y-21402430D01*
X106620783Y-21403568D01*
X106616462Y-21404725D01*
X106612146Y-21405901D01*
X106607835Y-21407096D01*
X106603530Y-21408311D01*
X106599230Y-21409545D01*
X106594936Y-21410798D01*
X106590647Y-21412070D01*
X106586364Y-21413361D01*
X106582087Y-21414672D01*
X106577816Y-21416002D01*
X106573551Y-21417351D01*
X106569291Y-21418719D01*
X106565039Y-21420105D01*
X106560791Y-21421511D01*
X106556551Y-21422936D01*
X106552317Y-21424380D01*
X106548089Y-21425843D01*
X106543868Y-21427325D01*
X106539654Y-21428825D01*
X106535446Y-21430345D01*
X106531245Y-21431883D01*
X106527051Y-21433440D01*
X106522864Y-21435016D01*
X106518684Y-21436610D01*
X106514511Y-21438224D01*
X106510345Y-21439856D01*
X106506187Y-21441506D01*
X106502036Y-21443175D01*
X106497553Y-21445002D01*
D10*
X107208639Y-67179527D02*
G75*
G02*
X107849897Y-68165203I-2145239J-2097073D01*
G01*
X108677388Y-47723524D02*
G75*
G02*
X106677388Y-47723524I-1000000J0D01*
G01*
X106677388Y-47723524D02*
G75*
G02*
X108677388Y-47723524I1000000J0D01*
G01*
X107849890Y-68165206D02*
X108708669Y-70318360D01*
X112821586Y-71897815D02*
G75*
G02*
X108708683Y-70318354I-1326386J2690815D01*
G01*
X112821586Y-71897815D02*
X120408101Y-68158261D01*
X115861814Y-62529128D02*
G75*
G02*
X113661814Y-62529128I-1100000J0D01*
G01*
X113661814Y-62529128D02*
G75*
G02*
X115861814Y-62529128I1100000J0D01*
G01*
X116828080Y-26709648D02*
G75*
G02*
X114828080Y-26709648I-1000000J0D01*
G01*
X114828080Y-26709648D02*
G75*
G02*
X116828080Y-26709648I1000000J0D01*
G01*
X116660866Y-21370119D02*
X106877280Y-21370119D01*
X116869535Y-21417264D02*
X116660866Y-21370119D01*
D11*
X117148749Y-21526386D02*
X117140979Y-21521953D01*
X117133169Y-21517590D01*
X117125320Y-21513296D01*
X117117434Y-21509073D01*
X117109510Y-21504920D01*
X117101549Y-21500839D01*
X117093552Y-21496829D01*
X117085519Y-21492890D01*
X117077451Y-21489023D01*
X117069349Y-21485229D01*
X117061213Y-21481507D01*
X117053044Y-21477858D01*
X117044843Y-21474282D01*
X117036610Y-21470780D01*
X117028346Y-21467351D01*
X117020051Y-21463996D01*
X117011727Y-21460715D01*
X117007554Y-21459103D01*
X117003373Y-21457510D01*
X116999186Y-21455935D01*
X116994992Y-21454378D01*
X116990791Y-21452841D01*
X116986582Y-21451322D01*
X116982367Y-21449822D01*
X116978146Y-21448341D01*
X116973918Y-21446879D01*
X116969683Y-21445436D01*
X116965442Y-21444012D01*
X116961194Y-21442606D01*
X116956941Y-21441220D01*
X116952681Y-21439853D01*
X116948415Y-21438505D01*
X116944143Y-21437176D01*
X116939865Y-21435866D01*
X116935582Y-21434575D01*
X116931292Y-21433303D01*
X116926997Y-21432050D01*
X116922697Y-21430817D01*
X116918390Y-21429603D01*
X116914079Y-21428408D01*
X116909762Y-21427233D01*
X116905440Y-21426077D01*
X116901113Y-21424940D01*
X116896781Y-21423822D01*
X116892443Y-21422724D01*
X116888101Y-21421645D01*
X116883754Y-21420586D01*
X116879403Y-21419546D01*
X116875046Y-21418526D01*
X116869535Y-21417264D01*
X117383163Y-21713350D02*
X117377053Y-21706813D01*
X117370885Y-21700332D01*
X117364660Y-21693905D01*
X117358377Y-21687535D01*
X117352037Y-21681221D01*
X117345642Y-21674964D01*
X117339190Y-21668764D01*
X117332683Y-21662622D01*
X117326122Y-21656538D01*
X117319506Y-21650513D01*
X117312837Y-21644548D01*
X117306114Y-21638642D01*
X117299339Y-21632797D01*
X117292512Y-21627012D01*
X117285634Y-21621289D01*
X117278704Y-21615627D01*
X117271724Y-21610027D01*
X117268216Y-21607251D01*
X117264694Y-21604490D01*
X117261161Y-21601745D01*
X117257615Y-21599016D01*
X117254058Y-21596303D01*
X117250488Y-21593606D01*
X117246906Y-21590924D01*
X117243312Y-21588259D01*
X117239706Y-21585610D01*
X117236089Y-21582977D01*
X117232459Y-21580360D01*
X117228818Y-21577759D01*
X117225166Y-21575175D01*
X117221501Y-21572607D01*
X117217826Y-21570055D01*
X117214139Y-21567520D01*
X117210441Y-21565002D01*
X117206731Y-21562499D01*
X117203011Y-21560014D01*
X117199279Y-21557545D01*
X117195536Y-21555093D01*
X117191782Y-21552658D01*
X117188018Y-21550239D01*
X117184242Y-21547837D01*
X117180456Y-21545453D01*
X117176659Y-21543085D01*
X117172852Y-21540734D01*
X117169034Y-21538400D01*
X117165207Y-21536083D01*
X117161368Y-21533783D01*
X117157519Y-21531501D01*
X117153660Y-21529236D01*
X117148749Y-21526386D01*
D10*
X117383163Y-21713350D02*
G75*
G02*
X117993703Y-22461882I-5630463J-5215750D01*
G01*
D11*
X118132759Y-22738409D02*
X118129987Y-22729905D01*
X118127139Y-22721425D01*
X118124215Y-22712972D01*
X118121216Y-22704544D01*
X118118142Y-22696144D01*
X118114992Y-22687772D01*
X118111768Y-22679428D01*
X118108469Y-22671113D01*
X118105096Y-22662827D01*
X118101649Y-22654572D01*
X118098128Y-22646349D01*
X118094534Y-22638156D01*
X118090867Y-22629997D01*
X118087126Y-22621870D01*
X118083314Y-22613777D01*
X118079429Y-22605718D01*
X118075472Y-22597694D01*
X118071443Y-22589706D01*
X118069402Y-22585725D01*
X118067343Y-22581754D01*
X118065267Y-22577792D01*
X118063172Y-22573839D01*
X118061060Y-22569895D01*
X118058931Y-22565961D01*
X118056784Y-22562037D01*
X118054619Y-22558122D01*
X118052437Y-22554217D01*
X118050237Y-22550321D01*
X118048020Y-22546436D01*
X118045786Y-22542560D01*
X118043534Y-22538695D01*
X118041265Y-22534839D01*
X118038979Y-22530994D01*
X118036675Y-22527159D01*
X118034355Y-22523334D01*
X118032017Y-22519520D01*
X118029663Y-22515716D01*
X118027291Y-22511923D01*
X118024902Y-22508140D01*
X118022497Y-22504368D01*
X118020074Y-22500607D01*
X118017635Y-22496857D01*
X118015179Y-22493117D01*
X118012707Y-22489389D01*
X118010218Y-22485672D01*
X118007711Y-22481965D01*
X118005189Y-22478270D01*
X118002650Y-22474587D01*
X118000095Y-22470915D01*
X117997523Y-22467253D01*
X117993704Y-22461881D01*
X118180634Y-23044167D02*
X118180594Y-23035223D01*
X118180474Y-23026280D01*
X118180274Y-23017338D01*
X118179994Y-23008399D01*
X118179634Y-22999462D01*
X118179195Y-22990528D01*
X118178675Y-22981599D01*
X118178076Y-22972675D01*
X118177397Y-22963756D01*
X118176638Y-22954843D01*
X118175799Y-22945938D01*
X118174881Y-22937040D01*
X118173883Y-22928150D01*
X118172806Y-22919270D01*
X118171649Y-22910400D01*
X118170413Y-22901540D01*
X118169098Y-22892691D01*
X118167704Y-22883854D01*
X118166977Y-22879441D01*
X118166231Y-22875031D01*
X118165464Y-22870624D01*
X118164679Y-22866220D01*
X118163873Y-22861820D01*
X118163048Y-22857424D01*
X118162203Y-22853031D01*
X118161338Y-22848642D01*
X118160454Y-22844257D01*
X118159550Y-22839876D01*
X118158627Y-22835500D01*
X118157684Y-22831127D01*
X118156722Y-22826758D01*
X118155740Y-22822394D01*
X118154738Y-22818034D01*
X118153717Y-22813679D01*
X118152677Y-22809328D01*
X118151617Y-22804982D01*
X118150538Y-22800641D01*
X118149439Y-22796304D01*
X118148321Y-22791973D01*
X118147183Y-22787646D01*
X118146026Y-22783325D01*
X118144850Y-22779009D01*
X118143655Y-22774698D01*
X118142440Y-22770392D01*
X118141206Y-22766092D01*
X118139953Y-22761797D01*
X118138680Y-22757509D01*
X118137389Y-22753225D01*
X118136078Y-22748948D01*
X118134748Y-22744676D01*
X118132759Y-22738409D01*
D10*
X118180634Y-25805499D02*
X118180634Y-23044167D01*
X119148850Y-27518806D02*
G75*
G02*
X118180619Y-25805499I1031750J1713306D01*
G01*
X121523847Y-50117147D02*
G75*
G02*
X122215828Y-48604103I2000053J47D01*
G01*
X121523847Y-66364356D02*
G75*
G02*
X120408130Y-68158320I-2000047J-44D01*
G01*
X121523847Y-66364356D02*
X121523847Y-50117147D01*
X122215863Y-48604144D02*
X127992160Y-43610559D01*
X122235978Y-29377929D02*
X119148850Y-27518806D01*
X122235978Y-29377929D02*
G75*
G02*
X122649761Y-29709094I-1031778J-1713271D01*
G01*
X124095336Y-30326946D02*
G75*
G02*
X122649736Y-29709119I-36J2000046D01*
G01*
X125546113Y-30326946D02*
X124095336Y-30326946D01*
X125546113Y-30326946D02*
G75*
G02*
X129085124Y-31794925I-13J-4999954D01*
G01*
X127992160Y-43610559D02*
X127992160Y-43547068D01*
X129085140Y-31794909D02*
G75*
G02*
X127992164Y-43547073I-5432410J-5421681D01*
G01*
M02*
