%TF.GenerationSoftware,KiCad,Pcbnew,10.0.5*%
%TF.CreationDate,2026-09-21T17:54:25-07:00*%
%TF.ProjectId,PGS_Main_Board,5047535f-4d61-4696-9e5f-426f6172642e,2*%
%TF.SameCoordinates,Original*%
%TF.FileFunction,Paste,Top*%
%TF.FilePolarity,Positive*%
%FSLAX46Y46*%
G04 Gerber Fmt 4.6, Leading zero omitted, Abs format (unit mm)*
G04 Created by KiCad (PCBNEW 10.0.5) date 2026-09-21 17:54:25*
%MOMM*%
%LPD*%
G01*
G04 APERTURE LIST*
G04 Aperture macros list*
%AMRoundRect*
0 Rectangle with rounded corners*
0 $1 Rounding radius*
0 $2 $3 $4 $5 $6 $7 $8 $9 X,Y pos of 4 corners*
0 Add a 4 corners polygon primitive as box body*
4,1,4,$2,$3,$4,$5,$6,$7,$8,$9,$2,$3,0*
0 Add four circle primitives for the rounded corners*
1,1,$1+$1,$2,$3*
1,1,$1+$1,$4,$5*
1,1,$1+$1,$6,$7*
1,1,$1+$1,$8,$9*
0 Add four rect primitives between the rounded corners*
20,1,$1+$1,$2,$3,$4,$5,0*
20,1,$1+$1,$4,$5,$6,$7,0*
20,1,$1+$1,$6,$7,$8,$9,0*
20,1,$1+$1,$8,$9,$2,$3,0*%
G04 Aperture macros list end*
%ADD10RoundRect,0.079500X-0.079500X-0.100500X0.079500X-0.100500X0.079500X0.100500X-0.079500X0.100500X0*%
%ADD11R,0.370000X0.370000*%
%ADD12RoundRect,0.150000X0.150000X0.200000X-0.150000X0.200000X-0.150000X-0.200000X0.150000X-0.200000X0*%
%ADD13RoundRect,0.150000X-0.150000X-0.200000X0.150000X-0.200000X0.150000X0.200000X-0.150000X0.200000X0*%
%ADD14RoundRect,0.150000X-1.250000X-0.350000X1.250000X-0.350000X1.250000X0.350000X-1.250000X0.350000X0*%
%ADD15RoundRect,0.150000X1.250000X0.350000X-1.250000X0.350000X-1.250000X-0.350000X1.250000X-0.350000X0*%
%ADD16RoundRect,0.150000X0.200000X-0.150000X0.200000X0.150000X-0.200000X0.150000X-0.200000X-0.150000X0*%
%ADD17RoundRect,0.079500X0.079500X0.100500X-0.079500X0.100500X-0.079500X-0.100500X0.079500X-0.100500X0*%
%ADD18RoundRect,0.079500X0.100500X-0.079500X0.100500X0.079500X-0.100500X0.079500X-0.100500X-0.079500X0*%
%ADD19RoundRect,0.079500X-0.100500X0.079500X-0.100500X-0.079500X0.100500X-0.079500X0.100500X0.079500X0*%
%ADD20RoundRect,0.150000X0.350000X-1.250000X0.350000X1.250000X-0.350000X1.250000X-0.350000X-1.250000X0*%
%ADD21RoundRect,0.150000X-0.350000X1.250000X-0.350000X-1.250000X0.350000X-1.250000X0.350000X1.250000X0*%
%ADD22RoundRect,0.150000X-0.150000X0.587500X-0.150000X-0.587500X0.150000X-0.587500X0.150000X0.587500X0*%
G04 APERTURE END LIST*
D10*
%TO.C,R22*%
X59655000Y-29800000D03*
X60345000Y-29800000D03*
%TD*%
D11*
%TO.C,RGB1*%
X111417734Y-31264086D03*
X112087734Y-31264086D03*
X112087734Y-30594086D03*
X111417734Y-30594086D03*
%TD*%
%TO.C,RGB11*%
X71958091Y-51546695D03*
X72628091Y-51546695D03*
X72628091Y-50876695D03*
X71958091Y-50876695D03*
%TD*%
%TO.C,RGB6*%
X111417734Y-51839086D03*
X112087734Y-51839086D03*
X112087734Y-51169086D03*
X111417734Y-51169086D03*
%TD*%
D12*
%TO.C,D4*%
X30475000Y-64434247D03*
X31875000Y-64434247D03*
%TD*%
D11*
%TO.C,RGB5*%
X111417734Y-43839086D03*
X112087734Y-43839086D03*
X112087734Y-43169086D03*
X111417734Y-43169086D03*
%TD*%
%TO.C,RGB15*%
X47703830Y-54219448D03*
X48373830Y-54219448D03*
X48373830Y-53549448D03*
X47703830Y-53549448D03*
%TD*%
D13*
%TO.C,D1*%
X29125000Y-67400000D03*
X27725000Y-67400000D03*
%TD*%
D14*
%TO.C,SW8*%
X67884037Y-27138316D03*
X73684037Y-27138316D03*
X67884037Y-31138316D03*
X73684037Y-31138316D03*
%TD*%
D15*
%TO.C,SW4*%
X59672471Y-28132897D03*
X53872471Y-28132897D03*
X59672471Y-24132897D03*
X53872471Y-24132897D03*
%TD*%
D16*
%TO.C,D2*%
X114550000Y-65075000D03*
X114550000Y-66475000D03*
%TD*%
D17*
%TO.C,C14*%
X109995000Y-63400000D03*
X109305000Y-63400000D03*
%TD*%
D18*
%TO.C,R17*%
X60075000Y-47220000D03*
X60075000Y-46530000D03*
%TD*%
D13*
%TO.C,D5*%
X111525000Y-66050000D03*
X110125000Y-66050000D03*
%TD*%
D17*
%TO.C,C9*%
X30782501Y-57600000D03*
X30092501Y-57600000D03*
%TD*%
%TO.C,R31*%
X81620000Y-22725000D03*
X80930000Y-22725000D03*
%TD*%
D19*
%TO.C,R18*%
X31175000Y-62405000D03*
X31175000Y-63095000D03*
%TD*%
D18*
%TO.C,R16*%
X65900000Y-66420000D03*
X65900000Y-65730000D03*
%TD*%
D11*
%TO.C,RGB8*%
X99517734Y-33551586D03*
X100187734Y-33551586D03*
X100187734Y-32881586D03*
X99517734Y-32881586D03*
%TD*%
%TO.C,RGB13*%
X47703830Y-63619448D03*
X48373830Y-63619448D03*
X48373830Y-62949448D03*
X47703830Y-62949448D03*
%TD*%
D10*
%TO.C,R25*%
X59735000Y-32725000D03*
X60425000Y-32725000D03*
%TD*%
D13*
%TO.C,D6*%
X110075000Y-64575000D03*
X108675000Y-64575000D03*
%TD*%
D14*
%TO.C,SW7*%
X67884037Y-35412061D03*
X73684037Y-35412061D03*
X67884037Y-39412061D03*
X73684037Y-39412061D03*
%TD*%
D17*
%TO.C,R9*%
X27420000Y-66200000D03*
X26730000Y-66200000D03*
%TD*%
D11*
%TO.C,RGB14*%
X52403830Y-58919448D03*
X53073830Y-58919448D03*
X53073830Y-58249448D03*
X52403830Y-58249448D03*
%TD*%
D17*
%TO.C,R29*%
X65215000Y-45025000D03*
X64525000Y-45025000D03*
%TD*%
D18*
%TO.C,R21*%
X119725000Y-60570000D03*
X119725000Y-59880000D03*
%TD*%
D14*
%TO.C,SW3*%
X81895603Y-24132897D03*
X87695603Y-24132897D03*
X81895603Y-28132897D03*
X87695603Y-28132897D03*
%TD*%
D18*
%TO.C,R26*%
X75600000Y-36095000D03*
X75600000Y-35405000D03*
%TD*%
D10*
%TO.C,R5*%
X30092501Y-56825000D03*
X30782501Y-56825000D03*
%TD*%
D20*
%TO.C,SW6*%
X59772471Y-40532897D03*
X59772471Y-34732897D03*
X63772471Y-40532897D03*
X63772471Y-34732897D03*
%TD*%
D11*
%TO.C,RGB9*%
X64458092Y-51546695D03*
X65128092Y-51546695D03*
X65128092Y-50876695D03*
X64458092Y-50876695D03*
%TD*%
D19*
%TO.C,C10*%
X113350000Y-56255000D03*
X113350000Y-56945000D03*
%TD*%
D11*
%TO.C,RGB7*%
X99517734Y-41551586D03*
X100187734Y-41551586D03*
X100187734Y-40881586D03*
X99517734Y-40881586D03*
%TD*%
D10*
%TO.C,C11*%
X28455000Y-68550000D03*
X29145000Y-68550000D03*
%TD*%
D11*
%TO.C,RGB2*%
X111417734Y-23264086D03*
X112087734Y-23264086D03*
X112087734Y-22594086D03*
X111417734Y-22594086D03*
%TD*%
D18*
%TO.C,C13*%
X115675000Y-65570000D03*
X115675000Y-64880000D03*
%TD*%
D21*
%TO.C,SW5*%
X81795603Y-34732897D03*
X81795603Y-40532897D03*
X77795603Y-34732897D03*
X77795603Y-40532897D03*
%TD*%
D17*
%TO.C,R34*%
X98752511Y-28833434D03*
X98062511Y-28833434D03*
%TD*%
D11*
%TO.C,RGB3*%
X123317734Y-41551586D03*
X123987734Y-41551586D03*
X123987734Y-40881586D03*
X123317734Y-40881586D03*
%TD*%
D14*
%TO.C,SW11*%
X67872471Y-66382897D03*
X73672471Y-66382897D03*
X67872471Y-70382897D03*
X73672471Y-70382897D03*
%TD*%
D17*
%TO.C,R8*%
X111795000Y-56250000D03*
X111105000Y-56250000D03*
%TD*%
D19*
%TO.C,R7*%
X31562501Y-56905000D03*
X31562501Y-57595000D03*
%TD*%
D18*
%TO.C,R15*%
X65975000Y-26800000D03*
X65975000Y-26110000D03*
%TD*%
D10*
%TO.C,C12*%
X31455000Y-65900000D03*
X32145000Y-65900000D03*
%TD*%
%TO.C,R10*%
X112755000Y-66150000D03*
X113445000Y-66150000D03*
%TD*%
D12*
%TO.C,D3*%
X29073664Y-65918303D03*
X30473664Y-65918303D03*
%TD*%
D11*
%TO.C,RGB12*%
X75708093Y-51546695D03*
X76378093Y-51546695D03*
X76378093Y-50876695D03*
X75708093Y-50876695D03*
%TD*%
D10*
%TO.C,R28*%
X64530000Y-45780136D03*
X65220000Y-45780136D03*
%TD*%
D17*
%TO.C,R33*%
X100495000Y-28000000D03*
X99805000Y-28000000D03*
%TD*%
D22*
%TO.C,Q1*%
X31562501Y-59012500D03*
X29662501Y-59012500D03*
X30612501Y-60887500D03*
%TD*%
D10*
%TO.C,R30*%
X81780000Y-32700000D03*
X82470000Y-32700000D03*
%TD*%
D18*
%TO.C,R6*%
X112575000Y-56945000D03*
X112575000Y-56255000D03*
%TD*%
D11*
%TO.C,RGB4*%
X123317734Y-33551586D03*
X123987734Y-33551586D03*
X123987734Y-32881586D03*
X123317734Y-32881586D03*
%TD*%
%TO.C,RGB16*%
X43003832Y-58919448D03*
X43673832Y-58919448D03*
X43673832Y-58249448D03*
X43003832Y-58249448D03*
%TD*%
%TO.C,RGB10*%
X68208091Y-51546695D03*
X68878091Y-51546695D03*
X68878091Y-50876695D03*
X68208091Y-50876695D03*
%TD*%
D22*
%TO.C,Q2*%
X111125000Y-57662500D03*
X109225000Y-57662500D03*
X110175000Y-59537500D03*
%TD*%
M02*
