%TF.GenerationSoftware,KiCad,Pcbnew,8.0.2*%
%TF.CreationDate,2025-05-18T13:49:09-07:00*%
%TF.ProjectId,PGS_Stick_Board,5047535f-5374-4696-936b-5f426f617264,rev?*%
%TF.SameCoordinates,Original*%
%TF.FileFunction,Drillmap*%
%TF.FilePolarity,Positive*%
%FSLAX45Y45*%
G04 Gerber Fmt 4.5, Leading zero omitted, Abs format (unit mm)*
G04 Created by KiCad (PCBNEW 8.0.2) date 2025-05-18 13:49:09*
%MOMM*%
%LPD*%
G01*
G04 APERTURE LIST*
%ADD10C,0.010000*%
%ADD11C,0.200000*%
%ADD12C,0.160000*%
G04 APERTURE END LIST*
D10*
X2955946Y-4346100D02*
G75*
G02*
X2855947Y-4247305I4J100010D01*
G01*
X5183301Y-3479385D02*
X5184584Y-3479426D01*
X5185866Y-3479436D01*
X5187147Y-3479414D01*
X5188426Y-3479360D01*
X5189702Y-3479275D01*
X5190975Y-3479158D01*
X5192245Y-3479010D01*
X5193511Y-3478831D01*
X5194771Y-3478621D01*
X5196027Y-3478380D01*
X5197276Y-3478108D01*
X5198519Y-3477805D01*
X5199755Y-3477471D01*
X5200983Y-3477106D01*
X5202203Y-3476711D01*
X5203414Y-3476286D01*
X5971028Y-3431319D02*
G75*
G02*
X6323879Y-3430609I176782J-176781D01*
G01*
X3830249Y-5572098D02*
G75*
G02*
X3644466Y-4960533I1292291J726578D01*
G01*
X5012429Y-6241447D02*
X5011970Y-6242452D01*
X5011532Y-6243467D01*
X5011116Y-6244490D01*
X5010722Y-6245522D01*
X5010350Y-6246561D01*
X5010000Y-6247608D01*
X5009673Y-6248663D01*
X5009368Y-6249724D01*
X5009085Y-6250792D01*
X5008826Y-6251866D01*
X5008665Y-6252586D01*
X3830249Y-5572098D02*
X3708286Y-5694061D01*
X5183301Y-6211681D02*
G75*
G02*
X5061699Y-6211681I-60801J1366159D01*
G01*
X5039428Y-3475442D02*
X5040452Y-3475857D01*
X5041485Y-3476249D01*
X5042526Y-3476619D01*
X5043574Y-3476967D01*
X5044629Y-3477292D01*
X5045691Y-3477595D01*
X5046759Y-3477875D01*
X5047833Y-3478133D01*
X5048912Y-3478367D01*
X5049997Y-3478579D01*
X5050723Y-3478707D01*
X5233510Y-6243566D02*
X5233000Y-6242384D01*
X5232461Y-6241216D01*
X5231895Y-6240062D01*
X5231300Y-6238924D01*
X5230678Y-6237802D01*
X5230029Y-6236696D01*
X5229352Y-6235607D01*
X5228649Y-6234535D01*
X5227920Y-6233480D01*
X5227165Y-6232444D01*
X5226384Y-6231426D01*
X5225578Y-6230428D01*
X5224747Y-6229449D01*
X5223891Y-6228490D01*
X5223012Y-6227552D01*
X5222108Y-6226636D01*
X4273972Y-6259746D02*
X4395935Y-6137784D01*
X6536712Y-3643450D02*
X6323875Y-3430613D01*
X5008665Y-6252586D02*
X5008458Y-6253598D01*
X5008270Y-6254614D01*
X5008103Y-6255633D01*
X5007956Y-6256656D01*
X5007830Y-6257680D01*
X5007724Y-6258707D01*
X5007638Y-6259736D01*
X5007573Y-6260767D01*
X5007529Y-6261799D01*
X5007505Y-6262832D01*
X5007500Y-6263521D01*
X2955946Y-4346100D02*
X3640000Y-4346100D01*
X3640000Y-4730533D02*
X3722500Y-4730533D01*
X2855940Y-3467497D02*
G75*
G02*
X2955940Y-3367500I100000J-3D01*
G01*
X3640000Y-4346100D02*
X3640000Y-4730533D01*
X6522500Y-4960533D02*
G75*
G02*
X6522839Y-4730528I0J115003D01*
G01*
X5007500Y-6323566D02*
G75*
G02*
X4395934Y-6137784I115000J1478046D01*
G01*
X5236335Y-3438480D02*
X5236542Y-3437467D01*
X5236730Y-3436451D01*
X5236897Y-3435432D01*
X5237044Y-3434410D01*
X5237170Y-3433385D01*
X5237276Y-3432358D01*
X5237362Y-3431329D01*
X5237427Y-3430299D01*
X5237471Y-3429267D01*
X5237495Y-3428234D01*
X5237500Y-3427545D01*
X2855940Y-3467497D02*
X2855940Y-4247305D01*
X5222108Y-6226636D02*
X5221207Y-6225765D01*
X5220286Y-6224918D01*
X5219346Y-6224094D01*
X5218387Y-6223293D01*
X5217410Y-6222516D01*
X5216415Y-6221763D01*
X5215402Y-6221035D01*
X5214372Y-6220331D01*
X5213325Y-6219652D01*
X5212263Y-6218998D01*
X5211184Y-6218370D01*
X5210091Y-6217768D01*
X5208982Y-6217192D01*
X5207859Y-6216642D01*
X5206722Y-6216119D01*
X5205572Y-6215623D01*
X5237500Y-3367500D02*
X5237500Y-3427545D01*
X5205572Y-6215623D02*
X5204547Y-6215209D01*
X5203515Y-6214817D01*
X5202474Y-6214446D01*
X5201426Y-6214099D01*
X5200371Y-6213773D01*
X5199309Y-6213471D01*
X5198241Y-6213190D01*
X5197167Y-6212933D01*
X5196088Y-6212698D01*
X5195003Y-6212487D01*
X5194277Y-6212359D01*
X5024166Y-6225418D02*
X5023256Y-6226279D01*
X5022369Y-6227161D01*
X5021504Y-6228063D01*
X5020661Y-6228986D01*
X5019841Y-6229927D01*
X5019045Y-6230888D01*
X5018272Y-6231868D01*
X5017523Y-6232865D01*
X5016798Y-6233881D01*
X5016098Y-6234913D01*
X5015423Y-6235963D01*
X5014772Y-6237029D01*
X5014147Y-6238110D01*
X5013548Y-6239208D01*
X5012976Y-6240320D01*
X5012429Y-6241447D01*
X4273972Y-6259746D02*
G75*
G02*
X3920418Y-6259744I-176776J176769D01*
G01*
X5971028Y-3431319D02*
X5849065Y-3553282D01*
X6414750Y-4118968D02*
X6536713Y-3997005D01*
X3920418Y-6259744D02*
X3920417Y-6259745D01*
X4069461Y-6006072D02*
G75*
G02*
X3854461Y-6006072I-107500J0D01*
G01*
X3854461Y-6006072D02*
G75*
G02*
X4069461Y-6006072I107500J0D01*
G01*
X5237500Y-6263521D02*
X5237500Y-6323566D01*
X5011490Y-3447500D02*
X5012000Y-3448682D01*
X5012539Y-3449850D01*
X5013105Y-3451003D01*
X5013700Y-3452141D01*
X5014322Y-3453263D01*
X5014971Y-3454370D01*
X5015648Y-3455459D01*
X5016351Y-3456531D01*
X5017080Y-3457585D01*
X5017835Y-3458622D01*
X5018616Y-3459639D01*
X5019422Y-3460638D01*
X5020253Y-3461616D01*
X5021108Y-3462575D01*
X5021988Y-3463513D01*
X5022892Y-3464430D01*
X6600533Y-4960533D02*
X6522500Y-4960533D01*
X6522839Y-4730533D02*
X6600535Y-4730533D01*
X5007500Y-3427545D02*
X5007516Y-3428828D01*
X5007563Y-3430109D01*
X5007643Y-3431388D01*
X5007753Y-3432663D01*
X5007895Y-3433934D01*
X5008068Y-3435201D01*
X5008272Y-3436463D01*
X5008507Y-3437720D01*
X5008773Y-3438970D01*
X5009070Y-3440213D01*
X5009398Y-3441449D01*
X5009756Y-3442677D01*
X5010144Y-3443897D01*
X5010563Y-3445108D01*
X5011011Y-3446309D01*
X5011490Y-3447500D01*
X6390539Y-3684994D02*
G75*
G02*
X6175539Y-3684994I-107500J0D01*
G01*
X6175539Y-3684994D02*
G75*
G02*
X6390539Y-3684994I107500J0D01*
G01*
X5232571Y-3449619D02*
X5233030Y-3448613D01*
X5233468Y-3447599D01*
X5233884Y-3446576D01*
X5234278Y-3445544D01*
X5234650Y-3444504D01*
X5235000Y-3443457D01*
X5235327Y-3442403D01*
X5235632Y-3441341D01*
X5235914Y-3440274D01*
X5236174Y-3439199D01*
X5236335Y-3438480D01*
X6414750Y-4118968D02*
G75*
G02*
X6600533Y-4730533I-1292300J-726582D01*
G01*
X5061699Y-6211681D02*
X5060416Y-6211639D01*
X5059134Y-6211630D01*
X5057853Y-6211652D01*
X5056574Y-6211706D01*
X5055298Y-6211791D01*
X5054025Y-6211908D01*
X5052755Y-6212055D01*
X5051489Y-6212234D01*
X5050229Y-6212445D01*
X5048973Y-6212686D01*
X5047724Y-6212958D01*
X5046481Y-6213261D01*
X5045245Y-6213595D01*
X5044017Y-6213959D01*
X5042797Y-6214354D01*
X5041586Y-6214780D01*
X5237500Y-6263521D02*
X5237484Y-6262238D01*
X5237437Y-6260956D01*
X5237357Y-6259678D01*
X5237247Y-6258403D01*
X5237105Y-6257131D01*
X5236932Y-6255864D01*
X5236728Y-6254602D01*
X5236493Y-6253346D01*
X5236227Y-6252096D01*
X5235930Y-6250852D01*
X5235602Y-6249616D01*
X5235244Y-6248388D01*
X5234856Y-6247169D01*
X5234437Y-6245958D01*
X5233989Y-6244757D01*
X5233510Y-6243566D01*
X5007500Y-3367500D02*
X2955940Y-3367500D01*
X6536712Y-3643450D02*
G75*
G02*
X6536715Y-3997007I-176783J-176780D01*
G01*
X5203414Y-3476286D02*
X5204617Y-3475829D01*
X5205808Y-3475343D01*
X5206986Y-3474829D01*
X5208149Y-3474285D01*
X5209298Y-3473713D01*
X5210432Y-3473114D01*
X5211550Y-3472487D01*
X5212652Y-3471832D01*
X5213738Y-3471150D01*
X5214807Y-3470442D01*
X5215858Y-3469707D01*
X5216891Y-3468946D01*
X5217906Y-3468160D01*
X5218902Y-3467348D01*
X5219878Y-3466510D01*
X5220834Y-3465648D01*
X5041586Y-6214780D02*
X5040382Y-6215236D01*
X5039192Y-6215722D01*
X5038014Y-6216237D01*
X5036851Y-6216780D01*
X5035702Y-6217352D01*
X5034568Y-6217952D01*
X5033450Y-6218579D01*
X5032348Y-6219234D01*
X5031262Y-6219915D01*
X5030193Y-6220624D01*
X5029142Y-6221358D01*
X5028108Y-6222119D01*
X5027094Y-6222906D01*
X5026098Y-6223718D01*
X5025122Y-6224555D01*
X5024166Y-6225418D01*
X6600533Y-4960533D02*
G75*
G02*
X5237500Y-6323566I-1478033J115000D01*
G01*
X3722500Y-4960533D02*
X3644466Y-4960533D01*
X3722500Y-4730533D02*
G75*
G02*
X3722500Y-4960533I0J-115000D01*
G01*
X5007500Y-6323566D02*
X5007500Y-6263521D01*
X5061699Y-3479385D02*
G75*
G02*
X5183301Y-3479385I60801J-1366159D01*
G01*
X5022892Y-3464430D02*
X5023793Y-3465300D01*
X5024714Y-3466148D01*
X5025654Y-3466972D01*
X5026613Y-3467772D01*
X5027590Y-3468549D01*
X5028585Y-3469302D01*
X5029598Y-3470031D01*
X5030628Y-3470735D01*
X5031675Y-3471414D01*
X5032737Y-3472068D01*
X5033816Y-3472696D01*
X5034909Y-3473298D01*
X5036018Y-3473874D01*
X5037141Y-3474424D01*
X5038277Y-3474947D01*
X5039428Y-3475442D01*
X5007500Y-3427545D02*
X5007500Y-3367500D01*
X3708286Y-6047614D02*
G75*
G02*
X3708287Y-5694061I176777J176776D01*
G01*
X5194277Y-6212359D02*
X5193257Y-6212196D01*
X5192233Y-6212054D01*
X5191208Y-6211932D01*
X5190180Y-6211831D01*
X5189151Y-6211750D01*
X5188120Y-6211690D01*
X5187088Y-6211650D01*
X5186056Y-6211631D01*
X5185023Y-6211632D01*
X5183989Y-6211654D01*
X5183301Y-6211681D01*
X5220834Y-3465648D02*
X5221744Y-3464787D01*
X5222631Y-3463905D01*
X5223496Y-3463002D01*
X5224339Y-3462080D01*
X5225158Y-3461138D01*
X5225955Y-3460177D01*
X5226728Y-3459198D01*
X5227477Y-3458200D01*
X5228202Y-3457185D01*
X5228902Y-3456152D01*
X5229577Y-3455103D01*
X5230228Y-3454037D01*
X5230852Y-3452955D01*
X5231451Y-3451858D01*
X5232024Y-3450746D01*
X5232571Y-3449619D01*
X5050723Y-3478707D02*
X5051743Y-3478870D01*
X5052767Y-3479012D01*
X5053792Y-3479133D01*
X5054820Y-3479235D01*
X5055849Y-3479315D01*
X5056880Y-3479376D01*
X5057912Y-3479415D01*
X5058944Y-3479435D01*
X5059977Y-3479433D01*
X5061010Y-3479411D01*
X5061699Y-3479385D01*
X5237500Y-3367500D02*
G75*
G02*
X5849065Y-3553282I-115020J-1478110D01*
G01*
X3708286Y-6047614D02*
X3920417Y-6259745D01*
D11*
D12*
X5042500Y-4335533D02*
X5202500Y-4495533D01*
X5202500Y-4335533D02*
X5042500Y-4495533D01*
X5042500Y-5195533D02*
X5202500Y-5355533D01*
X5202500Y-5195533D02*
X5042500Y-5355533D01*
D11*
X3116217Y-6644955D02*
X3116217Y-6444955D01*
X3116217Y-6444955D02*
X3163836Y-6444955D01*
X3163836Y-6444955D02*
X3192407Y-6454479D01*
X3192407Y-6454479D02*
X3211455Y-6473526D01*
X3211455Y-6473526D02*
X3220979Y-6492574D01*
X3220979Y-6492574D02*
X3230503Y-6530669D01*
X3230503Y-6530669D02*
X3230503Y-6559241D01*
X3230503Y-6559241D02*
X3220979Y-6597336D01*
X3220979Y-6597336D02*
X3211455Y-6616384D01*
X3211455Y-6616384D02*
X3192407Y-6635431D01*
X3192407Y-6635431D02*
X3163836Y-6644955D01*
X3163836Y-6644955D02*
X3116217Y-6644955D01*
X3316217Y-6644955D02*
X3316217Y-6511622D01*
X3316217Y-6549717D02*
X3325741Y-6530669D01*
X3325741Y-6530669D02*
X3335265Y-6521145D01*
X3335265Y-6521145D02*
X3354312Y-6511622D01*
X3354312Y-6511622D02*
X3373360Y-6511622D01*
X3440026Y-6644955D02*
X3440026Y-6511622D01*
X3440026Y-6444955D02*
X3430503Y-6454479D01*
X3430503Y-6454479D02*
X3440026Y-6464003D01*
X3440026Y-6464003D02*
X3449550Y-6454479D01*
X3449550Y-6454479D02*
X3440026Y-6444955D01*
X3440026Y-6444955D02*
X3440026Y-6464003D01*
X3563836Y-6644955D02*
X3544788Y-6635431D01*
X3544788Y-6635431D02*
X3535265Y-6616384D01*
X3535265Y-6616384D02*
X3535265Y-6444955D01*
X3668598Y-6644955D02*
X3649550Y-6635431D01*
X3649550Y-6635431D02*
X3640026Y-6616384D01*
X3640026Y-6616384D02*
X3640026Y-6444955D01*
X3897169Y-6644955D02*
X3897169Y-6444955D01*
X3897169Y-6444955D02*
X3963836Y-6587812D01*
X3963836Y-6587812D02*
X4030503Y-6444955D01*
X4030503Y-6444955D02*
X4030503Y-6644955D01*
X4211455Y-6644955D02*
X4211455Y-6540193D01*
X4211455Y-6540193D02*
X4201931Y-6521145D01*
X4201931Y-6521145D02*
X4182884Y-6511622D01*
X4182884Y-6511622D02*
X4144788Y-6511622D01*
X4144788Y-6511622D02*
X4125741Y-6521145D01*
X4211455Y-6635431D02*
X4192407Y-6644955D01*
X4192407Y-6644955D02*
X4144788Y-6644955D01*
X4144788Y-6644955D02*
X4125741Y-6635431D01*
X4125741Y-6635431D02*
X4116217Y-6616384D01*
X4116217Y-6616384D02*
X4116217Y-6597336D01*
X4116217Y-6597336D02*
X4125741Y-6578288D01*
X4125741Y-6578288D02*
X4144788Y-6568765D01*
X4144788Y-6568765D02*
X4192407Y-6568765D01*
X4192407Y-6568765D02*
X4211455Y-6559241D01*
X4306693Y-6511622D02*
X4306693Y-6711622D01*
X4306693Y-6521145D02*
X4325741Y-6511622D01*
X4325741Y-6511622D02*
X4363836Y-6511622D01*
X4363836Y-6511622D02*
X4382884Y-6521145D01*
X4382884Y-6521145D02*
X4392408Y-6530669D01*
X4392408Y-6530669D02*
X4401931Y-6549717D01*
X4401931Y-6549717D02*
X4401931Y-6606860D01*
X4401931Y-6606860D02*
X4392408Y-6625907D01*
X4392408Y-6625907D02*
X4382884Y-6635431D01*
X4382884Y-6635431D02*
X4363836Y-6644955D01*
X4363836Y-6644955D02*
X4325741Y-6644955D01*
X4325741Y-6644955D02*
X4306693Y-6635431D01*
X4487646Y-6625907D02*
X4497169Y-6635431D01*
X4497169Y-6635431D02*
X4487646Y-6644955D01*
X4487646Y-6644955D02*
X4478122Y-6635431D01*
X4478122Y-6635431D02*
X4487646Y-6625907D01*
X4487646Y-6625907D02*
X4487646Y-6644955D01*
X4487646Y-6521145D02*
X4497169Y-6530669D01*
X4497169Y-6530669D02*
X4487646Y-6540193D01*
X4487646Y-6540193D02*
X4478122Y-6530669D01*
X4478122Y-6530669D02*
X4487646Y-6521145D01*
X4487646Y-6521145D02*
X4487646Y-6540193D01*
D12*
X2695440Y-6893471D02*
X2855440Y-7053471D01*
X2855440Y-6893471D02*
X2695440Y-7053471D01*
D11*
X3220979Y-7064955D02*
X3106693Y-7064955D01*
X3163836Y-7064955D02*
X3163836Y-6864955D01*
X3163836Y-6864955D02*
X3144788Y-6893526D01*
X3144788Y-6893526D02*
X3125741Y-6912574D01*
X3125741Y-6912574D02*
X3106693Y-6922098D01*
X3306693Y-7045907D02*
X3316217Y-7055431D01*
X3316217Y-7055431D02*
X3306693Y-7064955D01*
X3306693Y-7064955D02*
X3297169Y-7055431D01*
X3297169Y-7055431D02*
X3306693Y-7045907D01*
X3306693Y-7045907D02*
X3306693Y-7064955D01*
X3487646Y-6864955D02*
X3449550Y-6864955D01*
X3449550Y-6864955D02*
X3430503Y-6874479D01*
X3430503Y-6874479D02*
X3420979Y-6884003D01*
X3420979Y-6884003D02*
X3401931Y-6912574D01*
X3401931Y-6912574D02*
X3392407Y-6950669D01*
X3392407Y-6950669D02*
X3392407Y-7026860D01*
X3392407Y-7026860D02*
X3401931Y-7045907D01*
X3401931Y-7045907D02*
X3411455Y-7055431D01*
X3411455Y-7055431D02*
X3430503Y-7064955D01*
X3430503Y-7064955D02*
X3468598Y-7064955D01*
X3468598Y-7064955D02*
X3487646Y-7055431D01*
X3487646Y-7055431D02*
X3497169Y-7045907D01*
X3497169Y-7045907D02*
X3506693Y-7026860D01*
X3506693Y-7026860D02*
X3506693Y-6979241D01*
X3506693Y-6979241D02*
X3497169Y-6960193D01*
X3497169Y-6960193D02*
X3487646Y-6950669D01*
X3487646Y-6950669D02*
X3468598Y-6941145D01*
X3468598Y-6941145D02*
X3430503Y-6941145D01*
X3430503Y-6941145D02*
X3411455Y-6950669D01*
X3411455Y-6950669D02*
X3401931Y-6960193D01*
X3401931Y-6960193D02*
X3392407Y-6979241D01*
X3630503Y-6864955D02*
X3649550Y-6864955D01*
X3649550Y-6864955D02*
X3668598Y-6874479D01*
X3668598Y-6874479D02*
X3678122Y-6884003D01*
X3678122Y-6884003D02*
X3687646Y-6903050D01*
X3687646Y-6903050D02*
X3697169Y-6941145D01*
X3697169Y-6941145D02*
X3697169Y-6988765D01*
X3697169Y-6988765D02*
X3687646Y-7026860D01*
X3687646Y-7026860D02*
X3678122Y-7045907D01*
X3678122Y-7045907D02*
X3668598Y-7055431D01*
X3668598Y-7055431D02*
X3649550Y-7064955D01*
X3649550Y-7064955D02*
X3630503Y-7064955D01*
X3630503Y-7064955D02*
X3611455Y-7055431D01*
X3611455Y-7055431D02*
X3601931Y-7045907D01*
X3601931Y-7045907D02*
X3592407Y-7026860D01*
X3592407Y-7026860D02*
X3582884Y-6988765D01*
X3582884Y-6988765D02*
X3582884Y-6941145D01*
X3582884Y-6941145D02*
X3592407Y-6903050D01*
X3592407Y-6903050D02*
X3601931Y-6884003D01*
X3601931Y-6884003D02*
X3611455Y-6874479D01*
X3611455Y-6874479D02*
X3630503Y-6864955D01*
X3820979Y-6864955D02*
X3840027Y-6864955D01*
X3840027Y-6864955D02*
X3859074Y-6874479D01*
X3859074Y-6874479D02*
X3868598Y-6884003D01*
X3868598Y-6884003D02*
X3878122Y-6903050D01*
X3878122Y-6903050D02*
X3887646Y-6941145D01*
X3887646Y-6941145D02*
X3887646Y-6988765D01*
X3887646Y-6988765D02*
X3878122Y-7026860D01*
X3878122Y-7026860D02*
X3868598Y-7045907D01*
X3868598Y-7045907D02*
X3859074Y-7055431D01*
X3859074Y-7055431D02*
X3840027Y-7064955D01*
X3840027Y-7064955D02*
X3820979Y-7064955D01*
X3820979Y-7064955D02*
X3801931Y-7055431D01*
X3801931Y-7055431D02*
X3792407Y-7045907D01*
X3792407Y-7045907D02*
X3782884Y-7026860D01*
X3782884Y-7026860D02*
X3773360Y-6988765D01*
X3773360Y-6988765D02*
X3773360Y-6941145D01*
X3773360Y-6941145D02*
X3782884Y-6903050D01*
X3782884Y-6903050D02*
X3792407Y-6884003D01*
X3792407Y-6884003D02*
X3801931Y-6874479D01*
X3801931Y-6874479D02*
X3820979Y-6864955D01*
X3973360Y-7064955D02*
X3973360Y-6931622D01*
X3973360Y-6950669D02*
X3982884Y-6941145D01*
X3982884Y-6941145D02*
X4001931Y-6931622D01*
X4001931Y-6931622D02*
X4030503Y-6931622D01*
X4030503Y-6931622D02*
X4049550Y-6941145D01*
X4049550Y-6941145D02*
X4059074Y-6960193D01*
X4059074Y-6960193D02*
X4059074Y-7064955D01*
X4059074Y-6960193D02*
X4068598Y-6941145D01*
X4068598Y-6941145D02*
X4087646Y-6931622D01*
X4087646Y-6931622D02*
X4116217Y-6931622D01*
X4116217Y-6931622D02*
X4135265Y-6941145D01*
X4135265Y-6941145D02*
X4144788Y-6960193D01*
X4144788Y-6960193D02*
X4144788Y-7064955D01*
X4240027Y-7064955D02*
X4240027Y-6931622D01*
X4240027Y-6950669D02*
X4249550Y-6941145D01*
X4249550Y-6941145D02*
X4268598Y-6931622D01*
X4268598Y-6931622D02*
X4297170Y-6931622D01*
X4297170Y-6931622D02*
X4316217Y-6941145D01*
X4316217Y-6941145D02*
X4325741Y-6960193D01*
X4325741Y-6960193D02*
X4325741Y-7064955D01*
X4325741Y-6960193D02*
X4335265Y-6941145D01*
X4335265Y-6941145D02*
X4354312Y-6931622D01*
X4354312Y-6931622D02*
X4382884Y-6931622D01*
X4382884Y-6931622D02*
X4401931Y-6941145D01*
X4401931Y-6941145D02*
X4411455Y-6960193D01*
X4411455Y-6960193D02*
X4411455Y-7064955D01*
X4801931Y-6855431D02*
X4630503Y-7112574D01*
X5059074Y-6864955D02*
X5078122Y-6864955D01*
X5078122Y-6864955D02*
X5097170Y-6874479D01*
X5097170Y-6874479D02*
X5106693Y-6884003D01*
X5106693Y-6884003D02*
X5116217Y-6903050D01*
X5116217Y-6903050D02*
X5125741Y-6941145D01*
X5125741Y-6941145D02*
X5125741Y-6988765D01*
X5125741Y-6988765D02*
X5116217Y-7026860D01*
X5116217Y-7026860D02*
X5106693Y-7045907D01*
X5106693Y-7045907D02*
X5097170Y-7055431D01*
X5097170Y-7055431D02*
X5078122Y-7064955D01*
X5078122Y-7064955D02*
X5059074Y-7064955D01*
X5059074Y-7064955D02*
X5040027Y-7055431D01*
X5040027Y-7055431D02*
X5030503Y-7045907D01*
X5030503Y-7045907D02*
X5020979Y-7026860D01*
X5020979Y-7026860D02*
X5011455Y-6988765D01*
X5011455Y-6988765D02*
X5011455Y-6941145D01*
X5011455Y-6941145D02*
X5020979Y-6903050D01*
X5020979Y-6903050D02*
X5030503Y-6884003D01*
X5030503Y-6884003D02*
X5040027Y-6874479D01*
X5040027Y-6874479D02*
X5059074Y-6864955D01*
X5211455Y-7045907D02*
X5220979Y-7055431D01*
X5220979Y-7055431D02*
X5211455Y-7064955D01*
X5211455Y-7064955D02*
X5201932Y-7055431D01*
X5201932Y-7055431D02*
X5211455Y-7045907D01*
X5211455Y-7045907D02*
X5211455Y-7064955D01*
X5344789Y-6864955D02*
X5363836Y-6864955D01*
X5363836Y-6864955D02*
X5382884Y-6874479D01*
X5382884Y-6874479D02*
X5392408Y-6884003D01*
X5392408Y-6884003D02*
X5401932Y-6903050D01*
X5401932Y-6903050D02*
X5411455Y-6941145D01*
X5411455Y-6941145D02*
X5411455Y-6988765D01*
X5411455Y-6988765D02*
X5401932Y-7026860D01*
X5401932Y-7026860D02*
X5392408Y-7045907D01*
X5392408Y-7045907D02*
X5382884Y-7055431D01*
X5382884Y-7055431D02*
X5363836Y-7064955D01*
X5363836Y-7064955D02*
X5344789Y-7064955D01*
X5344789Y-7064955D02*
X5325741Y-7055431D01*
X5325741Y-7055431D02*
X5316217Y-7045907D01*
X5316217Y-7045907D02*
X5306693Y-7026860D01*
X5306693Y-7026860D02*
X5297170Y-6988765D01*
X5297170Y-6988765D02*
X5297170Y-6941145D01*
X5297170Y-6941145D02*
X5306693Y-6903050D01*
X5306693Y-6903050D02*
X5316217Y-6884003D01*
X5316217Y-6884003D02*
X5325741Y-6874479D01*
X5325741Y-6874479D02*
X5344789Y-6864955D01*
X5582884Y-6864955D02*
X5544789Y-6864955D01*
X5544789Y-6864955D02*
X5525741Y-6874479D01*
X5525741Y-6874479D02*
X5516217Y-6884003D01*
X5516217Y-6884003D02*
X5497170Y-6912574D01*
X5497170Y-6912574D02*
X5487646Y-6950669D01*
X5487646Y-6950669D02*
X5487646Y-7026860D01*
X5487646Y-7026860D02*
X5497170Y-7045907D01*
X5497170Y-7045907D02*
X5506693Y-7055431D01*
X5506693Y-7055431D02*
X5525741Y-7064955D01*
X5525741Y-7064955D02*
X5563836Y-7064955D01*
X5563836Y-7064955D02*
X5582884Y-7055431D01*
X5582884Y-7055431D02*
X5592408Y-7045907D01*
X5592408Y-7045907D02*
X5601931Y-7026860D01*
X5601931Y-7026860D02*
X5601931Y-6979241D01*
X5601931Y-6979241D02*
X5592408Y-6960193D01*
X5592408Y-6960193D02*
X5582884Y-6950669D01*
X5582884Y-6950669D02*
X5563836Y-6941145D01*
X5563836Y-6941145D02*
X5525741Y-6941145D01*
X5525741Y-6941145D02*
X5506693Y-6950669D01*
X5506693Y-6950669D02*
X5497170Y-6960193D01*
X5497170Y-6960193D02*
X5487646Y-6979241D01*
X5668598Y-6864955D02*
X5792408Y-6864955D01*
X5792408Y-6864955D02*
X5725741Y-6941145D01*
X5725741Y-6941145D02*
X5754312Y-6941145D01*
X5754312Y-6941145D02*
X5773360Y-6950669D01*
X5773360Y-6950669D02*
X5782884Y-6960193D01*
X5782884Y-6960193D02*
X5792408Y-6979241D01*
X5792408Y-6979241D02*
X5792408Y-7026860D01*
X5792408Y-7026860D02*
X5782884Y-7045907D01*
X5782884Y-7045907D02*
X5773360Y-7055431D01*
X5773360Y-7055431D02*
X5754312Y-7064955D01*
X5754312Y-7064955D02*
X5697170Y-7064955D01*
X5697170Y-7064955D02*
X5678122Y-7055431D01*
X5678122Y-7055431D02*
X5668598Y-7045907D01*
X5916217Y-6864955D02*
X5935265Y-6864955D01*
X5935265Y-6864955D02*
X5954312Y-6874479D01*
X5954312Y-6874479D02*
X5963836Y-6884003D01*
X5963836Y-6884003D02*
X5973360Y-6903050D01*
X5973360Y-6903050D02*
X5982884Y-6941145D01*
X5982884Y-6941145D02*
X5982884Y-6988765D01*
X5982884Y-6988765D02*
X5973360Y-7026860D01*
X5973360Y-7026860D02*
X5963836Y-7045907D01*
X5963836Y-7045907D02*
X5954312Y-7055431D01*
X5954312Y-7055431D02*
X5935265Y-7064955D01*
X5935265Y-7064955D02*
X5916217Y-7064955D01*
X5916217Y-7064955D02*
X5897170Y-7055431D01*
X5897170Y-7055431D02*
X5887646Y-7045907D01*
X5887646Y-7045907D02*
X5878122Y-7026860D01*
X5878122Y-7026860D02*
X5868598Y-6988765D01*
X5868598Y-6988765D02*
X5868598Y-6941145D01*
X5868598Y-6941145D02*
X5878122Y-6903050D01*
X5878122Y-6903050D02*
X5887646Y-6884003D01*
X5887646Y-6884003D02*
X5897170Y-6874479D01*
X5897170Y-6874479D02*
X5916217Y-6864955D01*
X6059074Y-6864955D02*
X6059074Y-6903050D01*
X6135265Y-6864955D02*
X6135265Y-6903050D01*
X6430503Y-7141145D02*
X6420979Y-7131622D01*
X6420979Y-7131622D02*
X6401932Y-7103050D01*
X6401932Y-7103050D02*
X6392408Y-7084003D01*
X6392408Y-7084003D02*
X6382884Y-7055431D01*
X6382884Y-7055431D02*
X6373360Y-7007812D01*
X6373360Y-7007812D02*
X6373360Y-6969717D01*
X6373360Y-6969717D02*
X6382884Y-6922098D01*
X6382884Y-6922098D02*
X6392408Y-6893526D01*
X6392408Y-6893526D02*
X6401932Y-6874479D01*
X6401932Y-6874479D02*
X6420979Y-6845907D01*
X6420979Y-6845907D02*
X6430503Y-6836384D01*
X6497170Y-6884003D02*
X6506693Y-6874479D01*
X6506693Y-6874479D02*
X6525741Y-6864955D01*
X6525741Y-6864955D02*
X6573360Y-6864955D01*
X6573360Y-6864955D02*
X6592408Y-6874479D01*
X6592408Y-6874479D02*
X6601932Y-6884003D01*
X6601932Y-6884003D02*
X6611455Y-6903050D01*
X6611455Y-6903050D02*
X6611455Y-6922098D01*
X6611455Y-6922098D02*
X6601932Y-6950669D01*
X6601932Y-6950669D02*
X6487646Y-7064955D01*
X6487646Y-7064955D02*
X6611455Y-7064955D01*
X6849551Y-7064955D02*
X6849551Y-6864955D01*
X6935265Y-7064955D02*
X6935265Y-6960193D01*
X6935265Y-6960193D02*
X6925741Y-6941145D01*
X6925741Y-6941145D02*
X6906694Y-6931622D01*
X6906694Y-6931622D02*
X6878122Y-6931622D01*
X6878122Y-6931622D02*
X6859074Y-6941145D01*
X6859074Y-6941145D02*
X6849551Y-6950669D01*
X7059074Y-7064955D02*
X7040027Y-7055431D01*
X7040027Y-7055431D02*
X7030503Y-7045907D01*
X7030503Y-7045907D02*
X7020979Y-7026860D01*
X7020979Y-7026860D02*
X7020979Y-6969717D01*
X7020979Y-6969717D02*
X7030503Y-6950669D01*
X7030503Y-6950669D02*
X7040027Y-6941145D01*
X7040027Y-6941145D02*
X7059074Y-6931622D01*
X7059074Y-6931622D02*
X7087646Y-6931622D01*
X7087646Y-6931622D02*
X7106694Y-6941145D01*
X7106694Y-6941145D02*
X7116217Y-6950669D01*
X7116217Y-6950669D02*
X7125741Y-6969717D01*
X7125741Y-6969717D02*
X7125741Y-7026860D01*
X7125741Y-7026860D02*
X7116217Y-7045907D01*
X7116217Y-7045907D02*
X7106694Y-7055431D01*
X7106694Y-7055431D02*
X7087646Y-7064955D01*
X7087646Y-7064955D02*
X7059074Y-7064955D01*
X7240027Y-7064955D02*
X7220979Y-7055431D01*
X7220979Y-7055431D02*
X7211455Y-7036384D01*
X7211455Y-7036384D02*
X7211455Y-6864955D01*
X7392408Y-7055431D02*
X7373360Y-7064955D01*
X7373360Y-7064955D02*
X7335265Y-7064955D01*
X7335265Y-7064955D02*
X7316217Y-7055431D01*
X7316217Y-7055431D02*
X7306694Y-7036384D01*
X7306694Y-7036384D02*
X7306694Y-6960193D01*
X7306694Y-6960193D02*
X7316217Y-6941145D01*
X7316217Y-6941145D02*
X7335265Y-6931622D01*
X7335265Y-6931622D02*
X7373360Y-6931622D01*
X7373360Y-6931622D02*
X7392408Y-6941145D01*
X7392408Y-6941145D02*
X7401932Y-6960193D01*
X7401932Y-6960193D02*
X7401932Y-6979241D01*
X7401932Y-6979241D02*
X7306694Y-6998288D01*
X7478122Y-7055431D02*
X7497170Y-7064955D01*
X7497170Y-7064955D02*
X7535265Y-7064955D01*
X7535265Y-7064955D02*
X7554313Y-7055431D01*
X7554313Y-7055431D02*
X7563836Y-7036384D01*
X7563836Y-7036384D02*
X7563836Y-7026860D01*
X7563836Y-7026860D02*
X7554313Y-7007812D01*
X7554313Y-7007812D02*
X7535265Y-6998288D01*
X7535265Y-6998288D02*
X7506694Y-6998288D01*
X7506694Y-6998288D02*
X7487646Y-6988765D01*
X7487646Y-6988765D02*
X7478122Y-6969717D01*
X7478122Y-6969717D02*
X7478122Y-6960193D01*
X7478122Y-6960193D02*
X7487646Y-6941145D01*
X7487646Y-6941145D02*
X7506694Y-6931622D01*
X7506694Y-6931622D02*
X7535265Y-6931622D01*
X7535265Y-6931622D02*
X7554313Y-6941145D01*
X7630503Y-7141145D02*
X7640027Y-7131622D01*
X7640027Y-7131622D02*
X7659075Y-7103050D01*
X7659075Y-7103050D02*
X7668598Y-7084003D01*
X7668598Y-7084003D02*
X7678122Y-7055431D01*
X7678122Y-7055431D02*
X7687646Y-7007812D01*
X7687646Y-7007812D02*
X7687646Y-6969717D01*
X7687646Y-6969717D02*
X7678122Y-6922098D01*
X7678122Y-6922098D02*
X7668598Y-6893526D01*
X7668598Y-6893526D02*
X7659075Y-6874479D01*
X7659075Y-6874479D02*
X7640027Y-6845907D01*
X7640027Y-6845907D02*
X7630503Y-6836384D01*
X7992408Y-7141145D02*
X7982884Y-7131622D01*
X7982884Y-7131622D02*
X7963836Y-7103050D01*
X7963836Y-7103050D02*
X7954313Y-7084003D01*
X7954313Y-7084003D02*
X7944789Y-7055431D01*
X7944789Y-7055431D02*
X7935265Y-7007812D01*
X7935265Y-7007812D02*
X7935265Y-6969717D01*
X7935265Y-6969717D02*
X7944789Y-6922098D01*
X7944789Y-6922098D02*
X7954313Y-6893526D01*
X7954313Y-6893526D02*
X7963836Y-6874479D01*
X7963836Y-6874479D02*
X7982884Y-6845907D01*
X7982884Y-6845907D02*
X7992408Y-6836384D01*
X8068598Y-6931622D02*
X8068598Y-7064955D01*
X8068598Y-6950669D02*
X8078122Y-6941145D01*
X8078122Y-6941145D02*
X8097170Y-6931622D01*
X8097170Y-6931622D02*
X8125741Y-6931622D01*
X8125741Y-6931622D02*
X8144789Y-6941145D01*
X8144789Y-6941145D02*
X8154313Y-6960193D01*
X8154313Y-6960193D02*
X8154313Y-7064955D01*
X8278122Y-7064955D02*
X8259075Y-7055431D01*
X8259075Y-7055431D02*
X8249551Y-7045907D01*
X8249551Y-7045907D02*
X8240027Y-7026860D01*
X8240027Y-7026860D02*
X8240027Y-6969717D01*
X8240027Y-6969717D02*
X8249551Y-6950669D01*
X8249551Y-6950669D02*
X8259075Y-6941145D01*
X8259075Y-6941145D02*
X8278122Y-6931622D01*
X8278122Y-6931622D02*
X8306694Y-6931622D01*
X8306694Y-6931622D02*
X8325741Y-6941145D01*
X8325741Y-6941145D02*
X8335265Y-6950669D01*
X8335265Y-6950669D02*
X8344789Y-6969717D01*
X8344789Y-6969717D02*
X8344789Y-7026860D01*
X8344789Y-7026860D02*
X8335265Y-7045907D01*
X8335265Y-7045907D02*
X8325741Y-7055431D01*
X8325741Y-7055431D02*
X8306694Y-7064955D01*
X8306694Y-7064955D02*
X8278122Y-7064955D01*
X8401932Y-6931622D02*
X8478122Y-6931622D01*
X8430503Y-6864955D02*
X8430503Y-7036384D01*
X8430503Y-7036384D02*
X8440027Y-7055431D01*
X8440027Y-7055431D02*
X8459075Y-7064955D01*
X8459075Y-7064955D02*
X8478122Y-7064955D01*
X8697170Y-6931622D02*
X8697170Y-7131622D01*
X8697170Y-6941145D02*
X8716218Y-6931622D01*
X8716218Y-6931622D02*
X8754313Y-6931622D01*
X8754313Y-6931622D02*
X8773360Y-6941145D01*
X8773360Y-6941145D02*
X8782884Y-6950669D01*
X8782884Y-6950669D02*
X8792408Y-6969717D01*
X8792408Y-6969717D02*
X8792408Y-7026860D01*
X8792408Y-7026860D02*
X8782884Y-7045907D01*
X8782884Y-7045907D02*
X8773360Y-7055431D01*
X8773360Y-7055431D02*
X8754313Y-7064955D01*
X8754313Y-7064955D02*
X8716218Y-7064955D01*
X8716218Y-7064955D02*
X8697170Y-7055431D01*
X8906694Y-7064955D02*
X8887646Y-7055431D01*
X8887646Y-7055431D02*
X8878122Y-7036384D01*
X8878122Y-7036384D02*
X8878122Y-6864955D01*
X9068599Y-7064955D02*
X9068599Y-6960193D01*
X9068599Y-6960193D02*
X9059075Y-6941145D01*
X9059075Y-6941145D02*
X9040027Y-6931622D01*
X9040027Y-6931622D02*
X9001932Y-6931622D01*
X9001932Y-6931622D02*
X8982884Y-6941145D01*
X9068599Y-7055431D02*
X9049551Y-7064955D01*
X9049551Y-7064955D02*
X9001932Y-7064955D01*
X9001932Y-7064955D02*
X8982884Y-7055431D01*
X8982884Y-7055431D02*
X8973360Y-7036384D01*
X8973360Y-7036384D02*
X8973360Y-7017336D01*
X8973360Y-7017336D02*
X8982884Y-6998288D01*
X8982884Y-6998288D02*
X9001932Y-6988765D01*
X9001932Y-6988765D02*
X9049551Y-6988765D01*
X9049551Y-6988765D02*
X9068599Y-6979241D01*
X9135265Y-6931622D02*
X9211456Y-6931622D01*
X9163837Y-6864955D02*
X9163837Y-7036384D01*
X9163837Y-7036384D02*
X9173360Y-7055431D01*
X9173360Y-7055431D02*
X9192408Y-7064955D01*
X9192408Y-7064955D02*
X9211456Y-7064955D01*
X9354313Y-7055431D02*
X9335265Y-7064955D01*
X9335265Y-7064955D02*
X9297170Y-7064955D01*
X9297170Y-7064955D02*
X9278122Y-7055431D01*
X9278122Y-7055431D02*
X9268599Y-7036384D01*
X9268599Y-7036384D02*
X9268599Y-6960193D01*
X9268599Y-6960193D02*
X9278122Y-6941145D01*
X9278122Y-6941145D02*
X9297170Y-6931622D01*
X9297170Y-6931622D02*
X9335265Y-6931622D01*
X9335265Y-6931622D02*
X9354313Y-6941145D01*
X9354313Y-6941145D02*
X9363837Y-6960193D01*
X9363837Y-6960193D02*
X9363837Y-6979241D01*
X9363837Y-6979241D02*
X9268599Y-6998288D01*
X9535265Y-7064955D02*
X9535265Y-6864955D01*
X9535265Y-7055431D02*
X9516218Y-7064955D01*
X9516218Y-7064955D02*
X9478122Y-7064955D01*
X9478122Y-7064955D02*
X9459075Y-7055431D01*
X9459075Y-7055431D02*
X9449551Y-7045907D01*
X9449551Y-7045907D02*
X9440027Y-7026860D01*
X9440027Y-7026860D02*
X9440027Y-6969717D01*
X9440027Y-6969717D02*
X9449551Y-6950669D01*
X9449551Y-6950669D02*
X9459075Y-6941145D01*
X9459075Y-6941145D02*
X9478122Y-6931622D01*
X9478122Y-6931622D02*
X9516218Y-6931622D01*
X9516218Y-6931622D02*
X9535265Y-6941145D01*
X9611456Y-7141145D02*
X9620980Y-7131622D01*
X9620980Y-7131622D02*
X9640027Y-7103050D01*
X9640027Y-7103050D02*
X9649551Y-7084003D01*
X9649551Y-7084003D02*
X9659075Y-7055431D01*
X9659075Y-7055431D02*
X9668599Y-7007812D01*
X9668599Y-7007812D02*
X9668599Y-6969717D01*
X9668599Y-6969717D02*
X9659075Y-6922098D01*
X9659075Y-6922098D02*
X9649551Y-6893526D01*
X9649551Y-6893526D02*
X9640027Y-6874479D01*
X9640027Y-6874479D02*
X9620980Y-6845907D01*
X9620980Y-6845907D02*
X9611456Y-6836384D01*
M02*
