M48
; DRILL file {KiCad 8.0.2} date 2025-05-18T13:49:08-0700
; FORMAT={-:-/ absolute / inch / decimal}
; #@! TF.CreationDate,2025-05-18T13:49:08-07:00
; #@! TF.GenerationSoftware,Kicad,Pcbnew,8.0.2
; #@! TF.FileFunction,Plated,1,2,PTH
FMAT,2
INCH
; #@! TA.AperFunction,Plated,PTH,ViaDrill
T1C0.0118
; #@! TA.AperFunction,Plated,PTH,ComponentDrill
T2C0.0354
; #@! TA.AperFunction,Plated,PTH,ComponentDrill
T3C0.0394
; #@! TA.AperFunction,Plated,PTH,ComponentDrill
T4C0.0472
%
G90
G05
T1
X1.3011Y-1.6178
X1.3152Y-1.4791
X1.3205Y-1.5866
X1.4793Y-1.6398
X1.5157Y-1.6211
X1.6555Y-2.0886
X1.6602Y-1.889
X1.7035Y-1.7204
X1.7175Y-1.5571
X1.7539Y-2.0797
X1.7598Y-1.8902
X1.7608Y-2.2992
X1.7904Y-2.3238
X1.7923Y-2.2913
X1.8159Y-2.3494
X2.0287Y-1.4886
X2.0287Y-1.6031
X2.1398Y-2.3533
X2.1781Y-2.2923
X2.2815Y-1.562
X2.2972Y-2.1762
X2.3317Y-2.2254
X2.3646Y-1.7224
X2.4301Y-2.2116
X2.4616Y-1.6594
X2.4774Y-1.7854
T2
X1.6171Y-1.7797
X1.6171Y-2.0356
X1.7943Y-1.7797
X1.7943Y-2.0356
T3
X1.9183Y-2.2502
X2.0167Y-2.2502
X2.1152Y-2.2502
X2.3593Y-1.8093
X2.3593Y-1.9077
X2.3593Y-2.0061
T4
X1.8199Y-1.6587
X1.8199Y-2.1567
X2.2136Y-1.6587
X2.2136Y-2.1567
M30
