%TF.GenerationSoftware,KiCad,Pcbnew,8.0.2*%
%TF.CreationDate,2025-05-18T13:49:05-07:00*%
%TF.ProjectId,PGS_Stick_Board,5047535f-5374-4696-936b-5f426f617264,rev?*%
%TF.SameCoordinates,Original*%
%TF.FileFunction,Legend,Top*%
%TF.FilePolarity,Positive*%
%FSLAX46Y46*%
G04 Gerber Fmt 4.6, Leading zero omitted, Abs format (unit mm)*
G04 Created by KiCad (PCBNEW 8.0.2) date 2025-05-18 13:49:05*
%MOMM*%
%LPD*%
G01*
G04 APERTURE LIST*
%ADD10C,0.100000*%
%ADD11C,0.120000*%
G04 APERTURE END LIST*
D10*
X60477637Y-53357404D02*
X60528145Y-53071194D01*
X60275607Y-53155374D02*
X60629160Y-52801820D01*
X60629160Y-52801820D02*
X60763847Y-52936507D01*
X60763847Y-52936507D02*
X60780683Y-52987015D01*
X60780683Y-52987015D02*
X60780683Y-53020687D01*
X60780683Y-53020687D02*
X60763847Y-53071194D01*
X60763847Y-53071194D02*
X60713339Y-53121702D01*
X60713339Y-53121702D02*
X60662832Y-53138538D01*
X60662832Y-53138538D02*
X60629160Y-53138538D01*
X60629160Y-53138538D02*
X60578652Y-53121702D01*
X60578652Y-53121702D02*
X60443965Y-52987015D01*
X61151072Y-53357404D02*
X61134236Y-53306897D01*
X61134236Y-53306897D02*
X61083729Y-53256389D01*
X61083729Y-53256389D02*
X61016385Y-53222717D01*
X61016385Y-53222717D02*
X60949042Y-53222717D01*
X60949042Y-53222717D02*
X60898534Y-53239553D01*
X60898534Y-53239553D02*
X60814355Y-53290061D01*
X60814355Y-53290061D02*
X60763847Y-53340568D01*
X60763847Y-53340568D02*
X60713339Y-53424748D01*
X60713339Y-53424748D02*
X60696504Y-53475255D01*
X60696504Y-53475255D02*
X60696504Y-53542599D01*
X60696504Y-53542599D02*
X60730175Y-53609942D01*
X60730175Y-53609942D02*
X60763847Y-53643614D01*
X60763847Y-53643614D02*
X60831191Y-53677286D01*
X60831191Y-53677286D02*
X60864862Y-53677286D01*
X60864862Y-53677286D02*
X60982713Y-53559435D01*
X60982713Y-53559435D02*
X60915370Y-53492091D01*
X61285759Y-53795137D02*
X61319431Y-53862481D01*
X61319431Y-53862481D02*
X61319431Y-53896152D01*
X61319431Y-53896152D02*
X61302595Y-53946660D01*
X61302595Y-53946660D02*
X61252087Y-53997168D01*
X61252087Y-53997168D02*
X61201580Y-54014003D01*
X61201580Y-54014003D02*
X61167908Y-54014003D01*
X61167908Y-54014003D02*
X61117400Y-53997168D01*
X61117400Y-53997168D02*
X60982713Y-53862481D01*
X60982713Y-53862481D02*
X61336267Y-53508927D01*
X61336267Y-53508927D02*
X61454118Y-53626778D01*
X61454118Y-53626778D02*
X61470954Y-53677286D01*
X61470954Y-53677286D02*
X61470954Y-53710958D01*
X61470954Y-53710958D02*
X61454118Y-53761465D01*
X61454118Y-53761465D02*
X61420446Y-53795137D01*
X61420446Y-53795137D02*
X61369939Y-53811973D01*
X61369939Y-53811973D02*
X61336267Y-53811973D01*
X61336267Y-53811973D02*
X61285759Y-53795137D01*
X61285759Y-53795137D02*
X61167908Y-53677286D01*
X61639313Y-53879316D02*
X61672984Y-53879316D01*
X61672984Y-53879316D02*
X61723492Y-53896152D01*
X61723492Y-53896152D02*
X61807671Y-53980332D01*
X61807671Y-53980332D02*
X61824507Y-54030839D01*
X61824507Y-54030839D02*
X61824507Y-54064511D01*
X61824507Y-54064511D02*
X61807671Y-54115019D01*
X61807671Y-54115019D02*
X61774000Y-54148690D01*
X61774000Y-54148690D02*
X61706656Y-54182362D01*
X61706656Y-54182362D02*
X61302595Y-54182362D01*
X61302595Y-54182362D02*
X61521461Y-54401229D01*
X41197404Y-41232362D02*
X40911194Y-41181854D01*
X40995374Y-41434392D02*
X40641820Y-41080839D01*
X40641820Y-41080839D02*
X40776507Y-40946152D01*
X40776507Y-40946152D02*
X40827015Y-40929316D01*
X40827015Y-40929316D02*
X40860687Y-40929316D01*
X40860687Y-40929316D02*
X40911194Y-40946152D01*
X40911194Y-40946152D02*
X40961702Y-40996660D01*
X40961702Y-40996660D02*
X40978538Y-41047167D01*
X40978538Y-41047167D02*
X40978538Y-41080839D01*
X40978538Y-41080839D02*
X40961702Y-41131347D01*
X40961702Y-41131347D02*
X40827015Y-41266034D01*
X41197404Y-40558927D02*
X41146897Y-40575763D01*
X41146897Y-40575763D02*
X41096389Y-40626270D01*
X41096389Y-40626270D02*
X41062717Y-40693614D01*
X41062717Y-40693614D02*
X41062717Y-40760957D01*
X41062717Y-40760957D02*
X41079553Y-40811465D01*
X41079553Y-40811465D02*
X41130061Y-40895644D01*
X41130061Y-40895644D02*
X41180568Y-40946152D01*
X41180568Y-40946152D02*
X41264748Y-40996660D01*
X41264748Y-40996660D02*
X41315255Y-41013495D01*
X41315255Y-41013495D02*
X41382599Y-41013495D01*
X41382599Y-41013495D02*
X41449942Y-40979824D01*
X41449942Y-40979824D02*
X41483614Y-40946152D01*
X41483614Y-40946152D02*
X41517286Y-40878808D01*
X41517286Y-40878808D02*
X41517286Y-40845137D01*
X41517286Y-40845137D02*
X41399435Y-40727286D01*
X41399435Y-40727286D02*
X41332091Y-40794629D01*
X41635137Y-40424240D02*
X41702481Y-40390568D01*
X41702481Y-40390568D02*
X41736152Y-40390568D01*
X41736152Y-40390568D02*
X41786660Y-40407404D01*
X41786660Y-40407404D02*
X41837168Y-40457912D01*
X41837168Y-40457912D02*
X41854003Y-40508419D01*
X41854003Y-40508419D02*
X41854003Y-40542091D01*
X41854003Y-40542091D02*
X41837168Y-40592599D01*
X41837168Y-40592599D02*
X41702481Y-40727286D01*
X41702481Y-40727286D02*
X41348927Y-40373732D01*
X41348927Y-40373732D02*
X41466778Y-40255881D01*
X41466778Y-40255881D02*
X41517286Y-40239045D01*
X41517286Y-40239045D02*
X41550958Y-40239045D01*
X41550958Y-40239045D02*
X41601465Y-40255881D01*
X41601465Y-40255881D02*
X41635137Y-40289553D01*
X41635137Y-40289553D02*
X41651973Y-40340060D01*
X41651973Y-40340060D02*
X41651973Y-40373732D01*
X41651973Y-40373732D02*
X41635137Y-40424240D01*
X41635137Y-40424240D02*
X41517286Y-40542091D01*
X41971855Y-39986507D02*
X42207557Y-40222209D01*
X41752988Y-39935999D02*
X41921347Y-40272717D01*
X41921347Y-40272717D02*
X42140213Y-40053851D01*
X62816666Y-46476109D02*
X62650000Y-46238014D01*
X62530952Y-46476109D02*
X62530952Y-45976109D01*
X62530952Y-45976109D02*
X62721428Y-45976109D01*
X62721428Y-45976109D02*
X62769047Y-45999919D01*
X62769047Y-45999919D02*
X62792857Y-46023728D01*
X62792857Y-46023728D02*
X62816666Y-46071347D01*
X62816666Y-46071347D02*
X62816666Y-46142776D01*
X62816666Y-46142776D02*
X62792857Y-46190395D01*
X62792857Y-46190395D02*
X62769047Y-46214204D01*
X62769047Y-46214204D02*
X62721428Y-46238014D01*
X62721428Y-46238014D02*
X62530952Y-46238014D01*
X63292857Y-46476109D02*
X63007143Y-46476109D01*
X63150000Y-46476109D02*
X63150000Y-45976109D01*
X63150000Y-45976109D02*
X63102381Y-46047538D01*
X63102381Y-46047538D02*
X63054762Y-46095157D01*
X63054762Y-46095157D02*
X63007143Y-46118966D01*
X60487637Y-40357404D02*
X60538145Y-40071194D01*
X60285607Y-40155374D02*
X60639160Y-39801820D01*
X60639160Y-39801820D02*
X60773847Y-39936507D01*
X60773847Y-39936507D02*
X60790683Y-39987015D01*
X60790683Y-39987015D02*
X60790683Y-40020687D01*
X60790683Y-40020687D02*
X60773847Y-40071194D01*
X60773847Y-40071194D02*
X60723339Y-40121702D01*
X60723339Y-40121702D02*
X60672832Y-40138538D01*
X60672832Y-40138538D02*
X60639160Y-40138538D01*
X60639160Y-40138538D02*
X60588652Y-40121702D01*
X60588652Y-40121702D02*
X60453965Y-39987015D01*
X61161072Y-40357404D02*
X61144236Y-40306897D01*
X61144236Y-40306897D02*
X61093729Y-40256389D01*
X61093729Y-40256389D02*
X61026385Y-40222717D01*
X61026385Y-40222717D02*
X60959042Y-40222717D01*
X60959042Y-40222717D02*
X60908534Y-40239553D01*
X60908534Y-40239553D02*
X60824355Y-40290061D01*
X60824355Y-40290061D02*
X60773847Y-40340568D01*
X60773847Y-40340568D02*
X60723339Y-40424748D01*
X60723339Y-40424748D02*
X60706504Y-40475255D01*
X60706504Y-40475255D02*
X60706504Y-40542599D01*
X60706504Y-40542599D02*
X60740175Y-40609942D01*
X60740175Y-40609942D02*
X60773847Y-40643614D01*
X60773847Y-40643614D02*
X60841191Y-40677286D01*
X60841191Y-40677286D02*
X60874862Y-40677286D01*
X60874862Y-40677286D02*
X60992713Y-40559435D01*
X60992713Y-40559435D02*
X60925370Y-40492091D01*
X61295759Y-40795137D02*
X61329431Y-40862481D01*
X61329431Y-40862481D02*
X61329431Y-40896152D01*
X61329431Y-40896152D02*
X61312595Y-40946660D01*
X61312595Y-40946660D02*
X61262087Y-40997168D01*
X61262087Y-40997168D02*
X61211580Y-41014003D01*
X61211580Y-41014003D02*
X61177908Y-41014003D01*
X61177908Y-41014003D02*
X61127400Y-40997168D01*
X61127400Y-40997168D02*
X60992713Y-40862481D01*
X60992713Y-40862481D02*
X61346267Y-40508927D01*
X61346267Y-40508927D02*
X61464118Y-40626778D01*
X61464118Y-40626778D02*
X61480954Y-40677286D01*
X61480954Y-40677286D02*
X61480954Y-40710958D01*
X61480954Y-40710958D02*
X61464118Y-40761465D01*
X61464118Y-40761465D02*
X61430446Y-40795137D01*
X61430446Y-40795137D02*
X61379939Y-40811973D01*
X61379939Y-40811973D02*
X61346267Y-40811973D01*
X61346267Y-40811973D02*
X61295759Y-40795137D01*
X61295759Y-40795137D02*
X61177908Y-40677286D01*
X61531461Y-41401229D02*
X61329431Y-41199198D01*
X61430446Y-41300213D02*
X61784000Y-40946660D01*
X61784000Y-40946660D02*
X61699820Y-40963496D01*
X61699820Y-40963496D02*
X61632477Y-40963496D01*
X61632477Y-40963496D02*
X61581969Y-40946660D01*
X48166666Y-60303490D02*
X48142857Y-60327300D01*
X48142857Y-60327300D02*
X48071428Y-60351109D01*
X48071428Y-60351109D02*
X48023809Y-60351109D01*
X48023809Y-60351109D02*
X47952381Y-60327300D01*
X47952381Y-60327300D02*
X47904762Y-60279680D01*
X47904762Y-60279680D02*
X47880952Y-60232061D01*
X47880952Y-60232061D02*
X47857143Y-60136823D01*
X47857143Y-60136823D02*
X47857143Y-60065395D01*
X47857143Y-60065395D02*
X47880952Y-59970157D01*
X47880952Y-59970157D02*
X47904762Y-59922538D01*
X47904762Y-59922538D02*
X47952381Y-59874919D01*
X47952381Y-59874919D02*
X48023809Y-59851109D01*
X48023809Y-59851109D02*
X48071428Y-59851109D01*
X48071428Y-59851109D02*
X48142857Y-59874919D01*
X48142857Y-59874919D02*
X48166666Y-59898728D01*
X48357143Y-59898728D02*
X48380952Y-59874919D01*
X48380952Y-59874919D02*
X48428571Y-59851109D01*
X48428571Y-59851109D02*
X48547619Y-59851109D01*
X48547619Y-59851109D02*
X48595238Y-59874919D01*
X48595238Y-59874919D02*
X48619047Y-59898728D01*
X48619047Y-59898728D02*
X48642857Y-59946347D01*
X48642857Y-59946347D02*
X48642857Y-59993966D01*
X48642857Y-59993966D02*
X48619047Y-60065395D01*
X48619047Y-60065395D02*
X48333333Y-60351109D01*
X48333333Y-60351109D02*
X48642857Y-60351109D01*
X29558333Y-39376109D02*
X29558333Y-39733252D01*
X29558333Y-39733252D02*
X29534524Y-39804680D01*
X29534524Y-39804680D02*
X29486905Y-39852300D01*
X29486905Y-39852300D02*
X29415476Y-39876109D01*
X29415476Y-39876109D02*
X29367857Y-39876109D01*
X30058333Y-39876109D02*
X29772619Y-39876109D01*
X29915476Y-39876109D02*
X29915476Y-39376109D01*
X29915476Y-39376109D02*
X29867857Y-39447538D01*
X29867857Y-39447538D02*
X29820238Y-39495157D01*
X29820238Y-39495157D02*
X29772619Y-39518966D01*
X63078490Y-51358333D02*
X63102300Y-51382142D01*
X63102300Y-51382142D02*
X63126109Y-51453571D01*
X63126109Y-51453571D02*
X63126109Y-51501190D01*
X63126109Y-51501190D02*
X63102300Y-51572618D01*
X63102300Y-51572618D02*
X63054680Y-51620237D01*
X63054680Y-51620237D02*
X63007061Y-51644047D01*
X63007061Y-51644047D02*
X62911823Y-51667856D01*
X62911823Y-51667856D02*
X62840395Y-51667856D01*
X62840395Y-51667856D02*
X62745157Y-51644047D01*
X62745157Y-51644047D02*
X62697538Y-51620237D01*
X62697538Y-51620237D02*
X62649919Y-51572618D01*
X62649919Y-51572618D02*
X62626109Y-51501190D01*
X62626109Y-51501190D02*
X62626109Y-51453571D01*
X62626109Y-51453571D02*
X62649919Y-51382142D01*
X62649919Y-51382142D02*
X62673728Y-51358333D01*
X63126109Y-50882142D02*
X63126109Y-51167856D01*
X63126109Y-51024999D02*
X62626109Y-51024999D01*
X62626109Y-51024999D02*
X62697538Y-51072618D01*
X62697538Y-51072618D02*
X62745157Y-51120237D01*
X62745157Y-51120237D02*
X62768966Y-51167856D01*
X53626109Y-60213333D02*
X53388014Y-60379999D01*
X53626109Y-60499047D02*
X53126109Y-60499047D01*
X53126109Y-60499047D02*
X53126109Y-60308571D01*
X53126109Y-60308571D02*
X53149919Y-60260952D01*
X53149919Y-60260952D02*
X53173728Y-60237142D01*
X53173728Y-60237142D02*
X53221347Y-60213333D01*
X53221347Y-60213333D02*
X53292776Y-60213333D01*
X53292776Y-60213333D02*
X53340395Y-60237142D01*
X53340395Y-60237142D02*
X53364204Y-60260952D01*
X53364204Y-60260952D02*
X53388014Y-60308571D01*
X53388014Y-60308571D02*
X53388014Y-60499047D01*
X53173728Y-60022856D02*
X53149919Y-59999047D01*
X53149919Y-59999047D02*
X53126109Y-59951428D01*
X53126109Y-59951428D02*
X53126109Y-59832380D01*
X53126109Y-59832380D02*
X53149919Y-59784761D01*
X53149919Y-59784761D02*
X53173728Y-59760952D01*
X53173728Y-59760952D02*
X53221347Y-59737142D01*
X53221347Y-59737142D02*
X53268966Y-59737142D01*
X53268966Y-59737142D02*
X53340395Y-59760952D01*
X53340395Y-59760952D02*
X53626109Y-60046666D01*
X53626109Y-60046666D02*
X53626109Y-59737142D01*
X43797404Y-56932362D02*
X43511194Y-56881854D01*
X43595374Y-57134392D02*
X43241820Y-56780839D01*
X43241820Y-56780839D02*
X43376507Y-56646152D01*
X43376507Y-56646152D02*
X43427015Y-56629316D01*
X43427015Y-56629316D02*
X43460687Y-56629316D01*
X43460687Y-56629316D02*
X43511194Y-56646152D01*
X43511194Y-56646152D02*
X43561702Y-56696660D01*
X43561702Y-56696660D02*
X43578538Y-56747167D01*
X43578538Y-56747167D02*
X43578538Y-56780839D01*
X43578538Y-56780839D02*
X43561702Y-56831347D01*
X43561702Y-56831347D02*
X43427015Y-56966034D01*
X43797404Y-56258927D02*
X43746897Y-56275763D01*
X43746897Y-56275763D02*
X43696389Y-56326270D01*
X43696389Y-56326270D02*
X43662717Y-56393614D01*
X43662717Y-56393614D02*
X43662717Y-56460957D01*
X43662717Y-56460957D02*
X43679553Y-56511465D01*
X43679553Y-56511465D02*
X43730061Y-56595644D01*
X43730061Y-56595644D02*
X43780568Y-56646152D01*
X43780568Y-56646152D02*
X43864748Y-56696660D01*
X43864748Y-56696660D02*
X43915255Y-56713495D01*
X43915255Y-56713495D02*
X43982599Y-56713495D01*
X43982599Y-56713495D02*
X44049942Y-56679824D01*
X44049942Y-56679824D02*
X44083614Y-56646152D01*
X44083614Y-56646152D02*
X44117286Y-56578808D01*
X44117286Y-56578808D02*
X44117286Y-56545137D01*
X44117286Y-56545137D02*
X43999435Y-56427286D01*
X43999435Y-56427286D02*
X43932091Y-56494629D01*
X44235137Y-56124240D02*
X44302481Y-56090568D01*
X44302481Y-56090568D02*
X44336152Y-56090568D01*
X44336152Y-56090568D02*
X44386660Y-56107404D01*
X44386660Y-56107404D02*
X44437168Y-56157912D01*
X44437168Y-56157912D02*
X44454003Y-56208419D01*
X44454003Y-56208419D02*
X44454003Y-56242091D01*
X44454003Y-56242091D02*
X44437168Y-56292599D01*
X44437168Y-56292599D02*
X44302481Y-56427286D01*
X44302481Y-56427286D02*
X43948927Y-56073732D01*
X43948927Y-56073732D02*
X44066778Y-55955881D01*
X44066778Y-55955881D02*
X44117286Y-55939045D01*
X44117286Y-55939045D02*
X44150958Y-55939045D01*
X44150958Y-55939045D02*
X44201465Y-55955881D01*
X44201465Y-55955881D02*
X44235137Y-55989553D01*
X44235137Y-55989553D02*
X44251973Y-56040060D01*
X44251973Y-56040060D02*
X44251973Y-56073732D01*
X44251973Y-56073732D02*
X44235137Y-56124240D01*
X44235137Y-56124240D02*
X44117286Y-56242091D01*
X44268809Y-55753851D02*
X44487675Y-55534984D01*
X44487675Y-55534984D02*
X44504511Y-55787522D01*
X44504511Y-55787522D02*
X44555019Y-55737015D01*
X44555019Y-55737015D02*
X44605526Y-55720179D01*
X44605526Y-55720179D02*
X44639198Y-55720179D01*
X44639198Y-55720179D02*
X44689706Y-55737015D01*
X44689706Y-55737015D02*
X44773885Y-55821194D01*
X44773885Y-55821194D02*
X44790721Y-55871702D01*
X44790721Y-55871702D02*
X44790721Y-55905373D01*
X44790721Y-55905373D02*
X44773885Y-55955881D01*
X44773885Y-55955881D02*
X44672870Y-56056896D01*
X44672870Y-56056896D02*
X44622362Y-56073732D01*
X44622362Y-56073732D02*
X44588690Y-56073732D01*
X55483334Y-57527300D02*
X55554762Y-57551109D01*
X55554762Y-57551109D02*
X55673810Y-57551109D01*
X55673810Y-57551109D02*
X55721429Y-57527300D01*
X55721429Y-57527300D02*
X55745238Y-57503490D01*
X55745238Y-57503490D02*
X55769048Y-57455871D01*
X55769048Y-57455871D02*
X55769048Y-57408252D01*
X55769048Y-57408252D02*
X55745238Y-57360633D01*
X55745238Y-57360633D02*
X55721429Y-57336823D01*
X55721429Y-57336823D02*
X55673810Y-57313014D01*
X55673810Y-57313014D02*
X55578572Y-57289204D01*
X55578572Y-57289204D02*
X55530953Y-57265395D01*
X55530953Y-57265395D02*
X55507143Y-57241585D01*
X55507143Y-57241585D02*
X55483334Y-57193966D01*
X55483334Y-57193966D02*
X55483334Y-57146347D01*
X55483334Y-57146347D02*
X55507143Y-57098728D01*
X55507143Y-57098728D02*
X55530953Y-57074919D01*
X55530953Y-57074919D02*
X55578572Y-57051109D01*
X55578572Y-57051109D02*
X55697619Y-57051109D01*
X55697619Y-57051109D02*
X55769048Y-57074919D01*
X55935714Y-57051109D02*
X56054762Y-57551109D01*
X56054762Y-57551109D02*
X56150000Y-57193966D01*
X56150000Y-57193966D02*
X56245238Y-57551109D01*
X56245238Y-57551109D02*
X56364286Y-57051109D01*
X56816667Y-57551109D02*
X56530953Y-57551109D01*
X56673810Y-57551109D02*
X56673810Y-57051109D01*
X56673810Y-57051109D02*
X56626191Y-57122538D01*
X56626191Y-57122538D02*
X56578572Y-57170157D01*
X56578572Y-57170157D02*
X56530953Y-57193966D01*
D11*
%TO.C,RGB2*%
X58725000Y-53955329D02*
X60725000Y-53955329D01*
X58725000Y-55955329D02*
X58725000Y-53955329D01*
X60725000Y-53955329D02*
X60725000Y-55955329D01*
X60725000Y-55955329D02*
X58725000Y-55955329D01*
X58352734Y-56479329D02*
G75*
G02*
X58049266Y-56479329I-151734J0D01*
G01*
X58049266Y-56479329D02*
G75*
G02*
X58352734Y-56479329I151734J0D01*
G01*
%TO.C,RGB4*%
X41725000Y-40955329D02*
X43725000Y-40955329D01*
X41725000Y-42955329D02*
X41725000Y-40955329D01*
X43725000Y-40955329D02*
X43725000Y-42955329D01*
X43725000Y-42955329D02*
X41725000Y-42955329D01*
X41352734Y-43479329D02*
G75*
G02*
X41049266Y-43479329I-151734J0D01*
G01*
X41049266Y-43479329D02*
G75*
G02*
X41352734Y-43479329I151734J0D01*
G01*
%TO.C,RGB1*%
X58725000Y-40955329D02*
X60725000Y-40955329D01*
X58725000Y-42955329D02*
X58725000Y-40955329D01*
X60725000Y-40955329D02*
X60725000Y-42955329D01*
X60725000Y-42955329D02*
X58725000Y-42955329D01*
X58352734Y-43479329D02*
G75*
G02*
X58049266Y-43479329I-151734J0D01*
G01*
X58049266Y-43479329D02*
G75*
G02*
X58352734Y-43479329I151734J0D01*
G01*
%TO.C,C2*%
X50284420Y-59620329D02*
X50565580Y-59620329D01*
X50284420Y-60640329D02*
X50565580Y-60640329D01*
D10*
%TO.C,J1*%
X29300000Y-38900000D02*
X29300000Y-37500000D01*
X30100000Y-33700000D02*
X30100000Y-35050000D01*
X30100000Y-35050000D02*
X29300000Y-35050000D01*
X31150000Y-38900000D02*
X29300000Y-38900000D01*
X36150000Y-39000000D02*
X38000000Y-38999999D01*
X37200000Y-33700000D02*
X30100000Y-33700000D01*
X37200000Y-35050000D02*
X37200000Y-33700000D01*
X38000000Y-35050000D02*
X37200000Y-35050000D01*
X38000000Y-38999999D02*
X38000000Y-37500000D01*
D11*
%TO.C,C1*%
X62390000Y-49395910D02*
X62390000Y-49114748D01*
X63410000Y-49395910D02*
X63410000Y-49114748D01*
%TO.C,RGB3*%
X41725000Y-53955329D02*
X43725000Y-53955329D01*
X41725000Y-55955329D02*
X41725000Y-53955329D01*
X43725000Y-53955329D02*
X43725000Y-55955329D01*
X43725000Y-55955329D02*
X41725000Y-55955329D01*
X41352734Y-56479329D02*
G75*
G02*
X41049266Y-56479329I-151734J0D01*
G01*
X41049266Y-56479329D02*
G75*
G02*
X41352734Y-56479329I151734J0D01*
G01*
%TD*%
M02*
