ISO-10303-21;
HEADER;
/* Generated by software containing ST-Developer
 * from STEP Tools, Inc. (www.steptools.com) 
 */

FILE_DESCRIPTION(
/* description */ (''),
/* implementation_level */ '2;1');

FILE_NAME(
/* name */ 'GripSilicone.step',
/* time_stamp */ '2025-10-09T15:08:16-07:00',
/* author */ (''),
/* organization */ (''),
/* preprocessor_version */ 'ST-DEVELOPER v20.1',
/* originating_system */ 'Autodesk Translation Framework v14.17.0.0',
/* authorisation */ '');

FILE_SCHEMA (('AUTOMOTIVE_DESIGN { 1 0 10303 214 3 1 1 }'));
ENDSEC;

DATA;
#10=MECHANICAL_DESIGN_GEOMETRIC_PRESENTATION_REPRESENTATION('',(#13),#251);
#11=SHAPE_REPRESENTATION_RELATIONSHIP('SRR','None',#258,#12);
#12=ADVANCED_BREP_SHAPE_REPRESENTATION('',(#14),#250);
#13=STYLED_ITEM('',(#268),#14);
#14=MANIFOLD_SOLID_BREP('Body1',#134);
#15=FACE_BOUND('',#36,.T.);
#16=FACE_BOUND('',#42,.T.);
#17=PLANE('',#153);
#18=PLANE('',#157);
#19=PLANE('',#165);
#20=PLANE('',#166);
#21=FACE_OUTER_BOUND('',#31,.T.);
#22=FACE_OUTER_BOUND('',#32,.T.);
#23=FACE_OUTER_BOUND('',#33,.T.);
#24=FACE_OUTER_BOUND('',#34,.T.);
#25=FACE_OUTER_BOUND('',#35,.T.);
#26=FACE_OUTER_BOUND('',#37,.T.);
#27=FACE_OUTER_BOUND('',#38,.T.);
#28=FACE_OUTER_BOUND('',#39,.T.);
#29=FACE_OUTER_BOUND('',#40,.T.);
#30=FACE_OUTER_BOUND('',#41,.T.);
#31=EDGE_LOOP('',(#88,#89,#90,#91));
#32=EDGE_LOOP('',(#92,#93,#94,#95));
#33=EDGE_LOOP('',(#96));
#34=EDGE_LOOP('',(#97,#98,#99,#100));
#35=EDGE_LOOP('',(#101));
#36=EDGE_LOOP('',(#102));
#37=EDGE_LOOP('',(#103,#104,#105,#106));
#38=EDGE_LOOP('',(#107,#108,#109,#110));
#39=EDGE_LOOP('',(#111,#112,#113,#114));
#40=EDGE_LOOP('',(#115));
#41=EDGE_LOOP('',(#116));
#42=EDGE_LOOP('',(#117));
#43=LINE('',#218,#49);
#44=LINE('',#222,#50);
#45=LINE('',#229,#51);
#46=LINE('',#235,#52);
#47=LINE('',#240,#53);
#48=LINE('',#244,#54);
#49=VECTOR('',#173,3.00872487351038);
#50=VECTOR('',#178,3.25);
#51=VECTOR('',#187,2.74401222895813);
#52=VECTOR('',#196,3.);
#53=VECTOR('',#201,1.32101670996788);
#54=VECTOR('',#206,1.5);
#55=CIRCLE('',#149,3.26744974702075);
#56=CIRCLE('',#150,2.75);
#57=CIRCLE('',#152,3.32158757612596);
#58=CIRCLE('',#155,2.6422669883144);
#59=CIRCLE('',#156,2.84575746960186);
#60=CIRCLE('',#159,2.62830240467364);
#61=CIRCLE('',#161,1.4227619506116);
#62=CIRCLE('',#162,1.21927146932415);
#63=CIRCLE('',#164,1.4716366641088);
#64=VERTEX_POINT('',#215);
#65=VERTEX_POINT('',#217);
#66=VERTEX_POINT('',#221);
#67=VERTEX_POINT('',#226);
#68=VERTEX_POINT('',#228);
#69=VERTEX_POINT('',#233);
#70=VERTEX_POINT('',#237);
#71=VERTEX_POINT('',#239);
#72=VERTEX_POINT('',#243);
#73=EDGE_CURVE('',#64,#64,#55,.T.);
#74=EDGE_CURVE('',#64,#65,#43,.T.);
#75=EDGE_CURVE('',#65,#65,#56,.T.);
#76=EDGE_CURVE('',#64,#66,#44,.T.);
#77=EDGE_CURVE('',#66,#66,#57,.F.);
#78=EDGE_CURVE('',#67,#67,#58,.T.);
#79=EDGE_CURVE('',#67,#68,#45,.T.);
#80=EDGE_CURVE('',#68,#68,#59,.T.);
#81=EDGE_CURVE('',#69,#69,#60,.F.);
#82=EDGE_CURVE('',#69,#67,#46,.T.);
#83=EDGE_CURVE('',#70,#70,#61,.T.);
#84=EDGE_CURVE('',#70,#71,#47,.T.);
#85=EDGE_CURVE('',#71,#71,#62,.T.);
#86=EDGE_CURVE('',#70,#72,#48,.T.);
#87=EDGE_CURVE('',#72,#72,#63,.F.);
#88=ORIENTED_EDGE('',*,*,#73,.T.);
#89=ORIENTED_EDGE('',*,*,#74,.T.);
#90=ORIENTED_EDGE('',*,*,#75,.T.);
#91=ORIENTED_EDGE('',*,*,#74,.F.);
#92=ORIENTED_EDGE('',*,*,#73,.F.);
#93=ORIENTED_EDGE('',*,*,#76,.T.);
#94=ORIENTED_EDGE('',*,*,#77,.T.);
#95=ORIENTED_EDGE('',*,*,#76,.F.);
#96=ORIENTED_EDGE('',*,*,#75,.F.);
#97=ORIENTED_EDGE('',*,*,#78,.T.);
#98=ORIENTED_EDGE('',*,*,#79,.T.);
#99=ORIENTED_EDGE('',*,*,#80,.T.);
#100=ORIENTED_EDGE('',*,*,#79,.F.);
#101=ORIENTED_EDGE('',*,*,#77,.F.);
#102=ORIENTED_EDGE('',*,*,#80,.F.);
#103=ORIENTED_EDGE('',*,*,#81,.T.);
#104=ORIENTED_EDGE('',*,*,#82,.T.);
#105=ORIENTED_EDGE('',*,*,#78,.F.);
#106=ORIENTED_EDGE('',*,*,#82,.F.);
#107=ORIENTED_EDGE('',*,*,#83,.T.);
#108=ORIENTED_EDGE('',*,*,#84,.T.);
#109=ORIENTED_EDGE('',*,*,#85,.T.);
#110=ORIENTED_EDGE('',*,*,#84,.F.);
#111=ORIENTED_EDGE('',*,*,#83,.F.);
#112=ORIENTED_EDGE('',*,*,#86,.T.);
#113=ORIENTED_EDGE('',*,*,#87,.F.);
#114=ORIENTED_EDGE('',*,*,#86,.F.);
#115=ORIENTED_EDGE('',*,*,#85,.F.);
#116=ORIENTED_EDGE('',*,*,#81,.F.);
#117=ORIENTED_EDGE('',*,*,#87,.T.);
#118=CONICAL_SURFACE('',#148,3.00872487351038,0.802851454586077);
#119=CONICAL_SURFACE('',#151,3.25,0.0349065850398866);
#120=CONICAL_SURFACE('',#154,2.74401222895813,0.794124809657436);
#121=CONICAL_SURFACE('',#158,2.65005330669526,0.0174532925199433);
#122=CONICAL_SURFACE('',#160,1.32101670996788,0.794124809657393);
#123=CONICAL_SURFACE('',#163,1.45000761524218,0.0174532925199433);
#124=ADVANCED_FACE('',(#21),#118,.T.);
#125=ADVANCED_FACE('',(#22),#119,.T.);
#126=ADVANCED_FACE('',(#23),#17,.T.);
#127=ADVANCED_FACE('',(#24),#120,.F.);
#128=ADVANCED_FACE('',(#25,#15),#18,.F.);
#129=ADVANCED_FACE('',(#26),#121,.F.);
#130=ADVANCED_FACE('',(#27),#122,.T.);
#131=ADVANCED_FACE('',(#28),#123,.T.);
#132=ADVANCED_FACE('',(#29),#19,.F.);
#133=ADVANCED_FACE('',(#30,#16),#20,.T.);
#134=CLOSED_SHELL('',(#124,#125,#126,#127,#128,#129,#130,#131,#132,#133));
#135=DERIVED_UNIT_ELEMENT(#137,1.);
#136=DERIVED_UNIT_ELEMENT(#253,-3.);
#137=(
MASS_UNIT()
NAMED_UNIT(*)
SI_UNIT(.KILO.,.GRAM.)
);
#138=DERIVED_UNIT((#135,#136));
#139=MEASURE_REPRESENTATION_ITEM('density measure',
POSITIVE_RATIO_MEASURE(7850.),#138);
#140=PROPERTY_DEFINITION_REPRESENTATION(#145,#142);
#141=PROPERTY_DEFINITION_REPRESENTATION(#146,#143);
#142=REPRESENTATION('material name',(#144),#250);
#143=REPRESENTATION('density',(#139),#250);
#144=DESCRIPTIVE_REPRESENTATION_ITEM('Steel','Steel');
#145=PROPERTY_DEFINITION('material property','material name',#260);
#146=PROPERTY_DEFINITION('material property','density of part',#260);
#147=AXIS2_PLACEMENT_3D('',#213,#167,#168);
#148=AXIS2_PLACEMENT_3D('',#214,#169,#170);
#149=AXIS2_PLACEMENT_3D('',#216,#171,#172);
#150=AXIS2_PLACEMENT_3D('',#219,#174,#175);
#151=AXIS2_PLACEMENT_3D('',#220,#176,#177);
#152=AXIS2_PLACEMENT_3D('',#223,#179,#180);
#153=AXIS2_PLACEMENT_3D('',#224,#181,#182);
#154=AXIS2_PLACEMENT_3D('',#225,#183,#184);
#155=AXIS2_PLACEMENT_3D('',#227,#185,#186);
#156=AXIS2_PLACEMENT_3D('',#230,#188,#189);
#157=AXIS2_PLACEMENT_3D('',#231,#190,#191);
#158=AXIS2_PLACEMENT_3D('',#232,#192,#193);
#159=AXIS2_PLACEMENT_3D('',#234,#194,#195);
#160=AXIS2_PLACEMENT_3D('',#236,#197,#198);
#161=AXIS2_PLACEMENT_3D('',#238,#199,#200);
#162=AXIS2_PLACEMENT_3D('',#241,#202,#203);
#163=AXIS2_PLACEMENT_3D('',#242,#204,#205);
#164=AXIS2_PLACEMENT_3D('',#245,#207,#208);
#165=AXIS2_PLACEMENT_3D('',#246,#209,#210);
#166=AXIS2_PLACEMENT_3D('',#247,#211,#212);
#167=DIRECTION('axis',(0.,0.,1.));
#168=DIRECTION('refdir',(1.,0.,0.));
#169=DIRECTION('center_axis',(0.,0.,-1.));
#170=DIRECTION('ref_axis',(-1.,0.,0.));
#171=DIRECTION('center_axis',(0.,0.,1.));
#172=DIRECTION('ref_axis',(-1.,0.,0.));
#173=DIRECTION('',(-0.719339799413842,8.80937182851461E-17,0.694658371416665));
#174=DIRECTION('center_axis',(0.,0.,-1.));
#175=DIRECTION('ref_axis',(-1.,0.,0.));
#176=DIRECTION('center_axis',(0.,0.,-1.));
#177=DIRECTION('ref_axis',(-1.,0.,0.));
#178=DIRECTION('',(0.034899496702501,4.27395569285714E-18,-0.999390827019096));
#179=DIRECTION('center_axis',(0.,0.,-1.));
#180=DIRECTION('ref_axis',(-1.,0.,0.));
#181=DIRECTION('center_axis',(0.,0.,1.));
#182=DIRECTION('ref_axis',(-1.,0.,0.));
#183=DIRECTION('center_axis',(0.,0.,-1.));
#184=DIRECTION('ref_axis',(1.,-1.04236259983216E-33,0.));
#185=DIRECTION('center_axis',(0.,2.10089107106736E-16,1.));
#186=DIRECTION('ref_axis',(1.,0.,0.));
#187=DIRECTION('',(-0.713250449154193,-8.73479879547094E-17,-0.70090926429984));
#188=DIRECTION('center_axis',(0.,0.,-1.));
#189=DIRECTION('ref_axis',(1.,-2.01018937945418E-33,0.));
#190=DIRECTION('center_axis',(0.,0.,1.));
#191=DIRECTION('ref_axis',(-1.,0.,0.));
#192=DIRECTION('center_axis',(0.,0.,-1.));
#193=DIRECTION('ref_axis',(1.,-2.01018937945418E-33,0.));
#194=DIRECTION('center_axis',(0.,0.,-1.));
#195=DIRECTION('ref_axis',(1.,-2.01018937945418E-33,0.));
#196=DIRECTION('',(-0.0174524064372835,-2.13730336808379E-18,-0.999847695156391));
#197=DIRECTION('center_axis',(0.,0.,1.));
#198=DIRECTION('ref_axis',(1.,-9.27681890703148E-34,0.));
#199=DIRECTION('center_axis',(0.,0.,-1.));
#200=DIRECTION('ref_axis',(1.,0.,0.));
#201=DIRECTION('',(0.713250449154163,8.73479879547057E-17,-0.70090926429987));
#202=DIRECTION('center_axis',(0.,0.,1.));
#203=DIRECTION('ref_axis',(1.,-2.01018937945418E-33,0.));
#204=DIRECTION('center_axis',(0.,0.,1.));
#205=DIRECTION('ref_axis',(1.,-2.01018937945418E-33,0.));
#206=DIRECTION('',(-0.0174524064372835,-2.13730336808379E-18,0.999847695156391));
#207=DIRECTION('center_axis',(0.,0.,-1.));
#208=DIRECTION('ref_axis',(1.,-2.01018937945418E-33,0.));
#209=DIRECTION('center_axis',(0.,0.,1.));
#210=DIRECTION('ref_axis',(-1.,0.,0.));
#211=DIRECTION('center_axis',(0.,0.,-1.));
#212=DIRECTION('ref_axis',(-1.,0.,0.));
#213=CARTESIAN_POINT('',(0.,0.,0.));
#214=CARTESIAN_POINT('Origin',(43.877775,-25.117067,-2.959847706778));
#215=CARTESIAN_POINT('',(47.1452247470207,-25.117067,-3.20969541355601));
#216=CARTESIAN_POINT('Origin',(43.877775,-25.117067,-3.20969541355601));
#217=CARTESIAN_POINT('',(46.627775,-25.117067,-2.71));
#218=CARTESIAN_POINT('',(46.8864998735104,-25.117067,-2.959847706778));
#219=CARTESIAN_POINT('Origin',(43.877775,-25.117067,-2.71));
#220=CARTESIAN_POINT('Origin',(43.877775,-25.117067,-2.71000003814697));
#221=CARTESIAN_POINT('',(47.1993625761259,-25.117067,-4.76));
#222=CARTESIAN_POINT('',(47.127775,-25.117067,-2.71000003814697));
#223=CARTESIAN_POINT('Origin',(43.877775,-25.117067,-4.76));
#224=CARTESIAN_POINT('Origin',(43.877775,-25.117067,-2.71));
#225=CARTESIAN_POINT('Origin',(43.877775,-25.117067,-4.66001523048436));
#226=CARTESIAN_POINT('',(41.2355080116856,-25.117067,-4.56003046096872));
#227=CARTESIAN_POINT('Origin',(43.877775,-25.117067,-4.56003046096872));
#228=CARTESIAN_POINT('',(41.0320175303981,-25.117067,-4.76));
#229=CARTESIAN_POINT('',(41.1337627710419,-25.117067,-4.66001523048436));
#230=CARTESIAN_POINT('Origin',(43.877775,-25.117067,-4.76));
#231=CARTESIAN_POINT('Origin',(43.877775,-25.117067,-4.76));
#232=CARTESIAN_POINT('Origin',(43.877775,-25.117067,-5.00610834225305));
#233=CARTESIAN_POINT('',(41.2494725953263,-25.117067,-3.76));
#234=CARTESIAN_POINT('Origin',(43.877775,-25.117067,-3.76));
#235=CARTESIAN_POINT('',(41.2277216933047,-25.117067,-5.00610834225305));
#236=CARTESIAN_POINT('Origin',(43.877775,-25.117067,-6.66001523048436));
#237=CARTESIAN_POINT('',(42.4550130493884,-25.117067,-6.56003046096872));
#238=CARTESIAN_POINT('Origin',(43.877775,-25.117067,-6.56003046096872));
#239=CARTESIAN_POINT('',(42.6585035306758,-25.117067,-6.76));
#240=CARTESIAN_POINT('',(42.5567582900321,-25.117067,-6.66001523048436));
#241=CARTESIAN_POINT('Origin',(43.877775,-25.117067,-6.76));
#242=CARTESIAN_POINT('Origin',(43.877775,-25.117067,-4.99912737967814));
#243=CARTESIAN_POINT('',(42.4061383358912,-25.117067,-3.76));
#244=CARTESIAN_POINT('',(42.4277673847578,-25.117067,-4.99912737967814));
#245=CARTESIAN_POINT('Origin',(43.877775,-25.117067,-3.76));
#246=CARTESIAN_POINT('Origin',(43.877775,-25.117067,-6.76));
#247=CARTESIAN_POINT('Origin',(43.877775,-25.117067,-3.76));
#248=UNCERTAINTY_MEASURE_WITH_UNIT(LENGTH_MEASURE(0.01),#252,
'DISTANCE_ACCURACY_VALUE',
'Maximum model space distance between geometric entities at asserted c
onnectivities');
#249=UNCERTAINTY_MEASURE_WITH_UNIT(LENGTH_MEASURE(0.01),#252,
'DISTANCE_ACCURACY_VALUE',
'Maximum model space distance between geometric entities at asserted c
onnectivities');
#250=(
GEOMETRIC_REPRESENTATION_CONTEXT(3)
GLOBAL_UNCERTAINTY_ASSIGNED_CONTEXT((#248))
GLOBAL_UNIT_ASSIGNED_CONTEXT((#252,#254,#255))
REPRESENTATION_CONTEXT('','3D')
);
#251=(
GEOMETRIC_REPRESENTATION_CONTEXT(3)
GLOBAL_UNCERTAINTY_ASSIGNED_CONTEXT((#249))
GLOBAL_UNIT_ASSIGNED_CONTEXT((#252,#254,#255))
REPRESENTATION_CONTEXT('','3D')
);
#252=(
LENGTH_UNIT()
NAMED_UNIT(*)
SI_UNIT(.MILLI.,.METRE.)
);
#253=(
LENGTH_UNIT()
NAMED_UNIT(*)
SI_UNIT($,.METRE.)
);
#254=(
NAMED_UNIT(*)
PLANE_ANGLE_UNIT()
SI_UNIT($,.RADIAN.)
);
#255=(
NAMED_UNIT(*)
SI_UNIT($,.STERADIAN.)
SOLID_ANGLE_UNIT()
);
#256=SHAPE_DEFINITION_REPRESENTATION(#257,#258);
#257=PRODUCT_DEFINITION_SHAPE('',$,#260);
#258=SHAPE_REPRESENTATION('',(#147),#250);
#259=PRODUCT_DEFINITION_CONTEXT('part definition',#264,'design');
#260=PRODUCT_DEFINITION('GripSilicone','GripSilicone',#261,#259);
#261=PRODUCT_DEFINITION_FORMATION('',$,#266);
#262=PRODUCT_RELATED_PRODUCT_CATEGORY('GripSilicone','GripSilicone',(#266));
#263=APPLICATION_PROTOCOL_DEFINITION('international standard',
'automotive_design',2009,#264);
#264=APPLICATION_CONTEXT(
'Core Data for Automotive Mechanical Design Process');
#265=PRODUCT_CONTEXT('part definition',#264,'mechanical');
#266=PRODUCT('GripSilicone','GripSilicone',$,(#265));
#267=PRESENTATION_STYLE_ASSIGNMENT((#269));
#268=PRESENTATION_STYLE_ASSIGNMENT((#270));
#269=SURFACE_STYLE_USAGE(.BOTH.,#271);
#270=SURFACE_STYLE_USAGE(.BOTH.,#272);
#271=SURFACE_SIDE_STYLE('',(#273));
#272=SURFACE_SIDE_STYLE('',(#274));
#273=SURFACE_STYLE_FILL_AREA(#275);
#274=SURFACE_STYLE_FILL_AREA(#276);
#275=FILL_AREA_STYLE('Steel - Satin',(#277));
#276=FILL_AREA_STYLE('Silicone (White)',(#278));
#277=FILL_AREA_STYLE_COLOUR('Steel - Satin',#279);
#278=FILL_AREA_STYLE_COLOUR('Silicone (White)',#280);
#279=COLOUR_RGB('Steel - Satin',0.627450980392157,0.627450980392157,0.627450980392157);
#280=COLOUR_RGB('Silicone (White)',0.87843137254902,0.87843137254902,0.87843137254902);
ENDSEC;
END-ISO-10303-21;
