                                                                        S      1
,,12HGripSilicone,12HGripSilicone,7Hunknown,7Hunknown,32,38,7,99,15,,1.,G      1
2,2HMM,1,0.08,15H20251009.150808,0.01,10000.,7Hunknown,7Hunknown,11,0,; G      2
     186       1                                                00000000D      1
     186            -105       1       0                               0D      2
     514       2                                                00010000D      3
     514                       1       1                               0D      4
     510       3                                                00010000D      5
     510            -105       1       1                               0D      6
     510       4                                                00010000D      7
     510            -105       1       1                               0D      8
     510       5                                                00010000D      9
     510            -105       1       1                               0D     10
     510       6                                                00010000D     11
     510            -105       1       1                               0D     12
     510       7                                                00010000D     13
     510            -105       1       1                               0D     14
     510       8                                                00010000D     15
     510            -105       1       1                               0D     16
     510       9                                                00010000D     17
     510            -105       1       1                               0D     18
     510      10                                                00010000D     19
     510            -105       1       1                               0D     20
     510      11                                                00010000D     21
     510            -105       1       1                               0D     22
     510      12                                                00010000D     23
     510            -105       1       1                               0D     24
     508      13                                                00010000D     25
     508                       1       1                               0D     26
     508      14                                                00010000D     27
     508                       1       1                               0D     28
     508      15                                                00010000D     29
     508                       1       1                               0D     30
     508      16                                                00010000D     31
     508                       1       1                               0D     32
     508      17                                                00010000D     33
     508                       1       1                               0D     34
     508      18                                                00010000D     35
     508                       1       1                               0D     36
     508      19                                                00010000D     37
     508                       1       1                               0D     38
     508      20                                                00010000D     39
     508                       1       1                               0D     40
     508      21                                                00010000D     41
     508                       1       1                               0D     42
     508      22                                                00010000D     43
     508                       1       1                               0D     44
     508      23                                                00010000D     45
     508                       1       1                               0D     46
     508      24                                                00010000D     47
     508                       1       1                               0D     48
     126      25                                                00010000D     49
     126       0              13       0                               0D     50
     126      38                                                00010000D     51
     126       0               4       0                               0D     52
     126      42                                                00010000D     53
     126       0              10       0                               0D     54
     126      52                                                00010000D     55
     126       0               4       0                               0D     56
     126      56                                                00010000D     57
     126       0              12       0                               0D     58
     126      68                                                00010000D     59
     126       0              13       0                               0D     60
     126      81                                                00010000D     61
     126       0               4       0                               0D     62
     126      85                                                00010000D     63
     126       0              12       0                               0D     64
     126      97                                                00010000D     65
     126       0              12       0                               0D     66
     126     109                                                00010000D     67
     126       0               4       0                               0D     68
     126     113                                                00010000D     69
     126       0              13       0                               0D     70
     126     126                                                00010000D     71
     126       0               4       0                               0D     72
     126     130                                                00010000D     73
     126       0              12       0                               0D     74
     126     142                                                00010000D     75
     126       0               4       0                               0D     76
     126     146                                                00010000D     77
     126       0              12       0                               0D     78
     128     158                                                00010000D     79
     128       0    -105      21       0                               0D     80
     128     179                                                00010000D     81
     128       0    -105      23       0                               0D     82
     128     202                                                00010000D     83
     128       0    -105       4       0                               0D     84
     128     206                                                00010000D     85
     128       0    -105      23       0                               0D     86
     128     229                                                00010000D     87
     128       0    -105       7       0                               0D     88
     128     236                                                00010000D     89
     128       0    -105      23       0                               0D     90
     128     259                                                00010000D     91
     128       0    -105      23       0                               0D     92
     128     282                                                00010000D     93
     128       0    -105      23       0                               0D     94
     128     305                                                00010000D     95
     128       0    -105       8       0                               0D     96
     128     313                                                00010000D     97
     128       0    -105       8       0                               0D     98
     502     321                                                00010000D     99
     502                       6       1                               0D    100
     504     327                                                00010001D    101
     504                       4       1                               0D    102
     406     331                                                00000000D    103
     406                       1      15                               0D    104
     314     332                                                00000200D    105
     314                       2       0                               0D    106
     314     334                                                00000200D    107
     314                       2       0                               0D    108
186,3,1,0,0,1,103;                                                     1P      1
514,10,5,1,7,1,9,1,11,1,13,1,15,1,17,1,19,1,21,1,23,1;                 3P      2
510,79,1,1,25;                                                         5P      3
510,81,1,1,27;                                                         7P      4
510,83,1,1,29;                                                         9P      5
510,85,1,1,31;                                                        11P      6
510,87,2,1,33,35;                                                     13P      7
510,89,1,1,37;                                                        15P      8
510,91,1,1,39;                                                        17P      9
510,93,1,1,41;                                                        19P     10
510,95,1,1,43;                                                        21P     11
510,97,2,1,45,47;                                                     23P     12
508,4,0,101,1,1,0,0,101,2,1,0,0,101,3,1,0,0,101,2,0,0;                25P     13
508,4,0,101,1,0,0,0,101,4,1,0,0,101,5,1,0,0,101,4,0,0;                27P     14
508,1,0,101,3,0,0;                                                    29P     15
508,4,0,101,6,1,0,0,101,7,1,0,0,101,8,1,0,0,101,7,0,0;                31P     16
508,1,0,101,5,0,0;                                                    33P     17
508,1,0,101,8,0,0;                                                    35P     18
508,4,0,101,9,1,0,0,101,10,1,0,0,101,6,0,0,0,101,10,0,0;              37P     19
508,4,0,101,11,1,0,0,101,12,1,0,0,101,13,1,0,0,101,12,0,0;            39P     20
508,4,0,101,11,0,0,0,101,14,1,0,0,101,15,0,0,0,101,14,0,0;            41P     21
508,1,0,101,13,0,0;                                                   43P     22
508,1,0,101,9,0,0;                                                    45P     23
508,1,0,101,15,1,0;                                                   47P     24
126,8,2,0,1,0,0,-3.14159265358979,-3.14159265358979,                  49P     25
-3.14159265358979,-1.5707963267949,-1.5707963267949,0.,0.,            49P     26
1.5707963267949,1.5707963267949,3.14159265358979,                     49P     27
3.14159265358979,3.14159265358979,1.,0.707106781186545,1.,            49P     28
0.707106781186545,1.,0.707106781186545,1.,0.707106781186545,1.,       49P     29
47.1452247470207,-25.117067,-3.20969541355601,47.1452247470207,       49P     30
-21.8496172529793,-3.20969541355601,43.877775,-21.8496172529793,      49P     31
-3.20969541355601,40.6103252529792,-21.8496172529793,                 49P     32
-3.20969541355601,40.6103252529792,-25.117067,-3.20969541355601,      49P     33
40.6103252529792,-28.3845167470208,-3.20969541355601,43.877775,       49P     34
-28.3845167470208,-3.20969541355601,47.1452247470207,                 49P     35
-28.3845167470208,-3.20969541355601,47.1452247470207,-25.117067,      49P     36
-3.20969541355601,-3.14159265358979,3.14159265358979,0.,0.,0.;        49P     37
126,1,1,0,0,1,0,-0.119542302745443,-0.119542302745443,                51P     38
0.119542302745443,0.119542302745443,1.,1.,47.1452247470207,           51P     39
-25.117067,-3.20969541355601,46.627775,-25.117067,-2.71,              51P     40
-0.119542302745443,0.119542302745443,0.,0.,0.;                        51P     41
126,8,2,0,1,0,0,-3.14159265358979,-3.14159265358979,                  53P     42
-3.14159265358979,-1.5707963267949,-1.5707963267949,0.,0.,            53P     43
1.5707963267949,1.5707963267949,3.14159265358979,                     53P     44
3.14159265358979,3.14159265358979,1.,0.707106781186553,1.,            53P     45
0.707106781186553,1.,0.707106781186553,1.,0.707106781186553,1.,       53P     46
46.627775,-25.117067,-2.71,46.627775,-27.867067,-2.71,43.877775,      53P     47
-27.867067,-2.71,41.127775,-27.867067,-2.71,41.127775,                53P     48
-25.117067,-2.71,41.127775,-22.367067,-2.71,43.877775,                53P     49
-22.367067,-2.71,46.627775,-22.367067,-2.71,46.627775,                53P     50
-25.117067,-2.71,-3.14159265358979,3.14159265358979,0.,0.,0.;         53P     51
126,1,1,0,0,1,0,0.153846142115774,0.153846142115774,                  55P     52
0.631153700813033,0.631153700813033,1.,1.,47.1452247470207,           55P     53
-25.117067,-3.20969541355601,47.1993625761259,-25.117067,-4.76,       55P     54
0.153846142115774,0.631153700813033,0.,0.,0.;                         55P     55
126,8,2,0,1,0,0,-3.14159265358979,-3.14159265358979,                  57P     56
-3.14159265358979,-1.5707963267949,-1.5707963267949,0.,0.,            57P     57
1.5707963267949,1.5707963267949,3.14159265358979,                     57P     58
3.14159265358979,3.14159265358979,1.,0.707106781186548,1.,            57P     59
0.707106781186548,1.,0.707106781186548,1.,0.707106781186548,1.,       57P     60
47.1993625761259,-25.117067,-4.76,47.1993625761259,                   57P     61
-21.7954794238741,-4.76,43.877775,-21.7954794238741,-4.76,            57P     62
40.556187423874,-21.7954794238741,-4.76,40.556187423874,              57P     63
-25.117067,-4.76,40.556187423874,-28.438654576126,-4.76,              57P     64
43.877775,-28.438654576126,-4.76,47.1993625761259,                    57P     65
-28.438654576126,-4.76,47.1993625761259,-25.117067,-4.76,             57P     66
-3.14159265358979,3.14159265358979,0.,0.,0.;                          57P     67
126,8,2,0,1,0,0,-3.14159265358979,-3.14159265358979,                  59P     68
-3.14159265358979,-1.5707963267949,-1.5707963267949,0.,0.,            59P     69
1.5707963267949,1.5707963267949,3.14159265358979,                     59P     70
3.14159265358979,3.14159265358979,1.,0.707106781186546,1.,            59P     71
0.707106781186546,1.,0.707106781186546,1.,0.707106781186546,1.,       59P     72
41.2355080116856,-25.117067,-4.56003046096872,41.2355080116856,       59P     73
-27.7593339883144,-4.56003046096872,43.877775,-27.7593339883144,      59P     74
-4.56003046096872,46.5200419883144,-27.7593339883144,                 59P     75
-4.56003046096872,46.5200419883144,-25.117067,-4.56003046096872,      59P     76
46.5200419883144,-22.4748000116856,-4.56003046096872,43.877775,       59P     77
-22.4748000116856,-4.56003046096872,41.2355080116856,                 59P     78
-22.4748000116856,-4.56003046096872,41.2355080116856,-25.117067,      59P     79
-4.56003046096872,-3.14159265358979,3.14159265358979,0.,0.,0.;        59P     80
126,1,1,0,0,1,0,-0.0519859526591844,-0.0519859526591844,              61P     81
0.0519859526591847,0.0519859526591847,1.,1.,41.2355080116856,         61P     82
-25.117067,-4.56003046096872,41.0320175303981,-25.117067,-4.76,       61P     83
-0.0519859526591844,0.0519859526591847,0.,0.,0.;                      61P     84
126,8,2,0,1,0,0,-3.14159265358979,-3.14159265358979,                  63P     85
-3.14159265358979,-1.5707963267949,-1.5707963267949,0.,0.,            63P     86
1.5707963267949,1.5707963267949,3.14159265358979,                     63P     87
3.14159265358979,3.14159265358979,1.,0.707106781186541,1.,            63P     88
0.707106781186541,1.,0.707106781186541,1.,0.707106781186541,1.,       63P     89
41.0320175303981,-25.117067,-4.76,41.0320175303981,                   63P     90
-22.2713095303982,-4.76,43.877775,-22.2713095303982,-4.76,            63P     91
46.7235324696018,-22.2713095303982,-4.76,46.7235324696018,            63P     92
-25.117067,-4.76,46.7235324696018,-27.9628244696019,-4.76,            63P     93
43.877775,-27.9628244696019,-4.76,41.0320175303981,                   63P     94
-27.9628244696019,-4.76,41.0320175303981,-25.117067,-4.76,            63P     95
-3.14159265358979,3.14159265358979,0.,0.,0.;                          63P     96
126,8,2,0,1,0,0,-3.14159265358979,-3.14159265358979,                  65P     97
-3.14159265358979,-1.5707963267949,-1.5707963267949,0.,0.,            65P     98
1.5707963267949,1.5707963267949,3.14159265358979,                     65P     99
3.14159265358979,3.14159265358979,1.,0.707106781186546,1.,            65P    100
0.707106781186546,1.,0.707106781186546,1.,0.707106781186546,1.,       65P    101
41.2494725953263,-25.117067,-3.76,41.2494725953263,                   65P    102
-27.7453694046737,-3.76,43.877775,-27.7453694046737,-3.76,            65P    103
46.5060774046736,-27.7453694046737,-3.76,46.5060774046736,            65P    104
-25.117067,-3.76,46.5060774046736,-22.4887645953264,-3.76,            65P    105
43.877775,-22.4887645953264,-3.76,41.2494725953263,                   65P    106
-22.4887645953264,-3.76,41.2494725953263,-25.117067,-3.76,            65P    107
-3.14159265358979,3.14159265358979,0.,0.,0.;                          65P    108
126,1,1,0,0,1,0,-0.415432719833108,-0.415432719833108,                67P    109
-0.148715277151805,-0.148715277151805,1.,1.,41.2494725953264,         67P    110
-25.117067,-3.76,41.2355080116856,-25.117067,-4.56003046096872,       67P    111
-0.415432719833108,-0.148715277151805,0.,0.,0.;                       67P    112
126,8,2,0,1,0,0,-3.14159265358979,-3.14159265358979,                  69P    113
-3.14159265358979,-1.5707963267949,-1.5707963267949,0.,0.,            69P    114
1.5707963267949,1.5707963267949,3.14159265358979,                     69P    115
3.14159265358979,3.14159265358979,1.,0.707106781186539,1.,            69P    116
0.707106781186539,1.,0.707106781186539,1.,0.707106781186539,1.,       69P    117
42.4550130493884,-25.117067,-6.56003046096872,42.4550130493884,       69P    118
-23.6943050493884,-6.56003046096872,43.877775,-23.6943050493884,      69P    119
-6.56003046096872,45.3005369506116,-23.6943050493884,                 69P    120
-6.56003046096872,45.3005369506116,-25.117067,-6.56003046096872,      69P    121
45.3005369506116,-26.5398289506116,-6.56003046096872,43.877775,       69P    122
-26.5398289506116,-6.56003046096872,42.4550130493884,                 69P    123
-26.5398289506116,-6.56003046096872,42.4550130493884,-25.117067,      69P    124
-6.56003046096872,-3.14159265358979,3.14159265358979,0.,0.,0.;        69P    125
126,1,1,0,0,1,0,-0.107985076005816,-0.107985076005816,                71P    126
0.107985076005817,0.107985076005817,1.,1.,42.4550130493884,           71P    127
-25.117067,-6.56003046096872,42.6585035306758,-25.117067,-6.76,       71P    128
-0.107985076005816,0.107985076005817,0.,0.,0.;                        71P    129
126,8,2,0,1,0,0,-3.14159265358979,-3.14159265358979,                  73P    130
-3.14159265358979,-1.5707963267949,-1.5707963267949,0.,0.,            73P    131
1.5707963267949,1.5707963267949,3.14159265358979,                     73P    132
3.14159265358979,3.14159265358979,1.,0.707106781186543,1.,            73P    133
0.707106781186543,1.,0.707106781186543,1.,0.707106781186543,1.,       73P    134
42.6585035306758,-25.117067,-6.76,42.6585035306758,                   73P    135
-26.3363384693242,-6.76,43.877775,-26.3363384693242,-6.76,            73P    136
45.0970464693241,-26.3363384693242,-6.76,45.0970464693241,            73P    137
-25.117067,-6.76,45.0970464693241,-23.8977955306759,-6.76,            73P    138
43.877775,-23.8977955306759,-6.76,42.6585035306758,                   73P    139
-23.8977955306759,-6.76,42.6585035306758,-25.117067,-6.76,            73P    140
-3.14159265358979,3.14159265358979,0.,0.,0.;                          73P    141
126,1,1,0,0,1,0,-1.04076056706912,-1.04076056706912,                  75P    142
0.826210755685355,0.826210755685355,1.,1.,42.4550130493884,           75P    143
-25.117067,-6.56003046096872,42.4061383358912,-25.117067,-3.76,       75P    144
-1.04076056706912,0.826210755685355,0.,0.,0.;                         75P    145
126,8,2,0,1,0,0,-3.14159265358979,-3.14159265358979,                  77P    146
-3.14159265358979,-1.5707963267949,-1.5707963267949,0.,0.,            77P    147
1.5707963267949,1.5707963267949,3.14159265358979,                     77P    148
3.14159265358979,3.14159265358979,1.,0.707106781186548,1.,            77P    149
0.707106781186548,1.,0.707106781186548,1.,0.707106781186548,1.,       77P    150
42.4061383358912,-25.117067,-3.76,42.4061383358912,                   77P    151
-26.5887036641088,-3.76,43.877775,-26.5887036641088,-3.76,            77P    152
45.3494116641088,-26.5887036641088,-3.76,45.3494116641088,            77P    153
-25.117067,-3.76,45.3494116641088,-23.6454303358912,-3.76,            77P    154
43.877775,-23.6454303358912,-3.76,42.4061383358912,                   77P    155
-23.6454303358912,-3.76,42.4061383358912,-25.117067,-3.76,            77P    156
-3.14159265358979,3.14159265358979,0.,0.,0.;                          77P    157
128,1,8,1,2,0,1,0,0,1,-0.119542302745443,-0.119542302745443,          79P    158
0.119542302745443,0.119542302745443,-3.14159265358979,                79P    159
-3.14159265358979,-3.14159265358979,-1.5707963267949,                 79P    160
-1.5707963267949,0.,0.,1.5707963267949,1.5707963267949,               79P    161
3.14159265358979,3.14159265358979,3.14159265358979,1.,1.,             79P    162
0.707106781186548,0.707106781186548,1.,1.,0.707106781186548,          79P    163
0.707106781186548,1.,1.,0.707106781186548,0.707106781186548,1.,       79P    164
1.,0.707106781186548,0.707106781186548,1.,1.,47.1452247470207,        79P    165
-25.117067,-3.20969541355601,46.627775,-25.117067,-2.71,              79P    166
47.1452247470207,-28.3845167470208,-3.20969541355601,46.627775,       79P    167
-27.867067,-2.71,43.877775,-28.3845167470208,-3.20969541355601,       79P    168
43.877775,-27.867067,-2.71,40.6103252529792,-28.3845167470208,        79P    169
-3.20969541355601,41.127775,-27.867067,-2.71,40.6103252529792,        79P    170
-25.117067,-3.20969541355601,41.127775,-25.117067,-2.71,              79P    171
40.6103252529792,-21.8496172529793,-3.20969541355601,41.127775,       79P    172
-22.367067,-2.71,43.877775,-21.8496172529793,-3.20969541355601,       79P    173
43.877775,-22.367067,-2.71,47.1452247470207,-21.8496172529793,        79P    174
-3.20969541355601,46.627775,-22.367067,-2.71,47.1452247470207,        79P    175
-25.117067,-3.20969541355601,46.627775,-25.117067,-2.71,              79P    176
-0.119542302745443,0.119542302745443,-3.14159265358979,               79P    177
3.14159265358979;                                                     79P    178
128,1,8,1,2,0,1,0,0,1,-0.631153700813033,-0.631153700813033,          81P    179
-0.153846142115774,-0.153846142115774,-3.14159265358979,              81P    180
-3.14159265358979,-3.14159265358979,-1.5707963267949,                 81P    181
-1.5707963267949,0.,0.,1.5707963267949,1.5707963267949,               81P    182
3.14159265358979,3.14159265358979,3.14159265358979,1.,1.,             81P    183
0.707106781186548,0.707106781186548,1.,1.,0.707106781186548,          81P    184
0.707106781186548,1.,1.,0.707106781186548,0.707106781186548,1.,       81P    185
1.,0.707106781186548,0.707106781186548,1.,1.,47.1452247470207,        81P    186
-25.117067,-3.20969541355601,47.1993625761259,-25.117067,-4.76,       81P    187
47.1452247470207,-21.8496172529793,-3.20969541355601,                 81P    188
47.1993625761259,-21.7954794238741,-4.76,43.877775,                   81P    189
-21.8496172529793,-3.20969541355601,43.877775,-21.7954794238741,      81P    190
-4.76,40.6103252529792,-21.8496172529793,-3.20969541355601,           81P    191
40.556187423874,-21.7954794238741,-4.76,40.6103252529792,             81P    192
-25.117067,-3.20969541355601,40.556187423874,-25.117067,-4.76,        81P    193
40.6103252529792,-28.3845167470208,-3.20969541355601,                 81P    194
40.556187423874,-28.438654576126,-4.76,43.877775,                     81P    195
-28.3845167470208,-3.20969541355601,43.877775,-28.438654576126,       81P    196
-4.76,47.1452247470207,-28.3845167470208,-3.20969541355601,           81P    197
47.1993625761259,-28.438654576126,-4.76,47.1452247470207,             81P    198
-25.117067,-3.20969541355601,47.1993625761259,-25.117067,-4.76,       81P    199
-0.631153700813033,-0.153846142115774,-3.14159265358979,              81P    200
3.14159265358979;                                                     81P    201
128,1,1,1,1,0,0,1,0,0,-0.276,-0.276,0.276,0.276,-0.276,-0.276,        83P    202
0.276,0.276,1.,1.,1.,1.,46.637775,-22.357067,-2.71,41.117775,         83P    203
-22.357067,-2.71,46.637775,-27.877067,-2.71,41.117775,                83P    204
-27.877067,-2.71,-0.276,0.276,-0.276,0.276;                           83P    205
128,1,8,1,2,0,1,0,0,1,-0.0519859526591847,-0.0519859526591847,        85P    206
0.0519859526591844,0.0519859526591844,-3.14159265358979,              85P    207
-3.14159265358979,-3.14159265358979,-1.5707963267949,                 85P    208
-1.5707963267949,0.,0.,1.5707963267949,1.5707963267949,               85P    209
3.14159265358979,3.14159265358979,3.14159265358979,1.,1.,             85P    210
0.707106781186548,0.707106781186548,1.,1.,0.707106781186548,          85P    211
0.707106781186548,1.,1.,0.707106781186548,0.707106781186548,1.,       85P    212
1.,0.707106781186548,0.707106781186548,1.,1.,41.0320175303981,        85P    213
-25.117067,-4.76,41.2355080116856,-25.117067,-4.56003046096872,       85P    214
41.0320175303981,-27.9628244696019,-4.76,41.2355080116856,            85P    215
-27.7593339883144,-4.56003046096872,43.877775,-27.9628244696019,      85P    216
-4.76,43.877775,-27.7593339883144,-4.56003046096872,                  85P    217
46.7235324696018,-27.9628244696019,-4.76,46.5200419883144,            85P    218
-27.7593339883144,-4.56003046096872,46.7235324696018,-25.117067,      85P    219
-4.76,46.5200419883144,-25.117067,-4.56003046096872,                  85P    220
46.7235324696018,-22.2713095303982,-4.76,46.5200419883144,            85P    221
-22.4748000116856,-4.56003046096872,43.877775,-22.2713095303982,      85P    222
-4.76,43.877775,-22.4748000116856,-4.56003046096872,                  85P    223
41.0320175303981,-22.2713095303982,-4.76,41.2355080116856,            85P    224
-22.4748000116856,-4.56003046096872,41.0320175303981,-25.117067,      85P    225
-4.76,41.2355080116856,-25.117067,-4.56003046096872,                  85P    226
-0.0519859526591847,0.0519859526591844,-3.14159265358979,             85P    227
3.14159265358979;                                                     85P    228
128,1,1,1,1,0,0,1,0,0,-0.333158757612596,-0.333158757612596,          87P    229
0.333158757612596,0.333158757612596,-0.333158757612596,               87P    230
-0.333158757612596,0.333158757612596,0.333158757612596,1.,1.,1.,      87P    231
1.,40.546187423874,-21.7854794238741,-4.76,47.209362576126,           87P    232
-21.7854794238741,-4.76,40.546187423874,-28.448654576126,-4.76,       87P    233
47.209362576126,-28.448654576126,-4.76,-0.333158757612596,            87P    234
0.333158757612596,-0.333158757612596,0.333158757612596;               87P    235
128,1,8,1,2,0,1,0,0,1,-0.415432719833108,-0.415432719833108,          89P    236
-0.148715277151805,-0.148715277151805,-3.14159265358979,              89P    237
-3.14159265358979,-3.14159265358979,-1.5707963267949,                 89P    238
-1.5707963267949,0.,0.,1.5707963267949,1.5707963267949,               89P    239
3.14159265358979,3.14159265358979,3.14159265358979,1.,1.,             89P    240
0.707106781186548,0.707106781186548,1.,1.,0.707106781186548,          89P    241
0.707106781186548,1.,1.,0.707106781186548,0.707106781186548,1.,       89P    242
1.,0.707106781186548,0.707106781186548,1.,1.,41.2355080116856,        89P    243
-25.117067,-4.56003046096872,41.2494725953264,-25.117067,-3.76,       89P    244
41.2355080116856,-27.7593339883144,-4.56003046096872,                 89P    245
41.2494725953264,-27.7453694046737,-3.76,43.877775,                   89P    246
-27.7593339883144,-4.56003046096872,43.877775,-27.7453694046737,      89P    247
-3.76,46.5200419883144,-27.7593339883144,-4.56003046096872,           89P    248
46.5060774046736,-27.7453694046737,-3.76,46.5200419883144,            89P    249
-25.117067,-4.56003046096872,46.5060774046736,-25.117067,-3.76,       89P    250
46.5200419883144,-22.4748000116856,-4.56003046096872,                 89P    251
46.5060774046736,-22.4887645953264,-3.76,43.877775,                   89P    252
-22.4748000116856,-4.56003046096872,43.877775,-22.4887645953264,      89P    253
-3.76,41.2355080116856,-22.4748000116856,-4.56003046096872,           89P    254
41.2494725953264,-22.4887645953264,-3.76,41.2355080116856,            89P    255
-25.117067,-4.56003046096872,41.2494725953264,-25.117067,-3.76,       89P    256
-0.415432719833108,-0.148715277151805,-3.14159265358979,              89P    257
3.14159265358979;                                                     89P    258
128,1,8,1,2,0,1,0,0,1,-0.107985076005817,-0.107985076005817,          91P    259
0.107985076005816,0.107985076005816,-3.14159265358979,                91P    260
-3.14159265358979,-3.14159265358979,-1.5707963267949,                 91P    261
-1.5707963267949,0.,0.,1.5707963267949,1.5707963267949,               91P    262
3.14159265358979,3.14159265358979,3.14159265358979,1.,1.,             91P    263
0.707106781186548,0.707106781186548,1.,1.,0.707106781186548,          91P    264
0.707106781186548,1.,1.,0.707106781186548,0.707106781186548,1.,       91P    265
1.,0.707106781186548,0.707106781186548,1.,1.,42.4550130493884,        91P    266
-25.117067,-6.56003046096872,42.6585035306758,-25.117067,-6.76,       91P    267
42.4550130493884,-26.5398289506116,-6.56003046096872,                 91P    268
42.6585035306758,-26.3363384693242,-6.76,43.877775,                   91P    269
-26.5398289506116,-6.56003046096872,43.877775,-26.3363384693242,      91P    270
-6.76,45.3005369506116,-26.5398289506116,-6.56003046096872,           91P    271
45.0970464693241,-26.3363384693242,-6.76,45.3005369506116,            91P    272
-25.117067,-6.56003046096872,45.0970464693241,-25.117067,-6.76,       91P    273
45.3005369506116,-23.6943050493884,-6.56003046096872,                 91P    274
45.0970464693241,-23.8977955306759,-6.76,43.877775,                   91P    275
-23.6943050493884,-6.56003046096872,43.877775,-23.8977955306759,      91P    276
-6.76,42.4550130493884,-23.6943050493884,-6.56003046096872,           91P    277
42.6585035306758,-23.8977955306759,-6.76,42.4550130493884,            91P    278
-25.117067,-6.56003046096872,42.6585035306758,-25.117067,-6.76,       91P    279
-0.107985076005817,0.107985076005816,-3.14159265358979,               91P    280
3.14159265358979;                                                     91P    281
128,1,8,1,2,0,1,0,0,1,-0.826210755685355,-0.826210755685355,          93P    282
1.04076056706912,1.04076056706912,-3.14159265358979,                  93P    283
-3.14159265358979,-3.14159265358979,-1.5707963267949,                 93P    284
-1.5707963267949,0.,0.,1.5707963267949,1.5707963267949,               93P    285
3.14159265358979,3.14159265358979,3.14159265358979,1.,1.,             93P    286
0.707106781186548,0.707106781186548,1.,1.,0.707106781186548,          93P    287
0.707106781186548,1.,1.,0.707106781186548,0.707106781186548,1.,       93P    288
1.,0.707106781186548,0.707106781186548,1.,1.,42.4061383358912,        93P    289
-25.117067,-3.76,42.4550130493884,-25.117067,-6.56003046096872,       93P    290
42.4061383358912,-26.5887036641088,-3.76,42.4550130493884,            93P    291
-26.5398289506116,-6.56003046096872,43.877775,-26.5887036641088,      93P    292
-3.76,43.877775,-26.5398289506116,-6.56003046096872,                  93P    293
45.3494116641088,-26.5887036641088,-3.76,45.3005369506116,            93P    294
-26.5398289506116,-6.56003046096872,45.3494116641088,-25.117067,      93P    295
-3.76,45.3005369506116,-25.117067,-6.56003046096872,                  93P    296
45.3494116641088,-23.6454303358912,-3.76,45.3005369506116,            93P    297
-23.6943050493884,-6.56003046096872,43.877775,-23.6454303358912,      93P    298
-3.76,43.877775,-23.6943050493884,-6.56003046096872,                  93P    299
42.4061383358912,-23.6454303358912,-3.76,42.4550130493884,            93P    300
-23.6943050493884,-6.56003046096872,42.4061383358912,-25.117067,      93P    301
-3.76,42.4550130493884,-25.117067,-6.56003046096872,                  93P    302
-0.826210755685355,1.04076056706912,-3.14159265358979,                93P    303
3.14159265358979;                                                     93P    304
128,1,1,1,1,0,0,1,0,0,-0.122927146932415,-0.122927146932415,          95P    305
0.122927146932415,0.122927146932415,-0.122927146932415,               95P    306
-0.122927146932415,0.122927146932415,0.122927146932415,1.,1.,1.,      95P    307
1.,42.6485035306758,-23.8877955306759,-6.76,45.1070464693241,         95P    308
-23.8877955306759,-6.76,42.6485035306758,-26.3463384693242,           95P    309
-6.76,45.1070464693241,-26.3463384693242,-6.76,                       95P    310
-0.122927146932415,0.122927146932415,-0.122927146932415,              95P    311
0.122927146932415;                                                    95P    312
128,1,1,1,1,0,0,1,0,0,-0.263830240467364,-0.263830240467364,          97P    313
0.263830240467364,0.263830240467364,-0.263830240467364,               97P    314
-0.263830240467364,0.263830240467364,0.263830240467364,1.,1.,1.,      97P    315
1.,46.5160774046736,-27.7553694046737,-3.76,41.2394725953263,         97P    316
-27.7553694046737,-3.76,46.5160774046736,-22.4787645953264,           97P    317
-3.76,41.2394725953263,-22.4787645953264,-3.76,                       97P    318
-0.263830240467364,0.263830240467364,-0.263830240467364,              97P    319
0.263830240467364;                                                    97P    320
502,9,47.1452247470207,-25.117067,-3.20969541355601,46.627775,        99P    321
-25.117067,-2.71,47.1993625761259,-25.117067,-4.76,                   99P    322
41.2355080116856,-25.117067,-4.56003046096872,41.0320175303981,       99P    323
-25.117067,-4.76,41.2494725953263,-25.117067,-3.76,                   99P    324
42.4550130493884,-25.117067,-6.56003046096872,42.6585035306758,       99P    325
-25.117067,-6.76,42.4061383358912,-25.117067,-3.76;                   99P    326
504,15,49,99,1,99,1,51,99,1,99,2,53,99,2,99,2,55,99,1,99,3,57,       101P    327
99,3,99,3,59,99,4,99,4,61,99,4,99,5,63,99,5,99,5,65,99,6,99,6,       101P    328
67,99,6,99,4,69,99,7,99,7,71,99,7,99,8,73,99,8,99,8,75,99,7,99,      101P    329
9,77,99,9,99,9;                                                      101P    330
406,1,5HBody1;                                                       103P    331
314,87.843137254902,87.843137254902,87.843137254902,16HSilicone      105P    332
(White);                                                             105P    333
314,62.7450980392157,62.7450980392157,62.7450980392157,13HSteel      107P    334
- Satin;                                                             107P    335
S      1G      2D    108P    335                                        T      1
