ISO-10303-21;
HEADER;
/* Generated by software containing ST-Developer
 * from STEP Tools, Inc. (www.steptools.com) 
 */

FILE_DESCRIPTION(
/* description */ (''),
/* implementation_level */ '2;1');

FILE_NAME(
/* name */ 'MainButtonSilicone.step',
/* time_stamp */ '2025-08-03T19:22:51-07:00',
/* author */ (''),
/* organization */ (''),
/* preprocessor_version */ 'ST-DEVELOPER v20.1',
/* originating_system */ 'Autodesk Translation Framework v14.10.0.0',
/* authorisation */ '');

FILE_SCHEMA (('AUTOMOTIVE_DESIGN { 1 0 10303 214 3 1 1 }'));
ENDSEC;

DATA;
#10=MECHANICAL_DESIGN_GEOMETRIC_PRESENTATION_REPRESENTATION('',(#13,#14),
#1004);
#11=SHAPE_REPRESENTATION_RELATIONSHIP('SRR','None',#1011,#12);
#12=ADVANCED_BREP_SHAPE_REPRESENTATION('',(#15,#16),#1003);
#13=STYLED_ITEM('',(#1021),#15);
#14=STYLED_ITEM('',(#1022),#16);
#15=MANIFOLD_SOLID_BREP('Silicone',#560);
#16=MANIFOLD_SOLID_BREP('MembraneGraphite',#561);
#17=CYLINDRICAL_SURFACE('',#591,3.5);
#18=CYLINDRICAL_SURFACE('',#601,4.25);
#19=CYLINDRICAL_SURFACE('',#611,6.25);
#20=CYLINDRICAL_SURFACE('',#614,6.25);
#21=CYLINDRICAL_SURFACE('',#618,6.);
#22=CYLINDRICAL_SURFACE('',#621,6.879);
#23=CYLINDRICAL_SURFACE('',#623,6.879);
#24=CYLINDRICAL_SURFACE('',#625,7.5);
#25=CYLINDRICAL_SURFACE('',#629,6.);
#26=CYLINDRICAL_SURFACE('',#646,2.75);
#27=FACE_BOUND('',#162,.T.);
#28=FACE_BOUND('',#182,.T.);
#29=FACE_BOUND('',#192,.T.);
#30=PLANE('',#582);
#31=PLANE('',#610);
#32=PLANE('',#617);
#33=PLANE('',#620);
#34=PLANE('',#628);
#35=PLANE('',#631);
#36=PLANE('',#632);
#37=PLANE('',#633);
#38=PLANE('',#634);
#39=PLANE('',#635);
#40=PLANE('',#636);
#41=PLANE('',#637);
#42=PLANE('',#638);
#43=PLANE('',#642);
#44=PLANE('',#643);
#45=PLANE('',#644);
#46=PLANE('',#648);
#47=LINE('',#849,#85);
#48=LINE('',#853,#86);
#49=LINE('',#857,#87);
#50=LINE('',#861,#88);
#51=LINE('',#865,#89);
#52=LINE('',#876,#90);
#53=LINE('',#889,#91);
#54=LINE('',#893,#92);
#55=LINE('',#897,#93);
#56=LINE('',#901,#94);
#57=LINE('',#905,#95);
#58=LINE('',#909,#96);
#59=LINE('',#919,#97);
#60=LINE('',#923,#98);
#61=LINE('',#928,#99);
#62=LINE('',#932,#100);
#63=LINE('',#936,#101);
#64=LINE('',#938,#102);
#65=LINE('',#939,#103);
#66=LINE('',#943,#104);
#67=LINE('',#946,#105);
#68=LINE('',#947,#106);
#69=LINE('',#950,#107);
#70=LINE('',#955,#108);
#71=LINE('',#960,#109);
#72=LINE('',#964,#110);
#73=LINE('',#965,#111);
#74=LINE('',#969,#112);
#75=LINE('',#971,#113);
#76=LINE('',#974,#114);
#77=LINE('',#975,#115);
#78=LINE('',#977,#116);
#79=LINE('',#978,#117);
#80=LINE('',#980,#118);
#81=LINE('',#981,#119);
#82=LINE('',#984,#120);
#83=LINE('',#986,#121);
#84=LINE('',#999,#122);
#85=VECTOR('',#665,3.95);
#86=VECTOR('',#668,10.);
#87=VECTOR('',#671,10.);
#88=VECTOR('',#674,10.);
#89=VECTOR('',#677,10.);
#90=VECTOR('',#692,3.5);
#91=VECTOR('',#707,3.875);
#92=VECTOR('',#712,4.25);
#93=VECTOR('',#715,10.);
#94=VECTOR('',#718,10.);
#95=VECTOR('',#721,10.);
#96=VECTOR('',#724,10.);
#97=VECTOR('',#737,10.);
#98=VECTOR('',#740,10.);
#99=VECTOR('',#745,10.);
#100=VECTOR('',#748,10.);
#101=VECTOR('',#753,10.);
#102=VECTOR('',#754,10.);
#103=VECTOR('',#755,10.);
#104=VECTOR('',#760,10.);
#105=VECTOR('',#763,10.);
#106=VECTOR('',#764,10.);
#107=VECTOR('',#767,10.);
#108=VECTOR('',#774,10.);
#109=VECTOR('',#779,6.5);
#110=VECTOR('',#784,10.);
#111=VECTOR('',#785,10.);
#112=VECTOR('',#790,10.);
#113=VECTOR('',#793,10.);
#114=VECTOR('',#798,10.);
#115=VECTOR('',#799,10.);
#116=VECTOR('',#802,10.);
#117=VECTOR('',#803,10.);
#118=VECTOR('',#806,10.);
#119=VECTOR('',#807,10.);
#120=VECTOR('',#812,10.);
#121=VECTOR('',#815,10.);
#122=VECTOR('',#834,2.75);
#123=CONICAL_SURFACE('',#580,4.14923876525492,0.664046162826686);
#124=CONICAL_SURFACE('',#598,3.831,0.643501108793286);
#125=FACE_OUTER_BOUND('',#159,.T.);
#126=FACE_OUTER_BOUND('',#160,.T.);
#127=FACE_OUTER_BOUND('',#161,.T.);
#128=FACE_OUTER_BOUND('',#163,.T.);
#129=FACE_OUTER_BOUND('',#164,.T.);
#130=FACE_OUTER_BOUND('',#165,.T.);
#131=FACE_OUTER_BOUND('',#166,.T.);
#132=FACE_OUTER_BOUND('',#167,.T.);
#133=FACE_OUTER_BOUND('',#168,.T.);
#134=FACE_OUTER_BOUND('',#169,.T.);
#135=FACE_OUTER_BOUND('',#170,.T.);
#136=FACE_OUTER_BOUND('',#171,.T.);
#137=FACE_OUTER_BOUND('',#172,.T.);
#138=FACE_OUTER_BOUND('',#173,.T.);
#139=FACE_OUTER_BOUND('',#174,.T.);
#140=FACE_OUTER_BOUND('',#175,.T.);
#141=FACE_OUTER_BOUND('',#176,.T.);
#142=FACE_OUTER_BOUND('',#177,.T.);
#143=FACE_OUTER_BOUND('',#178,.T.);
#144=FACE_OUTER_BOUND('',#179,.T.);
#145=FACE_OUTER_BOUND('',#180,.T.);
#146=FACE_OUTER_BOUND('',#181,.T.);
#147=FACE_OUTER_BOUND('',#183,.T.);
#148=FACE_OUTER_BOUND('',#184,.T.);
#149=FACE_OUTER_BOUND('',#185,.T.);
#150=FACE_OUTER_BOUND('',#186,.T.);
#151=FACE_OUTER_BOUND('',#187,.T.);
#152=FACE_OUTER_BOUND('',#188,.T.);
#153=FACE_OUTER_BOUND('',#189,.T.);
#154=FACE_OUTER_BOUND('',#190,.T.);
#155=FACE_OUTER_BOUND('',#191,.T.);
#156=FACE_OUTER_BOUND('',#193,.T.);
#157=FACE_OUTER_BOUND('',#194,.T.);
#158=FACE_OUTER_BOUND('',#195,.T.);
#159=EDGE_LOOP('',(#365,#366,#367,#368,#369));
#160=EDGE_LOOP('',(#370,#371,#372,#373,#374));
#161=EDGE_LOOP('',(#375,#376,#377,#378,#379,#380,#381,#382));
#162=EDGE_LOOP('',(#383));
#163=EDGE_LOOP('',(#384,#385,#386,#387,#388));
#164=EDGE_LOOP('',(#389,#390,#391,#392,#393));
#165=EDGE_LOOP('',(#394,#395,#396,#397,#398));
#166=EDGE_LOOP('',(#399,#400,#401,#402,#403));
#167=EDGE_LOOP('',(#404,#405,#406,#407,#408,#409,#410,#411,#412,#413,#414,
#415,#416));
#168=EDGE_LOOP('',(#417,#418,#419,#420,#421));
#169=EDGE_LOOP('',(#422));
#170=EDGE_LOOP('',(#423,#424,#425,#426));
#171=EDGE_LOOP('',(#427,#428,#429,#430));
#172=EDGE_LOOP('',(#431,#432,#433,#434));
#173=EDGE_LOOP('',(#435,#436,#437,#438));
#174=EDGE_LOOP('',(#439,#440,#441,#442));
#175=EDGE_LOOP('',(#443,#444,#445,#446));
#176=EDGE_LOOP('',(#447,#448,#449,#450));
#177=EDGE_LOOP('',(#451,#452,#453,#454));
#178=EDGE_LOOP('',(#455,#456,#457,#458));
#179=EDGE_LOOP('',(#459,#460,#461,#462));
#180=EDGE_LOOP('',(#463,#464,#465,#466));
#181=EDGE_LOOP('',(#467));
#182=EDGE_LOOP('',(#468,#469,#470,#471,#472,#473,#474,#475));
#183=EDGE_LOOP('',(#476,#477,#478,#479));
#184=EDGE_LOOP('',(#480,#481,#482,#483));
#185=EDGE_LOOP('',(#484,#485,#486,#487));
#186=EDGE_LOOP('',(#488,#489,#490,#491));
#187=EDGE_LOOP('',(#492,#493,#494,#495,#496));
#188=EDGE_LOOP('',(#497,#498,#499,#500));
#189=EDGE_LOOP('',(#501,#502,#503,#504));
#190=EDGE_LOOP('',(#505));
#191=EDGE_LOOP('',(#506));
#192=EDGE_LOOP('',(#507,#508,#509,#510,#511,#512,#513,#514));
#193=EDGE_LOOP('',(#515));
#194=EDGE_LOOP('',(#516,#517,#518,#519));
#195=EDGE_LOOP('',(#520));
#196=CIRCLE('',#576,4.49605743290603);
#197=CIRCLE('',#577,0.75);
#198=CIRCLE('',#578,5.08668618366172);
#199=CIRCLE('',#579,4.49605743290603);
#200=CIRCLE('',#581,3.65937124924431);
#201=CIRCLE('',#583,6.879);
#202=CIRCLE('',#584,6.);
#203=CIRCLE('',#585,6.879);
#204=CIRCLE('',#586,6.);
#205=CIRCLE('',#588,0.75);
#206=CIRCLE('',#589,3.5);
#207=CIRCLE('',#590,3.5);
#208=CIRCLE('',#592,3.5);
#209=CIRCLE('',#594,4.2);
#210=CIRCLE('',#595,0.25);
#211=CIRCLE('',#596,4.25);
#212=CIRCLE('',#597,4.25);
#213=CIRCLE('',#599,3.50624999999999);
#214=CIRCLE('',#600,3.50624999999999);
#215=CIRCLE('',#602,4.25);
#216=CIRCLE('',#603,4.25);
#217=CIRCLE('',#604,4.25);
#218=CIRCLE('',#605,4.25);
#219=CIRCLE('',#606,4.25);
#220=CIRCLE('',#608,0.25);
#221=CIRCLE('',#609,3.30624999999999);
#222=CIRCLE('',#612,6.25);
#223=CIRCLE('',#613,6.25);
#224=CIRCLE('',#615,6.25);
#225=CIRCLE('',#616,6.25);
#226=CIRCLE('',#619,6.);
#227=CIRCLE('',#622,6.879);
#228=CIRCLE('',#624,6.879);
#229=CIRCLE('',#626,7.5);
#230=CIRCLE('',#627,7.5);
#231=CIRCLE('',#630,6.);
#232=CIRCLE('',#640,0.25);
#233=CIRCLE('',#641,3.25);
#234=CIRCLE('',#645,2.75);
#235=CIRCLE('',#647,2.75);
#236=VERTEX_POINT('',#839);
#237=VERTEX_POINT('',#840);
#238=VERTEX_POINT('',#842);
#239=VERTEX_POINT('',#847);
#240=VERTEX_POINT('',#851);
#241=VERTEX_POINT('',#852);
#242=VERTEX_POINT('',#854);
#243=VERTEX_POINT('',#856);
#244=VERTEX_POINT('',#858);
#245=VERTEX_POINT('',#860);
#246=VERTEX_POINT('',#862);
#247=VERTEX_POINT('',#864);
#248=VERTEX_POINT('',#868);
#249=VERTEX_POINT('',#870);
#250=VERTEX_POINT('',#874);
#251=VERTEX_POINT('',#878);
#252=VERTEX_POINT('',#880);
#253=VERTEX_POINT('',#882);
#254=VERTEX_POINT('',#886);
#255=VERTEX_POINT('',#887);
#256=VERTEX_POINT('',#892);
#257=VERTEX_POINT('',#894);
#258=VERTEX_POINT('',#896);
#259=VERTEX_POINT('',#898);
#260=VERTEX_POINT('',#900);
#261=VERTEX_POINT('',#902);
#262=VERTEX_POINT('',#904);
#263=VERTEX_POINT('',#906);
#264=VERTEX_POINT('',#908);
#265=VERTEX_POINT('',#912);
#266=VERTEX_POINT('',#917);
#267=VERTEX_POINT('',#918);
#268=VERTEX_POINT('',#920);
#269=VERTEX_POINT('',#922);
#270=VERTEX_POINT('',#926);
#271=VERTEX_POINT('',#927);
#272=VERTEX_POINT('',#929);
#273=VERTEX_POINT('',#931);
#274=VERTEX_POINT('',#935);
#275=VERTEX_POINT('',#937);
#276=VERTEX_POINT('',#941);
#277=VERTEX_POINT('',#945);
#278=VERTEX_POINT('',#949);
#279=VERTEX_POINT('',#953);
#280=VERTEX_POINT('',#957);
#281=VERTEX_POINT('',#959);
#282=VERTEX_POINT('',#963);
#283=VERTEX_POINT('',#967);
#284=VERTEX_POINT('',#988);
#285=VERTEX_POINT('',#994);
#286=VERTEX_POINT('',#997);
#287=EDGE_CURVE('',#236,#237,#196,.T.);
#288=EDGE_CURVE('',#237,#238,#197,.T.);
#289=EDGE_CURVE('',#238,#238,#198,.T.);
#290=EDGE_CURVE('',#237,#236,#199,.T.);
#291=EDGE_CURVE('',#239,#239,#200,.T.);
#292=EDGE_CURVE('',#239,#236,#47,.T.);
#293=EDGE_CURVE('',#240,#241,#48,.T.);
#294=EDGE_CURVE('',#241,#242,#201,.T.);
#295=EDGE_CURVE('',#242,#243,#49,.T.);
#296=EDGE_CURVE('',#243,#244,#202,.T.);
#297=EDGE_CURVE('',#244,#245,#50,.T.);
#298=EDGE_CURVE('',#245,#246,#203,.T.);
#299=EDGE_CURVE('',#246,#247,#51,.T.);
#300=EDGE_CURVE('',#247,#240,#204,.T.);
#301=EDGE_CURVE('',#239,#248,#205,.T.);
#302=EDGE_CURVE('',#248,#249,#206,.T.);
#303=EDGE_CURVE('',#249,#248,#207,.T.);
#304=EDGE_CURVE('',#250,#250,#208,.T.);
#305=EDGE_CURVE('',#250,#249,#52,.T.);
#306=EDGE_CURVE('',#251,#251,#209,.T.);
#307=EDGE_CURVE('',#251,#252,#210,.T.);
#308=EDGE_CURVE('',#252,#253,#211,.T.);
#309=EDGE_CURVE('',#253,#252,#212,.T.);
#310=EDGE_CURVE('',#254,#255,#213,.T.);
#311=EDGE_CURVE('',#254,#251,#53,.T.);
#312=EDGE_CURVE('',#255,#254,#214,.T.);
#313=EDGE_CURVE('',#253,#256,#54,.T.);
#314=EDGE_CURVE('',#256,#257,#215,.T.);
#315=EDGE_CURVE('',#257,#258,#55,.T.);
#316=EDGE_CURVE('',#259,#258,#216,.T.);
#317=EDGE_CURVE('',#259,#260,#56,.T.);
#318=EDGE_CURVE('',#260,#261,#217,.T.);
#319=EDGE_CURVE('',#261,#262,#57,.T.);
#320=EDGE_CURVE('',#263,#262,#218,.T.);
#321=EDGE_CURVE('',#263,#264,#58,.T.);
#322=EDGE_CURVE('',#264,#256,#219,.T.);
#323=EDGE_CURVE('',#255,#265,#220,.T.);
#324=EDGE_CURVE('',#265,#265,#221,.T.);
#325=EDGE_CURVE('',#266,#267,#59,.T.);
#326=EDGE_CURVE('',#268,#267,#222,.T.);
#327=EDGE_CURVE('',#268,#269,#60,.T.);
#328=EDGE_CURVE('',#269,#266,#223,.T.);
#329=EDGE_CURVE('',#270,#271,#61,.T.);
#330=EDGE_CURVE('',#271,#272,#224,.T.);
#331=EDGE_CURVE('',#272,#273,#62,.T.);
#332=EDGE_CURVE('',#270,#273,#225,.T.);
#333=EDGE_CURVE('',#274,#246,#63,.F.);
#334=EDGE_CURVE('',#275,#274,#64,.T.);
#335=EDGE_CURVE('',#247,#275,#65,.T.);
#336=EDGE_CURVE('',#276,#275,#226,.F.);
#337=EDGE_CURVE('',#240,#276,#66,.F.);
#338=EDGE_CURVE('',#277,#276,#67,.T.);
#339=EDGE_CURVE('',#241,#277,#68,.F.);
#340=EDGE_CURVE('',#245,#278,#69,.F.);
#341=EDGE_CURVE('',#274,#278,#227,.F.);
#342=EDGE_CURVE('',#279,#277,#228,.F.);
#343=EDGE_CURVE('',#242,#279,#70,.T.);
#344=EDGE_CURVE('',#280,#280,#229,.F.);
#345=EDGE_CURVE('',#280,#281,#71,.T.);
#346=EDGE_CURVE('',#281,#281,#230,.T.);
#347=EDGE_CURVE('',#282,#279,#72,.T.);
#348=EDGE_CURVE('',#243,#282,#73,.T.);
#349=EDGE_CURVE('',#283,#282,#231,.F.);
#350=EDGE_CURVE('',#244,#283,#74,.F.);
#351=EDGE_CURVE('',#278,#283,#75,.T.);
#352=EDGE_CURVE('',#261,#271,#76,.T.);
#353=EDGE_CURVE('',#262,#270,#77,.T.);
#354=EDGE_CURVE('',#273,#259,#78,.T.);
#355=EDGE_CURVE('',#272,#260,#79,.T.);
#356=EDGE_CURVE('',#257,#269,#80,.T.);
#357=EDGE_CURVE('',#258,#268,#81,.T.);
#358=EDGE_CURVE('',#266,#264,#82,.T.);
#359=EDGE_CURVE('',#267,#263,#83,.T.);
#360=EDGE_CURVE('',#250,#284,#232,.T.);
#361=EDGE_CURVE('',#284,#284,#233,.T.);
#362=EDGE_CURVE('',#285,#285,#234,.T.);
#363=EDGE_CURVE('',#286,#286,#235,.T.);
#364=EDGE_CURVE('',#286,#285,#84,.T.);
#365=ORIENTED_EDGE('',*,*,#287,.T.);
#366=ORIENTED_EDGE('',*,*,#288,.T.);
#367=ORIENTED_EDGE('',*,*,#289,.T.);
#368=ORIENTED_EDGE('',*,*,#288,.F.);
#369=ORIENTED_EDGE('',*,*,#290,.T.);
#370=ORIENTED_EDGE('',*,*,#291,.F.);
#371=ORIENTED_EDGE('',*,*,#292,.T.);
#372=ORIENTED_EDGE('',*,*,#290,.F.);
#373=ORIENTED_EDGE('',*,*,#287,.F.);
#374=ORIENTED_EDGE('',*,*,#292,.F.);
#375=ORIENTED_EDGE('',*,*,#293,.T.);
#376=ORIENTED_EDGE('',*,*,#294,.T.);
#377=ORIENTED_EDGE('',*,*,#295,.T.);
#378=ORIENTED_EDGE('',*,*,#296,.T.);
#379=ORIENTED_EDGE('',*,*,#297,.T.);
#380=ORIENTED_EDGE('',*,*,#298,.T.);
#381=ORIENTED_EDGE('',*,*,#299,.T.);
#382=ORIENTED_EDGE('',*,*,#300,.T.);
#383=ORIENTED_EDGE('',*,*,#289,.F.);
#384=ORIENTED_EDGE('',*,*,#291,.T.);
#385=ORIENTED_EDGE('',*,*,#301,.T.);
#386=ORIENTED_EDGE('',*,*,#302,.T.);
#387=ORIENTED_EDGE('',*,*,#303,.T.);
#388=ORIENTED_EDGE('',*,*,#301,.F.);
#389=ORIENTED_EDGE('',*,*,#304,.F.);
#390=ORIENTED_EDGE('',*,*,#305,.T.);
#391=ORIENTED_EDGE('',*,*,#302,.F.);
#392=ORIENTED_EDGE('',*,*,#303,.F.);
#393=ORIENTED_EDGE('',*,*,#305,.F.);
#394=ORIENTED_EDGE('',*,*,#306,.T.);
#395=ORIENTED_EDGE('',*,*,#307,.T.);
#396=ORIENTED_EDGE('',*,*,#308,.T.);
#397=ORIENTED_EDGE('',*,*,#309,.T.);
#398=ORIENTED_EDGE('',*,*,#307,.F.);
#399=ORIENTED_EDGE('',*,*,#310,.F.);
#400=ORIENTED_EDGE('',*,*,#311,.T.);
#401=ORIENTED_EDGE('',*,*,#306,.F.);
#402=ORIENTED_EDGE('',*,*,#311,.F.);
#403=ORIENTED_EDGE('',*,*,#312,.F.);
#404=ORIENTED_EDGE('',*,*,#309,.F.);
#405=ORIENTED_EDGE('',*,*,#313,.T.);
#406=ORIENTED_EDGE('',*,*,#314,.T.);
#407=ORIENTED_EDGE('',*,*,#315,.T.);
#408=ORIENTED_EDGE('',*,*,#316,.F.);
#409=ORIENTED_EDGE('',*,*,#317,.T.);
#410=ORIENTED_EDGE('',*,*,#318,.T.);
#411=ORIENTED_EDGE('',*,*,#319,.T.);
#412=ORIENTED_EDGE('',*,*,#320,.F.);
#413=ORIENTED_EDGE('',*,*,#321,.T.);
#414=ORIENTED_EDGE('',*,*,#322,.T.);
#415=ORIENTED_EDGE('',*,*,#313,.F.);
#416=ORIENTED_EDGE('',*,*,#308,.F.);
#417=ORIENTED_EDGE('',*,*,#310,.T.);
#418=ORIENTED_EDGE('',*,*,#323,.T.);
#419=ORIENTED_EDGE('',*,*,#324,.T.);
#420=ORIENTED_EDGE('',*,*,#323,.F.);
#421=ORIENTED_EDGE('',*,*,#312,.T.);
#422=ORIENTED_EDGE('',*,*,#324,.F.);
#423=ORIENTED_EDGE('',*,*,#325,.T.);
#424=ORIENTED_EDGE('',*,*,#326,.F.);
#425=ORIENTED_EDGE('',*,*,#327,.T.);
#426=ORIENTED_EDGE('',*,*,#328,.T.);
#427=ORIENTED_EDGE('',*,*,#329,.T.);
#428=ORIENTED_EDGE('',*,*,#330,.T.);
#429=ORIENTED_EDGE('',*,*,#331,.T.);
#430=ORIENTED_EDGE('',*,*,#332,.F.);
#431=ORIENTED_EDGE('',*,*,#299,.F.);
#432=ORIENTED_EDGE('',*,*,#333,.F.);
#433=ORIENTED_EDGE('',*,*,#334,.F.);
#434=ORIENTED_EDGE('',*,*,#335,.F.);
#435=ORIENTED_EDGE('',*,*,#300,.F.);
#436=ORIENTED_EDGE('',*,*,#335,.T.);
#437=ORIENTED_EDGE('',*,*,#336,.F.);
#438=ORIENTED_EDGE('',*,*,#337,.F.);
#439=ORIENTED_EDGE('',*,*,#293,.F.);
#440=ORIENTED_EDGE('',*,*,#337,.T.);
#441=ORIENTED_EDGE('',*,*,#338,.F.);
#442=ORIENTED_EDGE('',*,*,#339,.F.);
#443=ORIENTED_EDGE('',*,*,#333,.T.);
#444=ORIENTED_EDGE('',*,*,#298,.F.);
#445=ORIENTED_EDGE('',*,*,#340,.T.);
#446=ORIENTED_EDGE('',*,*,#341,.F.);
#447=ORIENTED_EDGE('',*,*,#339,.T.);
#448=ORIENTED_EDGE('',*,*,#342,.F.);
#449=ORIENTED_EDGE('',*,*,#343,.F.);
#450=ORIENTED_EDGE('',*,*,#294,.F.);
#451=ORIENTED_EDGE('',*,*,#344,.F.);
#452=ORIENTED_EDGE('',*,*,#345,.T.);
#453=ORIENTED_EDGE('',*,*,#346,.F.);
#454=ORIENTED_EDGE('',*,*,#345,.F.);
#455=ORIENTED_EDGE('',*,*,#295,.F.);
#456=ORIENTED_EDGE('',*,*,#343,.T.);
#457=ORIENTED_EDGE('',*,*,#347,.F.);
#458=ORIENTED_EDGE('',*,*,#348,.F.);
#459=ORIENTED_EDGE('',*,*,#296,.F.);
#460=ORIENTED_EDGE('',*,*,#348,.T.);
#461=ORIENTED_EDGE('',*,*,#349,.F.);
#462=ORIENTED_EDGE('',*,*,#350,.F.);
#463=ORIENTED_EDGE('',*,*,#297,.F.);
#464=ORIENTED_EDGE('',*,*,#350,.T.);
#465=ORIENTED_EDGE('',*,*,#351,.F.);
#466=ORIENTED_EDGE('',*,*,#340,.F.);
#467=ORIENTED_EDGE('',*,*,#344,.T.);
#468=ORIENTED_EDGE('',*,*,#351,.T.);
#469=ORIENTED_EDGE('',*,*,#349,.T.);
#470=ORIENTED_EDGE('',*,*,#347,.T.);
#471=ORIENTED_EDGE('',*,*,#342,.T.);
#472=ORIENTED_EDGE('',*,*,#338,.T.);
#473=ORIENTED_EDGE('',*,*,#336,.T.);
#474=ORIENTED_EDGE('',*,*,#334,.T.);
#475=ORIENTED_EDGE('',*,*,#341,.T.);
#476=ORIENTED_EDGE('',*,*,#319,.F.);
#477=ORIENTED_EDGE('',*,*,#352,.T.);
#478=ORIENTED_EDGE('',*,*,#329,.F.);
#479=ORIENTED_EDGE('',*,*,#353,.F.);
#480=ORIENTED_EDGE('',*,*,#317,.F.);
#481=ORIENTED_EDGE('',*,*,#354,.F.);
#482=ORIENTED_EDGE('',*,*,#331,.F.);
#483=ORIENTED_EDGE('',*,*,#355,.T.);
#484=ORIENTED_EDGE('',*,*,#315,.F.);
#485=ORIENTED_EDGE('',*,*,#356,.T.);
#486=ORIENTED_EDGE('',*,*,#327,.F.);
#487=ORIENTED_EDGE('',*,*,#357,.F.);
#488=ORIENTED_EDGE('',*,*,#318,.F.);
#489=ORIENTED_EDGE('',*,*,#355,.F.);
#490=ORIENTED_EDGE('',*,*,#330,.F.);
#491=ORIENTED_EDGE('',*,*,#352,.F.);
#492=ORIENTED_EDGE('',*,*,#322,.F.);
#493=ORIENTED_EDGE('',*,*,#358,.F.);
#494=ORIENTED_EDGE('',*,*,#328,.F.);
#495=ORIENTED_EDGE('',*,*,#356,.F.);
#496=ORIENTED_EDGE('',*,*,#314,.F.);
#497=ORIENTED_EDGE('',*,*,#321,.F.);
#498=ORIENTED_EDGE('',*,*,#359,.F.);
#499=ORIENTED_EDGE('',*,*,#325,.F.);
#500=ORIENTED_EDGE('',*,*,#358,.T.);
#501=ORIENTED_EDGE('',*,*,#304,.T.);
#502=ORIENTED_EDGE('',*,*,#360,.T.);
#503=ORIENTED_EDGE('',*,*,#361,.T.);
#504=ORIENTED_EDGE('',*,*,#360,.F.);
#505=ORIENTED_EDGE('',*,*,#361,.F.);
#506=ORIENTED_EDGE('',*,*,#346,.T.);
#507=ORIENTED_EDGE('',*,*,#359,.T.);
#508=ORIENTED_EDGE('',*,*,#320,.T.);
#509=ORIENTED_EDGE('',*,*,#353,.T.);
#510=ORIENTED_EDGE('',*,*,#332,.T.);
#511=ORIENTED_EDGE('',*,*,#354,.T.);
#512=ORIENTED_EDGE('',*,*,#316,.T.);
#513=ORIENTED_EDGE('',*,*,#357,.T.);
#514=ORIENTED_EDGE('',*,*,#326,.T.);
#515=ORIENTED_EDGE('',*,*,#362,.F.);
#516=ORIENTED_EDGE('',*,*,#363,.F.);
#517=ORIENTED_EDGE('',*,*,#364,.T.);
#518=ORIENTED_EDGE('',*,*,#362,.T.);
#519=ORIENTED_EDGE('',*,*,#364,.F.);
#520=ORIENTED_EDGE('',*,*,#363,.T.);
#521=TOROIDAL_SURFACE('',#575,5.08668618366172,0.75);
#522=TOROIDAL_SURFACE('',#587,4.25,0.75);
#523=TOROIDAL_SURFACE('',#593,4.,0.25);
#524=TOROIDAL_SURFACE('',#607,3.30624999999999,0.25);
#525=TOROIDAL_SURFACE('',#639,3.25,0.25);
#526=ADVANCED_FACE('',(#125),#521,.F.);
#527=ADVANCED_FACE('',(#126),#123,.T.);
#528=ADVANCED_FACE('',(#127,#27),#30,.T.);
#529=ADVANCED_FACE('',(#128),#522,.F.);
#530=ADVANCED_FACE('',(#129),#17,.T.);
#531=ADVANCED_FACE('',(#130),#523,.F.);
#532=ADVANCED_FACE('',(#131),#124,.F.);
#533=ADVANCED_FACE('',(#132),#18,.F.);
#534=ADVANCED_FACE('',(#133),#524,.F.);
#535=ADVANCED_FACE('',(#134),#31,.F.);
#536=ADVANCED_FACE('',(#135),#19,.F.);
#537=ADVANCED_FACE('',(#136),#20,.F.);
#538=ADVANCED_FACE('',(#137),#32,.T.);
#539=ADVANCED_FACE('',(#138),#21,.F.);
#540=ADVANCED_FACE('',(#139),#33,.T.);
#541=ADVANCED_FACE('',(#140),#22,.F.);
#542=ADVANCED_FACE('',(#141),#23,.F.);
#543=ADVANCED_FACE('',(#142),#24,.T.);
#544=ADVANCED_FACE('',(#143),#34,.T.);
#545=ADVANCED_FACE('',(#144),#25,.F.);
#546=ADVANCED_FACE('',(#145),#35,.T.);
#547=ADVANCED_FACE('',(#146,#28),#36,.T.);
#548=ADVANCED_FACE('',(#147),#37,.F.);
#549=ADVANCED_FACE('',(#148),#38,.F.);
#550=ADVANCED_FACE('',(#149),#39,.F.);
#551=ADVANCED_FACE('',(#150),#40,.F.);
#552=ADVANCED_FACE('',(#151),#41,.F.);
#553=ADVANCED_FACE('',(#152),#42,.F.);
#554=ADVANCED_FACE('',(#153),#525,.T.);
#555=ADVANCED_FACE('',(#154),#43,.T.);
#556=ADVANCED_FACE('',(#155,#29),#44,.F.);
#557=ADVANCED_FACE('',(#156),#45,.F.);
#558=ADVANCED_FACE('',(#157),#26,.T.);
#559=ADVANCED_FACE('',(#158),#46,.T.);
#560=CLOSED_SHELL('',(#526,#527,#528,#529,#530,#531,#532,#533,#534,#535,
#536,#537,#538,#539,#540,#541,#542,#543,#544,#545,#546,#547,#548,#549,#550,
#551,#552,#553,#554,#555,#556));
#561=CLOSED_SHELL('',(#557,#558,#559));
#562=DERIVED_UNIT_ELEMENT(#564,1.);
#563=DERIVED_UNIT_ELEMENT(#1006,-3.);
#564=(
MASS_UNIT()
NAMED_UNIT(*)
SI_UNIT(.KILO.,.GRAM.)
);
#565=DERIVED_UNIT((#562,#563));
#566=MEASURE_REPRESENTATION_ITEM('density measure',
POSITIVE_RATIO_MEASURE(7850.),#565);
#567=PROPERTY_DEFINITION_REPRESENTATION(#572,#569);
#568=PROPERTY_DEFINITION_REPRESENTATION(#573,#570);
#569=REPRESENTATION('material name',(#571),#1003);
#570=REPRESENTATION('density',(#566),#1003);
#571=DESCRIPTIVE_REPRESENTATION_ITEM('Steel','Steel');
#572=PROPERTY_DEFINITION('material property','material name',#1013);
#573=PROPERTY_DEFINITION('material property','density of part',#1013);
#574=AXIS2_PLACEMENT_3D('',#837,#649,#650);
#575=AXIS2_PLACEMENT_3D('',#838,#651,#652);
#576=AXIS2_PLACEMENT_3D('',#841,#653,#654);
#577=AXIS2_PLACEMENT_3D('',#843,#655,#656);
#578=AXIS2_PLACEMENT_3D('',#844,#657,#658);
#579=AXIS2_PLACEMENT_3D('',#845,#659,#660);
#580=AXIS2_PLACEMENT_3D('',#846,#661,#662);
#581=AXIS2_PLACEMENT_3D('',#848,#663,#664);
#582=AXIS2_PLACEMENT_3D('',#850,#666,#667);
#583=AXIS2_PLACEMENT_3D('',#855,#669,#670);
#584=AXIS2_PLACEMENT_3D('',#859,#672,#673);
#585=AXIS2_PLACEMENT_3D('',#863,#675,#676);
#586=AXIS2_PLACEMENT_3D('',#866,#678,#679);
#587=AXIS2_PLACEMENT_3D('',#867,#680,#681);
#588=AXIS2_PLACEMENT_3D('',#869,#682,#683);
#589=AXIS2_PLACEMENT_3D('',#871,#684,#685);
#590=AXIS2_PLACEMENT_3D('',#872,#686,#687);
#591=AXIS2_PLACEMENT_3D('',#873,#688,#689);
#592=AXIS2_PLACEMENT_3D('',#875,#690,#691);
#593=AXIS2_PLACEMENT_3D('',#877,#693,#694);
#594=AXIS2_PLACEMENT_3D('',#879,#695,#696);
#595=AXIS2_PLACEMENT_3D('',#881,#697,#698);
#596=AXIS2_PLACEMENT_3D('',#883,#699,#700);
#597=AXIS2_PLACEMENT_3D('',#884,#701,#702);
#598=AXIS2_PLACEMENT_3D('',#885,#703,#704);
#599=AXIS2_PLACEMENT_3D('',#888,#705,#706);
#600=AXIS2_PLACEMENT_3D('',#890,#708,#709);
#601=AXIS2_PLACEMENT_3D('',#891,#710,#711);
#602=AXIS2_PLACEMENT_3D('',#895,#713,#714);
#603=AXIS2_PLACEMENT_3D('',#899,#716,#717);
#604=AXIS2_PLACEMENT_3D('',#903,#719,#720);
#605=AXIS2_PLACEMENT_3D('',#907,#722,#723);
#606=AXIS2_PLACEMENT_3D('',#910,#725,#726);
#607=AXIS2_PLACEMENT_3D('',#911,#727,#728);
#608=AXIS2_PLACEMENT_3D('',#913,#729,#730);
#609=AXIS2_PLACEMENT_3D('',#914,#731,#732);
#610=AXIS2_PLACEMENT_3D('',#915,#733,#734);
#611=AXIS2_PLACEMENT_3D('',#916,#735,#736);
#612=AXIS2_PLACEMENT_3D('',#921,#738,#739);
#613=AXIS2_PLACEMENT_3D('',#924,#741,#742);
#614=AXIS2_PLACEMENT_3D('',#925,#743,#744);
#615=AXIS2_PLACEMENT_3D('',#930,#746,#747);
#616=AXIS2_PLACEMENT_3D('',#933,#749,#750);
#617=AXIS2_PLACEMENT_3D('',#934,#751,#752);
#618=AXIS2_PLACEMENT_3D('',#940,#756,#757);
#619=AXIS2_PLACEMENT_3D('',#942,#758,#759);
#620=AXIS2_PLACEMENT_3D('',#944,#761,#762);
#621=AXIS2_PLACEMENT_3D('',#948,#765,#766);
#622=AXIS2_PLACEMENT_3D('',#951,#768,#769);
#623=AXIS2_PLACEMENT_3D('',#952,#770,#771);
#624=AXIS2_PLACEMENT_3D('',#954,#772,#773);
#625=AXIS2_PLACEMENT_3D('',#956,#775,#776);
#626=AXIS2_PLACEMENT_3D('',#958,#777,#778);
#627=AXIS2_PLACEMENT_3D('',#961,#780,#781);
#628=AXIS2_PLACEMENT_3D('',#962,#782,#783);
#629=AXIS2_PLACEMENT_3D('',#966,#786,#787);
#630=AXIS2_PLACEMENT_3D('',#968,#788,#789);
#631=AXIS2_PLACEMENT_3D('',#970,#791,#792);
#632=AXIS2_PLACEMENT_3D('',#972,#794,#795);
#633=AXIS2_PLACEMENT_3D('',#973,#796,#797);
#634=AXIS2_PLACEMENT_3D('',#976,#800,#801);
#635=AXIS2_PLACEMENT_3D('',#979,#804,#805);
#636=AXIS2_PLACEMENT_3D('',#982,#808,#809);
#637=AXIS2_PLACEMENT_3D('',#983,#810,#811);
#638=AXIS2_PLACEMENT_3D('',#985,#813,#814);
#639=AXIS2_PLACEMENT_3D('',#987,#816,#817);
#640=AXIS2_PLACEMENT_3D('',#989,#818,#819);
#641=AXIS2_PLACEMENT_3D('',#990,#820,#821);
#642=AXIS2_PLACEMENT_3D('',#991,#822,#823);
#643=AXIS2_PLACEMENT_3D('',#992,#824,#825);
#644=AXIS2_PLACEMENT_3D('',#993,#826,#827);
#645=AXIS2_PLACEMENT_3D('',#995,#828,#829);
#646=AXIS2_PLACEMENT_3D('',#996,#830,#831);
#647=AXIS2_PLACEMENT_3D('',#998,#832,#833);
#648=AXIS2_PLACEMENT_3D('',#1000,#835,#836);
#649=DIRECTION('axis',(0.,0.,1.));
#650=DIRECTION('refdir',(1.,0.,0.));
#651=DIRECTION('center_axis',(0.,0.,-1.));
#652=DIRECTION('ref_axis',(-1.,0.,0.));
#653=DIRECTION('center_axis',(2.46932571745989E-16,0.,-1.));
#654=DIRECTION('ref_axis',(1.,0.,2.46932571745989E-16));
#655=DIRECTION('center_axis',(0.,-1.,0.));
#656=DIRECTION('ref_axis',(1.,0.,0.));
#657=DIRECTION('center_axis',(0.,0.,1.));
#658=DIRECTION('ref_axis',(1.,0.,0.));
#659=DIRECTION('center_axis',(2.46932571745989E-16,0.,-1.));
#660=DIRECTION('ref_axis',(1.,0.,2.46932571745989E-16));
#661=DIRECTION('center_axis',(0.,0.,-1.));
#662=DIRECTION('ref_axis',(1.,2.22044604925031E-16,0.));
#663=DIRECTION('center_axis',(0.,0.,1.));
#664=DIRECTION('ref_axis',(0.,-1.,0.));
#665=DIRECTION('',(-0.616308261658112,-2.12323918464676E-16,-0.787505001007585));
#666=DIRECTION('center_axis',(0.,0.,1.));
#667=DIRECTION('ref_axis',(2.22044604925031E-16,-1.,0.));
#668=DIRECTION('',(1.,0.,0.));
#669=DIRECTION('center_axis',(0.,0.,1.));
#670=DIRECTION('ref_axis',(-1.,0.,0.));
#671=DIRECTION('',(1.,0.,0.));
#672=DIRECTION('center_axis',(0.,0.,1.));
#673=DIRECTION('ref_axis',(-1.,0.,0.));
#674=DIRECTION('',(-1.,0.,0.));
#675=DIRECTION('center_axis',(0.,0.,1.));
#676=DIRECTION('ref_axis',(-1.,0.,0.));
#677=DIRECTION('',(-1.,0.,0.));
#678=DIRECTION('center_axis',(0.,0.,1.));
#679=DIRECTION('ref_axis',(-1.,0.,0.));
#680=DIRECTION('center_axis',(0.,0.,1.));
#681=DIRECTION('ref_axis',(1.,0.,0.));
#682=DIRECTION('center_axis',(0.,-1.,0.));
#683=DIRECTION('ref_axis',(-1.,0.,0.));
#684=DIRECTION('center_axis',(0.,0.,-1.));
#685=DIRECTION('ref_axis',(0.,-1.,0.));
#686=DIRECTION('center_axis',(0.,0.,-1.));
#687=DIRECTION('ref_axis',(0.,-1.,0.));
#688=DIRECTION('center_axis',(0.,0.,1.));
#689=DIRECTION('ref_axis',(2.22044604925031E-16,-1.,0.));
#690=DIRECTION('center_axis',(0.,0.,1.));
#691=DIRECTION('ref_axis',(2.22044604925031E-16,-1.,0.));
#692=DIRECTION('',(0.,0.,-1.));
#693=DIRECTION('center_axis',(0.,0.,1.));
#694=DIRECTION('ref_axis',(1.,0.,0.));
#695=DIRECTION('center_axis',(-5.28677630773884E-16,0.,1.));
#696=DIRECTION('ref_axis',(0.,-1.,0.));
#697=DIRECTION('center_axis',(0.,-1.,0.));
#698=DIRECTION('ref_axis',(-1.,0.,0.));
#699=DIRECTION('center_axis',(0.,0.,-1.));
#700=DIRECTION('ref_axis',(0.,-1.,0.));
#701=DIRECTION('center_axis',(0.,0.,-1.));
#702=DIRECTION('ref_axis',(0.,-1.,0.));
#703=DIRECTION('center_axis',(0.,0.,-1.));
#704=DIRECTION('ref_axis',(1.,2.22044604925031E-16,0.));
#705=DIRECTION('center_axis',(0.,0.,-1.));
#706=DIRECTION('ref_axis',(1.,0.,0.));
#707=DIRECTION('',(-0.600000000000001,-2.0670557090386E-16,-0.799999999999999));
#708=DIRECTION('center_axis',(0.,0.,-1.));
#709=DIRECTION('ref_axis',(1.,0.,0.));
#710=DIRECTION('center_axis',(0.,0.,1.));
#711=DIRECTION('ref_axis',(2.22044604925031E-16,-1.,0.));
#712=DIRECTION('',(0.,0.,-1.));
#713=DIRECTION('center_axis',(0.,0.,-1.));
#714=DIRECTION('ref_axis',(2.22044604925031E-16,-1.,0.));
#715=DIRECTION('',(0.,0.,-1.));
#716=DIRECTION('center_axis',(0.,0.,1.));
#717=DIRECTION('ref_axis',(2.22044604925031E-16,-1.,0.));
#718=DIRECTION('',(0.,0.,1.));
#719=DIRECTION('center_axis',(0.,0.,-1.));
#720=DIRECTION('ref_axis',(2.22044604925031E-16,-1.,0.));
#721=DIRECTION('',(0.,0.,-1.));
#722=DIRECTION('center_axis',(0.,0.,1.));
#723=DIRECTION('ref_axis',(2.22044604925031E-16,-1.,0.));
#724=DIRECTION('',(0.,0.,1.));
#725=DIRECTION('center_axis',(0.,0.,-1.));
#726=DIRECTION('ref_axis',(2.22044604925031E-16,-1.,0.));
#727=DIRECTION('center_axis',(0.,0.,-1.));
#728=DIRECTION('ref_axis',(-1.,0.,0.));
#729=DIRECTION('center_axis',(0.,-1.,0.));
#730=DIRECTION('ref_axis',(1.,0.,0.));
#731=DIRECTION('center_axis',(0.,0.,1.));
#732=DIRECTION('ref_axis',(1.,0.,0.));
#733=DIRECTION('center_axis',(0.,0.,1.));
#734=DIRECTION('ref_axis',(2.22044604925031E-16,-1.,0.));
#735=DIRECTION('center_axis',(0.,0.,-1.));
#736=DIRECTION('ref_axis',(-1.,0.,0.));
#737=DIRECTION('',(0.,0.,-1.));
#738=DIRECTION('center_axis',(0.,0.,1.));
#739=DIRECTION('ref_axis',(-1.,0.,0.));
#740=DIRECTION('',(0.,0.,1.));
#741=DIRECTION('center_axis',(0.,0.,1.));
#742=DIRECTION('ref_axis',(-1.,0.,0.));
#743=DIRECTION('center_axis',(0.,0.,-1.));
#744=DIRECTION('ref_axis',(-1.,0.,0.));
#745=DIRECTION('',(0.,0.,1.));
#746=DIRECTION('center_axis',(0.,0.,1.));
#747=DIRECTION('ref_axis',(-1.,0.,0.));
#748=DIRECTION('',(0.,0.,-1.));
#749=DIRECTION('center_axis',(0.,0.,1.));
#750=DIRECTION('ref_axis',(-1.,0.,0.));
#751=DIRECTION('center_axis',(0.,-1.,0.));
#752=DIRECTION('ref_axis',(1.,0.,0.));
#753=DIRECTION('',(0.,0.,1.));
#754=DIRECTION('',(1.,0.,0.));
#755=DIRECTION('',(0.,0.,1.));
#756=DIRECTION('center_axis',(0.,0.,1.));
#757=DIRECTION('ref_axis',(1.,-1.22464679914735E-16,0.));
#758=DIRECTION('center_axis',(0.,0.,1.));
#759=DIRECTION('ref_axis',(-1.,0.,0.));
#760=DIRECTION('',(0.,0.,-1.));
#761=DIRECTION('center_axis',(0.,1.,0.));
#762=DIRECTION('ref_axis',(-1.,0.,0.));
#763=DIRECTION('',(-1.,0.,0.));
#764=DIRECTION('',(0.,0.,-1.));
#765=DIRECTION('center_axis',(0.,0.,1.));
#766=DIRECTION('ref_axis',(-1.,0.,0.));
#767=DIRECTION('',(0.,0.,-1.));
#768=DIRECTION('center_axis',(0.,0.,1.));
#769=DIRECTION('ref_axis',(-1.,0.,0.));
#770=DIRECTION('center_axis',(0.,0.,1.));
#771=DIRECTION('ref_axis',(-1.,0.,0.));
#772=DIRECTION('center_axis',(0.,0.,1.));
#773=DIRECTION('ref_axis',(-1.,0.,0.));
#774=DIRECTION('',(0.,0.,1.));
#775=DIRECTION('center_axis',(0.,0.,1.));
#776=DIRECTION('ref_axis',(-1.,0.,0.));
#777=DIRECTION('center_axis',(0.,0.,-1.));
#778=DIRECTION('ref_axis',(-1.,0.,0.));
#779=DIRECTION('',(0.,0.,-1.));
#780=DIRECTION('center_axis',(0.,0.,-1.));
#781=DIRECTION('ref_axis',(-1.,0.,0.));
#782=DIRECTION('center_axis',(0.,1.,0.));
#783=DIRECTION('ref_axis',(-1.,0.,0.));
#784=DIRECTION('',(-1.,0.,0.));
#785=DIRECTION('',(0.,0.,1.));
#786=DIRECTION('center_axis',(0.,0.,1.));
#787=DIRECTION('ref_axis',(-1.,0.,0.));
#788=DIRECTION('center_axis',(0.,0.,1.));
#789=DIRECTION('ref_axis',(-1.,0.,0.));
#790=DIRECTION('',(0.,0.,-1.));
#791=DIRECTION('center_axis',(0.,-1.,0.));
#792=DIRECTION('ref_axis',(1.,0.,0.));
#793=DIRECTION('',(1.,0.,0.));
#794=DIRECTION('center_axis',(0.,0.,1.));
#795=DIRECTION('ref_axis',(-1.,0.,0.));
#796=DIRECTION('center_axis',(-1.,-2.22044604925031E-16,0.));
#797=DIRECTION('ref_axis',(0.,0.,1.));
#798=DIRECTION('',(2.22044604925031E-16,-1.,0.));
#799=DIRECTION('',(2.22044604925031E-16,-1.,0.));
#800=DIRECTION('center_axis',(1.,2.22044604925031E-16,0.));
#801=DIRECTION('ref_axis',(0.,0.,-1.));
#802=DIRECTION('',(-2.22044604925031E-16,1.,0.));
#803=DIRECTION('',(-2.22044604925031E-16,1.,0.));
#804=DIRECTION('center_axis',(1.,2.22044604925031E-16,0.));
#805=DIRECTION('ref_axis',(0.,0.,-1.));
#806=DIRECTION('',(-2.22044604925031E-16,1.,0.));
#807=DIRECTION('',(-2.22044604925031E-16,1.,0.));
#808=DIRECTION('center_axis',(0.,0.,1.));
#809=DIRECTION('ref_axis',(1.,7.07767178198537E-16,0.));
#810=DIRECTION('center_axis',(0.,0.,1.));
#811=DIRECTION('ref_axis',(1.,7.07767178198537E-16,0.));
#812=DIRECTION('',(2.22044604925031E-16,-1.,0.));
#813=DIRECTION('center_axis',(-1.,-2.22044604925031E-16,0.));
#814=DIRECTION('ref_axis',(0.,0.,1.));
#815=DIRECTION('',(2.22044604925031E-16,-1.,0.));
#816=DIRECTION('center_axis',(0.,0.,-1.));
#817=DIRECTION('ref_axis',(0.,-1.,0.));
#818=DIRECTION('center_axis',(1.,0.,0.));
#819=DIRECTION('ref_axis',(0.,1.,0.));
#820=DIRECTION('center_axis',(0.,0.,-1.));
#821=DIRECTION('ref_axis',(2.22044604925031E-16,-1.,0.));
#822=DIRECTION('center_axis',(0.,0.,1.));
#823=DIRECTION('ref_axis',(2.22044604925031E-16,-1.,0.));
#824=DIRECTION('center_axis',(0.,0.,1.));
#825=DIRECTION('ref_axis',(2.22044604925031E-16,-1.,0.));
#826=DIRECTION('center_axis',(0.,0.,1.));
#827=DIRECTION('ref_axis',(2.22044604925031E-16,-1.,0.));
#828=DIRECTION('center_axis',(0.,0.,1.));
#829=DIRECTION('ref_axis',(2.22044604925031E-16,-1.,0.));
#830=DIRECTION('center_axis',(0.,0.,1.));
#831=DIRECTION('ref_axis',(2.22044604925031E-16,-1.,0.));
#832=DIRECTION('center_axis',(0.,0.,1.));
#833=DIRECTION('ref_axis',(2.22044604925031E-16,-1.,0.));
#834=DIRECTION('',(0.,0.,-1.));
#835=DIRECTION('center_axis',(0.,0.,1.));
#836=DIRECTION('ref_axis',(2.22044604925031E-16,-1.,0.));
#837=CARTESIAN_POINT('',(0.,0.,0.));
#838=CARTESIAN_POINT('Origin',(40.9686969774916,10.4829750469017,8.64));
#839=CARTESIAN_POINT('',(36.4726395445855,10.4829750469017,8.17776880375642));
#840=CARTESIAN_POINT('',(45.4647544103976,10.4829750469017,8.17776880375642));
#841=CARTESIAN_POINT('Origin',(40.9686969774916,10.4829750469017,8.17776880375642));
#842=CARTESIAN_POINT('',(46.0553831611533,10.4829750469017,7.89));
#843=CARTESIAN_POINT('Origin',(46.0553831611533,10.4829750469017,8.64));
#844=CARTESIAN_POINT('Origin',(40.9686969774916,10.4829750469017,7.89));
#845=CARTESIAN_POINT('Origin',(40.9686969774916,10.4829750469017,8.17776880375642));
#846=CARTESIAN_POINT('Origin',(40.9686969774916,10.4829750469017,8.6209259901995));
#847=CARTESIAN_POINT('',(37.3093257282473,10.4829750469017,9.24686781621306));
#848=CARTESIAN_POINT('Origin',(40.9686969774916,10.4829750469017,9.24686781621306));
#849=CARTESIAN_POINT('',(36.8194582122366,10.4829750469017,8.6209259901995));
#850=CARTESIAN_POINT('Origin',(62.4282478411353,-20.7347814137636,7.89));
#851=CARTESIAN_POINT('',(46.9216374273869,11.2329750469017,7.89));
#852=CARTESIAN_POINT('',(47.8066894460456,11.2329750469017,7.89));
#853=CARTESIAN_POINT('',(54.6749426342611,11.2329750469017,7.89));
#854=CARTESIAN_POINT('',(34.1307045089376,11.2329750469017,7.89));
#855=CARTESIAN_POINT('Origin',(40.9686969774916,10.4829750469017,7.89));
#856=CARTESIAN_POINT('',(35.0157565275962,11.2329750469017,7.89));
#857=CARTESIAN_POINT('',(49.2267574176528,11.2329750469017,7.89));
#858=CARTESIAN_POINT('',(35.0157565275962,9.73297504690171,7.89));
#859=CARTESIAN_POINT('Origin',(40.9686969774916,10.4829750469017,7.89));
#860=CARTESIAN_POINT('',(34.1307045089376,9.73297504690172,7.89));
#861=CARTESIAN_POINT('',(48.7220021843658,9.73297504690171,7.89));
#862=CARTESIAN_POINT('',(47.8066894460456,9.73297504690172,7.89));
#863=CARTESIAN_POINT('Origin',(40.9686969774916,10.4829750469017,7.89));
#864=CARTESIAN_POINT('',(46.9216374273869,9.73297504690171,7.89));
#865=CARTESIAN_POINT('',(54.1701874009741,9.73297504690171,7.89));
#866=CARTESIAN_POINT('Origin',(40.9686969774916,10.4829750469017,7.89));
#867=CARTESIAN_POINT('Origin',(40.9686969774916,10.4829750469017,9.70909901245664));
#868=CARTESIAN_POINT('',(37.4686969774916,10.4829750469017,9.70909901245664));
#869=CARTESIAN_POINT('Origin',(36.7186969774916,10.4829750469017,9.70909901245664));
#870=CARTESIAN_POINT('',(40.9686969774916,13.9829750469017,9.70909901245664));
#871=CARTESIAN_POINT('Origin',(40.9686969774916,10.4829750469017,9.70909901245664));
#872=CARTESIAN_POINT('Origin',(40.9686969774916,10.4829750469017,9.70909901245664));
#873=CARTESIAN_POINT('Origin',(40.9686969774916,10.4829750469017,7.99));
#874=CARTESIAN_POINT('',(40.9686969774916,13.9829750469017,10.99));
#875=CARTESIAN_POINT('Origin',(40.9686969774916,10.4829750469017,10.99));
#876=CARTESIAN_POINT('',(40.9686969774916,13.9829750469017,7.99));
#877=CARTESIAN_POINT('Origin',(40.9686969774916,10.4829750469017,7.715));
#878=CARTESIAN_POINT('',(36.7686969774916,10.4829750469017,7.865));
#879=CARTESIAN_POINT('Origin',(40.9686969774916,10.4829750469017,7.865));
#880=CARTESIAN_POINT('',(36.7186969774916,10.4829750469017,7.715));
#881=CARTESIAN_POINT('Origin',(36.9686969774916,10.4829750469017,7.715));
#882=CARTESIAN_POINT('',(40.9686969774916,14.7329750469017,7.715));
#883=CARTESIAN_POINT('Origin',(40.9686969774916,10.4829750469017,7.715));
#884=CARTESIAN_POINT('Origin',(40.9686969774916,10.4829750469017,7.715));
#885=CARTESIAN_POINT('Origin',(40.9686969774916,10.4829750469017,8.357));
#886=CARTESIAN_POINT('',(37.4624469774916,10.4829750469017,8.79));
#887=CARTESIAN_POINT('',(44.4749469774916,10.4829750469017,8.79));
#888=CARTESIAN_POINT('Origin',(40.9686969774916,10.4829750469017,8.79));
#889=CARTESIAN_POINT('',(37.1376969774916,10.4829750469017,8.357));
#890=CARTESIAN_POINT('Origin',(40.9686969774916,10.4829750469017,8.79));
#891=CARTESIAN_POINT('Origin',(40.9686969774916,10.4829750469017,6.89));
#892=CARTESIAN_POINT('',(40.9686969774916,14.7329750469017,7.615));
#893=CARTESIAN_POINT('',(40.9686969774916,14.7329750469017,6.89));
#894=CARTESIAN_POINT('',(41.9686969774916,14.6136529573663,7.615));
#895=CARTESIAN_POINT('Origin',(40.9686969774916,10.4829750469017,7.615));
#896=CARTESIAN_POINT('',(41.9686969774916,14.6136529573663,6.89));
#897=CARTESIAN_POINT('',(41.9686969774916,14.6136529573663,6.89));
#898=CARTESIAN_POINT('',(41.9686969774916,6.35229713643713,6.89));
#899=CARTESIAN_POINT('Origin',(40.9686969774916,10.4829750469017,6.89));
#900=CARTESIAN_POINT('',(41.9686969774916,6.35229713643713,7.615));
#901=CARTESIAN_POINT('',(41.9686969774916,6.35229713643713,6.89));
#902=CARTESIAN_POINT('',(39.9686969774916,6.35229713643713,7.615));
#903=CARTESIAN_POINT('Origin',(40.9686969774916,10.4829750469017,7.615));
#904=CARTESIAN_POINT('',(39.9686969774916,6.35229713643713,6.89));
#905=CARTESIAN_POINT('',(39.9686969774916,6.35229713643713,6.89));
#906=CARTESIAN_POINT('',(39.9686969774916,14.6136529573663,6.89));
#907=CARTESIAN_POINT('Origin',(40.9686969774916,10.4829750469017,6.89));
#908=CARTESIAN_POINT('',(39.9686969774916,14.6136529573663,7.615));
#909=CARTESIAN_POINT('',(39.9686969774916,14.6136529573663,6.89));
#910=CARTESIAN_POINT('Origin',(40.9686969774916,10.4829750469017,7.615));
#911=CARTESIAN_POINT('Origin',(40.9686969774916,10.4829750469017,8.64));
#912=CARTESIAN_POINT('',(44.2749469774916,10.4829750469017,8.89));
#913=CARTESIAN_POINT('Origin',(44.2749469774916,10.4829750469017,8.64));
#914=CARTESIAN_POINT('Origin',(40.9686969774916,10.4829750469017,8.89));
#915=CARTESIAN_POINT('Origin',(62.4282478411353,-20.7347814137636,8.89));
#916=CARTESIAN_POINT('Origin',(40.9686969774916,10.4829750469017,7.89));
#917=CARTESIAN_POINT('',(39.9686969774916,16.6524563865288,7.615));
#918=CARTESIAN_POINT('',(39.9686969774916,16.6524563865288,6.89));
#919=CARTESIAN_POINT('',(39.9686969774916,16.6524563865282,7.89));
#920=CARTESIAN_POINT('',(41.9686969774915,16.6524563865288,6.89));
#921=CARTESIAN_POINT('Origin',(40.9686969774916,10.4829750469017,6.89));
#922=CARTESIAN_POINT('',(41.9686969774915,16.6524563865288,7.615));
#923=CARTESIAN_POINT('',(41.9686969774916,16.6524563865282,7.89));
#924=CARTESIAN_POINT('Origin',(40.9686969774916,10.4829750469017,7.615));
#925=CARTESIAN_POINT('Origin',(40.9686969774916,10.4829750469017,7.89));
#926=CARTESIAN_POINT('',(39.9686969774916,4.31349370727465,6.89));
#927=CARTESIAN_POINT('',(39.9686969774916,4.31349370727465,7.615));
#928=CARTESIAN_POINT('',(39.9686969774916,4.31349370727517,7.89));
#929=CARTESIAN_POINT('',(41.9686969774915,4.31349370727465,7.615));
#930=CARTESIAN_POINT('Origin',(40.9686969774916,10.4829750469017,7.615));
#931=CARTESIAN_POINT('',(41.9686969774915,4.31349370727465,6.89));
#932=CARTESIAN_POINT('',(41.9686969774916,4.31349370727518,7.89));
#933=CARTESIAN_POINT('Origin',(40.9686969774916,10.4829750469017,6.89));
#934=CARTESIAN_POINT('Origin',(45.9121269608129,9.73297504690171,7.89));
#935=CARTESIAN_POINT('',(47.8066894460455,9.73297504690171,8.39));
#936=CARTESIAN_POINT('',(47.8066894460455,9.73297504690171,7.89));
#937=CARTESIAN_POINT('',(46.9216374273869,9.73297504690171,8.39));
#938=CARTESIAN_POINT('',(47.425282762564,9.73297504690171,8.39));
#939=CARTESIAN_POINT('',(46.9216374273869,9.73297504690171,7.89));
#940=CARTESIAN_POINT('Origin',(40.9686969774916,10.4829750469017,7.89));
#941=CARTESIAN_POINT('',(46.9216374273869,11.2329750469017,8.39));
#942=CARTESIAN_POINT('Origin',(40.9686969774916,10.4829750469017,8.39));
#943=CARTESIAN_POINT('',(46.9216374273869,11.2329750469017,7.89));
#944=CARTESIAN_POINT('Origin',(46.9216374273869,11.2329750469017,7.89));
#945=CARTESIAN_POINT('',(47.8066894460455,11.2329750469017,8.39));
#946=CARTESIAN_POINT('',(34.5121111924191,11.2329750469017,8.39));
#947=CARTESIAN_POINT('',(47.8066894460455,11.2329750469017,7.89));
#948=CARTESIAN_POINT('Origin',(40.9686969774916,10.4829750469017,7.89));
#949=CARTESIAN_POINT('',(34.1307045089376,9.73297504690171,8.39));
#950=CARTESIAN_POINT('',(34.1307045089377,9.73297504690171,7.89));
#951=CARTESIAN_POINT('Origin',(40.9686969774916,10.4829750469017,8.39));
#952=CARTESIAN_POINT('Origin',(40.9686969774916,10.4829750469017,7.89));
#953=CARTESIAN_POINT('',(34.1307045089376,11.2329750469017,8.39));
#954=CARTESIAN_POINT('Origin',(40.9686969774916,10.4829750469017,8.39));
#955=CARTESIAN_POINT('',(34.1307045089377,11.2329750469017,7.89));
#956=CARTESIAN_POINT('Origin',(40.9686969774916,10.4829750469017,7.89));
#957=CARTESIAN_POINT('',(48.4686969774916,10.4829750469017,8.39));
#958=CARTESIAN_POINT('Origin',(40.9686969774916,10.4829750469017,8.39));
#959=CARTESIAN_POINT('',(48.4686969774916,10.4829750469017,6.89));
#960=CARTESIAN_POINT('',(48.4686969774916,10.4829750469017,7.89));
#961=CARTESIAN_POINT('Origin',(40.9686969774916,10.4829750469017,6.89));
#962=CARTESIAN_POINT('Origin',(36.0252669941703,11.2329750469017,7.89));
#963=CARTESIAN_POINT('',(35.0157565275962,11.2329750469017,8.39));
#964=CARTESIAN_POINT('',(34.5121111924191,11.2329750469017,8.39));
#965=CARTESIAN_POINT('',(35.0157565275962,11.2329750469017,7.89));
#966=CARTESIAN_POINT('Origin',(40.9686969774916,10.4829750469017,7.89));
#967=CARTESIAN_POINT('',(35.0157565275962,9.73297504690171,8.39));
#968=CARTESIAN_POINT('Origin',(40.9686969774916,10.4829750469017,8.39));
#969=CARTESIAN_POINT('',(35.0157565275962,9.73297504690171,7.89));
#970=CARTESIAN_POINT('Origin',(35.0157565275962,9.73297504690171,7.89));
#971=CARTESIAN_POINT('',(47.425282762564,9.73297504690171,8.39));
#972=CARTESIAN_POINT('Origin',(40.9686969774916,10.4829750469017,8.39));
#973=CARTESIAN_POINT('Origin',(39.9686969774916,-1.4170249530983,5.515));
#974=CARTESIAN_POINT('',(39.9686969774916,-1.4170249530983,7.615));
#975=CARTESIAN_POINT('',(39.9686969774916,-11.0759031834309,6.89));
#976=CARTESIAN_POINT('Origin',(41.9686969774916,-1.4170249530983,7.515));
#977=CARTESIAN_POINT('',(41.9686969774916,-11.0759031834309,6.89));
#978=CARTESIAN_POINT('',(41.9686969774916,-1.4170249530983,7.615));
#979=CARTESIAN_POINT('Origin',(41.9686969774916,-1.4170249530983,7.515));
#980=CARTESIAN_POINT('',(41.9686969774916,-1.4170249530983,7.615));
#981=CARTESIAN_POINT('',(41.9686969774916,-11.0759031834309,6.89));
#982=CARTESIAN_POINT('Origin',(39.9686969774916,-1.4170249530983,7.615));
#983=CARTESIAN_POINT('Origin',(39.9686969774916,-1.4170249530983,7.615));
#984=CARTESIAN_POINT('',(39.9686969774916,-1.4170249530983,7.615));
#985=CARTESIAN_POINT('Origin',(39.9686969774916,-1.4170249530983,5.515));
#986=CARTESIAN_POINT('',(39.9686969774916,-11.0759031834309,6.89));
#987=CARTESIAN_POINT('Origin',(40.9686969774916,10.4829750469017,10.99));
#988=CARTESIAN_POINT('',(40.9686969774916,13.7329750469017,11.24));
#989=CARTESIAN_POINT('Origin',(40.9686969774916,13.7329750469017,10.99));
#990=CARTESIAN_POINT('Origin',(40.9686969774916,10.4829750469017,11.24));
#991=CARTESIAN_POINT('Origin',(62.4282478411353,-20.7347814137636,11.24));
#992=CARTESIAN_POINT('Origin',(62.4282478411353,-20.7347814137636,6.89));
#993=CARTESIAN_POINT('Origin',(62.4282478411353,-20.7347814137636,7.89));
#994=CARTESIAN_POINT('',(40.9686969774916,13.2329750469017,7.89));
#995=CARTESIAN_POINT('Origin',(40.9686969774916,10.4829750469017,7.89));
#996=CARTESIAN_POINT('Origin',(40.9686969774916,10.4829750469017,7.89));
#997=CARTESIAN_POINT('',(40.9686969774916,13.2329750469017,8.89000025272369));
#998=CARTESIAN_POINT('Origin',(40.9686969774916,10.4829750469017,8.89000025272369));
#999=CARTESIAN_POINT('',(40.9686969774916,13.2329750469017,7.89));
#1000=CARTESIAN_POINT('Origin',(62.4282478411353,-20.7347814137636,8.89000025272369));
#1001=UNCERTAINTY_MEASURE_WITH_UNIT(LENGTH_MEASURE(0.01),#1005,
'DISTANCE_ACCURACY_VALUE',
'Maximum model space distance between geometric entities at asserted c
onnectivities');
#1002=UNCERTAINTY_MEASURE_WITH_UNIT(LENGTH_MEASURE(0.01),#1005,
'DISTANCE_ACCURACY_VALUE',
'Maximum model space distance between geometric entities at asserted c
onnectivities');
#1003=(
GEOMETRIC_REPRESENTATION_CONTEXT(3)
GLOBAL_UNCERTAINTY_ASSIGNED_CONTEXT((#1001))
GLOBAL_UNIT_ASSIGNED_CONTEXT((#1005,#1007,#1008))
REPRESENTATION_CONTEXT('','3D')
);
#1004=(
GEOMETRIC_REPRESENTATION_CONTEXT(3)
GLOBAL_UNCERTAINTY_ASSIGNED_CONTEXT((#1002))
GLOBAL_UNIT_ASSIGNED_CONTEXT((#1005,#1007,#1008))
REPRESENTATION_CONTEXT('','3D')
);
#1005=(
LENGTH_UNIT()
NAMED_UNIT(*)
SI_UNIT(.MILLI.,.METRE.)
);
#1006=(
LENGTH_UNIT()
NAMED_UNIT(*)
SI_UNIT($,.METRE.)
);
#1007=(
NAMED_UNIT(*)
PLANE_ANGLE_UNIT()
SI_UNIT($,.RADIAN.)
);
#1008=(
NAMED_UNIT(*)
SI_UNIT($,.STERADIAN.)
SOLID_ANGLE_UNIT()
);
#1009=SHAPE_DEFINITION_REPRESENTATION(#1010,#1011);
#1010=PRODUCT_DEFINITION_SHAPE('',$,#1013);
#1011=SHAPE_REPRESENTATION('',(#574),#1003);
#1012=PRODUCT_DEFINITION_CONTEXT('part definition',#1017,'design');
#1013=PRODUCT_DEFINITION('MainButtonSilicone','MainButtonSilicone',#1014,
#1012);
#1014=PRODUCT_DEFINITION_FORMATION('',$,#1019);
#1015=PRODUCT_RELATED_PRODUCT_CATEGORY('MainButtonSilicone',
'MainButtonSilicone',(#1019));
#1016=APPLICATION_PROTOCOL_DEFINITION('international standard',
'automotive_design',2009,#1017);
#1017=APPLICATION_CONTEXT(
'Core Data for Automotive Mechanical Design Process');
#1018=PRODUCT_CONTEXT('part definition',#1017,'mechanical');
#1019=PRODUCT('MainButtonSilicone','MainButtonSilicone',$,(#1018));
#1020=PRESENTATION_STYLE_ASSIGNMENT((#1023));
#1021=PRESENTATION_STYLE_ASSIGNMENT((#1024));
#1022=PRESENTATION_STYLE_ASSIGNMENT((#1025));
#1023=SURFACE_STYLE_USAGE(.BOTH.,#1026);
#1024=SURFACE_STYLE_USAGE(.BOTH.,#1027);
#1025=SURFACE_STYLE_USAGE(.BOTH.,#1028);
#1026=SURFACE_SIDE_STYLE('',(#1029));
#1027=SURFACE_SIDE_STYLE('',(#1030));
#1028=SURFACE_SIDE_STYLE('',(#1031));
#1029=SURFACE_STYLE_FILL_AREA(#1032);
#1030=SURFACE_STYLE_FILL_AREA(#1033);
#1031=SURFACE_STYLE_FILL_AREA(#1034);
#1032=FILL_AREA_STYLE('Steel - Satin',(#1035));
#1033=FILL_AREA_STYLE('Silicone (White)',(#1036));
#1034=FILL_AREA_STYLE('Coating - Black Oxide',(#1037));
#1035=FILL_AREA_STYLE_COLOUR('Steel - Satin',#1038);
#1036=FILL_AREA_STYLE_COLOUR('Silicone (White)',#1039);
#1037=FILL_AREA_STYLE_COLOUR('Coating - Black Oxide',#1040);
#1038=COLOUR_RGB('Steel - Satin',0.627450980392157,0.627450980392157,0.627450980392157);
#1039=COLOUR_RGB('Silicone (White)',0.87843137254902,0.87843137254902,0.87843137254902);
#1040=COLOUR_RGB('Coating - Black Oxide',0.647058823529412,0.647058823529412,
0.647058823529412);
ENDSEC;
END-ISO-10303-21;
