ISO-10303-21;
HEADER;
/* Generated by software containing ST-Developer
 * from STEP Tools, Inc. (www.steptools.com) 
 */

FILE_DESCRIPTION(
/* description */ (''),
/* implementation_level */ '2;1');

FILE_NAME(
/* name */ 'Silicone Trigger.step',
/* time_stamp */ '2026-09-24T01:33:50-07:00',
/* author */ (''),
/* organization */ (''),
/* preprocessor_version */ 'ST-DEVELOPER v20.2',
/* originating_system */ 'Autodesk Translation Framework v15.15.0.0',
/* authorisation */ '');

FILE_SCHEMA (('AUTOMOTIVE_DESIGN { 1 0 10303 214 3 1 1 }','PROCESS_PLANNING_SCHEMA'));
ENDSEC;

DATA;
#10=MECHANICAL_DESIGN_GEOMETRIC_PRESENTATION_REPRESENTATION('',(#13),#836);
#11=SHAPE_REPRESENTATION_RELATIONSHIP('SRR','None',#843,#12);
#12=ADVANCED_BREP_SHAPE_REPRESENTATION('',(#14),#835);
#13=STYLED_ITEM('',(#853),#14);
#14=MANIFOLD_SOLID_BREP('Body1',#468);
#15=CONICAL_SURFACE('',#534,2.42145201373068,0.606987664046405);
#16=CONICAL_SURFACE('',#536,2.75,0.606987664046405);
#17=FACE_BOUND('',#145,.T.);
#18=FACE_BOUND('',#148,.T.);
#19=FACE_BOUND('',#168,.T.);
#20=PLANE('',#488);
#21=PLANE('',#495);
#22=PLANE('',#496);
#23=PLANE('',#501);
#24=PLANE('',#512);
#25=PLANE('',#517);
#26=PLANE('',#520);
#27=PLANE('',#523);
#28=PLANE('',#526);
#29=PLANE('',#529);
#30=PLANE('',#541);
#31=LINE('',#707,#64);
#32=LINE('',#717,#65);
#33=LINE('',#728,#66);
#34=LINE('',#731,#67);
#35=LINE('',#734,#68);
#36=LINE('',#738,#69);
#37=LINE('',#742,#70);
#38=LINE('',#750,#71);
#39=LINE('',#754,#72);
#40=LINE('',#758,#73);
#41=LINE('',#766,#74);
#42=LINE('',#767,#75);
#43=LINE('',#771,#76);
#44=LINE('',#776,#77);
#45=LINE('',#777,#78);
#46=LINE('',#780,#79);
#47=LINE('',#781,#80);
#48=LINE('',#784,#81);
#49=LINE('',#787,#82);
#50=LINE('',#792,#83);
#51=LINE('',#793,#84);
#52=LINE('',#796,#85);
#53=LINE('',#797,#86);
#54=LINE('',#800,#87);
#55=LINE('',#804,#88);
#56=LINE('',#805,#89);
#57=LINE('',#808,#90);
#58=LINE('',#811,#91);
#59=LINE('',#814,#92);
#60=LINE('',#815,#93);
#61=LINE('',#823,#94);
#62=LINE('',#825,#95);
#63=LINE('',#828,#96);
#64=VECTOR('',#556,1.75);
#65=VECTOR('',#569,2.125);
#66=VECTOR('',#582,10.);
#67=VECTOR('',#585,10.);
#68=VECTOR('',#588,10.);
#69=VECTOR('',#591,10.);
#70=VECTOR('',#594,10.);
#71=VECTOR('',#601,10.);
#72=VECTOR('',#604,10.);
#73=VECTOR('',#607,10.);
#74=VECTOR('',#616,10.);
#75=VECTOR('',#617,10.);
#76=VECTOR('',#622,10.);
#77=VECTOR('',#627,10.);
#78=VECTOR('',#628,10.);
#79=VECTOR('',#631,10.);
#80=VECTOR('',#632,10.);
#81=VECTOR('',#635,10.);
#82=VECTOR('',#640,10.);
#83=VECTOR('',#645,10.);
#84=VECTOR('',#646,10.);
#85=VECTOR('',#649,10.);
#86=VECTOR('',#650,10.);
#87=VECTOR('',#653,10.);
#88=VECTOR('',#658,10.);
#89=VECTOR('',#659,10.);
#90=VECTOR('',#662,10.);
#91=VECTOR('',#665,10.);
#92=VECTOR('',#668,10.);
#93=VECTOR('',#669,10.);
#94=VECTOR('',#682,2.75);
#95=VECTOR('',#685,2.75);
#96=VECTOR('',#688,2.75);
#97=CYLINDRICAL_SURFACE('',#486,1.6);
#98=CYLINDRICAL_SURFACE('',#493,2.125);
#99=CYLINDRICAL_SURFACE('',#498,0.05);
#100=CYLINDRICAL_SURFACE('',#513,0.05);
#101=CYLINDRICAL_SURFACE('',#515,0.05);
#102=CYLINDRICAL_SURFACE('',#518,0.05);
#103=CYLINDRICAL_SURFACE('',#521,0.05);
#104=CYLINDRICAL_SURFACE('',#524,0.05);
#105=CYLINDRICAL_SURFACE('',#527,0.05);
#106=CYLINDRICAL_SURFACE('',#530,0.05);
#107=CYLINDRICAL_SURFACE('',#532,3.75);
#108=CYLINDRICAL_SURFACE('',#537,2.75);
#109=CYLINDRICAL_SURFACE('',#539,3.75);
#110=FACE_OUTER_BOUND('',#138,.T.);
#111=FACE_OUTER_BOUND('',#139,.T.);
#112=FACE_OUTER_BOUND('',#140,.T.);
#113=FACE_OUTER_BOUND('',#141,.T.);
#114=FACE_OUTER_BOUND('',#142,.T.);
#115=FACE_OUTER_BOUND('',#143,.T.);
#116=FACE_OUTER_BOUND('',#144,.T.);
#117=FACE_OUTER_BOUND('',#146,.T.);
#118=FACE_OUTER_BOUND('',#147,.T.);
#119=FACE_OUTER_BOUND('',#149,.T.);
#120=FACE_OUTER_BOUND('',#150,.T.);
#121=FACE_OUTER_BOUND('',#151,.T.);
#122=FACE_OUTER_BOUND('',#152,.T.);
#123=FACE_OUTER_BOUND('',#153,.T.);
#124=FACE_OUTER_BOUND('',#154,.T.);
#125=FACE_OUTER_BOUND('',#155,.T.);
#126=FACE_OUTER_BOUND('',#156,.T.);
#127=FACE_OUTER_BOUND('',#157,.T.);
#128=FACE_OUTER_BOUND('',#158,.T.);
#129=FACE_OUTER_BOUND('',#159,.T.);
#130=FACE_OUTER_BOUND('',#160,.T.);
#131=FACE_OUTER_BOUND('',#161,.T.);
#132=FACE_OUTER_BOUND('',#162,.T.);
#133=FACE_OUTER_BOUND('',#163,.T.);
#134=FACE_OUTER_BOUND('',#164,.T.);
#135=FACE_OUTER_BOUND('',#165,.T.);
#136=FACE_OUTER_BOUND('',#166,.T.);
#137=FACE_OUTER_BOUND('',#167,.T.);
#138=EDGE_LOOP('',(#308,#309,#310,#311));
#139=EDGE_LOOP('',(#312,#313,#314,#315));
#140=EDGE_LOOP('',(#316));
#141=EDGE_LOOP('',(#317,#318,#319,#320));
#142=EDGE_LOOP('',(#321,#322,#323,#324));
#143=EDGE_LOOP('',(#325));
#144=EDGE_LOOP('',(#326));
#145=EDGE_LOOP('',(#327));
#146=EDGE_LOOP('',(#328,#329,#330,#331));
#147=EDGE_LOOP('',(#332,#333,#334,#335,#336,#337,#338,#339,#340,#341,#342,
#343,#344,#345,#346,#347));
#148=EDGE_LOOP('',(#348));
#149=EDGE_LOOP('',(#349,#350,#351,#352));
#150=EDGE_LOOP('',(#353,#354,#355,#356));
#151=EDGE_LOOP('',(#357,#358,#359,#360));
#152=EDGE_LOOP('',(#361,#362,#363,#364));
#153=EDGE_LOOP('',(#365,#366,#367,#368));
#154=EDGE_LOOP('',(#369,#370,#371,#372));
#155=EDGE_LOOP('',(#373,#374,#375,#376));
#156=EDGE_LOOP('',(#377,#378,#379,#380));
#157=EDGE_LOOP('',(#381,#382,#383,#384));
#158=EDGE_LOOP('',(#385,#386,#387,#388));
#159=EDGE_LOOP('',(#389,#390,#391,#392));
#160=EDGE_LOOP('',(#393,#394,#395,#396));
#161=EDGE_LOOP('',(#397,#398,#399,#400));
#162=EDGE_LOOP('',(#401,#402,#403,#404));
#163=EDGE_LOOP('',(#405,#406,#407,#408));
#164=EDGE_LOOP('',(#409,#410,#411,#412));
#165=EDGE_LOOP('',(#413,#414,#415,#416));
#166=EDGE_LOOP('',(#417,#418,#419,#420));
#167=EDGE_LOOP('',(#421,#422,#423,#424,#425,#426,#427,#428,#429,#430,#431,
#432,#433,#434,#435,#436));
#168=EDGE_LOOP('',(#437));
#169=CIRCLE('',#483,1.6);
#170=CIRCLE('',#484,0.15);
#171=CIRCLE('',#485,1.45);
#172=CIRCLE('',#487,1.6);
#173=CIRCLE('',#490,1.875);
#174=CIRCLE('',#491,0.25);
#175=CIRCLE('',#492,2.125);
#176=CIRCLE('',#494,2.125);
#177=CIRCLE('',#497,1.79773095553753);
#178=CIRCLE('',#499,0.05);
#179=CIRCLE('',#500,0.05);
#180=CIRCLE('',#502,0.05);
#181=CIRCLE('',#503,0.05);
#182=CIRCLE('',#504,0.05);
#183=CIRCLE('',#505,3.75);
#184=CIRCLE('',#506,0.05);
#185=CIRCLE('',#507,0.05);
#186=CIRCLE('',#508,0.05);
#187=CIRCLE('',#509,0.05);
#188=CIRCLE('',#510,3.75);
#189=CIRCLE('',#511,2.75);
#190=CIRCLE('',#514,0.05);
#191=CIRCLE('',#516,0.05);
#192=CIRCLE('',#519,0.05);
#193=CIRCLE('',#522,0.05);
#194=CIRCLE('',#525,0.05);
#195=CIRCLE('',#528,0.05);
#196=CIRCLE('',#531,0.05);
#197=CIRCLE('',#533,3.75);
#198=CIRCLE('',#535,2.75);
#199=CIRCLE('',#538,2.75);
#200=CIRCLE('',#540,3.75);
#201=VERTEX_POINT('',#699);
#202=VERTEX_POINT('',#701);
#203=VERTEX_POINT('',#705);
#204=VERTEX_POINT('',#710);
#205=VERTEX_POINT('',#712);
#206=VERTEX_POINT('',#716);
#207=VERTEX_POINT('',#721);
#208=VERTEX_POINT('',#724);
#209=VERTEX_POINT('',#725);
#210=VERTEX_POINT('',#727);
#211=VERTEX_POINT('',#729);
#212=VERTEX_POINT('',#733);
#213=VERTEX_POINT('',#735);
#214=VERTEX_POINT('',#737);
#215=VERTEX_POINT('',#739);
#216=VERTEX_POINT('',#741);
#217=VERTEX_POINT('',#743);
#218=VERTEX_POINT('',#745);
#219=VERTEX_POINT('',#747);
#220=VERTEX_POINT('',#749);
#221=VERTEX_POINT('',#751);
#222=VERTEX_POINT('',#753);
#223=VERTEX_POINT('',#755);
#224=VERTEX_POINT('',#757);
#225=VERTEX_POINT('',#759);
#226=VERTEX_POINT('',#762);
#227=VERTEX_POINT('',#765);
#228=VERTEX_POINT('',#769);
#229=VERTEX_POINT('',#773);
#230=VERTEX_POINT('',#774);
#231=VERTEX_POINT('',#779);
#232=VERTEX_POINT('',#783);
#233=VERTEX_POINT('',#789);
#234=VERTEX_POINT('',#790);
#235=VERTEX_POINT('',#795);
#236=VERTEX_POINT('',#799);
#237=VERTEX_POINT('',#803);
#238=VERTEX_POINT('',#807);
#239=VERTEX_POINT('',#809);
#240=VERTEX_POINT('',#813);
#241=VERTEX_POINT('',#821);
#242=VERTEX_POINT('',#827);
#243=EDGE_CURVE('',#201,#201,#169,.T.);
#244=EDGE_CURVE('',#201,#202,#170,.T.);
#245=EDGE_CURVE('',#202,#202,#171,.T.);
#246=EDGE_CURVE('',#203,#203,#172,.T.);
#247=EDGE_CURVE('',#203,#201,#31,.T.);
#248=EDGE_CURVE('',#204,#204,#173,.T.);
#249=EDGE_CURVE('',#204,#205,#174,.T.);
#250=EDGE_CURVE('',#205,#205,#175,.T.);
#251=EDGE_CURVE('',#205,#206,#32,.T.);
#252=EDGE_CURVE('',#206,#206,#176,.T.);
#253=EDGE_CURVE('',#207,#207,#177,.T.);
#254=EDGE_CURVE('',#208,#209,#178,.T.);
#255=EDGE_CURVE('',#209,#210,#33,.T.);
#256=EDGE_CURVE('',#210,#211,#179,.T.);
#257=EDGE_CURVE('',#211,#208,#34,.T.);
#258=EDGE_CURVE('',#208,#212,#35,.T.);
#259=EDGE_CURVE('',#213,#212,#180,.T.);
#260=EDGE_CURVE('',#213,#214,#36,.T.);
#261=EDGE_CURVE('',#215,#214,#181,.T.);
#262=EDGE_CURVE('',#215,#216,#37,.T.);
#263=EDGE_CURVE('',#217,#216,#182,.T.);
#264=EDGE_CURVE('',#217,#218,#183,.T.);
#265=EDGE_CURVE('',#219,#218,#184,.T.);
#266=EDGE_CURVE('',#219,#220,#38,.T.);
#267=EDGE_CURVE('',#221,#220,#185,.T.);
#268=EDGE_CURVE('',#221,#222,#39,.T.);
#269=EDGE_CURVE('',#223,#222,#186,.T.);
#270=EDGE_CURVE('',#223,#224,#40,.T.);
#271=EDGE_CURVE('',#225,#224,#187,.T.);
#272=EDGE_CURVE('',#225,#209,#188,.T.);
#273=EDGE_CURVE('',#226,#226,#189,.T.);
#274=EDGE_CURVE('',#227,#211,#41,.T.);
#275=EDGE_CURVE('',#212,#227,#42,.T.);
#276=EDGE_CURVE('',#227,#228,#190,.T.);
#277=EDGE_CURVE('',#228,#213,#43,.T.);
#278=EDGE_CURVE('',#229,#230,#191,.T.);
#279=EDGE_CURVE('',#230,#217,#44,.T.);
#280=EDGE_CURVE('',#216,#229,#45,.T.);
#281=EDGE_CURVE('',#231,#215,#46,.T.);
#282=EDGE_CURVE('',#229,#231,#47,.T.);
#283=EDGE_CURVE('',#214,#232,#48,.T.);
#284=EDGE_CURVE('',#232,#231,#192,.T.);
#285=EDGE_CURVE('',#232,#228,#49,.T.);
#286=EDGE_CURVE('',#233,#234,#193,.T.);
#287=EDGE_CURVE('',#234,#225,#50,.T.);
#288=EDGE_CURVE('',#224,#233,#51,.T.);
#289=EDGE_CURVE('',#235,#223,#52,.T.);
#290=EDGE_CURVE('',#233,#235,#53,.T.);
#291=EDGE_CURVE('',#222,#236,#54,.T.);
#292=EDGE_CURVE('',#236,#235,#194,.T.);
#293=EDGE_CURVE('',#237,#221,#55,.T.);
#294=EDGE_CURVE('',#236,#237,#56,.T.);
#295=EDGE_CURVE('',#218,#238,#57,.T.);
#296=EDGE_CURVE('',#238,#239,#195,.T.);
#297=EDGE_CURVE('',#239,#219,#58,.T.);
#298=EDGE_CURVE('',#240,#239,#59,.T.);
#299=EDGE_CURVE('',#220,#240,#60,.T.);
#300=EDGE_CURVE('',#240,#237,#196,.T.);
#301=EDGE_CURVE('',#230,#238,#197,.T.);
#302=EDGE_CURVE('',#241,#241,#198,.T.);
#303=EDGE_CURVE('',#241,#207,#61,.T.);
#304=EDGE_CURVE('',#206,#226,#62,.T.);
#305=EDGE_CURVE('',#241,#242,#63,.T.);
#306=EDGE_CURVE('',#242,#242,#199,.T.);
#307=EDGE_CURVE('',#234,#210,#200,.T.);
#308=ORIENTED_EDGE('',*,*,#243,.T.);
#309=ORIENTED_EDGE('',*,*,#244,.T.);
#310=ORIENTED_EDGE('',*,*,#245,.T.);
#311=ORIENTED_EDGE('',*,*,#244,.F.);
#312=ORIENTED_EDGE('',*,*,#246,.T.);
#313=ORIENTED_EDGE('',*,*,#247,.T.);
#314=ORIENTED_EDGE('',*,*,#243,.F.);
#315=ORIENTED_EDGE('',*,*,#247,.F.);
#316=ORIENTED_EDGE('',*,*,#245,.F.);
#317=ORIENTED_EDGE('',*,*,#248,.T.);
#318=ORIENTED_EDGE('',*,*,#249,.T.);
#319=ORIENTED_EDGE('',*,*,#250,.T.);
#320=ORIENTED_EDGE('',*,*,#249,.F.);
#321=ORIENTED_EDGE('',*,*,#250,.F.);
#322=ORIENTED_EDGE('',*,*,#251,.T.);
#323=ORIENTED_EDGE('',*,*,#252,.F.);
#324=ORIENTED_EDGE('',*,*,#251,.F.);
#325=ORIENTED_EDGE('',*,*,#248,.F.);
#326=ORIENTED_EDGE('',*,*,#253,.F.);
#327=ORIENTED_EDGE('',*,*,#246,.F.);
#328=ORIENTED_EDGE('',*,*,#254,.T.);
#329=ORIENTED_EDGE('',*,*,#255,.T.);
#330=ORIENTED_EDGE('',*,*,#256,.T.);
#331=ORIENTED_EDGE('',*,*,#257,.T.);
#332=ORIENTED_EDGE('',*,*,#254,.F.);
#333=ORIENTED_EDGE('',*,*,#258,.T.);
#334=ORIENTED_EDGE('',*,*,#259,.F.);
#335=ORIENTED_EDGE('',*,*,#260,.T.);
#336=ORIENTED_EDGE('',*,*,#261,.F.);
#337=ORIENTED_EDGE('',*,*,#262,.T.);
#338=ORIENTED_EDGE('',*,*,#263,.F.);
#339=ORIENTED_EDGE('',*,*,#264,.T.);
#340=ORIENTED_EDGE('',*,*,#265,.F.);
#341=ORIENTED_EDGE('',*,*,#266,.T.);
#342=ORIENTED_EDGE('',*,*,#267,.F.);
#343=ORIENTED_EDGE('',*,*,#268,.T.);
#344=ORIENTED_EDGE('',*,*,#269,.F.);
#345=ORIENTED_EDGE('',*,*,#270,.T.);
#346=ORIENTED_EDGE('',*,*,#271,.F.);
#347=ORIENTED_EDGE('',*,*,#272,.T.);
#348=ORIENTED_EDGE('',*,*,#273,.T.);
#349=ORIENTED_EDGE('',*,*,#257,.F.);
#350=ORIENTED_EDGE('',*,*,#274,.F.);
#351=ORIENTED_EDGE('',*,*,#275,.F.);
#352=ORIENTED_EDGE('',*,*,#258,.F.);
#353=ORIENTED_EDGE('',*,*,#259,.T.);
#354=ORIENTED_EDGE('',*,*,#275,.T.);
#355=ORIENTED_EDGE('',*,*,#276,.T.);
#356=ORIENTED_EDGE('',*,*,#277,.T.);
#357=ORIENTED_EDGE('',*,*,#278,.T.);
#358=ORIENTED_EDGE('',*,*,#279,.T.);
#359=ORIENTED_EDGE('',*,*,#263,.T.);
#360=ORIENTED_EDGE('',*,*,#280,.T.);
#361=ORIENTED_EDGE('',*,*,#280,.F.);
#362=ORIENTED_EDGE('',*,*,#262,.F.);
#363=ORIENTED_EDGE('',*,*,#281,.F.);
#364=ORIENTED_EDGE('',*,*,#282,.F.);
#365=ORIENTED_EDGE('',*,*,#261,.T.);
#366=ORIENTED_EDGE('',*,*,#283,.T.);
#367=ORIENTED_EDGE('',*,*,#284,.T.);
#368=ORIENTED_EDGE('',*,*,#281,.T.);
#369=ORIENTED_EDGE('',*,*,#277,.F.);
#370=ORIENTED_EDGE('',*,*,#285,.F.);
#371=ORIENTED_EDGE('',*,*,#283,.F.);
#372=ORIENTED_EDGE('',*,*,#260,.F.);
#373=ORIENTED_EDGE('',*,*,#286,.T.);
#374=ORIENTED_EDGE('',*,*,#287,.T.);
#375=ORIENTED_EDGE('',*,*,#271,.T.);
#376=ORIENTED_EDGE('',*,*,#288,.T.);
#377=ORIENTED_EDGE('',*,*,#288,.F.);
#378=ORIENTED_EDGE('',*,*,#270,.F.);
#379=ORIENTED_EDGE('',*,*,#289,.F.);
#380=ORIENTED_EDGE('',*,*,#290,.F.);
#381=ORIENTED_EDGE('',*,*,#269,.T.);
#382=ORIENTED_EDGE('',*,*,#291,.T.);
#383=ORIENTED_EDGE('',*,*,#292,.T.);
#384=ORIENTED_EDGE('',*,*,#289,.T.);
#385=ORIENTED_EDGE('',*,*,#291,.F.);
#386=ORIENTED_EDGE('',*,*,#268,.F.);
#387=ORIENTED_EDGE('',*,*,#293,.F.);
#388=ORIENTED_EDGE('',*,*,#294,.F.);
#389=ORIENTED_EDGE('',*,*,#265,.T.);
#390=ORIENTED_EDGE('',*,*,#295,.T.);
#391=ORIENTED_EDGE('',*,*,#296,.T.);
#392=ORIENTED_EDGE('',*,*,#297,.T.);
#393=ORIENTED_EDGE('',*,*,#297,.F.);
#394=ORIENTED_EDGE('',*,*,#298,.F.);
#395=ORIENTED_EDGE('',*,*,#299,.F.);
#396=ORIENTED_EDGE('',*,*,#266,.F.);
#397=ORIENTED_EDGE('',*,*,#267,.T.);
#398=ORIENTED_EDGE('',*,*,#299,.T.);
#399=ORIENTED_EDGE('',*,*,#300,.T.);
#400=ORIENTED_EDGE('',*,*,#293,.T.);
#401=ORIENTED_EDGE('',*,*,#279,.F.);
#402=ORIENTED_EDGE('',*,*,#301,.T.);
#403=ORIENTED_EDGE('',*,*,#295,.F.);
#404=ORIENTED_EDGE('',*,*,#264,.F.);
#405=ORIENTED_EDGE('',*,*,#302,.F.);
#406=ORIENTED_EDGE('',*,*,#303,.T.);
#407=ORIENTED_EDGE('',*,*,#253,.T.);
#408=ORIENTED_EDGE('',*,*,#303,.F.);
#409=ORIENTED_EDGE('',*,*,#252,.T.);
#410=ORIENTED_EDGE('',*,*,#304,.T.);
#411=ORIENTED_EDGE('',*,*,#273,.F.);
#412=ORIENTED_EDGE('',*,*,#304,.F.);
#413=ORIENTED_EDGE('',*,*,#302,.T.);
#414=ORIENTED_EDGE('',*,*,#305,.T.);
#415=ORIENTED_EDGE('',*,*,#306,.F.);
#416=ORIENTED_EDGE('',*,*,#305,.F.);
#417=ORIENTED_EDGE('',*,*,#255,.F.);
#418=ORIENTED_EDGE('',*,*,#272,.F.);
#419=ORIENTED_EDGE('',*,*,#287,.F.);
#420=ORIENTED_EDGE('',*,*,#307,.T.);
#421=ORIENTED_EDGE('',*,*,#256,.F.);
#422=ORIENTED_EDGE('',*,*,#307,.F.);
#423=ORIENTED_EDGE('',*,*,#286,.F.);
#424=ORIENTED_EDGE('',*,*,#290,.T.);
#425=ORIENTED_EDGE('',*,*,#292,.F.);
#426=ORIENTED_EDGE('',*,*,#294,.T.);
#427=ORIENTED_EDGE('',*,*,#300,.F.);
#428=ORIENTED_EDGE('',*,*,#298,.T.);
#429=ORIENTED_EDGE('',*,*,#296,.F.);
#430=ORIENTED_EDGE('',*,*,#301,.F.);
#431=ORIENTED_EDGE('',*,*,#278,.F.);
#432=ORIENTED_EDGE('',*,*,#282,.T.);
#433=ORIENTED_EDGE('',*,*,#284,.F.);
#434=ORIENTED_EDGE('',*,*,#285,.T.);
#435=ORIENTED_EDGE('',*,*,#276,.F.);
#436=ORIENTED_EDGE('',*,*,#274,.T.);
#437=ORIENTED_EDGE('',*,*,#306,.T.);
#438=TOROIDAL_SURFACE('',#482,1.45,0.15);
#439=TOROIDAL_SURFACE('',#489,1.875,0.25);
#440=ADVANCED_FACE('',(#110),#438,.T.);
#441=ADVANCED_FACE('',(#111),#97,.T.);
#442=ADVANCED_FACE('',(#112),#20,.F.);
#443=ADVANCED_FACE('',(#113),#439,.T.);
#444=ADVANCED_FACE('',(#114),#98,.T.);
#445=ADVANCED_FACE('',(#115),#21,.T.);
#446=ADVANCED_FACE('',(#116,#17),#22,.F.);
#447=ADVANCED_FACE('',(#117),#99,.T.);
#448=ADVANCED_FACE('',(#118,#18),#23,.T.);
#449=ADVANCED_FACE('',(#119),#24,.F.);
#450=ADVANCED_FACE('',(#120),#100,.F.);
#451=ADVANCED_FACE('',(#121),#101,.T.);
#452=ADVANCED_FACE('',(#122),#25,.F.);
#453=ADVANCED_FACE('',(#123),#102,.F.);
#454=ADVANCED_FACE('',(#124),#26,.F.);
#455=ADVANCED_FACE('',(#125),#103,.T.);
#456=ADVANCED_FACE('',(#126),#27,.F.);
#457=ADVANCED_FACE('',(#127),#104,.F.);
#458=ADVANCED_FACE('',(#128),#28,.F.);
#459=ADVANCED_FACE('',(#129),#105,.T.);
#460=ADVANCED_FACE('',(#130),#29,.F.);
#461=ADVANCED_FACE('',(#131),#106,.F.);
#462=ADVANCED_FACE('',(#132),#107,.T.);
#463=ADVANCED_FACE('',(#133),#15,.F.);
#464=ADVANCED_FACE('',(#134),#16,.T.);
#465=ADVANCED_FACE('',(#135),#108,.F.);
#466=ADVANCED_FACE('',(#136),#109,.T.);
#467=ADVANCED_FACE('',(#137,#19),#30,.F.);
#468=CLOSED_SHELL('',(#440,#441,#442,#443,#444,#445,#446,#447,#448,#449,
#450,#451,#452,#453,#454,#455,#456,#457,#458,#459,#460,#461,#462,#463,#464,
#465,#466,#467));
#469=DERIVED_UNIT_ELEMENT(#471,1.);
#470=DERIVED_UNIT_ELEMENT(#838,-3.);
#471=(
MASS_UNIT()
NAMED_UNIT(*)
SI_UNIT(.KILO.,.GRAM.)
);
#472=DERIVED_UNIT((#469,#470));
#473=MEASURE_REPRESENTATION_ITEM('density measure',
POSITIVE_RATIO_MEASURE(7850.),#472);
#474=PROPERTY_DEFINITION_REPRESENTATION(#479,#476);
#475=PROPERTY_DEFINITION_REPRESENTATION(#480,#477);
#476=REPRESENTATION('material name',(#478),#835);
#477=REPRESENTATION('density',(#473),#835);
#478=DESCRIPTIVE_REPRESENTATION_ITEM('Steel','Steel');
#479=PROPERTY_DEFINITION('material property','material name',#845);
#480=PROPERTY_DEFINITION('material property','density of part',#845);
#481=AXIS2_PLACEMENT_3D('',#697,#542,#543);
#482=AXIS2_PLACEMENT_3D('',#698,#544,#545);
#483=AXIS2_PLACEMENT_3D('',#700,#546,#547);
#484=AXIS2_PLACEMENT_3D('',#702,#548,#549);
#485=AXIS2_PLACEMENT_3D('',#703,#550,#551);
#486=AXIS2_PLACEMENT_3D('',#704,#552,#553);
#487=AXIS2_PLACEMENT_3D('',#706,#554,#555);
#488=AXIS2_PLACEMENT_3D('',#708,#557,#558);
#489=AXIS2_PLACEMENT_3D('',#709,#559,#560);
#490=AXIS2_PLACEMENT_3D('',#711,#561,#562);
#491=AXIS2_PLACEMENT_3D('',#713,#563,#564);
#492=AXIS2_PLACEMENT_3D('',#714,#565,#566);
#493=AXIS2_PLACEMENT_3D('',#715,#567,#568);
#494=AXIS2_PLACEMENT_3D('',#718,#570,#571);
#495=AXIS2_PLACEMENT_3D('',#719,#572,#573);
#496=AXIS2_PLACEMENT_3D('',#720,#574,#575);
#497=AXIS2_PLACEMENT_3D('',#722,#576,#577);
#498=AXIS2_PLACEMENT_3D('',#723,#578,#579);
#499=AXIS2_PLACEMENT_3D('',#726,#580,#581);
#500=AXIS2_PLACEMENT_3D('',#730,#583,#584);
#501=AXIS2_PLACEMENT_3D('',#732,#586,#587);
#502=AXIS2_PLACEMENT_3D('',#736,#589,#590);
#503=AXIS2_PLACEMENT_3D('',#740,#592,#593);
#504=AXIS2_PLACEMENT_3D('',#744,#595,#596);
#505=AXIS2_PLACEMENT_3D('',#746,#597,#598);
#506=AXIS2_PLACEMENT_3D('',#748,#599,#600);
#507=AXIS2_PLACEMENT_3D('',#752,#602,#603);
#508=AXIS2_PLACEMENT_3D('',#756,#605,#606);
#509=AXIS2_PLACEMENT_3D('',#760,#608,#609);
#510=AXIS2_PLACEMENT_3D('',#761,#610,#611);
#511=AXIS2_PLACEMENT_3D('',#763,#612,#613);
#512=AXIS2_PLACEMENT_3D('',#764,#614,#615);
#513=AXIS2_PLACEMENT_3D('',#768,#618,#619);
#514=AXIS2_PLACEMENT_3D('',#770,#620,#621);
#515=AXIS2_PLACEMENT_3D('',#772,#623,#624);
#516=AXIS2_PLACEMENT_3D('',#775,#625,#626);
#517=AXIS2_PLACEMENT_3D('',#778,#629,#630);
#518=AXIS2_PLACEMENT_3D('',#782,#633,#634);
#519=AXIS2_PLACEMENT_3D('',#785,#636,#637);
#520=AXIS2_PLACEMENT_3D('',#786,#638,#639);
#521=AXIS2_PLACEMENT_3D('',#788,#641,#642);
#522=AXIS2_PLACEMENT_3D('',#791,#643,#644);
#523=AXIS2_PLACEMENT_3D('',#794,#647,#648);
#524=AXIS2_PLACEMENT_3D('',#798,#651,#652);
#525=AXIS2_PLACEMENT_3D('',#801,#654,#655);
#526=AXIS2_PLACEMENT_3D('',#802,#656,#657);
#527=AXIS2_PLACEMENT_3D('',#806,#660,#661);
#528=AXIS2_PLACEMENT_3D('',#810,#663,#664);
#529=AXIS2_PLACEMENT_3D('',#812,#666,#667);
#530=AXIS2_PLACEMENT_3D('',#816,#670,#671);
#531=AXIS2_PLACEMENT_3D('',#817,#672,#673);
#532=AXIS2_PLACEMENT_3D('',#818,#674,#675);
#533=AXIS2_PLACEMENT_3D('',#819,#676,#677);
#534=AXIS2_PLACEMENT_3D('',#820,#678,#679);
#535=AXIS2_PLACEMENT_3D('',#822,#680,#681);
#536=AXIS2_PLACEMENT_3D('',#824,#683,#684);
#537=AXIS2_PLACEMENT_3D('',#826,#686,#687);
#538=AXIS2_PLACEMENT_3D('',#829,#689,#690);
#539=AXIS2_PLACEMENT_3D('',#830,#691,#692);
#540=AXIS2_PLACEMENT_3D('',#831,#693,#694);
#541=AXIS2_PLACEMENT_3D('',#832,#695,#696);
#542=DIRECTION('axis',(0.,0.,1.));
#543=DIRECTION('refdir',(1.,0.,0.));
#544=DIRECTION('center_axis',(-0.0436156503866028,-0.998962630697031,0.0130895955713441));
#545=DIRECTION('ref_axis',(0.,-0.0131020636951629,-0.999914164279578));
#546=DIRECTION('center_axis',(0.0436156503866028,0.998962630697031,-0.0130895955713441));
#547=DIRECTION('ref_axis',(8.39579057318462E-16,-0.0131020636951611,-0.999914164279579));
#548=DIRECTION('center_axis',(-0.99904838473487,0.0436119066058303,-0.000571455029471153));
#549=DIRECTION('ref_axis',(0.,0.0131020636951612,0.999914164279579));
#550=DIRECTION('center_axis',(-0.0436156503866028,-0.998962630697031,0.0130895955713441));
#551=DIRECTION('ref_axis',(8.4003563287753E-16,-0.0131020636951611,-0.999914164279578));
#552=DIRECTION('center_axis',(-0.0436156503866025,-0.998962630697031,0.0130895955713438));
#553=DIRECTION('ref_axis',(-2.3866555054554E-17,-0.0131020636951608,-0.999914164279579));
#554=DIRECTION('center_axis',(0.0436156503866029,0.998962630697031,-0.0130895955713441));
#555=DIRECTION('ref_axis',(-2.3866555054554E-17,-0.0131020636951608,-0.999914164279579));
#556=DIRECTION('',(0.0436156503866025,0.998962630697031,-0.0130895955713438));
#557=DIRECTION('center_axis',(-0.0436156503866028,-0.998962630697031,0.0130895955713441));
#558=DIRECTION('ref_axis',(-3.6404678978688E-17,-0.0131020636951611,-0.999914164279579));
#559=DIRECTION('center_axis',(-0.0436156503866029,-0.998962630697031,0.0130895955713441));
#560=DIRECTION('ref_axis',(0.,-0.0131020636951609,-0.999914164279579));
#561=DIRECTION('center_axis',(0.0436156503866029,0.998962630697031,-0.0130895955713441));
#562=DIRECTION('ref_axis',(-2.97133993972491E-16,-0.0131020636951611,-0.999914164279579));
#563=DIRECTION('center_axis',(-0.99904838473487,0.0436119066058303,-0.000571455029471157));
#564=DIRECTION('ref_axis',(0.,0.0131020636951613,0.999914164279579));
#565=DIRECTION('center_axis',(-0.0436156503866029,-0.998962630697031,0.0130895955713441));
#566=DIRECTION('ref_axis',(-2.95923416490161E-16,-0.013102063695161,-0.999914164279578));
#567=DIRECTION('center_axis',(-0.0436156503866033,-0.998962630697031,0.0130895955713441));
#568=DIRECTION('ref_axis',(-3.6938757279716E-17,-0.0131020636951611,-0.999914164279578));
#569=DIRECTION('',(0.0436156503866033,0.998962630697031,-0.0130895955713441));
#570=DIRECTION('center_axis',(0.0436156503866028,0.998962630697031,-0.0130895955713441));
#571=DIRECTION('ref_axis',(-3.6938757279716E-17,-0.0131020636951611,-0.999914164279578));
#572=DIRECTION('center_axis',(-0.0436156503866029,-0.998962630697031,0.0130895955713441));
#573=DIRECTION('ref_axis',(-3.64955928085909E-17,-0.0131020636951611,-0.999914164279578));
#574=DIRECTION('center_axis',(-0.0436156503866029,-0.998962630697031,0.0130895955713441));
#575=DIRECTION('ref_axis',(-3.61703600758277E-17,-0.0131020636951611,-0.999914164279578));
#576=DIRECTION('center_axis',(-0.0436156503866029,-0.998962630697031,0.0130895955713441));
#577=DIRECTION('ref_axis',(-3.63551100073553E-17,-0.0131020636951611,-0.999914164279579));
#578=DIRECTION('center_axis',(-0.0436156503866014,-0.998962630697031,0.013089595571344));
#579=DIRECTION('ref_axis',(0.835478638860008,-0.0292875164945674,0.548741911454018));
#580=DIRECTION('center_axis',(0.0436156503866028,0.998962630697031,-0.0130895955713441));
#581=DIRECTION('ref_axis',(0.835478638860008,-0.0292875164945674,0.548741911454018));
#582=DIRECTION('',(0.0436156503866014,0.998962630697031,-0.0130895955713439));
#583=DIRECTION('center_axis',(-0.0436156503866028,-0.998962630697031,0.0130895955713441));
#584=DIRECTION('ref_axis',(0.835478638860008,-0.0292875164945674,0.548741911454018));
#585=DIRECTION('',(-0.0436156503866014,-0.998962630697031,0.013089595571344));
#586=DIRECTION('center_axis',(-0.0436156503866028,-0.998962630697031,0.0130895955713441));
#587=DIRECTION('ref_axis',(-3.61878571568458E-17,-0.0131020636951611,-0.999914164279578));
#588=DIRECTION('',(-0.999048221581858,0.0436193873653388,1.0842021724855E-19));
#589=DIRECTION('center_axis',(-0.0436156503866028,-0.998962630697031,0.0130895955713441));
#590=DIRECTION('ref_axis',(-0.706837501999449,0.0215966322209865,-0.707046201633169));
#591=DIRECTION('',(0.00057096013968208,0.0130771371767771,0.999914327574007));
#592=DIRECTION('center_axis',(-0.0436156503866028,-0.998962630697031,0.0130895955713441));
#593=DIRECTION('ref_axis',(-0.706030042426337,0.0400904969734602,0.707046201633165));
#594=DIRECTION('',(0.999048221581858,-0.0436193873653388,-1.0842021724855E-19));
#595=DIRECTION('center_axis',(0.0436156503866028,0.998962630697031,-0.0130895955713441));
#596=DIRECTION('ref_axis',(0.83647914910726,-0.0436791534361439,-0.546255219347052));
#597=DIRECTION('center_axis',(-0.0436156503866028,-0.998962630697031,0.0130895955713441));
#598=DIRECTION('ref_axis',(-3.61878571568458E-17,-0.0131020636951611,-0.999914164279579));
#599=DIRECTION('center_axis',(0.0436156503866028,0.998962630697031,-0.0130895955713441));
#600=DIRECTION('ref_axis',(-0.835478638859987,0.0292875164946476,-0.548741911454044));
#601=DIRECTION('',(0.999048221581858,-0.0436193873653388,-1.0842021724855E-19));
#602=DIRECTION('center_axis',(-0.0436156503866028,-0.998962630697031,0.0130895955713441));
#603=DIRECTION('ref_axis',(0.706837501999464,-0.0215966322209869,0.707046201633153));
#604=DIRECTION('',(-0.00057096013968208,-0.0130771371767771,-0.999914327574007));
#605=DIRECTION('center_axis',(-0.0436156503866028,-0.998962630697031,0.0130895955713441));
#606=DIRECTION('ref_axis',(0.706030042426337,-0.0400904969734602,-0.707046201633165));
#607=DIRECTION('',(-0.999048221581858,0.0436193873653388,1.0842021724855E-19));
#608=DIRECTION('center_axis',(0.0436156503866028,0.998962630697031,-0.0130895955713441));
#609=DIRECTION('ref_axis',(-0.836479149107263,0.0436791534360628,0.546255219347054));
#610=DIRECTION('center_axis',(-0.0436156503866028,-0.998962630697031,0.0130895955713441));
#611=DIRECTION('ref_axis',(-3.61878571568458E-17,-0.0131020636951611,-0.999914164279579));
#612=DIRECTION('center_axis',(0.0436156503866028,0.998962630697031,-0.0130895955713441));
#613=DIRECTION('ref_axis',(-3.61878571568458E-17,-0.0131020636951611,-0.999914164279578));
#614=DIRECTION('center_axis',(-0.000570960139682075,-0.0130771371767769,
-0.999914327574007));
#615=DIRECTION('ref_axis',(-0.999048221581858,0.0436193873653388,0.));
#616=DIRECTION('',(0.999048221581858,-0.0436193873653388,0.));
#617=DIRECTION('',(0.0436156503866015,0.998962630697031,-0.0130895955713439));
#618=DIRECTION('center_axis',(0.0436156503866015,0.998962630697031,-0.013089595571344));
#619=DIRECTION('ref_axis',(-0.706837501999449,0.0215966322209865,-0.707046201633169));
#620=DIRECTION('center_axis',(0.0436156503866028,0.998962630697031,-0.0130895955713441));
#621=DIRECTION('ref_axis',(-0.706837501999449,0.0215966322209865,-0.707046201633169));
#622=DIRECTION('',(-0.0436156503866015,-0.998962630697031,0.0130895955713439));
#623=DIRECTION('center_axis',(0.0436156503866014,0.998962630697031,-0.013089595571344));
#624=DIRECTION('ref_axis',(0.83647914910726,-0.0436791534361439,-0.546255219347052));
#625=DIRECTION('center_axis',(-0.0436156503866028,-0.998962630697031,0.0130895955713441));
#626=DIRECTION('ref_axis',(0.83647914910726,-0.0436791534361439,-0.546255219347052));
#627=DIRECTION('',(-0.0436156503866014,-0.998962630697031,0.0130895955713439));
#628=DIRECTION('',(0.0436156503866014,0.998962630697031,-0.013089595571344));
#629=DIRECTION('center_axis',(0.000570960139682075,0.0130771371767769,0.999914327574007));
#630=DIRECTION('ref_axis',(0.999048221581858,-0.0436193873653388,0.));
#631=DIRECTION('',(-0.0436156503866015,-0.998962630697031,0.0130895955713439));
#632=DIRECTION('',(-0.999048221581858,0.0436193873653388,0.));
#633=DIRECTION('center_axis',(0.0436156503866015,0.998962630697031,-0.013089595571344));
#634=DIRECTION('ref_axis',(-0.706030042426337,0.0400904969734602,0.707046201633165));
#635=DIRECTION('',(0.0436156503866015,0.998962630697031,-0.0130895955713439));
#636=DIRECTION('center_axis',(0.0436156503866028,0.998962630697031,-0.0130895955713441));
#637=DIRECTION('ref_axis',(-0.706030042426337,0.0400904969734602,0.707046201633165));
#638=DIRECTION('center_axis',(-0.999048221581858,0.0436193873653374,1.74556549770166E-17));
#639=DIRECTION('ref_axis',(0.00057096013968208,0.0130771371767771,0.999914327574007));
#640=DIRECTION('',(-0.00057096013968208,-0.0130771371767771,-0.999914327574007));
#641=DIRECTION('center_axis',(0.0436156503866014,0.998962630697031,-0.013089595571344));
#642=DIRECTION('ref_axis',(-0.836479149107263,0.0436791534360628,0.546255219347054));
#643=DIRECTION('center_axis',(-0.0436156503866028,-0.998962630697031,0.0130895955713441));
#644=DIRECTION('ref_axis',(-0.836479149107263,0.0436791534360628,0.546255219347054));
#645=DIRECTION('',(-0.0436156503866014,-0.998962630697031,0.0130895955713439));
#646=DIRECTION('',(0.0436156503866014,0.998962630697031,-0.013089595571344));
#647=DIRECTION('center_axis',(-0.000570960139682076,-0.013077137176777,
-0.999914327574007));
#648=DIRECTION('ref_axis',(-0.999048221581858,0.0436193873653388,0.));
#649=DIRECTION('',(-0.0436156503866016,-0.998962630697031,0.013089595571344));
#650=DIRECTION('',(0.999048221581858,-0.0436193873653388,0.));
#651=DIRECTION('center_axis',(0.0436156503866016,0.998962630697031,-0.013089595571344));
#652=DIRECTION('ref_axis',(0.706030042426337,-0.0400904969734602,-0.707046201633165));
#653=DIRECTION('',(0.0436156503866016,0.998962630697031,-0.013089595571344));
#654=DIRECTION('center_axis',(0.0436156503866028,0.998962630697031,-0.0130895955713441));
#655=DIRECTION('ref_axis',(0.706030042426337,-0.0400904969734602,-0.707046201633165));
#656=DIRECTION('center_axis',(0.999048221581858,-0.0436193873653375,-1.6154612370034E-17));
#657=DIRECTION('ref_axis',(-0.00057096013968208,-0.0130771371767771,-0.999914327574007));
#658=DIRECTION('',(-0.0436156503866016,-0.998962630697031,0.013089595571344));
#659=DIRECTION('',(0.00057096013968208,0.0130771371767771,0.999914327574007));
#660=DIRECTION('center_axis',(-0.0436156503866014,-0.998962630697031,0.013089595571344));
#661=DIRECTION('ref_axis',(-0.835478638859987,0.0292875164946476,-0.548741911454044));
#662=DIRECTION('',(0.0436156503866014,0.998962630697031,-0.0130895955713439));
#663=DIRECTION('center_axis',(-0.0436156503866028,-0.998962630697031,0.0130895955713441));
#664=DIRECTION('ref_axis',(-0.835478638859987,0.0292875164946476,-0.548741911454044));
#665=DIRECTION('',(-0.0436156503866014,-0.998962630697031,0.013089595571344));
#666=DIRECTION('center_axis',(0.000570960139682076,0.013077137176777,0.999914327574007));
#667=DIRECTION('ref_axis',(0.999048221581858,-0.0436193873653388,0.));
#668=DIRECTION('',(-0.999048221581858,0.0436193873653388,0.));
#669=DIRECTION('',(0.0436156503866016,0.998962630697031,-0.013089595571344));
#670=DIRECTION('center_axis',(0.0436156503866016,0.998962630697031,-0.013089595571344));
#671=DIRECTION('ref_axis',(0.706837501999464,-0.0215966322209869,0.707046201633153));
#672=DIRECTION('center_axis',(0.0436156503866028,0.998962630697031,-0.0130895955713441));
#673=DIRECTION('ref_axis',(0.706837501999464,-0.0215966322209869,0.707046201633153));
#674=DIRECTION('center_axis',(-0.0436156503866014,-0.998962630697031,0.0130895955713439));
#675=DIRECTION('ref_axis',(-0.00239822031027446,0.0132067165306432,0.999909911530945));
#676=DIRECTION('center_axis',(-0.0436156503866028,-0.998962630697031,0.0130895955713441));
#677=DIRECTION('ref_axis',(-3.6404678978688E-17,-0.0131020636951611,-0.999914164279578));
#678=DIRECTION('center_axis',(0.0436156503866028,0.998962630697031,-0.0130895955713441));
#679=DIRECTION('ref_axis',(-3.63551100073553E-17,-0.0131020636951611,-0.999914164279578));
#680=DIRECTION('center_axis',(-0.0436156503866014,-0.998962630697031,0.0130895955713439));
#681=DIRECTION('ref_axis',(-2.9870311886565E-17,-0.0131020636951609,-0.999914164279578));
#682=DIRECTION('',(-0.0358245852608625,-0.827991263911988,-0.559595448494996));
#683=DIRECTION('center_axis',(0.0436156503866028,0.998962630697031,-0.0130895955713441));
#684=DIRECTION('ref_axis',(-3.63551100073553E-17,-0.0131020636951611,-0.999914164279578));
#685=DIRECTION('',(0.0358245852608625,0.827991263911988,0.559595448494996));
#686=DIRECTION('center_axis',(-0.0436156503866014,-0.998962630697031,0.0130895955713439));
#687=DIRECTION('ref_axis',(-2.9870311886565E-17,-0.0131020636951609,-0.999914164279578));
#688=DIRECTION('',(0.0436156503866014,0.998962630697031,-0.0130895955713439));
#689=DIRECTION('center_axis',(-0.0436156503866028,-0.998962630697031,0.0130895955713441));
#690=DIRECTION('ref_axis',(-3.6404678978688E-17,-0.0131020636951611,-0.999914164279578));
#691=DIRECTION('center_axis',(-0.0436156503866014,-0.998962630697031,0.0130895955713439));
#692=DIRECTION('ref_axis',(-2.99482657395939E-17,-0.0131020636951609,-0.999914164279578));
#693=DIRECTION('center_axis',(-0.0436156503866028,-0.998962630697031,0.0130895955713441));
#694=DIRECTION('ref_axis',(-3.6404678978688E-17,-0.0131020636951611,-0.999914164279578));
#695=DIRECTION('center_axis',(-0.0436156503866028,-0.998962630697031,0.0130895955713441));
#696=DIRECTION('ref_axis',(-3.6404678978688E-17,-0.0131020636951611,-0.999914164279579));
#697=CARTESIAN_POINT('',(0.,0.,0.));
#698=CARTESIAN_POINT('Origin',(33.5529143364102,18.8082682595244,-8.03447767224274));
#699=CARTESIAN_POINT('',(33.5529143364102,18.8292315614367,-6.43461500939541));
#700=CARTESIAN_POINT('Origin',(33.5529143364102,18.8082682595244,-8.03447767224274));
#701=CARTESIAN_POINT('',(33.5594566839682,18.977110646487,-6.58656557337305));
#702=CARTESIAN_POINT('Origin',(33.5529143364102,18.8272662518824,-6.58460213403735));
#703=CARTESIAN_POINT('Origin',(33.5594566839682,18.958112654129,-8.03644111157844));
#704=CARTESIAN_POINT('Origin',(33.5572759677394,18.9081660408985,-8.0357866516945));
#705=CARTESIAN_POINT('',(33.5367766120577,18.4596169063832,-6.42977187892865));
#706=CARTESIAN_POINT('Origin',(33.5367766120577,18.4386536044709,-8.02963454177597));
#707=CARTESIAN_POINT('',(33.5572759677394,18.9291293428108,-6.43592398884718));
#708=CARTESIAN_POINT('Origin',(33.5594566839682,18.958112654129,-8.03644111157844));
#709=CARTESIAN_POINT('Origin',(33.4657781782903,16.8125221231574,-8.00832703458586));
#710=CARTESIAN_POINT('',(33.4548742656937,16.5873478349115,-6.13021557766882));
#711=CARTESIAN_POINT('Origin',(33.4548742656937,16.5627814654831,-8.00505463569303));
#712=CARTESIAN_POINT('',(33.4657781782903,16.8403640085096,-5.88350943549176));
#713=CARTESIAN_POINT('Origin',(33.4657781782903,16.8370884925858,-6.13348797656165));
#714=CARTESIAN_POINT('Origin',(33.4657781782903,16.8125221231574,-8.00832703458586));
#715=CARTESIAN_POINT('Origin',(33.6096147482033,20.106921197735,-8.05149416638011));
#716=CARTESIAN_POINT('',(33.5267450124688,18.2367340847628,-5.90180633570046));
#717=CARTESIAN_POINT('',(33.6096147482033,20.1347630830872,-5.92667656728601));
#718=CARTESIAN_POINT('Origin',(33.5267450124688,18.2088921994106,-8.02662393479456));
#719=CARTESIAN_POINT('Origin',(33.4548742656937,16.5627814654831,-8.00505463569303));
#720=CARTESIAN_POINT('Origin',(33.5367766120577,18.4386536044709,-8.02963454177597));
#721=CARTESIAN_POINT('',(33.5367766120577,18.4622075899571,-6.23205789577013));
#722=CARTESIAN_POINT('Origin',(33.5367766120577,18.4386536044709,-8.02963454177597));
#723=CARTESIAN_POINT('Origin',(37.000412749541,19.9395980709039,-9.52271538881816));
#724=CARTESIAN_POINT('',(36.9568256471614,18.9412892970657,-9.45963007686812));
#725=CARTESIAN_POINT('',(37.0026186937671,18.9383743168713,-9.5295071611176));
#726=CARTESIAN_POINT('Origin',(36.9567970991544,18.9406354402069,-9.50962579324682));
#727=CARTESIAN_POINT('',(37.0462343441537,19.9373369475683,-9.54259675668895));
#728=CARTESIAN_POINT('',(37.0462343441537,19.9373369475684,-9.54259675668895));
#729=CARTESIAN_POINT('',(37.000441297548,19.9402519277627,-9.47271967243946));
#730=CARTESIAN_POINT('Origin',(37.000412749541,19.9395980709039,-9.52271538881816));
#731=CARTESIAN_POINT('',(37.000441297548,19.9402519277627,-9.47271967243946));
#732=CARTESIAN_POINT('Origin',(33.5659990978167,19.1079585670379,-8.03840457080877));
#733=CARTESIAN_POINT('',(36.8351039769604,18.9466037799591,-9.45963007686812));
#734=CARTESIAN_POINT('',(35.2986349742378,19.0136874653677,-9.45963007686812));
#735=CARTESIAN_POINT('',(36.7851801138883,18.9494386061862,-9.40963436048942));
#736=CARTESIAN_POINT('Origin',(36.8351325249674,18.9472576368179,-9.40963436048942));
#737=CARTESIAN_POINT('',(36.7867575897508,18.9855687434981,-6.64702344136828));
#738=CARTESIAN_POINT('',(36.7855573322011,18.9580783259815,-8.74901732383845));
#739=CARTESIAN_POINT('',(36.8367385488369,18.9840416309887,-6.59702772498958));
#740=CARTESIAN_POINT('Origin',(36.8367100008299,18.9833877741298,-6.64702344136828));
#741=CARTESIAN_POINT('',(36.94966295843,18.9791112447885,-6.59702772498958));
#742=CARTESIAN_POINT('',(35.1768041374058,19.0565159325581,-6.59702772498958));
#743=CARTESIAN_POINT('',(36.9954170795265,18.9780327575204,-6.52687832533794));
#744=CARTESIAN_POINT('Origin',(36.949691506437,18.9797651016473,-6.54703200861088));
#745=CARTESIAN_POINT('',(30.1293795018664,19.2775428172046,-6.54730198049994));
#746=CARTESIAN_POINT('Origin',(33.5659990978167,19.107958567038,-8.03840457080877));
#747=CARTESIAN_POINT('',(30.1751725484721,19.2746278370102,-6.61717906474943));
#748=CARTESIAN_POINT('Origin',(30.1752010964791,19.275281693869,-6.56718334837073));
#749=CARTESIAN_POINT('',(30.2968942186731,19.2693133541168,-6.61717906474943));
#750=CARTESIAN_POINT('',(31.8333632213957,19.2022296687082,-6.61717906474943));
#751=CARTESIAN_POINT('',(30.3468180817452,19.2664785278897,-6.66717478112813));
#752=CARTESIAN_POINT('Origin',(30.2968656706661,19.268659497258,-6.66717478112813));
#753=CARTESIAN_POINT('',(30.3452406058827,19.2303483905778,-9.42978570024926));
#754=CARTESIAN_POINT('',(30.3464408634324,19.2578388080944,-7.3277918177791));
#755=CARTESIAN_POINT('',(30.2952596467966,19.2318755030872,-9.47978141662796));
#756=CARTESIAN_POINT('Origin',(30.2952881948036,19.232529359946,-9.42978570024926));
#757=CARTESIAN_POINT('',(30.1823352372035,19.2368058892874,-9.47978141662796));
#758=CARTESIAN_POINT('',(31.9551940582277,19.1594012015178,-9.47978141662796));
#759=CARTESIAN_POINT('',(30.136581116107,19.2378843765555,-9.54993081627961));
#760=CARTESIAN_POINT('Origin',(30.1823066891965,19.2361520324286,-9.52977713300666));
#761=CARTESIAN_POINT('Origin',(33.5659990978167,19.107958567038,-8.03840457080877));
#762=CARTESIAN_POINT('',(33.5659990978167,19.1439892421996,-5.28864061903993));
#763=CARTESIAN_POINT('Origin',(33.5659990978167,19.107958567038,-8.03840457080877));
#764=CARTESIAN_POINT('Origin',(37.0320823832983,18.9380035170058,-9.45963007686812));
#765=CARTESIAN_POINT('',(36.878719627347,19.9455664106561,-9.47271967243946));
#766=CARTESIAN_POINT('',(35.3422506246244,20.0126500960647,-9.47271967243946));
#767=CARTESIAN_POINT('',(36.8351039769604,18.9466037799591,-9.45963007686812));
#768=CARTESIAN_POINT('Origin',(36.8351325249674,18.9472576368179,-9.40963436048942));
#769=CARTESIAN_POINT('',(36.8287957642749,19.9484012368832,-9.42272395606076));
#770=CARTESIAN_POINT('Origin',(36.878748175354,19.946220267515,-9.42272395606076));
#771=CARTESIAN_POINT('',(36.7851801138883,18.9494386061862,-9.40963436048942));
#772=CARTESIAN_POINT('Origin',(36.9933071568236,19.9787277323443,-6.56012160418222));
#773=CARTESIAN_POINT('',(36.9932786088166,19.9780738754855,-6.61011732056092));
#774=CARTESIAN_POINT('',(37.0390327299131,19.9769953882174,-6.53996792090928));
#775=CARTESIAN_POINT('Origin',(36.9933071568236,19.9787277323443,-6.56012160418222));
#776=CARTESIAN_POINT('',(37.0390327299131,19.9769953882174,-6.53996792090928));
#777=CARTESIAN_POINT('',(36.9932786088166,19.9780738754855,-6.61011732056093));
#778=CARTESIAN_POINT('Origin',(36.7867861377578,18.986222600357,-6.59702772498958));
#779=CARTESIAN_POINT('',(36.8803541992235,19.9830042616857,-6.61011732056092));
#780=CARTESIAN_POINT('',(36.8367385488369,18.9840416309887,-6.59702772498958));
#781=CARTESIAN_POINT('',(35.2204197877924,20.0554785632551,-6.61011732056092));
#782=CARTESIAN_POINT('Origin',(36.8367100008299,18.9833877741298,-6.64702344136828));
#783=CARTESIAN_POINT('',(36.8303732401374,19.9845313741951,-6.66011303693963));
#784=CARTESIAN_POINT('',(36.7867575897508,18.9855687434981,-6.64702344136828));
#785=CARTESIAN_POINT('Origin',(36.8803256512165,19.9823504048269,-6.66011303693963));
#786=CARTESIAN_POINT('Origin',(36.7851515658813,18.9487847493274,-9.45963007686812));
#787=CARTESIAN_POINT('',(36.8291729825877,19.9570409566786,-8.76210691940979));
#788=CARTESIAN_POINT('Origin',(30.2259223395831,20.2351146631256,-9.54286672857801));
#789=CARTESIAN_POINT('',(30.2259508875901,20.2357685199845,-9.49287101219931));
#790=CARTESIAN_POINT('',(30.1801967664936,20.2368470072525,-9.56302041185095));
#791=CARTESIAN_POINT('Origin',(30.2259223395831,20.2351146631256,-9.54286672857801));
#792=CARTESIAN_POINT('',(30.1801967664936,20.2368470072525,-9.56302041185095));
#793=CARTESIAN_POINT('',(30.2259508875901,20.2357685199845,-9.49287101219931));
#794=CARTESIAN_POINT('Origin',(30.3452120578757,19.229694533719,-9.47978141662796));
#795=CARTESIAN_POINT('',(30.3388752971832,20.2308381337842,-9.49287101219931));
#796=CARTESIAN_POINT('',(30.2952596467966,19.2318755030872,-9.47978141662796));
#797=CARTESIAN_POINT('',(31.9988097086144,20.1583638322149,-9.49287101219931));
#798=CARTESIAN_POINT('Origin',(30.2952881948036,19.2325293599461,-9.42978570024926));
#799=CARTESIAN_POINT('',(30.3888562562693,20.2293110212748,-9.44287529582061));
#800=CARTESIAN_POINT('',(30.3452406058827,19.2303483905778,-9.42978570024926));
#801=CARTESIAN_POINT('Origin',(30.3389038451902,20.2314919906431,-9.44287529582061));
#802=CARTESIAN_POINT('Origin',(30.3468466297522,19.2671323847486,-6.61717906474943));
#803=CARTESIAN_POINT('',(30.3904337321318,20.2654411585867,-6.68026437669947));
#804=CARTESIAN_POINT('',(30.3468180817452,19.2664785278897,-6.66717478112813));
#805=CARTESIAN_POINT('',(30.390056513819,20.2568014387914,-7.34088141335044));
#806=CARTESIAN_POINT('Origin',(30.2188167468657,20.2742443245661,-6.58027294394207));
#807=CARTESIAN_POINT('',(30.172995152253,20.2765054479016,-6.56039157607128));
#808=CARTESIAN_POINT('',(30.172995152253,20.2765054479016,-6.56039157607128));
#809=CARTESIAN_POINT('',(30.2187881988587,20.2735904677072,-6.63026866032077));
#810=CARTESIAN_POINT('Origin',(30.2188167468657,20.274244324566,-6.58027294394207));
#811=CARTESIAN_POINT('',(30.2187881988587,20.2735904677072,-6.63026866032077));
#812=CARTESIAN_POINT('Origin',(30.0999158123352,19.2779136170702,-6.61717906474943));
#813=CARTESIAN_POINT('',(30.3405098690597,20.2682759848138,-6.63026866032077));
#814=CARTESIAN_POINT('',(31.8769788717823,20.2011922994053,-6.63026866032077));
#815=CARTESIAN_POINT('',(30.2968942186731,19.2693133541168,-6.61717906474943));
#816=CARTESIAN_POINT('Origin',(30.2968656706661,19.268659497258,-6.66717478112813));
#817=CARTESIAN_POINT('Origin',(30.3404813210527,20.267622127955,-6.68026437669947));
#818=CARTESIAN_POINT('Origin',(33.6096147482033,20.106921197735,-8.05149416638011));
#819=CARTESIAN_POINT('Origin',(33.6096147482033,20.106921197735,-8.05149416638011));
#820=CARTESIAN_POINT('Origin',(33.5759503715003,19.3358802063948,-8.04139107099352));
#821=CARTESIAN_POINT('',(33.5965853326106,19.8445291929267,-5.29781992600779));
#822=CARTESIAN_POINT('Origin',(33.5965853326106,19.8084985177651,-8.04758387777663));
#823=CARTESIAN_POINT('',(33.5759503715003,19.3676062249134,-5.62014690434091));
#824=CARTESIAN_POINT('Origin',(33.5659990978167,19.107958567038,-8.03840457080877));
#825=CARTESIAN_POINT('',(33.5659990978167,19.1439892421996,-5.28864061903993));
#826=CARTESIAN_POINT('Origin',(33.6096147482033,20.106921197735,-8.05149416638011));
#827=CARTESIAN_POINT('',(33.6096147482033,20.1429518728967,-5.30173021461127));
#828=CARTESIAN_POINT('',(33.6096147482033,20.1429518728967,-5.30173021461127));
#829=CARTESIAN_POINT('Origin',(33.6096147482033,20.106921197735,-8.05149416638011));
#830=CARTESIAN_POINT('Origin',(33.6096147482033,20.106921197735,-8.05149416638011));
#831=CARTESIAN_POINT('Origin',(33.6096147482033,20.106921197735,-8.05149416638011));
#832=CARTESIAN_POINT('Origin',(33.6096147482033,20.106921197735,-8.05149416638011));
#833=UNCERTAINTY_MEASURE_WITH_UNIT(LENGTH_MEASURE(0.01),#837,
'DISTANCE_ACCURACY_VALUE',
'Maximum model space distance between geometric entities at asserted c
onnectivities');
#834=UNCERTAINTY_MEASURE_WITH_UNIT(LENGTH_MEASURE(0.01),#837,
'DISTANCE_ACCURACY_VALUE',
'Maximum model space distance between geometric entities at asserted c
onnectivities');
#835=(
GEOMETRIC_REPRESENTATION_CONTEXT(3)
GLOBAL_UNCERTAINTY_ASSIGNED_CONTEXT((#833))
GLOBAL_UNIT_ASSIGNED_CONTEXT((#837,#839,#840))
REPRESENTATION_CONTEXT('','3D')
);
#836=(
GEOMETRIC_REPRESENTATION_CONTEXT(3)
GLOBAL_UNCERTAINTY_ASSIGNED_CONTEXT((#834))
GLOBAL_UNIT_ASSIGNED_CONTEXT((#837,#839,#840))
REPRESENTATION_CONTEXT('','3D')
);
#837=(
LENGTH_UNIT()
NAMED_UNIT(*)
SI_UNIT(.MILLI.,.METRE.)
);
#838=(
LENGTH_UNIT()
NAMED_UNIT(*)
SI_UNIT($,.METRE.)
);
#839=(
NAMED_UNIT(*)
PLANE_ANGLE_UNIT()
SI_UNIT($,.RADIAN.)
);
#840=(
NAMED_UNIT(*)
SI_UNIT($,.STERADIAN.)
SOLID_ANGLE_UNIT()
);
#841=SHAPE_DEFINITION_REPRESENTATION(#842,#843);
#842=PRODUCT_DEFINITION_SHAPE('',$,#845);
#843=SHAPE_REPRESENTATION('',(#481),#835);
#844=PRODUCT_DEFINITION_CONTEXT('part definition',#849,'design');
#845=PRODUCT_DEFINITION('2026-09-24-01-33-50-423','TMem',#846,#844);
#846=PRODUCT_DEFINITION_FORMATION('',$,#851);
#847=PRODUCT_RELATED_PRODUCT_CATEGORY('TMem','TMem',(#851));
#848=APPLICATION_PROTOCOL_DEFINITION('international standard',
'automotive_design',2009,#849);
#849=APPLICATION_CONTEXT(
'Core Data for Automotive Mechanical Design Process');
#850=PRODUCT_CONTEXT('part definition',#849,'mechanical');
#851=PRODUCT('2026-09-24-01-33-50-423','TMem',$,(#850));
#852=PRESENTATION_STYLE_ASSIGNMENT((#854));
#853=PRESENTATION_STYLE_ASSIGNMENT((#855));
#854=SURFACE_STYLE_USAGE(.BOTH.,#856);
#855=SURFACE_STYLE_USAGE(.BOTH.,#857);
#856=SURFACE_SIDE_STYLE('',(#858));
#857=SURFACE_SIDE_STYLE('',(#859));
#858=SURFACE_STYLE_FILL_AREA(#860);
#859=SURFACE_STYLE_FILL_AREA(#861);
#860=FILL_AREA_STYLE('Steel - Satin',(#862));
#861=FILL_AREA_STYLE('Opaque(224,242,255)',(#863));
#862=FILL_AREA_STYLE_COLOUR('Steel - Satin',#864);
#863=FILL_AREA_STYLE_COLOUR('Opaque(224,242,255)',#865);
#864=COLOUR_RGB('Steel - Satin',0.627450980392157,0.627450980392157,0.627450980392157);
#865=COLOUR_RGB('Opaque(224,242,255)',0.87843137254902,0.949019607843137,
1.);
ENDSEC;
END-ISO-10303-21;
