ISO-10303-21;
HEADER;
/* Generated by software containing ST-Developer
 * from STEP Tools, Inc. (www.steptools.com) 
 */

FILE_DESCRIPTION(
/* description */ (''),
/* implementation_level */ '2;1');

FILE_NAME(
/* name */ 'Button_West.step',
/* time_stamp */ '2025-09-28T19:29:01-07:00',
/* author */ (''),
/* organization */ (''),
/* preprocessor_version */ 'ST-DEVELOPER v20.1',
/* originating_system */ 'Autodesk Translation Framework v14.17.0.0',
/* authorisation */ '');

FILE_SCHEMA (('AUTOMOTIVE_DESIGN { 1 0 10303 214 3 1 1 }'));
ENDSEC;

DATA;
#10=MECHANICAL_DESIGN_GEOMETRIC_PRESENTATION_REPRESENTATION('',(#13),#885);
#11=SHAPE_REPRESENTATION_RELATIONSHIP('SRR','None',#892,#12);
#12=ADVANCED_BREP_SHAPE_REPRESENTATION('',(#14),#884);
#13=STYLED_ITEM('',(#902),#14);
#14=MANIFOLD_SOLID_BREP('Button (1) (1)',#454);
#15=TOROIDAL_SURFACE('',#496,3.41849855947149,0.25);
#16=(
BOUNDED_SURFACE()
B_SPLINE_SURFACE(5,2,((#720,#721,#722,#723,#724,#725,#726,#727,#728),(#729,
#730,#731,#732,#733,#734,#735,#736,#737),(#738,#739,#740,#741,#742,#743,
#744,#745,#746),(#747,#748,#749,#750,#751,#752,#753,#754,#755),(#756,#757,
#758,#759,#760,#761,#762,#763,#764),(#765,#766,#767,#768,#769,#770,#771,
#772,#773),(#774,#775,#776,#777,#778,#779,#780,#781,#782),(#783,#784,#785,
#786,#787,#788,#789,#790,#791),(#792,#793,#794,#795,#796,#797,#798,#799,
#800),(#801,#802,#803,#804,#805,#806,#807,#808,#809)),.UNSPECIFIED.,.F.,
 .T.,.F.)
B_SPLINE_SURFACE_WITH_KNOTS((6,1,1,1,1,6),(3,2,2,2,3),(-1.,-0.8,-0.6,-0.4,
-0.2,0.),(0.,1.5707963267949,3.14159265358979,4.71238898038469,6.28318530717959),
 .UNSPECIFIED.)
GEOMETRIC_REPRESENTATION_ITEM()
RATIONAL_B_SPLINE_SURFACE(((1.,0.707106781186548,1.,0.707106781186548,1.,
0.707106781186548,1.,0.707106781186548,1.),(1.,0.707106781186548,1.,0.707106781186548,
1.,0.707106781186548,1.,0.707106781186548,1.),(1.,0.707106781186548,1.,
0.707106781186548,1.,0.707106781186548,1.,0.707106781186548,1.),(1.,0.707106781186548,
1.,0.707106781186548,1.,0.707106781186548,1.,0.707106781186548,1.),(1.,
0.707106781186548,1.,0.707106781186548,1.,0.707106781186548,1.,0.707106781186548,
1.),(1.,0.707106781186548,1.,0.707106781186548,1.,0.707106781186548,1.,
0.707106781186548,1.),(1.,0.707106781186548,1.,0.707106781186548,1.,0.707106781186548,
1.,0.707106781186548,1.),(1.,0.707106781186548,1.,0.707106781186548,1.,
0.707106781186548,1.,0.707106781186548,1.),(1.,0.707106781186548,1.,0.707106781186548,
1.,0.707106781186548,1.,0.707106781186548,1.),(1.,0.707106781186548,1.,
0.707106781186548,1.,0.707106781186548,1.,0.707106781186548,1.)))
REPRESENTATION_ITEM('')
SURFACE()
);
#17=CONICAL_SURFACE('',#486,0.374999999999996,0.0436332312998582);
#18=CONICAL_SURFACE('',#491,3.94135476391314,0.802851455917391);
#19=CONICAL_SURFACE('',#493,3.625,0.0349065850398866);
#20=CONICAL_SURFACE('',#510,5.5,0.0174532925199433);
#21=FACE_BOUND('',#62,.T.);
#22=FACE_BOUND('',#63,.T.);
#23=(
BOUNDED_CURVE()
B_SPLINE_CURVE(2,(#647,#648,#649),.UNSPECIFIED.,.F.,.F.)
B_SPLINE_CURVE_WITH_KNOTS((3,3),(0.,0.200051681044331),.UNSPECIFIED.)
CURVE()
GEOMETRIC_REPRESENTATION_ITEM()
RATIONAL_B_SPLINE_CURVE((1.,1.00000000049416,1.))
REPRESENTATION_ITEM('')
);
#24=(
BOUNDED_CURVE()
B_SPLINE_CURVE(2,(#655,#656,#657),.UNSPECIFIED.,.F.,.F.)
B_SPLINE_CURVE_WITH_KNOTS((3,3),(0.,0.200051681044331),.UNSPECIFIED.)
CURVE()
GEOMETRIC_REPRESENTATION_ITEM()
RATIONAL_B_SPLINE_CURVE((1.,1.00000000049416,1.))
REPRESENTATION_ITEM('')
);
#25=(
BOUNDED_CURVE()
B_SPLINE_CURVE(2,(#705,#706,#707),.UNSPECIFIED.,.F.,.F.)
B_SPLINE_CURVE_WITH_KNOTS((3,3),(11.2151067644091,11.3737189976557),
 .UNSPECIFIED.)
CURVE()
GEOMETRIC_REPRESENTATION_ITEM()
RATIONAL_B_SPLINE_CURVE((1.,1.,1.))
REPRESENTATION_ITEM('')
);
#26=(
BOUNDED_CURVE()
B_SPLINE_CURVE(2,(#712,#713,#714),.UNSPECIFIED.,.F.,.F.)
B_SPLINE_CURVE_WITH_KNOTS((3,3),(23.4048326698075,23.563444833124),
 .UNSPECIFIED.)
CURVE()
GEOMETRIC_REPRESENTATION_ITEM()
RATIONAL_B_SPLINE_CURVE((1.,1.,1.))
REPRESENTATION_ITEM('')
);
#27=(
BOUNDED_CURVE()
B_SPLINE_CURVE(5,(#812,#813,#814,#815,#816,#817,#818,#819,#820,#821),
 .UNSPECIFIED.,.F.,.F.)
B_SPLINE_CURVE_WITH_KNOTS((6,1,1,1,1,6),(0.,0.2,0.4,0.6,0.8,1.),
 .UNSPECIFIED.)
CURVE()
GEOMETRIC_REPRESENTATION_ITEM()
RATIONAL_B_SPLINE_CURVE((1.,1.,1.,1.,1.,1.,1.,1.,1.,1.))
REPRESENTATION_ITEM('')
);
#28=(
BOUNDED_CURVE()
B_SPLINE_CURVE(2,(#842,#843,#844),.UNSPECIFIED.,.F.,.F.)
B_SPLINE_CURVE_WITH_KNOTS((3,3),(9596.31894375779,9598.68825766155),
 .UNSPECIFIED.)
CURVE()
GEOMETRIC_REPRESENTATION_ITEM()
RATIONAL_B_SPLINE_CURVE((1.00000000022781,1.00000000022781,1.00000000022782))
REPRESENTATION_ITEM('')
);
#29=(
BOUNDED_CURVE()
B_SPLINE_CURVE(2,(#855,#856,#857),.UNSPECIFIED.,.F.,.F.)
B_SPLINE_CURVE_WITH_KNOTS((3,3),(10442.3048915786,10444.6742054523),
 .UNSPECIFIED.)
CURVE()
GEOMETRIC_REPRESENTATION_ITEM()
RATIONAL_B_SPLINE_CURVE((1.,1.,1.))
REPRESENTATION_ITEM('')
);
#30=(
BOUNDED_CURVE()
B_SPLINE_CURVE(2,(#862,#863,#864),.UNSPECIFIED.,.F.,.F.)
B_SPLINE_CURVE_WITH_KNOTS((3,3),(9596.31893906834,9598.68825293987),
 .UNSPECIFIED.)
CURVE()
GEOMETRIC_REPRESENTATION_ITEM()
RATIONAL_B_SPLINE_CURVE((1.,1.,1.))
REPRESENTATION_ITEM('')
);
#31=(
BOUNDED_CURVE()
B_SPLINE_CURVE(2,(#874,#875,#876),.UNSPECIFIED.,.F.,.F.)
B_SPLINE_CURVE_WITH_KNOTS((3,3),(10442.3048859787,10444.6741998828),
 .UNSPECIFIED.)
CURVE()
GEOMETRIC_REPRESENTATION_ITEM()
RATIONAL_B_SPLINE_CURVE((1.00000000022782,1.00000000022781,1.00000000022781))
REPRESENTATION_ITEM('')
);
#32=FACE_OUTER_BOUND('',#57,.T.);
#33=FACE_OUTER_BOUND('',#58,.T.);
#34=FACE_OUTER_BOUND('',#59,.T.);
#35=FACE_OUTER_BOUND('',#60,.T.);
#36=FACE_OUTER_BOUND('',#61,.T.);
#37=FACE_OUTER_BOUND('',#64,.T.);
#38=FACE_OUTER_BOUND('',#65,.T.);
#39=FACE_OUTER_BOUND('',#66,.T.);
#40=FACE_OUTER_BOUND('',#67,.T.);
#41=FACE_OUTER_BOUND('',#68,.T.);
#42=FACE_OUTER_BOUND('',#69,.T.);
#43=FACE_OUTER_BOUND('',#70,.T.);
#44=FACE_OUTER_BOUND('',#71,.T.);
#45=FACE_OUTER_BOUND('',#72,.T.);
#46=FACE_OUTER_BOUND('',#73,.T.);
#47=FACE_OUTER_BOUND('',#74,.T.);
#48=FACE_OUTER_BOUND('',#75,.T.);
#49=FACE_OUTER_BOUND('',#76,.T.);
#50=FACE_OUTER_BOUND('',#77,.T.);
#51=FACE_OUTER_BOUND('',#78,.T.);
#52=FACE_OUTER_BOUND('',#79,.T.);
#53=FACE_OUTER_BOUND('',#80,.T.);
#54=FACE_OUTER_BOUND('',#81,.T.);
#55=FACE_OUTER_BOUND('',#82,.T.);
#56=FACE_OUTER_BOUND('',#83,.T.);
#57=EDGE_LOOP('',(#282,#283,#284,#285));
#58=EDGE_LOOP('',(#286,#287,#288,#289));
#59=EDGE_LOOP('',(#290,#291,#292,#293));
#60=EDGE_LOOP('',(#294,#295,#296,#297));
#61=EDGE_LOOP('',(#298,#299,#300,#301,#302,#303,#304,#305,#306,#307,#308,
#309,#310,#311,#312,#313,#314));
#62=EDGE_LOOP('',(#315));
#63=EDGE_LOOP('',(#316));
#64=EDGE_LOOP('',(#317,#318,#319,#320));
#65=EDGE_LOOP('',(#321,#322,#323,#324));
#66=EDGE_LOOP('',(#325,#326,#327,#328));
#67=EDGE_LOOP('',(#329,#330,#331,#332));
#68=EDGE_LOOP('',(#333,#334,#335,#336));
#69=EDGE_LOOP('',(#337));
#70=EDGE_LOOP('',(#338,#339,#340,#341));
#71=EDGE_LOOP('',(#342,#343,#344,#345));
#72=EDGE_LOOP('',(#346,#347,#348,#349,#350));
#73=EDGE_LOOP('',(#351,#352,#353,#354,#355));
#74=EDGE_LOOP('',(#356));
#75=EDGE_LOOP('',(#357,#358,#359,#360));
#76=EDGE_LOOP('',(#361,#362,#363,#364));
#77=EDGE_LOOP('',(#365,#366,#367,#368));
#78=EDGE_LOOP('',(#369,#370,#371,#372));
#79=EDGE_LOOP('',(#373,#374,#375,#376));
#80=EDGE_LOOP('',(#377,#378,#379,#380));
#81=EDGE_LOOP('',(#381,#382,#383,#384));
#82=EDGE_LOOP('',(#385,#386,#387,#388));
#83=EDGE_LOOP('',(#389,#390,#391,#392,#393,#394,#395,#396,#397,#398,#399,
#400,#401,#402,#403,#404,#405,#406,#407,#408,#409));
#84=LINE('',#641,#120);
#85=LINE('',#643,#121);
#86=LINE('',#644,#122);
#87=LINE('',#651,#123);
#88=LINE('',#652,#124);
#89=LINE('',#659,#125);
#90=LINE('',#660,#126);
#91=LINE('',#662,#127);
#92=LINE('',#667,#128);
#93=LINE('',#669,#129);
#94=LINE('',#671,#130);
#95=LINE('',#675,#131);
#96=LINE('',#677,#132);
#97=LINE('',#679,#133);
#98=LINE('',#685,#134);
#99=LINE('',#687,#135);
#100=LINE('',#689,#136);
#101=LINE('',#700,#137);
#102=LINE('',#702,#138);
#103=LINE('',#703,#139);
#104=LINE('',#708,#140);
#105=LINE('',#710,#141);
#106=LINE('',#717,#142);
#107=LINE('',#828,#143);
#108=LINE('',#831,#144);
#109=LINE('',#846,#145);
#110=LINE('',#847,#146);
#111=LINE('',#852,#147);
#112=LINE('',#853,#148);
#113=LINE('',#858,#149);
#114=LINE('',#866,#150);
#115=LINE('',#867,#151);
#116=LINE('',#870,#152);
#117=LINE('',#871,#153);
#118=LINE('',#877,#154);
#119=LINE('',#881,#155);
#120=VECTOR('',#517,10.);
#121=VECTOR('',#518,10.);
#122=VECTOR('',#519,10.);
#123=VECTOR('',#522,10.);
#124=VECTOR('',#523,10.);
#125=VECTOR('',#526,10.);
#126=VECTOR('',#527,10.);
#127=VECTOR('',#530,10.);
#128=VECTOR('',#535,10.);
#129=VECTOR('',#536,10.);
#130=VECTOR('',#537,10.);
#131=VECTOR('',#540,10.);
#132=VECTOR('',#541,10.);
#133=VECTOR('',#542,10.);
#134=VECTOR('',#547,10.);
#135=VECTOR('',#548,10.);
#136=VECTOR('',#549,10.);
#137=VECTOR('',#560,10.);
#138=VECTOR('',#561,10.);
#139=VECTOR('',#562,10.);
#140=VECTOR('',#565,10.);
#141=VECTOR('',#568,10.);
#142=VECTOR('',#573,0.374999999999997);
#143=VECTOR('',#586,3.94135476391314);
#144=VECTOR('',#589,3.625);
#145=VECTOR('',#604,10.);
#146=VECTOR('',#605,10.);
#147=VECTOR('',#610,10.);
#148=VECTOR('',#611,10.);
#149=VECTOR('',#614,10.);
#150=VECTOR('',#619,10.);
#151=VECTOR('',#620,10.);
#152=VECTOR('',#623,10.);
#153=VECTOR('',#624,10.);
#154=VECTOR('',#627,10.);
#155=VECTOR('',#634,5.5);
#156=CIRCLE('',#469,5.47381741151352);
#157=CIRCLE('',#474,5.50872754136996);
#158=CIRCLE('',#475,5.50872754136996);
#159=CIRCLE('',#476,5.50872754136996);
#160=CIRCLE('',#477,5.50872754136996);
#161=CIRCLE('',#478,5.50872754136996);
#162=CIRCLE('',#479,4.20007963808877);
#163=CIRCLE('',#480,0.374999999999996);
#164=CIRCLE('',#482,5.47381741151352);
#165=CIRCLE('',#487,0.364084764272868);
#166=CIRCLE('',#489,5.36568069439029);
#167=CIRCLE('',#490,5.36568069439029);
#168=CIRCLE('',#492,3.68262988973752);
#169=CIRCLE('',#494,3.66834626622626);
#170=CIRCLE('',#495,3.66834626622626);
#171=CIRCLE('',#497,0.25);
#172=CIRCLE('',#498,3.41849855947149);
#173=CIRCLE('',#502,5.47381741151352);
#174=CIRCLE('',#509,5.47381741151352);
#175=VERTEX_POINT('',#637);
#176=VERTEX_POINT('',#638);
#177=VERTEX_POINT('',#640);
#178=VERTEX_POINT('',#642);
#179=VERTEX_POINT('',#646);
#180=VERTEX_POINT('',#650);
#181=VERTEX_POINT('',#654);
#182=VERTEX_POINT('',#658);
#183=VERTEX_POINT('',#664);
#184=VERTEX_POINT('',#666);
#185=VERTEX_POINT('',#668);
#186=VERTEX_POINT('',#670);
#187=VERTEX_POINT('',#672);
#188=VERTEX_POINT('',#674);
#189=VERTEX_POINT('',#676);
#190=VERTEX_POINT('',#678);
#191=VERTEX_POINT('',#680);
#192=VERTEX_POINT('',#682);
#193=VERTEX_POINT('',#684);
#194=VERTEX_POINT('',#686);
#195=VERTEX_POINT('',#688);
#196=VERTEX_POINT('',#691);
#197=VERTEX_POINT('',#693);
#198=VERTEX_POINT('',#696);
#199=VERTEX_POINT('',#697);
#200=VERTEX_POINT('',#699);
#201=VERTEX_POINT('',#701);
#202=VERTEX_POINT('',#716);
#203=VERTEX_POINT('',#810);
#204=VERTEX_POINT('',#811);
#205=VERTEX_POINT('',#822);
#206=VERTEX_POINT('',#826);
#207=VERTEX_POINT('',#830);
#208=VERTEX_POINT('',#832);
#209=VERTEX_POINT('',#836);
#210=VERTEX_POINT('',#841);
#211=VERTEX_POINT('',#845);
#212=VERTEX_POINT('',#849);
#213=VERTEX_POINT('',#851);
#214=VERTEX_POINT('',#861);
#215=VERTEX_POINT('',#865);
#216=VERTEX_POINT('',#869);
#217=VERTEX_POINT('',#873);
#218=EDGE_CURVE('',#175,#176,#156,.T.);
#219=EDGE_CURVE('',#175,#177,#84,.T.);
#220=EDGE_CURVE('',#177,#178,#85,.T.);
#221=EDGE_CURVE('',#178,#176,#86,.T.);
#222=EDGE_CURVE('',#179,#175,#23,.T.);
#223=EDGE_CURVE('',#180,#179,#87,.T.);
#224=EDGE_CURVE('',#180,#177,#88,.T.);
#225=EDGE_CURVE('',#176,#181,#24,.T.);
#226=EDGE_CURVE('',#182,#178,#89,.F.);
#227=EDGE_CURVE('',#182,#181,#90,.T.);
#228=EDGE_CURVE('',#180,#182,#91,.T.);
#229=EDGE_CURVE('',#179,#183,#157,.T.);
#230=EDGE_CURVE('',#184,#183,#92,.T.);
#231=EDGE_CURVE('',#185,#184,#93,.T.);
#232=EDGE_CURVE('',#186,#185,#94,.T.);
#233=EDGE_CURVE('',#186,#187,#158,.T.);
#234=EDGE_CURVE('',#187,#188,#95,.T.);
#235=EDGE_CURVE('',#188,#189,#96,.T.);
#236=EDGE_CURVE('',#190,#189,#97,.T.);
#237=EDGE_CURVE('',#190,#191,#159,.T.);
#238=EDGE_CURVE('',#191,#192,#160,.T.);
#239=EDGE_CURVE('',#193,#192,#98,.T.);
#240=EDGE_CURVE('',#194,#193,#99,.T.);
#241=EDGE_CURVE('',#195,#194,#100,.T.);
#242=EDGE_CURVE('',#195,#181,#161,.T.);
#243=EDGE_CURVE('',#196,#196,#162,.T.);
#244=EDGE_CURVE('',#197,#197,#163,.T.);
#245=EDGE_CURVE('',#198,#199,#164,.T.);
#246=EDGE_CURVE('',#198,#200,#101,.T.);
#247=EDGE_CURVE('',#200,#201,#102,.T.);
#248=EDGE_CURVE('',#201,#199,#103,.T.);
#249=EDGE_CURVE('',#190,#198,#25,.T.);
#250=EDGE_CURVE('',#189,#200,#104,.T.);
#251=EDGE_CURVE('',#188,#201,#105,.F.);
#252=EDGE_CURVE('',#199,#187,#26,.T.);
#253=EDGE_CURVE('',#197,#202,#106,.T.);
#254=EDGE_CURVE('',#202,#202,#165,.T.);
#255=EDGE_CURVE('',#203,#204,#27,.T.);
#256=EDGE_CURVE('',#204,#205,#166,.T.);
#257=EDGE_CURVE('',#205,#204,#167,.T.);
#258=EDGE_CURVE('',#206,#206,#168,.T.);
#259=EDGE_CURVE('',#206,#196,#107,.T.);
#260=EDGE_CURVE('',#206,#207,#108,.T.);
#261=EDGE_CURVE('',#208,#207,#169,.T.);
#262=EDGE_CURVE('',#207,#208,#170,.T.);
#263=EDGE_CURVE('',#208,#209,#171,.T.);
#264=EDGE_CURVE('',#209,#209,#172,.T.);
#265=EDGE_CURVE('',#210,#183,#28,.F.);
#266=EDGE_CURVE('',#211,#210,#109,.F.);
#267=EDGE_CURVE('',#184,#211,#110,.F.);
#268=EDGE_CURVE('',#212,#210,#173,.F.);
#269=EDGE_CURVE('',#212,#213,#111,.F.);
#270=EDGE_CURVE('',#213,#211,#112,.F.);
#271=EDGE_CURVE('',#186,#212,#29,.F.);
#272=EDGE_CURVE('',#185,#213,#113,.T.);
#273=EDGE_CURVE('',#214,#192,#30,.F.);
#274=EDGE_CURVE('',#215,#214,#114,.F.);
#275=EDGE_CURVE('',#193,#215,#115,.F.);
#276=EDGE_CURVE('',#216,#215,#116,.F.);
#277=EDGE_CURVE('',#194,#216,#117,.T.);
#278=EDGE_CURVE('',#195,#217,#31,.F.);
#279=EDGE_CURVE('',#217,#216,#118,.F.);
#280=EDGE_CURVE('',#217,#214,#174,.F.);
#281=EDGE_CURVE('',#191,#205,#119,.T.);
#282=ORIENTED_EDGE('',*,*,#218,.F.);
#283=ORIENTED_EDGE('',*,*,#219,.T.);
#284=ORIENTED_EDGE('',*,*,#220,.T.);
#285=ORIENTED_EDGE('',*,*,#221,.T.);
#286=ORIENTED_EDGE('',*,*,#222,.F.);
#287=ORIENTED_EDGE('',*,*,#223,.F.);
#288=ORIENTED_EDGE('',*,*,#224,.T.);
#289=ORIENTED_EDGE('',*,*,#219,.F.);
#290=ORIENTED_EDGE('',*,*,#225,.F.);
#291=ORIENTED_EDGE('',*,*,#221,.F.);
#292=ORIENTED_EDGE('',*,*,#226,.F.);
#293=ORIENTED_EDGE('',*,*,#227,.T.);
#294=ORIENTED_EDGE('',*,*,#228,.T.);
#295=ORIENTED_EDGE('',*,*,#226,.T.);
#296=ORIENTED_EDGE('',*,*,#220,.F.);
#297=ORIENTED_EDGE('',*,*,#224,.F.);
#298=ORIENTED_EDGE('',*,*,#229,.T.);
#299=ORIENTED_EDGE('',*,*,#230,.F.);
#300=ORIENTED_EDGE('',*,*,#231,.F.);
#301=ORIENTED_EDGE('',*,*,#232,.F.);
#302=ORIENTED_EDGE('',*,*,#233,.T.);
#303=ORIENTED_EDGE('',*,*,#234,.T.);
#304=ORIENTED_EDGE('',*,*,#235,.T.);
#305=ORIENTED_EDGE('',*,*,#236,.F.);
#306=ORIENTED_EDGE('',*,*,#237,.T.);
#307=ORIENTED_EDGE('',*,*,#238,.T.);
#308=ORIENTED_EDGE('',*,*,#239,.F.);
#309=ORIENTED_EDGE('',*,*,#240,.F.);
#310=ORIENTED_EDGE('',*,*,#241,.F.);
#311=ORIENTED_EDGE('',*,*,#242,.T.);
#312=ORIENTED_EDGE('',*,*,#227,.F.);
#313=ORIENTED_EDGE('',*,*,#228,.F.);
#314=ORIENTED_EDGE('',*,*,#223,.T.);
#315=ORIENTED_EDGE('',*,*,#243,.F.);
#316=ORIENTED_EDGE('',*,*,#244,.T.);
#317=ORIENTED_EDGE('',*,*,#245,.F.);
#318=ORIENTED_EDGE('',*,*,#246,.T.);
#319=ORIENTED_EDGE('',*,*,#247,.T.);
#320=ORIENTED_EDGE('',*,*,#248,.T.);
#321=ORIENTED_EDGE('',*,*,#249,.F.);
#322=ORIENTED_EDGE('',*,*,#236,.T.);
#323=ORIENTED_EDGE('',*,*,#250,.T.);
#324=ORIENTED_EDGE('',*,*,#246,.F.);
#325=ORIENTED_EDGE('',*,*,#235,.F.);
#326=ORIENTED_EDGE('',*,*,#251,.T.);
#327=ORIENTED_EDGE('',*,*,#247,.F.);
#328=ORIENTED_EDGE('',*,*,#250,.F.);
#329=ORIENTED_EDGE('',*,*,#252,.F.);
#330=ORIENTED_EDGE('',*,*,#248,.F.);
#331=ORIENTED_EDGE('',*,*,#251,.F.);
#332=ORIENTED_EDGE('',*,*,#234,.F.);
#333=ORIENTED_EDGE('',*,*,#244,.F.);
#334=ORIENTED_EDGE('',*,*,#253,.T.);
#335=ORIENTED_EDGE('',*,*,#254,.F.);
#336=ORIENTED_EDGE('',*,*,#253,.F.);
#337=ORIENTED_EDGE('',*,*,#254,.T.);
#338=ORIENTED_EDGE('',*,*,#255,.T.);
#339=ORIENTED_EDGE('',*,*,#256,.T.);
#340=ORIENTED_EDGE('',*,*,#257,.T.);
#341=ORIENTED_EDGE('',*,*,#255,.F.);
#342=ORIENTED_EDGE('',*,*,#258,.T.);
#343=ORIENTED_EDGE('',*,*,#259,.T.);
#344=ORIENTED_EDGE('',*,*,#243,.T.);
#345=ORIENTED_EDGE('',*,*,#259,.F.);
#346=ORIENTED_EDGE('',*,*,#258,.F.);
#347=ORIENTED_EDGE('',*,*,#260,.T.);
#348=ORIENTED_EDGE('',*,*,#261,.F.);
#349=ORIENTED_EDGE('',*,*,#262,.F.);
#350=ORIENTED_EDGE('',*,*,#260,.F.);
#351=ORIENTED_EDGE('',*,*,#262,.T.);
#352=ORIENTED_EDGE('',*,*,#263,.T.);
#353=ORIENTED_EDGE('',*,*,#264,.T.);
#354=ORIENTED_EDGE('',*,*,#263,.F.);
#355=ORIENTED_EDGE('',*,*,#261,.T.);
#356=ORIENTED_EDGE('',*,*,#264,.F.);
#357=ORIENTED_EDGE('',*,*,#265,.F.);
#358=ORIENTED_EDGE('',*,*,#266,.F.);
#359=ORIENTED_EDGE('',*,*,#267,.F.);
#360=ORIENTED_EDGE('',*,*,#230,.T.);
#361=ORIENTED_EDGE('',*,*,#268,.F.);
#362=ORIENTED_EDGE('',*,*,#269,.T.);
#363=ORIENTED_EDGE('',*,*,#270,.T.);
#364=ORIENTED_EDGE('',*,*,#266,.T.);
#365=ORIENTED_EDGE('',*,*,#271,.F.);
#366=ORIENTED_EDGE('',*,*,#232,.T.);
#367=ORIENTED_EDGE('',*,*,#272,.T.);
#368=ORIENTED_EDGE('',*,*,#269,.F.);
#369=ORIENTED_EDGE('',*,*,#231,.T.);
#370=ORIENTED_EDGE('',*,*,#267,.T.);
#371=ORIENTED_EDGE('',*,*,#270,.F.);
#372=ORIENTED_EDGE('',*,*,#272,.F.);
#373=ORIENTED_EDGE('',*,*,#273,.F.);
#374=ORIENTED_EDGE('',*,*,#274,.F.);
#375=ORIENTED_EDGE('',*,*,#275,.F.);
#376=ORIENTED_EDGE('',*,*,#239,.T.);
#377=ORIENTED_EDGE('',*,*,#240,.T.);
#378=ORIENTED_EDGE('',*,*,#275,.T.);
#379=ORIENTED_EDGE('',*,*,#276,.F.);
#380=ORIENTED_EDGE('',*,*,#277,.F.);
#381=ORIENTED_EDGE('',*,*,#278,.F.);
#382=ORIENTED_EDGE('',*,*,#241,.T.);
#383=ORIENTED_EDGE('',*,*,#277,.T.);
#384=ORIENTED_EDGE('',*,*,#279,.F.);
#385=ORIENTED_EDGE('',*,*,#280,.F.);
#386=ORIENTED_EDGE('',*,*,#279,.T.);
#387=ORIENTED_EDGE('',*,*,#276,.T.);
#388=ORIENTED_EDGE('',*,*,#274,.T.);
#389=ORIENTED_EDGE('',*,*,#225,.T.);
#390=ORIENTED_EDGE('',*,*,#242,.F.);
#391=ORIENTED_EDGE('',*,*,#278,.T.);
#392=ORIENTED_EDGE('',*,*,#280,.T.);
#393=ORIENTED_EDGE('',*,*,#273,.T.);
#394=ORIENTED_EDGE('',*,*,#238,.F.);
#395=ORIENTED_EDGE('',*,*,#281,.T.);
#396=ORIENTED_EDGE('',*,*,#256,.F.);
#397=ORIENTED_EDGE('',*,*,#257,.F.);
#398=ORIENTED_EDGE('',*,*,#281,.F.);
#399=ORIENTED_EDGE('',*,*,#237,.F.);
#400=ORIENTED_EDGE('',*,*,#249,.T.);
#401=ORIENTED_EDGE('',*,*,#245,.T.);
#402=ORIENTED_EDGE('',*,*,#252,.T.);
#403=ORIENTED_EDGE('',*,*,#233,.F.);
#404=ORIENTED_EDGE('',*,*,#271,.T.);
#405=ORIENTED_EDGE('',*,*,#268,.T.);
#406=ORIENTED_EDGE('',*,*,#265,.T.);
#407=ORIENTED_EDGE('',*,*,#229,.F.);
#408=ORIENTED_EDGE('',*,*,#222,.T.);
#409=ORIENTED_EDGE('',*,*,#218,.T.);
#410=PLANE('',#468);
#411=PLANE('',#470);
#412=PLANE('',#471);
#413=PLANE('',#472);
#414=PLANE('',#473);
#415=PLANE('',#481);
#416=PLANE('',#483);
#417=PLANE('',#484);
#418=PLANE('',#485);
#419=PLANE('',#488);
#420=PLANE('',#499);
#421=PLANE('',#500);
#422=PLANE('',#501);
#423=PLANE('',#503);
#424=PLANE('',#504);
#425=PLANE('',#505);
#426=PLANE('',#506);
#427=PLANE('',#507);
#428=PLANE('',#508);
#429=ADVANCED_FACE('',(#32),#410,.F.);
#430=ADVANCED_FACE('',(#33),#411,.T.);
#431=ADVANCED_FACE('',(#34),#412,.T.);
#432=ADVANCED_FACE('',(#35),#413,.T.);
#433=ADVANCED_FACE('',(#36,#21,#22),#414,.F.);
#434=ADVANCED_FACE('',(#37),#415,.F.);
#435=ADVANCED_FACE('',(#38),#416,.T.);
#436=ADVANCED_FACE('',(#39),#417,.T.);
#437=ADVANCED_FACE('',(#40),#418,.T.);
#438=ADVANCED_FACE('',(#41),#17,.F.);
#439=ADVANCED_FACE('',(#42),#419,.T.);
#440=ADVANCED_FACE('',(#43),#16,.F.);
#441=ADVANCED_FACE('',(#44),#18,.F.);
#442=ADVANCED_FACE('',(#45),#19,.F.);
#443=ADVANCED_FACE('',(#46),#15,.F.);
#444=ADVANCED_FACE('',(#47),#420,.F.);
#445=ADVANCED_FACE('',(#48),#421,.T.);
#446=ADVANCED_FACE('',(#49),#422,.F.);
#447=ADVANCED_FACE('',(#50),#423,.T.);
#448=ADVANCED_FACE('',(#51),#424,.T.);
#449=ADVANCED_FACE('',(#52),#425,.T.);
#450=ADVANCED_FACE('',(#53),#426,.T.);
#451=ADVANCED_FACE('',(#54),#427,.T.);
#452=ADVANCED_FACE('',(#55),#428,.F.);
#453=ADVANCED_FACE('',(#56),#20,.T.);
#454=CLOSED_SHELL('',(#429,#430,#431,#432,#433,#434,#435,#436,#437,#438,
#439,#440,#441,#442,#443,#444,#445,#446,#447,#448,#449,#450,#451,#452,#453));
#455=DERIVED_UNIT_ELEMENT(#457,1.);
#456=DERIVED_UNIT_ELEMENT(#887,-3.);
#457=(
MASS_UNIT()
NAMED_UNIT(*)
SI_UNIT(.KILO.,.GRAM.)
);
#458=DERIVED_UNIT((#455,#456));
#459=MEASURE_REPRESENTATION_ITEM('density measure',
POSITIVE_RATIO_MEASURE(7850.),#458);
#460=PROPERTY_DEFINITION_REPRESENTATION(#465,#462);
#461=PROPERTY_DEFINITION_REPRESENTATION(#466,#463);
#462=REPRESENTATION('material name',(#464),#884);
#463=REPRESENTATION('density',(#459),#884);
#464=DESCRIPTIVE_REPRESENTATION_ITEM('Steel','Steel');
#465=PROPERTY_DEFINITION('material property','material name',#894);
#466=PROPERTY_DEFINITION('material property','density of part',#894);
#467=AXIS2_PLACEMENT_3D('',#635,#511,#512);
#468=AXIS2_PLACEMENT_3D('',#636,#513,#514);
#469=AXIS2_PLACEMENT_3D('',#639,#515,#516);
#470=AXIS2_PLACEMENT_3D('',#645,#520,#521);
#471=AXIS2_PLACEMENT_3D('',#653,#524,#525);
#472=AXIS2_PLACEMENT_3D('',#661,#528,#529);
#473=AXIS2_PLACEMENT_3D('',#663,#531,#532);
#474=AXIS2_PLACEMENT_3D('',#665,#533,#534);
#475=AXIS2_PLACEMENT_3D('',#673,#538,#539);
#476=AXIS2_PLACEMENT_3D('',#681,#543,#544);
#477=AXIS2_PLACEMENT_3D('',#683,#545,#546);
#478=AXIS2_PLACEMENT_3D('',#690,#550,#551);
#479=AXIS2_PLACEMENT_3D('',#692,#552,#553);
#480=AXIS2_PLACEMENT_3D('',#694,#554,#555);
#481=AXIS2_PLACEMENT_3D('',#695,#556,#557);
#482=AXIS2_PLACEMENT_3D('',#698,#558,#559);
#483=AXIS2_PLACEMENT_3D('',#704,#563,#564);
#484=AXIS2_PLACEMENT_3D('',#709,#566,#567);
#485=AXIS2_PLACEMENT_3D('',#711,#569,#570);
#486=AXIS2_PLACEMENT_3D('',#715,#571,#572);
#487=AXIS2_PLACEMENT_3D('',#718,#574,#575);
#488=AXIS2_PLACEMENT_3D('',#719,#576,#577);
#489=AXIS2_PLACEMENT_3D('',#823,#578,#579);
#490=AXIS2_PLACEMENT_3D('',#824,#580,#581);
#491=AXIS2_PLACEMENT_3D('',#825,#582,#583);
#492=AXIS2_PLACEMENT_3D('',#827,#584,#585);
#493=AXIS2_PLACEMENT_3D('',#829,#587,#588);
#494=AXIS2_PLACEMENT_3D('',#833,#590,#591);
#495=AXIS2_PLACEMENT_3D('',#834,#592,#593);
#496=AXIS2_PLACEMENT_3D('',#835,#594,#595);
#497=AXIS2_PLACEMENT_3D('',#837,#596,#597);
#498=AXIS2_PLACEMENT_3D('',#838,#598,#599);
#499=AXIS2_PLACEMENT_3D('',#839,#600,#601);
#500=AXIS2_PLACEMENT_3D('',#840,#602,#603);
#501=AXIS2_PLACEMENT_3D('',#848,#606,#607);
#502=AXIS2_PLACEMENT_3D('',#850,#608,#609);
#503=AXIS2_PLACEMENT_3D('',#854,#612,#613);
#504=AXIS2_PLACEMENT_3D('',#859,#615,#616);
#505=AXIS2_PLACEMENT_3D('',#860,#617,#618);
#506=AXIS2_PLACEMENT_3D('',#868,#621,#622);
#507=AXIS2_PLACEMENT_3D('',#872,#625,#626);
#508=AXIS2_PLACEMENT_3D('',#878,#628,#629);
#509=AXIS2_PLACEMENT_3D('',#879,#630,#631);
#510=AXIS2_PLACEMENT_3D('',#880,#632,#633);
#511=DIRECTION('axis',(0.,0.,1.));
#512=DIRECTION('refdir',(1.,0.,0.));
#513=DIRECTION('center_axis',(-1.23259516440783E-32,-2.1570415377137E-32,
-1.));
#514=DIRECTION('ref_axis',(1.,-3.37350334183377E-80,-1.23259516440783E-32));
#515=DIRECTION('center_axis',(1.23259516440783E-32,2.1570415377137E-32,
1.));
#516=DIRECTION('ref_axis',(-1.,0.,0.));
#517=DIRECTION('',(-1.,0.,1.23259516440783E-32));
#518=DIRECTION('',(0.,-1.,2.1570415377137E-32));
#519=DIRECTION('',(1.,0.,-1.23259516440783E-32));
#520=DIRECTION('center_axis',(2.15117517818758E-34,0.999847695156391,0.0174524064372835));
#521=DIRECTION('ref_axis',(-1.,0.,1.23259516440783E-32));
#522=DIRECTION('',(1.,-5.39480851223101E-80,-1.23259516440783E-32));
#523=DIRECTION('',(0.0174497491606827,-0.0174497491606827,0.999695459881887));
#524=DIRECTION('center_axis',(2.15117517818758E-34,-0.999847695156391,0.0174524064372835));
#525=DIRECTION('ref_axis',(1.,4.27642353614751E-50,-1.23259516440783E-32));
#526=DIRECTION('',(-0.0174497491606827,-0.0174497491606827,-0.999695459881887));
#527=DIRECTION('',(1.,-1.35219817143652E-80,-1.23259516440783E-32));
#528=DIRECTION('center_axis',(-0.999847695156391,3.76455656182826E-34,0.0174524064372835));
#529=DIRECTION('ref_axis',(0.,-1.,2.1570415377137E-32));
#530=DIRECTION('',(2.65875896881274E-64,-1.,2.1570415377137E-32));
#531=DIRECTION('center_axis',(0.,0.,1.));
#532=DIRECTION('ref_axis',(-1.,0.,0.));
#533=DIRECTION('center_axis',(0.,0.,-1.));
#534=DIRECTION('ref_axis',(-1.,0.,0.));
#535=DIRECTION('',(0.,-1.,0.));
#536=DIRECTION('',(-1.,0.,0.));
#537=DIRECTION('',(0.,1.,0.));
#538=DIRECTION('center_axis',(0.,0.,-1.));
#539=DIRECTION('ref_axis',(-1.,0.,0.));
#540=DIRECTION('',(0.965925826289068,0.258819045102521,-4.28957236970481E-16));
#541=DIRECTION('',(0.258819045102521,-0.965925826289068,1.14938745233726E-16));
#542=DIRECTION('',(0.965925826289068,0.258819045102521,-4.28957236970481E-16));
#543=DIRECTION('center_axis',(0.,0.,-1.));
#544=DIRECTION('ref_axis',(-1.,0.,0.));
#545=DIRECTION('center_axis',(0.,0.,-1.));
#546=DIRECTION('ref_axis',(-1.,0.,0.));
#547=DIRECTION('',(0.,1.,0.));
#548=DIRECTION('',(1.,0.,0.));
#549=DIRECTION('',(0.,-1.,0.));
#550=DIRECTION('center_axis',(0.,0.,-1.));
#551=DIRECTION('ref_axis',(-1.,0.,0.));
#552=DIRECTION('center_axis',(0.,0.,-1.));
#553=DIRECTION('ref_axis',(2.22044604925031E-16,-1.,0.));
#554=DIRECTION('center_axis',(0.,0.,1.));
#555=DIRECTION('ref_axis',(1.,-3.37350334183377E-80,-1.23259516440783E-32));
#556=DIRECTION('center_axis',(-1.23259516440783E-32,-2.1570415377137E-32,
-1.));
#557=DIRECTION('ref_axis',(1.,-3.37350334183377E-80,-1.23259516440783E-32));
#558=DIRECTION('center_axis',(1.23259516440783E-32,2.1570415377137E-32,
1.));
#559=DIRECTION('ref_axis',(-1.,0.,0.));
#560=DIRECTION('',(0.965925826289068,0.258819045102521,-4.28957236970481E-16));
#561=DIRECTION('',(-0.258819045102521,0.965925826289068,-1.14938745233726E-16));
#562=DIRECTION('',(-0.965925826289068,-0.258819045102521,4.28957236970481E-16));
#563=DIRECTION('center_axis',(0.258779625708333,-0.965778711107158,0.0174524064372836));
#564=DIRECTION('ref_axis',(0.965925826289068,0.258819045102521,-4.28957236970481E-16));
#565=DIRECTION('',(-0.0213714907916154,0.0123388359615232,0.999695459881887));
#566=DIRECTION('center_axis',(0.965778711107158,0.258779625708334,0.0174524064372831));
#567=DIRECTION('ref_axis',(-0.258819045102521,0.965925826289068,-1.14938745233726E-16));
#568=DIRECTION('',(0.0123388359615226,0.0213714907916156,-0.999695459881887));
#569=DIRECTION('center_axis',(-0.258779625708333,0.965778711107158,0.0174524064372834));
#570=DIRECTION('ref_axis',(-0.965925826289068,-0.258819045102521,4.28957236970481E-16));
#571=DIRECTION('center_axis',(0.,0.,-1.));
#572=DIRECTION('ref_axis',(1.,-3.37350334183377E-80,-1.23259516440783E-32));
#573=DIRECTION('',(0.043619387365336,5.34183431177272E-18,0.999048221581858));
#574=DIRECTION('center_axis',(-1.23259516440783E-32,-2.1570415377137E-32,
-1.));
#575=DIRECTION('ref_axis',(1.,-3.37350334183377E-80,-1.23259516440783E-32));
#576=DIRECTION('center_axis',(-1.23259516440783E-32,-2.1570415377137E-32,
-1.));
#577=DIRECTION('ref_axis',(1.,-3.37350334183377E-80,-1.23259516440783E-32));
#578=DIRECTION('center_axis',(0.,0.,1.));
#579=DIRECTION('ref_axis',(0.,-1.,0.));
#580=DIRECTION('center_axis',(0.,0.,1.));
#581=DIRECTION('ref_axis',(0.,-1.,0.));
#582=DIRECTION('center_axis',(0.,0.,-1.));
#583=DIRECTION('ref_axis',(1.18310210543844E-16,-1.,0.));
#584=DIRECTION('center_axis',(0.,0.,1.));
#585=DIRECTION('ref_axis',(0.,-1.,0.));
#586=DIRECTION('',(-1.73198961629035E-16,0.719339800338651,-0.694658370458997));
#587=DIRECTION('center_axis',(0.,0.,-1.));
#588=DIRECTION('ref_axis',(2.22044604925031E-16,-1.,0.));
#589=DIRECTION('',(1.20232006502464E-17,-0.034899496702501,0.999390827019096));
#590=DIRECTION('center_axis',(0.,0.,-1.));
#591=DIRECTION('ref_axis',(0.,-1.,0.));
#592=DIRECTION('center_axis',(0.,0.,-1.));
#593=DIRECTION('ref_axis',(0.,-1.,0.));
#594=DIRECTION('center_axis',(0.,0.,-1.));
#595=DIRECTION('ref_axis',(-1.,0.,0.));
#596=DIRECTION('center_axis',(-1.22946239842315E-16,-1.,0.));
#597=DIRECTION('ref_axis',(1.,-1.22946239842315E-16,0.));
#598=DIRECTION('center_axis',(0.,0.,1.));
#599=DIRECTION('ref_axis',(0.,-1.,0.));
#600=DIRECTION('center_axis',(0.,0.,1.));
#601=DIRECTION('ref_axis',(2.22044604925031E-16,-1.,0.));
#602=DIRECTION('center_axis',(-0.999847695156391,0.,0.0174524064372835));
#603=DIRECTION('ref_axis',(0.,-1.,0.));
#604=DIRECTION('',(0.,1.,0.));
#605=DIRECTION('',(-0.0174497491606827,0.0174497491606827,-0.999695459881887));
#606=DIRECTION('center_axis',(0.,0.,-1.));
#607=DIRECTION('ref_axis',(1.,0.,0.));
#608=DIRECTION('center_axis',(0.,0.,-1.));
#609=DIRECTION('ref_axis',(-1.,0.,0.));
#610=DIRECTION('',(0.,-1.,0.));
#611=DIRECTION('',(1.,0.,0.));
#612=DIRECTION('center_axis',(0.999847695156391,0.,0.0174524064372835));
#613=DIRECTION('ref_axis',(0.,1.,0.));
#614=DIRECTION('',(-0.0174497491606827,-0.0174497491606827,0.999695459881887));
#615=DIRECTION('center_axis',(0.,0.999847695156391,0.0174524064372835));
#616=DIRECTION('ref_axis',(-1.,0.,0.));
#617=DIRECTION('center_axis',(0.999847695156391,0.,0.0174524064372835));
#618=DIRECTION('ref_axis',(0.,1.,0.));
#619=DIRECTION('',(0.,-1.,0.));
#620=DIRECTION('',(0.0174497491606827,-0.0174497491606827,-0.999695459881887));
#621=DIRECTION('center_axis',(0.,-0.999847695156391,0.0174524064372835));
#622=DIRECTION('ref_axis',(1.,0.,0.));
#623=DIRECTION('',(-1.,0.,0.));
#624=DIRECTION('',(0.0174497491606827,0.0174497491606827,0.999695459881887));
#625=DIRECTION('center_axis',(-0.999847695156391,0.,0.0174524064372835));
#626=DIRECTION('ref_axis',(0.,-1.,0.));
#627=DIRECTION('',(0.,1.,0.));
#628=DIRECTION('center_axis',(0.,0.,-1.));
#629=DIRECTION('ref_axis',(1.,0.,0.));
#630=DIRECTION('center_axis',(0.,0.,-1.));
#631=DIRECTION('ref_axis',(-1.,0.,0.));
#632=DIRECTION('center_axis',(0.,0.,-1.));
#633=DIRECTION('ref_axis',(-1.,0.,0.));
#634=DIRECTION('',(-0.0174524064372835,2.13730336808379E-18,0.999847695156391));
#635=CARTESIAN_POINT('',(0.,0.,0.));
#636=CARTESIAN_POINT('Origin',(64.7788468920546,0.195475046901719,12.09));
#637=CARTESIAN_POINT('',(47.4806288064221,1.16056490722388,12.09));
#638=CARTESIAN_POINT('',(47.4806288064221,-0.769614813420445,12.09));
#639=CARTESIAN_POINT('Origin',(52.8686969774916,0.195475046901716,12.09));
#640=CARTESIAN_POINT('',(45.9036071171694,1.16056490722388,12.09));
#641=CARTESIAN_POINT('',(56.7841231312846,1.16056490722388,12.09));
#642=CARTESIAN_POINT('',(45.9036071171694,-0.769614813420445,12.09));
#643=CARTESIAN_POINT('',(45.9036071171694,0.695475046901717,12.09));
#644=CARTESIAN_POINT('',(55.3237719347731,-0.769614813420445,12.09));
#645=CARTESIAN_POINT('Origin',(48.7893993705146,1.19547503708181,10.0899999999143));
#646=CARTESIAN_POINT('',(47.4514948265016,1.19547503708031,10.09));
#647=CARTESIAN_POINT('Ctrl Pts',(47.4514948264966,1.19547503708629,10.0899999996573));
#648=CARTESIAN_POINT('Ctrl Pts',(47.4660618164363,1.17797290852805,11.0926962732159));
#649=CARTESIAN_POINT('Ctrl Pts',(47.4806288064221,1.16056490722388,12.09));
#650=CARTESIAN_POINT('',(45.8686969774916,1.19547504690172,10.09));
#651=CARTESIAN_POINT('',(45.8686969774916,1.19547504690172,10.09));
#652=CARTESIAN_POINT('',(45.8691416551144,1.19503036927883,10.1154750012853));
#653=CARTESIAN_POINT('Origin',(45.8686969774916,-0.804524943278376,10.0899999999143));
#654=CARTESIAN_POINT('',(47.4514948265016,-0.80452494327688,10.09));
#655=CARTESIAN_POINT('Ctrl Pts',(47.4806288064221,-0.769614813420445,12.09));
#656=CARTESIAN_POINT('Ctrl Pts',(47.4660618164363,-0.787022814724615,11.0926962732159));
#657=CARTESIAN_POINT('Ctrl Pts',(47.4514948264966,-0.804524943282861,10.0899999996573));
#658=CARTESIAN_POINT('',(45.8686969774916,-0.804524953098284,10.09));
#659=CARTESIAN_POINT('',(45.8690014810542,-0.804220449535595,10.107444434755));
#660=CARTESIAN_POINT('',(45.8686969774916,-0.804524953098284,10.09));
#661=CARTESIAN_POINT('Origin',(45.8686969873115,1.19547504690172,10.0899999999143));
#662=CARTESIAN_POINT('',(45.8686969774916,0.195475046901716,10.09));
#663=CARTESIAN_POINT('Origin',(52.8686969774916,0.195475046901716,10.09));
#664=CARTESIAN_POINT('',(52.1099694465262,5.65170191708306,10.09));
#665=CARTESIAN_POINT('Origin',(52.8686969774916,0.195475046901716,10.09));
#666=CARTESIAN_POINT('',(52.1099694465256,6.70420257786765,10.09));
#667=CARTESIAN_POINT('',(52.1099694465256,3.44547504690171,10.09));
#668=CARTESIAN_POINT('',(53.6274245084575,6.70420257786764,10.09));
#669=CARTESIAN_POINT('',(53.2436969774916,6.70420257786764,10.09));
#670=CARTESIAN_POINT('',(53.6274245084569,5.65170191708306,10.09));
#671=CARTESIAN_POINT('',(53.6274245084575,2.91978688661464,10.09));
#672=CARTESIAN_POINT('',(57.8424938820064,2.56347493661592,10.09));
#673=CARTESIAN_POINT('Origin',(52.8686969774916,0.195475046901716,10.09));
#674=CARTESIAN_POINT('',(59.3713592886171,2.973133197821,10.09));
#675=CARTESIAN_POINT('',(52.6098785045936,1.16139988210336,10.09));
#676=CARTESIAN_POINT('',(59.8889973788222,1.04128154524287,10.09));
#677=CARTESIAN_POINT('',(59.3713592886171,2.973133197821,10.09));
#678=CARTESIAN_POINT('',(58.3601315737117,0.631623187427967,10.09));
#679=CARTESIAN_POINT('',(53.1275165947987,-0.770451770474772,10.09));
#680=CARTESIAN_POINT('',(58.3774245188735,0.195475046901716,10.0899999993116));
#681=CARTESIAN_POINT('Origin',(52.8686969774916,0.195475046901716,10.09));
#682=CARTESIAN_POINT('',(53.627424508457,-5.26075182327963,10.09));
#683=CARTESIAN_POINT('Origin',(52.8686969774916,0.195475046901716,10.09));
#684=CARTESIAN_POINT('',(53.6274245084575,-6.31325248406421,10.09));
#685=CARTESIAN_POINT('',(53.6274245084575,-3.05452495309829,10.09));
#686=CARTESIAN_POINT('',(52.1099694465256,-6.31325248406421,10.09));
#687=CARTESIAN_POINT('',(52.4936969774916,-6.31325248406421,10.09));
#688=CARTESIAN_POINT('',(52.1099694465262,-5.26075182327963,10.09));
#689=CARTESIAN_POINT('',(52.1099694465256,-2.5288367928112,10.09));
#690=CARTESIAN_POINT('Origin',(52.8686969774916,0.195475046901716,10.09));
#691=CARTESIAN_POINT('',(52.8686969774916,4.39555468499049,10.09));
#692=CARTESIAN_POINT('Origin',(52.8686969774916,0.195475046901716,10.09));
#693=CARTESIAN_POINT('',(47.6436969774916,0.195475046901716,10.09));
#694=CARTESIAN_POINT('Origin',(48.0186969774916,0.195475046901716,10.09));
#695=CARTESIAN_POINT('Origin',(65.5244831213657,0.195475046901719,12.09));
#696=CARTESIAN_POINT('',(58.3229549086716,0.657803366116456,12.09));
#697=CARTESIAN_POINT('',(57.8233880190001,2.52221391015728,12.09));
#698=CARTESIAN_POINT('Origin',(52.8686969774916,0.195475046901716,12.09));
#699=CARTESIAN_POINT('',(59.8462413642922,1.06596674174124,12.09));
#700=CARTESIAN_POINT('',(59.4106619859808,0.949253599083058,12.09));
#701=CARTESIAN_POINT('',(59.3466740921188,2.93037718329102,12.09));
#702=CARTESIAN_POINT('',(58.5677824423765,5.83724039372038,12.09));
#703=CARTESIAN_POINT('',(60.32168564997,3.19163074282826,12.09));
#704=CARTESIAN_POINT('Origin',(57.0678155039553,0.285348150337308,10.0899999999143));
#705=CARTESIAN_POINT('Ctrl Pts',(58.360131572921,0.631623197383968,10.09));
#706=CARTESIAN_POINT('Ctrl Pts',(58.3415310598283,0.644758741741988,11.0926962745102));
#707=CARTESIAN_POINT('Ctrl Pts',(58.3229549086717,0.657803366116468,12.09));
#708=CARTESIAN_POINT('',(59.8884527621841,1.04159597980545,10.1154750012853));
#709=CARTESIAN_POINT('Origin',(59.8889973693369,1.0412815427013,10.0899999999143));
#710=CARTESIAN_POINT('',(59.371143972083,2.97276025864429,10.107444434755));
#711=CARTESIAN_POINT('Origin',(59.3713592911587,2.9731331883357,10.0899999999143));
#712=CARTESIAN_POINT('Ctrl Pts',(57.8233880190002,2.52221391015731,12.09));
#713=CARTESIAN_POINT('Ctrl Pts',(57.8329531314756,2.54279896337933,11.0926962754311));
#714=CARTESIAN_POINT('Ctrl Pts',(57.8424938820065,2.56347493661594,10.09));
#715=CARTESIAN_POINT('Origin',(48.0186969774916,0.195475046901716,10.09));
#716=CARTESIAN_POINT('',(47.6546122132187,0.195475046901716,10.34));
#717=CARTESIAN_POINT('',(47.6436969774916,0.195475046901716,10.09));
#718=CARTESIAN_POINT('Origin',(48.0186969774916,0.195475046901716,10.34));
#719=CARTESIAN_POINT('Origin',(63.3355607481765,0.195475046901719,10.34));
#720=CARTESIAN_POINT('Ctrl Pts',(52.8686969774916,-5.17020564748858,18.2851482715089));
#721=CARTESIAN_POINT('Ctrl Pts',(58.2343776718819,-5.17020564748858,18.2851482715089));
#722=CARTESIAN_POINT('Ctrl Pts',(58.2343776718819,0.195475046901716,18.2851482715089));
#723=CARTESIAN_POINT('Ctrl Pts',(58.2343776718819,5.561155741292,18.2851482715089));
#724=CARTESIAN_POINT('Ctrl Pts',(52.8686969774916,5.56115574129201,18.2851482715089));
#725=CARTESIAN_POINT('Ctrl Pts',(47.5030162831013,5.56115574129201,18.2851482715089));
#726=CARTESIAN_POINT('Ctrl Pts',(47.5030162831013,0.195475046901716,18.2851482715089));
#727=CARTESIAN_POINT('Ctrl Pts',(47.5030162831013,-5.17020564748858,18.2851482715089));
#728=CARTESIAN_POINT('Ctrl Pts',(52.8686969774916,-5.17020564748858,18.2851482715089));
#729=CARTESIAN_POINT('Ctrl Pts',(52.8686969774916,-5.16692446353279,18.4731271843786));
#730=CARTESIAN_POINT('Ctrl Pts',(58.2310964879261,-5.16692446353279,18.4731271843786));
#731=CARTESIAN_POINT('Ctrl Pts',(58.2310964879261,0.195475046901716,18.4731271843786));
#732=CARTESIAN_POINT('Ctrl Pts',(58.2310964879261,5.55787455733621,18.4731271843786));
#733=CARTESIAN_POINT('Ctrl Pts',(52.8686969774916,5.55787455733622,18.4731271843786));
#734=CARTESIAN_POINT('Ctrl Pts',(47.5062974670571,5.55787455733621,18.4731271843786));
#735=CARTESIAN_POINT('Ctrl Pts',(47.5062974670571,0.195475046901716,18.4731271843786));
#736=CARTESIAN_POINT('Ctrl Pts',(47.5062974670571,-5.16692446353279,18.4731271843786));
#737=CARTESIAN_POINT('Ctrl Pts',(52.8686969774916,-5.16692446353279,18.4731271843786));
#738=CARTESIAN_POINT('Ctrl Pts',(52.8686969774916,-5.10254091112797,18.819477787234));
#739=CARTESIAN_POINT('Ctrl Pts',(58.1667129355213,-5.10254091112797,18.819477787234));
#740=CARTESIAN_POINT('Ctrl Pts',(58.1667129355213,0.195475046901716,18.819477787234));
#741=CARTESIAN_POINT('Ctrl Pts',(58.1667129355213,5.4934910049314,18.819477787234));
#742=CARTESIAN_POINT('Ctrl Pts',(52.8686969774916,5.4934910049314,18.819477787234));
#743=CARTESIAN_POINT('Ctrl Pts',(47.5706810194619,5.4934910049314,18.819477787234));
#744=CARTESIAN_POINT('Ctrl Pts',(47.5706810194619,0.195475046901716,18.819477787234));
#745=CARTESIAN_POINT('Ctrl Pts',(47.5706810194619,-5.10254091112797,18.819477787234));
#746=CARTESIAN_POINT('Ctrl Pts',(52.8686969774916,-5.10254091112797,18.819477787234));
#747=CARTESIAN_POINT('Ctrl Pts',(52.8686969774916,-4.83265439954062,19.2502596090627));
#748=CARTESIAN_POINT('Ctrl Pts',(57.8968264239339,-4.83265439954062,19.2502596090627));
#749=CARTESIAN_POINT('Ctrl Pts',(57.8968264239339,0.195475046901716,19.2502596090627));
#750=CARTESIAN_POINT('Ctrl Pts',(57.8968264239339,5.22360449334404,19.2502596090627));
#751=CARTESIAN_POINT('Ctrl Pts',(52.8686969774916,5.22360449334405,19.2502596090627));
#752=CARTESIAN_POINT('Ctrl Pts',(47.8405675310492,5.22360449334405,19.2502596090627));
#753=CARTESIAN_POINT('Ctrl Pts',(47.8405675310492,0.195475046901716,19.2502596090627));
#754=CARTESIAN_POINT('Ctrl Pts',(47.8405675310492,-4.83265439954062,19.2502596090627));
#755=CARTESIAN_POINT('Ctrl Pts',(52.8686969774916,-4.83265439954062,19.2502596090627));
#756=CARTESIAN_POINT('Ctrl Pts',(52.8686969774916,-4.17081852653932,19.66962634646));
#757=CARTESIAN_POINT('Ctrl Pts',(57.2349905509326,-4.17081852653932,19.66962634646));
#758=CARTESIAN_POINT('Ctrl Pts',(57.2349905509326,0.195475046901716,19.66962634646));
#759=CARTESIAN_POINT('Ctrl Pts',(57.2349905509326,4.56176862034274,19.66962634646));
#760=CARTESIAN_POINT('Ctrl Pts',(52.8686969774916,4.56176862034275,19.66962634646));
#761=CARTESIAN_POINT('Ctrl Pts',(48.5024034040505,4.56176862034275,19.66962634646));
#762=CARTESIAN_POINT('Ctrl Pts',(48.5024034040505,0.195475046901716,19.66962634646));
#763=CARTESIAN_POINT('Ctrl Pts',(48.5024034040505,-4.17081852653932,19.66962634646));
#764=CARTESIAN_POINT('Ctrl Pts',(52.8686969774916,-4.17081852653932,19.66962634646));
#765=CARTESIAN_POINT('Ctrl Pts',(52.8686969774916,-2.98598486241956,20.0076761495718));
#766=CARTESIAN_POINT('Ctrl Pts',(56.0501568868128,-2.98598486241956,20.0076761495718));
#767=CARTESIAN_POINT('Ctrl Pts',(56.0501568868128,0.195475046901716,20.0076761495718));
#768=CARTESIAN_POINT('Ctrl Pts',(56.0501568868128,3.37693495622299,20.0076761495718));
#769=CARTESIAN_POINT('Ctrl Pts',(52.8686969774916,3.37693495622299,20.0076761495718));
#770=CARTESIAN_POINT('Ctrl Pts',(49.6872370681703,3.37693495622299,20.0076761495718));
#771=CARTESIAN_POINT('Ctrl Pts',(49.6872370681703,0.195475046901716,20.0076761495718));
#772=CARTESIAN_POINT('Ctrl Pts',(49.6872370681703,-2.98598486241956,20.0076761495718));
#773=CARTESIAN_POINT('Ctrl Pts',(52.8686969774916,-2.98598486241956,20.0076761495718));
#774=CARTESIAN_POINT('Ctrl Pts',(52.8686969774916,-1.82954598661432,20.1658880152439));
#775=CARTESIAN_POINT('Ctrl Pts',(54.8937180110076,-1.82954598661432,20.1658880152439));
#776=CARTESIAN_POINT('Ctrl Pts',(54.8937180110076,0.195475046901716,20.1658880152439));
#777=CARTESIAN_POINT('Ctrl Pts',(54.8937180110076,2.22049608041774,20.1658880152439));
#778=CARTESIAN_POINT('Ctrl Pts',(52.8686969774916,2.22049608041774,20.1658880152439));
#779=CARTESIAN_POINT('Ctrl Pts',(50.8436759439755,2.22049608041774,20.1658880152439));
#780=CARTESIAN_POINT('Ctrl Pts',(50.8436759439755,0.195475046901716,20.1658880152439));
#781=CARTESIAN_POINT('Ctrl Pts',(50.8436759439755,-1.82954598661432,20.1658880152439));
#782=CARTESIAN_POINT('Ctrl Pts',(52.8686969774916,-1.82954598661432,20.1658880152439));
#783=CARTESIAN_POINT('Ctrl Pts',(52.8686969774916,-0.858630340926752,20.2265200956562));
#784=CARTESIAN_POINT('Ctrl Pts',(53.92280236532,-0.858630340926752,20.2265200956562));
#785=CARTESIAN_POINT('Ctrl Pts',(53.92280236532,0.195475046901716,20.2265200956562));
#786=CARTESIAN_POINT('Ctrl Pts',(53.92280236532,1.24958043473018,20.2265200956562));
#787=CARTESIAN_POINT('Ctrl Pts',(52.8686969774916,1.24958043473018,20.2265200956562));
#788=CARTESIAN_POINT('Ctrl Pts',(51.8145915896631,1.24958043473018,20.2265200956562));
#789=CARTESIAN_POINT('Ctrl Pts',(51.8145915896631,0.195475046901716,20.2265200956562));
#790=CARTESIAN_POINT('Ctrl Pts',(51.8145915896631,-0.858630340926752,20.2265200956562));
#791=CARTESIAN_POINT('Ctrl Pts',(52.8686969774916,-0.858630340926752,20.2265200956562));
#792=CARTESIAN_POINT('Ctrl Pts',(52.8686969774916,-0.163820689472889,20.24));
#793=CARTESIAN_POINT('Ctrl Pts',(53.2279927138662,-0.163820689472889,20.24));
#794=CARTESIAN_POINT('Ctrl Pts',(53.2279927138662,0.195475046901716,20.24));
#795=CARTESIAN_POINT('Ctrl Pts',(53.2279927138662,0.554770783276322,20.24));
#796=CARTESIAN_POINT('Ctrl Pts',(52.8686969774916,0.554770783276322,20.24));
#797=CARTESIAN_POINT('Ctrl Pts',(52.509401241117,0.554770783276322,20.24));
#798=CARTESIAN_POINT('Ctrl Pts',(52.509401241117,0.195475046901716,20.24));
#799=CARTESIAN_POINT('Ctrl Pts',(52.509401241117,-0.163820689472889,20.24));
#800=CARTESIAN_POINT('Ctrl Pts',(52.8686969774916,-0.163820689472889,20.24));
#801=CARTESIAN_POINT('Ctrl Pts',(52.8686969774916,0.195475046901716,20.24));
#802=CARTESIAN_POINT('Ctrl Pts',(52.8686969774916,0.195475046901716,20.24));
#803=CARTESIAN_POINT('Ctrl Pts',(52.8686969774916,0.195475046901716,20.24));
#804=CARTESIAN_POINT('Ctrl Pts',(52.8686969774916,0.195475046901716,20.24));
#805=CARTESIAN_POINT('Ctrl Pts',(52.8686969774916,0.195475046901716,20.24));
#806=CARTESIAN_POINT('Ctrl Pts',(52.8686969774916,0.195475046901716,20.24));
#807=CARTESIAN_POINT('Ctrl Pts',(52.8686969774916,0.195475046901716,20.24));
#808=CARTESIAN_POINT('Ctrl Pts',(52.8686969774916,0.195475046901716,20.24));
#809=CARTESIAN_POINT('Ctrl Pts',(52.8686969774916,0.195475046901716,20.24));
#810=CARTESIAN_POINT('',(52.8686969774916,0.195475046901716,20.24));
#811=CARTESIAN_POINT('',(52.8686969774916,-5.17020564748858,18.2851482715089));
#812=CARTESIAN_POINT('Ctrl Pts',(52.8686969774916,0.195475046901716,20.24));
#813=CARTESIAN_POINT('Ctrl Pts',(52.8686969774916,-0.163820689472889,20.24));
#814=CARTESIAN_POINT('Ctrl Pts',(52.8686969774916,-0.858630340926752,20.2265200956562));
#815=CARTESIAN_POINT('Ctrl Pts',(52.8686969774916,-1.82954598661432,20.1658880152439));
#816=CARTESIAN_POINT('Ctrl Pts',(52.8686969774916,-2.98598486241956,20.0076761495718));
#817=CARTESIAN_POINT('Ctrl Pts',(52.8686969774916,-4.17081852653932,19.66962634646));
#818=CARTESIAN_POINT('Ctrl Pts',(52.8686969774916,-4.83265439954062,19.2502596090627));
#819=CARTESIAN_POINT('Ctrl Pts',(52.8686969774916,-5.10254091112797,18.819477787234));
#820=CARTESIAN_POINT('Ctrl Pts',(52.8686969774916,-5.16692446353279,18.4731271843786));
#821=CARTESIAN_POINT('Ctrl Pts',(52.8686969774916,-5.17020564748858,18.2851482715089));
#822=CARTESIAN_POINT('',(58.2343776736854,0.195475046901716,18.2851482715404));
#823=CARTESIAN_POINT('Origin',(52.8686969774916,0.195475046901716,18.2851482715089));
#824=CARTESIAN_POINT('Origin',(52.8686969774916,0.195475046901716,18.2851482715089));
#825=CARTESIAN_POINT('Origin',(52.8686969774916,0.195475046901716,10.3398477067548));
#826=CARTESIAN_POINT('',(52.8686969774916,3.87810493663923,10.5896954135095));
#827=CARTESIAN_POINT('Origin',(52.8686969774916,0.195475046901716,10.5896954135095));
#828=CARTESIAN_POINT('',(52.8686969774916,4.13682981081486,10.3398477067548));
#829=CARTESIAN_POINT('Origin',(52.8686969774916,0.195475046901716,12.2399995326996));
#830=CARTESIAN_POINT('',(52.8686969774916,3.86382131312798,10.9987248741756));
#831=CARTESIAN_POINT('',(52.8686969774916,3.82047504690172,12.2399995326996));
#832=CARTESIAN_POINT('',(56.5370432437178,0.195475046901716,10.9987248741756));
#833=CARTESIAN_POINT('Origin',(52.8686969774916,0.195475046901716,10.9987248741756));
#834=CARTESIAN_POINT('Origin',(52.8686969774916,0.195475046901716,10.9987248741756));
#835=CARTESIAN_POINT('Origin',(52.8686969774916,0.195475046901716,10.99));
#836=CARTESIAN_POINT('',(56.2871955369631,0.195475046901716,11.24));
#837=CARTESIAN_POINT('Origin',(56.2871955369631,0.195475046901716,10.99));
#838=CARTESIAN_POINT('Origin',(52.8686969774916,0.195475046901716,11.24));
#839=CARTESIAN_POINT('Origin',(74.3282478411353,-31.0222814137636,11.24));
#840=CARTESIAN_POINT('Origin',(52.1186969789895,6.69547504690171,10.5899999999869));
#841=CARTESIAN_POINT('',(52.1448795763821,5.62122526455202,12.0899999999999));
#842=CARTESIAN_POINT('Ctrl Pts',(52.1099694466084,5.65170191648905,10.0899999993011));
#843=CARTESIAN_POINT('Ctrl Pts',(52.1274733971489,5.63646359022086,11.092800654142));
#844=CARTESIAN_POINT('Ctrl Pts',(52.1448795764947,5.62122526395267,12.0900000010045));
#845=CARTESIAN_POINT('',(52.1448795763821,6.66929244801121,12.09));
#846=CARTESIAN_POINT('',(52.1448795763821,3.44547504690171,12.09));
#847=CARTESIAN_POINT('',(52.1189253492984,6.69524667509489,10.6030833262198));
#848=CARTESIAN_POINT('Origin',(52.8686969774916,0.195475046901716,12.09));
#849=CARTESIAN_POINT('',(53.592514378601,5.62122526455202,12.0899999999999));
#850=CARTESIAN_POINT('Origin',(52.8686969774916,0.195475046901716,12.09));
#851=CARTESIAN_POINT('',(53.5925143786011,6.66929244801121,12.09));
#852=CARTESIAN_POINT('',(53.5925143786011,2.91978688661464,12.09));
#853=CARTESIAN_POINT('',(53.2436969774916,6.66929244801121,12.09));
#854=CARTESIAN_POINT('Origin',(53.6186969759936,5.64409872632756,10.5899999999869));
#855=CARTESIAN_POINT('Ctrl Pts',(53.5925143784502,5.62122533134194,12.0900000022428));
#856=CARTESIAN_POINT('Ctrl Pts',(53.6099205577913,5.63646365741952,11.0928006556603));
#857=CARTESIAN_POINT('Ctrl Pts',(53.6274245083245,5.6517019834971,10.0900000012308));
#858=CARTESIAN_POINT('',(53.618536907237,6.69531497664718,10.5991703329095));
#859=CARTESIAN_POINT('Origin',(53.6186969774916,6.69547504540376,10.5899999999869));
#860=CARTESIAN_POINT('Origin',(53.6186969759936,-6.30452495309829,10.5899999999869));
#861=CARTESIAN_POINT('',(53.5925143786011,-5.23027517074859,12.0899999999999));
#862=CARTESIAN_POINT('Ctrl Pts',(53.6274245082775,-5.26075188965279,10.0900000039124));
#863=CARTESIAN_POINT('Ctrl Pts',(53.6099205577604,-5.24551356358906,11.0928006574227));
#864=CARTESIAN_POINT('Ctrl Pts',(53.5925143784353,-5.23027523752534,12.0900000031008));
#865=CARTESIAN_POINT('',(53.5925143786011,-6.27834235420778,12.09));
#866=CARTESIAN_POINT('',(53.5925143786011,-3.05452495309829,12.09));
#867=CARTESIAN_POINT('',(53.6184686056847,-6.30429658129146,10.6030833262198));
#868=CARTESIAN_POINT('Origin',(52.1186969774916,-6.30452495160033,10.5899999999869));
#869=CARTESIAN_POINT('',(52.1448795763821,-6.27834235420777,12.09));
#870=CARTESIAN_POINT('',(52.4936969774916,-6.27834235420778,12.09));
#871=CARTESIAN_POINT('',(52.1188570477461,-6.30436488284375,10.5991703329095));
#872=CARTESIAN_POINT('Origin',(52.1186969789895,-5.25314863252413,10.5899999999869));
#873=CARTESIAN_POINT('',(52.1448795763821,-5.23027517074859,12.0899999999999));
#874=CARTESIAN_POINT('Ctrl Pts',(52.1448795765164,-5.23027517013025,12.0900000022562));
#875=CARTESIAN_POINT('Ctrl Pts',(52.1274733971683,-5.24551349640046,11.0928006552607));
#876=CARTESIAN_POINT('Ctrl Pts',(52.1099694466256,-5.26075182267066,10.0900000002856));
#877=CARTESIAN_POINT('',(52.1448795763821,-2.5288367928112,12.09));
#878=CARTESIAN_POINT('Origin',(52.8686969774916,0.195475046901716,12.09));
#879=CARTESIAN_POINT('Origin',(52.8686969774916,0.195475046901716,12.09));
#880=CARTESIAN_POINT('Origin',(52.8686969774916,0.195475046901716,10.5900005102158));
#881=CARTESIAN_POINT('',(58.3686969774916,0.195475046901716,10.5900005102158));
#882=UNCERTAINTY_MEASURE_WITH_UNIT(LENGTH_MEASURE(0.01),#886,
'DISTANCE_ACCURACY_VALUE',
'Maximum model space distance between geometric entities at asserted c
onnectivities');
#883=UNCERTAINTY_MEASURE_WITH_UNIT(LENGTH_MEASURE(0.01),#886,
'DISTANCE_ACCURACY_VALUE',
'Maximum model space distance between geometric entities at asserted c
onnectivities');
#884=(
GEOMETRIC_REPRESENTATION_CONTEXT(3)
GLOBAL_UNCERTAINTY_ASSIGNED_CONTEXT((#882))
GLOBAL_UNIT_ASSIGNED_CONTEXT((#886,#888,#889))
REPRESENTATION_CONTEXT('','3D')
);
#885=(
GEOMETRIC_REPRESENTATION_CONTEXT(3)
GLOBAL_UNCERTAINTY_ASSIGNED_CONTEXT((#883))
GLOBAL_UNIT_ASSIGNED_CONTEXT((#886,#888,#889))
REPRESENTATION_CONTEXT('','3D')
);
#886=(
LENGTH_UNIT()
NAMED_UNIT(*)
SI_UNIT(.MILLI.,.METRE.)
);
#887=(
LENGTH_UNIT()
NAMED_UNIT(*)
SI_UNIT($,.METRE.)
);
#888=(
NAMED_UNIT(*)
PLANE_ANGLE_UNIT()
SI_UNIT($,.RADIAN.)
);
#889=(
NAMED_UNIT(*)
SI_UNIT($,.STERADIAN.)
SOLID_ANGLE_UNIT()
);
#890=SHAPE_DEFINITION_REPRESENTATION(#891,#892);
#891=PRODUCT_DEFINITION_SHAPE('',$,#894);
#892=SHAPE_REPRESENTATION('',(#467),#884);
#893=PRODUCT_DEFINITION_CONTEXT('part definition',#898,'design');
#894=PRODUCT_DEFINITION('Button_West','Button_West',#895,#893);
#895=PRODUCT_DEFINITION_FORMATION('',$,#900);
#896=PRODUCT_RELATED_PRODUCT_CATEGORY('Button_West','Button_West',(#900));
#897=APPLICATION_PROTOCOL_DEFINITION('international standard',
'automotive_design',2009,#898);
#898=APPLICATION_CONTEXT(
'Core Data for Automotive Mechanical Design Process');
#899=PRODUCT_CONTEXT('part definition',#898,'mechanical');
#900=PRODUCT('Button_West','Button_West',$,(#899));
#901=PRESENTATION_STYLE_ASSIGNMENT((#903));
#902=PRESENTATION_STYLE_ASSIGNMENT((#904));
#903=SURFACE_STYLE_USAGE(.BOTH.,#905);
#904=SURFACE_STYLE_USAGE(.BOTH.,#906);
#905=SURFACE_SIDE_STYLE('',(#907));
#906=SURFACE_SIDE_STYLE('',(#908));
#907=SURFACE_STYLE_FILL_AREA(#909);
#908=SURFACE_STYLE_FILL_AREA(#910);
#909=FILL_AREA_STYLE('Steel - Satin',(#911));
#910=FILL_AREA_STYLE('ClearParts',(#912));
#911=FILL_AREA_STYLE_COLOUR('Steel - Satin',#913);
#912=FILL_AREA_STYLE_COLOUR('ClearParts',#914);
#913=COLOUR_RGB('Steel - Satin',0.627450980392157,0.627450980392157,0.627450980392157);
#914=COLOUR_RGB('ClearParts',0.964705882352941,0.964705882352941,0.952941176470588);
ENDSEC;
END-ISO-10303-21;
