ISO-10303-21;
HEADER;
/* Generated by software containing ST-Developer
 * from STEP Tools, Inc. (www.steptools.com) 
 */

FILE_DESCRIPTION(
/* description */ (''),
/* implementation_level */ '2;1');

FILE_NAME(
/* name */ 'Button_North.step',
/* time_stamp */ '2025-08-19T12:52:34-07:00',
/* author */ (''),
/* organization */ (''),
/* preprocessor_version */ 'ST-DEVELOPER v20.1',
/* originating_system */ 'Autodesk Translation Framework v14.10.0.0',
/* authorisation */ '');

FILE_SCHEMA (('AUTOMOTIVE_DESIGN { 1 0 10303 214 3 1 1 }'));
ENDSEC;

DATA;
#10=MECHANICAL_DESIGN_GEOMETRIC_PRESENTATION_REPRESENTATION('',(#13),#980);
#11=SHAPE_REPRESENTATION_RELATIONSHIP('SRR','None',#987,#12);
#12=ADVANCED_BREP_SHAPE_REPRESENTATION('',(#14),#979);
#13=STYLED_ITEM('',(#997),#14);
#14=MANIFOLD_SOLID_BREP('Button (1) (1)',#369);
#15=(
BOUNDED_CURVE()
B_SPLINE_CURVE(2,(#937,#938,#939),.UNSPECIFIED.,.F.,.F.)
B_SPLINE_CURVE_WITH_KNOTS((3,3),(9596.31894375779,9598.68825766155),
 .UNSPECIFIED.)
CURVE()
GEOMETRIC_REPRESENTATION_ITEM()
RATIONAL_B_SPLINE_CURVE((1.00000000022781,1.00000000022781,1.00000000022782))
REPRESENTATION_ITEM('')
);
#16=(
BOUNDED_CURVE()
B_SPLINE_CURVE(2,(#950,#951,#952),.UNSPECIFIED.,.F.,.F.)
B_SPLINE_CURVE_WITH_KNOTS((3,3),(10442.3048915786,10444.6742054523),
 .UNSPECIFIED.)
CURVE()
GEOMETRIC_REPRESENTATION_ITEM()
RATIONAL_B_SPLINE_CURVE((1.,1.,1.))
REPRESENTATION_ITEM('')
);
#17=(
BOUNDED_CURVE()
B_SPLINE_CURVE(2,(#957,#958,#959),.UNSPECIFIED.,.F.,.F.)
B_SPLINE_CURVE_WITH_KNOTS((3,3),(9596.31893906834,9598.68825293987),
 .UNSPECIFIED.)
CURVE()
GEOMETRIC_REPRESENTATION_ITEM()
RATIONAL_B_SPLINE_CURVE((1.,1.,1.))
REPRESENTATION_ITEM('')
);
#18=(
BOUNDED_CURVE()
B_SPLINE_CURVE(2,(#969,#970,#971),.UNSPECIFIED.,.F.,.F.)
B_SPLINE_CURVE_WITH_KNOTS((3,3),(10442.3048859787,10444.6741998828),
 .UNSPECIFIED.)
CURVE()
GEOMETRIC_REPRESENTATION_ITEM()
RATIONAL_B_SPLINE_CURVE((1.00000000022782,1.00000000022781,1.00000000022781))
REPRESENTATION_ITEM('')
);
#19=TOROIDAL_SURFACE('',#410,3.41849855947149,0.25);
#20=FACE_BOUND('',#77,.T.);
#21=FACE_BOUND('',#78,.T.);
#22=FACE_BOUND('',#79,.T.);
#23=FACE_BOUND('',#80,.T.);
#24=FACE_BOUND('',#81,.T.);
#25=B_SPLINE_CURVE_WITH_KNOTS('',3,(#655,#656,#657,#658,#659,#660,#661,
#662,#663,#664),.UNSPECIFIED.,.F.,.F.,(4,3,3,4),(0.,0.352052163229589,1.,
1.00001299793012),.UNSPECIFIED.);
#26=B_SPLINE_CURVE_WITH_KNOTS('',3,(#667,#668,#669,#670,#671,#672,#673,
#674,#675,#676,#677,#678,#679,#680,#681,#682,#683,#684,#685,#686,#687,#688,
#689,#690,#691,#692,#693,#694,#695,#696,#697,#698,#699,#700,#701,#702,#703,
#704,#705,#706,#707,#708,#709,#710,#711,#712,#713,#714,#715,#716,#717,#718,
#719,#720,#721,#722,#723,#724,#725,#726,#727,#728,#729,#730,#731,#732,#733,
#734,#735,#736,#737,#738,#739,#740,#741,#742,#743,#744,#745,#746,#747,#748,
#749,#750,#751,#752,#753,#754,#755,#756,#757,#758,#759,#760,#761,#762,#763,
#764,#765,#766,#767,#768,#769,#770,#771,#772,#773,#774,#775,#776,#777,#778,
#779,#780,#781,#782,#783,#784,#785,#786,#787,#788,#789,#790,#791,#792,#793,
#794,#795,#796,#797,#798,#799,#800,#801,#802,#803,#804,#805,#806,#807,#808,
#809,#810,#811,#812,#813,#814,#815,#816,#817,#818,#819,#820,#821,#822,#823,
#824,#825,#826,#827,#828,#829,#830,#831,#832,#833,#834,#835,#836,#837,#838,
#839,#840,#841,#842,#843,#844,#845,#846,#847,#848,#849,#850,#851,#852,#853,
#854,#855,#856,#857,#858,#859,#860,#861,#862,#863,#864,#865,#866,#867,#868,
#869,#870,#871,#872,#873,#874,#875,#876,#877,#878,#879,#880,#881,#882,#883,
#884,#885,#886,#887,#888,#889,#890,#891,#892,#893,#894,#895,#896,#897,#898),
 .UNSPECIFIED.,.F.,.F.,(4,3,3,3,3,3,3,3,3,3,3,3,3,3,3,3,3,3,3,3,3,3,3,3,
3,3,3,3,3,3,3,3,3,3,3,3,3,3,3,3,3,3,3,3,3,3,3,3,3,3,3,3,3,3,3,3,3,3,3,3,
3,3,3,3,3,3,3,3,3,3,3,3,3,3,3,3,3,4),(3.17258705285231,3.20969524825576,
3.24625614972472,3.28232485524613,3.31795483619508,3.35319811229966,3.38810541961006,
3.42438873396069,3.4601051215246,3.49526344053282,3.52987241080653,3.56394061591972,
3.59785840083108,3.63180053518246,3.665812199315,3.69993869970463,3.73422560230589,
3.76871886647359,3.8034649800293,3.8385110960508,3.8739051719773,3.90969611164165,
3.94593391086247,3.98266980725554,4.00966305304922,4.01656380163239,4.01881072058933,
4.05581733630516,4.09229107765533,4.12828583950103,4.16385396237811,4.19904640090583,
4.23391288559861,4.26850207884861,4.30286172580153,4.33703880081317,4.3710796501429,
4.40503013151265,4.4389357511395,4.47284179883409,4.50679348174239,4.54083605730239,
4.57501496598132,4.61049067135849,4.64524191512951,4.68028691178443,4.71567218097862,
4.75144514739382,4.78765427603187,4.82434921137336,4.85203322158203,4.85884171748325,
4.86409775852838,4.86651416655152,4.90349397150498,4.93995102644001,4.97593745286181,
5.0115039055428,5.04669972987305,5.08157311305903,5.11617122986524,5.15054038355704,
5.18552145571289,5.21953426909471,5.25347536438002,5.28738608775447,5.32130766541073,
5.35528130977555,5.38934832506796,5.42355021266028,5.45938612833408,5.49413299194636,
5.52913933749788,5.56444406310529,5.60089243184163,5.63711118780835,5.67398119346533,
5.71023753805066),.UNSPECIFIED.);
#27=(
BOUNDED_SURFACE()
B_SPLINE_SURFACE(3,2,((#563,#564,#565,#566,#567,#568,#569,#570,#571),(#572,
#573,#574,#575,#576,#577,#578,#579,#580),(#581,#582,#583,#584,#585,#586,
#587,#588,#589),(#590,#591,#592,#593,#594,#595,#596,#597,#598),(#599,#600,
#601,#602,#603,#604,#605,#606,#607),(#608,#609,#610,#611,#612,#613,#614,
#615,#616),(#617,#618,#619,#620,#621,#622,#623,#624,#625),(#626,#627,#628,
#629,#630,#631,#632,#633,#634),(#635,#636,#637,#638,#639,#640,#641,#642,
#643),(#644,#645,#646,#647,#648,#649,#650,#651,#652)),.UNSPECIFIED.,.F.,
 .T.,.F.)
B_SPLINE_SURFACE_WITH_KNOTS((4,3,3,4),(3,2,2,2,3),(-1.01,-1.,-0.352052163229589,
0.),(0.,1.5707963267949,3.14159265358979,4.71238898038469,6.28318530717959),
 .UNSPECIFIED.)
GEOMETRIC_REPRESENTATION_ITEM()
RATIONAL_B_SPLINE_SURFACE(((1.,0.707106781186548,1.,0.707106781186548,1.,
0.707106781186548,1.,0.707106781186548,1.),(1.,0.707106781186548,1.,0.707106781186548,
1.,0.707106781186548,1.,0.707106781186548,1.),(1.,0.707106781186548,1.,
0.707106781186548,1.,0.707106781186548,1.,0.707106781186548,1.),(1.,0.707106781186548,
1.,0.707106781186548,1.,0.707106781186548,1.,0.707106781186548,1.),(1.,
0.707106781186548,1.,0.707106781186548,1.,0.707106781186548,1.,0.707106781186548,
1.),(1.,0.707106781186548,1.,0.707106781186548,1.,0.707106781186548,1.,
0.707106781186548,1.),(1.,0.707106781186548,1.,0.707106781186548,1.,0.707106781186548,
1.,0.707106781186548,1.),(1.,0.707106781186548,1.,0.707106781186548,1.,
0.707106781186548,1.,0.707106781186548,1.),(1.,0.707106781186548,1.,0.707106781186548,
1.,0.707106781186548,1.,0.707106781186548,1.),(1.,0.707106781186548,1.,
0.707106781186548,1.,0.707106781186548,1.,0.707106781186548,1.)))
REPRESENTATION_ITEM('')
SURFACE()
);
#28=PLANE('',#386);
#29=PLANE('',#390);
#30=PLANE('',#394);
#31=PLANE('',#398);
#32=PLANE('',#406);
#33=PLANE('',#413);
#34=PLANE('',#414);
#35=PLANE('',#415);
#36=PLANE('',#417);
#37=PLANE('',#418);
#38=PLANE('',#419);
#39=PLANE('',#420);
#40=PLANE('',#421);
#41=PLANE('',#422);
#42=FACE_OUTER_BOUND('',#65,.T.);
#43=FACE_OUTER_BOUND('',#66,.T.);
#44=FACE_OUTER_BOUND('',#67,.T.);
#45=FACE_OUTER_BOUND('',#68,.T.);
#46=FACE_OUTER_BOUND('',#69,.T.);
#47=FACE_OUTER_BOUND('',#70,.T.);
#48=FACE_OUTER_BOUND('',#71,.T.);
#49=FACE_OUTER_BOUND('',#72,.T.);
#50=FACE_OUTER_BOUND('',#73,.T.);
#51=FACE_OUTER_BOUND('',#74,.T.);
#52=FACE_OUTER_BOUND('',#75,.T.);
#53=FACE_OUTER_BOUND('',#76,.T.);
#54=FACE_OUTER_BOUND('',#82,.T.);
#55=FACE_OUTER_BOUND('',#83,.T.);
#56=FACE_OUTER_BOUND('',#84,.T.);
#57=FACE_OUTER_BOUND('',#85,.T.);
#58=FACE_OUTER_BOUND('',#86,.T.);
#59=FACE_OUTER_BOUND('',#87,.T.);
#60=FACE_OUTER_BOUND('',#88,.T.);
#61=FACE_OUTER_BOUND('',#89,.T.);
#62=FACE_OUTER_BOUND('',#90,.T.);
#63=FACE_OUTER_BOUND('',#91,.T.);
#64=FACE_OUTER_BOUND('',#92,.T.);
#65=EDGE_LOOP('',(#241,#242,#243,#244));
#66=EDGE_LOOP('',(#245));
#67=EDGE_LOOP('',(#246,#247,#248,#249));
#68=EDGE_LOOP('',(#250));
#69=EDGE_LOOP('',(#251,#252,#253,#254));
#70=EDGE_LOOP('',(#255));
#71=EDGE_LOOP('',(#256,#257,#258,#259));
#72=EDGE_LOOP('',(#260));
#73=EDGE_LOOP('',(#261,#262,#263,#264));
#74=EDGE_LOOP('',(#265,#266,#267,#268));
#75=EDGE_LOOP('',(#269,#270,#271,#272,#273));
#76=EDGE_LOOP('',(#274,#275,#276,#277,#278,#279,#280,#281,#282));
#77=EDGE_LOOP('',(#283));
#78=EDGE_LOOP('',(#284));
#79=EDGE_LOOP('',(#285));
#80=EDGE_LOOP('',(#286));
#81=EDGE_LOOP('',(#287));
#82=EDGE_LOOP('',(#288,#289,#290,#291,#292));
#83=EDGE_LOOP('',(#293));
#84=EDGE_LOOP('',(#294,#295,#296,#297));
#85=EDGE_LOOP('',(#298,#299,#300,#301));
#86=EDGE_LOOP('',(#302,#303,#304,#305));
#87=EDGE_LOOP('',(#306,#307,#308,#309));
#88=EDGE_LOOP('',(#310,#311,#312,#313));
#89=EDGE_LOOP('',(#314,#315,#316,#317));
#90=EDGE_LOOP('',(#318,#319,#320,#321));
#91=EDGE_LOOP('',(#322,#323,#324,#325));
#92=EDGE_LOOP('',(#326,#327,#328,#329,#330,#331,#332,#333,#334,#335,#336,
#337,#338));
#93=LINE('',#539,#116);
#94=LINE('',#546,#117);
#95=LINE('',#553,#118);
#96=LINE('',#560,#119);
#97=LINE('',#903,#120);
#98=LINE('',#907,#121);
#99=LINE('',#918,#122);
#100=LINE('',#920,#123);
#101=LINE('',#922,#124);
#102=LINE('',#926,#125);
#103=LINE('',#928,#126);
#104=LINE('',#929,#127);
#105=LINE('',#941,#128);
#106=LINE('',#942,#129);
#107=LINE('',#947,#130);
#108=LINE('',#948,#131);
#109=LINE('',#953,#132);
#110=LINE('',#961,#133);
#111=LINE('',#962,#134);
#112=LINE('',#965,#135);
#113=LINE('',#966,#136);
#114=LINE('',#972,#137);
#115=LINE('',#976,#138);
#116=VECTOR('',#431,0.375000000000001);
#117=VECTOR('',#440,0.375000000000001);
#118=VECTOR('',#449,0.375000000000001);
#119=VECTOR('',#458,0.375000000000001);
#120=VECTOR('',#469,3.94135476391314);
#121=VECTOR('',#474,3.625);
#122=VECTOR('',#485,10.);
#123=VECTOR('',#486,10.);
#124=VECTOR('',#487,10.);
#125=VECTOR('',#490,10.);
#126=VECTOR('',#491,10.);
#127=VECTOR('',#492,10.);
#128=VECTOR('',#503,10.);
#129=VECTOR('',#504,10.);
#130=VECTOR('',#509,10.);
#131=VECTOR('',#510,10.);
#132=VECTOR('',#513,10.);
#133=VECTOR('',#518,10.);
#134=VECTOR('',#519,10.);
#135=VECTOR('',#522,10.);
#136=VECTOR('',#523,10.);
#137=VECTOR('',#526,10.);
#138=VECTOR('',#533,5.5);
#139=CIRCLE('',#384,0.375000000000001);
#140=CIRCLE('',#385,0.364084764272873);
#141=CIRCLE('',#388,0.375000000000001);
#142=CIRCLE('',#389,0.364084764272873);
#143=CIRCLE('',#392,0.375000000000001);
#144=CIRCLE('',#393,0.364084764272873);
#145=CIRCLE('',#396,0.375000000000001);
#146=CIRCLE('',#397,0.364084764272873);
#147=CIRCLE('',#399,5.36917170918004);
#148=CIRCLE('',#401,3.68262988973752);
#149=CIRCLE('',#402,4.20007963808877);
#150=CIRCLE('',#404,3.66834626622626);
#151=CIRCLE('',#405,3.66834626622626);
#152=CIRCLE('',#407,5.50872754136996);
#153=CIRCLE('',#408,5.50872754136996);
#154=CIRCLE('',#409,5.50872754136996);
#155=CIRCLE('',#411,0.25);
#156=CIRCLE('',#412,3.41849855947149);
#157=CIRCLE('',#416,5.47381741151352);
#158=CIRCLE('',#423,5.47381741151352);
#159=VERTEX_POINT('',#536);
#160=VERTEX_POINT('',#538);
#161=VERTEX_POINT('',#543);
#162=VERTEX_POINT('',#545);
#163=VERTEX_POINT('',#550);
#164=VERTEX_POINT('',#552);
#165=VERTEX_POINT('',#557);
#166=VERTEX_POINT('',#559);
#167=VERTEX_POINT('',#653);
#168=VERTEX_POINT('',#654);
#169=VERTEX_POINT('',#665);
#170=VERTEX_POINT('',#900);
#171=VERTEX_POINT('',#902);
#172=VERTEX_POINT('',#906);
#173=VERTEX_POINT('',#908);
#174=VERTEX_POINT('',#912);
#175=VERTEX_POINT('',#913);
#176=VERTEX_POINT('',#915);
#177=VERTEX_POINT('',#917);
#178=VERTEX_POINT('',#919);
#179=VERTEX_POINT('',#921);
#180=VERTEX_POINT('',#923);
#181=VERTEX_POINT('',#925);
#182=VERTEX_POINT('',#927);
#183=VERTEX_POINT('',#931);
#184=VERTEX_POINT('',#936);
#185=VERTEX_POINT('',#940);
#186=VERTEX_POINT('',#944);
#187=VERTEX_POINT('',#946);
#188=VERTEX_POINT('',#956);
#189=VERTEX_POINT('',#960);
#190=VERTEX_POINT('',#964);
#191=VERTEX_POINT('',#968);
#192=EDGE_CURVE('',#159,#159,#139,.T.);
#193=EDGE_CURVE('',#159,#160,#93,.T.);
#194=EDGE_CURVE('',#160,#160,#140,.T.);
#195=EDGE_CURVE('',#161,#161,#141,.T.);
#196=EDGE_CURVE('',#161,#162,#94,.T.);
#197=EDGE_CURVE('',#162,#162,#142,.T.);
#198=EDGE_CURVE('',#163,#163,#143,.T.);
#199=EDGE_CURVE('',#163,#164,#95,.T.);
#200=EDGE_CURVE('',#164,#164,#144,.T.);
#201=EDGE_CURVE('',#165,#165,#145,.T.);
#202=EDGE_CURVE('',#165,#166,#96,.T.);
#203=EDGE_CURVE('',#166,#166,#146,.T.);
#204=EDGE_CURVE('',#167,#168,#25,.T.);
#205=EDGE_CURVE('',#168,#169,#147,.F.);
#206=EDGE_CURVE('',#168,#169,#26,.T.);
#207=EDGE_CURVE('',#170,#170,#148,.T.);
#208=EDGE_CURVE('',#170,#171,#97,.T.);
#209=EDGE_CURVE('',#171,#171,#149,.T.);
#210=EDGE_CURVE('',#170,#172,#98,.T.);
#211=EDGE_CURVE('',#173,#172,#150,.T.);
#212=EDGE_CURVE('',#172,#173,#151,.T.);
#213=EDGE_CURVE('',#174,#175,#152,.T.);
#214=EDGE_CURVE('',#175,#176,#153,.T.);
#215=EDGE_CURVE('',#177,#176,#99,.T.);
#216=EDGE_CURVE('',#178,#177,#100,.T.);
#217=EDGE_CURVE('',#179,#178,#101,.T.);
#218=EDGE_CURVE('',#179,#180,#154,.T.);
#219=EDGE_CURVE('',#181,#180,#102,.T.);
#220=EDGE_CURVE('',#182,#181,#103,.T.);
#221=EDGE_CURVE('',#174,#182,#104,.T.);
#222=EDGE_CURVE('',#173,#183,#155,.T.);
#223=EDGE_CURVE('',#183,#183,#156,.T.);
#224=EDGE_CURVE('',#184,#180,#15,.F.);
#225=EDGE_CURVE('',#185,#184,#105,.F.);
#226=EDGE_CURVE('',#181,#185,#106,.F.);
#227=EDGE_CURVE('',#186,#184,#157,.F.);
#228=EDGE_CURVE('',#186,#187,#107,.F.);
#229=EDGE_CURVE('',#187,#185,#108,.F.);
#230=EDGE_CURVE('',#174,#186,#16,.F.);
#231=EDGE_CURVE('',#182,#187,#109,.T.);
#232=EDGE_CURVE('',#188,#176,#17,.F.);
#233=EDGE_CURVE('',#189,#188,#110,.F.);
#234=EDGE_CURVE('',#177,#189,#111,.F.);
#235=EDGE_CURVE('',#190,#189,#112,.F.);
#236=EDGE_CURVE('',#178,#190,#113,.T.);
#237=EDGE_CURVE('',#179,#191,#18,.F.);
#238=EDGE_CURVE('',#191,#190,#114,.F.);
#239=EDGE_CURVE('',#191,#188,#158,.F.);
#240=EDGE_CURVE('',#175,#169,#115,.T.);
#241=ORIENTED_EDGE('',*,*,#192,.F.);
#242=ORIENTED_EDGE('',*,*,#193,.T.);
#243=ORIENTED_EDGE('',*,*,#194,.F.);
#244=ORIENTED_EDGE('',*,*,#193,.F.);
#245=ORIENTED_EDGE('',*,*,#194,.T.);
#246=ORIENTED_EDGE('',*,*,#195,.F.);
#247=ORIENTED_EDGE('',*,*,#196,.T.);
#248=ORIENTED_EDGE('',*,*,#197,.F.);
#249=ORIENTED_EDGE('',*,*,#196,.F.);
#250=ORIENTED_EDGE('',*,*,#197,.T.);
#251=ORIENTED_EDGE('',*,*,#198,.F.);
#252=ORIENTED_EDGE('',*,*,#199,.T.);
#253=ORIENTED_EDGE('',*,*,#200,.F.);
#254=ORIENTED_EDGE('',*,*,#199,.F.);
#255=ORIENTED_EDGE('',*,*,#200,.T.);
#256=ORIENTED_EDGE('',*,*,#201,.F.);
#257=ORIENTED_EDGE('',*,*,#202,.T.);
#258=ORIENTED_EDGE('',*,*,#203,.F.);
#259=ORIENTED_EDGE('',*,*,#202,.F.);
#260=ORIENTED_EDGE('',*,*,#203,.T.);
#261=ORIENTED_EDGE('',*,*,#204,.T.);
#262=ORIENTED_EDGE('',*,*,#205,.T.);
#263=ORIENTED_EDGE('',*,*,#206,.F.);
#264=ORIENTED_EDGE('',*,*,#204,.F.);
#265=ORIENTED_EDGE('',*,*,#207,.T.);
#266=ORIENTED_EDGE('',*,*,#208,.T.);
#267=ORIENTED_EDGE('',*,*,#209,.T.);
#268=ORIENTED_EDGE('',*,*,#208,.F.);
#269=ORIENTED_EDGE('',*,*,#207,.F.);
#270=ORIENTED_EDGE('',*,*,#210,.T.);
#271=ORIENTED_EDGE('',*,*,#211,.F.);
#272=ORIENTED_EDGE('',*,*,#212,.F.);
#273=ORIENTED_EDGE('',*,*,#210,.F.);
#274=ORIENTED_EDGE('',*,*,#213,.T.);
#275=ORIENTED_EDGE('',*,*,#214,.T.);
#276=ORIENTED_EDGE('',*,*,#215,.F.);
#277=ORIENTED_EDGE('',*,*,#216,.F.);
#278=ORIENTED_EDGE('',*,*,#217,.F.);
#279=ORIENTED_EDGE('',*,*,#218,.T.);
#280=ORIENTED_EDGE('',*,*,#219,.F.);
#281=ORIENTED_EDGE('',*,*,#220,.F.);
#282=ORIENTED_EDGE('',*,*,#221,.F.);
#283=ORIENTED_EDGE('',*,*,#192,.T.);
#284=ORIENTED_EDGE('',*,*,#195,.T.);
#285=ORIENTED_EDGE('',*,*,#198,.T.);
#286=ORIENTED_EDGE('',*,*,#201,.T.);
#287=ORIENTED_EDGE('',*,*,#209,.F.);
#288=ORIENTED_EDGE('',*,*,#212,.T.);
#289=ORIENTED_EDGE('',*,*,#222,.T.);
#290=ORIENTED_EDGE('',*,*,#223,.T.);
#291=ORIENTED_EDGE('',*,*,#222,.F.);
#292=ORIENTED_EDGE('',*,*,#211,.T.);
#293=ORIENTED_EDGE('',*,*,#223,.F.);
#294=ORIENTED_EDGE('',*,*,#224,.F.);
#295=ORIENTED_EDGE('',*,*,#225,.F.);
#296=ORIENTED_EDGE('',*,*,#226,.F.);
#297=ORIENTED_EDGE('',*,*,#219,.T.);
#298=ORIENTED_EDGE('',*,*,#227,.F.);
#299=ORIENTED_EDGE('',*,*,#228,.T.);
#300=ORIENTED_EDGE('',*,*,#229,.T.);
#301=ORIENTED_EDGE('',*,*,#225,.T.);
#302=ORIENTED_EDGE('',*,*,#230,.F.);
#303=ORIENTED_EDGE('',*,*,#221,.T.);
#304=ORIENTED_EDGE('',*,*,#231,.T.);
#305=ORIENTED_EDGE('',*,*,#228,.F.);
#306=ORIENTED_EDGE('',*,*,#220,.T.);
#307=ORIENTED_EDGE('',*,*,#226,.T.);
#308=ORIENTED_EDGE('',*,*,#229,.F.);
#309=ORIENTED_EDGE('',*,*,#231,.F.);
#310=ORIENTED_EDGE('',*,*,#232,.F.);
#311=ORIENTED_EDGE('',*,*,#233,.F.);
#312=ORIENTED_EDGE('',*,*,#234,.F.);
#313=ORIENTED_EDGE('',*,*,#215,.T.);
#314=ORIENTED_EDGE('',*,*,#216,.T.);
#315=ORIENTED_EDGE('',*,*,#234,.T.);
#316=ORIENTED_EDGE('',*,*,#235,.F.);
#317=ORIENTED_EDGE('',*,*,#236,.F.);
#318=ORIENTED_EDGE('',*,*,#237,.F.);
#319=ORIENTED_EDGE('',*,*,#217,.T.);
#320=ORIENTED_EDGE('',*,*,#236,.T.);
#321=ORIENTED_EDGE('',*,*,#238,.F.);
#322=ORIENTED_EDGE('',*,*,#239,.F.);
#323=ORIENTED_EDGE('',*,*,#238,.T.);
#324=ORIENTED_EDGE('',*,*,#235,.T.);
#325=ORIENTED_EDGE('',*,*,#233,.T.);
#326=ORIENTED_EDGE('',*,*,#224,.T.);
#327=ORIENTED_EDGE('',*,*,#218,.F.);
#328=ORIENTED_EDGE('',*,*,#237,.T.);
#329=ORIENTED_EDGE('',*,*,#239,.T.);
#330=ORIENTED_EDGE('',*,*,#232,.T.);
#331=ORIENTED_EDGE('',*,*,#214,.F.);
#332=ORIENTED_EDGE('',*,*,#240,.T.);
#333=ORIENTED_EDGE('',*,*,#205,.F.);
#334=ORIENTED_EDGE('',*,*,#206,.T.);
#335=ORIENTED_EDGE('',*,*,#240,.F.);
#336=ORIENTED_EDGE('',*,*,#213,.F.);
#337=ORIENTED_EDGE('',*,*,#230,.T.);
#338=ORIENTED_EDGE('',*,*,#227,.T.);
#339=CONICAL_SURFACE('',#383,0.375000000000001,0.0436332312998582);
#340=CONICAL_SURFACE('',#387,0.375000000000001,0.0436332312998582);
#341=CONICAL_SURFACE('',#391,0.375000000000001,0.0436332312998582);
#342=CONICAL_SURFACE('',#395,0.375000000000001,0.0436332312998582);
#343=CONICAL_SURFACE('',#400,3.94135476391314,0.802851455917391);
#344=CONICAL_SURFACE('',#403,3.625,0.0349065850398866);
#345=CONICAL_SURFACE('',#424,5.5,0.0174532925199433);
#346=ADVANCED_FACE('',(#42),#339,.F.);
#347=ADVANCED_FACE('',(#43),#28,.T.);
#348=ADVANCED_FACE('',(#44),#340,.F.);
#349=ADVANCED_FACE('',(#45),#29,.T.);
#350=ADVANCED_FACE('',(#46),#341,.F.);
#351=ADVANCED_FACE('',(#47),#30,.T.);
#352=ADVANCED_FACE('',(#48),#342,.F.);
#353=ADVANCED_FACE('',(#49),#31,.T.);
#354=ADVANCED_FACE('',(#50),#27,.F.);
#355=ADVANCED_FACE('',(#51),#343,.F.);
#356=ADVANCED_FACE('',(#52),#344,.F.);
#357=ADVANCED_FACE('',(#53,#20,#21,#22,#23,#24),#32,.F.);
#358=ADVANCED_FACE('',(#54),#19,.F.);
#359=ADVANCED_FACE('',(#55),#33,.F.);
#360=ADVANCED_FACE('',(#56),#34,.T.);
#361=ADVANCED_FACE('',(#57),#35,.F.);
#362=ADVANCED_FACE('',(#58),#36,.T.);
#363=ADVANCED_FACE('',(#59),#37,.T.);
#364=ADVANCED_FACE('',(#60),#38,.T.);
#365=ADVANCED_FACE('',(#61),#39,.T.);
#366=ADVANCED_FACE('',(#62),#40,.T.);
#367=ADVANCED_FACE('',(#63),#41,.F.);
#368=ADVANCED_FACE('',(#64),#345,.T.);
#369=CLOSED_SHELL('',(#346,#347,#348,#349,#350,#351,#352,#353,#354,#355,
#356,#357,#358,#359,#360,#361,#362,#363,#364,#365,#366,#367,#368));
#370=DERIVED_UNIT_ELEMENT(#372,1.);
#371=DERIVED_UNIT_ELEMENT(#982,-3.);
#372=(
MASS_UNIT()
NAMED_UNIT(*)
SI_UNIT(.KILO.,.GRAM.)
);
#373=DERIVED_UNIT((#370,#371));
#374=MEASURE_REPRESENTATION_ITEM('density measure',
POSITIVE_RATIO_MEASURE(7850.),#373);
#375=PROPERTY_DEFINITION_REPRESENTATION(#380,#377);
#376=PROPERTY_DEFINITION_REPRESENTATION(#381,#378);
#377=REPRESENTATION('material name',(#379),#979);
#378=REPRESENTATION('density',(#374),#979);
#379=DESCRIPTIVE_REPRESENTATION_ITEM('Steel','Steel');
#380=PROPERTY_DEFINITION('material property','material name',#989);
#381=PROPERTY_DEFINITION('material property','density of part',#989);
#382=AXIS2_PLACEMENT_3D('',#534,#425,#426);
#383=AXIS2_PLACEMENT_3D('',#535,#427,#428);
#384=AXIS2_PLACEMENT_3D('',#537,#429,#430);
#385=AXIS2_PLACEMENT_3D('',#540,#432,#433);
#386=AXIS2_PLACEMENT_3D('',#541,#434,#435);
#387=AXIS2_PLACEMENT_3D('',#542,#436,#437);
#388=AXIS2_PLACEMENT_3D('',#544,#438,#439);
#389=AXIS2_PLACEMENT_3D('',#547,#441,#442);
#390=AXIS2_PLACEMENT_3D('',#548,#443,#444);
#391=AXIS2_PLACEMENT_3D('',#549,#445,#446);
#392=AXIS2_PLACEMENT_3D('',#551,#447,#448);
#393=AXIS2_PLACEMENT_3D('',#554,#450,#451);
#394=AXIS2_PLACEMENT_3D('',#555,#452,#453);
#395=AXIS2_PLACEMENT_3D('',#556,#454,#455);
#396=AXIS2_PLACEMENT_3D('',#558,#456,#457);
#397=AXIS2_PLACEMENT_3D('',#561,#459,#460);
#398=AXIS2_PLACEMENT_3D('',#562,#461,#462);
#399=AXIS2_PLACEMENT_3D('',#666,#463,#464);
#400=AXIS2_PLACEMENT_3D('',#899,#465,#466);
#401=AXIS2_PLACEMENT_3D('',#901,#467,#468);
#402=AXIS2_PLACEMENT_3D('',#904,#470,#471);
#403=AXIS2_PLACEMENT_3D('',#905,#472,#473);
#404=AXIS2_PLACEMENT_3D('',#909,#475,#476);
#405=AXIS2_PLACEMENT_3D('',#910,#477,#478);
#406=AXIS2_PLACEMENT_3D('',#911,#479,#480);
#407=AXIS2_PLACEMENT_3D('',#914,#481,#482);
#408=AXIS2_PLACEMENT_3D('',#916,#483,#484);
#409=AXIS2_PLACEMENT_3D('',#924,#488,#489);
#410=AXIS2_PLACEMENT_3D('',#930,#493,#494);
#411=AXIS2_PLACEMENT_3D('',#932,#495,#496);
#412=AXIS2_PLACEMENT_3D('',#933,#497,#498);
#413=AXIS2_PLACEMENT_3D('',#934,#499,#500);
#414=AXIS2_PLACEMENT_3D('',#935,#501,#502);
#415=AXIS2_PLACEMENT_3D('',#943,#505,#506);
#416=AXIS2_PLACEMENT_3D('',#945,#507,#508);
#417=AXIS2_PLACEMENT_3D('',#949,#511,#512);
#418=AXIS2_PLACEMENT_3D('',#954,#514,#515);
#419=AXIS2_PLACEMENT_3D('',#955,#516,#517);
#420=AXIS2_PLACEMENT_3D('',#963,#520,#521);
#421=AXIS2_PLACEMENT_3D('',#967,#524,#525);
#422=AXIS2_PLACEMENT_3D('',#973,#527,#528);
#423=AXIS2_PLACEMENT_3D('',#974,#529,#530);
#424=AXIS2_PLACEMENT_3D('',#975,#531,#532);
#425=DIRECTION('axis',(0.,0.,1.));
#426=DIRECTION('refdir',(1.,0.,0.));
#427=DIRECTION('center_axis',(0.,3.08148791101958E-33,-1.));
#428=DIRECTION('ref_axis',(1.,3.79822709830391E-65,-1.23259516440783E-32));
#429=DIRECTION('center_axis',(0.,0.,1.));
#430=DIRECTION('ref_axis',(1.,3.79822709830391E-65,-1.23259516440783E-32));
#431=DIRECTION('',(0.043619387365336,5.34183431177272E-18,0.999048221581858));
#432=DIRECTION('center_axis',(-1.23259516440783E-32,-1.84889274661175E-32,
-1.));
#433=DIRECTION('ref_axis',(1.,3.79822709830392E-65,-1.23259516440783E-32));
#434=DIRECTION('center_axis',(-1.23259516440783E-32,-1.84889274661175E-32,
-1.));
#435=DIRECTION('ref_axis',(1.,3.79822709830392E-65,-1.23259516440783E-32));
#436=DIRECTION('center_axis',(0.,3.08148791101958E-33,-1.));
#437=DIRECTION('ref_axis',(1.,3.79822709830391E-65,-1.23259516440783E-32));
#438=DIRECTION('center_axis',(0.,0.,1.));
#439=DIRECTION('ref_axis',(1.,3.79822709830391E-65,-1.23259516440783E-32));
#440=DIRECTION('',(0.043619387365336,5.34183431177272E-18,0.999048221581858));
#441=DIRECTION('center_axis',(-1.23259516440783E-32,-1.84889274661175E-32,
-1.));
#442=DIRECTION('ref_axis',(1.,3.79822709830392E-65,-1.23259516440783E-32));
#443=DIRECTION('center_axis',(-1.23259516440783E-32,-1.84889274661175E-32,
-1.));
#444=DIRECTION('ref_axis',(1.,3.79822709830392E-65,-1.23259516440783E-32));
#445=DIRECTION('center_axis',(0.,3.08148791101958E-33,-1.));
#446=DIRECTION('ref_axis',(1.,3.79822709830391E-65,-1.23259516440783E-32));
#447=DIRECTION('center_axis',(0.,0.,1.));
#448=DIRECTION('ref_axis',(1.,3.79822709830391E-65,-1.23259516440783E-32));
#449=DIRECTION('',(0.043619387365336,5.34183431177272E-18,0.999048221581858));
#450=DIRECTION('center_axis',(-1.23259516440783E-32,-1.84889274661175E-32,
-1.));
#451=DIRECTION('ref_axis',(1.,3.79822709830392E-65,-1.23259516440783E-32));
#452=DIRECTION('center_axis',(-1.23259516440783E-32,-1.84889274661175E-32,
-1.));
#453=DIRECTION('ref_axis',(1.,3.79822709830392E-65,-1.23259516440783E-32));
#454=DIRECTION('center_axis',(0.,3.08148791101958E-33,-1.));
#455=DIRECTION('ref_axis',(1.,3.79822709830391E-65,-1.23259516440783E-32));
#456=DIRECTION('center_axis',(0.,0.,1.));
#457=DIRECTION('ref_axis',(1.,3.79822709830391E-65,-1.23259516440783E-32));
#458=DIRECTION('',(0.043619387365336,5.34183431177272E-18,0.999048221581858));
#459=DIRECTION('center_axis',(-1.23259516440783E-32,-1.84889274661175E-32,
-1.));
#460=DIRECTION('ref_axis',(1.,3.79822709830392E-65,-1.23259516440783E-32));
#461=DIRECTION('center_axis',(-1.23259516440783E-32,-1.84889274661175E-32,
-1.));
#462=DIRECTION('ref_axis',(1.,3.79822709830392E-65,-1.23259516440783E-32));
#463=DIRECTION('center_axis',(0.,3.08148791101958E-33,-1.));
#464=DIRECTION('ref_axis',(-1.,0.,0.));
#465=DIRECTION('center_axis',(0.,0.,-1.));
#466=DIRECTION('ref_axis',(1.18310210543844E-16,-1.,0.));
#467=DIRECTION('center_axis',(0.,0.,1.));
#468=DIRECTION('ref_axis',(0.,-1.,0.));
#469=DIRECTION('',(-1.73198961629035E-16,0.719339800338651,-0.694658370458997));
#470=DIRECTION('center_axis',(0.,0.,-1.));
#471=DIRECTION('ref_axis',(2.22044604925031E-16,-1.,0.));
#472=DIRECTION('center_axis',(0.,0.,-1.));
#473=DIRECTION('ref_axis',(2.22044604925031E-16,-1.,0.));
#474=DIRECTION('',(1.20232006502464E-17,-0.034899496702501,0.999390827019096));
#475=DIRECTION('center_axis',(0.,0.,-1.));
#476=DIRECTION('ref_axis',(0.,-1.,0.));
#477=DIRECTION('center_axis',(0.,0.,-1.));
#478=DIRECTION('ref_axis',(0.,-1.,0.));
#479=DIRECTION('center_axis',(0.,0.,1.));
#480=DIRECTION('ref_axis',(-1.,0.,0.));
#481=DIRECTION('center_axis',(0.,0.,-1.));
#482=DIRECTION('ref_axis',(-1.,0.,0.));
#483=DIRECTION('center_axis',(0.,0.,-1.));
#484=DIRECTION('ref_axis',(-1.,0.,0.));
#485=DIRECTION('',(0.,1.,0.));
#486=DIRECTION('',(1.,0.,0.));
#487=DIRECTION('',(0.,-1.,0.));
#488=DIRECTION('center_axis',(0.,0.,-1.));
#489=DIRECTION('ref_axis',(-1.,0.,0.));
#490=DIRECTION('',(0.,-1.,0.));
#491=DIRECTION('',(-1.,0.,0.));
#492=DIRECTION('',(0.,1.,0.));
#493=DIRECTION('center_axis',(0.,0.,-1.));
#494=DIRECTION('ref_axis',(-1.,0.,0.));
#495=DIRECTION('center_axis',(-1.22946239842315E-16,-1.,0.));
#496=DIRECTION('ref_axis',(1.,-1.22946239842315E-16,0.));
#497=DIRECTION('center_axis',(0.,0.,1.));
#498=DIRECTION('ref_axis',(0.,-1.,0.));
#499=DIRECTION('center_axis',(0.,0.,1.));
#500=DIRECTION('ref_axis',(2.22044604925031E-16,-1.,0.));
#501=DIRECTION('center_axis',(-0.999847695156391,0.,0.0174524064372835));
#502=DIRECTION('ref_axis',(0.,-1.,0.));
#503=DIRECTION('',(0.,1.,0.));
#504=DIRECTION('',(-0.0174497491606827,0.0174497491606827,-0.999695459881887));
#505=DIRECTION('center_axis',(0.,0.,-1.));
#506=DIRECTION('ref_axis',(1.,0.,0.));
#507=DIRECTION('center_axis',(0.,0.,-1.));
#508=DIRECTION('ref_axis',(-1.,0.,0.));
#509=DIRECTION('',(0.,-1.,0.));
#510=DIRECTION('',(1.,0.,0.));
#511=DIRECTION('center_axis',(0.999847695156391,0.,0.0174524064372835));
#512=DIRECTION('ref_axis',(0.,1.,0.));
#513=DIRECTION('',(-0.0174497491606827,-0.0174497491606827,0.999695459881887));
#514=DIRECTION('center_axis',(0.,0.999847695156391,0.0174524064372835));
#515=DIRECTION('ref_axis',(-1.,0.,0.));
#516=DIRECTION('center_axis',(0.999847695156391,0.,0.0174524064372835));
#517=DIRECTION('ref_axis',(0.,1.,0.));
#518=DIRECTION('',(0.,-1.,0.));
#519=DIRECTION('',(0.0174497491606827,-0.0174497491606827,-0.999695459881887));
#520=DIRECTION('center_axis',(0.,-0.999847695156391,0.0174524064372835));
#521=DIRECTION('ref_axis',(1.,0.,0.));
#522=DIRECTION('',(-1.,0.,0.));
#523=DIRECTION('',(0.0174497491606827,0.0174497491606827,0.999695459881887));
#524=DIRECTION('center_axis',(-0.999847695156391,0.,0.0174524064372835));
#525=DIRECTION('ref_axis',(0.,-1.,0.));
#526=DIRECTION('',(0.,1.,0.));
#527=DIRECTION('center_axis',(0.,0.,-1.));
#528=DIRECTION('ref_axis',(1.,0.,0.));
#529=DIRECTION('center_axis',(0.,0.,-1.));
#530=DIRECTION('ref_axis',(-1.,0.,0.));
#531=DIRECTION('center_axis',(0.,0.,-1.));
#532=DIRECTION('ref_axis',(-1.,0.,0.));
#533=DIRECTION('',(-0.0174524064372835,2.13730336808379E-18,0.999847695156391));
#534=CARTESIAN_POINT('',(0.,0.,0.));
#535=CARTESIAN_POINT('Origin',(48.6285971474862,-2.15910632387061,10.09));
#536=CARTESIAN_POINT('',(48.2535971474861,-2.15910632387061,10.09));
#537=CARTESIAN_POINT('Origin',(48.6285971474862,-2.15910632387061,10.09));
#538=CARTESIAN_POINT('',(48.2645123832133,-2.15910632387061,10.34));
#539=CARTESIAN_POINT('',(48.2535971474861,-2.15910632387061,10.09));
#540=CARTESIAN_POINT('Origin',(48.6285971474862,-2.15910632387061,10.34));
#541=CARTESIAN_POINT('Origin',(51.4355607481765,-10.0920249530983,10.34));
#542=CARTESIAN_POINT('Origin',(49.4203984912593,-3.21505827647288,10.09));
#543=CARTESIAN_POINT('',(49.0453984912593,-3.21505827647288,10.09));
#544=CARTESIAN_POINT('Origin',(49.4203984912593,-3.21505827647288,10.09));
#545=CARTESIAN_POINT('',(49.0563137269865,-3.21505827647288,10.34));
#546=CARTESIAN_POINT('',(49.0453984912593,-3.21505827647288,10.09));
#547=CARTESIAN_POINT('Origin',(49.4203984912593,-3.21505827647288,10.34));
#548=CARTESIAN_POINT('Origin',(51.4355607481765,-10.0920249530983,10.34));
#549=CARTESIAN_POINT('Origin',(48.1642326788678,-0.98372623488804,10.09));
#550=CARTESIAN_POINT('',(47.7892326788678,-0.98372623488804,10.09));
#551=CARTESIAN_POINT('Origin',(48.1642326788678,-0.98372623488804,10.09));
#552=CARTESIAN_POINT('',(47.8001479145949,-0.98372623488804,10.34));
#553=CARTESIAN_POINT('',(47.7892326788678,-0.98372623488804,10.09));
#554=CARTESIAN_POINT('Origin',(48.1642326788678,-0.98372623488804,10.34));
#555=CARTESIAN_POINT('Origin',(51.4355607481765,-10.0920249530983,10.34));
#556=CARTESIAN_POINT('Origin',(48.0186969774916,0.195475046901712,10.09));
#557=CARTESIAN_POINT('',(47.6436969774916,0.195475046901712,10.09));
#558=CARTESIAN_POINT('Origin',(48.0186969774916,0.195475046901712,10.09));
#559=CARTESIAN_POINT('',(47.6546122132187,0.195475046901712,10.34));
#560=CARTESIAN_POINT('',(47.6436969774916,0.195475046901712,10.09));
#561=CARTESIAN_POINT('Origin',(48.0186969774916,0.195475046901712,10.34));
#562=CARTESIAN_POINT('Origin',(51.4355607481765,-10.0920249530983,10.34));
#563=CARTESIAN_POINT('Ctrl Pts',(52.8686969774916,-5.17452541041063,18.0382146267108));
#564=CARTESIAN_POINT('Ctrl Pts',(58.2386974348039,-5.17452541041063,18.0382146267108));
#565=CARTESIAN_POINT('Ctrl Pts',(58.2386974348039,0.195475046901714,18.0382146267108));
#566=CARTESIAN_POINT('Ctrl Pts',(58.2386974348039,5.56547550421406,18.0382146267108));
#567=CARTESIAN_POINT('Ctrl Pts',(52.8686969774916,5.56547550421406,18.0382146267108));
#568=CARTESIAN_POINT('Ctrl Pts',(47.4986965201792,5.56547550421406,18.0382146267108));
#569=CARTESIAN_POINT('Ctrl Pts',(47.4986965201792,0.195475046901714,18.0382146267108));
#570=CARTESIAN_POINT('Ctrl Pts',(47.4986965201792,-5.17452541041063,18.0382146267108));
#571=CARTESIAN_POINT('Ctrl Pts',(52.8686969774916,-5.17452541041063,18.0382146267108));
#572=CARTESIAN_POINT('Ctrl Pts',(52.8686969774916,-5.17425197841432,18.0538795361166));
#573=CARTESIAN_POINT('Ctrl Pts',(58.2384240028076,-5.17425197841432,18.0538795361166));
#574=CARTESIAN_POINT('Ctrl Pts',(58.2384240028076,0.195475046901714,18.0538795361166));
#575=CARTESIAN_POINT('Ctrl Pts',(58.2384240028076,5.56520207221775,18.0538795361166));
#576=CARTESIAN_POINT('Ctrl Pts',(52.8686969774916,5.56520207221775,18.0538795361166));
#577=CARTESIAN_POINT('Ctrl Pts',(47.4989699521755,5.56520207221775,18.0538795361166));
#578=CARTESIAN_POINT('Ctrl Pts',(47.4989699521755,0.195475046901714,18.0538795361166));
#579=CARTESIAN_POINT('Ctrl Pts',(47.4989699521755,-5.17425197841432,18.0538795361166));
#580=CARTESIAN_POINT('Ctrl Pts',(52.8686969774916,-5.17425197841432,18.0538795361166));
#581=CARTESIAN_POINT('Ctrl Pts',(52.8686969774916,-5.173978546418,18.0695444455224));
#582=CARTESIAN_POINT('Ctrl Pts',(58.2381505708113,-5.173978546418,18.0695444455224));
#583=CARTESIAN_POINT('Ctrl Pts',(58.2381505708113,0.195475046901714,18.0695444455224));
#584=CARTESIAN_POINT('Ctrl Pts',(58.2381505708113,5.56492864022143,18.0695444455224));
#585=CARTESIAN_POINT('Ctrl Pts',(52.8686969774916,5.56492864022143,18.0695444455224));
#586=CARTESIAN_POINT('Ctrl Pts',(47.4992433841718,5.56492864022143,18.0695444455224));
#587=CARTESIAN_POINT('Ctrl Pts',(47.4992433841718,0.195475046901714,18.0695444455224));
#588=CARTESIAN_POINT('Ctrl Pts',(47.4992433841718,-5.173978546418,18.0695444455224));
#589=CARTESIAN_POINT('Ctrl Pts',(52.8686969774916,-5.173978546418,18.0695444455224));
#590=CARTESIAN_POINT('Ctrl Pts',(52.8686969774916,-5.17370511442168,18.0852093549282));
#591=CARTESIAN_POINT('Ctrl Pts',(58.237877138815,-5.17370511442168,18.0852093549282));
#592=CARTESIAN_POINT('Ctrl Pts',(58.237877138815,0.195475046901714,18.0852093549282));
#593=CARTESIAN_POINT('Ctrl Pts',(58.237877138815,5.56465520822511,18.0852093549282));
#594=CARTESIAN_POINT('Ctrl Pts',(52.8686969774916,5.56465520822511,18.0852093549282));
#595=CARTESIAN_POINT('Ctrl Pts',(47.4995168161682,5.56465520822511,18.0852093549282));
#596=CARTESIAN_POINT('Ctrl Pts',(47.4995168161682,0.195475046901714,18.0852093549282));
#597=CARTESIAN_POINT('Ctrl Pts',(47.4995168161682,-5.17370511442168,18.0852093549282));
#598=CARTESIAN_POINT('Ctrl Pts',(52.8686969774916,-5.17370511442168,18.0852093549282));
#599=CARTESIAN_POINT('Ctrl Pts',(52.8686969774916,-5.15594721639537,19.1025587052886));
#600=CARTESIAN_POINT('Ctrl Pts',(58.2201192407886,-5.15594721639537,19.1025587052886));
#601=CARTESIAN_POINT('Ctrl Pts',(58.2201192407886,0.195475046901714,19.1025587052886));
#602=CARTESIAN_POINT('Ctrl Pts',(58.2201192407886,5.5468973101988,19.1025587052886));
#603=CARTESIAN_POINT('Ctrl Pts',(52.8686969774916,5.5468973101988,19.1025587052886));
#604=CARTESIAN_POINT('Ctrl Pts',(47.5172747141945,5.5468973101988,19.1025587052886));
#605=CARTESIAN_POINT('Ctrl Pts',(47.5172747141945,0.195475046901714,19.1025587052886));
#606=CARTESIAN_POINT('Ctrl Pts',(47.5172747141945,-5.15594721639537,19.1025587052886));
#607=CARTESIAN_POINT('Ctrl Pts',(52.8686969774916,-5.15594721639537,19.1025587052886));
#608=CARTESIAN_POINT('Ctrl Pts',(52.8686969774916,-4.08273527902413,19.5814611063275));
#609=CARTESIAN_POINT('Ctrl Pts',(57.1469073034174,-4.08273527902413,19.5814611063275));
#610=CARTESIAN_POINT('Ctrl Pts',(57.1469073034174,0.195475046901714,19.5814611063275));
#611=CARTESIAN_POINT('Ctrl Pts',(57.1469073034174,4.47368537282756,19.5814611063275));
#612=CARTESIAN_POINT('Ctrl Pts',(52.8686969774916,4.47368537282756,19.5814611063275));
#613=CARTESIAN_POINT('Ctrl Pts',(48.5904866515657,4.47368537282756,19.5814611063275));
#614=CARTESIAN_POINT('Ctrl Pts',(48.5904866515657,0.195475046901714,19.5814611063275));
#615=CARTESIAN_POINT('Ctrl Pts',(48.5904866515657,-4.08273527902413,19.5814611063275));
#616=CARTESIAN_POINT('Ctrl Pts',(52.8686969774916,-4.08273527902413,19.5814611063275));
#617=CARTESIAN_POINT('Ctrl Pts',(52.8686969774916,-2.59914309936753,19.8364300735175));
#618=CARTESIAN_POINT('Ctrl Pts',(55.6633151237608,-2.59914309936753,19.8364300735175));
#619=CARTESIAN_POINT('Ctrl Pts',(55.6633151237608,0.195475046901714,19.8364300735175));
#620=CARTESIAN_POINT('Ctrl Pts',(55.6633151237608,2.99009319317096,19.8364300735175));
#621=CARTESIAN_POINT('Ctrl Pts',(52.8686969774916,2.99009319317096,19.8364300735175));
#622=CARTESIAN_POINT('Ctrl Pts',(50.0740788312223,2.99009319317096,19.8364300735175));
#623=CARTESIAN_POINT('Ctrl Pts',(50.0740788312223,0.195475046901714,19.8364300735175));
#624=CARTESIAN_POINT('Ctrl Pts',(50.0740788312223,-2.59914309936753,19.8364300735175));
#625=CARTESIAN_POINT('Ctrl Pts',(52.8686969774916,-2.59914309936753,19.8364300735175));
#626=CARTESIAN_POINT('Ctrl Pts',(52.8686969774916,-1.79305685822513,19.9749634111749));
#627=CARTESIAN_POINT('Ctrl Pts',(54.8572288826184,-1.79305685822513,19.9749634111749));
#628=CARTESIAN_POINT('Ctrl Pts',(54.8572288826184,0.195475046901714,19.9749634111749));
#629=CARTESIAN_POINT('Ctrl Pts',(54.8572288826184,2.18400695202856,19.9749634111749));
#630=CARTESIAN_POINT('Ctrl Pts',(52.8686969774916,2.18400695202856,19.9749634111749));
#631=CARTESIAN_POINT('Ctrl Pts',(50.8801650723647,2.18400695202856,19.9749634111749));
#632=CARTESIAN_POINT('Ctrl Pts',(50.8801650723647,0.195475046901714,19.9749634111749));
#633=CARTESIAN_POINT('Ctrl Pts',(50.8801650723647,-1.79305685822513,19.9749634111749));
#634=CARTESIAN_POINT('Ctrl Pts',(52.8686969774916,-1.79305685822513,19.9749634111749));
#635=CARTESIAN_POINT('Ctrl Pts',(52.8686969774916,-0.858769391682636,20.0435));
#636=CARTESIAN_POINT('Ctrl Pts',(53.9229414160759,-0.858769391682636,20.0435));
#637=CARTESIAN_POINT('Ctrl Pts',(53.9229414160759,0.195475046901714,20.0435));
#638=CARTESIAN_POINT('Ctrl Pts',(53.9229414160759,1.24971948548606,20.0435));
#639=CARTESIAN_POINT('Ctrl Pts',(52.8686969774916,1.24971948548606,20.0435));
#640=CARTESIAN_POINT('Ctrl Pts',(51.8144525389072,1.24971948548606,20.0435));
#641=CARTESIAN_POINT('Ctrl Pts',(51.8144525389072,0.195475046901714,20.0435));
#642=CARTESIAN_POINT('Ctrl Pts',(51.8144525389072,-0.858769391682636,20.0435));
#643=CARTESIAN_POINT('Ctrl Pts',(52.8686969774916,-0.858769391682636,20.0435));
#644=CARTESIAN_POINT('Ctrl Pts',(52.8686969774916,0.195475046901714,20.0435));
#645=CARTESIAN_POINT('Ctrl Pts',(52.8686969774916,0.195475046901714,20.0435));
#646=CARTESIAN_POINT('Ctrl Pts',(52.8686969774916,0.195475046901714,20.0435));
#647=CARTESIAN_POINT('Ctrl Pts',(52.8686969774916,0.195475046901714,20.0435));
#648=CARTESIAN_POINT('Ctrl Pts',(52.8686969774916,0.195475046901714,20.0435));
#649=CARTESIAN_POINT('Ctrl Pts',(52.8686969774916,0.195475046901714,20.0435));
#650=CARTESIAN_POINT('Ctrl Pts',(52.8686969774916,0.195475046901714,20.0435));
#651=CARTESIAN_POINT('Ctrl Pts',(52.8686969774916,0.195475046901714,20.0435));
#652=CARTESIAN_POINT('Ctrl Pts',(52.8686969774916,0.195475046901714,20.0435));
#653=CARTESIAN_POINT('',(52.8686969774916,0.195475046901714,20.0435));
#654=CARTESIAN_POINT('',(52.8686969774916,-5.17370618063668,18.0851482715089));
#655=CARTESIAN_POINT('Ctrl Pts',(52.8686969774916,0.195475046901714,20.0435));
#656=CARTESIAN_POINT('Ctrl Pts',(52.8686969774916,-0.858769391682636,20.0435));
#657=CARTESIAN_POINT('Ctrl Pts',(52.8686969774916,-1.79305685822513,19.9749634111749));
#658=CARTESIAN_POINT('Ctrl Pts',(52.8686969774916,-2.59914309936753,19.8364300735175));
#659=CARTESIAN_POINT('Ctrl Pts',(52.8686969774916,-4.08273527902413,19.5814611063275));
#660=CARTESIAN_POINT('Ctrl Pts',(52.8686969774916,-5.15594721639537,19.1025587052886));
#661=CARTESIAN_POINT('Ctrl Pts',(52.8686969774916,-5.17370511442168,18.0852093549282));
#662=CARTESIAN_POINT('Ctrl Pts',(52.8686969774916,-5.17370546982668,18.0851889937884));
#663=CARTESIAN_POINT('Ctrl Pts',(52.8686969774916,-5.17370582523168,18.0851686326487));
#664=CARTESIAN_POINT('Ctrl Pts',(52.8686969774916,-5.17370618063668,18.0851482715089));
#665=CARTESIAN_POINT('',(58.2378734458508,0.195475046901722,18.0851482715089));
#666=CARTESIAN_POINT('Origin',(52.8686969774916,0.195475046901716,18.0851482715089));
#667=CARTESIAN_POINT('Ctrl Pts',(52.8686969774916,-5.17370618063668,18.0851482715089));
#668=CARTESIAN_POINT('Ctrl Pts',(52.7576616724652,-5.17370618063668,18.0851482715089));
#669=CARTESIAN_POINT('Ctrl Pts',(52.6451958078057,-5.1702599501341,18.0851482715089));
#670=CARTESIAN_POINT('Ctrl Pts',(52.5315881642269,-5.16311289230111,18.0851482715089));
#671=CARTESIAN_POINT('Ctrl Pts',(52.4196560743516,-5.156071243566,18.0851482715089));
#672=CARTESIAN_POINT('Ctrl Pts',(52.3066158528902,-5.14543662693715,18.0851482715089));
#673=CARTESIAN_POINT('Ctrl Pts',(52.1927870283183,-5.13099214953902,18.0851482715089));
#674=CARTESIAN_POINT('Ctrl Pts',(52.0804906081433,-5.116742128868,18.0851482715089));
#675=CARTESIAN_POINT('Ctrl Pts',(51.9674269758472,-5.09878367722265,18.0851482715089));
#676=CARTESIAN_POINT('Ctrl Pts',(51.8539416080204,-5.07694172288044,18.0851482715089));
#677=CARTESIAN_POINT('Ctrl Pts',(51.7418366285042,-5.05536544488958,18.0851482715089));
#678=CARTESIAN_POINT('Ctrl Pts',(51.6293204890469,-5.02999916050372,18.0851482715089));
#679=CARTESIAN_POINT('Ctrl Pts',(51.5167591944963,-5.00071310260371,18.0851482715089));
#680=CARTESIAN_POINT('Ctrl Pts',(51.4054195676742,-4.9717448966969,18.0851482715089));
#681=CARTESIAN_POINT('Ctrl Pts',(51.2940362062896,-4.93894120634601,18.0851482715089));
#682=CARTESIAN_POINT('Ctrl Pts',(51.1829896935349,-4.90222031541311,18.0851482715089));
#683=CARTESIAN_POINT('Ctrl Pts',(51.0730017703073,-4.86584947915196,18.0851482715089));
#684=CARTESIAN_POINT('Ctrl Pts',(50.963344804448,-4.82563551686116,18.0851482715089));
#685=CARTESIAN_POINT('Ctrl Pts',(50.8544075864663,-4.78154668334559,18.0851482715089));
#686=CARTESIAN_POINT('Ctrl Pts',(50.7411761851048,-4.73571991728845,18.0851482715089));
#687=CARTESIAN_POINT('Ctrl Pts',(50.6287229322162,-4.68570612620252,18.0851482715089));
#688=CARTESIAN_POINT('Ctrl Pts',(50.5174972955326,-4.63152890065281,18.0851482715089));
#689=CARTESIAN_POINT('Ctrl Pts',(50.4080095594223,-4.57819819425231,18.0851482715089));
#690=CARTESIAN_POINT('Ctrl Pts',(50.2997120725197,-4.52083315589223,18.0851482715089));
#691=CARTESIAN_POINT('Ctrl Pts',(50.1930362720324,-4.45951655818336,18.0851482715089));
#692=CARTESIAN_POINT('Ctrl Pts',(50.0880272809278,-4.3991580323137,18.0851482715089));
#693=CARTESIAN_POINT('Ctrl Pts',(49.9845903469699,-4.33497061696061,18.0851482715089));
#694=CARTESIAN_POINT('Ctrl Pts',(49.883129698973,-4.26709092791483,18.0851482715089));
#695=CARTESIAN_POINT('Ctrl Pts',(49.7832543736011,-4.20027185901038,18.0851482715089));
#696=CARTESIAN_POINT('Ctrl Pts',(49.6852946382672,-4.12987526413068,18.0851482715089));
#697=CARTESIAN_POINT('Ctrl Pts',(49.5896198523002,-4.05608469761527,18.0851482715089));
#698=CARTESIAN_POINT('Ctrl Pts',(49.4954399848639,-3.98344710870167,18.0851482715089));
#699=CARTESIAN_POINT('Ctrl Pts',(49.4034747076624,-3.90752113879942,18.0851482715089));
#700=CARTESIAN_POINT('Ctrl Pts',(49.3140526322775,-3.82852925642461,18.0851482715089));
#701=CARTESIAN_POINT('Ctrl Pts',(49.2250253791788,-3.74988614425504,18.0851482715089));
#702=CARTESIAN_POINT('Ctrl Pts',(49.1385193756857,-3.6682044919558,18.0851482715089));
#703=CARTESIAN_POINT('Ctrl Pts',(49.0548281337706,-3.58374597032464,18.0851482715089));
#704=CARTESIAN_POINT('Ctrl Pts',(48.9710768102529,-3.49922681626386,18.0851482715089));
#705=CARTESIAN_POINT('Ctrl Pts',(48.8901446995725,-3.41192721522969,18.0851482715089));
#706=CARTESIAN_POINT('Ctrl Pts',(48.8122885349129,-3.32214596752373,18.0851482715089));
#707=CARTESIAN_POINT('Ctrl Pts',(48.7342728834623,-3.23218080473333,18.0851482715089));
#708=CARTESIAN_POINT('Ctrl Pts',(48.6593461227987,-3.1397242965279,18.0851482715089));
#709=CARTESIAN_POINT('Ctrl Pts',(48.5877234378259,-3.04510709321346,18.0851482715089));
#710=CARTESIAN_POINT('Ctrl Pts',(48.5158589275477,-2.95017042639253,18.0851482715089));
#711=CARTESIAN_POINT('Ctrl Pts',(48.4473210820444,-2.85305898075437,18.0851482715089));
#712=CARTESIAN_POINT('Ctrl Pts',(48.3822795800081,-2.75412933160539,18.0851482715089));
#713=CARTESIAN_POINT('Ctrl Pts',(48.3169323683135,-2.65473469090032,18.0851482715089));
#714=CARTESIAN_POINT('Ctrl Pts',(48.255114585969,-2.55350528150085,18.0851482715089));
#715=CARTESIAN_POINT('Ctrl Pts',(48.1969473529144,-2.45081717041168,18.0851482715089));
#716=CARTESIAN_POINT('Ctrl Pts',(48.1384300304548,-2.34751101342598,18.0851482715089));
#717=CARTESIAN_POINT('Ctrl Pts',(48.0836073706973,-2.24272912663222,18.0851482715089));
#718=CARTESIAN_POINT('Ctrl Pts',(48.0325498558586,-2.13686027891909,18.0851482715089));
#719=CARTESIAN_POINT('Ctrl Pts',(47.9811180690658,-2.03021537031408,18.0851482715089));
#720=CARTESIAN_POINT('Ctrl Pts',(47.9335067634898,-1.92246808779284,18.0851482715089));
#721=CARTESIAN_POINT('Ctrl Pts',(47.8897347183933,-1.81401291689044,18.0851482715089));
#722=CARTESIAN_POINT('Ctrl Pts',(47.8455847397635,-1.70462132992967,18.0851482715089));
#723=CARTESIAN_POINT('Ctrl Pts',(47.8053404373634,-1.59451013749167,18.0851482715089));
#724=CARTESIAN_POINT('Ctrl Pts',(47.7689688469858,-1.48407252583309,18.0851482715089));
#725=CARTESIAN_POINT('Ctrl Pts',(47.7322361365593,-1.37253842003413,18.0851482715089));
#726=CARTESIAN_POINT('Ctrl Pts',(47.6994531579052,-1.26067190127968,18.0851482715089));
#727=CARTESIAN_POINT('Ctrl Pts',(47.6705361693872,-1.14885797256892,18.0851482715089));
#728=CARTESIAN_POINT('Ctrl Pts',(47.641294942876,-1.03579030597887,18.0851482715089));
#729=CARTESIAN_POINT('Ctrl Pts',(47.6160065392964,-0.922776879851262,18.0851482715089));
#730=CARTESIAN_POINT('Ctrl Pts',(47.5945383661634,-0.810187916870631,18.0851482715089));
#731=CARTESIAN_POINT('Ctrl Pts',(47.5728021570856,-0.696193250252899,18.0851482715089));
#732=CARTESIAN_POINT('Ctrl Pts',(47.554981743273,-0.582634106605444,18.0851482715089));
#733=CARTESIAN_POINT('Ctrl Pts',(47.5408984970359,-0.469859760398509,18.0851482715089));
#734=CARTESIAN_POINT('Ctrl Pts',(47.5266216732285,-0.355535303970863,18.0851482715089));
#735=CARTESIAN_POINT('Ctrl Pts',(47.5161849759261,-0.242017681063715,18.0851482715089));
#736=CARTESIAN_POINT('Ctrl Pts',(47.509367353377,-0.129629604308571,18.0851482715089));
#737=CARTESIAN_POINT('Ctrl Pts',(47.50435781831,-0.0470477354011373,18.0851482715089));
#738=CARTESIAN_POINT('Ctrl Pts',(47.5013015261113,0.034925135648266,18.0851482715089));
#739=CARTESIAN_POINT('Ctrl Pts',(47.5001013768571,0.11617604943858,18.0851482715089));
#740=CARTESIAN_POINT('Ctrl Pts',(47.4997945620216,0.136947620686647,18.0851482715089));
#741=CARTESIAN_POINT('Ctrl Pts',(47.499609022024,0.157672074090242,18.0851482715089));
#742=CARTESIAN_POINT('Ctrl Pts',(47.4995430677284,0.178347658724371,18.0851482715089));
#743=CARTESIAN_POINT('Ctrl Pts',(47.4995215926732,0.185079734599969,18.0851482715089));
#744=CARTESIAN_POINT('Ctrl Pts',(47.4995127934501,0.191804181616553,18.0851482715089));
#745=CARTESIAN_POINT('Ctrl Pts',(47.4995166184897,0.198529004845375,18.0851482715089));
#746=CARTESIAN_POINT('Ctrl Pts',(47.4995796166539,0.309286425898186,18.0851482715089));
#747=CARTESIAN_POINT('Ctrl Pts',(47.5030724193274,0.421464141000985,18.0851482715089));
#748=CARTESIAN_POINT('Ctrl Pts',(47.5102473564819,0.534775375890285,18.0851482715089));
#749=CARTESIAN_POINT('Ctrl Pts',(47.5173189785936,0.64645499299324,18.0851482715089));
#750=CARTESIAN_POINT('Ctrl Pts',(47.5279679521488,0.759235508646665,18.0851482715089));
#751=CARTESIAN_POINT('Ctrl Pts',(47.5424094612559,0.87279945111527,18.0851482715089));
#752=CARTESIAN_POINT('Ctrl Pts',(47.5566613219579,0.984872052172929,18.0851482715089));
#753=CARTESIAN_POINT('Ctrl Pts',(47.5746072195934,1.09770734268109,18.0851482715089));
#754=CARTESIAN_POINT('Ctrl Pts',(47.5964210357185,1.21096185033724,18.0851482715089));
#755=CARTESIAN_POINT('Ctrl Pts',(47.617976296889,1.32287397416138,18.0851482715089));
#756=CARTESIAN_POINT('Ctrl Pts',(47.6433087303889,1.43519506268975,18.0851482715089));
#757=CARTESIAN_POINT('Ctrl Pts',(47.6725473742305,1.5475609741566,18.0851482715089));
#758=CARTESIAN_POINT('Ctrl Pts',(47.7014771881424,1.65874003315769,18.0851482715089));
#759=CARTESIAN_POINT('Ctrl Pts',(47.734231464388,1.76996253210808,18.0851482715089));
#760=CARTESIAN_POINT('Ctrl Pts',(47.7708915792984,1.880849538314,18.0851482715089));
#761=CARTESIAN_POINT('Ctrl Pts',(47.8072121466939,1.99070950443885,18.0851482715089));
#762=CARTESIAN_POINT('Ctrl Pts',(47.8473667899301,2.10023966736881,18.0851482715089));
#763=CARTESIAN_POINT('Ctrl Pts',(47.8913872222454,2.20905262287989,18.0851482715089));
#764=CARTESIAN_POINT('Ctrl Pts',(47.9350575622214,2.31700019429242,18.0851482715089));
#765=CARTESIAN_POINT('Ctrl Pts',(47.9825326115649,2.42424138376227,18.0851482715089));
#766=CARTESIAN_POINT('Ctrl Pts',(48.0337933123416,2.53038695163613,18.0851482715089));
#767=CARTESIAN_POINT('Ctrl Pts',(48.0847138287155,2.6358280994363,18.0851482715089));
#768=CARTESIAN_POINT('Ctrl Pts',(48.1393699855211,2.7401875581106,18.0851482715089));
#769=CARTESIAN_POINT('Ctrl Pts',(48.1976917946603,2.84308106670802,18.0851482715089));
#770=CARTESIAN_POINT('Ctrl Pts',(48.2557037075446,2.94542784478651,18.0851482715089));
#771=CARTESIAN_POINT('Ctrl Pts',(48.3173423888529,3.04632364264286,18.0851482715089));
#772=CARTESIAN_POINT('Ctrl Pts',(48.3824877423503,3.14539602087441,18.0851482715089));
#773=CARTESIAN_POINT('Ctrl Pts',(48.4473734343582,3.24407350860469,18.0851482715089));
#774=CARTESIAN_POINT('Ctrl Pts',(48.5157377672126,3.34094152797693,18.0851482715089));
#775=CARTESIAN_POINT('Ctrl Pts',(48.5874123455015,3.4356461772645,18.0851482715089));
#776=CARTESIAN_POINT('Ctrl Pts',(48.6588966498828,3.53009941490622,18.0851482715089));
#777=CARTESIAN_POINT('Ctrl Pts',(48.7336734175103,3.62240022800808,18.0851482715089));
#778=CARTESIAN_POINT('Ctrl Pts',(48.811528728352,3.71221968538835,18.0851482715089));
#779=CARTESIAN_POINT('Ctrl Pts',(48.8892811621564,3.80192045645718,18.0851482715089));
#780=CARTESIAN_POINT('Ctrl Pts',(48.9701036877104,3.88914594753555,18.0851482715089));
#781=CARTESIAN_POINT('Ctrl Pts',(49.053740551751,3.97359819521912,18.0851482715089));
#782=CARTESIAN_POINT('Ctrl Pts',(49.13737847173,4.05805150913547,18.0851482715089));
#783=CARTESIAN_POINT('Ctrl Pts',(49.2238303994683,4.1397310958236,18.0851482715089));
#784=CARTESIAN_POINT('Ctrl Pts',(49.3128032814447,4.21837537832491,18.0851482715089));
#785=CARTESIAN_POINT('Ctrl Pts',(49.4018959148153,4.29712551063423,18.0851482715089));
#786=CARTESIAN_POINT('Ctrl Pts',(49.4935158232871,4.37283182650849,18.0851482715089));
#787=CARTESIAN_POINT('Ctrl Pts',(49.5873379279587,4.44527384710382,18.0851482715089));
#788=CARTESIAN_POINT('Ctrl Pts',(49.6814112054485,4.51790980351565,18.0851482715089));
#789=CARTESIAN_POINT('Ctrl Pts',(49.7776979635785,4.58726371618387,18.0851482715089));
#790=CARTESIAN_POINT('Ctrl Pts',(49.8758469938425,4.65316009965301,18.0851482715089));
#791=CARTESIAN_POINT('Ctrl Pts',(49.9743890896485,4.71932038382112,18.0851482715089));
#792=CARTESIAN_POINT('Ctrl Pts',(50.0748078455464,4.78199523966674,18.0851482715089));
#793=CARTESIAN_POINT('Ctrl Pts',(50.1767323017747,4.8410571674592,18.0851482715089));
#794=CARTESIAN_POINT('Ctrl Pts',(50.2825239177052,4.90235998929751,18.0851482715089));
#795=CARTESIAN_POINT('Ctrl Pts',(50.3899370558944,4.95977016618441,18.0851482715089));
#796=CARTESIAN_POINT('Ctrl Pts',(50.4985490856386,5.01320335232699,18.0851482715089));
#797=CARTESIAN_POINT('Ctrl Pts',(50.6049431116905,5.0655453609597,18.0851482715089));
#798=CARTESIAN_POINT('Ctrl Pts',(50.7124869609417,5.11407146146134,18.0851482715089));
#799=CARTESIAN_POINT('Ctrl Pts',(50.820785179378,5.15875665500113,18.0851482715089));
#800=CARTESIAN_POINT('Ctrl Pts',(50.9299988445878,5.20381957327952,18.0851482715089));
#801=CARTESIAN_POINT('Ctrl Pts',(51.0399791202014,5.24497653286023,18.0851482715089));
#802=CARTESIAN_POINT('Ctrl Pts',(51.1503310744993,5.28225454650499,18.0851482715089));
#803=CARTESIAN_POINT('Ctrl Pts',(51.2617545009982,5.31989451436783,18.0851482715089));
#804=CARTESIAN_POINT('Ctrl Pts',(51.3735563308363,5.35358009927205,18.0851482715089));
#805=CARTESIAN_POINT('Ctrl Pts',(51.4853491444774,5.38338944741429,18.0851482715089));
#806=CARTESIAN_POINT('Ctrl Pts',(51.5983668114025,5.4135254004319,18.0851482715089));
#807=CARTESIAN_POINT('Ctrl Pts',(51.7113747902308,5.43970005446883,18.0851482715089));
#808=CARTESIAN_POINT('Ctrl Pts',(51.823999881605,5.46204081901516,18.0851482715089));
#809=CARTESIAN_POINT('Ctrl Pts',(51.9379981554441,5.4846539735392,18.0851482715089));
#810=CARTESIAN_POINT('Ctrl Pts',(52.0516037443266,5.5033395978636,18.0851482715089));
#811=CARTESIAN_POINT('Ctrl Pts',(52.1644639451053,5.5182715760062,18.0851482715089));
#812=CARTESIAN_POINT('Ctrl Pts',(52.2788383563649,5.53340389189097,18.0851482715089));
#813=CARTESIAN_POINT('Ctrl Pts',(52.3924469213211,5.54468164296821,18.0851482715089));
#814=CARTESIAN_POINT('Ctrl Pts',(52.5049631452703,5.55232157759945,18.0851482715089));
#815=CARTESIAN_POINT('Ctrl Pts',(52.5898495270955,5.55808542556256,18.0851482715089));
#816=CARTESIAN_POINT('Ctrl Pts',(52.6741150139904,5.56177951215737,18.0851482715089));
#817=CARTESIAN_POINT('Ctrl Pts',(52.757635755347,5.563507503872,18.0851482715089));
#818=CARTESIAN_POINT('Ctrl Pts',(52.7781765159126,5.56393247931514,18.0851482715089));
#819=CARTESIAN_POINT('Ctrl Pts',(52.7986722987087,5.56423857304857,18.0851482715089));
#820=CARTESIAN_POINT('Ctrl Pts',(52.81912139451,5.5644273949602,18.0851482715089));
#821=CARTESIAN_POINT('Ctrl Pts',(52.8349077426883,5.56457316220926,18.0851482715089));
#822=CARTESIAN_POINT('Ctrl Pts',(52.8506662684694,5.56464904098075,18.0851482715089));
#823=CARTESIAN_POINT('Ctrl Pts',(52.8663962070054,5.56465578148365,18.0851482715089));
#824=CARTESIAN_POINT('Ctrl Pts',(52.8736278761182,5.56465888035696,18.0851482715089));
#825=CARTESIAN_POINT('Ctrl Pts',(52.8808608780191,5.56464737869786,18.0851482715089));
#826=CARTESIAN_POINT('Ctrl Pts',(52.8881020219659,5.56462120792207,18.0851482715089));
#827=CARTESIAN_POINT('Ctrl Pts',(52.998917781651,5.56422070015405,18.0851482715089));
#828=CARTESIAN_POINT('Ctrl Pts',(53.1111387601648,5.56038242235141,18.0851482715089));
#829=CARTESIAN_POINT('Ctrl Pts',(53.2244765742483,5.5528557439105,18.0851482715089));
#830=CARTESIAN_POINT('Ctrl Pts',(53.3362122342783,5.54543546330751,18.0851482715089));
#831=CARTESIAN_POINT('Ctrl Pts',(53.4490331625755,5.53442982960057,18.0851482715089));
#832=CARTESIAN_POINT('Ctrl Pts',(53.5626202901324,5.51962544770035,18.0851482715089));
#833=CARTESIAN_POINT('Ctrl Pts',(53.6747411077786,5.5050121773492,18.0851482715089));
#834=CARTESIAN_POINT('Ctrl Pts',(53.7876081707599,5.48669714756056,18.0851482715089));
#835=CARTESIAN_POINT('Ctrl Pts',(53.9008764599735,5.46450840892306,18.0851482715089));
#836=CARTESIAN_POINT('Ctrl Pts',(54.012822870027,5.44257862035357,18.0851482715089));
#837=CARTESIAN_POINT('Ctrl Pts',(54.1251608187257,5.41686460978088,18.0851482715089));
#838=CARTESIAN_POINT('Ctrl Pts',(54.2375247258051,5.38723945311252,18.0851482715089));
#839=CARTESIAN_POINT('Ctrl Pts',(54.3487177191042,5.3579230121616,18.0851482715089));
#840=CARTESIAN_POINT('Ctrl Pts',(54.4599356875003,5.32477618252222,18.0851482715089));
#841=CARTESIAN_POINT('Ctrl Pts',(54.5707984406007,5.28771990191728,18.0851482715089));
#842=CARTESIAN_POINT('Ctrl Pts',(54.6806455415989,5.25100310674132,18.0851482715089));
#843=CARTESIAN_POINT('Ctrl Pts',(54.790143405773,5.21044791316801,18.0851482715089));
#844=CARTESIAN_POINT('Ctrl Pts',(54.8989036332484,5.16602511596564,18.0851482715089));
#845=CARTESIAN_POINT('Ctrl Pts',(55.0068053826713,5.12195296161603,18.0851482715089));
#846=CARTESIAN_POINT('Ctrl Pts',(55.113980553873,5.07407385871775,18.0851482715089));
#847=CARTESIAN_POINT('Ctrl Pts',(55.220039256506,5.02240953382712,18.0851482715089));
#848=CARTESIAN_POINT('Ctrl Pts',(55.3253960847855,4.97108711265329,18.0851482715089));
#849=CARTESIAN_POINT('Ctrl Pts',(55.4296506090765,4.91602934051175,18.0851482715089));
#850=CARTESIAN_POINT('Ctrl Pts',(55.5324183394488,4.85730897358799,18.0851482715089));
#851=CARTESIAN_POINT('Ctrl Pts',(55.6370157765485,4.79754313207796,18.0851482715089));
#852=CARTESIAN_POINT('Ctrl Pts',(55.7400723634229,4.73398294564967,18.0851482715089));
#853=CARTESIAN_POINT('Ctrl Pts',(55.8411894730721,4.66676070293715,18.0851482715089));
#854=CARTESIAN_POINT('Ctrl Pts',(55.9395077111433,4.60139913865171,18.0851482715089));
#855=CARTESIAN_POINT('Ctrl Pts',(56.0359918409839,4.53257578853762,18.0851482715089));
#856=CARTESIAN_POINT('Ctrl Pts',(56.1302902430986,4.46046231814854,18.0851482715089));
#857=CARTESIAN_POINT('Ctrl Pts',(56.2243898112672,4.38850090342071,18.0851482715089));
#858=CARTESIAN_POINT('Ctrl Pts',(56.316312336123,4.31326346217158,18.0851482715089));
#859=CARTESIAN_POINT('Ctrl Pts',(56.4057311514953,4.23496713206293,18.0851482715089));
#860=CARTESIAN_POINT('Ctrl Pts',(56.4950699511739,4.15674086478337,18.0851482715089));
#861=CARTESIAN_POINT('Ctrl Pts',(56.5819090450228,4.07546150594165,18.0851482715089));
#862=CARTESIAN_POINT('Ctrl Pts',(56.6659528661935,3.99138795025833,18.0851482715089));
#863=CARTESIAN_POINT('Ctrl Pts',(56.7500235884511,3.90728748397048,18.0851482715089));
#864=CARTESIAN_POINT('Ctrl Pts',(56.8312968379595,3.82039143865323,18.0851482715089));
#865=CARTESIAN_POINT('Ctrl Pts',(56.9095136900777,3.73099585004162,18.0851482715089));
#866=CARTESIAN_POINT('Ctrl Pts',(56.9878505983468,3.64146304687867,18.0851482715089));
#867=CARTESIAN_POINT('Ctrl Pts',(57.0631213883136,3.54942349636742,18.0851482715089));
#868=CARTESIAN_POINT('Ctrl Pts',(57.1351085719344,3.45520496837595,18.0851482715089));
#869=CARTESIAN_POINT('Ctrl Pts',(57.2072936003916,3.3607274963848,18.0851482715089));
#870=CARTESIAN_POINT('Ctrl Pts',(57.276176708411,3.2640595804531,18.0851482715089));
#871=CARTESIAN_POINT('Ctrl Pts',(57.3415857677478,3.16555466269494,18.0851482715089));
#872=CARTESIAN_POINT('Ctrl Pts',(57.4072537834444,3.06665976111533,18.0851482715089));
#873=CARTESIAN_POINT('Ctrl Pts',(57.4694200466171,2.96591384467079,18.0851482715089));
#874=CARTESIAN_POINT('Ctrl Pts',(57.5279607457175,2.86368946711745,18.0851482715089));
#875=CARTESIAN_POINT('Ctrl Pts',(57.5892982830329,2.75658122158802,18.0851482715089));
#876=CARTESIAN_POINT('Ctrl Pts',(57.6466551013946,2.64785048794689,18.0851482715089));
#877=CARTESIAN_POINT('Ctrl Pts',(57.699949122937,2.53793310656456,18.0851482715089));
#878=CARTESIAN_POINT('Ctrl Pts',(57.7516235412703,2.4313561100598,18.0851482715089));
#879=CARTESIAN_POINT('Ctrl Pts',(57.7994787643073,2.32366409482373,18.0851482715089));
#880=CARTESIAN_POINT('Ctrl Pts',(57.8434943541608,2.21525179576174,18.0851482715089));
#881=CARTESIAN_POINT('Ctrl Pts',(57.8878386427636,2.10602989748209,18.0851482715089));
#882=CARTESIAN_POINT('Ctrl Pts',(57.928285910847,1.99607747449942,18.0851482715089));
#883=CARTESIAN_POINT('Ctrl Pts',(57.9648674015468,1.88578687113275,18.0851482715089));
#884=CARTESIAN_POINT('Ctrl Pts',(58.0017606982083,1.77455619487704,18.0851482715089));
#885=CARTESIAN_POINT('Ctrl Pts',(58.0347223050747,1.66298206147585,18.0851482715089));
#886=CARTESIAN_POINT('Ctrl Pts',(58.0638337583093,1.55144734851591,18.0851482715089));
#887=CARTESIAN_POINT('Ctrl Pts',(58.093888232992,1.43629963741139,18.0851482715089));
#888=CARTESIAN_POINT('Ctrl Pts',(58.1198392770821,1.32119453792768,18.0851482715089));
#889=CARTESIAN_POINT('Ctrl Pts',(58.1418257770599,1.20652386734205,18.0851482715089));
#890=CARTESIAN_POINT('Ctrl Pts',(58.1636737692984,1.09257558437433,18.0851482715089));
#891=CARTESIAN_POINT('Ctrl Pts',(58.1816075750665,0.979056570543773,18.0851482715089));
#892=CARTESIAN_POINT('Ctrl Pts',(58.1958049423967,0.866316149097214,18.0851482715089));
#893=CARTESIAN_POINT('Ctrl Pts',(58.2102575926826,0.751548541387967,18.0851482715089));
#894=CARTESIAN_POINT('Ctrl Pts',(58.2208386914131,0.637588124924255,18.0851482715089));
#895=CARTESIAN_POINT('Ctrl Pts',(58.2277712728931,0.524761776845172,18.0851482715089));
#896=CARTESIAN_POINT('Ctrl Pts',(58.234588469108,0.413813300397476,18.0851482715089));
#897=CARTESIAN_POINT('Ctrl Pts',(58.23787820503,0.303961440173639,18.0851482715089));
#898=CARTESIAN_POINT('Ctrl Pts',(58.2378782050299,0.195475046901108,18.0851482715089));
#899=CARTESIAN_POINT('Origin',(52.8686969774916,0.195475046901716,10.3398477067548));
#900=CARTESIAN_POINT('',(52.8686969774916,3.87810493663923,10.5896954135095));
#901=CARTESIAN_POINT('Origin',(52.8686969774916,0.195475046901716,10.5896954135095));
#902=CARTESIAN_POINT('',(52.8686969774916,4.39555468499049,10.09));
#903=CARTESIAN_POINT('',(52.8686969774916,4.13682981081486,10.3398477067548));
#904=CARTESIAN_POINT('Origin',(52.8686969774916,0.195475046901716,10.09));
#905=CARTESIAN_POINT('Origin',(52.8686969774916,0.195475046901716,12.2399995326996));
#906=CARTESIAN_POINT('',(52.8686969774916,3.86382131312798,10.9987248741756));
#907=CARTESIAN_POINT('',(52.8686969774916,3.82047504690172,12.2399995326996));
#908=CARTESIAN_POINT('',(56.5370432437178,0.195475046901716,10.9987248741756));
#909=CARTESIAN_POINT('Origin',(52.8686969774916,0.195475046901716,10.9987248741756));
#910=CARTESIAN_POINT('Origin',(52.8686969774916,0.195475046901716,10.9987248741756));
#911=CARTESIAN_POINT('Origin',(52.8686969774916,0.195475046901716,10.09));
#912=CARTESIAN_POINT('',(53.6274245084569,5.65170191708306,10.09));
#913=CARTESIAN_POINT('',(58.3774245188735,0.195475046901716,10.0899999993116));
#914=CARTESIAN_POINT('Origin',(52.8686969774916,0.195475046901716,10.09));
#915=CARTESIAN_POINT('',(53.627424508457,-5.26075182327963,10.09));
#916=CARTESIAN_POINT('Origin',(52.8686969774916,0.195475046901716,10.09));
#917=CARTESIAN_POINT('',(53.6274245084575,-6.31325248406421,10.09));
#918=CARTESIAN_POINT('',(53.6274245084575,-3.05452495309829,10.09));
#919=CARTESIAN_POINT('',(52.1099694465256,-6.31325248406421,10.09));
#920=CARTESIAN_POINT('',(52.4936969774916,-6.31325248406421,10.09));
#921=CARTESIAN_POINT('',(52.1099694465262,-5.26075182327963,10.09));
#922=CARTESIAN_POINT('',(52.1099694465256,-2.5288367928112,10.09));
#923=CARTESIAN_POINT('',(52.1099694465262,5.65170191708306,10.09));
#924=CARTESIAN_POINT('Origin',(52.8686969774916,0.195475046901716,10.09));
#925=CARTESIAN_POINT('',(52.1099694465256,6.70420257786765,10.09));
#926=CARTESIAN_POINT('',(52.1099694465256,3.44547504690171,10.09));
#927=CARTESIAN_POINT('',(53.6274245084575,6.70420257786764,10.09));
#928=CARTESIAN_POINT('',(53.2436969774916,6.70420257786764,10.09));
#929=CARTESIAN_POINT('',(53.6274245084575,2.91978688661464,10.09));
#930=CARTESIAN_POINT('Origin',(52.8686969774916,0.195475046901716,10.99));
#931=CARTESIAN_POINT('',(56.2871955369631,0.195475046901716,11.24));
#932=CARTESIAN_POINT('Origin',(56.2871955369631,0.195475046901716,10.99));
#933=CARTESIAN_POINT('Origin',(52.8686969774916,0.195475046901716,11.24));
#934=CARTESIAN_POINT('Origin',(74.3282478411353,-31.0222814137636,11.24));
#935=CARTESIAN_POINT('Origin',(52.1186969789895,6.69547504690171,10.5899999999869));
#936=CARTESIAN_POINT('',(52.1448795763821,5.62122526455202,12.0899999999999));
#937=CARTESIAN_POINT('Ctrl Pts',(52.1099694466084,5.65170191648905,10.0899999993011));
#938=CARTESIAN_POINT('Ctrl Pts',(52.1274733971489,5.63646359022086,11.092800654142));
#939=CARTESIAN_POINT('Ctrl Pts',(52.1448795764947,5.62122526395267,12.0900000010045));
#940=CARTESIAN_POINT('',(52.1448795763821,6.66929244801121,12.09));
#941=CARTESIAN_POINT('',(52.1448795763821,3.44547504690171,12.09));
#942=CARTESIAN_POINT('',(52.1189253492984,6.69524667509489,10.6030833262198));
#943=CARTESIAN_POINT('Origin',(52.8686969774916,0.195475046901716,12.09));
#944=CARTESIAN_POINT('',(53.592514378601,5.62122526455202,12.0899999999999));
#945=CARTESIAN_POINT('Origin',(52.8686969774916,0.195475046901716,12.09));
#946=CARTESIAN_POINT('',(53.5925143786011,6.66929244801121,12.09));
#947=CARTESIAN_POINT('',(53.5925143786011,2.91978688661464,12.09));
#948=CARTESIAN_POINT('',(53.2436969774916,6.66929244801121,12.09));
#949=CARTESIAN_POINT('Origin',(53.6186969759936,5.64409872632756,10.5899999999869));
#950=CARTESIAN_POINT('Ctrl Pts',(53.5925143784502,5.62122533134194,12.0900000022428));
#951=CARTESIAN_POINT('Ctrl Pts',(53.6099205577913,5.63646365741952,11.0928006556603));
#952=CARTESIAN_POINT('Ctrl Pts',(53.6274245083245,5.6517019834971,10.0900000012308));
#953=CARTESIAN_POINT('',(53.618536907237,6.69531497664718,10.5991703329095));
#954=CARTESIAN_POINT('Origin',(53.6186969774916,6.69547504540376,10.5899999999869));
#955=CARTESIAN_POINT('Origin',(53.6186969759936,-6.30452495309829,10.5899999999869));
#956=CARTESIAN_POINT('',(53.5925143786011,-5.23027517074859,12.0899999999999));
#957=CARTESIAN_POINT('Ctrl Pts',(53.6274245082775,-5.26075188965279,10.0900000039124));
#958=CARTESIAN_POINT('Ctrl Pts',(53.6099205577604,-5.24551356358906,11.0928006574227));
#959=CARTESIAN_POINT('Ctrl Pts',(53.5925143784353,-5.23027523752534,12.0900000031008));
#960=CARTESIAN_POINT('',(53.5925143786011,-6.27834235420778,12.09));
#961=CARTESIAN_POINT('',(53.5925143786011,-3.05452495309829,12.09));
#962=CARTESIAN_POINT('',(53.6184686056847,-6.30429658129146,10.6030833262198));
#963=CARTESIAN_POINT('Origin',(52.1186969774916,-6.30452495160033,10.5899999999869));
#964=CARTESIAN_POINT('',(52.1448795763821,-6.27834235420777,12.09));
#965=CARTESIAN_POINT('',(52.4936969774916,-6.27834235420778,12.09));
#966=CARTESIAN_POINT('',(52.1188570477461,-6.30436488284375,10.5991703329095));
#967=CARTESIAN_POINT('Origin',(52.1186969789895,-5.25314863252413,10.5899999999869));
#968=CARTESIAN_POINT('',(52.1448795763821,-5.23027517074859,12.0899999999999));
#969=CARTESIAN_POINT('Ctrl Pts',(52.1448795765164,-5.23027517013025,12.0900000022562));
#970=CARTESIAN_POINT('Ctrl Pts',(52.1274733971683,-5.24551349640046,11.0928006552607));
#971=CARTESIAN_POINT('Ctrl Pts',(52.1099694466256,-5.26075182267066,10.0900000002856));
#972=CARTESIAN_POINT('',(52.1448795763821,-2.5288367928112,12.09));
#973=CARTESIAN_POINT('Origin',(52.8686969774916,0.195475046901716,12.09));
#974=CARTESIAN_POINT('Origin',(52.8686969774916,0.195475046901716,12.09));
#975=CARTESIAN_POINT('Origin',(52.8686969774916,0.195475046901716,10.5900005102158));
#976=CARTESIAN_POINT('',(58.3686969774916,0.195475046901716,10.5900005102158));
#977=UNCERTAINTY_MEASURE_WITH_UNIT(LENGTH_MEASURE(0.01),#981,
'DISTANCE_ACCURACY_VALUE',
'Maximum model space distance between geometric entities at asserted c
onnectivities');
#978=UNCERTAINTY_MEASURE_WITH_UNIT(LENGTH_MEASURE(0.01),#981,
'DISTANCE_ACCURACY_VALUE',
'Maximum model space distance between geometric entities at asserted c
onnectivities');
#979=(
GEOMETRIC_REPRESENTATION_CONTEXT(3)
GLOBAL_UNCERTAINTY_ASSIGNED_CONTEXT((#977))
GLOBAL_UNIT_ASSIGNED_CONTEXT((#981,#983,#984))
REPRESENTATION_CONTEXT('','3D')
);
#980=(
GEOMETRIC_REPRESENTATION_CONTEXT(3)
GLOBAL_UNCERTAINTY_ASSIGNED_CONTEXT((#978))
GLOBAL_UNIT_ASSIGNED_CONTEXT((#981,#983,#984))
REPRESENTATION_CONTEXT('','3D')
);
#981=(
LENGTH_UNIT()
NAMED_UNIT(*)
SI_UNIT(.MILLI.,.METRE.)
);
#982=(
LENGTH_UNIT()
NAMED_UNIT(*)
SI_UNIT($,.METRE.)
);
#983=(
NAMED_UNIT(*)
PLANE_ANGLE_UNIT()
SI_UNIT($,.RADIAN.)
);
#984=(
NAMED_UNIT(*)
SI_UNIT($,.STERADIAN.)
SOLID_ANGLE_UNIT()
);
#985=SHAPE_DEFINITION_REPRESENTATION(#986,#987);
#986=PRODUCT_DEFINITION_SHAPE('',$,#989);
#987=SHAPE_REPRESENTATION('',(#382),#979);
#988=PRODUCT_DEFINITION_CONTEXT('part definition',#993,'design');
#989=PRODUCT_DEFINITION('Button_North','Button_North',#990,#988);
#990=PRODUCT_DEFINITION_FORMATION('',$,#995);
#991=PRODUCT_RELATED_PRODUCT_CATEGORY('Button_North','Button_North',(#995));
#992=APPLICATION_PROTOCOL_DEFINITION('international standard',
'automotive_design',2009,#993);
#993=APPLICATION_CONTEXT(
'Core Data for Automotive Mechanical Design Process');
#994=PRODUCT_CONTEXT('part definition',#993,'mechanical');
#995=PRODUCT('Button_North','Button_North',$,(#994));
#996=PRESENTATION_STYLE_ASSIGNMENT((#998));
#997=PRESENTATION_STYLE_ASSIGNMENT((#999));
#998=SURFACE_STYLE_USAGE(.BOTH.,#1000);
#999=SURFACE_STYLE_USAGE(.BOTH.,#1001);
#1000=SURFACE_SIDE_STYLE('',(#1002));
#1001=SURFACE_SIDE_STYLE('',(#1003));
#1002=SURFACE_STYLE_FILL_AREA(#1004);
#1003=SURFACE_STYLE_FILL_AREA(#1005);
#1004=FILL_AREA_STYLE('Steel - Satin',(#1006));
#1005=FILL_AREA_STYLE('ABS (White)',(#1007));
#1006=FILL_AREA_STYLE_COLOUR('Steel - Satin',#1008);
#1007=FILL_AREA_STYLE_COLOUR('ABS (White)',#1009);
#1008=COLOUR_RGB('Steel - Satin',0.627450980392157,0.627450980392157,0.627450980392157);
#1009=COLOUR_RGB('ABS (White)',0.83921568627451,0.83921568627451,0.83921568627451);
ENDSEC;
END-ISO-10303-21;
