                                                                        S      1
,,12HButton_North,12HButton_North,7Hunknown,7Hunknown,32,38,7,99,15,,1.,G      1
2,2HMM,1,0.08,15H20250819.125318,0.01,10000.,7Hunknown,7Hunknown,11,0,; G      2
     186       1                                                00000000D      1
     186            -259       1       0                               0D      2
     514       2                                                00010000D      3
     514                       2       1                               0D      4
     510       4                                                00010000D      5
     510            -259       1       1                               0D      6
     510       5                                                00010000D      7
     510            -259       1       1                               0D      8
     510       6                                                00010000D      9
     510            -259       1       1                               0D     10
     510       7                                                00010000D     11
     510            -259       1       1                               0D     12
     510       8                                                00010000D     13
     510            -259       1       1                               0D     14
     510       9                                                00010000D     15
     510            -259       1       1                               0D     16
     510      10                                                00010000D     17
     510            -259       1       1                               0D     18
     510      11                                                00010000D     19
     510            -259       1       1                               0D     20
     510      12                                                00010000D     21
     510            -259       1       1                               0D     22
     510      13                                                00010000D     23
     510            -259       1       1                               0D     24
     510      14                                                00010000D     25
     510            -259       1       1                               0D     26
     510      15                                                00010000D     27
     510            -259       1       1                               0D     28
     510      16                                                00010000D     29
     510            -259       1       1                               0D     30
     510      17                                                00010000D     31
     510            -259       1       1                               0D     32
     510      18                                                00010000D     33
     510            -259       1       1                               0D     34
     510      19                                                00010000D     35
     510            -259       1       1                               0D     36
     510      20                                                00010000D     37
     510            -259       1       1                               0D     38
     510      21                                                00010000D     39
     510            -259       1       1                               0D     40
     510      22                                                00010000D     41
     510            -259       1       1                               0D     42
     510      23                                                00010000D     43
     510            -259       1       1                               0D     44
     510      24                                                00010000D     45
     510            -259       1       1                               0D     46
     510      25                                                00010000D     47
     510            -259       1       1                               0D     48
     510      26                                                00010000D     49
     510            -259       1       1                               0D     50
     508      27                                                00010000D     51
     508                       1       1                               0D     52
     508      28                                                00010000D     53
     508                       1       1                               0D     54
     508      29                                                00010000D     55
     508                       1       1                               0D     56
     508      30                                                00010000D     57
     508                       1       1                               0D     58
     508      31                                                00010000D     59
     508                       1       1                               0D     60
     508      32                                                00010000D     61
     508                       1       1                               0D     62
     508      33                                                00010000D     63
     508                       1       1                               0D     64
     508      34                                                00010000D     65
     508                       1       1                               0D     66
     508      35                                                00010000D     67
     508                       1       1                               0D     68
     508      36                                                00010000D     69
     508                       1       1                               0D     70
     508      37                                                00010000D     71
     508                       2       1                               0D     72
     508      39                                                00010000D     73
     508                       2       1                               0D     74
     508      41                                                00010000D     75
     508                       1       1                               0D     76
     508      42                                                00010000D     77
     508                       1       1                               0D     78
     508      43                                                00010000D     79
     508                       1       1                               0D     80
     508      44                                                00010000D     81
     508                       1       1                               0D     82
     508      45                                                00010000D     83
     508                       1       1                               0D     84
     508      46                                                00010000D     85
     508                       2       1                               0D     86
     508      48                                                00010000D     87
     508                       1       1                               0D     88
     508      49                                                00010000D     89
     508                       1       1                               0D     90
     508      50                                                00010000D     91
     508                       1       1                               0D     92
     508      51                                                00010000D     93
     508                       1       1                               0D     94
     508      52                                                00010000D     95
     508                       1       1                               0D     96
     508      53                                                00010000D     97
     508                       1       1                               0D     98
     508      54                                                00010000D     99
     508                       1       1                               0D    100
     508      55                                                00010000D    101
     508                       1       1                               0D    102
     508      56                                                00010000D    103
     508                       1       1                               0D    104
     508      57                                                00010000D    105
     508                       3       1                               0D    106
     126      60                                                00010000D    107
     126       0              12       0                               0D    108
     126      72                                                00010000D    109
     126       0               4       0                               0D    110
     126      76                                                00010000D    111
     126       0              12       0                               0D    112
     126      88                                                00010000D    113
     126       0              12       0                               0D    114
     126     100                                                00010000D    115
     126       0               4       0                               0D    116
     126     104                                                00010000D    117
     126       0              12       0                               0D    118
     126     116                                                00010000D    119
     126       0              12       0                               0D    120
     126     128                                                00010000D    121
     126       0               4       0                               0D    122
     126     132                                                00010000D    123
     126       0              13       0                               0D    124
     126     145                                                00010000D    125
     126       0              13       0                               0D    126
     126     158                                                00010000D    127
     126       0               4       0                               0D    128
     126     162                                                00010000D    129
     126       0              13       0                               0D    130
     126     175                                                00010000D    131
     126       0              13       0                               0D    132
     126     188                                                00010000D    133
     126       0               6       0                               0D    134
     126     194                                                00010000D    135
     126       0              45       0                               0D    136
     126     239                                                00010000D    137
     126       0              15       0                               0D    138
     126     254                                                00010000D    139
     126       0               5       0                               0D    140
     126     259                                                00010000D    141
     126       0              12       0                               0D    142
     126     271                                                00010000D    143
     126       0               5       0                               0D    144
     126     276                                                00010000D    145
     126       0              12       0                               0D    146
     126     288                                                00010000D    147
     126       0               7       0                               0D    148
     126     295                                                00010000D    149
     126       0               6       0                               0D    150
     126     301                                                00010000D    151
     126       0               6       0                               0D    152
     126     307                                                00010000D    153
     126       0               4       0                               0D    154
     126     311                                                00010000D    155
     126       0               4       0                               0D    156
     126     315                                                00010000D    157
     126       0               4       0                               0D    158
     126     319                                                00010000D    159
     126       0               8       0                               0D    160
     126     327                                                00010000D    161
     126       0               4       0                               0D    162
     126     331                                                00010000D    163
     126       0               4       0                               0D    164
     126     335                                                00010000D    165
     126       0               4       0                               0D    166
     126     339                                                00010000D    167
     126       0               6       0                               0D    168
     126     345                                                00010000D    169
     126       0               6       0                               0D    170
     126     351                                                00010000D    171
     126       0              10       0                               0D    172
     126     361                                                00010000D    173
     126       0               7       0                               0D    174
     126     368                                                00010000D    175
     126       0               4       0                               0D    176
     126     372                                                00010000D    177
     126       0               4       0                               0D    178
     126     376                                                00010000D    179
     126       0               6       0                               0D    180
     126     382                                                00010000D    181
     126       0               4       0                               0D    182
     126     386                                                00010000D    183
     126       0               4       0                               0D    184
     126     390                                                00010000D    185
     126       0               6       0                               0D    186
     126     396                                                00010000D    187
     126       0               4       0                               0D    188
     126     400                                                00010000D    189
     126       0               6       0                               0D    190
     126     406                                                00010000D    191
     126       0               4       0                               0D    192
     126     410                                                00010000D    193
     126       0               4       0                               0D    194
     126     414                                                00010000D    195
     126       0               4       0                               0D    196
     126     418                                                00010000D    197
     126       0               4       0                               0D    198
     126     422                                                00010000D    199
     126       0               7       0                               0D    200
     126     429                                                00010000D    201
     126       0               4       0                               0D    202
     126     433                                                00010000D    203
     126       0               6       0                               0D    204
     126     439                                                00010000D    205
     126       0               5       0                               0D    206
     128     444                                                00010000D    207
     128       0    -259      22       0                               0D    208
     128     466                                                00010000D    209
     128       0    -259       8       0                               0D    210
     128     474                                                00010000D    211
     128       0    -259      22       0                               0D    212
     128     496                                                00010000D    213
     128       0    -259       8       0                               0D    214
     128     504                                                00010000D    215
     128       0    -259      22       0                               0D    216
     128     526                                                00010000D    217
     128       0    -259       8       0                               0D    218
     128     534                                                00010000D    219
     128       0    -259      23       0                               0D    220
     128     557                                                00010000D    221
     128       0    -259       8       0                               0D    222
     128     565                                                00010000D    223
     128       0    -259     107       0                               0D    224
     128     672                                                00010000D    225
     128       0    -259      24       0                               0D    226
     128     696                                                00010000D    227
     128       0    -259      27       0                               0D    228
     128     723                                                00010000D    229
     128       0    -259       7       0                               0D    230
     128     730                                                00010000D    231
     128       0    -259      34       0                               0D    232
     128     764                                                00010000D    233
     128       0    -259       7       0                               0D    234
     128     771                                                00010000D    235
     128       0    -259       9       0                               0D    236
     128     780                                                00010000D    237
     128       0    -259       7       0                               0D    238
     128     787                                                00010000D    239
     128       0    -259       9       0                               0D    240
     128     796                                                00010000D    241
     128       0    -259       9       0                               0D    242
     128     805                                                00010000D    243
     128       0    -259       9       0                               0D    244
     128     814                                                00010000D    245
     128       0    -259       9       0                               0D    246
     128     823                                                00010000D    247
     128       0    -259       9       0                               0D    248
     128     832                                                00010000D    249
     128       0    -259       8       0                               0D    250
     128     840                                                00010000D    251
     128       0    -259      27       0                               0D    252
     502     867                                                00010000D    253
     502                      27       1                               0D    254
     504     894                                                00010001D    255
     504                      14       1                               0D    256
     406     908                                                00000000D    257
     406                       1      15                               0D    258
     314     909                                                00000200D    259
     314                       2       0                               0D    260
     314     911                                                00000200D    261
     314                       2       0                               0D    262
186,3,1,0,0,1,257;                                                     1P      1
514,23,5,1,7,1,9,1,11,1,13,1,15,1,17,1,19,1,21,1,23,1,25,1,27,1,       3P      2
29,1,31,1,33,1,35,1,37,1,39,1,41,1,43,1,45,1,47,1,49,1;                3P      3
510,207,1,1,51;                                                        5P      4
510,209,1,1,53;                                                        7P      5
510,211,1,1,55;                                                        9P      6
510,213,1,1,57;                                                       11P      7
510,215,1,1,59;                                                       13P      8
510,217,1,1,61;                                                       15P      9
510,219,1,1,63;                                                       17P     10
510,221,1,1,65;                                                       19P     11
510,223,1,1,67;                                                       21P     12
510,225,1,1,69;                                                       23P     13
510,227,1,1,71;                                                       25P     14
510,229,6,1,73,75,77,79,81,83;                                        27P     15
510,231,1,1,85;                                                       29P     16
510,233,1,1,87;                                                       31P     17
510,235,1,1,89;                                                       33P     18
510,237,1,1,91;                                                       35P     19
510,239,1,1,93;                                                       37P     20
510,241,1,1,95;                                                       39P     21
510,243,1,1,97;                                                       41P     22
510,245,1,1,99;                                                       43P     23
510,247,1,1,101;                                                      45P     24
510,249,1,1,103;                                                      47P     25
510,251,1,1,105;                                                      49P     26
508,4,0,255,1,0,0,0,255,2,1,0,0,255,3,0,0,0,255,2,0,0;                51P     27
508,1,0,255,3,1,0;                                                    53P     28
508,4,0,255,4,0,0,0,255,5,1,0,0,255,6,0,0,0,255,5,0,0;                55P     29
508,1,0,255,6,1,0;                                                    57P     30
508,4,0,255,7,0,0,0,255,8,1,0,0,255,9,0,0,0,255,8,0,0;                59P     31
508,1,0,255,9,1,0;                                                    61P     32
508,4,0,255,10,0,0,0,255,11,1,0,0,255,12,0,0,0,255,11,0,0;            63P     33
508,1,0,255,12,1,0;                                                   65P     34
508,4,0,255,13,1,0,0,255,14,1,0,0,255,15,0,0,0,255,13,0,0;            67P     35
508,4,0,255,16,1,0,0,255,17,1,0,0,255,18,1,0,0,255,17,0,0;            69P     36
508,5,0,255,16,0,0,0,255,19,1,0,0,255,20,0,0,0,255,21,0,0,0,255,      71P     37
19,0,0;                                                               71P     38
508,9,0,255,22,1,0,0,255,23,1,0,0,255,24,0,0,0,255,25,0,0,0,255,      73P     39
26,0,0,0,255,27,1,0,0,255,28,0,0,0,255,29,0,0,0,255,30,0,0;           73P     40
508,1,0,255,1,1,0;                                                    75P     41
508,1,0,255,4,1,0;                                                    77P     42
508,1,0,255,7,1,0;                                                    79P     43
508,1,0,255,10,1,0;                                                   81P     44
508,1,0,255,18,0,0;                                                   83P     45
508,6,0,255,21,1,0,0,255,31,1,0,0,255,32,1,0,0,255,33,1,0,0,255,      85P     46
31,0,0,0,255,20,1,0;                                                  85P     47
508,2,0,255,33,0,0,0,255,32,0,0;                                      87P     48
508,4,0,255,34,0,0,0,255,35,0,0,0,255,36,0,0,0,255,28,1,0;            89P     49
508,4,0,255,37,0,0,0,255,38,1,0,0,255,39,1,0,0,255,35,1,0;            91P     50
508,4,0,255,40,0,0,0,255,30,1,0,0,255,41,1,0,0,255,38,0,0;            93P     51
508,4,0,255,29,1,0,0,255,36,1,0,0,255,39,0,0,0,255,41,0,0;            95P     52
508,4,0,255,42,0,0,0,255,43,0,0,0,255,44,0,0,0,255,24,1,0;            97P     53
508,4,0,255,25,1,0,0,255,44,1,0,0,255,45,0,0,0,255,46,0,0;            99P     54
508,4,0,255,47,0,0,0,255,26,1,0,0,255,46,1,0,0,255,48,0,0;           101P     55
508,4,0,255,49,0,0,0,255,48,1,0,0,255,45,1,0,0,255,43,1,0;           103P     56
508,13,0,255,34,1,0,0,255,27,0,0,0,255,47,1,0,0,255,49,1,0,0,        105P     57
255,42,1,0,0,255,23,0,0,0,255,50,1,0,0,255,14,0,0,0,255,15,1,0,      105P     58
0,255,50,0,0,0,255,22,0,0,0,255,40,1,0,0,255,37,1,0;                 105P     59
126,8,2,0,1,0,0,-3.14159265358979,-3.14159265358979,                 107P     60
-3.14159265358979,-1.5707963267949,-1.5707963267949,0.,0.,           107P     61
1.5707963267949,1.5707963267949,3.14159265358979,                    107P     62
3.14159265358979,3.14159265358979,1.,0.707106781186548,1.,           107P     63
0.707106781186548,1.,0.707106781186548,1.,0.707106781186548,1.,      107P     64
48.2535971474861,-2.15910632387061,10.09,48.2535971474861,           107P     65
-2.53410632387062,10.09,48.6285971474862,-2.53410632387062,          107P     66
10.09,49.0035971474862,-2.53410632387062,10.09,49.0035971474862,     107P     67
-2.15910632387061,10.09,49.0035971474862,-1.78410632387061,          107P     68
10.09,48.6285971474862,-1.78410632387061,10.09,48.2535971474861,     107P     69
-1.78410632387061,10.09,48.2535971474861,-2.15910632387061,          107P     70
10.09,-3.14159265358979,3.14159265358979,0.,0.,0.;                   107P     71
126,1,1,0,0,1,0,-5.16557313845755D-16,-5.16557313845755D-16,         109P     72
0.667301790108876,0.667301790108876,1.,1.,48.2535971474861,          109P     73
-2.15910632387061,10.09,48.2645123832133,-2.15910632387061,          109P     74
10.34,-5.16557313845755D-16,0.667301790108876,0.,0.,0.;              109P     75
126,8,2,0,1,0,0,-3.14159265358979,-3.14159265358979,                 111P     76
-3.14159265358979,-1.5707963267949,-1.5707963267949,0.,0.,           111P     77
1.5707963267949,1.5707963267949,3.14159265358979,                    111P     78
3.14159265358979,3.14159265358979,1.,0.707106781186518,1.,           111P     79
0.707106781186518,1.,0.707106781186518,1.,0.707106781186518,1.,      111P     80
48.2645123832133,-2.15910632387061,10.34,48.2645123832133,           111P     81
-1.79502155959774,10.34,48.6285971474862,-1.79502155959774,          111P     82
10.34,48.992681911759,-1.79502155959774,10.34,48.992681911759,       111P     83
-2.15910632387061,10.34,48.992681911759,-2.52319108814349,10.34,     111P     84
48.6285971474862,-2.52319108814349,10.34,48.2645123832133,           111P     85
-2.52319108814349,10.34,48.2645123832133,-2.15910632387061,          111P     86
10.34,-3.14159265358979,3.14159265358979,0.,0.,0.;                   111P     87
126,8,2,0,1,0,0,-3.14159265358979,-3.14159265358979,                 113P     88
-3.14159265358979,-1.5707963267949,-1.5707963267949,0.,0.,           113P     89
1.5707963267949,1.5707963267949,3.14159265358979,                    113P     90
3.14159265358979,3.14159265358979,1.,0.707106781186597,1.,           113P     91
0.707106781186597,1.,0.707106781186597,1.,0.707106781186597,1.,      113P     92
49.0453984912593,-3.21505827647288,10.09,49.0453984912593,           113P     93
-3.59005827647288,10.09,49.4203984912593,-3.59005827647288,          113P     94
10.09,49.7953984912593,-3.59005827647288,10.09,49.7953984912593,     113P     95
-3.21505827647288,10.09,49.7953984912593,-2.84005827647288,          113P     96
10.09,49.4203984912593,-2.84005827647288,10.09,49.0453984912593,     113P     97
-2.84005827647288,10.09,49.0453984912593,-3.21505827647288,          113P     98
10.09,-3.14159265358979,3.14159265358979,0.,0.,0.;                   113P     99
126,1,1,0,0,1,0,-1.93431316522325D-33,-1.93431316522325D-33,         115P    100
0.667301790108876,0.667301790108876,1.,1.,49.0453984912593,          115P    101
-3.21505827647288,10.09,49.0563137269865,-3.21505827647288,          115P    102
10.34,-1.93431316522325D-33,0.667301790108876,0.,0.,0.;              115P    103
126,8,2,0,1,0,0,-3.14159265358979,-3.14159265358979,                 117P    104
-3.14159265358979,-1.5707963267949,-1.5707963267949,0.,0.,           117P    105
1.5707963267949,1.5707963267949,3.14159265358979,                    117P    106
3.14159265358979,3.14159265358979,1.,0.70710678118652,1.,            117P    107
0.70710678118652,1.,0.70710678118652,1.,0.70710678118652,1.,         117P    108
49.0563137269865,-3.21505827647288,10.34,49.0563137269865,           117P    109
-2.85097351220001,10.34,49.4203984912593,-2.85097351220001,          117P    110
10.34,49.7844832555322,-2.85097351220001,10.34,49.7844832555322,     117P    111
-3.21505827647288,10.34,49.7844832555322,-3.57914304074575,          117P    112
10.34,49.4203984912593,-3.57914304074575,10.34,49.0563137269865,     117P    113
-3.57914304074575,10.34,49.0563137269865,-3.21505827647288,          117P    114
10.34,-3.14159265358979,3.14159265358979,0.,0.,0.;                   117P    115
126,8,2,0,1,0,0,-3.14159265358979,-3.14159265358979,                 119P    116
-3.14159265358979,-1.5707963267949,-1.5707963267949,0.,0.,           119P    117
1.5707963267949,1.5707963267949,3.14159265358979,                    119P    118
3.14159265358979,3.14159265358979,1.,0.707106781186597,1.,           119P    119
0.707106781186597,1.,0.707106781186597,1.,0.707106781186597,1.,      119P    120
47.7892326788678,-0.98372623488804,10.09,47.7892326788678,           119P    121
-1.35872623488804,10.09,48.1642326788678,-1.35872623488804,          119P    122
10.09,48.5392326788678,-1.35872623488804,10.09,48.5392326788678,     119P    123
-0.98372623488804,10.09,48.5392326788678,-0.60872623488804,          119P    124
10.09,48.1642326788678,-0.60872623488804,10.09,47.7892326788678,     119P    125
-0.60872623488804,10.09,47.7892326788678,-0.98372623488804,          119P    126
10.09,-3.14159265358979,3.14159265358979,0.,0.,0.;                   119P    127
126,1,1,0,0,1,0,-1.93431316522325D-33,-1.93431316522325D-33,         121P    128
0.667301790108876,0.667301790108876,1.,1.,47.7892326788678,          121P    129
-0.98372623488804,10.09,47.8001479145949,-0.98372623488804,          121P    130
10.34,-1.93431316522325D-33,0.667301790108876,0.,0.,0.;              121P    131
126,8,2,0,1,0,0,-3.14159265358979,-3.14159265358979,                 123P    132
-3.14159265358979,-1.5707963267949,-1.5707963267949,0.,0.,           123P    133
1.5707963267949,1.5707963267949,3.14159265358979,                    123P    134
3.14159265358979,3.14159265358979,1.,0.707106781186517,1.,           123P    135
0.707106781186517,1.,0.707106781186518,1.,0.707106781186518,1.,      123P    136
47.8001479145949,-0.98372623488804,10.34,47.8001479145949,           123P    137
-0.619641470615168,10.34,48.1642326788678,-0.619641470615168,        123P    138
10.34,48.5283174431407,-0.619641470615168,10.34,                     123P    139
48.5283174431407,-0.98372623488804,10.34,48.5283174431407,           123P    140
-1.34781099916091,10.34,48.1642326788678,-1.34781099916091,          123P    141
10.34,47.8001479145949,-1.34781099916091,10.34,47.8001479145949,     123P    142
-0.98372623488804,10.34,-3.14159265358979,3.14159265358979,0.,       123P    143
0.,0.;                                                               123P    144
126,8,2,0,1,0,0,-3.14159265358979,-3.14159265358979,                 125P    145
-3.14159265358979,-1.5707963267949,-1.5707963267949,0.,0.,           125P    146
1.5707963267949,1.5707963267949,3.14159265358979,                    125P    147
3.14159265358979,3.14159265358979,1.,0.707106781186598,1.,           125P    148
0.707106781186598,1.,0.707106781186598,1.,0.707106781186598,1.,      125P    149
47.6436969774916,0.195475046901712,10.09,47.6436969774916,           125P    150
-0.179524953098289,10.09,48.0186969774916,-0.179524953098289,        125P    151
10.09,48.3936969774916,-0.179524953098289,10.09,                     125P    152
48.3936969774916,0.195475046901712,10.09,48.3936969774916,           125P    153
0.570475046901713,10.09,48.0186969774916,0.570475046901713,          125P    154
10.09,47.6436969774916,0.570475046901713,10.09,47.6436969774916,     125P    155
0.195475046901712,10.09,-3.14159265358979,3.14159265358979,0.,       125P    156
0.,0.;                                                               125P    157
126,1,1,0,0,1,0,-1.93431316522325D-33,-1.93431316522325D-33,         127P    158
0.667301790108876,0.667301790108876,1.,1.,47.6436969774916,          127P    159
0.195475046901712,10.09,47.6546122132187,0.195475046901712,          127P    160
10.34,-1.93431316522325D-33,0.667301790108876,0.,0.,0.;              127P    161
126,8,2,0,1,0,0,-3.14159265358979,-3.14159265358979,                 129P    162
-3.14159265358979,-1.5707963267949,-1.5707963267949,0.,0.,           129P    163
1.5707963267949,1.5707963267949,3.14159265358979,                    129P    164
3.14159265358979,3.14159265358979,1.,0.707106781186518,1.,           129P    165
0.707106781186518,1.,0.707106781186518,1.,0.707106781186518,1.,      129P    166
47.6546122132187,0.195475046901712,10.34,47.6546122132187,           129P    167
0.559559811174585,10.34,48.0186969774916,0.559559811174585,          129P    168
10.34,48.3827817417644,0.559559811174585,10.34,48.3827817417644,     129P    169
0.195475046901712,10.34,48.3827817417644,-0.168609717371161,         129P    170
10.34,48.0186969774916,-0.168609717371161,10.34,                     129P    171
47.6546122132187,-0.168609717371161,10.34,47.6546122132187,          129P    172
0.195475046901712,10.34,-3.14159265358979,3.14159265358979,0.,       129P    173
0.,0.;                                                               129P    174
126,9,3,0,0,1,0,0.,0.,0.,0.,0.352052163229589,0.352052163229589,     131P    175
0.352052163229589,1.,1.,1.,1.00001299793012,1.00001299793012,        131P    176
1.00001299793012,1.00001299793012,1.,1.,1.,1.,1.,1.,1.,1.,1.,1.,     131P    177
52.8686969774916,0.195475046901714,20.0435,52.8686969774916,         131P    178
-0.858769391682636,20.0435,52.8686969774916,-1.79305685822513,       131P    179
19.9749634111749,52.8686969774916,-2.59914309936753,                 131P    180
19.8364300735175,52.8686969774916,-4.08273527902413,                 131P    181
19.5814611063275,52.8686969774916,-5.15594721639537,                 131P    182
19.1025587052886,52.8686969774916,-5.17370511442168,                 131P    183
18.0852093549282,52.8686969774916,-5.17370546982668,                 131P    184
18.0851889937884,52.8686969774916,-5.17370582523168,                 131P    185
18.0851686326487,52.8686969774916,-5.17370618063668,                 131P    186
18.0851482715089,0.,1.00001299793012,0.,0.,0.;                       131P    187
126,2,2,0,0,0,0,1.5707963267949,1.5707963267949,1.5707963267949,     133P    188
3.14159265358979,3.14159265358979,3.14159265358979,1.,               133P    189
0.707106781186549,1.,52.8686969774916,-5.17369666227833,             133P    190
18.0851482715089,58.2378686866716,-5.17369666227833,                 133P    191
18.0851482715089,58.2378686866716,0.195475046901716,                 133P    192
18.0851482715089,1.5707963267949,3.14159265358979,0.,0.,0.;          133P    193
126,30,3,0,0,1,0,3.17258705285231,3.17258705285231,                  135P    194
3.17258705285231,3.17258705285231,3.26491678450521,                  135P    195
3.26491678450521,3.38367210928434,3.38367210928434,                  135P    196
3.38367210928434,3.59341620659941,3.59341620659941,                  135P    197
3.80316030391448,3.80316030391448,4.01290440122956,                  135P    198
4.01290440122956,4.22264849854463,4.22264849854463,                  135P    199
4.4323925958597,4.4323925958597,4.64213669317477,                    135P    200
4.64213669317477,4.85188079048984,4.85188079048984,                  135P    201
5.06162488780491,5.06162488780491,5.27136898511998,                  135P    202
5.27136898511998,5.48111308243505,5.48111308243505,                  135P    203
5.69085717975013,5.69085717975013,5.71023753805066,                  135P    204
5.71023753805066,5.71023753805066,5.71023753805066,1.,1.,1.,1.,      135P    205
1.,1.,1.,1.,1.,1.,1.,1.,1.,1.,1.,1.,1.,1.,1.,1.,1.,1.,1.,1.,1.,      135P    206
1.,1.,1.,1.,1.,1.,52.8686969774916,-5.17370618063668,                135P    207
18.0851482715089,52.5612556797095,-5.17370618063668,                 135P    208
18.0851482715089,52.2542172863849,-5.14729965674165,                 135P    209
18.0851482715089,51.5609545818596,-5.02703536097789,                 135P    210
18.0851482715089,51.1796046266022,-4.91644945996564,                 135P    211
18.0851482715089,50.8138893025518,-4.76495562725947,                 135P    212
18.0851482715089,50.1679676930584,-4.49738920656338,                 135P    213
18.0851482715089,49.5804831179607,-4.10621801318922,                 135P    214
18.0851482715089,48.5885235267913,-3.12070178812471,                 135P    215
18.0851482715089,48.1935321850709,-2.53577882869381,                 135P    216
18.0851482715089,47.6499921657895,-1.24745033493999,                 135P    217
18.0851482715089,47.506640027065,-0.556361923210643,                 135P    218
18.0851482715089,47.4929092155226,0.841864641117469,                 135P    219
18.0851482715089,47.6226618167469,1.5356349856689,                   135P    220
18.0851482715089,48.1407962634858,2.83438929479784,                  135P    221
18.0851482715089,48.5242244612844,3.4269564603043,                   135P    222
18.0851482715089,49.4966387587063,4.43176315541935,                  135P    223
18.0851482715089,50.0763280476394,4.83439618536068,                  135P    224
18.0851482715089,51.3574129622822,5.39479559814857,                  135P    225
18.0851482715089,52.0465607179627,5.54720425716761,                  135P    226
18.0851482715089,53.4444867046261,5.57928222764023,                  135P    227
18.0851482715089,54.1399000012479,5.45864485621226,                  135P    228
18.0851482715089,55.4453417426321,4.95759803182337,                  135P    229
18.0851482715089,56.0428894528261,4.58197885959523,                  135P    230
18.0851482715089,57.0603702145843,3.62283394883857,                  135P    231
18.0851482715089,57.4705755954962,3.04847815843125,                  135P    232
18.0851482715089,58.0477378956634,1.77485743794807,                  135P    233
18.0851482715089,58.2091768287513,1.08776901613694,                  135P    234
18.0851482715089,58.2367160175957,0.324517495498297,                 135P    235
18.0851482715089,58.23787820503,0.259973302245552,                   135P    236
18.0851482715089,58.2378782050299,0.195475046901107,                 135P    237
18.0851482715089,3.17258705285231,5.71023753805066,0.,0.,0.;         135P    238
126,8,2,0,1,0,0,-3.14159265358979,-3.14159265358979,                 137P    239
-3.14159265358979,-1.5707963267949,-1.5707963267949,0.,0.,           137P    240
1.5707963267949,1.5707963267949,3.14159265358979,                    137P    241
3.14159265358979,3.14159265358979,1.,0.707106781186551,1.,           137P    242
0.707106781186551,1.,0.707106781186551,1.,0.707106781186551,1.,      137P    243
52.8686969774916,3.87810493663923,10.5896954135095,                  137P    244
49.1860670877541,3.87810493663923,10.5896954135095,                  137P    245
49.1860670877541,0.195475046901716,10.5896954135095,                 137P    246
49.1860670877541,-3.4871548428358,10.5896954135095,                  137P    247
52.8686969774916,-3.4871548428358,10.5896954135095,                  137P    248
56.5513268672291,-3.4871548428358,10.5896954135095,                  137P    249
56.5513268672291,0.195475046901716,10.5896954135095,                 137P    250
56.5513268672291,3.87810493663923,10.5896954135095,                  137P    251
52.8686969774916,3.87810493663923,10.5896954135095,                  137P    252
-3.14159265358979,3.14159265358979,0.,0.,0.;                         137P    253
126,1,1,0,0,1,0,-0.0912553986417183,-0.0912553986417183,             139P    254
0.0912553986417183,0.0912553986417183,1.,1.,52.8686969774916,        139P    255
3.87810493663923,10.5896954135095,52.8686969774916,                  139P    256
4.39555468499049,10.09,-0.0912553986417183,0.0912553986417183,       139P    257
0.,0.,0.;                                                            139P    258
126,8,2,0,1,0,0,-3.14159265358979,-3.14159265358979,                 141P    259
-3.14159265358979,-1.5707963267949,-1.5707963267949,0.,0.,           141P    260
1.5707963267949,1.5707963267949,3.14159265358979,                    141P    261
3.14159265358979,3.14159265358979,1.,0.707106781186546,1.,           141P    262
0.707106781186547,1.,0.707106781186546,1.,0.707106781186547,1.,      141P    263
52.8686969774916,4.39555468499049,10.09,57.0687766155803,            141P    264
4.39555468499049,10.09,57.0687766155803,0.195475046901717,10.09,     141P    265
57.0687766155803,-4.00460459118705,10.09,52.8686969774916,           141P    266
-4.00460459118705,10.09,48.6686173394028,-4.00460459118706,          141P    267
10.09,48.6686173394028,0.195475046901715,10.09,48.6686173394028,     141P    268
4.39555468499049,10.09,52.8686969774916,4.39555468499049,10.09,      141P    269
-3.14159265358979,3.14159265358979,0.,0.,0.;                         141P    270
126,1,1,0,0,1,0,-0.455533807629575,-0.455533807629575,               143P    271
-0.342629315976644,-0.342629315976644,1.,1.,52.8686969774916,        143P    272
3.87810493663923,10.5896954135095,52.8686969774916,                  143P    273
3.86382131312798,10.9987248741756,-0.455533807629575,                143P    274
-0.342629315976644,0.,0.,0.;                                         143P    275
126,6,2,0,0,0,0,-1.5707963267949,-1.5707963267949,                   145P    276
-1.5707963267949,0.,0.,1.5707963267949,1.5707963267949,              145P    277
3.14159265358979,3.14159265358979,3.14159265358979,1.,               145P    278
0.707106781186548,1.,0.707106781186548,1.,0.707106781186548,1.,      145P    279
56.5370432437178,0.195475046901716,10.9987248741756,                 145P    280
56.5370432437178,-3.47287121932455,10.9987248741756,                 145P    281
52.8686969774916,-3.47287121932455,10.9987248741756,                 145P    282
49.2003507112653,-3.47287121932455,10.9987248741756,                 145P    283
49.2003507112653,0.195475046901716,10.9987248741756,                 145P    284
49.2003507112653,3.86382131312798,10.9987248741756,                  145P    285
52.8686969774916,3.86382131312798,10.9987248741756,                  145P    286
-1.5707963267949,3.14159265358979,0.,0.,0.;                          145P    287
126,2,2,0,0,0,0,-3.14159265358979,-3.14159265358979,                 147P    288
-3.14159265358979,-1.5707963267949,-1.5707963267949,                 147P    289
-1.5707963267949,1.,0.707106781186548,1.,52.8686969774916,           147P    290
3.86382131312798,10.9987248741756,56.5370432437178,                  147P    291
3.86382131312798,10.9987248741756,56.5370432437178,                  147P    292
0.195475046901716,10.9987248741756,-3.14159265358979,                147P    293
-1.5707963267949,0.,0.,0.;                                           147P    294
126,2,2,0,0,0,0,1.70896745446776,1.70896745446776,                   149P    295
1.70896745446776,3.14159265358979,3.14159265358979,                  149P    296
3.14159265358979,1.,0.754232027843688,1.,53.6274245084559,           149P    297
5.65170191707534,10.09,58.3774245188615,4.99118030283007,10.09,      149P    298
58.3774245188615,0.195475046901717,10.09,1.70896745446776,           149P    299
3.14159265358979,0.,0.,0.;                                           149P    300
126,2,2,0,0,0,0,3.14159265358979,3.14159265358979,                   151P    301
3.14159265358979,4.57421785271182,4.57421785271182,                  151P    302
4.57421785271182,1.,0.754232027843692,1.,58.3774245188615,           151P    303
0.195475046901717,10.09,58.3774245188615,-4.60023020902663,          151P    304
10.09,53.6274245084559,-5.26075182327191,10.09,3.14159265358979,     151P    305
4.57421785271182,0.,0.,0.;                                           151P    306
126,1,1,0,0,1,0,-0.325872753096593,-0.325872753096593,               153P    307
-0.220622687018134,-0.220622687018134,1.,1.,53.6274245084575,        153P    308
-6.31325248406421,10.09,53.6274245084575,-5.26075182327963,          153P    309
10.09,-0.325872753096593,-0.220622687018134,0.,0.,0.;                153P    310
126,1,1,0,0,1,0,-0.038372753096592,-0.038372753096592,               155P    311
0.113372753096592,0.113372753096592,1.,1.,52.1099694465256,          155P    312
-6.31325248406421,10.09,53.6274245084575,-6.31325248406421,          155P    313
10.09,-0.038372753096592,0.113372753096592,0.,0.,0.;                 155P    314
126,1,1,0,0,1,0,0.273191503046842,0.273191503046842,                 157P    315
0.3784415691253,0.3784415691253,1.,1.,52.1099694465256,              157P    316
-5.26075182327963,10.09,52.1099694465256,-6.31325248406421,          157P    317
10.09,0.273191503046842,0.3784415691253,0.,0.,0.;                    157P    318
126,4,2,0,0,0,0,-1.43262519912203,-1.43262519912203,                 159P    319
-1.43262519912203,0.,0.,1.43262519912203,1.43262519912203,           159P    320
1.43262519912203,1.,0.754232027843693,1.,0.754232027843693,1.,       159P    321
52.1099694465272,-5.26075182327191,10.09,47.3599694361216,           159P    322
-4.60023020902663,10.09,47.3599694361216,0.195475046901716,          159P    323
10.09,47.3599694361216,4.99118030283006,10.09,52.1099694465272,      159P    324
5.65170191707534,10.09,-1.43262519912203,1.43262519912203,0.,0.,     159P    325
0.;                                                                  159P    326
126,1,1,0,0,1,0,-0.325872753096593,-0.325872753096593,               161P    327
-0.220622687018134,-0.220622687018134,1.,1.,52.1099694465256,        161P    328
6.70420257786765,10.09,52.1099694465256,5.65170191708306,10.09,      161P    329
-0.325872753096593,-0.220622687018134,0.,0.,0.;                      161P    330
126,1,1,0,0,1,0,-0.038372753096592,-0.038372753096592,               163P    331
0.113372753096592,0.113372753096592,1.,1.,53.6274245084575,          163P    332
6.70420257786764,10.09,52.1099694465256,6.70420257786764,10.09,      163P    333
-0.038372753096592,0.113372753096592,0.,0.,0.;                       163P    334
126,1,1,0,0,1,0,0.273191503046842,0.273191503046842,                 165P    335
0.3784415691253,0.3784415691253,1.,1.,53.6274245084575,              165P    336
5.65170191708306,10.09,53.6274245084575,6.70420257786764,10.09,      165P    337
0.273191503046842,0.3784415691253,0.,0.,0.;                          165P    338
126,2,2,0,0,0,0,0.0349065850398863,0.0349065850398863,               167P    339
0.0349065850398863,1.57079632679491,1.57079632679491,                167P    340
1.57079632679491,1.,0.719339800338707,1.,56.5370432437178,           167P    341
0.195475046901716,10.9987248741756,56.5286177306648,                 167P    342
0.195475046901716,11.24,56.2871955369631,0.195475046901716,          167P    343
11.24,0.0349065850398863,1.57079632679491,0.,0.,0.;                  167P    344
126,2,2,0,0,0,0,1.5707963267949,1.5707963267949,1.5707963267949,     169P    345
3.14159265358979,3.14159265358979,3.14159265358979,1.,               169P    346
0.707106781186546,1.,56.2871955369631,0.195475046901716,11.24,       169P    347
56.2871955369631,3.61397360637321,11.24,52.8686969774916,            169P    348
3.61397360637321,11.24,1.5707963267949,3.14159265358979,0.,0.,       169P    349
0.;                                                                  169P    350
126,6,2,0,0,0,0,-3.14159265358979,-3.14159265358979,                 171P    351
-3.14159265358979,-1.5707963267949,-1.5707963267949,0.,0.,           171P    352
1.5707963267949,1.5707963267949,1.5707963267949,1.,                  171P    353
0.707106781186546,1.,0.707106781186547,1.,0.707106781186547,1.,      171P    354
52.8686969774916,3.61397360637321,11.24,49.4501984180201,            171P    355
3.61397360637321,11.24,49.4501984180201,0.195475046901716,11.24,     171P    356
49.4501984180201,-3.22302351256977,11.24,52.8686969774916,           171P    357
-3.22302351256977,11.24,56.2871955369631,-3.22302351256977,          171P    358
11.24,56.2871955369631,0.195475046901716,11.24,                      171P    359
-3.14159265358979,1.5707963267949,0.,0.,0.;                          171P    360
126,2,2,0,0,0,0,-9598.68825766155,-9598.68825766155,                 173P    361
-9598.68825766155,-9596.31894375779,-9596.31894375779,               173P    362
-9596.31894375779,1.00000000022782,1.00000000022781,                 173P    363
1.00000000022781,52.1448795764947,5.62122526395267,                  173P    364
12.0900000010045,52.1274733971489,5.63646359022086,                  173P    365
11.092800654142,52.1099694466084,5.65170191648905,                   173P    366
10.0899999993011,-9598.68825766155,-9596.31894375779,0.,0.,0.;       173P    367
126,1,1,0,0,1,0,-0.32238174011095,-0.32238174011095,                 175P    368
-0.217575021765031,-0.217575021765031,1.,1.,52.1448795763821,        175P    369
6.66929244801121,12.09,52.1448795763821,5.62122526455202,12.09,      175P    370
-0.32238174011095,-0.217575021765031,0.,0.,0.;                       175P    371
126,1,1,0,0,1,0,-0.0513239628276823,-0.0513239628276823,             177P    372
0.148736963750528,0.148736963750528,1.,1.,52.1099694465256,          177P    373
6.70420257786765,10.09,52.1448795763821,6.66929244801121,12.09,      177P    374
-0.0513239628276823,0.148736963750528,0.,0.,0.;                      177P    375
126,2,2,0,0,0,0,-1.70341740286727,-1.70341740286727,                 179P    376
-1.70341740286727,-1.43817525072252,-1.43817525072252,               179P    377
-1.43817525072252,1.,0.99121870712158,1.,53.5925143786023,           179P    378
5.62122526456174,12.09,52.8686969774916,5.71778548372655,12.09,      179P    379
52.1448795763808,5.62122526456174,12.09,-1.70341740286727,           179P    380
-1.43817525072252,0.,0.,0.;                                          179P    381
126,1,1,0,0,1,0,0.270143837793738,0.270143837793738,                 181P    382
0.374950556139657,0.374950556139657,1.,1.,53.5925143786011,          181P    383
5.62122526455202,12.09,53.5925143786011,6.66929244801121,12.09,      181P    384
0.270143837793738,0.374950556139657,0.,0.,0.;                        181P    385
126,1,1,0,0,1,0,-0.0348817401109489,-0.0348817401109489,             183P    386
0.109881740110949,0.109881740110949,1.,1.,53.5925143786011,          183P    387
6.66929244801121,12.09,52.1448795763821,6.66929244801121,12.09,      183P    388
-0.0348817401109489,0.109881740110949,0.,0.,0.;                      183P    389
126,2,2,0,0,0,0,-10444.6742054523,-10444.6742054523,                 185P    390
-10444.6742054523,-10442.3048915786,-10442.3048915786,               185P    391
-10442.3048915786,1.,1.,1.,53.6274245083245,5.6517019834971,         185P    392
10.0900000012308,53.6099205577913,5.63646365741952,                  185P    393
11.0928006556603,53.5925143784502,5.62122533134194,                  185P    394
12.0900000022428,-10444.6742054523,-10442.3048915786,0.,0.,0.;       185P    395
126,1,1,0,0,1,0,-0.0509325442940063,-0.0509325442940063,             187P    396
0.149128382284204,0.149128382284204,1.,1.,53.6274245084575,          187P    397
6.70420257786764,10.09,53.5925143786011,6.66929244801121,12.09,      187P    398
-0.0509325442940063,0.149128382284204,0.,0.,0.;                      187P    399
126,2,2,0,0,0,0,-9598.68825293987,-9598.68825293987,                 189P    400
-9598.68825293987,-9596.31893906834,-9596.31893906834,               189P    401
-9596.31893906834,1.,1.,1.,53.5925143784353,-5.23027523752534,       189P    402
12.0900000031008,53.6099205577604,-5.24551356358906,                 189P    403
11.0928006574227,53.6274245082775,-5.26075188965279,                 189P    404
10.0900000039124,-9598.68825293987,-9596.31893906834,0.,0.,0.;       189P    405
126,1,1,0,0,1,0,-0.322381740110949,-0.322381740110949,               191P    406
-0.217575021765031,-0.217575021765031,1.,1.,53.5925143786011,        191P    407
-6.27834235420778,12.09,53.5925143786011,-5.23027517074859,          191P    408
12.09,-0.322381740110949,-0.217575021765031,0.,0.,0.;                191P    409
126,1,1,0,0,1,0,-0.0513239628276823,-0.0513239628276823,             193P    410
0.148736963750528,0.148736963750528,1.,1.,53.6274245084575,          193P    411
-6.31325248406421,10.09,53.5925143786011,-6.27834235420778,          193P    412
12.09,-0.0513239628276823,0.148736963750528,0.,0.,0.;                193P    413
126,1,1,0,0,1,0,-0.0348817401109489,-0.0348817401109489,             195P    414
0.109881740110949,0.109881740110949,1.,1.,52.1448795763821,          195P    415
-6.27834235420778,12.09,53.5925143786011,-6.27834235420778,          195P    416
12.09,-0.0348817401109489,0.109881740110949,0.,0.,0.;                195P    417
126,1,1,0,0,1,0,-0.0509325442940063,-0.0509325442940063,             197P    418
0.149128382284204,0.149128382284204,1.,1.,52.1099694465256,          197P    419
-6.31325248406421,10.09,52.1448795763821,-6.27834235420777,          197P    420
12.09,-0.0509325442940063,0.149128382284204,0.,0.,0.;                197P    421
126,2,2,0,0,0,0,-10444.6741998828,-10444.6741998828,                 199P    422
-10444.6741998828,-10442.3048859787,-10442.3048859787,               199P    423
-10442.3048859787,1.00000000022781,1.00000000022781,                 199P    424
1.00000000022782,52.1099694466256,-5.26075182267066,                 199P    425
10.0900000002856,52.1274733971683,-5.24551349640046,                 199P    426
11.0928006552607,52.1448795765164,-5.23027517013025,                 199P    427
12.0900000022562,-10444.6741998828,-10442.3048859787,0.,0.,0.;       199P    428
126,1,1,0,0,1,0,0.270143837793739,0.270143837793739,                 201P    429
0.374950556139657,0.374950556139657,1.,1.,52.1448795763821,          201P    430
-5.23027517074859,12.09,52.1448795763821,-6.27834235420777,          201P    431
12.09,0.270143837793739,0.374950556139657,0.,0.,0.;                  201P    432
126,2,2,0,0,0,0,1.43817525072252,1.43817525072252,                   203P    433
1.43817525072252,1.70341740286727,1.70341740286727,                  203P    434
1.70341740286727,1.,0.991218707121558,1.,52.1448795763808,           203P    435
-5.23027517075831,12.09,52.8686969774916,-5.32683538992312,          203P    436
12.09,53.5925143786023,-5.23027517075831,12.09,1.43817525072252,     203P    437
1.70341740286727,0.,0.,0.;                                           203P    438
126,1,1,0,0,1,0,-0.0909230318188914,-0.0909230318188914,             205P    439
1.36296170898751,1.36296170898751,1.,1.,58.3774245188735,            205P    440
0.195475046901716,10.0899999993116,58.2378686881212,                 205P    441
0.195475046901716,18.0851481884624,-0.0909230318188914,              205P    442
1.36296170898751,0.,0.,0.;                                           205P    443
128,1,8,1,2,0,1,0,0,1,-5.16557313845755D-16,                         207P    444
-5.16557313845755D-16,0.667301790108876,0.667301790108876,           207P    445
-3.14159265358979,-3.14159265358979,-3.14159265358979,               207P    446
-1.5707963267949,-1.5707963267949,0.,0.,1.5707963267949,             207P    447
1.5707963267949,3.14159265358979,3.14159265358979,                   207P    448
3.14159265358979,1.,1.,0.707106781186548,0.707106781186548,1.,       207P    449
1.,0.707106781186548,0.707106781186548,1.,1.,0.707106781186548,      207P    450
0.707106781186548,1.,1.,0.707106781186548,0.707106781186548,1.,      207P    451
1.,48.2535971474861,-2.15910632387061,10.09,48.2645123832133,        207P    452
-2.15910632387061,10.34,48.2535971474861,-2.53410632387062,          207P    453
10.09,48.2645123832133,-2.52319108814349,10.34,48.6285971474862,     207P    454
-2.53410632387062,10.09,48.6285971474862,-2.52319108814349,          207P    455
10.34,49.0035971474862,-2.53410632387062,10.09,48.992681911759,      207P    456
-2.52319108814349,10.34,49.0035971474862,-2.15910632387061,          207P    457
10.09,48.992681911759,-2.15910632387061,10.34,49.0035971474862,      207P    458
-1.78410632387061,10.09,48.992681911759,-1.79502155959774,10.34,     207P    459
48.6285971474862,-1.78410632387061,10.09,48.6285971474862,           207P    460
-1.79502155959774,10.34,48.2535971474861,-1.78410632387061,          207P    461
10.09,48.2645123832133,-1.79502155959774,10.34,48.2535971474861,     207P    462
-2.15910632387061,10.09,48.2645123832133,-2.15910632387061,          207P    463
10.34,-5.16557313845755D-16,0.667301790108876,-3.14159265358979,     207P    464
3.14159265358979;                                                    207P    465
128,1,1,1,1,0,0,1,0,0,-0.318104836496327,-0.318104836496327,         209P    466
-0.243287883641752,-0.243287883641752,-0.830700339350054,            209P    467
-0.830700339350054,-0.755883386495479,-0.755883386495479,1.,1.,      209P    468
1.,1.,48.2545123832133,-1.78502155959774,10.34,49.002681911759,      209P    469
-1.78502155959774,10.34,48.2545123832133,-2.53319108814349,          209P    470
10.34,49.002681911759,-2.53319108814349,10.34,                       209P    471
-0.318104836496327,-0.243287883641752,-0.830700339350054,            209P    472
-0.755883386495479;                                                  209P    473
128,1,8,1,2,0,1,0,0,1,-1.93431316522325D-33,                         211P    474
-1.93431316522325D-33,0.667301790108876,0.667301790108876,           211P    475
-3.14159265358979,-3.14159265358979,-3.14159265358979,               211P    476
-1.5707963267949,-1.5707963267949,0.,0.,1.5707963267949,             211P    477
1.5707963267949,3.14159265358979,3.14159265358979,                   211P    478
3.14159265358979,1.,1.,0.707106781186548,0.707106781186548,1.,       211P    479
1.,0.707106781186548,0.707106781186548,1.,1.,0.707106781186548,      211P    480
0.707106781186548,1.,1.,0.707106781186548,0.707106781186548,1.,      211P    481
1.,49.0453984912593,-3.21505827647288,10.09,49.0563137269865,        211P    482
-3.21505827647288,10.34,49.0453984912593,-3.59005827647288,          211P    483
10.09,49.0563137269865,-3.57914304074575,10.34,49.4203984912593,     211P    484
-3.59005827647288,10.09,49.4203984912593,-3.57914304074575,          211P    485
10.34,49.7953984912593,-3.59005827647288,10.09,49.7844832555322,     211P    486
-3.57914304074575,10.34,49.7953984912593,-3.21505827647288,          211P    487
10.09,49.7844832555322,-3.21505827647288,10.34,49.7953984912593,     211P    488
-2.84005827647288,10.09,49.7844832555322,-2.85097351220001,          211P    489
10.34,49.4203984912593,-2.84005827647288,10.09,49.4203984912593,     211P    490
-2.85097351220001,10.34,49.0453984912593,-2.84005827647288,          211P    491
10.09,49.0563137269865,-2.85097351220001,10.34,49.0453984912593,     211P    492
-3.21505827647288,10.09,49.0563137269865,-3.21505827647288,          211P    493
10.34,-1.93431316522325D-33,0.667301790108876,-3.14159265358979,     211P    494
3.14159265358979;                                                    211P    495
128,1,1,1,1,0,0,1,0,0,-0.238924702119009,-0.238924702119009,         213P    496
-0.164107749264434,-0.164107749264434,-0.725105144089827,            213P    497
-0.725105144089827,-0.650288191235253,-0.650288191235253,1.,1.,      213P    498
1.,1.,49.0463137269865,-2.84097351220001,10.34,49.7944832555322,     213P    499
-2.84097351220001,10.34,49.0463137269865,-3.58914304074575,          213P    500
10.34,49.7944832555322,-3.58914304074575,10.34,                      213P    501
-0.238924702119009,-0.164107749264434,-0.725105144089827,            213P    502
-0.650288191235253;                                                  213P    503
128,1,8,1,2,0,1,0,0,1,-1.93431316522325D-33,                         215P    504
-1.93431316522325D-33,0.667301790108876,0.667301790108876,           215P    505
-3.14159265358979,-3.14159265358979,-3.14159265358979,               215P    506
-1.5707963267949,-1.5707963267949,0.,0.,1.5707963267949,             215P    507
1.5707963267949,3.14159265358979,3.14159265358979,                   215P    508
3.14159265358979,1.,1.,0.707106781186548,0.707106781186548,1.,       215P    509
1.,0.707106781186548,0.707106781186548,1.,1.,0.707106781186548,      215P    510
0.707106781186548,1.,1.,0.707106781186548,0.707106781186548,1.,      215P    511
1.,47.7892326788678,-0.98372623488804,10.09,47.8001479145949,        215P    512
-0.98372623488804,10.34,47.7892326788678,-1.35872623488804,          215P    513
10.09,47.8001479145949,-1.34781099916091,10.34,48.1642326788678,     215P    514
-1.35872623488804,10.09,48.1642326788678,-1.34781099916091,          215P    515
10.34,48.5392326788678,-1.35872623488804,10.09,48.5283174431407,     215P    516
-1.34781099916091,10.34,48.5392326788678,-0.98372623488804,          215P    517
10.09,48.5283174431407,-0.98372623488804,10.34,48.5392326788678,     215P    518
-0.608726234888044,10.09,48.5283174431407,-0.619641470615173,        215P    519
10.34,48.1642326788678,-0.608726234888044,10.09,                     215P    520
48.1642326788678,-0.619641470615173,10.34,47.7892326788678,          215P    521
-0.608726234888044,10.09,47.8001479145949,-0.619641470615173,        215P    522
10.34,47.7892326788678,-0.98372623488804,10.09,47.8001479145949,     215P    523
-0.98372623488804,10.34,-1.93431316522325D-33,0.667301790108876,     215P    524
-3.14159265358979,3.14159265358979;                                  215P    525
128,1,1,1,1,0,0,1,0,0,-0.364541283358161,-0.364541283358161,         217P    526
-0.289724330503585,-0.289724330503585,-0.948238348248311,            217P    527
-0.948238348248311,-0.873421395393737,-0.873421395393737,1.,1.,      217P    528
1.,1.,47.7901479145949,-0.609641470615168,10.34,                     217P    529
48.5383174431407,-0.609641470615168,10.34,47.7901479145949,          217P    530
-1.35781099916091,10.34,48.5383174431407,-1.35781099916091,          217P    531
10.34,-0.364541283358161,-0.289724330503585,-0.948238348248311,      217P    532
-0.873421395393737;                                                  217P    533
128,1,8,1,2,0,1,0,0,1,-1.93431316522325D-33,                         219P    534
-1.93431316522325D-33,0.667301790108876,0.667301790108876,           219P    535
-3.14159265358979,-3.14159265358979,-3.14159265358979,               219P    536
-1.5707963267949,-1.5707963267949,0.,0.,1.5707963267949,             219P    537
1.5707963267949,3.14159265358979,3.14159265358979,                   219P    538
3.14159265358979,1.,1.,0.707106781186548,0.707106781186548,1.,       219P    539
1.,0.707106781186548,0.707106781186548,1.,1.,0.707106781186548,      219P    540
0.707106781186548,1.,1.,0.707106781186548,0.707106781186548,1.,      219P    541
1.,47.6436969774916,0.195475046901712,10.09,47.6546122132187,        219P    542
0.195475046901712,10.34,47.6436969774916,-0.179524953098284,         219P    543
10.09,47.6546122132187,-0.168609717371155,10.34,                     219P    544
48.0186969774916,-0.179524953098285,10.09,48.0186969774916,          219P    545
-0.168609717371155,10.34,48.3936969774916,-0.179524953098284,        219P    546
10.09,48.3827817417644,-0.168609717371155,10.34,                     219P    547
48.3936969774916,0.195475046901712,10.09,48.3827817417644,           219P    548
0.195475046901712,10.34,48.3936969774916,0.570475046901708,          219P    549
10.09,48.3827817417644,0.559559811174579,10.34,48.0186969774916,     219P    550
0.570475046901708,10.09,48.0186969774916,0.559559811174579,          219P    551
10.34,47.6436969774916,0.570475046901708,10.09,47.6546122132187,     219P    552
0.559559811174579,10.34,47.6436969774916,0.195475046901712,          219P    553
10.09,47.6546122132187,0.195475046901712,10.34,                      219P    554
-1.93431316522325D-33,0.667301790108876,-3.14159265358979,           219P    555
3.14159265358979;                                                    219P    556
128,1,1,1,1,0,0,1,0,0,-0.379094853495786,-0.379094853495786,         221P    557
-0.304277900641211,-0.304277900641211,-1.06615847642729,             221P    558
-1.06615847642729,-0.991341523572712,-0.991341523572712,1.,1.,       221P    559
1.,1.,47.6446122132187,0.569559811174585,10.34,48.3927817417644,     221P    560
0.569559811174585,10.34,47.6446122132187,-0.178609717371161,         221P    561
10.34,48.3927817417644,-0.178609717371161,10.34,                     221P    562
-0.379094853495786,-0.304277900641211,-1.06615847642729,             221P    563
-0.991341523572712;                                                  221P    564
128,9,8,3,2,0,1,0,0,1,-1.01,-1.01,-1.01,-1.01,                       223P    565
-0.657947836770411,-0.657947836770411,-0.657947836770411,-0.01,      223P    566
-0.01,-0.01,0.,0.,0.,0.,0.,0.,0.,1.5707963267949,                    223P    567
1.5707963267949,3.14159265358979,3.14159265358979,                   223P    568
4.71238898038469,4.71238898038469,6.28318530717959,                  223P    569
6.28318530717959,6.28318530717959,1.,1.,1.,1.,1.,1.,1.,1.,1.,1.,     223P    570
0.707106781186548,0.707106781186548,0.707106781186548,               223P    571
0.707106781186548,0.707106781186548,0.707106781186548,               223P    572
0.707106781186548,0.707106781186548,0.707106781186548,               223P    573
0.707106781186548,1.,1.,1.,1.,1.,1.,1.,1.,1.,1.,                     223P    574
0.707106781186548,0.707106781186548,0.707106781186548,               223P    575
0.707106781186548,0.707106781186548,0.707106781186548,               223P    576
0.707106781186548,0.707106781186548,0.707106781186548,               223P    577
0.707106781186548,1.,1.,1.,1.,1.,1.,1.,1.,1.,1.,                     223P    578
0.707106781186548,0.707106781186548,0.707106781186548,               223P    579
0.707106781186548,0.707106781186548,0.707106781186548,               223P    580
0.707106781186548,0.707106781186548,0.707106781186548,               223P    581
0.707106781186548,1.,1.,1.,1.,1.,1.,1.,1.,1.,1.,                     223P    582
0.707106781186548,0.707106781186548,0.707106781186548,               223P    583
0.707106781186548,0.707106781186548,0.707106781186548,               223P    584
0.707106781186548,0.707106781186548,0.707106781186548,               223P    585
0.707106781186548,1.,1.,1.,1.,1.,1.,1.,1.,1.,1.,                     223P    586
52.8686969774916,0.195475046901714,20.0435,52.8686969774916,         223P    587
-0.858769391682636,20.0435,52.8686969774916,-1.79305685822513,       223P    588
19.9749634111749,52.8686969774916,-2.59914309936753,                 223P    589
19.8364300735175,52.8686969774916,-4.08273527902413,                 223P    590
19.5814611063275,52.8686969774916,-5.15594721639537,                 223P    591
19.1025587052886,52.8686969774916,-5.17370511442168,                 223P    592
18.0852093549282,52.8686969774916,-5.173978546418,                   223P    593
18.0695444455224,52.8686969774916,-5.17425197841432,                 223P    594
18.0538795361166,52.8686969774916,-5.17452541041063,                 223P    595
18.0382146267108,52.8686969774916,0.195475046901714,20.0435,         223P    596
53.9229414160759,-0.858769391682636,20.0435,54.8572288826184,        223P    597
-1.79305685822513,19.9749634111749,55.6633151237608,                 223P    598
-2.59914309936753,19.8364300735175,57.1469073034174,                 223P    599
-4.08273527902413,19.5814611063275,58.2201192407886,                 223P    600
-5.15594721639537,19.1025587052886,58.237877138815,                  223P    601
-5.17370511442168,18.0852093549282,58.2381505708113,                 223P    602
-5.173978546418,18.0695444455224,58.2384240028076,                   223P    603
-5.17425197841432,18.0538795361166,58.2386974348039,                 223P    604
-5.17452541041063,18.0382146267108,52.8686969774916,                 223P    605
0.195475046901714,20.0435,53.9229414160759,0.195475046901714,        223P    606
20.0435,54.8572288826184,0.195475046901714,19.9749634111749,         223P    607
55.6633151237608,0.195475046901714,19.8364300735175,                 223P    608
57.1469073034174,0.195475046901714,19.5814611063275,                 223P    609
58.2201192407886,0.195475046901714,19.1025587052886,                 223P    610
58.237877138815,0.195475046901714,18.0852093549282,                  223P    611
58.2381505708113,0.195475046901714,18.0695444455224,                 223P    612
58.2384240028076,0.195475046901714,18.0538795361166,                 223P    613
58.2386974348039,0.195475046901714,18.0382146267108,                 223P    614
52.8686969774916,0.195475046901714,20.0435,53.9229414160759,         223P    615
1.24971948548606,20.0435,54.8572288826184,2.18400695202856,          223P    616
19.9749634111749,55.6633151237608,2.99009319317096,                  223P    617
19.8364300735175,57.1469073034174,4.47368537282756,                  223P    618
19.5814611063275,58.2201192407886,5.5468973101988,                   223P    619
19.1025587052886,58.237877138815,5.56465520822511,                   223P    620
18.0852093549282,58.2381505708113,5.56492864022143,                  223P    621
18.0695444455224,58.2384240028076,5.56520207221775,                  223P    622
18.0538795361166,58.2386974348039,5.56547550421406,                  223P    623
18.0382146267108,52.8686969774916,0.195475046901714,20.0435,         223P    624
52.8686969774916,1.24971948548606,20.0435,52.8686969774916,          223P    625
2.18400695202856,19.9749634111749,52.8686969774916,                  223P    626
2.99009319317096,19.8364300735175,52.8686969774916,                  223P    627
4.47368537282756,19.5814611063275,52.8686969774916,                  223P    628
5.5468973101988,19.1025587052886,52.8686969774916,                   223P    629
5.56465520822511,18.0852093549282,52.8686969774916,                  223P    630
5.56492864022143,18.0695444455224,52.8686969774916,                  223P    631
5.56520207221775,18.0538795361166,52.8686969774916,                  223P    632
5.56547550421406,18.0382146267108,52.8686969774916,                  223P    633
0.195475046901714,20.0435,51.8144525389072,1.24971948548606,         223P    634
20.0435,50.8801650723647,2.18400695202856,19.9749634111749,          223P    635
50.0740788312223,2.99009319317096,19.8364300735175,                  223P    636
48.5904866515657,4.47368537282756,19.5814611063275,                  223P    637
47.5172747141945,5.5468973101988,19.1025587052886,                   223P    638
47.4995168161682,5.56465520822511,18.0852093549282,                  223P    639
47.4992433841718,5.56492864022143,18.0695444455224,                  223P    640
47.4989699521755,5.56520207221775,18.0538795361166,                  223P    641
47.4986965201792,5.56547550421406,18.0382146267108,                  223P    642
52.8686969774916,0.195475046901714,20.0435,51.8144525389072,         223P    643
0.195475046901714,20.0435,50.8801650723647,0.195475046901714,        223P    644
19.9749634111749,50.0740788312223,0.195475046901714,                 223P    645
19.8364300735175,48.5904866515657,0.195475046901714,                 223P    646
19.5814611063275,47.5172747141945,0.195475046901714,                 223P    647
19.1025587052886,47.4995168161682,0.195475046901714,                 223P    648
18.0852093549282,47.4992433841718,0.195475046901714,                 223P    649
18.0695444455224,47.4989699521755,0.195475046901714,                 223P    650
18.0538795361166,47.4986965201792,0.195475046901714,                 223P    651
18.0382146267108,52.8686969774916,0.195475046901714,20.0435,         223P    652
51.8144525389072,-0.858769391682636,20.0435,50.8801650723647,        223P    653
-1.79305685822513,19.9749634111749,50.0740788312223,                 223P    654
-2.59914309936753,19.8364300735175,48.5904866515657,                 223P    655
-4.08273527902413,19.5814611063275,47.5172747141945,                 223P    656
-5.15594721639537,19.1025587052886,47.4995168161682,                 223P    657
-5.17370511442168,18.0852093549282,47.4992433841718,                 223P    658
-5.173978546418,18.0695444455224,47.4989699521755,                   223P    659
-5.17425197841432,18.0538795361166,47.4986965201792,                 223P    660
-5.17452541041063,18.0382146267108,52.8686969774916,                 223P    661
0.195475046901714,20.0435,52.8686969774916,-0.858769391682636,       223P    662
20.0435,52.8686969774916,-1.79305685822513,19.9749634111749,         223P    663
52.8686969774916,-2.59914309936753,19.8364300735175,                 223P    664
52.8686969774916,-4.08273527902413,19.5814611063275,                 223P    665
52.8686969774916,-5.15594721639537,19.1025587052886,                 223P    666
52.8686969774916,-5.17370511442168,18.0852093549282,                 223P    667
52.8686969774916,-5.173978546418,18.0695444455224,                   223P    668
52.8686969774916,-5.17425197841432,18.0538795361166,                 223P    669
52.8686969774916,-5.17452541041063,18.0382146267108,-1.01,0.,0.,     223P    670
6.28318530717959;                                                    223P    671
128,1,8,1,2,0,1,0,0,1,-0.0912553986417183,-0.0912553986417183,       225P    672
0.0912553986417183,0.0912553986417183,-3.14159265358979,             225P    673
-3.14159265358979,-3.14159265358979,-1.5707963267949,                225P    674
-1.5707963267949,0.,0.,1.5707963267949,1.5707963267949,              225P    675
3.14159265358979,3.14159265358979,3.14159265358979,1.,1.,            225P    676
0.707106781186548,0.707106781186548,1.,1.,0.707106781186548,         225P    677
0.707106781186548,1.,1.,0.707106781186548,0.707106781186548,1.,      225P    678
1.,0.707106781186548,0.707106781186548,1.,1.,52.8686969774916,       225P    679
4.39555468499049,10.09,52.8686969774916,3.87810493663923,            225P    680
10.5896954135095,48.6686173394028,4.39555468499049,10.09,            225P    681
49.1860670877541,3.87810493663923,10.5896954135095,                  225P    682
48.6686173394028,0.195475046901716,10.09,49.1860670877541,           225P    683
0.195475046901716,10.5896954135095,48.6686173394028,                 225P    684
-4.00460459118705,10.09,49.1860670877541,-3.4871548428358,           225P    685
10.5896954135095,52.8686969774916,-4.00460459118706,10.09,           225P    686
52.8686969774916,-3.4871548428358,10.5896954135095,                  225P    687
57.0687766155803,-4.00460459118705,10.09,56.5513268672291,           225P    688
-3.4871548428358,10.5896954135095,57.0687766155803,                  225P    689
0.195475046901716,10.09,56.5513268672291,0.195475046901716,          225P    690
10.5896954135095,57.0687766155803,4.39555468499049,10.09,            225P    691
56.5513268672291,3.87810493663923,10.5896954135095,                  225P    692
52.8686969774916,4.39555468499049,10.09,52.8686969774916,            225P    693
3.87810493663923,10.5896954135095,-0.0912553986417183,               225P    694
0.0912553986417183,-3.14159265358979,3.14159265358979;               225P    695
128,1,8,1,2,0,1,0,0,1,-0.455533807629575,-0.455533807629575,         227P    696
-0.342629315976644,-0.342629315976644,-3.14159265358979,             227P    697
-3.14159265358979,-3.14159265358979,-1.5707963267949,                227P    698
-1.5707963267949,0.,0.,1.5707963267949,1.5707963267949,              227P    699
3.14159265358979,3.14159265358979,3.14159265358979,1.,1.,            227P    700
0.707106781186548,0.707106781186548,1.,1.,0.707106781186548,         227P    701
0.707106781186548,1.,1.,0.707106781186548,0.707106781186548,1.,      227P    702
1.,0.707106781186548,0.707106781186548,1.,1.,52.8686969774916,       227P    703
3.87810493663923,10.5896954135095,52.8686969774916,                  227P    704
3.86382131312798,10.9987248741756,49.1860670877541,                  227P    705
3.87810493663923,10.5896954135095,49.2003507112653,                  227P    706
3.86382131312798,10.9987248741756,49.1860670877541,                  227P    707
0.195475046901716,10.5896954135095,49.2003507112653,                 227P    708
0.195475046901716,10.9987248741756,49.1860670877541,                 227P    709
-3.4871548428358,10.5896954135095,49.2003507112653,                  227P    710
-3.47287121932455,10.9987248741756,52.8686969774916,                 227P    711
-3.4871548428358,10.5896954135095,52.8686969774916,                  227P    712
-3.47287121932455,10.9987248741756,56.5513268672291,                 227P    713
-3.4871548428358,10.5896954135095,56.5370432437178,                  227P    714
-3.47287121932455,10.9987248741756,56.5513268672291,                 227P    715
0.195475046901716,10.5896954135095,56.5370432437178,                 227P    716
0.195475046901716,10.9987248741756,56.5513268672291,                 227P    717
3.87810493663923,10.5896954135095,56.5370432437178,                  227P    718
3.86382131312798,10.9987248741756,52.8686969774916,                  227P    719
3.87810493663923,10.5896954135095,52.8686969774916,                  227P    720
3.86382131312798,10.9987248741756,-0.455533807629575,                227P    721
-0.342629315976644,-3.14159265358979,3.14159265358979;               227P    722
128,1,1,1,1,0,0,1,0,0,-0.551872754136996,-0.551872754136996,         229P    723
0.551872754136996,0.551872754136996,-0.651872753096593,              229P    724
-0.651872753096593,0.651872753096593,0.651872753096593,1.,1.,1.,     229P    725
1.,47.3499694361216,6.71420257786765,10.09,58.3874245188615,         229P    726
6.71420257786765,10.09,47.3499694361216,-6.32325248406421,10.09,     229P    727
58.3874245188615,-6.32325248406421,10.09,-0.551872754136996,         229P    728
0.551872754136996,-0.651872753096593,0.651872753096593;              229P    729
128,2,8,2,2,0,1,0,0,1,-1.57079632679491,-1.57079632679491,           231P    730
-1.57079632679491,-0.0349065850398863,-0.0349065850398863,           231P    731
-0.0349065850398863,-3.14159265358979,-3.14159265358979,             231P    732
-3.14159265358979,-1.5707963267949,-1.5707963267949,0.,0.,           231P    733
1.5707963267949,1.5707963267949,3.14159265358979,                    231P    734
3.14159265358979,3.14159265358979,1.,0.719339800338707,1.,           231P    735
0.707106781186548,0.508650050796877,0.707106781186548,1.,            231P    736
0.719339800338707,1.,0.707106781186548,0.508650050796877,            231P    737
0.707106781186548,1.,0.719339800338707,1.,0.707106781186548,         231P    738
0.508650050796877,0.707106781186548,1.,0.719339800338707,1.,         231P    739
0.707106781186548,0.508650050796877,0.707106781186548,1.,            231P    740
0.719339800338707,1.,56.2871955369631,0.195475046901716,11.24,       231P    741
56.5286177306648,0.195475046901716,11.24,56.5370432437178,           231P    742
0.195475046901716,10.9987248741756,56.2871955369631,                 231P    743
-3.22302351256977,11.24,56.5286177306648,-3.46444570627153,          231P    744
11.24,56.5370432437178,-3.47287121932454,10.9987248741756,           231P    745
52.8686969774916,-3.22302351256977,11.24,52.8686969774916,           231P    746
-3.46444570627154,11.24,52.8686969774916,-3.47287121932454,          231P    747
10.9987248741756,49.4501984180201,-3.22302351256977,11.24,           231P    748
49.2087762243183,-3.46444570627153,11.24,49.2003507112653,           231P    749
-3.47287121932454,10.9987248741756,49.4501984180201,                 231P    750
0.195475046901716,11.24,49.2087762243183,0.195475046901716,          231P    751
11.24,49.2003507112653,0.195475046901716,10.9987248741756,           231P    752
49.4501984180201,3.6139736063732,11.24,49.2087762243183,             231P    753
3.85539580007497,11.24,49.2003507112653,3.86382131312797,            231P    754
10.9987248741756,52.8686969774916,3.6139736063732,11.24,             231P    755
52.8686969774916,3.85539580007497,11.24,52.8686969774916,            231P    756
3.86382131312797,10.9987248741756,56.2871955369631,                  231P    757
3.6139736063732,11.24,56.5286177306648,3.85539580007497,11.24,       231P    758
56.5370432437178,3.86382131312797,10.9987248741756,                  231P    759
56.2871955369631,0.195475046901716,11.24,56.5286177306648,           231P    760
0.195475046901716,11.24,56.5370432437178,0.195475046901716,          231P    761
10.9987248741756,-1.57079632679491,-0.0349065850398863,              231P    762
-3.14159265358979,3.14159265358979;                                  231P    763
128,1,1,1,1,0,0,1,0,0,-3.46462550201368,-3.46462550201368,           233P    764
-2.77892579011938,-2.77892579011938,-2.48880494231152,               233P    765
-2.48880494231152,-1.80310523041723,-1.80310523041723,1.,1.,1.,      233P    766
1.,49.4401984180201,-3.23302351256977,11.24,49.4401984180201,        233P    767
3.6239736063732,11.24,56.297195536963,-3.23302351256977,11.24,       233P    768
56.297195536963,3.62397360637321,11.24,-3.46462550201368,            233P    769
-2.77892579011938,-2.48880494231152,-1.80310523041723;               233P    770
128,1,1,1,1,0,0,1,0,0,-0.00187275309659363,-0.00187275309659363,     235P    771
0.108424978294904,0.108424978294904,-0.0510076164706236,             235P    772
-0.0510076164706236,0.151022849308524,0.151022849308524,1.,1.,       235P    773
1.,1.,52.1097949224491,6.71420257786765,10.0800015223512,            235P    774
52.1097949224491,5.61122526395267,10.0800015223512,                  235P    775
52.145054100464,6.71420257786765,12.0999984779577,                   235P    776
52.145054100464,5.61122526395267,12.0999984779577,                   235P    777
-0.00187275309659363,0.108424978294904,-0.0510076164706236,          235P    778
0.151022849308524;                                                   235P    779
128,1,1,1,1,0,0,1,0,0,-0.0733817401110791,-0.0733817401110791,       237P    780
0.0733817401110773,0.0733817401110773,-0.64838174011095,             237P    781
-0.64838174011095,-0.54157502176503,-0.54157502176503,1.,1.,1.,      237P    782
1.,53.6025143786023,6.67929244801121,12.09,52.1348795763808,         237P    783
6.67929244801121,12.09,53.6025143786023,5.61122526455202,12.09,      237P    784
52.1348795763808,5.61122526455202,12.09,-0.0733817401110791,         237P    785
0.0733817401110773,-0.64838174011095,-0.54157502176503;              237P    786
128,1,1,1,1,0,0,1,0,0,-0.00328734617755411,-0.00328734617755411,     239P    787
0.107010385154008,0.107010385154008,-0.0510076164008883,             239P    788
-0.0510076164008883,0.151022849432402,0.151022849432402,1.,1.,       239P    789
1.,1.,53.6275990325219,5.61122526455202,10.0800015230484,            239P    790
53.6275990325219,6.71420257786764,10.0800015230484,                  239P    791
53.5923398544975,5.61122526455202,12.0999984791963,                  239P    792
53.5923398544975,6.71420257786764,12.0999984791963,                  239P    793
-0.00328734617755411,0.107010385154008,-0.0510076164008883,          239P    794
0.151022849432402;                                                   239P    795
128,1,1,1,1,0,0,1,0,0,-0.0018727530965924,-0.0018727530965924,       241P    796
0.151872753096592,0.151872753096592,-0.0510076164008883,             241P    797
-0.0510076164008883,0.151022849207893,0.151022849207893,1.,1.,       241P    798
1.,1.,53.6374245084575,6.70437710193202,10.0800015230484,            241P    799
52.0999694465256,6.70437710193202,10.0800015230484,                  241P    800
53.6374245084575,6.66911792394684,12.0999984769516,                  241P    801
52.0999694465257,6.66911792394684,12.0999984769516,                  241P    802
-0.0018727530965924,0.151872753096592,-0.0510076164008883,           241P    803
0.151022849207893;                                                   241P    804
128,1,1,1,1,0,0,1,0,0,-0.00187275309659274,-0.00187275309659274,     243P    805
0.10842497823497,0.10842497823497,-0.0510076164008883,               243P    806
-0.0510076164008883,0.15102284951822,0.15102284951822,1.,1.,1.,      243P    807
1.,53.6275990325219,-6.32325248406421,10.0800015230484,              243P    808
53.6275990325219,-5.22027517074859,10.0800015230484,                 243P    809
53.5923398544825,-6.32325248406421,12.0999984800544,                 243P    810
53.5923398544825,-5.22027517074859,12.0999984800544,                 243P    811
-0.00187275309659274,0.10842497823497,-0.0510076164008883,           243P    812
0.15102284951822;                                                    243P    813
128,1,1,1,1,0,0,1,0,0,-0.0018727530965924,-0.0018727530965924,       245P    814
0.151872753096592,0.151872753096592,-0.0510076164008883,             245P    815
-0.0510076164008883,0.151022849207894,0.151022849207894,1.,1.,       245P    816
1.,1.,52.0999694465256,-6.31342700812858,10.0800015230484,           245P    817
53.6374245084575,-6.31342700812858,10.0800015230484,                 245P    818
52.0999694465256,-6.2781678301434,12.0999984769516,                  245P    819
53.6374245084575,-6.2781678301434,12.0999984769516,                  245P    820
-0.0018727530965924,0.151872753096592,-0.0510076164008883,           245P    821
0.151022849207894;                                                   245P    822
128,1,1,1,1,0,0,1,0,0,-0.00328734623938776,-0.00328734623938776,     247P    823
0.107010385154008,0.107010385154008,-0.0510076164008883,             247P    824
-0.0510076164008883,0.151022849433713,0.151022849433713,1.,1.,       247P    825
1.,1.,52.1097949224613,-5.22027517013025,10.0800015230484,           247P    826
52.1097949224613,-6.32325248406421,10.0800015230484,                 247P    827
52.1450541004859,-5.22027517013025,12.0999984792094,                 247P    828
52.1450541004859,-6.32325248406421,12.0999984792094,                 247P    829
-0.00328734623938776,0.107010385154008,-0.0510076164008883,          247P    830
0.151022849433713;                                                   247P    831
128,1,1,1,1,0,0,1,0,0,-0.0733817401110791,-0.0733817401110791,       249P    832
0.0733817401110782,0.0733817401110782,0.541575021765031,             249P    833
0.541575021765031,0.64838174011095,0.64838174011095,1.,1.,1.,1.,     249P    834
53.6025143786024,-5.22027517074859,12.09,52.1348795763808,           249P    835
-5.22027517074859,12.09,53.6025143786023,-6.28834235420778,          249P    836
12.09,52.1348795763808,-6.28834235420778,12.09,                      249P    837
-0.0733817401110791,0.0733817401110782,0.541575021765031,            249P    838
0.64838174011095;                                                    249P    839
128,1,8,1,2,0,1,0,0,1,-1.36296172408917,-1.36296172408917,           251P    840
0.0909230318188914,0.0909230318188914,-3.14159265358979,             251P    841
-3.14159265358979,-3.14159265358979,-1.5707963267949,                251P    842
-1.5707963267949,0.,0.,1.5707963267949,1.5707963267949,              251P    843
3.14159265358979,3.14159265358979,3.14159265358979,1.,1.,            251P    844
0.707106781186548,0.707106781186548,1.,1.,0.707106781186548,         251P    845
0.707106781186548,1.,1.,0.707106781186548,0.707106781186548,1.,      251P    846
1.,0.707106781186548,0.707106781186548,1.,1.,58.3774245188735,       251P    847
0.195475046901716,10.0899999993116,58.2378686866716,                 251P    848
0.195475046901716,18.0851482715089,58.3774245188735,                 251P    849
-5.31325249448026,10.0899999993116,58.2378686866716,                 251P    850
-5.17369666227832,18.0851482715089,52.8686969774916,                 251P    851
-5.31325249448026,10.0899999993116,52.8686969774916,                 251P    852
-5.17369666227832,18.0851482715089,47.3599694361096,                 251P    853
-5.31325249448026,10.0899999993116,47.4995252683115,                 251P    854
-5.17369666227832,18.0851482715089,47.3599694361096,                 251P    855
0.195475046901716,10.0899999993116,47.4995252683115,                 251P    856
0.195475046901716,18.0851482715089,47.3599694361096,                 251P    857
5.70420258828369,10.0899999993116,47.4995252683115,                  251P    858
5.56464675608176,18.0851482715089,52.8686969774916,                  251P    859
5.70420258828369,10.0899999993116,52.8686969774916,                  251P    860
5.56464675608176,18.0851482715089,58.3774245188735,                  251P    861
5.70420258828369,10.0899999993116,58.2378686866716,                  251P    862
5.56464675608176,18.0851482715089,58.3774245188735,                  251P    863
0.195475046901716,10.0899999993116,58.2378686866716,                 251P    864
0.195475046901716,18.0851482715089,-1.36296172408917,                251P    865
0.0909230318188914,-3.14159265358979,3.14159265358979;               251P    866
502,34,48.2535971474861,-2.15910632387061,10.09,                     253P    867
48.2645123832133,-2.15910632387061,10.34,49.0453984912593,           253P    868
-3.21505827647288,10.09,49.0563137269865,-3.21505827647288,          253P    869
10.34,47.7892326788678,-0.98372623488804,10.09,47.8001479145949,     253P    870
-0.98372623488804,10.34,47.6436969774916,0.195475046901712,          253P    871
10.09,47.6546122132187,0.195475046901712,10.34,52.8686969774916,     253P    872
0.195475046901714,20.0435,52.8686969774916,-5.17370618063668,        253P    873
18.0851482715089,58.2378734458508,0.195475046901722,                 253P    874
18.0851482715089,52.8686969774916,3.87810493663923,                  253P    875
10.5896954135095,52.8686969774916,4.39555468499049,10.09,            253P    876
52.8686969774916,3.86382131312798,10.9987248741756,                  253P    877
56.5370432437178,0.195475046901716,10.9987248741756,                 253P    878
53.6274245084569,5.65170191708306,10.09,58.3774245188735,            253P    879
0.195475046901716,10.0899999993116,53.627424508457,                  253P    880
-5.26075182327963,10.09,53.6274245084575,-6.31325248406421,          253P    881
10.09,52.1099694465256,-6.31325248406421,10.09,52.1099694465262,     253P    882
-5.26075182327963,10.09,52.1099694465262,5.65170191708306,10.09,     253P    883
52.1099694465256,6.70420257786765,10.09,53.6274245084575,            253P    884
6.70420257786764,10.09,56.2871955369631,0.195475046901716,11.24,     253P    885
52.8686969774916,3.61397360637321,11.24,52.1448795763821,            253P    886
5.62122526455202,12.0899999999999,52.1448795763821,                  253P    887
6.66929244801121,12.09,53.592514378601,5.62122526455202,             253P    888
12.0899999999999,53.5925143786011,6.66929244801121,12.09,            253P    889
53.5925143786011,-5.23027517074859,12.0899999999999,                 253P    890
53.5925143786011,-6.27834235420778,12.09,52.1448795763821,           253P    891
-6.27834235420777,12.09,52.1448795763821,-5.23027517074859,          253P    892
12.0899999999999;                                                    253P    893
504,50,107,253,1,253,1,109,253,1,253,2,111,253,2,253,2,113,253,      255P    894
3,253,3,115,253,3,253,4,117,253,4,253,4,119,253,5,253,5,121,253,     255P    895
5,253,6,123,253,6,253,6,125,253,7,253,7,127,253,7,253,8,129,253,     255P    896
8,253,8,131,253,9,253,10,133,253,10,253,11,135,253,10,253,11,        255P    897
137,253,12,253,12,139,253,12,253,13,141,253,13,253,13,143,253,       255P    898
12,253,14,145,253,15,253,14,147,253,14,253,15,149,253,16,253,17,     255P    899
151,253,17,253,18,153,253,19,253,18,155,253,20,253,19,157,253,       255P    900
21,253,20,159,253,21,253,22,161,253,23,253,22,163,253,24,253,23,     255P    901
165,253,16,253,24,167,253,15,253,25,169,253,25,253,26,171,253,       255P    902
26,253,25,173,253,27,253,22,175,253,28,253,27,177,253,23,253,28,     255P    903
179,253,29,253,27,181,253,29,253,30,183,253,30,253,28,185,253,       255P    904
16,253,29,187,253,24,253,30,189,253,31,253,18,191,253,32,253,31,     255P    905
193,253,19,253,32,195,253,33,253,32,197,253,20,253,33,199,253,       255P    906
21,253,34,201,253,34,253,33,203,253,34,253,31,205,253,17,253,11;     255P    907
406,1,14HButton (1) (1);                                             257P    908
314,83.921568627451,83.921568627451,83.921568627451,11HABS (Whit     259P    909
e);                                                                  259P    910
314,62.7450980392157,62.7450980392157,62.7450980392157,13HSteel      261P    911
- Satin;                                                             261P    912
S      1G      2D    262P    912                                        T      1
