                                                                        S      1
,,11HButton_West,11HButton_West,7Hunknown,7Hunknown,32,38,7,99,15,,1.,2,G      1
2HMM,1,0.08,15H20250928.192906,0.01,10000.,7Hunknown,7Hunknown,11,0,;   G      2
     186       1                                                00000000D      1
     186            -297       1       0                               0D      2
     514       2                                                00010000D      3
     514                       3       1                               0D      4
     510       5                                                00010000D      5
     510            -297       1       1                               0D      6
     510       6                                                00010000D      7
     510            -297       1       1                               0D      8
     510       7                                                00010000D      9
     510            -297       1       1                               0D     10
     510       8                                                00010000D     11
     510            -297       1       1                               0D     12
     510       9                                                00010000D     13
     510            -297       1       1                               0D     14
     510      10                                                00010000D     15
     510            -297       1       1                               0D     16
     510      11                                                00010000D     17
     510            -297       1       1                               0D     18
     510      12                                                00010000D     19
     510            -297       1       1                               0D     20
     510      13                                                00010000D     21
     510            -297       1       1                               0D     22
     510      14                                                00010000D     23
     510            -297       1       1                               0D     24
     510      15                                                00010000D     25
     510            -297       1       1                               0D     26
     510      16                                                00010000D     27
     510            -297       1       1                               0D     28
     510      17                                                00010000D     29
     510            -297       1       1                               0D     30
     510      18                                                00010000D     31
     510            -297       1       1                               0D     32
     510      19                                                00010000D     33
     510            -297       1       1                               0D     34
     510      20                                                00010000D     35
     510            -297       1       1                               0D     36
     510      21                                                00010000D     37
     510            -297       1       1                               0D     38
     510      22                                                00010000D     39
     510            -297       1       1                               0D     40
     510      23                                                00010000D     41
     510            -297       1       1                               0D     42
     510      24                                                00010000D     43
     510            -297       1       1                               0D     44
     510      25                                                00010000D     45
     510            -297       1       1                               0D     46
     510      26                                                00010000D     47
     510            -297       1       1                               0D     48
     510      27                                                00010000D     49
     510            -297       1       1                               0D     50
     510      28                                                00010000D     51
     510            -297       1       1                               0D     52
     510      29                                                00010000D     53
     510            -297       1       1                               0D     54
     508      30                                                00010000D     55
     508                       1       1                               0D     56
     508      31                                                00010000D     57
     508                       1       1                               0D     58
     508      32                                                00010000D     59
     508                       1       1                               0D     60
     508      33                                                00010000D     61
     508                       1       1                               0D     62
     508      34                                                00010000D     63
     508                       4       1                               0D     64
     508      38                                                00010000D     65
     508                       1       1                               0D     66
     508      39                                                00010000D     67
     508                       1       1                               0D     68
     508      40                                                00010000D     69
     508                       1       1                               0D     70
     508      41                                                00010000D     71
     508                       1       1                               0D     72
     508      42                                                00010000D     73
     508                       1       1                               0D     74
     508      43                                                00010000D     75
     508                       1       1                               0D     76
     508      44                                                00010000D     77
     508                       1       1                               0D     78
     508      45                                                00010000D     79
     508                       1       1                               0D     80
     508      46                                                00010000D     81
     508                       1       1                               0D     82
     508      47                                                00010000D     83
     508                       2       1                               0D     84
     508      49                                                00010000D     85
     508                       2       1                               0D     86
     508      51                                                00010000D     87
     508                       2       1                               0D     88
     508      53                                                00010000D     89
     508                       1       1                               0D     90
     508      54                                                00010000D     91
     508                       1       1                               0D     92
     508      55                                                00010000D     93
     508                       1       1                               0D     94
     508      56                                                00010000D     95
     508                       1       1                               0D     96
     508      57                                                00010000D     97
     508                       1       1                               0D     98
     508      58                                                00010000D     99
     508                       1       1                               0D    100
     508      59                                                00010000D    101
     508                       1       1                               0D    102
     508      60                                                00010000D    103
     508                       1       1                               0D    104
     508      61                                                00010000D    105
     508                       1       1                               0D    106
     508      62                                                00010000D    107
     508                       5       1                               0D    108
     126      67                                                00010000D    109
     126       0               6       0                               0D    110
     126      73                                                00010000D    111
     126       0               4       0                               0D    112
     126      77                                                00010000D    113
     126       0               4       0                               0D    114
     126      81                                                00010000D    115
     126       0               4       0                               0D    116
     126      85                                                00010000D    117
     126       0               5       0                               0D    118
     126      90                                                00010000D    119
     126       0               3       0                               0D    120
     126      93                                                00010000D    121
     126       0               5       0                               0D    122
     126      98                                                00010000D    123
     126       0               5       0                               0D    124
     126     103                                                00010000D    125
     126       0               5       0                               0D    126
     126     108                                                00010000D    127
     126       0               3       0                               0D    128
     126     111                                                00010000D    129
     126       0               3       0                               0D    130
     126     114                                                00010000D    131
     126       0               6       0                               0D    132
     126     120                                                00010000D    133
     126       0               4       0                               0D    134
     126     124                                                00010000D    135
     126       0               4       0                               0D    136
     126     128                                                00010000D    137
     126       0               4       0                               0D    138
     126     132                                                00010000D    139
     126       0               6       0                               0D    140
     126     138                                                00010000D    141
     126       0               4       0                               0D    142
     126     142                                                00010000D    143
     126       0               3       0                               0D    144
     126     145                                                00010000D    145
     126       0               4       0                               0D    146
     126     149                                                00010000D    147
     126       0               6       0                               0D    148
     126     155                                                00010000D    149
     126       0               6       0                               0D    150
     126     161                                                00010000D    151
     126       0               4       0                               0D    152
     126     165                                                00010000D    153
     126       0               4       0                               0D    154
     126     169                                                00010000D    155
     126       0               4       0                               0D    156
     126     173                                                00010000D    157
     126       0               6       0                               0D    158
     126     179                                                00010000D    159
     126       0               8       0                               0D    160
     126     187                                                00010000D    161
     126       0              11       0                               0D    162
     126     198                                                00010000D    163
     126       0              12       0                               0D    164
     126     210                                                00010000D    165
     126       0               6       0                               0D    166
     126     216                                                00010000D    167
     126       0               4       0                               0D    168
     126     220                                                00010000D    169
     126       0               4       0                               0D    170
     126     224                                                00010000D    171
     126       0               4       0                               0D    172
     126     228                                                00010000D    173
     126       0               6       0                               0D    174
     126     234                                                00010000D    175
     126       0               5       0                               0D    176
     126     239                                                00010000D    177
     126       0               5       0                               0D    178
     126     244                                                00010000D    179
     126       0               6       0                               0D    180
     126     250                                                00010000D    181
     126       0               4       0                               0D    182
     126     254                                                00010000D    183
     126       0              13       0                               0D    184
     126     267                                                00010000D    185
     126       0              12       0                               0D    186
     126     279                                                00010000D    187
     126       0               5       0                               0D    188
     126     284                                                00010000D    189
     126       0              12       0                               0D    190
     126     296                                                00010000D    191
     126       0              15       0                               0D    192
     126     311                                                00010000D    193
     126       0               5       0                               0D    194
     126     316                                                00010000D    195
     126       0               5       0                               0D    196
     126     321                                                00010000D    197
     126       0              12       0                               0D    198
     126     333                                                00010000D    199
     126       0               7       0                               0D    200
     126     340                                                00010000D    201
     126       0               6       0                               0D    202
     126     346                                                00010000D    203
     126       0               6       0                               0D    204
     126     352                                                00010000D    205
     126       0              10       0                               0D    206
     126     362                                                00010000D    207
     126       0               7       0                               0D    208
     126     369                                                00010000D    209
     126       0               4       0                               0D    210
     126     373                                                00010000D    211
     126       0               4       0                               0D    212
     126     377                                                00010000D    213
     126       0               6       0                               0D    214
     126     383                                                00010000D    215
     126       0               4       0                               0D    216
     126     387                                                00010000D    217
     126       0               4       0                               0D    218
     126     391                                                00010000D    219
     126       0               6       0                               0D    220
     126     397                                                00010000D    221
     126       0               4       0                               0D    222
     126     401                                                00010000D    223
     126       0               6       0                               0D    224
     126     407                                                00010000D    225
     126       0               4       0                               0D    226
     126     411                                                00010000D    227
     126       0               4       0                               0D    228
     126     415                                                00010000D    229
     126       0               4       0                               0D    230
     126     419                                                00010000D    231
     126       0               4       0                               0D    232
     126     423                                                00010000D    233
     126       0               7       0                               0D    234
     126     430                                                00010000D    235
     126       0               4       0                               0D    236
     126     434                                                00010000D    237
     126       0               6       0                               0D    238
     126     440                                                00010000D    239
     126       0               5       0                               0D    240
     128     445                                                00010000D    241
     128       0    -297       8       0                               0D    242
     128     453                                                00010000D    243
     128       0    -297       9       0                               0D    244
     128     462                                                00010000D    245
     128       0    -297       8       0                               0D    246
     128     470                                                00010000D    247
     128       0    -297       8       0                               0D    248
     128     478                                                00010000D    249
     128       0    -297       7       0                               0D    250
     128     485                                                00010000D    251
     128       0    -297       7       0                               0D    252
     128     492                                                00010000D    253
     128       0    -297       9       0                               0D    254
     128     501                                                00010000D    255
     128       0    -297       9       0                               0D    256
     128     510                                                00010000D    257
     128       0    -297       9       0                               0D    258
     128     519                                                00010000D    259
     128       0    -297      23       0                               0D    260
     128     542                                                00010000D    261
     128       0    -297       8       0                               0D    262
     128     550                                                00010000D    263
     128       0    -297     106       0                               0D    264
     128     656                                                00010000D    265
     128       0    -297      24       0                               0D    266
     128     680                                                00010000D    267
     128       0    -297      27       0                               0D    268
     128     707                                                00010000D    269
     128       0    -297      34       0                               0D    270
     128     741                                                00010000D    271
     128       0    -297       7       0                               0D    272
     128     748                                                00010000D    273
     128       0    -297       9       0                               0D    274
     128     757                                                00010000D    275
     128       0    -297       7       0                               0D    276
     128     764                                                00010000D    277
     128       0    -297       9       0                               0D    278
     128     773                                                00010000D    279
     128       0    -297       9       0                               0D    280
     128     782                                                00010000D    281
     128       0    -297       9       0                               0D    282
     128     791                                                00010000D    283
     128       0    -297       9       0                               0D    284
     128     800                                                00010000D    285
     128       0    -297       9       0                               0D    286
     128     809                                                00010000D    287
     128       0    -297       8       0                               0D    288
     128     817                                                00010000D    289
     128       0    -297      27       0                               0D    290
     502     844                                                00010000D    291
     502                      34       1                               0D    292
     504     878                                                00010001D    293
     504                      19       1                               0D    294
     406     897                                                00000000D    295
     406                       1      15                               0D    296
     314     898                                                00000200D    297
     314                       2       0                               0D    298
     314     900                                                00000200D    299
     314                       2       0                               0D    300
186,3,1,0,0,1,295;                                                     1P      1
514,25,5,1,7,1,9,1,11,1,13,1,15,1,17,1,19,1,21,1,23,1,25,1,27,1,       3P      2
29,1,31,1,33,1,35,1,37,1,39,1,41,1,43,1,45,1,47,1,49,1,51,1,53,        3P      3
1;                                                                     3P      4
510,241,1,1,55;                                                        5P      5
510,243,1,1,57;                                                        7P      6
510,245,1,1,59;                                                        9P      7
510,247,1,1,61;                                                       11P      8
510,249,3,1,63,65,67;                                                 13P      9
510,251,1,1,69;                                                       15P     10
510,253,1,1,71;                                                       17P     11
510,255,1,1,73;                                                       19P     12
510,257,1,1,75;                                                       21P     13
510,259,1,1,77;                                                       23P     14
510,261,1,1,79;                                                       25P     15
510,263,1,1,81;                                                       27P     16
510,265,1,1,83;                                                       29P     17
510,267,1,1,85;                                                       31P     18
510,269,1,1,87;                                                       33P     19
510,271,1,1,89;                                                       35P     20
510,273,1,1,91;                                                       37P     21
510,275,1,1,93;                                                       39P     22
510,277,1,1,95;                                                       41P     23
510,279,1,1,97;                                                       43P     24
510,281,1,1,99;                                                       45P     25
510,283,1,1,101;                                                      47P     26
510,285,1,1,103;                                                      49P     27
510,287,1,1,105;                                                      51P     28
510,289,1,1,107;                                                      53P     29
508,4,0,293,1,0,0,0,293,2,1,0,0,293,3,1,0,0,293,4,1,0;                55P     30
508,4,0,293,5,0,0,0,293,6,0,0,0,293,7,1,0,0,293,2,0,0;                57P     31
508,4,0,293,8,0,0,0,293,4,0,0,0,293,9,0,0,0,293,10,1,0;               59P     32
508,4,0,293,11,1,0,0,293,9,1,0,0,293,3,0,0,0,293,7,0,0;               61P     33
508,17,0,293,12,1,0,0,293,13,0,0,0,293,14,0,0,0,293,15,0,0,0,         63P     34
293,16,1,0,0,293,17,1,0,0,293,18,1,0,0,293,19,0,0,0,293,20,1,0,       63P     35
0,293,21,1,0,0,293,22,0,0,0,293,23,0,0,0,293,24,0,0,0,293,25,1,       63P     36
0,0,293,10,0,0,0,293,11,0,0,0,293,6,1,0;                              63P     37
508,2,0,293,26,0,0,0,293,27,0,0;                                      65P     38
508,1,0,293,28,1,0;                                                   67P     39
508,4,0,293,29,0,0,0,293,30,1,0,0,293,31,1,0,0,293,32,1,0;            69P     40
508,4,0,293,33,0,0,0,293,19,1,0,0,293,34,1,0,0,293,30,0,0;            71P     41
508,4,0,293,18,0,0,0,293,35,1,0,0,293,31,0,0,0,293,34,0,0;            73P     42
508,4,0,293,36,0,0,0,293,32,0,0,0,293,35,0,0,0,293,17,0,0;            75P     43
508,4,0,293,28,0,0,0,293,37,1,0,0,293,38,0,0,0,293,37,0,0;            77P     44
508,1,0,293,38,1,0;                                                   79P     45
508,4,0,293,39,1,0,0,293,40,1,0,0,293,41,1,0,0,293,39,0,0;            81P     46
508,5,0,293,42,1,0,0,293,43,1,0,0,293,27,1,0,0,293,26,1,0,0,293,      83P     47
43,0,0;                                                               83P     48
508,5,0,293,42,0,0,0,293,44,1,0,0,293,45,0,0,0,293,46,0,0,0,293,      85P     49
44,0,0;                                                               85P     50
508,6,0,293,46,1,0,0,293,47,1,0,0,293,48,1,0,0,293,49,1,0,0,293,      87P     51
47,0,0,0,293,45,1,0;                                                  87P     52
508,2,0,293,49,0,0,0,293,48,0,0;                                      89P     53
508,4,0,293,50,0,0,0,293,51,0,0,0,293,52,0,0,0,293,13,1,0;            91P     54
508,4,0,293,53,0,0,0,293,54,1,0,0,293,55,1,0,0,293,51,1,0;            93P     55
508,4,0,293,56,0,0,0,293,15,1,0,0,293,57,1,0,0,293,54,0,0;            95P     56
508,4,0,293,14,1,0,0,293,52,1,0,0,293,55,0,0,0,293,57,0,0;            97P     57
508,4,0,293,58,0,0,0,293,59,0,0,0,293,60,0,0,0,293,22,1,0;            99P     58
508,4,0,293,23,1,0,0,293,60,1,0,0,293,61,0,0,0,293,62,0,0;           101P     59
508,4,0,293,63,0,0,0,293,24,1,0,0,293,62,1,0,0,293,64,0,0;           103P     60
508,4,0,293,65,0,0,0,293,64,1,0,0,293,61,1,0,0,293,59,1,0;           105P     61
508,21,0,293,8,1,0,0,293,25,0,0,0,293,63,1,0,0,293,65,1,0,0,293,     107P     62
58,1,0,0,293,21,0,0,0,293,66,1,0,0,293,40,0,0,0,293,41,0,0,0,        107P     63
293,66,0,0,0,293,20,0,0,0,293,33,1,0,0,293,29,1,0,0,293,36,1,0,      107P     64
0,293,16,0,0,0,293,56,1,0,0,293,53,1,0,0,293,50,1,0,0,293,12,0,      107P     65
0,0,293,5,1,0,0,293,1,1,0;                                           107P     66
126,2,2,0,0,0,0,-0.177236664594862,-0.177236664594862,               109P     67
-0.177236664594862,0.177236664594862,0.177236664594862,              109P     68
0.177236664594862,1.,0.984334654593409,1.,47.4806288064221,          109P     69
1.16056490722388,12.09,47.3077656560452,0.195475046901716,12.09,     109P     70
47.4806288064221,-0.769614813420446,12.09,-0.177236664594862,        109P     71
0.177236664594862,0.,0.,0.;                                          109P     72
126,1,1,0,0,1,0,0.930349432486249,0.930349432486249,                 111P     73
1.08805160141152,1.08805160141152,1.,1.,47.4806288064221,            111P     74
1.16056490722388,12.09,45.9036071171694,1.16056490722388,12.09,      111P     75
0.930349432486249,1.08805160141152,0.,0.,0.;                         111P     76
126,1,1,0,0,1,0,-0.046508986032216,-0.046508986032216,               113P     77
0.146508986032216,0.146508986032216,1.,1.,45.9036071171694,          113P     78
1.16056490722388,12.09,45.9036071171694,-0.769614813420445,          113P     79
12.09,-0.046508986032216,0.146508986032216,0.,0.,0.;                 113P     80
126,1,1,0,0,1,0,-0.942016481760366,-0.942016481760366,               115P     81
-0.784314312835097,-0.784314312835097,1.,1.,45.9036071171694,        115P     82
-0.769614813420445,12.09,47.4806288064221,-0.769614813420445,        115P     83
12.09,-0.942016481760366,-0.784314312835097,0.,0.,0.;                115P     84
126,2,2,0,0,0,0,0.,0.,0.,0.200051681044331,0.200051681044331,        117P     85
0.200051681044331,1.,1.00000000049416,1.,47.4514948264966,           117P     86
1.19547503708629,10.0899999996573,47.4660618164363,                  117P     87
1.17797290852805,11.0926962732159,47.4806288064221,                  117P     88
1.16056490722388,12.09,0.,0.200051681044331,0.,0.,0.;                117P     89
126,1,1,0,0,1,0,0.,0.,0.158279784901,0.158279784901,1.,1.,           119P     90
45.8686969774916,1.19547504690172,10.09,47.4514948265016,            119P     91
1.19547504690172,10.09,0.,0.158279784901,0.,0.,0.;                   119P     92
126,1,1,0,0,1,0,-0.00254827621513131,-0.00254827621513131,           121P     93
0.197512650397355,0.197512650397355,1.,1.,45.868696987307,           121P     94
1.19547503708629,10.0899999996573,45.9036071171694,                  121P     95
1.16056490722388,12.09,-0.00254827621513131,0.197512650397355,       121P     96
0.,0.,0.;                                                            121P     97
126,2,2,0,0,0,0,0.,0.,0.,0.200051681044331,0.200051681044331,        123P     98
0.200051681044331,1.,1.00000000049416,1.,47.4806288064221,           123P     99
-0.769614813420445,12.09,47.4660618164363,-0.787022814724615,        123P    100
11.0926962732159,47.4514948264966,-0.804524943282861,                123P    101
10.0899999996573,0.,0.200051681044331,0.,0.,0.;                      123P    102
126,1,1,0,0,1,0,-0.0017449749246366,-0.0017449749246366,             125P    103
0.19831595168785,0.19831595168785,1.,1.,45.868696987307,             125P    104
-0.804524943282861,10.0899999996573,45.9036071171694,                125P    105
-0.769614813420445,12.09,-0.0017449749246366,0.19831595168785,       125P    106
0.,0.,0.;                                                            125P    107
126,1,1,0,0,1,0,0.,0.,0.158279784901,0.158279784901,1.,1.,           127P    108
45.8686969774916,-0.804524953098284,10.09,47.4514948265016,          127P    109
-0.804524953098284,10.09,0.,0.158279784901,0.,0.,0.;                 127P    110
126,1,1,0,0,1,0,-0.1,-0.1,0.1,0.1,1.,1.,45.8686969774916,            129P    111
1.19547504690172,10.09,45.8686969774916,-0.804524953098284,          129P    112
10.09,-0.1,0.1,0.,0.,0.;                                             129P    113
126,2,2,0,0,0,0,0.182542203776013,0.182542203776013,                 131P    114
0.182542203776013,1.43262519912203,1.43262519912203,                 131P    115
1.43262519912203,1.,0.81093883863165,1.,47.4514948265016,            131P    116
1.19547503708031,10.09,48.1730423611585,5.1042439322549,10.09,       131P    117
52.1099694465272,5.65170191707534,10.09,0.182542203776013,           131P    118
1.43262519912203,0.,0.,0.;                                           131P    119
126,1,1,0,0,1,0,-0.325872753096593,-0.325872753096593,               133P    120
-0.220622687018134,-0.220622687018134,1.,1.,52.1099694465256,        133P    121
6.70420257786765,10.09,52.1099694465256,5.65170191708306,10.09,      133P    122
-0.325872753096593,-0.220622687018134,0.,0.,0.;                      133P    123
126,1,1,0,0,1,0,-0.038372753096592,-0.038372753096592,               135P    124
0.113372753096592,0.113372753096592,1.,1.,53.6274245084575,          135P    125
6.70420257786764,10.09,52.1099694465256,6.70420257786764,10.09,      135P    126
-0.038372753096592,0.113372753096592,0.,0.,0.;                       135P    127
126,1,1,0,0,1,0,0.273191503046842,0.273191503046842,                 137P    128
0.3784415691253,0.3784415691253,1.,1.,53.6274245084575,              137P    129
5.65170191708306,10.09,53.6274245084575,6.70420257786764,10.09,      137P    130
0.273191503046842,0.3784415691253,0.,0.,0.;                          137P    131
126,2,2,0,0,0,0,1.70896745446776,1.70896745446776,                   139P    132
1.70896745446776,2.69725126607096,2.69725126607096,                  139P    133
2.69725126607096,1.,0.880376007718451,1.,53.6274245084559,           139P    134
5.65170191707534,10.09,56.5668043962573,5.24296003410324,10.09,      139P    135
57.8424938820064,2.56347493661592,10.09,1.70896745446776,            139P    136
2.69725126607096,0.,0.,0.;                                           139P    137
126,1,1,0,0,1,0,0.541720205703831,0.541720205703831,                 141P    138
0.700000000000001,0.700000000000001,1.,1.,57.8424938777132,          141P    139
2.56347494563343,10.09,59.3713592886171,2.97313319782101,10.09,      141P    140
0.541720205703831,0.700000000000001,0.,0.,0.;                        141P    141
126,1,1,0,0,1,0,0.,0.,0.199999999999999,0.199999999999999,1.,1.,     143P    142
59.3713592886171,2.973133197821,10.09,59.8889973788222,              143P    143
1.04128154524287,10.09,0.,0.199999999999999,0.,0.,0.;                143P    144
126,1,1,0,0,1,0,0.541720164892565,0.541720164892565,                 145P    145
0.699999999999999,0.699999999999999,1.,1.,58.3601315737117,          145P    146
0.631623187427966,10.09,59.8889973788222,1.04128154524287,10.09,     145P    147
0.541720164892565,0.699999999999999,0.,0.,0.;                        145P    148
126,2,2,0,0,0,0,3.06233567362299,3.06233567362299,                   147P    149
3.06233567362299,3.14159265358979,3.14159265358979,                  147P    150
3.14159265358979,1.,0.999214894144764,1.,58.360131572921,            147P    151
0.631623197383957,10.09,58.3774245188615,0.413891948289173,          147P    152
10.09,58.3774245188615,0.195475046901717,10.09,3.06233567362299,     147P    153
3.14159265358979,0.,0.,0.;                                           147P    154
126,2,2,0,0,0,0,3.14159265358979,3.14159265358979,                   149P    155
3.14159265358979,4.57421785271182,4.57421785271182,                  149P    156
4.57421785271182,1.,0.754232027843692,1.,58.3774245188615,           149P    157
0.195475046901717,10.09,58.3774245188615,-4.60023020902663,          149P    158
10.09,53.6274245084559,-5.26075182327191,10.09,3.14159265358979,     149P    159
4.57421785271182,0.,0.,0.;                                           149P    160
126,1,1,0,0,1,0,-0.325872753096593,-0.325872753096593,               151P    161
-0.220622687018134,-0.220622687018134,1.,1.,53.6274245084575,        151P    162
-6.31325248406421,10.09,53.6274245084575,-5.26075182327963,          151P    163
10.09,-0.325872753096593,-0.220622687018134,0.,0.,0.;                151P    164
126,1,1,0,0,1,0,-0.038372753096592,-0.038372753096592,               153P    165
0.113372753096592,0.113372753096592,1.,1.,52.1099694465256,          153P    166
-6.31325248406421,10.09,53.6274245084575,-6.31325248406421,          153P    167
10.09,-0.038372753096592,0.113372753096592,0.,0.,0.;                 153P    168
126,1,1,0,0,1,0,0.273191503046842,0.273191503046842,                 155P    169
0.3784415691253,0.3784415691253,1.,1.,52.1099694465256,              155P    170
-5.26075182327963,10.09,52.1099694465256,-6.31325248406421,          155P    171
10.09,0.273191503046842,0.3784415691253,0.,0.,0.;                    155P    172
126,2,2,0,0,0,0,-1.43262519912203,-1.43262519912203,                 157P    173
-1.43262519912203,-0.182542203776013,-0.182542203776013,             157P    174
-0.182542203776013,1.,0.81093883863165,1.,52.1099694465272,          157P    175
-5.26075182327191,10.09,48.1730423611585,-4.71329383845147,          157P    176
10.09,47.4514948265016,-0.804524943276879,10.09,                     157P    177
-1.43262519912203,-0.182542203776013,0.,0.,0.;                       157P    178
126,4,2,0,0,0,0,-11.2359738561165,-11.2359738561165,                 159P    179
-11.2359738561165,-10.330375908443,-10.330375908443,                 159P    180
-9.42477796076938,-9.42477796076938,-9.42477796076938,1.,            159P    181
0.899226119628847,1.,0.899226119628839,1.,48.7893993705146,          159P    182
-0.80452495309828,10.09,48.3028875295689,1.18010163543739,10.09,     159P    183
49.5640980151077,2.78782816021394,10.09,50.8253085006465,            159P    184
4.39555468499049,10.09,52.8686969774916,4.39555468499049,10.09,      159P    185
-11.2359738561165,-9.42477796076938,0.,0.,0.;                        159P    186
126,6,2,0,0,0,0,-9.42477796076938,-9.42477796076938,                 161P    187
-9.42477796076938,-7.9341148234919,-7.9341148234919,                 161P    188
-6.44345168621442,-6.44345168621442,-4.95278854893694,               161P    189
-4.95278854893694,-4.95278854893694,1.,0.734863067788201,1.,         161P    190
0.734863067788202,1.,0.734863067788202,1.,52.8686969774916,          161P    191
4.39555468499049,10.09,56.7450098020457,4.39555468499049,10.09,      161P    192
57.0552987854054,0.531680740280553,10.09,57.3655877687652,           161P    193
-3.33219320442938,10.09,53.5389506321919,-3.95077976975496,          161P    194
10.09,49.7123134956187,-4.56936633508054,10.09,48.7893993705146,     161P    195
-0.804524953098281,10.09,-9.42477796076938,-4.95278854893694,0.,     161P    196
0.,0.;                                                               161P    197
126,8,2,0,1,0,0,-3.14159265358979,-3.14159265358979,                 163P    198
-3.14159265358979,-1.5707963267949,-1.5707963267949,0.,0.,           163P    199
1.5707963267949,1.5707963267949,3.14159265358979,                    163P    200
3.14159265358979,3.14159265358979,1.,0.707106781186528,1.,           163P    201
0.707106781186529,1.,0.707106781186529,1.,0.707106781186529,1.,      163P    202
47.6436969774916,0.195475046901716,10.09,47.6436969774916,           163P    203
-0.17952495309828,10.09,48.0186969774916,-0.17952495309828,          163P    204
10.09,48.3936969774916,-0.17952495309828,10.09,48.3936969774916,     163P    205
0.195475046901716,10.09,48.3936969774916,0.570475046901713,          163P    206
10.09,48.0186969774916,0.570475046901713,10.09,47.6436969774916,     163P    207
0.570475046901713,10.09,47.6436969774916,0.195475046901716,          163P    208
10.09,-3.14159265358979,3.14159265358979,0.,0.,0.;                   163P    209
126,2,2,0,0,0,0,-3.0570301355452,-3.0570301355452,                   165P    210
-3.0570301355452,-2.70255680635547,-2.70255680635547,                165P    211
-2.70255680635547,1.,0.984334654593439,1.,58.3229549086716,          165P    212
0.657803366116458,12.09,58.2401444543775,1.6347488793947,12.09,      165P    213
57.8233880190001,2.52221391015728,12.09,-3.0570301355452,            165P    214
-2.70255680635547,0.,0.,0.;                                          165P    215
126,1,1,0,0,1,0,-0.112607722840164,-0.112607722840164,               167P    216
0.0450944955043612,0.0450944955043612,1.,1.,58.3229549086716,        167P    217
0.657803366116453,12.09,59.8462413642922,1.06596674174124,12.09,     167P    218
-0.112607722840164,0.0450944955043612,0.,0.,0.;                      167P    219
126,1,1,0,0,1,0,-0.493958596211223,-0.493958596211223,               169P    220
-0.30094062414679,-0.30094062414679,1.,1.,59.8462413642922,          169P    221
1.06596674174124,12.09,59.3466740921188,2.93037718329102,12.09,      169P    222
-0.493958596211223,-0.30094062414679,0.,0.,0.;                       169P    223
126,1,1,0,0,1,0,0.10094062414679,0.10094062414679,                   171P    224
0.258642802891809,0.258642802891809,1.,1.,59.3466740921188,          171P    225
2.93037718329101,12.09,57.8233880190001,2.52221391015728,12.09,      171P    226
0.10094062414679,0.258642802891809,0.,0.,0.;                         171P    227
126,2,2,0,0,0,0,11.2151067644091,11.2151067644091,                   173P    228
11.2151067644091,11.3737189976557,11.3737189976557,                  173P    229
11.3737189976557,1.,1.,1.,58.360131572921,0.631623197383968,         173P    230
10.09,58.3415310598283,0.644758741741988,11.0926962745102,           173P    231
58.3229549086717,0.657803366116468,12.09,11.2151067644091,           173P    232
11.3737189976557,0.,0.,0.;                                           173P    233
126,1,1,0,0,1,0,-0.0025482762151313,-0.0025482762151313,             175P    234
0.197512650397355,0.197512650397355,1.,1.,59.8889973668008,          175P    235
1.04128155218342,10.0899999996573,59.8462413642922,                  175P    236
1.06596674174124,12.09,-0.0025482762151313,0.197512650397355,0.,     175P    237
0.,0.;                                                               175P    238
126,1,1,0,0,1,0,-0.00174497492463657,-0.00174497492463657,           177P    239
0.19831595168785,0.19831595168785,1.,1.,59.3713592816766,            177P    240
2.97313318579962,10.0899999996573,59.3466740921188,                  177P    241
2.93037718329102,12.09,-0.00174497492463657,0.19831595168785,0.,     177P    242
0.,0.;                                                               177P    243
126,2,2,0,0,0,0,23.4048326698075,23.4048326698075,                   179P    244
23.4048326698075,23.563444833124,23.563444833124,                    179P    245
23.563444833124,1.,1.,1.,57.8233880190002,2.52221391015731,          179P    246
12.09,57.8329531314756,2.54279896337933,11.0926962754311,            179P    247
57.8424938820065,2.56347493661594,10.09,23.4048326698075,            179P    248
23.563444833124,0.,0.,0.;                                            179P    249
126,1,1,0,0,1,0,-1.99149075708868D-18,-1.99149075708868D-18,         181P    250
0.667301790108884,0.667301790108884,1.,1.,47.6436969774916,          181P    251
0.195475046901716,10.09,47.6546122132187,0.195475046901716,          181P    252
10.34,-1.99149075708868D-18,0.667301790108884,0.,0.,0.;              181P    253
126,8,2,0,1,0,0,-3.14159265358979,-3.14159265358979,                 183P    254
-3.14159265358979,-1.5707963267949,-1.5707963267949,0.,0.,           183P    255
1.5707963267949,1.5707963267949,3.14159265358979,                    183P    256
3.14159265358979,3.14159265358979,1.,0.707106781186568,1.,           183P    257
0.707106781186568,1.,0.707106781186568,1.,0.707106781186568,1.,      183P    258
47.6546122132187,0.195475046901716,10.34,47.6546122132187,           183P    259
0.559559811174585,10.34,48.0186969774916,0.559559811174585,          183P    260
10.34,48.3827817417644,0.559559811174585,10.34,48.3827817417644,     183P    261
0.195475046901716,10.34,48.3827817417644,-0.168609717371152,         183P    262
10.34,48.0186969774916,-0.168609717371152,10.34,                     183P    263
47.6546122132187,-0.168609717371152,10.34,47.6546122132187,          183P    264
0.195475046901716,10.34,-3.14159265358979,3.14159265358979,0.,       183P    265
0.,0.;                                                               183P    266
126,9,5,0,0,0,0,0.,0.,0.,0.,0.,0.,0.2,0.4,0.6,0.8,1.,1.,1.,1.,       185P    267
1.,1.,1.,1.,1.,1.,1.,1.,1.,1.,1.,1.,52.8686969774916,                185P    268
0.195475046901716,20.24,52.8686969774916,-0.163820689472889,         185P    269
20.24,52.8686969774916,-0.858630340926752,20.2265200956562,          185P    270
52.8686969774916,-1.82954598661432,20.1658880152439,                 185P    271
52.8686969774916,-2.98598486241956,20.0076761495718,                 185P    272
52.8686969774916,-4.17081852653932,19.66962634646,                   185P    273
52.8686969774916,-4.83265439954062,19.2502596090627,                 185P    274
52.8686969774916,-5.10254091112797,18.819477787234,                  185P    275
52.8686969774916,-5.16692446353279,18.4731271843786,                 185P    276
52.8686969774916,-5.17020564748858,18.2851482715089,0.,1.,0.,0.,     185P    277
0.;                                                                  185P    278
126,2,2,0,0,0,0,0.,0.,0.,1.5707963267949,1.5707963267949,            187P    279
1.5707963267949,1.,0.707106781186547,1.,52.8686969774916,            187P    280
-5.17020564748858,18.2851482715089,58.2343776718819,                 187P    281
-5.17020564748858,18.2851482715089,58.2343776718819,                 187P    282
0.195475046901716,18.2851482715089,0.,1.5707963267949,0.,0.,0.;      187P    283
126,6,2,0,0,0,0,1.5707963267949,1.5707963267949,1.5707963267949,     189P    284
3.14159265358979,3.14159265358979,4.71238898038469,                  189P    285
4.71238898038469,6.28318530717959,6.28318530717959,                  189P    286
6.28318530717959,1.,0.707106781186547,1.,0.707106781186547,1.,       189P    287
0.707106781186547,1.,58.2343776718819,0.195475046901716,             189P    288
18.2851482715089,58.2343776718819,5.56115574129201,                  189P    289
18.2851482715089,52.8686969774916,5.56115574129201,                  189P    290
18.2851482715089,47.5030162831013,5.56115574129201,                  189P    291
18.2851482715089,47.5030162831013,0.195475046901717,                 189P    292
18.2851482715089,47.5030162831013,-5.17020564748858,                 189P    293
18.2851482715089,52.8686969774916,-5.17020564748858,                 189P    294
18.2851482715089,1.5707963267949,6.28318530717959,0.,0.,0.;          189P    295
126,8,2,0,1,0,0,-3.14159265358979,-3.14159265358979,                 191P    296
-3.14159265358979,-1.5707963267949,-1.5707963267949,0.,0.,           191P    297
1.5707963267949,1.5707963267949,3.14159265358979,                    191P    298
3.14159265358979,3.14159265358979,1.,0.707106781186551,1.,           191P    299
0.707106781186551,1.,0.707106781186551,1.,0.707106781186551,1.,      191P    300
52.8686969774916,3.87810493663923,10.5896954135095,                  191P    301
49.1860670877541,3.87810493663923,10.5896954135095,                  191P    302
49.1860670877541,0.195475046901716,10.5896954135095,                 191P    303
49.1860670877541,-3.4871548428358,10.5896954135095,                  191P    304
52.8686969774916,-3.4871548428358,10.5896954135095,                  191P    305
56.5513268672291,-3.4871548428358,10.5896954135095,                  191P    306
56.5513268672291,0.195475046901716,10.5896954135095,                 191P    307
56.5513268672291,3.87810493663923,10.5896954135095,                  191P    308
52.8686969774916,3.87810493663923,10.5896954135095,                  191P    309
-3.14159265358979,3.14159265358979,0.,0.,0.;                         191P    310
126,1,1,0,0,1,0,-0.0912553986417183,-0.0912553986417183,             193P    311
0.0912553986417183,0.0912553986417183,1.,1.,52.8686969774916,        193P    312
3.87810493663923,10.5896954135095,52.8686969774916,                  193P    313
4.39555468499049,10.09,-0.0912553986417183,0.0912553986417183,       193P    314
0.,0.,0.;                                                            193P    315
126,1,1,0,0,1,0,-0.455533807629575,-0.455533807629575,               195P    316
-0.342629315976644,-0.342629315976644,1.,1.,52.8686969774916,        195P    317
3.87810493663923,10.5896954135095,52.8686969774916,                  195P    318
3.86382131312798,10.9987248741756,-0.455533807629575,                195P    319
-0.342629315976644,0.,0.,0.;                                         195P    320
126,6,2,0,0,0,0,-1.5707963267949,-1.5707963267949,                   197P    321
-1.5707963267949,0.,0.,1.5707963267949,1.5707963267949,              197P    322
3.14159265358979,3.14159265358979,3.14159265358979,1.,               197P    323
0.707106781186548,1.,0.707106781186548,1.,0.707106781186548,1.,      197P    324
56.5370432437178,0.195475046901716,10.9987248741756,                 197P    325
56.5370432437178,-3.47287121932455,10.9987248741756,                 197P    326
52.8686969774916,-3.47287121932455,10.9987248741756,                 197P    327
49.2003507112653,-3.47287121932455,10.9987248741756,                 197P    328
49.2003507112653,0.195475046901716,10.9987248741756,                 197P    329
49.2003507112653,3.86382131312798,10.9987248741756,                  197P    330
52.8686969774916,3.86382131312798,10.9987248741756,                  197P    331
-1.5707963267949,3.14159265358979,0.,0.,0.;                          197P    332
126,2,2,0,0,0,0,-3.14159265358979,-3.14159265358979,                 199P    333
-3.14159265358979,-1.5707963267949,-1.5707963267949,                 199P    334
-1.5707963267949,1.,0.707106781186548,1.,52.8686969774916,           199P    335
3.86382131312798,10.9987248741756,56.5370432437178,                  199P    336
3.86382131312798,10.9987248741756,56.5370432437178,                  199P    337
0.195475046901716,10.9987248741756,-3.14159265358979,                199P    338
-1.5707963267949,0.,0.,0.;                                           199P    339
126,2,2,0,0,0,0,0.0349065850398863,0.0349065850398863,               201P    340
0.0349065850398863,1.57079632679491,1.57079632679491,                201P    341
1.57079632679491,1.,0.719339800338707,1.,56.5370432437178,           201P    342
0.195475046901716,10.9987248741756,56.5286177306648,                 201P    343
0.195475046901716,11.24,56.2871955369631,0.195475046901716,          201P    344
11.24,0.0349065850398863,1.57079632679491,0.,0.,0.;                  201P    345
126,2,2,0,0,0,0,1.5707963267949,1.5707963267949,1.5707963267949,     203P    346
3.14159265358979,3.14159265358979,3.14159265358979,1.,               203P    347
0.707106781186546,1.,56.2871955369631,0.195475046901716,11.24,       203P    348
56.2871955369631,3.61397360637321,11.24,52.8686969774916,            203P    349
3.61397360637321,11.24,1.5707963267949,3.14159265358979,0.,0.,       203P    350
0.;                                                                  203P    351
126,6,2,0,0,0,0,-3.14159265358979,-3.14159265358979,                 205P    352
-3.14159265358979,-1.5707963267949,-1.5707963267949,0.,0.,           205P    353
1.5707963267949,1.5707963267949,1.5707963267949,1.,                  205P    354
0.707106781186546,1.,0.707106781186547,1.,0.707106781186547,1.,      205P    355
52.8686969774916,3.61397360637321,11.24,49.4501984180201,            205P    356
3.61397360637321,11.24,49.4501984180201,0.195475046901716,11.24,     205P    357
49.4501984180201,-3.22302351256977,11.24,52.8686969774916,           205P    358
-3.22302351256977,11.24,56.2871955369631,-3.22302351256977,          205P    359
11.24,56.2871955369631,0.195475046901716,11.24,                      205P    360
-3.14159265358979,1.5707963267949,0.,0.,0.;                          205P    361
126,2,2,0,0,0,0,-9598.68825766155,-9598.68825766155,                 207P    362
-9598.68825766155,-9596.31894375779,-9596.31894375779,               207P    363
-9596.31894375779,1.00000000022782,1.00000000022781,                 207P    364
1.00000000022781,52.1448795764947,5.62122526395267,                  207P    365
12.0900000010045,52.1274733971489,5.63646359022086,                  207P    366
11.092800654142,52.1099694466084,5.65170191648905,                   207P    367
10.0899999993011,-9598.68825766155,-9596.31894375779,0.,0.,0.;       207P    368
126,1,1,0,0,1,0,-0.32238174011095,-0.32238174011095,                 209P    369
-0.217575021765031,-0.217575021765031,1.,1.,52.1448795763821,        209P    370
6.66929244801121,12.09,52.1448795763821,5.62122526455202,12.09,      209P    371
-0.32238174011095,-0.217575021765031,0.,0.,0.;                       209P    372
126,1,1,0,0,1,0,-0.0513239628276823,-0.0513239628276823,             211P    373
0.148736963750528,0.148736963750528,1.,1.,52.1099694465256,          211P    374
6.70420257786765,10.09,52.1448795763821,6.66929244801121,12.09,      211P    375
-0.0513239628276823,0.148736963750528,0.,0.,0.;                      211P    376
126,2,2,0,0,0,0,-1.70341740286727,-1.70341740286727,                 213P    377
-1.70341740286727,-1.43817525072252,-1.43817525072252,               213P    378
-1.43817525072252,1.,0.99121870712158,1.,53.5925143786023,           213P    379
5.62122526456174,12.09,52.8686969774916,5.71778548372655,12.09,      213P    380
52.1448795763808,5.62122526456174,12.09,-1.70341740286727,           213P    381
-1.43817525072252,0.,0.,0.;                                          213P    382
126,1,1,0,0,1,0,0.270143837793738,0.270143837793738,                 215P    383
0.374950556139657,0.374950556139657,1.,1.,53.5925143786011,          215P    384
5.62122526455202,12.09,53.5925143786011,6.66929244801121,12.09,      215P    385
0.270143837793738,0.374950556139657,0.,0.,0.;                        215P    386
126,1,1,0,0,1,0,-0.0348817401109489,-0.0348817401109489,             217P    387
0.109881740110949,0.109881740110949,1.,1.,53.5925143786011,          217P    388
6.66929244801121,12.09,52.1448795763821,6.66929244801121,12.09,      217P    389
-0.0348817401109489,0.109881740110949,0.,0.,0.;                      217P    390
126,2,2,0,0,0,0,-10444.6742054523,-10444.6742054523,                 219P    391
-10444.6742054523,-10442.3048915786,-10442.3048915786,               219P    392
-10442.3048915786,1.,1.,1.,53.6274245083245,5.6517019834971,         219P    393
10.0900000012308,53.6099205577913,5.63646365741952,                  219P    394
11.0928006556603,53.5925143784502,5.62122533134194,                  219P    395
12.0900000022428,-10444.6742054523,-10442.3048915786,0.,0.,0.;       219P    396
126,1,1,0,0,1,0,-0.0509325442940063,-0.0509325442940063,             221P    397
0.149128382284204,0.149128382284204,1.,1.,53.6274245084575,          221P    398
6.70420257786764,10.09,53.5925143786011,6.66929244801121,12.09,      221P    399
-0.0509325442940063,0.149128382284204,0.,0.,0.;                      221P    400
126,2,2,0,0,0,0,-9598.68825293987,-9598.68825293987,                 223P    401
-9598.68825293987,-9596.31893906834,-9596.31893906834,               223P    402
-9596.31893906834,1.,1.,1.,53.5925143784353,-5.23027523752534,       223P    403
12.0900000031008,53.6099205577604,-5.24551356358906,                 223P    404
11.0928006574227,53.6274245082775,-5.26075188965279,                 223P    405
10.0900000039124,-9598.68825293987,-9596.31893906834,0.,0.,0.;       223P    406
126,1,1,0,0,1,0,-0.322381740110949,-0.322381740110949,               225P    407
-0.217575021765031,-0.217575021765031,1.,1.,53.5925143786011,        225P    408
-6.27834235420778,12.09,53.5925143786011,-5.23027517074859,          225P    409
12.09,-0.322381740110949,-0.217575021765031,0.,0.,0.;                225P    410
126,1,1,0,0,1,0,-0.0513239628276823,-0.0513239628276823,             227P    411
0.148736963750528,0.148736963750528,1.,1.,53.6274245084575,          227P    412
-6.31325248406421,10.09,53.5925143786011,-6.27834235420778,          227P    413
12.09,-0.0513239628276823,0.148736963750528,0.,0.,0.;                227P    414
126,1,1,0,0,1,0,-0.0348817401109489,-0.0348817401109489,             229P    415
0.109881740110949,0.109881740110949,1.,1.,52.1448795763821,          229P    416
-6.27834235420778,12.09,53.5925143786011,-6.27834235420778,          229P    417
12.09,-0.0348817401109489,0.109881740110949,0.,0.,0.;                229P    418
126,1,1,0,0,1,0,-0.0509325442940063,-0.0509325442940063,             231P    419
0.149128382284204,0.149128382284204,1.,1.,52.1099694465256,          231P    420
-6.31325248406421,10.09,52.1448795763821,-6.27834235420777,          231P    421
12.09,-0.0509325442940063,0.149128382284204,0.,0.,0.;                231P    422
126,2,2,0,0,0,0,-10444.6741998828,-10444.6741998828,                 233P    423
-10444.6741998828,-10442.3048859787,-10442.3048859787,               233P    424
-10442.3048859787,1.00000000022781,1.00000000022781,                 233P    425
1.00000000022782,52.1099694466256,-5.26075182267066,                 233P    426
10.0900000002856,52.1274733971683,-5.24551349640046,                 233P    427
11.0928006552607,52.1448795765164,-5.23027517013025,                 233P    428
12.0900000022562,-10444.6741998828,-10442.3048859787,0.,0.,0.;       233P    429
126,1,1,0,0,1,0,0.270143837793739,0.270143837793739,                 235P    430
0.374950556139657,0.374950556139657,1.,1.,52.1448795763821,          235P    431
-5.23027517074859,12.09,52.1448795763821,-6.27834235420777,          235P    432
12.09,0.270143837793739,0.374950556139657,0.,0.,0.;                  235P    433
126,2,2,0,0,0,0,1.43817525072252,1.43817525072252,                   237P    434
1.43817525072252,1.70341740286727,1.70341740286727,                  237P    435
1.70341740286727,1.,0.991218707121558,1.,52.1448795763808,           237P    436
-5.23027517075831,12.09,52.8686969774916,-5.32683538992312,          237P    437
12.09,53.5925143786023,-5.23027517075831,12.09,1.43817525072252,     237P    438
1.70341740286727,0.,0.,0.;                                           237P    439
126,1,1,0,0,1,0,-0.0909230318188914,-0.0909230318188914,             239P    440
1.39933089966013,1.39933089966013,1.,1.,58.3774245188735,            239P    441
0.195475046901716,10.0899999993116,58.2343776736854,                 239P    442
0.195475046901716,18.2851482715404,-0.0909230318188914,              239P    443
1.39933089966013,0.,0.,0.;                                           239P    444
128,1,1,1,1,0,0,1,0,0,-1.88852397748852,-1.88852397748852,           241P    445
-1.72882180856325,-1.72882180856325,-0.097508986032216,              241P    446
-0.097508986032216,0.0975089860322164,0.0975089860322164,1.,1.,      241P    447
1.,1.,47.4906288064221,1.17056490722388,12.09,45.8936071171694,      241P    448
1.17056490722388,12.09,47.4906288064221,-0.779614813420446,          241P    449
12.09,45.8936071171694,-0.779614813420446,12.09,                     241P    450
-1.88852397748852,-1.72882180856325,-0.097508986032216,              241P    451
0.0975089860322164;                                                  241P    452
128,1,1,1,1,0,0,1,0,0,0.129877056409251,0.129877056409251,           243P    453
0.293070239302305,0.293070239302305,-0.00100000002570011,            243P    454
-0.00100000002570011,0.201030465617353,0.201030465617353,1.,1.,      243P    455
1.,1.,47.4906288064221,1.19564956115067,10.0800015227058,            243P    456
45.8586969774916,1.19564956115067,10.0800015227058,                  243P    457
47.4906288064221,1.1603903831595,12.0999984769516,                   243P    458
45.8586969774916,1.1603903831595,12.0999984769516,                   243P    459
0.129877056409251,0.293070239302305,-0.00100000002570011,            243P    460
0.201030465617353;                                                   243P    461
128,1,1,1,1,0,0,1,0,0,-0.001,-0.001,0.162193182893054,               245P    462
0.162193182893054,-0.00100000002570033,-0.00100000002570033,         245P    463
0.201030465617353,0.201030465617353,1.,1.,1.,1.,                     245P    464
45.8586969774916,-0.804699467347234,10.0800015227058,                245P    465
47.4906288064221,-0.804699467347234,10.0800015227058,                245P    466
45.8586969774916,-0.769440289356072,12.0999984769516,                245P    467
47.4906288064221,-0.769440289356072,12.0999984769516,-0.001,         245P    468
0.162193182893054,-0.00100000002570033,0.201030465617353;            245P    469
128,1,1,1,1,0,0,1,0,0,-0.001,-0.001,0.201,0.201,                     247P    470
-0.00100000002570011,-0.00100000002570011,0.201030465617353,         247P    471
0.201030465617353,1.,1.,1.,1.,45.8685224632426,1.20547504690172,     247P    472
10.0800015227058,45.8685224632426,-0.814524953098284,                247P    473
10.0800015227058,45.9037816412338,1.20547504690172,                  247P    474
12.0999984769516,45.9037816412338,-0.814524953098284,                247P    475
12.0999984769516,-0.001,0.201,-0.00100000002570011,                  247P    476
0.201030465617353;                                                   247P    477
128,1,1,1,1,0,0,1,0,0,-0.70303004013306,-0.70303004013306,0.701,     249P    478
0.701,-0.651872753096593,-0.651872753096593,0.651872753096593,       249P    479
0.651872753096593,1.,1.,1.,1.,45.8586969774916,6.71420257786765,     249P    480
10.09,59.8989973788222,6.71420257786765,10.09,45.8586969774915,      249P    481
-6.32325248406421,10.09,59.8989973788222,-6.32325248406421,          249P    482
10.09,-0.70303004013306,0.701,-0.651872753096593,                    249P    483
0.651872753096593;                                                   249P    484
128,1,1,1,1,0,0,1,0,0,-0.771109510236561,-0.771109510236561,         251P    485
-0.566824175707353,-0.566824175707353,-0.27449021363893,             251P    486
-0.27449021363893,-0.0452328319214734,-0.0452328319214734,1.,1.,     251P    487
1.,1.,59.8562413642922,2.94037718329102,12.09,57.8133880190001,      251P    488
2.94037718329102,12.09,59.8562413642922,0.647803366116453,12.09,     251P    489
57.8133880190001,0.647803366116453,12.09,-0.771109510236561,         251P    490
-0.566824175707353,-0.27449021363893,-0.0452328319214734;            251P    491
128,1,1,1,1,0,0,1,0,0,0.129877006989995,0.129877006989995,           253P    492
0.293070239302305,0.293070239302305,-0.00100000002570011,            253P    493
-0.00100000002570011,0.201030465617353,0.201030465617353,1.,1.,      253P    494
1.,1.,58.3223762270358,0.621326002331128,10.0800015227058,           253P    495
59.8987018046963,1.04370116787379,10.0800015227058,                  253P    496
58.313250480257,0.655383752966515,12.0999984769516,                  253P    497
59.8895760579176,1.07775891850917,12.0999984769516,                  253P    498
0.129877006989995,0.293070239302305,-0.00100000002570011,            253P    499
0.201030465617353;                                                   253P    500
128,1,1,1,1,0,0,1,0,0,-0.00100000000000133,-0.00100000000000133,     255P    501
0.200999999999998,0.200999999999998,-0.00100000002570033,            255P    502
-0.00100000002570033,0.201030465617353,0.201030465617353,1.,1.,      255P    503
1.,1.,59.8917541370933,1.03166745459125,10.0800015227058,            255P    504
59.3689396659862,2.98283762369516,10.0800015227058,                  255P    505
59.8576963864579,1.02254170781248,12.0999984769516,                  255P    506
59.3348819153508,2.97371187691639,12.0999984769516,                  255P    507
-0.00100000000000133,0.200999999999998,-0.00100000002570033,         255P    508
0.201030465617353;                                                   255P    509
128,1,1,1,1,0,0,1,0,0,-0.00100000000000054,-0.00100000000000054,     257P    510
0.162193192712802,0.162193192712802,-0.00100000002570011,            257P    511
-0.00100000002570011,0.201030465617353,0.201030465617353,1.,1.,      257P    512
1.,1.,59.3809733792687,2.97588995609215,10.0800015227058,            257P    513
57.8046481841101,2.55351489304056,10.0800015227058,                  257P    514
59.3900991260475,2.94183220545676,12.0999984769516,                  257P    515
57.8137739308889,2.51945714240517,12.0999984769516,                  257P    516
-0.00100000000000054,0.162193192712802,-0.00100000002570011,         257P    517
0.201030465617353;                                                   257P    518
128,1,8,1,2,0,1,0,0,1,-1.99149075708868D-18,                         259P    519
-1.99149075708868D-18,0.667301790108884,0.667301790108884,           259P    520
-3.14159265358979,-3.14159265358979,-3.14159265358979,               259P    521
-1.5707963267949,-1.5707963267949,0.,0.,1.5707963267949,             259P    522
1.5707963267949,3.14159265358979,3.14159265358979,                   259P    523
3.14159265358979,1.,1.,0.707106781186548,0.707106781186548,1.,       259P    524
1.,0.707106781186548,0.707106781186548,1.,1.,0.707106781186548,      259P    525
0.707106781186548,1.,1.,0.707106781186548,0.707106781186548,1.,      259P    526
1.,47.6436969774916,0.195475046901716,10.09,47.6546122132187,        259P    527
0.195475046901716,10.34,47.6436969774916,-0.17952495309828,          259P    528
10.09,47.6546122132187,-0.168609717371151,10.34,                     259P    529
48.0186969774916,-0.17952495309828,10.09,48.0186969774916,           259P    530
-0.168609717371151,10.34,48.3936969774916,-0.17952495309828,         259P    531
10.09,48.3827817417644,-0.168609717371151,10.34,                     259P    532
48.3936969774916,0.195475046901716,10.09,48.3827817417644,           259P    533
0.195475046901716,10.34,48.3936969774916,0.570475046901713,          259P    534
10.09,48.3827817417644,0.559559811174584,10.34,48.0186969774916,     259P    535
0.570475046901713,10.09,48.0186969774916,0.559559811174584,          259P    536
10.34,47.6436969774916,0.570475046901713,10.09,47.6546122132187,     259P    537
0.559559811174584,10.34,47.6436969774916,0.195475046901716,          259P    538
10.09,47.6546122132187,0.195475046901716,10.34,                      259P    539
-1.99149075708868D-18,0.667301790108884,-3.14159265358979,           259P    540
3.14159265358979;                                                    259P    541
128,1,1,1,1,0,0,1,0,0,-1.56909485349579,-1.56909485349579,           261P    542
-1.49427790064121,-1.49427790064121,-0.0374084764272866,             261P    543
-0.0374084764272866,0.0374084764272871,0.0374084764272871,1.,1.,     261P    544
1.,1.,47.6446122132187,0.569559811174585,10.34,48.3927817417644,     261P    545
0.569559811174585,10.34,47.6446122132187,-0.178609717371152,         261P    546
10.34,48.3927817417644,-0.178609717371152,10.34,                     261P    547
-1.56909485349579,-1.49427790064121,-0.0374084764272866,             261P    548
0.0374084764272871;                                                  261P    549
128,9,8,5,2,0,1,0,0,1,-1.,-1.,-1.,-1.,-1.,-1.,-0.8,-0.6,-0.4,        263P    550
-0.2,0.,0.,0.,0.,0.,0.,0.,0.,0.,1.5707963267949,1.5707963267949,     263P    551
3.14159265358979,3.14159265358979,4.71238898038469,                  263P    552
4.71238898038469,6.28318530717959,6.28318530717959,                  263P    553
6.28318530717959,1.,1.,1.,1.,1.,1.,1.,1.,1.,1.,                      263P    554
0.707106781186548,0.707106781186548,0.707106781186548,               263P    555
0.707106781186548,0.707106781186548,0.707106781186548,               263P    556
0.707106781186548,0.707106781186548,0.707106781186548,               263P    557
0.707106781186548,1.,1.,1.,1.,1.,1.,1.,1.,1.,1.,                     263P    558
0.707106781186548,0.707106781186548,0.707106781186548,               263P    559
0.707106781186548,0.707106781186548,0.707106781186548,               263P    560
0.707106781186548,0.707106781186548,0.707106781186548,               263P    561
0.707106781186548,1.,1.,1.,1.,1.,1.,1.,1.,1.,1.,                     263P    562
0.707106781186548,0.707106781186548,0.707106781186548,               263P    563
0.707106781186548,0.707106781186548,0.707106781186548,               263P    564
0.707106781186548,0.707106781186548,0.707106781186548,               263P    565
0.707106781186548,1.,1.,1.,1.,1.,1.,1.,1.,1.,1.,                     263P    566
0.707106781186548,0.707106781186548,0.707106781186548,               263P    567
0.707106781186548,0.707106781186548,0.707106781186548,               263P    568
0.707106781186548,0.707106781186548,0.707106781186548,               263P    569
0.707106781186548,1.,1.,1.,1.,1.,1.,1.,1.,1.,1.,                     263P    570
52.8686969774916,0.195475046901716,20.24,52.8686969774916,           263P    571
-0.163820689472889,20.24,52.8686969774916,-0.858630340926752,        263P    572
20.2265200956562,52.8686969774916,-1.82954598661432,                 263P    573
20.1658880152439,52.8686969774916,-2.98598486241956,                 263P    574
20.0076761495718,52.8686969774916,-4.17081852653932,                 263P    575
19.66962634646,52.8686969774916,-4.83265439954062,                   263P    576
19.2502596090627,52.8686969774916,-5.10254091112797,                 263P    577
18.819477787234,52.8686969774916,-5.16692446353279,                  263P    578
18.4731271843786,52.8686969774916,-5.17020564748858,                 263P    579
18.2851482715089,52.8686969774916,0.195475046901716,20.24,           263P    580
53.2279927138662,-0.163820689472889,20.24,53.92280236532,            263P    581
-0.858630340926752,20.2265200956562,54.8937180110076,                263P    582
-1.82954598661432,20.1658880152439,56.0501568868128,                 263P    583
-2.98598486241956,20.0076761495718,57.2349905509326,                 263P    584
-4.17081852653932,19.66962634646,57.8968264239339,                   263P    585
-4.83265439954062,19.2502596090627,58.1667129355213,                 263P    586
-5.10254091112797,18.819477787234,58.2310964879261,                  263P    587
-5.16692446353279,18.4731271843786,58.2343776718819,                 263P    588
-5.17020564748858,18.2851482715089,52.8686969774916,                 263P    589
0.195475046901716,20.24,53.2279927138662,0.195475046901716,          263P    590
20.24,53.92280236532,0.195475046901716,20.2265200956562,             263P    591
54.8937180110076,0.195475046901716,20.1658880152439,                 263P    592
56.0501568868128,0.195475046901716,20.0076761495718,                 263P    593
57.2349905509326,0.195475046901716,19.66962634646,                   263P    594
57.8968264239339,0.195475046901716,19.2502596090627,                 263P    595
58.1667129355213,0.195475046901716,18.819477787234,                  263P    596
58.2310964879261,0.195475046901716,18.4731271843786,                 263P    597
58.2343776718819,0.195475046901716,18.2851482715089,                 263P    598
52.8686969774916,0.195475046901716,20.24,53.2279927138662,           263P    599
0.554770783276322,20.24,53.92280236532,1.24958043473018,             263P    600
20.2265200956562,54.8937180110076,2.22049608041774,                  263P    601
20.1658880152439,56.0501568868128,3.37693495622299,                  263P    602
20.0076761495718,57.2349905509326,4.56176862034274,                  263P    603
19.66962634646,57.8968264239339,5.22360449334404,                    263P    604
19.2502596090627,58.1667129355213,5.4934910049314,                   263P    605
18.819477787234,58.2310964879261,5.55787455733621,                   263P    606
18.4731271843786,58.2343776718819,5.561155741292,                    263P    607
18.2851482715089,52.8686969774916,0.195475046901716,20.24,           263P    608
52.8686969774916,0.554770783276322,20.24,52.8686969774916,           263P    609
1.24958043473018,20.2265200956562,52.8686969774916,                  263P    610
2.22049608041774,20.1658880152439,52.8686969774916,                  263P    611
3.37693495622299,20.0076761495718,52.8686969774916,                  263P    612
4.56176862034275,19.66962634646,52.8686969774916,                    263P    613
5.22360449334405,19.2502596090627,52.8686969774916,                  263P    614
5.4934910049314,18.819477787234,52.8686969774916,                    263P    615
5.55787455733622,18.4731271843786,52.8686969774916,                  263P    616
5.56115574129201,18.2851482715089,52.8686969774916,                  263P    617
0.195475046901716,20.24,52.509401241117,0.554770783276322,20.24,     263P    618
51.8145915896631,1.24958043473018,20.2265200956562,                  263P    619
50.8436759439755,2.22049608041774,20.1658880152439,                  263P    620
49.6872370681703,3.37693495622299,20.0076761495718,                  263P    621
48.5024034040505,4.56176862034275,19.66962634646,                    263P    622
47.8405675310492,5.22360449334405,19.2502596090627,                  263P    623
47.5706810194619,5.4934910049314,18.819477787234,                    263P    624
47.5062974670571,5.55787455733621,18.4731271843786,                  263P    625
47.5030162831013,5.56115574129201,18.2851482715089,                  263P    626
52.8686969774916,0.195475046901716,20.24,52.509401241117,            263P    627
0.195475046901716,20.24,51.8145915896631,0.195475046901716,          263P    628
20.2265200956562,50.8436759439755,0.195475046901716,                 263P    629
20.1658880152439,49.6872370681703,0.195475046901716,                 263P    630
20.0076761495718,48.5024034040505,0.195475046901716,                 263P    631
19.66962634646,47.8405675310492,0.195475046901716,                   263P    632
19.2502596090627,47.5706810194619,0.195475046901716,                 263P    633
18.819477787234,47.5062974670571,0.195475046901716,                  263P    634
18.4731271843786,47.5030162831013,0.195475046901716,                 263P    635
18.2851482715089,52.8686969774916,0.195475046901716,20.24,           263P    636
52.509401241117,-0.163820689472889,20.24,51.8145915896631,           263P    637
-0.858630340926752,20.2265200956562,50.8436759439755,                263P    638
-1.82954598661432,20.1658880152439,49.6872370681703,                 263P    639
-2.98598486241956,20.0076761495718,48.5024034040505,                 263P    640
-4.17081852653932,19.66962634646,47.8405675310492,                   263P    641
-4.83265439954062,19.2502596090627,47.5706810194619,                 263P    642
-5.10254091112797,18.819477787234,47.5062974670571,                  263P    643
-5.16692446353279,18.4731271843786,47.5030162831013,                 263P    644
-5.17020564748858,18.2851482715089,52.8686969774916,                 263P    645
0.195475046901716,20.24,52.8686969774916,-0.163820689472889,         263P    646
20.24,52.8686969774916,-0.858630340926752,20.2265200956562,          263P    647
52.8686969774916,-1.82954598661432,20.1658880152439,                 263P    648
52.8686969774916,-2.98598486241956,20.0076761495718,                 263P    649
52.8686969774916,-4.17081852653932,19.66962634646,                   263P    650
52.8686969774916,-4.83265439954062,19.2502596090627,                 263P    651
52.8686969774916,-5.10254091112797,18.819477787234,                  263P    652
52.8686969774916,-5.16692446353279,18.4731271843786,                 263P    653
52.8686969774916,-5.17020564748858,18.2851482715089,-1.,0.,0.,       263P    654
6.28318530717959;                                                    263P    655
128,1,8,1,2,0,1,0,0,1,-0.0912553986417183,-0.0912553986417183,       265P    656
0.0912553986417183,0.0912553986417183,-3.14159265358979,             265P    657
-3.14159265358979,-3.14159265358979,-1.5707963267949,                265P    658
-1.5707963267949,0.,0.,1.5707963267949,1.5707963267949,              265P    659
3.14159265358979,3.14159265358979,3.14159265358979,1.,1.,            265P    660
0.707106781186548,0.707106781186548,1.,1.,0.707106781186548,         265P    661
0.707106781186548,1.,1.,0.707106781186548,0.707106781186548,1.,      265P    662
1.,0.707106781186548,0.707106781186548,1.,1.,52.8686969774916,       265P    663
4.39555468499049,10.09,52.8686969774916,3.87810493663923,            265P    664
10.5896954135095,48.6686173394028,4.39555468499049,10.09,            265P    665
49.1860670877541,3.87810493663923,10.5896954135095,                  265P    666
48.6686173394028,0.195475046901716,10.09,49.1860670877541,           265P    667
0.195475046901716,10.5896954135095,48.6686173394028,                 265P    668
-4.00460459118705,10.09,49.1860670877541,-3.4871548428358,           265P    669
10.5896954135095,52.8686969774916,-4.00460459118706,10.09,           265P    670
52.8686969774916,-3.4871548428358,10.5896954135095,                  265P    671
57.0687766155803,-4.00460459118705,10.09,56.5513268672291,           265P    672
-3.4871548428358,10.5896954135095,57.0687766155803,                  265P    673
0.195475046901716,10.09,56.5513268672291,0.195475046901716,          265P    674
10.5896954135095,57.0687766155803,4.39555468499049,10.09,            265P    675
56.5513268672291,3.87810493663923,10.5896954135095,                  265P    676
52.8686969774916,4.39555468499049,10.09,52.8686969774916,            265P    677
3.87810493663923,10.5896954135095,-0.0912553986417183,               265P    678
0.0912553986417183,-3.14159265358979,3.14159265358979;               265P    679
128,1,8,1,2,0,1,0,0,1,-0.455533807629575,-0.455533807629575,         267P    680
-0.342629315976644,-0.342629315976644,-3.14159265358979,             267P    681
-3.14159265358979,-3.14159265358979,-1.5707963267949,                267P    682
-1.5707963267949,0.,0.,1.5707963267949,1.5707963267949,              267P    683
3.14159265358979,3.14159265358979,3.14159265358979,1.,1.,            267P    684
0.707106781186548,0.707106781186548,1.,1.,0.707106781186548,         267P    685
0.707106781186548,1.,1.,0.707106781186548,0.707106781186548,1.,      267P    686
1.,0.707106781186548,0.707106781186548,1.,1.,52.8686969774916,       267P    687
3.87810493663923,10.5896954135095,52.8686969774916,                  267P    688
3.86382131312798,10.9987248741756,49.1860670877541,                  267P    689
3.87810493663923,10.5896954135095,49.2003507112653,                  267P    690
3.86382131312798,10.9987248741756,49.1860670877541,                  267P    691
0.195475046901716,10.5896954135095,49.2003507112653,                 267P    692
0.195475046901716,10.9987248741756,49.1860670877541,                 267P    693
-3.4871548428358,10.5896954135095,49.2003507112653,                  267P    694
-3.47287121932455,10.9987248741756,52.8686969774916,                 267P    695
-3.4871548428358,10.5896954135095,52.8686969774916,                  267P    696
-3.47287121932455,10.9987248741756,56.5513268672291,                 267P    697
-3.4871548428358,10.5896954135095,56.5370432437178,                  267P    698
-3.47287121932455,10.9987248741756,56.5513268672291,                 267P    699
0.195475046901716,10.5896954135095,56.5370432437178,                 267P    700
0.195475046901716,10.9987248741756,56.5513268672291,                 267P    701
3.87810493663923,10.5896954135095,56.5370432437178,                  267P    702
3.86382131312798,10.9987248741756,52.8686969774916,                  267P    703
3.87810493663923,10.5896954135095,52.8686969774916,                  267P    704
3.86382131312798,10.9987248741756,-0.455533807629575,                267P    705
-0.342629315976644,-3.14159265358979,3.14159265358979;               267P    706
128,2,8,2,2,0,1,0,0,1,-1.57079632679491,-1.57079632679491,           269P    707
-1.57079632679491,-0.0349065850398863,-0.0349065850398863,           269P    708
-0.0349065850398863,-3.14159265358979,-3.14159265358979,             269P    709
-3.14159265358979,-1.5707963267949,-1.5707963267949,0.,0.,           269P    710
1.5707963267949,1.5707963267949,3.14159265358979,                    269P    711
3.14159265358979,3.14159265358979,1.,0.719339800338707,1.,           269P    712
0.707106781186548,0.508650050796877,0.707106781186548,1.,            269P    713
0.719339800338707,1.,0.707106781186548,0.508650050796877,            269P    714
0.707106781186548,1.,0.719339800338707,1.,0.707106781186548,         269P    715
0.508650050796877,0.707106781186548,1.,0.719339800338707,1.,         269P    716
0.707106781186548,0.508650050796877,0.707106781186548,1.,            269P    717
0.719339800338707,1.,56.2871955369631,0.195475046901716,11.24,       269P    718
56.5286177306648,0.195475046901716,11.24,56.5370432437178,           269P    719
0.195475046901716,10.9987248741756,56.2871955369631,                 269P    720
-3.22302351256977,11.24,56.5286177306648,-3.46444570627153,          269P    721
11.24,56.5370432437178,-3.47287121932454,10.9987248741756,           269P    722
52.8686969774916,-3.22302351256977,11.24,52.8686969774916,           269P    723
-3.46444570627154,11.24,52.8686969774916,-3.47287121932454,          269P    724
10.9987248741756,49.4501984180201,-3.22302351256977,11.24,           269P    725
49.2087762243183,-3.46444570627153,11.24,49.2003507112653,           269P    726
-3.47287121932454,10.9987248741756,49.4501984180201,                 269P    727
0.195475046901716,11.24,49.2087762243183,0.195475046901716,          269P    728
11.24,49.2003507112653,0.195475046901716,10.9987248741756,           269P    729
49.4501984180201,3.6139736063732,11.24,49.2087762243183,             269P    730
3.85539580007497,11.24,49.2003507112653,3.86382131312797,            269P    731
10.9987248741756,52.8686969774916,3.6139736063732,11.24,             269P    732
52.8686969774916,3.85539580007497,11.24,52.8686969774916,            269P    733
3.86382131312797,10.9987248741756,56.2871955369631,                  269P    734
3.6139736063732,11.24,56.5286177306648,3.85539580007497,11.24,       269P    735
56.5370432437178,3.86382131312797,10.9987248741756,                  269P    736
56.2871955369631,0.195475046901716,11.24,56.5286177306648,           269P    737
0.195475046901716,11.24,56.5370432437178,0.195475046901716,          269P    738
10.9987248741756,-1.57079632679491,-0.0349065850398863,              269P    739
-3.14159265358979,3.14159265358979;                                  269P    740
128,1,1,1,1,0,0,1,0,0,-3.46462550201368,-3.46462550201368,           271P    741
-2.77892579011938,-2.77892579011938,-2.48880494231152,               271P    742
-2.48880494231152,-1.80310523041723,-1.80310523041723,1.,1.,1.,      271P    743
1.,49.4401984180201,-3.23302351256977,11.24,49.4401984180201,        271P    744
3.6239736063732,11.24,56.297195536963,-3.23302351256977,11.24,       271P    745
56.297195536963,3.62397360637321,11.24,-3.46462550201368,            271P    746
-2.77892579011938,-2.48880494231152,-1.80310523041723;               271P    747
128,1,1,1,1,0,0,1,0,0,-0.00187275309659363,-0.00187275309659363,     273P    748
0.108424978294904,0.108424978294904,-0.0510076164706236,             273P    749
-0.0510076164706236,0.151022849308524,0.151022849308524,1.,1.,       273P    750
1.,1.,52.1097949224491,6.71420257786765,10.0800015223512,            273P    751
52.1097949224491,5.61122526395267,10.0800015223512,                  273P    752
52.145054100464,6.71420257786765,12.0999984779577,                   273P    753
52.145054100464,5.61122526395267,12.0999984779577,                   273P    754
-0.00187275309659363,0.108424978294904,-0.0510076164706236,          273P    755
0.151022849308524;                                                   273P    756
128,1,1,1,1,0,0,1,0,0,-0.0733817401110791,-0.0733817401110791,       275P    757
0.0733817401110773,0.0733817401110773,-0.64838174011095,             275P    758
-0.64838174011095,-0.54157502176503,-0.54157502176503,1.,1.,1.,      275P    759
1.,53.6025143786023,6.67929244801121,12.09,52.1348795763808,         275P    760
6.67929244801121,12.09,53.6025143786023,5.61122526455202,12.09,      275P    761
52.1348795763808,5.61122526455202,12.09,-0.0733817401110791,         275P    762
0.0733817401110773,-0.64838174011095,-0.54157502176503;              275P    763
128,1,1,1,1,0,0,1,0,0,-0.00328734617755411,-0.00328734617755411,     277P    764
0.107010385154008,0.107010385154008,-0.0510076164008883,             277P    765
-0.0510076164008883,0.151022849432402,0.151022849432402,1.,1.,       277P    766
1.,1.,53.6275990325219,5.61122526455202,10.0800015230484,            277P    767
53.6275990325219,6.71420257786764,10.0800015230484,                  277P    768
53.5923398544975,5.61122526455202,12.0999984791963,                  277P    769
53.5923398544975,6.71420257786764,12.0999984791963,                  277P    770
-0.00328734617755411,0.107010385154008,-0.0510076164008883,          277P    771
0.151022849432402;                                                   277P    772
128,1,1,1,1,0,0,1,0,0,-0.0018727530965924,-0.0018727530965924,       279P    773
0.151872753096592,0.151872753096592,-0.0510076164008883,             279P    774
-0.0510076164008883,0.151022849207893,0.151022849207893,1.,1.,       279P    775
1.,1.,53.6374245084575,6.70437710193202,10.0800015230484,            279P    776
52.0999694465256,6.70437710193202,10.0800015230484,                  279P    777
53.6374245084575,6.66911792394684,12.0999984769516,                  279P    778
52.0999694465257,6.66911792394684,12.0999984769516,                  279P    779
-0.0018727530965924,0.151872753096592,-0.0510076164008883,           279P    780
0.151022849207893;                                                   279P    781
128,1,1,1,1,0,0,1,0,0,-0.00187275309659274,-0.00187275309659274,     281P    782
0.10842497823497,0.10842497823497,-0.0510076164008883,               281P    783
-0.0510076164008883,0.15102284951822,0.15102284951822,1.,1.,1.,      281P    784
1.,53.6275990325219,-6.32325248406421,10.0800015230484,              281P    785
53.6275990325219,-5.22027517074859,10.0800015230484,                 281P    786
53.5923398544825,-6.32325248406421,12.0999984800544,                 281P    787
53.5923398544825,-5.22027517074859,12.0999984800544,                 281P    788
-0.00187275309659274,0.10842497823497,-0.0510076164008883,           281P    789
0.15102284951822;                                                    281P    790
128,1,1,1,1,0,0,1,0,0,-0.0018727530965924,-0.0018727530965924,       283P    791
0.151872753096592,0.151872753096592,-0.0510076164008883,             283P    792
-0.0510076164008883,0.151022849207894,0.151022849207894,1.,1.,       283P    793
1.,1.,52.0999694465256,-6.31342700812858,10.0800015230484,           283P    794
53.6374245084575,-6.31342700812858,10.0800015230484,                 283P    795
52.0999694465256,-6.2781678301434,12.0999984769516,                  283P    796
53.6374245084575,-6.2781678301434,12.0999984769516,                  283P    797
-0.0018727530965924,0.151872753096592,-0.0510076164008883,           283P    798
0.151022849207894;                                                   283P    799
128,1,1,1,1,0,0,1,0,0,-0.00328734623938776,-0.00328734623938776,     285P    800
0.107010385154008,0.107010385154008,-0.0510076164008883,             285P    801
-0.0510076164008883,0.151022849433713,0.151022849433713,1.,1.,       285P    802
1.,1.,52.1097949224613,-5.22027517013025,10.0800015230484,           285P    803
52.1097949224613,-6.32325248406421,10.0800015230484,                 285P    804
52.1450541004859,-5.22027517013025,12.0999984792094,                 285P    805
52.1450541004859,-6.32325248406421,12.0999984792094,                 285P    806
-0.00328734623938776,0.107010385154008,-0.0510076164008883,          285P    807
0.151022849433713;                                                   285P    808
128,1,1,1,1,0,0,1,0,0,-0.0733817401110791,-0.0733817401110791,       287P    809
0.0733817401110782,0.0733817401110782,0.541575021765031,             287P    810
0.541575021765031,0.64838174011095,0.64838174011095,1.,1.,1.,1.,     287P    811
53.6025143786024,-5.22027517074859,12.09,52.1348795763808,           287P    812
-5.22027517074859,12.09,53.6025143786023,-6.28834235420778,          287P    813
12.09,52.1348795763808,-6.28834235420778,12.09,                      287P    814
-0.0733817401110791,0.0733817401110782,0.541575021765031,            287P    815
0.64838174011095;                                                    287P    816
128,1,8,1,2,0,1,0,0,1,-1.39933089966013,-1.39933089966013,           289P    817
0.0909230318188914,0.0909230318188914,-3.14159265358979,             289P    818
-3.14159265358979,-3.14159265358979,-1.5707963267949,                289P    819
-1.5707963267949,0.,0.,1.5707963267949,1.5707963267949,              289P    820
3.14159265358979,3.14159265358979,3.14159265358979,1.,1.,            289P    821
0.707106781186548,0.707106781186548,1.,1.,0.707106781186548,         289P    822
0.707106781186548,1.,1.,0.707106781186548,0.707106781186548,1.,      289P    823
1.,0.707106781186548,0.707106781186548,1.,1.,58.3774245188735,       289P    824
0.195475046901716,10.0899999993116,58.2343776736854,                 289P    825
0.195475046901716,18.2851482715404,58.3774245188735,                 289P    826
-5.31325249448026,10.0899999993116,58.2343776736854,                 289P    827
-5.17020564929213,18.2851482715404,52.8686969774916,                 289P    828
-5.31325249448026,10.0899999993116,52.8686969774916,                 289P    829
-5.17020564929213,18.2851482715404,47.3599694361096,                 289P    830
-5.31325249448026,10.0899999993116,47.5030162812977,                 289P    831
-5.17020564929213,18.2851482715404,47.3599694361096,                 289P    832
0.195475046901716,10.0899999993116,47.5030162812977,                 289P    833
0.195475046901716,18.2851482715404,47.3599694361096,                 289P    834
5.70420258828369,10.0899999993116,47.5030162812977,                  289P    835
5.56115574309556,18.2851482715404,52.8686969774916,                  289P    836
5.70420258828369,10.0899999993116,52.8686969774916,                  289P    837
5.56115574309556,18.2851482715404,58.3774245188735,                  289P    838
5.70420258828369,10.0899999993116,58.2343776736854,                  289P    839
5.56115574309556,18.2851482715404,58.3774245188735,                  289P    840
0.195475046901716,10.0899999993116,58.2343776736854,                 289P    841
0.195475046901716,18.2851482715404,-1.39933089966013,                289P    842
0.0909230318188914,-3.14159265358979,3.14159265358979;               289P    843
502,45,47.4806288064221,1.16056490722388,12.09,47.4806288064221,     291P    844
-0.769614813420445,12.09,45.9036071171694,1.16056490722388,          291P    845
12.09,45.9036071171694,-0.769614813420445,12.09,                     291P    846
47.4514948265016,1.19547503708031,10.09,45.8686969774916,            291P    847
1.19547504690172,10.09,47.4514948265016,-0.80452494327688,10.09,     291P    848
45.8686969774916,-0.804524953098284,10.09,52.1099694465262,          291P    849
5.65170191708306,10.09,52.1099694465256,6.70420257786765,10.09,      291P    850
53.6274245084575,6.70420257786764,10.09,53.6274245084569,            291P    851
5.65170191708306,10.09,57.8424938820064,2.56347493661592,10.09,      291P    852
59.3713592886171,2.973133197821,10.09,59.8889973788222,              291P    853
1.04128154524287,10.09,58.3601315737117,0.631623187427967,10.09,     291P    854
58.3774245188735,0.195475046901716,10.0899999993116,                 291P    855
53.627424508457,-5.26075182327963,10.09,53.6274245084575,            291P    856
-6.31325248406421,10.09,52.1099694465256,-6.31325248406421,          291P    857
10.09,52.1099694465262,-5.26075182327963,10.09,48.7893993705146,     291P    858
-0.804524953098284,10.09,52.8686969774916,4.39555468499049,          291P    859
10.09,47.6436969774916,0.195475046901716,10.09,58.3229549086716,     291P    860
0.657803366116456,12.09,57.8233880190001,2.52221391015728,12.09,     291P    861
59.8462413642922,1.06596674174124,12.09,59.3466740921188,            291P    862
2.93037718329102,12.09,47.6546122132187,0.195475046901716,10.34,     291P    863
52.8686969774916,0.195475046901716,20.24,52.8686969774916,           291P    864
-5.17020564748858,18.2851482715089,58.2343776736854,                 291P    865
0.195475046901716,18.2851482715404,52.8686969774916,                 291P    866
3.87810493663923,10.5896954135095,52.8686969774916,                  291P    867
3.86382131312798,10.9987248741756,56.5370432437178,                  291P    868
0.195475046901716,10.9987248741756,56.2871955369631,                 291P    869
0.195475046901716,11.24,52.8686969774916,3.61397360637321,11.24,     291P    870
52.1448795763821,5.62122526455202,12.0899999999999,                  291P    871
52.1448795763821,6.66929244801121,12.09,53.592514378601,             291P    872
5.62122526455202,12.0899999999999,53.5925143786011,                  291P    873
6.66929244801121,12.09,53.5925143786011,-5.23027517074859,           291P    874
12.0899999999999,53.5925143786011,-6.27834235420778,12.09,           291P    875
52.1448795763821,-6.27834235420777,12.09,52.1448795763821,           291P    876
-5.23027517074859,12.0899999999999;                                  291P    877
504,66,109,291,1,291,2,111,291,1,291,3,113,291,3,291,4,115,291,      293P    878
4,291,2,117,291,5,291,1,119,291,6,291,5,121,291,6,291,3,123,291,     293P    879
2,291,7,125,291,8,291,4,127,291,8,291,7,129,291,6,291,8,131,291,     293P    880
5,291,9,133,291,10,291,9,135,291,11,291,10,137,291,12,291,11,        293P    881
139,291,12,291,13,141,291,13,291,14,143,291,14,291,15,145,291,       293P    882
16,291,15,147,291,16,291,17,149,291,17,291,18,151,291,19,291,18,     293P    883
153,291,20,291,19,155,291,21,291,20,157,291,21,291,7,159,291,22,     293P    884
291,23,161,291,23,291,22,163,291,24,291,24,165,291,25,291,26,        293P    885
167,291,25,291,27,169,291,27,291,28,171,291,28,291,26,173,291,       293P    886
16,291,25,175,291,15,291,27,177,291,14,291,28,179,291,26,291,13,     293P    887
181,291,24,291,29,183,291,29,291,29,185,291,30,291,31,187,291,       293P    888
31,291,32,189,291,32,291,31,191,291,33,291,33,193,291,33,291,23,     293P    889
195,291,33,291,34,197,291,35,291,34,199,291,34,291,35,201,291,       293P    890
35,291,36,203,291,36,291,37,205,291,37,291,36,207,291,38,291,9,      293P    891
209,291,39,291,38,211,291,10,291,39,213,291,40,291,38,215,291,       293P    892
40,291,41,217,291,41,291,39,219,291,12,291,40,221,291,11,291,41,     293P    893
223,291,42,291,18,225,291,43,291,42,227,291,19,291,43,229,291,       293P    894
44,291,43,231,291,20,291,44,233,291,21,291,45,235,291,45,291,44,     293P    895
237,291,45,291,42,239,291,17,291,32;                                 293P    896
406,1,14HButton (1) (1);                                             295P    897
314,96.4705882352941,96.4705882352941,95.2941176470588,10HClearP     297P    898
arts;                                                                297P    899
314,62.7450980392157,62.7450980392157,62.7450980392157,13HSteel      299P    900
- Satin;                                                             299P    901
S      1G      2D    300P    901                                        T      1
