ISO-10303-21;
HEADER;
/* Generated by software containing ST-Developer
 * from STEP Tools, Inc. (www.steptools.com) 
 */

FILE_DESCRIPTION(
/* description */ (''),
/* implementation_level */ '2;1');

FILE_NAME(
/* name */ 'Button_East.step',
/* time_stamp */ '2025-08-19T12:52:13-07:00',
/* author */ (''),
/* organization */ (''),
/* preprocessor_version */ 'ST-DEVELOPER v20.1',
/* originating_system */ 'Autodesk Translation Framework v14.10.0.0',
/* authorisation */ '');

FILE_SCHEMA (('AUTOMOTIVE_DESIGN { 1 0 10303 214 3 1 1 }'));
ENDSEC;

DATA;
#10=MECHANICAL_DESIGN_GEOMETRIC_PRESENTATION_REPRESENTATION('',(#13),#1031);
#11=SHAPE_REPRESENTATION_RELATIONSHIP('SRR','None',#1038,#12);
#12=ADVANCED_BREP_SHAPE_REPRESENTATION('',(#14),#1030);
#13=STYLED_ITEM('',(#1048),#14);
#14=MANIFOLD_SOLID_BREP('Button (1) (1)',#344);
#15=TOROIDAL_SURFACE('',#383,3.41849855947149,0.25);
#16=FACE_BOUND('',#73,.T.);
#17=FACE_BOUND('',#74,.T.);
#18=FACE_BOUND('',#75,.T.);
#19=FACE_BOUND('',#76,.T.);
#20=(
BOUNDED_SURFACE()
B_SPLINE_SURFACE(3,2,((#853,#854,#855,#856,#857,#858,#859,#860,#861),(#862,
#863,#864,#865,#866,#867,#868,#869,#870),(#871,#872,#873,#874,#875,#876,
#877,#878,#879),(#880,#881,#882,#883,#884,#885,#886,#887,#888),(#889,#890,
#891,#892,#893,#894,#895,#896,#897),(#898,#899,#900,#901,#902,#903,#904,
#905,#906),(#907,#908,#909,#910,#911,#912,#913,#914,#915),(#916,#917,#918,
#919,#920,#921,#922,#923,#924),(#925,#926,#927,#928,#929,#930,#931,#932,
#933),(#934,#935,#936,#937,#938,#939,#940,#941,#942),(#943,#944,#945,#946,
#947,#948,#949,#950,#951),(#952,#953,#954,#955,#956,#957,#958,#959,#960),
(#961,#962,#963,#964,#965,#966,#967,#968,#969)),.UNSPECIFIED.,.F.,.T.,.F.)
B_SPLINE_SURFACE_WITH_KNOTS((4,3,3,3,4),(3,2,2,2,3),(-1.01005626246892,
-1.01,-1.,-0.352984628831786,0.),(0.,1.5707963267949,3.14159265358979,4.71238898038469,
6.28318530717959),.UNSPECIFIED.)
GEOMETRIC_REPRESENTATION_ITEM()
RATIONAL_B_SPLINE_SURFACE(((1.,0.707106781186548,1.,0.707106781186548,1.,
0.707106781186548,1.,0.707106781186548,1.),(1.,0.707106781186548,1.,0.707106781186548,
1.,0.707106781186548,1.,0.707106781186548,1.),(1.,0.707106781186548,1.,
0.707106781186548,1.,0.707106781186548,1.,0.707106781186548,1.),(1.,0.707106781186548,
1.,0.707106781186548,1.,0.707106781186548,1.,0.707106781186548,1.),(1.,
0.707106781186548,1.,0.707106781186548,1.,0.707106781186548,1.,0.707106781186548,
1.),(1.,0.707106781186548,1.,0.707106781186548,1.,0.707106781186548,1.,
0.707106781186548,1.),(1.,0.707106781186548,1.,0.707106781186548,1.,0.707106781186548,
1.,0.707106781186548,1.),(1.,0.707106781186548,1.,0.707106781186548,1.,
0.707106781186548,1.,0.707106781186548,1.),(1.,0.707106781186548,1.,0.707106781186548,
1.,0.707106781186548,1.,0.707106781186548,1.),(1.,0.707106781186548,1.,
0.707106781186548,1.,0.707106781186548,1.,0.707106781186548,1.),(1.,0.707106781186548,
1.,0.707106781186548,1.,0.707106781186548,1.,0.707106781186548,1.),(1.,
0.707106781186548,1.,0.707106781186548,1.,0.707106781186548,1.,0.707106781186548,
1.),(1.,0.707106781186548,1.,0.707106781186548,1.,0.707106781186548,1.,
0.707106781186548,1.)))
REPRESENTATION_ITEM('')
SURFACE()
);
#21=B_SPLINE_CURVE_WITH_KNOTS('',3,(#538,#539,#540,#541,#542,#543,#544,
#545,#546,#547,#548,#549,#550,#551,#552,#553,#554,#555,#556,#557,#558,#559,
#560,#561,#562,#563,#564,#565,#566,#567,#568,#569,#570,#571,#572,#573,#574,
#575,#576,#577,#578,#579,#580,#581,#582,#583,#584,#585,#586,#587,#588,#589,
#590,#591,#592,#593,#594,#595,#596,#597,#598,#599,#600,#601,#602,#603,#604,
#605,#606,#607,#608,#609,#610),.UNSPECIFIED.,.F.,.F.,(4,3,3,3,3,3,3,3,3,
3,3,3,3,3,3,3,3,3,3,3,3,3,3,3,4),(0.847748446620439,0.884823101343702,0.921371299534797,
0.957445288504543,0.993095839194032,1.02837240385309,1.06332326753051,1.09799569407182,
1.13243606728412,1.1676276325141,1.20170376363431,1.23570565231413,1.26967468329235,
1.30365211500309,1.33767918582126,1.37179721961223,1.40604773105624,1.44222940354468,
1.47702245764365,1.51207321539928,1.54742056987944,1.58444070515053,1.6207067558374,
1.6581039334006,1.6955011109638),.UNSPECIFIED.);
#22=B_SPLINE_CURVE_WITH_KNOTS('',3,(#611,#612,#613,#614,#615,#616,#617,
#618,#619,#620,#621,#622,#623,#624,#625,#626,#627,#628,#629,#630,#631,#632,
#633,#634,#635,#636,#637,#638,#639,#640,#641,#642,#643,#644,#645,#646,#647,
#648,#649,#650,#651,#652,#653,#654,#655,#656,#657,#658,#659,#660,#661,#662,
#663,#664,#665,#666,#667,#668,#669,#670,#671,#672,#673,#674,#675,#676,#677,
#678,#679,#680,#681,#682,#683,#684,#685,#686,#687,#688,#689,#690,#691,#692,
#693,#694,#695,#696,#697,#698,#699,#700,#701,#702,#703,#704,#705,#706,#707,
#708,#709,#710,#711,#712,#713,#714,#715,#716,#717,#718,#719,#720,#721,#722,
#723,#724,#725,#726,#727,#728,#729,#730,#731,#732,#733,#734,#735,#736,#737,
#738,#739,#740,#741,#742,#743,#744,#745,#746,#747,#748,#749,#750,#751,#752,
#753,#754,#755,#756,#757,#758,#759,#760,#761,#762,#763,#764,#765,#766,#767,
#768,#769,#770,#771,#772,#773,#774,#775,#776,#777,#778,#779,#780,#781,#782,
#783,#784,#785,#786,#787,#788,#789,#790,#791,#792,#793,#794,#795,#796,#797,
#798,#799,#800,#801,#802,#803,#804,#805,#806,#807,#808,#809,#810,#811,#812,
#813,#814,#815,#816,#817,#818,#819,#820,#821,#822,#823,#824,#825,#826,#827,
#828,#829,#830,#831,#832,#833,#834,#835,#836,#837,#838,#839,#840,#841,#842,
#843,#844,#845),.UNSPECIFIED.,.F.,.F.,(4,3,3,3,3,3,3,3,3,3,3,3,3,3,3,3,
3,3,3,3,3,3,3,3,3,3,3,3,3,3,3,3,3,3,3,3,3,3,3,3,3,3,3,3,3,3,3,3,3,3,3,3,
3,3,3,3,3,3,3,3,3,3,3,3,3,3,3,3,3,3,3,3,3,3,3,3,3,3,4),(1.6955011109638,
1.73266590859136,1.76928284404539,1.80540704353258,1.84109200658433,1.8763897809359,
1.91135113041514,1.94770994497238,1.98350065305217,2.01873213131821,2.05341311773634,
2.08755221374169,2.12152172949443,2.15551547653807,2.18957865794916,2.22375660249577,
2.25809489791256,2.29263952475092,2.32743699137052,2.36253447064952,2.39797993900509,
2.4338223183343,2.47011162150778,2.50689910207343,2.53395247957351,2.5406270603211,
2.54294533636053,2.54527997158456,2.58231555606171,2.61882039959455,2.6548483442739,
2.69045168623607,2.72568134364568,2.76058701812695,2.79521735040698,2.8296200708912,
2.86384214585543,2.89792991990798,2.93192925534937,2.96588566903503,2.99984446733242,
3.03385087974759,3.06795019179295,3.10218787765998,3.13769185842307,3.17250678403465,
3.20761756149359,3.24307076693052,3.27891388669189,3.31519545270308,3.35196518171715,
3.37966362172845,3.38637183766869,3.38994091678777,3.3922323728466,3.42927806182304,
3.46579954624349,3.50184900096847,3.5374771313021,3.57273333037701,3.60766583038122,
3.64232184832014,3.67674772697375,3.71184569791781,3.74591226088983,3.77990618887251,
3.81386885255088,3.84784150042999,3.8818653650264,3.9159817683824,3.95023222737206,
3.98624260671039,4.02103755021944,4.05609143833182,4.09144317679191,4.12816119811361,
4.16442950982504,4.20137238595187,4.23831526207869),.UNSPECIFIED.);
#23=B_SPLINE_CURVE_WITH_KNOTS('',3,(#971,#972,#973,#974,#975,#976,#977),
 .UNSPECIFIED.,.F.,.F.,(4,3,4),(0.,0.352984628831786,0.995260005518165),
 .UNSPECIFIED.);
#24=(
BOUNDED_CURVE()
B_SPLINE_CURVE(2,(#518,#519,#520),.UNSPECIFIED.,.F.,.F.)
B_SPLINE_CURVE_WITH_KNOTS((3,3),(9596.31894375779,9598.68825766155),
 .UNSPECIFIED.)
CURVE()
GEOMETRIC_REPRESENTATION_ITEM()
RATIONAL_B_SPLINE_CURVE((1.00000000022781,1.00000000022781,1.00000000022782))
REPRESENTATION_ITEM('')
);
#25=(
BOUNDED_CURVE()
B_SPLINE_CURVE(2,(#524,#525,#526),.UNSPECIFIED.,.F.,.F.)
B_SPLINE_CURVE_WITH_KNOTS((3,3),(10442.3048859787,10444.6741998828),
 .UNSPECIFIED.)
CURVE()
GEOMETRIC_REPRESENTATION_ITEM()
RATIONAL_B_SPLINE_CURVE((1.00000000022782,1.00000000022781,1.00000000022781))
REPRESENTATION_ITEM('')
);
#26=(
BOUNDED_CURVE()
B_SPLINE_CURVE(2,(#530,#531,#532),.UNSPECIFIED.,.F.,.F.)
B_SPLINE_CURVE_WITH_KNOTS((3,3),(9596.31893906834,9598.68825293987),
 .UNSPECIFIED.)
CURVE()
GEOMETRIC_REPRESENTATION_ITEM()
RATIONAL_B_SPLINE_CURVE((1.,1.,1.))
REPRESENTATION_ITEM('')
);
#27=(
BOUNDED_CURVE()
B_SPLINE_CURVE(2,(#849,#850,#851),.UNSPECIFIED.,.F.,.F.)
B_SPLINE_CURVE_WITH_KNOTS((3,3),(10442.3048915786,10444.6742054523),
 .UNSPECIFIED.)
CURVE()
GEOMETRIC_REPRESENTATION_ITEM()
RATIONAL_B_SPLINE_CURVE((1.,1.,1.))
REPRESENTATION_ITEM('')
);
#28=PLANE('',#361);
#29=PLANE('',#365);
#30=PLANE('',#369);
#31=PLANE('',#382);
#32=PLANE('',#386);
#33=PLANE('',#387);
#34=PLANE('',#388);
#35=PLANE('',#389);
#36=PLANE('',#390);
#37=PLANE('',#391);
#38=PLANE('',#392);
#39=PLANE('',#393);
#40=PLANE('',#394);
#41=FACE_OUTER_BOUND('',#62,.T.);
#42=FACE_OUTER_BOUND('',#63,.T.);
#43=FACE_OUTER_BOUND('',#64,.T.);
#44=FACE_OUTER_BOUND('',#65,.T.);
#45=FACE_OUTER_BOUND('',#66,.T.);
#46=FACE_OUTER_BOUND('',#67,.T.);
#47=FACE_OUTER_BOUND('',#68,.T.);
#48=FACE_OUTER_BOUND('',#69,.T.);
#49=FACE_OUTER_BOUND('',#70,.T.);
#50=FACE_OUTER_BOUND('',#71,.T.);
#51=FACE_OUTER_BOUND('',#72,.T.);
#52=FACE_OUTER_BOUND('',#77,.T.);
#53=FACE_OUTER_BOUND('',#78,.T.);
#54=FACE_OUTER_BOUND('',#79,.T.);
#55=FACE_OUTER_BOUND('',#80,.T.);
#56=FACE_OUTER_BOUND('',#81,.T.);
#57=FACE_OUTER_BOUND('',#82,.T.);
#58=FACE_OUTER_BOUND('',#83,.T.);
#59=FACE_OUTER_BOUND('',#84,.T.);
#60=FACE_OUTER_BOUND('',#85,.T.);
#61=FACE_OUTER_BOUND('',#86,.T.);
#62=EDGE_LOOP('',(#225,#226,#227,#228));
#63=EDGE_LOOP('',(#229));
#64=EDGE_LOOP('',(#230,#231,#232,#233));
#65=EDGE_LOOP('',(#234));
#66=EDGE_LOOP('',(#235,#236,#237,#238));
#67=EDGE_LOOP('',(#239));
#68=EDGE_LOOP('',(#240,#241,#242,#243,#244,#245,#246,#247,#248,#249,#250,
#251,#252));
#69=EDGE_LOOP('',(#253,#254,#255,#256));
#70=EDGE_LOOP('',(#257,#258,#259,#260));
#71=EDGE_LOOP('',(#261,#262,#263,#264,#265));
#72=EDGE_LOOP('',(#266,#267,#268,#269,#270,#271,#272,#273,#274));
#73=EDGE_LOOP('',(#275));
#74=EDGE_LOOP('',(#276));
#75=EDGE_LOOP('',(#277));
#76=EDGE_LOOP('',(#278));
#77=EDGE_LOOP('',(#279,#280,#281,#282,#283));
#78=EDGE_LOOP('',(#284));
#79=EDGE_LOOP('',(#285,#286,#287,#288));
#80=EDGE_LOOP('',(#289,#290,#291,#292));
#81=EDGE_LOOP('',(#293,#294,#295,#296));
#82=EDGE_LOOP('',(#297,#298,#299,#300));
#83=EDGE_LOOP('',(#301,#302,#303,#304));
#84=EDGE_LOOP('',(#305,#306,#307,#308));
#85=EDGE_LOOP('',(#309,#310,#311,#312));
#86=EDGE_LOOP('',(#313,#314,#315,#316));
#87=LINE('',#498,#109);
#88=LINE('',#505,#110);
#89=LINE('',#512,#111);
#90=LINE('',#536,#112);
#91=LINE('',#982,#113);
#92=LINE('',#986,#114);
#93=LINE('',#992,#115);
#94=LINE('',#994,#116);
#95=LINE('',#995,#117);
#96=LINE('',#997,#118);
#97=LINE('',#999,#119);
#98=LINE('',#1000,#120);
#99=LINE('',#1008,#121);
#100=LINE('',#1009,#122);
#101=LINE('',#1012,#123);
#102=LINE('',#1013,#124);
#103=LINE('',#1015,#125);
#104=LINE('',#1019,#126);
#105=LINE('',#1020,#127);
#106=LINE('',#1023,#128);
#107=LINE('',#1024,#129);
#108=LINE('',#1026,#130);
#109=VECTOR('',#401,0.374999999999997);
#110=VECTOR('',#410,0.374999999999997);
#111=VECTOR('',#419,0.374999999999997);
#112=VECTOR('',#432,5.5);
#113=VECTOR('',#441,3.94135476391314);
#114=VECTOR('',#446,3.625);
#115=VECTOR('',#453,10.);
#116=VECTOR('',#454,10.);
#117=VECTOR('',#455,10.);
#118=VECTOR('',#456,10.);
#119=VECTOR('',#457,10.);
#120=VECTOR('',#458,10.);
#121=VECTOR('',#469,10.);
#122=VECTOR('',#470,10.);
#123=VECTOR('',#473,10.);
#124=VECTOR('',#474,10.);
#125=VECTOR('',#477,10.);
#126=VECTOR('',#482,10.);
#127=VECTOR('',#483,10.);
#128=VECTOR('',#486,10.);
#129=VECTOR('',#487,10.);
#130=VECTOR('',#490,10.);
#131=CIRCLE('',#359,0.374999999999996);
#132=CIRCLE('',#360,0.364084764272868);
#133=CIRCLE('',#363,0.374999999999996);
#134=CIRCLE('',#364,0.364084764272868);
#135=CIRCLE('',#367,0.374999999999996);
#136=CIRCLE('',#368,0.364084764272868);
#137=CIRCLE('',#371,5.50872754136996);
#138=CIRCLE('',#372,5.47381741151352);
#139=CIRCLE('',#373,5.50872754136996);
#140=CIRCLE('',#374,5.50872754136996);
#141=CIRCLE('',#375,5.47381741151352);
#142=CIRCLE('',#377,3.68262988973752);
#143=CIRCLE('',#378,4.20007963808877);
#144=CIRCLE('',#380,3.66834626622626);
#145=CIRCLE('',#381,3.66834626622626);
#146=CIRCLE('',#384,0.25);
#147=CIRCLE('',#385,3.41849855947149);
#148=VERTEX_POINT('',#495);
#149=VERTEX_POINT('',#497);
#150=VERTEX_POINT('',#502);
#151=VERTEX_POINT('',#504);
#152=VERTEX_POINT('',#509);
#153=VERTEX_POINT('',#511);
#154=VERTEX_POINT('',#516);
#155=VERTEX_POINT('',#517);
#156=VERTEX_POINT('',#521);
#157=VERTEX_POINT('',#523);
#158=VERTEX_POINT('',#527);
#159=VERTEX_POINT('',#529);
#160=VERTEX_POINT('',#533);
#161=VERTEX_POINT('',#535);
#162=VERTEX_POINT('',#537);
#163=VERTEX_POINT('',#846);
#164=VERTEX_POINT('',#848);
#165=VERTEX_POINT('',#970);
#166=VERTEX_POINT('',#979);
#167=VERTEX_POINT('',#981);
#168=VERTEX_POINT('',#985);
#169=VERTEX_POINT('',#987);
#170=VERTEX_POINT('',#991);
#171=VERTEX_POINT('',#993);
#172=VERTEX_POINT('',#996);
#173=VERTEX_POINT('',#998);
#174=VERTEX_POINT('',#1002);
#175=VERTEX_POINT('',#1007);
#176=VERTEX_POINT('',#1011);
#177=VERTEX_POINT('',#1018);
#178=VERTEX_POINT('',#1022);
#179=EDGE_CURVE('',#148,#148,#131,.T.);
#180=EDGE_CURVE('',#148,#149,#87,.T.);
#181=EDGE_CURVE('',#149,#149,#132,.T.);
#182=EDGE_CURVE('',#150,#150,#133,.T.);
#183=EDGE_CURVE('',#150,#151,#88,.T.);
#184=EDGE_CURVE('',#151,#151,#134,.T.);
#185=EDGE_CURVE('',#152,#152,#135,.T.);
#186=EDGE_CURVE('',#152,#153,#89,.T.);
#187=EDGE_CURVE('',#153,#153,#136,.T.);
#188=EDGE_CURVE('',#154,#155,#24,.F.);
#189=EDGE_CURVE('',#156,#155,#137,.T.);
#190=EDGE_CURVE('',#156,#157,#25,.F.);
#191=EDGE_CURVE('',#157,#158,#138,.F.);
#192=EDGE_CURVE('',#158,#159,#26,.F.);
#193=EDGE_CURVE('',#160,#159,#139,.T.);
#194=EDGE_CURVE('',#160,#161,#90,.T.);
#195=EDGE_CURVE('',#162,#161,#21,.T.);
#196=EDGE_CURVE('',#161,#162,#22,.T.);
#197=EDGE_CURVE('',#163,#160,#140,.T.);
#198=EDGE_CURVE('',#163,#164,#27,.F.);
#199=EDGE_CURVE('',#164,#154,#141,.F.);
#200=EDGE_CURVE('',#165,#162,#23,.T.);
#201=EDGE_CURVE('',#166,#166,#142,.T.);
#202=EDGE_CURVE('',#166,#167,#91,.T.);
#203=EDGE_CURVE('',#167,#167,#143,.T.);
#204=EDGE_CURVE('',#166,#168,#92,.T.);
#205=EDGE_CURVE('',#169,#168,#144,.T.);
#206=EDGE_CURVE('',#168,#169,#145,.T.);
#207=EDGE_CURVE('',#170,#159,#93,.T.);
#208=EDGE_CURVE('',#171,#170,#94,.T.);
#209=EDGE_CURVE('',#156,#171,#95,.T.);
#210=EDGE_CURVE('',#172,#155,#96,.T.);
#211=EDGE_CURVE('',#173,#172,#97,.T.);
#212=EDGE_CURVE('',#163,#173,#98,.T.);
#213=EDGE_CURVE('',#169,#174,#146,.T.);
#214=EDGE_CURVE('',#174,#174,#147,.T.);
#215=EDGE_CURVE('',#175,#154,#99,.F.);
#216=EDGE_CURVE('',#172,#175,#100,.F.);
#217=EDGE_CURVE('',#164,#176,#101,.F.);
#218=EDGE_CURVE('',#176,#175,#102,.F.);
#219=EDGE_CURVE('',#173,#176,#103,.T.);
#220=EDGE_CURVE('',#177,#158,#104,.F.);
#221=EDGE_CURVE('',#170,#177,#105,.F.);
#222=EDGE_CURVE('',#178,#177,#106,.F.);
#223=EDGE_CURVE('',#171,#178,#107,.T.);
#224=EDGE_CURVE('',#157,#178,#108,.F.);
#225=ORIENTED_EDGE('',*,*,#179,.F.);
#226=ORIENTED_EDGE('',*,*,#180,.T.);
#227=ORIENTED_EDGE('',*,*,#181,.F.);
#228=ORIENTED_EDGE('',*,*,#180,.F.);
#229=ORIENTED_EDGE('',*,*,#181,.T.);
#230=ORIENTED_EDGE('',*,*,#182,.F.);
#231=ORIENTED_EDGE('',*,*,#183,.T.);
#232=ORIENTED_EDGE('',*,*,#184,.F.);
#233=ORIENTED_EDGE('',*,*,#183,.F.);
#234=ORIENTED_EDGE('',*,*,#184,.T.);
#235=ORIENTED_EDGE('',*,*,#185,.F.);
#236=ORIENTED_EDGE('',*,*,#186,.T.);
#237=ORIENTED_EDGE('',*,*,#187,.F.);
#238=ORIENTED_EDGE('',*,*,#186,.F.);
#239=ORIENTED_EDGE('',*,*,#187,.T.);
#240=ORIENTED_EDGE('',*,*,#188,.T.);
#241=ORIENTED_EDGE('',*,*,#189,.F.);
#242=ORIENTED_EDGE('',*,*,#190,.T.);
#243=ORIENTED_EDGE('',*,*,#191,.T.);
#244=ORIENTED_EDGE('',*,*,#192,.T.);
#245=ORIENTED_EDGE('',*,*,#193,.F.);
#246=ORIENTED_EDGE('',*,*,#194,.T.);
#247=ORIENTED_EDGE('',*,*,#195,.F.);
#248=ORIENTED_EDGE('',*,*,#196,.F.);
#249=ORIENTED_EDGE('',*,*,#194,.F.);
#250=ORIENTED_EDGE('',*,*,#197,.F.);
#251=ORIENTED_EDGE('',*,*,#198,.T.);
#252=ORIENTED_EDGE('',*,*,#199,.T.);
#253=ORIENTED_EDGE('',*,*,#195,.T.);
#254=ORIENTED_EDGE('',*,*,#196,.T.);
#255=ORIENTED_EDGE('',*,*,#200,.F.);
#256=ORIENTED_EDGE('',*,*,#200,.T.);
#257=ORIENTED_EDGE('',*,*,#201,.T.);
#258=ORIENTED_EDGE('',*,*,#202,.T.);
#259=ORIENTED_EDGE('',*,*,#203,.T.);
#260=ORIENTED_EDGE('',*,*,#202,.F.);
#261=ORIENTED_EDGE('',*,*,#201,.F.);
#262=ORIENTED_EDGE('',*,*,#204,.T.);
#263=ORIENTED_EDGE('',*,*,#205,.F.);
#264=ORIENTED_EDGE('',*,*,#206,.F.);
#265=ORIENTED_EDGE('',*,*,#204,.F.);
#266=ORIENTED_EDGE('',*,*,#197,.T.);
#267=ORIENTED_EDGE('',*,*,#193,.T.);
#268=ORIENTED_EDGE('',*,*,#207,.F.);
#269=ORIENTED_EDGE('',*,*,#208,.F.);
#270=ORIENTED_EDGE('',*,*,#209,.F.);
#271=ORIENTED_EDGE('',*,*,#189,.T.);
#272=ORIENTED_EDGE('',*,*,#210,.F.);
#273=ORIENTED_EDGE('',*,*,#211,.F.);
#274=ORIENTED_EDGE('',*,*,#212,.F.);
#275=ORIENTED_EDGE('',*,*,#179,.T.);
#276=ORIENTED_EDGE('',*,*,#182,.T.);
#277=ORIENTED_EDGE('',*,*,#185,.T.);
#278=ORIENTED_EDGE('',*,*,#203,.F.);
#279=ORIENTED_EDGE('',*,*,#206,.T.);
#280=ORIENTED_EDGE('',*,*,#213,.T.);
#281=ORIENTED_EDGE('',*,*,#214,.T.);
#282=ORIENTED_EDGE('',*,*,#213,.F.);
#283=ORIENTED_EDGE('',*,*,#205,.T.);
#284=ORIENTED_EDGE('',*,*,#214,.F.);
#285=ORIENTED_EDGE('',*,*,#188,.F.);
#286=ORIENTED_EDGE('',*,*,#215,.F.);
#287=ORIENTED_EDGE('',*,*,#216,.F.);
#288=ORIENTED_EDGE('',*,*,#210,.T.);
#289=ORIENTED_EDGE('',*,*,#199,.F.);
#290=ORIENTED_EDGE('',*,*,#217,.T.);
#291=ORIENTED_EDGE('',*,*,#218,.T.);
#292=ORIENTED_EDGE('',*,*,#215,.T.);
#293=ORIENTED_EDGE('',*,*,#198,.F.);
#294=ORIENTED_EDGE('',*,*,#212,.T.);
#295=ORIENTED_EDGE('',*,*,#219,.T.);
#296=ORIENTED_EDGE('',*,*,#217,.F.);
#297=ORIENTED_EDGE('',*,*,#211,.T.);
#298=ORIENTED_EDGE('',*,*,#216,.T.);
#299=ORIENTED_EDGE('',*,*,#218,.F.);
#300=ORIENTED_EDGE('',*,*,#219,.F.);
#301=ORIENTED_EDGE('',*,*,#192,.F.);
#302=ORIENTED_EDGE('',*,*,#220,.F.);
#303=ORIENTED_EDGE('',*,*,#221,.F.);
#304=ORIENTED_EDGE('',*,*,#207,.T.);
#305=ORIENTED_EDGE('',*,*,#208,.T.);
#306=ORIENTED_EDGE('',*,*,#221,.T.);
#307=ORIENTED_EDGE('',*,*,#222,.F.);
#308=ORIENTED_EDGE('',*,*,#223,.F.);
#309=ORIENTED_EDGE('',*,*,#190,.F.);
#310=ORIENTED_EDGE('',*,*,#209,.T.);
#311=ORIENTED_EDGE('',*,*,#223,.T.);
#312=ORIENTED_EDGE('',*,*,#224,.F.);
#313=ORIENTED_EDGE('',*,*,#191,.F.);
#314=ORIENTED_EDGE('',*,*,#224,.T.);
#315=ORIENTED_EDGE('',*,*,#222,.T.);
#316=ORIENTED_EDGE('',*,*,#220,.T.);
#317=CONICAL_SURFACE('',#358,0.374999999999996,0.0436332312998582);
#318=CONICAL_SURFACE('',#362,0.374999999999996,0.0436332312998582);
#319=CONICAL_SURFACE('',#366,0.374999999999996,0.0436332312998582);
#320=CONICAL_SURFACE('',#370,5.5,0.0174532925199433);
#321=CONICAL_SURFACE('',#376,3.94135476391314,0.802851455917391);
#322=CONICAL_SURFACE('',#379,3.625,0.0349065850398866);
#323=ADVANCED_FACE('',(#41),#317,.F.);
#324=ADVANCED_FACE('',(#42),#28,.T.);
#325=ADVANCED_FACE('',(#43),#318,.F.);
#326=ADVANCED_FACE('',(#44),#29,.T.);
#327=ADVANCED_FACE('',(#45),#319,.F.);
#328=ADVANCED_FACE('',(#46),#30,.T.);
#329=ADVANCED_FACE('',(#47),#320,.T.);
#330=ADVANCED_FACE('',(#48),#20,.F.);
#331=ADVANCED_FACE('',(#49),#321,.F.);
#332=ADVANCED_FACE('',(#50),#322,.F.);
#333=ADVANCED_FACE('',(#51,#16,#17,#18,#19),#31,.F.);
#334=ADVANCED_FACE('',(#52),#15,.F.);
#335=ADVANCED_FACE('',(#53),#32,.F.);
#336=ADVANCED_FACE('',(#54),#33,.T.);
#337=ADVANCED_FACE('',(#55),#34,.F.);
#338=ADVANCED_FACE('',(#56),#35,.T.);
#339=ADVANCED_FACE('',(#57),#36,.T.);
#340=ADVANCED_FACE('',(#58),#37,.T.);
#341=ADVANCED_FACE('',(#59),#38,.T.);
#342=ADVANCED_FACE('',(#60),#39,.T.);
#343=ADVANCED_FACE('',(#61),#40,.F.);
#344=CLOSED_SHELL('',(#323,#324,#325,#326,#327,#328,#329,#330,#331,#332,
#333,#334,#335,#336,#337,#338,#339,#340,#341,#342,#343));
#345=DERIVED_UNIT_ELEMENT(#347,1.);
#346=DERIVED_UNIT_ELEMENT(#1033,-3.);
#347=(
MASS_UNIT()
NAMED_UNIT(*)
SI_UNIT(.KILO.,.GRAM.)
);
#348=DERIVED_UNIT((#345,#346));
#349=MEASURE_REPRESENTATION_ITEM('density measure',
POSITIVE_RATIO_MEASURE(7850.),#348);
#350=PROPERTY_DEFINITION_REPRESENTATION(#355,#352);
#351=PROPERTY_DEFINITION_REPRESENTATION(#356,#353);
#352=REPRESENTATION('material name',(#354),#1030);
#353=REPRESENTATION('density',(#349),#1030);
#354=DESCRIPTIVE_REPRESENTATION_ITEM('Steel','Steel');
#355=PROPERTY_DEFINITION('material property','material name',#1040);
#356=PROPERTY_DEFINITION('material property','density of part',#1040);
#357=AXIS2_PLACEMENT_3D('',#493,#395,#396);
#358=AXIS2_PLACEMENT_3D('',#494,#397,#398);
#359=AXIS2_PLACEMENT_3D('',#496,#399,#400);
#360=AXIS2_PLACEMENT_3D('',#499,#402,#403);
#361=AXIS2_PLACEMENT_3D('',#500,#404,#405);
#362=AXIS2_PLACEMENT_3D('',#501,#406,#407);
#363=AXIS2_PLACEMENT_3D('',#503,#408,#409);
#364=AXIS2_PLACEMENT_3D('',#506,#411,#412);
#365=AXIS2_PLACEMENT_3D('',#507,#413,#414);
#366=AXIS2_PLACEMENT_3D('',#508,#415,#416);
#367=AXIS2_PLACEMENT_3D('',#510,#417,#418);
#368=AXIS2_PLACEMENT_3D('',#513,#420,#421);
#369=AXIS2_PLACEMENT_3D('',#514,#422,#423);
#370=AXIS2_PLACEMENT_3D('',#515,#424,#425);
#371=AXIS2_PLACEMENT_3D('',#522,#426,#427);
#372=AXIS2_PLACEMENT_3D('',#528,#428,#429);
#373=AXIS2_PLACEMENT_3D('',#534,#430,#431);
#374=AXIS2_PLACEMENT_3D('',#847,#433,#434);
#375=AXIS2_PLACEMENT_3D('',#852,#435,#436);
#376=AXIS2_PLACEMENT_3D('',#978,#437,#438);
#377=AXIS2_PLACEMENT_3D('',#980,#439,#440);
#378=AXIS2_PLACEMENT_3D('',#983,#442,#443);
#379=AXIS2_PLACEMENT_3D('',#984,#444,#445);
#380=AXIS2_PLACEMENT_3D('',#988,#447,#448);
#381=AXIS2_PLACEMENT_3D('',#989,#449,#450);
#382=AXIS2_PLACEMENT_3D('',#990,#451,#452);
#383=AXIS2_PLACEMENT_3D('',#1001,#459,#460);
#384=AXIS2_PLACEMENT_3D('',#1003,#461,#462);
#385=AXIS2_PLACEMENT_3D('',#1004,#463,#464);
#386=AXIS2_PLACEMENT_3D('',#1005,#465,#466);
#387=AXIS2_PLACEMENT_3D('',#1006,#467,#468);
#388=AXIS2_PLACEMENT_3D('',#1010,#471,#472);
#389=AXIS2_PLACEMENT_3D('',#1014,#475,#476);
#390=AXIS2_PLACEMENT_3D('',#1016,#478,#479);
#391=AXIS2_PLACEMENT_3D('',#1017,#480,#481);
#392=AXIS2_PLACEMENT_3D('',#1021,#484,#485);
#393=AXIS2_PLACEMENT_3D('',#1025,#488,#489);
#394=AXIS2_PLACEMENT_3D('',#1027,#491,#492);
#395=DIRECTION('axis',(0.,0.,1.));
#396=DIRECTION('refdir',(1.,0.,0.));
#397=DIRECTION('center_axis',(0.,0.,-1.));
#398=DIRECTION('ref_axis',(1.,-3.37350334183377E-80,-1.23259516440783E-32));
#399=DIRECTION('center_axis',(0.,0.,1.));
#400=DIRECTION('ref_axis',(1.,-3.37350334183377E-80,-1.23259516440783E-32));
#401=DIRECTION('',(0.043619387365336,5.34183431177272E-18,0.999048221581858));
#402=DIRECTION('center_axis',(-1.23259516440783E-32,-2.1570415377137E-32,
-1.));
#403=DIRECTION('ref_axis',(1.,-3.37350334183377E-80,-1.23259516440783E-32));
#404=DIRECTION('center_axis',(-1.23259516440783E-32,-2.1570415377137E-32,
-1.));
#405=DIRECTION('ref_axis',(1.,-3.37350334183377E-80,-1.23259516440783E-32));
#406=DIRECTION('center_axis',(0.,0.,-1.));
#407=DIRECTION('ref_axis',(1.,-3.37350334183377E-80,-1.23259516440783E-32));
#408=DIRECTION('center_axis',(0.,0.,1.));
#409=DIRECTION('ref_axis',(1.,-3.37350334183377E-80,-1.23259516440783E-32));
#410=DIRECTION('',(0.043619387365336,5.34183431177272E-18,0.999048221581858));
#411=DIRECTION('center_axis',(-1.23259516440783E-32,-2.1570415377137E-32,
-1.));
#412=DIRECTION('ref_axis',(1.,-3.37350334183377E-80,-1.23259516440783E-32));
#413=DIRECTION('center_axis',(-1.23259516440783E-32,-2.1570415377137E-32,
-1.));
#414=DIRECTION('ref_axis',(1.,-3.37350334183377E-80,-1.23259516440783E-32));
#415=DIRECTION('center_axis',(0.,0.,-1.));
#416=DIRECTION('ref_axis',(1.,-3.37350334183377E-80,-1.23259516440783E-32));
#417=DIRECTION('center_axis',(0.,0.,1.));
#418=DIRECTION('ref_axis',(1.,-3.37350334183377E-80,-1.23259516440783E-32));
#419=DIRECTION('',(0.043619387365336,5.34183431177272E-18,0.999048221581858));
#420=DIRECTION('center_axis',(-1.23259516440783E-32,-2.1570415377137E-32,
-1.));
#421=DIRECTION('ref_axis',(1.,-3.37350334183377E-80,-1.23259516440783E-32));
#422=DIRECTION('center_axis',(-1.23259516440783E-32,-2.1570415377137E-32,
-1.));
#423=DIRECTION('ref_axis',(1.,-3.37350334183377E-80,-1.23259516440783E-32));
#424=DIRECTION('center_axis',(0.,0.,-1.));
#425=DIRECTION('ref_axis',(-1.,0.,0.));
#426=DIRECTION('center_axis',(0.,0.,-1.));
#427=DIRECTION('ref_axis',(-1.,0.,0.));
#428=DIRECTION('center_axis',(0.,0.,-1.));
#429=DIRECTION('ref_axis',(-1.,0.,0.));
#430=DIRECTION('center_axis',(0.,0.,-1.));
#431=DIRECTION('ref_axis',(-1.,0.,0.));
#432=DIRECTION('',(-0.0174524064372835,2.13730336808379E-18,0.999847695156391));
#433=DIRECTION('center_axis',(0.,0.,-1.));
#434=DIRECTION('ref_axis',(-1.,0.,0.));
#435=DIRECTION('center_axis',(0.,0.,-1.));
#436=DIRECTION('ref_axis',(-1.,0.,0.));
#437=DIRECTION('center_axis',(0.,0.,-1.));
#438=DIRECTION('ref_axis',(1.18310210543844E-16,-1.,0.));
#439=DIRECTION('center_axis',(0.,0.,1.));
#440=DIRECTION('ref_axis',(0.,-1.,0.));
#441=DIRECTION('',(-1.73198961629035E-16,0.719339800338651,-0.694658370458997));
#442=DIRECTION('center_axis',(0.,0.,-1.));
#443=DIRECTION('ref_axis',(2.22044604925031E-16,-1.,0.));
#444=DIRECTION('center_axis',(0.,0.,-1.));
#445=DIRECTION('ref_axis',(2.22044604925031E-16,-1.,0.));
#446=DIRECTION('',(1.20232006502464E-17,-0.034899496702501,0.999390827019096));
#447=DIRECTION('center_axis',(0.,0.,-1.));
#448=DIRECTION('ref_axis',(0.,-1.,0.));
#449=DIRECTION('center_axis',(0.,0.,-1.));
#450=DIRECTION('ref_axis',(0.,-1.,0.));
#451=DIRECTION('center_axis',(0.,0.,1.));
#452=DIRECTION('ref_axis',(-1.,0.,0.));
#453=DIRECTION('',(0.,1.,0.));
#454=DIRECTION('',(1.,0.,0.));
#455=DIRECTION('',(0.,-1.,0.));
#456=DIRECTION('',(0.,-1.,0.));
#457=DIRECTION('',(-1.,0.,0.));
#458=DIRECTION('',(0.,1.,0.));
#459=DIRECTION('center_axis',(0.,0.,-1.));
#460=DIRECTION('ref_axis',(-1.,0.,0.));
#461=DIRECTION('center_axis',(-1.22946239842315E-16,-1.,0.));
#462=DIRECTION('ref_axis',(1.,-1.22946239842315E-16,0.));
#463=DIRECTION('center_axis',(0.,0.,1.));
#464=DIRECTION('ref_axis',(0.,-1.,0.));
#465=DIRECTION('center_axis',(0.,0.,1.));
#466=DIRECTION('ref_axis',(2.22044604925031E-16,-1.,0.));
#467=DIRECTION('center_axis',(-0.999847695156391,0.,0.0174524064372835));
#468=DIRECTION('ref_axis',(0.,-1.,0.));
#469=DIRECTION('',(0.,1.,0.));
#470=DIRECTION('',(-0.0174497491606827,0.0174497491606827,-0.999695459881887));
#471=DIRECTION('center_axis',(0.,0.,-1.));
#472=DIRECTION('ref_axis',(1.,0.,0.));
#473=DIRECTION('',(0.,-1.,0.));
#474=DIRECTION('',(1.,0.,0.));
#475=DIRECTION('center_axis',(0.999847695156391,0.,0.0174524064372835));
#476=DIRECTION('ref_axis',(0.,1.,0.));
#477=DIRECTION('',(-0.0174497491606827,-0.0174497491606827,0.999695459881887));
#478=DIRECTION('center_axis',(0.,0.999847695156391,0.0174524064372835));
#479=DIRECTION('ref_axis',(-1.,0.,0.));
#480=DIRECTION('center_axis',(0.999847695156391,0.,0.0174524064372835));
#481=DIRECTION('ref_axis',(0.,1.,0.));
#482=DIRECTION('',(0.,-1.,0.));
#483=DIRECTION('',(0.0174497491606827,-0.0174497491606827,-0.999695459881887));
#484=DIRECTION('center_axis',(0.,-0.999847695156391,0.0174524064372835));
#485=DIRECTION('ref_axis',(1.,0.,0.));
#486=DIRECTION('',(-1.,0.,0.));
#487=DIRECTION('',(0.0174497491606827,0.0174497491606827,0.999695459881887));
#488=DIRECTION('center_axis',(-0.999847695156391,0.,0.0174524064372835));
#489=DIRECTION('ref_axis',(0.,-1.,0.));
#490=DIRECTION('',(0.,1.,0.));
#491=DIRECTION('center_axis',(0.,0.,-1.));
#492=DIRECTION('ref_axis',(1.,0.,0.));
#493=CARTESIAN_POINT('',(0.,0.,0.));
#494=CARTESIAN_POINT('Origin',(48.1839567199896,-1.05979732184551,10.09));
#495=CARTESIAN_POINT('',(47.8089567199896,-1.05979732184551,10.09));
#496=CARTESIAN_POINT('Origin',(48.1839567199896,-1.05979732184551,10.09));
#497=CARTESIAN_POINT('',(47.8198719557167,-1.05979732184551,10.34));
#498=CARTESIAN_POINT('',(47.8089567199896,-1.05979732184551,10.09));
#499=CARTESIAN_POINT('Origin',(48.1839567199896,-1.05979732184551,10.34));
#500=CARTESIAN_POINT('Origin',(39.5355607481765,0.195475046901714,10.34));
#501=CARTESIAN_POINT('Origin',(48.668473769137,-2.22952495309828,10.09));
#502=CARTESIAN_POINT('',(48.293473769137,-2.22952495309828,10.09));
#503=CARTESIAN_POINT('Origin',(48.668473769137,-2.22952495309828,10.09));
#504=CARTESIAN_POINT('',(48.3043890048642,-2.22952495309828,10.34));
#505=CARTESIAN_POINT('',(48.293473769137,-2.22952495309828,10.09));
#506=CARTESIAN_POINT('Origin',(48.668473769137,-2.22952495309828,10.34));
#507=CARTESIAN_POINT('Origin',(39.5355607481765,0.195475046901714,10.34));
#508=CARTESIAN_POINT('Origin',(48.0186969774916,0.195475046901715,10.09));
#509=CARTESIAN_POINT('',(47.6436969774916,0.195475046901715,10.09));
#510=CARTESIAN_POINT('Origin',(48.0186969774916,0.195475046901715,10.09));
#511=CARTESIAN_POINT('',(47.6546122132187,0.195475046901715,10.34));
#512=CARTESIAN_POINT('',(47.6436969774916,0.195475046901715,10.09));
#513=CARTESIAN_POINT('Origin',(48.0186969774916,0.195475046901715,10.34));
#514=CARTESIAN_POINT('Origin',(39.5355607481765,0.195475046901714,10.34));
#515=CARTESIAN_POINT('Origin',(52.8686969774916,0.195475046901716,10.5900005102158));
#516=CARTESIAN_POINT('',(52.1448795763821,5.62122526455202,12.0899999999999));
#517=CARTESIAN_POINT('',(52.1099694465262,5.65170191708306,10.09));
#518=CARTESIAN_POINT('Ctrl Pts',(52.1099694466084,5.65170191648905,10.0899999993011));
#519=CARTESIAN_POINT('Ctrl Pts',(52.1274733971489,5.63646359022086,11.092800654142));
#520=CARTESIAN_POINT('Ctrl Pts',(52.1448795764947,5.62122526395267,12.0900000010045));
#521=CARTESIAN_POINT('',(52.1099694465262,-5.26075182327963,10.09));
#522=CARTESIAN_POINT('Origin',(52.8686969774916,0.195475046901716,10.09));
#523=CARTESIAN_POINT('',(52.1448795763821,-5.23027517074859,12.0899999999999));
#524=CARTESIAN_POINT('Ctrl Pts',(52.1448795765164,-5.23027517013025,12.0900000022562));
#525=CARTESIAN_POINT('Ctrl Pts',(52.1274733971683,-5.24551349640046,11.0928006552607));
#526=CARTESIAN_POINT('Ctrl Pts',(52.1099694466256,-5.26075182267066,10.0900000002856));
#527=CARTESIAN_POINT('',(53.5925143786011,-5.23027517074859,12.0899999999999));
#528=CARTESIAN_POINT('Origin',(52.8686969774916,0.195475046901716,12.09));
#529=CARTESIAN_POINT('',(53.627424508457,-5.26075182327963,10.09));
#530=CARTESIAN_POINT('Ctrl Pts',(53.6274245082775,-5.26075188965279,10.0900000039124));
#531=CARTESIAN_POINT('Ctrl Pts',(53.6099205577604,-5.24551356358906,11.0928006574227));
#532=CARTESIAN_POINT('Ctrl Pts',(53.5925143784353,-5.23027523752534,12.0900000031008));
#533=CARTESIAN_POINT('',(58.3774245188735,0.195475046901716,10.0899999993116));
#534=CARTESIAN_POINT('Origin',(52.8686969774916,0.195475046901716,10.09));
#535=CARTESIAN_POINT('',(58.2488186643188,0.195475046901716,17.4578244722406));
#536=CARTESIAN_POINT('',(58.3686969774916,0.195475046901716,10.5900005102158));
#537=CARTESIAN_POINT('',(52.8686969774916,-5.18464663992485,17.4578244722693));
#538=CARTESIAN_POINT('Ctrl Pts',(52.8686969774916,-5.18464007676668,17.4578242566104));
#539=CARTESIAN_POINT('Ctrl Pts',(52.9796127385935,-5.18464007676668,17.4578242566104));
#540=CARTESIAN_POINT('Ctrl Pts',(53.0919530557604,-5.18120826413599,17.4578242566104));
#541=CARTESIAN_POINT('Ctrl Pts',(53.2054313201436,-5.17409185615518,17.4578242566104));
#542=CARTESIAN_POINT('Ctrl Pts',(53.3172982040841,-5.16707650048343,17.4578242566104));
#543=CARTESIAN_POINT('Ctrl Pts',(53.4302707373262,-5.15647995217511,17.4578242566104));
#544=CARTESIAN_POINT('Ctrl Pts',(53.5440313703018,-5.14208640022122,17.4578242566104));
#545=CARTESIAN_POINT('Ctrl Pts',(53.656315970426,-5.12787960316641,17.4578242566104));
#546=CARTESIAN_POINT('Ctrl Pts',(53.7693680572176,-5.10997323701763,17.4578242566104));
#547=CARTESIAN_POINT('Ctrl Pts',(53.8828438328035,-5.0881927037982,17.4578242566104));
#548=CARTESIAN_POINT('Ctrl Pts',(53.9949876240805,-5.06666783156313,17.4578242566104));
#549=CARTESIAN_POINT('Ctrl Pts',(54.1075448431914,-5.04135880480068,17.4578242566104));
#550=CARTESIAN_POINT('Ctrl Pts',(54.2201507936689,-5.01213585702198,17.4578242566104));
#551=CARTESIAN_POINT('Ctrl Pts',(54.3315754706007,-4.98321946760004,17.4578242566104));
#552=CARTESIAN_POINT('Ctrl Pts',(54.443047420717,-4.95047050691552,17.4578242566104));
#553=CARTESIAN_POINT('Ctrl Pts',(54.5541869662446,-4.91380692239092,17.4578242566104));
#554=CARTESIAN_POINT('Ctrl Pts',(54.6643003841027,-4.87748184490591,17.4578242566104));
#555=CARTESIAN_POINT('Ctrl Pts',(54.7740870100491,-4.8373138396013,17.4578242566104));
#556=CARTESIAN_POINT('Ctrl Pts',(54.8831585587685,-4.79327061523467,17.4578242566104));
#557=CARTESIAN_POINT('Ctrl Pts',(54.9913611856227,-4.7495782625767,17.4578242566104));
#558=CARTESIAN_POINT('Ctrl Pts',(55.0988595451428,-4.70207202301108,17.4578242566104));
#559=CARTESIAN_POINT('Ctrl Pts',(55.2052634447039,-4.65077049869586,17.4578242566104));
#560=CARTESIAN_POINT('Ctrl Pts',(55.3109552112654,-4.59981232183821,17.4578242566104));
#561=CARTESIAN_POINT('Ctrl Pts',(55.4155665562746,-4.54510942296835,17.4578242566104));
#562=CARTESIAN_POINT('Ctrl Pts',(55.5187122610501,-4.48673145653571,17.4578242566104));
#563=CARTESIAN_POINT('Ctrl Pts',(55.6241077158386,-4.42708018617797,17.4578242566104));
#564=CARTESIAN_POINT('Ctrl Pts',(55.7279722444666,-4.36359156765124,17.4578242566104));
#565=CARTESIAN_POINT('Ctrl Pts',(55.8299011653194,-4.29639633392794,17.4578242566104));
#566=CARTESIAN_POINT('Ctrl Pts',(55.928599340556,-4.23133092464465,17.4578242566104));
#567=CARTESIAN_POINT('Ctrl Pts',(56.0254821566552,-4.16279052541439,17.4578242566104));
#568=CARTESIAN_POINT('Ctrl Pts',(56.1201965500413,-4.09094411991274,17.4578242566104));
#569=CARTESIAN_POINT('Ctrl Pts',(56.2147045870285,-4.01925424780565,17.4578242566104));
#570=CARTESIAN_POINT('Ctrl Pts',(56.3070531144245,-3.94427298723941,17.4578242566104));
#571=CARTESIAN_POINT('Ctrl Pts',(56.3969136434154,-3.86621498339637,17.4578242566104));
#572=CARTESIAN_POINT('Ctrl Pts',(56.4866873357462,-3.78823241085132,17.4578242566104));
#573=CARTESIAN_POINT('Ctrl Pts',(56.573977357598,-3.70717935850139,17.4578242566104));
#574=CARTESIAN_POINT('Ctrl Pts',(56.6584859686382,-3.62331247618849,17.4578242566104));
#575=CARTESIAN_POINT('Ctrl Pts',(56.7430154791333,-3.53942485312366,17.4578242566104));
#576=CARTESIAN_POINT('Ctrl Pts',(56.8247617884711,-3.45272241027226,17.4578242566104));
#577=CARTESIAN_POINT('Ctrl Pts',(56.9034634852801,-3.36349923953997,17.4578242566104));
#578=CARTESIAN_POINT('Ctrl Pts',(56.9822801608202,-3.27414571879787,17.4578242566104));
#579=CARTESIAN_POINT('Ctrl Pts',(57.0580429852341,-3.18226457058254,17.4578242566104));
#580=CARTESIAN_POINT('Ctrl Pts',(57.1305317170067,-3.08818196883358,17.4578242566104));
#581=CARTESIAN_POINT('Ctrl Pts',(57.2032142295067,-2.99384786047714,17.4578242566104));
#582=CARTESIAN_POINT('Ctrl Pts',(57.2726048749332,-2.89730103693629,17.4578242566104));
#583=CARTESIAN_POINT('Ctrl Pts',(57.3385285589112,-2.79889373093256,17.4578242566104));
#584=CARTESIAN_POINT('Ctrl Pts',(57.4047082193909,-2.700104317067,17.4578242566104));
#585=CARTESIAN_POINT('Ctrl Pts',(57.4673937944312,-2.59944050387536,17.4578242566104));
#586=CARTESIAN_POINT('Ctrl Pts',(57.5264583537026,-2.49727405136231,17.4578242566104));
#587=CARTESIAN_POINT('Ctrl Pts',(57.5888531749516,-2.38934710463113,17.4578242566104));
#588=CARTESIAN_POINT('Ctrl Pts',(57.6472065874901,-2.2797439139018,17.4578242566104));
#589=CARTESIAN_POINT('Ctrl Pts',(57.7014309913928,-2.16891085535852,17.4578242566104));
#590=CARTESIAN_POINT('Ctrl Pts',(57.7535743139292,-2.06233146483747,17.4578242566104));
#591=CARTESIAN_POINT('Ctrl Pts',(57.801899972146,-1.95461540647608,17.4578242566104));
#592=CARTESIAN_POINT('Ctrl Pts',(57.8463847059692,-1.84615754043828,17.4578242566104));
#593=CARTESIAN_POINT('Ctrl Pts',(57.8911989273544,-1.73689635346772,17.4578242566104));
#594=CARTESIAN_POINT('Ctrl Pts',(57.9321152844023,-1.62688288808837,17.4578242566104));
#595=CARTESIAN_POINT('Ctrl Pts',(57.9691622425606,-1.51651000669824,17.4578242566104));
#596=CARTESIAN_POINT('Ctrl Pts',(58.0065226891324,-1.4052031587638,17.4578242566104));
#597=CARTESIAN_POINT('Ctrl Pts',(58.0399482386887,-1.29353130183883,17.4578242566104));
#598=CARTESIAN_POINT('Ctrl Pts',(58.0695177539619,-1.1818782102402,17.4578242566104));
#599=CARTESIAN_POINT('Ctrl Pts',(58.1004866191406,-1.06494123956145,17.4578242566104));
#600=CARTESIAN_POINT('Ctrl Pts',(58.1272259355184,-0.948025551907179,17.4578242566104));
#601=CARTESIAN_POINT('Ctrl Pts',(58.1498782743177,-0.83154143494224,17.4578242566104));
#602=CARTESIAN_POINT('Ctrl Pts',(58.1720691945036,-0.717430050444801,17.4578242566104));
#603=CARTESIAN_POINT('Ctrl Pts',(58.1903386160077,-0.603733057885178,17.4578242566104));
#604=CARTESIAN_POINT('Ctrl Pts',(58.204862626008,-0.490801075019099,17.4578242566104));
#605=CARTESIAN_POINT('Ctrl Pts',(58.2198396353769,-0.374346778622968,17.4578242566104));
#606=CARTESIAN_POINT('Ctrl Pts',(58.2308343585704,-0.258706414937203,17.4578242566104));
#607=CARTESIAN_POINT('Ctrl Pts',(58.2380773214274,-0.144221090963745,17.4578242566104));
#608=CARTESIAN_POINT('Ctrl Pts',(58.2453202842844,-0.0297357669902878,17.4578242566104));
#609=CARTESIAN_POINT('Ctrl Pts',(58.24881210116,0.083594398425148,17.4578242566104));
#610=CARTESIAN_POINT('Ctrl Pts',(58.24881210116,0.195475046901716,17.4578242566104));
#611=CARTESIAN_POINT('Ctrl Pts',(58.24881210116,0.195475046901715,17.4578242566103));
#612=CARTESIAN_POINT('Ctrl Pts',(58.24881210116,0.306679894498346,17.4578242566103));
#613=CARTESIAN_POINT('Ctrl Pts',(58.2453623655369,0.419316753671944,17.4578242566103));
#614=CARTESIAN_POINT('Ctrl Pts',(58.2382081617148,0.533096708569963,17.4578242566103));
#615=CARTESIAN_POINT('Ctrl Pts',(58.2311594210703,0.645199384500407,17.4578242566103));
#616=CARTESIAN_POINT('Ctrl Pts',(58.2205141261505,0.758411486581894,17.4578242566103));
#617=CARTESIAN_POINT('Ctrl Pts',(58.2060552453104,0.87241334901745,17.4578242566103));
#618=CARTESIAN_POINT('Ctrl Pts',(58.1917909304694,0.984881144846611,17.4578242566103));
#619=CARTESIAN_POINT('Ctrl Pts',(58.1738145152696,1.09811728845429,17.4578242566103));
#620=CARTESIAN_POINT('Ctrl Pts',(58.1519507845799,1.21177616065327,17.4578242566103));
#621=CARTESIAN_POINT('Ctrl Pts',(58.1303528963799,1.32405304740786,17.4578242566103));
#622=CARTESIAN_POINT('Ctrl Pts',(58.104961246608,1.43674206723362,17.4578242566103));
#623=CARTESIAN_POINT('Ctrl Pts',(58.0756459192632,1.54947706377938,17.4578242566103));
#624=CARTESIAN_POINT('Ctrl Pts',(58.0466486688482,1.66098886396894,17.4578242566103));
#625=CARTESIAN_POINT('Ctrl Pts',(58.0138120896757,1.77254520325433,17.4578242566103));
#626=CARTESIAN_POINT('Ctrl Pts',(57.977054311342,1.88376533403299,17.4578242566103));
#627=CARTESIAN_POINT('Ctrl Pts',(57.9406468732524,1.99392542012085,17.4578242566103));
#628=CARTESIAN_POINT('Ctrl Pts',(57.9003923723718,2.10375517600048,17.4578242566103));
#629=CARTESIAN_POINT('Ctrl Pts',(57.8562589049718,2.21286562967823,17.4578242566103));
#630=CARTESIAN_POINT('Ctrl Pts',(57.8103613472154,2.32633741525337,17.4578242566103));
#631=CARTESIAN_POINT('Ctrl Pts',(57.7602678743851,2.43903070771993,17.4578242566103));
#632=CARTESIAN_POINT('Ctrl Pts',(57.7060019461015,2.550495086007,17.4578242566103));
#633=CARTESIAN_POINT('Ctrl Pts',(57.6525839229473,2.66021783338334,17.4578242566103));
#634=CARTESIAN_POINT('Ctrl Pts',(57.5951228261504,2.7687490723238,17.4578242566103));
#635=CARTESIAN_POINT('Ctrl Pts',(57.5337014308207,2.87565642030633,17.4578242566103));
#636=CARTESIAN_POINT('Ctrl Pts',(57.473239744793,2.98089334097664,17.4578242566103));
#637=CARTESIAN_POINT('Ctrl Pts',(57.4089407009912,3.08455606681019,17.4578242566103));
#638=CARTESIAN_POINT('Ctrl Pts',(57.340941045441,3.18623945430936,17.4578242566103));
#639=CARTESIAN_POINT('Ctrl Pts',(57.2740038845087,3.28633403887886,17.4578242566103));
#640=CARTESIAN_POINT('Ctrl Pts',(57.2034811183068,3.38451007425145,17.4578242566103));
#641=CARTESIAN_POINT('Ctrl Pts',(57.1295565490384,3.48039733753253,17.4578242566103));
#642=CARTESIAN_POINT('Ctrl Pts',(57.0567870511648,3.57478636232485,17.4578242566103));
#643=CARTESIAN_POINT('Ctrl Pts',(56.9807215841917,3.66695709139776,17.4578242566103));
#644=CARTESIAN_POINT('Ctrl Pts',(56.9015829683656,3.75658011815938,17.4578242566103));
#645=CARTESIAN_POINT('Ctrl Pts',(56.8228374603846,3.84575795751721,17.4578242566103));
#646=CARTESIAN_POINT('Ctrl Pts',(56.7410496206412,3.93241288873222,17.4578242566103));
#647=CARTESIAN_POINT('Ctrl Pts',(56.6564811281884,4.0162511423639,17.4578242566103));
#648=CARTESIAN_POINT('Ctrl Pts',(56.5718523109503,4.10014919988348,17.4578242566103));
#649=CARTESIAN_POINT('Ctrl Pts',(56.4844392829022,4.18122615153815,17.4578242566103));
#650=CARTESIAN_POINT('Ctrl Pts',(56.3945408697534,4.25922498892887,17.4578242566103));
#651=CARTESIAN_POINT('Ctrl Pts',(56.3044588334387,4.33738314385318,17.4578242566103));
#652=CARTESIAN_POINT('Ctrl Pts',(56.2118817269385,4.41245026718777,17.4578242566103));
#653=CARTESIAN_POINT('Ctrl Pts',(56.1171402484574,4.48421088153203,17.4578242566103));
#654=CARTESIAN_POINT('Ctrl Pts',(56.0220795740385,4.55621326639706,17.4578242566103));
#655=CARTESIAN_POINT('Ctrl Pts',(55.9248404500966,4.6248865845538,17.4578242566103));
#656=CARTESIAN_POINT('Ctrl Pts',(55.8257795277899,4.69006084924731,17.4578242566103));
#657=CARTESIAN_POINT('Ctrl Pts',(55.7262538465486,4.75554088862083,17.4578242566103));
#658=CARTESIAN_POINT('Ctrl Pts',(55.6248897988682,4.81748882298499,17.4578242566103));
#659=CARTESIAN_POINT('Ctrl Pts',(55.5220635608642,4.87578321177363,17.4578242566103));
#660=CARTESIAN_POINT('Ctrl Pts',(55.4186194621422,4.93442787898938,17.4578242566103));
#661=CARTESIAN_POINT('Ctrl Pts',(55.3136961316092,4.98937492316058,17.4578242566103));
#662=CARTESIAN_POINT('Ctrl Pts',(55.2076824853843,5.04055353313835,17.4578242566103));
#663=CARTESIAN_POINT('Ctrl Pts',(55.100892901783,5.09210673070717,17.4578242566103));
#664=CARTESIAN_POINT('Ctrl Pts',(54.9929975644615,5.13983619359062,17.4578242566103));
#665=CARTESIAN_POINT('Ctrl Pts',(54.8843911484433,5.18372281070783,17.4578242566103));
#666=CARTESIAN_POINT('Ctrl Pts',(54.7748483625435,5.22798780424127,17.4578242566103));
#667=CARTESIAN_POINT('Ctrl Pts',(54.6645827432972,5.26834356985665,17.4578242566103));
#668=CARTESIAN_POINT('Ctrl Pts',(54.5539877118693,5.30482274348157,17.4578242566103));
#669=CARTESIAN_POINT('Ctrl Pts',(54.4422961383635,5.34166360558681,17.4578242566103));
#670=CARTESIAN_POINT('Ctrl Pts',(54.3302691084034,5.37455088501608,17.4578242566103));
#671=CARTESIAN_POINT('Ctrl Pts',(54.2182919072894,5.4035680058829,17.4578242566103));
#672=CARTESIAN_POINT('Ctrl Pts',(54.105060808795,5.4329100544268,17.4578242566103));
#673=CARTESIAN_POINT('Ctrl Pts',(53.9918811260349,5.45829513364724,17.4578242566103));
#674=CARTESIAN_POINT('Ctrl Pts',(53.8791234120104,5.47985553702078,17.4578242566103));
#675=CARTESIAN_POINT('Ctrl Pts',(53.7649597056393,5.50168478020184,17.4578242566103));
#676=CARTESIAN_POINT('Ctrl Pts',(53.6512289517844,5.51959379515393,17.4578242566103));
#677=CARTESIAN_POINT('Ctrl Pts',(53.5382808024172,5.53376093708438,17.4578242566103));
#678=CARTESIAN_POINT('Ctrl Pts',(53.423782107584,5.5481225646953,17.4578242566103));
#679=CARTESIAN_POINT('Ctrl Pts',(53.3100879657468,5.55863936065656,17.4578242566103));
#680=CARTESIAN_POINT('Ctrl Pts',(53.197521511901,5.56553213873006,17.4578242566103));
#681=CARTESIAN_POINT('Ctrl Pts',(53.114740556997,5.57060106229806,17.4578242566103));
#682=CARTESIAN_POINT('Ctrl Pts',(53.0325685998889,5.57371085626759,17.4578242566103));
#683=CARTESIAN_POINT('Ctrl Pts',(52.951119054109,5.57495879027445,17.4578242566103));
#684=CARTESIAN_POINT('Ctrl Pts',(52.9310239081272,5.57526667923569,17.4578242566103));
#685=CARTESIAN_POINT('Ctrl Pts',(52.910972673529,5.57546126863334,17.4578242566103));
#686=CARTESIAN_POINT('Ctrl Pts',(52.8909669314904,5.57554407927243,17.4578242566103));
#687=CARTESIAN_POINT('Ctrl Pts',(52.8840183553666,5.57557284181613,17.4578242566103));
#688=CARTESIAN_POINT('Ctrl Pts',(52.8770752669229,5.57558811983979,17.4578242566103));
#689=CARTESIAN_POINT('Ctrl Pts',(52.870137731044,5.57558997765874,17.4578242566103));
#690=CARTESIAN_POINT('Ctrl Pts',(52.863151239636,5.5755918485876,17.4578242566103));
#691=CARTESIAN_POINT('Ctrl Pts',(52.8561620475118,5.57558011709328,17.4578242566103));
#692=CARTESIAN_POINT('Ctrl Pts',(52.849165891422,5.57555471923022,17.4578242566103));
#693=CARTESIAN_POINT('Ctrl Pts',(52.7381820738169,5.57515181915699,17.4578242566103));
#694=CARTESIAN_POINT('Ctrl Pts',(52.6257917279533,5.57130770089593,17.4578242566103));
#695=CARTESIAN_POINT('Ctrl Pts',(52.5122833690339,5.56377161877921,17.4578242566103));
#696=CARTESIAN_POINT('Ctrl Pts',(52.4004016493171,5.55634353299617,17.4578242566103));
#697=CARTESIAN_POINT('Ctrl Pts',(52.2874339467255,5.54532804801234,17.4578242566103));
#698=CARTESIAN_POINT('Ctrl Pts',(52.1736992614471,5.53051177766734,17.4578242566103));
#699=CARTESIAN_POINT('Ctrl Pts',(52.0614504047811,5.51588906690668,17.4578242566103));
#700=CARTESIAN_POINT('Ctrl Pts',(51.9484547742459,5.49756377562175,17.4578242566103));
#701=CARTESIAN_POINT('Ctrl Pts',(51.8350571283358,5.47536400465099,17.4578242566103));
#702=CARTESIAN_POINT('Ctrl Pts',(51.722995915825,5.45342586623126,17.4578242566103));
#703=CARTESIAN_POINT('Ctrl Pts',(51.6105424846993,5.42770363564874,17.4578242566103));
#704=CARTESIAN_POINT('Ctrl Pts',(51.4980619952049,5.39807040780164,17.4578242566103));
#705=CARTESIAN_POINT('Ctrl Pts',(51.3867620752602,5.36874820355174,17.4578242566103));
#706=CARTESIAN_POINT('Ctrl Pts',(51.2754361057421,5.33559633870986,17.4578242566103));
#707=CARTESIAN_POINT('Ctrl Pts',(51.1644637498312,5.29853568240898,17.4578242566103));
#708=CARTESIAN_POINT('Ctrl Pts',(51.0545119303511,5.26181584747386,17.4578242566103));
#709=CARTESIAN_POINT('Ctrl Pts',(50.9449077488406,5.22125853334069,17.4578242566103));
#710=CARTESIAN_POINT('Ctrl Pts',(50.836039037623,5.17683434366146,17.4578242566103));
#711=CARTESIAN_POINT('Ctrl Pts',(50.7280291022646,5.13276057993322,17.4578242566103));
#712=CARTESIAN_POINT('Ctrl Pts',(50.6207436181203,5.08488054500838,17.4578242566103));
#713=CARTESIAN_POINT('Ctrl Pts',(50.5145719426093,5.03321564185573,17.4578242566103));
#714=CARTESIAN_POINT('Ctrl Pts',(50.4090980925055,4.9818903121525,17.4578242566103));
#715=CARTESIAN_POINT('Ctrl Pts',(50.3047240194334,4.92682964004992,17.4578242566103));
#716=CARTESIAN_POINT('Ctrl Pts',(50.2018337906461,4.86810594250793,17.4578242566103));
#717=CARTESIAN_POINT('Ctrl Pts',(50.0994838289836,4.80969059769878,17.4578242566103));
#718=CARTESIAN_POINT('Ctrl Pts',(49.9986027366029,4.74765063149612,17.4578242566103));
#719=CARTESIAN_POINT('Ctrl Pts',(49.8995624535843,4.68210840866278,17.4578242566103));
#720=CARTESIAN_POINT('Ctrl Pts',(49.8009108436756,4.616823399347,17.4578242566103));
#721=CARTESIAN_POINT('Ctrl Pts',(49.7040861777378,4.54806370500159,17.4578242566103));
#722=CARTESIAN_POINT('Ctrl Pts',(49.6094415652825,4.47599988644083,17.4578242566103));
#723=CARTESIAN_POINT('Ctrl Pts',(49.5150425023919,4.40412303297844,17.4578242566103));
#724=CARTESIAN_POINT('Ctrl Pts',(49.4228127189958,4.32895941193997,17.4578242566103));
#725=CARTESIAN_POINT('Ctrl Pts',(49.3330800804825,4.25072496540356,17.4578242566103));
#726=CARTESIAN_POINT('Ctrl Pts',(49.2434607230772,4.17258928432123,17.4578242566103));
#727=CARTESIAN_POINT('Ctrl Pts',(49.1563326845059,4.0913908507654,17.4578242566103));
#728=CARTESIAN_POINT('Ctrl Pts',(49.0719926141625,4.00738726013587,17.4578242566103));
#729=CARTESIAN_POINT('Ctrl Pts',(48.9876466209816,3.92337777029831,17.4578242566103));
#730=CARTESIAN_POINT('Ctrl Pts',(48.9060893981483,3.83656313417322,17.4578242566103));
#731=CARTESIAN_POINT('Ctrl Pts',(48.8275809910575,3.74723803563176,17.4578242566103));
#732=CARTESIAN_POINT('Ctrl Pts',(48.7489625062039,3.65778769308947,17.4578242566103));
#733=CARTESIAN_POINT('Ctrl Pts',(48.673401725059,3.56582031537247,17.4578242566103));
#734=CARTESIAN_POINT('Ctrl Pts',(48.6011174123926,3.47166237357813,17.4578242566103));
#735=CARTESIAN_POINT('Ctrl Pts',(48.5286356315007,3.37724720859114,17.4578242566103));
#736=CARTESIAN_POINT('Ctrl Pts',(48.4594484882464,3.28063001869278,17.4578242566103));
#737=CARTESIAN_POINT('Ctrl Pts',(48.3937296098606,3.18216314621226,17.4578242566103));
#738=CARTESIAN_POINT('Ctrl Pts',(48.3277440465532,3.08329669858973,17.4578242566103));
#739=CARTESIAN_POINT('Ctrl Pts',(48.2652550995777,2.98256608472909,17.4578242566103));
#740=CARTESIAN_POINT('Ctrl Pts',(48.2063883068062,2.88034312618924,17.4578242566103));
#741=CARTESIAN_POINT('Ctrl Pts',(48.1453443014881,2.77433940947662,17.4578242566103));
#742=CARTESIAN_POINT('Ctrl Pts',(48.0881956808234,2.66673152029193,17.4578242566103));
#743=CARTESIAN_POINT('Ctrl Pts',(48.0350243522982,2.55794149034213,17.4578242566103));
#744=CARTESIAN_POINT('Ctrl Pts',(47.9828849637709,2.4512628385803,17.4578242566103));
#745=CARTESIAN_POINT('Ctrl Pts',(47.9345696792588,2.34344808579555,17.4578242566103));
#746=CARTESIAN_POINT('Ctrl Pts',(47.8901014780712,2.23489300236753,17.4578242566103));
#747=CARTESIAN_POINT('Ctrl Pts',(47.8452553929949,2.12541543464841,17.4578242566103));
#748=CARTESIAN_POINT('Ctrl Pts',(47.8043218918492,2.01518546505222,17.4578242566103));
#749=CARTESIAN_POINT('Ctrl Pts',(47.767271956715,1.90459806802116,17.4578242566103));
#750=CARTESIAN_POINT('Ctrl Pts',(47.7298606814087,1.79293213552327,17.4578242566103));
#751=CARTESIAN_POINT('Ctrl Pts',(47.6964088346562,1.68090229578474,17.4578242566103));
#752=CARTESIAN_POINT('Ctrl Pts',(47.6668363181062,1.56889574874959,17.4578242566103));
#753=CARTESIAN_POINT('Ctrl Pts',(47.6369385630433,1.45565735380167,17.4578242566103));
#754=CARTESIAN_POINT('Ctrl Pts',(47.6110055914724,1.34244323736482,17.4578242566103));
#755=CARTESIAN_POINT('Ctrl Pts',(47.5889081300904,1.22962613392148,17.4578242566103));
#756=CARTESIAN_POINT('Ctrl Pts',(47.5665403644175,1.11542901009346,17.4578242566103));
#757=CARTESIAN_POINT('Ctrl Pts',(47.5481020965538,1.00163907232369,17.4578242566103));
#758=CARTESIAN_POINT('Ctrl Pts',(47.5334176981892,0.888608335506329,17.4578242566103));
#759=CARTESIAN_POINT('Ctrl Pts',(47.5185357234576,0.774056787159345,17.4578242566103));
#760=CARTESIAN_POINT('Ctrl Pts',(47.5075088315008,0.660285326495573,17.4578242566103));
#761=CARTESIAN_POINT('Ctrl Pts',(47.5001186755456,0.547619562406772,17.4578242566103));
#762=CARTESIAN_POINT('Ctrl Pts',(47.4945517106294,0.462749045500153,17.4578242566103));
#763=CARTESIAN_POINT('Ctrl Pts',(47.4910476347663,0.378505115276839,17.4578242566103));
#764=CARTESIAN_POINT('Ctrl Pts',(47.4895026687852,0.2950106340361,17.4578242566103));
#765=CARTESIAN_POINT('Ctrl Pts',(47.4891284973366,0.274789314360609,17.4578242566103));
#766=CARTESIAN_POINT('Ctrl Pts',(47.488869202064,0.254611887768083,17.4578242566103));
#767=CARTESIAN_POINT('Ctrl Pts',(47.4887232452469,0.234479973288325,17.4578242566103));
#768=CARTESIAN_POINT('Ctrl Pts',(47.4886455895135,0.223768869734553,17.4578242566103));
#769=CARTESIAN_POINT('Ctrl Pts',(47.4886000164425,0.213070648590435,17.4578242566103));
#770=CARTESIAN_POINT('Ctrl Pts',(47.4885862919294,0.202385547990647,17.4578242566103));
#771=CARTESIAN_POINT('Ctrl Pts',(47.4885774803796,0.195525392277764,17.4578242566103));
#772=CARTESIAN_POINT('Ctrl Pts',(47.4885817784034,0.188670699590181,17.4578242566103));
#773=CARTESIAN_POINT('Ctrl Pts',(47.4885992155155,0.18180700000807,17.4578242566103));
#774=CARTESIAN_POINT('Ctrl Pts',(47.4888811191675,0.0708424109349052,17.4578242566103));
#775=CARTESIAN_POINT('Ctrl Pts',(47.492601491235,-0.0415341507718228,17.4578242566103));
#776=CARTESIAN_POINT('Ctrl Pts',(47.5000116972322,-0.155034732493863,17.4578242566103));
#777=CARTESIAN_POINT('Ctrl Pts',(47.5073170472029,-0.266929256299563,17.4578242566103));
#778=CARTESIAN_POINT('Ctrl Pts',(47.5182090408851,-0.379916001490482,17.4578242566103));
#779=CARTESIAN_POINT('Ctrl Pts',(47.5329018885789,-0.493676252205618,17.4578242566103));
#780=CARTESIAN_POINT('Ctrl Pts',(47.5474048354368,-0.605966184357485,17.4578242566103));
#781=CARTESIAN_POINT('Ctrl Pts',(47.5656114771597,-0.719009458527873,17.4578242566103));
#782=CARTESIAN_POINT('Ctrl Pts',(47.5876946505496,-0.832461316283759,17.4578242566103));
#783=CARTESIAN_POINT('Ctrl Pts',(47.6095197290624,-0.944587216815555,17.4578242566103));
#784=CARTESIAN_POINT('Ctrl Pts',(47.6351316571073,-1.05711183041187,17.4578242566103));
#785=CARTESIAN_POINT('Ctrl Pts',(47.6646583074015,-1.1696697308169,17.4578242566103));
#786=CARTESIAN_POINT('Ctrl Pts',(47.6938767213636,-1.28105261021511,17.4578242566103));
#787=CARTESIAN_POINT('Ctrl Pts',(47.7269288837348,-1.39246764140233,17.4578242566103));
#788=CARTESIAN_POINT('Ctrl Pts',(47.7638948529342,-1.50353466850314,17.4578242566103));
#789=CARTESIAN_POINT('Ctrl Pts',(47.800521425086,-1.61358195171774,17.4578242566103));
#790=CARTESIAN_POINT('Ctrl Pts',(47.8409905185797,-1.72328709278955,17.4578242566103));
#791=CARTESIAN_POINT('Ctrl Pts',(47.8853323659917,-1.8322615959532,17.4578242566103));
#792=CARTESIAN_POINT('Ctrl Pts',(47.9293232586897,-1.940373592978,17.4578242566103));
#793=CARTESIAN_POINT('Ctrl Pts',(47.9771260063035,-2.04776593253672,17.4578242566103));
#794=CARTESIAN_POINT('Ctrl Pts',(48.0287199222017,-2.15404848951859,17.4578242566103));
#795=CARTESIAN_POINT('Ctrl Pts',(48.0799712197716,-2.25962525878568,17.4578242566103));
#796=CARTESIAN_POINT('Ctrl Pts',(48.1349635658568,-2.36410637289841,17.4578242566103));
#797=CARTESIAN_POINT('Ctrl Pts',(48.1936252362565,-2.46710696277066,17.4578242566103));
#798=CARTESIAN_POINT('Ctrl Pts',(48.2534321513955,-2.57211842077677,17.4578242566103));
#799=CARTESIAN_POINT('Ctrl Pts',(48.3170532493214,-2.6755903349007,17.4578242566103));
#800=CARTESIAN_POINT('Ctrl Pts',(48.3843565910118,-2.77712146828691,17.4578242566103));
#801=CARTESIAN_POINT('Ctrl Pts',(48.4496821202731,-2.87566895283052,17.4578242566103));
#802=CARTESIAN_POINT('Ctrl Pts',(48.5184762946376,-2.97238753572905,17.4578242566103));
#803=CARTESIAN_POINT('Ctrl Pts',(48.5905683189668,-3.0669249783917,17.4578242566103));
#804=CARTESIAN_POINT('Ctrl Pts',(48.662506632356,-3.1612608531373,17.4578242566103));
#805=CARTESIAN_POINT('Ctrl Pts',(48.7377285162377,-3.25342435487417,17.4578242566103));
#806=CARTESIAN_POINT('Ctrl Pts',(48.8160176367732,-3.34308806617677,17.4578242566103));
#807=CARTESIAN_POINT('Ctrl Pts',(48.8942347546001,-3.43266931353,17.4578242566103));
#808=CARTESIAN_POINT('Ctrl Pts',(48.9755131464904,-3.51975489031717,17.4578242566103));
#809=CARTESIAN_POINT('Ctrl Pts',(49.059594633228,-3.60404835411204,17.4578242566103));
#810=CARTESIAN_POINT('Ctrl Pts',(49.1437008378867,-3.68836659814417,17.4578242566103));
#811=CARTESIAN_POINT('Ctrl Pts',(49.2306113807036,-3.7698906756183,17.4578242566103));
#812=CARTESIAN_POINT('Ctrl Pts',(49.3200308325221,-3.84836067373194,17.4578242566103));
#813=CARTESIAN_POINT('Ctrl Pts',(49.4095850919305,-3.92694897218309,17.4578242566103));
#814=CARTESIAN_POINT('Ctrl Pts',(49.5016553574197,-4.0024736429332,17.4578242566103));
#815=CARTESIAN_POINT('Ctrl Pts',(49.595914338053,-4.07471611262672,17.4578242566103));
#816=CARTESIAN_POINT('Ctrl Pts',(49.6904296860699,-4.14715506877511,17.4578242566103));
#817=CARTESIAN_POINT('Ctrl Pts',(49.787145145379,-4.21629370317054,17.4578242566103));
#818=CARTESIAN_POINT('Ctrl Pts',(49.8857076090352,-4.28195872386496,17.4578242566103));
#819=CARTESIAN_POINT('Ctrl Pts',(49.9846573601022,-4.34788176607081,17.4578242566103));
#820=CARTESIAN_POINT('Ctrl Pts',(50.0854680987421,-4.41030369883721,17.4578242566103));
#821=CARTESIAN_POINT('Ctrl Pts',(50.1877674497271,-4.469099490083,17.4578242566103));
#822=CARTESIAN_POINT('Ctrl Pts',(50.2953233349241,-4.53091643527773,17.4578242566103));
#823=CARTESIAN_POINT('Ctrl Pts',(50.4045241252588,-4.58872452325796,17.4578242566103));
#824=CARTESIAN_POINT('Ctrl Pts',(50.5149294292454,-4.64243949065978,17.4578242566103));
#825=CARTESIAN_POINT('Ctrl Pts',(50.6216082920039,-4.69434145033582,17.4578242566103));
#826=CARTESIAN_POINT('Ctrl Pts',(50.729411126564,-4.74242237992706,17.4578242566103));
#827=CARTESIAN_POINT('Ctrl Pts',(50.8379430222671,-4.78666075185627,17.4578242566103));
#828=CARTESIAN_POINT('Ctrl Pts',(50.9472826143149,-4.83122834655512,17.4578242566103));
#829=CARTESIAN_POINT('Ctrl Pts',(51.0573616016658,-4.87189614968819,17.4578242566103));
#830=CARTESIAN_POINT('Ctrl Pts',(51.1677873122423,-4.90869433259453,17.4578242566103));
#831=CARTESIAN_POINT('Ctrl Pts',(51.2791513020815,-4.94580518699506,17.4578242566103));
#832=CARTESIAN_POINT('Ctrl Pts',(51.3908674186289,-4.97898064906765,17.4578242566103));
#833=CARTESIAN_POINT('Ctrl Pts',(51.5025523079885,-5.00830122479886,17.4578242566103));
#834=CARTESIAN_POINT('Ctrl Pts',(51.618553622986,-5.03875498950065,17.4578242566103));
#835=CARTESIAN_POINT('Ctrl Pts',(51.7345206118041,-5.06505029656155,17.4578242566103));
#836=CARTESIAN_POINT('Ctrl Pts',(51.8500536901578,-5.087327674864,17.4578242566103));
#837=CARTESIAN_POINT('Ctrl Pts',(51.9641717593751,-5.10933220755131,17.4578242566103));
#838=CARTESIAN_POINT('Ctrl Pts',(52.0778662159499,-5.12741723929092,17.4578242566103));
#839=CARTESIAN_POINT('Ctrl Pts',(52.190787107594,-5.14175990691294,17.4578242566103));
#840=CARTESIAN_POINT('Ctrl Pts',(52.3058082463041,-5.15636933779863,17.4578242566103));
#841=CARTESIAN_POINT('Ctrl Pts',(52.4200264232109,-5.16709636045627,17.4578242566103));
#842=CARTESIAN_POINT('Ctrl Pts',(52.5331134306091,-5.17416390064282,17.4578242566103));
#843=CARTESIAN_POINT('Ctrl Pts',(52.6462004380073,-5.18123144082937,17.4578242566103));
#844=CARTESIAN_POINT('Ctrl Pts',(52.7581561654405,-5.18464007676668,17.4578242566103));
#845=CARTESIAN_POINT('Ctrl Pts',(52.8686969774916,-5.18464007676668,17.4578242566103));
#846=CARTESIAN_POINT('',(53.6274245084569,5.65170191708306,10.09));
#847=CARTESIAN_POINT('Origin',(52.8686969774916,0.195475046901716,10.09));
#848=CARTESIAN_POINT('',(53.592514378601,5.62122526455202,12.0899999999999));
#849=CARTESIAN_POINT('Ctrl Pts',(53.5925143784502,5.62122533134194,12.0900000022428));
#850=CARTESIAN_POINT('Ctrl Pts',(53.6099205577913,5.63646365741952,11.0928006556603));
#851=CARTESIAN_POINT('Ctrl Pts',(53.6274245083245,5.6517019834971,10.0900000012308));
#852=CARTESIAN_POINT('Origin',(52.8686969774916,0.195475046901716,12.09));
#853=CARTESIAN_POINT('Ctrl Pts',(52.8686969774916,-5.18602827409287,17.3881509254306));
#854=CARTESIAN_POINT('Ctrl Pts',(58.2502002984862,-5.18602827409287,17.3881509254306));
#855=CARTESIAN_POINT('Ctrl Pts',(58.2502002984862,0.195475046901716,17.3881509254306));
#856=CARTESIAN_POINT('Ctrl Pts',(58.2502002984862,5.5769783678963,17.3881509254306));
#857=CARTESIAN_POINT('Ctrl Pts',(52.8686969774916,5.57697836789631,17.3881509254306));
#858=CARTESIAN_POINT('Ctrl Pts',(47.487193656497,5.5769783678963,17.3881509254306));
#859=CARTESIAN_POINT('Ctrl Pts',(47.487193656497,0.195475046901716,17.3881509254306));
#860=CARTESIAN_POINT('Ctrl Pts',(47.487193656497,-5.18602827409287,17.3881509254306));
#861=CARTESIAN_POINT('Ctrl Pts',(52.8686969774916,-5.18602827409287,17.3881509254306));
#862=CARTESIAN_POINT('Ctrl Pts',(52.8686969774916,-5.18602673569695,17.3882390600785));
#863=CARTESIAN_POINT('Ctrl Pts',(58.2501987600902,-5.18602673569695,17.3882390600785));
#864=CARTESIAN_POINT('Ctrl Pts',(58.2501987600902,0.195475046901716,17.3882390600785));
#865=CARTESIAN_POINT('Ctrl Pts',(58.2501987600902,5.57697682950038,17.3882390600785));
#866=CARTESIAN_POINT('Ctrl Pts',(52.8686969774916,5.57697682950039,17.3882390600785));
#867=CARTESIAN_POINT('Ctrl Pts',(47.4871951948929,5.57697682950038,17.3882390600785));
#868=CARTESIAN_POINT('Ctrl Pts',(47.4871951948929,0.195475046901716,17.3882390600785));
#869=CARTESIAN_POINT('Ctrl Pts',(47.4871951948929,-5.18602673569695,17.3882390600785));
#870=CARTESIAN_POINT('Ctrl Pts',(52.8686969774916,-5.18602673569695,17.3882390600785));
#871=CARTESIAN_POINT('Ctrl Pts',(52.8686969774916,-5.18602519730103,17.3883271947264));
#872=CARTESIAN_POINT('Ctrl Pts',(58.2501972216943,-5.18602519730103,17.3883271947264));
#873=CARTESIAN_POINT('Ctrl Pts',(58.2501972216943,0.195475046901716,17.3883271947264));
#874=CARTESIAN_POINT('Ctrl Pts',(58.2501972216943,5.57697529110447,17.3883271947264));
#875=CARTESIAN_POINT('Ctrl Pts',(52.8686969774916,5.57697529110447,17.3883271947264));
#876=CARTESIAN_POINT('Ctrl Pts',(47.4871967332888,5.57697529110447,17.3883271947264));
#877=CARTESIAN_POINT('Ctrl Pts',(47.4871967332888,0.195475046901716,17.3883271947264));
#878=CARTESIAN_POINT('Ctrl Pts',(47.4871967332888,-5.18602519730103,17.3883271947264));
#879=CARTESIAN_POINT('Ctrl Pts',(52.8686969774916,-5.18602519730103,17.3883271947264));
#880=CARTESIAN_POINT('Ctrl Pts',(52.8686969774916,-5.18602365890512,17.3884153293742));
#881=CARTESIAN_POINT('Ctrl Pts',(58.2501956832984,-5.18602365890511,17.3884153293742));
#882=CARTESIAN_POINT('Ctrl Pts',(58.2501956832984,0.195475046901716,17.3884153293742));
#883=CARTESIAN_POINT('Ctrl Pts',(58.2501956832984,5.57697375270855,17.3884153293742));
#884=CARTESIAN_POINT('Ctrl Pts',(52.8686969774916,5.57697375270855,17.3884153293742));
#885=CARTESIAN_POINT('Ctrl Pts',(47.4871982716847,5.57697375270855,17.3884153293742));
#886=CARTESIAN_POINT('Ctrl Pts',(47.4871982716847,0.195475046901716,17.3884153293742));
#887=CARTESIAN_POINT('Ctrl Pts',(47.4871982716847,-5.18602365890511,17.3884153293742));
#888=CARTESIAN_POINT('Ctrl Pts',(52.8686969774916,-5.18602365890512,17.3884153293742));
#889=CARTESIAN_POINT('Ctrl Pts',(52.8686969774916,-5.1857502269088,17.40408023878));
#890=CARTESIAN_POINT('Ctrl Pts',(58.2499222513021,-5.1857502269088,17.40408023878));
#891=CARTESIAN_POINT('Ctrl Pts',(58.2499222513021,0.195475046901716,17.40408023878));
#892=CARTESIAN_POINT('Ctrl Pts',(58.2499222513021,5.57670032071223,17.40408023878));
#893=CARTESIAN_POINT('Ctrl Pts',(52.8686969774916,5.57670032071223,17.40408023878));
#894=CARTESIAN_POINT('Ctrl Pts',(47.4874717036811,5.57670032071223,17.40408023878));
#895=CARTESIAN_POINT('Ctrl Pts',(47.4874717036811,0.195475046901716,17.40408023878));
#896=CARTESIAN_POINT('Ctrl Pts',(47.4874717036811,-5.1857502269088,17.40408023878));
#897=CARTESIAN_POINT('Ctrl Pts',(52.8686969774916,-5.1857502269088,17.40408023878));
#898=CARTESIAN_POINT('Ctrl Pts',(52.8686969774916,-5.18547679491248,17.4197451481858));
#899=CARTESIAN_POINT('Ctrl Pts',(58.2496488193058,-5.18547679491248,17.4197451481858));
#900=CARTESIAN_POINT('Ctrl Pts',(58.2496488193058,0.195475046901716,17.4197451481858));
#901=CARTESIAN_POINT('Ctrl Pts',(58.2496488193058,5.57642688871591,17.4197451481858));
#902=CARTESIAN_POINT('Ctrl Pts',(52.8686969774916,5.57642688871591,17.4197451481858));
#903=CARTESIAN_POINT('Ctrl Pts',(47.4877451356774,5.57642688871591,17.4197451481858));
#904=CARTESIAN_POINT('Ctrl Pts',(47.4877451356774,0.195475046901716,17.4197451481858));
#905=CARTESIAN_POINT('Ctrl Pts',(47.4877451356774,-5.18547679491248,17.4197451481858));
#906=CARTESIAN_POINT('Ctrl Pts',(52.8686969774916,-5.18547679491248,17.4197451481858));
#907=CARTESIAN_POINT('Ctrl Pts',(52.8686969774916,-5.18520336291617,17.4354100575916));
#908=CARTESIAN_POINT('Ctrl Pts',(58.2493753873094,-5.18520336291617,17.4354100575916));
#909=CARTESIAN_POINT('Ctrl Pts',(58.2493753873094,0.195475046901716,17.4354100575916));
#910=CARTESIAN_POINT('Ctrl Pts',(58.2493753873094,5.5761534567196,17.4354100575916));
#911=CARTESIAN_POINT('Ctrl Pts',(52.8686969774916,5.5761534567196,17.4354100575916));
#912=CARTESIAN_POINT('Ctrl Pts',(47.4880185676737,5.5761534567196,17.4354100575916));
#913=CARTESIAN_POINT('Ctrl Pts',(47.4880185676737,0.195475046901716,17.4354100575916));
#914=CARTESIAN_POINT('Ctrl Pts',(47.4880185676737,-5.18520336291617,17.4354100575916));
#915=CARTESIAN_POINT('Ctrl Pts',(52.8686969774916,-5.18520336291617,17.4354100575916));
#916=CARTESIAN_POINT('Ctrl Pts',(52.8686969774916,-5.16733672644063,18.4589890298653));
#917=CARTESIAN_POINT('Ctrl Pts',(58.2315087508339,-5.16733672644063,18.4589890298653));
#918=CARTESIAN_POINT('Ctrl Pts',(58.2315087508339,0.195475046901716,18.4589890298653));
#919=CARTESIAN_POINT('Ctrl Pts',(58.2315087508339,5.55828682024406,18.4589890298653));
#920=CARTESIAN_POINT('Ctrl Pts',(52.8686969774916,5.55828682024406,18.4589890298653));
#921=CARTESIAN_POINT('Ctrl Pts',(47.5058852041492,5.55828682024406,18.4589890298653));
#922=CARTESIAN_POINT('Ctrl Pts',(47.5058852041492,0.195475046901716,18.4589890298653));
#923=CARTESIAN_POINT('Ctrl Pts',(47.5058852041492,-5.16733672644063,18.4589890298653));
#924=CARTESIAN_POINT('Ctrl Pts',(52.8686969774916,-5.16733672644063,18.4589890298653));
#925=CARTESIAN_POINT('Ctrl Pts',(52.8686969774916,-4.08925755557628,18.9410773126175));
#926=CARTESIAN_POINT('Ctrl Pts',(57.1534295799696,-4.08925755557627,18.9410773126175));
#927=CARTESIAN_POINT('Ctrl Pts',(57.1534295799696,0.195475046901725,18.9410773126175));
#928=CARTESIAN_POINT('Ctrl Pts',(57.1534295799696,4.48020764937972,18.9410773126175));
#929=CARTESIAN_POINT('Ctrl Pts',(52.8686969774916,4.48020764937971,18.9410773126175));
#930=CARTESIAN_POINT('Ctrl Pts',(48.5839643750136,4.4802076493797,18.9410773126175));
#931=CARTESIAN_POINT('Ctrl Pts',(48.5839643750136,0.195475046901707,18.9410773126175));
#932=CARTESIAN_POINT('Ctrl Pts',(48.5839643750136,-4.08925755557629,18.9410773126175));
#933=CARTESIAN_POINT('Ctrl Pts',(52.8686969774916,-4.08925755557628,18.9410773126175));
#934=CARTESIAN_POINT('Ctrl Pts',(52.8686969774916,-2.60750016145065,19.1966604202555));
#935=CARTESIAN_POINT('Ctrl Pts',(55.6716721858439,-2.60750016145064,19.1966604202555));
#936=CARTESIAN_POINT('Ctrl Pts',(55.6716721858439,0.195475046901725,19.1966604202555));
#937=CARTESIAN_POINT('Ctrl Pts',(55.6716721858439,2.9984502552541,19.1966604202555));
#938=CARTESIAN_POINT('Ctrl Pts',(52.8686969774916,2.99845025525409,19.1966604202555));
#939=CARTESIAN_POINT('Ctrl Pts',(50.0657217691392,2.99845025525408,19.1966604202555));
#940=CARTESIAN_POINT('Ctrl Pts',(50.0657217691392,0.195475046901707,19.1966604202555));
#941=CARTESIAN_POINT('Ctrl Pts',(50.0657217691392,-2.60750016145066,19.1966604202555));
#942=CARTESIAN_POINT('Ctrl Pts',(52.8686969774916,-2.60750016145065,19.1966604202555));
#943=CARTESIAN_POINT('Ctrl Pts',(52.8686969774916,-1.79911506413864,19.3360959149987));
#944=CARTESIAN_POINT('Ctrl Pts',(54.8632870885319,-1.79911506413863,19.3360959149987));
#945=CARTESIAN_POINT('Ctrl Pts',(54.8632870885319,0.195475046901725,19.3360959149987));
#946=CARTESIAN_POINT('Ctrl Pts',(54.8632870885319,2.19006515794208,19.3360959149987));
#947=CARTESIAN_POINT('Ctrl Pts',(52.8686969774916,2.19006515794207,19.3360959149987));
#948=CARTESIAN_POINT('Ctrl Pts',(50.8741068664512,2.19006515794206,19.3360959149987));
#949=CARTESIAN_POINT('Ctrl Pts',(50.8741068664512,0.195475046901707,19.3360959149987));
#950=CARTESIAN_POINT('Ctrl Pts',(50.8741068664512,-1.79911506413865,19.3360959149987));
#951=CARTESIAN_POINT('Ctrl Pts',(52.8686969774916,-1.79911506413864,19.3360959149987));
#952=CARTESIAN_POINT('Ctrl Pts',(52.8686969774916,-0.862069377318566,19.405));
#953=CARTESIAN_POINT('Ctrl Pts',(53.9262414017118,-0.862069377318566,19.405));
#954=CARTESIAN_POINT('Ctrl Pts',(53.9262414017118,0.195475046901716,19.405));
#955=CARTESIAN_POINT('Ctrl Pts',(53.9262414017118,1.253019471122,19.405));
#956=CARTESIAN_POINT('Ctrl Pts',(52.8686969774916,1.253019471122,19.405));
#957=CARTESIAN_POINT('Ctrl Pts',(51.8111525532713,1.253019471122,19.405));
#958=CARTESIAN_POINT('Ctrl Pts',(51.8111525532713,0.195475046901716,19.405));
#959=CARTESIAN_POINT('Ctrl Pts',(51.8111525532713,-0.862069377318566,19.405));
#960=CARTESIAN_POINT('Ctrl Pts',(52.8686969774916,-0.862069377318566,19.405));
#961=CARTESIAN_POINT('Ctrl Pts',(52.8686969774916,0.195475046901716,19.405));
#962=CARTESIAN_POINT('Ctrl Pts',(52.8686969774916,0.195475046901716,19.405));
#963=CARTESIAN_POINT('Ctrl Pts',(52.8686969774916,0.195475046901716,19.405));
#964=CARTESIAN_POINT('Ctrl Pts',(52.8686969774916,0.195475046901716,19.405));
#965=CARTESIAN_POINT('Ctrl Pts',(52.8686969774916,0.195475046901716,19.405));
#966=CARTESIAN_POINT('Ctrl Pts',(52.8686969774916,0.195475046901716,19.405));
#967=CARTESIAN_POINT('Ctrl Pts',(52.8686969774916,0.195475046901716,19.405));
#968=CARTESIAN_POINT('Ctrl Pts',(52.8686969774916,0.195475046901716,19.405));
#969=CARTESIAN_POINT('Ctrl Pts',(52.8686969774916,0.195475046901716,19.405));
#970=CARTESIAN_POINT('',(52.8686969774916,0.195475046901716,19.405));
#971=CARTESIAN_POINT('Ctrl Pts',(52.8686969774916,0.195475046901716,19.405));
#972=CARTESIAN_POINT('Ctrl Pts',(52.8686969774916,-0.862069377318566,19.405));
#973=CARTESIAN_POINT('Ctrl Pts',(52.8686969774916,-1.79911506413864,19.3360959149987));
#974=CARTESIAN_POINT('Ctrl Pts',(52.8686969774916,-2.60750016145065,19.1966604202555));
#975=CARTESIAN_POINT('Ctrl Pts',(52.8686969774916,-4.07840229280425,18.942949698613));
#976=CARTESIAN_POINT('Ctrl Pts',(52.8686969774916,-5.15210571949873,18.46606470959));
#977=CARTESIAN_POINT('Ctrl Pts',(52.8686969774916,-5.18464663992477,17.4578244722651));
#978=CARTESIAN_POINT('Origin',(52.8686969774916,0.195475046901716,10.3398477067548));
#979=CARTESIAN_POINT('',(52.8686969774916,3.87810493663923,10.5896954135095));
#980=CARTESIAN_POINT('Origin',(52.8686969774916,0.195475046901716,10.5896954135095));
#981=CARTESIAN_POINT('',(52.8686969774916,4.39555468499049,10.09));
#982=CARTESIAN_POINT('',(52.8686969774916,4.13682981081486,10.3398477067548));
#983=CARTESIAN_POINT('Origin',(52.8686969774916,0.195475046901716,10.09));
#984=CARTESIAN_POINT('Origin',(52.8686969774916,0.195475046901716,12.2399995326996));
#985=CARTESIAN_POINT('',(52.8686969774916,3.86382131312798,10.9987248741756));
#986=CARTESIAN_POINT('',(52.8686969774916,3.82047504690172,12.2399995326996));
#987=CARTESIAN_POINT('',(56.5370432437178,0.195475046901716,10.9987248741756));
#988=CARTESIAN_POINT('Origin',(52.8686969774916,0.195475046901716,10.9987248741756));
#989=CARTESIAN_POINT('Origin',(52.8686969774916,0.195475046901716,10.9987248741756));
#990=CARTESIAN_POINT('Origin',(52.8686969774916,0.195475046901716,10.09));
#991=CARTESIAN_POINT('',(53.6274245084575,-6.31325248406421,10.09));
#992=CARTESIAN_POINT('',(53.6274245084575,-3.05452495309829,10.09));
#993=CARTESIAN_POINT('',(52.1099694465256,-6.31325248406421,10.09));
#994=CARTESIAN_POINT('',(52.4936969774916,-6.31325248406421,10.09));
#995=CARTESIAN_POINT('',(52.1099694465256,-2.5288367928112,10.09));
#996=CARTESIAN_POINT('',(52.1099694465256,6.70420257786765,10.09));
#997=CARTESIAN_POINT('',(52.1099694465256,3.44547504690171,10.09));
#998=CARTESIAN_POINT('',(53.6274245084575,6.70420257786764,10.09));
#999=CARTESIAN_POINT('',(53.2436969774916,6.70420257786764,10.09));
#1000=CARTESIAN_POINT('',(53.6274245084575,2.91978688661464,10.09));
#1001=CARTESIAN_POINT('Origin',(52.8686969774916,0.195475046901716,10.99));
#1002=CARTESIAN_POINT('',(56.2871955369631,0.195475046901716,11.24));
#1003=CARTESIAN_POINT('Origin',(56.2871955369631,0.195475046901716,10.99));
#1004=CARTESIAN_POINT('Origin',(52.8686969774916,0.195475046901716,11.24));
#1005=CARTESIAN_POINT('Origin',(74.3282478411353,-31.0222814137636,11.24));
#1006=CARTESIAN_POINT('Origin',(52.1186969789895,6.69547504690171,10.5899999999869));
#1007=CARTESIAN_POINT('',(52.1448795763821,6.66929244801121,12.09));
#1008=CARTESIAN_POINT('',(52.1448795763821,3.44547504690171,12.09));
#1009=CARTESIAN_POINT('',(52.1189253492984,6.69524667509489,10.6030833262198));
#1010=CARTESIAN_POINT('Origin',(52.8686969774916,0.195475046901716,12.09));
#1011=CARTESIAN_POINT('',(53.5925143786011,6.66929244801121,12.09));
#1012=CARTESIAN_POINT('',(53.5925143786011,2.91978688661464,12.09));
#1013=CARTESIAN_POINT('',(53.2436969774916,6.66929244801121,12.09));
#1014=CARTESIAN_POINT('Origin',(53.6186969759936,5.64409872632756,10.5899999999869));
#1015=CARTESIAN_POINT('',(53.618536907237,6.69531497664718,10.5991703329095));
#1016=CARTESIAN_POINT('Origin',(53.6186969774916,6.69547504540376,10.5899999999869));
#1017=CARTESIAN_POINT('Origin',(53.6186969759936,-6.30452495309829,10.5899999999869));
#1018=CARTESIAN_POINT('',(53.5925143786011,-6.27834235420778,12.09));
#1019=CARTESIAN_POINT('',(53.5925143786011,-3.05452495309829,12.09));
#1020=CARTESIAN_POINT('',(53.6184686056847,-6.30429658129146,10.6030833262198));
#1021=CARTESIAN_POINT('Origin',(52.1186969774916,-6.30452495160033,10.5899999999869));
#1022=CARTESIAN_POINT('',(52.1448795763821,-6.27834235420777,12.09));
#1023=CARTESIAN_POINT('',(52.4936969774916,-6.27834235420778,12.09));
#1024=CARTESIAN_POINT('',(52.1188570477461,-6.30436488284375,10.5991703329095));
#1025=CARTESIAN_POINT('Origin',(52.1186969789895,-5.25314863252413,10.5899999999869));
#1026=CARTESIAN_POINT('',(52.1448795763821,-2.5288367928112,12.09));
#1027=CARTESIAN_POINT('Origin',(52.8686969774916,0.195475046901716,12.09));
#1028=UNCERTAINTY_MEASURE_WITH_UNIT(LENGTH_MEASURE(0.01),#1032,
'DISTANCE_ACCURACY_VALUE',
'Maximum model space distance between geometric entities at asserted c
onnectivities');
#1029=UNCERTAINTY_MEASURE_WITH_UNIT(LENGTH_MEASURE(0.01),#1032,
'DISTANCE_ACCURACY_VALUE',
'Maximum model space distance between geometric entities at asserted c
onnectivities');
#1030=(
GEOMETRIC_REPRESENTATION_CONTEXT(3)
GLOBAL_UNCERTAINTY_ASSIGNED_CONTEXT((#1028))
GLOBAL_UNIT_ASSIGNED_CONTEXT((#1032,#1034,#1035))
REPRESENTATION_CONTEXT('','3D')
);
#1031=(
GEOMETRIC_REPRESENTATION_CONTEXT(3)
GLOBAL_UNCERTAINTY_ASSIGNED_CONTEXT((#1029))
GLOBAL_UNIT_ASSIGNED_CONTEXT((#1032,#1034,#1035))
REPRESENTATION_CONTEXT('','3D')
);
#1032=(
LENGTH_UNIT()
NAMED_UNIT(*)
SI_UNIT(.MILLI.,.METRE.)
);
#1033=(
LENGTH_UNIT()
NAMED_UNIT(*)
SI_UNIT($,.METRE.)
);
#1034=(
NAMED_UNIT(*)
PLANE_ANGLE_UNIT()
SI_UNIT($,.RADIAN.)
);
#1035=(
NAMED_UNIT(*)
SI_UNIT($,.STERADIAN.)
SOLID_ANGLE_UNIT()
);
#1036=SHAPE_DEFINITION_REPRESENTATION(#1037,#1038);
#1037=PRODUCT_DEFINITION_SHAPE('',$,#1040);
#1038=SHAPE_REPRESENTATION('',(#357),#1030);
#1039=PRODUCT_DEFINITION_CONTEXT('part definition',#1044,'design');
#1040=PRODUCT_DEFINITION('Button_East','Button_East',#1041,#1039);
#1041=PRODUCT_DEFINITION_FORMATION('',$,#1046);
#1042=PRODUCT_RELATED_PRODUCT_CATEGORY('Button_East','Button_East',(#1046));
#1043=APPLICATION_PROTOCOL_DEFINITION('international standard',
'automotive_design',2009,#1044);
#1044=APPLICATION_CONTEXT(
'Core Data for Automotive Mechanical Design Process');
#1045=PRODUCT_CONTEXT('part definition',#1044,'mechanical');
#1046=PRODUCT('Button_East','Button_East',$,(#1045));
#1047=PRESENTATION_STYLE_ASSIGNMENT((#1049));
#1048=PRESENTATION_STYLE_ASSIGNMENT((#1050));
#1049=SURFACE_STYLE_USAGE(.BOTH.,#1051);
#1050=SURFACE_STYLE_USAGE(.BOTH.,#1052);
#1051=SURFACE_SIDE_STYLE('',(#1053));
#1052=SURFACE_SIDE_STYLE('',(#1054));
#1053=SURFACE_STYLE_FILL_AREA(#1055);
#1054=SURFACE_STYLE_FILL_AREA(#1056);
#1055=FILL_AREA_STYLE('Steel - Satin',(#1057));
#1056=FILL_AREA_STYLE('ABS (White)',(#1058));
#1057=FILL_AREA_STYLE_COLOUR('Steel - Satin',#1059);
#1058=FILL_AREA_STYLE_COLOUR('ABS (White)',#1060);
#1059=COLOUR_RGB('Steel - Satin',0.627450980392157,0.627450980392157,0.627450980392157);
#1060=COLOUR_RGB('ABS (White)',0.83921568627451,0.83921568627451,0.83921568627451);
ENDSEC;
END-ISO-10303-21;
