ISO-10303-21;
HEADER;
/* Generated by software containing ST-Developer
 * from STEP Tools, Inc. (www.steptools.com) 
 */

FILE_DESCRIPTION(
/* description */ (''),
/* implementation_level */ '2;1');

FILE_NAME(
/* name */ 'Button_South.step',
/* time_stamp */ '2025-08-19T12:52:24-07:00',
/* author */ (''),
/* organization */ (''),
/* preprocessor_version */ 'ST-DEVELOPER v20.1',
/* originating_system */ 'Autodesk Translation Framework v14.10.0.0',
/* authorisation */ '');

FILE_SCHEMA (('AUTOMOTIVE_DESIGN { 1 0 10303 214 3 1 1 }'));
ENDSEC;

DATA;
#10=MECHANICAL_DESIGN_GEOMETRIC_PRESENTATION_REPRESENTATION('',(#13),#721);
#11=SHAPE_REPRESENTATION_RELATIONSHIP('SRR','None',#728,#12);
#12=ADVANCED_BREP_SHAPE_REPRESENTATION('',(#14),#720);
#13=STYLED_ITEM('',(#738),#14);
#14=MANIFOLD_SOLID_BREP('Button (1) (1)',#319);
#15=TOROIDAL_SURFACE('',#354,3.41849855947149,0.25);
#16=FACE_BOUND('',#67,.T.);
#17=FACE_BOUND('',#68,.T.);
#18=FACE_BOUND('',#69,.T.);
#19=(
BOUNDED_SURFACE()
B_SPLINE_SURFACE(3,2,((#543,#544,#545,#546,#547,#548,#549,#550,#551),(#552,
#553,#554,#555,#556,#557,#558,#559,#560),(#561,#562,#563,#564,#565,#566,
#567,#568,#569),(#570,#571,#572,#573,#574,#575,#576,#577,#578),(#579,#580,
#581,#582,#583,#584,#585,#586,#587),(#588,#589,#590,#591,#592,#593,#594,
#595,#596),(#597,#598,#599,#600,#601,#602,#603,#604,#605),(#606,#607,#608,
#609,#610,#611,#612,#613,#614),(#615,#616,#617,#618,#619,#620,#621,#622,
#623),(#624,#625,#626,#627,#628,#629,#630,#631,#632),(#633,#634,#635,#636,
#637,#638,#639,#640,#641),(#642,#643,#644,#645,#646,#647,#648,#649,#650),
(#651,#652,#653,#654,#655,#656,#657,#658,#659)),.UNSPECIFIED.,.F.,.T.,.F.)
B_SPLINE_SURFACE_WITH_KNOTS((4,3,3,3,4),(3,2,2,2,3),(-3.18008771846221,
-1.00957322277772,-0.999577448294774,-0.352140475219102,0.),(0.,1.5707963267949,
3.14159265358979,4.71238898038469,6.28318530717959),.UNSPECIFIED.)
GEOMETRIC_REPRESENTATION_ITEM()
RATIONAL_B_SPLINE_SURFACE(((1.,0.707106781186548,1.,0.707106781186548,1.,
0.707106781186548,1.,0.707106781186548,1.),(1.,0.707106781186548,1.,0.707106781186548,
1.,0.707106781186548,1.,0.707106781186548,1.),(1.,0.707106781186548,1.,
0.707106781186548,1.,0.707106781186548,1.,0.707106781186548,1.),(1.,0.707106781186548,
1.,0.707106781186548,1.,0.707106781186548,1.,0.707106781186548,1.),(1.,
0.707106781186548,1.,0.707106781186548,1.,0.707106781186548,1.,0.707106781186548,
1.),(1.,0.707106781186548,1.,0.707106781186548,1.,0.707106781186548,1.,
0.707106781186548,1.),(1.,0.707106781186548,1.,0.707106781186548,1.,0.707106781186548,
1.,0.707106781186548,1.),(1.,0.707106781186548,1.,0.707106781186548,1.,
0.707106781186548,1.,0.707106781186548,1.),(1.,0.707106781186548,1.,0.707106781186548,
1.,0.707106781186548,1.,0.707106781186548,1.),(1.,0.707106781186548,1.,
0.707106781186548,1.,0.707106781186548,1.,0.707106781186548,1.),(1.,0.707106781186548,
1.,0.707106781186548,1.,0.707106781186548,1.,0.707106781186548,1.),(1.,
0.707106781186548,1.,0.707106781186548,1.,0.707106781186548,1.,0.707106781186548,
1.),(1.,0.707106781186548,1.,0.707106781186548,1.,0.707106781186548,1.,
0.707106781186548,1.)))
REPRESENTATION_ITEM('')
SURFACE()
);
#20=B_SPLINE_CURVE_WITH_KNOTS('',3,(#493,#494,#495,#496,#497,#498,#499,
#500,#501,#502,#503,#504),.UNSPECIFIED.,.F.,.F.,(4,2,2,2,2,4),(0.845654552589699,
1.04826183909805,1.25791420691766,1.46756657473726,1.67721894255686,1.6913133124848),
 .UNSPECIFIED.);
#21=B_SPLINE_CURVE_WITH_KNOTS('',3,(#505,#506,#507,#508,#509,#510,#511,
#512,#513,#514,#515,#516,#517,#518,#519,#520,#521,#522,#523,#524,#525,#526,
#527,#528,#529,#530,#531,#532,#533,#534,#535),.UNSPECIFIED.,.F.,.F.,(4,
2,2,2,2,2,2,2,2,3,2,2,2,2,4),(1.6913133124848,1.88687131037647,2.09652367819608,
2.30617604601568,2.51582841383528,2.72548078165488,2.93513314947449,3.14478551729408,
3.26348890561271,3.38219229393134,3.59184466175095,3.80149702957056,4.01114939739017,
4.22080176520978,4.22784684652104),.UNSPECIFIED.);
#22=B_SPLINE_CURVE_WITH_KNOTS('',3,(#661,#662,#663,#664,#665,#666,#667),
 .UNSPECIFIED.,.F.,.F.,(4,3,4),(0.,0.352140475219102,0.981953023808974),
 .UNSPECIFIED.);
#23=(
BOUNDED_CURVE()
B_SPLINE_CURVE(2,(#473,#474,#475),.UNSPECIFIED.,.F.,.F.)
B_SPLINE_CURVE_WITH_KNOTS((3,3),(9596.31894375779,9598.68825766155),
 .UNSPECIFIED.)
CURVE()
GEOMETRIC_REPRESENTATION_ITEM()
RATIONAL_B_SPLINE_CURVE((1.00000000022781,1.00000000022781,1.00000000022782))
REPRESENTATION_ITEM('')
);
#24=(
BOUNDED_CURVE()
B_SPLINE_CURVE(2,(#479,#480,#481),.UNSPECIFIED.,.F.,.F.)
B_SPLINE_CURVE_WITH_KNOTS((3,3),(10442.3048859787,10444.6741998828),
 .UNSPECIFIED.)
CURVE()
GEOMETRIC_REPRESENTATION_ITEM()
RATIONAL_B_SPLINE_CURVE((1.00000000022782,1.00000000022781,1.00000000022781))
REPRESENTATION_ITEM('')
);
#25=(
BOUNDED_CURVE()
B_SPLINE_CURVE(2,(#485,#486,#487),.UNSPECIFIED.,.F.,.F.)
B_SPLINE_CURVE_WITH_KNOTS((3,3),(9596.31893906834,9598.68825293987),
 .UNSPECIFIED.)
CURVE()
GEOMETRIC_REPRESENTATION_ITEM()
RATIONAL_B_SPLINE_CURVE((1.,1.,1.))
REPRESENTATION_ITEM('')
);
#26=(
BOUNDED_CURVE()
B_SPLINE_CURVE(2,(#539,#540,#541),.UNSPECIFIED.,.F.,.F.)
B_SPLINE_CURVE_WITH_KNOTS((3,3),(10442.3048915786,10444.6742054523),
 .UNSPECIFIED.)
CURVE()
GEOMETRIC_REPRESENTATION_ITEM()
RATIONAL_B_SPLINE_CURVE((1.,1.,1.))
REPRESENTATION_ITEM('')
);
#27=PLANE('',#336);
#28=PLANE('',#340);
#29=PLANE('',#353);
#30=PLANE('',#357);
#31=PLANE('',#358);
#32=PLANE('',#359);
#33=PLANE('',#360);
#34=PLANE('',#361);
#35=PLANE('',#362);
#36=PLANE('',#363);
#37=PLANE('',#364);
#38=PLANE('',#365);
#39=FACE_OUTER_BOUND('',#58,.T.);
#40=FACE_OUTER_BOUND('',#59,.T.);
#41=FACE_OUTER_BOUND('',#60,.T.);
#42=FACE_OUTER_BOUND('',#61,.T.);
#43=FACE_OUTER_BOUND('',#62,.T.);
#44=FACE_OUTER_BOUND('',#63,.T.);
#45=FACE_OUTER_BOUND('',#64,.T.);
#46=FACE_OUTER_BOUND('',#65,.T.);
#47=FACE_OUTER_BOUND('',#66,.T.);
#48=FACE_OUTER_BOUND('',#70,.T.);
#49=FACE_OUTER_BOUND('',#71,.T.);
#50=FACE_OUTER_BOUND('',#72,.T.);
#51=FACE_OUTER_BOUND('',#73,.T.);
#52=FACE_OUTER_BOUND('',#74,.T.);
#53=FACE_OUTER_BOUND('',#75,.T.);
#54=FACE_OUTER_BOUND('',#76,.T.);
#55=FACE_OUTER_BOUND('',#77,.T.);
#56=FACE_OUTER_BOUND('',#78,.T.);
#57=FACE_OUTER_BOUND('',#79,.T.);
#58=EDGE_LOOP('',(#209,#210,#211,#212));
#59=EDGE_LOOP('',(#213));
#60=EDGE_LOOP('',(#214,#215,#216,#217));
#61=EDGE_LOOP('',(#218));
#62=EDGE_LOOP('',(#219,#220,#221,#222,#223,#224,#225,#226,#227,#228,#229,
#230,#231));
#63=EDGE_LOOP('',(#232,#233,#234,#235));
#64=EDGE_LOOP('',(#236,#237,#238,#239));
#65=EDGE_LOOP('',(#240,#241,#242,#243,#244));
#66=EDGE_LOOP('',(#245,#246,#247,#248,#249,#250,#251,#252,#253));
#67=EDGE_LOOP('',(#254));
#68=EDGE_LOOP('',(#255));
#69=EDGE_LOOP('',(#256));
#70=EDGE_LOOP('',(#257,#258,#259,#260,#261));
#71=EDGE_LOOP('',(#262));
#72=EDGE_LOOP('',(#263,#264,#265,#266));
#73=EDGE_LOOP('',(#267,#268,#269,#270));
#74=EDGE_LOOP('',(#271,#272,#273,#274));
#75=EDGE_LOOP('',(#275,#276,#277,#278));
#76=EDGE_LOOP('',(#279,#280,#281,#282));
#77=EDGE_LOOP('',(#283,#284,#285,#286));
#78=EDGE_LOOP('',(#287,#288,#289,#290));
#79=EDGE_LOOP('',(#291,#292,#293,#294));
#80=LINE('',#460,#101);
#81=LINE('',#467,#102);
#82=LINE('',#491,#103);
#83=LINE('',#672,#104);
#84=LINE('',#676,#105);
#85=LINE('',#682,#106);
#86=LINE('',#684,#107);
#87=LINE('',#685,#108);
#88=LINE('',#687,#109);
#89=LINE('',#689,#110);
#90=LINE('',#690,#111);
#91=LINE('',#698,#112);
#92=LINE('',#699,#113);
#93=LINE('',#702,#114);
#94=LINE('',#703,#115);
#95=LINE('',#705,#116);
#96=LINE('',#709,#117);
#97=LINE('',#710,#118);
#98=LINE('',#713,#119);
#99=LINE('',#714,#120);
#100=LINE('',#716,#121);
#101=VECTOR('',#372,0.375000000000001);
#102=VECTOR('',#381,0.375000000000001);
#103=VECTOR('',#394,5.5);
#104=VECTOR('',#403,3.94135476391314);
#105=VECTOR('',#408,3.625);
#106=VECTOR('',#415,10.);
#107=VECTOR('',#416,10.);
#108=VECTOR('',#417,10.);
#109=VECTOR('',#418,10.);
#110=VECTOR('',#419,10.);
#111=VECTOR('',#420,10.);
#112=VECTOR('',#431,10.);
#113=VECTOR('',#432,10.);
#114=VECTOR('',#435,10.);
#115=VECTOR('',#436,10.);
#116=VECTOR('',#439,10.);
#117=VECTOR('',#444,10.);
#118=VECTOR('',#445,10.);
#119=VECTOR('',#448,10.);
#120=VECTOR('',#449,10.);
#121=VECTOR('',#452,10.);
#122=CIRCLE('',#334,0.375000000000001);
#123=CIRCLE('',#335,0.364084764272873);
#124=CIRCLE('',#338,0.375000000000001);
#125=CIRCLE('',#339,0.364084764272873);
#126=CIRCLE('',#342,5.50872754136996);
#127=CIRCLE('',#343,5.47381741151352);
#128=CIRCLE('',#344,5.50872754136996);
#129=CIRCLE('',#345,5.50872754136996);
#130=CIRCLE('',#346,5.47381741151352);
#131=CIRCLE('',#348,3.68262988973752);
#132=CIRCLE('',#349,4.20007963808877);
#133=CIRCLE('',#351,3.66834626622626);
#134=CIRCLE('',#352,3.66834626622626);
#135=CIRCLE('',#355,0.25);
#136=CIRCLE('',#356,3.41849855947149);
#137=VERTEX_POINT('',#457);
#138=VERTEX_POINT('',#459);
#139=VERTEX_POINT('',#464);
#140=VERTEX_POINT('',#466);
#141=VERTEX_POINT('',#471);
#142=VERTEX_POINT('',#472);
#143=VERTEX_POINT('',#476);
#144=VERTEX_POINT('',#478);
#145=VERTEX_POINT('',#482);
#146=VERTEX_POINT('',#484);
#147=VERTEX_POINT('',#488);
#148=VERTEX_POINT('',#490);
#149=VERTEX_POINT('',#492);
#150=VERTEX_POINT('',#536);
#151=VERTEX_POINT('',#538);
#152=VERTEX_POINT('',#660);
#153=VERTEX_POINT('',#669);
#154=VERTEX_POINT('',#671);
#155=VERTEX_POINT('',#675);
#156=VERTEX_POINT('',#677);
#157=VERTEX_POINT('',#681);
#158=VERTEX_POINT('',#683);
#159=VERTEX_POINT('',#686);
#160=VERTEX_POINT('',#688);
#161=VERTEX_POINT('',#692);
#162=VERTEX_POINT('',#697);
#163=VERTEX_POINT('',#701);
#164=VERTEX_POINT('',#708);
#165=VERTEX_POINT('',#712);
#166=EDGE_CURVE('',#137,#137,#122,.T.);
#167=EDGE_CURVE('',#137,#138,#80,.T.);
#168=EDGE_CURVE('',#138,#138,#123,.T.);
#169=EDGE_CURVE('',#139,#139,#124,.T.);
#170=EDGE_CURVE('',#139,#140,#81,.T.);
#171=EDGE_CURVE('',#140,#140,#125,.T.);
#172=EDGE_CURVE('',#141,#142,#23,.F.);
#173=EDGE_CURVE('',#143,#142,#126,.T.);
#174=EDGE_CURVE('',#143,#144,#24,.F.);
#175=EDGE_CURVE('',#144,#145,#127,.F.);
#176=EDGE_CURVE('',#145,#146,#25,.F.);
#177=EDGE_CURVE('',#147,#146,#128,.T.);
#178=EDGE_CURVE('',#147,#148,#82,.T.);
#179=EDGE_CURVE('',#149,#148,#20,.T.);
#180=EDGE_CURVE('',#148,#149,#21,.T.);
#181=EDGE_CURVE('',#150,#147,#129,.T.);
#182=EDGE_CURVE('',#150,#151,#26,.F.);
#183=EDGE_CURVE('',#151,#141,#130,.F.);
#184=EDGE_CURVE('',#152,#149,#22,.T.);
#185=EDGE_CURVE('',#153,#153,#131,.T.);
#186=EDGE_CURVE('',#153,#154,#83,.T.);
#187=EDGE_CURVE('',#154,#154,#132,.T.);
#188=EDGE_CURVE('',#153,#155,#84,.T.);
#189=EDGE_CURVE('',#156,#155,#133,.T.);
#190=EDGE_CURVE('',#155,#156,#134,.T.);
#191=EDGE_CURVE('',#157,#146,#85,.T.);
#192=EDGE_CURVE('',#158,#157,#86,.T.);
#193=EDGE_CURVE('',#143,#158,#87,.T.);
#194=EDGE_CURVE('',#159,#142,#88,.T.);
#195=EDGE_CURVE('',#160,#159,#89,.T.);
#196=EDGE_CURVE('',#150,#160,#90,.T.);
#197=EDGE_CURVE('',#156,#161,#135,.T.);
#198=EDGE_CURVE('',#161,#161,#136,.T.);
#199=EDGE_CURVE('',#162,#141,#91,.F.);
#200=EDGE_CURVE('',#159,#162,#92,.F.);
#201=EDGE_CURVE('',#151,#163,#93,.F.);
#202=EDGE_CURVE('',#163,#162,#94,.F.);
#203=EDGE_CURVE('',#160,#163,#95,.T.);
#204=EDGE_CURVE('',#164,#145,#96,.F.);
#205=EDGE_CURVE('',#157,#164,#97,.F.);
#206=EDGE_CURVE('',#165,#164,#98,.F.);
#207=EDGE_CURVE('',#158,#165,#99,.T.);
#208=EDGE_CURVE('',#144,#165,#100,.F.);
#209=ORIENTED_EDGE('',*,*,#166,.F.);
#210=ORIENTED_EDGE('',*,*,#167,.T.);
#211=ORIENTED_EDGE('',*,*,#168,.F.);
#212=ORIENTED_EDGE('',*,*,#167,.F.);
#213=ORIENTED_EDGE('',*,*,#168,.T.);
#214=ORIENTED_EDGE('',*,*,#169,.F.);
#215=ORIENTED_EDGE('',*,*,#170,.T.);
#216=ORIENTED_EDGE('',*,*,#171,.F.);
#217=ORIENTED_EDGE('',*,*,#170,.F.);
#218=ORIENTED_EDGE('',*,*,#171,.T.);
#219=ORIENTED_EDGE('',*,*,#172,.T.);
#220=ORIENTED_EDGE('',*,*,#173,.F.);
#221=ORIENTED_EDGE('',*,*,#174,.T.);
#222=ORIENTED_EDGE('',*,*,#175,.T.);
#223=ORIENTED_EDGE('',*,*,#176,.T.);
#224=ORIENTED_EDGE('',*,*,#177,.F.);
#225=ORIENTED_EDGE('',*,*,#178,.T.);
#226=ORIENTED_EDGE('',*,*,#179,.F.);
#227=ORIENTED_EDGE('',*,*,#180,.F.);
#228=ORIENTED_EDGE('',*,*,#178,.F.);
#229=ORIENTED_EDGE('',*,*,#181,.F.);
#230=ORIENTED_EDGE('',*,*,#182,.T.);
#231=ORIENTED_EDGE('',*,*,#183,.T.);
#232=ORIENTED_EDGE('',*,*,#179,.T.);
#233=ORIENTED_EDGE('',*,*,#180,.T.);
#234=ORIENTED_EDGE('',*,*,#184,.F.);
#235=ORIENTED_EDGE('',*,*,#184,.T.);
#236=ORIENTED_EDGE('',*,*,#185,.T.);
#237=ORIENTED_EDGE('',*,*,#186,.T.);
#238=ORIENTED_EDGE('',*,*,#187,.T.);
#239=ORIENTED_EDGE('',*,*,#186,.F.);
#240=ORIENTED_EDGE('',*,*,#185,.F.);
#241=ORIENTED_EDGE('',*,*,#188,.T.);
#242=ORIENTED_EDGE('',*,*,#189,.F.);
#243=ORIENTED_EDGE('',*,*,#190,.F.);
#244=ORIENTED_EDGE('',*,*,#188,.F.);
#245=ORIENTED_EDGE('',*,*,#181,.T.);
#246=ORIENTED_EDGE('',*,*,#177,.T.);
#247=ORIENTED_EDGE('',*,*,#191,.F.);
#248=ORIENTED_EDGE('',*,*,#192,.F.);
#249=ORIENTED_EDGE('',*,*,#193,.F.);
#250=ORIENTED_EDGE('',*,*,#173,.T.);
#251=ORIENTED_EDGE('',*,*,#194,.F.);
#252=ORIENTED_EDGE('',*,*,#195,.F.);
#253=ORIENTED_EDGE('',*,*,#196,.F.);
#254=ORIENTED_EDGE('',*,*,#166,.T.);
#255=ORIENTED_EDGE('',*,*,#169,.T.);
#256=ORIENTED_EDGE('',*,*,#187,.F.);
#257=ORIENTED_EDGE('',*,*,#190,.T.);
#258=ORIENTED_EDGE('',*,*,#197,.T.);
#259=ORIENTED_EDGE('',*,*,#198,.T.);
#260=ORIENTED_EDGE('',*,*,#197,.F.);
#261=ORIENTED_EDGE('',*,*,#189,.T.);
#262=ORIENTED_EDGE('',*,*,#198,.F.);
#263=ORIENTED_EDGE('',*,*,#172,.F.);
#264=ORIENTED_EDGE('',*,*,#199,.F.);
#265=ORIENTED_EDGE('',*,*,#200,.F.);
#266=ORIENTED_EDGE('',*,*,#194,.T.);
#267=ORIENTED_EDGE('',*,*,#183,.F.);
#268=ORIENTED_EDGE('',*,*,#201,.T.);
#269=ORIENTED_EDGE('',*,*,#202,.T.);
#270=ORIENTED_EDGE('',*,*,#199,.T.);
#271=ORIENTED_EDGE('',*,*,#182,.F.);
#272=ORIENTED_EDGE('',*,*,#196,.T.);
#273=ORIENTED_EDGE('',*,*,#203,.T.);
#274=ORIENTED_EDGE('',*,*,#201,.F.);
#275=ORIENTED_EDGE('',*,*,#195,.T.);
#276=ORIENTED_EDGE('',*,*,#200,.T.);
#277=ORIENTED_EDGE('',*,*,#202,.F.);
#278=ORIENTED_EDGE('',*,*,#203,.F.);
#279=ORIENTED_EDGE('',*,*,#176,.F.);
#280=ORIENTED_EDGE('',*,*,#204,.F.);
#281=ORIENTED_EDGE('',*,*,#205,.F.);
#282=ORIENTED_EDGE('',*,*,#191,.T.);
#283=ORIENTED_EDGE('',*,*,#192,.T.);
#284=ORIENTED_EDGE('',*,*,#205,.T.);
#285=ORIENTED_EDGE('',*,*,#206,.F.);
#286=ORIENTED_EDGE('',*,*,#207,.F.);
#287=ORIENTED_EDGE('',*,*,#174,.F.);
#288=ORIENTED_EDGE('',*,*,#193,.T.);
#289=ORIENTED_EDGE('',*,*,#207,.T.);
#290=ORIENTED_EDGE('',*,*,#208,.F.);
#291=ORIENTED_EDGE('',*,*,#175,.F.);
#292=ORIENTED_EDGE('',*,*,#208,.T.);
#293=ORIENTED_EDGE('',*,*,#206,.T.);
#294=ORIENTED_EDGE('',*,*,#204,.T.);
#295=CONICAL_SURFACE('',#333,0.375000000000001,0.0436332312998582);
#296=CONICAL_SURFACE('',#337,0.375000000000001,0.0436332312998582);
#297=CONICAL_SURFACE('',#341,5.5,0.0174532925199433);
#298=CONICAL_SURFACE('',#347,3.94135476391314,0.802851455917391);
#299=CONICAL_SURFACE('',#350,3.625,0.0349065850398866);
#300=ADVANCED_FACE('',(#39),#295,.F.);
#301=ADVANCED_FACE('',(#40),#27,.T.);
#302=ADVANCED_FACE('',(#41),#296,.F.);
#303=ADVANCED_FACE('',(#42),#28,.T.);
#304=ADVANCED_FACE('',(#43),#297,.T.);
#305=ADVANCED_FACE('',(#44),#19,.F.);
#306=ADVANCED_FACE('',(#45),#298,.F.);
#307=ADVANCED_FACE('',(#46),#299,.F.);
#308=ADVANCED_FACE('',(#47,#16,#17,#18),#29,.F.);
#309=ADVANCED_FACE('',(#48),#15,.F.);
#310=ADVANCED_FACE('',(#49),#30,.F.);
#311=ADVANCED_FACE('',(#50),#31,.T.);
#312=ADVANCED_FACE('',(#51),#32,.F.);
#313=ADVANCED_FACE('',(#52),#33,.T.);
#314=ADVANCED_FACE('',(#53),#34,.T.);
#315=ADVANCED_FACE('',(#54),#35,.T.);
#316=ADVANCED_FACE('',(#55),#36,.T.);
#317=ADVANCED_FACE('',(#56),#37,.T.);
#318=ADVANCED_FACE('',(#57),#38,.F.);
#319=CLOSED_SHELL('',(#300,#301,#302,#303,#304,#305,#306,#307,#308,#309,
#310,#311,#312,#313,#314,#315,#316,#317,#318));
#320=DERIVED_UNIT_ELEMENT(#322,1.);
#321=DERIVED_UNIT_ELEMENT(#723,-3.);
#322=(
MASS_UNIT()
NAMED_UNIT(*)
SI_UNIT(.KILO.,.GRAM.)
);
#323=DERIVED_UNIT((#320,#321));
#324=MEASURE_REPRESENTATION_ITEM('density measure',
POSITIVE_RATIO_MEASURE(7850.),#323);
#325=PROPERTY_DEFINITION_REPRESENTATION(#330,#327);
#326=PROPERTY_DEFINITION_REPRESENTATION(#331,#328);
#327=REPRESENTATION('material name',(#329),#720);
#328=REPRESENTATION('density',(#324),#720);
#329=DESCRIPTIVE_REPRESENTATION_ITEM('Steel','Steel');
#330=PROPERTY_DEFINITION('material property','material name',#730);
#331=PROPERTY_DEFINITION('material property','density of part',#730);
#332=AXIS2_PLACEMENT_3D('',#455,#366,#367);
#333=AXIS2_PLACEMENT_3D('',#456,#368,#369);
#334=AXIS2_PLACEMENT_3D('',#458,#370,#371);
#335=AXIS2_PLACEMENT_3D('',#461,#373,#374);
#336=AXIS2_PLACEMENT_3D('',#462,#375,#376);
#337=AXIS2_PLACEMENT_3D('',#463,#377,#378);
#338=AXIS2_PLACEMENT_3D('',#465,#379,#380);
#339=AXIS2_PLACEMENT_3D('',#468,#382,#383);
#340=AXIS2_PLACEMENT_3D('',#469,#384,#385);
#341=AXIS2_PLACEMENT_3D('',#470,#386,#387);
#342=AXIS2_PLACEMENT_3D('',#477,#388,#389);
#343=AXIS2_PLACEMENT_3D('',#483,#390,#391);
#344=AXIS2_PLACEMENT_3D('',#489,#392,#393);
#345=AXIS2_PLACEMENT_3D('',#537,#395,#396);
#346=AXIS2_PLACEMENT_3D('',#542,#397,#398);
#347=AXIS2_PLACEMENT_3D('',#668,#399,#400);
#348=AXIS2_PLACEMENT_3D('',#670,#401,#402);
#349=AXIS2_PLACEMENT_3D('',#673,#404,#405);
#350=AXIS2_PLACEMENT_3D('',#674,#406,#407);
#351=AXIS2_PLACEMENT_3D('',#678,#409,#410);
#352=AXIS2_PLACEMENT_3D('',#679,#411,#412);
#353=AXIS2_PLACEMENT_3D('',#680,#413,#414);
#354=AXIS2_PLACEMENT_3D('',#691,#421,#422);
#355=AXIS2_PLACEMENT_3D('',#693,#423,#424);
#356=AXIS2_PLACEMENT_3D('',#694,#425,#426);
#357=AXIS2_PLACEMENT_3D('',#695,#427,#428);
#358=AXIS2_PLACEMENT_3D('',#696,#429,#430);
#359=AXIS2_PLACEMENT_3D('',#700,#433,#434);
#360=AXIS2_PLACEMENT_3D('',#704,#437,#438);
#361=AXIS2_PLACEMENT_3D('',#706,#440,#441);
#362=AXIS2_PLACEMENT_3D('',#707,#442,#443);
#363=AXIS2_PLACEMENT_3D('',#711,#446,#447);
#364=AXIS2_PLACEMENT_3D('',#715,#450,#451);
#365=AXIS2_PLACEMENT_3D('',#717,#453,#454);
#366=DIRECTION('axis',(0.,0.,1.));
#367=DIRECTION('refdir',(1.,0.,0.));
#368=DIRECTION('center_axis',(0.,0.,-1.));
#369=DIRECTION('ref_axis',(1.,-3.37350334183377E-80,-1.23259516440783E-32));
#370=DIRECTION('center_axis',(0.,0.,1.));
#371=DIRECTION('ref_axis',(1.,-3.37350334183377E-80,-1.23259516440783E-32));
#372=DIRECTION('',(0.043619387365336,5.34183431177272E-18,0.999048221581858));
#373=DIRECTION('center_axis',(-1.23259516440783E-32,-2.1570415377137E-32,
-1.));
#374=DIRECTION('ref_axis',(1.,-3.37350334183377E-80,-1.23259516440783E-32));
#375=DIRECTION('center_axis',(-1.23259516440783E-32,-2.1570415377137E-32,
-1.));
#376=DIRECTION('ref_axis',(1.,-3.37350334183377E-80,-1.23259516440783E-32));
#377=DIRECTION('center_axis',(0.,0.,-1.));
#378=DIRECTION('ref_axis',(1.,-3.37350334183377E-80,-1.23259516440783E-32));
#379=DIRECTION('center_axis',(0.,0.,1.));
#380=DIRECTION('ref_axis',(1.,-3.37350334183377E-80,-1.23259516440783E-32));
#381=DIRECTION('',(0.043619387365336,5.34183431177272E-18,0.999048221581858));
#382=DIRECTION('center_axis',(-1.23259516440783E-32,-2.1570415377137E-32,
-1.));
#383=DIRECTION('ref_axis',(1.,-3.37350334183377E-80,-1.23259516440783E-32));
#384=DIRECTION('center_axis',(-1.23259516440783E-32,-2.1570415377137E-32,
-1.));
#385=DIRECTION('ref_axis',(1.,-3.37350334183377E-80,-1.23259516440783E-32));
#386=DIRECTION('center_axis',(0.,0.,-1.));
#387=DIRECTION('ref_axis',(-1.,0.,0.));
#388=DIRECTION('center_axis',(0.,0.,-1.));
#389=DIRECTION('ref_axis',(-1.,0.,0.));
#390=DIRECTION('center_axis',(0.,0.,-1.));
#391=DIRECTION('ref_axis',(-1.,0.,0.));
#392=DIRECTION('center_axis',(0.,0.,-1.));
#393=DIRECTION('ref_axis',(-1.,0.,0.));
#394=DIRECTION('',(-0.0174524064372835,2.13730336808379E-18,0.999847695156391));
#395=DIRECTION('center_axis',(0.,0.,-1.));
#396=DIRECTION('ref_axis',(-1.,0.,0.));
#397=DIRECTION('center_axis',(0.,0.,-1.));
#398=DIRECTION('ref_axis',(-1.,0.,0.));
#399=DIRECTION('center_axis',(0.,0.,-1.));
#400=DIRECTION('ref_axis',(1.18310210543844E-16,-1.,0.));
#401=DIRECTION('center_axis',(0.,0.,1.));
#402=DIRECTION('ref_axis',(0.,-1.,0.));
#403=DIRECTION('',(-1.73198961629035E-16,0.719339800338651,-0.694658370458997));
#404=DIRECTION('center_axis',(0.,0.,-1.));
#405=DIRECTION('ref_axis',(2.22044604925031E-16,-1.,0.));
#406=DIRECTION('center_axis',(0.,0.,-1.));
#407=DIRECTION('ref_axis',(2.22044604925031E-16,-1.,0.));
#408=DIRECTION('',(1.20232006502464E-17,-0.034899496702501,0.999390827019096));
#409=DIRECTION('center_axis',(0.,0.,-1.));
#410=DIRECTION('ref_axis',(0.,-1.,0.));
#411=DIRECTION('center_axis',(0.,0.,-1.));
#412=DIRECTION('ref_axis',(0.,-1.,0.));
#413=DIRECTION('center_axis',(0.,0.,1.));
#414=DIRECTION('ref_axis',(-1.,0.,0.));
#415=DIRECTION('',(0.,1.,0.));
#416=DIRECTION('',(1.,0.,0.));
#417=DIRECTION('',(0.,-1.,0.));
#418=DIRECTION('',(0.,-1.,0.));
#419=DIRECTION('',(-1.,0.,0.));
#420=DIRECTION('',(0.,1.,0.));
#421=DIRECTION('center_axis',(0.,0.,-1.));
#422=DIRECTION('ref_axis',(-1.,0.,0.));
#423=DIRECTION('center_axis',(-1.22946239842315E-16,-1.,0.));
#424=DIRECTION('ref_axis',(1.,-1.22946239842315E-16,0.));
#425=DIRECTION('center_axis',(0.,0.,1.));
#426=DIRECTION('ref_axis',(0.,-1.,0.));
#427=DIRECTION('center_axis',(0.,0.,1.));
#428=DIRECTION('ref_axis',(2.22044604925031E-16,-1.,0.));
#429=DIRECTION('center_axis',(-0.999847695156391,0.,0.0174524064372835));
#430=DIRECTION('ref_axis',(0.,-1.,0.));
#431=DIRECTION('',(0.,1.,0.));
#432=DIRECTION('',(-0.0174497491606827,0.0174497491606827,-0.999695459881887));
#433=DIRECTION('center_axis',(0.,0.,-1.));
#434=DIRECTION('ref_axis',(1.,0.,0.));
#435=DIRECTION('',(0.,-1.,0.));
#436=DIRECTION('',(1.,0.,0.));
#437=DIRECTION('center_axis',(0.999847695156391,0.,0.0174524064372835));
#438=DIRECTION('ref_axis',(0.,1.,0.));
#439=DIRECTION('',(-0.0174497491606827,-0.0174497491606827,0.999695459881887));
#440=DIRECTION('center_axis',(0.,0.999847695156391,0.0174524064372835));
#441=DIRECTION('ref_axis',(-1.,0.,0.));
#442=DIRECTION('center_axis',(0.999847695156391,0.,0.0174524064372835));
#443=DIRECTION('ref_axis',(0.,1.,0.));
#444=DIRECTION('',(0.,-1.,0.));
#445=DIRECTION('',(0.0174497491606827,-0.0174497491606827,-0.999695459881887));
#446=DIRECTION('center_axis',(0.,-0.999847695156391,0.0174524064372835));
#447=DIRECTION('ref_axis',(1.,0.,0.));
#448=DIRECTION('',(-1.,0.,0.));
#449=DIRECTION('',(0.0174497491606827,0.0174497491606827,0.999695459881887));
#450=DIRECTION('center_axis',(-0.999847695156391,0.,0.0174524064372835));
#451=DIRECTION('ref_axis',(0.,-1.,0.));
#452=DIRECTION('',(0.,1.,0.));
#453=DIRECTION('center_axis',(0.,0.,-1.));
#454=DIRECTION('ref_axis',(1.,0.,0.));
#455=CARTESIAN_POINT('',(0.,0.,0.));
#456=CARTESIAN_POINT('Origin',(48.0186969774916,0.195475046901716,10.09));
#457=CARTESIAN_POINT('',(47.6436969774916,0.195475046901716,10.09));
#458=CARTESIAN_POINT('Origin',(48.0186969774916,0.195475046901716,10.09));
#459=CARTESIAN_POINT('',(47.6546122132187,0.195475046901716,10.34));
#460=CARTESIAN_POINT('',(47.6436969774916,0.195475046901716,10.09));
#461=CARTESIAN_POINT('Origin',(48.0186969774916,0.195475046901716,10.34));
#462=CARTESIAN_POINT('Origin',(51.4355607481765,10.4829750469017,10.34));
#463=CARTESIAN_POINT('Origin',(48.1839567199896,-1.05979732184551,10.09));
#464=CARTESIAN_POINT('',(47.8089567199896,-1.05979732184551,10.09));
#465=CARTESIAN_POINT('Origin',(48.1839567199896,-1.05979732184551,10.09));
#466=CARTESIAN_POINT('',(47.8198719557167,-1.05979732184551,10.34));
#467=CARTESIAN_POINT('',(47.8089567199896,-1.05979732184551,10.09));
#468=CARTESIAN_POINT('Origin',(48.1839567199896,-1.05979732184551,10.34));
#469=CARTESIAN_POINT('Origin',(51.4355607481765,10.4829750469017,10.34));
#470=CARTESIAN_POINT('Origin',(52.8686969774916,0.195475046901716,10.5900005102158));
#471=CARTESIAN_POINT('',(52.1448795763821,5.62122526455202,12.0899999999999));
#472=CARTESIAN_POINT('',(52.1099694465262,5.65170191708306,10.09));
#473=CARTESIAN_POINT('Ctrl Pts',(52.1099694466084,5.65170191648905,10.0899999993011));
#474=CARTESIAN_POINT('Ctrl Pts',(52.1274733971489,5.63646359022086,11.092800654142));
#475=CARTESIAN_POINT('Ctrl Pts',(52.1448795764947,5.62122526395267,12.0900000010045));
#476=CARTESIAN_POINT('',(52.1099694465262,-5.26075182327963,10.09));
#477=CARTESIAN_POINT('Origin',(52.8686969774916,0.195475046901716,10.09));
#478=CARTESIAN_POINT('',(52.1448795763821,-5.23027517074859,12.0899999999999));
#479=CARTESIAN_POINT('Ctrl Pts',(52.1448795765164,-5.23027517013025,12.0900000022562));
#480=CARTESIAN_POINT('Ctrl Pts',(52.1274733971683,-5.24551349640046,11.0928006552607));
#481=CARTESIAN_POINT('Ctrl Pts',(52.1099694466256,-5.26075182267066,10.0900000002856));
#482=CARTESIAN_POINT('',(53.5925143786011,-5.23027517074859,12.0899999999999));
#483=CARTESIAN_POINT('Origin',(52.8686969774916,0.195475046901716,12.09));
#484=CARTESIAN_POINT('',(53.627424508457,-5.26075182327963,10.09));
#485=CARTESIAN_POINT('Ctrl Pts',(53.6274245082775,-5.26075188965279,10.0900000039124));
#486=CARTESIAN_POINT('Ctrl Pts',(53.6099205577604,-5.24551356358906,11.0928006574227));
#487=CARTESIAN_POINT('Ctrl Pts',(53.5925143784353,-5.23027523752534,12.0900000031008));
#488=CARTESIAN_POINT('',(58.3774245188735,0.195475046901716,10.0899999993116));
#489=CARTESIAN_POINT('Origin',(52.8686969774916,0.195475046901716,10.09));
#490=CARTESIAN_POINT('',(58.2355300470061,0.195475046901716,18.2191288482147));
#491=CARTESIAN_POINT('',(58.3686969774916,0.195475046901716,10.5900005102158));
#492=CARTESIAN_POINT('',(52.8686969774916,-5.17135802251081,18.2191288504202));
#493=CARTESIAN_POINT('Ctrl Pts',(52.8686969774916,-5.17135802261281,18.2191288482146));
#494=CARTESIAN_POINT('Ctrl Pts',(53.5436362584934,-5.1713580226128,18.2191288482146));
#495=CARTESIAN_POINT('Ctrl Pts',(54.2127833882029,-5.0440322614009,18.2191288482146));
#496=CARTESIAN_POINT('Ctrl Pts',(55.4908328097307,-4.53904498500972,18.2191288482146));
#497=CARTESIAN_POINT('Ctrl Pts',(56.0844035404189,-4.1577430221168,18.2191288482146));
#498=CARTESIAN_POINT('Ctrl Pts',(57.0919758961072,-3.18907683346,18.2191288482146));
#499=CARTESIAN_POINT('Ctrl Pts',(57.4963445802176,-2.61097358442355,18.2191288482146));
#500=CARTESIAN_POINT('Ctrl Pts',(58.060725559571,-1.3323061737424,18.2191288482146));
#501=CARTESIAN_POINT('Ctrl Pts',(58.2153420650402,-0.6439667694714,18.2191288482146));
#502=CARTESIAN_POINT('Ctrl Pts',(58.2349146107326,0.101598825255388,18.2191288482146));
#503=CARTESIAN_POINT('Ctrl Pts',(58.2355300470061,0.148549881480811,18.2191288482146));
#504=CARTESIAN_POINT('Ctrl Pts',(58.2355300470061,0.195475046901715,18.2191288482146));
#505=CARTESIAN_POINT('Ctrl Pts',(58.2355300470061,0.195475046901716,18.2191288482146));
#506=CARTESIAN_POINT('Ctrl Pts',(58.2355300470061,0.846557106430664,18.2191288482146));
#507=CARTESIAN_POINT('Ctrl Pts',(58.1170436885384,1.49265485213936,18.2191288482146));
#508=CARTESIAN_POINT('Ctrl Pts',(57.6372185342471,2.75525597855218,18.2191288482146));
#509=CARTESIAN_POINT('Ctrl Pts',(57.263738583211,3.35377926582658,18.2191288482146));
#510=CARTESIAN_POINT('Ctrl Pts',(56.3083777510939,4.37397626516089,18.2191288482146));
#511=CARTESIAN_POINT('Ctrl Pts',(55.7356306402799,4.78589633785686,18.2191288482146));
#512=CARTESIAN_POINT('Ctrl Pts',(54.4644794640292,5.36700813786644,18.2191288482146));
#513=CARTESIAN_POINT('Ctrl Pts',(53.7782282966683,5.53064411964157,18.2191288482146));
#514=CARTESIAN_POINT('Ctrl Pts',(52.3816288443498,5.58565508925289,18.2191288482146));
#515=CARTESIAN_POINT('Ctrl Pts',(51.6846328113618,5.47650414223631,18.2191288482146));
#516=CARTESIAN_POINT('Ctrl Pts',(50.3717117651362,4.99717694357977,18.2191288482146));
#517=CARTESIAN_POINT('Ctrl Pts',(49.7683389926977,4.63158332121247,18.2191288482146));
#518=CARTESIAN_POINT('Ctrl Pts',(48.7356930373772,3.6896923678882,18.2191288482146));
#519=CARTESIAN_POINT('Ctrl Pts',(48.3162925126634,3.12240002781524,18.2191288482146));
#520=CARTESIAN_POINT('Ctrl Pts',(47.8482028644121,2.13302429929242,18.2191288482146));
#521=CARTESIAN_POINT('Ctrl Pts',(47.7190566724433,1.75773718032469,18.2191288482146));
#522=CARTESIAN_POINT('Ctrl Pts',(47.5456218505595,0.985620247445247,18.2191288482146));
#523=CARTESIAN_POINT('Ctrl Pts',(47.501863907977,0.591153007963812,18.2191288482146));
#524=CARTESIAN_POINT('Ctrl Pts',(47.501863907977,0.195475046901717,18.2191288482146));
#525=CARTESIAN_POINT('Ctrl Pts',(47.501863907977,-0.503366179163642,18.2191288482146));
#526=CARTESIAN_POINT('Ctrl Pts',(47.6383631393457,-1.19552610220992,18.2191288482146));
#527=CARTESIAN_POINT('Ctrl Pts',(48.1689937999586,-2.48856412911079,18.2191288482146));
#528=CARTESIAN_POINT('Ctrl Pts',(48.5580521108713,-3.07708008466802,18.2191288482145));
#529=CARTESIAN_POINT('Ctrl Pts',(49.5398568425054,-4.07185428313466,18.2191288482145));
#530=CARTESIAN_POINT('Ctrl Pts',(50.1232166748676,-4.46860194251289,18.2191288482146));
#531=CARTESIAN_POINT('Ctrl Pts',(51.4091801212478,-5.01615490941939,18.2191288482146));
#532=CARTESIAN_POINT('Ctrl Pts',(52.0994892238142,-5.1617253121446,18.2191288482146));
#533=CARTESIAN_POINT('Ctrl Pts',(52.8217518586357,-5.1712040781741,18.2191288482146));
#534=CARTESIAN_POINT('Ctrl Pts',(52.8452279197061,-5.17135802261281,18.2191288482146));
#535=CARTESIAN_POINT('Ctrl Pts',(52.8686969774916,-5.17135802261281,18.2191288482146));
#536=CARTESIAN_POINT('',(53.6274245084569,5.65170191708306,10.09));
#537=CARTESIAN_POINT('Origin',(52.8686969774916,0.195475046901716,10.09));
#538=CARTESIAN_POINT('',(53.592514378601,5.62122526455202,12.0899999999999));
#539=CARTESIAN_POINT('Ctrl Pts',(53.5925143784502,5.62122533134194,12.0900000022428));
#540=CARTESIAN_POINT('Ctrl Pts',(53.6099205577913,5.63646365741952,11.0928006556603));
#541=CARTESIAN_POINT('Ctrl Pts',(53.6274245083245,5.6517019834971,10.0900000012308));
#542=CARTESIAN_POINT('Origin',(52.8686969774916,0.195475046901716,12.09));
#543=CARTESIAN_POINT('Ctrl Pts',(52.8686969774916,-5.35403660706539,7.8899725516069));
#544=CARTESIAN_POINT('Ctrl Pts',(58.4182086314587,-5.35403660706539,7.8899725516069));
#545=CARTESIAN_POINT('Ctrl Pts',(58.4182086314587,0.195475046901716,7.8899725516069));
#546=CARTESIAN_POINT('Ctrl Pts',(58.4182086314587,5.74498670086882,7.8899725516069));
#547=CARTESIAN_POINT('Ctrl Pts',(52.8686969774916,5.74498670086882,7.8899725516069));
#548=CARTESIAN_POINT('Ctrl Pts',(47.3191853235245,5.74498670086882,7.8899725516069));
#549=CARTESIAN_POINT('Ctrl Pts',(47.3191853235245,0.195475046901716,7.8899725516069));
#550=CARTESIAN_POINT('Ctrl Pts',(47.3191853235245,-5.35403660706539,7.8899725516069));
#551=CARTESIAN_POINT('Ctrl Pts',(52.8686969774916,-5.35403660706539,7.8899725516069));
#552=CARTESIAN_POINT('Ctrl Pts',(52.8686969774916,-5.2946877959066,11.2900638454966));
#553=CARTESIAN_POINT('Ctrl Pts',(58.3588598202999,-5.2946877959066,11.2900638454966));
#554=CARTESIAN_POINT('Ctrl Pts',(58.3588598202999,0.195475046901716,11.2900638454966));
#555=CARTESIAN_POINT('Ctrl Pts',(58.3588598202999,5.68563788971003,11.2900638454966));
#556=CARTESIAN_POINT('Ctrl Pts',(52.8686969774916,5.68563788971004,11.2900638454966));
#557=CARTESIAN_POINT('Ctrl Pts',(47.3785341346832,5.68563788971003,11.2900638454966));
#558=CARTESIAN_POINT('Ctrl Pts',(47.3785341346832,0.195475046901716,11.2900638454966));
#559=CARTESIAN_POINT('Ctrl Pts',(47.3785341346832,-5.2946877959066,11.2900638454966));
#560=CARTESIAN_POINT('Ctrl Pts',(52.8686969774916,-5.2946877959066,11.2900638454966));
#561=CARTESIAN_POINT('Ctrl Pts',(52.8686969774916,-5.23533898474782,14.6901551393864));
#562=CARTESIAN_POINT('Ctrl Pts',(58.2995110091411,-5.23533898474782,14.6901551393864));
#563=CARTESIAN_POINT('Ctrl Pts',(58.2995110091411,0.195475046901716,14.6901551393864));
#564=CARTESIAN_POINT('Ctrl Pts',(58.2995110091411,5.62628907855125,14.6901551393864));
#565=CARTESIAN_POINT('Ctrl Pts',(52.8686969774916,5.62628907855125,14.6901551393864));
#566=CARTESIAN_POINT('Ctrl Pts',(47.437882945842,5.62628907855125,14.6901551393864));
#567=CARTESIAN_POINT('Ctrl Pts',(47.437882945842,0.195475046901716,14.6901551393864));
#568=CARTESIAN_POINT('Ctrl Pts',(47.437882945842,-5.23533898474782,14.6901551393864));
#569=CARTESIAN_POINT('Ctrl Pts',(52.8686969774916,-5.23533898474782,14.6901551393864));
#570=CARTESIAN_POINT('Ctrl Pts',(52.8686969774916,-5.17599017358903,18.0902464332761));
#571=CARTESIAN_POINT('Ctrl Pts',(58.2401621979823,-5.17599017358903,18.0902464332761));
#572=CARTESIAN_POINT('Ctrl Pts',(58.2401621979823,0.195475046901716,18.0902464332761));
#573=CARTESIAN_POINT('Ctrl Pts',(58.2401621979823,5.56694026739246,18.0902464332761));
#574=CARTESIAN_POINT('Ctrl Pts',(52.8686969774916,5.56694026739246,18.0902464332761));
#575=CARTESIAN_POINT('Ctrl Pts',(47.4972317570008,5.56694026739246,18.0902464332761));
#576=CARTESIAN_POINT('Ctrl Pts',(47.4972317570008,0.195475046901716,18.0902464332761));
#577=CARTESIAN_POINT('Ctrl Pts',(47.4972317570008,-5.17599017358903,18.0902464332761));
#578=CARTESIAN_POINT('Ctrl Pts',(52.8686969774916,-5.17599017358903,18.0902464332761));
#579=CARTESIAN_POINT('Ctrl Pts',(52.8686969774916,-5.17571685713187,18.1059047234477));
#580=CARTESIAN_POINT('Ctrl Pts',(58.2398888815251,-5.17571685713187,18.1059047234477));
#581=CARTESIAN_POINT('Ctrl Pts',(58.2398888815251,0.195475046901716,18.1059047234477));
#582=CARTESIAN_POINT('Ctrl Pts',(58.2398888815251,5.5666669509353,18.1059047234477));
#583=CARTESIAN_POINT('Ctrl Pts',(52.8686969774916,5.5666669509353,18.1059047234477));
#584=CARTESIAN_POINT('Ctrl Pts',(47.497505073458,5.5666669509353,18.1059047234477));
#585=CARTESIAN_POINT('Ctrl Pts',(47.497505073458,0.195475046901716,18.1059047234477));
#586=CARTESIAN_POINT('Ctrl Pts',(47.497505073458,-5.17571685713187,18.1059047234477));
#587=CARTESIAN_POINT('Ctrl Pts',(52.8686969774916,-5.17571685713187,18.1059047234477));
#588=CARTESIAN_POINT('Ctrl Pts',(52.8686969774916,-5.17546345419092,18.1215275885649));
#589=CARTESIAN_POINT('Ctrl Pts',(58.2396354785842,-5.17546345419092,18.1215275885649));
#590=CARTESIAN_POINT('Ctrl Pts',(58.2396354785842,0.195475046901716,18.1215275885649));
#591=CARTESIAN_POINT('Ctrl Pts',(58.2396354785842,5.56641354799435,18.1215275885649));
#592=CARTESIAN_POINT('Ctrl Pts',(52.8686969774916,5.56641354799435,18.1215275885649));
#593=CARTESIAN_POINT('Ctrl Pts',(47.4977584763989,5.56641354799435,18.1215275885649));
#594=CARTESIAN_POINT('Ctrl Pts',(47.4977584763989,0.195475046901716,18.1215275885649));
#595=CARTESIAN_POINT('Ctrl Pts',(47.4977584763989,-5.17546345419092,18.1215275885649));
#596=CARTESIAN_POINT('Ctrl Pts',(52.8686969774916,-5.17546345419092,18.1215275885649));
#597=CARTESIAN_POINT('Ctrl Pts',(52.8686969774916,-5.17516881495234,18.1372272009173));
#598=CARTESIAN_POINT('Ctrl Pts',(58.2393408393456,-5.17516881495234,18.1372272009173));
#599=CARTESIAN_POINT('Ctrl Pts',(58.2393408393456,0.195475046901716,18.1372272009173));
#600=CARTESIAN_POINT('Ctrl Pts',(58.2393408393456,5.56611890875578,18.1372272009173));
#601=CARTESIAN_POINT('Ctrl Pts',(52.8686969774916,5.56611890875578,18.1372272009173));
#602=CARTESIAN_POINT('Ctrl Pts',(47.4980531156375,5.56611890875578,18.1372272009173));
#603=CARTESIAN_POINT('Ctrl Pts',(47.4980531156375,0.195475046901716,18.1372272009173));
#604=CARTESIAN_POINT('Ctrl Pts',(47.4980531156375,-5.17516881495234,18.1372272009173));
#605=CARTESIAN_POINT('Ctrl Pts',(52.8686969774916,-5.17516881495234,18.1372272009173));
#606=CARTESIAN_POINT('Ctrl Pts',(52.8686969774916,-5.15608471725691,19.1541078355543));
#607=CARTESIAN_POINT('Ctrl Pts',(58.2202567416502,-5.15608471725691,19.1541078355543));
#608=CARTESIAN_POINT('Ctrl Pts',(58.2202567416502,0.195475046901716,19.1541078355543));
#609=CARTESIAN_POINT('Ctrl Pts',(58.2202567416502,5.54703481106035,19.1541078355543));
#610=CARTESIAN_POINT('Ctrl Pts',(52.8686969774916,5.54703481106035,19.1541078355543));
#611=CARTESIAN_POINT('Ctrl Pts',(47.5171372133329,5.54703481106035,19.1541078355543));
#612=CARTESIAN_POINT('Ctrl Pts',(47.5171372133329,0.195475046901716,19.1541078355543));
#613=CARTESIAN_POINT('Ctrl Pts',(47.5171372133329,-5.15608471725691,19.1541078355543));
#614=CARTESIAN_POINT('Ctrl Pts',(52.8686969774916,-5.15608471725691,19.1541078355543));
#615=CARTESIAN_POINT('Ctrl Pts',(52.8686969774916,-4.08251155331882,19.6329335550294));
#616=CARTESIAN_POINT('Ctrl Pts',(57.1466835777121,-4.08251155331882,19.6329335550294));
#617=CARTESIAN_POINT('Ctrl Pts',(57.1466835777121,0.195475046901716,19.6329335550294));
#618=CARTESIAN_POINT('Ctrl Pts',(57.1466835777121,4.47346164712225,19.6329335550294));
#619=CARTESIAN_POINT('Ctrl Pts',(52.8686969774916,4.47346164712225,19.6329335550294));
#620=CARTESIAN_POINT('Ctrl Pts',(48.590710377271,4.47346164712225,19.6329335550294));
#621=CARTESIAN_POINT('Ctrl Pts',(48.590710377271,0.195475046901716,19.6329335550294));
#622=CARTESIAN_POINT('Ctrl Pts',(48.590710377271,-4.08251155331882,19.6329335550294));
#623=CARTESIAN_POINT('Ctrl Pts',(52.8686969774916,-4.08251155331882,19.6329335550294));
#624=CARTESIAN_POINT('Ctrl Pts',(52.8686969774916,-2.60000384171665,19.8878041195202));
#625=CARTESIAN_POINT('Ctrl Pts',(55.6641758661099,-2.60000384171664,19.8878041195202));
#626=CARTESIAN_POINT('Ctrl Pts',(55.6641758661099,0.195475046901716,19.8878041195202));
#627=CARTESIAN_POINT('Ctrl Pts',(55.6641758661099,2.99095393552008,19.8878041195202));
#628=CARTESIAN_POINT('Ctrl Pts',(52.8686969774916,2.99095393552008,19.8878041195202));
#629=CARTESIAN_POINT('Ctrl Pts',(50.0732180888732,2.99095393552008,19.8878041195202));
#630=CARTESIAN_POINT('Ctrl Pts',(50.0732180888732,0.195475046901716,19.8878041195202));
#631=CARTESIAN_POINT('Ctrl Pts',(50.0732180888732,-2.60000384171664,19.8878041195202));
#632=CARTESIAN_POINT('Ctrl Pts',(52.8686969774916,-2.60000384171665,19.8878041195202));
#633=CARTESIAN_POINT('Ctrl Pts',(52.8686969774916,-1.79366902954249,20.0264280249064));
#634=CARTESIAN_POINT('Ctrl Pts',(54.8578410539358,-1.79366902954249,20.0264280249064));
#635=CARTESIAN_POINT('Ctrl Pts',(54.8578410539358,0.195475046901716,20.0264280249064));
#636=CARTESIAN_POINT('Ctrl Pts',(54.8578410539358,2.18461912334593,20.0264280249064));
#637=CARTESIAN_POINT('Ctrl Pts',(52.8686969774916,2.18461912334593,20.0264280249064));
#638=CARTESIAN_POINT('Ctrl Pts',(50.8795529010474,2.18461912334593,20.0264280249064));
#639=CARTESIAN_POINT('Ctrl Pts',(50.8795529010474,0.195475046901716,20.0264280249064));
#640=CARTESIAN_POINT('Ctrl Pts',(50.8795529010474,-1.79366902954249,20.0264280249064));
#641=CARTESIAN_POINT('Ctrl Pts',(52.8686969774916,-1.79366902954249,20.0264280249064));
#642=CARTESIAN_POINT('Ctrl Pts',(52.8686969774916,-0.859099905296282,20.095));
#643=CARTESIAN_POINT('Ctrl Pts',(53.9232719296896,-0.859099905296281,20.095));
#644=CARTESIAN_POINT('Ctrl Pts',(53.9232719296896,0.195475046901716,20.095));
#645=CARTESIAN_POINT('Ctrl Pts',(53.9232719296896,1.25004999909971,20.095));
#646=CARTESIAN_POINT('Ctrl Pts',(52.8686969774916,1.25004999909971,20.095));
#647=CARTESIAN_POINT('Ctrl Pts',(51.8141220252936,1.25004999909971,20.095));
#648=CARTESIAN_POINT('Ctrl Pts',(51.8141220252936,0.195475046901716,20.095));
#649=CARTESIAN_POINT('Ctrl Pts',(51.8141220252936,-0.859099905296281,20.095));
#650=CARTESIAN_POINT('Ctrl Pts',(52.8686969774916,-0.859099905296282,20.095));
#651=CARTESIAN_POINT('Ctrl Pts',(52.8686969774916,0.195475046901716,20.095));
#652=CARTESIAN_POINT('Ctrl Pts',(52.8686969774916,0.195475046901716,20.095));
#653=CARTESIAN_POINT('Ctrl Pts',(52.8686969774916,0.195475046901716,20.095));
#654=CARTESIAN_POINT('Ctrl Pts',(52.8686969774916,0.195475046901716,20.095));
#655=CARTESIAN_POINT('Ctrl Pts',(52.8686969774916,0.195475046901716,20.095));
#656=CARTESIAN_POINT('Ctrl Pts',(52.8686969774916,0.195475046901716,20.095));
#657=CARTESIAN_POINT('Ctrl Pts',(52.8686969774916,0.195475046901716,20.095));
#658=CARTESIAN_POINT('Ctrl Pts',(52.8686969774916,0.195475046901716,20.095));
#659=CARTESIAN_POINT('Ctrl Pts',(52.8686969774916,0.195475046901716,20.095));
#660=CARTESIAN_POINT('',(52.8686969774916,0.195475046901716,20.095));
#661=CARTESIAN_POINT('Ctrl Pts',(52.8686969774916,0.195475046901716,20.095));
#662=CARTESIAN_POINT('Ctrl Pts',(52.8686969774916,-0.859099905296282,20.095));
#663=CARTESIAN_POINT('Ctrl Pts',(52.8686969774916,-1.79366902954249,20.0264280249064));
#664=CARTESIAN_POINT('Ctrl Pts',(52.8686969774916,-2.60000384171665,19.8878041195202));
#665=CARTESIAN_POINT('Ctrl Pts',(52.8686969774916,-4.04215496835484,19.6398716002822));
#666=CARTESIAN_POINT('Ctrl Pts',(52.8686969774916,-5.09921642922604,19.1801954888806));
#667=CARTESIAN_POINT('Ctrl Pts',(52.8686969774916,-5.17135802246641,18.2191288501649));
#668=CARTESIAN_POINT('Origin',(52.8686969774916,0.195475046901716,10.3398477067548));
#669=CARTESIAN_POINT('',(52.8686969774916,3.87810493663923,10.5896954135095));
#670=CARTESIAN_POINT('Origin',(52.8686969774916,0.195475046901716,10.5896954135095));
#671=CARTESIAN_POINT('',(52.8686969774916,4.39555468499049,10.09));
#672=CARTESIAN_POINT('',(52.8686969774916,4.13682981081486,10.3398477067548));
#673=CARTESIAN_POINT('Origin',(52.8686969774916,0.195475046901716,10.09));
#674=CARTESIAN_POINT('Origin',(52.8686969774916,0.195475046901716,12.2399995326996));
#675=CARTESIAN_POINT('',(52.8686969774916,3.86382131312798,10.9987248741756));
#676=CARTESIAN_POINT('',(52.8686969774916,3.82047504690172,12.2399995326996));
#677=CARTESIAN_POINT('',(56.5370432437178,0.195475046901716,10.9987248741756));
#678=CARTESIAN_POINT('Origin',(52.8686969774916,0.195475046901716,10.9987248741756));
#679=CARTESIAN_POINT('Origin',(52.8686969774916,0.195475046901716,10.9987248741756));
#680=CARTESIAN_POINT('Origin',(52.8686969774916,0.195475046901716,10.09));
#681=CARTESIAN_POINT('',(53.6274245084575,-6.31325248406421,10.09));
#682=CARTESIAN_POINT('',(53.6274245084575,-3.05452495309829,10.09));
#683=CARTESIAN_POINT('',(52.1099694465256,-6.31325248406421,10.09));
#684=CARTESIAN_POINT('',(52.4936969774916,-6.31325248406421,10.09));
#685=CARTESIAN_POINT('',(52.1099694465256,-2.5288367928112,10.09));
#686=CARTESIAN_POINT('',(52.1099694465256,6.70420257786765,10.09));
#687=CARTESIAN_POINT('',(52.1099694465256,3.44547504690171,10.09));
#688=CARTESIAN_POINT('',(53.6274245084575,6.70420257786764,10.09));
#689=CARTESIAN_POINT('',(53.2436969774916,6.70420257786764,10.09));
#690=CARTESIAN_POINT('',(53.6274245084575,2.91978688661464,10.09));
#691=CARTESIAN_POINT('Origin',(52.8686969774916,0.195475046901716,10.99));
#692=CARTESIAN_POINT('',(56.2871955369631,0.195475046901716,11.24));
#693=CARTESIAN_POINT('Origin',(56.2871955369631,0.195475046901716,10.99));
#694=CARTESIAN_POINT('Origin',(52.8686969774916,0.195475046901716,11.24));
#695=CARTESIAN_POINT('Origin',(74.3282478411353,-31.0222814137636,11.24));
#696=CARTESIAN_POINT('Origin',(52.1186969789895,6.69547504690171,10.5899999999869));
#697=CARTESIAN_POINT('',(52.1448795763821,6.66929244801121,12.09));
#698=CARTESIAN_POINT('',(52.1448795763821,3.44547504690171,12.09));
#699=CARTESIAN_POINT('',(52.1189253492984,6.69524667509489,10.6030833262198));
#700=CARTESIAN_POINT('Origin',(52.8686969774916,0.195475046901716,12.09));
#701=CARTESIAN_POINT('',(53.5925143786011,6.66929244801121,12.09));
#702=CARTESIAN_POINT('',(53.5925143786011,2.91978688661464,12.09));
#703=CARTESIAN_POINT('',(53.2436969774916,6.66929244801121,12.09));
#704=CARTESIAN_POINT('Origin',(53.6186969759936,5.64409872632756,10.5899999999869));
#705=CARTESIAN_POINT('',(53.618536907237,6.69531497664718,10.5991703329095));
#706=CARTESIAN_POINT('Origin',(53.6186969774916,6.69547504540376,10.5899999999869));
#707=CARTESIAN_POINT('Origin',(53.6186969759936,-6.30452495309829,10.5899999999869));
#708=CARTESIAN_POINT('',(53.5925143786011,-6.27834235420778,12.09));
#709=CARTESIAN_POINT('',(53.5925143786011,-3.05452495309829,12.09));
#710=CARTESIAN_POINT('',(53.6184686056847,-6.30429658129146,10.6030833262198));
#711=CARTESIAN_POINT('Origin',(52.1186969774916,-6.30452495160033,10.5899999999869));
#712=CARTESIAN_POINT('',(52.1448795763821,-6.27834235420777,12.09));
#713=CARTESIAN_POINT('',(52.4936969774916,-6.27834235420778,12.09));
#714=CARTESIAN_POINT('',(52.1188570477461,-6.30436488284375,10.5991703329095));
#715=CARTESIAN_POINT('Origin',(52.1186969789895,-5.25314863252413,10.5899999999869));
#716=CARTESIAN_POINT('',(52.1448795763821,-2.5288367928112,12.09));
#717=CARTESIAN_POINT('Origin',(52.8686969774916,0.195475046901716,12.09));
#718=UNCERTAINTY_MEASURE_WITH_UNIT(LENGTH_MEASURE(0.01),#722,
'DISTANCE_ACCURACY_VALUE',
'Maximum model space distance between geometric entities at asserted c
onnectivities');
#719=UNCERTAINTY_MEASURE_WITH_UNIT(LENGTH_MEASURE(0.01),#722,
'DISTANCE_ACCURACY_VALUE',
'Maximum model space distance between geometric entities at asserted c
onnectivities');
#720=(
GEOMETRIC_REPRESENTATION_CONTEXT(3)
GLOBAL_UNCERTAINTY_ASSIGNED_CONTEXT((#718))
GLOBAL_UNIT_ASSIGNED_CONTEXT((#722,#724,#725))
REPRESENTATION_CONTEXT('','3D')
);
#721=(
GEOMETRIC_REPRESENTATION_CONTEXT(3)
GLOBAL_UNCERTAINTY_ASSIGNED_CONTEXT((#719))
GLOBAL_UNIT_ASSIGNED_CONTEXT((#722,#724,#725))
REPRESENTATION_CONTEXT('','3D')
);
#722=(
LENGTH_UNIT()
NAMED_UNIT(*)
SI_UNIT(.MILLI.,.METRE.)
);
#723=(
LENGTH_UNIT()
NAMED_UNIT(*)
SI_UNIT($,.METRE.)
);
#724=(
NAMED_UNIT(*)
PLANE_ANGLE_UNIT()
SI_UNIT($,.RADIAN.)
);
#725=(
NAMED_UNIT(*)
SI_UNIT($,.STERADIAN.)
SOLID_ANGLE_UNIT()
);
#726=SHAPE_DEFINITION_REPRESENTATION(#727,#728);
#727=PRODUCT_DEFINITION_SHAPE('',$,#730);
#728=SHAPE_REPRESENTATION('',(#332),#720);
#729=PRODUCT_DEFINITION_CONTEXT('part definition',#734,'design');
#730=PRODUCT_DEFINITION('Button_South','Button_South',#731,#729);
#731=PRODUCT_DEFINITION_FORMATION('',$,#736);
#732=PRODUCT_RELATED_PRODUCT_CATEGORY('Button_South','Button_South',(#736));
#733=APPLICATION_PROTOCOL_DEFINITION('international standard',
'automotive_design',2009,#734);
#734=APPLICATION_CONTEXT(
'Core Data for Automotive Mechanical Design Process');
#735=PRODUCT_CONTEXT('part definition',#734,'mechanical');
#736=PRODUCT('Button_South','Button_South',$,(#735));
#737=PRESENTATION_STYLE_ASSIGNMENT((#739));
#738=PRESENTATION_STYLE_ASSIGNMENT((#740));
#739=SURFACE_STYLE_USAGE(.BOTH.,#741);
#740=SURFACE_STYLE_USAGE(.BOTH.,#742);
#741=SURFACE_SIDE_STYLE('',(#743));
#742=SURFACE_SIDE_STYLE('',(#744));
#743=SURFACE_STYLE_FILL_AREA(#745);
#744=SURFACE_STYLE_FILL_AREA(#746);
#745=FILL_AREA_STYLE('Steel - Satin',(#747));
#746=FILL_AREA_STYLE('ABS (White)',(#748));
#747=FILL_AREA_STYLE_COLOUR('Steel - Satin',#749);
#748=FILL_AREA_STYLE_COLOUR('ABS (White)',#750);
#749=COLOUR_RGB('Steel - Satin',0.627450980392157,0.627450980392157,0.627450980392157);
#750=COLOUR_RGB('ABS (White)',0.83921568627451,0.83921568627451,0.83921568627451);
ENDSEC;
END-ISO-10303-21;
