                                                                        S      1
,,12HButton_South,12HButton_South,7Hunknown,7Hunknown,32,38,7,99,15,,1.,G      1
2,2HMM,1,0.08,15H20250819.125310,0.01,10000.,7Hunknown,7Hunknown,11,0,; G      2
     186       1                                                00000000D      1
     186            -219       1       0                               0D      2
     514       2                                                00010000D      3
     514                       2       1                               0D      4
     510       4                                                00010000D      5
     510            -219       1       1                               0D      6
     510       5                                                00010000D      7
     510            -219       1       1                               0D      8
     510       6                                                00010000D      9
     510            -219       1       1                               0D     10
     510       7                                                00010000D     11
     510            -219       1       1                               0D     12
     510       8                                                00010000D     13
     510            -219       1       1                               0D     14
     510       9                                                00010000D     15
     510            -219       1       1                               0D     16
     510      10                                                00010000D     17
     510            -219       1       1                               0D     18
     510      11                                                00010000D     19
     510            -219       1       1                               0D     20
     510      12                                                00010000D     21
     510            -219       1       1                               0D     22
     510      13                                                00010000D     23
     510            -219       1       1                               0D     24
     510      14                                                00010000D     25
     510            -219       1       1                               0D     26
     510      15                                                00010000D     27
     510            -219       1       1                               0D     28
     510      16                                                00010000D     29
     510            -219       1       1                               0D     30
     510      17                                                00010000D     31
     510            -219       1       1                               0D     32
     510      18                                                00010000D     33
     510            -219       1       1                               0D     34
     510      19                                                00010000D     35
     510            -219       1       1                               0D     36
     510      20                                                00010000D     37
     510            -219       1       1                               0D     38
     510      21                                                00010000D     39
     510            -219       1       1                               0D     40
     510      22                                                00010000D     41
     510            -219       1       1                               0D     42
     508      23                                                00010000D     43
     508                       1       1                               0D     44
     508      24                                                00010000D     45
     508                       1       1                               0D     46
     508      25                                                00010000D     47
     508                       1       1                               0D     48
     508      26                                                00010000D     49
     508                       1       1                               0D     50
     508      27                                                00010000D     51
     508                       3       1                               0D     52
     508      30                                                00010000D     53
     508                       1       1                               0D     54
     508      31                                                00010000D     55
     508                       1       1                               0D     56
     508      32                                                00010000D     57
     508                       2       1                               0D     58
     508      34                                                00010000D     59
     508                       2       1                               0D     60
     508      36                                                00010000D     61
     508                       1       1                               0D     62
     508      37                                                00010000D     63
     508                       1       1                               0D     64
     508      38                                                00010000D     65
     508                       1       1                               0D     66
     508      39                                                00010000D     67
     508                       2       1                               0D     68
     508      41                                                00010000D     69
     508                       1       1                               0D     70
     508      42                                                00010000D     71
     508                       1       1                               0D     72
     508      43                                                00010000D     73
     508                       1       1                               0D     74
     508      44                                                00010000D     75
     508                       1       1                               0D     76
     508      45                                                00010000D     77
     508                       1       1                               0D     78
     508      46                                                00010000D     79
     508                       1       1                               0D     80
     508      47                                                00010000D     81
     508                       1       1                               0D     82
     508      48                                                00010000D     83
     508                       1       1                               0D     84
     508      49                                                00010000D     85
     508                       1       1                               0D     86
     126      50                                                00010000D     87
     126       0              13       0                               0D     88
     126      63                                                00010000D     89
     126       0               4       0                               0D     90
     126      67                                                00010000D     91
     126       0              13       0                               0D     92
     126      80                                                00010000D     93
     126       0              13       0                               0D     94
     126      93                                                00010000D     95
     126       0               4       0                               0D     96
     126      97                                                00010000D     97
     126       0              13       0                               0D     98
     126     110                                                00010000D     99
     126       0               7       0                               0D    100
     126     117                                                00010000D    101
     126       0               8       0                               0D    102
     126     125                                                00010000D    103
     126       0               7       0                               0D    104
     126     132                                                00010000D    105
     126       0               6       0                               0D    106
     126     138                                                00010000D    107
     126       0               6       0                               0D    108
     126     144                                                00010000D    109
     126       0               6       0                               0D    110
     126     150                                                00010000D    111
     126       0               5       0                               0D    112
     126     155                                                00010000D    113
     126       0              19       0                               0D    114
     126     174                                                00010000D    115
     126       0              45       0                               0D    116
     126     219                                                00010000D    117
     126       0               6       0                               0D    118
     126     225                                                00010000D    119
     126       0               6       0                               0D    120
     126     231                                                00010000D    121
     126       0               6       0                               0D    122
     126     237                                                00010000D    123
     126       0              10       0                               0D    124
     126     247                                                00010000D    125
     126       0              15       0                               0D    126
     126     262                                                00010000D    127
     126       0               5       0                               0D    128
     126     267                                                00010000D    129
     126       0              12       0                               0D    130
     126     279                                                00010000D    131
     126       0               5       0                               0D    132
     126     284                                                00010000D    133
     126       0              12       0                               0D    134
     126     296                                                00010000D    135
     126       0               7       0                               0D    136
     126     303                                                00010000D    137
     126       0               4       0                               0D    138
     126     307                                                00010000D    139
     126       0               4       0                               0D    140
     126     311                                                00010000D    141
     126       0               4       0                               0D    142
     126     315                                                00010000D    143
     126       0               4       0                               0D    144
     126     319                                                00010000D    145
     126       0               4       0                               0D    146
     126     323                                                00010000D    147
     126       0               4       0                               0D    148
     126     327                                                00010000D    149
     126       0               6       0                               0D    150
     126     333                                                00010000D    151
     126       0               6       0                               0D    152
     126     339                                                00010000D    153
     126       0              10       0                               0D    154
     126     349                                                00010000D    155
     126       0               4       0                               0D    156
     126     353                                                00010000D    157
     126       0               4       0                               0D    158
     126     357                                                00010000D    159
     126       0               4       0                               0D    160
     126     361                                                00010000D    161
     126       0               4       0                               0D    162
     126     365                                                00010000D    163
     126       0               4       0                               0D    164
     126     369                                                00010000D    165
     126       0               4       0                               0D    166
     126     373                                                00010000D    167
     126       0               4       0                               0D    168
     126     377                                                00010000D    169
     126       0               4       0                               0D    170
     126     381                                                00010000D    171
     126       0               4       0                               0D    172
     126     385                                                00010000D    173
     126       0               4       0                               0D    174
     128     389                                                00010000D    175
     128       0    -219      23       0                               0D    176
     128     412                                                00010000D    177
     128       0    -219       8       0                               0D    178
     128     420                                                00010000D    179
     128       0    -219      22       0                               0D    180
     128     442                                                00010000D    181
     128       0    -219       8       0                               0D    182
     128     450                                                00010000D    183
     128       0    -219      27       0                               0D    184
     128     477                                                00010000D    185
     128       0    -219     140       0                               0D    186
     128     617                                                00010000D    187
     128       0    -219      24       0                               0D    188
     128     641                                                00010000D    189
     128       0    -219      27       0                               0D    190
     128     668                                                00010000D    191
     128       0    -219       7       0                               0D    192
     128     675                                                00010000D    193
     128       0    -219      34       0                               0D    194
     128     709                                                00010000D    195
     128       0    -219       7       0                               0D    196
     128     716                                                00010000D    197
     128       0    -219       9       0                               0D    198
     128     725                                                00010000D    199
     128       0    -219       7       0                               0D    200
     128     732                                                00010000D    201
     128       0    -219       9       0                               0D    202
     128     741                                                00010000D    203
     128       0    -219       9       0                               0D    204
     128     750                                                00010000D    205
     128       0    -219       9       0                               0D    206
     128     759                                                00010000D    207
     128       0    -219       9       0                               0D    208
     128     768                                                00010000D    209
     128       0    -219       9       0                               0D    210
     128     777                                                00010000D    211
     128       0    -219       8       0                               0D    212
     502     785                                                00010000D    213
     502                      24       1                               0D    214
     504     809                                                00010001D    215
     504                      13       1                               0D    216
     406     822                                                00000000D    217
     406                       1      15                               0D    218
     314     823                                                00000200D    219
     314                       2       0                               0D    220
     314     825                                                00000200D    221
     314                       2       0                               0D    222
186,3,1,0,0,1,217;                                                     1P      1
514,19,5,1,7,1,9,1,11,1,13,1,15,1,17,1,19,1,21,1,23,1,25,1,27,1,       3P      2
29,1,31,1,33,1,35,1,37,1,39,1,41,1;                                    3P      3
510,175,1,1,43;                                                        5P      4
510,177,1,1,45;                                                        7P      5
510,179,1,1,47;                                                        9P      6
510,181,1,1,49;                                                       11P      7
510,183,1,1,51;                                                       13P      8
510,185,1,1,53;                                                       15P      9
510,187,1,1,55;                                                       17P     10
510,189,1,1,57;                                                       19P     11
510,191,4,1,59,61,63,65;                                              21P     12
510,193,1,1,67;                                                       23P     13
510,195,1,1,69;                                                       25P     14
510,197,1,1,71;                                                       27P     15
510,199,1,1,73;                                                       29P     16
510,201,1,1,75;                                                       31P     17
510,203,1,1,77;                                                       33P     18
510,205,1,1,79;                                                       35P     19
510,207,1,1,81;                                                       37P     20
510,209,1,1,83;                                                       39P     21
510,211,1,1,85;                                                       41P     22
508,4,0,215,1,0,0,0,215,2,1,0,0,215,3,0,0,0,215,2,0,0;                43P     23
508,1,0,215,3,1,0;                                                    45P     24
508,4,0,215,4,0,0,0,215,5,1,0,0,215,6,0,0,0,215,5,0,0;                47P     25
508,1,0,215,6,1,0;                                                    49P     26
508,13,0,215,7,1,0,0,215,8,0,0,0,215,9,1,0,0,215,10,1,0,0,215,        51P     27
11,1,0,0,215,12,0,0,0,215,13,1,0,0,215,14,0,0,0,215,15,0,0,0,         51P     28
215,13,0,0,0,215,16,0,0,0,215,17,1,0,0,215,18,1,0;                    51P     29
508,4,0,215,14,1,0,0,215,15,1,0,0,215,19,0,0,0,215,19,1,0;            53P     30
508,4,0,215,20,1,0,0,215,21,1,0,0,215,22,1,0,0,215,21,0,0;            55P     31
508,5,0,215,20,0,0,0,215,23,1,0,0,215,24,0,0,0,215,25,0,0,0,215,      57P     32
23,0,0;                                                               57P     33
508,9,0,215,16,1,0,0,215,12,1,0,0,215,26,0,0,0,215,27,0,0,0,215,      59P     34
28,0,0,0,215,8,1,0,0,215,29,0,0,0,215,30,0,0,0,215,31,0,0;            59P     35
508,1,0,215,1,1,0;                                                    61P     36
508,1,0,215,4,1,0;                                                    63P     37
508,1,0,215,22,0,0;                                                   65P     38
508,6,0,215,25,1,0,0,215,32,1,0,0,215,33,1,0,0,215,34,1,0,0,215,      67P     39
32,0,0,0,215,24,1,0;                                                  67P     40
508,2,0,215,34,0,0,0,215,33,0,0;                                      69P     41
508,4,0,215,7,0,0,0,215,35,0,0,0,215,36,0,0,0,215,29,1,0;             71P     42
508,4,0,215,18,0,0,0,215,37,1,0,0,215,38,1,0,0,215,35,1,0;            73P     43
508,4,0,215,17,0,0,0,215,31,1,0,0,215,39,1,0,0,215,37,0,0;            75P     44
508,4,0,215,30,1,0,0,215,36,1,0,0,215,38,0,0,0,215,39,0,0;            77P     45
508,4,0,215,11,0,0,0,215,40,0,0,0,215,41,0,0,0,215,26,1,0;            79P     46
508,4,0,215,27,1,0,0,215,41,1,0,0,215,42,0,0,0,215,43,0,0;            81P     47
508,4,0,215,9,0,0,0,215,28,1,0,0,215,43,1,0,0,215,44,0,0;             83P     48
508,4,0,215,10,0,0,0,215,44,1,0,0,215,42,1,0,0,215,40,1,0;            85P     49
126,8,2,0,1,0,0,-3.14159265358979,-3.14159265358979,                  87P     50
-3.14159265358979,-1.5707963267949,-1.5707963267949,0.,0.,            87P     51
1.5707963267949,1.5707963267949,3.14159265358979,                     87P     52
3.14159265358979,3.14159265358979,1.,0.707106781186598,1.,            87P     53
0.707106781186598,1.,0.707106781186598,1.,0.707106781186598,1.,       87P     54
47.6436969774916,0.195475046901716,10.09,47.6436969774916,            87P     55
-0.179524953098285,10.09,48.0186969774916,-0.179524953098285,         87P     56
10.09,48.3936969774916,-0.179524953098285,10.09,                      87P     57
48.3936969774916,0.195475046901716,10.09,48.3936969774916,            87P     58
0.570475046901717,10.09,48.0186969774916,0.570475046901717,           87P     59
10.09,47.6436969774916,0.570475046901717,10.09,47.6436969774916,      87P     60
0.195475046901716,10.09,-3.14159265358979,3.14159265358979,0.,        87P     61
0.,0.;                                                                87P     62
126,1,1,0,0,1,0,-1.99343419235333D-34,-1.99343419235333D-34,          89P     63
0.667301790108876,0.667301790108876,1.,1.,47.6436969774916,           89P     64
0.195475046901716,10.09,47.6546122132187,0.195475046901716,           89P     65
10.34,-1.99343419235333D-34,0.667301790108876,0.,0.,0.;               89P     66
126,8,2,0,1,0,0,-3.14159265358979,-3.14159265358979,                  91P     67
-3.14159265358979,-1.5707963267949,-1.5707963267949,0.,0.,            91P     68
1.5707963267949,1.5707963267949,3.14159265358979,                     91P     69
3.14159265358979,3.14159265358979,1.,0.707106781186518,1.,            91P     70
0.707106781186518,1.,0.707106781186518,1.,0.707106781186518,1.,       91P     71
47.6546122132187,0.195475046901716,10.34,47.6546122132187,            91P     72
0.559559811174589,10.34,48.0186969774916,0.559559811174589,           91P     73
10.34,48.3827817417644,0.559559811174589,10.34,48.3827817417644,      91P     74
0.195475046901716,10.34,48.3827817417644,-0.168609717371157,          91P     75
10.34,48.0186969774916,-0.168609717371157,10.34,                      91P     76
47.6546122132187,-0.168609717371157,10.34,47.6546122132187,           91P     77
0.195475046901716,10.34,-3.14159265358979,3.14159265358979,0.,        91P     78
0.,0.;                                                                91P     79
126,8,2,0,1,0,0,-3.14159265358979,-3.14159265358979,                  93P     80
-3.14159265358979,-1.5707963267949,-1.5707963267949,0.,0.,            93P     81
1.5707963267949,1.5707963267949,3.14159265358979,                     93P     82
3.14159265358979,3.14159265358979,1.,0.707106781186597,1.,            93P     83
0.707106781186597,1.,0.707106781186597,1.,0.707106781186597,1.,       93P     84
47.8089567199896,-1.05979732184551,10.09,47.8089567199896,            93P     85
-1.43479732184551,10.09,48.1839567199896,-1.43479732184551,           93P     86
10.09,48.5589567199896,-1.43479732184551,10.09,48.5589567199896,      93P     87
-1.05979732184551,10.09,48.5589567199896,-0.684797321845509,          93P     88
10.09,48.1839567199896,-0.684797321845509,10.09,                      93P     89
47.8089567199896,-0.684797321845509,10.09,47.8089567199896,           93P     90
-1.05979732184551,10.09,-3.14159265358979,3.14159265358979,0.,        93P     91
0.,0.;                                                                93P     92
126,1,1,0,0,1,0,-1.99343419235333D-34,-1.99343419235333D-34,          95P     93
0.667301790108876,0.667301790108876,1.,1.,47.8089567199896,           95P     94
-1.05979732184551,10.09,47.8198719557167,-1.05979732184551,           95P     95
10.34,-1.99343419235333D-34,0.667301790108876,0.,0.,0.;               95P     96
126,8,2,0,1,0,0,-3.14159265358979,-3.14159265358979,                  97P     97
-3.14159265358979,-1.5707963267949,-1.5707963267949,0.,0.,            97P     98
1.5707963267949,1.5707963267949,3.14159265358979,                     97P     99
3.14159265358979,3.14159265358979,1.,0.707106781186518,1.,            97P    100
0.707106781186518,1.,0.707106781186518,1.,0.707106781186518,1.,       97P    101
47.8198719557167,-1.05979732184551,10.34,47.8198719557167,            97P    102
-0.695712557572638,10.34,48.1839567199896,-0.695712557572638,         97P    103
10.34,48.5480414842625,-0.695712557572638,10.34,                      97P    104
48.5480414842625,-1.05979732184551,10.34,48.5480414842625,            97P    105
-1.42388208611838,10.34,48.1839567199896,-1.42388208611838,           97P    106
10.34,47.8198719557167,-1.42388208611838,10.34,47.8198719557167,      97P    107
-1.05979732184551,10.34,-3.14159265358979,3.14159265358979,0.,        97P    108
0.,0.;                                                                97P    109
126,2,2,0,0,0,0,-9598.68825766155,-9598.68825766155,                  99P    110
-9598.68825766155,-9596.31894375779,-9596.31894375779,                99P    111
-9596.31894375779,1.00000000022782,1.00000000022781,                  99P    112
1.00000000022781,52.1448795764947,5.62122526395267,                   99P    113
12.0900000010045,52.1274733971489,5.63646359022086,                   99P    114
11.092800654142,52.1099694466084,5.65170191648905,                    99P    115
10.0899999993011,-9598.68825766155,-9596.31894375779,0.,0.,0.;        99P    116
126,4,2,0,0,0,0,-1.43262519912203,-1.43262519912203,                 101P    117
-1.43262519912203,0.,0.,1.43262519912203,1.43262519912203,           101P    118
1.43262519912203,1.,0.754232027843693,1.,0.754232027843693,1.,       101P    119
52.1099694465272,-5.26075182327191,10.09,47.3599694361216,           101P    120
-4.60023020902663,10.09,47.3599694361216,0.195475046901716,          101P    121
10.09,47.3599694361216,4.99118030283006,10.09,52.1099694465272,      101P    122
5.65170191707534,10.09,-1.43262519912203,1.43262519912203,0.,0.,     101P    123
0.;                                                                  101P    124
126,2,2,0,0,0,0,-10444.6741998828,-10444.6741998828,                 103P    125
-10444.6741998828,-10442.3048859787,-10442.3048859787,               103P    126
-10442.3048859787,1.00000000022781,1.00000000022781,                 103P    127
1.00000000022782,52.1099694466256,-5.26075182267066,                 103P    128
10.0900000002856,52.1274733971683,-5.24551349640046,                 103P    129
11.0928006552607,52.1448795765164,-5.23027517013025,                 103P    130
12.0900000022562,-10444.6741998828,-10442.3048859787,0.,0.,0.;       103P    131
126,2,2,0,0,0,0,1.43817525072252,1.43817525072252,                   105P    132
1.43817525072252,1.70341740286727,1.70341740286727,                  105P    133
1.70341740286727,1.,0.991218707121558,1.,52.1448795763808,           105P    134
-5.23027517075831,12.09,52.8686969774916,-5.32683538992312,          105P    135
12.09,53.5925143786023,-5.23027517075831,12.09,1.43817525072252,     105P    136
1.70341740286727,0.,0.,0.;                                           105P    137
126,2,2,0,0,0,0,-9598.68825293987,-9598.68825293987,                 107P    138
-9598.68825293987,-9596.31893906834,-9596.31893906834,               107P    139
-9596.31893906834,1.,1.,1.,53.5925143784353,-5.23027523752534,       107P    140
12.0900000031008,53.6099205577604,-5.24551356358906,                 107P    141
11.0928006574227,53.6274245082775,-5.26075188965279,                 107P    142
10.0900000039124,-9598.68825293987,-9596.31893906834,0.,0.,0.;       107P    143
126,2,2,0,0,0,0,3.14159265358979,3.14159265358979,                   109P    144
3.14159265358979,4.57421785271182,4.57421785271182,                  109P    145
4.57421785271182,1.,0.754232027843692,1.,58.3774245188615,           109P    146
0.195475046901717,10.09,58.3774245188615,-4.60023020902663,          109P    147
10.09,53.6274245084559,-5.26075182327191,10.09,3.14159265358979,     109P    148
4.57421785271182,0.,0.,0.;                                           109P    149
126,1,1,0,0,1,0,-0.0909230318188914,-0.0909230318188914,             111P    150
1.38732553967189,1.38732553967189,1.,1.,58.3774245188735,            111P    151
0.195475046901716,10.0899999993116,58.2355300470061,                 111P    152
0.195475046901716,18.2191288482147,-0.0909230318188914,              111P    153
1.38732553967189,0.,0.,0.;                                           111P    154
126,11,3,0,0,1,0,0.845654552589699,0.845654552589699,                113P    155
0.845654552589699,0.845654552589699,1.04826183909805,                113P    156
1.04826183909805,1.25791420691766,1.25791420691766,                  113P    157
1.46756657473726,1.46756657473726,1.67721894255686,                  113P    158
1.67721894255686,1.6913133124848,1.6913133124848,                    113P    159
1.6913133124848,1.6913133124848,1.,1.,1.,1.,1.,1.,1.,1.,1.,1.,       113P    160
1.,1.,52.8686969774916,-5.17135802261281,18.2191288482146,           113P    161
53.5436362584934,-5.1713580226128,18.2191288482146,                  113P    162
54.2127833882029,-5.0440322614009,18.2191288482146,                  113P    163
55.4908328097307,-4.53904498500972,18.2191288482146,                 113P    164
56.0844035404189,-4.1577430221168,18.2191288482146,                  113P    165
57.0919758961072,-3.18907683346,18.2191288482146,                    113P    166
57.4963445802176,-2.61097358442355,18.2191288482146,                 113P    167
58.060725559571,-1.3323061737424,18.2191288482146,                   113P    168
58.2153420650402,-0.6439667694714,18.2191288482146,                  113P    169
58.2349146107326,0.101598825255389,18.2191288482146,                 113P    170
58.2355300470061,0.148549881480815,18.2191288482146,                 113P    171
58.2355300470061,0.195475046901719,18.2191288482146,                 113P    172
0.845654552589699,1.6913133124848,0.,0.,0.;                          113P    173
126,30,3,0,0,1,0,1.6913133124848,1.6913133124848,                    115P    174
1.6913133124848,1.6913133124848,1.88687131037647,                    115P    175
1.88687131037647,2.09652367819608,2.09652367819608,                  115P    176
2.30617604601568,2.30617604601568,2.51582841383528,                  115P    177
2.51582841383528,2.72548078165488,2.72548078165488,                  115P    178
2.93513314947449,2.93513314947449,3.14478551729408,                  115P    179
3.14478551729408,3.26348890561271,3.26348890561271,                  115P    180
3.38219229393134,3.38219229393134,3.38219229393134,                  115P    181
3.59184466175095,3.59184466175095,3.80149702957056,                  115P    182
3.80149702957056,4.01114939739017,4.01114939739017,                  115P    183
4.22080176520978,4.22080176520978,4.22784684652104,                  115P    184
4.22784684652104,4.22784684652104,4.22784684652104,1.,1.,1.,1.,      115P    185
1.,1.,1.,1.,1.,1.,1.,1.,1.,1.,1.,1.,1.,1.,1.,1.,1.,1.,1.,1.,1.,      115P    186
1.,1.,1.,1.,1.,1.,58.2355300470061,0.19547504690172,                 115P    187
18.2191288482146,58.2355300470061,0.846557106430667,                 115P    188
18.2191288482146,58.1170436885384,1.49265485213936,                  115P    189
18.2191288482146,57.6372185342471,2.75525597855218,                  115P    190
18.2191288482146,57.263738583211,3.35377926582658,                   115P    191
18.2191288482146,56.3083777510939,4.37397626516089,                  115P    192
18.2191288482146,55.7356306402799,4.78589633785686,                  115P    193
18.2191288482146,54.4644794640292,5.36700813786644,                  115P    194
18.2191288482146,53.7782282966683,5.53064411964157,                  115P    195
18.2191288482146,52.3816288443498,5.58565508925289,                  115P    196
18.2191288482146,51.6846328113618,5.47650414223631,                  115P    197
18.2191288482146,50.3717117651362,4.99717694357977,                  115P    198
18.2191288482146,49.7683389926977,4.63158332121247,                  115P    199
18.2191288482146,48.7356930373772,3.6896923678882,                   115P    200
18.2191288482146,48.3162925126634,3.12240002781524,                  115P    201
18.2191288482146,47.8482028644121,2.13302429929242,                  115P    202
18.2191288482146,47.7190566724433,1.75773718032469,                  115P    203
18.2191288482146,47.5456218505595,0.985620247445247,                 115P    204
18.2191288482146,47.501863907977,0.591153007963812,                  115P    205
18.2191288482146,47.501863907977,0.195475046901717,                  115P    206
18.2191288482146,47.501863907977,-0.503366179163642,                 115P    207
18.2191288482146,47.6383631393457,-1.19552610220992,                 115P    208
18.2191288482146,48.1689937999586,-2.48856412911079,                 115P    209
18.2191288482146,48.5580521108713,-3.07708008466802,                 115P    210
18.2191288482145,49.5398568425054,-4.07185428313466,                 115P    211
18.2191288482145,50.1232166748676,-4.46860194251289,                 115P    212
18.2191288482146,51.4091801212478,-5.01615490941939,                 115P    213
18.2191288482146,52.0994892238142,-5.1617253121446,                  115P    214
18.2191288482146,52.8217518586357,-5.1712040781741,                  115P    215
18.2191288482146,52.8452279197061,-5.17135802261281,                 115P    216
18.2191288482146,52.8686969774916,-5.17135802261281,                 115P    217
18.2191288482146,1.6913133124848,4.22784684652104,0.,0.,0.;          115P    218
126,2,2,0,0,0,0,1.70896745446776,1.70896745446776,                   117P    219
1.70896745446776,3.14159265358979,3.14159265358979,                  117P    220
3.14159265358979,1.,0.754232027843688,1.,53.6274245084559,           117P    221
5.65170191707534,10.09,58.3774245188615,4.99118030283007,10.09,      117P    222
58.3774245188615,0.195475046901717,10.09,1.70896745446776,           117P    223
3.14159265358979,0.,0.,0.;                                           117P    224
126,2,2,0,0,0,0,-10444.6742054523,-10444.6742054523,                 119P    225
-10444.6742054523,-10442.3048915786,-10442.3048915786,               119P    226
-10442.3048915786,1.,1.,1.,53.6274245083245,5.6517019834971,         119P    227
10.0900000012308,53.6099205577913,5.63646365741952,                  119P    228
11.0928006556603,53.5925143784502,5.62122533134194,                  119P    229
12.0900000022428,-10444.6742054523,-10442.3048915786,0.,0.,0.;       119P    230
126,2,2,0,0,0,0,-1.70341740286727,-1.70341740286727,                 121P    231
-1.70341740286727,-1.43817525072252,-1.43817525072252,               121P    232
-1.43817525072252,1.,0.99121870712158,1.,53.5925143786023,           121P    233
5.62122526456174,12.09,52.8686969774916,5.71778548372655,12.09,      121P    234
52.1448795763808,5.62122526456174,12.09,-1.70341740286727,           121P    235
-1.43817525072252,0.,0.,0.;                                          121P    236
126,6,3,0,0,1,0,0.,0.,0.,0.,0.352140475219102,0.352140475219102,     123P    237
0.352140475219102,0.981953023808974,0.981953023808974,               123P    238
0.981953023808974,0.981953023808974,1.,1.,1.,1.,1.,1.,1.,            123P    239
52.8686969774916,0.195475046901716,20.095,52.8686969774916,          123P    240
-0.859099905296282,20.095,52.8686969774916,-1.79366902954249,        123P    241
20.0264280249064,52.8686969774916,-2.60000384171665,                 123P    242
19.8878041195202,52.8686969774916,-4.04215496835484,                 123P    243
19.6398716002822,52.8686969774916,-5.09921642922604,                 123P    244
19.1801954888806,52.8686969774916,-5.17135802246641,                 123P    245
18.2191288501649,0.,0.981953023808974,0.,0.,0.;                      123P    246
126,8,2,0,1,0,0,-3.14159265358979,-3.14159265358979,                 125P    247
-3.14159265358979,-1.5707963267949,-1.5707963267949,0.,0.,           125P    248
1.5707963267949,1.5707963267949,3.14159265358979,                    125P    249
3.14159265358979,3.14159265358979,1.,0.707106781186551,1.,           125P    250
0.707106781186551,1.,0.707106781186551,1.,0.707106781186551,1.,      125P    251
52.8686969774916,3.87810493663923,10.5896954135095,                  125P    252
49.1860670877541,3.87810493663923,10.5896954135095,                  125P    253
49.1860670877541,0.195475046901716,10.5896954135095,                 125P    254
49.1860670877541,-3.4871548428358,10.5896954135095,                  125P    255
52.8686969774916,-3.4871548428358,10.5896954135095,                  125P    256
56.5513268672291,-3.4871548428358,10.5896954135095,                  125P    257
56.5513268672291,0.195475046901716,10.5896954135095,                 125P    258
56.5513268672291,3.87810493663923,10.5896954135095,                  125P    259
52.8686969774916,3.87810493663923,10.5896954135095,                  125P    260
-3.14159265358979,3.14159265358979,0.,0.,0.;                         125P    261
126,1,1,0,0,1,0,-0.0912553986417183,-0.0912553986417183,             127P    262
0.0912553986417183,0.0912553986417183,1.,1.,52.8686969774916,        127P    263
3.87810493663923,10.5896954135095,52.8686969774916,                  127P    264
4.39555468499049,10.09,-0.0912553986417183,0.0912553986417183,       127P    265
0.,0.,0.;                                                            127P    266
126,8,2,0,1,0,0,-3.14159265358979,-3.14159265358979,                 129P    267
-3.14159265358979,-1.5707963267949,-1.5707963267949,0.,0.,           129P    268
1.5707963267949,1.5707963267949,3.14159265358979,                    129P    269
3.14159265358979,3.14159265358979,1.,0.707106781186546,1.,           129P    270
0.707106781186547,1.,0.707106781186546,1.,0.707106781186547,1.,      129P    271
52.8686969774916,4.39555468499049,10.09,57.0687766155803,            129P    272
4.39555468499049,10.09,57.0687766155803,0.195475046901717,10.09,     129P    273
57.0687766155803,-4.00460459118705,10.09,52.8686969774916,           129P    274
-4.00460459118705,10.09,48.6686173394028,-4.00460459118706,          129P    275
10.09,48.6686173394028,0.195475046901715,10.09,48.6686173394028,     129P    276
4.39555468499049,10.09,52.8686969774916,4.39555468499049,10.09,      129P    277
-3.14159265358979,3.14159265358979,0.,0.,0.;                         129P    278
126,1,1,0,0,1,0,-0.455533807629575,-0.455533807629575,               131P    279
-0.342629315976644,-0.342629315976644,1.,1.,52.8686969774916,        131P    280
3.87810493663923,10.5896954135095,52.8686969774916,                  131P    281
3.86382131312798,10.9987248741756,-0.455533807629575,                131P    282
-0.342629315976644,0.,0.,0.;                                         131P    283
126,6,2,0,0,0,0,-1.5707963267949,-1.5707963267949,                   133P    284
-1.5707963267949,0.,0.,1.5707963267949,1.5707963267949,              133P    285
3.14159265358979,3.14159265358979,3.14159265358979,1.,               133P    286
0.707106781186548,1.,0.707106781186548,1.,0.707106781186548,1.,      133P    287
56.5370432437178,0.195475046901716,10.9987248741756,                 133P    288
56.5370432437178,-3.47287121932455,10.9987248741756,                 133P    289
52.8686969774916,-3.47287121932455,10.9987248741756,                 133P    290
49.2003507112653,-3.47287121932455,10.9987248741756,                 133P    291
49.2003507112653,0.195475046901716,10.9987248741756,                 133P    292
49.2003507112653,3.86382131312798,10.9987248741756,                  133P    293
52.8686969774916,3.86382131312798,10.9987248741756,                  133P    294
-1.5707963267949,3.14159265358979,0.,0.,0.;                          133P    295
126,2,2,0,0,0,0,-3.14159265358979,-3.14159265358979,                 135P    296
-3.14159265358979,-1.5707963267949,-1.5707963267949,                 135P    297
-1.5707963267949,1.,0.707106781186548,1.,52.8686969774916,           135P    298
3.86382131312798,10.9987248741756,56.5370432437178,                  135P    299
3.86382131312798,10.9987248741756,56.5370432437178,                  135P    300
0.195475046901716,10.9987248741756,-3.14159265358979,                135P    301
-1.5707963267949,0.,0.,0.;                                           135P    302
126,1,1,0,0,1,0,-0.325872753096593,-0.325872753096593,               137P    303
-0.220622687018134,-0.220622687018134,1.,1.,53.6274245084575,        137P    304
-6.31325248406421,10.09,53.6274245084575,-5.26075182327963,          137P    305
10.09,-0.325872753096593,-0.220622687018134,0.,0.,0.;                137P    306
126,1,1,0,0,1,0,-0.038372753096592,-0.038372753096592,               139P    307
0.113372753096592,0.113372753096592,1.,1.,52.1099694465256,          139P    308
-6.31325248406421,10.09,53.6274245084575,-6.31325248406421,          139P    309
10.09,-0.038372753096592,0.113372753096592,0.,0.,0.;                 139P    310
126,1,1,0,0,1,0,0.273191503046842,0.273191503046842,                 141P    311
0.3784415691253,0.3784415691253,1.,1.,52.1099694465256,              141P    312
-5.26075182327963,10.09,52.1099694465256,-6.31325248406421,          141P    313
10.09,0.273191503046842,0.3784415691253,0.,0.,0.;                    141P    314
126,1,1,0,0,1,0,-0.325872753096593,-0.325872753096593,               143P    315
-0.220622687018134,-0.220622687018134,1.,1.,52.1099694465256,        143P    316
6.70420257786765,10.09,52.1099694465256,5.65170191708306,10.09,      143P    317
-0.325872753096593,-0.220622687018134,0.,0.,0.;                      143P    318
126,1,1,0,0,1,0,-0.038372753096592,-0.038372753096592,               145P    319
0.113372753096592,0.113372753096592,1.,1.,53.6274245084575,          145P    320
6.70420257786764,10.09,52.1099694465256,6.70420257786764,10.09,      145P    321
-0.038372753096592,0.113372753096592,0.,0.,0.;                       145P    322
126,1,1,0,0,1,0,0.273191503046842,0.273191503046842,                 147P    323
0.3784415691253,0.3784415691253,1.,1.,53.6274245084575,              147P    324
5.65170191708306,10.09,53.6274245084575,6.70420257786764,10.09,      147P    325
0.273191503046842,0.3784415691253,0.,0.,0.;                          147P    326
126,2,2,0,0,0,0,0.0349065850398863,0.0349065850398863,               149P    327
0.0349065850398863,1.57079632679491,1.57079632679491,                149P    328
1.57079632679491,1.,0.719339800338707,1.,56.5370432437178,           149P    329
0.195475046901716,10.9987248741756,56.5286177306648,                 149P    330
0.195475046901716,11.24,56.2871955369631,0.195475046901716,          149P    331
11.24,0.0349065850398863,1.57079632679491,0.,0.,0.;                  149P    332
126,2,2,0,0,0,0,1.5707963267949,1.5707963267949,1.5707963267949,     151P    333
3.14159265358979,3.14159265358979,3.14159265358979,1.,               151P    334
0.707106781186546,1.,56.2871955369631,0.195475046901716,11.24,       151P    335
56.2871955369631,3.61397360637321,11.24,52.8686969774916,            151P    336
3.61397360637321,11.24,1.5707963267949,3.14159265358979,0.,0.,       151P    337
0.;                                                                  151P    338
126,6,2,0,0,0,0,-3.14159265358979,-3.14159265358979,                 153P    339
-3.14159265358979,-1.5707963267949,-1.5707963267949,0.,0.,           153P    340
1.5707963267949,1.5707963267949,1.5707963267949,1.,                  153P    341
0.707106781186546,1.,0.707106781186547,1.,0.707106781186547,1.,      153P    342
52.8686969774916,3.61397360637321,11.24,49.4501984180201,            153P    343
3.61397360637321,11.24,49.4501984180201,0.195475046901716,11.24,     153P    344
49.4501984180201,-3.22302351256977,11.24,52.8686969774916,           153P    345
-3.22302351256977,11.24,56.2871955369631,-3.22302351256977,          153P    346
11.24,56.2871955369631,0.195475046901716,11.24,                      153P    347
-3.14159265358979,1.5707963267949,0.,0.,0.;                          153P    348
126,1,1,0,0,1,0,-0.32238174011095,-0.32238174011095,                 155P    349
-0.217575021765031,-0.217575021765031,1.,1.,52.1448795763821,        155P    350
6.66929244801121,12.09,52.1448795763821,5.62122526455202,12.09,      155P    351
-0.32238174011095,-0.217575021765031,0.,0.,0.;                       155P    352
126,1,1,0,0,1,0,-0.0513239628276823,-0.0513239628276823,             157P    353
0.148736963750528,0.148736963750528,1.,1.,52.1099694465256,          157P    354
6.70420257786765,10.09,52.1448795763821,6.66929244801121,12.09,      157P    355
-0.0513239628276823,0.148736963750528,0.,0.,0.;                      157P    356
126,1,1,0,0,1,0,0.270143837793738,0.270143837793738,                 159P    357
0.374950556139657,0.374950556139657,1.,1.,53.5925143786011,          159P    358
5.62122526455202,12.09,53.5925143786011,6.66929244801121,12.09,      159P    359
0.270143837793738,0.374950556139657,0.,0.,0.;                        159P    360
126,1,1,0,0,1,0,-0.0348817401109489,-0.0348817401109489,             161P    361
0.109881740110949,0.109881740110949,1.,1.,53.5925143786011,          161P    362
6.66929244801121,12.09,52.1448795763821,6.66929244801121,12.09,      161P    363
-0.0348817401109489,0.109881740110949,0.,0.,0.;                      161P    364
126,1,1,0,0,1,0,-0.0509325442940063,-0.0509325442940063,             163P    365
0.149128382284204,0.149128382284204,1.,1.,53.6274245084575,          163P    366
6.70420257786764,10.09,53.5925143786011,6.66929244801121,12.09,      163P    367
-0.0509325442940063,0.149128382284204,0.,0.,0.;                      163P    368
126,1,1,0,0,1,0,-0.322381740110949,-0.322381740110949,               165P    369
-0.217575021765031,-0.217575021765031,1.,1.,53.5925143786011,        165P    370
-6.27834235420778,12.09,53.5925143786011,-5.23027517074859,          165P    371
12.09,-0.322381740110949,-0.217575021765031,0.,0.,0.;                165P    372
126,1,1,0,0,1,0,-0.0513239628276823,-0.0513239628276823,             167P    373
0.148736963750528,0.148736963750528,1.,1.,53.6274245084575,          167P    374
-6.31325248406421,10.09,53.5925143786011,-6.27834235420778,          167P    375
12.09,-0.0513239628276823,0.148736963750528,0.,0.,0.;                167P    376
126,1,1,0,0,1,0,-0.0348817401109489,-0.0348817401109489,             169P    377
0.109881740110949,0.109881740110949,1.,1.,52.1448795763821,          169P    378
-6.27834235420778,12.09,53.5925143786011,-6.27834235420778,          169P    379
12.09,-0.0348817401109489,0.109881740110949,0.,0.,0.;                169P    380
126,1,1,0,0,1,0,-0.0509325442940063,-0.0509325442940063,             171P    381
0.149128382284204,0.149128382284204,1.,1.,52.1099694465256,          171P    382
-6.31325248406421,10.09,52.1448795763821,-6.27834235420777,          171P    383
12.09,-0.0509325442940063,0.149128382284204,0.,0.,0.;                171P    384
126,1,1,0,0,1,0,0.270143837793739,0.270143837793739,                 173P    385
0.374950556139657,0.374950556139657,1.,1.,52.1448795763821,          173P    386
-5.23027517074859,12.09,52.1448795763821,-6.27834235420777,          173P    387
12.09,0.270143837793739,0.374950556139657,0.,0.,0.;                  173P    388
128,1,8,1,2,0,1,0,0,1,-1.99343419235333D-34,                         175P    389
-1.99343419235333D-34,0.667301790108876,0.667301790108876,           175P    390
-3.14159265358979,-3.14159265358979,-3.14159265358979,               175P    391
-1.5707963267949,-1.5707963267949,0.,0.,1.5707963267949,             175P    392
1.5707963267949,3.14159265358979,3.14159265358979,                   175P    393
3.14159265358979,1.,1.,0.707106781186548,0.707106781186548,1.,       175P    394
1.,0.707106781186548,0.707106781186548,1.,1.,0.707106781186548,      175P    395
0.707106781186548,1.,1.,0.707106781186548,0.707106781186548,1.,      175P    396
1.,47.6436969774916,0.195475046901716,10.09,47.6546122132187,        175P    397
0.195475046901716,10.34,47.6436969774916,-0.17952495309828,          175P    398
10.09,47.6546122132187,-0.168609717371151,10.34,                     175P    399
48.0186969774916,-0.17952495309828,10.09,48.0186969774916,           175P    400
-0.168609717371151,10.34,48.3936969774916,-0.17952495309828,         175P    401
10.09,48.3827817417644,-0.168609717371151,10.34,                     175P    402
48.3936969774916,0.195475046901716,10.09,48.3827817417644,           175P    403
0.195475046901716,10.34,48.3936969774916,0.570475046901713,          175P    404
10.09,48.3827817417644,0.559559811174584,10.34,48.0186969774916,     175P    405
0.570475046901713,10.09,48.0186969774916,0.559559811174584,          175P    406
10.34,47.6436969774916,0.570475046901713,10.09,47.6546122132187,     175P    407
0.559559811174584,10.34,47.6436969774916,0.195475046901716,          175P    408
10.09,47.6546122132187,0.195475046901716,10.34,                      175P    409
-1.99343419235333D-34,0.667301790108876,-3.14159265358979,           175P    410
3.14159265358979;                                                    175P    411
128,1,1,1,1,0,0,1,0,0,-0.379094853495786,-0.379094853495786,         177P    412
-0.304277900641211,-0.304277900641211,0.991341523572712,             177P    413
0.991341523572712,1.06615847642729,1.06615847642729,1.,1.,1.,1.,     177P    414
47.6446122132187,0.569559811174589,10.34,48.3927817417644,           177P    415
0.569559811174589,10.34,47.6446122132187,-0.178609717371156,         177P    416
10.34,48.3927817417644,-0.178609717371156,10.34,                     177P    417
-0.379094853495786,-0.304277900641211,0.991341523572712,             177P    418
1.06615847642729;                                                    177P    419
128,1,8,1,2,0,1,0,0,1,-1.99343419235333D-34,                         179P    420
-1.99343419235333D-34,0.667301790108876,0.667301790108876,           179P    421
-3.14159265358979,-3.14159265358979,-3.14159265358979,               179P    422
-1.5707963267949,-1.5707963267949,0.,0.,1.5707963267949,             179P    423
1.5707963267949,3.14159265358979,3.14159265358979,                   179P    424
3.14159265358979,1.,1.,0.707106781186548,0.707106781186548,1.,       179P    425
1.,0.707106781186548,0.707106781186548,1.,1.,0.707106781186548,      179P    426
0.707106781186548,1.,1.,0.707106781186548,0.707106781186548,1.,      179P    427
1.,47.8089567199896,-1.05979732184551,10.09,47.8198719557167,        179P    428
-1.05979732184551,10.34,47.8089567199896,-1.43479732184551,          179P    429
10.09,47.8198719557167,-1.42388208611838,10.34,48.1839567199896,     179P    430
-1.43479732184551,10.09,48.1839567199896,-1.42388208611838,          179P    431
10.34,48.5589567199896,-1.43479732184551,10.09,48.5480414842625,     179P    432
-1.42388208611838,10.34,48.5589567199896,-1.05979732184551,          179P    433
10.09,48.5480414842625,-1.05979732184551,10.34,48.5589567199896,     179P    434
-0.684797321845514,10.09,48.5480414842625,-0.695712557572643,        179P    435
10.34,48.1839567199896,-0.684797321845514,10.09,                     179P    436
48.1839567199896,-0.695712557572643,10.34,47.8089567199896,          179P    437
-0.684797321845514,10.09,47.8198719557167,-0.695712557572643,        179P    438
10.34,47.8089567199896,-1.05979732184551,10.09,47.8198719557167,     179P    439
-1.05979732184551,10.34,-1.99343419235333D-34,0.667301790108876,     179P    440
-3.14159265358979,3.14159265358979;                                  179P    441
128,1,1,1,1,0,0,1,0,0,-0.362568879245984,-0.362568879245984,         181P    442
-0.287751926391408,-0.287751926391408,1.11686876044743,              181P    443
1.11686876044743,1.19168571330201,1.19168571330201,1.,1.,1.,1.,      181P    444
47.8098719557167,-0.68571255757264,10.34,48.5580414842625,           181P    445
-0.68571255757264,10.34,47.8098719557167,-1.43388208611838,          181P    446
10.34,48.5580414842625,-1.43388208611838,10.34,                      181P    447
-0.362568879245984,-0.287751926391408,1.11686876044743,              181P    448
1.19168571330201;                                                    181P    449
128,1,8,1,2,0,1,0,0,1,-1.38732553967189,-1.38732553967189,           183P    450
0.0909230318188914,0.0909230318188914,-3.14159265358979,             183P    451
-3.14159265358979,-3.14159265358979,-1.5707963267949,                183P    452
-1.5707963267949,0.,0.,1.5707963267949,1.5707963267949,              183P    453
3.14159265358979,3.14159265358979,3.14159265358979,1.,1.,            183P    454
0.707106781186548,0.707106781186548,1.,1.,0.707106781186548,         183P    455
0.707106781186548,1.,1.,0.707106781186548,0.707106781186548,1.,      183P    456
1.,0.707106781186548,0.707106781186548,1.,1.,58.3774245188735,       183P    457
0.195475046901716,10.0899999993116,58.2355300470061,                 183P    458
0.195475046901716,18.2191288482147,58.3774245188735,                 183P    459
-5.31325249448026,10.0899999993116,58.2355300470061,                 183P    460
-5.1713580226128,18.2191288482147,52.8686969774916,                  183P    461
-5.31325249448026,10.0899999993116,52.8686969774916,                 183P    462
-5.1713580226128,18.2191288482147,47.3599694361096,                  183P    463
-5.31325249448026,10.0899999993116,47.501863907977,                  183P    464
-5.1713580226128,18.2191288482147,47.3599694361096,                  183P    465
0.195475046901716,10.0899999993116,47.501863907977,                  183P    466
0.195475046901716,18.2191288482147,47.3599694361096,                 183P    467
5.70420258828369,10.0899999993116,47.501863907977,                   183P    468
5.56230811641623,18.2191288482147,52.8686969774916,                  183P    469
5.70420258828369,10.0899999993116,52.8686969774916,                  183P    470
5.56230811641623,18.2191288482147,58.3774245188735,                  183P    471
5.70420258828369,10.0899999993116,58.2355300470061,                  183P    472
5.56230811641623,18.2191288482147,58.3774245188735,                  183P    473
0.195475046901716,10.0899999993116,58.2355300470061,                 183P    474
0.195475046901716,18.2191288482147,-1.38732553967189,                183P    475
0.0909230318188914,-3.14159265358979,3.14159265358979;               183P    476
128,12,8,3,2,0,1,0,0,1,-3.18008771846221,-3.18008771846221,          185P    477
-3.18008771846221,-3.18008771846221,-2.82794724324311,               185P    478
-2.82794724324311,-2.82794724324311,-2.18051027016744,               185P    479
-2.18051027016744,-2.18051027016744,-2.17051449568449,               185P    480
-2.17051449568449,-2.17051449568449,0.,0.,0.,0.,0.,0.,0.,            185P    481
1.5707963267949,1.5707963267949,3.14159265358979,                    185P    482
3.14159265358979,4.71238898038469,4.71238898038469,                  185P    483
6.28318530717959,6.28318530717959,6.28318530717959,1.,1.,1.,1.,      185P    484
1.,1.,1.,1.,1.,1.,1.,1.,1.,0.707106781186548,0.707106781186548,      185P    485
0.707106781186548,0.707106781186548,0.707106781186548,               185P    486
0.707106781186548,0.707106781186548,0.707106781186548,               185P    487
0.707106781186548,0.707106781186548,0.707106781186548,               185P    488
0.707106781186548,0.707106781186548,1.,1.,1.,1.,1.,1.,1.,1.,1.,      185P    489
1.,1.,1.,1.,0.707106781186548,0.707106781186548,                     185P    490
0.707106781186548,0.707106781186548,0.707106781186548,               185P    491
0.707106781186548,0.707106781186548,0.707106781186548,               185P    492
0.707106781186548,0.707106781186548,0.707106781186548,               185P    493
0.707106781186548,0.707106781186548,1.,1.,1.,1.,1.,1.,1.,1.,1.,      185P    494
1.,1.,1.,1.,0.707106781186548,0.707106781186548,                     185P    495
0.707106781186548,0.707106781186548,0.707106781186548,               185P    496
0.707106781186548,0.707106781186548,0.707106781186548,               185P    497
0.707106781186548,0.707106781186548,0.707106781186548,               185P    498
0.707106781186548,0.707106781186548,1.,1.,1.,1.,1.,1.,1.,1.,1.,      185P    499
1.,1.,1.,1.,0.707106781186548,0.707106781186548,                     185P    500
0.707106781186548,0.707106781186548,0.707106781186548,               185P    501
0.707106781186548,0.707106781186548,0.707106781186548,               185P    502
0.707106781186548,0.707106781186548,0.707106781186548,               185P    503
0.707106781186548,0.707106781186548,1.,1.,1.,1.,1.,1.,1.,1.,1.,      185P    504
1.,1.,1.,1.,52.8686969774916,0.195475046901716,20.095,               185P    505
52.8686969774916,-0.859099905296282,20.095,52.8686969774916,         185P    506
-1.79366902954249,20.0264280249064,52.8686969774916,                 185P    507
-2.60000384171665,19.8878041195202,52.8686969774916,                 185P    508
-4.08251155331882,19.6329335550294,52.8686969774916,                 185P    509
-5.15608471725691,19.1541078355543,52.8686969774916,                 185P    510
-5.17516881495234,18.1372272009173,52.8686969774916,                 185P    511
-5.17546345419092,18.1215275885649,52.8686969774916,                 185P    512
-5.17571685713187,18.1059047234477,52.8686969774916,                 185P    513
-5.17599017358903,18.0902464332761,52.8686969774916,                 185P    514
-5.23533898474782,14.6901551393864,52.8686969774916,                 185P    515
-5.2946877959066,11.2900638454966,52.8686969774916,                  185P    516
-5.35403660706539,7.8899725516069,52.8686969774916,                  185P    517
0.195475046901716,20.095,53.9232719296896,-0.859099905296281,        185P    518
20.095,54.8578410539358,-1.79366902954249,20.0264280249064,          185P    519
55.6641758661099,-2.60000384171664,19.8878041195202,                 185P    520
57.1466835777121,-4.08251155331882,19.6329335550294,                 185P    521
58.2202567416502,-5.15608471725691,19.1541078355543,                 185P    522
58.2393408393456,-5.17516881495234,18.1372272009173,                 185P    523
58.2396354785842,-5.17546345419092,18.1215275885649,                 185P    524
58.2398888815251,-5.17571685713187,18.1059047234477,                 185P    525
58.2401621979823,-5.17599017358903,18.0902464332761,                 185P    526
58.2995110091411,-5.23533898474782,14.6901551393864,                 185P    527
58.3588598202999,-5.2946877959066,11.2900638454966,                  185P    528
58.4182086314587,-5.35403660706539,7.8899725516069,                  185P    529
52.8686969774916,0.195475046901716,20.095,53.9232719296896,          185P    530
0.195475046901716,20.095,54.8578410539358,0.195475046901716,         185P    531
20.0264280249064,55.6641758661099,0.195475046901716,                 185P    532
19.8878041195202,57.1466835777121,0.195475046901716,                 185P    533
19.6329335550294,58.2202567416502,0.195475046901716,                 185P    534
19.1541078355543,58.2393408393456,0.195475046901716,                 185P    535
18.1372272009173,58.2396354785842,0.195475046901716,                 185P    536
18.1215275885649,58.2398888815251,0.195475046901716,                 185P    537
18.1059047234477,58.2401621979823,0.195475046901716,                 185P    538
18.0902464332761,58.2995110091411,0.195475046901716,                 185P    539
14.6901551393864,58.3588598202999,0.195475046901716,                 185P    540
11.2900638454966,58.4182086314587,0.195475046901716,                 185P    541
7.8899725516069,52.8686969774916,0.195475046901716,20.095,           185P    542
53.9232719296896,1.25004999909971,20.095,54.8578410539358,           185P    543
2.18461912334593,20.0264280249064,55.6641758661099,                  185P    544
2.99095393552008,19.8878041195202,57.1466835777121,                  185P    545
4.47346164712225,19.6329335550294,58.2202567416502,                  185P    546
5.54703481106035,19.1541078355543,58.2393408393456,                  185P    547
5.56611890875578,18.1372272009173,58.2396354785842,                  185P    548
5.56641354799435,18.1215275885649,58.2398888815251,                  185P    549
5.5666669509353,18.1059047234477,58.2401621979823,                   185P    550
5.56694026739246,18.0902464332761,58.2995110091411,                  185P    551
5.62628907855125,14.6901551393864,58.3588598202999,                  185P    552
5.68563788971003,11.2900638454966,58.4182086314587,                  185P    553
5.74498670086882,7.8899725516069,52.8686969774916,                   185P    554
0.195475046901716,20.095,52.8686969774916,1.25004999909971,          185P    555
20.095,52.8686969774916,2.18461912334593,20.0264280249064,           185P    556
52.8686969774916,2.99095393552008,19.8878041195202,                  185P    557
52.8686969774916,4.47346164712225,19.6329335550294,                  185P    558
52.8686969774916,5.54703481106035,19.1541078355543,                  185P    559
52.8686969774916,5.56611890875578,18.1372272009173,                  185P    560
52.8686969774916,5.56641354799435,18.1215275885649,                  185P    561
52.8686969774916,5.5666669509353,18.1059047234477,                   185P    562
52.8686969774916,5.56694026739246,18.0902464332761,                  185P    563
52.8686969774916,5.62628907855125,14.6901551393864,                  185P    564
52.8686969774916,5.68563788971004,11.2900638454966,                  185P    565
52.8686969774916,5.74498670086882,7.8899725516069,                   185P    566
52.8686969774916,0.195475046901716,20.095,51.8141220252936,          185P    567
1.25004999909971,20.095,50.8795529010474,2.18461912334593,           185P    568
20.0264280249064,50.0732180888732,2.99095393552008,                  185P    569
19.8878041195202,48.590710377271,4.47346164712225,                   185P    570
19.6329335550294,47.5171372133329,5.54703481106035,                  185P    571
19.1541078355543,47.4980531156375,5.56611890875578,                  185P    572
18.1372272009173,47.4977584763989,5.56641354799435,                  185P    573
18.1215275885649,47.497505073458,5.5666669509353,                    185P    574
18.1059047234477,47.4972317570008,5.56694026739246,                  185P    575
18.0902464332761,47.437882945842,5.62628907855125,                   185P    576
14.6901551393864,47.3785341346832,5.68563788971003,                  185P    577
11.2900638454966,47.3191853235245,5.74498670086882,                  185P    578
7.8899725516069,52.8686969774916,0.195475046901716,20.095,           185P    579
51.8141220252936,0.195475046901716,20.095,50.8795529010474,          185P    580
0.195475046901716,20.0264280249064,50.0732180888732,                 185P    581
0.195475046901716,19.8878041195202,48.590710377271,                  185P    582
0.195475046901716,19.6329335550294,47.5171372133329,                 185P    583
0.195475046901716,19.1541078355543,47.4980531156375,                 185P    584
0.195475046901716,18.1372272009173,47.4977584763989,                 185P    585
0.195475046901716,18.1215275885649,47.497505073458,                  185P    586
0.195475046901716,18.1059047234477,47.4972317570008,                 185P    587
0.195475046901716,18.0902464332761,47.437882945842,                  185P    588
0.195475046901716,14.6901551393864,47.3785341346832,                 185P    589
0.195475046901716,11.2900638454966,47.3191853235245,                 185P    590
0.195475046901716,7.8899725516069,52.8686969774916,                  185P    591
0.195475046901716,20.095,51.8141220252936,-0.859099905296281,        185P    592
20.095,50.8795529010474,-1.79366902954249,20.0264280249064,          185P    593
50.0732180888732,-2.60000384171664,19.8878041195202,                 185P    594
48.590710377271,-4.08251155331882,19.6329335550294,                  185P    595
47.5171372133329,-5.15608471725691,19.1541078355543,                 185P    596
47.4980531156375,-5.17516881495234,18.1372272009173,                 185P    597
47.4977584763989,-5.17546345419092,18.1215275885649,                 185P    598
47.497505073458,-5.17571685713187,18.1059047234477,                  185P    599
47.4972317570008,-5.17599017358903,18.0902464332761,                 185P    600
47.437882945842,-5.23533898474782,14.6901551393864,                  185P    601
47.3785341346832,-5.2946877959066,11.2900638454966,                  185P    602
47.3191853235245,-5.35403660706539,7.8899725516069,                  185P    603
52.8686969774916,0.195475046901716,20.095,52.8686969774916,          185P    604
-0.859099905296282,20.095,52.8686969774916,-1.79366902954249,        185P    605
20.0264280249064,52.8686969774916,-2.60000384171665,                 185P    606
19.8878041195202,52.8686969774916,-4.08251155331882,                 185P    607
19.6329335550294,52.8686969774916,-5.15608471725691,                 185P    608
19.1541078355543,52.8686969774916,-5.17516881495234,                 185P    609
18.1372272009173,52.8686969774916,-5.17546345419092,                 185P    610
18.1215275885649,52.8686969774916,-5.17571685713187,                 185P    611
18.1059047234477,52.8686969774916,-5.17599017358903,                 185P    612
18.0902464332761,52.8686969774916,-5.23533898474782,                 185P    613
14.6901551393864,52.8686969774916,-5.2946877959066,                  185P    614
11.2900638454966,52.8686969774916,-5.35403660706539,                 185P    615
7.8899725516069,-3.18008771846221,0.,0.,6.28318530717959;            185P    616
128,1,8,1,2,0,1,0,0,1,-0.0912553986417183,-0.0912553986417183,       187P    617
0.0912553986417183,0.0912553986417183,-3.14159265358979,             187P    618
-3.14159265358979,-3.14159265358979,-1.5707963267949,                187P    619
-1.5707963267949,0.,0.,1.5707963267949,1.5707963267949,              187P    620
3.14159265358979,3.14159265358979,3.14159265358979,1.,1.,            187P    621
0.707106781186548,0.707106781186548,1.,1.,0.707106781186548,         187P    622
0.707106781186548,1.,1.,0.707106781186548,0.707106781186548,1.,      187P    623
1.,0.707106781186548,0.707106781186548,1.,1.,52.8686969774916,       187P    624
4.39555468499049,10.09,52.8686969774916,3.87810493663923,            187P    625
10.5896954135095,48.6686173394028,4.39555468499049,10.09,            187P    626
49.1860670877541,3.87810493663923,10.5896954135095,                  187P    627
48.6686173394028,0.195475046901716,10.09,49.1860670877541,           187P    628
0.195475046901716,10.5896954135095,48.6686173394028,                 187P    629
-4.00460459118705,10.09,49.1860670877541,-3.4871548428358,           187P    630
10.5896954135095,52.8686969774916,-4.00460459118706,10.09,           187P    631
52.8686969774916,-3.4871548428358,10.5896954135095,                  187P    632
57.0687766155803,-4.00460459118705,10.09,56.5513268672291,           187P    633
-3.4871548428358,10.5896954135095,57.0687766155803,                  187P    634
0.195475046901716,10.09,56.5513268672291,0.195475046901716,          187P    635
10.5896954135095,57.0687766155803,4.39555468499049,10.09,            187P    636
56.5513268672291,3.87810493663923,10.5896954135095,                  187P    637
52.8686969774916,4.39555468499049,10.09,52.8686969774916,            187P    638
3.87810493663923,10.5896954135095,-0.0912553986417183,               187P    639
0.0912553986417183,-3.14159265358979,3.14159265358979;               187P    640
128,1,8,1,2,0,1,0,0,1,-0.455533807629575,-0.455533807629575,         189P    641
-0.342629315976644,-0.342629315976644,-3.14159265358979,             189P    642
-3.14159265358979,-3.14159265358979,-1.5707963267949,                189P    643
-1.5707963267949,0.,0.,1.5707963267949,1.5707963267949,              189P    644
3.14159265358979,3.14159265358979,3.14159265358979,1.,1.,            189P    645
0.707106781186548,0.707106781186548,1.,1.,0.707106781186548,         189P    646
0.707106781186548,1.,1.,0.707106781186548,0.707106781186548,1.,      189P    647
1.,0.707106781186548,0.707106781186548,1.,1.,52.8686969774916,       189P    648
3.87810493663923,10.5896954135095,52.8686969774916,                  189P    649
3.86382131312798,10.9987248741756,49.1860670877541,                  189P    650
3.87810493663923,10.5896954135095,49.2003507112653,                  189P    651
3.86382131312798,10.9987248741756,49.1860670877541,                  189P    652
0.195475046901716,10.5896954135095,49.2003507112653,                 189P    653
0.195475046901716,10.9987248741756,49.1860670877541,                 189P    654
-3.4871548428358,10.5896954135095,49.2003507112653,                  189P    655
-3.47287121932455,10.9987248741756,52.8686969774916,                 189P    656
-3.4871548428358,10.5896954135095,52.8686969774916,                  189P    657
-3.47287121932455,10.9987248741756,56.5513268672291,                 189P    658
-3.4871548428358,10.5896954135095,56.5370432437178,                  189P    659
-3.47287121932455,10.9987248741756,56.5513268672291,                 189P    660
0.195475046901716,10.5896954135095,56.5370432437178,                 189P    661
0.195475046901716,10.9987248741756,56.5513268672291,                 189P    662
3.87810493663923,10.5896954135095,56.5370432437178,                  189P    663
3.86382131312798,10.9987248741756,52.8686969774916,                  189P    664
3.87810493663923,10.5896954135095,52.8686969774916,                  189P    665
3.86382131312798,10.9987248741756,-0.455533807629575,                189P    666
-0.342629315976644,-3.14159265358979,3.14159265358979;               189P    667
128,1,1,1,1,0,0,1,0,0,-0.551872754136996,-0.551872754136996,         191P    668
0.551872754136996,0.551872754136996,-0.651872753096593,              191P    669
-0.651872753096593,0.651872753096593,0.651872753096593,1.,1.,1.,     191P    670
1.,47.3499694361216,6.71420257786765,10.09,58.3874245188615,         191P    671
6.71420257786765,10.09,47.3499694361216,-6.32325248406421,10.09,     191P    672
58.3874245188615,-6.32325248406421,10.09,-0.551872754136996,         191P    673
0.551872754136996,-0.651872753096593,0.651872753096593;              191P    674
128,2,8,2,2,0,1,0,0,1,-1.57079632679491,-1.57079632679491,           193P    675
-1.57079632679491,-0.0349065850398863,-0.0349065850398863,           193P    676
-0.0349065850398863,-3.14159265358979,-3.14159265358979,             193P    677
-3.14159265358979,-1.5707963267949,-1.5707963267949,0.,0.,           193P    678
1.5707963267949,1.5707963267949,3.14159265358979,                    193P    679
3.14159265358979,3.14159265358979,1.,0.719339800338707,1.,           193P    680
0.707106781186548,0.508650050796877,0.707106781186548,1.,            193P    681
0.719339800338707,1.,0.707106781186548,0.508650050796877,            193P    682
0.707106781186548,1.,0.719339800338707,1.,0.707106781186548,         193P    683
0.508650050796877,0.707106781186548,1.,0.719339800338707,1.,         193P    684
0.707106781186548,0.508650050796877,0.707106781186548,1.,            193P    685
0.719339800338707,1.,56.2871955369631,0.195475046901716,11.24,       193P    686
56.5286177306648,0.195475046901716,11.24,56.5370432437178,           193P    687
0.195475046901716,10.9987248741756,56.2871955369631,                 193P    688
-3.22302351256977,11.24,56.5286177306648,-3.46444570627153,          193P    689
11.24,56.5370432437178,-3.47287121932454,10.9987248741756,           193P    690
52.8686969774916,-3.22302351256977,11.24,52.8686969774916,           193P    691
-3.46444570627154,11.24,52.8686969774916,-3.47287121932454,          193P    692
10.9987248741756,49.4501984180201,-3.22302351256977,11.24,           193P    693
49.2087762243183,-3.46444570627153,11.24,49.2003507112653,           193P    694
-3.47287121932454,10.9987248741756,49.4501984180201,                 193P    695
0.195475046901716,11.24,49.2087762243183,0.195475046901716,          193P    696
11.24,49.2003507112653,0.195475046901716,10.9987248741756,           193P    697
49.4501984180201,3.6139736063732,11.24,49.2087762243183,             193P    698
3.85539580007497,11.24,49.2003507112653,3.86382131312797,            193P    699
10.9987248741756,52.8686969774916,3.6139736063732,11.24,             193P    700
52.8686969774916,3.85539580007497,11.24,52.8686969774916,            193P    701
3.86382131312797,10.9987248741756,56.2871955369631,                  193P    702
3.6139736063732,11.24,56.5286177306648,3.85539580007497,11.24,       193P    703
56.5370432437178,3.86382131312797,10.9987248741756,                  193P    704
56.2871955369631,0.195475046901716,11.24,56.5286177306648,           193P    705
0.195475046901716,11.24,56.5370432437178,0.195475046901716,          193P    706
10.9987248741756,-1.57079632679491,-0.0349065850398863,              193P    707
-3.14159265358979,3.14159265358979;                                  193P    708
128,1,1,1,1,0,0,1,0,0,-3.46462550201368,-3.46462550201368,           195P    709
-2.77892579011938,-2.77892579011938,-2.48880494231152,               195P    710
-2.48880494231152,-1.80310523041723,-1.80310523041723,1.,1.,1.,      195P    711
1.,49.4401984180201,-3.23302351256977,11.24,49.4401984180201,        195P    712
3.6239736063732,11.24,56.297195536963,-3.23302351256977,11.24,       195P    713
56.297195536963,3.62397360637321,11.24,-3.46462550201368,            195P    714
-2.77892579011938,-2.48880494231152,-1.80310523041723;               195P    715
128,1,1,1,1,0,0,1,0,0,-0.00187275309659363,-0.00187275309659363,     197P    716
0.108424978294904,0.108424978294904,-0.0510076164706236,             197P    717
-0.0510076164706236,0.151022849308524,0.151022849308524,1.,1.,       197P    718
1.,1.,52.1097949224491,6.71420257786765,10.0800015223512,            197P    719
52.1097949224491,5.61122526395267,10.0800015223512,                  197P    720
52.145054100464,6.71420257786765,12.0999984779577,                   197P    721
52.145054100464,5.61122526395267,12.0999984779577,                   197P    722
-0.00187275309659363,0.108424978294904,-0.0510076164706236,          197P    723
0.151022849308524;                                                   197P    724
128,1,1,1,1,0,0,1,0,0,-0.0733817401110791,-0.0733817401110791,       199P    725
0.0733817401110773,0.0733817401110773,-0.64838174011095,             199P    726
-0.64838174011095,-0.54157502176503,-0.54157502176503,1.,1.,1.,      199P    727
1.,53.6025143786023,6.67929244801121,12.09,52.1348795763808,         199P    728
6.67929244801121,12.09,53.6025143786023,5.61122526455202,12.09,      199P    729
52.1348795763808,5.61122526455202,12.09,-0.0733817401110791,         199P    730
0.0733817401110773,-0.64838174011095,-0.54157502176503;              199P    731
128,1,1,1,1,0,0,1,0,0,-0.00328734617755411,-0.00328734617755411,     201P    732
0.107010385154008,0.107010385154008,-0.0510076164008883,             201P    733
-0.0510076164008883,0.151022849432402,0.151022849432402,1.,1.,       201P    734
1.,1.,53.6275990325219,5.61122526455202,10.0800015230484,            201P    735
53.6275990325219,6.71420257786764,10.0800015230484,                  201P    736
53.5923398544975,5.61122526455202,12.0999984791963,                  201P    737
53.5923398544975,6.71420257786764,12.0999984791963,                  201P    738
-0.00328734617755411,0.107010385154008,-0.0510076164008883,          201P    739
0.151022849432402;                                                   201P    740
128,1,1,1,1,0,0,1,0,0,-0.0018727530965924,-0.0018727530965924,       203P    741
0.151872753096592,0.151872753096592,-0.0510076164008883,             203P    742
-0.0510076164008883,0.151022849207893,0.151022849207893,1.,1.,       203P    743
1.,1.,53.6374245084575,6.70437710193202,10.0800015230484,            203P    744
52.0999694465256,6.70437710193202,10.0800015230484,                  203P    745
53.6374245084575,6.66911792394684,12.0999984769516,                  203P    746
52.0999694465257,6.66911792394684,12.0999984769516,                  203P    747
-0.0018727530965924,0.151872753096592,-0.0510076164008883,           203P    748
0.151022849207893;                                                   203P    749
128,1,1,1,1,0,0,1,0,0,-0.00187275309659274,-0.00187275309659274,     205P    750
0.10842497823497,0.10842497823497,-0.0510076164008883,               205P    751
-0.0510076164008883,0.15102284951822,0.15102284951822,1.,1.,1.,      205P    752
1.,53.6275990325219,-6.32325248406421,10.0800015230484,              205P    753
53.6275990325219,-5.22027517074859,10.0800015230484,                 205P    754
53.5923398544825,-6.32325248406421,12.0999984800544,                 205P    755
53.5923398544825,-5.22027517074859,12.0999984800544,                 205P    756
-0.00187275309659274,0.10842497823497,-0.0510076164008883,           205P    757
0.15102284951822;                                                    205P    758
128,1,1,1,1,0,0,1,0,0,-0.0018727530965924,-0.0018727530965924,       207P    759
0.151872753096592,0.151872753096592,-0.0510076164008883,             207P    760
-0.0510076164008883,0.151022849207894,0.151022849207894,1.,1.,       207P    761
1.,1.,52.0999694465256,-6.31342700812858,10.0800015230484,           207P    762
53.6374245084575,-6.31342700812858,10.0800015230484,                 207P    763
52.0999694465256,-6.2781678301434,12.0999984769516,                  207P    764
53.6374245084575,-6.2781678301434,12.0999984769516,                  207P    765
-0.0018727530965924,0.151872753096592,-0.0510076164008883,           207P    766
0.151022849207894;                                                   207P    767
128,1,1,1,1,0,0,1,0,0,-0.00328734623938776,-0.00328734623938776,     209P    768
0.107010385154008,0.107010385154008,-0.0510076164008883,             209P    769
-0.0510076164008883,0.151022849433713,0.151022849433713,1.,1.,       209P    770
1.,1.,52.1097949224613,-5.22027517013025,10.0800015230484,           209P    771
52.1097949224613,-6.32325248406421,10.0800015230484,                 209P    772
52.1450541004859,-5.22027517013025,12.0999984792094,                 209P    773
52.1450541004859,-6.32325248406421,12.0999984792094,                 209P    774
-0.00328734623938776,0.107010385154008,-0.0510076164008883,          209P    775
0.151022849433713;                                                   209P    776
128,1,1,1,1,0,0,1,0,0,-0.0733817401110791,-0.0733817401110791,       211P    777
0.0733817401110782,0.0733817401110782,0.541575021765031,             211P    778
0.541575021765031,0.64838174011095,0.64838174011095,1.,1.,1.,1.,     211P    779
53.6025143786024,-5.22027517074859,12.09,52.1348795763808,           211P    780
-5.22027517074859,12.09,53.6025143786023,-6.28834235420778,          211P    781
12.09,52.1348795763808,-6.28834235420778,12.09,                      211P    782
-0.0733817401110791,0.0733817401110782,0.541575021765031,            211P    783
0.64838174011095;                                                    211P    784
502,30,47.6436969774916,0.195475046901716,10.09,                     213P    785
47.6546122132187,0.195475046901716,10.34,47.8089567199896,           213P    786
-1.05979732184551,10.09,47.8198719557167,-1.05979732184551,          213P    787
10.34,52.1448795763821,5.62122526455202,12.0899999999999,            213P    788
52.1099694465262,5.65170191708306,10.09,52.1099694465262,            213P    789
-5.26075182327963,10.09,52.1448795763821,-5.23027517074859,          213P    790
12.0899999999999,53.5925143786011,-5.23027517074859,                 213P    791
12.0899999999999,53.627424508457,-5.26075182327963,10.09,            213P    792
58.3774245188735,0.195475046901716,10.0899999993116,                 213P    793
58.2355300470061,0.195475046901716,18.2191288482147,                 213P    794
52.8686969774916,-5.17135802251081,18.2191288504202,                 213P    795
53.6274245084569,5.65170191708306,10.09,53.592514378601,             213P    796
5.62122526455202,12.0899999999999,52.8686969774916,                  213P    797
0.195475046901716,20.095,52.8686969774916,3.87810493663923,          213P    798
10.5896954135095,52.8686969774916,4.39555468499049,10.09,            213P    799
52.8686969774916,3.86382131312798,10.9987248741756,                  213P    800
56.5370432437178,0.195475046901716,10.9987248741756,                 213P    801
53.6274245084575,-6.31325248406421,10.09,52.1099694465256,           213P    802
-6.31325248406421,10.09,52.1099694465256,6.70420257786765,10.09,     213P    803
53.6274245084575,6.70420257786764,10.09,56.2871955369631,            213P    804
0.195475046901716,11.24,52.8686969774916,3.61397360637321,11.24,     213P    805
52.1448795763821,6.66929244801121,12.09,53.5925143786011,            213P    806
6.66929244801121,12.09,53.5925143786011,-6.27834235420778,12.09,     213P    807
52.1448795763821,-6.27834235420777,12.09;                            213P    808
504,44,87,213,1,213,1,89,213,1,213,2,91,213,2,213,2,93,213,3,        215P    809
213,3,95,213,3,213,4,97,213,4,213,4,99,213,5,213,6,101,213,7,        215P    810
213,6,103,213,7,213,8,105,213,8,213,9,107,213,9,213,10,109,213,      215P    811
11,213,10,111,213,11,213,12,113,213,13,213,12,115,213,12,213,13,     215P    812
117,213,14,213,11,119,213,14,213,15,121,213,15,213,5,123,213,16,     215P    813
213,13,125,213,17,213,17,127,213,17,213,18,129,213,18,213,18,        215P    814
131,213,17,213,19,133,213,20,213,19,135,213,19,213,20,137,213,       215P    815
21,213,10,139,213,22,213,21,141,213,7,213,22,143,213,23,213,6,       215P    816
145,213,24,213,23,147,213,14,213,24,149,213,20,213,25,151,213,       215P    817
25,213,26,153,213,26,213,25,155,213,27,213,5,157,213,23,213,27,      215P    818
159,213,15,213,28,161,213,28,213,27,163,213,24,213,28,165,213,       215P    819
29,213,9,167,213,21,213,29,169,213,30,213,29,171,213,22,213,30,      215P    820
173,213,8,213,30;                                                    215P    821
406,1,14HButton (1) (1);                                             217P    822
314,83.921568627451,83.921568627451,83.921568627451,11HABS (Whit     219P    823
e);                                                                  219P    824
314,62.7450980392157,62.7450980392157,62.7450980392157,13HSteel      221P    825
- Satin;                                                             221P    826
S      1G      2D    222P    826                                        T      1
