%TF.GenerationSoftware,KiCad,Pcbnew,10.0.5*%
%TF.CreationDate,2026-09-21T17:49:53-07:00*%
%TF.ProjectId,PGS_Stick_Board,5047535f-5374-4696-936b-5f426f617264,rev?*%
%TF.SameCoordinates,Original*%
%TF.FileFunction,Soldermask,Bot*%
%TF.FilePolarity,Negative*%
%FSLAX46Y46*%
G04 Gerber Fmt 4.6, Leading zero omitted, Abs format (unit mm)*
G04 Created by KiCad (PCBNEW 10.0.5) date 2026-09-21 17:49:53*
%MOMM*%
%LPD*%
G01*
G04 APERTURE LIST*
%ADD10C,0.250000*%
%ADD11C,0.187500*%
%ADD12C,2.450000*%
%ADD13C,1.600000*%
%ADD14C,1.250000*%
%ADD15C,2.000000*%
G04 APERTURE END LIST*
D10*
G36*
X37092759Y-35500000D02*
G01*
X36830443Y-35500000D01*
X36830443Y-35167829D01*
X36667166Y-35167829D01*
X36593250Y-35164023D01*
X36531853Y-35153459D01*
X36481053Y-35137177D01*
X36433093Y-35113688D01*
X36387984Y-35083624D01*
X36345437Y-35046563D01*
X36306595Y-34997774D01*
X36277171Y-34937264D01*
X36259195Y-34871321D01*
X36253853Y-34811051D01*
X36524406Y-34811051D01*
X36527453Y-34852348D01*
X36535703Y-34884263D01*
X36550363Y-34912032D01*
X36572217Y-34935860D01*
X36604431Y-34955817D01*
X36645001Y-34968283D01*
X36691278Y-34974104D01*
X36755277Y-34976343D01*
X36830443Y-34976343D01*
X36830443Y-34675436D01*
X36785380Y-34675436D01*
X36681516Y-34677145D01*
X36642657Y-34682294D01*
X36601587Y-34694975D01*
X36573269Y-34711357D01*
X36547670Y-34737840D01*
X36530367Y-34771047D01*
X36524406Y-34811051D01*
X36253853Y-34811051D01*
X36253236Y-34804091D01*
X36257133Y-34746244D01*
X36268180Y-34696499D01*
X36285720Y-34653576D01*
X36310450Y-34614424D01*
X36341562Y-34580260D01*
X36379631Y-34550689D01*
X36433863Y-34521876D01*
X36497479Y-34500680D01*
X36567915Y-34488525D01*
X36661060Y-34483949D01*
X37092759Y-34483949D01*
X37092759Y-35500000D01*
G37*
G36*
X35167271Y-35440710D02*
G01*
X35241507Y-35465612D01*
X35348316Y-35493405D01*
X35461299Y-35513056D01*
X35573080Y-35519539D01*
X35678302Y-35513190D01*
X35769744Y-35495149D01*
X35849384Y-35466514D01*
X35918892Y-35427800D01*
X35979562Y-35378916D01*
X36031118Y-35320149D01*
X36071572Y-35253267D01*
X36101270Y-35177102D01*
X36119883Y-35090073D01*
X36126413Y-34990265D01*
X36120001Y-34895900D01*
X36101560Y-34812044D01*
X36071823Y-34737110D01*
X36030889Y-34669804D01*
X35978218Y-34609185D01*
X35916893Y-34558867D01*
X35846436Y-34519024D01*
X35765504Y-34489544D01*
X35672350Y-34470957D01*
X35564898Y-34464410D01*
X35465906Y-34469019D01*
X35373656Y-34482484D01*
X35281525Y-34508156D01*
X35171423Y-34554474D01*
X35171423Y-34792672D01*
X35200793Y-34792672D01*
X35256847Y-34752616D01*
X35327861Y-34708469D01*
X35369604Y-34688914D01*
X35420429Y-34671406D01*
X35474480Y-34659844D01*
X35532780Y-34655896D01*
X35600348Y-34661195D01*
X35659176Y-34676352D01*
X35712792Y-34702171D01*
X35760964Y-34739122D01*
X35798883Y-34784713D01*
X35828925Y-34843108D01*
X35847296Y-34909248D01*
X35853838Y-34988738D01*
X35847481Y-35072930D01*
X35829753Y-35142262D01*
X35801956Y-35199437D01*
X35764384Y-35246536D01*
X35717253Y-35283803D01*
X35659149Y-35311582D01*
X35587730Y-35329431D01*
X35499991Y-35335868D01*
X35466896Y-35335197D01*
X35433740Y-35333121D01*
X35433740Y-35132658D01*
X35636584Y-35132658D01*
X35636584Y-34941172D01*
X35167271Y-34941172D01*
X35167271Y-35440710D01*
G37*
G36*
X34471973Y-35519539D02*
G01*
X34546992Y-35515686D01*
X34616570Y-35504443D01*
X34681350Y-35486139D01*
X34743020Y-35459855D01*
X34797773Y-35426696D01*
X34846336Y-35386549D01*
X34888296Y-35339560D01*
X34923925Y-35284860D01*
X34953253Y-35221502D01*
X34973764Y-35154524D01*
X34986656Y-35078790D01*
X34991172Y-34993012D01*
X34986946Y-34913166D01*
X34974715Y-34840488D01*
X34954963Y-34774110D01*
X34926816Y-34711034D01*
X34891788Y-34655101D01*
X34849755Y-34605582D01*
X34802821Y-34564541D01*
X34748376Y-34529765D01*
X34685502Y-34501229D01*
X34619206Y-34481032D01*
X34548042Y-34468650D01*
X34471301Y-34464410D01*
X34408629Y-34466313D01*
X34355530Y-34471615D01*
X34260214Y-34490422D01*
X34177233Y-34519548D01*
X34111959Y-34549345D01*
X34111959Y-34796580D01*
X34142001Y-34796580D01*
X34190238Y-34757196D01*
X34256123Y-34712316D01*
X34294919Y-34692074D01*
X34337395Y-34675008D01*
X34382230Y-34663675D01*
X34431001Y-34659804D01*
X34485256Y-34664203D01*
X34536208Y-34677206D01*
X34583631Y-34699977D01*
X34628410Y-34734909D01*
X34664021Y-34778792D01*
X34693684Y-34838040D01*
X34711901Y-34906179D01*
X34718597Y-34993684D01*
X34715250Y-35057101D01*
X34705955Y-35109815D01*
X34691608Y-35153480D01*
X34660108Y-35212314D01*
X34623647Y-35254474D01*
X34579311Y-35286798D01*
X34530713Y-35308086D01*
X34479368Y-35320201D01*
X34429596Y-35324145D01*
X34382185Y-35320518D01*
X34335013Y-35309551D01*
X34289793Y-35292255D01*
X34248613Y-35269984D01*
X34186453Y-35226936D01*
X34139314Y-35187369D01*
X34111959Y-35187369D01*
X34111959Y-35431673D01*
X34185109Y-35463974D01*
X34258138Y-35490047D01*
X34351744Y-35511967D01*
X34399562Y-35517376D01*
X34471973Y-35519539D01*
G37*
G36*
X33514235Y-35071109D02*
G01*
X33514235Y-35265526D01*
X33021720Y-35265526D01*
X33021720Y-35503907D01*
X32771004Y-35503907D01*
X32771004Y-35265526D01*
X32632335Y-35265526D01*
X32632335Y-35077948D01*
X32771004Y-35077948D01*
X33021720Y-35077948D01*
X33317498Y-35077948D01*
X33021720Y-34710423D01*
X33021720Y-35077948D01*
X32771004Y-35077948D01*
X32771004Y-34483949D01*
X33038145Y-34483949D01*
X33514235Y-35071109D01*
G37*
G36*
X32196606Y-35500000D02*
G01*
X32452084Y-35500000D01*
X32452084Y-35230355D01*
X32196606Y-35230355D01*
X32196606Y-35500000D01*
G37*
G36*
X31648835Y-34468457D02*
G01*
X31712557Y-34479872D01*
X31767288Y-34497810D01*
X31818124Y-34524018D01*
X31861576Y-34557238D01*
X31898447Y-34597827D01*
X31928369Y-34644698D01*
X31953072Y-34699248D01*
X31972269Y-34762569D01*
X31989238Y-34864391D01*
X31995472Y-34991974D01*
X31989492Y-35116160D01*
X31972941Y-35218998D01*
X31954077Y-35283439D01*
X31929597Y-35338277D01*
X31899851Y-35384778D01*
X31863406Y-35425398D01*
X31820185Y-35458870D01*
X31769364Y-35485528D01*
X31714590Y-35503751D01*
X31650227Y-35515395D01*
X31574642Y-35519539D01*
X31497679Y-35515385D01*
X31433200Y-35503801D01*
X31379309Y-35485833D01*
X31329280Y-35459532D01*
X31286252Y-35426412D01*
X31249494Y-35386121D01*
X31220686Y-35340998D01*
X31196413Y-35286288D01*
X31177137Y-35220403D01*
X31160011Y-35115700D01*
X31153872Y-34991303D01*
X31418265Y-34991303D01*
X31423494Y-35113554D01*
X31436788Y-35197391D01*
X31455146Y-35252398D01*
X31477269Y-35288215D01*
X31503964Y-35312404D01*
X31535869Y-35326897D01*
X31574642Y-35331960D01*
X31613447Y-35326895D01*
X31645371Y-35312400D01*
X31672075Y-35288211D01*
X31694199Y-35252398D01*
X31712578Y-35197415D01*
X31725862Y-35113960D01*
X31731079Y-34992646D01*
X31725886Y-34867917D01*
X31712781Y-34783809D01*
X31694870Y-34729841D01*
X31673149Y-34695024D01*
X31646525Y-34671333D01*
X31614274Y-34657021D01*
X31574642Y-34651988D01*
X31535042Y-34657019D01*
X31502811Y-34671329D01*
X31476195Y-34695020D01*
X31454474Y-34729841D01*
X31436543Y-34783784D01*
X31423448Y-34867511D01*
X31418265Y-34991303D01*
X31153872Y-34991303D01*
X31159873Y-34867274D01*
X31176404Y-34765622D01*
X31195158Y-34702036D01*
X31219406Y-34647638D01*
X31248822Y-34601247D01*
X31285693Y-34559625D01*
X31328732Y-34525618D01*
X31378637Y-34498787D01*
X31432532Y-34480471D01*
X31497211Y-34468653D01*
X31574642Y-34464410D01*
X31648835Y-34468457D01*
G37*
G36*
X38215360Y-36861079D02*
G01*
X38220530Y-36919400D01*
X38235599Y-36972037D01*
X38260461Y-37020124D01*
X38295750Y-37064484D01*
X38342794Y-37105566D01*
X38407992Y-37144686D01*
X38485752Y-37174032D01*
X38578412Y-37192824D01*
X38688764Y-37199539D01*
X38810947Y-37193547D01*
X38909071Y-37177191D01*
X39000907Y-37151560D01*
X39084986Y-37120526D01*
X39084986Y-36875184D01*
X39056288Y-36875184D01*
X38999992Y-36916890D01*
X38939457Y-36951593D01*
X38874266Y-36979476D01*
X38806314Y-37000094D01*
X38741940Y-37012005D01*
X38680581Y-37015868D01*
X38617750Y-37011594D01*
X38580752Y-37005513D01*
X38554186Y-36997306D01*
X38526237Y-36982524D01*
X38504665Y-36965249D01*
X38490481Y-36942582D01*
X38485187Y-36908218D01*
X38492086Y-36877426D01*
X38513580Y-36850455D01*
X38546277Y-36829989D01*
X38596562Y-36813147D01*
X38717767Y-36787562D01*
X38780418Y-36773774D01*
X38837691Y-36757093D01*
X38920286Y-36723479D01*
X38980356Y-36685571D01*
X39022460Y-36643948D01*
X39053225Y-36593677D01*
X39072176Y-36535218D01*
X39078819Y-36466505D01*
X39073730Y-36411720D01*
X39058844Y-36362039D01*
X39034148Y-36316369D01*
X38998851Y-36273937D01*
X38951447Y-36234352D01*
X38886211Y-36196418D01*
X38811052Y-36168357D01*
X38724274Y-36150653D01*
X38623856Y-36144410D01*
X38524010Y-36149255D01*
X38425470Y-36163766D01*
X38331127Y-36186402D01*
X38255660Y-36212309D01*
X38255660Y-36445317D01*
X38283687Y-36445317D01*
X38350333Y-36400424D01*
X38434324Y-36361725D01*
X38494489Y-36342955D01*
X38555025Y-36331797D01*
X38616346Y-36328080D01*
X38681619Y-36332721D01*
X38713459Y-36339349D01*
X38744085Y-36350062D01*
X38768818Y-36363431D01*
X38789880Y-36382363D01*
X38804265Y-36405623D01*
X38808992Y-36431639D01*
X38805429Y-36456952D01*
X38795284Y-36477173D01*
X38778279Y-36493555D01*
X38740049Y-36511957D01*
X38662141Y-36532817D01*
X38554552Y-36555409D01*
X38443544Y-36585512D01*
X38368358Y-36616165D01*
X38312035Y-36651093D01*
X38271047Y-36689804D01*
X38240843Y-36736597D01*
X38222035Y-36792865D01*
X38215360Y-36861079D01*
G37*
G36*
X37558224Y-37173649D02*
G01*
X37642244Y-37189769D01*
X37750871Y-37195631D01*
X37824112Y-37191266D01*
X37882362Y-37179350D01*
X37928348Y-37161255D01*
X37964339Y-37137745D01*
X37992998Y-37106551D01*
X38014747Y-37065022D01*
X38029078Y-37010526D01*
X38034376Y-36939603D01*
X38034376Y-36582093D01*
X38135492Y-36582093D01*
X38135492Y-36414054D01*
X38034376Y-36414054D01*
X38034376Y-36195212D01*
X37788484Y-36195212D01*
X37788484Y-36414054D01*
X37558224Y-36414054D01*
X37558224Y-36582093D01*
X37788484Y-36582093D01*
X37788484Y-36852409D01*
X37787813Y-36922323D01*
X37784648Y-36951141D01*
X37776883Y-36975996D01*
X37763819Y-36997082D01*
X37743055Y-37013670D01*
X37715621Y-37023625D01*
X37672347Y-37027592D01*
X37622094Y-37019349D01*
X37578741Y-37004145D01*
X37558224Y-37004145D01*
X37558224Y-37173649D01*
G37*
G36*
X37165848Y-37180000D02*
G01*
X37411740Y-37180000D01*
X37411740Y-36414054D01*
X37165848Y-36414054D01*
X37165848Y-37180000D01*
G37*
G36*
X37159010Y-36304633D02*
G01*
X37418579Y-36304633D01*
X37418579Y-36117055D01*
X37159010Y-36117055D01*
X37159010Y-36304633D01*
G37*
G36*
X36534358Y-37203447D02*
G01*
X36632173Y-37197218D01*
X36717785Y-37179450D01*
X36771494Y-37160178D01*
X36819443Y-37135441D01*
X36862254Y-37105261D01*
X36899521Y-37069215D01*
X36930877Y-37027321D01*
X36956532Y-36978927D01*
X36974626Y-36927095D01*
X36986000Y-36867998D01*
X36989993Y-36800446D01*
X36985687Y-36729283D01*
X36973480Y-36667758D01*
X36954151Y-36614455D01*
X36926792Y-36564809D01*
X36893515Y-36521749D01*
X36854072Y-36484640D01*
X36810934Y-36455302D01*
X36763302Y-36431513D01*
X36710641Y-36413260D01*
X36628137Y-36396318D01*
X36541869Y-36390607D01*
X36465158Y-36394999D01*
X36397094Y-36407581D01*
X36332495Y-36427307D01*
X36273446Y-36451728D01*
X36273446Y-36660251D01*
X36308312Y-36660251D01*
X36342811Y-36633323D01*
X36392331Y-36603098D01*
X36453819Y-36579712D01*
X36488771Y-36572857D01*
X36531672Y-36570369D01*
X36580144Y-36574628D01*
X36620562Y-36586630D01*
X36654477Y-36605782D01*
X36682980Y-36632285D01*
X36711418Y-36676395D01*
X36729428Y-36731447D01*
X36735920Y-36800385D01*
X36729093Y-36871488D01*
X36710508Y-36925672D01*
X36681637Y-36966837D01*
X36641990Y-36997521D01*
X36591691Y-37016751D01*
X36527581Y-37023684D01*
X36482434Y-37021027D01*
X36443928Y-37013548D01*
X36408560Y-37001950D01*
X36382073Y-36989551D01*
X36341101Y-36962013D01*
X36308312Y-36933803D01*
X36273446Y-36933803D01*
X36273446Y-37143913D01*
X36332683Y-37168403D01*
X36394713Y-37187327D01*
X36459770Y-37199251D01*
X36534358Y-37203447D01*
G37*
G36*
X35296169Y-37180000D02*
G01*
X35582361Y-37180000D01*
X35797539Y-36846486D01*
X35864522Y-36927636D01*
X35864522Y-37180000D01*
X36110414Y-37180000D01*
X36110414Y-36117055D01*
X35864522Y-36117055D01*
X35864522Y-36752330D01*
X35599458Y-36414054D01*
X35315953Y-36414054D01*
X35591947Y-36744148D01*
X35296169Y-37180000D01*
G37*
G36*
X33613825Y-37180000D02*
G01*
X33874737Y-37180000D01*
X33874737Y-36499844D01*
X34063292Y-36941618D01*
X34244276Y-36941618D01*
X34432832Y-36499844D01*
X34432832Y-37180000D01*
X34680128Y-37180000D01*
X34680128Y-36163949D01*
X34375496Y-36163949D01*
X34146640Y-36673989D01*
X33918456Y-36163949D01*
X33613825Y-36163949D01*
X33613825Y-37180000D01*
G37*
G36*
X33083255Y-36395502D02*
G01*
X33152889Y-36409403D01*
X33213417Y-36431456D01*
X33266142Y-36461269D01*
X33312063Y-36498928D01*
X33350986Y-36544079D01*
X33381567Y-36595456D01*
X33404038Y-36653957D01*
X33418127Y-36720786D01*
X33423071Y-36797393D01*
X33418174Y-36873362D01*
X33404202Y-36939801D01*
X33381892Y-36998118D01*
X33351502Y-37049480D01*
X33312795Y-37094759D01*
X33267141Y-37132487D01*
X33214516Y-37162387D01*
X33153886Y-37184535D01*
X33083904Y-37198516D01*
X33002973Y-37203447D01*
X32922040Y-37198516D01*
X32852065Y-37184533D01*
X32791448Y-37162385D01*
X32738843Y-37132485D01*
X32693212Y-37094759D01*
X32654482Y-37049476D01*
X32624075Y-36998112D01*
X32601754Y-36939796D01*
X32587775Y-36873359D01*
X32582963Y-36798736D01*
X32837682Y-36798736D01*
X32841104Y-36867368D01*
X32849650Y-36912431D01*
X32864872Y-36951046D01*
X32885492Y-36982651D01*
X32909126Y-37005392D01*
X32937089Y-37020326D01*
X32968135Y-37028684D01*
X33000958Y-37031500D01*
X33038529Y-37028313D01*
X33070323Y-37019288D01*
X33098391Y-37003620D01*
X33122530Y-36980575D01*
X33141762Y-36949596D01*
X33156724Y-36906997D01*
X33165209Y-36858976D01*
X33168326Y-36798736D01*
X33164659Y-36731889D01*
X33155014Y-36682660D01*
X33138624Y-36639911D01*
X33119111Y-36610059D01*
X33092388Y-36585670D01*
X33066232Y-36572079D01*
X33037328Y-36565053D01*
X33002973Y-36562554D01*
X32968373Y-36565494D01*
X32936783Y-36574094D01*
X32908480Y-36589529D01*
X32884149Y-36613478D01*
X32865359Y-36643768D01*
X32850016Y-36686079D01*
X32841064Y-36734310D01*
X32837682Y-36798736D01*
X32582963Y-36798736D01*
X32582876Y-36797393D01*
X32587747Y-36721374D01*
X32601648Y-36654866D01*
X32623842Y-36596470D01*
X32654065Y-36545026D01*
X32692541Y-36499661D01*
X32737906Y-36461863D01*
X32790408Y-36431877D01*
X32851114Y-36409634D01*
X32921419Y-36395572D01*
X33002973Y-36390607D01*
X33083255Y-36395502D01*
G37*
G36*
X31906689Y-36442508D02*
G01*
X31997242Y-36405322D01*
X32044559Y-36394682D01*
X32110266Y-36390607D01*
X32175830Y-36397574D01*
X32242767Y-36419061D01*
X32304340Y-36453460D01*
X32355485Y-36498989D01*
X32398964Y-36557759D01*
X32433033Y-36628988D01*
X32448377Y-36680256D01*
X32458001Y-36737899D01*
X32461365Y-36802827D01*
X32455422Y-36895280D01*
X32438733Y-36973340D01*
X32412526Y-37039304D01*
X32377345Y-37095064D01*
X32331386Y-37142854D01*
X32279636Y-37176202D01*
X32220913Y-37196435D01*
X32153313Y-37203447D01*
X32083801Y-37196741D01*
X32025574Y-37177740D01*
X31970474Y-37146941D01*
X31906689Y-37100071D01*
X31906689Y-37180000D01*
X31660737Y-37180000D01*
X31660737Y-36591008D01*
X31906689Y-36591008D01*
X31906689Y-36969829D01*
X31937135Y-36988209D01*
X31973001Y-37003168D01*
X32010287Y-37012827D01*
X32044015Y-37015868D01*
X32098985Y-37009469D01*
X32139447Y-36992090D01*
X32169067Y-36964638D01*
X32188963Y-36928155D01*
X32202684Y-36875127D01*
X32207963Y-36800019D01*
X32201895Y-36729536D01*
X32185269Y-36674364D01*
X32159481Y-36631247D01*
X32133104Y-36605313D01*
X32100952Y-36586493D01*
X32061818Y-36574617D01*
X32013973Y-36570369D01*
X31961339Y-36575193D01*
X31906689Y-36591008D01*
X31660737Y-36591008D01*
X31660737Y-36117055D01*
X31906689Y-36117055D01*
X31906689Y-36442508D01*
G37*
G36*
X30663371Y-37180000D02*
G01*
X30909324Y-37180000D01*
X30909324Y-37097445D01*
X30977326Y-37144800D01*
X31034376Y-37176458D01*
X31073051Y-37191017D01*
X31117759Y-37200205D01*
X31169564Y-37203447D01*
X31232640Y-37198339D01*
X31285063Y-37184006D01*
X31328803Y-37161320D01*
X31365325Y-37130296D01*
X31393782Y-37092049D01*
X31415157Y-37044653D01*
X31428963Y-36986150D01*
X31433957Y-36914080D01*
X31433957Y-36414054D01*
X31186661Y-36414054D01*
X31186661Y-36794890D01*
X31182937Y-36891671D01*
X31176333Y-36928223D01*
X31165473Y-36955601D01*
X31149219Y-36977445D01*
X31126211Y-36992543D01*
X31097077Y-37000851D01*
X31052755Y-37004145D01*
X31020747Y-37001423D01*
X30983146Y-36992543D01*
X30945771Y-36978267D01*
X30909324Y-36958349D01*
X30909324Y-36414054D01*
X30663371Y-36414054D01*
X30663371Y-37180000D01*
G37*
G36*
X30185388Y-37180000D02*
G01*
X30431279Y-37180000D01*
X30431279Y-36117055D01*
X30185388Y-36117055D01*
X30185388Y-37180000D01*
G37*
G36*
X29655832Y-36395599D02*
G01*
X29727434Y-36409812D01*
X29790050Y-36432418D01*
X29844943Y-36463046D01*
X29893090Y-36501798D01*
X29934219Y-36548362D01*
X29966333Y-36600803D01*
X29989790Y-36659952D01*
X30004420Y-36726950D01*
X30009533Y-36803194D01*
X30004086Y-36880236D01*
X29988587Y-36946898D01*
X29963841Y-37004838D01*
X29930013Y-37055386D01*
X29886618Y-37099460D01*
X29836835Y-37134725D01*
X29778120Y-37163260D01*
X29709054Y-37184776D01*
X29627925Y-37198546D01*
X29532771Y-37203447D01*
X29445365Y-37199505D01*
X29369495Y-37188365D01*
X29295152Y-37169218D01*
X29212385Y-37139699D01*
X29212385Y-36941618D01*
X29239679Y-36941618D01*
X29286828Y-36971753D01*
X29355145Y-37002923D01*
X29429499Y-37024370D01*
X29506087Y-37031500D01*
X29586949Y-37025237D01*
X29647472Y-37008477D01*
X29692261Y-36983262D01*
X29727477Y-36947018D01*
X29750338Y-36901444D01*
X29760894Y-36843921D01*
X29198036Y-36843921D01*
X29198036Y-36757765D01*
X29202439Y-36699330D01*
X29442584Y-36699330D01*
X29761565Y-36699330D01*
X29752627Y-36646785D01*
X29735276Y-36608170D01*
X29710396Y-36580200D01*
X29678044Y-36559997D01*
X29639604Y-36547450D01*
X29593526Y-36543014D01*
X29544064Y-36548013D01*
X29507576Y-36561476D01*
X29480869Y-36582276D01*
X29461546Y-36610630D01*
X29448417Y-36648695D01*
X29442584Y-36699330D01*
X29202439Y-36699330D01*
X29204729Y-36668940D01*
X29223407Y-36595697D01*
X29252704Y-36535214D01*
X29292314Y-36485312D01*
X29341972Y-36445894D01*
X29403584Y-36416441D01*
X29479735Y-36397466D01*
X29573743Y-36390607D01*
X29655832Y-36395599D01*
G37*
D11*
G36*
X37421217Y-38537500D02*
G01*
X37152260Y-38537500D01*
X37064160Y-38533915D01*
X36994494Y-38524219D01*
X36930265Y-38505659D01*
X36872037Y-38477095D01*
X36826078Y-38443364D01*
X36785174Y-38400661D01*
X36749076Y-38347906D01*
X36722299Y-38290045D01*
X36705994Y-38226887D01*
X36700395Y-38157259D01*
X36700490Y-38155977D01*
X36903773Y-38155977D01*
X36906847Y-38205774D01*
X36915444Y-38247539D01*
X36928869Y-38282556D01*
X36948551Y-38314092D01*
X36974594Y-38341239D01*
X37007775Y-38364347D01*
X37039629Y-38378627D01*
X37071797Y-38387519D01*
X37109271Y-38391986D01*
X37174791Y-38393885D01*
X37224480Y-38393885D01*
X37224480Y-37919077D01*
X37174791Y-37919077D01*
X37115290Y-37920654D01*
X37079766Y-37924435D01*
X37048769Y-37932078D01*
X37018033Y-37944539D01*
X36981271Y-37967714D01*
X36952664Y-37995387D01*
X36931205Y-38027887D01*
X36916403Y-38064339D01*
X36907070Y-38106669D01*
X36903773Y-38155977D01*
X36700490Y-38155977D01*
X36705746Y-38084718D01*
X36721069Y-38021154D01*
X36745733Y-37965101D01*
X36779843Y-37914197D01*
X36821071Y-37871156D01*
X36869976Y-37835317D01*
X36919672Y-37810652D01*
X36983732Y-37791078D01*
X37054600Y-37779677D01*
X37144566Y-37775462D01*
X37421217Y-37775462D01*
X37421217Y-38537500D01*
G37*
G36*
X36336980Y-37949199D02*
G01*
X36390682Y-37959859D01*
X36437643Y-37976814D01*
X36478813Y-37999785D01*
X36514924Y-38028849D01*
X36545771Y-38063772D01*
X36569856Y-38103102D01*
X36587448Y-38147464D01*
X36598421Y-38197713D01*
X36602256Y-38254895D01*
X36598170Y-38312677D01*
X36586546Y-38362673D01*
X36567987Y-38406129D01*
X36542616Y-38444039D01*
X36510069Y-38477095D01*
X36472733Y-38503543D01*
X36428696Y-38524945D01*
X36376897Y-38541082D01*
X36316050Y-38551409D01*
X36244684Y-38555085D01*
X36179129Y-38552129D01*
X36122227Y-38543773D01*
X36066470Y-38529413D01*
X36004395Y-38507274D01*
X36004395Y-38358714D01*
X36024866Y-38358714D01*
X36060227Y-38381315D01*
X36111465Y-38404692D01*
X36167230Y-38420777D01*
X36224671Y-38426125D01*
X36285317Y-38421428D01*
X36330710Y-38408858D01*
X36364302Y-38389946D01*
X36390714Y-38362763D01*
X36407859Y-38328583D01*
X36415776Y-38285441D01*
X35993633Y-38285441D01*
X35993633Y-38220823D01*
X35996936Y-38176997D01*
X36177044Y-38176997D01*
X36416280Y-38176997D01*
X36409576Y-38137589D01*
X36396563Y-38108628D01*
X36377903Y-38087650D01*
X36353639Y-38072497D01*
X36324809Y-38063087D01*
X36290251Y-38059760D01*
X36253154Y-38063510D01*
X36225788Y-38073607D01*
X36205758Y-38089207D01*
X36191265Y-38110472D01*
X36181419Y-38139021D01*
X36177044Y-38176997D01*
X35996936Y-38176997D01*
X35998653Y-38154205D01*
X36012661Y-38099273D01*
X36034634Y-38053910D01*
X36064341Y-38016484D01*
X36101585Y-37986921D01*
X36147794Y-37964830D01*
X36204907Y-37950599D01*
X36275413Y-37945455D01*
X36336980Y-37949199D01*
G37*
G36*
X35363395Y-38356012D02*
G01*
X35368382Y-38398557D01*
X35382946Y-38436053D01*
X35407418Y-38469748D01*
X35443308Y-38500314D01*
X35483926Y-38522943D01*
X35532847Y-38540075D01*
X35591624Y-38551120D01*
X35662073Y-38555085D01*
X35736963Y-38551356D01*
X35801429Y-38540843D01*
X35860593Y-38524944D01*
X35901859Y-38509289D01*
X35901859Y-38358714D01*
X35884960Y-38358714D01*
X35852949Y-38378726D01*
X35801429Y-38402082D01*
X35736400Y-38421133D01*
X35699243Y-38427022D01*
X35658501Y-38429056D01*
X35607859Y-38425684D01*
X35578084Y-38417607D01*
X35562878Y-38408157D01*
X35554655Y-38397071D01*
X35551935Y-38383764D01*
X35555947Y-38365236D01*
X35567322Y-38353172D01*
X35586362Y-38344883D01*
X35625712Y-38334900D01*
X35681307Y-38324871D01*
X35745101Y-38311728D01*
X35795523Y-38294294D01*
X35833486Y-38272805D01*
X35861376Y-38247705D01*
X35882189Y-38216838D01*
X35894872Y-38181173D01*
X35899294Y-38139399D01*
X35894513Y-38100000D01*
X35880384Y-38064403D01*
X35856334Y-38031522D01*
X35820663Y-38000776D01*
X35780602Y-37977867D01*
X35732479Y-37960573D01*
X35674785Y-37949444D01*
X35605745Y-37945455D01*
X35542049Y-37948791D01*
X35482005Y-37958598D01*
X35426313Y-37973107D01*
X35389544Y-37986671D01*
X35389544Y-38133033D01*
X35405435Y-38133033D01*
X35448642Y-38108598D01*
X35498950Y-38088612D01*
X35551927Y-38075740D01*
X35605241Y-38071484D01*
X35647802Y-38074645D01*
X35680300Y-38083162D01*
X35698479Y-38092990D01*
X35707802Y-38103873D01*
X35710754Y-38116272D01*
X35707149Y-38134725D01*
X35696924Y-38147642D01*
X35678098Y-38156942D01*
X35631848Y-38169258D01*
X35571169Y-38180340D01*
X35505819Y-38193941D01*
X35459056Y-38210167D01*
X35423948Y-38230285D01*
X35398245Y-38253888D01*
X35379157Y-38282853D01*
X35367478Y-38316480D01*
X35363395Y-38356012D01*
G37*
G36*
X35056198Y-38537500D02*
G01*
X35240617Y-38537500D01*
X35240617Y-37963040D01*
X35056198Y-37963040D01*
X35056198Y-38537500D01*
G37*
G36*
X35051069Y-37880975D02*
G01*
X35245746Y-37880975D01*
X35245746Y-37740291D01*
X35051069Y-37740291D01*
X35051069Y-37880975D01*
G37*
G36*
X34713483Y-37950421D02*
G01*
X34763702Y-37965467D01*
X34809650Y-37989678D01*
X34846959Y-38021292D01*
X34879072Y-38062823D01*
X34903333Y-38111509D01*
X34914053Y-38146566D01*
X34920881Y-38187272D01*
X34923300Y-38234516D01*
X34918417Y-38309987D01*
X34905039Y-38370269D01*
X34884580Y-38418160D01*
X34857721Y-38455938D01*
X34822661Y-38486952D01*
X34780885Y-38509492D01*
X34731035Y-38523669D01*
X34671241Y-38528707D01*
X34623111Y-38524602D01*
X34581070Y-38512816D01*
X34542330Y-38494077D01*
X34507293Y-38469768D01*
X34507293Y-38480484D01*
X34509234Y-38514766D01*
X34514483Y-38541575D01*
X34524032Y-38565177D01*
X34537518Y-38583387D01*
X34557188Y-38598165D01*
X34586474Y-38610131D01*
X34620944Y-38616931D01*
X34669730Y-38619565D01*
X34709216Y-38617004D01*
X34756833Y-38608574D01*
X34803467Y-38596556D01*
X34839311Y-38584394D01*
X34861842Y-38584394D01*
X34861842Y-38729566D01*
X34817287Y-38738806D01*
X34761184Y-38747151D01*
X34702736Y-38752568D01*
X34643077Y-38754387D01*
X34571353Y-38750674D01*
X34510636Y-38740282D01*
X34472508Y-38728604D01*
X34439308Y-38713295D01*
X34410436Y-38694487D01*
X34385323Y-38671544D01*
X34363830Y-38642984D01*
X34345910Y-38607979D01*
X34333610Y-38570419D01*
X34325675Y-38525473D01*
X34322829Y-38471829D01*
X34322829Y-38094657D01*
X34507293Y-38094657D01*
X34507293Y-38356149D01*
X34530291Y-38369066D01*
X34555974Y-38379322D01*
X34582923Y-38385855D01*
X34610287Y-38388023D01*
X34649589Y-38383926D01*
X34679503Y-38372726D01*
X34702245Y-38355142D01*
X34717999Y-38331012D01*
X34728963Y-38293965D01*
X34733248Y-38239050D01*
X34728731Y-38190290D01*
X34716310Y-38152100D01*
X34696887Y-38122180D01*
X34669887Y-38099665D01*
X34634402Y-38085456D01*
X34587756Y-38080277D01*
X34546265Y-38084124D01*
X34507293Y-38094657D01*
X34322829Y-38094657D01*
X34322829Y-37963040D01*
X34501660Y-37963040D01*
X34508301Y-37986991D01*
X34540951Y-37969754D01*
X34577727Y-37956492D01*
X34617136Y-37948327D01*
X34662494Y-37945455D01*
X34713483Y-37950421D01*
G37*
G36*
X33570225Y-38537500D02*
G01*
X33755651Y-38537500D01*
X33755651Y-38251873D01*
X33759269Y-38182355D01*
X33764642Y-38150203D01*
X33771542Y-38131339D01*
X33784169Y-38114945D01*
X33801538Y-38103678D01*
X33823352Y-38097415D01*
X33856584Y-38094931D01*
X33881672Y-38096943D01*
X33907601Y-38103129D01*
X33933607Y-38113322D01*
X33963700Y-38129278D01*
X33963700Y-38537500D01*
X34148119Y-38537500D01*
X34148119Y-37963040D01*
X33963700Y-37963040D01*
X33963700Y-38024956D01*
X33914076Y-37990105D01*
X33869178Y-37965971D01*
X33822000Y-37950718D01*
X33768520Y-37945455D01*
X33722302Y-37949213D01*
X33683436Y-37959815D01*
X33650585Y-37976686D01*
X33622752Y-37999860D01*
X33600988Y-38028348D01*
X33584635Y-38063860D01*
X33574058Y-38107926D01*
X33570225Y-38162480D01*
X33570225Y-38537500D01*
G37*
G36*
X33177454Y-37949199D02*
G01*
X33231156Y-37959859D01*
X33278118Y-37976814D01*
X33319287Y-37999785D01*
X33355398Y-38028849D01*
X33386245Y-38063772D01*
X33410330Y-38103102D01*
X33427923Y-38147464D01*
X33438895Y-38197713D01*
X33442730Y-38254895D01*
X33438645Y-38312677D01*
X33427021Y-38362673D01*
X33408461Y-38406129D01*
X33383091Y-38444039D01*
X33350544Y-38477095D01*
X33313207Y-38503543D01*
X33269170Y-38524945D01*
X33217371Y-38541082D01*
X33156525Y-38551409D01*
X33085159Y-38555085D01*
X33019604Y-38552129D01*
X32962701Y-38543773D01*
X32906944Y-38529413D01*
X32844869Y-38507274D01*
X32844869Y-38358714D01*
X32865340Y-38358714D01*
X32900701Y-38381315D01*
X32951939Y-38404692D01*
X33007704Y-38420777D01*
X33065146Y-38426125D01*
X33125792Y-38421428D01*
X33171185Y-38408858D01*
X33204777Y-38389946D01*
X33231188Y-38362763D01*
X33248334Y-38328583D01*
X33256251Y-38285441D01*
X32834108Y-38285441D01*
X32834108Y-38220823D01*
X32837410Y-38176997D01*
X33017519Y-38176997D01*
X33256755Y-38176997D01*
X33250050Y-38137589D01*
X33237037Y-38108628D01*
X33218378Y-38087650D01*
X33194114Y-38072497D01*
X33165284Y-38063087D01*
X33130725Y-38059760D01*
X33093628Y-38063510D01*
X33066262Y-38073607D01*
X33046232Y-38089207D01*
X33031740Y-38110472D01*
X33021893Y-38139021D01*
X33017519Y-38176997D01*
X32837410Y-38176997D01*
X32839127Y-38154205D01*
X32853136Y-38099273D01*
X32875108Y-38053910D01*
X32904816Y-38016484D01*
X32942059Y-37986921D01*
X32988268Y-37964830D01*
X33045382Y-37950599D01*
X33115887Y-37945455D01*
X33177454Y-37949199D01*
G37*
G36*
X32328891Y-37984381D02*
G01*
X32396806Y-37956492D01*
X32432293Y-37948512D01*
X32481574Y-37945455D01*
X32530747Y-37950680D01*
X32580950Y-37966796D01*
X32627129Y-37992595D01*
X32665488Y-38026742D01*
X32698097Y-38070819D01*
X32723649Y-38124241D01*
X32735157Y-38162692D01*
X32742375Y-38205924D01*
X32744898Y-38254620D01*
X32740441Y-38323960D01*
X32727924Y-38382505D01*
X32708269Y-38431978D01*
X32681883Y-38473798D01*
X32647414Y-38509640D01*
X32608601Y-38534651D01*
X32564559Y-38549826D01*
X32513859Y-38555085D01*
X32461725Y-38550056D01*
X32418055Y-38535805D01*
X32376730Y-38512706D01*
X32328891Y-38477553D01*
X32328891Y-38537500D01*
X32144427Y-38537500D01*
X32144427Y-38095756D01*
X32328891Y-38095756D01*
X32328891Y-38379871D01*
X32351726Y-38393657D01*
X32378625Y-38404876D01*
X32406590Y-38412120D01*
X32431885Y-38414401D01*
X32473113Y-38409602D01*
X32503459Y-38396567D01*
X32525675Y-38375979D01*
X32540596Y-38348616D01*
X32550887Y-38308845D01*
X32554846Y-38252514D01*
X32550296Y-38199652D01*
X32537826Y-38158273D01*
X32518485Y-38125935D01*
X32498703Y-38106484D01*
X32474588Y-38092370D01*
X32445238Y-38083462D01*
X32409354Y-38080277D01*
X32369878Y-38083895D01*
X32328891Y-38095756D01*
X32144427Y-38095756D01*
X32144427Y-37740291D01*
X32328891Y-37740291D01*
X32328891Y-37984381D01*
G37*
G36*
X31611413Y-38537500D02*
G01*
X31434688Y-38537500D01*
X31426994Y-38508786D01*
X31393276Y-38526043D01*
X31357843Y-38538736D01*
X31319811Y-38546435D01*
X31273258Y-38549223D01*
X31219044Y-38543774D01*
X31170534Y-38527877D01*
X31126463Y-38501465D01*
X31086000Y-38463494D01*
X31053892Y-38418751D01*
X31030572Y-38367705D01*
X31016037Y-38309189D01*
X31011343Y-38247018D01*
X31201039Y-38247018D01*
X31205693Y-38303799D01*
X31218133Y-38345973D01*
X31236897Y-38376940D01*
X31256265Y-38395241D01*
X31280193Y-38408654D01*
X31309661Y-38417192D01*
X31346027Y-38420263D01*
X31389075Y-38417698D01*
X31426994Y-38407898D01*
X31426994Y-38117096D01*
X31401209Y-38103852D01*
X31374238Y-38094153D01*
X31346602Y-38088093D01*
X31320428Y-38086139D01*
X31287162Y-38089184D01*
X31261579Y-38097490D01*
X31241968Y-38110363D01*
X31227188Y-38127904D01*
X31213563Y-38157000D01*
X31204443Y-38195832D01*
X31201039Y-38247018D01*
X31011343Y-38247018D01*
X31010942Y-38241706D01*
X31015187Y-38171608D01*
X31027023Y-38113205D01*
X31045432Y-38064618D01*
X31069880Y-38024269D01*
X31102228Y-37989986D01*
X31140172Y-37965708D01*
X31184820Y-37950726D01*
X31237904Y-37945455D01*
X31276063Y-37947930D01*
X31309941Y-37955040D01*
X31340166Y-37966475D01*
X31383459Y-37990305D01*
X31426994Y-38021246D01*
X31426994Y-37740291D01*
X31611413Y-37740291D01*
X31611413Y-38537500D01*
G37*
G36*
X30617466Y-38335175D02*
G01*
X30486308Y-37963040D01*
X30296760Y-37963040D01*
X30616459Y-38748525D01*
X30816265Y-38748525D01*
X30725040Y-38534569D01*
X30948934Y-37963040D01*
X30755265Y-37963040D01*
X30617466Y-38335175D01*
G37*
G36*
X36679010Y-39797500D02*
G01*
X36874694Y-39797500D01*
X36874694Y-39287383D01*
X37016111Y-39618714D01*
X37151849Y-39618714D01*
X37293265Y-39287383D01*
X37293265Y-39797500D01*
X37478737Y-39797500D01*
X37478737Y-39035462D01*
X37250263Y-39035462D01*
X37078622Y-39417992D01*
X36907484Y-39035462D01*
X36679010Y-39035462D01*
X36679010Y-39797500D01*
G37*
G36*
X36309531Y-39797500D02*
G01*
X36493950Y-39797500D01*
X36493950Y-39223040D01*
X36309531Y-39223040D01*
X36309531Y-39797500D01*
G37*
G36*
X36304402Y-39140975D02*
G01*
X36499079Y-39140975D01*
X36499079Y-39000291D01*
X36304402Y-39000291D01*
X36304402Y-39140975D01*
G37*
G36*
X35767770Y-39792737D02*
G01*
X35830785Y-39804827D01*
X35912255Y-39809223D01*
X35967186Y-39805949D01*
X36010873Y-39797013D01*
X36045363Y-39783441D01*
X36072356Y-39765809D01*
X36093850Y-39742413D01*
X36110162Y-39711266D01*
X36120910Y-39670395D01*
X36124884Y-39617202D01*
X36124884Y-39349070D01*
X36200721Y-39349070D01*
X36200721Y-39223040D01*
X36124884Y-39223040D01*
X36124884Y-39058909D01*
X35940465Y-39058909D01*
X35940465Y-39223040D01*
X35767770Y-39223040D01*
X35767770Y-39349070D01*
X35940465Y-39349070D01*
X35940465Y-39551806D01*
X35939961Y-39604242D01*
X35937588Y-39625856D01*
X35931764Y-39644497D01*
X35921966Y-39660311D01*
X35906393Y-39672752D01*
X35885818Y-39680219D01*
X35853362Y-39683194D01*
X35815672Y-39677011D01*
X35783158Y-39665608D01*
X35767770Y-39665608D01*
X35767770Y-39792737D01*
G37*
G36*
X35358175Y-39815085D02*
G01*
X35431536Y-39810413D01*
X35495745Y-39797087D01*
X35536027Y-39782633D01*
X35571989Y-39764080D01*
X35604097Y-39741446D01*
X35632047Y-39714411D01*
X35655564Y-39682990D01*
X35674805Y-39646695D01*
X35688376Y-39607821D01*
X35696906Y-39563498D01*
X35699901Y-39512834D01*
X35696671Y-39459462D01*
X35687516Y-39413318D01*
X35673019Y-39373341D01*
X35652500Y-39336107D01*
X35627543Y-39303812D01*
X35597960Y-39275980D01*
X35565607Y-39253976D01*
X35529883Y-39236134D01*
X35490387Y-39222445D01*
X35428509Y-39209738D01*
X35363808Y-39205455D01*
X35306275Y-39208749D01*
X35255227Y-39218186D01*
X35206777Y-39232980D01*
X35162491Y-39251296D01*
X35162491Y-39407688D01*
X35188640Y-39407688D01*
X35214514Y-39387492D01*
X35251655Y-39364823D01*
X35297771Y-39347284D01*
X35323985Y-39342142D01*
X35356160Y-39340277D01*
X35392514Y-39343471D01*
X35422828Y-39352472D01*
X35448264Y-39366837D01*
X35469641Y-39386714D01*
X35490969Y-39419796D01*
X35504477Y-39461085D01*
X35509346Y-39512789D01*
X35504226Y-39566116D01*
X35490287Y-39606754D01*
X35468634Y-39637627D01*
X35438899Y-39660641D01*
X35401174Y-39675063D01*
X35353092Y-39680263D01*
X35319232Y-39678270D01*
X35290352Y-39672661D01*
X35263826Y-39663962D01*
X35243961Y-39654663D01*
X35213232Y-39634009D01*
X35188640Y-39612852D01*
X35162491Y-39612852D01*
X35162491Y-39770434D01*
X35206919Y-39788802D01*
X35253441Y-39802995D01*
X35302234Y-39811938D01*
X35358175Y-39815085D01*
G37*
G36*
X34462323Y-39797500D02*
G01*
X34647749Y-39797500D01*
X34647749Y-39511873D01*
X34651367Y-39442355D01*
X34656740Y-39410203D01*
X34663640Y-39391339D01*
X34676267Y-39374945D01*
X34693636Y-39363678D01*
X34715450Y-39357415D01*
X34748682Y-39354931D01*
X34773770Y-39356943D01*
X34799698Y-39363129D01*
X34825705Y-39373322D01*
X34855798Y-39389278D01*
X34855798Y-39797500D01*
X35040217Y-39797500D01*
X35040217Y-39000291D01*
X34855798Y-39000291D01*
X34855798Y-39284956D01*
X34806174Y-39250105D01*
X34761276Y-39225971D01*
X34714098Y-39210718D01*
X34660617Y-39205455D01*
X34614400Y-39209213D01*
X34575534Y-39219815D01*
X34542683Y-39236686D01*
X34514850Y-39259860D01*
X34493086Y-39288348D01*
X34476733Y-39323860D01*
X34466155Y-39367926D01*
X34462323Y-39422480D01*
X34462323Y-39797500D01*
G37*
G36*
X33570067Y-39024671D02*
G01*
X33627012Y-39036113D01*
X33681692Y-39055108D01*
X33733462Y-39081031D01*
X33779478Y-39112195D01*
X33820269Y-39148714D01*
X33856899Y-39191079D01*
X33887946Y-39238099D01*
X33913555Y-39290222D01*
X33932157Y-39345192D01*
X33943488Y-39403741D01*
X33947352Y-39466489D01*
X33943613Y-39531717D01*
X33932686Y-39592233D01*
X33914837Y-39648664D01*
X33889914Y-39702269D01*
X33859780Y-39749470D01*
X33824391Y-39790905D01*
X33783233Y-39827341D01*
X33737369Y-39857811D01*
X33686317Y-39882496D01*
X33632351Y-39900223D01*
X33574741Y-39911042D01*
X33512890Y-39914736D01*
X33458094Y-39913278D01*
X33409896Y-39909149D01*
X33315099Y-39892937D01*
X33315099Y-39794569D01*
X33359837Y-39806105D01*
X33413742Y-39815772D01*
X33467948Y-39821985D01*
X33512844Y-39823878D01*
X33556116Y-39821267D01*
X33597510Y-39813534D01*
X33637362Y-39800705D01*
X33675162Y-39782888D01*
X33709554Y-39760508D01*
X33740860Y-39733386D01*
X33768054Y-39701789D01*
X33791900Y-39664648D01*
X33812347Y-39621278D01*
X33826921Y-39575615D01*
X33836043Y-39524301D01*
X33839229Y-39466489D01*
X33835963Y-39413590D01*
X33826415Y-39364576D01*
X33810790Y-39318890D01*
X33789385Y-39275546D01*
X33764703Y-39238398D01*
X33736784Y-39206783D01*
X33688823Y-39167700D01*
X33633515Y-39137403D01*
X33593735Y-39123115D01*
X33552633Y-39114548D01*
X33509821Y-39111666D01*
X33443413Y-39117155D01*
X33383288Y-39133144D01*
X33345888Y-39149983D01*
X33312012Y-39171697D01*
X33281302Y-39198494D01*
X33255536Y-39228855D01*
X33233321Y-39264645D01*
X33214715Y-39306571D01*
X33201719Y-39350624D01*
X33193512Y-39400807D01*
X33190627Y-39458017D01*
X33192813Y-39501811D01*
X33199603Y-39548692D01*
X33211073Y-39594660D01*
X33226988Y-39636299D01*
X33314091Y-39636299D01*
X33314091Y-39331622D01*
X33435495Y-39331622D01*
X33435495Y-39592015D01*
X33456505Y-39610261D01*
X33475979Y-39622790D01*
X33497136Y-39630613D01*
X33522598Y-39633368D01*
X33554137Y-39628715D01*
X33577723Y-39615733D01*
X33595368Y-39594122D01*
X33606572Y-39566838D01*
X33614390Y-39527737D01*
X33617395Y-39473221D01*
X33613993Y-39423392D01*
X33604758Y-39384507D01*
X33590742Y-39354382D01*
X33570095Y-39329947D01*
X33545295Y-39315828D01*
X33514905Y-39310968D01*
X33474467Y-39315868D01*
X33435495Y-39331622D01*
X33314091Y-39331622D01*
X33314091Y-39220109D01*
X33432977Y-39220109D01*
X33432977Y-39251846D01*
X33449293Y-39239129D01*
X33473460Y-39226154D01*
X33500881Y-39217348D01*
X33533406Y-39214248D01*
X33572433Y-39218737D01*
X33612816Y-39232703D01*
X33649876Y-39254806D01*
X33680914Y-39283994D01*
X33707705Y-39321458D01*
X33728587Y-39365785D01*
X33741386Y-39415035D01*
X33745989Y-39475236D01*
X33742316Y-39534132D01*
X33732010Y-39583818D01*
X33715858Y-39625744D01*
X33694240Y-39661120D01*
X33665780Y-39691811D01*
X33634259Y-39712992D01*
X33599022Y-39725713D01*
X33558960Y-39730088D01*
X33510947Y-39726715D01*
X33480604Y-39718365D01*
X33453562Y-39705054D01*
X33424230Y-39687178D01*
X33416032Y-39727158D01*
X33156784Y-39727158D01*
X33129591Y-39674456D01*
X33105584Y-39604471D01*
X33090112Y-39530433D01*
X33085068Y-39458750D01*
X33088864Y-39393131D01*
X33099852Y-39333556D01*
X33117629Y-39279231D01*
X33142393Y-39227735D01*
X33172330Y-39182079D01*
X33207525Y-39141707D01*
X33247264Y-39106503D01*
X33291927Y-39076842D01*
X33342027Y-39052589D01*
X33394930Y-39035067D01*
X33450850Y-39024425D01*
X33510325Y-39020807D01*
X33570067Y-39024671D01*
G37*
G36*
X31870112Y-39797500D02*
G01*
X32066850Y-39797500D01*
X32066850Y-39460444D01*
X32357331Y-39460444D01*
X32357331Y-39797500D01*
X32554069Y-39797500D01*
X32554069Y-39035462D01*
X32357331Y-39035462D01*
X32357331Y-39313899D01*
X32066850Y-39313899D01*
X32066850Y-39035462D01*
X31870112Y-39035462D01*
X31870112Y-39797500D01*
G37*
G36*
X30990838Y-39797500D02*
G01*
X31187576Y-39797500D01*
X31187576Y-39460444D01*
X31478057Y-39460444D01*
X31478057Y-39797500D01*
X31674794Y-39797500D01*
X31674794Y-39035462D01*
X31478057Y-39035462D01*
X31478057Y-39313899D01*
X31187576Y-39313899D01*
X31187576Y-39035462D01*
X30990838Y-39035462D01*
X30990838Y-39797500D01*
G37*
G36*
X30245287Y-39797500D02*
G01*
X30795520Y-39797500D01*
X30795520Y-39035462D01*
X30598783Y-39035462D01*
X30598783Y-39650954D01*
X30245287Y-39650954D01*
X30245287Y-39797500D01*
G37*
D12*
%TO.C,SW1*%
X46225000Y-42130329D03*
X46225000Y-54780329D03*
D13*
X51225000Y-44155329D03*
X51225000Y-52755329D03*
D12*
X56225000Y-42130329D03*
X56225000Y-54780329D03*
D14*
X45575000Y-45205329D03*
X45575000Y-51705329D03*
X41075000Y-45205329D03*
X41075000Y-51705329D03*
D15*
X48725000Y-57155329D03*
X51225000Y-57155329D03*
X53725000Y-57155329D03*
X59925000Y-50955329D03*
X59925000Y-48455329D03*
X59925000Y-45955329D03*
%TD*%
M02*
