%TF.GenerationSoftware,KiCad,Pcbnew,10.0.5*%
%TF.CreationDate,2026-09-21T17:49:53-07:00*%
%TF.ProjectId,PGS_Stick_Board,5047535f-5374-4696-936b-5f426f617264,rev?*%
%TF.SameCoordinates,Original*%
%TF.FileFunction,Profile,NP*%
%FSLAX46Y46*%
G04 Gerber Fmt 4.6, Leading zero omitted, Abs format (unit mm)*
G04 Created by KiCad (PCBNEW 10.0.5) date 2026-09-21 17:49:53*
%MOMM*%
%LPD*%
G01*
G04 APERTURE LIST*
%TA.AperFunction,Profile*%
%ADD10C,0.010000*%
%TD*%
%ADD11C,0.010000*%
G04 APERTURE END LIST*
D10*
X29559462Y-43461000D02*
G75*
G02*
X28559474Y-42473048I38J1000100D01*
G01*
D11*
X51833008Y-34793852D02*
X51839444Y-34794098D01*
X51845883Y-34794265D01*
X51852323Y-34794352D01*
X51858765Y-34794358D01*
X51865206Y-34794285D01*
X51871645Y-34794132D01*
X51878083Y-34793899D01*
X51884517Y-34793586D01*
X51890947Y-34793193D01*
X51897371Y-34792720D01*
X51903790Y-34792167D01*
X51910202Y-34791535D01*
X51916605Y-34790823D01*
X51922999Y-34790032D01*
X51929383Y-34789162D01*
X51935756Y-34788212D01*
X51938938Y-34787707D01*
X51942116Y-34787183D01*
X51945292Y-34786639D01*
X51948464Y-34786075D01*
X51951632Y-34785492D01*
X51954797Y-34784889D01*
X51957958Y-34784266D01*
X51961116Y-34783624D01*
X51964269Y-34782962D01*
X51967418Y-34782280D01*
X51970562Y-34781579D01*
X51973703Y-34780859D01*
X51976839Y-34780119D01*
X51979970Y-34779359D01*
X51983096Y-34778580D01*
X51986218Y-34777782D01*
X51989334Y-34776964D01*
X51992446Y-34776127D01*
X51995552Y-34775271D01*
X51998653Y-34774395D01*
X52001749Y-34773500D01*
X52004839Y-34772586D01*
X52007922Y-34771653D01*
X52011001Y-34770700D01*
X52014073Y-34769729D01*
X52017140Y-34768738D01*
X52020199Y-34767729D01*
X52023254Y-34766700D01*
X52026301Y-34765653D01*
X52029342Y-34764586D01*
X52034137Y-34762861D01*
D10*
X59710284Y-34313190D02*
G75*
G02*
X63238792Y-34306094I1767816J-1767810D01*
G01*
X38302495Y-55720979D02*
G75*
G02*
X36444662Y-49605329I12922905J7265779D01*
G01*
D11*
X50124291Y-62414471D02*
X50121587Y-62420318D01*
X50118955Y-62426199D01*
X50116397Y-62432111D01*
X50113912Y-62438056D01*
X50111502Y-62444030D01*
X50109165Y-62450034D01*
X50106903Y-62456067D01*
X50104717Y-62462128D01*
X50102605Y-62468215D01*
X50101578Y-62471269D01*
X50100570Y-62474328D01*
X50099580Y-62477394D01*
X50098610Y-62480467D01*
X50097659Y-62483545D01*
X50096727Y-62486629D01*
X50095814Y-62489718D01*
X50094920Y-62492814D01*
X50094046Y-62495915D01*
X50093190Y-62499021D01*
X50092354Y-62502132D01*
X50091538Y-62505249D01*
X50090741Y-62508371D01*
X50089963Y-62511498D01*
X50089204Y-62514629D01*
X50088465Y-62517765D01*
X50087746Y-62520906D01*
X50087046Y-62524051D01*
X50086653Y-62525857D01*
D10*
X38302495Y-55720979D02*
X37082865Y-56940609D01*
X51833008Y-62116806D02*
G75*
G02*
X50616991Y-62116806I-608008J13661594D01*
G01*
D11*
X50394276Y-34754424D02*
X50400237Y-34756865D01*
X50406228Y-34759233D01*
X50412248Y-34761525D01*
X50418296Y-34763743D01*
X50424371Y-34765886D01*
X50430473Y-34767953D01*
X50436600Y-34769944D01*
X50442751Y-34771859D01*
X50448926Y-34773697D01*
X50452021Y-34774588D01*
X50455123Y-34775459D01*
X50458229Y-34776311D01*
X50461341Y-34777144D01*
X50464458Y-34777957D01*
X50467581Y-34778751D01*
X50470708Y-34779526D01*
X50473839Y-34780281D01*
X50476976Y-34781017D01*
X50480117Y-34781733D01*
X50483262Y-34782430D01*
X50486412Y-34783107D01*
X50489566Y-34783764D01*
X50492724Y-34784403D01*
X50495885Y-34785021D01*
X50499051Y-34785620D01*
X50502220Y-34786199D01*
X50505394Y-34786758D01*
X50507225Y-34787072D01*
X52335096Y-62435660D02*
X52332582Y-62429730D01*
X52329995Y-62423831D01*
X52327335Y-62417965D01*
X52324602Y-62412132D01*
X52321797Y-62406334D01*
X52318920Y-62400571D01*
X52315971Y-62394843D01*
X52312952Y-62389153D01*
X52309862Y-62383500D01*
X52306702Y-62377886D01*
X52303473Y-62372312D01*
X52300174Y-62366777D01*
X52296808Y-62361285D01*
X52293372Y-62355834D01*
X52289870Y-62350426D01*
X52286301Y-62345062D01*
X52284491Y-62342396D01*
X52282665Y-62339742D01*
X52280822Y-62337100D01*
X52278963Y-62334468D01*
X52277088Y-62331849D01*
X52275196Y-62329240D01*
X52273288Y-62326644D01*
X52271364Y-62324060D01*
X52269425Y-62321487D01*
X52267469Y-62318927D01*
X52265497Y-62316379D01*
X52263510Y-62313843D01*
X52261506Y-62311320D01*
X52259487Y-62308808D01*
X52257453Y-62306310D01*
X52255403Y-62303824D01*
X52253338Y-62301351D01*
X52251257Y-62298891D01*
X52249161Y-62296444D01*
X52247050Y-62294009D01*
X52244924Y-62291589D01*
X52242783Y-62289181D01*
X52240627Y-62286786D01*
X52238456Y-62284405D01*
X52236270Y-62282038D01*
X52234070Y-62279683D01*
X52231855Y-62277343D01*
X52229625Y-62275017D01*
X52227382Y-62272704D01*
X52225123Y-62270405D01*
X52221077Y-62266357D01*
D10*
X42739720Y-62597463D02*
X43959346Y-61377837D01*
X65367125Y-36434504D02*
X63238754Y-34306132D01*
D11*
X50086653Y-62525857D02*
X50085335Y-62532162D01*
X50084095Y-62538484D01*
X50082933Y-62544820D01*
X50081850Y-62551171D01*
X50080846Y-62557534D01*
X50079922Y-62563910D01*
X50079076Y-62570297D01*
X50078310Y-62576694D01*
X50077623Y-62583101D01*
X50077310Y-62586307D01*
X50077016Y-62589515D01*
X50076742Y-62592725D01*
X50076488Y-62595937D01*
X50076254Y-62599150D01*
X50076041Y-62602365D01*
X50075847Y-62605581D01*
X50075673Y-62608798D01*
X50075519Y-62612016D01*
X50075385Y-62615235D01*
X50075271Y-62618455D01*
X50075177Y-62621676D01*
X50075103Y-62624897D01*
X50075048Y-62628119D01*
X50075014Y-62631340D01*
X50075000Y-62634563D01*
X50075000Y-62635212D01*
D10*
X29559462Y-43461000D02*
X36400000Y-43461000D01*
X36400000Y-47305329D02*
X37225002Y-47305329D01*
X28559402Y-34674966D02*
G75*
G02*
X29559402Y-33675002I999998J-34D01*
G01*
X36400000Y-43461000D02*
X36400000Y-47305329D01*
X65225002Y-49605329D02*
G75*
G02*
X65228393Y-47305276I-2J1150029D01*
G01*
X50075000Y-63235656D02*
G75*
G02*
X43959344Y-61377840I1150000J14780456D01*
G01*
D11*
X52363346Y-34384801D02*
X52364665Y-34378495D01*
X52365905Y-34372173D01*
X52367066Y-34365836D01*
X52368149Y-34359485D01*
X52369153Y-34353121D01*
X52370078Y-34346745D01*
X52370924Y-34340357D01*
X52371690Y-34333960D01*
X52372377Y-34327554D01*
X52372690Y-34324347D01*
X52372984Y-34321139D01*
X52373258Y-34317929D01*
X52373512Y-34314717D01*
X52373746Y-34311504D01*
X52373959Y-34308290D01*
X52374153Y-34305074D01*
X52374327Y-34301857D01*
X52374481Y-34298639D01*
X52374615Y-34295420D01*
X52374729Y-34292200D01*
X52374823Y-34288980D01*
X52374897Y-34285759D01*
X52374952Y-34282538D01*
X52374986Y-34279316D01*
X52375000Y-34276094D01*
X52375000Y-34275446D01*
D10*
X28559402Y-34674966D02*
X28559402Y-42473049D01*
D11*
X52221077Y-62266357D02*
X52216471Y-62261855D01*
X52211809Y-62257411D01*
X52207092Y-62253024D01*
X52202321Y-62248697D01*
X52197497Y-62244429D01*
X52192620Y-62240221D01*
X52187691Y-62236074D01*
X52182711Y-62231988D01*
X52177680Y-62227964D01*
X52172599Y-62224003D01*
X52167470Y-62220106D01*
X52162292Y-62216272D01*
X52157067Y-62212502D01*
X52151796Y-62208798D01*
X52146479Y-62205159D01*
X52141117Y-62201587D01*
X52138419Y-62199825D01*
X52135711Y-62198081D01*
X52132991Y-62196353D01*
X52130261Y-62194642D01*
X52127521Y-62192949D01*
X52124769Y-62191272D01*
X52122008Y-62189612D01*
X52119236Y-62187970D01*
X52116454Y-62186344D01*
X52113662Y-62184736D01*
X52110860Y-62183146D01*
X52108049Y-62181572D01*
X52105227Y-62180017D01*
X52102396Y-62178478D01*
X52099555Y-62176958D01*
X52096705Y-62175455D01*
X52093846Y-62173970D01*
X52090977Y-62172502D01*
X52088100Y-62171053D01*
X52085213Y-62169621D01*
X52082318Y-62168207D01*
X52079414Y-62166811D01*
X52076501Y-62165434D01*
X52073579Y-62164074D01*
X52070650Y-62162732D01*
X52067711Y-62161409D01*
X52064766Y-62160104D01*
X52061811Y-62158817D01*
X52058849Y-62157549D01*
X52055878Y-62156299D01*
X52055723Y-62156234D01*
D10*
X52375000Y-33675002D02*
X52375000Y-34275446D01*
D11*
X52055723Y-62156234D02*
X52049762Y-62153793D01*
X52043771Y-62151425D01*
X52037751Y-62149133D01*
X52031703Y-62146915D01*
X52025628Y-62144772D01*
X52019526Y-62142705D01*
X52013399Y-62140714D01*
X52007248Y-62138799D01*
X52001073Y-62136961D01*
X51997978Y-62136070D01*
X51994876Y-62135199D01*
X51991770Y-62134347D01*
X51988658Y-62133514D01*
X51985541Y-62132701D01*
X51982418Y-62131907D01*
X51979291Y-62131132D01*
X51976160Y-62130377D01*
X51973023Y-62129641D01*
X51969882Y-62128925D01*
X51966737Y-62128228D01*
X51963587Y-62127551D01*
X51960433Y-62126894D01*
X51957275Y-62126255D01*
X51954114Y-62125637D01*
X51950948Y-62125038D01*
X51947779Y-62124459D01*
X51944605Y-62123900D01*
X51942774Y-62123586D01*
X50241656Y-62254176D02*
X50236954Y-62258578D01*
X50232306Y-62263037D01*
X50227715Y-62267555D01*
X50223179Y-62272129D01*
X50218701Y-62276759D01*
X50214280Y-62281444D01*
X50209918Y-62286184D01*
X50205615Y-62290978D01*
X50201371Y-62295825D01*
X50197188Y-62300724D01*
X50193066Y-62305676D01*
X50189006Y-62310678D01*
X50185008Y-62315730D01*
X50181073Y-62320832D01*
X50177201Y-62325982D01*
X50173394Y-62331180D01*
X50171514Y-62333796D01*
X50169651Y-62336425D01*
X50167804Y-62339065D01*
X50165974Y-62341716D01*
X50164160Y-62344378D01*
X50162362Y-62347052D01*
X50160582Y-62349737D01*
X50158817Y-62352433D01*
X50157070Y-62355140D01*
X50155340Y-62357858D01*
X50153626Y-62360586D01*
X50151929Y-62363325D01*
X50150250Y-62366075D01*
X50148587Y-62368835D01*
X50146942Y-62371605D01*
X50145314Y-62374385D01*
X50143703Y-62377176D01*
X50142109Y-62379976D01*
X50140533Y-62382786D01*
X50138975Y-62385607D01*
X50137434Y-62388436D01*
X50135910Y-62391276D01*
X50134404Y-62394124D01*
X50132916Y-62396982D01*
X50131446Y-62399849D01*
X50129993Y-62402726D01*
X50128559Y-62405610D01*
X50127142Y-62408505D01*
X50125743Y-62411408D01*
X50124362Y-62414320D01*
X50124291Y-62414471D01*
D10*
X42739720Y-62597463D02*
G75*
G02*
X39204182Y-62597445I-1767760J1767693D01*
G01*
X59710284Y-34313190D02*
X58490654Y-35532821D01*
X64147498Y-41189685D02*
X65367135Y-39970048D01*
X39204185Y-62597442D02*
X39204173Y-62597454D01*
X40694609Y-60060719D02*
G75*
G02*
X38544609Y-60060719I-1075000J0D01*
G01*
X38544609Y-60060719D02*
G75*
G02*
X40694609Y-60060719I1075000J0D01*
G01*
X52375000Y-62635212D02*
X52375000Y-63235659D01*
D11*
X50114903Y-34474998D02*
X50117417Y-34480928D01*
X50120004Y-34486827D01*
X50122664Y-34492693D01*
X50125397Y-34498526D01*
X50128202Y-34504324D01*
X50131079Y-34510087D01*
X50134028Y-34515815D01*
X50137047Y-34521505D01*
X50140137Y-34527158D01*
X50143297Y-34532772D01*
X50146526Y-34538346D01*
X50149825Y-34543881D01*
X50153191Y-34549373D01*
X50156627Y-34554824D01*
X50160129Y-34560232D01*
X50163698Y-34565596D01*
X50165508Y-34568262D01*
X50167334Y-34570916D01*
X50169177Y-34573558D01*
X50171036Y-34576190D01*
X50172911Y-34578809D01*
X50174803Y-34581418D01*
X50176711Y-34584014D01*
X50178635Y-34586598D01*
X50180574Y-34589171D01*
X50182530Y-34591731D01*
X50184502Y-34594279D01*
X50186489Y-34596815D01*
X50188493Y-34599338D01*
X50190512Y-34601850D01*
X50192546Y-34604348D01*
X50194596Y-34606834D01*
X50196661Y-34609307D01*
X50198742Y-34611767D01*
X50200838Y-34614214D01*
X50202949Y-34616649D01*
X50205075Y-34619069D01*
X50207216Y-34621477D01*
X50209372Y-34623872D01*
X50211543Y-34626253D01*
X50213729Y-34628620D01*
X50215929Y-34630975D01*
X50218144Y-34633315D01*
X50220374Y-34635641D01*
X50222617Y-34637954D01*
X50224876Y-34640253D01*
X50228922Y-34644301D01*
D10*
X66005327Y-49605329D02*
X65225002Y-49605329D01*
X65228393Y-47305329D02*
X66005347Y-47305329D01*
D11*
X50075000Y-34275446D02*
X50075040Y-34281887D01*
X50075160Y-34288327D01*
X50075360Y-34294765D01*
X50075640Y-34301201D01*
X50075999Y-34307632D01*
X50076439Y-34314059D01*
X50076958Y-34320480D01*
X50077557Y-34326894D01*
X50078235Y-34333300D01*
X50078993Y-34339697D01*
X50079831Y-34346085D01*
X50080747Y-34352462D01*
X50081743Y-34358828D01*
X50082818Y-34365180D01*
X50083971Y-34371519D01*
X50085203Y-34377844D01*
X50085849Y-34381000D01*
X50086514Y-34384152D01*
X50087199Y-34387300D01*
X50087903Y-34390444D01*
X50088627Y-34393584D01*
X50089370Y-34396719D01*
X50090132Y-34399849D01*
X50090915Y-34402974D01*
X50091716Y-34406095D01*
X50092537Y-34409211D01*
X50093377Y-34412321D01*
X50094237Y-34415426D01*
X50095115Y-34418526D01*
X50096013Y-34421620D01*
X50096930Y-34424709D01*
X50097867Y-34427792D01*
X50098822Y-34430869D01*
X50099797Y-34433940D01*
X50100790Y-34437005D01*
X50101803Y-34440064D01*
X50102835Y-34443116D01*
X50103885Y-34446163D01*
X50104955Y-34449202D01*
X50106043Y-34452235D01*
X50107150Y-34455261D01*
X50108276Y-34458280D01*
X50109421Y-34461292D01*
X50110584Y-34464297D01*
X50111766Y-34467295D01*
X50112967Y-34470285D01*
X50114903Y-34474998D01*
D10*
X63905390Y-36849939D02*
G75*
G02*
X61755390Y-36849939I-1075000J0D01*
G01*
X61755390Y-36849939D02*
G75*
G02*
X63905390Y-36849939I1075000J0D01*
G01*
D11*
X52325708Y-34496187D02*
X52328412Y-34490340D01*
X52331044Y-34484459D01*
X52333602Y-34478547D01*
X52336087Y-34472602D01*
X52338497Y-34466628D01*
X52340834Y-34460624D01*
X52343096Y-34454591D01*
X52345282Y-34448530D01*
X52347394Y-34442443D01*
X52348421Y-34439389D01*
X52349429Y-34436330D01*
X52350419Y-34433264D01*
X52351389Y-34430191D01*
X52352340Y-34427113D01*
X52353272Y-34424029D01*
X52354185Y-34420940D01*
X52355079Y-34417844D01*
X52355953Y-34414743D01*
X52356809Y-34411637D01*
X52357645Y-34408526D01*
X52358461Y-34405409D01*
X52359258Y-34402287D01*
X52360036Y-34399160D01*
X52360795Y-34396029D01*
X52361534Y-34392893D01*
X52362253Y-34389752D01*
X52362953Y-34386607D01*
X52363346Y-34384801D01*
D10*
X64147498Y-41189685D02*
G75*
G02*
X66005334Y-47305330I-12922998J-7265815D01*
G01*
D11*
X50616991Y-62116806D02*
X50610555Y-62116560D01*
X50604116Y-62116393D01*
X50597676Y-62116306D01*
X50591234Y-62116300D01*
X50584793Y-62116373D01*
X50578354Y-62116526D01*
X50571916Y-62116759D01*
X50565482Y-62117072D01*
X50559052Y-62117465D01*
X50552628Y-62117938D01*
X50546209Y-62118491D01*
X50539797Y-62119123D01*
X50533394Y-62119835D01*
X50527000Y-62120626D01*
X50520616Y-62121496D01*
X50514243Y-62122446D01*
X50511061Y-62122951D01*
X50507883Y-62123475D01*
X50504707Y-62124019D01*
X50501535Y-62124583D01*
X50498367Y-62125166D01*
X50495202Y-62125769D01*
X50492041Y-62126392D01*
X50488883Y-62127034D01*
X50485730Y-62127696D01*
X50482581Y-62128378D01*
X50479437Y-62129079D01*
X50476296Y-62129799D01*
X50473160Y-62130539D01*
X50470029Y-62131299D01*
X50466903Y-62132078D01*
X50463781Y-62132876D01*
X50460665Y-62133694D01*
X50457553Y-62134531D01*
X50454447Y-62135387D01*
X50451346Y-62136263D01*
X50448250Y-62137158D01*
X50445160Y-62138072D01*
X50442077Y-62139005D01*
X50438998Y-62139958D01*
X50435926Y-62140929D01*
X50432859Y-62141920D01*
X50429800Y-62142929D01*
X50426745Y-62143958D01*
X50423698Y-62145005D01*
X50420657Y-62146072D01*
X50415862Y-62147797D01*
X52375000Y-62635212D02*
X52374960Y-62628771D01*
X52374840Y-62622331D01*
X52374640Y-62615893D01*
X52374360Y-62609458D01*
X52374001Y-62603027D01*
X52373561Y-62596600D01*
X52373042Y-62590180D01*
X52372443Y-62583766D01*
X52371765Y-62577360D01*
X52371007Y-62570962D01*
X52370169Y-62564574D01*
X52369253Y-62558197D01*
X52368257Y-62551832D01*
X52367182Y-62545480D01*
X52366029Y-62539141D01*
X52364796Y-62532816D01*
X52364151Y-62529660D01*
X52363486Y-62526508D01*
X52362801Y-62523359D01*
X52362097Y-62520216D01*
X52361373Y-62517076D01*
X52360630Y-62513941D01*
X52359867Y-62510811D01*
X52359085Y-62507685D01*
X52358284Y-62504565D01*
X52357463Y-62501449D01*
X52356623Y-62498339D01*
X52355763Y-62495233D01*
X52354884Y-62492134D01*
X52353986Y-62489039D01*
X52353069Y-62485951D01*
X52352133Y-62482867D01*
X52351177Y-62479791D01*
X52350203Y-62476719D01*
X52349209Y-62473654D01*
X52348196Y-62470595D01*
X52347165Y-62467543D01*
X52346114Y-62464496D01*
X52345045Y-62461457D01*
X52343956Y-62458424D01*
X52342849Y-62455398D01*
X52341723Y-62452379D01*
X52340579Y-62449367D01*
X52339415Y-62446361D01*
X52338233Y-62443364D01*
X52337032Y-62440373D01*
X52335096Y-62435660D01*
D10*
X50075000Y-33675000D02*
X29559402Y-33675000D01*
X65367125Y-36434504D02*
G75*
G02*
X65367154Y-39970067I-1767825J-1767796D01*
G01*
D11*
X52034137Y-34762861D02*
X52040173Y-34760613D01*
X52046181Y-34758291D01*
X52052160Y-34755894D01*
X52058108Y-34753423D01*
X52064026Y-34750879D01*
X52069911Y-34748261D01*
X52075764Y-34745570D01*
X52081583Y-34742806D01*
X52087368Y-34739971D01*
X52093117Y-34737064D01*
X52098829Y-34734085D01*
X52104505Y-34731036D01*
X52110142Y-34727917D01*
X52115740Y-34724727D01*
X52121299Y-34721469D01*
X52126816Y-34718141D01*
X52129559Y-34716452D01*
X52132292Y-34714746D01*
X52135014Y-34713022D01*
X52137726Y-34711282D01*
X52140426Y-34709525D01*
X52143116Y-34707751D01*
X52145794Y-34705961D01*
X52148462Y-34704154D01*
X52151118Y-34702330D01*
X52153763Y-34700490D01*
X52156396Y-34698634D01*
X52159018Y-34696761D01*
X52161628Y-34694872D01*
X52164226Y-34692966D01*
X52166812Y-34691045D01*
X52169387Y-34689108D01*
X52171949Y-34687155D01*
X52174500Y-34685185D01*
X52177038Y-34683200D01*
X52179564Y-34681199D01*
X52182077Y-34679183D01*
X52184577Y-34677151D01*
X52187065Y-34675104D01*
X52189541Y-34673041D01*
X52192003Y-34670963D01*
X52194453Y-34668869D01*
X52196889Y-34666760D01*
X52199313Y-34664636D01*
X52201722Y-34662498D01*
X52204120Y-34660344D01*
X52208343Y-34656482D01*
X50415862Y-62147797D02*
X50409826Y-62150045D01*
X50403818Y-62152367D01*
X50397839Y-62154764D01*
X50391891Y-62157235D01*
X50385973Y-62159779D01*
X50380088Y-62162397D01*
X50374235Y-62165088D01*
X50368416Y-62167852D01*
X50362631Y-62170687D01*
X50356882Y-62173594D01*
X50351170Y-62176573D01*
X50345494Y-62179622D01*
X50339857Y-62182741D01*
X50334259Y-62185931D01*
X50328700Y-62189189D01*
X50323183Y-62192517D01*
X50320440Y-62194206D01*
X50317707Y-62195912D01*
X50314985Y-62197636D01*
X50312273Y-62199376D01*
X50309573Y-62201133D01*
X50306883Y-62202907D01*
X50304205Y-62204697D01*
X50301537Y-62206504D01*
X50298881Y-62208328D01*
X50296236Y-62210168D01*
X50293603Y-62212024D01*
X50290981Y-62213897D01*
X50288371Y-62215786D01*
X50285773Y-62217692D01*
X50283187Y-62219613D01*
X50280612Y-62221550D01*
X50278050Y-62223503D01*
X50275499Y-62225473D01*
X50272961Y-62227458D01*
X50270435Y-62229459D01*
X50267922Y-62231475D01*
X50265422Y-62233507D01*
X50262934Y-62235554D01*
X50260458Y-62237617D01*
X50257996Y-62239695D01*
X50255546Y-62241789D01*
X50253110Y-62243898D01*
X50250686Y-62246022D01*
X50248277Y-62248160D01*
X50245879Y-62250314D01*
X50241656Y-62254176D01*
D10*
X66005327Y-49605329D02*
G75*
G02*
X52375000Y-63235657I-14780327J1149999D01*
G01*
X37225000Y-49605329D02*
X36444660Y-49605329D01*
X37225002Y-47305329D02*
G75*
G02*
X37225000Y-49605331I-2J-1150001D01*
G01*
X50075000Y-63235656D02*
X50075000Y-62635212D01*
X50616991Y-34793852D02*
G75*
G02*
X51833008Y-34793852I608009J-13661594D01*
G01*
D11*
X50228922Y-34644301D02*
X50233528Y-34648803D01*
X50238190Y-34653247D01*
X50242907Y-34657634D01*
X50247678Y-34661961D01*
X50252502Y-34666229D01*
X50257379Y-34670437D01*
X50262308Y-34674584D01*
X50267288Y-34678670D01*
X50272319Y-34682694D01*
X50277400Y-34686655D01*
X50282529Y-34690552D01*
X50287707Y-34694386D01*
X50292932Y-34698156D01*
X50298203Y-34701860D01*
X50303520Y-34705499D01*
X50308882Y-34709071D01*
X50311580Y-34710833D01*
X50314288Y-34712577D01*
X50317008Y-34714305D01*
X50319738Y-34716016D01*
X50322478Y-34717709D01*
X50325230Y-34719386D01*
X50327991Y-34721046D01*
X50330763Y-34722688D01*
X50333545Y-34724314D01*
X50336337Y-34725922D01*
X50339139Y-34727512D01*
X50341950Y-34729086D01*
X50344772Y-34730641D01*
X50347603Y-34732180D01*
X50350444Y-34733700D01*
X50353294Y-34735203D01*
X50356153Y-34736688D01*
X50359022Y-34738156D01*
X50361899Y-34739605D01*
X50364786Y-34741037D01*
X50367681Y-34742451D01*
X50370585Y-34743847D01*
X50373498Y-34745224D01*
X50376420Y-34746584D01*
X50379349Y-34747926D01*
X50382288Y-34749249D01*
X50385233Y-34750554D01*
X50388188Y-34751841D01*
X50391150Y-34753109D01*
X50394121Y-34754359D01*
X50394276Y-34754424D01*
D10*
X50075000Y-34275446D02*
X50075000Y-33675000D01*
X37082864Y-60476144D02*
G75*
G02*
X37082868Y-56940612I1767766J1767764D01*
G01*
D11*
X51942774Y-62123586D02*
X51936416Y-62122549D01*
X51930046Y-62121591D01*
X51923664Y-62120713D01*
X51917271Y-62119913D01*
X51910869Y-62119193D01*
X51904459Y-62118553D01*
X51898041Y-62117992D01*
X51891616Y-62117511D01*
X51885186Y-62117109D01*
X51881969Y-62116939D01*
X51878751Y-62116788D01*
X51875532Y-62116657D01*
X51872313Y-62116547D01*
X51869093Y-62116456D01*
X51865872Y-62116385D01*
X51862651Y-62116334D01*
X51859429Y-62116303D01*
X51856208Y-62116293D01*
X51852986Y-62116302D01*
X51849765Y-62116331D01*
X51846543Y-62116380D01*
X51843323Y-62116450D01*
X51840102Y-62116539D01*
X51836882Y-62116648D01*
X51833663Y-62116777D01*
X51833008Y-62116806D01*
X52208343Y-34656482D02*
X52213045Y-34652080D01*
X52217693Y-34647621D01*
X52222284Y-34643103D01*
X52226820Y-34638529D01*
X52231298Y-34633899D01*
X52235719Y-34629214D01*
X52240081Y-34624474D01*
X52244384Y-34619680D01*
X52248628Y-34614833D01*
X52252811Y-34609934D01*
X52256933Y-34604982D01*
X52260993Y-34599980D01*
X52264991Y-34594928D01*
X52268926Y-34589826D01*
X52272798Y-34584676D01*
X52276605Y-34579478D01*
X52278485Y-34576862D01*
X52280348Y-34574233D01*
X52282195Y-34571593D01*
X52284025Y-34568942D01*
X52285839Y-34566280D01*
X52287637Y-34563606D01*
X52289417Y-34560921D01*
X52291182Y-34558225D01*
X52292929Y-34555518D01*
X52294659Y-34552800D01*
X52296373Y-34550072D01*
X52298070Y-34547333D01*
X52299749Y-34544583D01*
X52301412Y-34541823D01*
X52303057Y-34539053D01*
X52304685Y-34536273D01*
X52306296Y-34533482D01*
X52307890Y-34530682D01*
X52309466Y-34527872D01*
X52311024Y-34525051D01*
X52312565Y-34522222D01*
X52314089Y-34519382D01*
X52315595Y-34516534D01*
X52317083Y-34513676D01*
X52318553Y-34510809D01*
X52320006Y-34507932D01*
X52321440Y-34505048D01*
X52322857Y-34502153D01*
X52324256Y-34499251D01*
X52325637Y-34496339D01*
X52325708Y-34496187D01*
X50507225Y-34787072D02*
X50513583Y-34788109D01*
X50519953Y-34789067D01*
X50526335Y-34789945D01*
X50532728Y-34790745D01*
X50539130Y-34791465D01*
X50545540Y-34792105D01*
X50551958Y-34792666D01*
X50558383Y-34793147D01*
X50564813Y-34793549D01*
X50568030Y-34793719D01*
X50571248Y-34793870D01*
X50574467Y-34794001D01*
X50577686Y-34794111D01*
X50580906Y-34794202D01*
X50584127Y-34794273D01*
X50587348Y-34794324D01*
X50590570Y-34794355D01*
X50593791Y-34794365D01*
X50597013Y-34794356D01*
X50600234Y-34794327D01*
X50603456Y-34794278D01*
X50606676Y-34794208D01*
X50609897Y-34794119D01*
X50613117Y-34794010D01*
X50616336Y-34793881D01*
X50616991Y-34793852D01*
D10*
X52375000Y-33675002D02*
G75*
G02*
X58490655Y-35532820I-1150200J-14781098D01*
G01*
X37082864Y-60476144D02*
X39204173Y-62597454D01*
M02*
