M48
; DRILL file KiCad 10.0.5 date 2026-09-21T17:49:56
; FORMAT={-:-/ absolute / metric / decimal}
; #@! TF.CreationDate,2026-09-21T17:49:56-07:00
; #@! TF.GenerationSoftware,Kicad,Pcbnew,10.0.5
; #@! TF.FileFunction,Plated,1,2,PTH
FMAT,2
METRIC
; #@! TA.AperFunction,Plated,PTH,ViaDrill
T1C0.300
; #@! TA.AperFunction,Plated,PTH,ComponentDrill
T2C0.900
; #@! TA.AperFunction,Plated,PTH,ComponentDrill
T3C1.000
; #@! TA.AperFunction,Plated,PTH,ComponentDrill
T4C1.200
%
G90
G05
T1
X33.047Y-41.092
X33.406Y-37.57
X33.54Y-40.3
X37.575Y-41.65
X38.5Y-41.175
X42.05Y-53.05
X42.17Y-47.98
X43.06Y-40.475
X43.268Y-43.698
X44.55Y-52.825
X44.7Y-48.01
X44.725Y-58.4
X45.475Y-59.025
X45.525Y-58.2
X46.125Y-59.675
X51.53Y-37.81
X51.53Y-40.72
X54.35Y-59.775
X55.325Y-58.225
X57.95Y-39.675
X58.35Y-55.275
X59.225Y-56.525
X60.06Y-43.75
X61.725Y-56.175
X62.525Y-42.15
X62.925Y-45.35
T2
X41.075Y-45.205
X41.075Y-51.705
X45.575Y-45.205
X45.575Y-51.705
T3
X48.725Y-57.155
X51.225Y-57.155
X53.725Y-57.155
X59.925Y-45.955
X59.925Y-48.455
X59.925Y-50.955
T4
X46.225Y-42.13
X46.225Y-54.78
X56.225Y-42.13
X56.225Y-54.78
M30
