0
SECTION
2
HEADER
9
$INSUNITS
70
4
9
$ACADVER
1
AC1014
9
$HANDSEED
5
FFFF
0
ENDSEC
0
SECTION
2
TABLES
0
TABLE
2
VPORT
5
8
100
AcDbSymbolTable
0
ENDTAB
0
TABLE
2
LTYPE
5
5
100
AcDbSymbolTable
0
LTYPE
5
14
100
AcDbSymbolTableRecord
100
AcDbLinetypeTableRecord
2
BYBLOCK
70
0
0
LTYPE
5
15
100
AcDbSymbolTableRecord
100
AcDbLinetypeTableRecord
2
BYLAYER
70
0
0
LTYPE
5
16
100
AcDbSymbolTableRecord
100
AcDbLinetypeTableRecord
2
DASHED
70
0
3
Dashed __ __ __ __ __ __ __ __ __ __ __ __ __ _
72
65
73
2
40
0.75
49
0.5
74
0
49
-0.25
74
0
0
ENDTAB
0
TABLE
2
LAYER
5
2
100
AcDbSymbolTable
70
2
0
LAYER
5
50
100
AcDbSymbolTableRecord
100
AcDbLayerTableRecord
2
0
70
0
62
7
6
CONTINUOUS
0
ENDTAB
0
TABLE
2
STYLE
5
3
100
AcDbSymbolTable
70
1
0
STYLE
5
11
100
AcDbSymbolTableRecord
100
AcDbTextStyleTableRecord
2
STANDARD
70
0
0
ENDTAB
0
TABLE
2
VIEW
5
6
100
AcDbSymbolTable
70
0
0
ENDTAB
0
TABLE
2
UCS
5
7
100
AcDbSymbolTable
70
0
0
ENDTAB
0
TABLE
2
APPID
5
9
100
AcDbSymbolTable
70
2
0
APPID
5
12
100
AcDbSymbolTableRecord
100
AcDbRegAppTableRecord
2
ACAD
70
0
0
ENDTAB
0
TABLE
2
DIMSTYLE
5
A
100
AcDbSymbolTable
70
1
0
ENDTAB
0
TABLE
2
BLOCK_RECORD
5
1
100
AcDbSymbolTable
70
1
0
BLOCK_RECORD
5
1F
100
AcDbSymbolTableRecord
100
AcDbBlockTableRecord
2
*MODEL_SPACE
0
BLOCK_RECORD
5
1B
100
AcDbSymbolTableRecord
100
AcDbBlockTableRecord
2
*PAPER_SPACE
0
ENDTAB
0
ENDSEC
0
SECTION
2
BLOCKS
0
BLOCK
5
20
100
AcDbEntity
100
AcDbBlockBegin
2
*MODEL_SPACE
0
ENDBLK
5
21
100
AcDbEntity
100
AcDbBlockEnd
0
BLOCK
5
1C
100
AcDbEntity
100
AcDbBlockBegin
2
*PAPER_SPACE
0
ENDBLK
5
1D
100
AcDbEntity
100
AcDbBlockEnd
0
ENDSEC
0
SECTION
2
ENTITIES
0
CIRCLE
5
100
100
AcDbEntity
8
0
100
AcDbCircle
10
0
20
2.5
30
0
40
0.59999999999999987
210
0
220
-0
230
1
0
LWPOLYLINE
5
101
100
AcDbEntity
8
0
100
AcDbPolyline
90
48
70
1
43
0.0
10
-0.45881478899556782
20
-0.39716224002436207
42
0.12838116242513103
10
-0.49071793084308546
20
-0.27495847386301997
42
-1.7065984779162469
10
0.49071793084308563
20
-0.27495847386301975
42
0.12838116242513062
10
0.45881478899556793
20
-0.39716224002436157
10
0.45881478899556799
20
-0.57345958076790915
42
0.65110261937303993
10
0.563356304237146
20
-0.61970632115241808
42
0.35864573045064291
10
0.71641566265060286
20
0.43376819651617798
42
-0.13695472403612105
10
0.6875
20
0.53735463150511686
10
0.68750000000000022
20
1.0624264680437892
42
-0.62127903370525572
10
0.88843457943925219
20
1.1617186613189094
42
-0.38357213884688829
10
1.2489963503649639
20
-0.7608642236135178
42
0.13764516842325705
10
1.2125000000000006
20
-0.89092648406027208
10
1.2125000000000004
20
-1.2654050734843778
42
0.66776314840850148
10
1.2978146853146852
20
-1.3008010195958288
42
0.42530358513404348
10
1.2509409011053807
20
1.3459394904458604
42
-0.68148293233318324
10
1.3360389215887403
20
1.5625000000000004
10
1.8432308591166782
20
1.5625000000000004
42
-0.23109810062213904
10
1.9417993542566077
20
1.5143716577540125
42
-0.44169268756191721
10
1.3277073732718903
20
-2.0739092026796815
42
0.25569997735025835
10
1.212500000000001
20
-2.2844583603121356
10
1.2125000000000006
20
-2.4852062288671348
42
0.55963061470865572
10
1.2851457399103137
20
-2.5297839190710287
42
0.424973527928385
10
2.4810685934737706
20
1.3768459915611824
42
-0.57170731706594702
10
2.5903667693977255
20
1.5625000000000009
10
2.777560755411121
20
1.5625000000000009
42
0.5848250818027777
10
2.8843900152346262
20
1.7524038461538471
42
0.56254395046301187
10
-2.8843900152346267
20
1.7524038461538471
42
0.58482508180277237
10
-2.7775607554111219
20
1.5625
10
-2.5903667693977246
20
1.5625000000000009
42
-0.57170731706594757
10
-2.4810685934737693
20
1.3768459915611824
42
0.42497352792838505
10
-1.2851457399103137
20
-2.5297839190710296
42
0.55963061470865338
10
-1.2125000000000004
20
-2.4852062288671344
10
-1.2125000000000001
20
-2.2844583603121342
42
0.25569997735025807
10
-1.3277073732718887
20
-2.0739092026796806
42
-0.44169268756191732
10
-1.9417993542566059
20
1.5143716577540112
42
-0.23109810062213762
10
-1.8432308591166771
20
1.5625
10
-1.3360389215887394
20
1.5625000000000004
42
-0.68148293233318324
10
-1.25094090110538
20
1.3459394904458608
42
0.42530358513404343
10
-1.2978146853146861
20
-1.3008010195958284
42
0.66776314840850359
10
-1.2125000000000008
20
-1.2654050734843763
10
-1.2125000000000001
20
-0.89092648406027419
42
0.13764516842325705
10
-1.2489963503649624
20
-0.76086422361351869
42
-0.38357213884688857
10
-0.88843457943925208
20
1.1617186613189092
42
-0.62127903370525484
10
-0.6875
20
1.0624264680437887
10
-0.6875
20
0.53735463150511653
42
-0.13695472403612013
10
-0.71641566265060252
20
0.43376819651617832
42
0.35864573045064296
10
-0.56335630423714633
20
-0.61970632115241797
42
0.6511026193730427
10
-0.45881478899556788
20
-0.57345958076790926
0
CIRCLE
5
102
100
AcDbEntity
8
0
100
AcDbCircle
10
0
20
0
30
0
40
0.25
210
0
220
0
230
1
0
ARC
5
103
100
AcDbEntity
8
0
100
AcDbCircle
10
0
20
0
30
0
40
3.375
210
0
220
0
230
1
100
AcDbArc
50
-203.81884139345624
51
23.81884139345615
0
ENDSEC
0
SECTION
2
OBJECTS
0
DICTIONARY
5
C
100
AcDbDictionary
3
ACAD_GROUP
350
D
3
ACAD_MLINESTYLE
350
17
0
DICTIONARY
5
D
100
AcDbDictionary
0
DICTIONARY
5
1A
330
C
100
AcDbDictionary
0
DICTIONARY
5
17
100
AcDbDictionary
0
ENDSEC
0
EOF
