0
SECTION
2
HEADER
9
$INSUNITS
70
4
9
$ACADVER
1
AC1014
9
$HANDSEED
5
FFFF
0
ENDSEC
0
SECTION
2
TABLES
0
TABLE
2
VPORT
5
8
100
AcDbSymbolTable
0
ENDTAB
0
TABLE
2
LTYPE
5
5
100
AcDbSymbolTable
0
LTYPE
5
14
100
AcDbSymbolTableRecord
100
AcDbLinetypeTableRecord
2
BYBLOCK
70
0
0
LTYPE
5
15
100
AcDbSymbolTableRecord
100
AcDbLinetypeTableRecord
2
BYLAYER
70
0
0
LTYPE
5
16
100
AcDbSymbolTableRecord
100
AcDbLinetypeTableRecord
2
DASHED
70
0
3
Dashed __ __ __ __ __ __ __ __ __ __ __ __ __ _
72
65
73
2
40
0.75
49
0.5
74
0
49
-0.25
74
0
0
ENDTAB
0
TABLE
2
LAYER
5
2
100
AcDbSymbolTable
70
2
0
LAYER
5
50
100
AcDbSymbolTableRecord
100
AcDbLayerTableRecord
2
0
70
0
62
7
6
CONTINUOUS
0
ENDTAB
0
TABLE
2
STYLE
5
3
100
AcDbSymbolTable
70
1
0
STYLE
5
11
100
AcDbSymbolTableRecord
100
AcDbTextStyleTableRecord
2
STANDARD
70
0
0
ENDTAB
0
TABLE
2
VIEW
5
6
100
AcDbSymbolTable
70
0
0
ENDTAB
0
TABLE
2
UCS
5
7
100
AcDbSymbolTable
70
0
0
ENDTAB
0
TABLE
2
APPID
5
9
100
AcDbSymbolTable
70
2
0
APPID
5
12
100
AcDbSymbolTableRecord
100
AcDbRegAppTableRecord
2
ACAD
70
0
0
ENDTAB
0
TABLE
2
DIMSTYLE
5
A
100
AcDbSymbolTable
70
1
0
ENDTAB
0
TABLE
2
BLOCK_RECORD
5
1
100
AcDbSymbolTable
70
1
0
BLOCK_RECORD
5
1F
100
AcDbSymbolTableRecord
100
AcDbBlockTableRecord
2
*MODEL_SPACE
0
BLOCK_RECORD
5
1B
100
AcDbSymbolTableRecord
100
AcDbBlockTableRecord
2
*PAPER_SPACE
0
ENDTAB
0
ENDSEC
0
SECTION
2
BLOCKS
0
BLOCK
5
20
100
AcDbEntity
100
AcDbBlockBegin
2
*MODEL_SPACE
0
ENDBLK
5
21
100
AcDbEntity
100
AcDbBlockEnd
0
BLOCK
5
1C
100
AcDbEntity
100
AcDbBlockBegin
2
*PAPER_SPACE
0
ENDBLK
5
1D
100
AcDbEntity
100
AcDbBlockEnd
0
ENDSEC
0
SECTION
2
ENTITIES
0
CIRCLE
5
100
100
AcDbEntity
8
0
100
AcDbCircle
10
0
20
-2.5
30
0
40
0.59999999999999987
210
0
220
-0
230
1
0
LWPOLYLINE
5
101
100
AcDbEntity
8
0
100
AcDbPolyline
90
48
70
1
43
0.0
10
0.35685594699655288
20
-0.25310093459565375
42
0.15546173194265317
10
0.33381478899556793
20
-0.32541548733726922
10
0.33381478899556805
20
-0.70063916490512634
42
0.59623115031946483
10
0.52729460824863761
20
-0.80521217459245853
42
0.39181159982739533
10
0.84342783505154673
20
0.4637194594366949
42
-0.12633887875563113
10
0.81250000000000044
20
0.58416607227739514
10
0.81250000000000033
20
0.95590271471525756
42
-0.64977720858382837
10
0.89599514563106875
20
0.99302515023818017
42
-0.37357710127634935
10
1.1088675213675214
20
-0.74787637351119041
42
0.14944082853818808
10
1.0875000000000001
20
-0.81777136168980613
10
1.0875000000000004
20
-1.3806701271484092
42
0.64500885411496867
10
1.2949829931972789
20
-1.4745932650496631
42
0.42600185238802052
10
1.4215208811967592
20
1.3530279503105604
42
-0.65929008497277453
10
1.4577379737113261
20
1.4375000000000007
10
1.7811513130556889
20
1.4375000000000009
42
-0.23829876810202114
10
1.8817813307424496
20
1.3866525423728826
42
-0.44988128450381654
10
1.1509517766497466
20
-2.034506391689836
42
0.27030050417969576
10
1.0875000000000004
20
-2.1433035249352819
10
1.0875000000000008
20
-2.5653947064730609
42
0.55030675009283847
10
1.2659140969162996
20
-2.6784076891370736
42
0.4251313087301028
10
2.6295675052594714
20
1.3644709543568476
42
-0.56246315302687988
10
2.6739483914241866
20
1.4375000000000007
10
2.9731874730665742
20
1.4375000000000016
42
-0.29707350636285906
10
3.0875408374152884
20
1.3629807692307681
42
-1.5345483731956504
10
-3.087540837415288
20
1.3629807692307694
42
-0.29707350636285101
10
-2.9731874730665742
20
1.4375000000000007
10
-2.6739483914241884
20
1.4375
42
-0.56246315302685146
10
-2.6295675052594718
20
1.3644709543568487
42
0.42513130873010302
10
-1.2659140969162985
20
-2.6784076891370736
42
0.55030675009283769
10
-1.0875000000000004
20
-2.5653947064730613
10
-1.0875000000000004
20
-2.1433035249352805
42
0.27030050417969453
10
-1.1509517766497459
20
-2.0345063916898356
42
-0.44988128450381648
10
-1.8817813307424496
20
1.3866525423728819
42
-0.2382987681020283
10
-1.7811513130556875
20
1.4375000000000007
10
-1.4577379737113256
20
1.4375000000000013
42
-0.65929008497277919
10
-1.4215208811967575
20
1.35302795031056
42
0.42600185238802046
10
-1.2949829931972789
20
-1.4745932650496607
42
0.64500885411497211
10
-1.0875000000000001
20
-1.3806701271484085
10
-1.0874999999999999
20
-0.81777136168980624
42
0.14944082853819027
10
-1.1088675213675216
20
-0.74787637351118985
42
-0.3735771012763493
10
-0.8959951456310683
20
0.99302515023818017
42
-0.64977720858382937
10
-0.81250000000000022
20
0.95590271471525756
10
-0.81250000000000044
20
0.58416607227739548
42
-0.12633887875563227
10
-0.84342783505154661
20
0.46371945943669568
42
0.39181159982739544
10
-0.52729460824863783
20
-0.80521217459245842
42
0.5962311503194655
10
-0.33381478899556782
20
-0.70063916490512623
10
-0.33381478899556793
20
-0.32541548733726944
42
0.15546173194265317
10
-0.35685594699655271
20
-0.25310093459565414
42
-1.9352372866643721
0
ARC
5
102
100
AcDbEntity
8
0
100
AcDbCircle
10
0
20
0
30
0
40
3.3750000000000009
210
0
220
-0
230
1
100
AcDbArc
50
31.280667152048458
51
148.71933284795153
0
CIRCLE
5
103
100
AcDbEntity
8
0
100
AcDbCircle
10
0
20
0
30
0
40
0.25
210
0
220
0
230
1
0
ENDSEC
0
SECTION
2
OBJECTS
0
DICTIONARY
5
C
100
AcDbDictionary
3
ACAD_GROUP
350
D
3
ACAD_MLINESTYLE
350
17
0
DICTIONARY
5
D
100
AcDbDictionary
0
DICTIONARY
5
1A
330
C
100
AcDbDictionary
0
DICTIONARY
5
17
100
AcDbDictionary
0
ENDSEC
0
EOF
