0
SECTION
2
HEADER
9
$INSUNITS
70
4
9
$ACADVER
1
AC1014
9
$HANDSEED
5
FFFF
0
ENDSEC
0
SECTION
2
TABLES
0
TABLE
2
VPORT
5
8
100
AcDbSymbolTable
0
ENDTAB
0
TABLE
2
LTYPE
5
5
100
AcDbSymbolTable
0
LTYPE
5
14
100
AcDbSymbolTableRecord
100
AcDbLinetypeTableRecord
2
BYBLOCK
70
0
0
LTYPE
5
15
100
AcDbSymbolTableRecord
100
AcDbLinetypeTableRecord
2
BYLAYER
70
0
0
LTYPE
5
16
100
AcDbSymbolTableRecord
100
AcDbLinetypeTableRecord
2
DASHED
70
0
3
Dashed __ __ __ __ __ __ __ __ __ __ __ __ __ _
72
65
73
2
40
0.75
49
0.5
74
0
49
-0.25
74
0
0
ENDTAB
0
TABLE
2
LAYER
5
2
100
AcDbSymbolTable
70
2
0
LAYER
5
50
100
AcDbSymbolTableRecord
100
AcDbLayerTableRecord
2
0
70
0
62
7
6
CONTINUOUS
0
ENDTAB
0
TABLE
2
STYLE
5
3
100
AcDbSymbolTable
70
1
0
STYLE
5
11
100
AcDbSymbolTableRecord
100
AcDbTextStyleTableRecord
2
STANDARD
70
0
0
ENDTAB
0
TABLE
2
VIEW
5
6
100
AcDbSymbolTable
70
0
0
ENDTAB
0
TABLE
2
UCS
5
7
100
AcDbSymbolTable
70
0
0
ENDTAB
0
TABLE
2
APPID
5
9
100
AcDbSymbolTable
70
2
0
APPID
5
12
100
AcDbSymbolTableRecord
100
AcDbRegAppTableRecord
2
ACAD
70
0
0
ENDTAB
0
TABLE
2
DIMSTYLE
5
A
100
AcDbSymbolTable
70
1
0
ENDTAB
0
TABLE
2
BLOCK_RECORD
5
1
100
AcDbSymbolTable
70
1
0
BLOCK_RECORD
5
1F
100
AcDbSymbolTableRecord
100
AcDbBlockTableRecord
2
*MODEL_SPACE
0
BLOCK_RECORD
5
1B
100
AcDbSymbolTableRecord
100
AcDbBlockTableRecord
2
*PAPER_SPACE
0
ENDTAB
0
ENDSEC
0
SECTION
2
BLOCKS
0
BLOCK
5
20
100
AcDbEntity
100
AcDbBlockBegin
2
*MODEL_SPACE
0
ENDBLK
5
21
100
AcDbEntity
100
AcDbBlockEnd
0
BLOCK
5
1C
100
AcDbEntity
100
AcDbBlockBegin
2
*PAPER_SPACE
0
ENDBLK
5
1D
100
AcDbEntity
100
AcDbBlockEnd
0
ENDSEC
0
SECTION
2
ENTITIES
0
LWPOLYLINE
5
100
100
AcDbEntity
8
0
100
AcDbPolyline
90
36
70
1
43
0.0
10
1.8799189592133689
20
-1.4513888888888888
42
0.62286834462179241
10
1.7809758560968758
20
-1.2499999999999998
10
1.577428683015496
20
-1.25
42
-0.60977951407826125
10
1.4756590905628837
20
-1.0524193548387093
42
0.324134224949647
10
1.4599729906412389
20
1.0740740740740726
42
0.23850473117967
10
1.3592851981832219
20
1.125
10
1.0588171466310892
20
1.1249999999999996
42
0.66880662633025023
10
1.0146997655214607
20
1.0182291666666665
42
-0.47945547451563025
10
0.77526272242457461
20
-1.2105263157894739
42
-0.14337582869057064
10
0.64043442287247498
20
-1.25
10
0.49999999999999989
20
-1.25
42
-0.41421356237309503
10
0.37499999999999989
20
-1.125
10
0.37499999999999983
20
-0.79303609627809468
42
-0.25754274367713104
10
0.43333333333333313
20
-0.68729795010768202
42
0.5580804297167743
10
0.41979166666666667
20
0.69565164169807159
42
0.58381984246966878
10
0.32499999999999996
20
0.64213997695206593
10
0.32500000000000001
20
0.33750000000000013
42
0.16227766016838027
10
0.34999999999999987
20
0.26250000000000018
42
-2.0000000000000004
10
-0.34999999999999987
20
0.26250000000000012
42
0.16227766016837999
10
-0.32500000000000001
20
0.33750000000000013
10
-0.32499999999999996
20
0.64213997695206615
42
0.58381984246966823
10
-0.41979166666666667
20
0.69565164169807159
42
0.5580804297167743
10
-0.43333333333333346
20
-0.68729795010768202
42
-0.25754274367713165
10
-0.37499999999999989
20
-0.79303609627809479
10
-0.37499999999999989
20
-1.125
42
-0.41421356237309503
10
-0.49999999999999989
20
-1.2499999999999998
10
-0.6404344228724751
20
-1.25
42
-0.14337582869057108
10
-0.77526272242457506
20
-1.2105263157894739
42
-0.47945547451563031
10
-1.0146997655214598
20
1.0182291666666667
42
0.66880662633024734
10
-1.0588171466310889
20
1.125
10
-1.3592851981832217
20
1.1249999999999998
42
0.23850473117966958
10
-1.459972990641238
20
1.0740740740740737
42
0.32413422494964705
10
-1.4756590905628839
20
-1.0524193548387084
42
-0.60977951407826381
10
-1.5774286830154958
20
-1.2499999999999998
10
-1.7809758560968758
20
-1.25
42
0.62286834462179463
10
-1.8799189592133692
20
-1.4513888888888891
42
0.49130368444051753
0
CIRCLE
5
101
100
AcDbEntity
8
0
100
AcDbCircle
10
0
20
0
30
0
40
0.25
210
0
220
0
230
1
0
ARC
5
102
100
AcDbEntity
8
0
100
AcDbCircle
10
0
20
0
30
0
40
2.375
210
-0
220
0
230
1
100
AcDbArc
50
-26.387799961243022
51
206.38779996124296
0
ENDSEC
0
SECTION
2
OBJECTS
0
DICTIONARY
5
C
100
AcDbDictionary
3
ACAD_GROUP
350
D
3
ACAD_MLINESTYLE
350
17
0
DICTIONARY
5
D
100
AcDbDictionary
0
DICTIONARY
5
1A
330
C
100
AcDbDictionary
0
DICTIONARY
5
17
100
AcDbDictionary
0
ENDSEC
0
EOF
