0
SECTION
2
HEADER
9
$INSUNITS
70
4
9
$ACADVER
1
AC1014
9
$HANDSEED
5
FFFF
0
ENDSEC
0
SECTION
2
TABLES
0
TABLE
2
VPORT
5
8
100
AcDbSymbolTable
0
ENDTAB
0
TABLE
2
LTYPE
5
5
100
AcDbSymbolTable
0
LTYPE
5
14
100
AcDbSymbolTableRecord
100
AcDbLinetypeTableRecord
2
BYBLOCK
70
0
0
LTYPE
5
15
100
AcDbSymbolTableRecord
100
AcDbLinetypeTableRecord
2
BYLAYER
70
0
0
LTYPE
5
16
100
AcDbSymbolTableRecord
100
AcDbLinetypeTableRecord
2
DASHED
70
0
3
Dashed __ __ __ __ __ __ __ __ __ __ __ __ __ _
72
65
73
2
40
0.75
49
0.5
74
0
49
-0.25
74
0
0
ENDTAB
0
TABLE
2
LAYER
5
2
100
AcDbSymbolTable
70
2
0
LAYER
5
50
100
AcDbSymbolTableRecord
100
AcDbLayerTableRecord
2
0
70
0
62
7
6
CONTINUOUS
0
ENDTAB
0
TABLE
2
STYLE
5
3
100
AcDbSymbolTable
70
1
0
STYLE
5
11
100
AcDbSymbolTableRecord
100
AcDbTextStyleTableRecord
2
STANDARD
70
0
0
ENDTAB
0
TABLE
2
VIEW
5
6
100
AcDbSymbolTable
70
0
0
ENDTAB
0
TABLE
2
UCS
5
7
100
AcDbSymbolTable
70
0
0
ENDTAB
0
TABLE
2
APPID
5
9
100
AcDbSymbolTable
70
2
0
APPID
5
12
100
AcDbSymbolTableRecord
100
AcDbRegAppTableRecord
2
ACAD
70
0
0
ENDTAB
0
TABLE
2
DIMSTYLE
5
A
100
AcDbSymbolTable
70
1
0
ENDTAB
0
TABLE
2
BLOCK_RECORD
5
1
100
AcDbSymbolTable
70
1
0
BLOCK_RECORD
5
1F
100
AcDbSymbolTableRecord
100
AcDbBlockTableRecord
2
*MODEL_SPACE
0
BLOCK_RECORD
5
1B
100
AcDbSymbolTableRecord
100
AcDbBlockTableRecord
2
*PAPER_SPACE
0
ENDTAB
0
ENDSEC
0
SECTION
2
BLOCKS
0
BLOCK
5
20
100
AcDbEntity
100
AcDbBlockBegin
2
*MODEL_SPACE
0
ENDBLK
5
21
100
AcDbEntity
100
AcDbBlockEnd
0
BLOCK
5
1C
100
AcDbEntity
100
AcDbBlockBegin
2
*PAPER_SPACE
0
ENDBLK
5
1D
100
AcDbEntity
100
AcDbBlockEnd
0
ENDSEC
0
SECTION
2
ENTITIES
0
LWPOLYLINE
5
100
100
AcDbEntity
8
0
100
AcDbPolyline
90
36
70
1
43
0.0
10
2.0155644370746377
20
-1.125
42
0.28491504644131538
10
2.1275402391343397
20
-1.0555555555555554
42
1.6124515496597089
10
-2.1275402391343401
20
-1.0555555555555556
42
0.28491504644131849
10
-2.0155644370746377
20
-1.1250000000000002
10
-1.6944302139657454
20
-1.125
42
0.58957380768465273
10
-1.6414792697793161
20
-1.0292968749999998
42
-0.31748987643962706
10
-1.5191091682239846
20
1.2025862068965518
42
-0.22918435262054759
10
-1.42110212511276
20
1.2499999999999998
10
-0.8948638164547722
20
1.2500000000000002
42
-0.71000683994977132
10
-0.81704957154566171
20
1.0271739130434787
42
0.50371173707556549
10
-0.74454656610607239
20
-1.0808823529411775
42
0.15195139245637476
10
-0.60272817256205813
20
-1.1250000000000007
10
-0.56249999999999978
20
-1.1250000000000007
42
0.41421356237309342
10
-0.49999999999999989
20
-1.0625000000000007
10
-0.49999999999999989
20
-0.8592329428042198
42
0.23993164795342645
10
-0.55147058823529393
20
-0.75814671423901747
42
-0.57962109529213091
10
-0.37499999999999983
20
0.85923294280421991
42
-0.54057493862641603
10
-0.20000000000000001
20
0.74466855043032387
10
-0.20000000000000004
20
0.26780356607035694
42
-0.20151275462399473
10
-0.21875000000000006
20
0.22316963839196408
42
2.4487754897918346
10
0.21875000000000019
20
0.22316963839196399
42
-0.20151275462399543
10
0.20000000000000004
20
0.26780356607035694
10
0.20000000000000001
20
0.74466855043032409
42
-0.54057493862641659
10
0.37500000000000022
20
0.85923294280422025
42
-0.57962109529213091
10
0.55147058823529416
20
-0.75814671423901792
42
0.23993164795342695
10
0.50000000000000011
20
-0.85923294280422002
10
0.50000000000000011
20
-1.0625000000000002
42
0.41421356237309437
10
0.5625
20
-1.1250000000000002
10
0.60272817256205913
20
-1.1250000000000002
42
0.15195139245637476
10
0.74454656610607362
20
-1.0808823529411768
42
0.50371173707556538
10
0.81704957154566071
20
1.0271739130434789
42
-0.71000683994977032
10
0.8948638164547712
20
1.2500000000000004
10
1.4211021251127589
20
1.2500000000000009
42
-0.22918435262054818
10
1.5191091682239835
20
1.202586206896552
42
-0.31748987643962728
10
1.6414792697793155
20
-1.029296875
42
0.58957380768465151
10
1.694430213965745
20
-1.125
0
ARC
5
101
100
AcDbEntity
8
0
100
AcDbCircle
10
0
20
0
30
0
40
2.375
210
0
220
0
230
1
100
AcDbArc
50
217.66988696432961
51
322.33011303567037
0
CIRCLE
5
102
100
AcDbEntity
8
0
100
AcDbCircle
10
0
20
0
30
0
40
0.25
210
0
220
-0
230
1
0
ENDSEC
0
SECTION
2
OBJECTS
0
DICTIONARY
5
C
100
AcDbDictionary
3
ACAD_GROUP
350
D
3
ACAD_MLINESTYLE
350
17
0
DICTIONARY
5
D
100
AcDbDictionary
0
DICTIONARY
5
1A
330
C
100
AcDbDictionary
0
DICTIONARY
5
17
100
AcDbDictionary
0
ENDSEC
0
EOF
