0
SECTION
2
HEADER
9
$INSUNITS
70
4
9
$ACADVER
1
AC1014
9
$HANDSEED
5
FFFF
0
ENDSEC
0
SECTION
2
TABLES
0
TABLE
2
VPORT
5
8
100
AcDbSymbolTable
0
ENDTAB
0
TABLE
2
LTYPE
5
5
100
AcDbSymbolTable
0
LTYPE
5
14
100
AcDbSymbolTableRecord
100
AcDbLinetypeTableRecord
2
BYBLOCK
70
0
0
LTYPE
5
15
100
AcDbSymbolTableRecord
100
AcDbLinetypeTableRecord
2
BYLAYER
70
0
0
LTYPE
5
16
100
AcDbSymbolTableRecord
100
AcDbLinetypeTableRecord
2
DASHED
70
0
3
Dashed __ __ __ __ __ __ __ __ __ __ __ __ __ _
72
65
73
2
40
0.75
49
0.5
74
0
49
-0.25
74
0
0
ENDTAB
0
TABLE
2
LAYER
5
2
100
AcDbSymbolTable
70
2
0
LAYER
5
50
100
AcDbSymbolTableRecord
100
AcDbLayerTableRecord
2
0
70
0
62
7
6
CONTINUOUS
0
ENDTAB
0
TABLE
2
STYLE
5
3
100
AcDbSymbolTable
70
1
0
STYLE
5
11
100
AcDbSymbolTableRecord
100
AcDbTextStyleTableRecord
2
STANDARD
70
0
0
ENDTAB
0
TABLE
2
VIEW
5
6
100
AcDbSymbolTable
70
0
0
ENDTAB
0
TABLE
2
UCS
5
7
100
AcDbSymbolTable
70
0
0
ENDTAB
0
TABLE
2
APPID
5
9
100
AcDbSymbolTable
70
2
0
APPID
5
12
100
AcDbSymbolTableRecord
100
AcDbRegAppTableRecord
2
ACAD
70
0
0
ENDTAB
0
TABLE
2
DIMSTYLE
5
A
100
AcDbSymbolTable
70
1
0
ENDTAB
0
TABLE
2
BLOCK_RECORD
5
1
100
AcDbSymbolTable
70
1
0
BLOCK_RECORD
5
1F
100
AcDbSymbolTableRecord
100
AcDbBlockTableRecord
2
*MODEL_SPACE
0
BLOCK_RECORD
5
1B
100
AcDbSymbolTableRecord
100
AcDbBlockTableRecord
2
*PAPER_SPACE
0
ENDTAB
0
ENDSEC
0
SECTION
2
BLOCKS
0
BLOCK
5
20
100
AcDbEntity
100
AcDbBlockBegin
2
*MODEL_SPACE
0
ENDBLK
5
21
100
AcDbEntity
100
AcDbBlockEnd
0
BLOCK
5
1C
100
AcDbEntity
100
AcDbBlockBegin
2
*PAPER_SPACE
0
ENDBLK
5
1D
100
AcDbEntity
100
AcDbBlockEnd
0
ENDSEC
0
SECTION
2
ENTITIES
0
CIRCLE
5
100
100
AcDbEntity
8
0
100
AcDbCircle
10
-0.10323442085268919
20
-6.4662237859179816
30
0
40
1.2
210
0
220
-0
230
1
0
LINE
5
101
100
AcDbEntity
8
0
100
AcDbLine
10
42.375962981000015
20
-8.2459400000000187
30
3.0531133177191805e-15
11
41.875962981000015
21
-8.2459400000000187
31
3.0184188481996443e-15
0
LINE
5
102
100
AcDbEntity
8
0
100
AcDbLine
10
42.375962981000015
20
1.2540599999999795
30
3.0531133177191805e-15
11
41.875962981000015
21
1.2540599999999795
31
3.0184188481996443e-15
0
LINE
5
103
100
AcDbEntity
8
0
100
AcDbLine
10
3.2749630000000121
20
-13.637938974000017
30
5.5511151231257827e-16
11
3.2749630000000121
21
-14.137938974000017
31
5.5511151231257827e-16
0
LINE
5
104
100
AcDbEntity
8
0
100
AcDbLine
10
-10.72503699999999
20
-13.637938974000017
30
-2.7755575615628914e-16
11
-10.72503699999999
21
-14.137938974000017
31
-2.7755575615628914e-16
0
LINE
5
105
100
AcDbEntity
8
0
100
AcDbLine
10
-18.869036999999992
20
-20.787938981000021
30
-1.6653345369377348e-15
11
-18.869036999999992
21
-20.287938981000021
31
-1.6653345369377338e-15
0
LINE
5
106
100
AcDbEntity
8
0
100
AcDbLine
10
-28.369036999999992
20
-20.787938981000018
30
-2.2204460492503131e-15
11
-28.369036999999992
21
-20.287938981000018
31
-2.2204460492503123e-15
0
LINE
5
107
100
AcDbEntity
8
0
100
AcDbLine
10
-9.1472469999999895
20
13.949729979999981
30
-5.5511151231257827e-16
11
-9.1472469999999895
21
13.449729979999979
31
-5.5511151231257827e-16
0
LINE
5
108
100
AcDbEntity
8
0
100
AcDbLine
10
-16.647246999999989
20
13.949729979999981
30
-1.1102230246251565e-15
11
-16.647246999999989
21
13.449729979999979
31
-1.1102230246251565e-15
0
LINE
5
109
100
AcDbEntity
8
0
100
AcDbLine
10
9.1758830000000113
20
13.949729979999981
30
5.5511151231257827e-16
11
9.1758830000000113
21
13.449729979999979
31
5.5511151231257827e-16
0
LINE
5
110
100
AcDbEntity
8
0
100
AcDbLine
10
16.675883000000013
20
13.949729979999981
30
1.1102230246251565e-15
11
16.675883000000013
21
13.449729979999979
31
1.1102230246251565e-15
0
ENDSEC
0
SECTION
2
OBJECTS
0
DICTIONARY
5
C
100
AcDbDictionary
3
ACAD_GROUP
350
D
3
ACAD_MLINESTYLE
350
17
0
DICTIONARY
5
D
100
AcDbDictionary
0
DICTIONARY
5
1A
330
C
100
AcDbDictionary
0
DICTIONARY
5
17
100
AcDbDictionary
0
ENDSEC
0
EOF
