0
SECTION
2
HEADER
9
$INSUNITS
70
4
9
$ACADVER
1
AC1014
9
$HANDSEED
5
FFFF
0
ENDSEC
0
SECTION
2
TABLES
0
TABLE
2
VPORT
5
8
100
AcDbSymbolTable
0
ENDTAB
0
TABLE
2
LTYPE
5
5
100
AcDbSymbolTable
0
LTYPE
5
14
100
AcDbSymbolTableRecord
100
AcDbLinetypeTableRecord
2
BYBLOCK
70
0
0
LTYPE
5
15
100
AcDbSymbolTableRecord
100
AcDbLinetypeTableRecord
2
BYLAYER
70
0
0
LTYPE
5
16
100
AcDbSymbolTableRecord
100
AcDbLinetypeTableRecord
2
DASHED
70
0
3
Dashed __ __ __ __ __ __ __ __ __ __ __ __ __ _
72
65
73
2
40
0.75
49
0.5
74
0
49
-0.25
74
0
0
ENDTAB
0
TABLE
2
LAYER
5
2
100
AcDbSymbolTable
70
2
0
LAYER
5
50
100
AcDbSymbolTableRecord
100
AcDbLayerTableRecord
2
0
70
0
62
7
6
CONTINUOUS
0
ENDTAB
0
TABLE
2
STYLE
5
3
100
AcDbSymbolTable
70
1
0
STYLE
5
11
100
AcDbSymbolTableRecord
100
AcDbTextStyleTableRecord
2
STANDARD
70
0
0
ENDTAB
0
TABLE
2
VIEW
5
6
100
AcDbSymbolTable
70
0
0
ENDTAB
0
TABLE
2
UCS
5
7
100
AcDbSymbolTable
70
0
0
ENDTAB
0
TABLE
2
APPID
5
9
100
AcDbSymbolTable
70
2
0
APPID
5
12
100
AcDbSymbolTableRecord
100
AcDbRegAppTableRecord
2
ACAD
70
0
0
ENDTAB
0
TABLE
2
DIMSTYLE
5
A
100
AcDbSymbolTable
70
1
0
ENDTAB
0
TABLE
2
BLOCK_RECORD
5
1
100
AcDbSymbolTable
70
1
0
BLOCK_RECORD
5
1F
100
AcDbSymbolTableRecord
100
AcDbBlockTableRecord
2
*MODEL_SPACE
0
BLOCK_RECORD
5
1B
100
AcDbSymbolTableRecord
100
AcDbBlockTableRecord
2
*PAPER_SPACE
0
ENDTAB
0
ENDSEC
0
SECTION
2
BLOCKS
0
BLOCK
5
20
100
AcDbEntity
100
AcDbBlockBegin
2
*MODEL_SPACE
0
ENDBLK
5
21
100
AcDbEntity
100
AcDbBlockEnd
0
BLOCK
5
1C
100
AcDbEntity
100
AcDbBlockBegin
2
*PAPER_SPACE
0
ENDBLK
5
1D
100
AcDbEntity
100
AcDbBlockEnd
0
ENDSEC
0
SECTION
2
ENTITIES
0
CIRCLE
5
100
100
AcDbEntity
8
0
100
AcDbCircle
10
-0.10323442085268919
20
-6.4662237859179816
30
0
40
1.2
210
0
220
-0
230
1
0
LINE
5
101
100
AcDbEntity
8
0
100
AcDbLine
10
-12.544700095248732
20
-15.437115597082602
30
0
11
-12.544700095248727
21
-3.5303369047512634
31
0
0
LINE
5
102
100
AcDbEntity
8
0
100
AcDbLine
10
-12.544700095248727
20
-3.5303369047512634
30
0
11
-11.355373904751252
21
-3.5303369047512629
31
0
0
LINE
5
103
100
AcDbEntity
8
0
100
AcDbLine
10
-11.355373904751252
20
-3.5303369047512629
30
0
11
-11.35537390475125
21
-17.833364720557103
31
0
0
ARC
5
104
100
AcDbEntity
8
0
100
AcDbCircle
10
-20.025466646780671
20
-1.25
30
0
40
2.8696631004507553
210
0
220
0
230
1
100
AcDbArc
50
-138.78922948834645
51
138.7892294883444
0
LINE
5
105
100
AcDbEntity
8
0
100
AcDbLine
10
-18.917768026259189
20
3.8523214578057061
30
0
11
-20.107094221958679
21
3.8523214578057061
31
0
0
LINE
5
106
100
AcDbEntity
8
0
100
AcDbLine
10
-20.107094221958679
20
3.8523214578057061
30
0
11
-20.107094221958679
21
7.5769307114465292
31
0
0
LINE
5
107
100
AcDbEntity
8
0
100
AcDbLine
10
-18.917768026259186
20
9.1162036004507581
30
0
11
-18.917768026259189
21
3.8523214578057061
31
0
0
LINE
5
108
100
AcDbEntity
8
0
100
AcDbLine
10
-19.880779379723673
20
-9.3079592455846569
30
0
11
-13.398123485526341
21
-15.790615139782014
31
0
0
LINE
5
109
100
AcDbEntity
8
0
100
AcDbLine
10
-22.797497051531145
20
-3.3711783797713792
30
0
11
-22.797497051531934
21
-8.1218117631737989
31
0
0
LINE
5
110
100
AcDbEntity
8
0
100
AcDbLine
10
26.654991037263542
20
-4.7022080261589263
30
0
11
7.9233642860167341
21
-4.7022080261589201
31
0
0
LINE
5
111
100
AcDbEntity
8
0
100
AcDbLine
10
7.9233642860167333
20
-3.5477919738410986
30
0
11
17.410360847131152
21
-3.547791973841103
31
0
0
LINE
5
112
100
AcDbEntity
8
0
100
AcDbLine
10
17.410360847131152
20
-3.547791973841103
30
0
11
17.410360847131152
21
10.822060999999994
31
0
0
LINE
5
113
100
AcDbEntity
8
0
100
AcDbLine
10
18.332231973740814
20
7.7731304049281427
30
0
11
18.332231973740814
21
-3.530336899549261
31
0
0
LINE
5
114
100
AcDbEntity
8
0
100
AcDbLine
10
36.95631203045933
20
4.7237230952487197
30
0
11
48.645638220956819
21
4.7237230952487197
31
0
0
LINE
5
115
100
AcDbEntity
8
0
100
AcDbLine
10
38.054590544142762
20
2.4247131284067045
30
0
11
38.054590544142762
21
-9.3180560347239165
31
0
0
LINE
5
116
100
AcDbEntity
8
0
100
AcDbLine
10
47.547359707273387
20
2.4247131284067041
30
0
11
38.054590544142762
21
2.4247131284067045
31
0
0
LINE
5
117
100
AcDbEntity
8
0
100
AcDbLine
10
47.547359707273387
20
-9.3180560347239165
30
0
11
47.547359707273387
21
2.4247131284067041
31
0
0
LINE
5
118
100
AcDbEntity
8
0
100
AcDbLine
10
48.645638220956819
20
4.7237230952487197
30
0
11
48.645638220956819
21
-6.4728879588732147
31
0
0
LINE
5
119
100
AcDbEntity
8
0
100
AcDbLine
10
36.956312030459316
20
-9.5641105581943044
30
0
11
36.95631203045933
21
4.7237230952487197
31
0
0
LINE
5
120
100
AcDbEntity
8
0
100
AcDbLine
10
38.330846919474332
20
-14.795936378112138
30
0
11
26.654991037263542
21
-4.7022080261589263
31
0
0
ARC
5
121
100
AcDbEntity
8
0
100
AcDbCircle
10
29.068696977491555
20
0.19547504690171272
30
0
40
4.0509131004507557
210
0
220
0
230
1
100
AcDbArc
50
130.84327676047795
51
224.22769921407811
0
LINE
5
122
100
AcDbEntity
8
0
100
AcDbLine
10
26.419431437167368
20
3.2599960607396552
30
0
11
35.570273352621356
21
11.170860447734016
31
0
0
ARC
5
123
100
AcDbEntity
8
0
100
AcDbCircle
10
40.968696977491547
20
10.482975046901705
30
0
40
4.0334580261589119
210
0
220
-0
230
1
100
AcDbArc
50
49.156723239522286
51
136.20858946303957
0
LINE
5
124
100
AcDbEntity
8
0
100
AcDbLine
10
43.606547035508775
20
13.534291274401609
30
0
11
56.462361511835255
21
2.4204936756446438
31
0
0
ARC
5
125
100
AcDbEntity
8
0
100
AcDbCircle
10
53.824511453818012
20
-0.63082255185526104
30
0
40
4.033458026158919
210
0
220
0
230
1
100
AcDbArc
50
-49.156723239522378
51
49.156723239522137
0
LINE
5
126
100
AcDbEntity
8
0
100
AcDbLine
10
56.46236151183524
20
-3.6821387793551743
30
0
11
43.606547035508797
21
-14.795936378112149
31
0
0
ARC
5
127
100
AcDbEntity
8
0
100
AcDbCircle
10
40.968696977491561
20
-11.744620150612249
30
0
40
4.0334580261589013
210
0
220
0
230
1
100
AcDbArc
50
229.15672323952214
51
310.84327676047781
0
LINE
5
128
100
AcDbEntity
8
0
100
AcDbLine
10
30.414509344991739
20
13.274269026158905
30
0
11
38.057088904596384
21
13.274269026158905
31
0
0
ARC
5
129
100
AcDbEntity
8
0
100
AcDbCircle
10
26.139265436645012
20
14.159559888179984
30
0
40
3.6725668686010855
210
0
220
0
230
1
100
AcDbArc
50
203.79474154494022
51
336.20525845505983
0
ARC
5
130
100
AcDbEntity
8
0
100
AcDbCircle
10
26.139265436645012
20
14.159559888179984
30
0
40
4.8444379952107512
210
0
220
0
230
1
100
AcDbArc
50
246.4355084541767
51
334.87186212711072
0
LINE
5
131
100
AcDbEntity
8
0
100
AcDbLine
10
35.223437160904027
20
12.10239789954924
30
0
11
30.525227593569575
21
12.10239789954924
31
0
0
ARC
5
132
100
AcDbEntity
8
0
100
AcDbCircle
10
20.980085353221327
20
10.071335999999981
30
0
40
2.5946631004507514
210
0
220
0
230
1
100
AcDbArc
50
227.34320709191542
51
344.43849329696354
0
LINE
5
133
100
AcDbEntity
8
0
100
AcDbLine
10
19.862568873290062
20
13.274269026158905
30
0
11
21.864021528298281
21
13.274269026158905
31
0
0
ARC
5
134
100
AcDbEntity
8
0
100
AcDbCircle
10
19.862568873290062
20
10.822060999999994
30
0
40
2.4522080261589108
210
0
220
-0
230
1
100
AcDbArc
50
90
51
180
0
LINE
5
135
100
AcDbEntity
8
0
100
AcDbLine
10
36.154396551783172
20
10.103692165862048
30
0
11
30.140086417476684
21
4.9043463249647328
31
0
0
LINE
5
136
100
AcDbEntity
8
0
100
AcDbLine
10
30.140086411685477
20
-4.5133962330312354
30
0
11
36.306598827586093
21
-9.8443203068613165
31
0
0
LINE
5
137
100
AcDbEntity
8
0
100
AcDbLine
10
51.79730753290265
20
4.904346328944694
30
0
11
45.63079512415424
21
10.235270396591689
31
0
0
LINE
5
138
100
AcDbEntity
8
0
100
AcDbLine
10
49.224447319485563
20
-6.7376230861797382
30
0
11
51.797307538693872
21
-4.5133962370111878
31
0
0
LINE
5
139
100
AcDbEntity
8
0
100
AcDbLine
10
43.190942018742845
20
-9.3180560347237691
30
0
11
47.547359707273387
21
-9.3180560347239165
31
0
0
LINE
5
140
100
AcDbEntity
8
0
100
AcDbLine
10
-17.698383871593261
20
-16.488178540333706
30
0
11
-29.338700095248736
21
-16.488178540333706
31
0
0
LINE
5
141
100
AcDbEntity
8
0
100
AcDbLine
10
-29.338700090046714
20
-25.980947703464331
30
0
11
-17.698383871593265
21
-25.980947703464331
31
0
0
LINE
5
142
100
AcDbEntity
8
0
100
AcDbLine
10
-17.698383871593265
20
-25.980947703464331
30
0
11
-17.698383871593283
21
-23.368634323637462
31
0
0
LINE
5
143
100
AcDbEntity
8
0
100
AcDbLine
10
-17.698383871593283
20
-18.976140406827394
30
0
11
-17.698383871593261
21
-16.488178540333706
31
0
0
LINE
5
144
100
AcDbEntity
8
0
100
AcDbLine
10
-29.491183511938818
20
-17.570582767607739
30
0
11
-29.491183511938821
21
-19.098839602971559
31
0
0
LINE
5
145
100
AcDbEntity
8
0
100
AcDbLine
10
-29.491183511938821
20
-23.245935127493262
30
0
11
-29.491183511938814
21
-24.774191950668087
31
0
0
LINE
5
146
100
AcDbEntity
8
0
100
AcDbLine
10
-10.880779379723688
20
-24.036815484880204
30
0
11
-19.88077937972367
21
-33.036815484880208
31
0
0
ARC
5
147
100
AcDbEntity
8
0
100
AcDbCircle
10
-13.74520749937146
20
-21.172387365232439
30
0
40
4.05091309524874
210
-0
220
0
230
1
100
AcDbArc
50
-44.99999999999995
51
44.999999999999936
0
LINE
5
148
100
AcDbEntity
8
0
100
AcDbLine
10
-34.609635619019201
20
-18.307959245584637
30
0
11
-25.609635619019222
21
-9.3079592455846498
31
0
0
ARC
5
149
100
AcDbEntity
8
0
100
AcDbCircle
10
-31.745207499371428
20
-21.17238736523241
30
0
40
4.0509130952487427
210
0
220
0
230
1
100
AcDbArc
50
135
51
224.99999999999977
0
LINE
5
150
100
AcDbEntity
8
0
100
AcDbLine
10
-25.609635619019219
20
-33.036815484880208
30
0
11
-34.609635619019208
21
-24.036815484880172
31
0
0
ARC
5
151
100
AcDbEntity
8
0
100
AcDbCircle
10
-22.745207499371443
20
-30.172387365232439
30
0
40
4.05091309524874
210
0
220
0
230
1
100
AcDbArc
50
224.99999999999991
51
315.00000000000006
0
LWPOLYLINE
5
152
100
AcDbEntity
8
0
100
AcDbPolyline
90
12
70
1
43
0.0
10
-0.76156641344178155
20
-30.220835902467265
10
-3.7615664134417841
20
-30.220835902467265
10
-3.7615664134417837
20
-31.720835902467265
10
-0.76156641344178155
20
-31.720835902467265
10
-0.76156641344178155
20
-34.720835902467265
10
0.73843358655821034
20
-34.720835902467265
10
0.7384335865582109
20
-31.720835902467268
10
3.7384335865582181
20
-31.720835902467272
10
3.7384335865582181
20
-30.220835902467272
10
0.73843358655821145
20
-30.220835902467268
10
0.7384335865582109
20
-27.720912064658123
10
-0.76156641344178155
20
-27.720912064658116
0
ENDSEC
0
SECTION
2
OBJECTS
0
DICTIONARY
5
C
100
AcDbDictionary
3
ACAD_GROUP
350
D
3
ACAD_MLINESTYLE
350
17
0
DICTIONARY
5
D
100
AcDbDictionary
0
DICTIONARY
5
1A
330
C
100
AcDbDictionary
0
DICTIONARY
5
17
100
AcDbDictionary
0
ENDSEC
0
EOF
