0
SECTION
2
HEADER
9
$INSUNITS
70
4
9
$ACADVER
1
AC1014
9
$HANDSEED
5
FFFF
0
ENDSEC
0
SECTION
2
TABLES
0
TABLE
2
VPORT
5
8
100
AcDbSymbolTable
0
ENDTAB
0
TABLE
2
LTYPE
5
5
100
AcDbSymbolTable
0
LTYPE
5
14
100
AcDbSymbolTableRecord
100
AcDbLinetypeTableRecord
2
BYBLOCK
70
0
0
LTYPE
5
15
100
AcDbSymbolTableRecord
100
AcDbLinetypeTableRecord
2
BYLAYER
70
0
0
LTYPE
5
16
100
AcDbSymbolTableRecord
100
AcDbLinetypeTableRecord
2
DASHED
70
0
3
Dashed __ __ __ __ __ __ __ __ __ __ __ __ __ _
72
65
73
2
40
0.75
49
0.5
74
0
49
-0.25
74
0
0
ENDTAB
0
TABLE
2
LAYER
5
2
100
AcDbSymbolTable
70
2
0
LAYER
5
50
100
AcDbSymbolTableRecord
100
AcDbLayerTableRecord
2
0
70
0
62
7
6
CONTINUOUS
0
ENDTAB
0
TABLE
2
STYLE
5
3
100
AcDbSymbolTable
70
1
0
STYLE
5
11
100
AcDbSymbolTableRecord
100
AcDbTextStyleTableRecord
2
STANDARD
70
0
0
ENDTAB
0
TABLE
2
VIEW
5
6
100
AcDbSymbolTable
70
0
0
ENDTAB
0
TABLE
2
UCS
5
7
100
AcDbSymbolTable
70
0
0
ENDTAB
0
TABLE
2
APPID
5
9
100
AcDbSymbolTable
70
2
0
APPID
5
12
100
AcDbSymbolTableRecord
100
AcDbRegAppTableRecord
2
ACAD
70
0
0
ENDTAB
0
TABLE
2
DIMSTYLE
5
A
100
AcDbSymbolTable
70
1
0
ENDTAB
0
TABLE
2
BLOCK_RECORD
5
1
100
AcDbSymbolTable
70
1
0
BLOCK_RECORD
5
1F
100
AcDbSymbolTableRecord
100
AcDbBlockTableRecord
2
*MODEL_SPACE
0
BLOCK_RECORD
5
1B
100
AcDbSymbolTableRecord
100
AcDbBlockTableRecord
2
*PAPER_SPACE
0
ENDTAB
0
ENDSEC
0
SECTION
2
BLOCKS
0
BLOCK
5
20
100
AcDbEntity
100
AcDbBlockBegin
2
*MODEL_SPACE
0
ENDBLK
5
21
100
AcDbEntity
100
AcDbBlockEnd
0
BLOCK
5
1C
100
AcDbEntity
100
AcDbBlockBegin
2
*PAPER_SPACE
0
ENDBLK
5
1D
100
AcDbEntity
100
AcDbBlockEnd
0
ENDSEC
0
SECTION
2
ENTITIES
0
LWPOLYLINE
5
100
100
AcDbEntity
8
0
100
AcDbPolyline
90
4
70
1
43
0.0
10
21.55546664678068
20
3.250000000000004
10
21.555466646780673
20
-0.74999999999999201
42
-0.99999999999999989
10
18.495466646780681
20
-0.75000000000000067
10
18.495466646780677
20
3.250000000000004
42
-0.99999999999999989
0
ARC
5
101
100
AcDbEntity
8
0
100
AcDbCircle
10
-48.739810281302951
20
28.952294871712535
30
0
40
2.0000000000000013
210
0
220
0
230
1
100
AcDbArc
50
116.23966382764324
51
180
0
LINE
5
102
100
AcDbEntity
8
0
100
AcDbLine
10
-50.739810281302951
20
28.952294871712535
30
0
11
-50.739810281302951
21
12.705085644691696
31
0
0
ARC
5
103
100
AcDbEntity
8
0
100
AcDbCircle
10
-52.739810281302951
20
12.705085644691696
30
0
40
2.0000000000000004
210
0
220
0
230
1
100
AcDbArc
50
-49.156723239521916
51
0
0
LINE
5
104
100
AcDbEntity
8
0
100
AcDbLine
10
-51.431825896237072
20
11.192083051031052
30
0
11
-57.208123063375339
21
6.1984984201961808
31
0
0
LINE
5
105
100
AcDbEntity
8
0
100
AcDbLine
10
-57.208123063375339
20
6.1984984201961808
30
0
11
-57.208123063375339
21
6.1350072605651684
31
0
0
ARC
5
106
100
AcDbEntity
8
0
100
AcDbCircle
10
-52.868696977491553
20
-0.19547504690171813
30
0
40
7.6749999999999936
210
0
220
0
230
1
100
AcDbArc
50
124.42990144632179
51
224.94336456032531
0
ARC
5
107
100
AcDbEntity
8
0
100
AcDbCircle
10
-54.762076403562226
20
-2.0851150520170458
30
0
40
5
210
0
220
0
230
1
100
AcDbArc
50
224.94336456032531
51
270
0
LINE
5
108
100
AcDbEntity
8
0
100
AcDbLine
10
-54.762076403562226
20
-7.0851150520170458
30
0
11
-53.311298900396395
21
-7.0851150520170458
31
0
0
ARC
5
109
100
AcDbEntity
8
0
100
AcDbCircle
10
-53.311298900396395
20
-9.0851150520170449
30
0
40
1.9999999999999978
210
0
220
-0
230
1
100
AcDbArc
50
43.715066000959425
51
90
0
ARC
5
110
100
AcDbEntity
8
0
100
AcDbCircle
10
-50.420157090499494
20
-6.3208250825916075
30
0
40
1.9999999999999998
210
0
220
0
230
1
100
AcDbArc
50
223.71506600095915
51
238.94290851838898
0
LINE
5
111
100
AcDbEntity
8
0
100
AcDbLine
10
-51.451940950513411
20
-8.0341324298631918
30
0
11
-48.364813182086749
21
-9.8932551437976546
31
0
0
ARC
5
112
100
AcDbEntity
8
0
100
AcDbCircle
10
-49.396597042100659
20
-11.606562491069239
30
0
40
2.0000000000000018
210
0
220
0
230
1
100
AcDbArc
50
0
51
58.942908518389189
0
LINE
5
113
100
AcDbEntity
8
0
100
AcDbLine
10
-47.396597042100659
20
-11.606562491069239
30
0
11
-47.396597042100659
21
-14.367894072897428
31
0
0
SPLINE
5
114
100
AcDbEntity
8
0
100
AcDbSpline
70
0
71
3
72
10
73
6
74
0
42
0.000000001
43
0.0000000001
44
0.0000000001
40
0
40
0
40
0
40
0
40
0.031135388250600401
40
0.031135388250600401
40
0.06227453177936583
40
0.06227453177936583
40
0.06227453177936583
40
0.06227453177936583
10
-47.396597042100659
20
-14.367894072897428
30
0
10
-47.396597042100659
20
-14.47167870039943
30
0
10
-47.380444222247782
20
-14.574834327400879
30
0
10
-47.316996374469518
20
-14.772482262521095
30
0
10
-47.270081948686467
20
-14.865776244949796
30
0
10
-47.209667075419325
20
-14.95017968031301
30
0
0
ARC
5
115
100
AcDbEntity
8
0
100
AcDbCircle
10
-40.968696977490666
20
-10.482975046900984
30
0
40
7.675000000001142
210
0
220
0
230
1
100
AcDbArc
50
215.59459095822936
51
222.81041498529808
0
SPLINE
5
116
100
AcDbEntity
8
0
100
AcDbSpline
70
0
71
3
72
10
73
6
74
0
42
0.000000001
43
0.0000000001
44
0.0000000001
40
0
40
0
40
0
40
0
40
0.030153948587324481
40
0.030153948587324481
40
0.060301731985219049
40
0.060301731985219049
40
0.060301731985219049
40
0.060301731985219049
10
-46.599125686149904
20
-15.698710618871964
30
0
10
-46.53081948754739
20
-15.772447712381402
30
0
10
-46.451793500463992
20
-15.835478356363931
30
0
10
-46.277648605894619
20
-15.93586158094878
30
0
10
-46.183519925642187
20
-15.972650481862054
30
0
10
-46.08549835766059
20
-15.994796808616245
30
0
0
LINE
5
117
100
AcDbEntity
8
0
100
AcDbLine
10
-46.08549835766059
20
-15.994796808616247
30
0
11
-45.876829485399483
21
-16.041942035158538
31
0
0
LINE
5
118
100
AcDbEntity
8
0
100
AcDbLine
10
-45.876829485399483
20
-16.041942035158538
30
0
11
-36.093242509313292
21
-16.041942035158534
31
0
0
SPLINE
5
119
100
AcDbEntity
8
0
100
AcDbSpline
70
0
71
3
72
12
73
8
74
0
42
0.000000001
43
0.0000000001
44
0.0000000001
40
0
40
0
40
0
40
0
40
0.039072109521602956
40
0.039072109521602956
40
0.060582448047718326
40
0.060582448047718326
40
0.082094303141613589
40
0.082094303141613589
40
0.082094303141613589
40
0.082094303141613589
10
-36.093242509313292
20
-16.041942035158534
30
0
10
-35.96300214424128
20
-16.041942035158534
30
0
10
-35.834006833570633
20
-16.016501247365767
30
0
10
-35.64718164386462
20
-15.939839223769187
30
0
10
-35.583965540263542
20
-15.905566952887906
30
0
10
-35.465945621423288
20
-15.824098234305609
30
0
10
-35.411483127625417
20
-15.777136080946912
30
0
10
-35.362509821973717
20
-15.724758195536042
30
0
0
ARC
5
120
100
AcDbEntity
8
0
100
AcDbCircle
10
-40.968696977490666
20
-10.482975046900984
30
0
40
7.6749999999998462
210
0
220
0
230
1
100
AcDbArc
50
316.92395102769211
51
344.72227429955751
0
ARC
5
121
100
AcDbEntity
8
0
100
AcDbCircle
10
-31.63561216617807
20
-13.03231866925425
30
0
40
1.9999999999999996
210
0
220
-0
230
1
100
AcDbArc
50
90
51
164.72227429956442
0
LINE
5
122
100
AcDbEntity
8
0
100
AcDbLine
10
-31.63561216617807
20
-11.03231866925425
30
0
11
-29.516749550700286
21
-11.03231866925425
31
0
0
ARC
5
123
100
AcDbEntity
8
0
100
AcDbCircle
10
-29.516749550700286
20
-6.0323186692542494
30
0
40
5.0000000000000009
210
0
220
0
230
1
100
AcDbArc
50
270
51
292.56688268966224
0
ARC
5
124
100
AcDbEntity
8
0
100
AcDbCircle
10
-26.139218948419
20
-14.159552270193354
30
0
40
3.8011157800349471
210
0
220
0
230
1
100
AcDbArc
50
0
51
112.56688268966219
0
LINE
5
125
100
AcDbEntity
8
0
100
AcDbLine
10
-22.338103168384052
20
-14.159552270193354
30
0
11
-22.338103168384052
21
-22.050718999999983
31
0
0
ARC
5
126
100
AcDbEntity
8
0
100
AcDbCircle
10
-20.338103168384052
20
-22.050718999999983
30
0
40
2.0000000000000018
210
0
220
0
230
1
100
AcDbArc
50
180
51
270
0
LINE
5
127
100
AcDbEntity
8
0
100
AcDbLine
10
-20.338103168384052
20
-24.050718999999987
30
0
11
-9.0515990000000119
21
-24.050718999999987
31
2.2204460492503131e-15
0
ARC
5
128
100
AcDbEntity
8
0
100
AcDbCircle
10
-9.0515990000000119
20
-22.050718999999983
30
0
40
2.0000000000000018
210
0
220
1.1102230246251556e-15
230
1
100
AcDbArc
50
-90
51
0
0
LINE
5
129
100
AcDbEntity
8
0
100
AcDbLine
10
-7.0515990000000128
20
-22.050718999999805
30
0
11
-7.0515990000004027
21
-18.865560999999985
31
0
0
ARC
5
130
100
AcDbEntity
8
0
100
AcDbCircle
10
-6.076563448584011
20
-18.865552550729983
30
0
40
0.97503555145300014
210
0
220
0
230
1
100
AcDbArc
50
-0.70161251923213652
51
180.00049650222576
0
LINE
5
131
100
AcDbEntity
8
0
100
AcDbLine
10
-5.1016010000002794
20
-18.877491999999979
30
0
11
-5.1015999999997872
21
-22.050720999999985
31
0
0
ARC
5
132
100
AcDbEntity
8
0
100
AcDbCircle
10
-3.1015999999997872
20
-22.050718999999624
30
0
40
2.0000000000010001
210
0
220
0
230
1
100
AcDbArc
50
180.00005729196508
51
269.99999999999835
0
LINE
5
133
100
AcDbEntity
8
0
100
AcDbLine
10
-3.1015999999998463
20
-24.050718999999624
30
0
11
3.1015989999999287
21
-24.050718999999813
31
0
0
ARC
5
134
100
AcDbEntity
8
0
100
AcDbCircle
10
3.1015989999999882
20
-22.050718999999805
30
0
40
2.0000000000000062
210
0
220
0
230
1
100
AcDbArc
50
269.99999999999829
51
360
0
LINE
5
135
100
AcDbEntity
8
0
100
AcDbLine
10
5.1015989999999878
20
-22.050718999999866
30
0
11
5.1015989999994451
21
-18.865560999999985
31
0
0
ARC
5
136
100
AcDbEntity
8
0
100
AcDbCircle
10
6.0766370450299885
20
-18.865553044319988
30
-1.1102230246251565e-15
40
0.97503804506296121
210
0
220
0
230
1
100
AcDbArc
50
-0.71580335732475997
51
180.00046749623198
0
LINE
5
137
100
AcDbEntity
8
0
100
AcDbLine
10
7.0515989999999888
20
-18.877733999999982
30
-1.1102230246251565e-15
11
7.0515979999997676
21
-22.041942999999989
31
0
0
LINE
5
138
100
AcDbEntity
8
0
100
AcDbLine
10
7.0515979999997676
20
-22.041942999999989
30
0
11
7.0515979999997676
21
-22.050718999999926
31
0
0
ARC
5
139
100
AcDbEntity
8
0
100
AcDbCircle
10
9.0515979999997676
20
-22.050718999999983
30
0
40
1.9999999999999996
210
0
220
0
230
1
100
AcDbArc
50
180
51
269.99999999999835
0
LINE
5
140
100
AcDbEntity
8
0
100
AcDbLine
10
9.0515979999997107
20
-24.050718999999987
30
0
11
20.338103168383995
21
-24.05071900000031
31
0
0
ARC
5
141
100
AcDbEntity
8
0
100
AcDbCircle
10
20.338103168384052
20
-22.050719000000306
30
0
40
2.0000000000000018
210
0
220
0
230
1
100
AcDbArc
50
-90.000000000001634
51
0
0
LINE
5
142
100
AcDbEntity
8
0
100
AcDbLine
10
22.338103168384052
20
-22.050719000000306
30
0
11
22.338103168384052
21
-14.159552270193354
31
0
0
ARC
5
143
100
AcDbEntity
8
0
100
AcDbCircle
10
26.139218948419
20
-14.159552270193354
30
0
40
3.801115780034948
210
0
220
0
230
1
100
AcDbArc
50
137.7035507991005
51
180
0
LINE
5
144
100
AcDbEntity
8
0
100
AcDbLine
10
23.327636987709198
20
-11.601528022567482
30
0
11
25.811530927414598
21
-8.8714243499092973
31
0
0
ARC
5
145
100
AcDbEntity
8
0
100
AcDbCircle
10
23.592512520653031
20
-6.852524325031057
30
0
40
3
210
0
220
0
230
1
100
AcDbArc
50
-42.296449200899552
51
22.120181596973687
0
ARC
5
146
100
AcDbEntity
8
0
100
AcDbCircle
10
41.19403754523713
20
0.30193699703503318
30
0
40
16
210
0
220
0
230
1
100
AcDbArc
50
97.056844430268896
51
202.12018159697371
0
LINE
5
147
100
AcDbEntity
8
0
100
AcDbLine
10
39.228373375567465
20
16.180733058830047
30
0
11
43.55580875790104
21
16.716433917038088
31
0
0
ARC
5
148
100
AcDbEntity
8
0
100
AcDbCircle
10
42.941538704879257
20
21.678557686349027
30
0
40
4.9999999999999991
210
0
220
0
230
1
100
AcDbArc
50
277.05684443026905
51
309.45373670245647
0
ARC
5
149
100
AcDbEntity
8
0
100
AcDbCircle
10
41.19403754523713
20
23.801936997035046
30
0
40
7.7500000000000018
210
0
220
0
230
1
100
AcDbArc
50
309.45373670245647
51
360
0
LINE
5
150
100
AcDbEntity
8
0
100
AcDbLine
10
48.944037545237137
20
23.801936997035043
30
0
11
48.944037545237116
21
24.440162499160252
31
0
0
ARC
5
151
100
AcDbEntity
8
0
100
AcDbCircle
10
41.19403754523713
20
24.440162499160252
30
0
40
7.7499999999999858
210
0
220
0
230
1
100
AcDbArc
50
0
51
44.999999999999922
0
LINE
5
152
100
AcDbEntity
8
0
100
AcDbLine
10
46.674115099432868
20
29.920240053355975
30
0
11
43.241629839652695
21
33.352725325711205
31
0
0
ARC
5
153
100
AcDbEntity
8
0
100
AcDbCircle
10
39.706095927243666
20
29.817191426254759
30
0
40
4.9999999999999991
210
0
220
-0
230
1
100
AcDbArc
50
44.999999895047203
51
67.536947148840341
0
LINE
5
154
100
AcDbEntity
8
0
100
AcDbLine
10
41.616533875651896
20
34.437821994183963
30
0
11
37.22246446986145
21
36.254586355097551
31
-3.3306690738754696e-15
0
ARC
5
155
100
AcDbEntity
8
0
100
AcDbCircle
10
35.31202652145322
20
31.633955787168347
30
0
40
5.0000000000000009
210
2.5452146369285612e-16
220
6.155916533762174e-16
230
1
100
AcDbArc
50
67.536947148840341
51
90
0
LINE
5
156
100
AcDbEntity
8
0
100
AcDbLine
10
35.31202652145322
20
36.633955787168347
30
0
11
-6.7946726731948726
21
36.633955787168368
31
0
0
ARC
5
157
100
AcDbEntity
8
0
100
AcDbCircle
10
-6.7946726731948708
20
34.633955787168368
30
0
40
2.0000000000000018
210
0
220
0
230
1
100
AcDbArc
50
90.000000000000057
51
180
0
LINE
5
158
100
AcDbEntity
8
0
100
AcDbLine
10
-8.7946726731948708
20
34.633955787168368
30
0
11
-8.7946726731948726
21
32.092659065468901
31
0
0
ARC
5
159
100
AcDbEntity
8
0
100
AcDbCircle
10
-7.444672673194872
20
32.092659065468901
30
0
40
1.3500000000000001
210
0
220
0
230
1
100
AcDbArc
50
180
51
219.44094464040873
0
ARC
5
160
100
AcDbEntity
8
0
100
AcDbCircle
10
-20.843726958144678
20
21.070506631936397
30
0
40
15.999999999972868
210
0
220
-0
230
1
100
AcDbArc
50
21.704686971605671
51
39.440944640408695
0
ARC
5
161
100
AcDbEntity
8
0
100
AcDbCircle
10
-4.7238016714807429
20
27.486931551736433
30
0
40
1.3499999999999945
210
0
220
0
230
1
100
AcDbArc
50
201.70468697160578
51
270
0
LINE
5
162
100
AcDbEntity
8
0
100
AcDbLine
10
-4.7238016714807429
20
26.136931551736431
30
0
11
-2.0150547896946591e-13
21
26.136931551736428
31
0
0
ARC
5
163
100
AcDbEntity
8
0
100
AcDbCircle
10
-2.012969974210562e-13
20
21.999999999999993
30
0
40
4.1369315517364358
210
0
220
0
230
1
100
AcDbArc
50
-90
51
90.000000000000014
0
LINE
5
164
100
AcDbEntity
8
0
100
AcDbLine
10
-2.0155031142021248e-13
20
17.863068448263558
30
0
11
-4.102990498805168
21
17.863068448263558
31
0
0
ARC
5
165
100
AcDbEntity
8
0
100
AcDbCircle
10
-4.102990498805168
20
16.513068448263553
30
0
40
1.3500000000000023
210
0
220
-0
230
1
100
AcDbArc
50
90
51
164.77106124570102
0
ARC
5
166
100
AcDbEntity
8
0
100
AcDbCircle
10
-20.843726958144678
20
21.070506631936397
30
0
40
15.999999999972863
210
0
220
0
230
1
100
AcDbArc
50
332.99997403728361
51
344.77106124570105
0
SPLINE
5
167
100
AcDbEntity
8
0
100
AcDbSpline
70
0
71
3
72
14
73
10
74
0
42
0.000000001
43
0.0000000001
44
0.0000000001
40
0
40
0
40
0
40
0
40
0.052737003907235257
40
0.052737003907235257
40
0.10547400781447043
40
0.10547400781447043
40
0.13664577544816686
40
0.13664577544816686
40
0.16781754308186314
40
0.16781754308186314
40
0.16781754308186314
40
0.16781754308186314
10
-6.3549886870144583
20
12.255057620617231
30
0
10
-6.477222232866974
20
12.381394823955521
30
0
10
-6.5736106942650778
20
12.530399104345687
30
0
10
-6.7038466132237868
20
12.856967810943637
30
0
10
-6.7364489444150886
20
13.031410062322646
30
0
10
-6.7336671253949838
20
13.311092133312245
30
0
10
-6.7206416925527934
20
13.414527064657145
30
0
10
-6.6711246561131592
20
13.616353229375362
30
0
10
-6.6347981924969055
20
13.714071369780239
30
0
10
-6.587625862659352
20
13.806652176178511
30
0
0
SPLINE
5
168
100
AcDbEntity
8
0
100
AcDbSpline
70
0
71
3
72
29
73
25
74
0
42
0.000000001
43
0.0000000001
44
0.0000000001
40
0.16025728392051344
40
0.16025728392051344
40
0.16025728392051344
40
0.16025728392051344
40
0.18846892579587041
40
0.18846892579587041
40
0.18846892579587041
40
0.33592746637618021
40
0.33592746637618021
40
0.33592746637618021
40
0.49401097996497045
40
0.49401097996497045
40
0.49401097996497045
40
0.59281317595796434
40
0.59281317595796434
40
0.59281317595796434
40
0.69161537195095835
40
0.69161537195095835
40
0.69161537195095835
40
0.84969888553974871
40
0.84969888553974871
40
0.84969888553974871
40
0.99715742613048797
40
0.99715742613048797
40
0.99715742613048797
40
1.0253690679938832
40
1.0253690679938832
40
1.0253690679938832
40
1.0253690679938832
10
-6.3549886870144601
20
12.255057620617231
30
0
10
-6.2606527698862147
20
12.157554632700025
30
0
10
-6.1709893606295356
20
12.054983765191523
30
0
10
-6.0864329961959065
20
11.947627316815455
30
0
10
-5.6440585860941193
20
11.385969470725536
30
0
10
-5.3613482309881171
20
10.717464764495276
30
0
10
-5.2641299463204216
20
10.015604412644141
30
0
10
-5.1595720958898248
20
9.2607565983378652
30
0
10
-5.2745116202141595
20
8.4826129227388609
30
0
10
-5.5923250765831964
20
7.7906149973012804
30
0
10
-5.7904489752901895
20
7.3592256897143589
30
0
10
-6.0650168319262887
20
6.9643979142110837
30
0
10
-6.401317536172817
20
6.6280972099645554
30
0
10
-6.7376182404193017
20
6.2917965057180725
30
0
10
-7.1324460159224472
20
6.0172286490820079
30
0
10
-7.5638353235095401
20
5.8191047503749358
30
0
10
-8.2558332489472086
20
5.5012912940058589
30
0
10
-9.0339769245452555
20
5.3863517696816379
30
0
10
-9.7888247388513943
20
5.4909096201120189
30
0
10
-10.490685090753908
20
5.5881279047866528
30
0
10
-11.159189797031477
20
5.8708382599285924
30
0
10
-11.720847643142164
20
6.3132126700809383
30
0
10
-11.828204091469217
20
6.397769034482498
30
0
10
-11.930774958932695
20
6.4874324437027706
30
0
10
-12.02827794680921
20
6.5817683607907593
30
0
0
SPLINE
5
169
100
AcDbEntity
8
0
100
AcDbSpline
70
0
71
3
72
14
73
10
74
0
42
0.000000001
43
0.0000000001
44
0.0000000001
40
0
40
0
40
0
40
0
40
0.052737003907235222
40
0.052737003907235222
40
0.10547400781447049
40
0.10547400781447049
40
0.13664577544788645
40
0.13664577544788645
40
0.16781754308130245
40
0.16781754308130245
40
0.16781754308130245
40
0.16781754308130245
10
-13.579872502366602
20
6.8144055364309084
30
0
10
-13.423242490038348
20
6.894212603267567
30
0
10
-13.252521851199425
20
6.9426633467057739
30
0
10
-12.902118026184397
20
6.9713978926551237
30
0
10
-12.725784891560277
20
6.9514069772454521
30
0
10
-12.459216856486586
20
6.8667235548623182
30
0
10
-12.364150213519711
20
6.8239359361173788
30
0
10
-12.185720898958266
20
6.7174055772191519
30
0
10
-12.102953291522798
20
6.6540181172427353
30
0
10
-12.02827794680921
20
6.5817683607907593
30
0
0
ARC
5
170
100
AcDbEntity
8
0
100
AcDbCircle
10
-20.843726958144678
20
21.070506631936397
30
0
40
16
210
0
220
0
230
1
100
AcDbArc
50
157.45014355126227
51
297.000025962748
0
ARC
5
171
100
AcDbEntity
8
0
100
AcDbCircle
10
-37.467558329184548
20
27.973276405529518
30
0
40
2.0000000000000013
210
0
220
0
230
1
100
AcDbArc
50
-22.549856448737753
51
44.348995667911339
0
LINE
5
172
100
AcDbEntity
8
0
100
AcDbLine
10
-36.037367864708756
20
29.371330494369616
30
0
11
-36.424602318275333
21
29.767466114177349
31
0
0
ARC
5
173
100
AcDbEntity
8
0
100
AcDbCircle
10
-34.279316621561641
20
31.8645472474375
30
0
40
3.0000000000000018
210
0
220
0
230
1
100
AcDbArc
50
201.74445159242643
51
224.34899566791131
0
LINE
5
174
100
AcDbEntity
8
0
100
AcDbLine
10
-37.06585291921386
20
30.753144772243807
30
0
11
-37.92463247629734
21
32.906298522488733
31
0
0
ARC
5
175
100
AcDbEntity
8
0
100
AcDbCircle
10
-40.711168773949559
20
31.79489604729504
30
0
40
3.0000000000000018
210
0
220
-0
230
1
100
AcDbArc
50
21.74445159242644
51
116.23966382764338
0
LINE
5
176
100
AcDbEntity
8
0
100
AcDbLine
10
-42.037549434845673
20
34.485753595066903
30
0
11
-49.624064055233688
21
30.746199903560445
31
0
0
CIRCLE
5
177
100
AcDbEntity
8
0
100
AcDbCircle
10
-43.977777000000025
20
25.117067000000031
30
0
40
1.1000000000000001
210
0
220
0
230
1
0
CIRCLE
5
178
100
AcDbEntity
8
0
100
AcDbCircle
10
43.977777000000025
20
25.117067000000031
30
0
40
1.1000000000000001
210
0
220
0
230
1
0
CIRCLE
5
179
100
AcDbEntity
8
0
100
AcDbCircle
10
0.10323442085268919
20
6.4662237859179816
30
0
40
1.2
210
0
220
0
230
1
0
CIRCLE
5
180
100
AcDbEntity
8
0
100
AcDbCircle
10
-20.980085353221327
20
-10.071335999999981
30
0
40
1.2250000000000005
210
0
220
0
230
1
0
CIRCLE
5
181
100
AcDbEntity
8
0
100
AcDbCircle
10
24.017160146780672
20
-6.146540500000004
30
0
40
1.2250000000000005
210
0
220
0
230
1
0
CIRCLE
5
182
100
AcDbEntity
8
0
100
AcDbCircle
10
-41.872172994872599
20
-0.14236662994501992
30
0
40
1.105305740064999
210
2.4651903288156611e-32
220
8.3088106541566387e-33
230
1
0
CIRCLE
5
183
100
AcDbEntity
8
0
100
AcDbCircle
10
-45.044043398709036
20
-10.702413214889345
30
0
40
1.0000000000000053
210
0
220
0
230
1
0
CIRCLE
5
184
100
AcDbEntity
8
0
100
AcDbCircle
10
22.745207499371443
20
33.097387365232443
30
0
40
0.99999999999999645
210
0
220
0
230
1
0
CIRCLE
5
185
100
AcDbEntity
8
0
100
AcDbCircle
10
22.745207499371489
20
9.2473873652324237
30
0
40
1.0000000000000009
210
0
220
0
230
1
0
CIRCLE
5
186
100
AcDbEntity
8
0
100
AcDbCircle
10
-36.893350556274072
20
10.311463121085913
30
0
40
1.0000000000000009
210
0
220
0
230
1
0
ENDSEC
0
SECTION
2
OBJECTS
0
DICTIONARY
5
C
100
AcDbDictionary
3
ACAD_GROUP
350
D
3
ACAD_MLINESTYLE
350
17
0
DICTIONARY
5
D
100
AcDbDictionary
0
DICTIONARY
5
1A
330
C
100
AcDbDictionary
0
DICTIONARY
5
17
100
AcDbDictionary
0
ENDSEC
0
EOF
