0
SECTION
2
HEADER
9
$INSUNITS
70
4
9
$ACADVER
1
AC1014
9
$HANDSEED
5
FFFF
0
ENDSEC
0
SECTION
2
TABLES
0
TABLE
2
VPORT
5
8
100
AcDbSymbolTable
0
ENDTAB
0
TABLE
2
LTYPE
5
5
100
AcDbSymbolTable
0
LTYPE
5
14
100
AcDbSymbolTableRecord
100
AcDbLinetypeTableRecord
2
BYBLOCK
70
0
0
LTYPE
5
15
100
AcDbSymbolTableRecord
100
AcDbLinetypeTableRecord
2
BYLAYER
70
0
0
LTYPE
5
16
100
AcDbSymbolTableRecord
100
AcDbLinetypeTableRecord
2
DASHED
70
0
3
Dashed __ __ __ __ __ __ __ __ __ __ __ __ __ _
72
65
73
2
40
0.75
49
0.5
74
0
49
-0.25
74
0
0
ENDTAB
0
TABLE
2
LAYER
5
2
100
AcDbSymbolTable
70
2
0
LAYER
5
50
100
AcDbSymbolTableRecord
100
AcDbLayerTableRecord
2
0
70
0
62
7
6
CONTINUOUS
0
ENDTAB
0
TABLE
2
STYLE
5
3
100
AcDbSymbolTable
70
1
0
STYLE
5
11
100
AcDbSymbolTableRecord
100
AcDbTextStyleTableRecord
2
STANDARD
70
0
0
ENDTAB
0
TABLE
2
VIEW
5
6
100
AcDbSymbolTable
70
0
0
ENDTAB
0
TABLE
2
UCS
5
7
100
AcDbSymbolTable
70
0
0
ENDTAB
0
TABLE
2
APPID
5
9
100
AcDbSymbolTable
70
2
0
APPID
5
12
100
AcDbSymbolTableRecord
100
AcDbRegAppTableRecord
2
ACAD
70
0
0
ENDTAB
0
TABLE
2
DIMSTYLE
5
A
100
AcDbSymbolTable
70
1
0
ENDTAB
0
TABLE
2
BLOCK_RECORD
5
1
100
AcDbSymbolTable
70
1
0
BLOCK_RECORD
5
1F
100
AcDbSymbolTableRecord
100
AcDbBlockTableRecord
2
*MODEL_SPACE
0
BLOCK_RECORD
5
1B
100
AcDbSymbolTableRecord
100
AcDbBlockTableRecord
2
*PAPER_SPACE
0
ENDTAB
0
ENDSEC
0
SECTION
2
BLOCKS
0
BLOCK
5
20
100
AcDbEntity
100
AcDbBlockBegin
2
*MODEL_SPACE
0
ENDBLK
5
21
100
AcDbEntity
100
AcDbBlockEnd
0
BLOCK
5
1C
100
AcDbEntity
100
AcDbBlockBegin
2
*PAPER_SPACE
0
ENDBLK
5
1D
100
AcDbEntity
100
AcDbBlockEnd
0
ENDSEC
0
SECTION
2
ENTITIES
0
ARC
5
100
100
AcDbEntity
8
0
100
AcDbCircle
10
3.1015994919245915
20
-22.050719364660914
30
0
40
2.0000000000000018
210
0
220
0
230
1
100
AcDbArc
50
-90
51
0
0
LINE
5
101
100
AcDbEntity
8
0
100
AcDbLine
10
5.1015994919245919
20
-22.050719364660914
30
0
11
5.1015994919245919
21
-18.865514558132894
31
0
0
ARC
5
102
100
AcDbEntity
8
0
100
AcDbCircle
10
6.0765994919245925
20
-18.86551455813289
30
0
40
0.97500000000000031
210
0
220
0
230
1
100
AcDbArc
50
0
51
180
0
LINE
5
103
100
AcDbEntity
8
0
100
AcDbLine
10
7.051599491924593
20
-18.865514558132894
30
0
11
7.0515994919245939
21
-22.050719364660914
31
0
0
ARC
5
104
100
AcDbEntity
8
0
100
AcDbCircle
10
9.051599491924593
20
-22.050719364660914
30
0
40
1.9999999999999996
210
0
220
0
230
1
100
AcDbArc
50
180
51
270
0
LINE
5
105
100
AcDbEntity
8
0
100
AcDbLine
10
9.051599491924593
20
-24.050719364660917
30
0
11
18.130245628310739
21
-24.050719364660917
31
0
0
ARC
5
106
100
AcDbEntity
8
0
100
AcDbCircle
10
18.130245628310739
20
-22.050719364660914
30
0
40
2.0000000000000018
210
0
220
0
230
1
100
AcDbArc
50
-90
51
0
0
LINE
5
107
100
AcDbEntity
8
0
100
AcDbLine
10
20.130245628310739
20
-22.050719364660914
30
0
11
20.130245628310739
21
-4.2110248668648387
31
1.3322676295501878e-14
0
ARC
5
108
100
AcDbEntity
8
0
100
AcDbCircle
10
18.130245628310739
20
-4.2110248668648378
30
0
40
1.9999999999999996
210
-6.6613381477509408e-15
220
3.6977854932234942e-30
230
1
100
AcDbArc
50
0
51
74.852474567055935
0
ARC
5
109
100
AcDbEntity
8
0
100
AcDbCircle
10
19.175466646780677
20
-0.34999999999999798
30
0
40
1.9999999999999996
210
0
220
0
230
1
100
AcDbArc
50
180
51
254.85247456705613
0
LINE
5
110
100
AcDbEntity
8
0
100
AcDbLine
10
17.175466646780681
20
-0.34999999999999643
30
0
11
17.175466646780681
21
2.850000000000005
31
0
0
ARC
5
111
100
AcDbEntity
8
0
100
AcDbCircle
10
19.175466646780677
20
2.850000000000005
30
0
40
1.9999999999999996
210
0
220
-0
230
1
100
AcDbArc
50
90
51
180
0
LINE
5
112
100
AcDbEntity
8
0
100
AcDbLine
10
19.175466646780677
20
4.8500000000000041
30
0
11
24.303900041259496
21
4.8500000000000041
31
0
0
ARC
5
113
100
AcDbEntity
8
0
100
AcDbCircle
10
24.303900041259496
20
7.850000000000005
30
0
40
3.0000000000000004
210
0
220
0
230
1
100
AcDbArc
50
270
51
335.92052657546418
0
ARC
5
114
100
AcDbEntity
8
0
100
AcDbCircle
10
41.194037545237123
20
0.30193699703504184
30
0
40
15.500000000000005
210
0
220
-0
230
1
100
AcDbArc
50
89.999999999999943
51
155.92052657546418
0
ARC
5
115
100
AcDbEntity
8
0
100
AcDbCircle
10
41.19403754523713
20
23.801936997035046
30
0
40
8
210
0
220
0
230
1
100
AcDbArc
50
-89.999999999999943
51
0
0
LINE
5
116
100
AcDbEntity
8
0
100
AcDbLine
10
49.19403754523713
20
23.801936997035046
30
0
11
49.194037545237123
21
24.440162499160252
31
0
0
ARC
5
117
100
AcDbEntity
8
0
100
AcDbCircle
10
41.19403754523713
20
24.440162499160252
30
0
40
7.9999999999999893
210
0
220
0
230
1
100
AcDbArc
50
0
51
44.999999999999922
0
LINE
5
118
100
AcDbEntity
8
0
100
AcDbLine
10
46.85089179472952
20
30.097016748652628
30
0
11
42.53718329574474
21
34.410725247637416
31
0
0
ARC
5
119
100
AcDbEntity
8
0
100
AcDbCircle
10
36.880329046252349
20
28.75387099814504
30
0
40
8.0000000000000036
210
0
220
-0
230
1
100
AcDbArc
50
44.999999999999922
51
90
0
LINE
5
120
100
AcDbEntity
8
0
100
AcDbLine
10
36.880329046252349
20
36.75387099814504
30
0
11
-6.5625498814920569
21
36.753870998145032
31
0
0
ARC
5
121
100
AcDbEntity
8
0
100
AcDbCircle
10
-6.5625498814920569
20
34.753870998145032
30
0
40
2.0000000000000018
210
0
220
-0
230
1
100
AcDbArc
50
90
51
180
0
LINE
5
122
100
AcDbEntity
8
0
100
AcDbLine
10
-8.5625498814920569
20
34.753870998145025
30
0
11
-8.5625498814920533
21
33.472085083038849
31
0
0
ARC
5
123
100
AcDbEntity
8
0
100
AcDbCircle
10
1.4374501185079458
20
33.472085083038891
30
0
40
9.9999999999999982
210
0
220
0
230
1
100
AcDbArc
50
180
51
209.10006750231835
0
ARC
5
124
100
AcDbEntity
8
0
100
AcDbCircle
10
-20.843726958144678
20
21.070506631936393
30
0
40
15.500000000000005
210
0
220
0
230
1
100
AcDbArc
50
-24.381534193783683
51
29.100067502318289
0
SPLINE
5
125
100
AcDbEntity
8
0
100
AcDbSpline
70
0
71
3
72
14
73
10
74
0
42
0.000000001
43
0.0000000001
44
0.0000000001
40
0
40
0
40
0
40
0
40
0.072269227576582135
40
0.072269227576582135
40
0.14453845515316369
40
0.14453845515316369
40
0.18718563751037398
40
0.18718563751037398
40
0.2298328198675838
40
0.2298328198675838
40
0.2298328198675838
40
0.2298328198675838
10
-6.311472199501087
20
12.563416459844039
30
2.2204460492503131e-15
10
-6.4865878262193535
20
12.728843443053215
30
2.2204460492503131e-15
10
-6.6277176837309337
20
12.926892830028827
30
1.1102230246251565e-15
10
-6.8261183073582075
20
13.365941199257991
30
1.1102230246251565e-15
10
-6.8814922553753313
20
13.602742639801859
30
1.1102230246251565e-15
10
-6.8948981217360146
20
13.985562683386485
30
1.1102230246251565e-15
10
-6.8834813121103497
20
14.127734058438143
30
1.1102230246251565e-15
10
-6.8283162464807576
20
14.406645475082369
30
1.1102230246251565e-15
10
-6.7847513664574315
20
14.542458378205236
30
3.3306690738754696e-15
10
-6.7260672933171319
20
14.67193760534135
30
3.3306690738754696e-15
0
SPLINE
5
126
100
AcDbEntity
8
0
100
AcDbSpline
70
0
71
3
72
35
73
31
74
0
42
0.000000001
43
0.0000000001
44
0.0000000001
40
0.14775084451728654
40
0.14775084451728654
40
0.14775084451728654
40
0.14775084451728654
40
0.16820575259759102
40
0.16820575259759102
40
0.16820575259759102
40
0.18846892579587077
40
0.18846892579587077
40
0.18846892579587077
40
0.23106676973137258
40
0.23106676973137258
40
0.23106676973137258
40
0.33592746637618365
40
0.33592746637618365
40
0.33592746637618365
40
0.49401097996497723
40
0.49401097996497723
40
0.49401097996497723
40
0.59281317595797312
40
0.59281317595797312
40
0.59281317595797312
40
0.69161537195096923
40
0.69161537195096923
40
0.69161537195096923
40
0.84969888553976292
40
0.84969888553976292
40
0.84969888553976292
40
0.99715742613050518
40
0.99715742613050518
40
0.99715742613050518
40
1.0378755073985755
40
1.0378755073985755
40
1.0378755073985755
40
1.0378755073985755
10
-6.3114721995010896
20
12.563416459844039
30
0
10
-6.2356847888166156
20
12.491822148418379
30
0
10
-6.1624009845023844
20
12.417329465140474
30
0
10
-6.0917975569334883
20
12.340053225492408
30
0
10
-6.0218559333581538
20
12.263501337703273
30
0
10
-5.9545446728019291
20
12.184217832521018
30
0
10
-5.8900356211970664
20
12.102314326915092
30
0
10
-5.7542453700104055
20
11.929909101251246
30
0
10
-5.6326319735320656
20
11.748075701597902
30
0
10
-5.5258460521337156
20
11.558668968812377
30
0
10
-5.2629772053760373
20
11.092417156181202
30
0
10
-5.0899582267115111
20
10.580273310059439
30
0
10
-5.0164942832781776
20
10.049905701098487
30
0
10
-4.9052412718084666
20
9.2467226574814401
30
0
10
-5.0269732836430681
20
8.4225890236337069
30
0
10
-5.3651394855933336
20
7.6862756123759954
30
0
10
-5.5757290945267677
20
7.2277438240572742
30
0
10
-5.8670827098768106
20
6.8087786456672887
30
0
10
-6.2245408408761804
20
6.4513205146679189
30
0
10
-6.5819989718754845
20
6.0938623836686157
30
0
10
-7.0009641502653777
20
5.8025087683185808
30
0
10
-7.4594959385842552
20
5.5919191593850739
30
0
10
-8.1958093498419373
20
5.2537529574348207
30
0
10
-9.0199429836889031
20
5.1320209456003019
30
0
10
-9.823126027305678
20
5.243273957069766
30
0
10
-10.568946302171458
20
5.3465813566136653
30
0
10
-11.278729260838539
20
5.6467578833173881
30
0
10
-11.875534653249179
20
6.1168152950879122
30
0
10
-12.040116654531253
20
6.2464437979976744
30
0
10
-12.194119255318963
20
6.3873874482243416
30
0
10
-12.336636786051542
20
6.5382518732923991
30
0
0
SPLINE
5
127
100
AcDbEntity
8
0
100
AcDbSpline
70
0
71
3
72
14
73
10
74
0
42
0.000000001
43
0.0000000001
44
0.0000000001
40
0
40
0
40
0
40
0
40
0.07226922757658151
40
0.07226922757658151
40
0.14453845515316338
40
0.14453845515316338
40
0.18718563751041178
40
0.18718563751041178
40
0.22983281986766016
40
0.22983281986766016
40
0.22983281986766016
40
0.22983281986766016
10
-14.445157931549383
20
6.9528469671089592
30
3.3306690738754696e-15
10
-14.22574452097602
20
7.0522920512266962
30
3.3306690738754696e-15
10
-13.989004985939243
20
7.1079300680247819
30
1.1102230246251565e-15
10
-13.507524384032106
20
7.1253285727197335
30
1.1102230246251565e-15
10
-13.267386534143185
20
7.0869227214288006
30
1.1102230246251565e-15
10
-12.907990629824562
20
6.9543878694761476
30
1.1102230246251565e-15
10
-12.780726116404907
20
6.889992317997776
30
1.1102230246251565e-15
10
-12.543465354572906
20
6.7333331539011656
30
1.1102230246251565e-15
10
-12.434257792340176
20
6.6415902970820628
30
4.4408920985006262e-15
10
-12.336636786051542
20
6.5382518732923991
30
4.4408920985006262e-15
0
ARC
5
128
100
AcDbEntity
8
0
100
AcDbCircle
10
-20.843726958144678
20
21.070506631936393
30
0
40
15.500000000000005
210
0
220
0
230
1
100
AcDbArc
50
184.2379803025367
51
294.38153419378472
0
ARC
5
129
100
AcDbEntity
8
0
100
AcDbCircle
10
-41.28767401065776
20
19.555571348156224
30
0
40
5.0000000000000053
210
0
220
-0
230
1
100
AcDbArc
50
4.2379803025365552
51
24.258946805365582
0
ARC
5
130
100
AcDbEntity
8
0
100
AcDbCircle
10
-32.170695028505484
20
23.664183551685987
30
0
40
5
210
0
220
0
230
1
100
AcDbArc
50
180
51
204.25894680536547
0
LINE
5
131
100
AcDbEntity
8
0
100
AcDbLine
10
-37.170695028505484
20
23.664183551685987
30
0
11
-37.170695028505484
21
30.917541783850982
31
0
0
ARC
5
132
100
AcDbEntity
8
0
100
AcDbCircle
10
-39.170695028505492
20
30.917541783850982
30
0
40
2.0000000000000018
210
0
220
0
230
1
100
AcDbArc
50
0
51
90
0
LINE
5
133
100
AcDbEntity
8
0
100
AcDbLine
10
-39.170695028505492
20
32.917541783850986
30
0
11
-40.928054341386193
21
32.917541783850986
31
0
0
ARC
5
134
100
AcDbEntity
8
0
100
AcDbCircle
10
-40.928054341386193
20
29.917541783850979
30
0
40
3.0000000000000027
210
0
220
-0
230
1
100
AcDbArc
50
90
51
135.00000000000011
0
LINE
5
135
100
AcDbEntity
8
0
100
AcDbLine
10
-43.049374684945846
20
32.038862127410624
30
0
11
-43.79201537206513
21
31.296221440291333
31
0
0
ARC
5
136
100
AcDbEntity
8
0
100
AcDbCircle
10
-45.913335715624783
20
33.417541783850986
30
0
40
2.9999999999999982
210
0
220
0
230
1
100
AcDbArc
50
270
51
315
0
LINE
5
137
100
AcDbEntity
8
0
100
AcDbLine
10
-45.913335715624783
20
30.417541783850986
30
0
11
-50.766793667613882
21
30.417541783850982
31
0
0
ARC
5
138
100
AcDbEntity
8
0
100
AcDbCircle
10
-50.766793667613882
20
28.417541783850982
30
0
40
2.0000000000000018
210
0
220
-0
230
1
100
AcDbArc
50
90
51
180
0
LINE
5
139
100
AcDbEntity
8
0
100
AcDbLine
10
-52.766793667613882
20
28.417541783850982
30
0
11
-52.766793667613882
21
22.080353303852725
31
0
0
ARC
5
140
100
AcDbEntity
8
0
100
AcDbCircle
10
-57.208123063375339
20
22.080353303852725
30
0
40
4.4413293957614544
210
0
220
0
230
1
100
AcDbArc
50
-74.184223535434526
51
0
0
ARC
5
141
100
AcDbEntity
8
0
100
AcDbCircle
10
-54.634934199926903
20
12.996444462814399
30
0
40
4.9999999999999991
210
0
220
0
230
1
100
AcDbArc
50
105.81577646456533
51
138.61191158248224
0
LINE
5
142
100
AcDbEntity
8
0
100
AcDbLine
10
-58.386176888583385
20
16.302223991276829
30
0
11
-59.447161267546136
21
15.0982689603695
31
0
0
ARC
5
143
100
AcDbEntity
8
0
100
AcDbCircle
10
-55.695918578889653
20
11.792489431907073
30
0
40
4.9999999999999991
210
0
220
0
230
1
100
AcDbArc
50
138.61191158248224
51
180
0
LINE
5
144
100
AcDbEntity
8
0
100
AcDbLine
10
-60.695918578889653
20
11.792489431907075
30
0
11
-60.695918578889653
21
0.83327187277433046
31
0
0
ARC
5
145
100
AcDbEntity
8
0
100
AcDbCircle
10
-54.695918578889646
20
0.83327187277433046
30
0
40
6.0000000000000053
210
0
220
0
230
1
100
AcDbArc
50
180
51
195.73756008593924
0
LINE
5
146
100
AcDbEntity
8
0
100
AcDbLine
10
-60.471003468262872
20
-0.7941169930266806
30
0
11
-59.012206738025242
21
-5.9709220766202975
31
0
0
ARC
5
147
100
AcDbEntity
8
0
100
AcDbCircle
10
-53.237121848652023
20
-4.3435332108192863
30
0
40
5.9999999999999964
210
0
220
0
230
1
100
AcDbArc
50
195.73756008593926
51
235.00000000000014
0
LINE
5
148
100
AcDbEntity
8
0
100
AcDbLine
10
-56.678580466758291
20
-9.2584454765532449
30
0
11
-46.704688513447159
21
-16.242239807550838
31
0
0
ARC
5
149
100
AcDbEntity
8
0
100
AcDbCircle
10
-40.968924149936711
20
-8.0507193646609068
30
0
40
10.000000000000007
210
0
220
0
230
1
100
AcDbArc
50
235.00000000000011
51
270
0
LINE
5
150
100
AcDbEntity
8
0
100
AcDbLine
10
-40.968924149936711
20
-18.050719364660907
30
0
11
-40.634706741338469
21
-18.050719364660907
31
0
0
ARC
5
151
100
AcDbEntity
8
0
100
AcDbCircle
10
-40.634706741338469
20
-8.0507193646609085
30
0
40
9.9999999999999982
210
0
220
0
230
1
100
AcDbArc
50
270
51
289.29576495055977
0
SPLINE
5
152
100
AcDbEntity
8
0
100
AcDbSpline
70
0
71
3
72
12
73
8
74
0
42
0.000000001
43
0.0000000001
44
0.0000000001
40
0
40
0
40
0
40
0
40
0.030302565822842239
40
0.030302565822842239
40
0.054838185765393094
40
0.054838185765393094
40
0.078600859673728402
40
0.078600859673728402
40
0.078600859673728402
40
0.078600859673728402
10
-36.835524011268241
20
-16.925292513423877
30
-1.1102230246251565e-15
10
-36.85625219199396
20
-17.024151353448421
30
-1.1102230246251565e-15
10
-36.896402386755852
20
-17.117918405522467
30
-1.1102230246251565e-15
10
-36.999986435734414
20
-17.268530403339831
30
-1.1102230246251565e-15
10
-37.05686437080152
20
-17.328030941210056
30
2.2204460492503131e-15
10
-37.185270316556434
20
-17.425144698528033
30
2.2204460492503131e-15
10
-37.255501056590788
20
-17.462798996287063
30
0
10
-37.330260438962107
20
-17.488973156264052
30
0
0
SPLINE
5
153
100
AcDbEntity
8
0
100
AcDbSpline
70
0
71
3
72
14
73
10
74
0
42
0.000000001
43
0.0000000001
44
0.0000000001
40
0
40
0
40
0
40
0
40
0.014004901821948792
40
0.014004901821948792
40
0.028180181854945616
40
0.028180181854945616
40
0.041808038668349673
40
0.041808038668349673
40
0.048382780099357113
40
0.048382780099357113
40
0.048382780099357113
40
0.048382780099357113
10
-36.48949511439065
20
-16.644292568825104
30
5.5511151231257827e-15
10
-36.536178120463816
20
-16.644292568825104
30
5.5511151231257827e-15
10
-36.58240218468957
20
-16.653538568640165
30
6.6613381477509392e-15
10
-36.669108652361288
20
-16.689671288673132
30
6.6613381477509392e-15
10
-36.708641057198733
20
-16.716407322301819
30
5.5511151231257827e-15
10
-36.773577597683165
20
-16.782530652559412
30
5.5511151231257827e-15
10
-36.798863922717864
20
-16.820773999143427
30
1.1102230246251565e-15
10
-36.824595281578794
20
-16.883006155999869
30
2.2204460492503131e-15
10
-36.831047939537498
20
-16.903944800133313
30
-5.5511151231257827e-15
10
-36.835524011268241
20
-16.925292513423877
30
-5.5511151231257827e-15
0
LINE
5
154
100
AcDbEntity
8
0
100
AcDbLine
10
-36.48949511439065
20
-16.644292568825104
30
5.5511151231257827e-15
11
-35.650891851260177
21
-16.644292568825104
31
2.2204460492503131e-15
0
SPLINE
5
155
100
AcDbEntity
8
0
100
AcDbSpline
70
0
71
3
72
10
73
6
74
0
42
0.000000001
43
0.0000000001
44
0.0000000001
40
0
40
0
40
0
40
0
40
0.050323740005957532
40
0.050323740005957532
40
0.10064748001191473
40
0.10064748001191473
40
0.10064748001191473
40
0.10064748001191473
10
-34.668037672976006
20
-16.459908013535482
30
0
10
-34.824377542225946
20
-16.520706851577124
30
0
10
-34.986022190821039
20
-16.566868100054112
30
0
10
-35.315761511699314
20
-16.628727569530838
30
0
10
-35.483146051240318
20
-16.644292568825104
30
0
10
-35.650891851260177
20
-16.644292568825104
30
0
0
LINE
5
156
100
AcDbEntity
8
0
100
AcDbLine
10
-34.668037672976006
20
-16.459908013535482
30
0
11
-30.941790000565938
21
-15.010811696487123
31
0
0
ARC
5
157
100
AcDbEntity
8
0
100
AcDbCircle
10
-31.666682522875831
20
-13.146802353404532
30
0
40
1.9999999999999982
210
0
220
0
230
1
100
AcDbArc
50
291.2505055071332
51
349.61734403541038
0
ARC
5
158
100
AcDbEntity
8
0
100
AcDbCircle
10
-26.139218948419
20
-14.159552270193354
30
0
40
3.6194764845938203
210
0
220
0
230
1
100
AcDbArc
50
108.45156998785565
51
169.61734403541047
0
ARC
5
159
100
AcDbEntity
8
0
100
AcDbCircle
10
-28.867308770223367
20
-5.9831899499048715
30
0
40
4.9999999999999991
210
0
220
0
230
1
100
AcDbArc
50
288.45156998785563
51
332.60594435059522
0
ARC
5
160
100
AcDbEntity
8
0
100
AcDbCircle
10
-20.978266622267764
20
-10.071442654096998
30
0
40
3.8854260553759712
210
0
220
0
230
1
100
AcDbArc
50
0
51
152.60594435059519
0
LINE
5
161
100
AcDbEntity
8
0
100
AcDbLine
10
-17.092840566891795
20
-10.071442654096998
30
0
11
-17.092840566891795
21
-22.05071936466091
31
0
0
ARC
5
162
100
AcDbEntity
8
0
100
AcDbCircle
10
-15.092840566891795
20
-22.05071936466091
30
0
40
1.9999999999999996
210
0
220
0
230
1
100
AcDbArc
50
180
51
270
0
LINE
5
163
100
AcDbEntity
8
0
100
AcDbLine
10
-15.092840566891795
20
-24.050719364660907
30
0
11
-9.051599491924593
21
-24.050719364660914
31
0
0
ARC
5
164
100
AcDbEntity
8
0
100
AcDbCircle
10
-9.051599491924593
20
-22.05071936466091
30
0
40
2.0000000000000018
210
0
220
0
230
1
100
AcDbArc
50
-90
51
0
0
LINE
5
165
100
AcDbEntity
8
0
100
AcDbLine
10
-7.0515994919245939
20
-22.05071936466091
30
0
11
-7.051599491924593
21
-18.865514558132894
31
0
0
ARC
5
166
100
AcDbEntity
8
0
100
AcDbCircle
10
-6.0765994919245925
20
-18.86551455813289
30
0
40
0.97500000000000031
210
0
220
0
230
1
100
AcDbArc
50
0
51
180
0
LINE
5
167
100
AcDbEntity
8
0
100
AcDbLine
10
-5.1015994919245919
20
-18.865514558132894
30
0
11
-5.1015994919245911
21
-22.050719364660914
31
0
0
ARC
5
168
100
AcDbEntity
8
0
100
AcDbCircle
10
-3.1015994919245915
20
-22.050719364660914
30
0
40
1.9999999999999996
210
0
220
0
230
1
100
AcDbArc
50
180
51
270
0
LINE
5
169
100
AcDbEntity
8
0
100
AcDbLine
10
-3.1015994919245915
20
-24.050719364660917
30
0
11
3.1015994919245915
21
-24.050719364660917
31
0
0
LWPOLYLINE
5
170
100
AcDbEntity
8
0
100
AcDbPolyline
90
4
70
1
43
0.0
10
41.197776603123629
20
25.376874710982342
10
41.497776603123633
20
25.376874710982335
10
41.497776603123626
20
24.857259468711675
10
41.197776603123621
20
24.857259468711675
0
LWPOLYLINE
5
171
100
AcDbEntity
8
0
100
AcDbPolyline
90
4
70
1
43
0.0
10
46.27777660312362
20
25.376874710982264
10
46.577776603123624
20
25.376874710982264
10
46.577776603123617
20
24.857259468711597
10
46.277776603123613
20
24.857259468711604
0
LWPOLYLINE
5
172
100
AcDbEntity
8
0
100
AcDbPolyline
90
4
70
1
43
0.0
10
-41.497776603123633
20
25.376874710982335
10
-41.197776603123629
20
25.376874710982335
10
-41.197776603123621
20
24.857259468711675
10
-41.497776603123626
20
24.857259468711675
0
LWPOLYLINE
5
173
100
AcDbEntity
8
0
100
AcDbPolyline
90
4
70
1
43
0.0
10
-46.577776603123624
20
25.376874710982264
10
-46.27777660312362
20
25.376874710982264
10
-46.277776603123613
20
24.857259468711604
10
-46.577776603123617
20
24.857259468711597
0
CIRCLE
5
174
100
AcDbEntity
8
0
100
AcDbCircle
10
-53.147300628944819
20
11.841283596713222
30
2.2204460492503131e-14
40
0.99999999999998757
210
4.5217559840514205e-16
220
1.4274428421920288e-16
230
1
0
CIRCLE
5
175
100
AcDbEntity
8
0
100
AcDbCircle
10
-41.872172994872599
20
-0.14236662994501992
30
0
40
1.0000000000000002
210
0
220
0
230
1
0
CIRCLE
5
176
100
AcDbEntity
8
0
100
AcDbCircle
10
0
20
0
30
0
40
0.99999999999999201
210
4.5630323820211574e-16
220
5.784815080400974e-17
230
1
0
CIRCLE
5
177
100
AcDbEntity
8
0
100
AcDbCircle
10
0.10323442085268919
20
6.4662237859179816
30
0
40
1.0000000000000002
210
0
220
0
230
1
0
CIRCLE
5
178
100
AcDbEntity
8
0
100
AcDbCircle
10
35.16489521488473
20
32.852098723721156
30
-8.8817841970012523e-15
40
0.99999999999999201
210
1.5439038044883593e-16
220
1.1448896897838598e-16
230
1
0
CIRCLE
5
179
100
AcDbEntity
8
0
100
AcDbCircle
10
-2.012969974210562e-13
20
21.999999999999993
30
0
40
3.8869315517364345
210
0
220
0
230
1
0
CIRCLE
5
180
100
AcDbEntity
8
0
100
AcDbCircle
10
5.9909460929721039
20
13.799634004789574
30
0
40
0.49999999999999933
210
0
220
0
230
1
0
CIRCLE
5
181
100
AcDbEntity
8
0
100
AcDbCircle
10
2.240946092972103
20
13.799634004789581
30
0
40
0.50000000000000044
210
0
220
0
230
1
0
CIRCLE
5
182
100
AcDbEntity
8
0
100
AcDbCircle
10
-1.5090539070278977
20
13.799634004789576
30
0
40
0.50000000000000044
210
0
220
0
230
1
0
CIRCLE
5
183
100
AcDbEntity
8
0
100
AcDbCircle
10
-5.2590539070278961
20
13.799634004789576
30
0
40
0.49999999999999933
210
0
220
0
230
1
0
CIRCLE
5
184
100
AcDbEntity
8
0
100
AcDbCircle
10
-52.868696977491567
20
-0.19547504690171857
30
0
40
0.49999999999999822
210
0
220
0
230
1
0
CIRCLE
5
185
100
AcDbEntity
8
0
100
AcDbCircle
10
-40.968696977491561
20
-10.482975046901721
30
0
40
0.49999999999999822
210
0
220
0
230
1
0
CIRCLE
5
186
100
AcDbEntity
8
0
100
AcDbCircle
10
-29.068696977491555
20
-0.19547504690171857
30
0
40
0.49999999999999822
210
0
220
0
230
1
0
CIRCLE
5
187
100
AcDbEntity
8
0
100
AcDbCircle
10
-40.968696977491561
20
10.09202495309828
30
0
40
0.49999999999999822
210
0
220
0
230
1
0
CIRCLE
5
188
100
AcDbEntity
8
0
100
AcDbCircle
10
-43.877776603123621
20
25.117067089758951
30
-5.5511151231257827e-15
40
1.3499999999999979
210
-1.2490009027027879e-16
220
-5.42534706075121e-29
230
1
0
CIRCLE
5
189
100
AcDbEntity
8
0
100
AcDbCircle
10
43.877776603123621
20
25.117067089758951
30
-5.5511151231257827e-15
40
1.3499999999999979
210
1.2490009027027879e-16
220
-5.42534706075121e-29
230
1
0
CIRCLE
5
190
100
AcDbEntity
8
0
100
AcDbCircle
10
0.011566413441785616
20
30.970835902467265
30
0
40
0.99999999999999933
210
0
220
0
230
1
0
CIRCLE
5
191
100
AcDbEntity
8
0
100
AcDbCircle
10
14.0115664134418
20
-11.279164097532686
30
0
40
0.99999999999999867
210
0
220
0
230
1
0
CIRCLE
5
192
100
AcDbEntity
8
0
100
AcDbCircle
10
9.0115664134417841
20
0.22083590246729676
30
0
40
0.99999999999999867
210
0
220
0
230
1
0
CIRCLE
5
193
100
AcDbEntity
8
0
100
AcDbCircle
10
-14.0115664134418
20
-11.279164097532686
30
0
40
0.99999999999999867
210
0
220
0
230
1
0
CIRCLE
5
194
100
AcDbEntity
8
0
100
AcDbCircle
10
-9.0115664134417841
20
0.22083590246729676
30
0
40
0.99999999999999867
210
0
220
0
230
1
0
CIRCLE
5
195
100
AcDbEntity
8
0
100
AcDbCircle
10
13.745207499371466
20
21.172387365232431
30
0
40
0.50000000000000044
210
0
220
0
230
1
0
CIRCLE
5
196
100
AcDbEntity
8
0
100
AcDbCircle
10
22.745207499371446
20
12.172387365232439
30
0
40
0.49999999999999822
210
0
220
0
230
1
0
CIRCLE
5
197
100
AcDbEntity
8
0
100
AcDbCircle
10
31.745207499371443
20
21.172387365232431
30
0
40
0.49999999999999822
210
0
220
0
230
1
0
CIRCLE
5
198
100
AcDbEntity
8
0
100
AcDbCircle
10
22.745207499371453
20
30.172387365232424
30
0
40
0.49999999999999822
210
0
220
0
230
1
0
CIRCLE
5
199
100
AcDbEntity
8
0
100
AcDbCircle
10
-40.968696977491568
20
-15.082975046901705
30
1.1102230246251565e-15
40
0.49999999999999822
210
0
220
0
230
1
0
CIRCLE
5
200
100
AcDbEntity
8
0
100
AcDbCircle
10
-29.068696977491566
20
-4.7954750469017062
30
5.5511151231257827e-15
40
0.49999999999999822
210
0
220
0
230
1
0
CIRCLE
5
201
100
AcDbEntity
8
0
100
AcDbCircle
10
-40.968696977491561
20
-5.8829750469017217
30
0
40
0.49999999999999822
210
0
220
0
230
1
0
CIRCLE
5
202
100
AcDbEntity
8
0
100
AcDbCircle
10
-52.868696977491553
20
-4.7954750469017036
30
9.9920072216264089e-15
40
0.49999999999999822
210
0
220
0
230
1
0
CIRCLE
5
203
100
AcDbEntity
8
0
100
AcDbCircle
10
-52.868696977491567
20
4.4045249530982939
30
8.8817841970012523e-15
40
0.49999999999999822
210
0
220
0
230
1
0
CIRCLE
5
204
100
AcDbEntity
8
0
100
AcDbCircle
10
-40.968696977491568
20
5.4920249530982845
30
-1.1102230246251565e-15
40
0.49999999999999822
210
0
220
0
230
1
0
CIRCLE
5
205
100
AcDbEntity
8
0
100
AcDbCircle
10
-40.968696977491568
20
14.692024953098278
30
-2.2204460492503131e-15
40
0.49999999999999822
210
0
220
0
230
1
0
CIRCLE
5
206
100
AcDbEntity
8
0
100
AcDbCircle
10
-29.06869697749157
20
4.4045249530982939
30
4.4408920985006262e-15
40
0.49999999999999822
210
0
220
0
230
1
0
CIRCLE
5
207
100
AcDbEntity
8
0
100
AcDbCircle
10
17.495207499371467
20
21.172387365232467
30
-6.6613381477509392e-15
40
0.50000000000000044
210
0
220
0
230
1
0
CIRCLE
5
208
100
AcDbEntity
8
0
100
AcDbCircle
10
22.745207499371418
20
15.922387365232446
30
5.5511151231257827e-15
40
0.49999999999999822
210
0
220
0
230
1
0
CIRCLE
5
209
100
AcDbEntity
8
0
100
AcDbCircle
10
27.995207499371446
20
21.172387365232396
30
6.6613381477509392e-15
40
0.49999999999999822
210
0
220
0
230
1
0
CIRCLE
5
210
100
AcDbEntity
8
0
100
AcDbCircle
10
22.745207499371489
20
26.422387365232414
30
-4.4408920985006262e-15
40
0.50000000000000266
210
0
220
0
230
1
0
LINE
5
211
100
AcDbEntity
8
0
100
AcDbLine
10
38.899999999999991
20
30.049999999999997
30
0
11
38.099999999999987
21
30.049999999999997
31
1.2518544638517055e-31
0
LINE
5
212
100
AcDbEntity
8
0
100
AcDbLine
10
41.899999999999991
20
30.049999999999997
30
-1.3877787807814457e-16
11
41.099999999999994
21
30.049999999999997
31
-1.3877787807814442e-16
0
LINE
5
213
100
AcDbEntity
8
0
100
AcDbLine
10
-41.899999999999991
20
30.049999999999997
30
-1.3877787807814457e-16
11
-41.099999999999994
21
30.049999999999997
31
-1.3877787807814442e-16
0
LINE
5
214
100
AcDbEntity
8
0
100
AcDbLine
10
-38.899999999999991
20
30.049999999999997
30
0
11
-38.099999999999987
21
30.049999999999997
31
1.2518544638517055e-31
0
CIRCLE
5
215
100
AcDbEntity
8
0
100
AcDbCircle
10
-50.30766524985146
20
27.841443370746305
30
0
40
3.1559825025113506
210
0
220
0
230
1
0
CIRCLE
5
216
100
AcDbEntity
8
0
100
AcDbCircle
10
-53.147300628944848
20
11.841283596713231
30
0
40
4.3667941714944565
210
0
220
-0
230
1
0
CIRCLE
5
217
100
AcDbEntity
8
0
100
AcDbCircle
10
-8.4068785051411581
20
34.538991336979102
30
0
40
3.2821638029279621
210
0
220
0
230
1
0
CIRCLE
5
218
100
AcDbEntity
8
0
100
AcDbCircle
10
11.58973104719429
20
32.353448086221029
30
0
40
3.6378508960647582
210
0
220
0
230
1
0
CIRCLE
5
219
100
AcDbEntity
8
0
100
AcDbCircle
10
0.10323442085268919
20
6.4662237859179816
30
0
40
3.3725928129116052
210
0
220
0
230
1
0
CIRCLE
5
220
100
AcDbEntity
8
0
100
AcDbCircle
10
0
20
0
30
0
40
2.7352509123201019
210
0
220
0
230
1
0
CIRCLE
5
221
100
AcDbEntity
8
0
100
AcDbCircle
10
-6.5215764096837141
20
-8.8365956792314417
30
0
40
3.3364391408887899
210
0
220
0
230
1
0
CIRCLE
5
222
100
AcDbEntity
8
0
100
AcDbCircle
10
6.4784235903162868
20
-8.8365956792314417
30
0
40
3.3364391408887899
210
0
220
0
230
1
0
CIRCLE
5
223
100
AcDbEntity
8
0
100
AcDbCircle
10
35.16489521488473
20
32.852098723721156
30
-8.8817841970012523e-15
40
4.3787613731179862
210
0
220
0
230
1
0
LWPOLYLINE
5
224
100
AcDbEntity
8
0
100
AcDbPolyline
90
4
70
1
43
0.0
10
-7.8956644922160555
20
-7.8490806836943268
10
-23.745175839715781
20
-7.8490806836943268
10
-23.745175839715781
20
0.79057617367596766
10
-7.8956644922160555
20
0.79057617367596755
0
LWPOLYLINE
5
225
100
AcDbEntity
8
0
100
AcDbPolyline
90
6
70
1
43
0.0
10
10.258346231330812
20
12.882878382607316
42
0.41421356237310153
10
10.458346231330813
20
13.082878382607317
10
10.458346231330813
20
13.582878382607317
42
0.41421356237310153
10
10.258346231330812
20
13.782878382607318
10
9.3183462313308123
20
13.782878382607315
10
9.3183462313308123
20
12.882878382607316
0
LWPOLYLINE
5
226
100
AcDbEntity
8
0
100
AcDbPolyline
90
6
70
1
43
0.0
10
-3.0416537686691858
20
13.082878382607317
42
0.41421356237309664
10
-2.8416537686691856
20
12.88287838260732
10
-1.9016537686691859
20
12.882878382607316
10
-1.9016537686691861
20
13.782878382607315
10
-2.8416537686691856
20
13.782878382607318
42
0.41421356237309664
10
-3.0416537686691858
20
13.582878382607317
0
LWPOLYLINE
5
227
100
AcDbEntity
8
0
100
AcDbPolyline
90
6
70
1
43
0.0
10
-9.4811641295744327
20
-14.139415176509466
42
0.41421356237310641
10
-9.2811641295744369
20
-13.939415176509463
10
-9.2811641295744423
20
-13.439415176509454
42
0.41421356237307716
10
-9.4811641295744415
20
-13.239415176509455
10
-10.421164129574432
20
-13.239415176509461
10
-10.421164129574423
20
-14.139415176509475
0
LWPOLYLINE
5
228
100
AcDbEntity
8
0
100
AcDbPolyline
90
6
70
1
43
0.0
10
-16.781164129574357
20
-13.939415176509538
42
0.41421356237307549
10
-16.581164129574354
20
-14.139415176509537
10
-15.641164129574365
20
-14.13941517650953
10
-15.641164129574374
20
-13.239415176509517
10
-16.581164129574365
20
-13.239415176509526
42
0.4142135623731113
10
-16.781164129574361
20
-13.439415176509531
0
LWPOLYLINE
5
229
100
AcDbEntity
8
0
100
AcDbPolyline
90
6
70
1
43
0.0
10
9.2811641295744369
20
-13.939415176509462
42
0.41421356237309503
10
9.4811641295744327
20
-14.139415176509466
10
10.421164129574423
20
-14.139415176509475
10
10.421164129574432
20
-13.239415176509461
10
9.4811641295744415
20
-13.239415176509453
42
0.41421356237309825
10
9.2811641295744423
20
-13.439415176509454
0
LWPOLYLINE
5
230
100
AcDbEntity
8
0
100
AcDbPolyline
90
6
70
1
43
0.0
10
16.581164129574354
20
-14.139415176509537
42
0.41421356237309503
10
16.781164129574357
20
-13.939415176509538
10
16.781164129574361
20
-13.439415176509531
42
0.41421356237309503
10
16.581164129574365
20
-13.239415176509524
10
15.641164129574374
20
-13.239415176509514
10
15.641164129574365
20
-14.13941517650953
0
LWPOLYLINE
5
231
100
AcDbEntity
8
0
100
AcDbPolyline
90
6
70
1
43
0.0
10
-34.624276403834692
20
-1.3067289682164853
42
0.41421356237308737
10
-34.424276403834696
20
-1.5067289682164891
10
-33.924276403834689
20
-1.5067289682164866
42
0.4142135623731048
10
-33.724276403834693
20
-1.3067289682164862
10
-33.724276403834693
20
-0.36672896821648476
10
-34.624276403834685
20
-0.36672896821648382
0
LWPOLYLINE
5
232
100
AcDbEntity
8
0
100
AcDbPolyline
90
6
70
1
43
0.0
10
-34.424276403834682
20
7.9932710317835287
42
0.41421356237309503
10
-34.624276403834685
20
7.7932710317835285
10
-34.624276403834685
20
6.8532710317835281
10
-33.724276403834686
20
6.8532710317835264
10
-33.724276403834686
20
7.7932710317835285
42
0.41421356237308693
10
-33.924276403834682
20
7.9932710317835278
0
LWPOLYLINE
5
233
100
AcDbEntity
8
0
100
AcDbPolyline
90
6
70
1
43
0.0
10
18.776207455129615
20
13.181889693782304
42
0.41421356237310153
10
18.576207455129612
20
12.981889693782305
10
18.576207455129612
20
12.481889693782303
42
0.41421356237309825
10
18.776207455129612
20
12.281889693782302
10
19.716207455129616
20
12.281889693782302
10
19.716207455129616
20
13.181889693782304
0
LWPOLYLINE
5
234
100
AcDbEntity
8
0
100
AcDbPolyline
90
6
70
1
43
0.0
10
28.076207455129619
20
12.981889693782296
42
0.41421356237309503
10
27.87620745512962
20
13.181889693782296
10
26.936207455129619
20
13.181889693782296
10
26.936207455129619
20
12.281889693782295
10
27.87620745512962
20
12.281889693782295
42
0.41421356237309503
10
28.076207455129619
20
12.481889693782296
0
ENDSEC
0
SECTION
2
OBJECTS
0
DICTIONARY
5
C
100
AcDbDictionary
3
ACAD_GROUP
350
D
3
ACAD_MLINESTYLE
350
17
0
DICTIONARY
5
D
100
AcDbDictionary
0
DICTIONARY
5
1A
330
C
100
AcDbDictionary
0
DICTIONARY
5
17
100
AcDbDictionary
0
ENDSEC
0
EOF
