0
SECTION
2
HEADER
9
$INSUNITS
70
4
9
$ACADVER
1
AC1014
9
$HANDSEED
5
FFFF
0
ENDSEC
0
SECTION
2
TABLES
0
TABLE
2
VPORT
5
8
100
AcDbSymbolTable
0
ENDTAB
0
TABLE
2
LTYPE
5
5
100
AcDbSymbolTable
0
LTYPE
5
14
100
AcDbSymbolTableRecord
100
AcDbLinetypeTableRecord
2
BYBLOCK
70
0
0
LTYPE
5
15
100
AcDbSymbolTableRecord
100
AcDbLinetypeTableRecord
2
BYLAYER
70
0
0
LTYPE
5
16
100
AcDbSymbolTableRecord
100
AcDbLinetypeTableRecord
2
DASHED
70
0
3
Dashed __ __ __ __ __ __ __ __ __ __ __ __ __ _
72
65
73
2
40
0.75
49
0.5
74
0
49
-0.25
74
0
0
ENDTAB
0
TABLE
2
LAYER
5
2
100
AcDbSymbolTable
70
2
0
LAYER
5
50
100
AcDbSymbolTableRecord
100
AcDbLayerTableRecord
2
0
70
0
62
7
6
CONTINUOUS
0
ENDTAB
0
TABLE
2
STYLE
5
3
100
AcDbSymbolTable
70
1
0
STYLE
5
11
100
AcDbSymbolTableRecord
100
AcDbTextStyleTableRecord
2
STANDARD
70
0
0
ENDTAB
0
TABLE
2
VIEW
5
6
100
AcDbSymbolTable
70
0
0
ENDTAB
0
TABLE
2
UCS
5
7
100
AcDbSymbolTable
70
0
0
ENDTAB
0
TABLE
2
APPID
5
9
100
AcDbSymbolTable
70
2
0
APPID
5
12
100
AcDbSymbolTableRecord
100
AcDbRegAppTableRecord
2
ACAD
70
0
0
ENDTAB
0
TABLE
2
DIMSTYLE
5
A
100
AcDbSymbolTable
70
1
0
ENDTAB
0
TABLE
2
BLOCK_RECORD
5
1
100
AcDbSymbolTable
70
1
0
BLOCK_RECORD
5
1F
100
AcDbSymbolTableRecord
100
AcDbBlockTableRecord
2
*MODEL_SPACE
0
BLOCK_RECORD
5
1B
100
AcDbSymbolTableRecord
100
AcDbBlockTableRecord
2
*PAPER_SPACE
0
ENDTAB
0
ENDSEC
0
SECTION
2
BLOCKS
0
BLOCK
5
20
100
AcDbEntity
100
AcDbBlockBegin
2
*MODEL_SPACE
0
ENDBLK
5
21
100
AcDbEntity
100
AcDbBlockEnd
0
BLOCK
5
1C
100
AcDbEntity
100
AcDbBlockBegin
2
*PAPER_SPACE
0
ENDBLK
5
1D
100
AcDbEntity
100
AcDbBlockEnd
0
ENDSEC
0
SECTION
2
ENTITIES
0
ARC
5
100
100
AcDbEntity
8
0
100
AcDbCircle
10
19.528440142818756
20
6.2962660002006849
30
0
40
1.0000000000000009
210
0
220
0
230
1
100
AcDbArc
50
180
51
270
0
LINE
5
101
100
AcDbEntity
8
0
100
AcDbLine
10
19.528440142818756
20
5.2962660002006858
30
0
11
26.369037530335962
21
5.2962660002006858
31
0
0
LINE
5
102
100
AcDbEntity
8
0
100
AcDbLine
10
26.369037530335962
20
5.2962660002006858
30
0
11
26.369037530335962
21
1.4519369970350415
31
0
0
LINE
5
103
100
AcDbEntity
8
0
100
AcDbLine
10
26.369037530335962
20
1.4519369970350415
30
0
11
27.194037545237116
21
1.4519369970350415
31
0
0
ARC
5
104
100
AcDbEntity
8
0
100
AcDbCircle
10
27.194037545237116
20
0.30193699703504184
30
0
40
1.150000000000001
210
0
220
0
230
1
100
AcDbArc
50
-90
51
90
0
LINE
5
105
100
AcDbEntity
8
0
100
AcDbLine
10
27.194037545237116
20
-0.84806300296495918
30
0
11
26.413708542021574
21
-0.84806300296112158
31
0
0
ARC
5
106
100
AcDbEntity
8
0
100
AcDbCircle
10
41.194037545237123
20
0.30193699703504184
30
0
40
14.82500001495062
210
0
220
0
230
1
100
AcDbArc
50
184.4489987711826
51
209.34677104318075
0
LINE
5
107
100
AcDbEntity
8
0
100
AcDbLine
10
28.271537272305917
20
-6.9637090264037909
30
0
11
27.051901921506172
21
-8.1833443772035359
31
0
0
ARC
5
108
100
AcDbEntity
8
0
100
AcDbCircle
10
28.819668874472541
20
-9.9511113301699048
30
0
40
2.5000000000000004
210
0
220
0
230
1
100
AcDbArc
50
135
51
224.99999999999997
0
LINE
5
109
100
AcDbEntity
8
0
100
AcDbLine
10
27.051901921506172
20
-11.718878283136272
30
0
11
29.17322226506581
21
-13.84019862669591
31
0
0
ARC
5
110
100
AcDbEntity
8
0
100
AcDbCircle
10
30.940989218032176
20
-12.07243167372954
30
0
40
2.4999999999999982
210
0
220
0
230
1
100
AcDbArc
50
225.00000000000006
51
314.99999999999989
0
LINE
5
111
100
AcDbEntity
8
0
100
AcDbLine
10
32.708756170998541
20
-13.840198626695912
30
0
11
33.928391521798304
21
-12.620563275896167
31
0
0
ARC
5
112
100
AcDbEntity
8
0
100
AcDbCircle
10
41.194037545237123
20
0.30193699703504184
30
0
40
14.825000014901164
210
0
220
0
230
1
100
AcDbArc
50
240.65322895681928
51
265.55100122878758
0
LINE
5
113
100
AcDbEntity
8
0
100
AcDbLine
10
40.044037545237117
20
-14.478392006130603
30
0
11
40.044037545237117
21
-13.877946342152923
31
-1.3877787807814457e-16
0
SPLINE
5
114
100
AcDbEntity
8
0
100
AcDbSpline
70
0
71
3
72
16
73
12
74
0
42
0.000000001
43
0.0000000001
44
0.0000000001
40
0
40
0
40
0
40
0
40
0.02054921815982412
40
0.02054921815982412
40
0.041161808812033851
40
0.041161808812033851
40
0.06121361345061492
40
0.06121361345061492
40
0.073008825132676189
40
0.073008825132676189
40
0.08403734758086906
40
0.08403734758086906
40
0.08403734758086906
40
0.08403734758086906
10
40.586029008234576
20
-13.35953988575227
30
-2.7755575615628914e-16
10
40.517599350989038
20
-13.356494401274537
30
-2.7755575615628914e-16
10
40.44923901837624
20
-13.367027912216923
30
6.9388939039072284e-16
10
40.320363054509244
20
-13.414107424042994
30
6.9388939039072284e-16
10
40.261146321362091
20
-13.450268122095444
30
6.2450045135165055e-16
10
40.161615143045296
20
-13.542283341441912
30
6.2450045135165055e-16
10
40.121761363428561
20
-13.596714526951803
30
6.9388939039072284e-16
10
40.07660372320732
20
-13.692787608289549
30
6.9388939039072284e-16
10
40.063976724113381
20
-13.730156129813011
30
6.9388939039072284e-16
10
40.047944004749077
20
-13.804526711775477
30
6.9388939039072284e-16
10
40.044037545237117
20
-13.841184600658947
30
-1.3877787807814457e-16
10
40.044037545237117
20
-13.877946342152923
30
-1.3877787807814457e-16
0
ARC
5
115
100
AcDbEntity
8
0
100
AcDbCircle
10
41.194037545237123
20
0.30193699703504184
30
0
40
13.675000000000004
210
-9.0241279767505075e-19
220
-2.0276510647279696e-17
230
1
100
AcDbArc
50
267.45171402128227
51
272.54828597871767
0
SPLINE
5
116
100
AcDbEntity
8
0
100
AcDbSpline
70
0
71
3
72
16
73
12
74
0
42
0.000000001
43
0.0000000001
44
0.0000000001
40
0
40
0
40
0
40
0
40
0.020549218159823801
40
0.020549218159823801
40
0.041161808812032019
40
0.041161808812032019
40
0.061213613450612908
40
0.061213613450612908
40
0.073008825132675037
40
0.073008825132675037
40
0.084037347580869615
40
0.084037347580869615
40
0.084037347580869615
40
0.084037347580869615
10
42.344037545237114
20
-13.877946342152921
30
1.3877787807814457e-16
10
42.344037545237114
20
-13.809448948286839
30
1.3877787807814457e-16
10
42.330475060260525
20
-13.741624550545568
30
1.3877787807814457e-16
10
42.277712109714983
20
-13.614969248460916
30
1.3877787807814457e-16
10
42.238954316676896
20
-13.557418826680729
30
6.9388939039072284e-17
10
42.142604803106082
20
-13.462077192107087
30
6.9388939039072284e-17
10
42.086455492628225
20
-13.4246829059311
30
6.9388939039072284e-17
10
41.988469649080201
20
-13.383841457716525
30
6.9388939039072284e-17
10
41.950576668006519
20
-13.37288839913375
30
6.9388939039072284e-17
10
41.875566794771821
20
-13.360178148586872
30
6.9388939039072284e-17
10
41.83877147029019
20
-13.357905410237576
30
0
10
41.802046082239663
20
-13.35953988575227
30
0
0
LINE
5
117
100
AcDbEntity
8
0
100
AcDbLine
10
42.344037545237114
20
-13.877946342152921
30
1.3877787807814457e-16
11
42.344037545237121
21
-14.478392006130596
31
-6.4957876438898055e-08
0
ARC
5
118
100
AcDbEntity
8
0
100
AcDbCircle
10
41.194037545237123
20
0.3019369970350419
30
1.2682507529394879e-08
40
14.82500001490116
210
3.3989146110837683e-10
220
-4.3684414091725916e-09
230
1
100
AcDbArc
50
274.44899877121236
51
355.55100122881737
0
LINE
5
119
100
AcDbEntity
8
0
100
AcDbLine
10
55.974366548403367
20
-0.84806300295728498
30
0
11
55.194037545237123
21
-0.84806300296495807
31
0
0
ARC
5
120
100
AcDbEntity
8
0
100
AcDbCircle
10
55.194037545237123
20
0.30193699703504184
30
0
40
1.1499999999999964
210
0
220
-0
230
1
100
AcDbArc
50
90
51
270
0
LINE
5
121
100
AcDbEntity
8
0
100
AcDbLine
10
55.194037545237123
20
1.4519369970350382
30
0
11
55.974366548452672
21
1.4519369970312048
31
0
0
ARC
5
122
100
AcDbEntity
8
0
100
AcDbCircle
10
41.194037545237123
20
0.30193699703504184
30
0
40
14.82500001495062
210
0
220
-0
230
1
100
AcDbArc
50
4.4489987711826275
51
29.346771043180748
0
LINE
5
123
100
AcDbEntity
8
0
100
AcDbLine
10
54.116537818168325
20
7.5675830204738723
30
0
11
55.336173168968074
21
8.7872183712736192
31
0
0
ARC
5
124
100
AcDbEntity
8
0
100
AcDbCircle
10
53.568406216001698
20
10.554985324239986
30
0
40
2.5000000000000027
210
0
220
0
230
1
100
AcDbArc
50
-44.999999999999851
51
45.00000000000022
0
LINE
5
125
100
AcDbEntity
8
0
100
AcDbLine
10
55.33617316896806
20
12.322752277206362
30
0
11
53.214852825408428
21
14.444072620765994
31
0
0
ARC
5
126
100
AcDbEntity
8
0
100
AcDbCircle
10
51.447085872442059
20
12.676305667799614
30
0
40
2.5000000000000107
210
0
220
-0
230
1
100
AcDbArc
50
45.000000000000171
51
134.99999999999994
0
LINE
5
127
100
AcDbEntity
8
0
100
AcDbLine
10
49.679318919475691
20
14.444072620765986
30
0
11
48.459683568675949
21
13.224437269966243
31
0
0
ARC
5
128
100
AcDbEntity
8
0
100
AcDbCircle
10
41.194037545237123
20
0.30193699703504184
30
0
40
14.825000014901162
210
0
220
-0
230
1
100
AcDbArc
50
60.653228956819255
51
85.551001228787584
0
LINE
5
129
100
AcDbEntity
8
0
100
AcDbLine
10
42.344037545237121
20
15.082266000200686
30
0
11
42.344037545237121
21
14.481820336223006
31
-1.3877787807814457e-16
0
SPLINE
5
130
100
AcDbEntity
8
0
100
AcDbSpline
70
0
71
3
72
16
73
12
74
0
42
0.000000001
43
0.0000000001
44
0.0000000001
40
0
40
0
40
0
40
0
40
0.020549218159824658
40
0.020549218159824658
40
0.04116180881203213
40
0.04116180881203213
40
0.061213613450612978
40
0.061213613450612978
40
0.073008825132675675
40
0.073008825132675675
40
0.084037347580869198
40
0.084037347580869198
40
0.084037347580869198
40
0.084037347580869198
10
41.80204608223967
20
13.963413879822353
30
5.5511151231257827e-16
10
41.870475739485201
20
13.96036839534462
30
5.5511151231257827e-16
10
41.938836072098013
20
13.970901906287004
30
5.5511151231257827e-16
10
42.067712035964995
20
14.01798141811307
30
5.5511151231257827e-16
10
42.126928769112133
20
14.054142116165522
30
5.5511151231257827e-16
10
42.226459947428921
20
14.146157335511983
30
5.5511151231257827e-16
10
42.26631372704567
20
14.200588521021871
30
6.2450045135165055e-16
10
42.311471367266918
20
14.29666160235962
30
6.2450045135165055e-16
10
42.324098366360865
20
14.334030123883082
30
5.5511151231257827e-16
10
42.340131085725162
20
14.408400705845555
30
5.5511151231257827e-16
10
42.344037545237121
20
14.445058594729028
30
8.3266726846886741e-16
10
42.344037545237121
20
14.481820336223006
30
8.3266726846886741e-16
0
ARC
5
131
100
AcDbEntity
8
0
100
AcDbCircle
10
41.194037545237123
20
0.30193699703504184
30
0
40
13.675000000000004
210
-1.8048255953501015e-18
220
-4.0553021294559393e-17
230
1
100
AcDbArc
50
87.451714021282285
51
92.548285978717686
0
SPLINE
5
132
100
AcDbEntity
8
0
100
AcDbSpline
70
0
71
3
72
16
73
12
74
0
42
0.000000001
43
0.0000000001
44
0.0000000001
40
0
40
0
40
0
40
0
40
0.020549218159822601
40
0.020549218159822601
40
0.041161808812031506
40
0.041161808812031506
40
0.061213613450612658
40
0.061213613450612658
40
0.073008825132676411
40
0.073008825132676411
40
0.084037347580869601
40
0.084037347580869601
40
0.084037347580869601
40
0.084037347580869601
10
40.044037545237131
20
14.481820336223004
30
1.3877787807814457e-16
10
40.044037545237131
20
14.413322942356928
30
1.3877787807814457e-16
10
40.057600030213713
20
14.345498544615655
30
0
10
40.110362980759248
20
14.218843242531005
30
0
10
40.149120773797343
20
14.161292820750829
30
0
10
40.245470287368157
20
14.065951186177179
30
0
10
40.301619597846013
20
14.028556900001188
30
0
10
40.399605441394044
20
13.987715451786606
30
0
10
40.437498422467726
20
13.976762393203831
30
0
10
40.512508295702439
20
13.964052142656955
30
0
10
40.549303620184048
20
13.961779404307661
30
0
10
40.586029008234583
20
13.963413879822353
30
0
0
LINE
5
133
100
AcDbEntity
8
0
100
AcDbLine
10
40.044037545237131
20
14.481820336223004
30
1.3877787807814457e-16
11
40.044037545237117
21
15.082266000200679
31
-6.4957876438898055e-08
0
LINE
5
134
100
AcDbEntity
8
0
100
AcDbLine
10
40.044037545237117
20
15.082266000200679
30
-6.4957876438898055e-08
11
19.528440142818752
21
15.082266000200686
31
0
0
ARC
5
135
100
AcDbEntity
8
0
100
AcDbCircle
10
19.528440142818752
20
14.082266000200685
30
0
40
1.0000000000000009
210
0
220
-0
230
1
100
AcDbArc
50
90
51
180
0
LINE
5
136
100
AcDbEntity
8
0
100
AcDbLine
10
18.528440142818749
20
14.082266000200685
30
0
11
18.528440142818752
21
6.2962660002006849
31
0
0
CIRCLE
5
137
100
AcDbEntity
8
0
100
AcDbCircle
10
41.194037545237094
20
4.6019369970351756
30
9.9920072216264089e-15
40
0.75000000000000178
210
4.1833328456127522e-30
220
-5.3732780733456965e-16
230
1
0
CIRCLE
5
138
100
AcDbEntity
8
0
100
AcDbCircle
10
41.194037545237151
20
-3.9980630029650959
30
5.2735593669694936e-15
40
0.74999999999999956
210
4.1833328456127522e-30
220
-5.3732780733456965e-16
230
1
0
CIRCLE
5
139
100
AcDbEntity
8
0
100
AcDbCircle
10
41.194037545237123
20
0.30193699703504184
30
0
40
0.99999999999999645
210
4.1833328456127522e-30
220
-5.3732780733456965e-16
230
1
0
CIRCLE
5
140
100
AcDbEntity
8
0
100
AcDbCircle
10
52.799427596729686
20
11.907327048527614
30
0
40
1.0749999999999993
210
0
220
0
230
1
0
CIRCLE
5
141
100
AcDbEntity
8
0
100
AcDbCircle
10
29.588647493744556
20
-11.303453054457526
30
0
40
1.0749999999999993
210
0
220
0
230
1
0
LWPOLYLINE
5
142
100
AcDbEntity
8
0
100
AcDbPolyline
90
6
70
1
43
0.0
10
28.076207455129474
20
12.981889693782293
42
0.41421356237309503
10
27.876207455129475
20
13.181889693782294
10
26.93620745512947
20
13.181889693782296
10
26.936207455129466
20
12.281889693782295
10
27.876207455129467
20
12.28188969378229
42
0.41421356237309503
10
28.07620745512947
20
12.481889693782291
0
LWPOLYLINE
5
143
100
AcDbEntity
8
0
100
AcDbPolyline
90
6
70
1
43
0.0
10
18.776207455129452
20
13.181889693782331
42
0.41421356237309503
10
18.576207455129452
20
12.981889693782332
10
18.576207455129449
20
12.481889693782332
42
0.41421356237309503
10
18.776207455129452
20
12.281889693782331
10
19.716207455129453
20
12.281889693782325
10
19.716207455129457
20
13.181889693782328
0
ENDSEC
0
SECTION
2
OBJECTS
0
DICTIONARY
5
C
100
AcDbDictionary
3
ACAD_GROUP
350
D
3
ACAD_MLINESTYLE
350
17
0
DICTIONARY
5
D
100
AcDbDictionary
0
DICTIONARY
5
1A
330
C
100
AcDbDictionary
0
DICTIONARY
5
17
100
AcDbDictionary
0
ENDSEC
0
EOF
