0
SECTION
2
HEADER
9
$INSUNITS
70
4
9
$ACADVER
1
AC1014
9
$HANDSEED
5
FFFF
0
ENDSEC
0
SECTION
2
TABLES
0
TABLE
2
VPORT
5
8
100
AcDbSymbolTable
0
ENDTAB
0
TABLE
2
LTYPE
5
5
100
AcDbSymbolTable
0
LTYPE
5
14
100
AcDbSymbolTableRecord
100
AcDbLinetypeTableRecord
2
BYBLOCK
70
0
0
LTYPE
5
15
100
AcDbSymbolTableRecord
100
AcDbLinetypeTableRecord
2
BYLAYER
70
0
0
LTYPE
5
16
100
AcDbSymbolTableRecord
100
AcDbLinetypeTableRecord
2
DASHED
70
0
3
Dashed __ __ __ __ __ __ __ __ __ __ __ __ __ _
72
65
73
2
40
0.75
49
0.5
74
0
49
-0.25
74
0
0
ENDTAB
0
TABLE
2
LAYER
5
2
100
AcDbSymbolTable
70
2
0
LAYER
5
50
100
AcDbSymbolTableRecord
100
AcDbLayerTableRecord
2
0
70
0
62
7
6
CONTINUOUS
0
ENDTAB
0
TABLE
2
STYLE
5
3
100
AcDbSymbolTable
70
1
0
STYLE
5
11
100
AcDbSymbolTableRecord
100
AcDbTextStyleTableRecord
2
STANDARD
70
0
0
ENDTAB
0
TABLE
2
VIEW
5
6
100
AcDbSymbolTable
70
0
0
ENDTAB
0
TABLE
2
UCS
5
7
100
AcDbSymbolTable
70
0
0
ENDTAB
0
TABLE
2
APPID
5
9
100
AcDbSymbolTable
70
2
0
APPID
5
12
100
AcDbSymbolTableRecord
100
AcDbRegAppTableRecord
2
ACAD
70
0
0
ENDTAB
0
TABLE
2
DIMSTYLE
5
A
100
AcDbSymbolTable
70
1
0
ENDTAB
0
TABLE
2
BLOCK_RECORD
5
1
100
AcDbSymbolTable
70
1
0
BLOCK_RECORD
5
1F
100
AcDbSymbolTableRecord
100
AcDbBlockTableRecord
2
*MODEL_SPACE
0
BLOCK_RECORD
5
1B
100
AcDbSymbolTableRecord
100
AcDbBlockTableRecord
2
*PAPER_SPACE
0
ENDTAB
0
ENDSEC
0
SECTION
2
BLOCKS
0
BLOCK
5
20
100
AcDbEntity
100
AcDbBlockBegin
2
*MODEL_SPACE
0
ENDBLK
5
21
100
AcDbEntity
100
AcDbBlockEnd
0
BLOCK
5
1C
100
AcDbEntity
100
AcDbBlockBegin
2
*PAPER_SPACE
0
ENDBLK
5
1D
100
AcDbEntity
100
AcDbBlockEnd
0
ENDSEC
0
SECTION
2
ENTITIES
0
ARC
5
100
100
AcDbEntity
8
0
100
AcDbCircle
10
-29.225000000175832
20
10.075000000000141
30
0
40
0.75000000000000178
210
0
220
0
230
1
100
AcDbArc
50
0
51
89.99999999999919
0
LINE
5
101
100
AcDbEntity
8
0
100
AcDbLine
10
-29.225000000175822
20
10.825000000000141
30
0
11
-36.517893218989286
21
10.825000000000188
31
-2.2204460492503131e-15
0
SPLINE
5
102
100
AcDbEntity
8
0
100
AcDbSpline
70
0
71
3
72
14
73
10
74
0
42
0.000000001
43
0.0000000001
44
0.0000000001
40
0
40
0
40
0
40
0
40
0.028009803643897935
40
0.028009803643897935
40
0.056360363709891628
40
0.056360363709891628
40
0.083616077336698402
40
0.083616077336698402
40
0.11142790592774868
40
0.11142790592774868
40
0.11142790592774868
40
0.11142790592774868
10
-37.225000000175832
20
10.117893218813641
30
-1.1102230246251565e-14
10
-37.225000000175832
20
10.211259230959971
30
-1.1102230246251565e-14
10
-37.206508000545703
20
10.303707359411472
30
-6.6613381477509392e-15
10
-37.13424256047977
20
10.477120294754902
30
-6.6613381477509392e-15
10
-37.080770493222396
20
10.556185104429797
30
0
10
-36.94852383270721
20
10.686058185398654
30
0
10
-36.872037139539174
20
10.736630835468057
30
-1.3322676295501878e-14
10
-36.702406882898877
20
10.806768481787339
30
-1.3322676295501878e-14
10
-36.610599314292784
20
10.825000000000188
30
-1.1102230246251565e-14
10
-36.517893218989286
20
10.825000000000188
30
-1.1102230246251565e-14
0
LINE
5
103
100
AcDbEntity
8
0
100
AcDbLine
10
-37.225000000175832
20
10.117893218813641
30
-1.1102230246251565e-14
11
-37.225000000175882
21
2.8250000000001805
31
2.2204460492503131e-15
0
LINE
5
104
100
AcDbEntity
8
0
100
AcDbLine
10
-37.225000000175882
20
2.8250000000001805
30
2.2204460492503131e-15
11
-41.935264821055753
21
2.8250000000002098
31
0
0
ARC
5
105
100
AcDbEntity
8
0
100
AcDbCircle
10
-41.93526482105576
20
2.0750000000002089
30
2.2204460492503131e-15
40
0.75000000000000067
210
3.5060484676489351e-29
220
2.9605947323337481e-15
230
1
100
AcDbArc
50
89.99999999999946
51
180
0
LINE
5
106
100
AcDbEntity
8
0
100
AcDbLine
10
-42.685264821055767
20
2.0750000000002138
30
2.2204460492503131e-15
11
-42.685264821055789
21
-2.4249999999997938
31
0
0
ARC
5
107
100
AcDbEntity
8
0
100
AcDbCircle
10
-41.935264821055789
20
-2.4249999999997982
30
2.2204460492503131e-15
40
0.75000000000000178
210
-2.9605947323337438e-15
220
1.8625882484384914e-29
230
1
100
AcDbArc
50
180
51
270
0
LINE
5
108
100
AcDbEntity
8
0
100
AcDbLine
10
-41.935264821055789
20
-3.1749999999997995
30
2.2204460492503131e-15
11
-37.225000000175918
21
-3.1749999999998284
31
2.2204460492503131e-15
0
LINE
5
109
100
AcDbEntity
8
0
100
AcDbLine
10
-37.225000000175918
20
-3.1749999999998284
30
2.2204460492503131e-15
11
-37.22500000017596
21
-10.424999999999841
31
0
0
ARC
5
110
100
AcDbEntity
8
0
100
AcDbCircle
10
-36.47500000017596
20
-10.424999999999844
30
4.4408920985006262e-15
40
0.75000000000000178
210
-5.9211894646674876e-15
220
3.506048467648925e-29
230
1
100
AcDbArc
50
180
51
269.99999999999943
0
LINE
5
111
100
AcDbEntity
8
0
100
AcDbLine
10
-36.475000000175967
20
-11.174999999999841
30
4.4408920985006262e-15
11
-29.22500000017596
21
-11.174999999999887
31
2.2204460492503131e-15
0
ARC
5
112
100
AcDbEntity
8
0
100
AcDbCircle
10
-29.225000000175957
20
-10.424999999999883
30
4.4408920985006262e-15
40
0.75000000000000178
210
-1.7530242338244625e-29
220
-2.9605947323337438e-15
230
1
100
AcDbArc
50
269.99999999999972
51
360
0
LINE
5
113
100
AcDbEntity
8
0
100
AcDbLine
10
-28.475000000175953
20
-10.424999999999889
30
4.4408920985006262e-15
11
-28.475000000175914
21
-3.7249999999998979
31
0
0
LINE
5
114
100
AcDbEntity
8
0
100
AcDbLine
10
-28.475000000175914
20
-3.7249999999998979
30
0
11
-24.424735179296036
21
-3.7249999999999228
31
2.2204460492503131e-15
0
ARC
5
115
100
AcDbEntity
8
0
100
AcDbCircle
10
-24.424735179296036
20
-2.9749999999999224
30
2.2204460492503131e-15
40
0.75000000000000067
210
0
220
0
230
1
100
AcDbArc
50
270
51
360
0
LINE
5
116
100
AcDbEntity
8
0
100
AcDbLine
10
-23.674735179296036
20
-2.9749999999999268
30
2.2204460492503131e-15
11
-23.674735179296
21
2.6250000000000968
31
2.2204460492503131e-15
0
ARC
5
117
100
AcDbEntity
8
0
100
AcDbCircle
10
-24.424735179296011
20
2.6250000000001013
30
2.2204460492503131e-15
40
0.75000000000001066
210
0
220
0
230
1
100
AcDbArc
50
0
51
89.99999999999919
0
LINE
5
118
100
AcDbEntity
8
0
100
AcDbLine
10
-24.424735179296
20
3.3750000000001021
30
2.2204460492503131e-15
11
-28.475000000175868
21
3.3750000000001275
31
0
0
LINE
5
119
100
AcDbEntity
8
0
100
AcDbLine
10
-28.475000000175868
20
3.3750000000001275
30
0
11
-28.475000000175829
21
10.075000000000136
31
0
0
CIRCLE
5
120
100
AcDbEntity
8
0
100
AcDbCircle
10
-32.850000000087896
20
-0.17499999999985083
30
2.2204460492503131e-15
40
1.1000000000000001
210
3.7056481485222866e-31
220
1.2246467991473549e-16
230
1
0
CIRCLE
5
121
100
AcDbEntity
8
0
100
AcDbCircle
10
-40.185264821055775
20
-0.17499999999980562
30
2.2204460492503131e-15
40
1.2749999999999999
210
3.7056481485222866e-31
220
1.2246467991473549e-16
230
1
0
CIRCLE
5
122
100
AcDbEntity
8
0
100
AcDbCircle
10
-32.85000000008796
20
-9.8799999999998551
30
4.4408920985006262e-15
40
0.50000000000000266
210
3.7056481485222866e-31
220
1.2246467991473549e-16
230
1
0
CIRCLE
5
123
100
AcDbEntity
8
0
100
AcDbCircle
10
-32.850000000087924
20
-4.7999999999998568
30
2.2204460492503131e-15
40
0.50000000000000266
210
3.7056481485222866e-31
220
1.2246467991473549e-16
230
1
0
CIRCLE
5
124
100
AcDbEntity
8
0
100
AcDbCircle
10
-32.850000000087839
20
9.5300000000001557
30
0
40
0.50000000000000266
210
3.7056481485222866e-31
220
1.2246467991473549e-16
230
1
0
CIRCLE
5
125
100
AcDbEntity
8
0
100
AcDbCircle
10
-32.850000000087867
20
4.4500000000001547
30
2.2204460492503131e-15
40
0.50000000000000266
210
3.7056481485222866e-31
220
1.2246467991473549e-16
230
1
0
CIRCLE
5
126
100
AcDbEntity
8
0
100
AcDbCircle
10
-32.850000000175875
20
7.0000000000001794
30
3.2959746043559335e-16
40
1.3500000000000014
210
1.0095724768481824e-30
220
7.5977165934098632e-29
230
1
0
CIRCLE
5
127
100
AcDbEntity
8
0
100
AcDbCircle
10
-32.850000000175967
20
-7.3499999999998655
30
-6.9388939039072284e-17
40
1.3500000000000014
210
-5.7192415628515733e-30
220
1.4613648269219232e-28
230
1
0
LWPOLYLINE
5
128
100
AcDbEntity
8
0
100
AcDbPolyline
90
6
70
1
43
0.0
10
-25.624735179296081
20
3.3750000000000591
42
0.41421356237309503
10
-25.824735179296088
20
3.575000000000057
10
-26.324735179296095
20
3.575000000000057
42
0.41421356237309503
10
-26.524735179296101
20
3.3750000000000591
10
-26.524735179296101
20
2.4350000000000693
10
-25.624735179296081
20
2.4350000000000693
0
LWPOLYLINE
5
129
100
AcDbEntity
8
0
100
AcDbPolyline
90
6
70
1
43
0.0
10
-25.824735179296091
20
-3.9249999999998639
42
0.41421356237309503
10
-25.624735179296088
20
-3.7249999999998664
10
-25.624735179296088
20
-2.7849999999998767
10
-26.524735179296101
20
-2.7849999999998767
10
-26.524735179296105
20
-3.7249999999998664
42
0.41421356237309503
10
-26.324735179296098
20
-3.9249999999998639
0
ENDSEC
0
SECTION
2
OBJECTS
0
DICTIONARY
5
C
100
AcDbDictionary
3
ACAD_GROUP
350
D
3
ACAD_MLINESTYLE
350
17
0
DICTIONARY
5
D
100
AcDbDictionary
0
DICTIONARY
5
1A
330
C
100
AcDbDictionary
0
DICTIONARY
5
17
100
AcDbDictionary
0
ENDSEC
0
EOF
