0
SECTION
2
HEADER
9
$INSUNITS
70
4
9
$ACADVER
1
AC1014
9
$HANDSEED
5
FFFF
0
ENDSEC
0
SECTION
2
TABLES
0
TABLE
2
VPORT
5
8
100
AcDbSymbolTable
0
ENDTAB
0
TABLE
2
LTYPE
5
5
100
AcDbSymbolTable
0
LTYPE
5
14
100
AcDbSymbolTableRecord
100
AcDbLinetypeTableRecord
2
BYBLOCK
70
0
0
LTYPE
5
15
100
AcDbSymbolTableRecord
100
AcDbLinetypeTableRecord
2
BYLAYER
70
0
0
LTYPE
5
16
100
AcDbSymbolTableRecord
100
AcDbLinetypeTableRecord
2
DASHED
70
0
3
Dashed __ __ __ __ __ __ __ __ __ __ __ __ __ _
72
65
73
2
40
0.75
49
0.5
74
0
49
-0.25
74
0
0
ENDTAB
0
TABLE
2
LAYER
5
2
100
AcDbSymbolTable
70
2
0
LAYER
5
50
100
AcDbSymbolTableRecord
100
AcDbLayerTableRecord
2
0
70
0
62
7
6
CONTINUOUS
0
ENDTAB
0
TABLE
2
STYLE
5
3
100
AcDbSymbolTable
70
1
0
STYLE
5
11
100
AcDbSymbolTableRecord
100
AcDbTextStyleTableRecord
2
STANDARD
70
0
0
ENDTAB
0
TABLE
2
VIEW
5
6
100
AcDbSymbolTable
70
0
0
ENDTAB
0
TABLE
2
UCS
5
7
100
AcDbSymbolTable
70
0
0
ENDTAB
0
TABLE
2
APPID
5
9
100
AcDbSymbolTable
70
2
0
APPID
5
12
100
AcDbSymbolTableRecord
100
AcDbRegAppTableRecord
2
ACAD
70
0
0
ENDTAB
0
TABLE
2
DIMSTYLE
5
A
100
AcDbSymbolTable
70
1
0
ENDTAB
0
TABLE
2
BLOCK_RECORD
5
1
100
AcDbSymbolTable
70
1
0
BLOCK_RECORD
5
1F
100
AcDbSymbolTableRecord
100
AcDbBlockTableRecord
2
*MODEL_SPACE
0
BLOCK_RECORD
5
1B
100
AcDbSymbolTableRecord
100
AcDbBlockTableRecord
2
*PAPER_SPACE
0
ENDTAB
0
ENDSEC
0
SECTION
2
BLOCKS
0
BLOCK
5
20
100
AcDbEntity
100
AcDbBlockBegin
2
*MODEL_SPACE
0
ENDBLK
5
21
100
AcDbEntity
100
AcDbBlockEnd
0
BLOCK
5
1C
100
AcDbEntity
100
AcDbBlockBegin
2
*PAPER_SPACE
0
ENDBLK
5
1D
100
AcDbEntity
100
AcDbBlockEnd
0
ENDSEC
0
SECTION
2
ENTITIES
0
POINT
5
100
100
AcDbEntity
8
0
100
AcDbPoint
10
0
20
0
30
0
0
ARC
5
101
100
AcDbEntity
8
0
100
AcDbCircle
10
-5.2514051604834471
20
-8.5993367843795987
30
1.7763568394002501e-14
40
0.50645285175035104
210
0
220
0
230
1
100
AcDbArc
50
211.52279340327541
51
341.31757187129602
0
ARC
5
102
100
AcDbEntity
8
0
100
AcDbCircle
10
-3.6822331930644525
20
-9.1299358672456208
30
5.1070259132757201e-14
40
1.1500000000000039
210
0
220
-0
230
1
100
AcDbArc
50
31.565572425881296
51
161.317571871296
0
SPLINE
5
103
100
AcDbEntity
8
0
100
AcDbSpline
70
0
71
3
72
12
73
8
74
0
42
0.000000001
43
0.0000000001
44
0.0000000001
40
0
40
0
40
0
40
0
40
0.019833223565539571
40
0.019833223565539571
40
0.039666447131079037
40
0.039666447131079037
40
0.059911444482646486
40
0.059911444482646486
40
0.059911444482646486
40
0.059911444482646486
10
-2.1907100028632809
20
-8.7636774266023174
30
-2.2204460492503127e-15
10
-2.2560136733840008
20
-8.7739760308699122
30
-2.2204460492503127e-15
10
-2.3227045516416722
20
-8.7714209158771403
30
-8.8817841970012507e-15
10
-2.4513530645114812
20
-8.7408908868933377
30
-6.6613381477509392e-15
10
-2.5120807492217123
20
-8.7132078566195403
30
-6.6613381477509392e-15
10
-2.6206217948164845
20
-8.6353219343580037
30
-4.4408920985006254e-15
10
-2.6670595505325645
20
-8.585439334111701
30
-4.4408920985006254e-15
10
-2.7023853183957081
20
-8.5279407322925405
30
-4.4408920985006254e-15
0
SPLINE
5
104
100
AcDbEntity
8
0
100
AcDbSpline
70
0
71
3
72
14
73
10
74
0
42
0.000000001
43
0.0000000001
44
0.0000000001
40
-1.7032152856781422
40
-1.7032152856781422
40
-1.7032152856781422
40
-1.7032152856781422
40
-1.7007393783743996
40
-1.7007393783743996
40
-1.7007393783743996
40
-1.6773922310211322
40
-1.6773922310211322
40
-1.6773922310211322
40
-1.626231398952501
40
-1.626231398952501
40
-1.626231398952501
40
-1.626231398952501
10
-1.4714209519023336
20
-8.6444553841738969
30
5.5511151231257827e-14
10
-1.4789981189853041
20
-8.6457761839622993
30
5.5511151231257827e-14
10
-1.4865756725375157
20
-8.6470948875430196
30
5.773159728050814e-14
10
-1.4941535779176918
20
-8.6484114983566762
30
5.5511151231257827e-14
10
-1.5656112101449171
20
-8.6608267881483236
30
5.773159728050814e-14
10
-1.6374900376337975
20
-8.6731237204608966
30
5.5511151231257827e-14
10
-1.7097756279997212
20
-8.685301530118128
30
5.773159728050814e-14
10
-1.8681757476746474
20
-8.7119868832752232
30
5.5511151231257827e-14
10
-2.028541027344426
20
-8.7381028441931985
30
5.5511151231257827e-14
10
-2.1907100028632986
20
-8.7636774266023174
30
5.773159728050814e-14
0
ARC
5
105
100
AcDbEntity
8
0
100
AcDbCircle
10
-2.8387609949780512
20
10.278237606737004
30
2.2204460492503127e-15
40
1.000000000000008
210
-2.464726429896183e-31
220
-4.7822411664298159e-33
230
1
100
AcDbArc
50
1.1115548392582917
51
91.000000000000028
0
LINE
5
106
100
AcDbEntity
8
0
100
AcDbLine
10
-2.8562134014153351
20
11.278085301893395
30
2.2204460492503127e-15
11
-7.8701790359656592
21
11.190566206194459
31
0
0
ARC
5
107
100
AcDbEntity
8
0
100
AcDbCircle
10
-7.8527266295283749
20
10.190718511038074
30
2.2204460492503127e-15
40
0.99999999999999267
210
-3.8752126923576908e-17
220
2.2201078645620561e-15
230
1
100
AcDbArc
50
91.000000000000057
51
180.00015227358753
0
SPLINE
5
108
100
AcDbEntity
8
0
100
AcDbSpline
70
0
71
3
72
8
73
4
74
0
42
0.000000001
43
0.0000000001
44
0.0000000001
40
-1.0442232948302126
40
-1.0442232948302126
40
-1.0442232948302126
40
-1.0442232948302126
40
-0.98277278772555621
40
-0.98277278772555621
40
-0.98277278772555621
40
-0.98277278772555621
10
-8.1937777956569668
20
-9.4531171682374282
30
5.1070259132757201e-14
10
-8.4134952011369517
20
-9.471722335744488
30
4.8849813083506888e-14
10
-8.633186686113806
20
-9.4898022123550696
30
4.8849813083506888e-14
10
-8.8526742782395793
20
-9.5073890052931418
30
5.1070259132757201e-14
0
SPLINE
5
109
100
AcDbEntity
8
0
100
AcDbSpline
70
0
71
3
72
12
73
8
74
0
42
0.000000001
43
0.0000000001
44
0.0000000001
40
0
40
0
40
0
40
0
40
0.019745350960901714
40
0.019745350960901714
40
0.03949070192180356
40
0.03949070192180356
40
0.059293819074733127
40
0.059293819074733127
40
0.059293819074733127
40
0.059293819074733127
10
-7.7561440724278601
20
-9.1069910184268643
30
2.2204460492503127e-15
10
-7.7766564472441306
20
-9.1695308464224858
30
2.2204460492503127e-15
10
-7.8091881316635492
20
-9.2274662366466309
30
-6.6613381477509392e-15
10
-7.8946278977740363
20
-9.3276061227674134
30
-8.8817841970012507e-15
10
-7.9467191287327887
20
-9.3688532267722824
30
2.2204460492503127e-15
10
-8.0639514025716217
20
-9.4291464719718618
30
4.4408920985006254e-15
10
-8.1280027976738403
20
-9.447547491804297
30
4.4408920985006254e-15
10
-8.1937777956569668
20
-9.4531171682374282
30
4.4408920985006254e-15
0
ARC
5
110
100
AcDbEntity
8
0
100
AcDbCircle
10
-6.6634189696321178
20
-9.4653928176969302
30
5.1070259132757201e-14
40
1.1500000000000057
210
2.4688432068125704e-14
220
1.5142603710537844e-14
230
1
100
AcDbArc
50
31.522793403275955
51
161.84107925469053
0
CIRCLE
5
111
100
AcDbEntity
8
0
100
AcDbCircle
10
-5.7222887071797164
20
8.0272582639200696
30
2.2204460492503127e-15
40
0.49999999999999822
210
0
220
0
230
1
0
CIRCLE
5
112
100
AcDbEntity
8
0
100
AcDbCircle
10
-5.5119269933294106
20
-4.0318026032448007
30
4.4408920985006254e-15
40
0.50000000000000711
210
0
220
0
230
1
0
LINE
5
113
100
AcDbEntity
8
0
100
AcDbLine
10
-8.8527046398696214
20
1.9167158533859774
30
1.3543829443461256e-15
11
-38.085704639766391
21
1.9166381613880379
31
1.3543829443461256e-15
0
LINE
5
114
100
AcDbEntity
8
0
100
AcDbLine
10
-38.085704639766391
20
1.9166381613880379
30
1.3543829443461256e-15
11
-38.085692680200459
21
-2.5833618385960699
31
1.3543829443461256e-15
0
LINE
5
115
100
AcDbEntity
8
0
100
AcDbLine
10
-38.085692680200459
20
-2.5833618385960699
30
1.3543829443461256e-15
11
-38.085673855843694
21
-9.6663618385460417
31
1.3543829443461256e-15
0
LINE
5
116
100
AcDbEntity
8
0
100
AcDbLine
10
-38.085673855843694
20
-9.6663618385460417
30
1.3543829443461256e-15
11
-33.750692680215771
21
-9.6663503175475629
31
1.3543829443461256e-15
0
LINE
5
117
100
AcDbEntity
8
0
100
AcDbLine
10
-33.750692680215771
20
-9.6663503175475629
30
1.3543829443461256e-15
11
-33.750692680215771
21
-2.5833503175475614
31
1.3543829443461256e-15
0
LINE
5
118
100
AcDbEntity
8
0
100
AcDbLine
10
-33.750692680215771
20
-2.5833503175475614
30
1.3543829443461256e-15
11
-8.8526926803036954
21
-2.5832841465981238
31
1.3543829443461256e-15
0
LINE
5
119
100
AcDbEntity
8
0
100
AcDbLine
10
-8.8527266295248435
20
10.190715853356757
30
2.2204460492503127e-15
11
-8.8527046398696214
21
1.9167158533859774
31
1.3543829443461256e-15
0
LINE
5
120
100
AcDbEntity
8
0
100
AcDbLine
10
-8.8526926803036954
20
-2.5832841465981238
30
1.3543829443461256e-15
11
-8.852674278239574
21
-9.5073890052931365
31
0
0
ARC
5
121
100
AcDbEntity
8
0
100
AcDbCircle
10
3.6822331930644525
20
-9.1299358672456208
30
5.1070259132757201e-14
40
1.1500000000000019
210
2.7436272414494745e-14
220
9.2772884570057475e-15
230
1
100
AcDbArc
50
18.68242812870399
51
148.4344275741187
0
LINE
5
122
100
AcDbEntity
8
0
100
AcDbLine
10
8.8527266295248435
20
10.190715853356757
30
2.2204460492503127e-15
11
8.8527046398696214
21
1.9167158533859774
31
1.3543829443461256e-15
0
LINE
5
123
100
AcDbEntity
8
0
100
AcDbLine
10
38.085673855843694
20
-9.6663618385460417
30
1.3543829443461256e-15
11
33.750692680215771
21
-9.6663503175475629
31
1.3543829443461256e-15
0
LINE
5
124
100
AcDbEntity
8
0
100
AcDbLine
10
38.085692680200459
20
-2.5833618385960699
30
1.3543829443461256e-15
11
38.085673855843694
21
-9.6663618385460417
31
1.3543829443461256e-15
0
LINE
5
125
100
AcDbEntity
8
0
100
AcDbLine
10
33.750692680215771
20
-2.5833503175475614
30
1.3543829443461256e-15
11
8.8526926803036954
21
-2.5832841465981238
31
1.3543829443461256e-15
0
CIRCLE
5
126
100
AcDbEntity
8
0
100
AcDbCircle
10
5.5119269933294106
20
-4.0318026032448007
30
4.4408920985006254e-15
40
0.50000000000000711
210
0
220
0
230
1
0
ARC
5
127
100
AcDbEntity
8
0
100
AcDbCircle
10
6.6634189696321178
20
-9.4653928176969302
30
5.1070259132757201e-14
40
1.150000000000003
210
-2.0862710258339543e-15
220
6.3607959720267693e-15
230
1
100
AcDbArc
50
18.158920745309484
51
148.47720659672405
0
ARC
5
128
100
AcDbEntity
8
0
100
AcDbCircle
10
7.8527266295283749
20
10.190718511038074
30
2.2204460492503127e-15
40
0.99999999999999978
210
5.9003389201707419e-21
220
2.2201077615555715e-15
230
1
100
AcDbArc
50
-0.00015227358753826475
51
88.999999999999957
0
SPLINE
5
129
100
AcDbEntity
8
0
100
AcDbSpline
70
0
71
3
72
14
73
10
74
0
42
0.000000001
43
0.0000000001
44
0.0000000001
40
-1.7032152856781422
40
-1.7032152856781422
40
-1.7032152856781422
40
-1.7032152856781422
40
-1.7007393783743996
40
-1.7007393783743996
40
-1.7007393783743996
40
-1.6773922310211322
40
-1.6773922310211322
40
-1.6773922310211322
40
-1.626231398952501
40
-1.626231398952501
40
-1.626231398952501
40
-1.626231398952501
10
1.4714209519023336
20
-8.6444553841738969
30
5.5511151231257827e-14
10
1.4789981189853041
20
-8.6457761839622993
30
5.5511151231257827e-14
10
1.4865756725375157
20
-8.6470948875430196
30
5.773159728050814e-14
10
1.4941535779176918
20
-8.6484114983566762
30
5.5511151231257827e-14
10
1.5656112101449171
20
-8.6608267881483236
30
5.773159728050814e-14
10
1.6374900376337975
20
-8.6731237204608966
30
5.5511151231257827e-14
10
1.7097756279997212
20
-8.685301530118128
30
5.773159728050814e-14
10
1.8681757476746474
20
-8.7119868832752232
30
5.5511151231257827e-14
10
2.028541027344426
20
-8.7381028441931985
30
5.5511151231257827e-14
10
2.1907100028632986
20
-8.7636774266023174
30
5.773159728050814e-14
0
SPLINE
5
130
100
AcDbEntity
8
0
100
AcDbSpline
70
0
71
3
72
12
73
8
74
0
42
0.000000001
43
0.0000000001
44
0.0000000001
40
0
40
0
40
0
40
0
40
0.019833223565539571
40
0.019833223565539571
40
0.039666447131079037
40
0.039666447131079037
40
0.059911444482646486
40
0.059911444482646486
40
0.059911444482646486
40
0.059911444482646486
10
2.1907100028632809
20
-8.7636774266023174
30
-2.2204460492503127e-15
10
2.2560136733840008
20
-8.7739760308699122
30
-2.2204460492503127e-15
10
2.3227045516416722
20
-8.7714209158771403
30
-8.8817841970012507e-15
10
2.4513530645114812
20
-8.7408908868933377
30
-6.6613381477509392e-15
10
2.5120807492217123
20
-8.7132078566195403
30
-6.6613381477509392e-15
10
2.6206217948164845
20
-8.6353219343580037
30
-4.4408920985006254e-15
10
2.6670595505325645
20
-8.585439334111701
30
-4.4408920985006254e-15
10
2.7023853183957081
20
-8.5279407322925405
30
-4.4408920985006254e-15
0
ARC
5
131
100
AcDbEntity
8
0
100
AcDbCircle
10
2.8387609949780512
20
10.278237606737004
30
2.2204460492503127e-15
40
0.99999999999999933
210
-2.4631412184738844e-31
220
4.2994289895831498e-33
230
1
100
AcDbArc
50
88.999999999999986
51
178.88844516074172
0
CIRCLE
5
132
100
AcDbEntity
8
0
100
AcDbCircle
10
5.7222887071797164
20
8.0272582639200696
30
2.2204460492503127e-15
40
0.49999999999999822
210
0
220
0
230
1
0
LINE
5
133
100
AcDbEntity
8
0
100
AcDbLine
10
8.8526926803036954
20
-2.5832841465981238
30
1.3543829443461256e-15
11
8.852674278239574
21
-9.5073890052931365
31
0
0
LINE
5
134
100
AcDbEntity
8
0
100
AcDbLine
10
38.085704639766391
20
1.9166381613880379
30
1.3543829443461256e-15
11
38.085692680200459
21
-2.5833618385960699
31
1.3543829443461256e-15
0
SPLINE
5
135
100
AcDbEntity
8
0
100
AcDbSpline
70
0
71
3
72
12
73
8
74
0
42
0.000000001
43
0.0000000001
44
0.0000000001
40
0
40
0
40
0
40
0
40
0.019745350960901714
40
0.019745350960901714
40
0.03949070192180356
40
0.03949070192180356
40
0.059293819074733127
40
0.059293819074733127
40
0.059293819074733127
40
0.059293819074733127
10
7.7561440724278601
20
-9.1069910184268643
30
2.2204460492503127e-15
10
7.7766564472441306
20
-9.1695308464224858
30
2.2204460492503127e-15
10
7.8091881316635492
20
-9.2274662366466309
30
-6.6613381477509392e-15
10
7.8946278977740363
20
-9.3276061227674134
30
-8.8817841970012507e-15
10
7.9467191287327887
20
-9.3688532267722824
30
2.2204460492503127e-15
10
8.0639514025716217
20
-9.4291464719718618
30
4.4408920985006254e-15
10
8.1280027976738403
20
-9.447547491804297
30
4.4408920985006254e-15
10
8.1937777956569668
20
-9.4531171682374282
30
4.4408920985006254e-15
0
LINE
5
136
100
AcDbEntity
8
0
100
AcDbLine
10
33.750692680215771
20
-9.6663503175475629
30
1.3543829443461256e-15
11
33.750692680215771
21
-2.5833503175475614
31
1.3543829443461256e-15
0
LINE
5
137
100
AcDbEntity
8
0
100
AcDbLine
10
8.8527046398696214
20
1.9167158533859774
30
1.3543829443461256e-15
11
38.085704639766391
21
1.9166381613880379
31
1.3543829443461256e-15
0
SPLINE
5
138
100
AcDbEntity
8
0
100
AcDbSpline
70
0
71
3
72
8
73
4
74
0
42
0.000000001
43
0.0000000001
44
0.0000000001
40
-1.0442232948302126
40
-1.0442232948302126
40
-1.0442232948302126
40
-1.0442232948302126
40
-0.98277278772555621
40
-0.98277278772555621
40
-0.98277278772555621
40
-0.98277278772555621
10
8.1937777956569668
20
-9.4531171682374282
30
5.1070259132757201e-14
10
8.4134952011369517
20
-9.471722335744488
30
4.8849813083506888e-14
10
8.633186686113806
20
-9.4898022123550696
30
4.8849813083506888e-14
10
8.8526742782395793
20
-9.5073890052931418
30
5.1070259132757201e-14
0
ARC
5
139
100
AcDbEntity
8
0
100
AcDbCircle
10
5.2514051604834471
20
-8.5993367843795987
30
1.7763568394002501e-14
40
0.50645285175034593
210
0
220
0
230
1
100
AcDbArc
50
198.682428128704
51
328.47720659672461
0
LINE
5
140
100
AcDbEntity
8
0
100
AcDbLine
10
2.8562134014153351
20
11.278085301893395
30
2.2204460492503127e-15
11
7.8701790359656592
21
11.190566206194459
31
0
0
LINE
5
141
100
AcDbEntity
8
0
100
AcDbLine
10
0
20
6.7846246112032995
30
0
11
1.7701207740924363
21
6.7502794427791759
31
0
0
LINE
5
142
100
AcDbEntity
8
0
100
AcDbLine
10
0
20
6.7846246112032995
30
0
11
-1.7701207740924363
21
6.7502794427791759
31
0
0
LWPOLYLINE
5
143
100
AcDbEntity
8
0
100
AcDbPolyline
90
6
70
1
43
0.0
10
0
20
4.9965780460685805
10
-1.7360941863492771
20
4.9965780460685805
10
-1.5373731561213284
20
-5.2453348632440395
10
0
20
-5.2453348632440395
10
1.5373731561213284
20
-5.2453348632440395
10
1.7360941863492771
20
4.9965780460685805
0
LINE
5
144
100
AcDbEntity
8
0
100
AcDbLine
10
0
20
-7.1087340593140871
30
0
11
1.5012181320308309
21
-7.1087340593140871
31
0
0
LINE
5
145
100
AcDbEntity
8
0
100
AcDbLine
10
0
20
-7.1087340593140871
30
0
11
-1.5012181320308309
21
-7.1087340593140871
31
0
0
LINE
5
146
100
AcDbEntity
8
0
100
AcDbLine
10
-1.7701207740924363
20
6.7502794427791759
30
0
11
-1.8389491747360265
21
10.297636681569202
31
2.2204460492503131e-15
0
LINE
5
147
100
AcDbEntity
8
0
100
AcDbLine
10
1.7701207740924363
20
6.7502794427791759
30
0
11
1.8389491747360265
21
10.297636681569202
31
2.2204460492503131e-15
0
LINE
5
148
100
AcDbEntity
8
0
100
AcDbLine
10
1.4714209519023336
20
-8.6444553841738969
30
5.5511151231257827e-14
11
1.5012181320308309
21
-7.1087340593140871
31
0
0
LINE
5
149
100
AcDbEntity
8
0
100
AcDbLine
10
-1.4714209519023336
20
-8.6444553841738969
30
5.5511151231257827e-14
11
-1.5012181320308309
21
-7.1087340593140871
31
0
0
ENDSEC
0
SECTION
2
OBJECTS
0
DICTIONARY
5
C
100
AcDbDictionary
3
ACAD_GROUP
350
D
3
ACAD_MLINESTYLE
350
17
0
DICTIONARY
5
D
100
AcDbDictionary
0
DICTIONARY
5
1A
330
C
100
AcDbDictionary
0
DICTIONARY
5
17
100
AcDbDictionary
0
ENDSEC
0
EOF
