0
SECTION
2
HEADER
9
$INSUNITS
70
4
9
$ACADVER
1
AC1014
9
$HANDSEED
5
FFFF
0
ENDSEC
0
SECTION
2
TABLES
0
TABLE
2
VPORT
5
8
100
AcDbSymbolTable
0
ENDTAB
0
TABLE
2
LTYPE
5
5
100
AcDbSymbolTable
0
LTYPE
5
14
100
AcDbSymbolTableRecord
100
AcDbLinetypeTableRecord
2
BYBLOCK
70
0
0
LTYPE
5
15
100
AcDbSymbolTableRecord
100
AcDbLinetypeTableRecord
2
BYLAYER
70
0
0
LTYPE
5
16
100
AcDbSymbolTableRecord
100
AcDbLinetypeTableRecord
2
DASHED
70
0
3
Dashed __ __ __ __ __ __ __ __ __ __ __ __ __ _
72
65
73
2
40
0.75
49
0.5
74
0
49
-0.25
74
0
0
ENDTAB
0
TABLE
2
LAYER
5
2
100
AcDbSymbolTable
70
2
0
LAYER
5
50
100
AcDbSymbolTableRecord
100
AcDbLayerTableRecord
2
0
70
0
62
7
6
CONTINUOUS
0
ENDTAB
0
TABLE
2
STYLE
5
3
100
AcDbSymbolTable
70
1
0
STYLE
5
11
100
AcDbSymbolTableRecord
100
AcDbTextStyleTableRecord
2
STANDARD
70
0
0
ENDTAB
0
TABLE
2
VIEW
5
6
100
AcDbSymbolTable
70
0
0
ENDTAB
0
TABLE
2
UCS
5
7
100
AcDbSymbolTable
70
0
0
ENDTAB
0
TABLE
2
APPID
5
9
100
AcDbSymbolTable
70
2
0
APPID
5
12
100
AcDbSymbolTableRecord
100
AcDbRegAppTableRecord
2
ACAD
70
0
0
ENDTAB
0
TABLE
2
DIMSTYLE
5
A
100
AcDbSymbolTable
70
1
0
ENDTAB
0
TABLE
2
BLOCK_RECORD
5
1
100
AcDbSymbolTable
70
1
0
BLOCK_RECORD
5
1F
100
AcDbSymbolTableRecord
100
AcDbBlockTableRecord
2
*MODEL_SPACE
0
BLOCK_RECORD
5
1B
100
AcDbSymbolTableRecord
100
AcDbBlockTableRecord
2
*PAPER_SPACE
0
ENDTAB
0
ENDSEC
0
SECTION
2
BLOCKS
0
BLOCK
5
20
100
AcDbEntity
100
AcDbBlockBegin
2
*MODEL_SPACE
0
ENDBLK
5
21
100
AcDbEntity
100
AcDbBlockEnd
0
BLOCK
5
1C
100
AcDbEntity
100
AcDbBlockBegin
2
*PAPER_SPACE
0
ENDBLK
5
1D
100
AcDbEntity
100
AcDbBlockEnd
0
ENDSEC
0
SECTION
2
ENTITIES
0
ARC
5
100
100
AcDbEntity
8
0
100
AcDbCircle
10
-6.4519956827290379
20
-22.345646642524478
30
0
40
0.40000000000000024
210
0
220
0
230
1
100
AcDbArc
50
197.71908662165691
51
269.99999999999972
0
LINE
5
101
100
AcDbEntity
8
0
100
AcDbLine
10
-6.4519956827290397
20
-22.745646642524481
30
0
11
-5.6999988158455128
21
-22.745646642524481
31
0
0
ARC
5
102
100
AcDbEntity
8
0
100
AcDbCircle
10
-5.6999988158455119
20
-23.145646642524479
30
0
40
0.40000000000000036
210
0
220
0
230
1
100
AcDbArc
50
0
51
90.000000000000128
0
LINE
5
103
100
AcDbEntity
8
0
100
AcDbLine
10
-5.2999988158455116
20
-23.145646642524479
30
0
11
-5.2999988158455116
21
-27.400000000000002
31
0
0
ARC
5
104
100
AcDbEntity
8
0
100
AcDbCircle
10
-4.7999988158455107
20
-27.400000000000002
30
0
40
0.50000000000000044
210
0
220
0
230
1
100
AcDbArc
50
180
51
270
0
LINE
5
105
100
AcDbEntity
8
0
100
AcDbLine
10
-4.7999988158455107
20
-27.899999999999999
30
0
11
4.8000011841544543
21
-27.899999999999999
31
0
0
ARC
5
106
100
AcDbEntity
8
0
100
AcDbCircle
10
4.8000011841544534
20
-27.400000000000002
30
-8.5209617139980764e-14
40
0.49999999999999822
210
-1.892033577366034e-28
220
1.7041923427996213e-13
230
1
100
AcDbArc
50
-89.999999999999901
51
0
0
LINE
5
107
100
AcDbEntity
8
0
100
AcDbLine
10
5.3000011841544534
20
-27.400000000000002
30
-9.1524010592536342e-14
11
5.3000011841544525
21
-23.145646642524479
31
0
0
ARC
5
108
100
AcDbEntity
8
0
100
AcDbCircle
10
5.7000011841544529
20
-23.145646642524479
30
-1.0130785099704553e-13
40
0.40000000000000036
210
0
220
-1.2316536679435319e-14
230
1
100
AcDbArc
50
90
51
180
0
LINE
5
109
100
AcDbEntity
8
0
100
AcDbLine
10
5.7000011841544529
20
-22.745646642524481
30
-9.6381236325271402e-14
11
6.451995682729037
21
-22.745646642524481
31
0
0
ARC
5
110
100
AcDbEntity
8
0
100
AcDbCircle
10
6.4519956827290379
20
-22.345646642524478
30
0
40
0.40000000000000036
210
0
220
0
230
1
100
AcDbArc
50
269.99999999999989
51
342.28091337834303
0
ARC
5
111
100
AcDbEntity
8
0
100
AcDbCircle
10
8.4999999999999982
20
-23.000000000000014
30
0
40
1.7499999999999982
210
0
220
-0
230
1
100
AcDbArc
50
90
51
162.28091337834314
0
LINE
5
112
100
AcDbEntity
8
0
100
AcDbLine
10
8.4999999999999982
20
-21.250000000000018
30
0
11
10.892199636520864
21
-21.250000000000018
31
0
0
ARC
5
113
100
AcDbEntity
8
0
100
AcDbCircle
10
10.892199636520864
20
-16.250000000000018
30
0
40
5
210
0
220
0
230
1
100
AcDbArc
50
270
51
278.18622586292895
0
LINE
5
114
100
AcDbEntity
8
0
100
AcDbLine
10
11.604154553411695
20
-21.199052454391158
30
0
11
20.392390983378164
21
-19.934804763590826
31
0
0
ARC
5
115
100
AcDbEntity
8
0
100
AcDbCircle
10
20.25
20
-18.944994272712595
30
0
40
1.0000000000000029
210
0
220
0
230
1
100
AcDbArc
50
-81.813774137071292
51
0
0
LINE
5
116
100
AcDbEntity
8
0
100
AcDbLine
10
21.25
20
-18.944994272712595
30
0
11
21.25
21
-11.029352544021059
31
0
0
SPLINE
5
117
100
AcDbEntity
8
0
100
AcDbSpline
70
0
71
3
72
16
73
12
74
0
42
0.000000001
43
0.0000000001
44
0.0000000001
40
0
40
0
40
0
40
0
40
0.052700314157475073
40
0.052700314157475073
40
0.10558847309284772
40
0.10558847309284772
40
0.15725324531275275
40
0.15725324531275275
40
0.19344610355105524
40
0.19344610355105524
40
0.22684758187947299
40
0.22684758187947299
40
0.22684758187947299
40
0.22684758187947299
10
22.751916329071822
20
-9.7086529792193481
30
-6.9388939039072284e-17
10
22.577690825873297
20
-9.6861892367127211
30
-6.9388939039072284e-17
10
22.400729913631693
20
-9.6984214407695415
30
-1.3877787807814457e-16
10
22.061170428027211
20
-9.7910297957034444
30
-1.3877787807814457e-16
10
21.901981241107123
20
-9.8707334133293649
30
-1.3877787807814457e-16
10
21.627118124707234
20
-10.084998033342014
30
-1.3877787807814457e-16
10
21.513114987153841
20
-10.216226754421809
30
0
10
21.367121329646082
20
-10.470100955701948
30
0
10
21.321469895088562
20
-10.582373833822775
30
0
10
21.263963550842423
20
-10.807114264729979
30
0
10
21.25
20
-10.918014282926332
30
0
10
21.25
20
-11.029352544021059
30
0
0
ARC
5
118
100
AcDbEntity
8
0
100
AcDbCircle
10
23.21119683472881
20
-6.146540513598139
30
1.700029006457271e-14
40
3.5915990590001208
210
-6.0775377914209984e-16
220
-4.7136494713914904e-15
230
1
100
AcDbArc
50
262.65310928446172
51
327.19436863588214
0
ARC
5
119
100
AcDbEntity
8
0
100
AcDbCircle
10
25.809727138883531
20
-7.8215405135981397
30
0
40
0.50000000000000133
210
-4.5491417480603489e-15
220
2.9323546528658748e-15
230
1
100
AcDbArc
50
-32.805631364117986
51
90
0
LINE
5
120
100
AcDbEntity
8
0
100
AcDbLine
10
25.809727138883531
20
-7.3215405135981388
30
0
11
24.017164452323062
21
-7.3215405135981388
31
1.3183898417423734e-14
0
ARC
5
121
100
AcDbEntity
8
0
100
AcDbCircle
10
24.017164452323062
20
-6.1465405135981381
30
1.3183898417423734e-14
40
1.1750000000000016
210
0
220
-0
230
1
100
AcDbArc
50
90
51
270
0
LINE
5
122
100
AcDbEntity
8
0
100
AcDbLine
10
24.017164452323062
20
-4.9715405135981356
30
1.3183898417423734e-14
11
25.809727138883531
21
-4.9715405135981356
31
4.649058915617843e-15
0
ARC
5
123
100
AcDbEntity
8
0
100
AcDbCircle
10
25.809727138883531
20
-4.4715405135981365
30
0
40
0.49999999999999878
210
0
220
9.2981178312357097e-15
230
1
100
AcDbArc
50
-90
51
32.805631364117907
0
ARC
5
124
100
AcDbEntity
8
0
100
AcDbCircle
10
23.21119683472881
20
-6.146540513598139
30
1.700029006457271e-14
40
3.5915990590001217
210
3.9784426492459732e-15
220
2.5644847885099862e-15
230
1
100
AcDbArc
50
32.8056313641179
51
77.032192122004943
0
ARC
5
125
100
AcDbEntity
8
0
100
AcDbCircle
10
24.75
20
-0.78563964034856126
30
0
40
2.0000000000000018
210
0
220
0
230
1
100
AcDbArc
50
180
51
248.50513899764101
0
LINE
5
126
100
AcDbEntity
8
0
100
AcDbLine
10
22.75
20
-0.78563964034856149
30
0
11
22.75
21
2.7500000000000036
31
0
0
ARC
5
127
100
AcDbEntity
8
0
100
AcDbCircle
10
20.749999999999996
20
2.7500000000000036
30
0
40
2.0000000000000018
210
0
220
0
230
1
100
AcDbArc
50
0
51
90
0
LINE
5
128
100
AcDbEntity
8
0
100
AcDbLine
10
20.749999999999996
20
4.7500000000000044
30
0
11
-20.749999999999996
21
4.7500000000000036
31
0
0
ARC
5
129
100
AcDbEntity
8
0
100
AcDbCircle
10
-20.749999999999996
20
2.7500000000000027
30
0
40
2.0000000000000009
210
0
220
-0
230
1
100
AcDbArc
50
90
51
180
0
LINE
5
130
100
AcDbEntity
8
0
100
AcDbLine
10
-22.75
20
2.7500000000000018
30
0
11
-22.75
21
-4.5421808914735449
31
0
0
ARC
5
131
100
AcDbEntity
8
0
100
AcDbCircle
10
-22.25
20
-4.5421808914735449
30
0
40
0.49999999999999822
210
0
220
0
230
1
100
AcDbArc
50
180
51
270
0
LINE
5
132
100
AcDbEntity
8
0
100
AcDbLine
10
-22.25
20
-5.042180891473544
30
0
11
-21.786730267595086
21
-5.042180891473544
31
0
0
ARC
5
133
100
AcDbEntity
8
0
100
AcDbCircle
10
-21.786730267595086
20
-4.5421808914735466
30
0
40
0.49999999999999767
210
0
220
0
230
1
100
AcDbArc
50
-90
51
0
0
LINE
5
134
100
AcDbEntity
8
0
100
AcDbLine
10
-21.28673026759509
20
-4.542180891473544
30
0
11
-21.28673026759509
21
-2.5421808914735431
31
0
0
ARC
5
135
100
AcDbEntity
8
0
100
AcDbCircle
10
-20.28673026759509
20
-2.5421808914735431
30
0
40
1.0000000000000009
210
0
220
0
230
1
100
AcDbArc
50
0
51
180
0
LINE
5
136
100
AcDbEntity
8
0
100
AcDbLine
10
-19.286730267595086
20
-2.5421808914735431
30
0
11
-19.286730267595086
21
-6.0421808914735404
31
0
0
ARC
5
137
100
AcDbEntity
8
0
100
AcDbCircle
10
-19.78673026759509
20
-6.0421808914735404
30
0
40
0.50000000000000266
210
0
220
0
230
1
100
AcDbArc
50
-90
51
0
0
LINE
5
138
100
AcDbEntity
8
0
100
AcDbLine
10
-19.78673026759509
20
-6.542180891473544
30
0
11
-22.25
21
-6.5421808914735449
31
0
0
ARC
5
139
100
AcDbEntity
8
0
100
AcDbCircle
10
-22.25
20
-7.042180891473544
30
0
40
0.49999999999999933
210
0
220
-0
230
1
100
AcDbArc
50
90
51
180
0
LINE
5
140
100
AcDbEntity
8
0
100
AcDbLine
10
-22.75
20
-7.042180891473544
30
0
11
-22.75
21
-8.3963358439939952
31
0
0
ARC
5
141
100
AcDbEntity
8
0
100
AcDbCircle
10
-22.25
20
-8.3963358439939952
30
0
40
0.49999999999999822
210
0
220
0
230
1
100
AcDbArc
50
180
51
270
0
LINE
5
142
100
AcDbEntity
8
0
100
AcDbLine
10
-22.25
20
-8.896335843993997
30
0
11
-20.980083816618613
21
-8.896335843993997
31
9.0205620750793969e-15
0
ARC
5
143
100
AcDbEntity
8
0
100
AcDbCircle
10
-20.980083816618613
20
-10.071335843993998
30
0
40
1.1750000000000016
210
0
220
0
230
1
100
AcDbArc
50
-90
51
90
0
LINE
5
144
100
AcDbEntity
8
0
100
AcDbLine
10
-20.980083816618613
20
-11.246335843994
30
0
11
-22.249999999999996
21
-11.246335843994002
31
0
0
ARC
5
145
100
AcDbEntity
8
0
100
AcDbCircle
10
-22.249999999999996
20
-11.746335843994
30
0
40
0.49999999999999822
210
0
220
-0
230
1
100
AcDbArc
50
90
51
180
0
LINE
5
146
100
AcDbEntity
8
0
100
AcDbLine
10
-22.749999999999993
20
-11.746335843994
30
0
11
-22.75
21
-18.729209052172308
31
1.3877787807814457e-16
0
ARC
5
147
100
AcDbEntity
8
0
100
AcDbCircle
10
-21.75
20
-18.729209052172308
30
0
40
1.0000000000000009
210
1.3877787807814444e-16
220
0
230
1
100
AcDbArc
50
180
51
261.81377413707162
0
LINE
5
148
100
AcDbEntity
8
0
100
AcDbLine
10
-21.892390983378156
20
-19.719019543050536
30
0
11
-11.604154553411693
21
-21.199052454391158
31
6.9388939039072284e-17
0
ARC
5
149
100
AcDbEntity
8
0
100
AcDbCircle
10
-10.892199636520862
20
-16.250000000000018
30
0
40
5
210
1.9760718530682203e-18
220
1.3736379962356717e-17
230
1
100
AcDbArc
50
261.81377413707111
51
270
0
LINE
5
150
100
AcDbEntity
8
0
100
AcDbLine
10
-10.892199636520862
20
-21.250000000000018
30
0
11
-8.4999999999999982
21
-21.250000000000018
31
0
0
ARC
5
151
100
AcDbEntity
8
0
100
AcDbCircle
10
-8.4999999999999982
20
-23.000000000000014
30
0
40
1.75
210
0
220
-0
230
1
100
AcDbArc
50
17.719086621656853
51
90
0
CIRCLE
5
152
100
AcDbEntity
8
0
100
AcDbCircle
10
3.6000011841544799
20
-21.310213416841957
30
0
40
0.27500000000000024
210
0
220
0
230
1
0
CIRCLE
5
153
100
AcDbEntity
8
0
100
AcDbCircle
10
-3.5999988158455221
20
-21.310213416841965
30
0
40
0.27500000000000024
210
0
220
0
230
1
0
CIRCLE
5
154
100
AcDbEntity
8
0
100
AcDbCircle
10
-6.0765994919245925
20
-18.86551455813289
30
0
40
0.75000000000000011
210
0
220
0
230
1
0
CIRCLE
5
155
100
AcDbEntity
8
0
100
AcDbCircle
10
20.025466646780679
20
1.250000000000004
30
0
40
1.4999999999999991
210
0
220
0
230
1
0
CIRCLE
5
156
100
AcDbEntity
8
0
100
AcDbCircle
10
6.0765994919245925
20
-20.856964859950612
30
0
40
0.74999999999999956
210
0
220
0
230
1
0
LINE
5
157
100
AcDbEntity
8
0
100
AcDbLine
10
5.2236637135454895
20
-19.733167834644902
30
-2.2611479677380467e-15
11
5.2236637135454984
21
-14.533167834644885
31
-1.6927459401135114e-15
0
LINE
5
158
100
AcDbEntity
8
0
100
AcDbLine
10
19.773663713545485
20
-19.733167834644931
30
-2.5512565307595281e-15
11
5.2236637135454895
21
-19.733167834644902
31
-2.2611479677380467e-15
0
LINE
5
159
100
AcDbEntity
8
0
100
AcDbLine
10
19.773663713545492
20
-14.53316783464491
30
-1.9828545031350045e-15
11
19.773663713545485
21
-19.733167834644931
31
-2.5512565307595281e-15
0
LINE
5
160
100
AcDbEntity
8
0
100
AcDbLine
10
19.773663713545513
20
-3.1331678346448708
30
-7.3674236565046392e-16
11
19.77366371354551
21
-4.5331678346448738
31
-8.8977368078014654e-16
0
LINE
5
161
100
AcDbEntity
8
0
100
AcDbLine
10
5.2236637135455188
20
-3.1331678346448424
30
-4.4663380262896281e-16
11
19.773663713545513
21
-3.1331678346448708
31
-7.3674236565046392e-16
0
LINE
5
162
100
AcDbEntity
8
0
100
AcDbLine
10
5.2236637135455162
20
-4.5331678346448454
30
-5.9966511775864346e-16
11
5.2236637135455188
21
-3.1331678346448424
31
-4.4663380262896281e-16
0
LWPOLYLINE
5
163
100
AcDbEntity
8
0
100
AcDbPolyline
90
4
70
1
43
0.0
10
-15.699844253587962
20
-7.4991485644590492
10
-7.1615011989087769
20
-7.4991485644590492
10
-7.1615011989087769
20
0.41724255186030179
10
-15.699844253587962
20
0.41724255186030179
0
CIRCLE
5
164
100
AcDbEntity
8
0
100
AcDbCircle
10
20.025466646780679
20
1.250000000000004
30
0
40
3.7014317276868809
210
0
220
0
230
1
0
CIRCLE
5
165
100
AcDbEntity
8
0
100
AcDbCircle
10
-20.980083816618613
20
-10.071335843993998
30
0
40
3.7616138525878933
210
0
220
0
230
1
0
CIRCLE
5
166
100
AcDbEntity
8
0
100
AcDbCircle
10
24.017164452323062
20
-6.1465405135981381
30
1.3183898417423734e-14
40
3.8580997947000037
210
0
220
0
230
1
0
LWPOLYLINE
5
167
100
AcDbEntity
8
0
100
AcDbPolyline
90
6
70
1
43
0.0
10
10.458346231330804
20
1.8474944912703006
42
0.41421356237309587
10
10.258346231330805
20
2.0474944912703013
10
9.3183462313308034
20
2.0474944912703035
10
9.3183462313308016
20
1.1474944912703036
10
10.258346231330801
20
1.1474944912703013
42
0.41421356237309748
10
10.458346231330804
20
1.3474944912703011
0
LWPOLYLINE
5
168
100
AcDbEntity
8
0
100
AcDbPolyline
90
6
70
1
43
0.0
10
-2.8416537686691941
20
2.0474944912703346
42
0.41421356237309503
10
-3.0416537686691947
20
1.8474944912703353
10
-3.041653768669196
20
1.3474944912703353
42
0.41421356237309465
10
-2.8416537686691963
20
1.1474944912703349
10
-1.9016537686691961
20
1.1474944912703324
10
-1.9016537686691937
20
2.0474944912703323
0
ENDSEC
0
SECTION
2
OBJECTS
0
DICTIONARY
5
C
100
AcDbDictionary
3
ACAD_GROUP
350
D
3
ACAD_MLINESTYLE
350
17
0
DICTIONARY
5
D
100
AcDbDictionary
0
DICTIONARY
5
1A
330
C
100
AcDbDictionary
0
DICTIONARY
5
17
100
AcDbDictionary
0
ENDSEC
0
EOF
