%TF.GenerationSoftware,KiCad,Pcbnew,8.0.2*%
%TF.CreationDate,2025-05-18T15:38:24-07:00*%
%TF.ProjectId,PGS_Main_Board,5047535f-4d61-4696-9e5f-426f6172642e,rev?*%
%TF.SameCoordinates,Original*%
%TF.FileFunction,Soldermask,Top*%
%TF.FilePolarity,Negative*%
%FSLAX46Y46*%
G04 Gerber Fmt 4.6, Leading zero omitted, Abs format (unit mm)*
G04 Created by KiCad (PCBNEW 8.0.2) date 2025-05-18 15:38:24*
%MOMM*%
%LPD*%
G01*
G04 APERTURE LIST*
G04 Aperture macros list*
%AMRoundRect*
0 Rectangle with rounded corners*
0 $1 Rounding radius*
0 $2 $3 $4 $5 $6 $7 $8 $9 X,Y pos of 4 corners*
0 Add a 4 corners polygon primitive as box body*
4,1,4,$2,$3,$4,$5,$6,$7,$8,$9,$2,$3,0*
0 Add four circle primitives for the rounded corners*
1,1,$1+$1,$2,$3*
1,1,$1+$1,$4,$5*
1,1,$1+$1,$6,$7*
1,1,$1+$1,$8,$9*
0 Add four rect primitives between the rounded corners*
20,1,$1+$1,$2,$3,$4,$5,0*
20,1,$1+$1,$4,$5,$6,$7,0*
20,1,$1+$1,$6,$7,$8,$9,0*
20,1,$1+$1,$8,$9,$2,$3,0*%
G04 Aperture macros list end*
%ADD10C,3.356250*%
%ADD11C,2.400000*%
%ADD12R,0.370000X0.370000*%
%ADD13RoundRect,0.100000X0.225000X0.100000X-0.225000X0.100000X-0.225000X-0.100000X0.225000X-0.100000X0*%
%ADD14RoundRect,0.150000X0.150000X0.200000X-0.150000X0.200000X-0.150000X-0.200000X0.150000X-0.200000X0*%
%ADD15R,0.850000X0.850000*%
%ADD16RoundRect,0.150000X-0.150000X-0.200000X0.150000X-0.200000X0.150000X0.200000X-0.150000X0.200000X0*%
%ADD17RoundRect,0.150000X0.200000X-0.150000X0.200000X0.150000X-0.200000X0.150000X-0.200000X-0.150000X0*%
%ADD18RoundRect,0.100000X0.130000X0.100000X-0.130000X0.100000X-0.130000X-0.100000X0.130000X-0.100000X0*%
%ADD19RoundRect,0.100000X0.100000X-0.225000X0.100000X0.225000X-0.100000X0.225000X-0.100000X-0.225000X0*%
%ADD20R,0.750000X1.000000*%
%ADD21RoundRect,0.100000X-0.130000X-0.100000X0.130000X-0.100000X0.130000X0.100000X-0.130000X0.100000X0*%
%ADD22RoundRect,0.100000X-0.225000X-0.100000X0.225000X-0.100000X0.225000X0.100000X-0.225000X0.100000X0*%
%ADD23RoundRect,0.100000X-0.100000X0.130000X-0.100000X-0.130000X0.100000X-0.130000X0.100000X0.130000X0*%
%ADD24R,1.000000X0.750000*%
%ADD25RoundRect,0.100000X0.100000X-0.130000X0.100000X0.130000X-0.100000X0.130000X-0.100000X-0.130000X0*%
%ADD26RoundRect,0.150000X-0.150000X0.587500X-0.150000X-0.587500X0.150000X-0.587500X0.150000X0.587500X0*%
%ADD27RoundRect,0.100000X-0.100000X0.225000X-0.100000X-0.225000X0.100000X-0.225000X0.100000X0.225000X0*%
%ADD28C,1.750000*%
%ADD29R,1.350000X1.350000*%
%ADD30O,1.350000X1.350000*%
G04 APERTURE END LIST*
%TO.C,SW13*%
D10*
X113430859Y-47504086D02*
G75*
G02*
X110074609Y-47504086I-1678125J0D01*
G01*
X110074609Y-47504086D02*
G75*
G02*
X113430859Y-47504086I1678125J0D01*
G01*
%TO.C,SW10*%
X113430859Y-26929086D02*
G75*
G02*
X110074609Y-26929086I-1678125J0D01*
G01*
X110074609Y-26929086D02*
G75*
G02*
X113430859Y-26929086I1678125J0D01*
G01*
%TO.C,SW6*%
D11*
X40238831Y-58584449D02*
G75*
G02*
X37838831Y-58584449I-1200000J0D01*
G01*
X37838831Y-58584449D02*
G75*
G02*
X40238831Y-58584449I1200000J0D01*
G01*
%TO.C,SW12*%
D10*
X101530859Y-37216586D02*
G75*
G02*
X98174609Y-37216586I-1678125J0D01*
G01*
X98174609Y-37216586D02*
G75*
G02*
X101530859Y-37216586I1678125J0D01*
G01*
%TO.C,SW8*%
D11*
X49238830Y-67584449D02*
G75*
G02*
X46838830Y-67584449I-1200000J0D01*
G01*
X46838830Y-67584449D02*
G75*
G02*
X49238830Y-67584449I1200000J0D01*
G01*
%TO.C,SW11*%
D10*
X125330860Y-37216585D02*
G75*
G02*
X121974610Y-37216585I-1678125J0D01*
G01*
X121974610Y-37216585D02*
G75*
G02*
X125330860Y-37216585I1678125J0D01*
G01*
%TO.C,SW7*%
D11*
X58238830Y-58584449D02*
G75*
G02*
X55838830Y-58584449I-1200000J0D01*
G01*
X55838830Y-58584449D02*
G75*
G02*
X58238830Y-58584449I1200000J0D01*
G01*
%TO.C,SW5*%
X49238830Y-49584449D02*
G75*
G02*
X46838830Y-49584449I-1200000J0D01*
G01*
X46838830Y-49584449D02*
G75*
G02*
X49238830Y-49584449I1200000J0D01*
G01*
%TD*%
D12*
%TO.C,RGB1*%
X111417734Y-32364086D03*
X112087734Y-32364086D03*
X112087734Y-31694086D03*
X111417734Y-31694086D03*
%TD*%
%TO.C,RGB11*%
X68208091Y-51546695D03*
X68878091Y-51546695D03*
X68878091Y-50876695D03*
X68208091Y-50876695D03*
%TD*%
D13*
%TO.C,D15*%
X90824134Y-38357323D03*
X90824134Y-37707323D03*
X90824134Y-37057323D03*
X88924134Y-37057323D03*
X88924134Y-37707323D03*
X88924134Y-38357323D03*
%TD*%
D12*
%TO.C,RGB6*%
X111417734Y-52939086D03*
X112087734Y-52939086D03*
X112087734Y-52269086D03*
X111417734Y-52269086D03*
%TD*%
D14*
%TO.C,D4*%
X30475000Y-64434247D03*
X31875000Y-64434247D03*
%TD*%
D12*
%TO.C,RGB5*%
X111417735Y-42739087D03*
X112087735Y-42739087D03*
X112087735Y-42069087D03*
X111417735Y-42069087D03*
%TD*%
D15*
%TO.C,T2*%
X24799999Y-58100000D03*
%TD*%
D12*
%TO.C,RGB15*%
X43003832Y-58919448D03*
X43673832Y-58919448D03*
X43673832Y-58249448D03*
X43003832Y-58249448D03*
%TD*%
D16*
%TO.C,D1*%
X29125000Y-67400000D03*
X27725000Y-67400000D03*
%TD*%
D17*
%TO.C,D2*%
X114550000Y-65075000D03*
X114550000Y-66475000D03*
%TD*%
D18*
%TO.C,C14*%
X109970000Y-63400000D03*
X109330000Y-63400000D03*
%TD*%
D16*
%TO.C,D5*%
X111525000Y-66050000D03*
X110125000Y-66050000D03*
%TD*%
D18*
%TO.C,C9*%
X30757501Y-57600000D03*
X30117501Y-57600000D03*
%TD*%
D12*
%TO.C,RGB8*%
X99517735Y-32451586D03*
X100187735Y-32451586D03*
X100187735Y-31781586D03*
X99517735Y-31781586D03*
%TD*%
%TO.C,RGB13*%
X52403830Y-58919448D03*
X53073830Y-58919448D03*
X53073830Y-58249448D03*
X52403830Y-58249448D03*
%TD*%
D15*
%TO.C,T3*%
X118925000Y-58375000D03*
%TD*%
D19*
%TO.C,D9*%
X56100000Y-38050001D03*
X56750000Y-38050001D03*
X57400000Y-38050001D03*
X57400000Y-36150001D03*
X56750000Y-36150001D03*
X56100000Y-36150001D03*
%TD*%
D16*
%TO.C,D6*%
X110075000Y-64575000D03*
X108675000Y-64575000D03*
%TD*%
D18*
%TO.C,R9*%
X27395000Y-66200000D03*
X26755000Y-66200000D03*
%TD*%
D20*
%TO.C,SW2*%
X59897471Y-40632897D03*
X59897471Y-34632897D03*
X63647471Y-40632897D03*
X63647471Y-34632897D03*
%TD*%
D12*
%TO.C,RGB14*%
X47703830Y-63619448D03*
X48373830Y-63619448D03*
X48373830Y-62949448D03*
X47703830Y-62949448D03*
%TD*%
D18*
%TO.C,R29*%
X65190000Y-45025000D03*
X64550000Y-45025000D03*
%TD*%
D21*
%TO.C,R24*%
X101955000Y-28400000D03*
X102595000Y-28400000D03*
%TD*%
D22*
%TO.C,D13*%
X55650000Y-42750000D03*
X55650000Y-43400000D03*
X55650000Y-44050000D03*
X57550000Y-44050000D03*
X57550000Y-43400000D03*
X57550000Y-42750000D03*
%TD*%
D20*
%TO.C,SW4*%
X77920603Y-40632897D03*
X77920603Y-34632897D03*
X81670603Y-40632897D03*
X81670603Y-34632897D03*
%TD*%
D19*
%TO.C,D12*%
X85375000Y-39825001D03*
X86025000Y-39825001D03*
X86675000Y-39825001D03*
X86675000Y-37925001D03*
X86025000Y-37925001D03*
X85375000Y-37925001D03*
%TD*%
D21*
%TO.C,R5*%
X30117501Y-56825000D03*
X30757501Y-56825000D03*
%TD*%
D12*
%TO.C,RGB9*%
X75708093Y-51546695D03*
X76378093Y-51546695D03*
X76378093Y-50876695D03*
X75708093Y-50876695D03*
%TD*%
D23*
%TO.C,C10*%
X113350000Y-56280000D03*
X113350000Y-56920000D03*
%TD*%
D12*
%TO.C,RGB7*%
X99517735Y-42651587D03*
X100187735Y-42651587D03*
X100187735Y-41981587D03*
X99517735Y-41981587D03*
%TD*%
D21*
%TO.C,C11*%
X28480000Y-68550000D03*
X29120000Y-68550000D03*
%TD*%
D12*
%TO.C,RGB2*%
X111417735Y-22164087D03*
X112087735Y-22164087D03*
X112087735Y-21494087D03*
X111417735Y-21494087D03*
%TD*%
D24*
%TO.C,SW15*%
X67780001Y-27261254D03*
X73780001Y-27261254D03*
X67780001Y-31011254D03*
X73780001Y-31011254D03*
%TD*%
D25*
%TO.C,C13*%
X115675000Y-65545000D03*
X115675000Y-64905000D03*
%TD*%
D15*
%TO.C,T4*%
X118925000Y-60450000D03*
%TD*%
D12*
%TO.C,RGB3*%
X123317735Y-42651586D03*
X123987735Y-42651586D03*
X123987735Y-41981586D03*
X123317735Y-41981586D03*
%TD*%
D18*
%TO.C,R8*%
X111770000Y-56250000D03*
X111130000Y-56250000D03*
%TD*%
D23*
%TO.C,R7*%
X31562501Y-56930000D03*
X31562501Y-57570000D03*
%TD*%
D13*
%TO.C,D16*%
X90820689Y-35553012D03*
X90820689Y-34903012D03*
X90820689Y-34253012D03*
X88920689Y-34253012D03*
X88920689Y-34903012D03*
X88920689Y-35553012D03*
%TD*%
D21*
%TO.C,C12*%
X31480000Y-65900000D03*
X32120000Y-65900000D03*
%TD*%
%TO.C,R10*%
X112780000Y-66150000D03*
X113420000Y-66150000D03*
%TD*%
D14*
%TO.C,D3*%
X29073664Y-65918303D03*
X30473664Y-65918303D03*
%TD*%
D12*
%TO.C,RGB12*%
X64458092Y-51546695D03*
X65128092Y-51546695D03*
X65128092Y-50876695D03*
X64458092Y-50876695D03*
%TD*%
D21*
%TO.C,R28*%
X64555000Y-45780136D03*
X65195000Y-45780136D03*
%TD*%
D26*
%TO.C,Q1*%
X31562501Y-59012500D03*
X29662501Y-59012500D03*
X30612501Y-60887500D03*
%TD*%
D20*
%TO.C,SW1*%
X54897472Y-29132898D03*
X54897472Y-23132898D03*
X58647472Y-29132898D03*
X58647472Y-23132898D03*
%TD*%
D15*
%TO.C,T1*%
X26875000Y-58100000D03*
%TD*%
D25*
%TO.C,R6*%
X112575000Y-56920000D03*
X112575000Y-56280000D03*
%TD*%
D27*
%TO.C,D11*%
X85162500Y-30800000D03*
X84512500Y-30800000D03*
X83862500Y-30800000D03*
X83862500Y-32700000D03*
X84512500Y-32700000D03*
X85162500Y-32700000D03*
%TD*%
D12*
%TO.C,RGB4*%
X123317735Y-32451587D03*
X123987735Y-32451587D03*
X123987735Y-31781587D03*
X123317735Y-31781587D03*
%TD*%
%TO.C,RGB16*%
X47703830Y-54219448D03*
X48373830Y-54219448D03*
X48373830Y-53549448D03*
X47703830Y-53549448D03*
%TD*%
%TO.C,RGB10*%
X71958091Y-51546695D03*
X72628091Y-51546695D03*
X72628091Y-50876695D03*
X71958091Y-50876695D03*
%TD*%
D26*
%TO.C,Q2*%
X111125000Y-57662500D03*
X109225000Y-57662500D03*
X110175000Y-59537500D03*
%TD*%
D20*
%TO.C,SW16*%
X72647472Y-65382898D03*
X72647472Y-71382898D03*
X68897472Y-65382898D03*
X68897472Y-71382898D03*
%TD*%
D27*
%TO.C,D8*%
X57437499Y-30950000D03*
X56787499Y-30950000D03*
X56137499Y-30950000D03*
X56137499Y-32850000D03*
X56787499Y-32850000D03*
X57437499Y-32850000D03*
%TD*%
D22*
%TO.C,D14*%
X55650000Y-45600000D03*
X55650000Y-46250000D03*
X55650000Y-46900000D03*
X57550000Y-46900000D03*
X57550000Y-46250000D03*
X57550000Y-45600000D03*
%TD*%
D20*
%TO.C,SW3*%
X82920604Y-29132897D03*
X82920604Y-23132897D03*
X86670604Y-29132897D03*
X86670604Y-23132897D03*
%TD*%
D28*
%TO.C,SW9*%
X24406262Y-62529128D03*
X29406262Y-62529128D03*
%TD*%
%TO.C,SW14*%
X112161814Y-62529128D03*
X117161814Y-62529128D03*
%TD*%
D29*
%TO.C,J8*%
X73880000Y-14750000D03*
D30*
X71880000Y-14750000D03*
X69880000Y-14750000D03*
X67880000Y-14750000D03*
%TD*%
M02*
