%TF.GenerationSoftware,KiCad,Pcbnew,8.0.2*%
%TF.CreationDate,2025-05-18T15:38:27-07:00*%
%TF.ProjectId,PGS_Main_Board,5047535f-4d61-4696-9e5f-426f6172642e,rev?*%
%TF.SameCoordinates,Original*%
%TF.FileFunction,Drillmap*%
%TF.FilePolarity,Positive*%
%FSLAX45Y45*%
G04 Gerber Fmt 4.5, Leading zero omitted, Abs format (unit mm)*
G04 Created by KiCad (PCBNEW 8.0.2) date 2025-05-18 15:38:27*
%MOMM*%
%LPD*%
G01*
G04 APERTURE LIST*
%ADD10C,0.100000*%
%ADD11C,0.200000*%
G04 APERTURE END LIST*
D10*
X7686162Y-4973618D02*
X7687583Y-4975212D01*
X3390380Y-7416593D02*
G75*
G02*
X2824683Y-7182272I0J800013D01*
G01*
X5265379Y-1336134D02*
X6173240Y-1336134D01*
X8385900Y-4442821D02*
X8382541Y-4441564D01*
X7783564Y-1854650D02*
G75*
G02*
X7588564Y-1853457I-97504J0D01*
G01*
X2159000Y-6121400D02*
G75*
G02*
X2959000Y-5321400I800000J0D01*
G01*
X5360857Y-4026205D02*
X5360857Y-3708031D01*
X9521203Y-2912833D02*
G75*
G02*
X8787686Y-2734062I-344973J178773D01*
G01*
X11457601Y-6870832D02*
G75*
G02*
X11670862Y-6782963I212139J-212138D01*
G01*
X8382541Y-4441564D02*
X8372703Y-4437615D01*
X8363403Y-4433250D01*
X8353966Y-4428032D01*
X8347647Y-4423884D01*
X7666233Y-4950054D02*
X7667407Y-4951438D01*
X6568244Y-1854650D02*
G75*
G02*
X6373244Y-1853433I-97504J0D01*
G01*
X7388560Y-1336134D02*
G75*
G02*
X7588556Y-1536134I0J-199996D01*
G01*
X5213118Y-3513155D02*
G75*
G02*
X5065394Y-3322767I52262J193055D01*
G01*
X7616040Y-4507365D02*
X7621887Y-4495206D01*
X7628207Y-4483149D01*
X7634987Y-4471216D01*
X7642213Y-4459431D01*
X7649873Y-4447817D01*
X7657954Y-4436396D01*
X7666443Y-4425192D01*
X7675328Y-4414228D01*
X7684596Y-4403527D01*
X7694233Y-4393111D01*
X7700858Y-4386338D01*
X10737658Y-2075262D02*
X10746843Y-2070895D01*
X10750302Y-2068277D01*
X12154003Y-6782960D02*
X11670862Y-6782960D01*
X12978351Y-3139662D02*
X13125504Y-3661795D01*
X12355013Y-5948230D02*
X12355083Y-6582960D01*
X10045000Y-2409000D02*
G75*
G02*
X10172278Y-2239350I200070J-17530D01*
G01*
X13147995Y-3824530D02*
X13147996Y-4920450D01*
X2959000Y-5321400D02*
X2969618Y-5320835D01*
X11171209Y-7032960D02*
X10995480Y-7032960D01*
X5065379Y-1536134D02*
G75*
G02*
X5265379Y-1336134I200000J0D01*
G01*
X10751527Y-5902102D02*
X10752519Y-5904962D01*
X8265957Y-4352888D02*
X8268525Y-4354950D01*
X10995480Y-7032960D02*
G75*
G02*
X10795473Y-6834116I0J200010D01*
G01*
X5065394Y-3322767D02*
X5065379Y-1536134D01*
X12493134Y-4925334D02*
G75*
G02*
X12293134Y-4925334I-100000J0D01*
G01*
X12293134Y-4925334D02*
G75*
G02*
X12493134Y-4925334I100000J0D01*
G01*
X7734659Y-7416593D02*
X3390380Y-7416593D01*
X13147996Y-4920450D02*
G75*
G02*
X13023116Y-5251030I-499996J0D01*
G01*
X7666233Y-4950054D02*
X7659289Y-4940900D01*
X7652446Y-4931316D01*
X7645752Y-4921366D01*
X7640323Y-4912840D01*
X7635060Y-4904137D01*
X7630988Y-4897073D01*
X7807673Y-6600647D02*
G75*
G02*
X7751041Y-5208414I1355104J752390D01*
G01*
X11173242Y-1936529D02*
G75*
G02*
X11744343Y-2114308I2048J-999621D01*
G01*
X11365621Y-3726969D02*
G75*
G02*
X11165621Y-3726969I-100000J0D01*
G01*
X11165621Y-3726969D02*
G75*
G02*
X11365621Y-3726969I100000J0D01*
G01*
X12355013Y-5948230D02*
G75*
G02*
X12671401Y-5523818I444207J-1010D01*
G01*
X8518741Y-4438738D02*
X8508191Y-4442825D01*
X8496787Y-4446356D01*
X8486914Y-4448798D01*
X8476946Y-4450718D01*
X8465181Y-4452249D01*
X8457638Y-4452751D01*
X13125504Y-3661795D02*
G75*
G02*
X13147995Y-3824530I-577494J-162735D01*
G01*
X7686162Y-4973618D02*
X7679480Y-4966096D01*
X7672885Y-4958250D01*
X7667407Y-4951438D01*
X2393316Y-6750909D02*
X2824681Y-7182274D01*
X10751527Y-5902102D02*
G75*
G02*
X10708987Y-5736631I455643J205342D01*
G01*
X10795473Y-6834116D02*
X10795434Y-6107625D01*
X8314060Y-4396668D02*
X8312067Y-4395031D01*
X7702429Y-4384543D02*
X7712241Y-4375124D01*
X7722442Y-4365975D01*
X7733012Y-4357112D01*
X7743934Y-4348552D01*
X7755189Y-4340310D01*
X7766758Y-4332402D01*
X7778623Y-4324846D01*
X7790764Y-4317656D01*
X7803164Y-4310849D01*
X7815803Y-4304440D01*
X7824353Y-4300398D01*
X10761956Y-2048677D02*
X10764691Y-2038810D01*
X10768605Y-2029497D01*
X10771764Y-2024175D01*
X8060716Y-4265534D02*
X8063679Y-4266227D01*
X8063679Y-4266227D02*
X8077097Y-4268272D01*
X8090485Y-4270790D01*
X8103827Y-4273775D01*
X8117107Y-4277223D01*
X8130309Y-4281129D01*
X8143418Y-4285488D01*
X8156419Y-4290295D01*
X8169295Y-4295544D01*
X8182031Y-4301232D01*
X8194612Y-4307352D01*
X8207022Y-4313900D01*
X8219245Y-4320872D01*
X8231266Y-4328261D01*
X8243068Y-4336063D01*
X8254637Y-4344274D01*
X8265957Y-4352888D01*
X10790613Y-2003470D02*
X10799054Y-1997868D01*
X10808181Y-1993390D01*
X10808626Y-1993224D01*
X8782224Y-1489711D02*
X8787686Y-2734062D01*
X7629693Y-4894842D02*
X7630988Y-4897073D01*
X6173240Y-1336134D02*
G75*
G02*
X6373244Y-1537012I0J-200006D01*
G01*
X10808626Y-1993224D02*
G75*
G02*
X11137331Y-1936075I333264J-942956D01*
G01*
X2158999Y-6185217D02*
X2159000Y-6121400D01*
X3661914Y-7026416D02*
G75*
G02*
X3461914Y-7026416I-100000J0D01*
G01*
X3461914Y-7026416D02*
G75*
G02*
X3661914Y-7026416I100000J0D01*
G01*
X7807673Y-6600647D02*
X7808430Y-6602078D01*
X7751096Y-5055848D02*
X7755423Y-5066252D01*
X7759098Y-5076838D01*
X7762113Y-5087531D01*
X7764455Y-5098259D01*
X7766117Y-5108950D01*
X7767088Y-5119531D01*
X7767280Y-5123717D01*
X5213118Y-3513155D02*
G75*
G02*
X5360857Y-3708031I-52268J-193065D01*
G01*
X11457601Y-6870832D02*
X11383342Y-6945091D01*
X7767396Y-5125555D02*
X7767465Y-5136175D01*
X7766937Y-5146572D01*
X7765830Y-5156520D01*
X7764162Y-5165793D01*
X7588564Y-1536134D02*
X7588564Y-1853457D01*
X4644748Y-4226243D02*
X5160858Y-4226206D01*
X7708237Y-4996322D02*
X7709551Y-4997548D01*
X7467097Y-5941206D02*
G75*
G02*
X6689710Y-5941206I-388693J0D01*
G01*
X6689710Y-5941206D02*
G75*
G02*
X7467097Y-5941206I388693J0D01*
G01*
X10771764Y-2024175D02*
X10777764Y-2016014D01*
X10784688Y-2008480D01*
X10790613Y-2003470D01*
X7751684Y-5206492D02*
X7751041Y-5208414D01*
X8522920Y-4436491D02*
G75*
G02*
X10708539Y-5733713I639857J-1411765D01*
G01*
X7168080Y-4387829D02*
G75*
G02*
X6968080Y-4387829I-100000J0D01*
G01*
X6968080Y-4387829D02*
G75*
G02*
X7168080Y-4387829I100000J0D01*
G01*
X2393316Y-6750909D02*
G75*
G02*
X2159001Y-6185217I565694J565689D01*
G01*
X12355083Y-6582960D02*
G75*
G02*
X12154003Y-6782960I-200003J0D01*
G01*
X10545208Y-2095215D02*
X10555541Y-2091436D01*
X10566014Y-2088081D01*
X10576614Y-2085153D01*
X10587326Y-2082657D01*
X10593493Y-2081426D01*
X7579701Y-4743885D02*
X7577949Y-4729211D01*
X7576734Y-4714452D01*
X7576052Y-4699629D01*
X7575903Y-4684760D01*
X7576284Y-4669865D01*
X7577193Y-4654964D01*
X7578628Y-4640075D01*
X7580588Y-4625219D01*
X7583070Y-4610413D01*
X7586073Y-4595678D01*
X7589595Y-4581033D01*
X7593634Y-4566498D01*
X7598187Y-4552091D01*
X7603253Y-4537831D01*
X7608831Y-4523739D01*
X7614918Y-4509834D01*
X9523057Y-2908887D02*
X9521203Y-2912833D01*
X7708237Y-4996322D02*
X7700811Y-4989072D01*
X7693575Y-4981638D01*
X7687583Y-4975212D01*
X7702429Y-4384543D02*
X7700858Y-4386338D01*
X4373637Y-4403589D02*
X4375716Y-4400325D01*
X10750302Y-2068277D02*
X10756986Y-2060751D01*
X10759308Y-2056999D01*
X10593493Y-2081426D02*
X10604346Y-2079617D01*
X10615259Y-2078251D01*
X10626216Y-2077328D01*
X10637205Y-2076850D01*
X10643493Y-2076777D01*
X12746263Y-2815363D02*
G75*
G02*
X12978351Y-3139662I-344143J-491487D01*
G01*
X9781120Y-2677775D02*
X9807052Y-2669095D01*
X7709551Y-4997548D02*
X7717505Y-5005531D01*
X7724926Y-5013935D01*
X7731779Y-5022702D01*
X7738030Y-5031774D01*
X7743644Y-5041093D01*
X7748586Y-5050601D01*
X7750366Y-5054445D01*
X7616040Y-4507365D02*
X7614918Y-4509834D01*
X7984050Y-1336134D02*
X8587690Y-1336134D01*
X7934659Y-7088414D02*
X7934659Y-7216590D01*
X6568244Y-1536130D02*
G75*
G02*
X6768240Y-1336134I199996J0D01*
G01*
X10727353Y-2076777D02*
X10737280Y-2075436D01*
X10737658Y-2075262D01*
X8347647Y-4423884D02*
X8344613Y-4422372D01*
X7750366Y-5054445D02*
X7751096Y-5055848D01*
X12678170Y-5521922D02*
X12671401Y-5523818D01*
X8344613Y-4422372D02*
X8335927Y-4416275D01*
X8327802Y-4409844D01*
X8319588Y-4402425D01*
X8314060Y-4396668D01*
X10752519Y-5904962D02*
G75*
G02*
X10795434Y-6107625I-457049J-202658D01*
G01*
X7763994Y-5167925D02*
X7761637Y-5178282D01*
X7758752Y-5188298D01*
X7755411Y-5197770D01*
X7751684Y-5206492D01*
X10759308Y-2056999D02*
X10761956Y-2048677D01*
X10045000Y-2409000D02*
G75*
G02*
X9807052Y-2669095I-352670J83750D01*
G01*
X11383342Y-6945091D02*
G75*
G02*
X11171209Y-7032960I-212132J212131D01*
G01*
X10708538Y-5733713D02*
X10708987Y-5736631D01*
X11137331Y-1936075D02*
X11173242Y-1936529D01*
X4375716Y-4400325D02*
G75*
G02*
X4644748Y-4226243I272294J-125885D01*
G01*
X6768240Y-1336134D02*
X7388560Y-1336134D01*
X7934659Y-7216590D02*
G75*
G02*
X7734659Y-7416589I-199999J0D01*
G01*
X8457638Y-4452751D02*
X8453230Y-4452869D01*
X7827233Y-4299119D02*
X7840632Y-4293257D01*
X7854284Y-4287877D01*
X7868170Y-4282983D01*
X7882268Y-4278580D01*
X7896559Y-4274671D01*
X7911023Y-4271260D01*
X7925639Y-4268353D01*
X7940387Y-4265953D01*
X7955247Y-4264064D01*
X7970200Y-4262692D01*
X7985224Y-4261840D01*
X8000300Y-4261512D01*
X8015407Y-4261713D01*
X8030526Y-4262448D01*
X8045635Y-4263720D01*
X8060716Y-4265534D01*
X7824353Y-4300398D02*
X7827233Y-4299119D01*
X7178404Y-3741206D02*
G75*
G02*
X6978404Y-3741206I-100000J0D01*
G01*
X6978404Y-3741206D02*
G75*
G02*
X7178404Y-3741206I100000J0D01*
G01*
X11744343Y-2114308D02*
X12746263Y-2815363D01*
X12917023Y-5371427D02*
G75*
G02*
X12678169Y-5521921I-375123J330577D01*
G01*
X4373637Y-4403589D02*
G75*
G02*
X2969618Y-5320835I-1414637J632190D01*
G01*
X7579701Y-4743885D02*
X7580053Y-4746197D01*
X12917023Y-5371427D02*
X13023116Y-5251030D01*
X9523057Y-2908887D02*
G75*
G02*
X9781120Y-2677775I442084J-234003D01*
G01*
X7629693Y-4894842D02*
X7622869Y-4882180D01*
X7616461Y-4869184D01*
X7610482Y-4855877D01*
X7604941Y-4842285D01*
X7599851Y-4828432D01*
X7595222Y-4814342D01*
X7591066Y-4800042D01*
X7587394Y-4785554D01*
X7584217Y-4770905D01*
X7582380Y-4761061D01*
X7580771Y-4751163D01*
X7580053Y-4746197D01*
X7783564Y-1536130D02*
G75*
G02*
X7984050Y-1336134I199996J0D01*
G01*
X8453230Y-4452869D02*
X8441968Y-4452937D01*
X8430822Y-4452350D01*
X8419901Y-4451139D01*
X8409312Y-4449340D01*
X8399164Y-4446985D01*
X8389563Y-4444109D01*
X8385900Y-4442821D01*
X6373244Y-1537012D02*
X6373244Y-1853433D01*
X8522920Y-4436491D02*
X8518741Y-4438738D01*
X10643493Y-2076777D02*
X10727353Y-2076777D01*
X7764162Y-5165793D02*
X7763994Y-5167925D01*
X7783564Y-1854650D02*
X7783564Y-1536130D01*
X10172278Y-2239350D02*
X10545208Y-2095215D01*
X7767280Y-5123717D02*
X7767396Y-5125555D01*
X8587690Y-1336134D02*
G75*
G02*
X8782224Y-1489711I0J-199996D01*
G01*
X5360857Y-4026205D02*
G75*
G02*
X5160858Y-4226206I-200001J0D01*
G01*
X6568244Y-1854650D02*
X6568244Y-1536130D01*
X8268525Y-4354950D02*
X8276480Y-4361404D01*
X8284648Y-4368444D01*
X8292925Y-4375984D01*
X8301205Y-4383937D01*
X8309382Y-4392215D01*
X8312067Y-4395031D01*
X7808430Y-6602078D02*
G75*
G02*
X7934657Y-7088414I-873770J-486332D01*
G01*
D11*
X2414775Y-7733077D02*
X2414775Y-7533077D01*
X2414775Y-7533077D02*
X2462394Y-7533077D01*
X2462394Y-7533077D02*
X2490966Y-7542601D01*
X2490966Y-7542601D02*
X2510014Y-7561648D01*
X2510014Y-7561648D02*
X2519537Y-7580696D01*
X2519537Y-7580696D02*
X2529061Y-7618791D01*
X2529061Y-7618791D02*
X2529061Y-7647363D01*
X2529061Y-7647363D02*
X2519537Y-7685458D01*
X2519537Y-7685458D02*
X2510014Y-7704505D01*
X2510014Y-7704505D02*
X2490966Y-7723553D01*
X2490966Y-7723553D02*
X2462394Y-7733077D01*
X2462394Y-7733077D02*
X2414775Y-7733077D01*
X2614775Y-7733077D02*
X2614775Y-7599744D01*
X2614775Y-7637839D02*
X2624299Y-7618791D01*
X2624299Y-7618791D02*
X2633823Y-7609267D01*
X2633823Y-7609267D02*
X2652871Y-7599744D01*
X2652871Y-7599744D02*
X2671918Y-7599744D01*
X2738585Y-7733077D02*
X2738585Y-7599744D01*
X2738585Y-7533077D02*
X2729061Y-7542601D01*
X2729061Y-7542601D02*
X2738585Y-7552125D01*
X2738585Y-7552125D02*
X2748109Y-7542601D01*
X2748109Y-7542601D02*
X2738585Y-7533077D01*
X2738585Y-7533077D02*
X2738585Y-7552125D01*
X2862394Y-7733077D02*
X2843347Y-7723553D01*
X2843347Y-7723553D02*
X2833823Y-7704505D01*
X2833823Y-7704505D02*
X2833823Y-7533077D01*
X2967156Y-7733077D02*
X2948109Y-7723553D01*
X2948109Y-7723553D02*
X2938585Y-7704505D01*
X2938585Y-7704505D02*
X2938585Y-7533077D01*
X3195728Y-7733077D02*
X3195728Y-7533077D01*
X3195728Y-7533077D02*
X3262394Y-7675934D01*
X3262394Y-7675934D02*
X3329061Y-7533077D01*
X3329061Y-7533077D02*
X3329061Y-7733077D01*
X3510013Y-7733077D02*
X3510013Y-7628315D01*
X3510013Y-7628315D02*
X3500490Y-7609267D01*
X3500490Y-7609267D02*
X3481442Y-7599744D01*
X3481442Y-7599744D02*
X3443347Y-7599744D01*
X3443347Y-7599744D02*
X3424299Y-7609267D01*
X3510013Y-7723553D02*
X3490966Y-7733077D01*
X3490966Y-7733077D02*
X3443347Y-7733077D01*
X3443347Y-7733077D02*
X3424299Y-7723553D01*
X3424299Y-7723553D02*
X3414775Y-7704505D01*
X3414775Y-7704505D02*
X3414775Y-7685458D01*
X3414775Y-7685458D02*
X3424299Y-7666410D01*
X3424299Y-7666410D02*
X3443347Y-7656886D01*
X3443347Y-7656886D02*
X3490966Y-7656886D01*
X3490966Y-7656886D02*
X3510013Y-7647363D01*
X3605252Y-7599744D02*
X3605252Y-7799744D01*
X3605252Y-7609267D02*
X3624299Y-7599744D01*
X3624299Y-7599744D02*
X3662394Y-7599744D01*
X3662394Y-7599744D02*
X3681442Y-7609267D01*
X3681442Y-7609267D02*
X3690966Y-7618791D01*
X3690966Y-7618791D02*
X3700490Y-7637839D01*
X3700490Y-7637839D02*
X3700490Y-7694982D01*
X3700490Y-7694982D02*
X3690966Y-7714029D01*
X3690966Y-7714029D02*
X3681442Y-7723553D01*
X3681442Y-7723553D02*
X3662394Y-7733077D01*
X3662394Y-7733077D02*
X3624299Y-7733077D01*
X3624299Y-7733077D02*
X3605252Y-7723553D01*
X3786204Y-7714029D02*
X3795728Y-7723553D01*
X3795728Y-7723553D02*
X3786204Y-7733077D01*
X3786204Y-7733077D02*
X3776680Y-7723553D01*
X3776680Y-7723553D02*
X3786204Y-7714029D01*
X3786204Y-7714029D02*
X3786204Y-7733077D01*
X3786204Y-7609267D02*
X3795728Y-7618791D01*
X3795728Y-7618791D02*
X3786204Y-7628315D01*
X3786204Y-7628315D02*
X3776680Y-7618791D01*
X3776680Y-7618791D02*
X3786204Y-7609267D01*
X3786204Y-7609267D02*
X3786204Y-7628315D01*
M02*
