%TF.GenerationSoftware,KiCad,Pcbnew,8.0.2*%
%TF.CreationDate,2025-05-18T15:38:27-07:00*%
%TF.ProjectId,PGS_Main_Board,5047535f-4d61-4696-9e5f-426f6172642e,rev?*%
%TF.SameCoordinates,Original*%
%TF.FileFunction,Drillmap*%
%TF.FilePolarity,Positive*%
%FSLAX45Y45*%
G04 Gerber Fmt 4.5, Leading zero omitted, Abs format (unit mm)*
G04 Created by KiCad (PCBNEW 8.0.2) date 2025-05-18 15:38:27*
%MOMM*%
%LPD*%
G01*
G04 APERTURE LIST*
%ADD10C,0.100000*%
%ADD11C,0.200000*%
G04 APERTURE END LIST*
D10*
X7686162Y-4973618D02*
X7687583Y-4975212D01*
X3390380Y-7416593D02*
G75*
G02*
X2824683Y-7182272I0J800013D01*
G01*
X5265379Y-1336134D02*
X6173240Y-1336134D01*
X8385900Y-4442821D02*
X8382541Y-4441564D01*
X7783564Y-1854650D02*
G75*
G02*
X7588564Y-1853457I-97504J0D01*
G01*
X2159000Y-6121400D02*
G75*
G02*
X2959000Y-5321400I800000J0D01*
G01*
X5360857Y-4026205D02*
X5360857Y-3708031D01*
X9521203Y-2912833D02*
G75*
G02*
X8787686Y-2734062I-344973J178773D01*
G01*
X11457601Y-6870832D02*
G75*
G02*
X11670862Y-6782963I212139J-212138D01*
G01*
X8382541Y-4441564D02*
X8372703Y-4437615D01*
X8363403Y-4433250D01*
X8353966Y-4428032D01*
X8347647Y-4423884D01*
X7666233Y-4950054D02*
X7667407Y-4951438D01*
X6568244Y-1854650D02*
G75*
G02*
X6373244Y-1853433I-97504J0D01*
G01*
X7388560Y-1336134D02*
G75*
G02*
X7588556Y-1536134I0J-199996D01*
G01*
X5213118Y-3513155D02*
G75*
G02*
X5065394Y-3322767I52262J193055D01*
G01*
X7616040Y-4507365D02*
X7621887Y-4495206D01*
X7628207Y-4483149D01*
X7634987Y-4471216D01*
X7642213Y-4459431D01*
X7649873Y-4447817D01*
X7657954Y-4436396D01*
X7666443Y-4425192D01*
X7675328Y-4414228D01*
X7684596Y-4403527D01*
X7694233Y-4393111D01*
X7700858Y-4386338D01*
X10737658Y-2075262D02*
X10746843Y-2070895D01*
X10750302Y-2068277D01*
X12154003Y-6782960D02*
X11670862Y-6782960D01*
X12978351Y-3139662D02*
X13125504Y-3661795D01*
X12355013Y-5948230D02*
X12355083Y-6582960D01*
X10045000Y-2409000D02*
G75*
G02*
X10172278Y-2239350I200070J-17530D01*
G01*
X13147995Y-3824530D02*
X13147996Y-4920450D01*
X2959000Y-5321400D02*
X2969618Y-5320835D01*
X11171209Y-7032960D02*
X10995480Y-7032960D01*
X5065379Y-1536134D02*
G75*
G02*
X5265379Y-1336134I200000J0D01*
G01*
X10751527Y-5902102D02*
X10752519Y-5904962D01*
X8265957Y-4352888D02*
X8268525Y-4354950D01*
X10995480Y-7032960D02*
G75*
G02*
X10795473Y-6834116I0J200010D01*
G01*
X5065394Y-3322767D02*
X5065379Y-1536134D01*
X12493134Y-4925334D02*
G75*
G02*
X12293134Y-4925334I-100000J0D01*
G01*
X12293134Y-4925334D02*
G75*
G02*
X12493134Y-4925334I100000J0D01*
G01*
X7734659Y-7416593D02*
X3390380Y-7416593D01*
X13147996Y-4920450D02*
G75*
G02*
X13023116Y-5251030I-499996J0D01*
G01*
X7666233Y-4950054D02*
X7659289Y-4940900D01*
X7652446Y-4931316D01*
X7645752Y-4921366D01*
X7640323Y-4912840D01*
X7635060Y-4904137D01*
X7630988Y-4897073D01*
X7807673Y-6600647D02*
G75*
G02*
X7751041Y-5208414I1355104J752390D01*
G01*
X11173242Y-1936529D02*
G75*
G02*
X11744343Y-2114308I2048J-999621D01*
G01*
X11365621Y-3726969D02*
G75*
G02*
X11165621Y-3726969I-100000J0D01*
G01*
X11165621Y-3726969D02*
G75*
G02*
X11365621Y-3726969I100000J0D01*
G01*
X12355013Y-5948230D02*
G75*
G02*
X12671401Y-5523818I444207J-1010D01*
G01*
X8518741Y-4438738D02*
X8508191Y-4442825D01*
X8496787Y-4446356D01*
X8486914Y-4448798D01*
X8476946Y-4450718D01*
X8465181Y-4452249D01*
X8457638Y-4452751D01*
X13125504Y-3661795D02*
G75*
G02*
X13147995Y-3824530I-577494J-162735D01*
G01*
X7686162Y-4973618D02*
X7679480Y-4966096D01*
X7672885Y-4958250D01*
X7667407Y-4951438D01*
X2393316Y-6750909D02*
X2824681Y-7182274D01*
X10751527Y-5902102D02*
G75*
G02*
X10708987Y-5736631I455643J205342D01*
G01*
X10795473Y-6834116D02*
X10795434Y-6107625D01*
X8314060Y-4396668D02*
X8312067Y-4395031D01*
X7702429Y-4384543D02*
X7712241Y-4375124D01*
X7722442Y-4365975D01*
X7733012Y-4357112D01*
X7743934Y-4348552D01*
X7755189Y-4340310D01*
X7766758Y-4332402D01*
X7778623Y-4324846D01*
X7790764Y-4317656D01*
X7803164Y-4310849D01*
X7815803Y-4304440D01*
X7824353Y-4300398D01*
X10761956Y-2048677D02*
X10764691Y-2038810D01*
X10768605Y-2029497D01*
X10771764Y-2024175D01*
X8060716Y-4265534D02*
X8063679Y-4266227D01*
X8063679Y-4266227D02*
X8077097Y-4268272D01*
X8090485Y-4270790D01*
X8103827Y-4273775D01*
X8117107Y-4277223D01*
X8130309Y-4281129D01*
X8143418Y-4285488D01*
X8156419Y-4290295D01*
X8169295Y-4295544D01*
X8182031Y-4301232D01*
X8194612Y-4307352D01*
X8207022Y-4313900D01*
X8219245Y-4320872D01*
X8231266Y-4328261D01*
X8243068Y-4336063D01*
X8254637Y-4344274D01*
X8265957Y-4352888D01*
X10790613Y-2003470D02*
X10799054Y-1997868D01*
X10808181Y-1993390D01*
X10808626Y-1993224D01*
X8782224Y-1489711D02*
X8787686Y-2734062D01*
X7629693Y-4894842D02*
X7630988Y-4897073D01*
X6173240Y-1336134D02*
G75*
G02*
X6373244Y-1537012I0J-200006D01*
G01*
X10808626Y-1993224D02*
G75*
G02*
X11137331Y-1936075I333264J-942956D01*
G01*
X2158999Y-6185217D02*
X2159000Y-6121400D01*
X3661914Y-7026416D02*
G75*
G02*
X3461914Y-7026416I-100000J0D01*
G01*
X3461914Y-7026416D02*
G75*
G02*
X3661914Y-7026416I100000J0D01*
G01*
X7807673Y-6600647D02*
X7808430Y-6602078D01*
X7751096Y-5055848D02*
X7755423Y-5066252D01*
X7759098Y-5076838D01*
X7762113Y-5087531D01*
X7764455Y-5098259D01*
X7766117Y-5108950D01*
X7767088Y-5119531D01*
X7767280Y-5123717D01*
X5213118Y-3513155D02*
G75*
G02*
X5360857Y-3708031I-52268J-193065D01*
G01*
X11457601Y-6870832D02*
X11383342Y-6945091D01*
X7767396Y-5125555D02*
X7767465Y-5136175D01*
X7766937Y-5146572D01*
X7765830Y-5156520D01*
X7764162Y-5165793D01*
X7588564Y-1536134D02*
X7588564Y-1853457D01*
X4644748Y-4226243D02*
X5160858Y-4226206D01*
X7708237Y-4996322D02*
X7709551Y-4997548D01*
X7467097Y-5941206D02*
G75*
G02*
X6689710Y-5941206I-388693J0D01*
G01*
X6689710Y-5941206D02*
G75*
G02*
X7467097Y-5941206I388693J0D01*
G01*
X10771764Y-2024175D02*
X10777764Y-2016014D01*
X10784688Y-2008480D01*
X10790613Y-2003470D01*
X7751684Y-5206492D02*
X7751041Y-5208414D01*
X8522920Y-4436491D02*
G75*
G02*
X10708539Y-5733713I639857J-1411765D01*
G01*
X7168080Y-4387829D02*
G75*
G02*
X6968080Y-4387829I-100000J0D01*
G01*
X6968080Y-4387829D02*
G75*
G02*
X7168080Y-4387829I100000J0D01*
G01*
X2393316Y-6750909D02*
G75*
G02*
X2159001Y-6185217I565694J565689D01*
G01*
X12355083Y-6582960D02*
G75*
G02*
X12154003Y-6782960I-200003J0D01*
G01*
X10545208Y-2095215D02*
X10555541Y-2091436D01*
X10566014Y-2088081D01*
X10576614Y-2085153D01*
X10587326Y-2082657D01*
X10593493Y-2081426D01*
X7579701Y-4743885D02*
X7577949Y-4729211D01*
X7576734Y-4714452D01*
X7576052Y-4699629D01*
X7575903Y-4684760D01*
X7576284Y-4669865D01*
X7577193Y-4654964D01*
X7578628Y-4640075D01*
X7580588Y-4625219D01*
X7583070Y-4610413D01*
X7586073Y-4595678D01*
X7589595Y-4581033D01*
X7593634Y-4566498D01*
X7598187Y-4552091D01*
X7603253Y-4537831D01*
X7608831Y-4523739D01*
X7614918Y-4509834D01*
X9523057Y-2908887D02*
X9521203Y-2912833D01*
X7708237Y-4996322D02*
X7700811Y-4989072D01*
X7693575Y-4981638D01*
X7687583Y-4975212D01*
X7702429Y-4384543D02*
X7700858Y-4386338D01*
X4373637Y-4403589D02*
X4375716Y-4400325D01*
X10750302Y-2068277D02*
X10756986Y-2060751D01*
X10759308Y-2056999D01*
X10593493Y-2081426D02*
X10604346Y-2079617D01*
X10615259Y-2078251D01*
X10626216Y-2077328D01*
X10637205Y-2076850D01*
X10643493Y-2076777D01*
X12746263Y-2815363D02*
G75*
G02*
X12978351Y-3139662I-344143J-491487D01*
G01*
X9781120Y-2677775D02*
X9807052Y-2669095D01*
X7709551Y-4997548D02*
X7717505Y-5005531D01*
X7724926Y-5013935D01*
X7731779Y-5022702D01*
X7738030Y-5031774D01*
X7743644Y-5041093D01*
X7748586Y-5050601D01*
X7750366Y-5054445D01*
X7616040Y-4507365D02*
X7614918Y-4509834D01*
X7984050Y-1336134D02*
X8587690Y-1336134D01*
X7934659Y-7088414D02*
X7934659Y-7216590D01*
X6568244Y-1536130D02*
G75*
G02*
X6768240Y-1336134I199996J0D01*
G01*
X10727353Y-2076777D02*
X10737280Y-2075436D01*
X10737658Y-2075262D01*
X8347647Y-4423884D02*
X8344613Y-4422372D01*
X7750366Y-5054445D02*
X7751096Y-5055848D01*
X12678170Y-5521922D02*
X12671401Y-5523818D01*
X8344613Y-4422372D02*
X8335927Y-4416275D01*
X8327802Y-4409844D01*
X8319588Y-4402425D01*
X8314060Y-4396668D01*
X10752519Y-5904962D02*
G75*
G02*
X10795434Y-6107625I-457049J-202658D01*
G01*
X7763994Y-5167925D02*
X7761637Y-5178282D01*
X7758752Y-5188298D01*
X7755411Y-5197770D01*
X7751684Y-5206492D01*
X10759308Y-2056999D02*
X10761956Y-2048677D01*
X10045000Y-2409000D02*
G75*
G02*
X9807052Y-2669095I-352670J83750D01*
G01*
X11383342Y-6945091D02*
G75*
G02*
X11171209Y-7032960I-212132J212131D01*
G01*
X10708538Y-5733713D02*
X10708987Y-5736631D01*
X11137331Y-1936075D02*
X11173242Y-1936529D01*
X4375716Y-4400325D02*
G75*
G02*
X4644748Y-4226243I272294J-125885D01*
G01*
X6768240Y-1336134D02*
X7388560Y-1336134D01*
X7934659Y-7216590D02*
G75*
G02*
X7734659Y-7416589I-199999J0D01*
G01*
X8457638Y-4452751D02*
X8453230Y-4452869D01*
X7827233Y-4299119D02*
X7840632Y-4293257D01*
X7854284Y-4287877D01*
X7868170Y-4282983D01*
X7882268Y-4278580D01*
X7896559Y-4274671D01*
X7911023Y-4271260D01*
X7925639Y-4268353D01*
X7940387Y-4265953D01*
X7955247Y-4264064D01*
X7970200Y-4262692D01*
X7985224Y-4261840D01*
X8000300Y-4261512D01*
X8015407Y-4261713D01*
X8030526Y-4262448D01*
X8045635Y-4263720D01*
X8060716Y-4265534D01*
X7824353Y-4300398D02*
X7827233Y-4299119D01*
X7178404Y-3741206D02*
G75*
G02*
X6978404Y-3741206I-100000J0D01*
G01*
X6978404Y-3741206D02*
G75*
G02*
X7178404Y-3741206I100000J0D01*
G01*
X11744343Y-2114308D02*
X12746263Y-2815363D01*
X12917023Y-5371427D02*
G75*
G02*
X12678169Y-5521921I-375123J330577D01*
G01*
X4373637Y-4403589D02*
G75*
G02*
X2969618Y-5320835I-1414637J632190D01*
G01*
X7579701Y-4743885D02*
X7580053Y-4746197D01*
X12917023Y-5371427D02*
X13023116Y-5251030D01*
X9523057Y-2908887D02*
G75*
G02*
X9781120Y-2677775I442084J-234003D01*
G01*
X7629693Y-4894842D02*
X7622869Y-4882180D01*
X7616461Y-4869184D01*
X7610482Y-4855877D01*
X7604941Y-4842285D01*
X7599851Y-4828432D01*
X7595222Y-4814342D01*
X7591066Y-4800042D01*
X7587394Y-4785554D01*
X7584217Y-4770905D01*
X7582380Y-4761061D01*
X7580771Y-4751163D01*
X7580053Y-4746197D01*
X7783564Y-1536130D02*
G75*
G02*
X7984050Y-1336134I199996J0D01*
G01*
X8453230Y-4452869D02*
X8441968Y-4452937D01*
X8430822Y-4452350D01*
X8419901Y-4451139D01*
X8409312Y-4449340D01*
X8399164Y-4446985D01*
X8389563Y-4444109D01*
X8385900Y-4442821D01*
X6373244Y-1537012D02*
X6373244Y-1853433D01*
X8522920Y-4436491D02*
X8518741Y-4438738D01*
X10643493Y-2076777D02*
X10727353Y-2076777D01*
X7764162Y-5165793D02*
X7763994Y-5167925D01*
X7783564Y-1854650D02*
X7783564Y-1536130D01*
X10172278Y-2239350D02*
X10545208Y-2095215D01*
X7767280Y-5123717D02*
X7767396Y-5125555D01*
X8587690Y-1336134D02*
G75*
G02*
X8782224Y-1489711I0J-199996D01*
G01*
X5360857Y-4026205D02*
G75*
G02*
X5160858Y-4226206I-200001J0D01*
G01*
X6568244Y-1854650D02*
X6568244Y-1536130D01*
X8268525Y-4354950D02*
X8276480Y-4361404D01*
X8284648Y-4368444D01*
X8292925Y-4375984D01*
X8301205Y-4383937D01*
X8309382Y-4392215D01*
X8312067Y-4395031D01*
X7808430Y-6602078D02*
G75*
G02*
X7934657Y-7088414I-873770J-486332D01*
G01*
D11*
D10*
X2232500Y-6135000D02*
X2262500Y-6165000D01*
X2262500Y-6135000D02*
X2232500Y-6165000D01*
X2570000Y-6612500D02*
X2600000Y-6642500D01*
X2600000Y-6612500D02*
X2570000Y-6642500D01*
X2672500Y-6047500D02*
X2702500Y-6077500D01*
X2702500Y-6047500D02*
X2672500Y-6077500D01*
X2797500Y-6605000D02*
X2827500Y-6635000D01*
X2827500Y-6605000D02*
X2797500Y-6635000D01*
X2877500Y-5472500D02*
X2907500Y-5502500D01*
X2907500Y-5472500D02*
X2877500Y-5502500D01*
X2935000Y-6065000D02*
X2965000Y-6095000D01*
X2965000Y-6065000D02*
X2935000Y-6095000D01*
X3037500Y-5937500D02*
X3067500Y-5967500D01*
X3067500Y-5937500D02*
X3037500Y-5967500D01*
X3185687Y-6653279D02*
X3215687Y-6683279D01*
X3215687Y-6653279D02*
X3185687Y-6683279D01*
X3280000Y-5410000D02*
X3310000Y-5440000D01*
X3310000Y-5410000D02*
X3280000Y-5440000D01*
X3307500Y-6502500D02*
X3337500Y-6532500D01*
X3337500Y-6502500D02*
X3307500Y-6532500D01*
X3482500Y-5750000D02*
X3512500Y-5780000D01*
X3512500Y-5750000D02*
X3482500Y-5780000D01*
X3610000Y-5982500D02*
X3640000Y-6012500D01*
X3640000Y-5982500D02*
X3610000Y-6012500D01*
X3648641Y-5606914D02*
X3678641Y-5636914D01*
X3678641Y-5606914D02*
X3648641Y-5636914D01*
X3652500Y-5367500D02*
X3682500Y-5397500D01*
X3682500Y-5367500D02*
X3652500Y-5397500D01*
X3755000Y-6332500D02*
X3785000Y-6362500D01*
X3785000Y-6332500D02*
X3755000Y-6362500D01*
X3797500Y-6165000D02*
X3827500Y-6195000D01*
X3827500Y-6165000D02*
X3797500Y-6195000D01*
X3812500Y-5310000D02*
X3842500Y-5340000D01*
X3842500Y-5310000D02*
X3812500Y-5340000D01*
X3975000Y-5512500D02*
X4005000Y-5542500D01*
X4005000Y-5512500D02*
X3975000Y-5542500D01*
X4025000Y-5085000D02*
X4055000Y-5115000D01*
X4055000Y-5085000D02*
X4025000Y-5115000D01*
X4255000Y-5680000D02*
X4285000Y-5710000D01*
X4285000Y-5680000D02*
X4255000Y-5710000D01*
X4395000Y-6712500D02*
X4425000Y-6742500D01*
X4425000Y-6712500D02*
X4395000Y-6742500D01*
X4477000Y-5924000D02*
X4507000Y-5954000D01*
X4507000Y-5924000D02*
X4477000Y-5954000D01*
X4627500Y-5280000D02*
X4657500Y-5310000D01*
X4657500Y-5280000D02*
X4627500Y-5310000D01*
X4657500Y-5852500D02*
X4687500Y-5882500D01*
X4687500Y-5852500D02*
X4657500Y-5882500D01*
X4734000Y-6146000D02*
X4764000Y-6176000D01*
X4764000Y-6146000D02*
X4734000Y-6176000D01*
X4780194Y-4557199D02*
X4810194Y-4587199D01*
X4810194Y-4557199D02*
X4780194Y-4587199D01*
X4875000Y-5897500D02*
X4905000Y-5927500D01*
X4905000Y-5897500D02*
X4875000Y-5927500D01*
X4888000Y-4560000D02*
X4918000Y-4590000D01*
X4918000Y-4560000D02*
X4888000Y-4590000D01*
X4950000Y-5302500D02*
X4980000Y-5332500D01*
X4980000Y-5302500D02*
X4950000Y-5332500D01*
X4950081Y-6396259D02*
X4980081Y-6426259D01*
X4980081Y-6396259D02*
X4950081Y-6426259D01*
X4959000Y-5476000D02*
X4989000Y-5506000D01*
X4989000Y-5476000D02*
X4959000Y-5506000D01*
X5110000Y-5827000D02*
X5140000Y-5857000D01*
X5140000Y-5827000D02*
X5110000Y-5857000D01*
X5197500Y-1747500D02*
X5227500Y-1777500D01*
X5227500Y-1747500D02*
X5197500Y-1777500D01*
X5230000Y-3225000D02*
X5260000Y-3255000D01*
X5260000Y-3225000D02*
X5230000Y-3255000D01*
X5265000Y-5530000D02*
X5295000Y-5560000D01*
X5295000Y-5530000D02*
X5265000Y-5560000D01*
X5305000Y-4822500D02*
X5335000Y-4852500D01*
X5335000Y-4822500D02*
X5305000Y-4852500D01*
X5392500Y-6002500D02*
X5422500Y-6032500D01*
X5422500Y-6002500D02*
X5392500Y-6032500D01*
X5450000Y-6407500D02*
X5480000Y-6437500D01*
X5480000Y-6407500D02*
X5450000Y-6437500D01*
X5485000Y-6267500D02*
X5515000Y-6297500D01*
X5515000Y-6267500D02*
X5485000Y-6297500D01*
X5537500Y-4112500D02*
X5567500Y-4142500D01*
X5567500Y-4112500D02*
X5537500Y-4142500D01*
X5552500Y-4880000D02*
X5582500Y-4910000D01*
X5582500Y-4880000D02*
X5552500Y-4910000D01*
X5557500Y-1462500D02*
X5587500Y-1492500D01*
X5587500Y-1462500D02*
X5557500Y-1492500D01*
X5570000Y-2860000D02*
X5600000Y-2890000D01*
X5600000Y-2860000D02*
X5570000Y-2890000D01*
X5592500Y-5502500D02*
X5622500Y-5532500D01*
X5622500Y-5502500D02*
X5592500Y-5532500D01*
X5602500Y-3407500D02*
X5632500Y-3437500D01*
X5632500Y-3407500D02*
X5602500Y-3437500D01*
X5645000Y-1937500D02*
X5675000Y-1967500D01*
X5675000Y-1937500D02*
X5645000Y-1967500D01*
X5720000Y-1882500D02*
X5750000Y-1912500D01*
X5750000Y-1882500D02*
X5720000Y-1912500D01*
X5738656Y-2774628D02*
X5768656Y-2804628D01*
X5768656Y-2774628D02*
X5738656Y-2804628D01*
X5822868Y-1844890D02*
X5852868Y-1874890D01*
X5852868Y-1844890D02*
X5822868Y-1874890D01*
X5830000Y-2780000D02*
X5860000Y-2810000D01*
X5860000Y-2780000D02*
X5830000Y-2810000D01*
X5872426Y-3903544D02*
X5902426Y-3933544D01*
X5902426Y-3903544D02*
X5872426Y-3933544D01*
X5925649Y-3071714D02*
X5955649Y-3101714D01*
X5955649Y-3071714D02*
X5925649Y-3101714D01*
X5926105Y-2984016D02*
X5956105Y-3014016D01*
X5956105Y-2984016D02*
X5926105Y-3014016D01*
X5940000Y-1477500D02*
X5970000Y-1507500D01*
X5970000Y-1477500D02*
X5940000Y-1507500D01*
X6010000Y-3175000D02*
X6040000Y-3205000D01*
X6040000Y-3175000D02*
X6010000Y-3205000D01*
X6015734Y-3083648D02*
X6045734Y-3113648D01*
X6045734Y-3083648D02*
X6015734Y-3113648D01*
X6016951Y-3263250D02*
X6046951Y-3293250D01*
X6046951Y-3263250D02*
X6016951Y-3293250D01*
X6084202Y-3333734D02*
X6114202Y-3363734D01*
X6114202Y-3333734D02*
X6084202Y-3363734D01*
X6087500Y-3430000D02*
X6117500Y-3460000D01*
X6117500Y-3430000D02*
X6087500Y-3460000D01*
X6087500Y-3645000D02*
X6117500Y-3675000D01*
X6117500Y-3645000D02*
X6087500Y-3675000D01*
X6090000Y-1627500D02*
X6120000Y-1657500D01*
X6120000Y-1627500D02*
X6090000Y-1657500D01*
X6207500Y-4180000D02*
X6237500Y-4210000D01*
X6237500Y-4180000D02*
X6207500Y-4210000D01*
X6218000Y-5300000D02*
X6248000Y-5330000D01*
X6248000Y-5300000D02*
X6218000Y-5330000D01*
X6237500Y-4532500D02*
X6267500Y-4562500D01*
X6267500Y-4532500D02*
X6237500Y-4562500D01*
X6410000Y-3080000D02*
X6440000Y-3110000D01*
X6440000Y-3080000D02*
X6410000Y-3110000D01*
X6571662Y-2994793D02*
X6601662Y-3024793D01*
X6601662Y-2994793D02*
X6571662Y-3024793D01*
X6606353Y-4545200D02*
X6636353Y-4575200D01*
X6636353Y-4545200D02*
X6606353Y-4575200D01*
X6702477Y-4487995D02*
X6732477Y-4517995D01*
X6732477Y-4487995D02*
X6702477Y-4517995D01*
X6722500Y-1772500D02*
X6752500Y-1802500D01*
X6752500Y-1772500D02*
X6722500Y-1802500D01*
X6757500Y-6492500D02*
X6787500Y-6522500D01*
X6787500Y-6492500D02*
X6757500Y-6522500D01*
X6811710Y-5493597D02*
X6841710Y-5523597D01*
X6841710Y-5493597D02*
X6811710Y-5523597D01*
X6839740Y-2258417D02*
X6869740Y-2288417D01*
X6869740Y-2258417D02*
X6839740Y-2288417D01*
X6897000Y-3437000D02*
X6927000Y-3467000D01*
X6927000Y-3437000D02*
X6897000Y-3467000D01*
X6907500Y-2835000D02*
X6937500Y-2865000D01*
X6937500Y-2835000D02*
X6907500Y-2865000D01*
X6920472Y-2482392D02*
X6950472Y-2512392D01*
X6950472Y-2482392D02*
X6920472Y-2512392D01*
X6922211Y-4874711D02*
X6952211Y-4904711D01*
X6952211Y-4874711D02*
X6922211Y-4904711D01*
X6940240Y-1900100D02*
X6970240Y-1930100D01*
X6970240Y-1900100D02*
X6940240Y-1930100D01*
X6941492Y-3303417D02*
X6971492Y-3333417D01*
X6971492Y-3303417D02*
X6941492Y-3333417D01*
X6942118Y-1813700D02*
X6972118Y-1843700D01*
X6972118Y-1813700D02*
X6942118Y-1843700D01*
X6951353Y-3183411D02*
X6981353Y-3213411D01*
X6981353Y-3183411D02*
X6951353Y-3213411D01*
X6995000Y-2440000D02*
X7025000Y-2470000D01*
X7025000Y-2440000D02*
X6995000Y-2470000D01*
X7046489Y-2364254D02*
X7076489Y-2394254D01*
X7076489Y-2364254D02*
X7046489Y-2394254D01*
X7065000Y-2970000D02*
X7095000Y-3000000D01*
X7095000Y-2970000D02*
X7065000Y-3000000D01*
X7075474Y-1865665D02*
X7105474Y-1895665D01*
X7105474Y-1865665D02*
X7075474Y-1895665D01*
X7132500Y-2400000D02*
X7162500Y-2430000D01*
X7162500Y-2400000D02*
X7132500Y-2430000D01*
X7182533Y-2880230D02*
X7212533Y-2910230D01*
X7212533Y-2880230D02*
X7182533Y-2910230D01*
X7191887Y-5262792D02*
X7221887Y-5292792D01*
X7221887Y-5262792D02*
X7191887Y-5292792D01*
X7192673Y-3356951D02*
X7222673Y-3386951D01*
X7222673Y-3356951D02*
X7192673Y-3386951D01*
X7235609Y-2508104D02*
X7265609Y-2538104D01*
X7265609Y-2508104D02*
X7235609Y-2538104D01*
X7258291Y-1865665D02*
X7288291Y-1895665D01*
X7288291Y-1865665D02*
X7258291Y-1895665D01*
X7287500Y-7265000D02*
X7317500Y-7295000D01*
X7317500Y-7265000D02*
X7287500Y-7295000D01*
X7313605Y-1991287D02*
X7343605Y-2021287D01*
X7343605Y-1991287D02*
X7313605Y-2021287D01*
X7329038Y-1906361D02*
X7359038Y-1936361D01*
X7359038Y-1906361D02*
X7329038Y-1936361D01*
X7332933Y-3504854D02*
X7362933Y-3534854D01*
X7362933Y-3504854D02*
X7332933Y-3534854D01*
X7371204Y-2119634D02*
X7401204Y-2149634D01*
X7401204Y-2119634D02*
X7371204Y-2149634D01*
X7388735Y-2022591D02*
X7418735Y-2052591D01*
X7418735Y-2022591D02*
X7388735Y-2052591D01*
X7423677Y-5230522D02*
X7453677Y-5260522D01*
X7453677Y-5230522D02*
X7423677Y-5260522D01*
X7489610Y-3030967D02*
X7519610Y-3060967D01*
X7519610Y-3030967D02*
X7489610Y-3060967D01*
X7502500Y-1762500D02*
X7532500Y-1792500D01*
X7532500Y-1762500D02*
X7502500Y-1792500D01*
X7510000Y-5267500D02*
X7540000Y-5297500D01*
X7540000Y-5267500D02*
X7510000Y-5297500D01*
X7519635Y-2210787D02*
X7549635Y-2240787D01*
X7549635Y-2210787D02*
X7519635Y-2240787D01*
X7584308Y-2450561D02*
X7614308Y-2480561D01*
X7614308Y-2450561D02*
X7584308Y-2480561D01*
X7610103Y-5266587D02*
X7640103Y-5296587D01*
X7640103Y-5266587D02*
X7610103Y-5296587D01*
X7642895Y-3203864D02*
X7672895Y-3233864D01*
X7672895Y-3203864D02*
X7642895Y-3233864D01*
X7648861Y-2710342D02*
X7678861Y-2740342D01*
X7678861Y-2710342D02*
X7648861Y-2740342D01*
X7770000Y-2445000D02*
X7800000Y-2475000D01*
X7800000Y-2445000D02*
X7770000Y-2475000D01*
X7840000Y-2377500D02*
X7870000Y-2407500D01*
X7870000Y-2377500D02*
X7840000Y-2407500D01*
X7895000Y-2310000D02*
X7925000Y-2340000D01*
X7925000Y-2310000D02*
X7895000Y-2340000D01*
X7915000Y-1642500D02*
X7945000Y-1672500D01*
X7945000Y-1642500D02*
X7915000Y-1672500D01*
X7915000Y-2530000D02*
X7945000Y-2560000D01*
X7945000Y-2530000D02*
X7915000Y-2560000D01*
X7915000Y-2670000D02*
X7945000Y-2700000D01*
X7945000Y-2670000D02*
X7915000Y-2700000D01*
X7930000Y-2230000D02*
X7960000Y-2260000D01*
X7960000Y-2230000D02*
X7930000Y-2260000D01*
X8050000Y-1810000D02*
X8080000Y-1840000D01*
X8080000Y-1810000D02*
X8050000Y-1840000D01*
X8121509Y-1460355D02*
X8151509Y-1490355D01*
X8151509Y-1460355D02*
X8121509Y-1490355D01*
X8157500Y-3067500D02*
X8187500Y-3097500D01*
X8187500Y-3067500D02*
X8157500Y-3097500D01*
X8162500Y-2987500D02*
X8192500Y-3017500D01*
X8192500Y-2987500D02*
X8162500Y-3017500D01*
X8167500Y-2907500D02*
X8197500Y-2937500D01*
X8197500Y-2907500D02*
X8167500Y-2937500D01*
X8244808Y-2066011D02*
X8274808Y-2096011D01*
X8274808Y-2066011D02*
X8244808Y-2096011D01*
X8272500Y-2427500D02*
X8302500Y-2457500D01*
X8302500Y-2427500D02*
X8272500Y-2457500D01*
X8295000Y-2755000D02*
X8325000Y-2785000D01*
X8325000Y-2755000D02*
X8295000Y-2785000D01*
X8324970Y-2031069D02*
X8354970Y-2061069D01*
X8354970Y-2031069D02*
X8324970Y-2061069D01*
X8375000Y-1877500D02*
X8405000Y-1907500D01*
X8405000Y-1877500D02*
X8375000Y-1907500D01*
X8387500Y-2755000D02*
X8417500Y-2785000D01*
X8417500Y-2755000D02*
X8387500Y-2785000D01*
X8395000Y-2150000D02*
X8425000Y-2180000D01*
X8425000Y-2150000D02*
X8395000Y-2180000D01*
X8400000Y-2240000D02*
X8430000Y-2270000D01*
X8430000Y-2240000D02*
X8400000Y-2270000D01*
X8527500Y-1492500D02*
X8557500Y-1522500D01*
X8557500Y-1492500D02*
X8527500Y-1522500D01*
X8582500Y-1982500D02*
X8612500Y-2012500D01*
X8612500Y-1982500D02*
X8582500Y-2012500D01*
X8592500Y-3465000D02*
X8622500Y-3495000D01*
X8622500Y-3465000D02*
X8592500Y-3495000D01*
X8607248Y-3596542D02*
X8637248Y-3626542D01*
X8637248Y-3596542D02*
X8607248Y-3626542D01*
X8651866Y-3678019D02*
X8681866Y-3708019D01*
X8681866Y-3678019D02*
X8651866Y-3708019D01*
X8655000Y-3527500D02*
X8685000Y-3557500D01*
X8685000Y-3527500D02*
X8655000Y-3557500D01*
X8664152Y-3401254D02*
X8694152Y-3431254D01*
X8694152Y-3401254D02*
X8664152Y-3431254D01*
X8735000Y-3352500D02*
X8765000Y-3382500D01*
X8765000Y-3352500D02*
X8735000Y-3382500D01*
X8750000Y-3265000D02*
X8780000Y-3295000D01*
X8780000Y-3265000D02*
X8750000Y-3295000D01*
X8762500Y-3102500D02*
X8792500Y-3132500D01*
X8792500Y-3102500D02*
X8762500Y-3132500D01*
X8822500Y-3225000D02*
X8852500Y-3255000D01*
X8852500Y-3225000D02*
X8822500Y-3255000D01*
X8872500Y-3162500D02*
X8902500Y-3192500D01*
X8902500Y-3162500D02*
X8872500Y-3192500D01*
X9412500Y-3830000D02*
X9442500Y-3860000D01*
X9442500Y-3830000D02*
X9412500Y-3860000D01*
X9412500Y-3922500D02*
X9442500Y-3952500D01*
X9442500Y-3922500D02*
X9412500Y-3952500D01*
X9417500Y-3742500D02*
X9447500Y-3772500D01*
X9447500Y-3742500D02*
X9417500Y-3772500D01*
X9427500Y-3627500D02*
X9457500Y-3657500D01*
X9457500Y-3627500D02*
X9427500Y-3657500D01*
X9435000Y-3525000D02*
X9465000Y-3555000D01*
X9465000Y-3525000D02*
X9435000Y-3555000D01*
X9602500Y-4202500D02*
X9632500Y-4232500D01*
X9632500Y-4202500D02*
X9602500Y-4232500D01*
X9665000Y-2825000D02*
X9695000Y-2855000D01*
X9695000Y-2825000D02*
X9665000Y-2855000D01*
X9810000Y-4092500D02*
X9840000Y-4122500D01*
X9840000Y-4092500D02*
X9810000Y-4122500D01*
X9837000Y-4315000D02*
X9867000Y-4345000D01*
X9867000Y-4315000D02*
X9837000Y-4345000D01*
X10007500Y-3042500D02*
X10037500Y-3072500D01*
X10037500Y-3042500D02*
X10007500Y-3072500D01*
X10112412Y-4294882D02*
X10142412Y-4324882D01*
X10142412Y-4294882D02*
X10112412Y-4324882D01*
X10137500Y-3312500D02*
X10167500Y-3342500D01*
X10167500Y-3312500D02*
X10137500Y-3342500D01*
X10500000Y-3882500D02*
X10530000Y-3912500D01*
X10530000Y-3882500D02*
X10500000Y-3912500D01*
X10505000Y-3252500D02*
X10535000Y-3282500D01*
X10535000Y-3252500D02*
X10505000Y-3282500D01*
X10567500Y-3942500D02*
X10597500Y-3972500D01*
X10597500Y-3942500D02*
X10567500Y-3972500D01*
X10590000Y-3250000D02*
X10620000Y-3280000D01*
X10620000Y-3250000D02*
X10590000Y-3280000D01*
X10632500Y-2682500D02*
X10662500Y-2712500D01*
X10662500Y-2682500D02*
X10632500Y-2712500D01*
X10632500Y-2770000D02*
X10662500Y-2800000D01*
X10662500Y-2770000D02*
X10632500Y-2800000D01*
X10772500Y-2787500D02*
X10802500Y-2817500D01*
X10802500Y-2787500D02*
X10772500Y-2817500D01*
X10917500Y-6585000D02*
X10947500Y-6615000D01*
X10947500Y-6585000D02*
X10917500Y-6615000D01*
X10969000Y-2120000D02*
X10999000Y-2150000D01*
X10999000Y-2120000D02*
X10969000Y-2150000D01*
X10988000Y-4150000D02*
X11018000Y-4180000D01*
X11018000Y-4150000D02*
X10988000Y-4180000D01*
X10997500Y-3092500D02*
X11027500Y-3122500D01*
X11027500Y-3092500D02*
X10997500Y-3122500D01*
X11000000Y-5147500D02*
X11030000Y-5177500D01*
X11030000Y-5147500D02*
X11000000Y-5177500D01*
X11065000Y-6807500D02*
X11095000Y-6837500D01*
X11095000Y-6807500D02*
X11065000Y-6837500D01*
X11192500Y-3300000D02*
X11222500Y-3330000D01*
X11222500Y-3300000D02*
X11192500Y-3330000D01*
X11207500Y-6600000D02*
X11237500Y-6630000D01*
X11237500Y-6600000D02*
X11207500Y-6630000D01*
X11322500Y-2272500D02*
X11352500Y-2302500D01*
X11352500Y-2272500D02*
X11322500Y-2302500D01*
X11322500Y-4325000D02*
X11352500Y-4355000D01*
X11352500Y-4325000D02*
X11322500Y-4355000D01*
X11322500Y-5257500D02*
X11352500Y-5287500D01*
X11352500Y-5257500D02*
X11322500Y-5287500D01*
X11327000Y-6522500D02*
X11357000Y-6552500D01*
X11357000Y-6522500D02*
X11327000Y-6552500D01*
X11435000Y-6732500D02*
X11465000Y-6762500D01*
X11465000Y-6732500D02*
X11435000Y-6762500D01*
X11697500Y-3175000D02*
X11727500Y-3205000D01*
X11727500Y-3175000D02*
X11697500Y-3205000D01*
X11842500Y-4575000D02*
X11872500Y-4605000D01*
X11872500Y-4575000D02*
X11842500Y-4605000D01*
X11900000Y-4700000D02*
X11930000Y-4730000D01*
X11930000Y-4700000D02*
X11900000Y-4730000D01*
X11970000Y-4330000D02*
X12000000Y-4360000D01*
X12000000Y-4330000D02*
X11970000Y-4360000D01*
X12190000Y-3180000D02*
X12220000Y-3210000D01*
X12220000Y-3180000D02*
X12190000Y-3210000D01*
X12192500Y-4112500D02*
X12222500Y-4142500D01*
X12222500Y-4112500D02*
X12192500Y-4142500D01*
X12512500Y-3292500D02*
X12542500Y-3322500D01*
X12542500Y-3292500D02*
X12512500Y-3322500D01*
X12517000Y-4303000D02*
X12547000Y-4333000D01*
X12547000Y-4303000D02*
X12517000Y-4333000D01*
X2505000Y-5810000D02*
G75*
G02*
X2455000Y-5810000I-25000J0D01*
G01*
X2455000Y-5810000D02*
G75*
G02*
X2505000Y-5810000I25000J0D01*
G01*
X2712500Y-5810000D02*
G75*
G02*
X2662500Y-5810000I-25000J0D01*
G01*
X2662500Y-5810000D02*
G75*
G02*
X2712500Y-5810000I25000J0D01*
G01*
X11917500Y-5837500D02*
G75*
G02*
X11867500Y-5837500I-25000J0D01*
G01*
X11867500Y-5837500D02*
G75*
G02*
X11917500Y-5837500I25000J0D01*
G01*
X11917500Y-6045000D02*
G75*
G02*
X11867500Y-6045000I-25000J0D01*
G01*
X11867500Y-6045000D02*
G75*
G02*
X11917500Y-6045000I25000J0D01*
G01*
X6788000Y-1435000D02*
X6788000Y-1515000D01*
X6748000Y-1475000D02*
X6828000Y-1475000D01*
X6988000Y-1435000D02*
X6988000Y-1515000D01*
X6948000Y-1475000D02*
X7028000Y-1475000D01*
X7188000Y-1435000D02*
X7188000Y-1515000D01*
X7148000Y-1475000D02*
X7228000Y-1475000D01*
X7388000Y-1435000D02*
X7388000Y-1515000D01*
X7348000Y-1475000D02*
X7428000Y-1475000D01*
X2475982Y-6288268D02*
X2475982Y-6217557D01*
X2405271Y-6217557D01*
X2405271Y-6288268D01*
X2475982Y-6288268D01*
X2975982Y-6288268D02*
X2975982Y-6217557D01*
X2905270Y-6217557D01*
X2905270Y-6288268D01*
X2975982Y-6288268D01*
X10020629Y-3507014D02*
X10020629Y-3436303D01*
X9949918Y-3436303D01*
X9949918Y-3507014D01*
X10020629Y-3507014D01*
X10020629Y-4007014D02*
X10020629Y-3936303D01*
X9949918Y-3936303D01*
X9949918Y-4007014D01*
X10020629Y-4007014D01*
X11210629Y-2478264D02*
X11210629Y-2407553D01*
X11139918Y-2407553D01*
X11139918Y-2478264D01*
X11210629Y-2478264D01*
X11210629Y-2978264D02*
X11210629Y-2907553D01*
X11139918Y-2907553D01*
X11139918Y-2978264D01*
X11210629Y-2978264D01*
X11210629Y-4535764D02*
X11210629Y-4465053D01*
X11139918Y-4465053D01*
X11139918Y-4535764D01*
X11210629Y-4535764D01*
X11210629Y-5035764D02*
X11210629Y-4965053D01*
X11139918Y-4965053D01*
X11139918Y-5035764D01*
X11210629Y-5035764D01*
X11251537Y-6288268D02*
X11251537Y-6217557D01*
X11180826Y-6217557D01*
X11180826Y-6288268D01*
X11251537Y-6288268D01*
X11751537Y-6288268D02*
X11751537Y-6217557D01*
X11680826Y-6217557D01*
X11680826Y-6288268D01*
X11751537Y-6288268D01*
X12400629Y-3507014D02*
X12400629Y-3436303D01*
X12329918Y-3436303D01*
X12329918Y-3507014D01*
X12400629Y-3507014D01*
X12400629Y-4007014D02*
X12400629Y-3936303D01*
X12329918Y-3936303D01*
X12329918Y-4007014D01*
X12400629Y-4007014D01*
D11*
X2414775Y-7733077D02*
X2414775Y-7533077D01*
X2414775Y-7533077D02*
X2462394Y-7533077D01*
X2462394Y-7533077D02*
X2490966Y-7542601D01*
X2490966Y-7542601D02*
X2510014Y-7561648D01*
X2510014Y-7561648D02*
X2519537Y-7580696D01*
X2519537Y-7580696D02*
X2529061Y-7618791D01*
X2529061Y-7618791D02*
X2529061Y-7647363D01*
X2529061Y-7647363D02*
X2519537Y-7685458D01*
X2519537Y-7685458D02*
X2510014Y-7704505D01*
X2510014Y-7704505D02*
X2490966Y-7723553D01*
X2490966Y-7723553D02*
X2462394Y-7733077D01*
X2462394Y-7733077D02*
X2414775Y-7733077D01*
X2614775Y-7733077D02*
X2614775Y-7599744D01*
X2614775Y-7637839D02*
X2624299Y-7618791D01*
X2624299Y-7618791D02*
X2633823Y-7609267D01*
X2633823Y-7609267D02*
X2652871Y-7599744D01*
X2652871Y-7599744D02*
X2671918Y-7599744D01*
X2738585Y-7733077D02*
X2738585Y-7599744D01*
X2738585Y-7533077D02*
X2729061Y-7542601D01*
X2729061Y-7542601D02*
X2738585Y-7552125D01*
X2738585Y-7552125D02*
X2748109Y-7542601D01*
X2748109Y-7542601D02*
X2738585Y-7533077D01*
X2738585Y-7533077D02*
X2738585Y-7552125D01*
X2862394Y-7733077D02*
X2843347Y-7723553D01*
X2843347Y-7723553D02*
X2833823Y-7704505D01*
X2833823Y-7704505D02*
X2833823Y-7533077D01*
X2967156Y-7733077D02*
X2948109Y-7723553D01*
X2948109Y-7723553D02*
X2938585Y-7704505D01*
X2938585Y-7704505D02*
X2938585Y-7533077D01*
X3195728Y-7733077D02*
X3195728Y-7533077D01*
X3195728Y-7533077D02*
X3262394Y-7675934D01*
X3262394Y-7675934D02*
X3329061Y-7533077D01*
X3329061Y-7533077D02*
X3329061Y-7733077D01*
X3510013Y-7733077D02*
X3510013Y-7628315D01*
X3510013Y-7628315D02*
X3500490Y-7609267D01*
X3500490Y-7609267D02*
X3481442Y-7599744D01*
X3481442Y-7599744D02*
X3443347Y-7599744D01*
X3443347Y-7599744D02*
X3424299Y-7609267D01*
X3510013Y-7723553D02*
X3490966Y-7733077D01*
X3490966Y-7733077D02*
X3443347Y-7733077D01*
X3443347Y-7733077D02*
X3424299Y-7723553D01*
X3424299Y-7723553D02*
X3414775Y-7704505D01*
X3414775Y-7704505D02*
X3414775Y-7685458D01*
X3414775Y-7685458D02*
X3424299Y-7666410D01*
X3424299Y-7666410D02*
X3443347Y-7656886D01*
X3443347Y-7656886D02*
X3490966Y-7656886D01*
X3490966Y-7656886D02*
X3510013Y-7647363D01*
X3605252Y-7599744D02*
X3605252Y-7799744D01*
X3605252Y-7609267D02*
X3624299Y-7599744D01*
X3624299Y-7599744D02*
X3662394Y-7599744D01*
X3662394Y-7599744D02*
X3681442Y-7609267D01*
X3681442Y-7609267D02*
X3690966Y-7618791D01*
X3690966Y-7618791D02*
X3700490Y-7637839D01*
X3700490Y-7637839D02*
X3700490Y-7694982D01*
X3700490Y-7694982D02*
X3690966Y-7714029D01*
X3690966Y-7714029D02*
X3681442Y-7723553D01*
X3681442Y-7723553D02*
X3662394Y-7733077D01*
X3662394Y-7733077D02*
X3624299Y-7733077D01*
X3624299Y-7733077D02*
X3605252Y-7723553D01*
X3786204Y-7714029D02*
X3795728Y-7723553D01*
X3795728Y-7723553D02*
X3786204Y-7733077D01*
X3786204Y-7733077D02*
X3776680Y-7723553D01*
X3776680Y-7723553D02*
X3786204Y-7714029D01*
X3786204Y-7714029D02*
X3786204Y-7733077D01*
X3786204Y-7609267D02*
X3795728Y-7618791D01*
X3795728Y-7618791D02*
X3786204Y-7628315D01*
X3786204Y-7628315D02*
X3776680Y-7618791D01*
X3776680Y-7618791D02*
X3786204Y-7609267D01*
X3786204Y-7609267D02*
X3786204Y-7628315D01*
D10*
X2123999Y-8046593D02*
X2153999Y-8076593D01*
X2153999Y-8046593D02*
X2123999Y-8076593D01*
D11*
X2452871Y-7953077D02*
X2471918Y-7953077D01*
X2471918Y-7953077D02*
X2490966Y-7962601D01*
X2490966Y-7962601D02*
X2500490Y-7972125D01*
X2500490Y-7972125D02*
X2510014Y-7991172D01*
X2510014Y-7991172D02*
X2519537Y-8029267D01*
X2519537Y-8029267D02*
X2519537Y-8076886D01*
X2519537Y-8076886D02*
X2510014Y-8114982D01*
X2510014Y-8114982D02*
X2500490Y-8134029D01*
X2500490Y-8134029D02*
X2490966Y-8143553D01*
X2490966Y-8143553D02*
X2471918Y-8153077D01*
X2471918Y-8153077D02*
X2452871Y-8153077D01*
X2452871Y-8153077D02*
X2433823Y-8143553D01*
X2433823Y-8143553D02*
X2424299Y-8134029D01*
X2424299Y-8134029D02*
X2414775Y-8114982D01*
X2414775Y-8114982D02*
X2405252Y-8076886D01*
X2405252Y-8076886D02*
X2405252Y-8029267D01*
X2405252Y-8029267D02*
X2414775Y-7991172D01*
X2414775Y-7991172D02*
X2424299Y-7972125D01*
X2424299Y-7972125D02*
X2433823Y-7962601D01*
X2433823Y-7962601D02*
X2452871Y-7953077D01*
X2605252Y-8134029D02*
X2614775Y-8143553D01*
X2614775Y-8143553D02*
X2605252Y-8153077D01*
X2605252Y-8153077D02*
X2595728Y-8143553D01*
X2595728Y-8143553D02*
X2605252Y-8134029D01*
X2605252Y-8134029D02*
X2605252Y-8153077D01*
X2681442Y-7953077D02*
X2805252Y-7953077D01*
X2805252Y-7953077D02*
X2738585Y-8029267D01*
X2738585Y-8029267D02*
X2767156Y-8029267D01*
X2767156Y-8029267D02*
X2786204Y-8038791D01*
X2786204Y-8038791D02*
X2795728Y-8048315D01*
X2795728Y-8048315D02*
X2805252Y-8067363D01*
X2805252Y-8067363D02*
X2805252Y-8114982D01*
X2805252Y-8114982D02*
X2795728Y-8134029D01*
X2795728Y-8134029D02*
X2786204Y-8143553D01*
X2786204Y-8143553D02*
X2767156Y-8153077D01*
X2767156Y-8153077D02*
X2710014Y-8153077D01*
X2710014Y-8153077D02*
X2690966Y-8143553D01*
X2690966Y-8143553D02*
X2681442Y-8134029D01*
X2929061Y-7953077D02*
X2948109Y-7953077D01*
X2948109Y-7953077D02*
X2967156Y-7962601D01*
X2967156Y-7962601D02*
X2976680Y-7972125D01*
X2976680Y-7972125D02*
X2986204Y-7991172D01*
X2986204Y-7991172D02*
X2995728Y-8029267D01*
X2995728Y-8029267D02*
X2995728Y-8076886D01*
X2995728Y-8076886D02*
X2986204Y-8114982D01*
X2986204Y-8114982D02*
X2976680Y-8134029D01*
X2976680Y-8134029D02*
X2967156Y-8143553D01*
X2967156Y-8143553D02*
X2948109Y-8153077D01*
X2948109Y-8153077D02*
X2929061Y-8153077D01*
X2929061Y-8153077D02*
X2910013Y-8143553D01*
X2910013Y-8143553D02*
X2900490Y-8134029D01*
X2900490Y-8134029D02*
X2890966Y-8114982D01*
X2890966Y-8114982D02*
X2881442Y-8076886D01*
X2881442Y-8076886D02*
X2881442Y-8029267D01*
X2881442Y-8029267D02*
X2890966Y-7991172D01*
X2890966Y-7991172D02*
X2900490Y-7972125D01*
X2900490Y-7972125D02*
X2910013Y-7962601D01*
X2910013Y-7962601D02*
X2929061Y-7953077D01*
X3119537Y-7953077D02*
X3138585Y-7953077D01*
X3138585Y-7953077D02*
X3157633Y-7962601D01*
X3157633Y-7962601D02*
X3167156Y-7972125D01*
X3167156Y-7972125D02*
X3176680Y-7991172D01*
X3176680Y-7991172D02*
X3186204Y-8029267D01*
X3186204Y-8029267D02*
X3186204Y-8076886D01*
X3186204Y-8076886D02*
X3176680Y-8114982D01*
X3176680Y-8114982D02*
X3167156Y-8134029D01*
X3167156Y-8134029D02*
X3157633Y-8143553D01*
X3157633Y-8143553D02*
X3138585Y-8153077D01*
X3138585Y-8153077D02*
X3119537Y-8153077D01*
X3119537Y-8153077D02*
X3100490Y-8143553D01*
X3100490Y-8143553D02*
X3090966Y-8134029D01*
X3090966Y-8134029D02*
X3081442Y-8114982D01*
X3081442Y-8114982D02*
X3071918Y-8076886D01*
X3071918Y-8076886D02*
X3071918Y-8029267D01*
X3071918Y-8029267D02*
X3081442Y-7991172D01*
X3081442Y-7991172D02*
X3090966Y-7972125D01*
X3090966Y-7972125D02*
X3100490Y-7962601D01*
X3100490Y-7962601D02*
X3119537Y-7953077D01*
X3271918Y-8153077D02*
X3271918Y-8019744D01*
X3271918Y-8038791D02*
X3281442Y-8029267D01*
X3281442Y-8029267D02*
X3300490Y-8019744D01*
X3300490Y-8019744D02*
X3329061Y-8019744D01*
X3329061Y-8019744D02*
X3348109Y-8029267D01*
X3348109Y-8029267D02*
X3357633Y-8048315D01*
X3357633Y-8048315D02*
X3357633Y-8153077D01*
X3357633Y-8048315D02*
X3367156Y-8029267D01*
X3367156Y-8029267D02*
X3386204Y-8019744D01*
X3386204Y-8019744D02*
X3414775Y-8019744D01*
X3414775Y-8019744D02*
X3433823Y-8029267D01*
X3433823Y-8029267D02*
X3443347Y-8048315D01*
X3443347Y-8048315D02*
X3443347Y-8153077D01*
X3538585Y-8153077D02*
X3538585Y-8019744D01*
X3538585Y-8038791D02*
X3548109Y-8029267D01*
X3548109Y-8029267D02*
X3567156Y-8019744D01*
X3567156Y-8019744D02*
X3595728Y-8019744D01*
X3595728Y-8019744D02*
X3614775Y-8029267D01*
X3614775Y-8029267D02*
X3624299Y-8048315D01*
X3624299Y-8048315D02*
X3624299Y-8153077D01*
X3624299Y-8048315D02*
X3633823Y-8029267D01*
X3633823Y-8029267D02*
X3652871Y-8019744D01*
X3652871Y-8019744D02*
X3681442Y-8019744D01*
X3681442Y-8019744D02*
X3700490Y-8029267D01*
X3700490Y-8029267D02*
X3710014Y-8048315D01*
X3710014Y-8048315D02*
X3710014Y-8153077D01*
X4100490Y-7943553D02*
X3929061Y-8200696D01*
X4357633Y-7953077D02*
X4376680Y-7953077D01*
X4376680Y-7953077D02*
X4395728Y-7962601D01*
X4395728Y-7962601D02*
X4405252Y-7972125D01*
X4405252Y-7972125D02*
X4414776Y-7991172D01*
X4414776Y-7991172D02*
X4424299Y-8029267D01*
X4424299Y-8029267D02*
X4424299Y-8076886D01*
X4424299Y-8076886D02*
X4414776Y-8114982D01*
X4414776Y-8114982D02*
X4405252Y-8134029D01*
X4405252Y-8134029D02*
X4395728Y-8143553D01*
X4395728Y-8143553D02*
X4376680Y-8153077D01*
X4376680Y-8153077D02*
X4357633Y-8153077D01*
X4357633Y-8153077D02*
X4338585Y-8143553D01*
X4338585Y-8143553D02*
X4329061Y-8134029D01*
X4329061Y-8134029D02*
X4319538Y-8114982D01*
X4319538Y-8114982D02*
X4310014Y-8076886D01*
X4310014Y-8076886D02*
X4310014Y-8029267D01*
X4310014Y-8029267D02*
X4319538Y-7991172D01*
X4319538Y-7991172D02*
X4329061Y-7972125D01*
X4329061Y-7972125D02*
X4338585Y-7962601D01*
X4338585Y-7962601D02*
X4357633Y-7953077D01*
X4510014Y-8134029D02*
X4519538Y-8143553D01*
X4519538Y-8143553D02*
X4510014Y-8153077D01*
X4510014Y-8153077D02*
X4500490Y-8143553D01*
X4500490Y-8143553D02*
X4510014Y-8134029D01*
X4510014Y-8134029D02*
X4510014Y-8153077D01*
X4643347Y-7953077D02*
X4662395Y-7953077D01*
X4662395Y-7953077D02*
X4681442Y-7962601D01*
X4681442Y-7962601D02*
X4690966Y-7972125D01*
X4690966Y-7972125D02*
X4700490Y-7991172D01*
X4700490Y-7991172D02*
X4710014Y-8029267D01*
X4710014Y-8029267D02*
X4710014Y-8076886D01*
X4710014Y-8076886D02*
X4700490Y-8114982D01*
X4700490Y-8114982D02*
X4690966Y-8134029D01*
X4690966Y-8134029D02*
X4681442Y-8143553D01*
X4681442Y-8143553D02*
X4662395Y-8153077D01*
X4662395Y-8153077D02*
X4643347Y-8153077D01*
X4643347Y-8153077D02*
X4624299Y-8143553D01*
X4624299Y-8143553D02*
X4614776Y-8134029D01*
X4614776Y-8134029D02*
X4605252Y-8114982D01*
X4605252Y-8114982D02*
X4595728Y-8076886D01*
X4595728Y-8076886D02*
X4595728Y-8029267D01*
X4595728Y-8029267D02*
X4605252Y-7991172D01*
X4605252Y-7991172D02*
X4614776Y-7972125D01*
X4614776Y-7972125D02*
X4624299Y-7962601D01*
X4624299Y-7962601D02*
X4643347Y-7953077D01*
X4900490Y-8153077D02*
X4786204Y-8153077D01*
X4843347Y-8153077D02*
X4843347Y-7953077D01*
X4843347Y-7953077D02*
X4824299Y-7981648D01*
X4824299Y-7981648D02*
X4805252Y-8000696D01*
X4805252Y-8000696D02*
X4786204Y-8010220D01*
X5090966Y-8153077D02*
X4976680Y-8153077D01*
X5033823Y-8153077D02*
X5033823Y-7953077D01*
X5033823Y-7953077D02*
X5014776Y-7981648D01*
X5014776Y-7981648D02*
X4995728Y-8000696D01*
X4995728Y-8000696D02*
X4976680Y-8010220D01*
X5205252Y-8038791D02*
X5186204Y-8029267D01*
X5186204Y-8029267D02*
X5176680Y-8019744D01*
X5176680Y-8019744D02*
X5167157Y-8000696D01*
X5167157Y-8000696D02*
X5167157Y-7991172D01*
X5167157Y-7991172D02*
X5176680Y-7972125D01*
X5176680Y-7972125D02*
X5186204Y-7962601D01*
X5186204Y-7962601D02*
X5205252Y-7953077D01*
X5205252Y-7953077D02*
X5243347Y-7953077D01*
X5243347Y-7953077D02*
X5262395Y-7962601D01*
X5262395Y-7962601D02*
X5271919Y-7972125D01*
X5271919Y-7972125D02*
X5281442Y-7991172D01*
X5281442Y-7991172D02*
X5281442Y-8000696D01*
X5281442Y-8000696D02*
X5271919Y-8019744D01*
X5271919Y-8019744D02*
X5262395Y-8029267D01*
X5262395Y-8029267D02*
X5243347Y-8038791D01*
X5243347Y-8038791D02*
X5205252Y-8038791D01*
X5205252Y-8038791D02*
X5186204Y-8048315D01*
X5186204Y-8048315D02*
X5176680Y-8057839D01*
X5176680Y-8057839D02*
X5167157Y-8076886D01*
X5167157Y-8076886D02*
X5167157Y-8114982D01*
X5167157Y-8114982D02*
X5176680Y-8134029D01*
X5176680Y-8134029D02*
X5186204Y-8143553D01*
X5186204Y-8143553D02*
X5205252Y-8153077D01*
X5205252Y-8153077D02*
X5243347Y-8153077D01*
X5243347Y-8153077D02*
X5262395Y-8143553D01*
X5262395Y-8143553D02*
X5271919Y-8134029D01*
X5271919Y-8134029D02*
X5281442Y-8114982D01*
X5281442Y-8114982D02*
X5281442Y-8076886D01*
X5281442Y-8076886D02*
X5271919Y-8057839D01*
X5271919Y-8057839D02*
X5262395Y-8048315D01*
X5262395Y-8048315D02*
X5243347Y-8038791D01*
X5357633Y-7953077D02*
X5357633Y-7991172D01*
X5433823Y-7953077D02*
X5433823Y-7991172D01*
X5729061Y-8229267D02*
X5719538Y-8219744D01*
X5719538Y-8219744D02*
X5700490Y-8191172D01*
X5700490Y-8191172D02*
X5690966Y-8172125D01*
X5690966Y-8172125D02*
X5681442Y-8143553D01*
X5681442Y-8143553D02*
X5671919Y-8095934D01*
X5671919Y-8095934D02*
X5671919Y-8057839D01*
X5671919Y-8057839D02*
X5681442Y-8010220D01*
X5681442Y-8010220D02*
X5690966Y-7981648D01*
X5690966Y-7981648D02*
X5700490Y-7962601D01*
X5700490Y-7962601D02*
X5719538Y-7934029D01*
X5719538Y-7934029D02*
X5729061Y-7924505D01*
X5910014Y-8153077D02*
X5795728Y-8153077D01*
X5852871Y-8153077D02*
X5852871Y-7953077D01*
X5852871Y-7953077D02*
X5833823Y-7981648D01*
X5833823Y-7981648D02*
X5814776Y-8000696D01*
X5814776Y-8000696D02*
X5795728Y-8010220D01*
X5976680Y-7953077D02*
X6110014Y-7953077D01*
X6110014Y-7953077D02*
X6024299Y-8153077D01*
X6167157Y-7953077D02*
X6300490Y-7953077D01*
X6300490Y-7953077D02*
X6214776Y-8153077D01*
X6529061Y-8153077D02*
X6529061Y-7953077D01*
X6614776Y-8153077D02*
X6614776Y-8048315D01*
X6614776Y-8048315D02*
X6605252Y-8029267D01*
X6605252Y-8029267D02*
X6586204Y-8019744D01*
X6586204Y-8019744D02*
X6557633Y-8019744D01*
X6557633Y-8019744D02*
X6538585Y-8029267D01*
X6538585Y-8029267D02*
X6529061Y-8038791D01*
X6738585Y-8153077D02*
X6719538Y-8143553D01*
X6719538Y-8143553D02*
X6710014Y-8134029D01*
X6710014Y-8134029D02*
X6700490Y-8114982D01*
X6700490Y-8114982D02*
X6700490Y-8057839D01*
X6700490Y-8057839D02*
X6710014Y-8038791D01*
X6710014Y-8038791D02*
X6719538Y-8029267D01*
X6719538Y-8029267D02*
X6738585Y-8019744D01*
X6738585Y-8019744D02*
X6767157Y-8019744D01*
X6767157Y-8019744D02*
X6786204Y-8029267D01*
X6786204Y-8029267D02*
X6795728Y-8038791D01*
X6795728Y-8038791D02*
X6805252Y-8057839D01*
X6805252Y-8057839D02*
X6805252Y-8114982D01*
X6805252Y-8114982D02*
X6795728Y-8134029D01*
X6795728Y-8134029D02*
X6786204Y-8143553D01*
X6786204Y-8143553D02*
X6767157Y-8153077D01*
X6767157Y-8153077D02*
X6738585Y-8153077D01*
X6919538Y-8153077D02*
X6900490Y-8143553D01*
X6900490Y-8143553D02*
X6890966Y-8124505D01*
X6890966Y-8124505D02*
X6890966Y-7953077D01*
X7071919Y-8143553D02*
X7052871Y-8153077D01*
X7052871Y-8153077D02*
X7014776Y-8153077D01*
X7014776Y-8153077D02*
X6995728Y-8143553D01*
X6995728Y-8143553D02*
X6986204Y-8124505D01*
X6986204Y-8124505D02*
X6986204Y-8048315D01*
X6986204Y-8048315D02*
X6995728Y-8029267D01*
X6995728Y-8029267D02*
X7014776Y-8019744D01*
X7014776Y-8019744D02*
X7052871Y-8019744D01*
X7052871Y-8019744D02*
X7071919Y-8029267D01*
X7071919Y-8029267D02*
X7081442Y-8048315D01*
X7081442Y-8048315D02*
X7081442Y-8067363D01*
X7081442Y-8067363D02*
X6986204Y-8086410D01*
X7157633Y-8143553D02*
X7176681Y-8153077D01*
X7176681Y-8153077D02*
X7214776Y-8153077D01*
X7214776Y-8153077D02*
X7233823Y-8143553D01*
X7233823Y-8143553D02*
X7243347Y-8124505D01*
X7243347Y-8124505D02*
X7243347Y-8114982D01*
X7243347Y-8114982D02*
X7233823Y-8095934D01*
X7233823Y-8095934D02*
X7214776Y-8086410D01*
X7214776Y-8086410D02*
X7186204Y-8086410D01*
X7186204Y-8086410D02*
X7167157Y-8076886D01*
X7167157Y-8076886D02*
X7157633Y-8057839D01*
X7157633Y-8057839D02*
X7157633Y-8048315D01*
X7157633Y-8048315D02*
X7167157Y-8029267D01*
X7167157Y-8029267D02*
X7186204Y-8019744D01*
X7186204Y-8019744D02*
X7214776Y-8019744D01*
X7214776Y-8019744D02*
X7233823Y-8029267D01*
X7310014Y-8229267D02*
X7319538Y-8219744D01*
X7319538Y-8219744D02*
X7338585Y-8191172D01*
X7338585Y-8191172D02*
X7348109Y-8172125D01*
X7348109Y-8172125D02*
X7357633Y-8143553D01*
X7357633Y-8143553D02*
X7367157Y-8095934D01*
X7367157Y-8095934D02*
X7367157Y-8057839D01*
X7367157Y-8057839D02*
X7357633Y-8010220D01*
X7357633Y-8010220D02*
X7348109Y-7981648D01*
X7348109Y-7981648D02*
X7338585Y-7962601D01*
X7338585Y-7962601D02*
X7319538Y-7934029D01*
X7319538Y-7934029D02*
X7310014Y-7924505D01*
D10*
X2153999Y-8325593D02*
G75*
G02*
X2103999Y-8325593I-25000J0D01*
G01*
X2103999Y-8325593D02*
G75*
G02*
X2153999Y-8325593I25000J0D01*
G01*
D11*
X2452871Y-8217077D02*
X2471918Y-8217077D01*
X2471918Y-8217077D02*
X2490966Y-8226601D01*
X2490966Y-8226601D02*
X2500490Y-8236125D01*
X2500490Y-8236125D02*
X2510014Y-8255172D01*
X2510014Y-8255172D02*
X2519537Y-8293267D01*
X2519537Y-8293267D02*
X2519537Y-8340886D01*
X2519537Y-8340886D02*
X2510014Y-8378982D01*
X2510014Y-8378982D02*
X2500490Y-8398029D01*
X2500490Y-8398029D02*
X2490966Y-8407553D01*
X2490966Y-8407553D02*
X2471918Y-8417077D01*
X2471918Y-8417077D02*
X2452871Y-8417077D01*
X2452871Y-8417077D02*
X2433823Y-8407553D01*
X2433823Y-8407553D02*
X2424299Y-8398029D01*
X2424299Y-8398029D02*
X2414775Y-8378982D01*
X2414775Y-8378982D02*
X2405252Y-8340886D01*
X2405252Y-8340886D02*
X2405252Y-8293267D01*
X2405252Y-8293267D02*
X2414775Y-8255172D01*
X2414775Y-8255172D02*
X2424299Y-8236125D01*
X2424299Y-8236125D02*
X2433823Y-8226601D01*
X2433823Y-8226601D02*
X2452871Y-8217077D01*
X2605252Y-8398029D02*
X2614775Y-8407553D01*
X2614775Y-8407553D02*
X2605252Y-8417077D01*
X2605252Y-8417077D02*
X2595728Y-8407553D01*
X2595728Y-8407553D02*
X2605252Y-8398029D01*
X2605252Y-8398029D02*
X2605252Y-8417077D01*
X2795728Y-8217077D02*
X2700490Y-8217077D01*
X2700490Y-8217077D02*
X2690966Y-8312315D01*
X2690966Y-8312315D02*
X2700490Y-8302791D01*
X2700490Y-8302791D02*
X2719537Y-8293267D01*
X2719537Y-8293267D02*
X2767156Y-8293267D01*
X2767156Y-8293267D02*
X2786204Y-8302791D01*
X2786204Y-8302791D02*
X2795728Y-8312315D01*
X2795728Y-8312315D02*
X2805252Y-8331363D01*
X2805252Y-8331363D02*
X2805252Y-8378982D01*
X2805252Y-8378982D02*
X2795728Y-8398029D01*
X2795728Y-8398029D02*
X2786204Y-8407553D01*
X2786204Y-8407553D02*
X2767156Y-8417077D01*
X2767156Y-8417077D02*
X2719537Y-8417077D01*
X2719537Y-8417077D02*
X2700490Y-8407553D01*
X2700490Y-8407553D02*
X2690966Y-8398029D01*
X2929061Y-8217077D02*
X2948109Y-8217077D01*
X2948109Y-8217077D02*
X2967156Y-8226601D01*
X2967156Y-8226601D02*
X2976680Y-8236125D01*
X2976680Y-8236125D02*
X2986204Y-8255172D01*
X2986204Y-8255172D02*
X2995728Y-8293267D01*
X2995728Y-8293267D02*
X2995728Y-8340886D01*
X2995728Y-8340886D02*
X2986204Y-8378982D01*
X2986204Y-8378982D02*
X2976680Y-8398029D01*
X2976680Y-8398029D02*
X2967156Y-8407553D01*
X2967156Y-8407553D02*
X2948109Y-8417077D01*
X2948109Y-8417077D02*
X2929061Y-8417077D01*
X2929061Y-8417077D02*
X2910013Y-8407553D01*
X2910013Y-8407553D02*
X2900490Y-8398029D01*
X2900490Y-8398029D02*
X2890966Y-8378982D01*
X2890966Y-8378982D02*
X2881442Y-8340886D01*
X2881442Y-8340886D02*
X2881442Y-8293267D01*
X2881442Y-8293267D02*
X2890966Y-8255172D01*
X2890966Y-8255172D02*
X2900490Y-8236125D01*
X2900490Y-8236125D02*
X2910013Y-8226601D01*
X2910013Y-8226601D02*
X2929061Y-8217077D01*
X3119537Y-8217077D02*
X3138585Y-8217077D01*
X3138585Y-8217077D02*
X3157633Y-8226601D01*
X3157633Y-8226601D02*
X3167156Y-8236125D01*
X3167156Y-8236125D02*
X3176680Y-8255172D01*
X3176680Y-8255172D02*
X3186204Y-8293267D01*
X3186204Y-8293267D02*
X3186204Y-8340886D01*
X3186204Y-8340886D02*
X3176680Y-8378982D01*
X3176680Y-8378982D02*
X3167156Y-8398029D01*
X3167156Y-8398029D02*
X3157633Y-8407553D01*
X3157633Y-8407553D02*
X3138585Y-8417077D01*
X3138585Y-8417077D02*
X3119537Y-8417077D01*
X3119537Y-8417077D02*
X3100490Y-8407553D01*
X3100490Y-8407553D02*
X3090966Y-8398029D01*
X3090966Y-8398029D02*
X3081442Y-8378982D01*
X3081442Y-8378982D02*
X3071918Y-8340886D01*
X3071918Y-8340886D02*
X3071918Y-8293267D01*
X3071918Y-8293267D02*
X3081442Y-8255172D01*
X3081442Y-8255172D02*
X3090966Y-8236125D01*
X3090966Y-8236125D02*
X3100490Y-8226601D01*
X3100490Y-8226601D02*
X3119537Y-8217077D01*
X3271918Y-8417077D02*
X3271918Y-8283744D01*
X3271918Y-8302791D02*
X3281442Y-8293267D01*
X3281442Y-8293267D02*
X3300490Y-8283744D01*
X3300490Y-8283744D02*
X3329061Y-8283744D01*
X3329061Y-8283744D02*
X3348109Y-8293267D01*
X3348109Y-8293267D02*
X3357633Y-8312315D01*
X3357633Y-8312315D02*
X3357633Y-8417077D01*
X3357633Y-8312315D02*
X3367156Y-8293267D01*
X3367156Y-8293267D02*
X3386204Y-8283744D01*
X3386204Y-8283744D02*
X3414775Y-8283744D01*
X3414775Y-8283744D02*
X3433823Y-8293267D01*
X3433823Y-8293267D02*
X3443347Y-8312315D01*
X3443347Y-8312315D02*
X3443347Y-8417077D01*
X3538585Y-8417077D02*
X3538585Y-8283744D01*
X3538585Y-8302791D02*
X3548109Y-8293267D01*
X3548109Y-8293267D02*
X3567156Y-8283744D01*
X3567156Y-8283744D02*
X3595728Y-8283744D01*
X3595728Y-8283744D02*
X3614775Y-8293267D01*
X3614775Y-8293267D02*
X3624299Y-8312315D01*
X3624299Y-8312315D02*
X3624299Y-8417077D01*
X3624299Y-8312315D02*
X3633823Y-8293267D01*
X3633823Y-8293267D02*
X3652871Y-8283744D01*
X3652871Y-8283744D02*
X3681442Y-8283744D01*
X3681442Y-8283744D02*
X3700490Y-8293267D01*
X3700490Y-8293267D02*
X3710014Y-8312315D01*
X3710014Y-8312315D02*
X3710014Y-8417077D01*
X4100490Y-8207553D02*
X3929061Y-8464696D01*
X4357633Y-8217077D02*
X4376680Y-8217077D01*
X4376680Y-8217077D02*
X4395728Y-8226601D01*
X4395728Y-8226601D02*
X4405252Y-8236125D01*
X4405252Y-8236125D02*
X4414776Y-8255172D01*
X4414776Y-8255172D02*
X4424299Y-8293267D01*
X4424299Y-8293267D02*
X4424299Y-8340886D01*
X4424299Y-8340886D02*
X4414776Y-8378982D01*
X4414776Y-8378982D02*
X4405252Y-8398029D01*
X4405252Y-8398029D02*
X4395728Y-8407553D01*
X4395728Y-8407553D02*
X4376680Y-8417077D01*
X4376680Y-8417077D02*
X4357633Y-8417077D01*
X4357633Y-8417077D02*
X4338585Y-8407553D01*
X4338585Y-8407553D02*
X4329061Y-8398029D01*
X4329061Y-8398029D02*
X4319538Y-8378982D01*
X4319538Y-8378982D02*
X4310014Y-8340886D01*
X4310014Y-8340886D02*
X4310014Y-8293267D01*
X4310014Y-8293267D02*
X4319538Y-8255172D01*
X4319538Y-8255172D02*
X4329061Y-8236125D01*
X4329061Y-8236125D02*
X4338585Y-8226601D01*
X4338585Y-8226601D02*
X4357633Y-8217077D01*
X4510014Y-8398029D02*
X4519538Y-8407553D01*
X4519538Y-8407553D02*
X4510014Y-8417077D01*
X4510014Y-8417077D02*
X4500490Y-8407553D01*
X4500490Y-8407553D02*
X4510014Y-8398029D01*
X4510014Y-8398029D02*
X4510014Y-8417077D01*
X4643347Y-8217077D02*
X4662395Y-8217077D01*
X4662395Y-8217077D02*
X4681442Y-8226601D01*
X4681442Y-8226601D02*
X4690966Y-8236125D01*
X4690966Y-8236125D02*
X4700490Y-8255172D01*
X4700490Y-8255172D02*
X4710014Y-8293267D01*
X4710014Y-8293267D02*
X4710014Y-8340886D01*
X4710014Y-8340886D02*
X4700490Y-8378982D01*
X4700490Y-8378982D02*
X4690966Y-8398029D01*
X4690966Y-8398029D02*
X4681442Y-8407553D01*
X4681442Y-8407553D02*
X4662395Y-8417077D01*
X4662395Y-8417077D02*
X4643347Y-8417077D01*
X4643347Y-8417077D02*
X4624299Y-8407553D01*
X4624299Y-8407553D02*
X4614776Y-8398029D01*
X4614776Y-8398029D02*
X4605252Y-8378982D01*
X4605252Y-8378982D02*
X4595728Y-8340886D01*
X4595728Y-8340886D02*
X4595728Y-8293267D01*
X4595728Y-8293267D02*
X4605252Y-8255172D01*
X4605252Y-8255172D02*
X4614776Y-8236125D01*
X4614776Y-8236125D02*
X4624299Y-8226601D01*
X4624299Y-8226601D02*
X4643347Y-8217077D01*
X4900490Y-8417077D02*
X4786204Y-8417077D01*
X4843347Y-8417077D02*
X4843347Y-8217077D01*
X4843347Y-8217077D02*
X4824299Y-8245648D01*
X4824299Y-8245648D02*
X4805252Y-8264696D01*
X4805252Y-8264696D02*
X4786204Y-8274220D01*
X4995728Y-8417077D02*
X5033823Y-8417077D01*
X5033823Y-8417077D02*
X5052871Y-8407553D01*
X5052871Y-8407553D02*
X5062395Y-8398029D01*
X5062395Y-8398029D02*
X5081442Y-8369458D01*
X5081442Y-8369458D02*
X5090966Y-8331363D01*
X5090966Y-8331363D02*
X5090966Y-8255172D01*
X5090966Y-8255172D02*
X5081442Y-8236125D01*
X5081442Y-8236125D02*
X5071919Y-8226601D01*
X5071919Y-8226601D02*
X5052871Y-8217077D01*
X5052871Y-8217077D02*
X5014776Y-8217077D01*
X5014776Y-8217077D02*
X4995728Y-8226601D01*
X4995728Y-8226601D02*
X4986204Y-8236125D01*
X4986204Y-8236125D02*
X4976680Y-8255172D01*
X4976680Y-8255172D02*
X4976680Y-8302791D01*
X4976680Y-8302791D02*
X4986204Y-8321839D01*
X4986204Y-8321839D02*
X4995728Y-8331363D01*
X4995728Y-8331363D02*
X5014776Y-8340886D01*
X5014776Y-8340886D02*
X5052871Y-8340886D01*
X5052871Y-8340886D02*
X5071919Y-8331363D01*
X5071919Y-8331363D02*
X5081442Y-8321839D01*
X5081442Y-8321839D02*
X5090966Y-8302791D01*
X5157633Y-8217077D02*
X5290966Y-8217077D01*
X5290966Y-8217077D02*
X5205252Y-8417077D01*
X5357633Y-8217077D02*
X5357633Y-8255172D01*
X5433823Y-8217077D02*
X5433823Y-8255172D01*
X5729061Y-8493267D02*
X5719538Y-8483744D01*
X5719538Y-8483744D02*
X5700490Y-8455172D01*
X5700490Y-8455172D02*
X5690966Y-8436125D01*
X5690966Y-8436125D02*
X5681442Y-8407553D01*
X5681442Y-8407553D02*
X5671919Y-8359934D01*
X5671919Y-8359934D02*
X5671919Y-8321839D01*
X5671919Y-8321839D02*
X5681442Y-8274220D01*
X5681442Y-8274220D02*
X5690966Y-8245648D01*
X5690966Y-8245648D02*
X5700490Y-8226601D01*
X5700490Y-8226601D02*
X5719538Y-8198029D01*
X5719538Y-8198029D02*
X5729061Y-8188505D01*
X5890966Y-8283744D02*
X5890966Y-8417077D01*
X5843347Y-8207553D02*
X5795728Y-8350410D01*
X5795728Y-8350410D02*
X5919538Y-8350410D01*
X6148109Y-8417077D02*
X6148109Y-8217077D01*
X6233823Y-8417077D02*
X6233823Y-8312315D01*
X6233823Y-8312315D02*
X6224300Y-8293267D01*
X6224300Y-8293267D02*
X6205252Y-8283744D01*
X6205252Y-8283744D02*
X6176680Y-8283744D01*
X6176680Y-8283744D02*
X6157633Y-8293267D01*
X6157633Y-8293267D02*
X6148109Y-8302791D01*
X6357633Y-8417077D02*
X6338585Y-8407553D01*
X6338585Y-8407553D02*
X6329061Y-8398029D01*
X6329061Y-8398029D02*
X6319538Y-8378982D01*
X6319538Y-8378982D02*
X6319538Y-8321839D01*
X6319538Y-8321839D02*
X6329061Y-8302791D01*
X6329061Y-8302791D02*
X6338585Y-8293267D01*
X6338585Y-8293267D02*
X6357633Y-8283744D01*
X6357633Y-8283744D02*
X6386204Y-8283744D01*
X6386204Y-8283744D02*
X6405252Y-8293267D01*
X6405252Y-8293267D02*
X6414776Y-8302791D01*
X6414776Y-8302791D02*
X6424300Y-8321839D01*
X6424300Y-8321839D02*
X6424300Y-8378982D01*
X6424300Y-8378982D02*
X6414776Y-8398029D01*
X6414776Y-8398029D02*
X6405252Y-8407553D01*
X6405252Y-8407553D02*
X6386204Y-8417077D01*
X6386204Y-8417077D02*
X6357633Y-8417077D01*
X6538585Y-8417077D02*
X6519538Y-8407553D01*
X6519538Y-8407553D02*
X6510014Y-8388505D01*
X6510014Y-8388505D02*
X6510014Y-8217077D01*
X6690966Y-8407553D02*
X6671919Y-8417077D01*
X6671919Y-8417077D02*
X6633823Y-8417077D01*
X6633823Y-8417077D02*
X6614776Y-8407553D01*
X6614776Y-8407553D02*
X6605252Y-8388505D01*
X6605252Y-8388505D02*
X6605252Y-8312315D01*
X6605252Y-8312315D02*
X6614776Y-8293267D01*
X6614776Y-8293267D02*
X6633823Y-8283744D01*
X6633823Y-8283744D02*
X6671919Y-8283744D01*
X6671919Y-8283744D02*
X6690966Y-8293267D01*
X6690966Y-8293267D02*
X6700490Y-8312315D01*
X6700490Y-8312315D02*
X6700490Y-8331363D01*
X6700490Y-8331363D02*
X6605252Y-8350410D01*
X6776681Y-8407553D02*
X6795728Y-8417077D01*
X6795728Y-8417077D02*
X6833823Y-8417077D01*
X6833823Y-8417077D02*
X6852871Y-8407553D01*
X6852871Y-8407553D02*
X6862395Y-8388505D01*
X6862395Y-8388505D02*
X6862395Y-8378982D01*
X6862395Y-8378982D02*
X6852871Y-8359934D01*
X6852871Y-8359934D02*
X6833823Y-8350410D01*
X6833823Y-8350410D02*
X6805252Y-8350410D01*
X6805252Y-8350410D02*
X6786204Y-8340886D01*
X6786204Y-8340886D02*
X6776681Y-8321839D01*
X6776681Y-8321839D02*
X6776681Y-8312315D01*
X6776681Y-8312315D02*
X6786204Y-8293267D01*
X6786204Y-8293267D02*
X6805252Y-8283744D01*
X6805252Y-8283744D02*
X6833823Y-8283744D01*
X6833823Y-8283744D02*
X6852871Y-8293267D01*
X6929062Y-8493267D02*
X6938585Y-8483744D01*
X6938585Y-8483744D02*
X6957633Y-8455172D01*
X6957633Y-8455172D02*
X6967157Y-8436125D01*
X6967157Y-8436125D02*
X6976681Y-8407553D01*
X6976681Y-8407553D02*
X6986204Y-8359934D01*
X6986204Y-8359934D02*
X6986204Y-8321839D01*
X6986204Y-8321839D02*
X6976681Y-8274220D01*
X6976681Y-8274220D02*
X6967157Y-8245648D01*
X6967157Y-8245648D02*
X6957633Y-8226601D01*
X6957633Y-8226601D02*
X6938585Y-8198029D01*
X6938585Y-8198029D02*
X6929062Y-8188505D01*
D10*
X2113999Y-8549593D02*
X2113999Y-8629593D01*
X2073999Y-8589593D02*
X2153999Y-8589593D01*
D11*
X2452871Y-8481077D02*
X2471918Y-8481077D01*
X2471918Y-8481077D02*
X2490966Y-8490601D01*
X2490966Y-8490601D02*
X2500490Y-8500125D01*
X2500490Y-8500125D02*
X2510014Y-8519172D01*
X2510014Y-8519172D02*
X2519537Y-8557267D01*
X2519537Y-8557267D02*
X2519537Y-8604887D01*
X2519537Y-8604887D02*
X2510014Y-8642982D01*
X2510014Y-8642982D02*
X2500490Y-8662029D01*
X2500490Y-8662029D02*
X2490966Y-8671553D01*
X2490966Y-8671553D02*
X2471918Y-8681077D01*
X2471918Y-8681077D02*
X2452871Y-8681077D01*
X2452871Y-8681077D02*
X2433823Y-8671553D01*
X2433823Y-8671553D02*
X2424299Y-8662029D01*
X2424299Y-8662029D02*
X2414775Y-8642982D01*
X2414775Y-8642982D02*
X2405252Y-8604887D01*
X2405252Y-8604887D02*
X2405252Y-8557267D01*
X2405252Y-8557267D02*
X2414775Y-8519172D01*
X2414775Y-8519172D02*
X2424299Y-8500125D01*
X2424299Y-8500125D02*
X2433823Y-8490601D01*
X2433823Y-8490601D02*
X2452871Y-8481077D01*
X2605252Y-8662029D02*
X2614775Y-8671553D01*
X2614775Y-8671553D02*
X2605252Y-8681077D01*
X2605252Y-8681077D02*
X2595728Y-8671553D01*
X2595728Y-8671553D02*
X2605252Y-8662029D01*
X2605252Y-8662029D02*
X2605252Y-8681077D01*
X2729061Y-8566791D02*
X2710014Y-8557267D01*
X2710014Y-8557267D02*
X2700490Y-8547744D01*
X2700490Y-8547744D02*
X2690966Y-8528696D01*
X2690966Y-8528696D02*
X2690966Y-8519172D01*
X2690966Y-8519172D02*
X2700490Y-8500125D01*
X2700490Y-8500125D02*
X2710014Y-8490601D01*
X2710014Y-8490601D02*
X2729061Y-8481077D01*
X2729061Y-8481077D02*
X2767156Y-8481077D01*
X2767156Y-8481077D02*
X2786204Y-8490601D01*
X2786204Y-8490601D02*
X2795728Y-8500125D01*
X2795728Y-8500125D02*
X2805252Y-8519172D01*
X2805252Y-8519172D02*
X2805252Y-8528696D01*
X2805252Y-8528696D02*
X2795728Y-8547744D01*
X2795728Y-8547744D02*
X2786204Y-8557267D01*
X2786204Y-8557267D02*
X2767156Y-8566791D01*
X2767156Y-8566791D02*
X2729061Y-8566791D01*
X2729061Y-8566791D02*
X2710014Y-8576315D01*
X2710014Y-8576315D02*
X2700490Y-8585839D01*
X2700490Y-8585839D02*
X2690966Y-8604887D01*
X2690966Y-8604887D02*
X2690966Y-8642982D01*
X2690966Y-8642982D02*
X2700490Y-8662029D01*
X2700490Y-8662029D02*
X2710014Y-8671553D01*
X2710014Y-8671553D02*
X2729061Y-8681077D01*
X2729061Y-8681077D02*
X2767156Y-8681077D01*
X2767156Y-8681077D02*
X2786204Y-8671553D01*
X2786204Y-8671553D02*
X2795728Y-8662029D01*
X2795728Y-8662029D02*
X2805252Y-8642982D01*
X2805252Y-8642982D02*
X2805252Y-8604887D01*
X2805252Y-8604887D02*
X2795728Y-8585839D01*
X2795728Y-8585839D02*
X2786204Y-8576315D01*
X2786204Y-8576315D02*
X2767156Y-8566791D01*
X2929061Y-8481077D02*
X2948109Y-8481077D01*
X2948109Y-8481077D02*
X2967156Y-8490601D01*
X2967156Y-8490601D02*
X2976680Y-8500125D01*
X2976680Y-8500125D02*
X2986204Y-8519172D01*
X2986204Y-8519172D02*
X2995728Y-8557267D01*
X2995728Y-8557267D02*
X2995728Y-8604887D01*
X2995728Y-8604887D02*
X2986204Y-8642982D01*
X2986204Y-8642982D02*
X2976680Y-8662029D01*
X2976680Y-8662029D02*
X2967156Y-8671553D01*
X2967156Y-8671553D02*
X2948109Y-8681077D01*
X2948109Y-8681077D02*
X2929061Y-8681077D01*
X2929061Y-8681077D02*
X2910013Y-8671553D01*
X2910013Y-8671553D02*
X2900490Y-8662029D01*
X2900490Y-8662029D02*
X2890966Y-8642982D01*
X2890966Y-8642982D02*
X2881442Y-8604887D01*
X2881442Y-8604887D02*
X2881442Y-8557267D01*
X2881442Y-8557267D02*
X2890966Y-8519172D01*
X2890966Y-8519172D02*
X2900490Y-8500125D01*
X2900490Y-8500125D02*
X2910013Y-8490601D01*
X2910013Y-8490601D02*
X2929061Y-8481077D01*
X3119537Y-8481077D02*
X3138585Y-8481077D01*
X3138585Y-8481077D02*
X3157633Y-8490601D01*
X3157633Y-8490601D02*
X3167156Y-8500125D01*
X3167156Y-8500125D02*
X3176680Y-8519172D01*
X3176680Y-8519172D02*
X3186204Y-8557267D01*
X3186204Y-8557267D02*
X3186204Y-8604887D01*
X3186204Y-8604887D02*
X3176680Y-8642982D01*
X3176680Y-8642982D02*
X3167156Y-8662029D01*
X3167156Y-8662029D02*
X3157633Y-8671553D01*
X3157633Y-8671553D02*
X3138585Y-8681077D01*
X3138585Y-8681077D02*
X3119537Y-8681077D01*
X3119537Y-8681077D02*
X3100490Y-8671553D01*
X3100490Y-8671553D02*
X3090966Y-8662029D01*
X3090966Y-8662029D02*
X3081442Y-8642982D01*
X3081442Y-8642982D02*
X3071918Y-8604887D01*
X3071918Y-8604887D02*
X3071918Y-8557267D01*
X3071918Y-8557267D02*
X3081442Y-8519172D01*
X3081442Y-8519172D02*
X3090966Y-8500125D01*
X3090966Y-8500125D02*
X3100490Y-8490601D01*
X3100490Y-8490601D02*
X3119537Y-8481077D01*
X3271918Y-8681077D02*
X3271918Y-8547744D01*
X3271918Y-8566791D02*
X3281442Y-8557267D01*
X3281442Y-8557267D02*
X3300490Y-8547744D01*
X3300490Y-8547744D02*
X3329061Y-8547744D01*
X3329061Y-8547744D02*
X3348109Y-8557267D01*
X3348109Y-8557267D02*
X3357633Y-8576315D01*
X3357633Y-8576315D02*
X3357633Y-8681077D01*
X3357633Y-8576315D02*
X3367156Y-8557267D01*
X3367156Y-8557267D02*
X3386204Y-8547744D01*
X3386204Y-8547744D02*
X3414775Y-8547744D01*
X3414775Y-8547744D02*
X3433823Y-8557267D01*
X3433823Y-8557267D02*
X3443347Y-8576315D01*
X3443347Y-8576315D02*
X3443347Y-8681077D01*
X3538585Y-8681077D02*
X3538585Y-8547744D01*
X3538585Y-8566791D02*
X3548109Y-8557267D01*
X3548109Y-8557267D02*
X3567156Y-8547744D01*
X3567156Y-8547744D02*
X3595728Y-8547744D01*
X3595728Y-8547744D02*
X3614775Y-8557267D01*
X3614775Y-8557267D02*
X3624299Y-8576315D01*
X3624299Y-8576315D02*
X3624299Y-8681077D01*
X3624299Y-8576315D02*
X3633823Y-8557267D01*
X3633823Y-8557267D02*
X3652871Y-8547744D01*
X3652871Y-8547744D02*
X3681442Y-8547744D01*
X3681442Y-8547744D02*
X3700490Y-8557267D01*
X3700490Y-8557267D02*
X3710014Y-8576315D01*
X3710014Y-8576315D02*
X3710014Y-8681077D01*
X4100490Y-8471553D02*
X3929061Y-8728696D01*
X4357633Y-8481077D02*
X4376680Y-8481077D01*
X4376680Y-8481077D02*
X4395728Y-8490601D01*
X4395728Y-8490601D02*
X4405252Y-8500125D01*
X4405252Y-8500125D02*
X4414776Y-8519172D01*
X4414776Y-8519172D02*
X4424299Y-8557267D01*
X4424299Y-8557267D02*
X4424299Y-8604887D01*
X4424299Y-8604887D02*
X4414776Y-8642982D01*
X4414776Y-8642982D02*
X4405252Y-8662029D01*
X4405252Y-8662029D02*
X4395728Y-8671553D01*
X4395728Y-8671553D02*
X4376680Y-8681077D01*
X4376680Y-8681077D02*
X4357633Y-8681077D01*
X4357633Y-8681077D02*
X4338585Y-8671553D01*
X4338585Y-8671553D02*
X4329061Y-8662029D01*
X4329061Y-8662029D02*
X4319538Y-8642982D01*
X4319538Y-8642982D02*
X4310014Y-8604887D01*
X4310014Y-8604887D02*
X4310014Y-8557267D01*
X4310014Y-8557267D02*
X4319538Y-8519172D01*
X4319538Y-8519172D02*
X4329061Y-8500125D01*
X4329061Y-8500125D02*
X4338585Y-8490601D01*
X4338585Y-8490601D02*
X4357633Y-8481077D01*
X4510014Y-8662029D02*
X4519538Y-8671553D01*
X4519538Y-8671553D02*
X4510014Y-8681077D01*
X4510014Y-8681077D02*
X4500490Y-8671553D01*
X4500490Y-8671553D02*
X4510014Y-8662029D01*
X4510014Y-8662029D02*
X4510014Y-8681077D01*
X4643347Y-8481077D02*
X4662395Y-8481077D01*
X4662395Y-8481077D02*
X4681442Y-8490601D01*
X4681442Y-8490601D02*
X4690966Y-8500125D01*
X4690966Y-8500125D02*
X4700490Y-8519172D01*
X4700490Y-8519172D02*
X4710014Y-8557267D01*
X4710014Y-8557267D02*
X4710014Y-8604887D01*
X4710014Y-8604887D02*
X4700490Y-8642982D01*
X4700490Y-8642982D02*
X4690966Y-8662029D01*
X4690966Y-8662029D02*
X4681442Y-8671553D01*
X4681442Y-8671553D02*
X4662395Y-8681077D01*
X4662395Y-8681077D02*
X4643347Y-8681077D01*
X4643347Y-8681077D02*
X4624299Y-8671553D01*
X4624299Y-8671553D02*
X4614776Y-8662029D01*
X4614776Y-8662029D02*
X4605252Y-8642982D01*
X4605252Y-8642982D02*
X4595728Y-8604887D01*
X4595728Y-8604887D02*
X4595728Y-8557267D01*
X4595728Y-8557267D02*
X4605252Y-8519172D01*
X4605252Y-8519172D02*
X4614776Y-8500125D01*
X4614776Y-8500125D02*
X4624299Y-8490601D01*
X4624299Y-8490601D02*
X4643347Y-8481077D01*
X4776680Y-8481077D02*
X4900490Y-8481077D01*
X4900490Y-8481077D02*
X4833823Y-8557267D01*
X4833823Y-8557267D02*
X4862395Y-8557267D01*
X4862395Y-8557267D02*
X4881442Y-8566791D01*
X4881442Y-8566791D02*
X4890966Y-8576315D01*
X4890966Y-8576315D02*
X4900490Y-8595363D01*
X4900490Y-8595363D02*
X4900490Y-8642982D01*
X4900490Y-8642982D02*
X4890966Y-8662029D01*
X4890966Y-8662029D02*
X4881442Y-8671553D01*
X4881442Y-8671553D02*
X4862395Y-8681077D01*
X4862395Y-8681077D02*
X4805252Y-8681077D01*
X4805252Y-8681077D02*
X4786204Y-8671553D01*
X4786204Y-8671553D02*
X4776680Y-8662029D01*
X5090966Y-8681077D02*
X4976680Y-8681077D01*
X5033823Y-8681077D02*
X5033823Y-8481077D01*
X5033823Y-8481077D02*
X5014776Y-8509648D01*
X5014776Y-8509648D02*
X4995728Y-8528696D01*
X4995728Y-8528696D02*
X4976680Y-8538220D01*
X5271919Y-8481077D02*
X5176680Y-8481077D01*
X5176680Y-8481077D02*
X5167157Y-8576315D01*
X5167157Y-8576315D02*
X5176680Y-8566791D01*
X5176680Y-8566791D02*
X5195728Y-8557267D01*
X5195728Y-8557267D02*
X5243347Y-8557267D01*
X5243347Y-8557267D02*
X5262395Y-8566791D01*
X5262395Y-8566791D02*
X5271919Y-8576315D01*
X5271919Y-8576315D02*
X5281442Y-8595363D01*
X5281442Y-8595363D02*
X5281442Y-8642982D01*
X5281442Y-8642982D02*
X5271919Y-8662029D01*
X5271919Y-8662029D02*
X5262395Y-8671553D01*
X5262395Y-8671553D02*
X5243347Y-8681077D01*
X5243347Y-8681077D02*
X5195728Y-8681077D01*
X5195728Y-8681077D02*
X5176680Y-8671553D01*
X5176680Y-8671553D02*
X5167157Y-8662029D01*
X5357633Y-8481077D02*
X5357633Y-8519172D01*
X5433823Y-8481077D02*
X5433823Y-8519172D01*
X5729061Y-8757267D02*
X5719538Y-8747744D01*
X5719538Y-8747744D02*
X5700490Y-8719172D01*
X5700490Y-8719172D02*
X5690966Y-8700125D01*
X5690966Y-8700125D02*
X5681442Y-8671553D01*
X5681442Y-8671553D02*
X5671919Y-8623934D01*
X5671919Y-8623934D02*
X5671919Y-8585839D01*
X5671919Y-8585839D02*
X5681442Y-8538220D01*
X5681442Y-8538220D02*
X5690966Y-8509648D01*
X5690966Y-8509648D02*
X5700490Y-8490601D01*
X5700490Y-8490601D02*
X5719538Y-8462029D01*
X5719538Y-8462029D02*
X5729061Y-8452506D01*
X5890966Y-8547744D02*
X5890966Y-8681077D01*
X5843347Y-8471553D02*
X5795728Y-8614410D01*
X5795728Y-8614410D02*
X5919538Y-8614410D01*
X6148109Y-8681077D02*
X6148109Y-8481077D01*
X6233823Y-8681077D02*
X6233823Y-8576315D01*
X6233823Y-8576315D02*
X6224300Y-8557267D01*
X6224300Y-8557267D02*
X6205252Y-8547744D01*
X6205252Y-8547744D02*
X6176680Y-8547744D01*
X6176680Y-8547744D02*
X6157633Y-8557267D01*
X6157633Y-8557267D02*
X6148109Y-8566791D01*
X6357633Y-8681077D02*
X6338585Y-8671553D01*
X6338585Y-8671553D02*
X6329061Y-8662029D01*
X6329061Y-8662029D02*
X6319538Y-8642982D01*
X6319538Y-8642982D02*
X6319538Y-8585839D01*
X6319538Y-8585839D02*
X6329061Y-8566791D01*
X6329061Y-8566791D02*
X6338585Y-8557267D01*
X6338585Y-8557267D02*
X6357633Y-8547744D01*
X6357633Y-8547744D02*
X6386204Y-8547744D01*
X6386204Y-8547744D02*
X6405252Y-8557267D01*
X6405252Y-8557267D02*
X6414776Y-8566791D01*
X6414776Y-8566791D02*
X6424300Y-8585839D01*
X6424300Y-8585839D02*
X6424300Y-8642982D01*
X6424300Y-8642982D02*
X6414776Y-8662029D01*
X6414776Y-8662029D02*
X6405252Y-8671553D01*
X6405252Y-8671553D02*
X6386204Y-8681077D01*
X6386204Y-8681077D02*
X6357633Y-8681077D01*
X6538585Y-8681077D02*
X6519538Y-8671553D01*
X6519538Y-8671553D02*
X6510014Y-8652506D01*
X6510014Y-8652506D02*
X6510014Y-8481077D01*
X6690966Y-8671553D02*
X6671919Y-8681077D01*
X6671919Y-8681077D02*
X6633823Y-8681077D01*
X6633823Y-8681077D02*
X6614776Y-8671553D01*
X6614776Y-8671553D02*
X6605252Y-8652506D01*
X6605252Y-8652506D02*
X6605252Y-8576315D01*
X6605252Y-8576315D02*
X6614776Y-8557267D01*
X6614776Y-8557267D02*
X6633823Y-8547744D01*
X6633823Y-8547744D02*
X6671919Y-8547744D01*
X6671919Y-8547744D02*
X6690966Y-8557267D01*
X6690966Y-8557267D02*
X6700490Y-8576315D01*
X6700490Y-8576315D02*
X6700490Y-8595363D01*
X6700490Y-8595363D02*
X6605252Y-8614410D01*
X6776681Y-8671553D02*
X6795728Y-8681077D01*
X6795728Y-8681077D02*
X6833823Y-8681077D01*
X6833823Y-8681077D02*
X6852871Y-8671553D01*
X6852871Y-8671553D02*
X6862395Y-8652506D01*
X6862395Y-8652506D02*
X6862395Y-8642982D01*
X6862395Y-8642982D02*
X6852871Y-8623934D01*
X6852871Y-8623934D02*
X6833823Y-8614410D01*
X6833823Y-8614410D02*
X6805252Y-8614410D01*
X6805252Y-8614410D02*
X6786204Y-8604887D01*
X6786204Y-8604887D02*
X6776681Y-8585839D01*
X6776681Y-8585839D02*
X6776681Y-8576315D01*
X6776681Y-8576315D02*
X6786204Y-8557267D01*
X6786204Y-8557267D02*
X6805252Y-8547744D01*
X6805252Y-8547744D02*
X6833823Y-8547744D01*
X6833823Y-8547744D02*
X6852871Y-8557267D01*
X6929062Y-8757267D02*
X6938585Y-8747744D01*
X6938585Y-8747744D02*
X6957633Y-8719172D01*
X6957633Y-8719172D02*
X6967157Y-8700125D01*
X6967157Y-8700125D02*
X6976681Y-8671553D01*
X6976681Y-8671553D02*
X6986204Y-8623934D01*
X6986204Y-8623934D02*
X6986204Y-8585839D01*
X6986204Y-8585839D02*
X6976681Y-8538220D01*
X6976681Y-8538220D02*
X6967157Y-8509648D01*
X6967157Y-8509648D02*
X6957633Y-8490601D01*
X6957633Y-8490601D02*
X6938585Y-8462029D01*
X6938585Y-8462029D02*
X6929062Y-8452506D01*
D10*
X2139354Y-8888949D02*
X2139354Y-8818238D01*
X2068643Y-8818238D01*
X2068643Y-8888949D01*
X2139354Y-8888949D01*
D11*
X2519537Y-8945077D02*
X2405252Y-8945077D01*
X2462394Y-8945077D02*
X2462394Y-8745077D01*
X2462394Y-8745077D02*
X2443347Y-8773648D01*
X2443347Y-8773648D02*
X2424299Y-8792696D01*
X2424299Y-8792696D02*
X2405252Y-8802220D01*
X2605252Y-8926029D02*
X2614775Y-8935553D01*
X2614775Y-8935553D02*
X2605252Y-8945077D01*
X2605252Y-8945077D02*
X2595728Y-8935553D01*
X2595728Y-8935553D02*
X2605252Y-8926029D01*
X2605252Y-8926029D02*
X2605252Y-8945077D01*
X2738585Y-8745077D02*
X2757633Y-8745077D01*
X2757633Y-8745077D02*
X2776680Y-8754601D01*
X2776680Y-8754601D02*
X2786204Y-8764125D01*
X2786204Y-8764125D02*
X2795728Y-8783172D01*
X2795728Y-8783172D02*
X2805252Y-8821267D01*
X2805252Y-8821267D02*
X2805252Y-8868887D01*
X2805252Y-8868887D02*
X2795728Y-8906982D01*
X2795728Y-8906982D02*
X2786204Y-8926029D01*
X2786204Y-8926029D02*
X2776680Y-8935553D01*
X2776680Y-8935553D02*
X2757633Y-8945077D01*
X2757633Y-8945077D02*
X2738585Y-8945077D01*
X2738585Y-8945077D02*
X2719537Y-8935553D01*
X2719537Y-8935553D02*
X2710014Y-8926029D01*
X2710014Y-8926029D02*
X2700490Y-8906982D01*
X2700490Y-8906982D02*
X2690966Y-8868887D01*
X2690966Y-8868887D02*
X2690966Y-8821267D01*
X2690966Y-8821267D02*
X2700490Y-8783172D01*
X2700490Y-8783172D02*
X2710014Y-8764125D01*
X2710014Y-8764125D02*
X2719537Y-8754601D01*
X2719537Y-8754601D02*
X2738585Y-8745077D01*
X2929061Y-8745077D02*
X2948109Y-8745077D01*
X2948109Y-8745077D02*
X2967156Y-8754601D01*
X2967156Y-8754601D02*
X2976680Y-8764125D01*
X2976680Y-8764125D02*
X2986204Y-8783172D01*
X2986204Y-8783172D02*
X2995728Y-8821267D01*
X2995728Y-8821267D02*
X2995728Y-8868887D01*
X2995728Y-8868887D02*
X2986204Y-8906982D01*
X2986204Y-8906982D02*
X2976680Y-8926029D01*
X2976680Y-8926029D02*
X2967156Y-8935553D01*
X2967156Y-8935553D02*
X2948109Y-8945077D01*
X2948109Y-8945077D02*
X2929061Y-8945077D01*
X2929061Y-8945077D02*
X2910013Y-8935553D01*
X2910013Y-8935553D02*
X2900490Y-8926029D01*
X2900490Y-8926029D02*
X2890966Y-8906982D01*
X2890966Y-8906982D02*
X2881442Y-8868887D01*
X2881442Y-8868887D02*
X2881442Y-8821267D01*
X2881442Y-8821267D02*
X2890966Y-8783172D01*
X2890966Y-8783172D02*
X2900490Y-8764125D01*
X2900490Y-8764125D02*
X2910013Y-8754601D01*
X2910013Y-8754601D02*
X2929061Y-8745077D01*
X3119537Y-8745077D02*
X3138585Y-8745077D01*
X3138585Y-8745077D02*
X3157633Y-8754601D01*
X3157633Y-8754601D02*
X3167156Y-8764125D01*
X3167156Y-8764125D02*
X3176680Y-8783172D01*
X3176680Y-8783172D02*
X3186204Y-8821267D01*
X3186204Y-8821267D02*
X3186204Y-8868887D01*
X3186204Y-8868887D02*
X3176680Y-8906982D01*
X3176680Y-8906982D02*
X3167156Y-8926029D01*
X3167156Y-8926029D02*
X3157633Y-8935553D01*
X3157633Y-8935553D02*
X3138585Y-8945077D01*
X3138585Y-8945077D02*
X3119537Y-8945077D01*
X3119537Y-8945077D02*
X3100490Y-8935553D01*
X3100490Y-8935553D02*
X3090966Y-8926029D01*
X3090966Y-8926029D02*
X3081442Y-8906982D01*
X3081442Y-8906982D02*
X3071918Y-8868887D01*
X3071918Y-8868887D02*
X3071918Y-8821267D01*
X3071918Y-8821267D02*
X3081442Y-8783172D01*
X3081442Y-8783172D02*
X3090966Y-8764125D01*
X3090966Y-8764125D02*
X3100490Y-8754601D01*
X3100490Y-8754601D02*
X3119537Y-8745077D01*
X3271918Y-8945077D02*
X3271918Y-8811744D01*
X3271918Y-8830791D02*
X3281442Y-8821267D01*
X3281442Y-8821267D02*
X3300490Y-8811744D01*
X3300490Y-8811744D02*
X3329061Y-8811744D01*
X3329061Y-8811744D02*
X3348109Y-8821267D01*
X3348109Y-8821267D02*
X3357633Y-8840315D01*
X3357633Y-8840315D02*
X3357633Y-8945077D01*
X3357633Y-8840315D02*
X3367156Y-8821267D01*
X3367156Y-8821267D02*
X3386204Y-8811744D01*
X3386204Y-8811744D02*
X3414775Y-8811744D01*
X3414775Y-8811744D02*
X3433823Y-8821267D01*
X3433823Y-8821267D02*
X3443347Y-8840315D01*
X3443347Y-8840315D02*
X3443347Y-8945077D01*
X3538585Y-8945077D02*
X3538585Y-8811744D01*
X3538585Y-8830791D02*
X3548109Y-8821267D01*
X3548109Y-8821267D02*
X3567156Y-8811744D01*
X3567156Y-8811744D02*
X3595728Y-8811744D01*
X3595728Y-8811744D02*
X3614775Y-8821267D01*
X3614775Y-8821267D02*
X3624299Y-8840315D01*
X3624299Y-8840315D02*
X3624299Y-8945077D01*
X3624299Y-8840315D02*
X3633823Y-8821267D01*
X3633823Y-8821267D02*
X3652871Y-8811744D01*
X3652871Y-8811744D02*
X3681442Y-8811744D01*
X3681442Y-8811744D02*
X3700490Y-8821267D01*
X3700490Y-8821267D02*
X3710014Y-8840315D01*
X3710014Y-8840315D02*
X3710014Y-8945077D01*
X4100490Y-8735553D02*
X3929061Y-8992696D01*
X4357633Y-8745077D02*
X4376680Y-8745077D01*
X4376680Y-8745077D02*
X4395728Y-8754601D01*
X4395728Y-8754601D02*
X4405252Y-8764125D01*
X4405252Y-8764125D02*
X4414776Y-8783172D01*
X4414776Y-8783172D02*
X4424299Y-8821267D01*
X4424299Y-8821267D02*
X4424299Y-8868887D01*
X4424299Y-8868887D02*
X4414776Y-8906982D01*
X4414776Y-8906982D02*
X4405252Y-8926029D01*
X4405252Y-8926029D02*
X4395728Y-8935553D01*
X4395728Y-8935553D02*
X4376680Y-8945077D01*
X4376680Y-8945077D02*
X4357633Y-8945077D01*
X4357633Y-8945077D02*
X4338585Y-8935553D01*
X4338585Y-8935553D02*
X4329061Y-8926029D01*
X4329061Y-8926029D02*
X4319538Y-8906982D01*
X4319538Y-8906982D02*
X4310014Y-8868887D01*
X4310014Y-8868887D02*
X4310014Y-8821267D01*
X4310014Y-8821267D02*
X4319538Y-8783172D01*
X4319538Y-8783172D02*
X4329061Y-8764125D01*
X4329061Y-8764125D02*
X4338585Y-8754601D01*
X4338585Y-8754601D02*
X4357633Y-8745077D01*
X4510014Y-8926029D02*
X4519538Y-8935553D01*
X4519538Y-8935553D02*
X4510014Y-8945077D01*
X4510014Y-8945077D02*
X4500490Y-8935553D01*
X4500490Y-8935553D02*
X4510014Y-8926029D01*
X4510014Y-8926029D02*
X4510014Y-8945077D01*
X4643347Y-8745077D02*
X4662395Y-8745077D01*
X4662395Y-8745077D02*
X4681442Y-8754601D01*
X4681442Y-8754601D02*
X4690966Y-8764125D01*
X4690966Y-8764125D02*
X4700490Y-8783172D01*
X4700490Y-8783172D02*
X4710014Y-8821267D01*
X4710014Y-8821267D02*
X4710014Y-8868887D01*
X4710014Y-8868887D02*
X4700490Y-8906982D01*
X4700490Y-8906982D02*
X4690966Y-8926029D01*
X4690966Y-8926029D02*
X4681442Y-8935553D01*
X4681442Y-8935553D02*
X4662395Y-8945077D01*
X4662395Y-8945077D02*
X4643347Y-8945077D01*
X4643347Y-8945077D02*
X4624299Y-8935553D01*
X4624299Y-8935553D02*
X4614776Y-8926029D01*
X4614776Y-8926029D02*
X4605252Y-8906982D01*
X4605252Y-8906982D02*
X4595728Y-8868887D01*
X4595728Y-8868887D02*
X4595728Y-8821267D01*
X4595728Y-8821267D02*
X4605252Y-8783172D01*
X4605252Y-8783172D02*
X4614776Y-8764125D01*
X4614776Y-8764125D02*
X4624299Y-8754601D01*
X4624299Y-8754601D02*
X4643347Y-8745077D01*
X4776680Y-8745077D02*
X4900490Y-8745077D01*
X4900490Y-8745077D02*
X4833823Y-8821267D01*
X4833823Y-8821267D02*
X4862395Y-8821267D01*
X4862395Y-8821267D02*
X4881442Y-8830791D01*
X4881442Y-8830791D02*
X4890966Y-8840315D01*
X4890966Y-8840315D02*
X4900490Y-8859363D01*
X4900490Y-8859363D02*
X4900490Y-8906982D01*
X4900490Y-8906982D02*
X4890966Y-8926029D01*
X4890966Y-8926029D02*
X4881442Y-8935553D01*
X4881442Y-8935553D02*
X4862395Y-8945077D01*
X4862395Y-8945077D02*
X4805252Y-8945077D01*
X4805252Y-8945077D02*
X4786204Y-8935553D01*
X4786204Y-8935553D02*
X4776680Y-8926029D01*
X4995728Y-8945077D02*
X5033823Y-8945077D01*
X5033823Y-8945077D02*
X5052871Y-8935553D01*
X5052871Y-8935553D02*
X5062395Y-8926029D01*
X5062395Y-8926029D02*
X5081442Y-8897458D01*
X5081442Y-8897458D02*
X5090966Y-8859363D01*
X5090966Y-8859363D02*
X5090966Y-8783172D01*
X5090966Y-8783172D02*
X5081442Y-8764125D01*
X5081442Y-8764125D02*
X5071919Y-8754601D01*
X5071919Y-8754601D02*
X5052871Y-8745077D01*
X5052871Y-8745077D02*
X5014776Y-8745077D01*
X5014776Y-8745077D02*
X4995728Y-8754601D01*
X4995728Y-8754601D02*
X4986204Y-8764125D01*
X4986204Y-8764125D02*
X4976680Y-8783172D01*
X4976680Y-8783172D02*
X4976680Y-8830791D01*
X4976680Y-8830791D02*
X4986204Y-8849839D01*
X4986204Y-8849839D02*
X4995728Y-8859363D01*
X4995728Y-8859363D02*
X5014776Y-8868887D01*
X5014776Y-8868887D02*
X5052871Y-8868887D01*
X5052871Y-8868887D02*
X5071919Y-8859363D01*
X5071919Y-8859363D02*
X5081442Y-8849839D01*
X5081442Y-8849839D02*
X5090966Y-8830791D01*
X5262395Y-8811744D02*
X5262395Y-8945077D01*
X5214776Y-8735553D02*
X5167157Y-8878410D01*
X5167157Y-8878410D02*
X5290966Y-8878410D01*
X5357633Y-8745077D02*
X5357633Y-8783172D01*
X5433823Y-8745077D02*
X5433823Y-8783172D01*
X5729061Y-9021267D02*
X5719538Y-9011744D01*
X5719538Y-9011744D02*
X5700490Y-8983172D01*
X5700490Y-8983172D02*
X5690966Y-8964125D01*
X5690966Y-8964125D02*
X5681442Y-8935553D01*
X5681442Y-8935553D02*
X5671919Y-8887934D01*
X5671919Y-8887934D02*
X5671919Y-8849839D01*
X5671919Y-8849839D02*
X5681442Y-8802220D01*
X5681442Y-8802220D02*
X5690966Y-8773648D01*
X5690966Y-8773648D02*
X5700490Y-8754601D01*
X5700490Y-8754601D02*
X5719538Y-8726029D01*
X5719538Y-8726029D02*
X5729061Y-8716506D01*
X5910014Y-8945077D02*
X5795728Y-8945077D01*
X5852871Y-8945077D02*
X5852871Y-8745077D01*
X5852871Y-8745077D02*
X5833823Y-8773648D01*
X5833823Y-8773648D02*
X5814776Y-8792696D01*
X5814776Y-8792696D02*
X5795728Y-8802220D01*
X5986204Y-8764125D02*
X5995728Y-8754601D01*
X5995728Y-8754601D02*
X6014776Y-8745077D01*
X6014776Y-8745077D02*
X6062395Y-8745077D01*
X6062395Y-8745077D02*
X6081442Y-8754601D01*
X6081442Y-8754601D02*
X6090966Y-8764125D01*
X6090966Y-8764125D02*
X6100490Y-8783172D01*
X6100490Y-8783172D02*
X6100490Y-8802220D01*
X6100490Y-8802220D02*
X6090966Y-8830791D01*
X6090966Y-8830791D02*
X5976680Y-8945077D01*
X5976680Y-8945077D02*
X6100490Y-8945077D01*
X6338585Y-8945077D02*
X6338585Y-8745077D01*
X6424300Y-8945077D02*
X6424300Y-8840315D01*
X6424300Y-8840315D02*
X6414776Y-8821267D01*
X6414776Y-8821267D02*
X6395728Y-8811744D01*
X6395728Y-8811744D02*
X6367157Y-8811744D01*
X6367157Y-8811744D02*
X6348109Y-8821267D01*
X6348109Y-8821267D02*
X6338585Y-8830791D01*
X6548109Y-8945077D02*
X6529061Y-8935553D01*
X6529061Y-8935553D02*
X6519538Y-8926029D01*
X6519538Y-8926029D02*
X6510014Y-8906982D01*
X6510014Y-8906982D02*
X6510014Y-8849839D01*
X6510014Y-8849839D02*
X6519538Y-8830791D01*
X6519538Y-8830791D02*
X6529061Y-8821267D01*
X6529061Y-8821267D02*
X6548109Y-8811744D01*
X6548109Y-8811744D02*
X6576681Y-8811744D01*
X6576681Y-8811744D02*
X6595728Y-8821267D01*
X6595728Y-8821267D02*
X6605252Y-8830791D01*
X6605252Y-8830791D02*
X6614776Y-8849839D01*
X6614776Y-8849839D02*
X6614776Y-8906982D01*
X6614776Y-8906982D02*
X6605252Y-8926029D01*
X6605252Y-8926029D02*
X6595728Y-8935553D01*
X6595728Y-8935553D02*
X6576681Y-8945077D01*
X6576681Y-8945077D02*
X6548109Y-8945077D01*
X6729061Y-8945077D02*
X6710014Y-8935553D01*
X6710014Y-8935553D02*
X6700490Y-8916506D01*
X6700490Y-8916506D02*
X6700490Y-8745077D01*
X6881442Y-8935553D02*
X6862395Y-8945077D01*
X6862395Y-8945077D02*
X6824300Y-8945077D01*
X6824300Y-8945077D02*
X6805252Y-8935553D01*
X6805252Y-8935553D02*
X6795728Y-8916506D01*
X6795728Y-8916506D02*
X6795728Y-8840315D01*
X6795728Y-8840315D02*
X6805252Y-8821267D01*
X6805252Y-8821267D02*
X6824300Y-8811744D01*
X6824300Y-8811744D02*
X6862395Y-8811744D01*
X6862395Y-8811744D02*
X6881442Y-8821267D01*
X6881442Y-8821267D02*
X6890966Y-8840315D01*
X6890966Y-8840315D02*
X6890966Y-8859363D01*
X6890966Y-8859363D02*
X6795728Y-8878410D01*
X6967157Y-8935553D02*
X6986204Y-8945077D01*
X6986204Y-8945077D02*
X7024300Y-8945077D01*
X7024300Y-8945077D02*
X7043347Y-8935553D01*
X7043347Y-8935553D02*
X7052871Y-8916506D01*
X7052871Y-8916506D02*
X7052871Y-8906982D01*
X7052871Y-8906982D02*
X7043347Y-8887934D01*
X7043347Y-8887934D02*
X7024300Y-8878410D01*
X7024300Y-8878410D02*
X6995728Y-8878410D01*
X6995728Y-8878410D02*
X6976681Y-8868887D01*
X6976681Y-8868887D02*
X6967157Y-8849839D01*
X6967157Y-8849839D02*
X6967157Y-8840315D01*
X6967157Y-8840315D02*
X6976681Y-8821267D01*
X6976681Y-8821267D02*
X6995728Y-8811744D01*
X6995728Y-8811744D02*
X7024300Y-8811744D01*
X7024300Y-8811744D02*
X7043347Y-8821267D01*
X7119538Y-9021267D02*
X7129062Y-9011744D01*
X7129062Y-9011744D02*
X7148109Y-8983172D01*
X7148109Y-8983172D02*
X7157633Y-8964125D01*
X7157633Y-8964125D02*
X7167157Y-8935553D01*
X7167157Y-8935553D02*
X7176681Y-8887934D01*
X7176681Y-8887934D02*
X7176681Y-8849839D01*
X7176681Y-8849839D02*
X7167157Y-8802220D01*
X7167157Y-8802220D02*
X7157633Y-8773648D01*
X7157633Y-8773648D02*
X7148109Y-8754601D01*
X7148109Y-8754601D02*
X7129062Y-8726029D01*
X7129062Y-8726029D02*
X7119538Y-8716506D01*
M02*
