M48
; DRILL file {KiCad 8.0.2} date 2025-05-18T15:38:26-0700
; FORMAT={-:-/ absolute / inch / decimal}
; #@! TF.CreationDate,2025-05-18T15:38:26-07:00
; #@! TF.GenerationSoftware,Kicad,Pcbnew,8.0.2
; #@! TF.FileFunction,Plated,1,4,PTH
FMAT,2
INCH
; #@! TA.AperFunction,Plated,PTH,ViaDrill
T1C0.0118
; #@! TA.AperFunction,Plated,PTH,ComponentDrill
T2C0.0197
; #@! TA.AperFunction,Plated,PTH,ComponentDrill
T3C0.0315
; #@! TA.AperFunction,Plated,PTH,ComponentDrill
T4C0.0394
%
G90
G05
T1
X0.8848Y-2.4213
X1.0177Y-2.6093
X1.0581Y-2.3868
X1.1073Y-2.6063
X1.1388Y-2.1604
X1.1614Y-2.3937
X1.2018Y-2.3435
X1.2601Y-2.6253
X1.2972Y-2.1358
X1.3081Y-2.5659
X1.377Y-2.2697
X1.4272Y-2.3612
X1.4424Y-2.2134
X1.4439Y-2.1191
X1.4843Y-2.499
X1.501Y-2.4331
X1.5069Y-2.0965
X1.5709Y-2.1762
X1.5906Y-2.0079
X1.6811Y-2.2421
X1.7362Y-2.6486
X1.7685Y-2.3382
X1.8278Y-2.0846
X1.8396Y-2.31
X1.8697Y-2.4256
X1.8879Y-1.8001
X1.9252Y-2.3278
X1.9303Y-1.8012
X1.9547Y-2.0935
X1.9548Y-2.5241
X1.9583Y-2.1618
X2.0177Y-2.3
X2.0522Y-0.6939
X2.065Y-1.2756
X2.0787Y-2.1831
X2.0945Y-1.9045
X2.1289Y-2.3691
X2.1516Y-2.5285
X2.1654Y-2.4734
X2.186Y-1.625
X2.1919Y-1.9272
X2.1939Y-0.5817
X2.1988Y-1.1319
X2.2077Y-2.1722
X2.2116Y-1.3474
X2.2283Y-0.7687
X2.2579Y-0.747
X2.2652Y-1.0983
X2.2984Y-0.7322
X2.3012Y-1.1004
X2.3179Y-1.5427
X2.3388Y-1.2152
X2.339Y-1.1807
X2.3445Y-0.5876
X2.372Y-1.2559
X2.3743Y-1.2199
X2.3748Y-1.2906
X2.4013Y-1.3184
X2.4026Y-1.3563
X2.4026Y-1.4409
X2.4035Y-0.6467
X2.4498Y-1.6516
X2.4539Y-2.0925
X2.4616Y-1.7904
X2.5295Y-1.2185
X2.5932Y-1.185
X2.6068Y-1.7954
X2.6447Y-1.7728
X2.6526Y-0.7037
X2.6663Y-2.562
X2.6877Y-2.1687
X2.6987Y-0.895
X2.7213Y-1.3591
X2.7254Y-1.122
X2.7305Y-0.9832
X2.7312Y-1.9251
X2.7383Y-0.754
X2.7388Y-1.3065
X2.739Y-0.72
X2.7427Y-1.2592
X2.7598Y-0.9665
X2.7801Y-0.9367
X2.7874Y-1.1752
X2.7915Y-0.7404
X2.814Y-0.9508
X2.8337Y-1.1399
X2.8374Y-2.0779
X2.8377Y-1.3275
X2.8546Y-0.9933
X2.8635Y-0.7404
X2.875Y-2.8661
X2.8853Y-0.7899
X2.8914Y-0.7564
X2.8929Y-1.3858
X2.908Y-0.8404
X2.9149Y-0.8022
X2.9286Y-2.0652
X2.9546Y-1.1992
X2.9596Y-0.6998
X2.9626Y-2.0797
X2.9664Y-0.8763
X2.9919Y-0.9707
X3.002Y-2.0794
X3.0149Y-1.2673
X3.0173Y-1.073
X3.065Y-0.9685
X3.0925Y-0.9419
X3.1142Y-0.9154
X3.122Y-0.6526
X3.122Y-1.002
X3.122Y-1.0571
X3.128Y-0.8839
X3.1752Y-0.7185
X3.2033Y-0.5808
X3.2175Y-1.2136
X3.2195Y-1.1821
X3.2215Y-1.1506
X3.2519Y-0.8193
X3.2628Y-0.9616
X3.2717Y-1.0906
X3.2835Y-0.8055
X3.3031Y-0.7451
X3.3081Y-1.0906
X3.311Y-0.8524
X3.313Y-0.8878
X3.3632Y-0.5935
X3.3848Y-0.7864
X3.3888Y-1.3701
X3.3946Y-1.4219
X3.4122Y-1.4539
X3.4134Y-1.3947
X3.417Y-1.345
X3.4449Y-1.3258
X3.4508Y-1.2913
X3.4557Y-1.2274
X3.4793Y-1.2756
X3.499Y-1.251
X3.7116Y-1.5138
X3.7116Y-1.5502
X3.7136Y-1.4793
X3.7175Y-1.4341
X3.7205Y-1.3937
X3.7864Y-1.6604
X3.811Y-1.1181
X3.8681Y-1.6171
X3.8787Y-1.7047
X3.9459Y-1.2037
X3.9872Y-1.6968
X3.997Y-1.31
X4.1398Y-1.5344
X4.1417Y-1.2864
X4.1663Y-1.5581
X4.1752Y-1.2854
X4.1919Y-1.062
X4.1919Y-1.0965
X4.247Y-1.1033
X4.3041Y-2.5984
X4.3244Y-0.8406
X4.3319Y-1.6398
X4.3356Y-1.2234
X4.3366Y-2.0325
X4.3622Y-2.686
X4.4124Y-1.3051
X4.4183Y-2.6043
X4.4636Y-0.9006
X4.4636Y-1.7087
X4.4636Y-2.0758
X4.4654Y-2.5738
X4.5079Y-2.6565
X4.6112Y-1.2559
X4.6683Y-1.8071
X4.6909Y-1.8563
X4.7185Y-1.7106
X4.8051Y-1.2579
X4.8061Y-1.625
X4.9321Y-1.3022
X4.9339Y-1.7
T2
X0.9764Y-2.2874
X1.0581Y-2.2874
X4.6821Y-2.2982
X4.6821Y-2.3799
T3
X2.6724Y-0.5807
X2.7512Y-0.5807
X2.8299Y-0.5807
X2.9087Y-0.5807
T4
X0.9609Y-2.4618
X1.1577Y-2.4618
X3.9312Y-1.3668
X3.9312Y-1.5636
X4.3997Y-0.9618
X4.3997Y-1.1586
X4.3997Y-1.7718
X4.3997Y-1.9687
X4.4158Y-2.4618
X4.6127Y-2.4618
X4.8682Y-1.3668
X4.8682Y-1.5636
M30
