%TF.GenerationSoftware,KiCad,Pcbnew,8.0.2*%
%TF.CreationDate,2025-05-18T15:38:24-07:00*%
%TF.ProjectId,PGS_Main_Board,5047535f-4d61-4696-9e5f-426f6172642e,rev?*%
%TF.SameCoordinates,Original*%
%TF.FileFunction,Legend,Top*%
%TF.FilePolarity,Positive*%
%FSLAX46Y46*%
G04 Gerber Fmt 4.6, Leading zero omitted, Abs format (unit mm)*
G04 Created by KiCad (PCBNEW 8.0.2) date 2025-05-18 15:38:24*
%MOMM*%
%LPD*%
G01*
G04 APERTURE LIST*
%ADD10C,0.100000*%
%ADD11C,0.187500*%
%ADD12C,0.120000*%
%ADD13C,0.127000*%
%ADD14C,0.200000*%
G04 APERTURE END LIST*
D10*
X101200000Y-26950000D02*
X103250000Y-26950000D01*
X103250000Y-28900000D01*
X101200000Y-28900000D01*
X101200000Y-26950000D01*
X112750000Y-64975000D02*
X112872252Y-65653346D01*
X29900000Y-67175000D02*
X29849793Y-66861537D01*
X65975000Y-46500000D02*
X65700000Y-46250000D01*
X63800000Y-43850000D02*
X69300000Y-43850000D01*
X69300000Y-46975000D01*
X63800000Y-46975000D01*
X63800000Y-43850000D01*
X66174999Y-44448396D02*
X65767612Y-44629457D01*
X67425000Y-44450000D02*
X66174999Y-44448396D01*
X67550000Y-46500000D02*
X65975000Y-46500000D01*
X30525000Y-67200000D02*
X29900000Y-67175000D01*
D11*
G36*
X120227500Y-58114777D02*
G01*
X120366168Y-58114777D01*
X120366168Y-57769295D01*
X120930919Y-57769295D01*
X120930919Y-57611575D01*
X120227500Y-57611575D01*
X120227500Y-58114777D01*
G37*
G36*
X120930919Y-58497444D02*
G01*
X120926834Y-58544667D01*
X120915068Y-58587335D01*
X120896355Y-58624911D01*
X120871431Y-58656858D01*
X120841027Y-58682641D01*
X120805880Y-58701721D01*
X120766723Y-58713563D01*
X120724289Y-58717629D01*
X120683190Y-58713712D01*
X120645570Y-58702598D01*
X120612901Y-58685244D01*
X120583007Y-58658386D01*
X120564188Y-58625855D01*
X120561036Y-58634490D01*
X120539475Y-58666798D01*
X120508389Y-58686271D01*
X120470238Y-58695933D01*
X120428267Y-58698578D01*
X120227500Y-58698578D01*
X120227500Y-58544156D01*
X120410682Y-58544156D01*
X120451162Y-58539450D01*
X120482626Y-58516639D01*
X120494643Y-58480577D01*
X120495426Y-58468135D01*
X120626470Y-58468135D01*
X120628924Y-58499710D01*
X120642318Y-58536752D01*
X120673177Y-58562503D01*
X120711833Y-58569252D01*
X120739131Y-58566358D01*
X120774573Y-58547361D01*
X120793528Y-58512916D01*
X120798295Y-58473264D01*
X120798295Y-58291181D01*
X120626470Y-58291181D01*
X120626470Y-58468135D01*
X120495426Y-58468135D01*
X120497144Y-58440841D01*
X120497144Y-58291181D01*
X120227500Y-58291181D01*
X120227500Y-58137674D01*
X120930919Y-58137674D01*
X120930919Y-58497444D01*
G37*
G36*
X120930919Y-58974084D02*
G01*
X120930919Y-59151404D01*
X120227500Y-59401265D01*
X120227500Y-59230173D01*
X120368183Y-59186026D01*
X120368183Y-59140230D01*
X120499525Y-59140230D01*
X120766071Y-59060539D01*
X120499525Y-58978847D01*
X120499525Y-59140230D01*
X120368183Y-59140230D01*
X120368183Y-58937264D01*
X120227500Y-58887805D01*
X120227500Y-58720926D01*
X120930919Y-58974084D01*
G37*
G36*
X120227500Y-60212945D02*
G01*
X120363054Y-60212945D01*
X120363054Y-59825515D01*
X120526636Y-59825515D01*
X120526636Y-60166783D01*
X120661275Y-60166783D01*
X120661275Y-59825515D01*
X120797379Y-59825515D01*
X120797379Y-60196275D01*
X120930919Y-60196275D01*
X120930919Y-59672008D01*
X120227500Y-59672008D01*
X120227500Y-60212945D01*
G37*
G36*
X120227500Y-60848587D02*
G01*
X120592581Y-60618144D01*
X120930919Y-60833932D01*
X120930919Y-60650750D01*
X120712932Y-60527102D01*
X120930919Y-60404553D01*
X120930919Y-60218257D01*
X120586353Y-60435145D01*
X120227500Y-60205618D01*
X120227500Y-60389716D01*
X120459042Y-60526919D01*
X120227500Y-60656978D01*
X120227500Y-60848587D01*
G37*
G36*
X120227500Y-61202495D02*
G01*
X120797379Y-61202495D01*
X120797379Y-61413521D01*
X120930919Y-61413521D01*
X120930919Y-60834665D01*
X120797379Y-60834665D01*
X120797379Y-61044775D01*
X120227500Y-61044775D01*
X120227500Y-61202495D01*
G37*
D10*
X67752423Y-44714304D02*
X67823851Y-44738113D01*
X67823851Y-44738113D02*
X67942899Y-44738113D01*
X67942899Y-44738113D02*
X67990518Y-44714304D01*
X67990518Y-44714304D02*
X68014327Y-44690494D01*
X68014327Y-44690494D02*
X68038137Y-44642875D01*
X68038137Y-44642875D02*
X68038137Y-44595256D01*
X68038137Y-44595256D02*
X68014327Y-44547637D01*
X68014327Y-44547637D02*
X67990518Y-44523827D01*
X67990518Y-44523827D02*
X67942899Y-44500018D01*
X67942899Y-44500018D02*
X67847661Y-44476208D01*
X67847661Y-44476208D02*
X67800042Y-44452399D01*
X67800042Y-44452399D02*
X67776232Y-44428589D01*
X67776232Y-44428589D02*
X67752423Y-44380970D01*
X67752423Y-44380970D02*
X67752423Y-44333351D01*
X67752423Y-44333351D02*
X67776232Y-44285732D01*
X67776232Y-44285732D02*
X67800042Y-44261923D01*
X67800042Y-44261923D02*
X67847661Y-44238113D01*
X67847661Y-44238113D02*
X67966708Y-44238113D01*
X67966708Y-44238113D02*
X68038137Y-44261923D01*
X68252422Y-44738113D02*
X68252422Y-44238113D01*
X68252422Y-44238113D02*
X68371470Y-44238113D01*
X68371470Y-44238113D02*
X68442898Y-44261923D01*
X68442898Y-44261923D02*
X68490517Y-44309542D01*
X68490517Y-44309542D02*
X68514327Y-44357161D01*
X68514327Y-44357161D02*
X68538136Y-44452399D01*
X68538136Y-44452399D02*
X68538136Y-44523827D01*
X68538136Y-44523827D02*
X68514327Y-44619065D01*
X68514327Y-44619065D02*
X68490517Y-44666684D01*
X68490517Y-44666684D02*
X68442898Y-44714304D01*
X68442898Y-44714304D02*
X68371470Y-44738113D01*
X68371470Y-44738113D02*
X68252422Y-44738113D01*
X68728613Y-44595256D02*
X68966708Y-44595256D01*
X68680994Y-44738113D02*
X68847660Y-44238113D01*
X68847660Y-44238113D02*
X69014327Y-44738113D01*
D11*
G36*
X59652500Y-24010964D02*
G01*
X60355919Y-24010964D01*
X60355919Y-23790596D01*
X59867006Y-23669147D01*
X60355919Y-23547697D01*
X60355919Y-23322932D01*
X59652500Y-23322932D01*
X59652500Y-23470211D01*
X60130055Y-23464349D01*
X59652500Y-23589096D01*
X59652500Y-23742786D01*
X60132254Y-23868632D01*
X59652500Y-23862770D01*
X59652500Y-24010964D01*
G37*
G36*
X59652500Y-24210450D02*
G01*
X60355919Y-24210450D01*
X60355919Y-24052730D01*
X59652500Y-24052730D01*
X59652500Y-24210450D01*
G37*
G36*
X59652500Y-24829056D02*
G01*
X60355919Y-24829056D01*
X60355919Y-24680678D01*
X59925624Y-24680678D01*
X60355919Y-24412683D01*
X60355919Y-24249101D01*
X59652500Y-24249101D01*
X59652500Y-24396380D01*
X60102944Y-24396380D01*
X59652500Y-24685624D01*
X59652500Y-24829056D01*
G37*
G36*
X59889720Y-25282432D02*
G01*
X59851965Y-25279284D01*
X59815631Y-25267071D01*
X59785248Y-25240907D01*
X59767355Y-25201572D01*
X59761967Y-25165214D01*
X59761493Y-25148709D01*
X59766689Y-25109491D01*
X59785243Y-25073060D01*
X59816188Y-25047270D01*
X59851728Y-25034114D01*
X59894849Y-25029640D01*
X60355919Y-25029640D01*
X60355919Y-24869722D01*
X59881294Y-24869722D01*
X59835877Y-24872580D01*
X59795027Y-24880993D01*
X59758722Y-24894720D01*
X59726940Y-24913521D01*
X59691563Y-24946063D01*
X59664137Y-24986626D01*
X59648755Y-25021968D01*
X59637794Y-25061258D01*
X59631234Y-25104257D01*
X59629052Y-25150724D01*
X59631421Y-25200691D01*
X59638494Y-25246424D01*
X59650223Y-25287773D01*
X59666562Y-25324591D01*
X59687461Y-25356728D01*
X59712873Y-25384037D01*
X59742750Y-25406368D01*
X59777043Y-25423573D01*
X59815705Y-25435505D01*
X59858688Y-25442013D01*
X59889720Y-25443266D01*
X60355919Y-25443266D01*
X60355919Y-25282432D01*
X59889720Y-25282432D01*
G37*
G36*
X60139947Y-26029815D02*
G01*
X60178319Y-26025740D01*
X60214215Y-26016672D01*
X60257734Y-25996984D01*
X60295676Y-25968825D01*
X60327367Y-25932428D01*
X60346629Y-25899862D01*
X60361715Y-25862890D01*
X60372340Y-25821610D01*
X60378221Y-25776119D01*
X60379366Y-25743501D01*
X60376966Y-25697148D01*
X60369963Y-25655266D01*
X60358651Y-25617876D01*
X60337375Y-25575042D01*
X60309658Y-25540272D01*
X60276200Y-25513610D01*
X60237698Y-25495101D01*
X60194850Y-25484791D01*
X60160280Y-25482467D01*
X60121018Y-25485652D01*
X60080467Y-25497610D01*
X60046393Y-25517977D01*
X60018072Y-25546260D01*
X59994779Y-25581967D01*
X59984792Y-25602451D01*
X59969739Y-25641466D01*
X59958381Y-25679232D01*
X59949194Y-25715498D01*
X59939849Y-25756360D01*
X59931486Y-25794609D01*
X59920457Y-25835808D01*
X59903148Y-25872154D01*
X59873319Y-25895130D01*
X59849970Y-25898290D01*
X59811084Y-25889875D01*
X59782330Y-25865042D01*
X59766103Y-25830332D01*
X59759251Y-25791267D01*
X59758379Y-25768597D01*
X59761327Y-25728348D01*
X59772475Y-25687536D01*
X59791629Y-25655559D01*
X59823680Y-25630369D01*
X59859114Y-25619974D01*
X59872501Y-25618937D01*
X59872501Y-25466530D01*
X59828529Y-25470582D01*
X59789018Y-25480649D01*
X59753940Y-25496381D01*
X59723264Y-25517428D01*
X59696960Y-25543439D01*
X59674999Y-25574064D01*
X59657350Y-25608951D01*
X59643984Y-25647751D01*
X59634871Y-25690113D01*
X59629981Y-25735687D01*
X59629052Y-25767681D01*
X59630928Y-25812659D01*
X59636601Y-25854917D01*
X59646141Y-25894083D01*
X59659616Y-25929786D01*
X59683824Y-25971357D01*
X59715312Y-26005226D01*
X59754246Y-26030510D01*
X59800787Y-26046328D01*
X59840783Y-26051448D01*
X59855099Y-26051797D01*
X59898160Y-26048209D01*
X59933981Y-26038065D01*
X59968626Y-26018549D01*
X59995581Y-25992542D01*
X60016340Y-25961652D01*
X60027473Y-25939140D01*
X60042058Y-25901619D01*
X60053787Y-25864816D01*
X60064974Y-25824721D01*
X60075776Y-25782277D01*
X60084600Y-25745791D01*
X60088107Y-25731045D01*
X60098931Y-25693196D01*
X60115675Y-25657302D01*
X60145320Y-25631691D01*
X60169623Y-25627547D01*
X60205343Y-25636851D01*
X60229918Y-25664942D01*
X60240983Y-25699951D01*
X60244650Y-25739231D01*
X60244727Y-25746615D01*
X60242381Y-25783693D01*
X60233142Y-25819627D01*
X60212994Y-25850479D01*
X60182144Y-25870288D01*
X60139947Y-25879972D01*
X60139947Y-26029815D01*
G37*
G36*
X67438626Y-70663452D02*
G01*
X67484688Y-70669656D01*
X67526566Y-70683730D01*
X67563564Y-70705180D01*
X67594988Y-70733517D01*
X67620141Y-70768248D01*
X67638329Y-70808882D01*
X67648855Y-70854927D01*
X67651303Y-70892716D01*
X67651303Y-71048604D01*
X67897500Y-71048604D01*
X67897500Y-71206324D01*
X67194080Y-71206324D01*
X67194080Y-70915797D01*
X67326704Y-70915797D01*
X67326704Y-71048604D01*
X67521060Y-71048604D01*
X67521060Y-70915797D01*
X67520601Y-70901156D01*
X67513953Y-70863930D01*
X67493881Y-70828946D01*
X67462714Y-70809176D01*
X67422325Y-70802957D01*
X67406971Y-70803807D01*
X67371220Y-70814912D01*
X67344693Y-70840192D01*
X67330709Y-70875249D01*
X67326704Y-70915797D01*
X67194080Y-70915797D01*
X67194080Y-70892716D01*
X67194381Y-70879809D01*
X67198779Y-70842882D01*
X67212267Y-70798119D01*
X67233628Y-70758912D01*
X67261949Y-70725745D01*
X67296315Y-70699104D01*
X67335812Y-70679475D01*
X67379524Y-70667341D01*
X67426538Y-70663189D01*
X67438626Y-70663452D01*
G37*
G36*
X67576832Y-69974963D02*
G01*
X67618993Y-69977797D01*
X67658505Y-69983427D01*
X67695344Y-69991814D01*
X67745542Y-70009479D01*
X67789597Y-70033127D01*
X67827432Y-70062626D01*
X67858969Y-70097844D01*
X67884129Y-70138648D01*
X67902836Y-70184906D01*
X67915010Y-70236487D01*
X67919459Y-70273765D01*
X67920947Y-70313311D01*
X67920553Y-70333355D01*
X67917421Y-70371794D01*
X67906959Y-70425241D01*
X67889735Y-70473498D01*
X67865923Y-70516406D01*
X67835697Y-70553809D01*
X67799231Y-70585550D01*
X67756698Y-70611473D01*
X67708272Y-70631421D01*
X67672801Y-70641323D01*
X67634839Y-70648453D01*
X67594439Y-70652765D01*
X67551652Y-70654213D01*
X67529832Y-70653850D01*
X67487819Y-70650968D01*
X67448039Y-70645248D01*
X67410574Y-70636736D01*
X67358895Y-70618831D01*
X67312880Y-70594899D01*
X67272803Y-70565095D01*
X67238937Y-70529571D01*
X67211556Y-70488484D01*
X67190933Y-70441985D01*
X67177343Y-70390229D01*
X67172324Y-70352881D01*
X67170633Y-70313311D01*
X67311683Y-70313311D01*
X67312646Y-70335194D01*
X67320334Y-70375024D01*
X67335668Y-70409512D01*
X67358605Y-70438541D01*
X67389103Y-70461995D01*
X67427119Y-70479758D01*
X67472609Y-70491714D01*
X67511606Y-70496801D01*
X67554766Y-70498508D01*
X67597505Y-70496753D01*
X67635535Y-70491542D01*
X67679106Y-70479352D01*
X67714763Y-70461344D01*
X67748602Y-70430936D01*
X67770995Y-70392093D01*
X67781012Y-70355191D01*
X67784293Y-70313311D01*
X67780997Y-70275935D01*
X67767345Y-70233198D01*
X67742648Y-70196127D01*
X67714611Y-70171443D01*
X67678944Y-70151916D01*
X67635399Y-70138227D01*
X67597421Y-70132201D01*
X67554766Y-70130129D01*
X67525531Y-70130880D01*
X67485145Y-70134801D01*
X67448932Y-70142033D01*
X67407174Y-70156742D01*
X67372912Y-70177138D01*
X67346189Y-70203106D01*
X67327047Y-70234534D01*
X67315531Y-70271307D01*
X67311683Y-70313311D01*
X67170633Y-70313311D01*
X67171057Y-70293241D01*
X67174425Y-70254798D01*
X67185629Y-70201447D01*
X67203986Y-70153388D01*
X67229240Y-70110750D01*
X67261131Y-70073664D01*
X67299402Y-70042257D01*
X67343794Y-70016661D01*
X67394049Y-69997004D01*
X67430683Y-69987263D01*
X67469731Y-69980257D01*
X67511117Y-69976026D01*
X67554766Y-69974607D01*
X67576832Y-69974963D01*
G37*
G36*
X67897500Y-69326692D02*
G01*
X67194080Y-69128122D01*
X67194080Y-69289506D01*
X67623276Y-69398133D01*
X67194080Y-69499799D01*
X67194080Y-69662465D01*
X67622360Y-69754788D01*
X67194080Y-69864148D01*
X67194080Y-70031760D01*
X67897500Y-69831175D01*
X67897500Y-69685546D01*
X67466655Y-69579849D01*
X67897500Y-69476352D01*
X67897500Y-69326692D01*
G37*
G36*
X67897500Y-68569783D02*
G01*
X67761945Y-68569783D01*
X67761945Y-68957213D01*
X67598363Y-68957213D01*
X67598363Y-68615945D01*
X67463724Y-68615945D01*
X67463724Y-68957213D01*
X67327620Y-68957213D01*
X67327620Y-68586453D01*
X67194080Y-68586453D01*
X67194080Y-69110720D01*
X67897500Y-69110720D01*
X67897500Y-68569783D01*
G37*
G36*
X67441809Y-67976343D02*
G01*
X67479429Y-67987457D01*
X67512098Y-68004811D01*
X67541992Y-68031669D01*
X67560811Y-68064200D01*
X67563963Y-68055565D01*
X67585524Y-68023257D01*
X67616610Y-68003785D01*
X67654761Y-67994123D01*
X67696732Y-67991477D01*
X67897500Y-67991477D01*
X67897500Y-68145900D01*
X67714317Y-68145900D01*
X67673837Y-68150605D01*
X67642373Y-68173416D01*
X67630356Y-68209478D01*
X67627855Y-68249214D01*
X67627855Y-68398874D01*
X67897500Y-68398874D01*
X67897500Y-68552381D01*
X67194080Y-68552381D01*
X67194080Y-68216791D01*
X67326704Y-68216791D01*
X67326704Y-68398874D01*
X67498529Y-68398874D01*
X67498529Y-68221920D01*
X67496075Y-68190345D01*
X67482681Y-68153303D01*
X67451822Y-68127552D01*
X67413166Y-68120804D01*
X67385868Y-68123697D01*
X67350426Y-68142694D01*
X67331471Y-68177140D01*
X67326704Y-68216791D01*
X67194080Y-68216791D01*
X67194080Y-68192611D01*
X67198165Y-68145388D01*
X67209931Y-68102720D01*
X67228644Y-68065144D01*
X67253568Y-68033197D01*
X67283972Y-68007415D01*
X67319119Y-67988334D01*
X67358276Y-67976493D01*
X67400710Y-67972426D01*
X67441809Y-67976343D01*
G37*
G36*
X65759239Y-28702624D02*
G01*
X65802396Y-28712970D01*
X65839397Y-28729693D01*
X65870064Y-28752363D01*
X65894224Y-28780555D01*
X65911698Y-28813841D01*
X65922312Y-28851794D01*
X65925889Y-28893986D01*
X65920770Y-28932451D01*
X65904637Y-28971223D01*
X65881223Y-29001759D01*
X65850968Y-29022763D01*
X65855305Y-29024474D01*
X65889596Y-29045464D01*
X65916272Y-29075382D01*
X65933990Y-29110486D01*
X65943510Y-29146942D01*
X65946955Y-29190375D01*
X65944622Y-29225195D01*
X65934244Y-29267673D01*
X65915554Y-29305206D01*
X65888539Y-29337325D01*
X65853189Y-29363559D01*
X65809493Y-29383439D01*
X65771238Y-29393896D01*
X65728278Y-29400316D01*
X65680608Y-29402500D01*
X65360772Y-29402500D01*
X65360772Y-29272257D01*
X65513180Y-29272257D01*
X65692149Y-29272257D01*
X65730471Y-29266937D01*
X65763720Y-29249167D01*
X65786714Y-29217002D01*
X65793449Y-29180116D01*
X65789719Y-29151557D01*
X65767597Y-29118338D01*
X65731812Y-29102709D01*
X65694347Y-29099150D01*
X65513180Y-29099150D01*
X65513180Y-29272257D01*
X65360772Y-29272257D01*
X65360772Y-28968724D01*
X65513180Y-28968724D01*
X65691233Y-28968724D01*
X65696352Y-28968658D01*
X65734904Y-28962058D01*
X65765585Y-28936397D01*
X65773482Y-28900214D01*
X65772298Y-28882965D01*
X65755547Y-28849391D01*
X65720413Y-28834517D01*
X65682807Y-28831704D01*
X65513180Y-28831704D01*
X65513180Y-28968724D01*
X65360772Y-28968724D01*
X65360772Y-28699080D01*
X65710101Y-28699080D01*
X65759239Y-28702624D01*
G37*
G36*
X66315621Y-28676057D02*
G01*
X66354064Y-28679425D01*
X66407415Y-28690629D01*
X66455474Y-28708986D01*
X66498111Y-28734240D01*
X66535198Y-28766131D01*
X66566604Y-28804402D01*
X66592201Y-28848794D01*
X66611858Y-28899049D01*
X66621599Y-28935683D01*
X66628604Y-28974731D01*
X66632836Y-29016117D01*
X66634255Y-29059766D01*
X66633898Y-29081832D01*
X66631065Y-29123993D01*
X66625435Y-29163505D01*
X66617047Y-29200344D01*
X66599382Y-29250542D01*
X66575734Y-29294597D01*
X66546236Y-29332432D01*
X66511018Y-29363969D01*
X66470214Y-29389129D01*
X66423955Y-29407836D01*
X66372375Y-29420010D01*
X66335097Y-29424459D01*
X66295551Y-29425947D01*
X66275507Y-29425553D01*
X66237068Y-29422421D01*
X66183620Y-29411959D01*
X66135364Y-29394735D01*
X66092456Y-29370923D01*
X66055053Y-29340697D01*
X66023312Y-29304231D01*
X65997389Y-29261698D01*
X65977441Y-29213272D01*
X65967539Y-29177801D01*
X65960409Y-29139839D01*
X65956097Y-29099439D01*
X65954754Y-29059766D01*
X66110354Y-29059766D01*
X66112108Y-29102505D01*
X66117320Y-29140535D01*
X66129509Y-29184106D01*
X66147517Y-29219763D01*
X66177925Y-29253602D01*
X66216768Y-29275995D01*
X66253670Y-29286012D01*
X66295551Y-29289293D01*
X66332927Y-29285997D01*
X66375664Y-29272345D01*
X66412735Y-29247648D01*
X66437419Y-29219611D01*
X66456945Y-29183944D01*
X66470634Y-29140399D01*
X66476660Y-29102421D01*
X66478733Y-29059766D01*
X66477982Y-29030531D01*
X66474061Y-28990145D01*
X66466829Y-28953932D01*
X66452120Y-28912174D01*
X66431724Y-28877912D01*
X66405755Y-28851189D01*
X66374328Y-28832047D01*
X66337555Y-28820531D01*
X66295551Y-28816683D01*
X66273668Y-28817646D01*
X66233837Y-28825334D01*
X66199349Y-28840668D01*
X66170320Y-28863605D01*
X66146867Y-28894103D01*
X66129103Y-28932119D01*
X66117147Y-28977609D01*
X66112060Y-29016606D01*
X66110354Y-29059766D01*
X65954754Y-29059766D01*
X65954649Y-29056652D01*
X65955011Y-29034832D01*
X65957893Y-28992819D01*
X65963613Y-28953039D01*
X65972126Y-28915574D01*
X65990031Y-28863895D01*
X66013963Y-28817880D01*
X66043767Y-28777803D01*
X66079290Y-28743937D01*
X66120378Y-28716556D01*
X66166877Y-28695933D01*
X66218632Y-28682343D01*
X66255980Y-28677324D01*
X66295551Y-28675633D01*
X66315621Y-28676057D01*
G37*
G36*
X67019040Y-28676057D02*
G01*
X67057483Y-28679425D01*
X67110834Y-28690629D01*
X67158893Y-28708986D01*
X67201531Y-28734240D01*
X67238617Y-28766131D01*
X67270024Y-28804402D01*
X67295620Y-28848794D01*
X67315277Y-28899049D01*
X67325018Y-28935683D01*
X67332024Y-28974731D01*
X67336255Y-29016117D01*
X67337674Y-29059766D01*
X67337318Y-29081832D01*
X67334484Y-29123993D01*
X67328854Y-29163505D01*
X67320467Y-29200344D01*
X67302802Y-29250542D01*
X67279154Y-29294597D01*
X67249655Y-29332432D01*
X67214437Y-29363969D01*
X67173633Y-29389129D01*
X67127375Y-29407836D01*
X67075794Y-29420010D01*
X67038516Y-29424459D01*
X66998970Y-29425947D01*
X66978926Y-29425553D01*
X66940487Y-29422421D01*
X66887039Y-29411959D01*
X66838783Y-29394735D01*
X66795875Y-29370923D01*
X66758472Y-29340697D01*
X66726731Y-29304231D01*
X66700808Y-29261698D01*
X66680860Y-29213272D01*
X66670958Y-29177801D01*
X66663828Y-29139839D01*
X66659516Y-29099439D01*
X66658173Y-29059766D01*
X66813773Y-29059766D01*
X66815528Y-29102505D01*
X66820739Y-29140535D01*
X66832929Y-29184106D01*
X66850937Y-29219763D01*
X66881345Y-29253602D01*
X66920188Y-29275995D01*
X66957090Y-29286012D01*
X66998970Y-29289293D01*
X67036346Y-29285997D01*
X67079083Y-29272345D01*
X67116154Y-29247648D01*
X67140838Y-29219611D01*
X67160365Y-29183944D01*
X67174054Y-29140399D01*
X67180080Y-29102421D01*
X67182152Y-29059766D01*
X67181401Y-29030531D01*
X67177480Y-28990145D01*
X67170248Y-28953932D01*
X67155539Y-28912174D01*
X67135143Y-28877912D01*
X67109175Y-28851189D01*
X67077747Y-28832047D01*
X67040974Y-28820531D01*
X66998970Y-28816683D01*
X66977087Y-28817646D01*
X66937257Y-28825334D01*
X66902769Y-28840668D01*
X66873740Y-28863605D01*
X66850286Y-28894103D01*
X66832523Y-28932119D01*
X66820566Y-28977609D01*
X66815480Y-29016606D01*
X66813773Y-29059766D01*
X66658173Y-29059766D01*
X66658068Y-29056652D01*
X66658431Y-29034832D01*
X66661312Y-28992819D01*
X66667033Y-28953039D01*
X66675545Y-28915574D01*
X66693450Y-28863895D01*
X66717382Y-28817880D01*
X66747186Y-28777803D01*
X66782709Y-28743937D01*
X66823797Y-28716556D01*
X66870296Y-28695933D01*
X66922052Y-28682343D01*
X66959400Y-28677324D01*
X66998970Y-28675633D01*
X67019040Y-28676057D01*
G37*
G36*
X67653297Y-29402500D02*
G01*
X67653297Y-28832620D01*
X67864323Y-28832620D01*
X67864323Y-28699080D01*
X67285467Y-28699080D01*
X67285467Y-28832620D01*
X67495577Y-28832620D01*
X67495577Y-29402500D01*
X67653297Y-29402500D01*
G37*
G36*
X64927543Y-35271973D02*
G01*
X64889049Y-35260131D01*
X64851245Y-35240159D01*
X64822709Y-35213709D01*
X64803563Y-35180580D01*
X64793931Y-35140568D01*
X64792721Y-35117917D01*
X64796715Y-35079256D01*
X64812675Y-35038284D01*
X64840364Y-35005439D01*
X64879291Y-34980677D01*
X64918194Y-34966654D01*
X64963725Y-34957752D01*
X65002071Y-34954420D01*
X65029576Y-34953786D01*
X65069793Y-34955219D01*
X65106685Y-34959548D01*
X65150463Y-34969908D01*
X65187759Y-34985614D01*
X65218245Y-35006776D01*
X65246280Y-35041072D01*
X65262529Y-35084288D01*
X65266613Y-35125428D01*
X65261993Y-35162158D01*
X65245230Y-35201188D01*
X65221493Y-35230015D01*
X65189460Y-35253326D01*
X65149466Y-35269939D01*
X65142049Y-35271973D01*
X65142049Y-35428960D01*
X65182638Y-35422307D01*
X65221083Y-35410606D01*
X65256983Y-35394036D01*
X65289931Y-35372775D01*
X65319525Y-35347001D01*
X65345361Y-35316894D01*
X65367034Y-35282630D01*
X65384142Y-35244390D01*
X65396279Y-35202351D01*
X65403042Y-35156691D01*
X65404366Y-35124329D01*
X65402653Y-35087290D01*
X65393792Y-35035159D01*
X65377645Y-34987377D01*
X65354503Y-34944213D01*
X65324661Y-34905934D01*
X65288412Y-34872808D01*
X65246050Y-34845105D01*
X65197867Y-34823091D01*
X65162657Y-34811708D01*
X65125077Y-34803053D01*
X65085215Y-34797204D01*
X65043157Y-34794242D01*
X65021332Y-34793868D01*
X64977813Y-34795524D01*
X64936917Y-34800392D01*
X64898669Y-34808323D01*
X64863094Y-34819167D01*
X64814803Y-34840569D01*
X64772671Y-34867685D01*
X64736785Y-34900011D01*
X64707230Y-34937042D01*
X64684094Y-34978274D01*
X64667461Y-35023202D01*
X64657419Y-35071322D01*
X64654052Y-35122130D01*
X64656856Y-35166901D01*
X64665101Y-35208793D01*
X64678539Y-35247662D01*
X64696923Y-35283362D01*
X64720004Y-35315749D01*
X64747534Y-35344677D01*
X64779265Y-35370003D01*
X64814949Y-35391580D01*
X64854337Y-35409264D01*
X64897182Y-35422910D01*
X64927543Y-35429693D01*
X64927543Y-35271973D01*
G37*
G36*
X65380919Y-35628446D02*
G01*
X65380919Y-35805766D01*
X64677500Y-36055627D01*
X64677500Y-35884534D01*
X64818183Y-35840388D01*
X64818183Y-35794592D01*
X64949525Y-35794592D01*
X65216071Y-35714900D01*
X64949525Y-35633209D01*
X64949525Y-35794592D01*
X64818183Y-35794592D01*
X64818183Y-35591626D01*
X64677500Y-35542167D01*
X64677500Y-35375288D01*
X65380919Y-35628446D01*
G37*
G36*
X65380919Y-36387186D02*
G01*
X65380618Y-36400093D01*
X65376220Y-36437020D01*
X65362732Y-36481783D01*
X65341371Y-36520990D01*
X65313050Y-36554157D01*
X65278684Y-36580798D01*
X65239187Y-36600427D01*
X65195475Y-36612561D01*
X65148461Y-36616713D01*
X65136373Y-36616450D01*
X65090311Y-36610246D01*
X65048433Y-36596172D01*
X65011435Y-36574722D01*
X64980011Y-36546385D01*
X64954858Y-36511654D01*
X64936670Y-36471020D01*
X64926144Y-36424975D01*
X64923696Y-36387186D01*
X64923696Y-36364105D01*
X65053939Y-36364105D01*
X65054398Y-36378746D01*
X65061046Y-36415972D01*
X65081118Y-36450956D01*
X65112285Y-36470726D01*
X65152674Y-36476945D01*
X65168028Y-36476095D01*
X65203779Y-36464990D01*
X65230306Y-36439710D01*
X65244290Y-36404653D01*
X65248295Y-36364105D01*
X65248295Y-36231298D01*
X65053939Y-36231298D01*
X65053939Y-36364105D01*
X64923696Y-36364105D01*
X64923696Y-36231298D01*
X64677500Y-36231298D01*
X64677500Y-36073578D01*
X65380919Y-36073578D01*
X65380919Y-36387186D01*
G37*
G36*
X64677500Y-36981979D02*
G01*
X65247379Y-36981979D01*
X65247379Y-37193004D01*
X65380919Y-37193004D01*
X65380919Y-36614149D01*
X65247379Y-36614149D01*
X65247379Y-36824259D01*
X64677500Y-36824259D01*
X64677500Y-36981979D01*
G37*
G36*
X64914720Y-37628612D02*
G01*
X64876965Y-37625464D01*
X64840631Y-37613251D01*
X64810248Y-37587087D01*
X64792355Y-37547752D01*
X64786967Y-37511394D01*
X64786493Y-37494889D01*
X64791689Y-37455671D01*
X64810243Y-37419239D01*
X64841188Y-37393450D01*
X64876728Y-37380294D01*
X64919849Y-37375820D01*
X65380919Y-37375820D01*
X65380919Y-37215902D01*
X64906294Y-37215902D01*
X64860877Y-37218760D01*
X64820027Y-37227173D01*
X64783722Y-37240900D01*
X64751940Y-37259701D01*
X64716563Y-37292243D01*
X64689137Y-37332806D01*
X64673755Y-37368148D01*
X64662794Y-37407438D01*
X64656234Y-37450437D01*
X64654052Y-37496904D01*
X64656421Y-37546871D01*
X64663494Y-37592604D01*
X64675223Y-37633953D01*
X64691562Y-37670771D01*
X64712461Y-37702908D01*
X64737873Y-37730217D01*
X64767750Y-37752548D01*
X64802043Y-37769753D01*
X64840705Y-37781684D01*
X64883688Y-37788193D01*
X64914720Y-37789445D01*
X65380919Y-37789445D01*
X65380919Y-37628612D01*
X64914720Y-37628612D01*
G37*
G36*
X65380919Y-38190431D02*
G01*
X65376834Y-38237654D01*
X65365068Y-38280322D01*
X65346355Y-38317898D01*
X65321431Y-38349845D01*
X65291027Y-38375628D01*
X65255880Y-38394708D01*
X65216723Y-38406550D01*
X65174289Y-38410616D01*
X65133190Y-38406699D01*
X65095570Y-38395585D01*
X65062901Y-38378231D01*
X65033007Y-38351373D01*
X65014188Y-38318842D01*
X65011036Y-38327477D01*
X64989475Y-38359785D01*
X64958389Y-38379258D01*
X64920238Y-38388919D01*
X64878267Y-38391565D01*
X64677500Y-38391565D01*
X64677500Y-38237143D01*
X64860682Y-38237143D01*
X64901162Y-38232437D01*
X64932626Y-38209626D01*
X64944643Y-38173564D01*
X64945426Y-38161122D01*
X65076470Y-38161122D01*
X65078924Y-38192697D01*
X65092318Y-38229739D01*
X65123177Y-38255490D01*
X65161833Y-38262239D01*
X65189131Y-38259345D01*
X65224573Y-38240348D01*
X65243528Y-38205903D01*
X65248295Y-38166251D01*
X65248295Y-37984168D01*
X65076470Y-37984168D01*
X65076470Y-38161122D01*
X64945426Y-38161122D01*
X64947144Y-38133828D01*
X64947144Y-37984168D01*
X64677500Y-37984168D01*
X64677500Y-37830661D01*
X65380919Y-37830661D01*
X65380919Y-38190431D01*
G37*
G36*
X64677500Y-38978298D02*
G01*
X64813054Y-38978298D01*
X64813054Y-38590867D01*
X64976636Y-38590867D01*
X64976636Y-38932136D01*
X65111275Y-38932136D01*
X65111275Y-38590867D01*
X65247379Y-38590867D01*
X65247379Y-38961628D01*
X65380919Y-38961628D01*
X65380919Y-38437361D01*
X64677500Y-38437361D01*
X64677500Y-38978298D01*
G37*
G36*
X101581007Y-25923165D02*
G01*
X101623675Y-25934931D01*
X101661251Y-25953644D01*
X101693198Y-25978568D01*
X101718980Y-26008972D01*
X101738061Y-26044119D01*
X101749903Y-26083276D01*
X101753969Y-26125710D01*
X101750052Y-26166809D01*
X101738938Y-26204429D01*
X101721584Y-26237098D01*
X101694726Y-26266992D01*
X101662195Y-26285811D01*
X101670830Y-26288963D01*
X101703138Y-26310524D01*
X101722611Y-26341610D01*
X101732272Y-26379761D01*
X101734918Y-26421732D01*
X101734918Y-26622500D01*
X101580496Y-26622500D01*
X101580496Y-26439317D01*
X101575790Y-26398837D01*
X101552979Y-26367373D01*
X101516917Y-26355356D01*
X101477181Y-26352855D01*
X101327521Y-26352855D01*
X101327521Y-26622500D01*
X101174014Y-26622500D01*
X101174014Y-26223529D01*
X101327521Y-26223529D01*
X101504475Y-26223529D01*
X101536050Y-26221075D01*
X101573092Y-26207681D01*
X101598843Y-26176822D01*
X101605591Y-26138166D01*
X101602698Y-26110868D01*
X101583701Y-26075426D01*
X101549255Y-26056471D01*
X101509604Y-26051704D01*
X101327521Y-26051704D01*
X101327521Y-26223529D01*
X101174014Y-26223529D01*
X101174014Y-25919080D01*
X101533784Y-25919080D01*
X101581007Y-25923165D01*
G37*
G36*
X102433025Y-26621950D02*
G01*
X102433025Y-26236352D01*
X102130408Y-26236352D01*
X102130408Y-26364579D01*
X102284831Y-26364579D01*
X102277657Y-26407182D01*
X102257425Y-26445436D01*
X102231987Y-26472304D01*
X102199942Y-26493172D01*
X102162413Y-26506686D01*
X102120516Y-26511491D01*
X102074702Y-26505910D01*
X102035749Y-26490233D01*
X102003424Y-26466060D01*
X101977497Y-26434990D01*
X101957735Y-26398621D01*
X101943906Y-26358554D01*
X101935779Y-26316387D01*
X101933121Y-26273721D01*
X101935058Y-26230502D01*
X101940753Y-26191344D01*
X101953890Y-26145521D01*
X101972987Y-26107089D01*
X101997631Y-26076147D01*
X102027409Y-26052793D01*
X102061910Y-26037127D01*
X102100722Y-26029246D01*
X102121616Y-26028257D01*
X102163998Y-26033190D01*
X102202093Y-26047171D01*
X102234011Y-26068966D01*
X102257860Y-26097345D01*
X102272964Y-26137131D01*
X102273840Y-26143295D01*
X102432476Y-26143295D01*
X102426224Y-26103407D01*
X102414033Y-26066158D01*
X102396319Y-26031826D01*
X102373498Y-26000694D01*
X102345987Y-25973042D01*
X102314203Y-25949151D01*
X102278563Y-25929301D01*
X102239482Y-25913774D01*
X102197377Y-25902849D01*
X102152666Y-25896808D01*
X102121616Y-25895633D01*
X102080018Y-25897569D01*
X102040969Y-25903249D01*
X102004486Y-25912479D01*
X101954614Y-25932556D01*
X101910622Y-25959534D01*
X101872573Y-25992757D01*
X101840531Y-26031574D01*
X101814560Y-26075332D01*
X101794721Y-26123377D01*
X101781080Y-26175056D01*
X101773699Y-26229718D01*
X101772287Y-26267493D01*
X101775555Y-26321953D01*
X101785178Y-26374930D01*
X101800885Y-26425578D01*
X101822403Y-26473051D01*
X101849462Y-26516503D01*
X101881788Y-26555087D01*
X101919111Y-26587960D01*
X101961159Y-26614273D01*
X102007661Y-26633183D01*
X102058344Y-26643842D01*
X102094321Y-26645947D01*
X102138520Y-26643428D01*
X102179609Y-26636311D01*
X102216600Y-26625261D01*
X102254185Y-26607739D01*
X102286492Y-26582870D01*
X102298386Y-26567178D01*
X102300768Y-26622500D01*
X102433025Y-26621950D01*
G37*
G36*
X102870143Y-25922624D02*
G01*
X102913300Y-25932970D01*
X102950301Y-25949693D01*
X102980969Y-25972363D01*
X103005128Y-26000555D01*
X103022603Y-26033841D01*
X103033216Y-26071794D01*
X103036793Y-26113986D01*
X103031674Y-26152451D01*
X103015542Y-26191223D01*
X102992127Y-26221759D01*
X102961872Y-26242763D01*
X102966209Y-26244474D01*
X103000501Y-26265464D01*
X103027176Y-26295382D01*
X103044894Y-26330486D01*
X103054414Y-26366942D01*
X103057859Y-26410375D01*
X103055526Y-26445195D01*
X103045149Y-26487673D01*
X103026458Y-26525206D01*
X102999443Y-26557325D01*
X102964093Y-26583559D01*
X102920397Y-26603439D01*
X102882142Y-26613896D01*
X102839182Y-26620316D01*
X102791513Y-26622500D01*
X102471677Y-26622500D01*
X102471677Y-26492257D01*
X102624084Y-26492257D01*
X102803053Y-26492257D01*
X102841375Y-26486937D01*
X102874624Y-26469167D01*
X102897618Y-26437002D01*
X102904353Y-26400116D01*
X102900623Y-26371557D01*
X102878501Y-26338338D01*
X102842717Y-26322709D01*
X102805251Y-26319150D01*
X102624084Y-26319150D01*
X102624084Y-26492257D01*
X102471677Y-26492257D01*
X102471677Y-26188724D01*
X102624084Y-26188724D01*
X102802137Y-26188724D01*
X102807257Y-26188658D01*
X102845808Y-26182058D01*
X102876489Y-26156397D01*
X102884386Y-26120214D01*
X102883202Y-26102965D01*
X102866451Y-26069391D01*
X102831317Y-26054517D01*
X102793711Y-26051704D01*
X102624084Y-26051704D01*
X102624084Y-26188724D01*
X102471677Y-26188724D01*
X102471677Y-25919080D01*
X102821005Y-25919080D01*
X102870143Y-25922624D01*
G37*
D10*
X67811027Y-46709800D02*
X67882455Y-46733609D01*
X67882455Y-46733609D02*
X68001503Y-46733609D01*
X68001503Y-46733609D02*
X68049122Y-46709800D01*
X68049122Y-46709800D02*
X68072931Y-46685990D01*
X68072931Y-46685990D02*
X68096741Y-46638371D01*
X68096741Y-46638371D02*
X68096741Y-46590752D01*
X68096741Y-46590752D02*
X68072931Y-46543133D01*
X68072931Y-46543133D02*
X68049122Y-46519323D01*
X68049122Y-46519323D02*
X68001503Y-46495514D01*
X68001503Y-46495514D02*
X67906265Y-46471704D01*
X67906265Y-46471704D02*
X67858646Y-46447895D01*
X67858646Y-46447895D02*
X67834836Y-46424085D01*
X67834836Y-46424085D02*
X67811027Y-46376466D01*
X67811027Y-46376466D02*
X67811027Y-46328847D01*
X67811027Y-46328847D02*
X67834836Y-46281228D01*
X67834836Y-46281228D02*
X67858646Y-46257419D01*
X67858646Y-46257419D02*
X67906265Y-46233609D01*
X67906265Y-46233609D02*
X68025312Y-46233609D01*
X68025312Y-46233609D02*
X68096741Y-46257419D01*
X68596740Y-46685990D02*
X68572931Y-46709800D01*
X68572931Y-46709800D02*
X68501502Y-46733609D01*
X68501502Y-46733609D02*
X68453883Y-46733609D01*
X68453883Y-46733609D02*
X68382455Y-46709800D01*
X68382455Y-46709800D02*
X68334836Y-46662180D01*
X68334836Y-46662180D02*
X68311026Y-46614561D01*
X68311026Y-46614561D02*
X68287217Y-46519323D01*
X68287217Y-46519323D02*
X68287217Y-46447895D01*
X68287217Y-46447895D02*
X68311026Y-46352657D01*
X68311026Y-46352657D02*
X68334836Y-46305038D01*
X68334836Y-46305038D02*
X68382455Y-46257419D01*
X68382455Y-46257419D02*
X68453883Y-46233609D01*
X68453883Y-46233609D02*
X68501502Y-46233609D01*
X68501502Y-46233609D02*
X68572931Y-46257419D01*
X68572931Y-46257419D02*
X68596740Y-46281228D01*
X69049121Y-46733609D02*
X68811026Y-46733609D01*
X68811026Y-46733609D02*
X68811026Y-46233609D01*
D11*
G36*
X76922500Y-39828235D02*
G01*
X76219080Y-39828235D01*
X76219080Y-39986871D01*
X76477001Y-39986871D01*
X76477001Y-40247173D01*
X76219080Y-40247173D01*
X76219080Y-40404893D01*
X76922500Y-40404893D01*
X76922500Y-40247173D01*
X76610540Y-40247173D01*
X76610540Y-39986871D01*
X76922500Y-39986871D01*
X76922500Y-39828235D01*
G37*
G36*
X76601832Y-39117845D02*
G01*
X76643993Y-39120679D01*
X76683505Y-39126309D01*
X76720344Y-39134696D01*
X76770542Y-39152361D01*
X76814597Y-39176009D01*
X76852432Y-39205508D01*
X76883969Y-39240725D01*
X76909129Y-39281529D01*
X76927836Y-39327788D01*
X76940010Y-39379368D01*
X76944459Y-39416647D01*
X76945947Y-39456192D01*
X76945553Y-39476236D01*
X76942421Y-39514675D01*
X76931959Y-39568123D01*
X76914735Y-39616379D01*
X76890923Y-39659287D01*
X76860697Y-39696690D01*
X76824231Y-39728432D01*
X76781698Y-39754355D01*
X76733272Y-39774302D01*
X76697801Y-39784204D01*
X76659839Y-39791334D01*
X76619439Y-39795647D01*
X76576652Y-39797094D01*
X76554832Y-39796732D01*
X76512819Y-39793850D01*
X76473039Y-39788130D01*
X76435574Y-39779617D01*
X76383895Y-39761712D01*
X76337880Y-39737781D01*
X76297803Y-39707976D01*
X76263937Y-39672453D01*
X76236556Y-39631365D01*
X76215933Y-39584867D01*
X76202343Y-39533111D01*
X76197324Y-39495763D01*
X76195633Y-39456192D01*
X76336683Y-39456192D01*
X76337646Y-39478075D01*
X76345334Y-39517906D01*
X76360668Y-39552394D01*
X76383605Y-39581423D01*
X76414103Y-39604877D01*
X76452119Y-39622640D01*
X76497609Y-39634596D01*
X76536606Y-39639683D01*
X76579766Y-39641390D01*
X76622505Y-39639635D01*
X76660535Y-39634423D01*
X76704106Y-39622234D01*
X76739763Y-39604226D01*
X76773602Y-39573818D01*
X76795995Y-39534975D01*
X76806012Y-39498073D01*
X76809293Y-39456192D01*
X76805997Y-39418816D01*
X76792345Y-39376079D01*
X76767648Y-39339009D01*
X76739611Y-39314324D01*
X76703944Y-39294798D01*
X76660399Y-39281109D01*
X76622421Y-39275083D01*
X76579766Y-39273010D01*
X76550531Y-39273761D01*
X76510145Y-39277682D01*
X76473932Y-39284914D01*
X76432174Y-39299624D01*
X76397912Y-39320019D01*
X76371189Y-39345988D01*
X76352047Y-39377415D01*
X76340531Y-39414188D01*
X76336683Y-39456192D01*
X76195633Y-39456192D01*
X76196057Y-39436122D01*
X76199425Y-39397679D01*
X76210629Y-39344328D01*
X76228986Y-39296269D01*
X76254240Y-39253632D01*
X76286131Y-39216545D01*
X76324402Y-39185139D01*
X76368794Y-39159543D01*
X76419049Y-39139885D01*
X76455683Y-39130144D01*
X76494731Y-39123139D01*
X76536117Y-39118908D01*
X76579766Y-39117489D01*
X76601832Y-39117845D01*
G37*
G36*
X76922500Y-38397216D02*
G01*
X76219080Y-38397216D01*
X76219080Y-38617585D01*
X76707993Y-38739034D01*
X76219080Y-38860484D01*
X76219080Y-39085249D01*
X76922500Y-39085249D01*
X76922500Y-38937970D01*
X76444944Y-38943832D01*
X76922500Y-38819085D01*
X76922500Y-38665395D01*
X76442745Y-38539549D01*
X76922500Y-38545411D01*
X76922500Y-38397216D01*
G37*
G36*
X76922500Y-37814514D02*
G01*
X76786945Y-37814514D01*
X76786945Y-38201944D01*
X76623363Y-38201944D01*
X76623363Y-37860676D01*
X76488724Y-37860676D01*
X76488724Y-38201944D01*
X76352620Y-38201944D01*
X76352620Y-37831184D01*
X76219080Y-37831184D01*
X76219080Y-38355451D01*
X76922500Y-38355451D01*
X76922500Y-37814514D01*
G37*
G36*
X81463626Y-28364830D02*
G01*
X81509688Y-28371034D01*
X81551566Y-28385108D01*
X81588564Y-28406558D01*
X81619988Y-28434895D01*
X81645141Y-28469626D01*
X81663329Y-28510260D01*
X81673855Y-28556305D01*
X81676303Y-28594094D01*
X81676303Y-28749982D01*
X81922500Y-28749982D01*
X81922500Y-28907702D01*
X81219080Y-28907702D01*
X81219080Y-28617175D01*
X81351704Y-28617175D01*
X81351704Y-28749982D01*
X81546060Y-28749982D01*
X81546060Y-28617175D01*
X81545601Y-28602534D01*
X81538953Y-28565308D01*
X81518881Y-28530324D01*
X81487714Y-28510554D01*
X81447325Y-28504335D01*
X81431971Y-28505185D01*
X81396220Y-28516290D01*
X81369693Y-28541570D01*
X81355709Y-28576627D01*
X81351704Y-28617175D01*
X81219080Y-28617175D01*
X81219080Y-28594094D01*
X81219381Y-28581187D01*
X81223779Y-28544260D01*
X81237267Y-28499497D01*
X81258628Y-28460290D01*
X81286949Y-28427123D01*
X81321315Y-28400482D01*
X81360812Y-28380853D01*
X81404524Y-28368719D01*
X81451538Y-28364567D01*
X81463626Y-28364830D01*
G37*
G36*
X81922500Y-27843963D02*
G01*
X81783831Y-27843963D01*
X81783831Y-28189444D01*
X81219080Y-28189444D01*
X81219080Y-28347164D01*
X81922500Y-28347164D01*
X81922500Y-27843963D01*
G37*
G36*
X81685279Y-27436932D02*
G01*
X81723034Y-27440080D01*
X81759368Y-27452293D01*
X81789751Y-27478457D01*
X81807644Y-27517792D01*
X81813032Y-27554150D01*
X81813506Y-27570655D01*
X81808310Y-27609873D01*
X81789756Y-27646304D01*
X81758811Y-27672094D01*
X81723271Y-27685250D01*
X81680150Y-27689724D01*
X81219080Y-27689724D01*
X81219080Y-27849642D01*
X81693705Y-27849642D01*
X81739122Y-27846784D01*
X81779972Y-27838371D01*
X81816277Y-27824644D01*
X81848059Y-27805843D01*
X81883436Y-27773300D01*
X81910862Y-27732738D01*
X81926244Y-27697396D01*
X81937205Y-27658105D01*
X81943765Y-27615107D01*
X81945947Y-27568640D01*
X81943578Y-27518673D01*
X81936505Y-27472940D01*
X81924776Y-27431591D01*
X81908437Y-27394773D01*
X81887538Y-27362636D01*
X81862126Y-27335327D01*
X81832249Y-27312996D01*
X81797956Y-27295790D01*
X81759294Y-27283859D01*
X81716311Y-27277351D01*
X81685279Y-27276098D01*
X81219080Y-27276098D01*
X81219080Y-27436932D01*
X81685279Y-27436932D01*
G37*
G36*
X81435052Y-26689549D02*
G01*
X81396680Y-26693624D01*
X81360784Y-26702692D01*
X81317265Y-26722380D01*
X81279323Y-26750539D01*
X81247632Y-26786936D01*
X81228370Y-26819502D01*
X81213284Y-26856474D01*
X81202659Y-26897754D01*
X81196778Y-26943245D01*
X81195633Y-26975863D01*
X81198033Y-27022216D01*
X81205036Y-27064098D01*
X81216348Y-27101488D01*
X81237624Y-27144322D01*
X81265341Y-27179092D01*
X81298799Y-27205754D01*
X81337301Y-27224263D01*
X81380149Y-27234572D01*
X81414719Y-27236897D01*
X81453981Y-27233711D01*
X81494532Y-27221754D01*
X81528606Y-27201387D01*
X81556927Y-27173103D01*
X81580220Y-27137397D01*
X81590207Y-27116913D01*
X81605260Y-27077898D01*
X81616618Y-27040132D01*
X81625805Y-27003866D01*
X81635150Y-26963004D01*
X81643513Y-26924755D01*
X81654542Y-26883556D01*
X81671851Y-26847210D01*
X81701680Y-26824234D01*
X81725029Y-26821074D01*
X81763915Y-26829489D01*
X81792669Y-26854321D01*
X81808896Y-26889032D01*
X81815748Y-26928097D01*
X81816620Y-26950767D01*
X81813672Y-26991015D01*
X81802524Y-27031828D01*
X81783370Y-27063805D01*
X81751319Y-27088995D01*
X81715885Y-27099390D01*
X81702498Y-27100427D01*
X81702498Y-27252834D01*
X81746470Y-27248782D01*
X81785981Y-27238715D01*
X81821059Y-27222983D01*
X81851735Y-27201936D01*
X81878039Y-27175925D01*
X81900000Y-27145300D01*
X81917649Y-27110413D01*
X81931015Y-27071613D01*
X81940128Y-27029250D01*
X81945018Y-26983677D01*
X81945947Y-26951683D01*
X81944071Y-26906705D01*
X81938398Y-26864447D01*
X81928858Y-26825281D01*
X81915383Y-26789578D01*
X81891175Y-26748007D01*
X81859687Y-26714138D01*
X81820753Y-26688854D01*
X81774212Y-26673036D01*
X81734216Y-26667916D01*
X81719900Y-26667567D01*
X81676839Y-26671155D01*
X81641018Y-26681299D01*
X81606373Y-26700815D01*
X81579418Y-26726822D01*
X81558659Y-26757712D01*
X81547526Y-26780224D01*
X81532941Y-26817745D01*
X81521212Y-26854548D01*
X81510025Y-26894643D01*
X81499223Y-26937087D01*
X81490399Y-26973573D01*
X81486892Y-26988319D01*
X81476068Y-27026168D01*
X81459324Y-27062062D01*
X81429679Y-27087673D01*
X81405376Y-27091817D01*
X81369656Y-27082513D01*
X81345081Y-27054422D01*
X81334016Y-27019413D01*
X81330349Y-26980133D01*
X81330272Y-26972749D01*
X81332618Y-26935671D01*
X81341857Y-26899737D01*
X81362005Y-26868884D01*
X81392855Y-26849076D01*
X81435052Y-26839392D01*
X81435052Y-26689549D01*
G37*
G36*
X24589777Y-56797500D02*
G01*
X24589777Y-56658831D01*
X24244295Y-56658831D01*
X24244295Y-56094080D01*
X24086575Y-56094080D01*
X24086575Y-56797500D01*
X24589777Y-56797500D01*
G37*
G36*
X25019667Y-56098165D02*
G01*
X25062335Y-56109931D01*
X25099911Y-56128644D01*
X25131858Y-56153568D01*
X25157641Y-56183972D01*
X25176721Y-56219119D01*
X25188563Y-56258276D01*
X25192629Y-56300710D01*
X25188712Y-56341809D01*
X25177598Y-56379429D01*
X25160244Y-56412098D01*
X25133386Y-56441992D01*
X25100855Y-56460811D01*
X25109490Y-56463963D01*
X25141798Y-56485524D01*
X25161271Y-56516610D01*
X25170933Y-56554761D01*
X25173578Y-56596732D01*
X25173578Y-56797500D01*
X25019156Y-56797500D01*
X25019156Y-56614317D01*
X25014450Y-56573837D01*
X24991639Y-56542373D01*
X24955577Y-56530356D01*
X24915841Y-56527855D01*
X24766181Y-56527855D01*
X24766181Y-56797500D01*
X24612674Y-56797500D01*
X24612674Y-56398529D01*
X24766181Y-56398529D01*
X24943135Y-56398529D01*
X24974710Y-56396075D01*
X25011752Y-56382681D01*
X25037503Y-56351822D01*
X25044252Y-56313166D01*
X25041358Y-56285868D01*
X25022361Y-56250426D01*
X24987916Y-56231471D01*
X24948264Y-56226704D01*
X24766181Y-56226704D01*
X24766181Y-56398529D01*
X24612674Y-56398529D01*
X24612674Y-56094080D01*
X24972444Y-56094080D01*
X25019667Y-56098165D01*
G37*
G36*
X25876265Y-56797500D02*
G01*
X25705173Y-56797500D01*
X25661026Y-56656816D01*
X25412264Y-56656816D01*
X25362805Y-56797500D01*
X25195926Y-56797500D01*
X25293827Y-56525474D01*
X25453847Y-56525474D01*
X25615230Y-56525474D01*
X25535539Y-56258927D01*
X25453847Y-56525474D01*
X25293827Y-56525474D01*
X25449084Y-56094080D01*
X25626404Y-56094080D01*
X25876265Y-56797500D01*
G37*
G36*
X26687945Y-56797500D02*
G01*
X26687945Y-56661945D01*
X26300515Y-56661945D01*
X26300515Y-56498363D01*
X26641783Y-56498363D01*
X26641783Y-56363724D01*
X26300515Y-56363724D01*
X26300515Y-56227620D01*
X26671275Y-56227620D01*
X26671275Y-56094080D01*
X26147008Y-56094080D01*
X26147008Y-56797500D01*
X26687945Y-56797500D01*
G37*
G36*
X27323587Y-56797500D02*
G01*
X27093144Y-56432418D01*
X27308932Y-56094080D01*
X27125750Y-56094080D01*
X27002102Y-56312067D01*
X26879553Y-56094080D01*
X26693257Y-56094080D01*
X26910145Y-56438646D01*
X26680618Y-56797500D01*
X26864716Y-56797500D01*
X27001919Y-56565957D01*
X27131978Y-56797500D01*
X27323587Y-56797500D01*
G37*
G36*
X27677495Y-56797500D02*
G01*
X27677495Y-56227620D01*
X27888521Y-56227620D01*
X27888521Y-56094080D01*
X27309665Y-56094080D01*
X27309665Y-56227620D01*
X27519775Y-56227620D01*
X27519775Y-56797500D01*
X27677495Y-56797500D01*
G37*
G36*
X63934264Y-43622500D02*
G01*
X63934264Y-42919080D01*
X63776544Y-42919080D01*
X63776544Y-43622500D01*
X63934264Y-43622500D01*
G37*
G36*
X64439297Y-43622500D02*
G01*
X64439297Y-43492257D01*
X64139611Y-43492257D01*
X64153932Y-43458072D01*
X64177378Y-43428306D01*
X64205125Y-43401406D01*
X64233217Y-43379234D01*
X64272831Y-43350668D01*
X64307624Y-43323929D01*
X64337797Y-43298586D01*
X64371192Y-43266215D01*
X64397212Y-43234529D01*
X64416337Y-43202500D01*
X64431275Y-43160419D01*
X64436635Y-43123868D01*
X64437282Y-43104277D01*
X64434702Y-43066877D01*
X64423571Y-43022784D01*
X64404263Y-42985272D01*
X64377443Y-42954324D01*
X64343776Y-42929924D01*
X64303928Y-42912054D01*
X64258564Y-42900696D01*
X64221321Y-42896442D01*
X64195116Y-42895633D01*
X64155811Y-42898081D01*
X64119704Y-42905324D01*
X64076790Y-42922182D01*
X64040166Y-42946942D01*
X64010179Y-42979247D01*
X63987173Y-43018742D01*
X63971495Y-43065069D01*
X63964754Y-43104084D01*
X63962474Y-43146592D01*
X64105539Y-43146592D01*
X64108124Y-43106703D01*
X64117791Y-43070719D01*
X64141058Y-43040230D01*
X64175178Y-43026186D01*
X64201527Y-43024043D01*
X64241766Y-43029078D01*
X64274814Y-43049669D01*
X64290447Y-43085928D01*
X64292202Y-43108490D01*
X64286332Y-43147173D01*
X64265984Y-43182885D01*
X64238754Y-43211098D01*
X64206828Y-43237454D01*
X64174523Y-43261388D01*
X64165440Y-43267859D01*
X64133391Y-43291421D01*
X64104655Y-43314240D01*
X64067383Y-43347335D01*
X64036587Y-43379429D01*
X64011681Y-43410925D01*
X63992081Y-43442225D01*
X63973186Y-43484352D01*
X63961292Y-43527803D01*
X63955009Y-43573534D01*
X63952949Y-43622500D01*
X64439297Y-43622500D01*
G37*
G36*
X64930592Y-43372456D02*
G01*
X64918749Y-43410950D01*
X64898777Y-43448754D01*
X64872328Y-43477290D01*
X64839198Y-43496436D01*
X64799186Y-43506068D01*
X64776536Y-43507278D01*
X64737875Y-43503284D01*
X64696902Y-43487324D01*
X64664058Y-43459635D01*
X64639295Y-43420708D01*
X64625273Y-43381805D01*
X64616370Y-43336274D01*
X64613038Y-43297928D01*
X64612404Y-43270423D01*
X64613837Y-43230206D01*
X64618167Y-43193314D01*
X64628527Y-43149536D01*
X64644232Y-43112240D01*
X64665394Y-43081754D01*
X64699691Y-43053719D01*
X64742906Y-43037470D01*
X64784046Y-43033386D01*
X64820776Y-43038006D01*
X64859806Y-43054769D01*
X64888634Y-43078506D01*
X64911944Y-43110539D01*
X64928557Y-43150533D01*
X64930592Y-43157950D01*
X65087579Y-43157950D01*
X65080926Y-43117361D01*
X65069225Y-43078916D01*
X65052654Y-43043016D01*
X65031393Y-43010068D01*
X65005620Y-42980474D01*
X64975512Y-42954638D01*
X64941249Y-42932965D01*
X64903009Y-42915857D01*
X64860969Y-42903720D01*
X64815310Y-42896957D01*
X64782947Y-42895633D01*
X64745909Y-42897346D01*
X64693777Y-42906207D01*
X64645995Y-42922354D01*
X64602831Y-42945496D01*
X64564552Y-42975338D01*
X64531427Y-43011587D01*
X64503723Y-43053949D01*
X64481709Y-43102132D01*
X64470327Y-43137342D01*
X64461671Y-43174922D01*
X64455823Y-43214784D01*
X64452860Y-43256842D01*
X64452486Y-43278667D01*
X64454142Y-43322186D01*
X64459011Y-43363082D01*
X64466941Y-43401330D01*
X64477786Y-43436905D01*
X64499187Y-43485196D01*
X64526303Y-43527328D01*
X64558629Y-43563214D01*
X64595660Y-43592769D01*
X64636892Y-43615905D01*
X64681820Y-43632538D01*
X64729941Y-43642580D01*
X64780749Y-43645947D01*
X64825520Y-43643143D01*
X64867412Y-43634898D01*
X64906280Y-43621460D01*
X64941981Y-43603076D01*
X64974367Y-43579995D01*
X65003296Y-43552465D01*
X65028621Y-43520734D01*
X65050198Y-43485050D01*
X65067883Y-43445662D01*
X65081529Y-43402817D01*
X65088312Y-43372456D01*
X64930592Y-43372456D01*
G37*
G36*
X65897977Y-43622500D02*
G01*
X65897977Y-43486945D01*
X65510546Y-43486945D01*
X65510546Y-43323363D01*
X65851815Y-43323363D01*
X65851815Y-43188724D01*
X65510546Y-43188724D01*
X65510546Y-43052620D01*
X65881307Y-43052620D01*
X65881307Y-42919080D01*
X65357040Y-42919080D01*
X65357040Y-43622500D01*
X65897977Y-43622500D01*
G37*
G36*
X66533619Y-43622500D02*
G01*
X66303176Y-43257418D01*
X66518964Y-42919080D01*
X66335782Y-42919080D01*
X66212134Y-43137067D01*
X66089585Y-42919080D01*
X65903289Y-42919080D01*
X66120177Y-43263646D01*
X65890649Y-43622500D01*
X66074747Y-43622500D01*
X66211951Y-43390957D01*
X66342010Y-43622500D01*
X66533619Y-43622500D01*
G37*
G36*
X66887527Y-43622500D02*
G01*
X66887527Y-43052620D01*
X67098552Y-43052620D01*
X67098552Y-42919080D01*
X66519697Y-42919080D01*
X66519697Y-43052620D01*
X66729807Y-43052620D01*
X66729807Y-43622500D01*
X66887527Y-43622500D01*
G37*
D10*
X110917845Y-33847188D02*
X110958251Y-33618220D01*
X110756221Y-33685564D02*
X111039063Y-33402721D01*
X111039063Y-33402721D02*
X111146813Y-33510470D01*
X111146813Y-33510470D02*
X111160282Y-33550877D01*
X111160282Y-33550877D02*
X111160282Y-33577814D01*
X111160282Y-33577814D02*
X111146813Y-33618220D01*
X111146813Y-33618220D02*
X111106407Y-33658626D01*
X111106407Y-33658626D02*
X111066001Y-33672095D01*
X111066001Y-33672095D02*
X111039063Y-33672095D01*
X111039063Y-33672095D02*
X110998657Y-33658626D01*
X110998657Y-33658626D02*
X110890908Y-33550877D01*
X111456593Y-33847188D02*
X111443124Y-33806782D01*
X111443124Y-33806782D02*
X111402718Y-33766376D01*
X111402718Y-33766376D02*
X111348843Y-33739438D01*
X111348843Y-33739438D02*
X111294969Y-33739438D01*
X111294969Y-33739438D02*
X111254563Y-33752907D01*
X111254563Y-33752907D02*
X111187219Y-33793313D01*
X111187219Y-33793313D02*
X111146813Y-33833719D01*
X111146813Y-33833719D02*
X111106407Y-33901063D01*
X111106407Y-33901063D02*
X111092938Y-33941469D01*
X111092938Y-33941469D02*
X111092938Y-33995344D01*
X111092938Y-33995344D02*
X111119876Y-34049218D01*
X111119876Y-34049218D02*
X111146813Y-34076156D01*
X111146813Y-34076156D02*
X111200688Y-34103093D01*
X111200688Y-34103093D02*
X111227625Y-34103093D01*
X111227625Y-34103093D02*
X111321906Y-34008812D01*
X111321906Y-34008812D02*
X111268031Y-33954938D01*
X111564343Y-34197374D02*
X111591280Y-34251249D01*
X111591280Y-34251249D02*
X111591280Y-34278186D01*
X111591280Y-34278186D02*
X111577811Y-34318592D01*
X111577811Y-34318592D02*
X111537405Y-34358999D01*
X111537405Y-34358999D02*
X111496999Y-34372467D01*
X111496999Y-34372467D02*
X111470062Y-34372467D01*
X111470062Y-34372467D02*
X111429656Y-34358999D01*
X111429656Y-34358999D02*
X111321906Y-34251249D01*
X111321906Y-34251249D02*
X111604749Y-33968406D01*
X111604749Y-33968406D02*
X111699030Y-34062687D01*
X111699030Y-34062687D02*
X111712498Y-34103093D01*
X111712498Y-34103093D02*
X111712498Y-34130031D01*
X111712498Y-34130031D02*
X111699030Y-34170437D01*
X111699030Y-34170437D02*
X111672092Y-34197374D01*
X111672092Y-34197374D02*
X111631686Y-34210843D01*
X111631686Y-34210843D02*
X111604749Y-34210843D01*
X111604749Y-34210843D02*
X111564343Y-34197374D01*
X111564343Y-34197374D02*
X111470062Y-34103093D01*
X111752904Y-34682247D02*
X111591280Y-34520623D01*
X111672092Y-34601435D02*
X111954935Y-34318592D01*
X111954935Y-34318592D02*
X111887591Y-34332061D01*
X111887591Y-34332061D02*
X111833717Y-34332061D01*
X111833717Y-34332061D02*
X111793311Y-34318592D01*
X67217857Y-50004847D02*
X67084524Y-49814371D01*
X66989286Y-50004847D02*
X66989286Y-49604847D01*
X66989286Y-49604847D02*
X67141667Y-49604847D01*
X67141667Y-49604847D02*
X67179762Y-49623895D01*
X67179762Y-49623895D02*
X67198809Y-49642942D01*
X67198809Y-49642942D02*
X67217857Y-49681038D01*
X67217857Y-49681038D02*
X67217857Y-49738180D01*
X67217857Y-49738180D02*
X67198809Y-49776276D01*
X67198809Y-49776276D02*
X67179762Y-49795323D01*
X67179762Y-49795323D02*
X67141667Y-49814371D01*
X67141667Y-49814371D02*
X66989286Y-49814371D01*
X67598809Y-49623895D02*
X67560714Y-49604847D01*
X67560714Y-49604847D02*
X67503571Y-49604847D01*
X67503571Y-49604847D02*
X67446428Y-49623895D01*
X67446428Y-49623895D02*
X67408333Y-49661990D01*
X67408333Y-49661990D02*
X67389286Y-49700085D01*
X67389286Y-49700085D02*
X67370238Y-49776276D01*
X67370238Y-49776276D02*
X67370238Y-49833419D01*
X67370238Y-49833419D02*
X67389286Y-49909609D01*
X67389286Y-49909609D02*
X67408333Y-49947704D01*
X67408333Y-49947704D02*
X67446428Y-49985800D01*
X67446428Y-49985800D02*
X67503571Y-50004847D01*
X67503571Y-50004847D02*
X67541667Y-50004847D01*
X67541667Y-50004847D02*
X67598809Y-49985800D01*
X67598809Y-49985800D02*
X67617857Y-49966752D01*
X67617857Y-49966752D02*
X67617857Y-49833419D01*
X67617857Y-49833419D02*
X67541667Y-49833419D01*
X67922619Y-49795323D02*
X67979762Y-49814371D01*
X67979762Y-49814371D02*
X67998809Y-49833419D01*
X67998809Y-49833419D02*
X68017857Y-49871514D01*
X68017857Y-49871514D02*
X68017857Y-49928657D01*
X68017857Y-49928657D02*
X67998809Y-49966752D01*
X67998809Y-49966752D02*
X67979762Y-49985800D01*
X67979762Y-49985800D02*
X67941667Y-50004847D01*
X67941667Y-50004847D02*
X67789286Y-50004847D01*
X67789286Y-50004847D02*
X67789286Y-49604847D01*
X67789286Y-49604847D02*
X67922619Y-49604847D01*
X67922619Y-49604847D02*
X67960714Y-49623895D01*
X67960714Y-49623895D02*
X67979762Y-49642942D01*
X67979762Y-49642942D02*
X67998809Y-49681038D01*
X67998809Y-49681038D02*
X67998809Y-49719133D01*
X67998809Y-49719133D02*
X67979762Y-49757228D01*
X67979762Y-49757228D02*
X67960714Y-49776276D01*
X67960714Y-49776276D02*
X67922619Y-49795323D01*
X67922619Y-49795323D02*
X67789286Y-49795323D01*
X68398809Y-50004847D02*
X68170238Y-50004847D01*
X68284524Y-50004847D02*
X68284524Y-49604847D01*
X68284524Y-49604847D02*
X68246428Y-49661990D01*
X68246428Y-49661990D02*
X68208333Y-49700085D01*
X68208333Y-49700085D02*
X68170238Y-49719133D01*
X68779761Y-50004847D02*
X68551190Y-50004847D01*
X68665476Y-50004847D02*
X68665476Y-49604847D01*
X68665476Y-49604847D02*
X68627380Y-49661990D01*
X68627380Y-49661990D02*
X68589285Y-49700085D01*
X68589285Y-49700085D02*
X68551190Y-49719133D01*
X89388420Y-39699673D02*
X89388420Y-39299673D01*
X89388420Y-39299673D02*
X89483658Y-39299673D01*
X89483658Y-39299673D02*
X89540801Y-39318721D01*
X89540801Y-39318721D02*
X89578896Y-39356816D01*
X89578896Y-39356816D02*
X89597943Y-39394911D01*
X89597943Y-39394911D02*
X89616991Y-39471102D01*
X89616991Y-39471102D02*
X89616991Y-39528245D01*
X89616991Y-39528245D02*
X89597943Y-39604435D01*
X89597943Y-39604435D02*
X89578896Y-39642530D01*
X89578896Y-39642530D02*
X89540801Y-39680626D01*
X89540801Y-39680626D02*
X89483658Y-39699673D01*
X89483658Y-39699673D02*
X89388420Y-39699673D01*
X89997943Y-39699673D02*
X89769372Y-39699673D01*
X89883658Y-39699673D02*
X89883658Y-39299673D01*
X89883658Y-39299673D02*
X89845562Y-39356816D01*
X89845562Y-39356816D02*
X89807467Y-39394911D01*
X89807467Y-39394911D02*
X89769372Y-39413959D01*
X90359848Y-39299673D02*
X90169372Y-39299673D01*
X90169372Y-39299673D02*
X90150324Y-39490149D01*
X90150324Y-39490149D02*
X90169372Y-39471102D01*
X90169372Y-39471102D02*
X90207467Y-39452054D01*
X90207467Y-39452054D02*
X90302705Y-39452054D01*
X90302705Y-39452054D02*
X90340800Y-39471102D01*
X90340800Y-39471102D02*
X90359848Y-39490149D01*
X90359848Y-39490149D02*
X90378895Y-39528245D01*
X90378895Y-39528245D02*
X90378895Y-39623483D01*
X90378895Y-39623483D02*
X90359848Y-39661578D01*
X90359848Y-39661578D02*
X90340800Y-39680626D01*
X90340800Y-39680626D02*
X90302705Y-39699673D01*
X90302705Y-39699673D02*
X90207467Y-39699673D01*
X90207467Y-39699673D02*
X90169372Y-39680626D01*
X90169372Y-39680626D02*
X90150324Y-39661578D01*
X111692845Y-54297188D02*
X111733251Y-54068220D01*
X111531221Y-54135564D02*
X111814063Y-53852721D01*
X111814063Y-53852721D02*
X111921813Y-53960470D01*
X111921813Y-53960470D02*
X111935282Y-54000877D01*
X111935282Y-54000877D02*
X111935282Y-54027814D01*
X111935282Y-54027814D02*
X111921813Y-54068220D01*
X111921813Y-54068220D02*
X111881407Y-54108626D01*
X111881407Y-54108626D02*
X111841001Y-54122095D01*
X111841001Y-54122095D02*
X111814063Y-54122095D01*
X111814063Y-54122095D02*
X111773657Y-54108626D01*
X111773657Y-54108626D02*
X111665908Y-54000877D01*
X112231593Y-54297188D02*
X112218124Y-54256782D01*
X112218124Y-54256782D02*
X112177718Y-54216376D01*
X112177718Y-54216376D02*
X112123843Y-54189438D01*
X112123843Y-54189438D02*
X112069969Y-54189438D01*
X112069969Y-54189438D02*
X112029563Y-54202907D01*
X112029563Y-54202907D02*
X111962219Y-54243313D01*
X111962219Y-54243313D02*
X111921813Y-54283719D01*
X111921813Y-54283719D02*
X111881407Y-54351063D01*
X111881407Y-54351063D02*
X111867938Y-54391469D01*
X111867938Y-54391469D02*
X111867938Y-54445344D01*
X111867938Y-54445344D02*
X111894876Y-54499218D01*
X111894876Y-54499218D02*
X111921813Y-54526156D01*
X111921813Y-54526156D02*
X111975688Y-54553093D01*
X111975688Y-54553093D02*
X112002625Y-54553093D01*
X112002625Y-54553093D02*
X112096906Y-54458812D01*
X112096906Y-54458812D02*
X112043031Y-54404938D01*
X112339343Y-54647374D02*
X112366280Y-54701249D01*
X112366280Y-54701249D02*
X112366280Y-54728186D01*
X112366280Y-54728186D02*
X112352811Y-54768592D01*
X112352811Y-54768592D02*
X112312405Y-54808999D01*
X112312405Y-54808999D02*
X112271999Y-54822467D01*
X112271999Y-54822467D02*
X112245062Y-54822467D01*
X112245062Y-54822467D02*
X112204656Y-54808999D01*
X112204656Y-54808999D02*
X112096906Y-54701249D01*
X112096906Y-54701249D02*
X112379749Y-54418406D01*
X112379749Y-54418406D02*
X112474030Y-54512687D01*
X112474030Y-54512687D02*
X112487498Y-54553093D01*
X112487498Y-54553093D02*
X112487498Y-54580031D01*
X112487498Y-54580031D02*
X112474030Y-54620437D01*
X112474030Y-54620437D02*
X112447092Y-54647374D01*
X112447092Y-54647374D02*
X112406686Y-54660843D01*
X112406686Y-54660843D02*
X112379749Y-54660843D01*
X112379749Y-54660843D02*
X112339343Y-54647374D01*
X112339343Y-54647374D02*
X112245062Y-54553093D01*
X112783810Y-54822467D02*
X112729935Y-54768592D01*
X112729935Y-54768592D02*
X112689529Y-54755124D01*
X112689529Y-54755124D02*
X112662591Y-54755124D01*
X112662591Y-54755124D02*
X112595248Y-54768592D01*
X112595248Y-54768592D02*
X112527904Y-54808999D01*
X112527904Y-54808999D02*
X112420155Y-54916748D01*
X112420155Y-54916748D02*
X112406686Y-54957154D01*
X112406686Y-54957154D02*
X112406686Y-54984092D01*
X112406686Y-54984092D02*
X112420155Y-55024498D01*
X112420155Y-55024498D02*
X112474030Y-55078373D01*
X112474030Y-55078373D02*
X112514436Y-55091841D01*
X112514436Y-55091841D02*
X112541373Y-55091841D01*
X112541373Y-55091841D02*
X112581779Y-55078373D01*
X112581779Y-55078373D02*
X112649123Y-55011029D01*
X112649123Y-55011029D02*
X112662591Y-54970623D01*
X112662591Y-54970623D02*
X112662591Y-54943686D01*
X112662591Y-54943686D02*
X112649123Y-54903279D01*
X112649123Y-54903279D02*
X112595248Y-54849405D01*
X112595248Y-54849405D02*
X112554842Y-54835936D01*
X112554842Y-54835936D02*
X112527904Y-54835936D01*
X112527904Y-54835936D02*
X112487498Y-54849405D01*
X32654762Y-64304847D02*
X32654762Y-63904847D01*
X32654762Y-63904847D02*
X32750000Y-63904847D01*
X32750000Y-63904847D02*
X32807143Y-63923895D01*
X32807143Y-63923895D02*
X32845238Y-63961990D01*
X32845238Y-63961990D02*
X32864285Y-64000085D01*
X32864285Y-64000085D02*
X32883333Y-64076276D01*
X32883333Y-64076276D02*
X32883333Y-64133419D01*
X32883333Y-64133419D02*
X32864285Y-64209609D01*
X32864285Y-64209609D02*
X32845238Y-64247704D01*
X32845238Y-64247704D02*
X32807143Y-64285800D01*
X32807143Y-64285800D02*
X32750000Y-64304847D01*
X32750000Y-64304847D02*
X32654762Y-64304847D01*
X33226190Y-64038180D02*
X33226190Y-64304847D01*
X33130952Y-63885800D02*
X33035714Y-64171514D01*
X33035714Y-64171514D02*
X33283333Y-64171514D01*
X112542845Y-40847188D02*
X112583251Y-40618220D01*
X112381221Y-40685564D02*
X112664063Y-40402721D01*
X112664063Y-40402721D02*
X112771813Y-40510470D01*
X112771813Y-40510470D02*
X112785282Y-40550877D01*
X112785282Y-40550877D02*
X112785282Y-40577814D01*
X112785282Y-40577814D02*
X112771813Y-40618220D01*
X112771813Y-40618220D02*
X112731407Y-40658626D01*
X112731407Y-40658626D02*
X112691001Y-40672095D01*
X112691001Y-40672095D02*
X112664063Y-40672095D01*
X112664063Y-40672095D02*
X112623657Y-40658626D01*
X112623657Y-40658626D02*
X112515908Y-40550877D01*
X113081593Y-40847188D02*
X113068124Y-40806782D01*
X113068124Y-40806782D02*
X113027718Y-40766376D01*
X113027718Y-40766376D02*
X112973843Y-40739438D01*
X112973843Y-40739438D02*
X112919969Y-40739438D01*
X112919969Y-40739438D02*
X112879563Y-40752907D01*
X112879563Y-40752907D02*
X112812219Y-40793313D01*
X112812219Y-40793313D02*
X112771813Y-40833719D01*
X112771813Y-40833719D02*
X112731407Y-40901063D01*
X112731407Y-40901063D02*
X112717938Y-40941469D01*
X112717938Y-40941469D02*
X112717938Y-40995344D01*
X112717938Y-40995344D02*
X112744876Y-41049218D01*
X112744876Y-41049218D02*
X112771813Y-41076156D01*
X112771813Y-41076156D02*
X112825688Y-41103093D01*
X112825688Y-41103093D02*
X112852625Y-41103093D01*
X112852625Y-41103093D02*
X112946906Y-41008812D01*
X112946906Y-41008812D02*
X112893031Y-40954938D01*
X113189343Y-41197374D02*
X113216280Y-41251249D01*
X113216280Y-41251249D02*
X113216280Y-41278186D01*
X113216280Y-41278186D02*
X113202811Y-41318592D01*
X113202811Y-41318592D02*
X113162405Y-41358999D01*
X113162405Y-41358999D02*
X113121999Y-41372467D01*
X113121999Y-41372467D02*
X113095062Y-41372467D01*
X113095062Y-41372467D02*
X113054656Y-41358999D01*
X113054656Y-41358999D02*
X112946906Y-41251249D01*
X112946906Y-41251249D02*
X113229749Y-40968406D01*
X113229749Y-40968406D02*
X113324030Y-41062687D01*
X113324030Y-41062687D02*
X113337498Y-41103093D01*
X113337498Y-41103093D02*
X113337498Y-41130031D01*
X113337498Y-41130031D02*
X113324030Y-41170437D01*
X113324030Y-41170437D02*
X113297092Y-41197374D01*
X113297092Y-41197374D02*
X113256686Y-41210843D01*
X113256686Y-41210843D02*
X113229749Y-41210843D01*
X113229749Y-41210843D02*
X113189343Y-41197374D01*
X113189343Y-41197374D02*
X113095062Y-41103093D01*
X113647278Y-41385936D02*
X113512591Y-41251249D01*
X113512591Y-41251249D02*
X113364436Y-41372467D01*
X113364436Y-41372467D02*
X113391373Y-41372467D01*
X113391373Y-41372467D02*
X113431779Y-41385936D01*
X113431779Y-41385936D02*
X113499123Y-41453279D01*
X113499123Y-41453279D02*
X113512591Y-41493686D01*
X113512591Y-41493686D02*
X113512591Y-41520623D01*
X113512591Y-41520623D02*
X113499123Y-41561029D01*
X113499123Y-41561029D02*
X113431779Y-41628373D01*
X113431779Y-41628373D02*
X113391373Y-41641841D01*
X113391373Y-41641841D02*
X113364436Y-41641841D01*
X113364436Y-41641841D02*
X113324030Y-41628373D01*
X113324030Y-41628373D02*
X113256686Y-41561029D01*
X113256686Y-41561029D02*
X113243217Y-41520623D01*
X113243217Y-41520623D02*
X113243217Y-41493686D01*
X26139847Y-58404761D02*
X26139847Y-58176190D01*
X26539847Y-58290476D02*
X26139847Y-58290476D01*
X26177942Y-58061904D02*
X26158895Y-58042856D01*
X26158895Y-58042856D02*
X26139847Y-58004761D01*
X26139847Y-58004761D02*
X26139847Y-57909523D01*
X26139847Y-57909523D02*
X26158895Y-57871428D01*
X26158895Y-57871428D02*
X26177942Y-57852380D01*
X26177942Y-57852380D02*
X26216038Y-57833333D01*
X26216038Y-57833333D02*
X26254133Y-57833333D01*
X26254133Y-57833333D02*
X26311276Y-57852380D01*
X26311276Y-57852380D02*
X26539847Y-58080952D01*
X26539847Y-58080952D02*
X26539847Y-57833333D01*
X43183158Y-60387501D02*
X43223564Y-60158533D01*
X43021534Y-60225877D02*
X43304376Y-59943034D01*
X43304376Y-59943034D02*
X43412126Y-60050784D01*
X43412126Y-60050784D02*
X43425595Y-60091190D01*
X43425595Y-60091190D02*
X43425595Y-60118127D01*
X43425595Y-60118127D02*
X43412126Y-60158533D01*
X43412126Y-60158533D02*
X43371720Y-60198939D01*
X43371720Y-60198939D02*
X43331314Y-60212408D01*
X43331314Y-60212408D02*
X43304376Y-60212408D01*
X43304376Y-60212408D02*
X43263970Y-60198939D01*
X43263970Y-60198939D02*
X43156221Y-60091190D01*
X43721906Y-60387501D02*
X43708437Y-60347095D01*
X43708437Y-60347095D02*
X43668031Y-60306689D01*
X43668031Y-60306689D02*
X43614157Y-60279751D01*
X43614157Y-60279751D02*
X43560282Y-60279751D01*
X43560282Y-60279751D02*
X43519876Y-60293220D01*
X43519876Y-60293220D02*
X43452532Y-60333626D01*
X43452532Y-60333626D02*
X43412126Y-60374032D01*
X43412126Y-60374032D02*
X43371720Y-60441376D01*
X43371720Y-60441376D02*
X43358251Y-60481782D01*
X43358251Y-60481782D02*
X43358251Y-60535657D01*
X43358251Y-60535657D02*
X43385189Y-60589532D01*
X43385189Y-60589532D02*
X43412126Y-60616469D01*
X43412126Y-60616469D02*
X43466001Y-60643406D01*
X43466001Y-60643406D02*
X43492938Y-60643406D01*
X43492938Y-60643406D02*
X43587219Y-60549125D01*
X43587219Y-60549125D02*
X43533344Y-60495251D01*
X43829656Y-60737687D02*
X43856593Y-60791562D01*
X43856593Y-60791562D02*
X43856593Y-60818499D01*
X43856593Y-60818499D02*
X43843124Y-60858906D01*
X43843124Y-60858906D02*
X43802718Y-60899312D01*
X43802718Y-60899312D02*
X43762312Y-60912780D01*
X43762312Y-60912780D02*
X43735375Y-60912780D01*
X43735375Y-60912780D02*
X43694969Y-60899312D01*
X43694969Y-60899312D02*
X43587219Y-60791562D01*
X43587219Y-60791562D02*
X43870062Y-60508719D01*
X43870062Y-60508719D02*
X43964343Y-60603000D01*
X43964343Y-60603000D02*
X43977811Y-60643406D01*
X43977811Y-60643406D02*
X43977811Y-60670344D01*
X43977811Y-60670344D02*
X43964343Y-60710750D01*
X43964343Y-60710750D02*
X43937405Y-60737687D01*
X43937405Y-60737687D02*
X43896999Y-60751156D01*
X43896999Y-60751156D02*
X43870062Y-60751156D01*
X43870062Y-60751156D02*
X43829656Y-60737687D01*
X43829656Y-60737687D02*
X43735375Y-60643406D01*
X44018218Y-61222561D02*
X43856593Y-61060936D01*
X43937405Y-61141748D02*
X44220248Y-60858906D01*
X44220248Y-60858906D02*
X44152905Y-60872374D01*
X44152905Y-60872374D02*
X44099030Y-60872374D01*
X44099030Y-60872374D02*
X44058624Y-60858906D01*
X44556965Y-61195623D02*
X44422278Y-61060936D01*
X44422278Y-61060936D02*
X44274123Y-61182154D01*
X44274123Y-61182154D02*
X44301060Y-61182154D01*
X44301060Y-61182154D02*
X44341466Y-61195623D01*
X44341466Y-61195623D02*
X44408810Y-61262966D01*
X44408810Y-61262966D02*
X44422278Y-61303372D01*
X44422278Y-61303372D02*
X44422278Y-61330310D01*
X44422278Y-61330310D02*
X44408810Y-61370716D01*
X44408810Y-61370716D02*
X44341466Y-61438059D01*
X44341466Y-61438059D02*
X44301060Y-61451528D01*
X44301060Y-61451528D02*
X44274123Y-61451528D01*
X44274123Y-61451528D02*
X44233717Y-61438059D01*
X44233717Y-61438059D02*
X44166373Y-61370716D01*
X44166373Y-61370716D02*
X44152904Y-61330310D01*
X44152904Y-61330310D02*
X44152904Y-61303372D01*
X29954762Y-67904847D02*
X29954762Y-67504847D01*
X29954762Y-67504847D02*
X30050000Y-67504847D01*
X30050000Y-67504847D02*
X30107143Y-67523895D01*
X30107143Y-67523895D02*
X30145238Y-67561990D01*
X30145238Y-67561990D02*
X30164285Y-67600085D01*
X30164285Y-67600085D02*
X30183333Y-67676276D01*
X30183333Y-67676276D02*
X30183333Y-67733419D01*
X30183333Y-67733419D02*
X30164285Y-67809609D01*
X30164285Y-67809609D02*
X30145238Y-67847704D01*
X30145238Y-67847704D02*
X30107143Y-67885800D01*
X30107143Y-67885800D02*
X30050000Y-67904847D01*
X30050000Y-67904847D02*
X29954762Y-67904847D01*
X30564285Y-67904847D02*
X30335714Y-67904847D01*
X30450000Y-67904847D02*
X30450000Y-67504847D01*
X30450000Y-67504847D02*
X30411904Y-67561990D01*
X30411904Y-67561990D02*
X30373809Y-67600085D01*
X30373809Y-67600085D02*
X30335714Y-67619133D01*
X114729847Y-64020237D02*
X114329847Y-64020237D01*
X114329847Y-64020237D02*
X114329847Y-63924999D01*
X114329847Y-63924999D02*
X114348895Y-63867856D01*
X114348895Y-63867856D02*
X114386990Y-63829761D01*
X114386990Y-63829761D02*
X114425085Y-63810714D01*
X114425085Y-63810714D02*
X114501276Y-63791666D01*
X114501276Y-63791666D02*
X114558419Y-63791666D01*
X114558419Y-63791666D02*
X114634609Y-63810714D01*
X114634609Y-63810714D02*
X114672704Y-63829761D01*
X114672704Y-63829761D02*
X114710800Y-63867856D01*
X114710800Y-63867856D02*
X114729847Y-63924999D01*
X114729847Y-63924999D02*
X114729847Y-64020237D01*
X114367942Y-63639285D02*
X114348895Y-63620237D01*
X114348895Y-63620237D02*
X114329847Y-63582142D01*
X114329847Y-63582142D02*
X114329847Y-63486904D01*
X114329847Y-63486904D02*
X114348895Y-63448809D01*
X114348895Y-63448809D02*
X114367942Y-63429761D01*
X114367942Y-63429761D02*
X114406038Y-63410714D01*
X114406038Y-63410714D02*
X114444133Y-63410714D01*
X114444133Y-63410714D02*
X114501276Y-63429761D01*
X114501276Y-63429761D02*
X114729847Y-63658333D01*
X114729847Y-63658333D02*
X114729847Y-63410714D01*
X109017857Y-62816752D02*
X108998809Y-62835800D01*
X108998809Y-62835800D02*
X108941667Y-62854847D01*
X108941667Y-62854847D02*
X108903571Y-62854847D01*
X108903571Y-62854847D02*
X108846428Y-62835800D01*
X108846428Y-62835800D02*
X108808333Y-62797704D01*
X108808333Y-62797704D02*
X108789286Y-62759609D01*
X108789286Y-62759609D02*
X108770238Y-62683419D01*
X108770238Y-62683419D02*
X108770238Y-62626276D01*
X108770238Y-62626276D02*
X108789286Y-62550085D01*
X108789286Y-62550085D02*
X108808333Y-62511990D01*
X108808333Y-62511990D02*
X108846428Y-62473895D01*
X108846428Y-62473895D02*
X108903571Y-62454847D01*
X108903571Y-62454847D02*
X108941667Y-62454847D01*
X108941667Y-62454847D02*
X108998809Y-62473895D01*
X108998809Y-62473895D02*
X109017857Y-62492942D01*
X109398809Y-62854847D02*
X109170238Y-62854847D01*
X109284524Y-62854847D02*
X109284524Y-62454847D01*
X109284524Y-62454847D02*
X109246428Y-62511990D01*
X109246428Y-62511990D02*
X109208333Y-62550085D01*
X109208333Y-62550085D02*
X109170238Y-62569133D01*
X109741666Y-62588180D02*
X109741666Y-62854847D01*
X109646428Y-62435800D02*
X109551190Y-62721514D01*
X109551190Y-62721514D02*
X109798809Y-62721514D01*
X110729762Y-67354847D02*
X110729762Y-66954847D01*
X110729762Y-66954847D02*
X110825000Y-66954847D01*
X110825000Y-66954847D02*
X110882143Y-66973895D01*
X110882143Y-66973895D02*
X110920238Y-67011990D01*
X110920238Y-67011990D02*
X110939285Y-67050085D01*
X110939285Y-67050085D02*
X110958333Y-67126276D01*
X110958333Y-67126276D02*
X110958333Y-67183419D01*
X110958333Y-67183419D02*
X110939285Y-67259609D01*
X110939285Y-67259609D02*
X110920238Y-67297704D01*
X110920238Y-67297704D02*
X110882143Y-67335800D01*
X110882143Y-67335800D02*
X110825000Y-67354847D01*
X110825000Y-67354847D02*
X110729762Y-67354847D01*
X111320238Y-66954847D02*
X111129762Y-66954847D01*
X111129762Y-66954847D02*
X111110714Y-67145323D01*
X111110714Y-67145323D02*
X111129762Y-67126276D01*
X111129762Y-67126276D02*
X111167857Y-67107228D01*
X111167857Y-67107228D02*
X111263095Y-67107228D01*
X111263095Y-67107228D02*
X111301190Y-67126276D01*
X111301190Y-67126276D02*
X111320238Y-67145323D01*
X111320238Y-67145323D02*
X111339285Y-67183419D01*
X111339285Y-67183419D02*
X111339285Y-67278657D01*
X111339285Y-67278657D02*
X111320238Y-67316752D01*
X111320238Y-67316752D02*
X111301190Y-67335800D01*
X111301190Y-67335800D02*
X111263095Y-67354847D01*
X111263095Y-67354847D02*
X111167857Y-67354847D01*
X111167857Y-67354847D02*
X111129762Y-67335800D01*
X111129762Y-67335800D02*
X111110714Y-67316752D01*
X29145834Y-57716752D02*
X29126786Y-57735800D01*
X29126786Y-57735800D02*
X29069644Y-57754847D01*
X29069644Y-57754847D02*
X29031548Y-57754847D01*
X29031548Y-57754847D02*
X28974405Y-57735800D01*
X28974405Y-57735800D02*
X28936310Y-57697704D01*
X28936310Y-57697704D02*
X28917263Y-57659609D01*
X28917263Y-57659609D02*
X28898215Y-57583419D01*
X28898215Y-57583419D02*
X28898215Y-57526276D01*
X28898215Y-57526276D02*
X28917263Y-57450085D01*
X28917263Y-57450085D02*
X28936310Y-57411990D01*
X28936310Y-57411990D02*
X28974405Y-57373895D01*
X28974405Y-57373895D02*
X29031548Y-57354847D01*
X29031548Y-57354847D02*
X29069644Y-57354847D01*
X29069644Y-57354847D02*
X29126786Y-57373895D01*
X29126786Y-57373895D02*
X29145834Y-57392942D01*
X29336310Y-57754847D02*
X29412501Y-57754847D01*
X29412501Y-57754847D02*
X29450596Y-57735800D01*
X29450596Y-57735800D02*
X29469644Y-57716752D01*
X29469644Y-57716752D02*
X29507739Y-57659609D01*
X29507739Y-57659609D02*
X29526786Y-57583419D01*
X29526786Y-57583419D02*
X29526786Y-57431038D01*
X29526786Y-57431038D02*
X29507739Y-57392942D01*
X29507739Y-57392942D02*
X29488691Y-57373895D01*
X29488691Y-57373895D02*
X29450596Y-57354847D01*
X29450596Y-57354847D02*
X29374405Y-57354847D01*
X29374405Y-57354847D02*
X29336310Y-57373895D01*
X29336310Y-57373895D02*
X29317263Y-57392942D01*
X29317263Y-57392942D02*
X29298215Y-57431038D01*
X29298215Y-57431038D02*
X29298215Y-57526276D01*
X29298215Y-57526276D02*
X29317263Y-57564371D01*
X29317263Y-57564371D02*
X29336310Y-57583419D01*
X29336310Y-57583419D02*
X29374405Y-57602466D01*
X29374405Y-57602466D02*
X29450596Y-57602466D01*
X29450596Y-57602466D02*
X29488691Y-57583419D01*
X29488691Y-57583419D02*
X29507739Y-57564371D01*
X29507739Y-57564371D02*
X29526786Y-57526276D01*
X100792845Y-30672188D02*
X100833251Y-30443220D01*
X100631221Y-30510564D02*
X100914063Y-30227721D01*
X100914063Y-30227721D02*
X101021813Y-30335470D01*
X101021813Y-30335470D02*
X101035282Y-30375877D01*
X101035282Y-30375877D02*
X101035282Y-30402814D01*
X101035282Y-30402814D02*
X101021813Y-30443220D01*
X101021813Y-30443220D02*
X100981407Y-30483626D01*
X100981407Y-30483626D02*
X100941001Y-30497095D01*
X100941001Y-30497095D02*
X100914063Y-30497095D01*
X100914063Y-30497095D02*
X100873657Y-30483626D01*
X100873657Y-30483626D02*
X100765908Y-30375877D01*
X101331593Y-30672188D02*
X101318124Y-30631782D01*
X101318124Y-30631782D02*
X101277718Y-30591376D01*
X101277718Y-30591376D02*
X101223843Y-30564438D01*
X101223843Y-30564438D02*
X101169969Y-30564438D01*
X101169969Y-30564438D02*
X101129563Y-30577907D01*
X101129563Y-30577907D02*
X101062219Y-30618313D01*
X101062219Y-30618313D02*
X101021813Y-30658719D01*
X101021813Y-30658719D02*
X100981407Y-30726063D01*
X100981407Y-30726063D02*
X100967938Y-30766469D01*
X100967938Y-30766469D02*
X100967938Y-30820344D01*
X100967938Y-30820344D02*
X100994876Y-30874218D01*
X100994876Y-30874218D02*
X101021813Y-30901156D01*
X101021813Y-30901156D02*
X101075688Y-30928093D01*
X101075688Y-30928093D02*
X101102625Y-30928093D01*
X101102625Y-30928093D02*
X101196906Y-30833812D01*
X101196906Y-30833812D02*
X101143031Y-30779938D01*
X101439343Y-31022374D02*
X101466280Y-31076249D01*
X101466280Y-31076249D02*
X101466280Y-31103186D01*
X101466280Y-31103186D02*
X101452811Y-31143592D01*
X101452811Y-31143592D02*
X101412405Y-31183999D01*
X101412405Y-31183999D02*
X101371999Y-31197467D01*
X101371999Y-31197467D02*
X101345062Y-31197467D01*
X101345062Y-31197467D02*
X101304656Y-31183999D01*
X101304656Y-31183999D02*
X101196906Y-31076249D01*
X101196906Y-31076249D02*
X101479749Y-30793406D01*
X101479749Y-30793406D02*
X101574030Y-30887687D01*
X101574030Y-30887687D02*
X101587498Y-30928093D01*
X101587498Y-30928093D02*
X101587498Y-30955031D01*
X101587498Y-30955031D02*
X101574030Y-30995437D01*
X101574030Y-30995437D02*
X101547092Y-31022374D01*
X101547092Y-31022374D02*
X101506686Y-31035843D01*
X101506686Y-31035843D02*
X101479749Y-31035843D01*
X101479749Y-31035843D02*
X101439343Y-31022374D01*
X101439343Y-31022374D02*
X101345062Y-30928093D01*
X101681779Y-31237873D02*
X101668311Y-31197467D01*
X101668311Y-31197467D02*
X101668311Y-31170530D01*
X101668311Y-31170530D02*
X101681779Y-31130124D01*
X101681779Y-31130124D02*
X101695248Y-31116655D01*
X101695248Y-31116655D02*
X101735654Y-31103186D01*
X101735654Y-31103186D02*
X101762591Y-31103186D01*
X101762591Y-31103186D02*
X101802998Y-31116655D01*
X101802998Y-31116655D02*
X101856872Y-31170530D01*
X101856872Y-31170530D02*
X101870341Y-31210936D01*
X101870341Y-31210936D02*
X101870341Y-31237873D01*
X101870341Y-31237873D02*
X101856872Y-31278279D01*
X101856872Y-31278279D02*
X101843404Y-31291748D01*
X101843404Y-31291748D02*
X101802998Y-31305217D01*
X101802998Y-31305217D02*
X101776060Y-31305217D01*
X101776060Y-31305217D02*
X101735654Y-31291748D01*
X101735654Y-31291748D02*
X101681779Y-31237873D01*
X101681779Y-31237873D02*
X101641373Y-31224405D01*
X101641373Y-31224405D02*
X101614436Y-31224405D01*
X101614436Y-31224405D02*
X101574030Y-31237873D01*
X101574030Y-31237873D02*
X101520155Y-31291748D01*
X101520155Y-31291748D02*
X101506686Y-31332154D01*
X101506686Y-31332154D02*
X101506686Y-31359092D01*
X101506686Y-31359092D02*
X101520155Y-31399498D01*
X101520155Y-31399498D02*
X101574030Y-31453373D01*
X101574030Y-31453373D02*
X101614436Y-31466841D01*
X101614436Y-31466841D02*
X101641373Y-31466841D01*
X101641373Y-31466841D02*
X101681779Y-31453373D01*
X101681779Y-31453373D02*
X101735654Y-31399498D01*
X101735654Y-31399498D02*
X101749123Y-31359092D01*
X101749123Y-31359092D02*
X101749123Y-31332154D01*
X101749123Y-31332154D02*
X101735654Y-31291748D01*
X52058158Y-60337501D02*
X52098564Y-60108533D01*
X51896534Y-60175877D02*
X52179376Y-59893034D01*
X52179376Y-59893034D02*
X52287126Y-60000784D01*
X52287126Y-60000784D02*
X52300595Y-60041190D01*
X52300595Y-60041190D02*
X52300595Y-60068127D01*
X52300595Y-60068127D02*
X52287126Y-60108533D01*
X52287126Y-60108533D02*
X52246720Y-60148939D01*
X52246720Y-60148939D02*
X52206314Y-60162408D01*
X52206314Y-60162408D02*
X52179376Y-60162408D01*
X52179376Y-60162408D02*
X52138970Y-60148939D01*
X52138970Y-60148939D02*
X52031221Y-60041190D01*
X52596906Y-60337501D02*
X52583437Y-60297095D01*
X52583437Y-60297095D02*
X52543031Y-60256689D01*
X52543031Y-60256689D02*
X52489157Y-60229751D01*
X52489157Y-60229751D02*
X52435282Y-60229751D01*
X52435282Y-60229751D02*
X52394876Y-60243220D01*
X52394876Y-60243220D02*
X52327532Y-60283626D01*
X52327532Y-60283626D02*
X52287126Y-60324032D01*
X52287126Y-60324032D02*
X52246720Y-60391376D01*
X52246720Y-60391376D02*
X52233251Y-60431782D01*
X52233251Y-60431782D02*
X52233251Y-60485657D01*
X52233251Y-60485657D02*
X52260189Y-60539532D01*
X52260189Y-60539532D02*
X52287126Y-60566469D01*
X52287126Y-60566469D02*
X52341001Y-60593406D01*
X52341001Y-60593406D02*
X52367938Y-60593406D01*
X52367938Y-60593406D02*
X52462219Y-60499125D01*
X52462219Y-60499125D02*
X52408344Y-60445251D01*
X52704656Y-60687687D02*
X52731593Y-60741562D01*
X52731593Y-60741562D02*
X52731593Y-60768499D01*
X52731593Y-60768499D02*
X52718124Y-60808906D01*
X52718124Y-60808906D02*
X52677718Y-60849312D01*
X52677718Y-60849312D02*
X52637312Y-60862780D01*
X52637312Y-60862780D02*
X52610375Y-60862780D01*
X52610375Y-60862780D02*
X52569969Y-60849312D01*
X52569969Y-60849312D02*
X52462219Y-60741562D01*
X52462219Y-60741562D02*
X52745062Y-60458719D01*
X52745062Y-60458719D02*
X52839343Y-60553000D01*
X52839343Y-60553000D02*
X52852811Y-60593406D01*
X52852811Y-60593406D02*
X52852811Y-60620344D01*
X52852811Y-60620344D02*
X52839343Y-60660750D01*
X52839343Y-60660750D02*
X52812405Y-60687687D01*
X52812405Y-60687687D02*
X52771999Y-60701156D01*
X52771999Y-60701156D02*
X52745062Y-60701156D01*
X52745062Y-60701156D02*
X52704656Y-60687687D01*
X52704656Y-60687687D02*
X52610375Y-60593406D01*
X52893218Y-61172561D02*
X52731593Y-61010936D01*
X52812405Y-61091748D02*
X53095248Y-60808906D01*
X53095248Y-60808906D02*
X53027905Y-60822374D01*
X53027905Y-60822374D02*
X52974030Y-60822374D01*
X52974030Y-60822374D02*
X52933624Y-60808906D01*
X53270341Y-60983998D02*
X53445434Y-61159092D01*
X53445434Y-61159092D02*
X53243404Y-61172560D01*
X53243404Y-61172560D02*
X53283810Y-61212966D01*
X53283810Y-61212966D02*
X53297278Y-61253372D01*
X53297278Y-61253372D02*
X53297278Y-61280310D01*
X53297278Y-61280310D02*
X53283810Y-61320716D01*
X53283810Y-61320716D02*
X53216466Y-61388059D01*
X53216466Y-61388059D02*
X53176060Y-61401528D01*
X53176060Y-61401528D02*
X53149123Y-61401528D01*
X53149123Y-61401528D02*
X53108717Y-61388059D01*
X53108717Y-61388059D02*
X53027904Y-61307247D01*
X53027904Y-61307247D02*
X53014436Y-61266841D01*
X53014436Y-61266841D02*
X53014436Y-61239904D01*
X55079847Y-37395238D02*
X54679847Y-37395238D01*
X54679847Y-37395238D02*
X54679847Y-37300000D01*
X54679847Y-37300000D02*
X54698895Y-37242857D01*
X54698895Y-37242857D02*
X54736990Y-37204762D01*
X54736990Y-37204762D02*
X54775085Y-37185715D01*
X54775085Y-37185715D02*
X54851276Y-37166667D01*
X54851276Y-37166667D02*
X54908419Y-37166667D01*
X54908419Y-37166667D02*
X54984609Y-37185715D01*
X54984609Y-37185715D02*
X55022704Y-37204762D01*
X55022704Y-37204762D02*
X55060800Y-37242857D01*
X55060800Y-37242857D02*
X55079847Y-37300000D01*
X55079847Y-37300000D02*
X55079847Y-37395238D01*
X55079847Y-36976191D02*
X55079847Y-36900000D01*
X55079847Y-36900000D02*
X55060800Y-36861905D01*
X55060800Y-36861905D02*
X55041752Y-36842857D01*
X55041752Y-36842857D02*
X54984609Y-36804762D01*
X54984609Y-36804762D02*
X54908419Y-36785715D01*
X54908419Y-36785715D02*
X54756038Y-36785715D01*
X54756038Y-36785715D02*
X54717942Y-36804762D01*
X54717942Y-36804762D02*
X54698895Y-36823810D01*
X54698895Y-36823810D02*
X54679847Y-36861905D01*
X54679847Y-36861905D02*
X54679847Y-36938096D01*
X54679847Y-36938096D02*
X54698895Y-36976191D01*
X54698895Y-36976191D02*
X54717942Y-36995238D01*
X54717942Y-36995238D02*
X54756038Y-37014286D01*
X54756038Y-37014286D02*
X54851276Y-37014286D01*
X54851276Y-37014286D02*
X54889371Y-36995238D01*
X54889371Y-36995238D02*
X54908419Y-36976191D01*
X54908419Y-36976191D02*
X54927466Y-36938096D01*
X54927466Y-36938096D02*
X54927466Y-36861905D01*
X54927466Y-36861905D02*
X54908419Y-36823810D01*
X54908419Y-36823810D02*
X54889371Y-36804762D01*
X54889371Y-36804762D02*
X54851276Y-36785715D01*
X110979762Y-64754847D02*
X110979762Y-64354847D01*
X110979762Y-64354847D02*
X111075000Y-64354847D01*
X111075000Y-64354847D02*
X111132143Y-64373895D01*
X111132143Y-64373895D02*
X111170238Y-64411990D01*
X111170238Y-64411990D02*
X111189285Y-64450085D01*
X111189285Y-64450085D02*
X111208333Y-64526276D01*
X111208333Y-64526276D02*
X111208333Y-64583419D01*
X111208333Y-64583419D02*
X111189285Y-64659609D01*
X111189285Y-64659609D02*
X111170238Y-64697704D01*
X111170238Y-64697704D02*
X111132143Y-64735800D01*
X111132143Y-64735800D02*
X111075000Y-64754847D01*
X111075000Y-64754847D02*
X110979762Y-64754847D01*
X111551190Y-64354847D02*
X111475000Y-64354847D01*
X111475000Y-64354847D02*
X111436904Y-64373895D01*
X111436904Y-64373895D02*
X111417857Y-64392942D01*
X111417857Y-64392942D02*
X111379762Y-64450085D01*
X111379762Y-64450085D02*
X111360714Y-64526276D01*
X111360714Y-64526276D02*
X111360714Y-64678657D01*
X111360714Y-64678657D02*
X111379762Y-64716752D01*
X111379762Y-64716752D02*
X111398809Y-64735800D01*
X111398809Y-64735800D02*
X111436904Y-64754847D01*
X111436904Y-64754847D02*
X111513095Y-64754847D01*
X111513095Y-64754847D02*
X111551190Y-64735800D01*
X111551190Y-64735800D02*
X111570238Y-64716752D01*
X111570238Y-64716752D02*
X111589285Y-64678657D01*
X111589285Y-64678657D02*
X111589285Y-64583419D01*
X111589285Y-64583419D02*
X111570238Y-64545323D01*
X111570238Y-64545323D02*
X111551190Y-64526276D01*
X111551190Y-64526276D02*
X111513095Y-64507228D01*
X111513095Y-64507228D02*
X111436904Y-64507228D01*
X111436904Y-64507228D02*
X111398809Y-64526276D01*
X111398809Y-64526276D02*
X111379762Y-64545323D01*
X111379762Y-64545323D02*
X111360714Y-64583419D01*
X26608333Y-65629847D02*
X26475000Y-65439371D01*
X26379762Y-65629847D02*
X26379762Y-65229847D01*
X26379762Y-65229847D02*
X26532143Y-65229847D01*
X26532143Y-65229847D02*
X26570238Y-65248895D01*
X26570238Y-65248895D02*
X26589285Y-65267942D01*
X26589285Y-65267942D02*
X26608333Y-65306038D01*
X26608333Y-65306038D02*
X26608333Y-65363180D01*
X26608333Y-65363180D02*
X26589285Y-65401276D01*
X26589285Y-65401276D02*
X26570238Y-65420323D01*
X26570238Y-65420323D02*
X26532143Y-65439371D01*
X26532143Y-65439371D02*
X26379762Y-65439371D01*
X26798809Y-65629847D02*
X26875000Y-65629847D01*
X26875000Y-65629847D02*
X26913095Y-65610800D01*
X26913095Y-65610800D02*
X26932143Y-65591752D01*
X26932143Y-65591752D02*
X26970238Y-65534609D01*
X26970238Y-65534609D02*
X26989285Y-65458419D01*
X26989285Y-65458419D02*
X26989285Y-65306038D01*
X26989285Y-65306038D02*
X26970238Y-65267942D01*
X26970238Y-65267942D02*
X26951190Y-65248895D01*
X26951190Y-65248895D02*
X26913095Y-65229847D01*
X26913095Y-65229847D02*
X26836904Y-65229847D01*
X26836904Y-65229847D02*
X26798809Y-65248895D01*
X26798809Y-65248895D02*
X26779762Y-65267942D01*
X26779762Y-65267942D02*
X26760714Y-65306038D01*
X26760714Y-65306038D02*
X26760714Y-65401276D01*
X26760714Y-65401276D02*
X26779762Y-65439371D01*
X26779762Y-65439371D02*
X26798809Y-65458419D01*
X26798809Y-65458419D02*
X26836904Y-65477466D01*
X26836904Y-65477466D02*
X26913095Y-65477466D01*
X26913095Y-65477466D02*
X26951190Y-65458419D01*
X26951190Y-65458419D02*
X26970238Y-65439371D01*
X26970238Y-65439371D02*
X26989285Y-65401276D01*
X61641667Y-34535800D02*
X61698810Y-34554847D01*
X61698810Y-34554847D02*
X61794048Y-34554847D01*
X61794048Y-34554847D02*
X61832143Y-34535800D01*
X61832143Y-34535800D02*
X61851191Y-34516752D01*
X61851191Y-34516752D02*
X61870238Y-34478657D01*
X61870238Y-34478657D02*
X61870238Y-34440561D01*
X61870238Y-34440561D02*
X61851191Y-34402466D01*
X61851191Y-34402466D02*
X61832143Y-34383419D01*
X61832143Y-34383419D02*
X61794048Y-34364371D01*
X61794048Y-34364371D02*
X61717857Y-34345323D01*
X61717857Y-34345323D02*
X61679762Y-34326276D01*
X61679762Y-34326276D02*
X61660715Y-34307228D01*
X61660715Y-34307228D02*
X61641667Y-34269133D01*
X61641667Y-34269133D02*
X61641667Y-34231038D01*
X61641667Y-34231038D02*
X61660715Y-34192942D01*
X61660715Y-34192942D02*
X61679762Y-34173895D01*
X61679762Y-34173895D02*
X61717857Y-34154847D01*
X61717857Y-34154847D02*
X61813096Y-34154847D01*
X61813096Y-34154847D02*
X61870238Y-34173895D01*
X62003571Y-34154847D02*
X62098809Y-34554847D01*
X62098809Y-34554847D02*
X62175000Y-34269133D01*
X62175000Y-34269133D02*
X62251190Y-34554847D01*
X62251190Y-34554847D02*
X62346429Y-34154847D01*
X62479762Y-34192942D02*
X62498810Y-34173895D01*
X62498810Y-34173895D02*
X62536905Y-34154847D01*
X62536905Y-34154847D02*
X62632143Y-34154847D01*
X62632143Y-34154847D02*
X62670238Y-34173895D01*
X62670238Y-34173895D02*
X62689286Y-34192942D01*
X62689286Y-34192942D02*
X62708333Y-34231038D01*
X62708333Y-34231038D02*
X62708333Y-34269133D01*
X62708333Y-34269133D02*
X62689286Y-34326276D01*
X62689286Y-34326276D02*
X62460714Y-34554847D01*
X62460714Y-34554847D02*
X62708333Y-34554847D01*
X48658158Y-61562501D02*
X48698564Y-61333533D01*
X48496534Y-61400877D02*
X48779376Y-61118034D01*
X48779376Y-61118034D02*
X48887126Y-61225784D01*
X48887126Y-61225784D02*
X48900595Y-61266190D01*
X48900595Y-61266190D02*
X48900595Y-61293127D01*
X48900595Y-61293127D02*
X48887126Y-61333533D01*
X48887126Y-61333533D02*
X48846720Y-61373939D01*
X48846720Y-61373939D02*
X48806314Y-61387408D01*
X48806314Y-61387408D02*
X48779376Y-61387408D01*
X48779376Y-61387408D02*
X48738970Y-61373939D01*
X48738970Y-61373939D02*
X48631221Y-61266190D01*
X49196906Y-61562501D02*
X49183437Y-61522095D01*
X49183437Y-61522095D02*
X49143031Y-61481689D01*
X49143031Y-61481689D02*
X49089157Y-61454751D01*
X49089157Y-61454751D02*
X49035282Y-61454751D01*
X49035282Y-61454751D02*
X48994876Y-61468220D01*
X48994876Y-61468220D02*
X48927532Y-61508626D01*
X48927532Y-61508626D02*
X48887126Y-61549032D01*
X48887126Y-61549032D02*
X48846720Y-61616376D01*
X48846720Y-61616376D02*
X48833251Y-61656782D01*
X48833251Y-61656782D02*
X48833251Y-61710657D01*
X48833251Y-61710657D02*
X48860189Y-61764532D01*
X48860189Y-61764532D02*
X48887126Y-61791469D01*
X48887126Y-61791469D02*
X48941001Y-61818406D01*
X48941001Y-61818406D02*
X48967938Y-61818406D01*
X48967938Y-61818406D02*
X49062219Y-61724125D01*
X49062219Y-61724125D02*
X49008344Y-61670251D01*
X49304656Y-61912687D02*
X49331593Y-61966562D01*
X49331593Y-61966562D02*
X49331593Y-61993499D01*
X49331593Y-61993499D02*
X49318124Y-62033906D01*
X49318124Y-62033906D02*
X49277718Y-62074312D01*
X49277718Y-62074312D02*
X49237312Y-62087780D01*
X49237312Y-62087780D02*
X49210375Y-62087780D01*
X49210375Y-62087780D02*
X49169969Y-62074312D01*
X49169969Y-62074312D02*
X49062219Y-61966562D01*
X49062219Y-61966562D02*
X49345062Y-61683719D01*
X49345062Y-61683719D02*
X49439343Y-61778000D01*
X49439343Y-61778000D02*
X49452811Y-61818406D01*
X49452811Y-61818406D02*
X49452811Y-61845344D01*
X49452811Y-61845344D02*
X49439343Y-61885750D01*
X49439343Y-61885750D02*
X49412405Y-61912687D01*
X49412405Y-61912687D02*
X49371999Y-61926156D01*
X49371999Y-61926156D02*
X49345062Y-61926156D01*
X49345062Y-61926156D02*
X49304656Y-61912687D01*
X49304656Y-61912687D02*
X49210375Y-61818406D01*
X49493218Y-62397561D02*
X49331593Y-62235936D01*
X49412405Y-62316748D02*
X49695248Y-62033906D01*
X49695248Y-62033906D02*
X49627905Y-62047374D01*
X49627905Y-62047374D02*
X49574030Y-62047374D01*
X49574030Y-62047374D02*
X49533624Y-62033906D01*
X49924216Y-62451435D02*
X49735654Y-62639997D01*
X49964622Y-62276342D02*
X49695248Y-62411029D01*
X49695248Y-62411029D02*
X49870341Y-62586122D01*
X64662857Y-46709983D02*
X64529524Y-46519507D01*
X64434286Y-46709983D02*
X64434286Y-46309983D01*
X64434286Y-46309983D02*
X64586667Y-46309983D01*
X64586667Y-46309983D02*
X64624762Y-46329031D01*
X64624762Y-46329031D02*
X64643809Y-46348078D01*
X64643809Y-46348078D02*
X64662857Y-46386174D01*
X64662857Y-46386174D02*
X64662857Y-46443316D01*
X64662857Y-46443316D02*
X64643809Y-46481412D01*
X64643809Y-46481412D02*
X64624762Y-46500459D01*
X64624762Y-46500459D02*
X64586667Y-46519507D01*
X64586667Y-46519507D02*
X64434286Y-46519507D01*
X64815238Y-46348078D02*
X64834286Y-46329031D01*
X64834286Y-46329031D02*
X64872381Y-46309983D01*
X64872381Y-46309983D02*
X64967619Y-46309983D01*
X64967619Y-46309983D02*
X65005714Y-46329031D01*
X65005714Y-46329031D02*
X65024762Y-46348078D01*
X65024762Y-46348078D02*
X65043809Y-46386174D01*
X65043809Y-46386174D02*
X65043809Y-46424269D01*
X65043809Y-46424269D02*
X65024762Y-46481412D01*
X65024762Y-46481412D02*
X64796190Y-46709983D01*
X64796190Y-46709983D02*
X65043809Y-46709983D01*
X65234285Y-46709983D02*
X65310476Y-46709983D01*
X65310476Y-46709983D02*
X65348571Y-46690936D01*
X65348571Y-46690936D02*
X65367619Y-46671888D01*
X65367619Y-46671888D02*
X65405714Y-46614745D01*
X65405714Y-46614745D02*
X65424761Y-46538555D01*
X65424761Y-46538555D02*
X65424761Y-46386174D01*
X65424761Y-46386174D02*
X65405714Y-46348078D01*
X65405714Y-46348078D02*
X65386666Y-46329031D01*
X65386666Y-46329031D02*
X65348571Y-46309983D01*
X65348571Y-46309983D02*
X65272380Y-46309983D01*
X65272380Y-46309983D02*
X65234285Y-46329031D01*
X65234285Y-46329031D02*
X65215238Y-46348078D01*
X65215238Y-46348078D02*
X65196190Y-46386174D01*
X65196190Y-46386174D02*
X65196190Y-46481412D01*
X65196190Y-46481412D02*
X65215238Y-46519507D01*
X65215238Y-46519507D02*
X65234285Y-46538555D01*
X65234285Y-46538555D02*
X65272380Y-46557602D01*
X65272380Y-46557602D02*
X65348571Y-46557602D01*
X65348571Y-46557602D02*
X65386666Y-46538555D01*
X65386666Y-46538555D02*
X65405714Y-46519507D01*
X65405714Y-46519507D02*
X65424761Y-46481412D01*
X102042857Y-27729847D02*
X101909524Y-27539371D01*
X101814286Y-27729847D02*
X101814286Y-27329847D01*
X101814286Y-27329847D02*
X101966667Y-27329847D01*
X101966667Y-27329847D02*
X102004762Y-27348895D01*
X102004762Y-27348895D02*
X102023809Y-27367942D01*
X102023809Y-27367942D02*
X102042857Y-27406038D01*
X102042857Y-27406038D02*
X102042857Y-27463180D01*
X102042857Y-27463180D02*
X102023809Y-27501276D01*
X102023809Y-27501276D02*
X102004762Y-27520323D01*
X102004762Y-27520323D02*
X101966667Y-27539371D01*
X101966667Y-27539371D02*
X101814286Y-27539371D01*
X102195238Y-27367942D02*
X102214286Y-27348895D01*
X102214286Y-27348895D02*
X102252381Y-27329847D01*
X102252381Y-27329847D02*
X102347619Y-27329847D01*
X102347619Y-27329847D02*
X102385714Y-27348895D01*
X102385714Y-27348895D02*
X102404762Y-27367942D01*
X102404762Y-27367942D02*
X102423809Y-27406038D01*
X102423809Y-27406038D02*
X102423809Y-27444133D01*
X102423809Y-27444133D02*
X102404762Y-27501276D01*
X102404762Y-27501276D02*
X102176190Y-27729847D01*
X102176190Y-27729847D02*
X102423809Y-27729847D01*
X102766666Y-27463180D02*
X102766666Y-27729847D01*
X102671428Y-27310800D02*
X102576190Y-27596514D01*
X102576190Y-27596514D02*
X102823809Y-27596514D01*
X56314286Y-41754847D02*
X56314286Y-41354847D01*
X56314286Y-41354847D02*
X56409524Y-41354847D01*
X56409524Y-41354847D02*
X56466667Y-41373895D01*
X56466667Y-41373895D02*
X56504762Y-41411990D01*
X56504762Y-41411990D02*
X56523809Y-41450085D01*
X56523809Y-41450085D02*
X56542857Y-41526276D01*
X56542857Y-41526276D02*
X56542857Y-41583419D01*
X56542857Y-41583419D02*
X56523809Y-41659609D01*
X56523809Y-41659609D02*
X56504762Y-41697704D01*
X56504762Y-41697704D02*
X56466667Y-41735800D01*
X56466667Y-41735800D02*
X56409524Y-41754847D01*
X56409524Y-41754847D02*
X56314286Y-41754847D01*
X56923809Y-41754847D02*
X56695238Y-41754847D01*
X56809524Y-41754847D02*
X56809524Y-41354847D01*
X56809524Y-41354847D02*
X56771428Y-41411990D01*
X56771428Y-41411990D02*
X56733333Y-41450085D01*
X56733333Y-41450085D02*
X56695238Y-41469133D01*
X57057142Y-41354847D02*
X57304761Y-41354847D01*
X57304761Y-41354847D02*
X57171428Y-41507228D01*
X57171428Y-41507228D02*
X57228571Y-41507228D01*
X57228571Y-41507228D02*
X57266666Y-41526276D01*
X57266666Y-41526276D02*
X57285714Y-41545323D01*
X57285714Y-41545323D02*
X57304761Y-41583419D01*
X57304761Y-41583419D02*
X57304761Y-41678657D01*
X57304761Y-41678657D02*
X57285714Y-41716752D01*
X57285714Y-41716752D02*
X57266666Y-41735800D01*
X57266666Y-41735800D02*
X57228571Y-41754847D01*
X57228571Y-41754847D02*
X57114285Y-41754847D01*
X57114285Y-41754847D02*
X57076190Y-41735800D01*
X57076190Y-41735800D02*
X57057142Y-41716752D01*
X79291667Y-34585800D02*
X79348810Y-34604847D01*
X79348810Y-34604847D02*
X79444048Y-34604847D01*
X79444048Y-34604847D02*
X79482143Y-34585800D01*
X79482143Y-34585800D02*
X79501191Y-34566752D01*
X79501191Y-34566752D02*
X79520238Y-34528657D01*
X79520238Y-34528657D02*
X79520238Y-34490561D01*
X79520238Y-34490561D02*
X79501191Y-34452466D01*
X79501191Y-34452466D02*
X79482143Y-34433419D01*
X79482143Y-34433419D02*
X79444048Y-34414371D01*
X79444048Y-34414371D02*
X79367857Y-34395323D01*
X79367857Y-34395323D02*
X79329762Y-34376276D01*
X79329762Y-34376276D02*
X79310715Y-34357228D01*
X79310715Y-34357228D02*
X79291667Y-34319133D01*
X79291667Y-34319133D02*
X79291667Y-34281038D01*
X79291667Y-34281038D02*
X79310715Y-34242942D01*
X79310715Y-34242942D02*
X79329762Y-34223895D01*
X79329762Y-34223895D02*
X79367857Y-34204847D01*
X79367857Y-34204847D02*
X79463096Y-34204847D01*
X79463096Y-34204847D02*
X79520238Y-34223895D01*
X79653571Y-34204847D02*
X79748809Y-34604847D01*
X79748809Y-34604847D02*
X79825000Y-34319133D01*
X79825000Y-34319133D02*
X79901190Y-34604847D01*
X79901190Y-34604847D02*
X79996429Y-34204847D01*
X80320238Y-34338180D02*
X80320238Y-34604847D01*
X80225000Y-34185800D02*
X80129762Y-34471514D01*
X80129762Y-34471514D02*
X80377381Y-34471514D01*
X84304847Y-39360713D02*
X83904847Y-39360713D01*
X83904847Y-39360713D02*
X83904847Y-39265475D01*
X83904847Y-39265475D02*
X83923895Y-39208332D01*
X83923895Y-39208332D02*
X83961990Y-39170237D01*
X83961990Y-39170237D02*
X84000085Y-39151190D01*
X84000085Y-39151190D02*
X84076276Y-39132142D01*
X84076276Y-39132142D02*
X84133419Y-39132142D01*
X84133419Y-39132142D02*
X84209609Y-39151190D01*
X84209609Y-39151190D02*
X84247704Y-39170237D01*
X84247704Y-39170237D02*
X84285800Y-39208332D01*
X84285800Y-39208332D02*
X84304847Y-39265475D01*
X84304847Y-39265475D02*
X84304847Y-39360713D01*
X84304847Y-38751190D02*
X84304847Y-38979761D01*
X84304847Y-38865475D02*
X83904847Y-38865475D01*
X83904847Y-38865475D02*
X83961990Y-38903571D01*
X83961990Y-38903571D02*
X84000085Y-38941666D01*
X84000085Y-38941666D02*
X84019133Y-38979761D01*
X83942942Y-38598809D02*
X83923895Y-38579761D01*
X83923895Y-38579761D02*
X83904847Y-38541666D01*
X83904847Y-38541666D02*
X83904847Y-38446428D01*
X83904847Y-38446428D02*
X83923895Y-38408333D01*
X83923895Y-38408333D02*
X83942942Y-38389285D01*
X83942942Y-38389285D02*
X83981038Y-38370238D01*
X83981038Y-38370238D02*
X84019133Y-38370238D01*
X84019133Y-38370238D02*
X84076276Y-38389285D01*
X84076276Y-38389285D02*
X84304847Y-38617857D01*
X84304847Y-38617857D02*
X84304847Y-38370238D01*
X29170834Y-57004847D02*
X29037501Y-56814371D01*
X28942263Y-57004847D02*
X28942263Y-56604847D01*
X28942263Y-56604847D02*
X29094644Y-56604847D01*
X29094644Y-56604847D02*
X29132739Y-56623895D01*
X29132739Y-56623895D02*
X29151786Y-56642942D01*
X29151786Y-56642942D02*
X29170834Y-56681038D01*
X29170834Y-56681038D02*
X29170834Y-56738180D01*
X29170834Y-56738180D02*
X29151786Y-56776276D01*
X29151786Y-56776276D02*
X29132739Y-56795323D01*
X29132739Y-56795323D02*
X29094644Y-56814371D01*
X29094644Y-56814371D02*
X28942263Y-56814371D01*
X29532739Y-56604847D02*
X29342263Y-56604847D01*
X29342263Y-56604847D02*
X29323215Y-56795323D01*
X29323215Y-56795323D02*
X29342263Y-56776276D01*
X29342263Y-56776276D02*
X29380358Y-56757228D01*
X29380358Y-56757228D02*
X29475596Y-56757228D01*
X29475596Y-56757228D02*
X29513691Y-56776276D01*
X29513691Y-56776276D02*
X29532739Y-56795323D01*
X29532739Y-56795323D02*
X29551786Y-56833419D01*
X29551786Y-56833419D02*
X29551786Y-56928657D01*
X29551786Y-56928657D02*
X29532739Y-56966752D01*
X29532739Y-56966752D02*
X29513691Y-56985800D01*
X29513691Y-56985800D02*
X29475596Y-57004847D01*
X29475596Y-57004847D02*
X29380358Y-57004847D01*
X29380358Y-57004847D02*
X29342263Y-56985800D01*
X29342263Y-56985800D02*
X29323215Y-56966752D01*
X74883333Y-49979847D02*
X74750000Y-49789371D01*
X74654762Y-49979847D02*
X74654762Y-49579847D01*
X74654762Y-49579847D02*
X74807143Y-49579847D01*
X74807143Y-49579847D02*
X74845238Y-49598895D01*
X74845238Y-49598895D02*
X74864285Y-49617942D01*
X74864285Y-49617942D02*
X74883333Y-49656038D01*
X74883333Y-49656038D02*
X74883333Y-49713180D01*
X74883333Y-49713180D02*
X74864285Y-49751276D01*
X74864285Y-49751276D02*
X74845238Y-49770323D01*
X74845238Y-49770323D02*
X74807143Y-49789371D01*
X74807143Y-49789371D02*
X74654762Y-49789371D01*
X75264285Y-49598895D02*
X75226190Y-49579847D01*
X75226190Y-49579847D02*
X75169047Y-49579847D01*
X75169047Y-49579847D02*
X75111904Y-49598895D01*
X75111904Y-49598895D02*
X75073809Y-49636990D01*
X75073809Y-49636990D02*
X75054762Y-49675085D01*
X75054762Y-49675085D02*
X75035714Y-49751276D01*
X75035714Y-49751276D02*
X75035714Y-49808419D01*
X75035714Y-49808419D02*
X75054762Y-49884609D01*
X75054762Y-49884609D02*
X75073809Y-49922704D01*
X75073809Y-49922704D02*
X75111904Y-49960800D01*
X75111904Y-49960800D02*
X75169047Y-49979847D01*
X75169047Y-49979847D02*
X75207143Y-49979847D01*
X75207143Y-49979847D02*
X75264285Y-49960800D01*
X75264285Y-49960800D02*
X75283333Y-49941752D01*
X75283333Y-49941752D02*
X75283333Y-49808419D01*
X75283333Y-49808419D02*
X75207143Y-49808419D01*
X75588095Y-49770323D02*
X75645238Y-49789371D01*
X75645238Y-49789371D02*
X75664285Y-49808419D01*
X75664285Y-49808419D02*
X75683333Y-49846514D01*
X75683333Y-49846514D02*
X75683333Y-49903657D01*
X75683333Y-49903657D02*
X75664285Y-49941752D01*
X75664285Y-49941752D02*
X75645238Y-49960800D01*
X75645238Y-49960800D02*
X75607143Y-49979847D01*
X75607143Y-49979847D02*
X75454762Y-49979847D01*
X75454762Y-49979847D02*
X75454762Y-49579847D01*
X75454762Y-49579847D02*
X75588095Y-49579847D01*
X75588095Y-49579847D02*
X75626190Y-49598895D01*
X75626190Y-49598895D02*
X75645238Y-49617942D01*
X75645238Y-49617942D02*
X75664285Y-49656038D01*
X75664285Y-49656038D02*
X75664285Y-49694133D01*
X75664285Y-49694133D02*
X75645238Y-49732228D01*
X75645238Y-49732228D02*
X75626190Y-49751276D01*
X75626190Y-49751276D02*
X75588095Y-49770323D01*
X75588095Y-49770323D02*
X75454762Y-49770323D01*
X75873809Y-49979847D02*
X75950000Y-49979847D01*
X75950000Y-49979847D02*
X75988095Y-49960800D01*
X75988095Y-49960800D02*
X76007143Y-49941752D01*
X76007143Y-49941752D02*
X76045238Y-49884609D01*
X76045238Y-49884609D02*
X76064285Y-49808419D01*
X76064285Y-49808419D02*
X76064285Y-49656038D01*
X76064285Y-49656038D02*
X76045238Y-49617942D01*
X76045238Y-49617942D02*
X76026190Y-49598895D01*
X76026190Y-49598895D02*
X75988095Y-49579847D01*
X75988095Y-49579847D02*
X75911904Y-49579847D01*
X75911904Y-49579847D02*
X75873809Y-49598895D01*
X75873809Y-49598895D02*
X75854762Y-49617942D01*
X75854762Y-49617942D02*
X75835714Y-49656038D01*
X75835714Y-49656038D02*
X75835714Y-49751276D01*
X75835714Y-49751276D02*
X75854762Y-49789371D01*
X75854762Y-49789371D02*
X75873809Y-49808419D01*
X75873809Y-49808419D02*
X75911904Y-49827466D01*
X75911904Y-49827466D02*
X75988095Y-49827466D01*
X75988095Y-49827466D02*
X76026190Y-49808419D01*
X76026190Y-49808419D02*
X76045238Y-49789371D01*
X76045238Y-49789371D02*
X76064285Y-49751276D01*
X113466752Y-58357142D02*
X113485800Y-58376190D01*
X113485800Y-58376190D02*
X113504847Y-58433332D01*
X113504847Y-58433332D02*
X113504847Y-58471428D01*
X113504847Y-58471428D02*
X113485800Y-58528571D01*
X113485800Y-58528571D02*
X113447704Y-58566666D01*
X113447704Y-58566666D02*
X113409609Y-58585713D01*
X113409609Y-58585713D02*
X113333419Y-58604761D01*
X113333419Y-58604761D02*
X113276276Y-58604761D01*
X113276276Y-58604761D02*
X113200085Y-58585713D01*
X113200085Y-58585713D02*
X113161990Y-58566666D01*
X113161990Y-58566666D02*
X113123895Y-58528571D01*
X113123895Y-58528571D02*
X113104847Y-58471428D01*
X113104847Y-58471428D02*
X113104847Y-58433332D01*
X113104847Y-58433332D02*
X113123895Y-58376190D01*
X113123895Y-58376190D02*
X113142942Y-58357142D01*
X113504847Y-57976190D02*
X113504847Y-58204761D01*
X113504847Y-58090475D02*
X113104847Y-58090475D01*
X113104847Y-58090475D02*
X113161990Y-58128571D01*
X113161990Y-58128571D02*
X113200085Y-58166666D01*
X113200085Y-58166666D02*
X113219133Y-58204761D01*
X113104847Y-57728571D02*
X113104847Y-57690476D01*
X113104847Y-57690476D02*
X113123895Y-57652380D01*
X113123895Y-57652380D02*
X113142942Y-57633333D01*
X113142942Y-57633333D02*
X113181038Y-57614285D01*
X113181038Y-57614285D02*
X113257228Y-57595238D01*
X113257228Y-57595238D02*
X113352466Y-57595238D01*
X113352466Y-57595238D02*
X113428657Y-57614285D01*
X113428657Y-57614285D02*
X113466752Y-57633333D01*
X113466752Y-57633333D02*
X113485800Y-57652380D01*
X113485800Y-57652380D02*
X113504847Y-57690476D01*
X113504847Y-57690476D02*
X113504847Y-57728571D01*
X113504847Y-57728571D02*
X113485800Y-57766666D01*
X113485800Y-57766666D02*
X113466752Y-57785714D01*
X113466752Y-57785714D02*
X113428657Y-57804761D01*
X113428657Y-57804761D02*
X113352466Y-57823809D01*
X113352466Y-57823809D02*
X113257228Y-57823809D01*
X113257228Y-57823809D02*
X113181038Y-57804761D01*
X113181038Y-57804761D02*
X113142942Y-57785714D01*
X113142942Y-57785714D02*
X113123895Y-57766666D01*
X113123895Y-57766666D02*
X113104847Y-57728571D01*
X99867845Y-44047188D02*
X99908251Y-43818220D01*
X99706221Y-43885564D02*
X99989063Y-43602721D01*
X99989063Y-43602721D02*
X100096813Y-43710470D01*
X100096813Y-43710470D02*
X100110282Y-43750877D01*
X100110282Y-43750877D02*
X100110282Y-43777814D01*
X100110282Y-43777814D02*
X100096813Y-43818220D01*
X100096813Y-43818220D02*
X100056407Y-43858626D01*
X100056407Y-43858626D02*
X100016001Y-43872095D01*
X100016001Y-43872095D02*
X99989063Y-43872095D01*
X99989063Y-43872095D02*
X99948657Y-43858626D01*
X99948657Y-43858626D02*
X99840908Y-43750877D01*
X100406593Y-44047188D02*
X100393124Y-44006782D01*
X100393124Y-44006782D02*
X100352718Y-43966376D01*
X100352718Y-43966376D02*
X100298843Y-43939438D01*
X100298843Y-43939438D02*
X100244969Y-43939438D01*
X100244969Y-43939438D02*
X100204563Y-43952907D01*
X100204563Y-43952907D02*
X100137219Y-43993313D01*
X100137219Y-43993313D02*
X100096813Y-44033719D01*
X100096813Y-44033719D02*
X100056407Y-44101063D01*
X100056407Y-44101063D02*
X100042938Y-44141469D01*
X100042938Y-44141469D02*
X100042938Y-44195344D01*
X100042938Y-44195344D02*
X100069876Y-44249218D01*
X100069876Y-44249218D02*
X100096813Y-44276156D01*
X100096813Y-44276156D02*
X100150688Y-44303093D01*
X100150688Y-44303093D02*
X100177625Y-44303093D01*
X100177625Y-44303093D02*
X100271906Y-44208812D01*
X100271906Y-44208812D02*
X100218031Y-44154938D01*
X100514343Y-44397374D02*
X100541280Y-44451249D01*
X100541280Y-44451249D02*
X100541280Y-44478186D01*
X100541280Y-44478186D02*
X100527811Y-44518592D01*
X100527811Y-44518592D02*
X100487405Y-44558999D01*
X100487405Y-44558999D02*
X100446999Y-44572467D01*
X100446999Y-44572467D02*
X100420062Y-44572467D01*
X100420062Y-44572467D02*
X100379656Y-44558999D01*
X100379656Y-44558999D02*
X100271906Y-44451249D01*
X100271906Y-44451249D02*
X100554749Y-44168406D01*
X100554749Y-44168406D02*
X100649030Y-44262687D01*
X100649030Y-44262687D02*
X100662498Y-44303093D01*
X100662498Y-44303093D02*
X100662498Y-44330031D01*
X100662498Y-44330031D02*
X100649030Y-44370437D01*
X100649030Y-44370437D02*
X100622092Y-44397374D01*
X100622092Y-44397374D02*
X100581686Y-44410843D01*
X100581686Y-44410843D02*
X100554749Y-44410843D01*
X100554749Y-44410843D02*
X100514343Y-44397374D01*
X100514343Y-44397374D02*
X100420062Y-44303093D01*
X100810654Y-44424312D02*
X100999216Y-44612873D01*
X100999216Y-44612873D02*
X100595155Y-44774498D01*
X29942857Y-68691752D02*
X29923809Y-68710800D01*
X29923809Y-68710800D02*
X29866667Y-68729847D01*
X29866667Y-68729847D02*
X29828571Y-68729847D01*
X29828571Y-68729847D02*
X29771428Y-68710800D01*
X29771428Y-68710800D02*
X29733333Y-68672704D01*
X29733333Y-68672704D02*
X29714286Y-68634609D01*
X29714286Y-68634609D02*
X29695238Y-68558419D01*
X29695238Y-68558419D02*
X29695238Y-68501276D01*
X29695238Y-68501276D02*
X29714286Y-68425085D01*
X29714286Y-68425085D02*
X29733333Y-68386990D01*
X29733333Y-68386990D02*
X29771428Y-68348895D01*
X29771428Y-68348895D02*
X29828571Y-68329847D01*
X29828571Y-68329847D02*
X29866667Y-68329847D01*
X29866667Y-68329847D02*
X29923809Y-68348895D01*
X29923809Y-68348895D02*
X29942857Y-68367942D01*
X30323809Y-68729847D02*
X30095238Y-68729847D01*
X30209524Y-68729847D02*
X30209524Y-68329847D01*
X30209524Y-68329847D02*
X30171428Y-68386990D01*
X30171428Y-68386990D02*
X30133333Y-68425085D01*
X30133333Y-68425085D02*
X30095238Y-68444133D01*
X30704761Y-68729847D02*
X30476190Y-68729847D01*
X30590476Y-68729847D02*
X30590476Y-68329847D01*
X30590476Y-68329847D02*
X30552380Y-68386990D01*
X30552380Y-68386990D02*
X30514285Y-68425085D01*
X30514285Y-68425085D02*
X30476190Y-68444133D01*
X112567845Y-20322188D02*
X112608251Y-20093220D01*
X112406221Y-20160564D02*
X112689063Y-19877721D01*
X112689063Y-19877721D02*
X112796813Y-19985470D01*
X112796813Y-19985470D02*
X112810282Y-20025877D01*
X112810282Y-20025877D02*
X112810282Y-20052814D01*
X112810282Y-20052814D02*
X112796813Y-20093220D01*
X112796813Y-20093220D02*
X112756407Y-20133626D01*
X112756407Y-20133626D02*
X112716001Y-20147095D01*
X112716001Y-20147095D02*
X112689063Y-20147095D01*
X112689063Y-20147095D02*
X112648657Y-20133626D01*
X112648657Y-20133626D02*
X112540908Y-20025877D01*
X113106593Y-20322188D02*
X113093124Y-20281782D01*
X113093124Y-20281782D02*
X113052718Y-20241376D01*
X113052718Y-20241376D02*
X112998843Y-20214438D01*
X112998843Y-20214438D02*
X112944969Y-20214438D01*
X112944969Y-20214438D02*
X112904563Y-20227907D01*
X112904563Y-20227907D02*
X112837219Y-20268313D01*
X112837219Y-20268313D02*
X112796813Y-20308719D01*
X112796813Y-20308719D02*
X112756407Y-20376063D01*
X112756407Y-20376063D02*
X112742938Y-20416469D01*
X112742938Y-20416469D02*
X112742938Y-20470344D01*
X112742938Y-20470344D02*
X112769876Y-20524218D01*
X112769876Y-20524218D02*
X112796813Y-20551156D01*
X112796813Y-20551156D02*
X112850688Y-20578093D01*
X112850688Y-20578093D02*
X112877625Y-20578093D01*
X112877625Y-20578093D02*
X112971906Y-20483812D01*
X112971906Y-20483812D02*
X112918031Y-20429938D01*
X113214343Y-20672374D02*
X113241280Y-20726249D01*
X113241280Y-20726249D02*
X113241280Y-20753186D01*
X113241280Y-20753186D02*
X113227811Y-20793592D01*
X113227811Y-20793592D02*
X113187405Y-20833999D01*
X113187405Y-20833999D02*
X113146999Y-20847467D01*
X113146999Y-20847467D02*
X113120062Y-20847467D01*
X113120062Y-20847467D02*
X113079656Y-20833999D01*
X113079656Y-20833999D02*
X112971906Y-20726249D01*
X112971906Y-20726249D02*
X113254749Y-20443406D01*
X113254749Y-20443406D02*
X113349030Y-20537687D01*
X113349030Y-20537687D02*
X113362498Y-20578093D01*
X113362498Y-20578093D02*
X113362498Y-20605031D01*
X113362498Y-20605031D02*
X113349030Y-20645437D01*
X113349030Y-20645437D02*
X113322092Y-20672374D01*
X113322092Y-20672374D02*
X113281686Y-20685843D01*
X113281686Y-20685843D02*
X113254749Y-20685843D01*
X113254749Y-20685843D02*
X113214343Y-20672374D01*
X113214343Y-20672374D02*
X113120062Y-20578093D01*
X113497185Y-20739718D02*
X113524123Y-20739718D01*
X113524123Y-20739718D02*
X113564529Y-20753186D01*
X113564529Y-20753186D02*
X113631872Y-20820530D01*
X113631872Y-20820530D02*
X113645341Y-20860936D01*
X113645341Y-20860936D02*
X113645341Y-20887873D01*
X113645341Y-20887873D02*
X113631872Y-20928279D01*
X113631872Y-20928279D02*
X113604935Y-20955217D01*
X113604935Y-20955217D02*
X113551060Y-20982154D01*
X113551060Y-20982154D02*
X113227811Y-20982154D01*
X113227811Y-20982154D02*
X113402904Y-21157247D01*
X72116191Y-32470800D02*
X72173334Y-32489847D01*
X72173334Y-32489847D02*
X72268572Y-32489847D01*
X72268572Y-32489847D02*
X72306667Y-32470800D01*
X72306667Y-32470800D02*
X72325715Y-32451752D01*
X72325715Y-32451752D02*
X72344762Y-32413657D01*
X72344762Y-32413657D02*
X72344762Y-32375561D01*
X72344762Y-32375561D02*
X72325715Y-32337466D01*
X72325715Y-32337466D02*
X72306667Y-32318419D01*
X72306667Y-32318419D02*
X72268572Y-32299371D01*
X72268572Y-32299371D02*
X72192381Y-32280323D01*
X72192381Y-32280323D02*
X72154286Y-32261276D01*
X72154286Y-32261276D02*
X72135239Y-32242228D01*
X72135239Y-32242228D02*
X72116191Y-32204133D01*
X72116191Y-32204133D02*
X72116191Y-32166038D01*
X72116191Y-32166038D02*
X72135239Y-32127942D01*
X72135239Y-32127942D02*
X72154286Y-32108895D01*
X72154286Y-32108895D02*
X72192381Y-32089847D01*
X72192381Y-32089847D02*
X72287620Y-32089847D01*
X72287620Y-32089847D02*
X72344762Y-32108895D01*
X72478095Y-32089847D02*
X72573333Y-32489847D01*
X72573333Y-32489847D02*
X72649524Y-32204133D01*
X72649524Y-32204133D02*
X72725714Y-32489847D01*
X72725714Y-32489847D02*
X72820953Y-32089847D01*
X73182857Y-32489847D02*
X72954286Y-32489847D01*
X73068572Y-32489847D02*
X73068572Y-32089847D01*
X73068572Y-32089847D02*
X73030476Y-32146990D01*
X73030476Y-32146990D02*
X72992381Y-32185085D01*
X72992381Y-32185085D02*
X72954286Y-32204133D01*
X73544762Y-32089847D02*
X73354286Y-32089847D01*
X73354286Y-32089847D02*
X73335238Y-32280323D01*
X73335238Y-32280323D02*
X73354286Y-32261276D01*
X73354286Y-32261276D02*
X73392381Y-32242228D01*
X73392381Y-32242228D02*
X73487619Y-32242228D01*
X73487619Y-32242228D02*
X73525714Y-32261276D01*
X73525714Y-32261276D02*
X73544762Y-32280323D01*
X73544762Y-32280323D02*
X73563809Y-32318419D01*
X73563809Y-32318419D02*
X73563809Y-32413657D01*
X73563809Y-32413657D02*
X73544762Y-32451752D01*
X73544762Y-32451752D02*
X73525714Y-32470800D01*
X73525714Y-32470800D02*
X73487619Y-32489847D01*
X73487619Y-32489847D02*
X73392381Y-32489847D01*
X73392381Y-32489847D02*
X73354286Y-32470800D01*
X73354286Y-32470800D02*
X73335238Y-32451752D01*
X116641752Y-65482142D02*
X116660800Y-65501190D01*
X116660800Y-65501190D02*
X116679847Y-65558332D01*
X116679847Y-65558332D02*
X116679847Y-65596428D01*
X116679847Y-65596428D02*
X116660800Y-65653571D01*
X116660800Y-65653571D02*
X116622704Y-65691666D01*
X116622704Y-65691666D02*
X116584609Y-65710713D01*
X116584609Y-65710713D02*
X116508419Y-65729761D01*
X116508419Y-65729761D02*
X116451276Y-65729761D01*
X116451276Y-65729761D02*
X116375085Y-65710713D01*
X116375085Y-65710713D02*
X116336990Y-65691666D01*
X116336990Y-65691666D02*
X116298895Y-65653571D01*
X116298895Y-65653571D02*
X116279847Y-65596428D01*
X116279847Y-65596428D02*
X116279847Y-65558332D01*
X116279847Y-65558332D02*
X116298895Y-65501190D01*
X116298895Y-65501190D02*
X116317942Y-65482142D01*
X116679847Y-65101190D02*
X116679847Y-65329761D01*
X116679847Y-65215475D02*
X116279847Y-65215475D01*
X116279847Y-65215475D02*
X116336990Y-65253571D01*
X116336990Y-65253571D02*
X116375085Y-65291666D01*
X116375085Y-65291666D02*
X116394133Y-65329761D01*
X116279847Y-64967857D02*
X116279847Y-64720238D01*
X116279847Y-64720238D02*
X116432228Y-64853571D01*
X116432228Y-64853571D02*
X116432228Y-64796428D01*
X116432228Y-64796428D02*
X116451276Y-64758333D01*
X116451276Y-64758333D02*
X116470323Y-64739285D01*
X116470323Y-64739285D02*
X116508419Y-64720238D01*
X116508419Y-64720238D02*
X116603657Y-64720238D01*
X116603657Y-64720238D02*
X116641752Y-64739285D01*
X116641752Y-64739285D02*
X116660800Y-64758333D01*
X116660800Y-64758333D02*
X116679847Y-64796428D01*
X116679847Y-64796428D02*
X116679847Y-64910714D01*
X116679847Y-64910714D02*
X116660800Y-64948809D01*
X116660800Y-64948809D02*
X116641752Y-64967857D01*
X123642845Y-43997188D02*
X123683251Y-43768220D01*
X123481221Y-43835564D02*
X123764063Y-43552721D01*
X123764063Y-43552721D02*
X123871813Y-43660470D01*
X123871813Y-43660470D02*
X123885282Y-43700877D01*
X123885282Y-43700877D02*
X123885282Y-43727814D01*
X123885282Y-43727814D02*
X123871813Y-43768220D01*
X123871813Y-43768220D02*
X123831407Y-43808626D01*
X123831407Y-43808626D02*
X123791001Y-43822095D01*
X123791001Y-43822095D02*
X123764063Y-43822095D01*
X123764063Y-43822095D02*
X123723657Y-43808626D01*
X123723657Y-43808626D02*
X123615908Y-43700877D01*
X124181593Y-43997188D02*
X124168124Y-43956782D01*
X124168124Y-43956782D02*
X124127718Y-43916376D01*
X124127718Y-43916376D02*
X124073843Y-43889438D01*
X124073843Y-43889438D02*
X124019969Y-43889438D01*
X124019969Y-43889438D02*
X123979563Y-43902907D01*
X123979563Y-43902907D02*
X123912219Y-43943313D01*
X123912219Y-43943313D02*
X123871813Y-43983719D01*
X123871813Y-43983719D02*
X123831407Y-44051063D01*
X123831407Y-44051063D02*
X123817938Y-44091469D01*
X123817938Y-44091469D02*
X123817938Y-44145344D01*
X123817938Y-44145344D02*
X123844876Y-44199218D01*
X123844876Y-44199218D02*
X123871813Y-44226156D01*
X123871813Y-44226156D02*
X123925688Y-44253093D01*
X123925688Y-44253093D02*
X123952625Y-44253093D01*
X123952625Y-44253093D02*
X124046906Y-44158812D01*
X124046906Y-44158812D02*
X123993031Y-44104938D01*
X124289343Y-44347374D02*
X124316280Y-44401249D01*
X124316280Y-44401249D02*
X124316280Y-44428186D01*
X124316280Y-44428186D02*
X124302811Y-44468592D01*
X124302811Y-44468592D02*
X124262405Y-44508999D01*
X124262405Y-44508999D02*
X124221999Y-44522467D01*
X124221999Y-44522467D02*
X124195062Y-44522467D01*
X124195062Y-44522467D02*
X124154656Y-44508999D01*
X124154656Y-44508999D02*
X124046906Y-44401249D01*
X124046906Y-44401249D02*
X124329749Y-44118406D01*
X124329749Y-44118406D02*
X124424030Y-44212687D01*
X124424030Y-44212687D02*
X124437498Y-44253093D01*
X124437498Y-44253093D02*
X124437498Y-44280031D01*
X124437498Y-44280031D02*
X124424030Y-44320437D01*
X124424030Y-44320437D02*
X124397092Y-44347374D01*
X124397092Y-44347374D02*
X124356686Y-44360843D01*
X124356686Y-44360843D02*
X124329749Y-44360843D01*
X124329749Y-44360843D02*
X124289343Y-44347374D01*
X124289343Y-44347374D02*
X124195062Y-44253093D01*
X124585654Y-44374312D02*
X124760747Y-44549405D01*
X124760747Y-44549405D02*
X124558717Y-44562873D01*
X124558717Y-44562873D02*
X124599123Y-44603279D01*
X124599123Y-44603279D02*
X124612591Y-44643686D01*
X124612591Y-44643686D02*
X124612591Y-44670623D01*
X124612591Y-44670623D02*
X124599123Y-44711029D01*
X124599123Y-44711029D02*
X124531779Y-44778373D01*
X124531779Y-44778373D02*
X124491373Y-44791841D01*
X124491373Y-44791841D02*
X124464436Y-44791841D01*
X124464436Y-44791841D02*
X124424030Y-44778373D01*
X124424030Y-44778373D02*
X124343217Y-44697560D01*
X124343217Y-44697560D02*
X124329749Y-44657154D01*
X124329749Y-44657154D02*
X124329749Y-44630217D01*
X111033333Y-55729847D02*
X110900000Y-55539371D01*
X110804762Y-55729847D02*
X110804762Y-55329847D01*
X110804762Y-55329847D02*
X110957143Y-55329847D01*
X110957143Y-55329847D02*
X110995238Y-55348895D01*
X110995238Y-55348895D02*
X111014285Y-55367942D01*
X111014285Y-55367942D02*
X111033333Y-55406038D01*
X111033333Y-55406038D02*
X111033333Y-55463180D01*
X111033333Y-55463180D02*
X111014285Y-55501276D01*
X111014285Y-55501276D02*
X110995238Y-55520323D01*
X110995238Y-55520323D02*
X110957143Y-55539371D01*
X110957143Y-55539371D02*
X110804762Y-55539371D01*
X111261904Y-55501276D02*
X111223809Y-55482228D01*
X111223809Y-55482228D02*
X111204762Y-55463180D01*
X111204762Y-55463180D02*
X111185714Y-55425085D01*
X111185714Y-55425085D02*
X111185714Y-55406038D01*
X111185714Y-55406038D02*
X111204762Y-55367942D01*
X111204762Y-55367942D02*
X111223809Y-55348895D01*
X111223809Y-55348895D02*
X111261904Y-55329847D01*
X111261904Y-55329847D02*
X111338095Y-55329847D01*
X111338095Y-55329847D02*
X111376190Y-55348895D01*
X111376190Y-55348895D02*
X111395238Y-55367942D01*
X111395238Y-55367942D02*
X111414285Y-55406038D01*
X111414285Y-55406038D02*
X111414285Y-55425085D01*
X111414285Y-55425085D02*
X111395238Y-55463180D01*
X111395238Y-55463180D02*
X111376190Y-55482228D01*
X111376190Y-55482228D02*
X111338095Y-55501276D01*
X111338095Y-55501276D02*
X111261904Y-55501276D01*
X111261904Y-55501276D02*
X111223809Y-55520323D01*
X111223809Y-55520323D02*
X111204762Y-55539371D01*
X111204762Y-55539371D02*
X111185714Y-55577466D01*
X111185714Y-55577466D02*
X111185714Y-55653657D01*
X111185714Y-55653657D02*
X111204762Y-55691752D01*
X111204762Y-55691752D02*
X111223809Y-55710800D01*
X111223809Y-55710800D02*
X111261904Y-55729847D01*
X111261904Y-55729847D02*
X111338095Y-55729847D01*
X111338095Y-55729847D02*
X111376190Y-55710800D01*
X111376190Y-55710800D02*
X111395238Y-55691752D01*
X111395238Y-55691752D02*
X111414285Y-55653657D01*
X111414285Y-55653657D02*
X111414285Y-55577466D01*
X111414285Y-55577466D02*
X111395238Y-55539371D01*
X111395238Y-55539371D02*
X111376190Y-55520323D01*
X111376190Y-55520323D02*
X111338095Y-55501276D01*
X32567348Y-57316666D02*
X32376872Y-57449999D01*
X32567348Y-57545237D02*
X32167348Y-57545237D01*
X32167348Y-57545237D02*
X32167348Y-57392856D01*
X32167348Y-57392856D02*
X32186396Y-57354761D01*
X32186396Y-57354761D02*
X32205443Y-57335714D01*
X32205443Y-57335714D02*
X32243539Y-57316666D01*
X32243539Y-57316666D02*
X32300681Y-57316666D01*
X32300681Y-57316666D02*
X32338777Y-57335714D01*
X32338777Y-57335714D02*
X32357824Y-57354761D01*
X32357824Y-57354761D02*
X32376872Y-57392856D01*
X32376872Y-57392856D02*
X32376872Y-57545237D01*
X32167348Y-57183333D02*
X32167348Y-56916666D01*
X32167348Y-56916666D02*
X32567348Y-57088095D01*
X89384975Y-33270359D02*
X89384975Y-32870359D01*
X89384975Y-32870359D02*
X89480213Y-32870359D01*
X89480213Y-32870359D02*
X89537356Y-32889407D01*
X89537356Y-32889407D02*
X89575451Y-32927502D01*
X89575451Y-32927502D02*
X89594498Y-32965597D01*
X89594498Y-32965597D02*
X89613546Y-33041788D01*
X89613546Y-33041788D02*
X89613546Y-33098931D01*
X89613546Y-33098931D02*
X89594498Y-33175121D01*
X89594498Y-33175121D02*
X89575451Y-33213216D01*
X89575451Y-33213216D02*
X89537356Y-33251312D01*
X89537356Y-33251312D02*
X89480213Y-33270359D01*
X89480213Y-33270359D02*
X89384975Y-33270359D01*
X89994498Y-33270359D02*
X89765927Y-33270359D01*
X89880213Y-33270359D02*
X89880213Y-32870359D01*
X89880213Y-32870359D02*
X89842117Y-32927502D01*
X89842117Y-32927502D02*
X89804022Y-32965597D01*
X89804022Y-32965597D02*
X89765927Y-32984645D01*
X90337355Y-32870359D02*
X90261165Y-32870359D01*
X90261165Y-32870359D02*
X90223069Y-32889407D01*
X90223069Y-32889407D02*
X90204022Y-32908454D01*
X90204022Y-32908454D02*
X90165927Y-32965597D01*
X90165927Y-32965597D02*
X90146879Y-33041788D01*
X90146879Y-33041788D02*
X90146879Y-33194169D01*
X90146879Y-33194169D02*
X90165927Y-33232264D01*
X90165927Y-33232264D02*
X90184974Y-33251312D01*
X90184974Y-33251312D02*
X90223069Y-33270359D01*
X90223069Y-33270359D02*
X90299260Y-33270359D01*
X90299260Y-33270359D02*
X90337355Y-33251312D01*
X90337355Y-33251312D02*
X90356403Y-33232264D01*
X90356403Y-33232264D02*
X90375450Y-33194169D01*
X90375450Y-33194169D02*
X90375450Y-33098931D01*
X90375450Y-33098931D02*
X90356403Y-33060835D01*
X90356403Y-33060835D02*
X90337355Y-33041788D01*
X90337355Y-33041788D02*
X90299260Y-33022740D01*
X90299260Y-33022740D02*
X90223069Y-33022740D01*
X90223069Y-33022740D02*
X90184974Y-33041788D01*
X90184974Y-33041788D02*
X90165927Y-33060835D01*
X90165927Y-33060835D02*
X90146879Y-33098931D01*
X32932857Y-66031752D02*
X32913809Y-66050800D01*
X32913809Y-66050800D02*
X32856667Y-66069847D01*
X32856667Y-66069847D02*
X32818571Y-66069847D01*
X32818571Y-66069847D02*
X32761428Y-66050800D01*
X32761428Y-66050800D02*
X32723333Y-66012704D01*
X32723333Y-66012704D02*
X32704286Y-65974609D01*
X32704286Y-65974609D02*
X32685238Y-65898419D01*
X32685238Y-65898419D02*
X32685238Y-65841276D01*
X32685238Y-65841276D02*
X32704286Y-65765085D01*
X32704286Y-65765085D02*
X32723333Y-65726990D01*
X32723333Y-65726990D02*
X32761428Y-65688895D01*
X32761428Y-65688895D02*
X32818571Y-65669847D01*
X32818571Y-65669847D02*
X32856667Y-65669847D01*
X32856667Y-65669847D02*
X32913809Y-65688895D01*
X32913809Y-65688895D02*
X32932857Y-65707942D01*
X33313809Y-66069847D02*
X33085238Y-66069847D01*
X33199524Y-66069847D02*
X33199524Y-65669847D01*
X33199524Y-65669847D02*
X33161428Y-65726990D01*
X33161428Y-65726990D02*
X33123333Y-65765085D01*
X33123333Y-65765085D02*
X33085238Y-65784133D01*
X33466190Y-65707942D02*
X33485238Y-65688895D01*
X33485238Y-65688895D02*
X33523333Y-65669847D01*
X33523333Y-65669847D02*
X33618571Y-65669847D01*
X33618571Y-65669847D02*
X33656666Y-65688895D01*
X33656666Y-65688895D02*
X33675714Y-65707942D01*
X33675714Y-65707942D02*
X33694761Y-65746038D01*
X33694761Y-65746038D02*
X33694761Y-65784133D01*
X33694761Y-65784133D02*
X33675714Y-65841276D01*
X33675714Y-65841276D02*
X33447142Y-66069847D01*
X33447142Y-66069847D02*
X33694761Y-66069847D01*
X112442857Y-64804847D02*
X112309524Y-64614371D01*
X112214286Y-64804847D02*
X112214286Y-64404847D01*
X112214286Y-64404847D02*
X112366667Y-64404847D01*
X112366667Y-64404847D02*
X112404762Y-64423895D01*
X112404762Y-64423895D02*
X112423809Y-64442942D01*
X112423809Y-64442942D02*
X112442857Y-64481038D01*
X112442857Y-64481038D02*
X112442857Y-64538180D01*
X112442857Y-64538180D02*
X112423809Y-64576276D01*
X112423809Y-64576276D02*
X112404762Y-64595323D01*
X112404762Y-64595323D02*
X112366667Y-64614371D01*
X112366667Y-64614371D02*
X112214286Y-64614371D01*
X112823809Y-64804847D02*
X112595238Y-64804847D01*
X112709524Y-64804847D02*
X112709524Y-64404847D01*
X112709524Y-64404847D02*
X112671428Y-64461990D01*
X112671428Y-64461990D02*
X112633333Y-64500085D01*
X112633333Y-64500085D02*
X112595238Y-64519133D01*
X113071428Y-64404847D02*
X113109523Y-64404847D01*
X113109523Y-64404847D02*
X113147619Y-64423895D01*
X113147619Y-64423895D02*
X113166666Y-64442942D01*
X113166666Y-64442942D02*
X113185714Y-64481038D01*
X113185714Y-64481038D02*
X113204761Y-64557228D01*
X113204761Y-64557228D02*
X113204761Y-64652466D01*
X113204761Y-64652466D02*
X113185714Y-64728657D01*
X113185714Y-64728657D02*
X113166666Y-64766752D01*
X113166666Y-64766752D02*
X113147619Y-64785800D01*
X113147619Y-64785800D02*
X113109523Y-64804847D01*
X113109523Y-64804847D02*
X113071428Y-64804847D01*
X113071428Y-64804847D02*
X113033333Y-64785800D01*
X113033333Y-64785800D02*
X113014285Y-64766752D01*
X113014285Y-64766752D02*
X112995238Y-64728657D01*
X112995238Y-64728657D02*
X112976190Y-64652466D01*
X112976190Y-64652466D02*
X112976190Y-64557228D01*
X112976190Y-64557228D02*
X112995238Y-64481038D01*
X112995238Y-64481038D02*
X113014285Y-64442942D01*
X113014285Y-64442942D02*
X113033333Y-64423895D01*
X113033333Y-64423895D02*
X113071428Y-64404847D01*
X30729762Y-67454847D02*
X30729762Y-67054847D01*
X30729762Y-67054847D02*
X30825000Y-67054847D01*
X30825000Y-67054847D02*
X30882143Y-67073895D01*
X30882143Y-67073895D02*
X30920238Y-67111990D01*
X30920238Y-67111990D02*
X30939285Y-67150085D01*
X30939285Y-67150085D02*
X30958333Y-67226276D01*
X30958333Y-67226276D02*
X30958333Y-67283419D01*
X30958333Y-67283419D02*
X30939285Y-67359609D01*
X30939285Y-67359609D02*
X30920238Y-67397704D01*
X30920238Y-67397704D02*
X30882143Y-67435800D01*
X30882143Y-67435800D02*
X30825000Y-67454847D01*
X30825000Y-67454847D02*
X30729762Y-67454847D01*
X31091666Y-67054847D02*
X31339285Y-67054847D01*
X31339285Y-67054847D02*
X31205952Y-67207228D01*
X31205952Y-67207228D02*
X31263095Y-67207228D01*
X31263095Y-67207228D02*
X31301190Y-67226276D01*
X31301190Y-67226276D02*
X31320238Y-67245323D01*
X31320238Y-67245323D02*
X31339285Y-67283419D01*
X31339285Y-67283419D02*
X31339285Y-67378657D01*
X31339285Y-67378657D02*
X31320238Y-67416752D01*
X31320238Y-67416752D02*
X31301190Y-67435800D01*
X31301190Y-67435800D02*
X31263095Y-67454847D01*
X31263095Y-67454847D02*
X31148809Y-67454847D01*
X31148809Y-67454847D02*
X31110714Y-67435800D01*
X31110714Y-67435800D02*
X31091666Y-67416752D01*
X63492857Y-50029847D02*
X63359524Y-49839371D01*
X63264286Y-50029847D02*
X63264286Y-49629847D01*
X63264286Y-49629847D02*
X63416667Y-49629847D01*
X63416667Y-49629847D02*
X63454762Y-49648895D01*
X63454762Y-49648895D02*
X63473809Y-49667942D01*
X63473809Y-49667942D02*
X63492857Y-49706038D01*
X63492857Y-49706038D02*
X63492857Y-49763180D01*
X63492857Y-49763180D02*
X63473809Y-49801276D01*
X63473809Y-49801276D02*
X63454762Y-49820323D01*
X63454762Y-49820323D02*
X63416667Y-49839371D01*
X63416667Y-49839371D02*
X63264286Y-49839371D01*
X63873809Y-49648895D02*
X63835714Y-49629847D01*
X63835714Y-49629847D02*
X63778571Y-49629847D01*
X63778571Y-49629847D02*
X63721428Y-49648895D01*
X63721428Y-49648895D02*
X63683333Y-49686990D01*
X63683333Y-49686990D02*
X63664286Y-49725085D01*
X63664286Y-49725085D02*
X63645238Y-49801276D01*
X63645238Y-49801276D02*
X63645238Y-49858419D01*
X63645238Y-49858419D02*
X63664286Y-49934609D01*
X63664286Y-49934609D02*
X63683333Y-49972704D01*
X63683333Y-49972704D02*
X63721428Y-50010800D01*
X63721428Y-50010800D02*
X63778571Y-50029847D01*
X63778571Y-50029847D02*
X63816667Y-50029847D01*
X63816667Y-50029847D02*
X63873809Y-50010800D01*
X63873809Y-50010800D02*
X63892857Y-49991752D01*
X63892857Y-49991752D02*
X63892857Y-49858419D01*
X63892857Y-49858419D02*
X63816667Y-49858419D01*
X64197619Y-49820323D02*
X64254762Y-49839371D01*
X64254762Y-49839371D02*
X64273809Y-49858419D01*
X64273809Y-49858419D02*
X64292857Y-49896514D01*
X64292857Y-49896514D02*
X64292857Y-49953657D01*
X64292857Y-49953657D02*
X64273809Y-49991752D01*
X64273809Y-49991752D02*
X64254762Y-50010800D01*
X64254762Y-50010800D02*
X64216667Y-50029847D01*
X64216667Y-50029847D02*
X64064286Y-50029847D01*
X64064286Y-50029847D02*
X64064286Y-49629847D01*
X64064286Y-49629847D02*
X64197619Y-49629847D01*
X64197619Y-49629847D02*
X64235714Y-49648895D01*
X64235714Y-49648895D02*
X64254762Y-49667942D01*
X64254762Y-49667942D02*
X64273809Y-49706038D01*
X64273809Y-49706038D02*
X64273809Y-49744133D01*
X64273809Y-49744133D02*
X64254762Y-49782228D01*
X64254762Y-49782228D02*
X64235714Y-49801276D01*
X64235714Y-49801276D02*
X64197619Y-49820323D01*
X64197619Y-49820323D02*
X64064286Y-49820323D01*
X64673809Y-50029847D02*
X64445238Y-50029847D01*
X64559524Y-50029847D02*
X64559524Y-49629847D01*
X64559524Y-49629847D02*
X64521428Y-49686990D01*
X64521428Y-49686990D02*
X64483333Y-49725085D01*
X64483333Y-49725085D02*
X64445238Y-49744133D01*
X64826190Y-49667942D02*
X64845238Y-49648895D01*
X64845238Y-49648895D02*
X64883333Y-49629847D01*
X64883333Y-49629847D02*
X64978571Y-49629847D01*
X64978571Y-49629847D02*
X65016666Y-49648895D01*
X65016666Y-49648895D02*
X65035714Y-49667942D01*
X65035714Y-49667942D02*
X65054761Y-49706038D01*
X65054761Y-49706038D02*
X65054761Y-49744133D01*
X65054761Y-49744133D02*
X65035714Y-49801276D01*
X65035714Y-49801276D02*
X64807142Y-50029847D01*
X64807142Y-50029847D02*
X65054761Y-50029847D01*
X64617857Y-44509983D02*
X64484524Y-44319507D01*
X64389286Y-44509983D02*
X64389286Y-44109983D01*
X64389286Y-44109983D02*
X64541667Y-44109983D01*
X64541667Y-44109983D02*
X64579762Y-44129031D01*
X64579762Y-44129031D02*
X64598809Y-44148078D01*
X64598809Y-44148078D02*
X64617857Y-44186174D01*
X64617857Y-44186174D02*
X64617857Y-44243316D01*
X64617857Y-44243316D02*
X64598809Y-44281412D01*
X64598809Y-44281412D02*
X64579762Y-44300459D01*
X64579762Y-44300459D02*
X64541667Y-44319507D01*
X64541667Y-44319507D02*
X64389286Y-44319507D01*
X64770238Y-44148078D02*
X64789286Y-44129031D01*
X64789286Y-44129031D02*
X64827381Y-44109983D01*
X64827381Y-44109983D02*
X64922619Y-44109983D01*
X64922619Y-44109983D02*
X64960714Y-44129031D01*
X64960714Y-44129031D02*
X64979762Y-44148078D01*
X64979762Y-44148078D02*
X64998809Y-44186174D01*
X64998809Y-44186174D02*
X64998809Y-44224269D01*
X64998809Y-44224269D02*
X64979762Y-44281412D01*
X64979762Y-44281412D02*
X64751190Y-44509983D01*
X64751190Y-44509983D02*
X64998809Y-44509983D01*
X65227380Y-44281412D02*
X65189285Y-44262364D01*
X65189285Y-44262364D02*
X65170238Y-44243316D01*
X65170238Y-44243316D02*
X65151190Y-44205221D01*
X65151190Y-44205221D02*
X65151190Y-44186174D01*
X65151190Y-44186174D02*
X65170238Y-44148078D01*
X65170238Y-44148078D02*
X65189285Y-44129031D01*
X65189285Y-44129031D02*
X65227380Y-44109983D01*
X65227380Y-44109983D02*
X65303571Y-44109983D01*
X65303571Y-44109983D02*
X65341666Y-44129031D01*
X65341666Y-44129031D02*
X65360714Y-44148078D01*
X65360714Y-44148078D02*
X65379761Y-44186174D01*
X65379761Y-44186174D02*
X65379761Y-44205221D01*
X65379761Y-44205221D02*
X65360714Y-44243316D01*
X65360714Y-44243316D02*
X65341666Y-44262364D01*
X65341666Y-44262364D02*
X65303571Y-44281412D01*
X65303571Y-44281412D02*
X65227380Y-44281412D01*
X65227380Y-44281412D02*
X65189285Y-44300459D01*
X65189285Y-44300459D02*
X65170238Y-44319507D01*
X65170238Y-44319507D02*
X65151190Y-44357602D01*
X65151190Y-44357602D02*
X65151190Y-44433793D01*
X65151190Y-44433793D02*
X65170238Y-44471888D01*
X65170238Y-44471888D02*
X65189285Y-44490936D01*
X65189285Y-44490936D02*
X65227380Y-44509983D01*
X65227380Y-44509983D02*
X65303571Y-44509983D01*
X65303571Y-44509983D02*
X65341666Y-44490936D01*
X65341666Y-44490936D02*
X65360714Y-44471888D01*
X65360714Y-44471888D02*
X65379761Y-44433793D01*
X65379761Y-44433793D02*
X65379761Y-44357602D01*
X65379761Y-44357602D02*
X65360714Y-44319507D01*
X65360714Y-44319507D02*
X65341666Y-44300459D01*
X65341666Y-44300459D02*
X65303571Y-44281412D01*
X32855443Y-61213095D02*
X32836396Y-61251190D01*
X32836396Y-61251190D02*
X32798301Y-61289285D01*
X32798301Y-61289285D02*
X32741158Y-61346428D01*
X32741158Y-61346428D02*
X32722110Y-61384523D01*
X32722110Y-61384523D02*
X32722110Y-61422619D01*
X32817348Y-61403571D02*
X32798301Y-61441666D01*
X32798301Y-61441666D02*
X32760205Y-61479761D01*
X32760205Y-61479761D02*
X32684015Y-61498809D01*
X32684015Y-61498809D02*
X32550681Y-61498809D01*
X32550681Y-61498809D02*
X32474491Y-61479761D01*
X32474491Y-61479761D02*
X32436396Y-61441666D01*
X32436396Y-61441666D02*
X32417348Y-61403571D01*
X32417348Y-61403571D02*
X32417348Y-61327380D01*
X32417348Y-61327380D02*
X32436396Y-61289285D01*
X32436396Y-61289285D02*
X32474491Y-61251190D01*
X32474491Y-61251190D02*
X32550681Y-61232142D01*
X32550681Y-61232142D02*
X32684015Y-61232142D01*
X32684015Y-61232142D02*
X32760205Y-61251190D01*
X32760205Y-61251190D02*
X32798301Y-61289285D01*
X32798301Y-61289285D02*
X32817348Y-61327380D01*
X32817348Y-61327380D02*
X32817348Y-61403571D01*
X32817348Y-60851190D02*
X32817348Y-61079761D01*
X32817348Y-60965475D02*
X32417348Y-60965475D01*
X32417348Y-60965475D02*
X32474491Y-61003571D01*
X32474491Y-61003571D02*
X32512586Y-61041666D01*
X32512586Y-61041666D02*
X32531634Y-61079761D01*
X56266667Y-22985800D02*
X56323810Y-23004847D01*
X56323810Y-23004847D02*
X56419048Y-23004847D01*
X56419048Y-23004847D02*
X56457143Y-22985800D01*
X56457143Y-22985800D02*
X56476191Y-22966752D01*
X56476191Y-22966752D02*
X56495238Y-22928657D01*
X56495238Y-22928657D02*
X56495238Y-22890561D01*
X56495238Y-22890561D02*
X56476191Y-22852466D01*
X56476191Y-22852466D02*
X56457143Y-22833419D01*
X56457143Y-22833419D02*
X56419048Y-22814371D01*
X56419048Y-22814371D02*
X56342857Y-22795323D01*
X56342857Y-22795323D02*
X56304762Y-22776276D01*
X56304762Y-22776276D02*
X56285715Y-22757228D01*
X56285715Y-22757228D02*
X56266667Y-22719133D01*
X56266667Y-22719133D02*
X56266667Y-22681038D01*
X56266667Y-22681038D02*
X56285715Y-22642942D01*
X56285715Y-22642942D02*
X56304762Y-22623895D01*
X56304762Y-22623895D02*
X56342857Y-22604847D01*
X56342857Y-22604847D02*
X56438096Y-22604847D01*
X56438096Y-22604847D02*
X56495238Y-22623895D01*
X56628571Y-22604847D02*
X56723809Y-23004847D01*
X56723809Y-23004847D02*
X56800000Y-22719133D01*
X56800000Y-22719133D02*
X56876190Y-23004847D01*
X56876190Y-23004847D02*
X56971429Y-22604847D01*
X57333333Y-23004847D02*
X57104762Y-23004847D01*
X57219048Y-23004847D02*
X57219048Y-22604847D01*
X57219048Y-22604847D02*
X57180952Y-22661990D01*
X57180952Y-22661990D02*
X57142857Y-22700085D01*
X57142857Y-22700085D02*
X57104762Y-22719133D01*
X112754847Y-57991666D02*
X112564371Y-58124999D01*
X112754847Y-58220237D02*
X112354847Y-58220237D01*
X112354847Y-58220237D02*
X112354847Y-58067856D01*
X112354847Y-58067856D02*
X112373895Y-58029761D01*
X112373895Y-58029761D02*
X112392942Y-58010714D01*
X112392942Y-58010714D02*
X112431038Y-57991666D01*
X112431038Y-57991666D02*
X112488180Y-57991666D01*
X112488180Y-57991666D02*
X112526276Y-58010714D01*
X112526276Y-58010714D02*
X112545323Y-58029761D01*
X112545323Y-58029761D02*
X112564371Y-58067856D01*
X112564371Y-58067856D02*
X112564371Y-58220237D01*
X112354847Y-57648809D02*
X112354847Y-57724999D01*
X112354847Y-57724999D02*
X112373895Y-57763095D01*
X112373895Y-57763095D02*
X112392942Y-57782142D01*
X112392942Y-57782142D02*
X112450085Y-57820237D01*
X112450085Y-57820237D02*
X112526276Y-57839285D01*
X112526276Y-57839285D02*
X112678657Y-57839285D01*
X112678657Y-57839285D02*
X112716752Y-57820237D01*
X112716752Y-57820237D02*
X112735800Y-57801190D01*
X112735800Y-57801190D02*
X112754847Y-57763095D01*
X112754847Y-57763095D02*
X112754847Y-57686904D01*
X112754847Y-57686904D02*
X112735800Y-57648809D01*
X112735800Y-57648809D02*
X112716752Y-57629761D01*
X112716752Y-57629761D02*
X112678657Y-57610714D01*
X112678657Y-57610714D02*
X112583419Y-57610714D01*
X112583419Y-57610714D02*
X112545323Y-57629761D01*
X112545323Y-57629761D02*
X112526276Y-57648809D01*
X112526276Y-57648809D02*
X112507228Y-57686904D01*
X112507228Y-57686904D02*
X112507228Y-57763095D01*
X112507228Y-57763095D02*
X112526276Y-57801190D01*
X112526276Y-57801190D02*
X112545323Y-57820237D01*
X112545323Y-57820237D02*
X112583419Y-57839285D01*
X86942347Y-32235713D02*
X86542347Y-32235713D01*
X86542347Y-32235713D02*
X86542347Y-32140475D01*
X86542347Y-32140475D02*
X86561395Y-32083332D01*
X86561395Y-32083332D02*
X86599490Y-32045237D01*
X86599490Y-32045237D02*
X86637585Y-32026190D01*
X86637585Y-32026190D02*
X86713776Y-32007142D01*
X86713776Y-32007142D02*
X86770919Y-32007142D01*
X86770919Y-32007142D02*
X86847109Y-32026190D01*
X86847109Y-32026190D02*
X86885204Y-32045237D01*
X86885204Y-32045237D02*
X86923300Y-32083332D01*
X86923300Y-32083332D02*
X86942347Y-32140475D01*
X86942347Y-32140475D02*
X86942347Y-32235713D01*
X86942347Y-31626190D02*
X86942347Y-31854761D01*
X86942347Y-31740475D02*
X86542347Y-31740475D01*
X86542347Y-31740475D02*
X86599490Y-31778571D01*
X86599490Y-31778571D02*
X86637585Y-31816666D01*
X86637585Y-31816666D02*
X86656633Y-31854761D01*
X86942347Y-31245238D02*
X86942347Y-31473809D01*
X86942347Y-31359523D02*
X86542347Y-31359523D01*
X86542347Y-31359523D02*
X86599490Y-31397619D01*
X86599490Y-31397619D02*
X86637585Y-31435714D01*
X86637585Y-31435714D02*
X86656633Y-31473809D01*
X124417845Y-30547188D02*
X124458251Y-30318220D01*
X124256221Y-30385564D02*
X124539063Y-30102721D01*
X124539063Y-30102721D02*
X124646813Y-30210470D01*
X124646813Y-30210470D02*
X124660282Y-30250877D01*
X124660282Y-30250877D02*
X124660282Y-30277814D01*
X124660282Y-30277814D02*
X124646813Y-30318220D01*
X124646813Y-30318220D02*
X124606407Y-30358626D01*
X124606407Y-30358626D02*
X124566001Y-30372095D01*
X124566001Y-30372095D02*
X124539063Y-30372095D01*
X124539063Y-30372095D02*
X124498657Y-30358626D01*
X124498657Y-30358626D02*
X124390908Y-30250877D01*
X124956593Y-30547188D02*
X124943124Y-30506782D01*
X124943124Y-30506782D02*
X124902718Y-30466376D01*
X124902718Y-30466376D02*
X124848843Y-30439438D01*
X124848843Y-30439438D02*
X124794969Y-30439438D01*
X124794969Y-30439438D02*
X124754563Y-30452907D01*
X124754563Y-30452907D02*
X124687219Y-30493313D01*
X124687219Y-30493313D02*
X124646813Y-30533719D01*
X124646813Y-30533719D02*
X124606407Y-30601063D01*
X124606407Y-30601063D02*
X124592938Y-30641469D01*
X124592938Y-30641469D02*
X124592938Y-30695344D01*
X124592938Y-30695344D02*
X124619876Y-30749218D01*
X124619876Y-30749218D02*
X124646813Y-30776156D01*
X124646813Y-30776156D02*
X124700688Y-30803093D01*
X124700688Y-30803093D02*
X124727625Y-30803093D01*
X124727625Y-30803093D02*
X124821906Y-30708812D01*
X124821906Y-30708812D02*
X124768031Y-30654938D01*
X125064343Y-30897374D02*
X125091280Y-30951249D01*
X125091280Y-30951249D02*
X125091280Y-30978186D01*
X125091280Y-30978186D02*
X125077811Y-31018592D01*
X125077811Y-31018592D02*
X125037405Y-31058999D01*
X125037405Y-31058999D02*
X124996999Y-31072467D01*
X124996999Y-31072467D02*
X124970062Y-31072467D01*
X124970062Y-31072467D02*
X124929656Y-31058999D01*
X124929656Y-31058999D02*
X124821906Y-30951249D01*
X124821906Y-30951249D02*
X125104749Y-30668406D01*
X125104749Y-30668406D02*
X125199030Y-30762687D01*
X125199030Y-30762687D02*
X125212498Y-30803093D01*
X125212498Y-30803093D02*
X125212498Y-30830031D01*
X125212498Y-30830031D02*
X125199030Y-30870437D01*
X125199030Y-30870437D02*
X125172092Y-30897374D01*
X125172092Y-30897374D02*
X125131686Y-30910843D01*
X125131686Y-30910843D02*
X125104749Y-30910843D01*
X125104749Y-30910843D02*
X125064343Y-30897374D01*
X125064343Y-30897374D02*
X124970062Y-30803093D01*
X125414529Y-31166748D02*
X125225967Y-31355310D01*
X125454935Y-30991655D02*
X125185561Y-31126342D01*
X125185561Y-31126342D02*
X125360654Y-31301435D01*
X47833158Y-55612501D02*
X47873564Y-55383533D01*
X47671534Y-55450877D02*
X47954376Y-55168034D01*
X47954376Y-55168034D02*
X48062126Y-55275784D01*
X48062126Y-55275784D02*
X48075595Y-55316190D01*
X48075595Y-55316190D02*
X48075595Y-55343127D01*
X48075595Y-55343127D02*
X48062126Y-55383533D01*
X48062126Y-55383533D02*
X48021720Y-55423939D01*
X48021720Y-55423939D02*
X47981314Y-55437408D01*
X47981314Y-55437408D02*
X47954376Y-55437408D01*
X47954376Y-55437408D02*
X47913970Y-55423939D01*
X47913970Y-55423939D02*
X47806221Y-55316190D01*
X48371906Y-55612501D02*
X48358437Y-55572095D01*
X48358437Y-55572095D02*
X48318031Y-55531689D01*
X48318031Y-55531689D02*
X48264157Y-55504751D01*
X48264157Y-55504751D02*
X48210282Y-55504751D01*
X48210282Y-55504751D02*
X48169876Y-55518220D01*
X48169876Y-55518220D02*
X48102532Y-55558626D01*
X48102532Y-55558626D02*
X48062126Y-55599032D01*
X48062126Y-55599032D02*
X48021720Y-55666376D01*
X48021720Y-55666376D02*
X48008251Y-55706782D01*
X48008251Y-55706782D02*
X48008251Y-55760657D01*
X48008251Y-55760657D02*
X48035189Y-55814532D01*
X48035189Y-55814532D02*
X48062126Y-55841469D01*
X48062126Y-55841469D02*
X48116001Y-55868406D01*
X48116001Y-55868406D02*
X48142938Y-55868406D01*
X48142938Y-55868406D02*
X48237219Y-55774125D01*
X48237219Y-55774125D02*
X48183344Y-55720251D01*
X48479656Y-55962687D02*
X48506593Y-56016562D01*
X48506593Y-56016562D02*
X48506593Y-56043499D01*
X48506593Y-56043499D02*
X48493124Y-56083906D01*
X48493124Y-56083906D02*
X48452718Y-56124312D01*
X48452718Y-56124312D02*
X48412312Y-56137780D01*
X48412312Y-56137780D02*
X48385375Y-56137780D01*
X48385375Y-56137780D02*
X48344969Y-56124312D01*
X48344969Y-56124312D02*
X48237219Y-56016562D01*
X48237219Y-56016562D02*
X48520062Y-55733719D01*
X48520062Y-55733719D02*
X48614343Y-55828000D01*
X48614343Y-55828000D02*
X48627811Y-55868406D01*
X48627811Y-55868406D02*
X48627811Y-55895344D01*
X48627811Y-55895344D02*
X48614343Y-55935750D01*
X48614343Y-55935750D02*
X48587405Y-55962687D01*
X48587405Y-55962687D02*
X48546999Y-55976156D01*
X48546999Y-55976156D02*
X48520062Y-55976156D01*
X48520062Y-55976156D02*
X48479656Y-55962687D01*
X48479656Y-55962687D02*
X48385375Y-55868406D01*
X48668218Y-56447561D02*
X48506593Y-56285936D01*
X48587405Y-56366748D02*
X48870248Y-56083906D01*
X48870248Y-56083906D02*
X48802905Y-56097374D01*
X48802905Y-56097374D02*
X48749030Y-56097374D01*
X48749030Y-56097374D02*
X48708624Y-56083906D01*
X49193497Y-56407154D02*
X49139622Y-56353279D01*
X49139622Y-56353279D02*
X49099216Y-56339811D01*
X49099216Y-56339811D02*
X49072278Y-56339811D01*
X49072278Y-56339811D02*
X49004935Y-56353279D01*
X49004935Y-56353279D02*
X48937591Y-56393685D01*
X48937591Y-56393685D02*
X48829842Y-56501435D01*
X48829842Y-56501435D02*
X48816373Y-56541841D01*
X48816373Y-56541841D02*
X48816373Y-56568779D01*
X48816373Y-56568779D02*
X48829842Y-56609185D01*
X48829842Y-56609185D02*
X48883717Y-56663059D01*
X48883717Y-56663059D02*
X48924123Y-56676528D01*
X48924123Y-56676528D02*
X48951060Y-56676528D01*
X48951060Y-56676528D02*
X48991466Y-56663059D01*
X48991466Y-56663059D02*
X49058810Y-56595716D01*
X49058810Y-56595716D02*
X49072278Y-56555310D01*
X49072278Y-56555310D02*
X49072278Y-56528372D01*
X49072278Y-56528372D02*
X49058810Y-56487966D01*
X49058810Y-56487966D02*
X49004935Y-56434092D01*
X49004935Y-56434092D02*
X48964529Y-56420623D01*
X48964529Y-56420623D02*
X48937591Y-56420623D01*
X48937591Y-56420623D02*
X48897185Y-56434092D01*
X71017857Y-50004847D02*
X70884524Y-49814371D01*
X70789286Y-50004847D02*
X70789286Y-49604847D01*
X70789286Y-49604847D02*
X70941667Y-49604847D01*
X70941667Y-49604847D02*
X70979762Y-49623895D01*
X70979762Y-49623895D02*
X70998809Y-49642942D01*
X70998809Y-49642942D02*
X71017857Y-49681038D01*
X71017857Y-49681038D02*
X71017857Y-49738180D01*
X71017857Y-49738180D02*
X70998809Y-49776276D01*
X70998809Y-49776276D02*
X70979762Y-49795323D01*
X70979762Y-49795323D02*
X70941667Y-49814371D01*
X70941667Y-49814371D02*
X70789286Y-49814371D01*
X71398809Y-49623895D02*
X71360714Y-49604847D01*
X71360714Y-49604847D02*
X71303571Y-49604847D01*
X71303571Y-49604847D02*
X71246428Y-49623895D01*
X71246428Y-49623895D02*
X71208333Y-49661990D01*
X71208333Y-49661990D02*
X71189286Y-49700085D01*
X71189286Y-49700085D02*
X71170238Y-49776276D01*
X71170238Y-49776276D02*
X71170238Y-49833419D01*
X71170238Y-49833419D02*
X71189286Y-49909609D01*
X71189286Y-49909609D02*
X71208333Y-49947704D01*
X71208333Y-49947704D02*
X71246428Y-49985800D01*
X71246428Y-49985800D02*
X71303571Y-50004847D01*
X71303571Y-50004847D02*
X71341667Y-50004847D01*
X71341667Y-50004847D02*
X71398809Y-49985800D01*
X71398809Y-49985800D02*
X71417857Y-49966752D01*
X71417857Y-49966752D02*
X71417857Y-49833419D01*
X71417857Y-49833419D02*
X71341667Y-49833419D01*
X71722619Y-49795323D02*
X71779762Y-49814371D01*
X71779762Y-49814371D02*
X71798809Y-49833419D01*
X71798809Y-49833419D02*
X71817857Y-49871514D01*
X71817857Y-49871514D02*
X71817857Y-49928657D01*
X71817857Y-49928657D02*
X71798809Y-49966752D01*
X71798809Y-49966752D02*
X71779762Y-49985800D01*
X71779762Y-49985800D02*
X71741667Y-50004847D01*
X71741667Y-50004847D02*
X71589286Y-50004847D01*
X71589286Y-50004847D02*
X71589286Y-49604847D01*
X71589286Y-49604847D02*
X71722619Y-49604847D01*
X71722619Y-49604847D02*
X71760714Y-49623895D01*
X71760714Y-49623895D02*
X71779762Y-49642942D01*
X71779762Y-49642942D02*
X71798809Y-49681038D01*
X71798809Y-49681038D02*
X71798809Y-49719133D01*
X71798809Y-49719133D02*
X71779762Y-49757228D01*
X71779762Y-49757228D02*
X71760714Y-49776276D01*
X71760714Y-49776276D02*
X71722619Y-49795323D01*
X71722619Y-49795323D02*
X71589286Y-49795323D01*
X72198809Y-50004847D02*
X71970238Y-50004847D01*
X72084524Y-50004847D02*
X72084524Y-49604847D01*
X72084524Y-49604847D02*
X72046428Y-49661990D01*
X72046428Y-49661990D02*
X72008333Y-49700085D01*
X72008333Y-49700085D02*
X71970238Y-49719133D01*
X72446428Y-49604847D02*
X72484523Y-49604847D01*
X72484523Y-49604847D02*
X72522619Y-49623895D01*
X72522619Y-49623895D02*
X72541666Y-49642942D01*
X72541666Y-49642942D02*
X72560714Y-49681038D01*
X72560714Y-49681038D02*
X72579761Y-49757228D01*
X72579761Y-49757228D02*
X72579761Y-49852466D01*
X72579761Y-49852466D02*
X72560714Y-49928657D01*
X72560714Y-49928657D02*
X72541666Y-49966752D01*
X72541666Y-49966752D02*
X72522619Y-49985800D01*
X72522619Y-49985800D02*
X72484523Y-50004847D01*
X72484523Y-50004847D02*
X72446428Y-50004847D01*
X72446428Y-50004847D02*
X72408333Y-49985800D01*
X72408333Y-49985800D02*
X72389285Y-49966752D01*
X72389285Y-49966752D02*
X72370238Y-49928657D01*
X72370238Y-49928657D02*
X72351190Y-49852466D01*
X72351190Y-49852466D02*
X72351190Y-49757228D01*
X72351190Y-49757228D02*
X72370238Y-49681038D01*
X72370238Y-49681038D02*
X72389285Y-49642942D01*
X72389285Y-49642942D02*
X72408333Y-49623895D01*
X72408333Y-49623895D02*
X72446428Y-49604847D01*
X112542942Y-60238095D02*
X112523895Y-60276190D01*
X112523895Y-60276190D02*
X112485800Y-60314285D01*
X112485800Y-60314285D02*
X112428657Y-60371428D01*
X112428657Y-60371428D02*
X112409609Y-60409523D01*
X112409609Y-60409523D02*
X112409609Y-60447619D01*
X112504847Y-60428571D02*
X112485800Y-60466666D01*
X112485800Y-60466666D02*
X112447704Y-60504761D01*
X112447704Y-60504761D02*
X112371514Y-60523809D01*
X112371514Y-60523809D02*
X112238180Y-60523809D01*
X112238180Y-60523809D02*
X112161990Y-60504761D01*
X112161990Y-60504761D02*
X112123895Y-60466666D01*
X112123895Y-60466666D02*
X112104847Y-60428571D01*
X112104847Y-60428571D02*
X112104847Y-60352380D01*
X112104847Y-60352380D02*
X112123895Y-60314285D01*
X112123895Y-60314285D02*
X112161990Y-60276190D01*
X112161990Y-60276190D02*
X112238180Y-60257142D01*
X112238180Y-60257142D02*
X112371514Y-60257142D01*
X112371514Y-60257142D02*
X112447704Y-60276190D01*
X112447704Y-60276190D02*
X112485800Y-60314285D01*
X112485800Y-60314285D02*
X112504847Y-60352380D01*
X112504847Y-60352380D02*
X112504847Y-60428571D01*
X112142942Y-60104761D02*
X112123895Y-60085713D01*
X112123895Y-60085713D02*
X112104847Y-60047618D01*
X112104847Y-60047618D02*
X112104847Y-59952380D01*
X112104847Y-59952380D02*
X112123895Y-59914285D01*
X112123895Y-59914285D02*
X112142942Y-59895237D01*
X112142942Y-59895237D02*
X112181038Y-59876190D01*
X112181038Y-59876190D02*
X112219133Y-59876190D01*
X112219133Y-59876190D02*
X112276276Y-59895237D01*
X112276276Y-59895237D02*
X112504847Y-60123809D01*
X112504847Y-60123809D02*
X112504847Y-59876190D01*
X74568272Y-68281706D02*
X74587319Y-68224563D01*
X74587319Y-68224563D02*
X74587319Y-68129325D01*
X74587319Y-68129325D02*
X74568272Y-68091230D01*
X74568272Y-68091230D02*
X74549224Y-68072182D01*
X74549224Y-68072182D02*
X74511129Y-68053135D01*
X74511129Y-68053135D02*
X74473033Y-68053135D01*
X74473033Y-68053135D02*
X74434938Y-68072182D01*
X74434938Y-68072182D02*
X74415891Y-68091230D01*
X74415891Y-68091230D02*
X74396843Y-68129325D01*
X74396843Y-68129325D02*
X74377795Y-68205516D01*
X74377795Y-68205516D02*
X74358748Y-68243611D01*
X74358748Y-68243611D02*
X74339700Y-68262658D01*
X74339700Y-68262658D02*
X74301605Y-68281706D01*
X74301605Y-68281706D02*
X74263510Y-68281706D01*
X74263510Y-68281706D02*
X74225414Y-68262658D01*
X74225414Y-68262658D02*
X74206367Y-68243611D01*
X74206367Y-68243611D02*
X74187319Y-68205516D01*
X74187319Y-68205516D02*
X74187319Y-68110277D01*
X74187319Y-68110277D02*
X74206367Y-68053135D01*
X74187319Y-67919802D02*
X74587319Y-67824564D01*
X74587319Y-67824564D02*
X74301605Y-67748373D01*
X74301605Y-67748373D02*
X74587319Y-67672183D01*
X74587319Y-67672183D02*
X74187319Y-67576945D01*
X74587319Y-67215040D02*
X74587319Y-67443611D01*
X74587319Y-67329325D02*
X74187319Y-67329325D01*
X74187319Y-67329325D02*
X74244462Y-67367421D01*
X74244462Y-67367421D02*
X74282557Y-67405516D01*
X74282557Y-67405516D02*
X74301605Y-67443611D01*
X74187319Y-66872183D02*
X74187319Y-66948373D01*
X74187319Y-66948373D02*
X74206367Y-66986469D01*
X74206367Y-66986469D02*
X74225414Y-67005516D01*
X74225414Y-67005516D02*
X74282557Y-67043611D01*
X74282557Y-67043611D02*
X74358748Y-67062659D01*
X74358748Y-67062659D02*
X74511129Y-67062659D01*
X74511129Y-67062659D02*
X74549224Y-67043611D01*
X74549224Y-67043611D02*
X74568272Y-67024564D01*
X74568272Y-67024564D02*
X74587319Y-66986469D01*
X74587319Y-66986469D02*
X74587319Y-66910278D01*
X74587319Y-66910278D02*
X74568272Y-66872183D01*
X74568272Y-66872183D02*
X74549224Y-66853135D01*
X74549224Y-66853135D02*
X74511129Y-66834088D01*
X74511129Y-66834088D02*
X74415891Y-66834088D01*
X74415891Y-66834088D02*
X74377795Y-66853135D01*
X74377795Y-66853135D02*
X74358748Y-66872183D01*
X74358748Y-66872183D02*
X74339700Y-66910278D01*
X74339700Y-66910278D02*
X74339700Y-66986469D01*
X74339700Y-66986469D02*
X74358748Y-67024564D01*
X74358748Y-67024564D02*
X74377795Y-67043611D01*
X74377795Y-67043611D02*
X74415891Y-67062659D01*
X58754847Y-32095237D02*
X58354847Y-32095237D01*
X58354847Y-32095237D02*
X58354847Y-31999999D01*
X58354847Y-31999999D02*
X58373895Y-31942856D01*
X58373895Y-31942856D02*
X58411990Y-31904761D01*
X58411990Y-31904761D02*
X58450085Y-31885714D01*
X58450085Y-31885714D02*
X58526276Y-31866666D01*
X58526276Y-31866666D02*
X58583419Y-31866666D01*
X58583419Y-31866666D02*
X58659609Y-31885714D01*
X58659609Y-31885714D02*
X58697704Y-31904761D01*
X58697704Y-31904761D02*
X58735800Y-31942856D01*
X58735800Y-31942856D02*
X58754847Y-31999999D01*
X58754847Y-31999999D02*
X58754847Y-32095237D01*
X58526276Y-31638095D02*
X58507228Y-31676190D01*
X58507228Y-31676190D02*
X58488180Y-31695237D01*
X58488180Y-31695237D02*
X58450085Y-31714285D01*
X58450085Y-31714285D02*
X58431038Y-31714285D01*
X58431038Y-31714285D02*
X58392942Y-31695237D01*
X58392942Y-31695237D02*
X58373895Y-31676190D01*
X58373895Y-31676190D02*
X58354847Y-31638095D01*
X58354847Y-31638095D02*
X58354847Y-31561904D01*
X58354847Y-31561904D02*
X58373895Y-31523809D01*
X58373895Y-31523809D02*
X58392942Y-31504761D01*
X58392942Y-31504761D02*
X58431038Y-31485714D01*
X58431038Y-31485714D02*
X58450085Y-31485714D01*
X58450085Y-31485714D02*
X58488180Y-31504761D01*
X58488180Y-31504761D02*
X58507228Y-31523809D01*
X58507228Y-31523809D02*
X58526276Y-31561904D01*
X58526276Y-31561904D02*
X58526276Y-31638095D01*
X58526276Y-31638095D02*
X58545323Y-31676190D01*
X58545323Y-31676190D02*
X58564371Y-31695237D01*
X58564371Y-31695237D02*
X58602466Y-31714285D01*
X58602466Y-31714285D02*
X58678657Y-31714285D01*
X58678657Y-31714285D02*
X58716752Y-31695237D01*
X58716752Y-31695237D02*
X58735800Y-31676190D01*
X58735800Y-31676190D02*
X58754847Y-31638095D01*
X58754847Y-31638095D02*
X58754847Y-31561904D01*
X58754847Y-31561904D02*
X58735800Y-31523809D01*
X58735800Y-31523809D02*
X58716752Y-31504761D01*
X58716752Y-31504761D02*
X58678657Y-31485714D01*
X58678657Y-31485714D02*
X58602466Y-31485714D01*
X58602466Y-31485714D02*
X58564371Y-31504761D01*
X58564371Y-31504761D02*
X58545323Y-31523809D01*
X58545323Y-31523809D02*
X58526276Y-31561904D01*
X56464286Y-48254847D02*
X56464286Y-47854847D01*
X56464286Y-47854847D02*
X56559524Y-47854847D01*
X56559524Y-47854847D02*
X56616667Y-47873895D01*
X56616667Y-47873895D02*
X56654762Y-47911990D01*
X56654762Y-47911990D02*
X56673809Y-47950085D01*
X56673809Y-47950085D02*
X56692857Y-48026276D01*
X56692857Y-48026276D02*
X56692857Y-48083419D01*
X56692857Y-48083419D02*
X56673809Y-48159609D01*
X56673809Y-48159609D02*
X56654762Y-48197704D01*
X56654762Y-48197704D02*
X56616667Y-48235800D01*
X56616667Y-48235800D02*
X56559524Y-48254847D01*
X56559524Y-48254847D02*
X56464286Y-48254847D01*
X57073809Y-48254847D02*
X56845238Y-48254847D01*
X56959524Y-48254847D02*
X56959524Y-47854847D01*
X56959524Y-47854847D02*
X56921428Y-47911990D01*
X56921428Y-47911990D02*
X56883333Y-47950085D01*
X56883333Y-47950085D02*
X56845238Y-47969133D01*
X57416666Y-47988180D02*
X57416666Y-48254847D01*
X57321428Y-47835800D02*
X57226190Y-48121514D01*
X57226190Y-48121514D02*
X57473809Y-48121514D01*
X84691667Y-23035800D02*
X84748810Y-23054847D01*
X84748810Y-23054847D02*
X84844048Y-23054847D01*
X84844048Y-23054847D02*
X84882143Y-23035800D01*
X84882143Y-23035800D02*
X84901191Y-23016752D01*
X84901191Y-23016752D02*
X84920238Y-22978657D01*
X84920238Y-22978657D02*
X84920238Y-22940561D01*
X84920238Y-22940561D02*
X84901191Y-22902466D01*
X84901191Y-22902466D02*
X84882143Y-22883419D01*
X84882143Y-22883419D02*
X84844048Y-22864371D01*
X84844048Y-22864371D02*
X84767857Y-22845323D01*
X84767857Y-22845323D02*
X84729762Y-22826276D01*
X84729762Y-22826276D02*
X84710715Y-22807228D01*
X84710715Y-22807228D02*
X84691667Y-22769133D01*
X84691667Y-22769133D02*
X84691667Y-22731038D01*
X84691667Y-22731038D02*
X84710715Y-22692942D01*
X84710715Y-22692942D02*
X84729762Y-22673895D01*
X84729762Y-22673895D02*
X84767857Y-22654847D01*
X84767857Y-22654847D02*
X84863096Y-22654847D01*
X84863096Y-22654847D02*
X84920238Y-22673895D01*
X85053571Y-22654847D02*
X85148809Y-23054847D01*
X85148809Y-23054847D02*
X85225000Y-22769133D01*
X85225000Y-22769133D02*
X85301190Y-23054847D01*
X85301190Y-23054847D02*
X85396429Y-22654847D01*
X85510714Y-22654847D02*
X85758333Y-22654847D01*
X85758333Y-22654847D02*
X85625000Y-22807228D01*
X85625000Y-22807228D02*
X85682143Y-22807228D01*
X85682143Y-22807228D02*
X85720238Y-22826276D01*
X85720238Y-22826276D02*
X85739286Y-22845323D01*
X85739286Y-22845323D02*
X85758333Y-22883419D01*
X85758333Y-22883419D02*
X85758333Y-22978657D01*
X85758333Y-22978657D02*
X85739286Y-23016752D01*
X85739286Y-23016752D02*
X85720238Y-23035800D01*
X85720238Y-23035800D02*
X85682143Y-23054847D01*
X85682143Y-23054847D02*
X85567857Y-23054847D01*
X85567857Y-23054847D02*
X85529762Y-23035800D01*
X85529762Y-23035800D02*
X85510714Y-23016752D01*
D12*
%TO.C,RGB1*%
X110752734Y-31029086D02*
X112752734Y-31029086D01*
X110752734Y-33029086D02*
X110752734Y-31029086D01*
X112752734Y-31029086D02*
X112752734Y-33029086D01*
X112752734Y-33029086D02*
X110752734Y-33029086D01*
X110380468Y-33553086D02*
G75*
G02*
X110077000Y-33553086I-151734J0D01*
G01*
X110077000Y-33553086D02*
G75*
G02*
X110380468Y-33553086I151734J0D01*
G01*
%TO.C,RGB11*%
X67543091Y-50211695D02*
X69543091Y-50211695D01*
X67543091Y-52211695D02*
X67543091Y-50211695D01*
X69543091Y-50211695D02*
X69543091Y-52211695D01*
X69543091Y-52211695D02*
X67543091Y-52211695D01*
X67170825Y-52735695D02*
G75*
G02*
X66867357Y-52735695I-151734J0D01*
G01*
X66867357Y-52735695D02*
G75*
G02*
X67170825Y-52735695I151734J0D01*
G01*
%TO.C,D15*%
X90574134Y-36547323D02*
X89174134Y-36547323D01*
X90584134Y-38867323D02*
X89174134Y-38867323D01*
X91194134Y-39147323D02*
X90714134Y-39147323D01*
X90954134Y-38817323D01*
X91194134Y-39147323D01*
G36*
X91194134Y-39147323D02*
G01*
X90714134Y-39147323D01*
X90954134Y-38817323D01*
X91194134Y-39147323D01*
G37*
%TO.C,RGB6*%
X110752734Y-51604086D02*
X112752734Y-51604086D01*
X110752734Y-53604086D02*
X110752734Y-51604086D01*
X112752734Y-51604086D02*
X112752734Y-53604086D01*
X112752734Y-53604086D02*
X110752734Y-53604086D01*
X110380468Y-54128086D02*
G75*
G02*
X110077000Y-54128086I-151734J0D01*
G01*
X110077000Y-54128086D02*
G75*
G02*
X110380468Y-54128086I151734J0D01*
G01*
%TO.C,D4*%
X29915000Y-63834247D02*
X29915000Y-65034247D01*
X31875000Y-63834247D02*
X29915000Y-63834247D01*
X31875000Y-65034247D02*
X29915000Y-65034247D01*
%TO.C,RGB5*%
X110752735Y-41404087D02*
X112752735Y-41404087D01*
X110752735Y-43404087D02*
X110752735Y-41404087D01*
X112752735Y-41404087D02*
X112752735Y-43404087D01*
X112752735Y-43404087D02*
X110752735Y-43404087D01*
X110380469Y-43928087D02*
G75*
G02*
X110077001Y-43928087I-151734J0D01*
G01*
X110077001Y-43928087D02*
G75*
G02*
X110380469Y-43928087I151734J0D01*
G01*
%TO.C,T2*%
X24114999Y-57405000D02*
X24114999Y-57491724D01*
X24114999Y-57405000D02*
X24114999Y-58795000D01*
X24114999Y-57405000D02*
X24239999Y-57405000D01*
X24114999Y-58708276D02*
X24114999Y-58795000D01*
X24114999Y-58795000D02*
X24239999Y-58795000D01*
X24799999Y-57405000D02*
X25484999Y-57405000D01*
X25484999Y-57405000D02*
X25484999Y-58100000D01*
%TO.C,RGB15*%
X42338832Y-57584448D02*
X44338832Y-57584448D01*
X42338832Y-59584448D02*
X42338832Y-57584448D01*
X44338832Y-57584448D02*
X44338832Y-59584448D01*
X44338832Y-59584448D02*
X42338832Y-59584448D01*
X41966566Y-60108448D02*
G75*
G02*
X41663098Y-60108448I-151734J0D01*
G01*
X41663098Y-60108448D02*
G75*
G02*
X41966566Y-60108448I151734J0D01*
G01*
%TO.C,D1*%
X27725000Y-66800000D02*
X29685000Y-66800000D01*
X27725000Y-68000000D02*
X29685000Y-68000000D01*
X29685000Y-68000000D02*
X29685000Y-66800000D01*
%TO.C,D2*%
X113950000Y-66475000D02*
X113950000Y-64515000D01*
X115150000Y-64515000D02*
X113950000Y-64515000D01*
X115150000Y-66475000D02*
X115150000Y-64515000D01*
%TO.C,D5*%
X110125000Y-65450000D02*
X112085000Y-65450000D01*
X110125000Y-66650000D02*
X112085000Y-66650000D01*
X112085000Y-66650000D02*
X112085000Y-65450000D01*
%TO.C,RGB8*%
X98852735Y-31116586D02*
X100852735Y-31116586D01*
X98852735Y-33116586D02*
X98852735Y-31116586D01*
X100852735Y-31116586D02*
X100852735Y-33116586D01*
X100852735Y-33116586D02*
X98852735Y-33116586D01*
X98480469Y-33640586D02*
G75*
G02*
X98177001Y-33640586I-151734J0D01*
G01*
X98177001Y-33640586D02*
G75*
G02*
X98480469Y-33640586I151734J0D01*
G01*
%TO.C,RGB13*%
X51738830Y-57584448D02*
X53738830Y-57584448D01*
X51738830Y-59584448D02*
X51738830Y-57584448D01*
X53738830Y-57584448D02*
X53738830Y-59584448D01*
X53738830Y-59584448D02*
X51738830Y-59584448D01*
X51366564Y-60108448D02*
G75*
G02*
X51063096Y-60108448I-151734J0D01*
G01*
X51063096Y-60108448D02*
G75*
G02*
X51366564Y-60108448I151734J0D01*
G01*
%TO.C,T3*%
X118230000Y-57690000D02*
X118925000Y-57690000D01*
X118230000Y-58375000D02*
X118230000Y-57690000D01*
X118230000Y-59060000D02*
X118230000Y-58935000D01*
X118230000Y-59060000D02*
X118316724Y-59060000D01*
X118230000Y-59060000D02*
X119620000Y-59060000D01*
X119533276Y-59060000D02*
X119620000Y-59060000D01*
X119620000Y-59060000D02*
X119620000Y-58935000D01*
%TO.C,D9*%
X55590000Y-37810001D02*
X55590000Y-36400001D01*
X57910000Y-37800001D02*
X57910000Y-36400001D01*
X55640000Y-38180001D02*
X55310000Y-38420001D01*
X55310000Y-37940001D01*
X55640000Y-38180001D01*
G36*
X55640000Y-38180001D02*
G01*
X55310000Y-38420001D01*
X55310000Y-37940001D01*
X55640000Y-38180001D01*
G37*
%TO.C,D6*%
X108675000Y-63975000D02*
X110635000Y-63975000D01*
X108675000Y-65175000D02*
X110635000Y-65175000D01*
X110635000Y-65175000D02*
X110635000Y-63975000D01*
D13*
%TO.C,SW2*%
X59222471Y-35382897D02*
X59222471Y-39882897D01*
X60592471Y-40182897D02*
X62952471Y-40182897D01*
X62952471Y-35082897D02*
X60592471Y-35082897D01*
X64322471Y-35382897D02*
X64322471Y-39882897D01*
D14*
X59997471Y-41882897D02*
G75*
G02*
X59797471Y-41882897I-100000J0D01*
G01*
X59797471Y-41882897D02*
G75*
G02*
X59997471Y-41882897I100000J0D01*
G01*
D12*
%TO.C,RGB14*%
X47038830Y-62284448D02*
X49038830Y-62284448D01*
X47038830Y-64284448D02*
X47038830Y-62284448D01*
X49038830Y-62284448D02*
X49038830Y-64284448D01*
X49038830Y-64284448D02*
X47038830Y-64284448D01*
X46666564Y-64808448D02*
G75*
G02*
X46363096Y-64808448I-151734J0D01*
G01*
X46363096Y-64808448D02*
G75*
G02*
X46666564Y-64808448I151734J0D01*
G01*
%TO.C,D13*%
X55890000Y-42240000D02*
X57300000Y-42240000D01*
X55900000Y-44560000D02*
X57300000Y-44560000D01*
X55520000Y-42290000D02*
X55280000Y-41960000D01*
X55760000Y-41960000D01*
X55520000Y-42290000D01*
G36*
X55520000Y-42290000D02*
G01*
X55280000Y-41960000D01*
X55760000Y-41960000D01*
X55520000Y-42290000D01*
G37*
D13*
%TO.C,SW4*%
X77245603Y-35382897D02*
X77245603Y-39882897D01*
X78615603Y-40182897D02*
X80975603Y-40182897D01*
X80975603Y-35082897D02*
X78615603Y-35082897D01*
X82345603Y-35382897D02*
X82345603Y-39882897D01*
D14*
X78020603Y-41882897D02*
G75*
G02*
X77820603Y-41882897I-100000J0D01*
G01*
X77820603Y-41882897D02*
G75*
G02*
X78020603Y-41882897I100000J0D01*
G01*
D12*
%TO.C,D12*%
X84865000Y-39585001D02*
X84865000Y-38175001D01*
X87185000Y-39575001D02*
X87185000Y-38175001D01*
X84915000Y-39955001D02*
X84585000Y-40195001D01*
X84585000Y-39715001D01*
X84915000Y-39955001D01*
G36*
X84915000Y-39955001D02*
G01*
X84585000Y-40195001D01*
X84585000Y-39715001D01*
X84915000Y-39955001D01*
G37*
%TO.C,RGB9*%
X75043093Y-50211695D02*
X77043093Y-50211695D01*
X75043093Y-52211695D02*
X75043093Y-50211695D01*
X77043093Y-50211695D02*
X77043093Y-52211695D01*
X77043093Y-52211695D02*
X75043093Y-52211695D01*
X74670827Y-52735695D02*
G75*
G02*
X74367359Y-52735695I-151734J0D01*
G01*
X74367359Y-52735695D02*
G75*
G02*
X74670827Y-52735695I151734J0D01*
G01*
%TO.C,RGB7*%
X98852735Y-41316587D02*
X100852735Y-41316587D01*
X98852735Y-43316587D02*
X98852735Y-41316587D01*
X100852735Y-41316587D02*
X100852735Y-43316587D01*
X100852735Y-43316587D02*
X98852735Y-43316587D01*
X98480469Y-43840587D02*
G75*
G02*
X98177001Y-43840587I-151734J0D01*
G01*
X98177001Y-43840587D02*
G75*
G02*
X98480469Y-43840587I151734J0D01*
G01*
%TO.C,RGB2*%
X110752735Y-20829087D02*
X112752735Y-20829087D01*
X110752735Y-22829087D02*
X110752735Y-20829087D01*
X112752735Y-20829087D02*
X112752735Y-22829087D01*
X112752735Y-22829087D02*
X110752735Y-22829087D01*
X110380469Y-23353087D02*
G75*
G02*
X110077001Y-23353087I-151734J0D01*
G01*
X110077001Y-23353087D02*
G75*
G02*
X110380469Y-23353087I151734J0D01*
G01*
D13*
%TO.C,SW15*%
X68230001Y-27956254D02*
X68230001Y-30316254D01*
X73030001Y-26586254D02*
X68530001Y-26586254D01*
X73030001Y-31686254D02*
X68530001Y-31686254D01*
X73330001Y-30316254D02*
X73330001Y-27956254D01*
D14*
X66630001Y-27261254D02*
G75*
G02*
X66430001Y-27261254I-100000J0D01*
G01*
X66430001Y-27261254D02*
G75*
G02*
X66630001Y-27261254I100000J0D01*
G01*
D12*
%TO.C,T4*%
X118230000Y-59765000D02*
X118925000Y-59765000D01*
X118230000Y-60450000D02*
X118230000Y-59765000D01*
X118230000Y-61135000D02*
X118230000Y-61010000D01*
X118230000Y-61135000D02*
X118316724Y-61135000D01*
X118230000Y-61135000D02*
X119620000Y-61135000D01*
X119533276Y-61135000D02*
X119620000Y-61135000D01*
X119620000Y-61135000D02*
X119620000Y-61010000D01*
%TO.C,RGB3*%
X122652735Y-41316586D02*
X124652735Y-41316586D01*
X122652735Y-43316586D02*
X122652735Y-41316586D01*
X124652735Y-41316586D02*
X124652735Y-43316586D01*
X124652735Y-43316586D02*
X122652735Y-43316586D01*
X122280469Y-43840586D02*
G75*
G02*
X121977001Y-43840586I-151734J0D01*
G01*
X121977001Y-43840586D02*
G75*
G02*
X122280469Y-43840586I151734J0D01*
G01*
%TO.C,D16*%
X90570689Y-33743012D02*
X89170689Y-33743012D01*
X90580689Y-36063012D02*
X89170689Y-36063012D01*
X91190689Y-36343012D02*
X90710689Y-36343012D01*
X90950689Y-36013012D01*
X91190689Y-36343012D01*
G36*
X91190689Y-36343012D02*
G01*
X90710689Y-36343012D01*
X90950689Y-36013012D01*
X91190689Y-36343012D01*
G37*
%TO.C,D3*%
X28513664Y-65318303D02*
X28513664Y-66518303D01*
X30473664Y-65318303D02*
X28513664Y-65318303D01*
X30473664Y-66518303D02*
X28513664Y-66518303D01*
%TO.C,RGB12*%
X63793092Y-50211695D02*
X65793092Y-50211695D01*
X63793092Y-52211695D02*
X63793092Y-50211695D01*
X65793092Y-50211695D02*
X65793092Y-52211695D01*
X65793092Y-52211695D02*
X63793092Y-52211695D01*
X63420826Y-52735695D02*
G75*
G02*
X63117358Y-52735695I-151734J0D01*
G01*
X63117358Y-52735695D02*
G75*
G02*
X63420826Y-52735695I151734J0D01*
G01*
%TO.C,Q1*%
X29052501Y-59950000D02*
X29052501Y-59300000D01*
X29052501Y-59950000D02*
X29052501Y-60600000D01*
X32172501Y-59950000D02*
X32172501Y-59300000D01*
X32172501Y-59950000D02*
X32172501Y-60600000D01*
X32452501Y-59027500D02*
X32122501Y-58787500D01*
X32452501Y-58547500D01*
X32452501Y-59027500D01*
G36*
X32452501Y-59027500D02*
G01*
X32122501Y-58787500D01*
X32452501Y-58547500D01*
X32452501Y-59027500D01*
G37*
D13*
%TO.C,SW1*%
X54222472Y-23882898D02*
X54222472Y-28382898D01*
X55592472Y-28682898D02*
X57952472Y-28682898D01*
X57952472Y-23582898D02*
X55592472Y-23582898D01*
X59322472Y-23882898D02*
X59322472Y-28382898D01*
D14*
X54997472Y-30382898D02*
G75*
G02*
X54797472Y-30382898I-100000J0D01*
G01*
X54797472Y-30382898D02*
G75*
G02*
X54997472Y-30382898I100000J0D01*
G01*
D12*
%TO.C,T1*%
X26190000Y-57405000D02*
X26190000Y-57491724D01*
X26190000Y-57405000D02*
X26190000Y-58795000D01*
X26190000Y-57405000D02*
X26315000Y-57405000D01*
X26190000Y-58708276D02*
X26190000Y-58795000D01*
X26190000Y-58795000D02*
X26315000Y-58795000D01*
X26875000Y-57405000D02*
X27560000Y-57405000D01*
X27560000Y-57405000D02*
X27560000Y-58100000D01*
%TO.C,D11*%
X83352500Y-31050000D02*
X83352500Y-32450000D01*
X85672500Y-31040000D02*
X85672500Y-32450000D01*
X85952500Y-30910000D02*
X85622500Y-30670000D01*
X85952500Y-30430000D01*
X85952500Y-30910000D01*
G36*
X85952500Y-30910000D02*
G01*
X85622500Y-30670000D01*
X85952500Y-30430000D01*
X85952500Y-30910000D01*
G37*
%TO.C,RGB4*%
X122652735Y-31116587D02*
X124652735Y-31116587D01*
X122652735Y-33116587D02*
X122652735Y-31116587D01*
X124652735Y-31116587D02*
X124652735Y-33116587D01*
X124652735Y-33116587D02*
X122652735Y-33116587D01*
X122280469Y-33640587D02*
G75*
G02*
X121977001Y-33640587I-151734J0D01*
G01*
X121977001Y-33640587D02*
G75*
G02*
X122280469Y-33640587I151734J0D01*
G01*
%TO.C,RGB16*%
X47038830Y-52884448D02*
X49038830Y-52884448D01*
X47038830Y-54884448D02*
X47038830Y-52884448D01*
X49038830Y-52884448D02*
X49038830Y-54884448D01*
X49038830Y-54884448D02*
X47038830Y-54884448D01*
X46666564Y-55408448D02*
G75*
G02*
X46363096Y-55408448I-151734J0D01*
G01*
X46363096Y-55408448D02*
G75*
G02*
X46666564Y-55408448I151734J0D01*
G01*
%TO.C,RGB10*%
X71293091Y-50211695D02*
X73293091Y-50211695D01*
X71293091Y-52211695D02*
X71293091Y-50211695D01*
X73293091Y-50211695D02*
X73293091Y-52211695D01*
X73293091Y-52211695D02*
X71293091Y-52211695D01*
X70920825Y-52735695D02*
G75*
G02*
X70617357Y-52735695I-151734J0D01*
G01*
X70617357Y-52735695D02*
G75*
G02*
X70920825Y-52735695I151734J0D01*
G01*
%TO.C,Q2*%
X108615000Y-58600000D02*
X108615000Y-57950000D01*
X108615000Y-58600000D02*
X108615000Y-59250000D01*
X111735000Y-58600000D02*
X111735000Y-57950000D01*
X111735000Y-58600000D02*
X111735000Y-59250000D01*
X112015000Y-57677500D02*
X111685000Y-57437500D01*
X112015000Y-57197500D01*
X112015000Y-57677500D01*
G36*
X112015000Y-57677500D02*
G01*
X111685000Y-57437500D01*
X112015000Y-57197500D01*
X112015000Y-57677500D01*
G37*
D13*
%TO.C,SW16*%
X68222472Y-70632898D02*
X68222472Y-66132898D01*
X69592472Y-70932898D02*
X71952472Y-70932898D01*
X71952472Y-65832898D02*
X69592472Y-65832898D01*
X73322472Y-70632898D02*
X73322472Y-66132898D01*
D14*
X72747472Y-64132898D02*
G75*
G02*
X72547472Y-64132898I-100000J0D01*
G01*
X72547472Y-64132898D02*
G75*
G02*
X72747472Y-64132898I100000J0D01*
G01*
D12*
%TO.C,D8*%
X55627499Y-31200000D02*
X55627499Y-32600000D01*
X57947499Y-31190000D02*
X57947499Y-32600000D01*
X58227499Y-31060000D02*
X57897499Y-30820000D01*
X58227499Y-30580000D01*
X58227499Y-31060000D01*
G36*
X58227499Y-31060000D02*
G01*
X57897499Y-30820000D01*
X58227499Y-30580000D01*
X58227499Y-31060000D01*
G37*
%TO.C,D14*%
X55890000Y-45090000D02*
X57300000Y-45090000D01*
X55900000Y-47410000D02*
X57300000Y-47410000D01*
X55520000Y-45140000D02*
X55280000Y-44810000D01*
X55760000Y-44810000D01*
X55520000Y-45140000D01*
G36*
X55520000Y-45140000D02*
G01*
X55280000Y-44810000D01*
X55760000Y-44810000D01*
X55520000Y-45140000D01*
G37*
D13*
%TO.C,SW3*%
X82245604Y-23882897D02*
X82245604Y-28382897D01*
X83615604Y-28682897D02*
X85975604Y-28682897D01*
X85975604Y-23582897D02*
X83615604Y-23582897D01*
X87345604Y-23882897D02*
X87345604Y-28382897D01*
D14*
X83020604Y-30382897D02*
G75*
G02*
X82820604Y-30382897I-100000J0D01*
G01*
X82820604Y-30382897D02*
G75*
G02*
X83020604Y-30382897I100000J0D01*
G01*
%TD*%
M02*
