%TF.GenerationSoftware,KiCad,Pcbnew,8.0.2*%
%TF.CreationDate,2025-05-18T15:38:24-07:00*%
%TF.ProjectId,PGS_Main_Board,5047535f-4d61-4696-9e5f-426f6172642e,rev?*%
%TF.SameCoordinates,Original*%
%TF.FileFunction,Copper,L3,Inr*%
%TF.FilePolarity,Positive*%
%FSLAX46Y46*%
G04 Gerber Fmt 4.6, Leading zero omitted, Abs format (unit mm)*
G04 Created by KiCad (PCBNEW 8.0.2) date 2025-05-18 15:38:24*
%MOMM*%
%LPD*%
G01*
G04 APERTURE LIST*
%TA.AperFunction,ComponentPad*%
%ADD10R,0.850000X0.850000*%
%TD*%
%TA.AperFunction,ComponentPad*%
%ADD11C,1.750000*%
%TD*%
%TA.AperFunction,ComponentPad*%
%ADD12R,1.350000X1.350000*%
%TD*%
%TA.AperFunction,ComponentPad*%
%ADD13O,1.350000X1.350000*%
%TD*%
%TA.AperFunction,ViaPad*%
%ADD14C,0.650000*%
%TD*%
%TA.AperFunction,ViaPad*%
%ADD15C,0.600000*%
%TD*%
%TA.AperFunction,ViaPad*%
%ADD16C,1.000000*%
%TD*%
%TA.AperFunction,Conductor*%
%ADD17C,0.450000*%
%TD*%
%TA.AperFunction,Conductor*%
%ADD18C,0.150000*%
%TD*%
G04 APERTURE END LIST*
D10*
%TO.N,LRA_L+*%
%TO.C,T2*%
X24799999Y-58100000D03*
%TD*%
D11*
%TO.N,I*%
%TO.C,SW13*%
X111752734Y-50004086D03*
%TO.N,Net-(D15B-A)*%
X111752734Y-45004086D03*
%TD*%
D10*
%TO.N,LRA_R-*%
%TO.C,T3*%
X118925000Y-58375000D03*
%TD*%
D11*
%TO.N,I*%
%TO.C,SW10*%
X111752734Y-29429086D03*
%TO.N,Net-(D16B-A)*%
X111752734Y-24429086D03*
%TD*%
%TO.N,I*%
%TO.C,SW12*%
X99852734Y-39716586D03*
%TO.N,Net-(D15A-A)*%
X99852734Y-34716586D03*
%TD*%
D10*
%TO.N,LRA_R+*%
%TO.C,T4*%
X118925000Y-60450000D03*
%TD*%
%TO.N,LRA_L-*%
%TO.C,T1*%
X26875000Y-58100000D03*
%TD*%
D11*
%TO.N,I*%
%TO.C,SW11*%
X123652735Y-39716585D03*
%TO.N,Net-(D16A-A)*%
X123652735Y-34716585D03*
%TD*%
%TO.N,H*%
%TO.C,SW9*%
X24406262Y-62529128D03*
%TO.N,Net-(D13A-A)*%
X29406262Y-62529128D03*
%TD*%
%TO.N,I*%
%TO.C,SW14*%
X112161814Y-62529128D03*
%TO.N,Net-(D15C-A)*%
X117161814Y-62529128D03*
%TD*%
D12*
%TO.N,SWD*%
%TO.C,J8*%
X73880000Y-14750000D03*
D13*
%TO.N,SWCLK*%
X71880000Y-14750000D03*
%TO.N,GND*%
X69880000Y-14750000D03*
%TO.N,VBUS_SYS*%
X67880000Y-14750000D03*
%TD*%
D14*
%TO.N,GND*%
X39900000Y-55275000D03*
D15*
X75175000Y-17775000D03*
D14*
X98250000Y-41075000D03*
X47951935Y-45721988D03*
X109840000Y-21350000D03*
D15*
X26875000Y-60625000D03*
X110800000Y-68225000D03*
D14*
X28925000Y-54875000D03*
D15*
X119850000Y-43450000D03*
D14*
X68267096Y-55085968D03*
X52450000Y-32400000D03*
X40400000Y-51000000D03*
X64250000Y-30950000D03*
X22475000Y-61500000D03*
X100225000Y-30575000D03*
X44100000Y-67275000D03*
D15*
X73025000Y-72800000D03*
D14*
X62330000Y-53150000D03*
D15*
X29500000Y-60800000D03*
D14*
X79100000Y-23250000D03*
X56075000Y-55175000D03*
D15*
X73286046Y-20062868D03*
D14*
X85975000Y-19975000D03*
D15*
X33225000Y-65175000D03*
D14*
X72076726Y-33719508D03*
X62225000Y-41950000D03*
X79300000Y-26850000D03*
X79300000Y-25450000D03*
X110030000Y-41650000D03*
X48900000Y-59125000D03*
X46425000Y-52950000D03*
X79300000Y-16575000D03*
X42700000Y-56950000D03*
X52800000Y-55450000D03*
X32950000Y-54250000D03*
X52125000Y-17625000D03*
X110125000Y-31075000D03*
X46725000Y-58675000D03*
X122075000Y-41275000D03*
D15*
X67375000Y-17875000D03*
X96800000Y-28400000D03*
D14*
X36250000Y-59975000D03*
X47490000Y-61610000D03*
X110150000Y-51625000D03*
X69564922Y-33184171D03*
X74386769Y-52455220D03*
X76578955Y-32188636D03*
X61050000Y-16425000D03*
D15*
X114500000Y-67475000D03*
X70800000Y-29850000D03*
D14*
X56175000Y-34225000D03*
X51250000Y-58420000D03*
X61025000Y-36600000D03*
D15*
X69225000Y-28500000D03*
D14*
X122050000Y-31950000D03*
%TO.N,+1V1*%
X71975326Y-28952300D03*
X69354722Y-24973919D03*
%TO.N,+3V3*%
X81365090Y-14753550D03*
X113375000Y-43400000D03*
X85425000Y-15075000D03*
X25850000Y-66275000D03*
X62525000Y-45475000D03*
X49650814Y-64112586D03*
X49740000Y-54910000D03*
X105825000Y-39575000D03*
X76638614Y-27253423D03*
X83900000Y-18925000D03*
X125275000Y-33075000D03*
D15*
X74037348Y-20375911D03*
X113420000Y-65375000D03*
D14*
X101274122Y-43098817D03*
X113375000Y-22875000D03*
X65866625Y-30097931D03*
X55725000Y-14775000D03*
X68547402Y-22734174D03*
X59550000Y-14925000D03*
X77850000Y-24600000D03*
X54075000Y-60175000D03*
X44920000Y-59390000D03*
X69663532Y-31984108D03*
X113375000Y-52725000D03*
X72068872Y-52777923D03*
X49030000Y-45750000D03*
X125320000Y-43180000D03*
X80650000Y-18250000D03*
X58378682Y-18598898D03*
X73479327Y-35198536D03*
X76251032Y-52815865D03*
X75046098Y-30459670D03*
D16*
X69372110Y-48897110D03*
D14*
X101525000Y-33275000D03*
X112075000Y-33150000D03*
D15*
%TO.N,LRA_L*%
X34975000Y-57650000D03*
X38275000Y-53250000D03*
X71475000Y-24150000D03*
%TO.N,LRA_R*%
X117125000Y-31900000D03*
X84150000Y-22550000D03*
X88875000Y-31775000D03*
X118575000Y-45900000D03*
X106475000Y-27850000D03*
X119150000Y-47150000D03*
X73440385Y-19213606D03*
%TO.N,LRA_L+*%
X28125000Y-66200000D03*
%TO.N,LRA_L-*%
X32006871Y-66682792D03*
X30525000Y-59525000D03*
%TO.N,LRA_R+*%
X112225000Y-66150000D03*
%TO.N,LRA_R-*%
X109325000Y-66000000D03*
D14*
%TO.N,C*%
X60319510Y-32782498D03*
D15*
X86700000Y-35425000D03*
D14*
%TO.N,B*%
X60992023Y-33487343D03*
D15*
X86222475Y-36115419D03*
D14*
%TO.N,T_L_OUT*%
X57536562Y-27896280D03*
D15*
%TO.N,A*%
X86668661Y-36930195D03*
D14*
X61025000Y-34450000D03*
%TO.N,STICK_L_BTN_OUT*%
X55525000Y-41275000D03*
%TO.N,T_ZL_OUT*%
X58450000Y-27950000D03*
D15*
%TO.N,E*%
X86791524Y-34162545D03*
D14*
X60307336Y-30986480D03*
%TO.N,D*%
X60250000Y-31900000D03*
D15*
X86075000Y-34800000D03*
D14*
%TO.N,T_R_OUT*%
X83100000Y-27700000D03*
%TO.N,T_ZR_OUT*%
X84025000Y-27700000D03*
%TO.N,STICK_R_BTN_OUT*%
X98520000Y-43300000D03*
%TO.N,Net-(D15B-A)*%
X94275000Y-38450000D03*
%TO.N,Net-(D15A-A)*%
X94275000Y-39375000D03*
%TO.N,Net-(D15C-A)*%
X94325000Y-37575000D03*
%TO.N,Net-(D16A-A)*%
X94425000Y-36425000D03*
%TO.N,Net-(D16B-A)*%
X94500000Y-35400000D03*
%TO.N,STICK_R_RGB_OUT*%
X75250000Y-52825000D03*
%TO.N,STICK_R_RGB_IN*%
X105150000Y-38975000D03*
%TO.N,STICK_R_X_OUT*%
X78550000Y-23925000D03*
D15*
X105200000Y-32675000D03*
X81725000Y-30825000D03*
X87500000Y-33675000D03*
D14*
%TO.N,G*%
X96175000Y-42175000D03*
D15*
X73862044Y-21346342D03*
D14*
X82875000Y-24425000D03*
D15*
%TO.N,STICK_R_Y_OUT*%
X87650000Y-32800000D03*
X106050000Y-32650000D03*
D14*
X79450000Y-22450000D03*
D15*
X81775000Y-30025000D03*
D14*
%TO.N,I2C1_SDA*%
X67174766Y-45029946D03*
%TO.N,I2C1_SCL*%
X66213528Y-45601999D03*
%TO.N,STICK_L_Y_OUT*%
X59411053Y-29990164D03*
X75346347Y-22257866D03*
%TO.N,STICK_L_X_OUT*%
X59406486Y-30867142D03*
X75993081Y-24655612D03*
%TO.N,F*%
X58874258Y-39185445D03*
D15*
X55850000Y-28750000D03*
D14*
%TO.N,STICK_L_RGB_IN*%
X49650000Y-53175000D03*
%TO.N,SWCLK*%
X70100000Y-24550000D03*
%TO.N,SWD*%
X70614890Y-23792539D03*
D15*
%TO.N,I*%
X72732909Y-18806651D03*
X107875000Y-28025000D03*
X106475000Y-26975000D03*
X84100000Y-21650000D03*
X87775000Y-31175000D03*
%TO.N,H*%
X70904742Y-18806651D03*
X36675000Y-53825000D03*
X55675000Y-48950000D03*
X53200000Y-48375000D03*
X55000000Y-62825000D03*
X38125000Y-61800000D03*
X37700000Y-63475000D03*
X36636414Y-56219137D03*
X54650000Y-64225000D03*
%TO.N,USB_BOOT*%
X69120000Y-34520000D03*
D14*
%TO.N,I2C0_SCL*%
X69571181Y-18287000D03*
X83399696Y-20460690D03*
X57350000Y-18975000D03*
%TO.N,BTN_PWR*%
X67725000Y-65075000D03*
%TO.N,I2C0_SDA*%
X82598083Y-20810111D03*
X56600000Y-19525000D03*
X69552398Y-19150998D03*
D15*
%TO.N,Net-(U1-GPIO25)*%
X88375000Y-32400000D03*
X81825000Y-29225000D03*
X72506087Y-25231043D03*
%TD*%
D17*
%TO.N,+1V1*%
X69354722Y-26331696D02*
X71975326Y-28952300D01*
X69354722Y-24973919D02*
X69354722Y-26331696D01*
D18*
%TO.N,C*%
X76885052Y-41050000D02*
X82510052Y-35425000D01*
X60319510Y-32782498D02*
X61557498Y-32782498D01*
X62700000Y-38325000D02*
X65425000Y-41050000D01*
X65425000Y-41050000D02*
X76885052Y-41050000D01*
X82510052Y-35425000D02*
X86700000Y-35425000D01*
X61557498Y-32782498D02*
X62700000Y-33925000D01*
X62700000Y-33925000D02*
X62700000Y-38325000D01*
%TO.N,B*%
X82355026Y-36075000D02*
X86182056Y-36075000D01*
X61112343Y-33487343D02*
X62325000Y-34700000D01*
X77030026Y-41400000D02*
X82355026Y-36075000D01*
X65250000Y-41400000D02*
X77030026Y-41400000D01*
X62325000Y-34700000D02*
X62325000Y-38475000D01*
X60992023Y-33487343D02*
X61112343Y-33487343D01*
X62325000Y-38475000D02*
X65250000Y-41400000D01*
X86182056Y-36075000D02*
X86222475Y-36115419D01*
%TO.N,A*%
X82226109Y-36698891D02*
X86437357Y-36698891D01*
X77175000Y-41750000D02*
X82226109Y-36698891D01*
X61975000Y-35400000D02*
X61975000Y-38625000D01*
X61025000Y-34450000D02*
X61975000Y-35400000D01*
X86437357Y-36698891D02*
X86668661Y-36930195D01*
X65100000Y-41750000D02*
X77175000Y-41750000D01*
X61975000Y-38625000D02*
X65100000Y-41750000D01*
%TO.N,E*%
X60886480Y-30986480D02*
X60307336Y-30986480D01*
X86791524Y-34162545D02*
X86783754Y-34170315D01*
X63425000Y-33525000D02*
X60886480Y-30986480D01*
X86783754Y-34170315D02*
X82704685Y-34170315D01*
X82704685Y-34170315D02*
X76575000Y-40300000D01*
X76575000Y-40300000D02*
X65725000Y-40300000D01*
X65725000Y-40300000D02*
X63425000Y-38000000D01*
X63425000Y-38000000D02*
X63425000Y-33525000D01*
%TO.N,D*%
X63050000Y-33725000D02*
X61225000Y-31900000D01*
X86075000Y-34800000D02*
X82625000Y-34800000D01*
X61225000Y-31900000D02*
X60250000Y-31900000D01*
X82625000Y-34800000D02*
X76750000Y-40675000D01*
X65575000Y-40675000D02*
X63050000Y-38150000D01*
X76750000Y-40675000D02*
X65575000Y-40675000D01*
X63050000Y-38150000D02*
X63050000Y-33725000D01*
%TD*%
%TA.AperFunction,Conductor*%
%TO.N,GND*%
G36*
X69537882Y-13529851D02*
G01*
X69555895Y-13573338D01*
X69537882Y-13616825D01*
X69516612Y-13630685D01*
X69354012Y-13693677D01*
X69168875Y-13808308D01*
X69168869Y-13808313D01*
X69007947Y-13955012D01*
X69007939Y-13955020D01*
X68876718Y-14128787D01*
X68779650Y-14323723D01*
X68730863Y-14495192D01*
X68701637Y-14532089D01*
X68654880Y-14537513D01*
X68617983Y-14508287D01*
X68613665Y-14498679D01*
X68583122Y-14411394D01*
X68490147Y-14263424D01*
X68366576Y-14139853D01*
X68218606Y-14046878D01*
X68053657Y-13989159D01*
X68053656Y-13989158D01*
X68053651Y-13989157D01*
X67880003Y-13969593D01*
X67879997Y-13969593D01*
X67706349Y-13989157D01*
X67706348Y-13989157D01*
X67541396Y-14046877D01*
X67541392Y-14046879D01*
X67393422Y-14139854D01*
X67269854Y-14263422D01*
X67176879Y-14411392D01*
X67176877Y-14411396D01*
X67119157Y-14576348D01*
X67119157Y-14576349D01*
X67099593Y-14749997D01*
X67099593Y-14750002D01*
X67119157Y-14923650D01*
X67119157Y-14923651D01*
X67119158Y-14923656D01*
X67119159Y-14923657D01*
X67176878Y-15088606D01*
X67269853Y-15236576D01*
X67393424Y-15360147D01*
X67541394Y-15453122D01*
X67706343Y-15510841D01*
X67706346Y-15510841D01*
X67706348Y-15510842D01*
X67879997Y-15530407D01*
X67880000Y-15530407D01*
X67880003Y-15530407D01*
X68053650Y-15510842D01*
X68053651Y-15510842D01*
X68053652Y-15510841D01*
X68053657Y-15510841D01*
X68218606Y-15453122D01*
X68366576Y-15360147D01*
X68490147Y-15236576D01*
X68583122Y-15088606D01*
X68613663Y-15001324D01*
X68645027Y-14966228D01*
X68692023Y-14963589D01*
X68727121Y-14994954D01*
X68730863Y-15004808D01*
X68779650Y-15176274D01*
X68876718Y-15371212D01*
X69007939Y-15544979D01*
X69007947Y-15544987D01*
X69168869Y-15691686D01*
X69168875Y-15691691D01*
X69354013Y-15806323D01*
X69557064Y-15884985D01*
X69630000Y-15898619D01*
X69630000Y-15065686D01*
X69634394Y-15070080D01*
X69725606Y-15122741D01*
X69827339Y-15150000D01*
X69932661Y-15150000D01*
X70034394Y-15122741D01*
X70125606Y-15070080D01*
X70130000Y-15065686D01*
X70130000Y-15898619D01*
X70202935Y-15884985D01*
X70405986Y-15806323D01*
X70591124Y-15691691D01*
X70591130Y-15691686D01*
X70752052Y-15544987D01*
X70752060Y-15544979D01*
X70883281Y-15371212D01*
X70980349Y-15176274D01*
X71029136Y-15004808D01*
X71058362Y-14967910D01*
X71105118Y-14962486D01*
X71142016Y-14991712D01*
X71146335Y-15001321D01*
X71176878Y-15088606D01*
X71269853Y-15236576D01*
X71393424Y-15360147D01*
X71541394Y-15453122D01*
X71706343Y-15510841D01*
X71706346Y-15510841D01*
X71706348Y-15510842D01*
X71879997Y-15530407D01*
X71880000Y-15530407D01*
X71880003Y-15530407D01*
X72053650Y-15510842D01*
X72053651Y-15510842D01*
X72053652Y-15510841D01*
X72053657Y-15510841D01*
X72218606Y-15453122D01*
X72366576Y-15360147D01*
X72490147Y-15236576D01*
X72583122Y-15088606D01*
X72640841Y-14923657D01*
X72640842Y-14923650D01*
X72660407Y-14750002D01*
X72660407Y-14749997D01*
X72640842Y-14576349D01*
X72640842Y-14576348D01*
X72640841Y-14576346D01*
X72640841Y-14576343D01*
X72583122Y-14411394D01*
X72490147Y-14263424D01*
X72366576Y-14139853D01*
X72247602Y-14065097D01*
X73104500Y-14065097D01*
X73104500Y-15434896D01*
X73108125Y-15453120D01*
X73110331Y-15464213D01*
X73119227Y-15477527D01*
X73132542Y-15497457D01*
X73145034Y-15505803D01*
X73165787Y-15519669D01*
X73165789Y-15519669D01*
X73165790Y-15519670D01*
X73185240Y-15523538D01*
X73195101Y-15525500D01*
X74564898Y-15525499D01*
X74594213Y-15519669D01*
X74627457Y-15497457D01*
X74649669Y-15464213D01*
X74655500Y-15434899D01*
X74655499Y-14065102D01*
X74649669Y-14035787D01*
X74636353Y-14015857D01*
X74627457Y-14002542D01*
X74607423Y-13989157D01*
X74594213Y-13980331D01*
X74594211Y-13980330D01*
X74594209Y-13980329D01*
X74564902Y-13974500D01*
X73195103Y-13974500D01*
X73165787Y-13980331D01*
X73132542Y-14002542D01*
X73110329Y-14035789D01*
X73110329Y-14035790D01*
X73104500Y-14065097D01*
X72247602Y-14065097D01*
X72218606Y-14046878D01*
X72053657Y-13989159D01*
X72053656Y-13989158D01*
X72053651Y-13989157D01*
X71880003Y-13969593D01*
X71879997Y-13969593D01*
X71706349Y-13989157D01*
X71706348Y-13989157D01*
X71541396Y-14046877D01*
X71541392Y-14046879D01*
X71393422Y-14139854D01*
X71269854Y-14263422D01*
X71176879Y-14411392D01*
X71176878Y-14411393D01*
X71146337Y-14498674D01*
X71114971Y-14533771D01*
X71067975Y-14536410D01*
X71032878Y-14505044D01*
X71029136Y-14495191D01*
X70980349Y-14323725D01*
X70883281Y-14128787D01*
X70752060Y-13955020D01*
X70752052Y-13955012D01*
X70591130Y-13808313D01*
X70591124Y-13808308D01*
X70405986Y-13693676D01*
X70243389Y-13630686D01*
X70209345Y-13598180D01*
X70208258Y-13551123D01*
X70240764Y-13517079D01*
X70265603Y-13511839D01*
X73839016Y-13511840D01*
X73839020Y-13511842D01*
X73851249Y-13511842D01*
X73883592Y-13511842D01*
X73887613Y-13511973D01*
X74122987Y-13527401D01*
X74130954Y-13528450D01*
X74360326Y-13574075D01*
X74368095Y-13576156D01*
X74589554Y-13651333D01*
X74596967Y-13654403D01*
X74806743Y-13757855D01*
X74813679Y-13761860D01*
X74883200Y-13808313D01*
X75008138Y-13891796D01*
X75014520Y-13896693D01*
X75119953Y-13989157D01*
X75185771Y-14046879D01*
X75190350Y-14050894D01*
X75196032Y-14056577D01*
X75350212Y-14232388D01*
X75350225Y-14232402D01*
X75355120Y-14238780D01*
X75411877Y-14323725D01*
X75485051Y-14433241D01*
X75489073Y-14440208D01*
X75592502Y-14649949D01*
X75595581Y-14657382D01*
X75670753Y-14878846D01*
X75672834Y-14886616D01*
X75718453Y-15115976D01*
X75719503Y-15123952D01*
X75735005Y-15360528D01*
X75735137Y-15364549D01*
X75735137Y-18533175D01*
X75735133Y-18533905D01*
X75733972Y-18631574D01*
X75733973Y-18631579D01*
X75766051Y-18826663D01*
X75766051Y-18826664D01*
X75831645Y-19013169D01*
X75831647Y-19013173D01*
X75926766Y-19181874D01*
X75928751Y-19185393D01*
X76054386Y-19338047D01*
X76133701Y-19405803D01*
X76204712Y-19466466D01*
X76375120Y-19566714D01*
X76560395Y-19635722D01*
X76754861Y-19671376D01*
X76952566Y-19672586D01*
X77147455Y-19639314D01*
X77333559Y-19572578D01*
X77505182Y-19474423D01*
X77657066Y-19347854D01*
X77784562Y-19196747D01*
X77883765Y-19025729D01*
X77920583Y-18925000D01*
X83469196Y-18925000D01*
X83490280Y-19058125D01*
X83551471Y-19178220D01*
X83646779Y-19273528D01*
X83721445Y-19311572D01*
X83766874Y-19334719D01*
X83900000Y-19355804D01*
X84033126Y-19334719D01*
X84153220Y-19273528D01*
X84153221Y-19273528D01*
X84248528Y-19178221D01*
X84248528Y-19178220D01*
X84262398Y-19150998D01*
X84309719Y-19058126D01*
X84330804Y-18925000D01*
X84309719Y-18791874D01*
X84279224Y-18732024D01*
X84248528Y-18671779D01*
X84153220Y-18576471D01*
X84033125Y-18515280D01*
X83900000Y-18494196D01*
X83766874Y-18515280D01*
X83646779Y-18576471D01*
X83646779Y-18576472D01*
X83551472Y-18671779D01*
X83551471Y-18671779D01*
X83490280Y-18791874D01*
X83469196Y-18925000D01*
X77920583Y-18925000D01*
X77935889Y-18883123D01*
X77951638Y-18840037D01*
X77951640Y-18840029D01*
X77979826Y-18680804D01*
X77986102Y-18645354D01*
X77986122Y-18583102D01*
X77986136Y-18582987D01*
X77986136Y-18250000D01*
X80219196Y-18250000D01*
X80240280Y-18383125D01*
X80301471Y-18503220D01*
X80396779Y-18598528D01*
X80516279Y-18659416D01*
X80516874Y-18659719D01*
X80650000Y-18680804D01*
X80783126Y-18659719D01*
X80903220Y-18598528D01*
X80903221Y-18598528D01*
X80998528Y-18503221D01*
X80998528Y-18503220D01*
X81017609Y-18465772D01*
X81059719Y-18383126D01*
X81080804Y-18250000D01*
X81059719Y-18116874D01*
X80998528Y-17996779D01*
X80903220Y-17901471D01*
X80783125Y-17840280D01*
X80650000Y-17819196D01*
X80516874Y-17840280D01*
X80396779Y-17901471D01*
X80396779Y-17901472D01*
X80301472Y-17996779D01*
X80301471Y-17996779D01*
X80240280Y-18116874D01*
X80219196Y-18250000D01*
X77986136Y-18250000D01*
X77986136Y-15363318D01*
X77986268Y-15359290D01*
X77994077Y-15240330D01*
X78001743Y-15123545D01*
X78002794Y-15115572D01*
X78048564Y-14885837D01*
X78050645Y-14878084D01*
X78092990Y-14753550D01*
X80934286Y-14753550D01*
X80955370Y-14886675D01*
X81016561Y-15006770D01*
X81111869Y-15102078D01*
X81205922Y-15150000D01*
X81231964Y-15163269D01*
X81365090Y-15184354D01*
X81498216Y-15163269D01*
X81618310Y-15102078D01*
X81618311Y-15102078D01*
X81645389Y-15075000D01*
X84994196Y-15075000D01*
X85015280Y-15208125D01*
X85076471Y-15328220D01*
X85171779Y-15423528D01*
X85291874Y-15484719D01*
X85425000Y-15505804D01*
X85558126Y-15484719D01*
X85678220Y-15423528D01*
X85678221Y-15423528D01*
X85773528Y-15328221D01*
X85773528Y-15328220D01*
X85822932Y-15231259D01*
X85834719Y-15208126D01*
X85855804Y-15075000D01*
X85834719Y-14941874D01*
X85806545Y-14886579D01*
X85773528Y-14821779D01*
X85678220Y-14726471D01*
X85558125Y-14665280D01*
X85425000Y-14644196D01*
X85291874Y-14665280D01*
X85171779Y-14726471D01*
X85171779Y-14726472D01*
X85076472Y-14821779D01*
X85076471Y-14821779D01*
X85015280Y-14941874D01*
X84994196Y-15075000D01*
X81645389Y-15075000D01*
X81713618Y-15006771D01*
X81713618Y-15006770D01*
X81755969Y-14923651D01*
X81774809Y-14886676D01*
X81795894Y-14753550D01*
X81774809Y-14620424D01*
X81762164Y-14595606D01*
X81713618Y-14500329D01*
X81618310Y-14405021D01*
X81498215Y-14343830D01*
X81365090Y-14322746D01*
X81231964Y-14343830D01*
X81111869Y-14405021D01*
X81111869Y-14405022D01*
X81016562Y-14500329D01*
X81016561Y-14500329D01*
X80955370Y-14620424D01*
X80934286Y-14753550D01*
X78092990Y-14753550D01*
X78126058Y-14656300D01*
X78129135Y-14648885D01*
X78232891Y-14438867D01*
X78236906Y-14431925D01*
X78367229Y-14237268D01*
X78372128Y-14230897D01*
X78526775Y-14054955D01*
X78532472Y-14049273D01*
X78708780Y-13895068D01*
X78715166Y-13890183D01*
X78910131Y-13760342D01*
X78917100Y-13756334D01*
X79127370Y-13653093D01*
X79134796Y-13650033D01*
X79356751Y-13575169D01*
X79364516Y-13573105D01*
X79594359Y-13527898D01*
X79602332Y-13526867D01*
X79838148Y-13511967D01*
X79842121Y-13511846D01*
X79874480Y-13511925D01*
X79874480Y-13511924D01*
X79880835Y-13511940D01*
X79881718Y-13511842D01*
X85842549Y-13511842D01*
X85874840Y-13511842D01*
X85878946Y-13511978D01*
X86119258Y-13528062D01*
X86127387Y-13529156D01*
X86361383Y-13576707D01*
X86369295Y-13578873D01*
X86594872Y-13657184D01*
X86602431Y-13660388D01*
X86617251Y-13667875D01*
X86815559Y-13768060D01*
X86822626Y-13772245D01*
X87019499Y-13907353D01*
X87025946Y-13912443D01*
X87203058Y-14072580D01*
X87208769Y-14078483D01*
X87362963Y-14260795D01*
X87367836Y-14267406D01*
X87478886Y-14441280D01*
X87496361Y-14468640D01*
X87500310Y-14475842D01*
X87600872Y-14692410D01*
X87603826Y-14700074D01*
X87669113Y-14910334D01*
X87671878Y-14928301D01*
X87699227Y-21158639D01*
X87726361Y-27340274D01*
X87726362Y-27340347D01*
X87726363Y-27340619D01*
X87726356Y-27532714D01*
X87726356Y-27532727D01*
X87762850Y-27915193D01*
X87835502Y-28292448D01*
X87835504Y-28292454D01*
X87835505Y-28292460D01*
X87881392Y-28448866D01*
X87943667Y-28661131D01*
X87943669Y-28661136D01*
X88078331Y-28997793D01*
X88086354Y-29017851D01*
X88086359Y-29017861D01*
X88086361Y-29017865D01*
X88262273Y-29359403D01*
X88262279Y-29359414D01*
X88469841Y-29682708D01*
X88469859Y-29682732D01*
X88707184Y-29984844D01*
X88707189Y-29984849D01*
X88972153Y-30263070D01*
X89142231Y-30410646D01*
X89236605Y-30492535D01*
X89262344Y-30514868D01*
X89539985Y-30712890D01*
X89575143Y-30737966D01*
X89575148Y-30737969D01*
X89907702Y-30930338D01*
X89907711Y-30930343D01*
X90257050Y-31090264D01*
X90603770Y-31210646D01*
X90620003Y-31216282D01*
X90678305Y-31230491D01*
X90993278Y-31307256D01*
X91184757Y-31335008D01*
X91373495Y-31362363D01*
X91373498Y-31362363D01*
X91373510Y-31362365D01*
X91757257Y-31381111D01*
X92141049Y-31363323D01*
X92521417Y-31309163D01*
X92894921Y-31219121D01*
X93258184Y-31094010D01*
X93607922Y-30934961D01*
X93940972Y-30743414D01*
X94254324Y-30521099D01*
X94545143Y-30270027D01*
X94810800Y-29992467D01*
X94812619Y-29990164D01*
X94927469Y-29844711D01*
X95048894Y-29690931D01*
X95217929Y-29429086D01*
X110772514Y-29429086D01*
X110791348Y-29620316D01*
X110847127Y-29804196D01*
X110847128Y-29804199D01*
X110847129Y-29804200D01*
X110883956Y-29873099D01*
X110937712Y-29973669D01*
X111059613Y-30122205D01*
X111059614Y-30122206D01*
X111208150Y-30244107D01*
X111208151Y-30244107D01*
X111208153Y-30244109D01*
X111377620Y-30334691D01*
X111377622Y-30334691D01*
X111377623Y-30334692D01*
X111502893Y-30372692D01*
X111561503Y-30390471D01*
X111752734Y-30409306D01*
X111943965Y-30390471D01*
X112127848Y-30334691D01*
X112297315Y-30244109D01*
X112445854Y-30122206D01*
X112567757Y-29973667D01*
X112658339Y-29804200D01*
X112714119Y-29620317D01*
X112732954Y-29429086D01*
X112714119Y-29237855D01*
X112711471Y-29229126D01*
X112658340Y-29053975D01*
X112658339Y-29053974D01*
X112658339Y-29053972D01*
X112567757Y-28884505D01*
X112560203Y-28875301D01*
X112445854Y-28735966D01*
X112445853Y-28735965D01*
X112297317Y-28614064D01*
X112240826Y-28583869D01*
X112127848Y-28523481D01*
X112127847Y-28523480D01*
X112127844Y-28523479D01*
X111943964Y-28467700D01*
X111752734Y-28448866D01*
X111561503Y-28467700D01*
X111377623Y-28523479D01*
X111208150Y-28614064D01*
X111059614Y-28735965D01*
X111059613Y-28735966D01*
X110937712Y-28884502D01*
X110847127Y-29053975D01*
X110791348Y-29237855D01*
X110772514Y-29429086D01*
X95217929Y-29429086D01*
X95257271Y-29368143D01*
X95329305Y-29229123D01*
X95334419Y-29220910D01*
X95335519Y-29219415D01*
X95335526Y-29219410D01*
X95346498Y-29196045D01*
X95347553Y-29193911D01*
X95361942Y-29166147D01*
X95367631Y-29152300D01*
X95553773Y-28831762D01*
X95556337Y-28827721D01*
X95770300Y-28518102D01*
X95773159Y-28514294D01*
X96010768Y-28222426D01*
X96013926Y-28218843D01*
X96273694Y-27946548D01*
X96277146Y-27943202D01*
X96557482Y-27692145D01*
X96561202Y-27689069D01*
X96621501Y-27643060D01*
X96860368Y-27460801D01*
X96864306Y-27458035D01*
X97180477Y-27253949D01*
X97184601Y-27251511D01*
X97515820Y-27072874D01*
X97520145Y-27070756D01*
X97736871Y-26975000D01*
X106069508Y-26975000D01*
X106089353Y-27100301D01*
X106089353Y-27100302D01*
X106089354Y-27100304D01*
X106146950Y-27213342D01*
X106146952Y-27213345D01*
X106236654Y-27303047D01*
X106236656Y-27303048D01*
X106236658Y-27303050D01*
X106343921Y-27357703D01*
X106374490Y-27393496D01*
X106370797Y-27440421D01*
X106343921Y-27467296D01*
X106306113Y-27486561D01*
X106236654Y-27521952D01*
X106146952Y-27611654D01*
X106089353Y-27724698D01*
X106069508Y-27850000D01*
X106089353Y-27975301D01*
X106089353Y-27975302D01*
X106089354Y-27975304D01*
X106146950Y-28088342D01*
X106146952Y-28088345D01*
X106236654Y-28178047D01*
X106236656Y-28178048D01*
X106236658Y-28178050D01*
X106349696Y-28235646D01*
X106475000Y-28255492D01*
X106600304Y-28235646D01*
X106713342Y-28178050D01*
X106803050Y-28088342D01*
X106835325Y-28025000D01*
X107469508Y-28025000D01*
X107489353Y-28150301D01*
X107489353Y-28150302D01*
X107489354Y-28150304D01*
X107546950Y-28263342D01*
X107546952Y-28263345D01*
X107636654Y-28353047D01*
X107636656Y-28353048D01*
X107636658Y-28353050D01*
X107749696Y-28410646D01*
X107875000Y-28430492D01*
X108000304Y-28410646D01*
X108113342Y-28353050D01*
X108203050Y-28263342D01*
X108260646Y-28150304D01*
X108280492Y-28025000D01*
X108260646Y-27899696D01*
X108203050Y-27786658D01*
X108203048Y-27786656D01*
X108203047Y-27786654D01*
X108113345Y-27696952D01*
X108113342Y-27696950D01*
X108000304Y-27639354D01*
X108000302Y-27639353D01*
X108000301Y-27639353D01*
X107875000Y-27619508D01*
X107749698Y-27639353D01*
X107636654Y-27696952D01*
X107546952Y-27786654D01*
X107489353Y-27899698D01*
X107469508Y-28025000D01*
X106835325Y-28025000D01*
X106860646Y-27975304D01*
X106880492Y-27850000D01*
X106860646Y-27724696D01*
X106803050Y-27611658D01*
X106803048Y-27611656D01*
X106803047Y-27611654D01*
X106713344Y-27521951D01*
X106643887Y-27486561D01*
X106606078Y-27467296D01*
X106575509Y-27431504D01*
X106579202Y-27384580D01*
X106606078Y-27357703D01*
X106713342Y-27303050D01*
X106803050Y-27213342D01*
X106860646Y-27100304D01*
X106880492Y-26975000D01*
X106860646Y-26849696D01*
X106803050Y-26736658D01*
X106803048Y-26736656D01*
X106803047Y-26736654D01*
X106713345Y-26646952D01*
X106713342Y-26646950D01*
X106600304Y-26589354D01*
X106600302Y-26589353D01*
X106600301Y-26589353D01*
X106475000Y-26569508D01*
X106349698Y-26589353D01*
X106236654Y-26646952D01*
X106146952Y-26736654D01*
X106089353Y-26849698D01*
X106069508Y-26975000D01*
X97736871Y-26975000D01*
X97861833Y-26919788D01*
X97867140Y-26917732D01*
X98117590Y-26833894D01*
X98117673Y-26833900D01*
X98117663Y-26833870D01*
X98117702Y-26833857D01*
X98118147Y-26833709D01*
X98283591Y-26778517D01*
X98602886Y-26638084D01*
X98907873Y-26468811D01*
X98924683Y-26457335D01*
X99195938Y-26272152D01*
X99195942Y-26272148D01*
X99195955Y-26272140D01*
X99464678Y-26049746D01*
X99711751Y-25803524D01*
X99935072Y-25535571D01*
X100132737Y-25248170D01*
X100303062Y-24943769D01*
X100444597Y-24624961D01*
X100510702Y-24429086D01*
X110772514Y-24429086D01*
X110791348Y-24620316D01*
X110847127Y-24804196D01*
X110937712Y-24973669D01*
X111059613Y-25122205D01*
X111059614Y-25122206D01*
X111208150Y-25244107D01*
X111208151Y-25244107D01*
X111208153Y-25244109D01*
X111377620Y-25334691D01*
X111377622Y-25334691D01*
X111377623Y-25334692D01*
X111561503Y-25390471D01*
X111752734Y-25409306D01*
X111943965Y-25390471D01*
X112127848Y-25334691D01*
X112297315Y-25244109D01*
X112445854Y-25122206D01*
X112567757Y-24973667D01*
X112658339Y-24804200D01*
X112714119Y-24620317D01*
X112732954Y-24429086D01*
X112714119Y-24237855D01*
X112696029Y-24178220D01*
X112658340Y-24053975D01*
X112658339Y-24053974D01*
X112658339Y-24053972D01*
X112567757Y-23884505D01*
X112564013Y-23879943D01*
X112445854Y-23735966D01*
X112445853Y-23735965D01*
X112297317Y-23614064D01*
X112127844Y-23523479D01*
X111943964Y-23467700D01*
X111752734Y-23448866D01*
X111561503Y-23467700D01*
X111377623Y-23523479D01*
X111208150Y-23614064D01*
X111059614Y-23735965D01*
X111059613Y-23735966D01*
X110937712Y-23884502D01*
X110847127Y-24053975D01*
X110791348Y-24237855D01*
X110772514Y-24429086D01*
X100510702Y-24429086D01*
X100556136Y-24294462D01*
X100588950Y-24156258D01*
X100595915Y-24139057D01*
X100596927Y-24137356D01*
X100598575Y-24118543D01*
X100600004Y-24109707D01*
X100604362Y-24091356D01*
X100604361Y-24091356D01*
X100604363Y-24091352D01*
X100604362Y-24091347D01*
X100604423Y-24084424D01*
X100604851Y-24084427D01*
X100604468Y-24072917D01*
X100633478Y-23879926D01*
X100635067Y-23872514D01*
X100694858Y-23658816D01*
X100697350Y-23651648D01*
X100783032Y-23446954D01*
X100786385Y-23440155D01*
X100896659Y-23247576D01*
X100900830Y-23241237D01*
X101033995Y-23063739D01*
X101038920Y-23057955D01*
X101126383Y-22967261D01*
X101192957Y-22898227D01*
X101198548Y-22893103D01*
X101220938Y-22875000D01*
X112944196Y-22875000D01*
X112965280Y-23008125D01*
X113026471Y-23128220D01*
X113121779Y-23223528D01*
X113241874Y-23284719D01*
X113375000Y-23305804D01*
X113508126Y-23284719D01*
X113628220Y-23223528D01*
X113628221Y-23223528D01*
X113723528Y-23128221D01*
X113723528Y-23128220D01*
X113784719Y-23008126D01*
X113805804Y-22875000D01*
X113784719Y-22741874D01*
X113750800Y-22675304D01*
X113723528Y-22621779D01*
X113628220Y-22526471D01*
X113508125Y-22465280D01*
X113375000Y-22444196D01*
X113241874Y-22465280D01*
X113121779Y-22526471D01*
X113121779Y-22526472D01*
X113026472Y-22621779D01*
X113026471Y-22621779D01*
X112965280Y-22741874D01*
X112944196Y-22875000D01*
X101220938Y-22875000D01*
X101371113Y-22753579D01*
X101377303Y-22749179D01*
X101451212Y-22703221D01*
X101565739Y-22632006D01*
X101572411Y-22628407D01*
X101775533Y-22534587D01*
X101779114Y-22533069D01*
X105504627Y-21093190D01*
X105505483Y-21092868D01*
X105603124Y-21057159D01*
X105605384Y-21056385D01*
X105701975Y-21025441D01*
X105704346Y-21024734D01*
X105802054Y-20997747D01*
X105804434Y-20997140D01*
X105904194Y-20973897D01*
X105906017Y-20973503D01*
X105961125Y-20962502D01*
X105962953Y-20962168D01*
X106063992Y-20945326D01*
X106066428Y-20944971D01*
X106167012Y-20932374D01*
X106169452Y-20932118D01*
X106270536Y-20923603D01*
X106272951Y-20923449D01*
X106375249Y-20918999D01*
X106377127Y-20918948D01*
X106434317Y-20918285D01*
X106435467Y-20918272D01*
X106436179Y-20918268D01*
X107245983Y-20918268D01*
X107261700Y-20920310D01*
X107264009Y-20920921D01*
X107279558Y-20918821D01*
X107287788Y-20918268D01*
X107303467Y-20918268D01*
X107303469Y-20918268D01*
X107305669Y-20917356D01*
X107320971Y-20913226D01*
X107382888Y-20904864D01*
X107388729Y-20904359D01*
X107408501Y-20903600D01*
X107408503Y-20903599D01*
X107408505Y-20903599D01*
X107413859Y-20902318D01*
X107417381Y-20901294D01*
X107422609Y-20899500D01*
X107422613Y-20899500D01*
X107439698Y-20889558D01*
X107444920Y-20886845D01*
X107466668Y-20876843D01*
X107466668Y-20876842D01*
X107469589Y-20875499D01*
X107473418Y-20873224D01*
X107514943Y-20853480D01*
X107525829Y-20849513D01*
X107535382Y-20847022D01*
X107541946Y-20842053D01*
X107552647Y-20835553D01*
X107560089Y-20832015D01*
X107566707Y-20824682D01*
X107575243Y-20816852D01*
X107577233Y-20815346D01*
X107587489Y-20809059D01*
X107595678Y-20805085D01*
X107601657Y-20798350D01*
X107610526Y-20790148D01*
X107617719Y-20784706D01*
X107620378Y-20780170D01*
X107622323Y-20776853D01*
X107629387Y-20767124D01*
X107666791Y-20725004D01*
X107676841Y-20715934D01*
X107682073Y-20712170D01*
X107688218Y-20702239D01*
X107694518Y-20693781D01*
X107702266Y-20685058D01*
X107704373Y-20678975D01*
X107710188Y-20666741D01*
X107712864Y-20662418D01*
X107718150Y-20655133D01*
X107727412Y-20644155D01*
X107727411Y-20644155D01*
X107727414Y-20644153D01*
X107728539Y-20640616D01*
X107734855Y-20626889D01*
X107736804Y-20623741D01*
X107736804Y-20623740D01*
X107736805Y-20623739D01*
X107739117Y-20609543D01*
X107741205Y-20600810D01*
X107752204Y-20566249D01*
X107755889Y-20557223D01*
X107756594Y-20555822D01*
X107756597Y-20555819D01*
X107763529Y-20530809D01*
X107764191Y-20528584D01*
X107767791Y-20517273D01*
X107772053Y-20503882D01*
X107772052Y-20503877D01*
X107772226Y-20502331D01*
X107774077Y-20492754D01*
X107788334Y-20441321D01*
X107790893Y-20433949D01*
X107819130Y-20366754D01*
X107822938Y-20359200D01*
X107841743Y-20327523D01*
X107845068Y-20322500D01*
X107892025Y-20258625D01*
X107896283Y-20253450D01*
X107948675Y-20196444D01*
X107954223Y-20191121D01*
X107993918Y-20157557D01*
X107999608Y-20153287D01*
X108062287Y-20111691D01*
X108069195Y-20107726D01*
X108136029Y-20074934D01*
X108144228Y-20071621D01*
X108658452Y-19905884D01*
X108661729Y-19904929D01*
X109190702Y-19766513D01*
X109194019Y-19765743D01*
X109729908Y-19657074D01*
X109733223Y-19656497D01*
X110274376Y-19577911D01*
X110277749Y-19577518D01*
X110822394Y-19529273D01*
X110825779Y-19529068D01*
X111372122Y-19511311D01*
X111374835Y-19511285D01*
X111689618Y-19515262D01*
X111694754Y-19515869D01*
X111698374Y-19515861D01*
X111698375Y-19515862D01*
X111731331Y-19515794D01*
X111731992Y-19515798D01*
X111733592Y-19515818D01*
X111734117Y-19515828D01*
X112274710Y-19529655D01*
X112278053Y-19529833D01*
X112816760Y-19573463D01*
X112820073Y-19573823D01*
X113355593Y-19647137D01*
X113358887Y-19647682D01*
X113889501Y-19750444D01*
X113892782Y-19751174D01*
X114416891Y-19883072D01*
X114420128Y-19883982D01*
X114936179Y-20044624D01*
X114939364Y-20045712D01*
X115290594Y-20176725D01*
X115445742Y-20234597D01*
X115448890Y-20235872D01*
X115944021Y-20452407D01*
X115947095Y-20453853D01*
X116046195Y-20503882D01*
X116429564Y-20697421D01*
X116432517Y-20699015D01*
X116780447Y-20899500D01*
X116900800Y-20968850D01*
X116903695Y-20970627D01*
X116952586Y-21002519D01*
X117356917Y-21266266D01*
X117358534Y-21267358D01*
X121826728Y-24393805D01*
X127375338Y-28276232D01*
X127377226Y-28277607D01*
X127578962Y-28430492D01*
X127701660Y-28523479D01*
X127725346Y-28541429D01*
X127728927Y-28544362D01*
X128055337Y-28832842D01*
X128058688Y-28836036D01*
X128192196Y-28973246D01*
X128335192Y-29120207D01*
X128362485Y-29148256D01*
X128365569Y-29151673D01*
X128645031Y-29485868D01*
X128647864Y-29489528D01*
X128901395Y-29843790D01*
X128903945Y-29847653D01*
X129130104Y-30219963D01*
X129132357Y-30224007D01*
X129329878Y-30612285D01*
X129331820Y-30616487D01*
X129499580Y-31018521D01*
X129501200Y-31022857D01*
X129638494Y-31437117D01*
X129639311Y-31439781D01*
X131109891Y-36657728D01*
X131110429Y-36659772D01*
X131205271Y-37046757D01*
X131206135Y-37050890D01*
X131274016Y-37442416D01*
X131274594Y-37446599D01*
X131315450Y-37841846D01*
X131315740Y-37846058D01*
X131329417Y-38244251D01*
X131329453Y-38246362D01*
X131329456Y-49170149D01*
X131329456Y-49203278D01*
X131329406Y-49205745D01*
X131313943Y-49590839D01*
X131313548Y-49595758D01*
X131267403Y-49977181D01*
X131266614Y-49982053D01*
X131190040Y-50358533D01*
X131188863Y-50363326D01*
X131082348Y-50732456D01*
X131080791Y-50737138D01*
X130945023Y-51096543D01*
X130943095Y-51101086D01*
X130778950Y-51448445D01*
X130776664Y-51452818D01*
X130585196Y-51785900D01*
X130582567Y-51790077D01*
X130365012Y-52106730D01*
X130362057Y-52110682D01*
X130119035Y-52409833D01*
X130117444Y-52411714D01*
X130106969Y-52423600D01*
X130095542Y-52436569D01*
X130095540Y-52436571D01*
X130092911Y-52439556D01*
X130092887Y-52439581D01*
X129058154Y-53613813D01*
X129056453Y-53615666D01*
X128785008Y-53899412D01*
X128781387Y-53902900D01*
X128488613Y-54162691D01*
X128484719Y-54165871D01*
X128171713Y-54400874D01*
X128167572Y-54403726D01*
X127836416Y-54612376D01*
X127832057Y-54614880D01*
X127484960Y-54795787D01*
X127480410Y-54797927D01*
X127119687Y-54949882D01*
X127114978Y-54951642D01*
X126741671Y-55074076D01*
X126739096Y-55074859D01*
X126712711Y-55082251D01*
X126706304Y-55083353D01*
X126672618Y-55093474D01*
X126671516Y-55093794D01*
X126642655Y-55101880D01*
X126636640Y-55104287D01*
X126483432Y-55150335D01*
X126483411Y-55150342D01*
X126119803Y-55294302D01*
X126119783Y-55294310D01*
X125769696Y-55468673D01*
X125769683Y-55468680D01*
X125435704Y-55672161D01*
X125435689Y-55672170D01*
X125120195Y-55903320D01*
X125120182Y-55903331D01*
X124825500Y-56160447D01*
X124825495Y-56160451D01*
X124825494Y-56160453D01*
X124729034Y-56260276D01*
X124553710Y-56441713D01*
X124553706Y-56441718D01*
X124306840Y-56745032D01*
X124306829Y-56745048D01*
X124086627Y-57068270D01*
X124086622Y-57068279D01*
X123894704Y-57409030D01*
X123894691Y-57409056D01*
X123732427Y-57764906D01*
X123702244Y-57849501D01*
X123616899Y-58088702D01*
X123600994Y-58133279D01*
X123501351Y-58511491D01*
X123501351Y-58511493D01*
X123434224Y-58896781D01*
X123434223Y-58896783D01*
X123400090Y-59286404D01*
X123399711Y-59446089D01*
X123399622Y-59446997D01*
X123399623Y-59452380D01*
X123399626Y-59481957D01*
X123399549Y-59516307D01*
X123399535Y-59522671D01*
X123399630Y-59523526D01*
X123400331Y-65827582D01*
X123400198Y-65831625D01*
X123384665Y-66067796D01*
X123383608Y-66075799D01*
X123337671Y-66305929D01*
X123335575Y-66313724D01*
X123259894Y-66535857D01*
X123256795Y-66543310D01*
X123152673Y-66753615D01*
X123148624Y-66760599D01*
X123017857Y-66955452D01*
X123012929Y-66961845D01*
X122857764Y-67137899D01*
X122852041Y-67143591D01*
X122675156Y-67297804D01*
X122668736Y-67302698D01*
X122473181Y-67432414D01*
X122466176Y-67436425D01*
X122255313Y-67539413D01*
X122247843Y-67542472D01*
X122025306Y-67616957D01*
X122017500Y-67619011D01*
X121787128Y-67663707D01*
X121779120Y-67664721D01*
X121542872Y-67678982D01*
X121538837Y-67679093D01*
X121500855Y-67678889D01*
X121498922Y-67679102D01*
X116700356Y-67679102D01*
X116685686Y-67679050D01*
X116553671Y-67678588D01*
X116553670Y-67678588D01*
X116553662Y-67678588D01*
X116244062Y-67708058D01*
X116244048Y-67708060D01*
X116244045Y-67708060D01*
X116244040Y-67708061D01*
X116094072Y-67737454D01*
X115938813Y-67767884D01*
X115640978Y-67857472D01*
X115353390Y-67975965D01*
X115078879Y-68122199D01*
X114820108Y-68294755D01*
X114579583Y-68491961D01*
X114494791Y-68576715D01*
X114494722Y-68576772D01*
X113728081Y-69343416D01*
X113725895Y-69345497D01*
X113522046Y-69530256D01*
X113517381Y-69534085D01*
X113297620Y-69697072D01*
X113292601Y-69700425D01*
X113057937Y-69841077D01*
X113052615Y-69843922D01*
X112805288Y-69960899D01*
X112799712Y-69963209D01*
X112542105Y-70055382D01*
X112536329Y-70057134D01*
X112270931Y-70123612D01*
X112265012Y-70124789D01*
X111994384Y-70164933D01*
X111988377Y-70165525D01*
X111916884Y-70169037D01*
X111713448Y-70179030D01*
X111710444Y-70179104D01*
X109956801Y-70179104D01*
X109952794Y-70178973D01*
X109934982Y-70177809D01*
X109718277Y-70163658D01*
X109710331Y-70162616D01*
X109481762Y-70117325D01*
X109474018Y-70115258D01*
X109253285Y-70040627D01*
X109245876Y-70037571D01*
X109075008Y-69953670D01*
X109036713Y-69934865D01*
X109029773Y-69930877D01*
X108835741Y-69801842D01*
X108829371Y-69796978D01*
X108653781Y-69643818D01*
X108648097Y-69638168D01*
X108556236Y-69534085D01*
X108493904Y-69463461D01*
X108489006Y-69457122D01*
X108413156Y-69344495D01*
X108358839Y-69263841D01*
X108354813Y-69256929D01*
X108250887Y-69048365D01*
X108247790Y-69040979D01*
X108244587Y-69031685D01*
X108171873Y-68820678D01*
X108169765Y-68812962D01*
X108123139Y-68584656D01*
X108122051Y-68576716D01*
X108116020Y-68491961D01*
X108105385Y-68342511D01*
X108105231Y-68338197D01*
X108105106Y-66000000D01*
X108919508Y-66000000D01*
X108939353Y-66125301D01*
X108939353Y-66125302D01*
X108939354Y-66125304D01*
X108976344Y-66197900D01*
X108996952Y-66238345D01*
X109086654Y-66328047D01*
X109086656Y-66328048D01*
X109086658Y-66328050D01*
X109199696Y-66385646D01*
X109325000Y-66405492D01*
X109450304Y-66385646D01*
X109563342Y-66328050D01*
X109653050Y-66238342D01*
X109698063Y-66150000D01*
X111819508Y-66150000D01*
X111839353Y-66275301D01*
X111839353Y-66275302D01*
X111839354Y-66275304D01*
X111896950Y-66388342D01*
X111896952Y-66388345D01*
X111986654Y-66478047D01*
X111986656Y-66478048D01*
X111986658Y-66478050D01*
X112099696Y-66535646D01*
X112225000Y-66555492D01*
X112350304Y-66535646D01*
X112463342Y-66478050D01*
X112553050Y-66388342D01*
X112610646Y-66275304D01*
X112630492Y-66150000D01*
X112610646Y-66024696D01*
X112553050Y-65911658D01*
X112553048Y-65911656D01*
X112553047Y-65911654D01*
X112463345Y-65821952D01*
X112463342Y-65821950D01*
X112350304Y-65764354D01*
X112350302Y-65764353D01*
X112350301Y-65764353D01*
X112225000Y-65744508D01*
X112099698Y-65764353D01*
X112099696Y-65764353D01*
X112099696Y-65764354D01*
X112068024Y-65780492D01*
X111986654Y-65821952D01*
X111896952Y-65911654D01*
X111839353Y-66024698D01*
X111819508Y-66150000D01*
X109698063Y-66150000D01*
X109710646Y-66125304D01*
X109730492Y-66000000D01*
X109710646Y-65874696D01*
X109653050Y-65761658D01*
X109653048Y-65761656D01*
X109653047Y-65761654D01*
X109563345Y-65671952D01*
X109563342Y-65671950D01*
X109450304Y-65614354D01*
X109450302Y-65614353D01*
X109450301Y-65614353D01*
X109325000Y-65594508D01*
X109199698Y-65614353D01*
X109086654Y-65671952D01*
X108996952Y-65761654D01*
X108939353Y-65874698D01*
X108919508Y-66000000D01*
X108105106Y-66000000D01*
X108105073Y-65375000D01*
X113014508Y-65375000D01*
X113034353Y-65500301D01*
X113034353Y-65500302D01*
X113034354Y-65500304D01*
X113082354Y-65594508D01*
X113091952Y-65613345D01*
X113181654Y-65703047D01*
X113181656Y-65703048D01*
X113181658Y-65703050D01*
X113294696Y-65760646D01*
X113420000Y-65780492D01*
X113545304Y-65760646D01*
X113658342Y-65703050D01*
X113748050Y-65613342D01*
X113805646Y-65500304D01*
X113825492Y-65375000D01*
X113805646Y-65249696D01*
X113748050Y-65136658D01*
X113748048Y-65136656D01*
X113748047Y-65136654D01*
X113658345Y-65046952D01*
X113658342Y-65046950D01*
X113545304Y-64989354D01*
X113545302Y-64989353D01*
X113545301Y-64989353D01*
X113420000Y-64969508D01*
X113294698Y-64989353D01*
X113181654Y-65046952D01*
X113091952Y-65136654D01*
X113034353Y-65249698D01*
X113014508Y-65375000D01*
X108105073Y-65375000D01*
X108104921Y-62529128D01*
X111181594Y-62529128D01*
X111200428Y-62720358D01*
X111256207Y-62904238D01*
X111346792Y-63073711D01*
X111468693Y-63222247D01*
X111468694Y-63222248D01*
X111617230Y-63344149D01*
X111617231Y-63344149D01*
X111617233Y-63344151D01*
X111786700Y-63434733D01*
X111786702Y-63434733D01*
X111786703Y-63434734D01*
X111787237Y-63434896D01*
X111970583Y-63490513D01*
X112161814Y-63509348D01*
X112353045Y-63490513D01*
X112536928Y-63434733D01*
X112706395Y-63344151D01*
X112854934Y-63222248D01*
X112976837Y-63073709D01*
X113067419Y-62904242D01*
X113123199Y-62720359D01*
X113142034Y-62529128D01*
X116181594Y-62529128D01*
X116200428Y-62720358D01*
X116256207Y-62904238D01*
X116346792Y-63073711D01*
X116468693Y-63222247D01*
X116468694Y-63222248D01*
X116617230Y-63344149D01*
X116617231Y-63344149D01*
X116617233Y-63344151D01*
X116786700Y-63434733D01*
X116786702Y-63434733D01*
X116786703Y-63434734D01*
X116787237Y-63434896D01*
X116970583Y-63490513D01*
X117161814Y-63509348D01*
X117353045Y-63490513D01*
X117536928Y-63434733D01*
X117706395Y-63344151D01*
X117854934Y-63222248D01*
X117976837Y-63073709D01*
X118067419Y-62904242D01*
X118123199Y-62720359D01*
X118142034Y-62529128D01*
X118123199Y-62337897D01*
X118067419Y-62154014D01*
X117976837Y-61984547D01*
X117928217Y-61925304D01*
X117854934Y-61836008D01*
X117854933Y-61836007D01*
X117706397Y-61714106D01*
X117536924Y-61623521D01*
X117353044Y-61567742D01*
X117161814Y-61548908D01*
X116970583Y-61567742D01*
X116786703Y-61623521D01*
X116617230Y-61714106D01*
X116468694Y-61836007D01*
X116468693Y-61836008D01*
X116346792Y-61984544D01*
X116256207Y-62154017D01*
X116200428Y-62337897D01*
X116181594Y-62529128D01*
X113142034Y-62529128D01*
X113123199Y-62337897D01*
X113067419Y-62154014D01*
X112976837Y-61984547D01*
X112928217Y-61925304D01*
X112854934Y-61836008D01*
X112854933Y-61836007D01*
X112706397Y-61714106D01*
X112536924Y-61623521D01*
X112353044Y-61567742D01*
X112161814Y-61548908D01*
X111970583Y-61567742D01*
X111786703Y-61623521D01*
X111617230Y-61714106D01*
X111468694Y-61836007D01*
X111468693Y-61836008D01*
X111346792Y-61984544D01*
X111256207Y-62154017D01*
X111200428Y-62337897D01*
X111181594Y-62529128D01*
X108104921Y-62529128D01*
X108104843Y-61076248D01*
X108104867Y-60897054D01*
X108089485Y-60676249D01*
X108079962Y-60539535D01*
X108079961Y-60539532D01*
X108079961Y-60539525D01*
X108030264Y-60184592D01*
X107994372Y-60015097D01*
X118399500Y-60015097D01*
X118399500Y-60884896D01*
X118403883Y-60906934D01*
X118405331Y-60914213D01*
X118414227Y-60927527D01*
X118427542Y-60947457D01*
X118440823Y-60956330D01*
X118460787Y-60969669D01*
X118460789Y-60969669D01*
X118460790Y-60969670D01*
X118480240Y-60973538D01*
X118490101Y-60975500D01*
X119359898Y-60975499D01*
X119389213Y-60969669D01*
X119422457Y-60947457D01*
X119444669Y-60914213D01*
X119450500Y-60884899D01*
X119450499Y-60015102D01*
X119444669Y-59985787D01*
X119431353Y-59965857D01*
X119422457Y-59952542D01*
X119402578Y-59939261D01*
X119389213Y-59930331D01*
X119389211Y-59930330D01*
X119389209Y-59930329D01*
X119359902Y-59924500D01*
X118490103Y-59924500D01*
X118460787Y-59930331D01*
X118427542Y-59952542D01*
X118405329Y-59985789D01*
X118405329Y-59985790D01*
X118399500Y-60015097D01*
X107994372Y-60015097D01*
X107956018Y-59833972D01*
X107857582Y-59489360D01*
X107735432Y-59152423D01*
X107671814Y-59008997D01*
X107667746Y-58996219D01*
X107666592Y-58990501D01*
X107666591Y-58990500D01*
X107666592Y-58990499D01*
X107656374Y-58967824D01*
X107654342Y-58962716D01*
X107653121Y-58959196D01*
X107647641Y-58943403D01*
X107647639Y-58943401D01*
X107644578Y-58938178D01*
X107645307Y-58937750D01*
X107640643Y-58930307D01*
X107526967Y-58653012D01*
X107525515Y-58649092D01*
X107421986Y-58337040D01*
X107420796Y-58332993D01*
X107410646Y-58293510D01*
X107338935Y-58014569D01*
X107338033Y-58010485D01*
X107325012Y-57940097D01*
X118399500Y-57940097D01*
X118399500Y-58809896D01*
X118403883Y-58831934D01*
X118405331Y-58839213D01*
X118414227Y-58852527D01*
X118427542Y-58872457D01*
X118440823Y-58881330D01*
X118460787Y-58894669D01*
X118460789Y-58894669D01*
X118460790Y-58894670D01*
X118480240Y-58898538D01*
X118490101Y-58900500D01*
X119359898Y-58900499D01*
X119389213Y-58894669D01*
X119422457Y-58872457D01*
X119444669Y-58839213D01*
X119450500Y-58809899D01*
X119450499Y-57940102D01*
X119444669Y-57910787D01*
X119429672Y-57888342D01*
X119422457Y-57877542D01*
X119402578Y-57864261D01*
X119389213Y-57855331D01*
X119389211Y-57855330D01*
X119389209Y-57855329D01*
X119359902Y-57849500D01*
X118490103Y-57849500D01*
X118460787Y-57855331D01*
X118427542Y-57877542D01*
X118405329Y-57910789D01*
X118405329Y-57910790D01*
X118399500Y-57940097D01*
X107325012Y-57940097D01*
X107278222Y-57687172D01*
X107277602Y-57683022D01*
X107243413Y-57385001D01*
X107243072Y-57375305D01*
X107243171Y-57373013D01*
X107243173Y-57373008D01*
X107239793Y-57351039D01*
X107239274Y-57346593D01*
X107237151Y-57320059D01*
X107237148Y-57320054D01*
X107236510Y-57318020D01*
X107233854Y-57304138D01*
X107206998Y-56941262D01*
X107206995Y-56941239D01*
X107206993Y-56941216D01*
X107125984Y-56287319D01*
X107112134Y-56175521D01*
X106979655Y-55415385D01*
X106809885Y-54662699D01*
X106603235Y-53919293D01*
X106360206Y-53186971D01*
X106181176Y-52725000D01*
X112944196Y-52725000D01*
X112965280Y-52858125D01*
X113026471Y-52978220D01*
X113121779Y-53073528D01*
X113241874Y-53134719D01*
X113375000Y-53155804D01*
X113508126Y-53134719D01*
X113628220Y-53073528D01*
X113628221Y-53073528D01*
X113723528Y-52978221D01*
X113723528Y-52978220D01*
X113752199Y-52921950D01*
X113784719Y-52858126D01*
X113805804Y-52725000D01*
X113784719Y-52591874D01*
X113725919Y-52476472D01*
X113723528Y-52471779D01*
X113628220Y-52376471D01*
X113508125Y-52315280D01*
X113375000Y-52294196D01*
X113241874Y-52315280D01*
X113121779Y-52376471D01*
X113121779Y-52376472D01*
X113026472Y-52471779D01*
X113026471Y-52471779D01*
X112965280Y-52591874D01*
X112944196Y-52725000D01*
X106181176Y-52725000D01*
X106081391Y-52467513D01*
X105767465Y-51762666D01*
X105419192Y-51074143D01*
X105327782Y-50913597D01*
X105140620Y-50584876D01*
X105037417Y-50403617D01*
X104783085Y-50004086D01*
X110772514Y-50004086D01*
X110791348Y-50195316D01*
X110847127Y-50379196D01*
X110847128Y-50379199D01*
X110847129Y-50379200D01*
X110892015Y-50463176D01*
X110937712Y-50548669D01*
X111059613Y-50697205D01*
X111059614Y-50697206D01*
X111208150Y-50819107D01*
X111208151Y-50819107D01*
X111208153Y-50819109D01*
X111377620Y-50909691D01*
X111377622Y-50909691D01*
X111377623Y-50909692D01*
X111561503Y-50965471D01*
X111752734Y-50984306D01*
X111943965Y-50965471D01*
X112127848Y-50909691D01*
X112297315Y-50819109D01*
X112445854Y-50697206D01*
X112567757Y-50548667D01*
X112658339Y-50379200D01*
X112714119Y-50195317D01*
X112732954Y-50004086D01*
X112714119Y-49812855D01*
X112673395Y-49678605D01*
X112658340Y-49628975D01*
X112658339Y-49628974D01*
X112658339Y-49628972D01*
X112567757Y-49459505D01*
X112537971Y-49423211D01*
X112445854Y-49310966D01*
X112445853Y-49310965D01*
X112375642Y-49253344D01*
X122775910Y-49253344D01*
X122795583Y-49465655D01*
X122853933Y-49670734D01*
X122853933Y-49670736D01*
X122948971Y-49861594D01*
X122948975Y-49861602D01*
X123077461Y-50031746D01*
X123077469Y-50031754D01*
X123217836Y-50159715D01*
X123235037Y-50175395D01*
X123416319Y-50287641D01*
X123416321Y-50287642D01*
X123478722Y-50311816D01*
X123615140Y-50364664D01*
X123824729Y-50403843D01*
X123824732Y-50403843D01*
X124037944Y-50403843D01*
X124037947Y-50403843D01*
X124247536Y-50364664D01*
X124446357Y-50287641D01*
X124627639Y-50175395D01*
X124785210Y-50031751D01*
X124793491Y-50020786D01*
X124913700Y-49861602D01*
X124913700Y-49861601D01*
X124913703Y-49861598D01*
X124990915Y-49706536D01*
X125008742Y-49670736D01*
X125008742Y-49670735D01*
X125008743Y-49670733D01*
X125067093Y-49465653D01*
X125086766Y-49253344D01*
X125067093Y-49041035D01*
X125008743Y-48835955D01*
X125008742Y-48835952D01*
X125008742Y-48835951D01*
X124938090Y-48694066D01*
X124913703Y-48645090D01*
X124913701Y-48645088D01*
X124913700Y-48645085D01*
X124785214Y-48474941D01*
X124785206Y-48474933D01*
X124627646Y-48331299D01*
X124627643Y-48331297D01*
X124627639Y-48331293D01*
X124446357Y-48219047D01*
X124446354Y-48219045D01*
X124247539Y-48142025D01*
X124247538Y-48142024D01*
X124247536Y-48142024D01*
X124037947Y-48102845D01*
X123824729Y-48102845D01*
X123615140Y-48142024D01*
X123615138Y-48142024D01*
X123615136Y-48142025D01*
X123416321Y-48219045D01*
X123235037Y-48331293D01*
X123235029Y-48331299D01*
X123077469Y-48474933D01*
X123077461Y-48474941D01*
X122948975Y-48645085D01*
X122948971Y-48645093D01*
X122853933Y-48835951D01*
X122853933Y-48835953D01*
X122795583Y-49041032D01*
X122775910Y-49253344D01*
X112375642Y-49253344D01*
X112297317Y-49189064D01*
X112223599Y-49149661D01*
X112127848Y-49098481D01*
X112127847Y-49098480D01*
X112127844Y-49098479D01*
X111943964Y-49042700D01*
X111752734Y-49023866D01*
X111561503Y-49042700D01*
X111377623Y-49098479D01*
X111208150Y-49189064D01*
X111059614Y-49310965D01*
X111059613Y-49310966D01*
X110937712Y-49459502D01*
X110847127Y-49628975D01*
X110791348Y-49812855D01*
X110772514Y-50004086D01*
X104783085Y-50004086D01*
X104623068Y-49752715D01*
X104177151Y-49123020D01*
X103700750Y-48516061D01*
X103700748Y-48516059D01*
X103700742Y-48516051D01*
X103195025Y-47933315D01*
X103034795Y-47766093D01*
X102661194Y-47376188D01*
X102466680Y-47192251D01*
X102422000Y-47150000D01*
X118744508Y-47150000D01*
X118764353Y-47275301D01*
X118764353Y-47275302D01*
X118764354Y-47275304D01*
X118821950Y-47388342D01*
X118821952Y-47388345D01*
X118911654Y-47478047D01*
X118911656Y-47478048D01*
X118911658Y-47478050D01*
X119024696Y-47535646D01*
X119150000Y-47555492D01*
X119275304Y-47535646D01*
X119388342Y-47478050D01*
X119478050Y-47388342D01*
X119535646Y-47275304D01*
X119555492Y-47150000D01*
X119535646Y-47024696D01*
X119478050Y-46911658D01*
X119478048Y-46911656D01*
X119478047Y-46911654D01*
X119388345Y-46821952D01*
X119388342Y-46821950D01*
X119275304Y-46764354D01*
X119275302Y-46764353D01*
X119275301Y-46764353D01*
X119150000Y-46744508D01*
X119024698Y-46764353D01*
X118911654Y-46821952D01*
X118821952Y-46911654D01*
X118764353Y-47024698D01*
X118744508Y-47150000D01*
X102422000Y-47150000D01*
X102100588Y-46846064D01*
X102100555Y-46846035D01*
X101514505Y-46344173D01*
X100904413Y-45871777D01*
X100904402Y-45871769D01*
X100271804Y-45430027D01*
X100271791Y-45430019D01*
X100271790Y-45430018D01*
X99618172Y-45019967D01*
X99589847Y-45004086D01*
X110772514Y-45004086D01*
X110791348Y-45195316D01*
X110847127Y-45379196D01*
X110937712Y-45548669D01*
X111059613Y-45697205D01*
X111059614Y-45697206D01*
X111208150Y-45819107D01*
X111208151Y-45819107D01*
X111208153Y-45819109D01*
X111377620Y-45909691D01*
X111377622Y-45909691D01*
X111377623Y-45909692D01*
X111425249Y-45924139D01*
X111561503Y-45965471D01*
X111752734Y-45984306D01*
X111943965Y-45965471D01*
X112127848Y-45909691D01*
X112145979Y-45900000D01*
X118169508Y-45900000D01*
X118189353Y-46025301D01*
X118189353Y-46025302D01*
X118189354Y-46025304D01*
X118234674Y-46114249D01*
X118246952Y-46138345D01*
X118336654Y-46228047D01*
X118336656Y-46228048D01*
X118336658Y-46228050D01*
X118449696Y-46285646D01*
X118575000Y-46305492D01*
X118700304Y-46285646D01*
X118813342Y-46228050D01*
X118903050Y-46138342D01*
X118960646Y-46025304D01*
X118980492Y-45900000D01*
X118960646Y-45774696D01*
X118903050Y-45661658D01*
X118903048Y-45661656D01*
X118903047Y-45661654D01*
X118813345Y-45571952D01*
X118813342Y-45571950D01*
X118700304Y-45514354D01*
X118700302Y-45514353D01*
X118700301Y-45514353D01*
X118575000Y-45494508D01*
X118449698Y-45514353D01*
X118336654Y-45571952D01*
X118246952Y-45661654D01*
X118189353Y-45774698D01*
X118169508Y-45900000D01*
X112145979Y-45900000D01*
X112297315Y-45819109D01*
X112445854Y-45697206D01*
X112567757Y-45548667D01*
X112658339Y-45379200D01*
X112714119Y-45195317D01*
X112732954Y-45004086D01*
X112714119Y-44812855D01*
X112673732Y-44679717D01*
X112658340Y-44628975D01*
X112658339Y-44628974D01*
X112658339Y-44628972D01*
X112567757Y-44459505D01*
X112561769Y-44452209D01*
X112445854Y-44310966D01*
X112445853Y-44310965D01*
X112297317Y-44189064D01*
X112176345Y-44124403D01*
X112127848Y-44098481D01*
X112127847Y-44098480D01*
X112127844Y-44098479D01*
X111943964Y-44042700D01*
X111752734Y-44023866D01*
X111561503Y-44042700D01*
X111377623Y-44098479D01*
X111208150Y-44189064D01*
X111059614Y-44310965D01*
X111059613Y-44310966D01*
X110937712Y-44459502D01*
X110847127Y-44628975D01*
X110791348Y-44812855D01*
X110772514Y-45004086D01*
X99589847Y-45004086D01*
X98945145Y-44642619D01*
X98903937Y-44622115D01*
X98533297Y-44437692D01*
X98254342Y-44298890D01*
X97547442Y-43989616D01*
X96948646Y-43762088D01*
X96826168Y-43715549D01*
X96826162Y-43715547D01*
X96564322Y-43630564D01*
X96092276Y-43477356D01*
X96092259Y-43477351D01*
X95437567Y-43300000D01*
X98089196Y-43300000D01*
X98110280Y-43433125D01*
X98171471Y-43553220D01*
X98266779Y-43648528D01*
X98310122Y-43670612D01*
X98386874Y-43709719D01*
X98520000Y-43730804D01*
X98653126Y-43709719D01*
X98773220Y-43648528D01*
X98773221Y-43648528D01*
X98868528Y-43553221D01*
X98868528Y-43553220D01*
X98881960Y-43526858D01*
X98929719Y-43433126D01*
X98950804Y-43300000D01*
X98929719Y-43166874D01*
X98916433Y-43140798D01*
X98895043Y-43098817D01*
X100843318Y-43098817D01*
X100864402Y-43231942D01*
X100925593Y-43352037D01*
X101020901Y-43447345D01*
X101085809Y-43480417D01*
X101140996Y-43508536D01*
X101274122Y-43529621D01*
X101407248Y-43508536D01*
X101527342Y-43447345D01*
X101527343Y-43447345D01*
X101574688Y-43400000D01*
X112944196Y-43400000D01*
X112965280Y-43533125D01*
X113026471Y-43653220D01*
X113121779Y-43748528D01*
X113223822Y-43800521D01*
X113241874Y-43809719D01*
X113375000Y-43830804D01*
X113508126Y-43809719D01*
X113628220Y-43748528D01*
X113628221Y-43748528D01*
X113723528Y-43653221D01*
X113723528Y-43653220D01*
X113738064Y-43624692D01*
X113784719Y-43533126D01*
X113805804Y-43400000D01*
X113784719Y-43266874D01*
X113777132Y-43251983D01*
X113740455Y-43180000D01*
X124889196Y-43180000D01*
X124910280Y-43313125D01*
X124971471Y-43433220D01*
X125066779Y-43528528D01*
X125150919Y-43571399D01*
X125186874Y-43589719D01*
X125320000Y-43610804D01*
X125453126Y-43589719D01*
X125573220Y-43528528D01*
X125573221Y-43528528D01*
X125668528Y-43433221D01*
X125668528Y-43433220D01*
X125671366Y-43427651D01*
X125729719Y-43313126D01*
X125750804Y-43180000D01*
X125729719Y-43046874D01*
X125722874Y-43033440D01*
X125668528Y-42926779D01*
X125573220Y-42831471D01*
X125453125Y-42770280D01*
X125320000Y-42749196D01*
X125186874Y-42770280D01*
X125066779Y-42831471D01*
X125066779Y-42831472D01*
X124971472Y-42926779D01*
X124971471Y-42926779D01*
X124910280Y-43046874D01*
X124889196Y-43180000D01*
X113740455Y-43180000D01*
X113723528Y-43146779D01*
X113628220Y-43051471D01*
X113508125Y-42990280D01*
X113375000Y-42969196D01*
X113241874Y-42990280D01*
X113121779Y-43051471D01*
X113121779Y-43051472D01*
X113026472Y-43146779D01*
X113026471Y-43146779D01*
X112965280Y-43266874D01*
X112944196Y-43400000D01*
X101574688Y-43400000D01*
X101622650Y-43352038D01*
X101622650Y-43352037D01*
X101642477Y-43313125D01*
X101683841Y-43231943D01*
X101704926Y-43098817D01*
X101683841Y-42965691D01*
X101679398Y-42956972D01*
X101622650Y-42845596D01*
X101527342Y-42750288D01*
X101407247Y-42689097D01*
X101274122Y-42668013D01*
X101140996Y-42689097D01*
X101020901Y-42750288D01*
X101020901Y-42750289D01*
X100925594Y-42845596D01*
X100925593Y-42845596D01*
X100864402Y-42965691D01*
X100843318Y-43098817D01*
X98895043Y-43098817D01*
X98868528Y-43046779D01*
X98773220Y-42951471D01*
X98653125Y-42890280D01*
X98520000Y-42869196D01*
X98386874Y-42890280D01*
X98266779Y-42951471D01*
X98266779Y-42951472D01*
X98171472Y-43046779D01*
X98171471Y-43046779D01*
X98110280Y-43166874D01*
X98089196Y-43300000D01*
X95437567Y-43300000D01*
X95347509Y-43275604D01*
X95347503Y-43275603D01*
X94593715Y-43110796D01*
X94131886Y-43033440D01*
X93832721Y-42983330D01*
X93832715Y-42983329D01*
X93832694Y-42983326D01*
X93066383Y-42893514D01*
X93066349Y-42893511D01*
X92296533Y-42841565D01*
X91525072Y-42827611D01*
X91525045Y-42827612D01*
X91000536Y-42843986D01*
X90753842Y-42851687D01*
X90753837Y-42851687D01*
X90753816Y-42851688D01*
X89984759Y-42913730D01*
X89984738Y-42913733D01*
X89219642Y-43013594D01*
X88460397Y-43151033D01*
X88460358Y-43151041D01*
X87708860Y-43325710D01*
X87708801Y-43325725D01*
X86966822Y-43537209D01*
X86966779Y-43537222D01*
X86236077Y-43785022D01*
X86236055Y-43785030D01*
X85518456Y-44068531D01*
X85518453Y-44068532D01*
X85198709Y-44213484D01*
X85189914Y-44215856D01*
X85190082Y-44216402D01*
X85184292Y-44218174D01*
X85164241Y-44228955D01*
X85160508Y-44230802D01*
X85135777Y-44242011D01*
X85132040Y-44244852D01*
X85117045Y-44253235D01*
X85034404Y-44285253D01*
X85030377Y-44286655D01*
X84929228Y-44317975D01*
X84925800Y-44318929D01*
X84838366Y-44340550D01*
X84835239Y-44341237D01*
X84747332Y-44358175D01*
X84743630Y-44358772D01*
X84639006Y-44372383D01*
X84635158Y-44372761D01*
X84570593Y-44377060D01*
X84568155Y-44377174D01*
X84530466Y-44378184D01*
X84529192Y-44378205D01*
X84425003Y-44378838D01*
X84421390Y-44378754D01*
X84322256Y-44373525D01*
X84318720Y-44373236D01*
X84221684Y-44362480D01*
X84218156Y-44361985D01*
X84124579Y-44346084D01*
X84120984Y-44345362D01*
X84032148Y-44324753D01*
X84028423Y-44323764D01*
X83943596Y-44298354D01*
X83940870Y-44297466D01*
X83910920Y-44286927D01*
X83909783Y-44286515D01*
X83880489Y-44275555D01*
X83879132Y-44275028D01*
X83788709Y-44238734D01*
X83785486Y-44237332D01*
X83704332Y-44199240D01*
X83700704Y-44197388D01*
X83619541Y-44152510D01*
X83615550Y-44150102D01*
X83583486Y-44129053D01*
X83570838Y-44118008D01*
X83570367Y-44117466D01*
X83554861Y-44109742D01*
X83548531Y-44106106D01*
X83534045Y-44096596D01*
X83528431Y-44094324D01*
X83528731Y-44093581D01*
X83513518Y-44087146D01*
X83492067Y-44072087D01*
X83450723Y-44043062D01*
X83447912Y-44040966D01*
X83376827Y-43984712D01*
X83373768Y-43982124D01*
X83302356Y-43917619D01*
X83299219Y-43914576D01*
X83269443Y-43883566D01*
X83259553Y-43869938D01*
X83259252Y-43869375D01*
X83245806Y-43858332D01*
X83240477Y-43853401D01*
X83234921Y-43847615D01*
X83228421Y-43840845D01*
X83223455Y-43837379D01*
X83223999Y-43836598D01*
X83214215Y-43829868D01*
X83212348Y-43827978D01*
X83202167Y-43817672D01*
X83201466Y-43816949D01*
X83182099Y-43796633D01*
X83182098Y-43796632D01*
X83180584Y-43795044D01*
X83175891Y-43791072D01*
X83144054Y-43758845D01*
X83138390Y-43752041D01*
X83118287Y-43732732D01*
X83117137Y-43731598D01*
X83097594Y-43711814D01*
X83090699Y-43706236D01*
X83059101Y-43675886D01*
X83053227Y-43669198D01*
X83052734Y-43668749D01*
X83052734Y-43668748D01*
X83032658Y-43650459D01*
X83031476Y-43649354D01*
X83030616Y-43648528D01*
X83011913Y-43630564D01*
X83011911Y-43630563D01*
X83011424Y-43630095D01*
X83004374Y-43624692D01*
X82974068Y-43597084D01*
X82967789Y-43590310D01*
X82967103Y-43589719D01*
X82946929Y-43572330D01*
X82945675Y-43571219D01*
X82941967Y-43567841D01*
X82925707Y-43553028D01*
X82925705Y-43553027D01*
X82925344Y-43552698D01*
X82917866Y-43547280D01*
X82912434Y-43542598D01*
X82889926Y-43523198D01*
X82882954Y-43516095D01*
X82862057Y-43499142D01*
X82860652Y-43497967D01*
X82840291Y-43480417D01*
X82832068Y-43474812D01*
X82807914Y-43455217D01*
X82806679Y-43454001D01*
X82781501Y-43433776D01*
X82775081Y-43427651D01*
X82752906Y-43410777D01*
X82751633Y-43409782D01*
X82729958Y-43392370D01*
X82722463Y-43387614D01*
X82714799Y-43381782D01*
X82665746Y-43344457D01*
X82658286Y-43337752D01*
X82657888Y-43337330D01*
X82636360Y-43322052D01*
X82634713Y-43320842D01*
X82613683Y-43304840D01*
X82613158Y-43304584D01*
X82604536Y-43299467D01*
X82546721Y-43258434D01*
X82539043Y-43251983D01*
X82538647Y-43251590D01*
X82516606Y-43237020D01*
X82514929Y-43235871D01*
X82493372Y-43220573D01*
X82492858Y-43220343D01*
X82484088Y-43215523D01*
X82425239Y-43176620D01*
X82417350Y-43170422D01*
X82416977Y-43170076D01*
X82416975Y-43170074D01*
X82394463Y-43156235D01*
X82392757Y-43155147D01*
X82370680Y-43140553D01*
X82370192Y-43140354D01*
X82361244Y-43135815D01*
X82301490Y-43099082D01*
X82293395Y-43093143D01*
X82293017Y-43092815D01*
X82270028Y-43079703D01*
X82268307Y-43078683D01*
X82245763Y-43064824D01*
X82245284Y-43064647D01*
X82236192Y-43060404D01*
X82175604Y-43025848D01*
X82167317Y-43020178D01*
X82166936Y-43019869D01*
X82166935Y-43019868D01*
X82162876Y-43017726D01*
X82143536Y-43007520D01*
X82141769Y-43006551D01*
X82118777Y-42993438D01*
X82118310Y-42993282D01*
X82109079Y-42989338D01*
X82047740Y-42956971D01*
X82039268Y-42951572D01*
X82038877Y-42951275D01*
X82015072Y-42939694D01*
X82013277Y-42938784D01*
X81989885Y-42926441D01*
X81989414Y-42926301D01*
X81980054Y-42922660D01*
X81918059Y-42892501D01*
X81909415Y-42887384D01*
X81909017Y-42887102D01*
X81909016Y-42887101D01*
X81909014Y-42887100D01*
X81884867Y-42876316D01*
X81883043Y-42875466D01*
X81859230Y-42863882D01*
X81858752Y-42863757D01*
X81849280Y-42860425D01*
X81786721Y-42832489D01*
X81777912Y-42827657D01*
X81777489Y-42827377D01*
X81752989Y-42817389D01*
X81751131Y-42816596D01*
X81728616Y-42806542D01*
X81726984Y-42805813D01*
X81726983Y-42805812D01*
X81726981Y-42805812D01*
X81726488Y-42805700D01*
X81716916Y-42802683D01*
X81653858Y-42776974D01*
X81644914Y-42772444D01*
X81644459Y-42772165D01*
X81619661Y-42762996D01*
X81617773Y-42762263D01*
X81593319Y-42752294D01*
X81593285Y-42752280D01*
X81593284Y-42752280D01*
X81593282Y-42752279D01*
X81592758Y-42752178D01*
X81583098Y-42749478D01*
X81519650Y-42726019D01*
X81510570Y-42721792D01*
X81510079Y-42721512D01*
X81484992Y-42713171D01*
X81483097Y-42712506D01*
X81458295Y-42703337D01*
X81458292Y-42703336D01*
X81457726Y-42703246D01*
X81447998Y-42700870D01*
X81384237Y-42679669D01*
X81375032Y-42675751D01*
X81374492Y-42675467D01*
X81349182Y-42667978D01*
X81347229Y-42667365D01*
X81322167Y-42659032D01*
X81321555Y-42658956D01*
X81311757Y-42656907D01*
X81247789Y-42637981D01*
X81238468Y-42634376D01*
X81237866Y-42634085D01*
X81212325Y-42627452D01*
X81210338Y-42626901D01*
X81185058Y-42619422D01*
X81185057Y-42619422D01*
X81184380Y-42619360D01*
X81174544Y-42617643D01*
X81110438Y-42600998D01*
X81101012Y-42597714D01*
X81100347Y-42597420D01*
X81100346Y-42597419D01*
X81074619Y-42591661D01*
X81072635Y-42591182D01*
X81047113Y-42584556D01*
X81046382Y-42584514D01*
X81036505Y-42583133D01*
X80996864Y-42574263D01*
X80972352Y-42568778D01*
X80962841Y-42565823D01*
X80962090Y-42565521D01*
X80936225Y-42560656D01*
X80934166Y-42560232D01*
X80908502Y-42554490D01*
X80907693Y-42554471D01*
X80897795Y-42553429D01*
X80833659Y-42541367D01*
X80824083Y-42538751D01*
X80823247Y-42538448D01*
X80823242Y-42538447D01*
X80797288Y-42534491D01*
X80795199Y-42534136D01*
X80769366Y-42529278D01*
X80768453Y-42529288D01*
X80758561Y-42528589D01*
X80673999Y-42515703D01*
X80660693Y-42511118D01*
X80660611Y-42511370D01*
X80654850Y-42509485D01*
X80636738Y-42507306D01*
X80630073Y-42506129D01*
X80612315Y-42501973D01*
X80611801Y-42501956D01*
X80595208Y-42502312D01*
X80583875Y-42500950D01*
X80509561Y-42492012D01*
X80499894Y-42490053D01*
X80498809Y-42489740D01*
X80472768Y-42487548D01*
X80470585Y-42487325D01*
X80444601Y-42484200D01*
X80443457Y-42484288D01*
X80433605Y-42484250D01*
X80353250Y-42477486D01*
X80343501Y-42475869D01*
X80342455Y-42475607D01*
X80316299Y-42474336D01*
X80314128Y-42474192D01*
X80288052Y-42471997D01*
X80286974Y-42472119D01*
X80277109Y-42472433D01*
X80196826Y-42468533D01*
X80187011Y-42467258D01*
X80186015Y-42467046D01*
X80159791Y-42466696D01*
X80157631Y-42466629D01*
X80137878Y-42465670D01*
X80131473Y-42465359D01*
X80131472Y-42465359D01*
X80131470Y-42465359D01*
X80130458Y-42465510D01*
X80120590Y-42466174D01*
X80040492Y-42465107D01*
X80030624Y-42464176D01*
X80029661Y-42464006D01*
X80029658Y-42464006D01*
X80027487Y-42464053D01*
X80003422Y-42464575D01*
X80001273Y-42464584D01*
X79975580Y-42464242D01*
X79975070Y-42464236D01*
X79975069Y-42464236D01*
X79974098Y-42464416D01*
X79964246Y-42465427D01*
X79884455Y-42467161D01*
X79874554Y-42466577D01*
X79873601Y-42466442D01*
X79847402Y-42467928D01*
X79845259Y-42468012D01*
X79819041Y-42468582D01*
X79818094Y-42468792D01*
X79808281Y-42470147D01*
X79728913Y-42474649D01*
X79719003Y-42474411D01*
X79718057Y-42474311D01*
X79691901Y-42476711D01*
X79689768Y-42476869D01*
X79663583Y-42478355D01*
X79662659Y-42478594D01*
X79652906Y-42480290D01*
X79574059Y-42487527D01*
X79564150Y-42487634D01*
X79563206Y-42487568D01*
X79537142Y-42490879D01*
X79535015Y-42491111D01*
X79508905Y-42493508D01*
X79507983Y-42493781D01*
X79498294Y-42495815D01*
X79420101Y-42505751D01*
X79410208Y-42506205D01*
X79409247Y-42506171D01*
X79383351Y-42510385D01*
X79381229Y-42510692D01*
X79355198Y-42514000D01*
X79354281Y-42514307D01*
X79344669Y-42516678D01*
X79267238Y-42529279D01*
X79257360Y-42530078D01*
X79256385Y-42530078D01*
X79230686Y-42535190D01*
X79228592Y-42535569D01*
X79215528Y-42537695D01*
X79202666Y-42539788D01*
X79201736Y-42540136D01*
X79192217Y-42542841D01*
X79115674Y-42558067D01*
X79105849Y-42559211D01*
X79104823Y-42559247D01*
X79079345Y-42565255D01*
X79077230Y-42565715D01*
X79051504Y-42570832D01*
X79050549Y-42571228D01*
X79041139Y-42574263D01*
X78965599Y-42592075D01*
X78955833Y-42593563D01*
X78954758Y-42593639D01*
X78929505Y-42600546D01*
X78927398Y-42601083D01*
X78901909Y-42607094D01*
X78900927Y-42607542D01*
X78891649Y-42610901D01*
X78817212Y-42631263D01*
X78807524Y-42633093D01*
X78806391Y-42633214D01*
X78781421Y-42641013D01*
X78779317Y-42641629D01*
X78754092Y-42648530D01*
X78753072Y-42649040D01*
X78743928Y-42652724D01*
X78670707Y-42675595D01*
X78661109Y-42677768D01*
X78659907Y-42677940D01*
X78635298Y-42686613D01*
X78633197Y-42687311D01*
X78608246Y-42695106D01*
X78607169Y-42695693D01*
X78598192Y-42699690D01*
X78526297Y-42725029D01*
X78516815Y-42727541D01*
X78515523Y-42727774D01*
X78491275Y-42737329D01*
X78489176Y-42738112D01*
X78464584Y-42746780D01*
X78463454Y-42747451D01*
X78454637Y-42751767D01*
X78384171Y-42779534D01*
X78374809Y-42782386D01*
X78373425Y-42782689D01*
X78349589Y-42793115D01*
X78347496Y-42793985D01*
X78323287Y-42803526D01*
X78322084Y-42804300D01*
X78313473Y-42808914D01*
X78244821Y-42838946D01*
X78242834Y-42839598D01*
X78214864Y-42852028D01*
X78207317Y-42854628D01*
X78187666Y-42863919D01*
X78186039Y-42864660D01*
X78180320Y-42867162D01*
X78178507Y-42868184D01*
X78153992Y-42879079D01*
X78147107Y-42883094D01*
X78125778Y-42893178D01*
X78117097Y-42896419D01*
X78092590Y-42908843D01*
X78091072Y-42909586D01*
X78066221Y-42921336D01*
X78058323Y-42926217D01*
X77995228Y-42958206D01*
X77985938Y-42961998D01*
X77985459Y-42962149D01*
X77985455Y-42962150D01*
X77985455Y-42962151D01*
X77966269Y-42972683D01*
X77962249Y-42974890D01*
X77960466Y-42975830D01*
X77936877Y-42987789D01*
X77936485Y-42988098D01*
X77928112Y-42993629D01*
X77866313Y-43027555D01*
X77857142Y-43031653D01*
X77856718Y-43031802D01*
X77833913Y-43045305D01*
X77832178Y-43046294D01*
X77808976Y-43059032D01*
X77808621Y-43059331D01*
X77800425Y-43065137D01*
X77740068Y-43100880D01*
X77731027Y-43105279D01*
X77730627Y-43105434D01*
X77708271Y-43119672D01*
X77706576Y-43120714D01*
X77683779Y-43134215D01*
X77683461Y-43134501D01*
X77675452Y-43140576D01*
X77636043Y-43165677D01*
X77616656Y-43178024D01*
X77607761Y-43182715D01*
X77607373Y-43182880D01*
X77585505Y-43197826D01*
X77583847Y-43198920D01*
X77561478Y-43213169D01*
X77561174Y-43213461D01*
X77553367Y-43219793D01*
X77496255Y-43258830D01*
X77487527Y-43263802D01*
X77487127Y-43263988D01*
X77465733Y-43279654D01*
X77464106Y-43280806D01*
X77442252Y-43295744D01*
X77441953Y-43296050D01*
X77434353Y-43302634D01*
X77379053Y-43343131D01*
X77370488Y-43348386D01*
X77370064Y-43348600D01*
X77349221Y-43364935D01*
X77347623Y-43366146D01*
X77326273Y-43381781D01*
X77325950Y-43382134D01*
X77318579Y-43388952D01*
X77265208Y-43430783D01*
X77256840Y-43436304D01*
X77256373Y-43436559D01*
X77236109Y-43453548D01*
X77234539Y-43454820D01*
X77213719Y-43471139D01*
X77213369Y-43471547D01*
X77206240Y-43478590D01*
X77154910Y-43521625D01*
X77146757Y-43527401D01*
X77146223Y-43527717D01*
X77126559Y-43545351D01*
X77125015Y-43546690D01*
X77104781Y-43563655D01*
X77104390Y-43564143D01*
X77097516Y-43571399D01*
X77048338Y-43615507D01*
X77040394Y-43621544D01*
X77039786Y-43621932D01*
X77020785Y-43640171D01*
X77019262Y-43641584D01*
X76999636Y-43659186D01*
X76999197Y-43659773D01*
X76992585Y-43667241D01*
X76943623Y-43714240D01*
X76935448Y-43719980D01*
X76935540Y-43720100D01*
X76930738Y-43723793D01*
X76917097Y-43739382D01*
X76913407Y-43743246D01*
X76898471Y-43757584D01*
X76895004Y-43762551D01*
X76894342Y-43762088D01*
X76888129Y-43771292D01*
X76859541Y-43800521D01*
X76852510Y-43806593D01*
X76833856Y-43826751D01*
X76832689Y-43827978D01*
X76813485Y-43847615D01*
X76807775Y-43854936D01*
X76759593Y-43907008D01*
X76752201Y-43913792D01*
X76751793Y-43914108D01*
X76734479Y-43934100D01*
X76733133Y-43935603D01*
X76715163Y-43955025D01*
X76714893Y-43955466D01*
X76708964Y-43963563D01*
X76662747Y-44016929D01*
X76655568Y-44023964D01*
X76655202Y-44024268D01*
X76638528Y-44044843D01*
X76637238Y-44046382D01*
X76619918Y-44066382D01*
X76619680Y-44066800D01*
X76614019Y-44075085D01*
X76569839Y-44129605D01*
X76562895Y-44136871D01*
X76562559Y-44137168D01*
X76546584Y-44158249D01*
X76545354Y-44159818D01*
X76528658Y-44180424D01*
X76528444Y-44180832D01*
X76523051Y-44189308D01*
X76481016Y-44244783D01*
X76474318Y-44252264D01*
X76473980Y-44252584D01*
X76458671Y-44274219D01*
X76457489Y-44275832D01*
X76441505Y-44296929D01*
X76441308Y-44297336D01*
X76436192Y-44305989D01*
X76396368Y-44362270D01*
X76389919Y-44369965D01*
X76389576Y-44370312D01*
X76375001Y-44392410D01*
X76373867Y-44394069D01*
X76358582Y-44415672D01*
X76358384Y-44416118D01*
X76353557Y-44424925D01*
X76316027Y-44481828D01*
X76309847Y-44489716D01*
X76309473Y-44490119D01*
X76295645Y-44512672D01*
X76294558Y-44514382D01*
X76280009Y-44536442D01*
X76279806Y-44536943D01*
X76275280Y-44545887D01*
X76240111Y-44603243D01*
X76234211Y-44611311D01*
X76233801Y-44611784D01*
X76220741Y-44634770D01*
X76219700Y-44636532D01*
X76205916Y-44659012D01*
X76205701Y-44659597D01*
X76201485Y-44668662D01*
X76168744Y-44726293D01*
X76163130Y-44734537D01*
X76162673Y-44735103D01*
X76150443Y-44758433D01*
X76149448Y-44760257D01*
X76136427Y-44783177D01*
X76136197Y-44783871D01*
X76132300Y-44793047D01*
X76102050Y-44850759D01*
X76096744Y-44859155D01*
X76096219Y-44859852D01*
X76084823Y-44883546D01*
X76083873Y-44885438D01*
X76071676Y-44908709D01*
X76071430Y-44909544D01*
X76067864Y-44918807D01*
X76040163Y-44976407D01*
X76036393Y-44982761D01*
X76026910Y-45003620D01*
X76024479Y-45007888D01*
X76019402Y-45019484D01*
X76018494Y-45021461D01*
X76011146Y-45036744D01*
X76008690Y-45043702D01*
X75998567Y-45065975D01*
X75997016Y-45070628D01*
X75964669Y-45144528D01*
X75960007Y-45153210D01*
X75959390Y-45154166D01*
X75949776Y-45178454D01*
X75948933Y-45180477D01*
X75938433Y-45204466D01*
X75938187Y-45205588D01*
X75935306Y-45215011D01*
X75905655Y-45289928D01*
X75901299Y-45298782D01*
X75900742Y-45299714D01*
X75891980Y-45324376D01*
X75891214Y-45326416D01*
X75881577Y-45350764D01*
X75881382Y-45351834D01*
X75878835Y-45361369D01*
X75851937Y-45437075D01*
X75847889Y-45446095D01*
X75847386Y-45447009D01*
X75839492Y-45471986D01*
X75838803Y-45474040D01*
X75830032Y-45498725D01*
X75829883Y-45499750D01*
X75827670Y-45509394D01*
X75803528Y-45585780D01*
X75799795Y-45594948D01*
X75799340Y-45595849D01*
X75792321Y-45621107D01*
X75791709Y-45623170D01*
X75783810Y-45648166D01*
X75783701Y-45649158D01*
X75781827Y-45658880D01*
X75760441Y-45735852D01*
X75757035Y-45745140D01*
X75756622Y-45746035D01*
X75750489Y-45771535D01*
X75749950Y-45773613D01*
X75742929Y-45798888D01*
X75742856Y-45799865D01*
X75741323Y-45809652D01*
X75722701Y-45887091D01*
X75719621Y-45896495D01*
X75719245Y-45897389D01*
X75714010Y-45923076D01*
X75713545Y-45925168D01*
X75707406Y-45950703D01*
X75707368Y-45951670D01*
X75706178Y-45961507D01*
X75690322Y-46039301D01*
X75687571Y-46048810D01*
X75687227Y-46049716D01*
X75682889Y-46075588D01*
X75682498Y-46077697D01*
X75677256Y-46103416D01*
X75677252Y-46104387D01*
X75676407Y-46114247D01*
X75663319Y-46192306D01*
X75660901Y-46201908D01*
X75660588Y-46202827D01*
X75657157Y-46228828D01*
X75656840Y-46230948D01*
X75652502Y-46256822D01*
X75652532Y-46257787D01*
X75652032Y-46267688D01*
X75641716Y-46345883D01*
X75639638Y-46355553D01*
X75639350Y-46356509D01*
X75636831Y-46382632D01*
X75636587Y-46384769D01*
X75633161Y-46410748D01*
X75633225Y-46411729D01*
X75633071Y-46421635D01*
X75625529Y-46499866D01*
X75623791Y-46509603D01*
X75623531Y-46510589D01*
X75621934Y-46536768D01*
X75621764Y-46538923D01*
X75619250Y-46564998D01*
X75619352Y-46566009D01*
X75619546Y-46575897D01*
X75614778Y-46654062D01*
X75613388Y-46663837D01*
X75613153Y-46664879D01*
X75612483Y-46691054D01*
X75612389Y-46693223D01*
X75610794Y-46719369D01*
X75610938Y-46720423D01*
X75611480Y-46730293D01*
X75609486Y-46808269D01*
X75608444Y-46818079D01*
X75608237Y-46819174D01*
X75608500Y-46845335D01*
X75608483Y-46847523D01*
X75607814Y-46873680D01*
X75608003Y-46874773D01*
X75608894Y-46884605D01*
X75609674Y-46962303D01*
X75608985Y-46972121D01*
X75608807Y-46973291D01*
X75610007Y-46999380D01*
X75610069Y-47001585D01*
X75610332Y-47027730D01*
X75610573Y-47028882D01*
X75611812Y-47038657D01*
X75615366Y-47115970D01*
X75615033Y-47125782D01*
X75614889Y-47127032D01*
X75617032Y-47153061D01*
X75617174Y-47155279D01*
X75618372Y-47181338D01*
X75618671Y-47182545D01*
X75620260Y-47192251D01*
X75626586Y-47269074D01*
X75626609Y-47278872D01*
X75626505Y-47280209D01*
X75629595Y-47306109D01*
X75629820Y-47308346D01*
X75631957Y-47334292D01*
X75632325Y-47335580D01*
X75634259Y-47345190D01*
X75643362Y-47421460D01*
X75643733Y-47431509D01*
X75643713Y-47431940D01*
X75647709Y-47458158D01*
X75647977Y-47460132D01*
X75651128Y-47486527D01*
X75653460Y-47496521D01*
X75653666Y-47497945D01*
X75653998Y-47504026D01*
X75654356Y-47506231D01*
X75654356Y-47506233D01*
X75658044Y-47528920D01*
X75658855Y-47533910D01*
X75659018Y-47534977D01*
X75663357Y-47564996D01*
X75664866Y-47570894D01*
X75669550Y-47599704D01*
X75670144Y-47607638D01*
X75675400Y-47635798D01*
X75675647Y-47637212D01*
X75680241Y-47665473D01*
X75682367Y-47673126D01*
X75687717Y-47701787D01*
X75688698Y-47711470D01*
X75694442Y-47737958D01*
X75694794Y-47739705D01*
X75699763Y-47766325D01*
X75702608Y-47775612D01*
X75719339Y-47852758D01*
X75720653Y-47862603D01*
X75720699Y-47863502D01*
X75727151Y-47888955D01*
X75727639Y-47891030D01*
X75733206Y-47916702D01*
X75733565Y-47917527D01*
X75736773Y-47926921D01*
X75756055Y-48002996D01*
X75757709Y-48012780D01*
X75757786Y-48013668D01*
X75765117Y-48038896D01*
X75765674Y-48040945D01*
X75772048Y-48066089D01*
X75772130Y-48066412D01*
X75772132Y-48066415D01*
X75772508Y-48067204D01*
X75776045Y-48076495D01*
X75797797Y-48151346D01*
X75799788Y-48161070D01*
X75799895Y-48161954D01*
X75808096Y-48186917D01*
X75808724Y-48188946D01*
X75816056Y-48214173D01*
X75816463Y-48214956D01*
X75820316Y-48224112D01*
X75844450Y-48297575D01*
X75846775Y-48307212D01*
X75846918Y-48308122D01*
X75855971Y-48332759D01*
X75856673Y-48334776D01*
X75864871Y-48359730D01*
X75865320Y-48360526D01*
X75869479Y-48369525D01*
X75895905Y-48441441D01*
X75898562Y-48450987D01*
X75898745Y-48451935D01*
X75908633Y-48476192D01*
X75909409Y-48478195D01*
X75918471Y-48502856D01*
X75918975Y-48503681D01*
X75923442Y-48512526D01*
X75952050Y-48582708D01*
X75955035Y-48592134D01*
X75955269Y-48593155D01*
X75966001Y-48617035D01*
X75966855Y-48619028D01*
X75970394Y-48627709D01*
X75976749Y-48643299D01*
X75976752Y-48643302D01*
X75977319Y-48644161D01*
X75982088Y-48652833D01*
X76012784Y-48721141D01*
X76016094Y-48730436D01*
X76016389Y-48731538D01*
X76027947Y-48754980D01*
X76028883Y-48756967D01*
X76039606Y-48780828D01*
X76040260Y-48781747D01*
X76045318Y-48790214D01*
X76062319Y-48824696D01*
X76078004Y-48856510D01*
X76081628Y-48865633D01*
X76082003Y-48866853D01*
X76094379Y-48889817D01*
X76095400Y-48891797D01*
X76106938Y-48915198D01*
X76107709Y-48916203D01*
X76113047Y-48924452D01*
X76147619Y-48988594D01*
X76151670Y-48997863D01*
X76151743Y-48998078D01*
X76165090Y-49021073D01*
X76166037Y-49022766D01*
X76178654Y-49046175D01*
X76178678Y-49046204D01*
X76184557Y-49054673D01*
X76202462Y-49085738D01*
X76205498Y-49092266D01*
X76220673Y-49117361D01*
X76221328Y-49118472D01*
X76235956Y-49143849D01*
X76240207Y-49149661D01*
X76256066Y-49175885D01*
X76259536Y-49182934D01*
X76274989Y-49207206D01*
X76275736Y-49208410D01*
X76287223Y-49227405D01*
X76290580Y-49232955D01*
X76295345Y-49239177D01*
X76311501Y-49264552D01*
X76315456Y-49272122D01*
X76331125Y-49295413D01*
X76331974Y-49296710D01*
X76347106Y-49320475D01*
X76352459Y-49327125D01*
X76379777Y-49367729D01*
X76384337Y-49375919D01*
X76400278Y-49398244D01*
X76401237Y-49399626D01*
X76409097Y-49411309D01*
X76416536Y-49422366D01*
X76422596Y-49429497D01*
X76449793Y-49467583D01*
X76454725Y-49475878D01*
X76454887Y-49476092D01*
X76454888Y-49476093D01*
X76471071Y-49497429D01*
X76471133Y-49497511D01*
X76472181Y-49498935D01*
X76487972Y-49521048D01*
X76494420Y-49528213D01*
X76520694Y-49562854D01*
X76525434Y-49570114D01*
X76528235Y-49575149D01*
X76543834Y-49593518D01*
X76545953Y-49596158D01*
X76557850Y-49611841D01*
X76560506Y-49615343D01*
X76560510Y-49615345D01*
X76562319Y-49616950D01*
X76569441Y-49624424D01*
X76589304Y-49649129D01*
X76593448Y-49655320D01*
X76594381Y-49656430D01*
X76594382Y-49656432D01*
X76606404Y-49670733D01*
X76612149Y-49677567D01*
X76613002Y-49678605D01*
X76631221Y-49701266D01*
X76636500Y-49706536D01*
X76656764Y-49730641D01*
X76662046Y-49738126D01*
X76662398Y-49738523D01*
X76662399Y-49738524D01*
X76680377Y-49758764D01*
X76681448Y-49760004D01*
X76699202Y-49781123D01*
X76705849Y-49787439D01*
X76725247Y-49809277D01*
X76725722Y-49809929D01*
X76739884Y-49825803D01*
X76744350Y-49831785D01*
X76762684Y-49851452D01*
X76763673Y-49852538D01*
X76772670Y-49862664D01*
X76773250Y-49863198D01*
X76784439Y-49875739D01*
X76789975Y-49880724D01*
X76801439Y-49893020D01*
X76805964Y-49898817D01*
X76826280Y-49919689D01*
X76827194Y-49920648D01*
X76847107Y-49942008D01*
X76852675Y-49946807D01*
X76875507Y-49970264D01*
X76880984Y-49976948D01*
X76881555Y-49977505D01*
X76881556Y-49977507D01*
X76901105Y-49996590D01*
X76902084Y-49997570D01*
X76921138Y-50017146D01*
X76921704Y-50017727D01*
X76928369Y-50023205D01*
X76951828Y-50046104D01*
X76956835Y-50051923D01*
X76977945Y-50071622D01*
X76978945Y-50072576D01*
X77003009Y-50096065D01*
X77002996Y-50096077D01*
X77004151Y-50097015D01*
X77063929Y-50157017D01*
X77066460Y-50159715D01*
X77132245Y-50234213D01*
X77134597Y-50237043D01*
X77150191Y-50256990D01*
X77195300Y-50314690D01*
X77197472Y-50317648D01*
X77211030Y-50337323D01*
X77252700Y-50397795D01*
X77254739Y-50400957D01*
X77304082Y-50482870D01*
X77305973Y-50486245D01*
X77350086Y-50571130D01*
X77351321Y-50573646D01*
X77352124Y-50575380D01*
X77355368Y-50584036D01*
X77356325Y-50587325D01*
X77367893Y-50609573D01*
X77369130Y-50612092D01*
X77379609Y-50634711D01*
X77380592Y-50636946D01*
X77412831Y-50714462D01*
X77414143Y-50717905D01*
X77446746Y-50811795D01*
X77447842Y-50815284D01*
X77474549Y-50910034D01*
X77475440Y-50913597D01*
X77496144Y-51008400D01*
X77496830Y-51012077D01*
X77511431Y-51106025D01*
X77511904Y-51109851D01*
X77520566Y-51204267D01*
X77520759Y-51207075D01*
X77520827Y-51208561D01*
X77520573Y-51214356D01*
X77522490Y-51244846D01*
X77522546Y-51245877D01*
X77523476Y-51266098D01*
X77523540Y-51268526D01*
X77524111Y-51356654D01*
X77524033Y-51360171D01*
X77519383Y-51451732D01*
X77519085Y-51455414D01*
X77509510Y-51541468D01*
X77508916Y-51545554D01*
X77499043Y-51600445D01*
X77495063Y-51612270D01*
X77493942Y-51616243D01*
X77492413Y-51635604D01*
X77491633Y-51641646D01*
X77487924Y-51662272D01*
X77486657Y-51674551D01*
X77470955Y-51743561D01*
X77470086Y-51746937D01*
X77444625Y-51835344D01*
X77443523Y-51838785D01*
X77414462Y-51921160D01*
X77413025Y-51924849D01*
X77391533Y-51975148D01*
X77386378Y-51983376D01*
X77386623Y-51983516D01*
X77383617Y-51988774D01*
X77376837Y-52009031D01*
X77375072Y-52013671D01*
X77366528Y-52033668D01*
X77362578Y-52045726D01*
X77214782Y-52371815D01*
X77214776Y-52371829D01*
X76932375Y-53086190D01*
X76685366Y-53813513D01*
X76685348Y-53813572D01*
X76474321Y-54552111D01*
X76474307Y-54552163D01*
X76299758Y-55300184D01*
X76299750Y-55300222D01*
X76162102Y-56055914D01*
X76061690Y-56817438D01*
X76061684Y-56817494D01*
X75998746Y-57583034D01*
X75998746Y-57583048D01*
X75976753Y-58250211D01*
X75973437Y-58350795D01*
X75973437Y-58350803D01*
X75985816Y-59118834D01*
X75985818Y-59118870D01*
X76035858Y-59885357D01*
X76123439Y-60648501D01*
X76123441Y-60648516D01*
X76248348Y-61406425D01*
X76410292Y-62157340D01*
X76608865Y-62899360D01*
X76608875Y-62899392D01*
X76690284Y-63153047D01*
X76843607Y-63630777D01*
X76977409Y-63986654D01*
X77113944Y-64349799D01*
X77419213Y-65054665D01*
X77758707Y-65743741D01*
X77932296Y-66056381D01*
X77933552Y-66059392D01*
X77951708Y-66092013D01*
X77952323Y-66093145D01*
X77954768Y-66097763D01*
X77954928Y-66098068D01*
X78067111Y-66313724D01*
X78208475Y-66585475D01*
X78209989Y-66588598D01*
X78436816Y-67092140D01*
X78438152Y-67095343D01*
X78556220Y-67402656D01*
X78629864Y-67594340D01*
X78636223Y-67610890D01*
X78637376Y-67614163D01*
X78806054Y-68140069D01*
X78807020Y-68143402D01*
X78945769Y-68677982D01*
X78946545Y-68681364D01*
X79054916Y-69222896D01*
X79055501Y-69226317D01*
X79133157Y-69773116D01*
X79133548Y-69776564D01*
X79180240Y-70326870D01*
X79180436Y-70330334D01*
X79188320Y-70609684D01*
X79196063Y-70884093D01*
X79196087Y-70885779D01*
X79196088Y-72131547D01*
X79196088Y-72163889D01*
X79195956Y-72167912D01*
X79180528Y-72403284D01*
X79179478Y-72411259D01*
X79133854Y-72640630D01*
X79131772Y-72648401D01*
X79056601Y-72869847D01*
X79053523Y-72877279D01*
X78950084Y-73087034D01*
X78946061Y-73094001D01*
X78816135Y-73288447D01*
X78811238Y-73294829D01*
X78657040Y-73470657D01*
X78651352Y-73476345D01*
X78475520Y-73630545D01*
X78469137Y-73635442D01*
X78274697Y-73765362D01*
X78267731Y-73769385D01*
X78057972Y-73872826D01*
X78050539Y-73875904D01*
X77829093Y-73951074D01*
X77821323Y-73953156D01*
X77591951Y-73998779D01*
X77583975Y-73999829D01*
X77347928Y-74015300D01*
X77343906Y-74015432D01*
X33904804Y-74015432D01*
X33902792Y-74015399D01*
X33392422Y-73998690D01*
X33388406Y-73998427D01*
X32881220Y-73948474D01*
X32877230Y-73947949D01*
X32374378Y-73864927D01*
X32370431Y-73864141D01*
X31874127Y-73748418D01*
X31870240Y-73747377D01*
X31382528Y-73599432D01*
X31378716Y-73598138D01*
X30901744Y-73418617D01*
X30898026Y-73417077D01*
X30433809Y-73206741D01*
X30430200Y-73204961D01*
X29980741Y-72964719D01*
X29977256Y-72962707D01*
X29544471Y-72693583D01*
X29541124Y-72691347D01*
X29126854Y-72394482D01*
X29123662Y-72392032D01*
X28729709Y-72068721D01*
X28726683Y-72066067D01*
X28353408Y-71716454D01*
X28351962Y-71715055D01*
X26901068Y-70264161D01*
X34463713Y-70264161D01*
X34483386Y-70476471D01*
X34493299Y-70511311D01*
X34541736Y-70681549D01*
X34573330Y-70744999D01*
X34636777Y-70872417D01*
X34636779Y-70872420D01*
X34636780Y-70872421D01*
X34765270Y-71042570D01*
X34765272Y-71042572D01*
X34922839Y-71186213D01*
X34922845Y-71186218D01*
X35104123Y-71298460D01*
X35196056Y-71334074D01*
X35302945Y-71375483D01*
X35512533Y-71414662D01*
X35512536Y-71414662D01*
X35725750Y-71414662D01*
X35725753Y-71414662D01*
X35935341Y-71375483D01*
X36134162Y-71298460D01*
X36315440Y-71186218D01*
X36315446Y-71186213D01*
X36473013Y-71042572D01*
X36473015Y-71042570D01*
X36591418Y-70885779D01*
X36601509Y-70872417D01*
X36696549Y-70681550D01*
X36754900Y-70476471D01*
X36774573Y-70264161D01*
X36754900Y-70051851D01*
X36696549Y-69846772D01*
X36601509Y-69655905D01*
X36505276Y-69528472D01*
X36473015Y-69485751D01*
X36473013Y-69485749D01*
X36315446Y-69342108D01*
X36315440Y-69342103D01*
X36134162Y-69229861D01*
X35935344Y-69152840D01*
X35935343Y-69152839D01*
X35935341Y-69152839D01*
X35725753Y-69113660D01*
X35512533Y-69113660D01*
X35302945Y-69152839D01*
X35302943Y-69152839D01*
X35302941Y-69152840D01*
X35104123Y-69229861D01*
X34922845Y-69342103D01*
X34922839Y-69342108D01*
X34765272Y-69485749D01*
X34765270Y-69485751D01*
X34636780Y-69655900D01*
X34636778Y-69655903D01*
X34636777Y-69655905D01*
X34615384Y-69698869D01*
X34541736Y-69846772D01*
X34483387Y-70051847D01*
X34483386Y-70051850D01*
X34471414Y-70181050D01*
X34463713Y-70264161D01*
X26901068Y-70264161D01*
X24040284Y-67403376D01*
X24038884Y-67401930D01*
X23796925Y-67143591D01*
X23689811Y-67029226D01*
X23687162Y-67026204D01*
X23674552Y-67010839D01*
X23363856Y-66632251D01*
X23361409Y-66629061D01*
X23330176Y-66585475D01*
X23107695Y-66275000D01*
X25419196Y-66275000D01*
X25440280Y-66408125D01*
X25501471Y-66528220D01*
X25596779Y-66623528D01*
X25713092Y-66682792D01*
X25716874Y-66684719D01*
X25850000Y-66705804D01*
X25983126Y-66684719D01*
X25986908Y-66682792D01*
X31601379Y-66682792D01*
X31621224Y-66808093D01*
X31621224Y-66808094D01*
X31621225Y-66808096D01*
X31678821Y-66921134D01*
X31678823Y-66921137D01*
X31768525Y-67010839D01*
X31768527Y-67010840D01*
X31768529Y-67010842D01*
X31881567Y-67068438D01*
X32006871Y-67088284D01*
X32132175Y-67068438D01*
X32245213Y-67010842D01*
X32334921Y-66921134D01*
X32392517Y-66808096D01*
X32412363Y-66682792D01*
X32392517Y-66557488D01*
X32334921Y-66444450D01*
X32334919Y-66444448D01*
X32334918Y-66444446D01*
X32245216Y-66354744D01*
X32245213Y-66354742D01*
X32132175Y-66297146D01*
X32132173Y-66297145D01*
X32132172Y-66297145D01*
X32006871Y-66277300D01*
X31881569Y-66297145D01*
X31768525Y-66354744D01*
X31678823Y-66444446D01*
X31621224Y-66557490D01*
X31601379Y-66682792D01*
X25986908Y-66682792D01*
X26103220Y-66623528D01*
X26103221Y-66623528D01*
X26198528Y-66528221D01*
X26198528Y-66528220D01*
X26241213Y-66444446D01*
X26259719Y-66408126D01*
X26280804Y-66275000D01*
X26268925Y-66200000D01*
X27719508Y-66200000D01*
X27739353Y-66325301D01*
X27739353Y-66325302D01*
X27739354Y-66325304D01*
X27796950Y-66438342D01*
X27796952Y-66438345D01*
X27886654Y-66528047D01*
X27886656Y-66528048D01*
X27886658Y-66528050D01*
X27999696Y-66585646D01*
X28125000Y-66605492D01*
X28250304Y-66585646D01*
X28363342Y-66528050D01*
X28453050Y-66438342D01*
X28510646Y-66325304D01*
X28530492Y-66200000D01*
X28510646Y-66074696D01*
X28453050Y-65961658D01*
X28453048Y-65961656D01*
X28453047Y-65961654D01*
X28363345Y-65871952D01*
X28363342Y-65871950D01*
X28250304Y-65814354D01*
X28250302Y-65814353D01*
X28250301Y-65814353D01*
X28125000Y-65794508D01*
X27999698Y-65814353D01*
X27886654Y-65871952D01*
X27796952Y-65961654D01*
X27739353Y-66074698D01*
X27719508Y-66200000D01*
X26268925Y-66200000D01*
X26259719Y-66141874D01*
X26237243Y-66097763D01*
X26198528Y-66021779D01*
X26103220Y-65926471D01*
X25983125Y-65865280D01*
X25850000Y-65844196D01*
X25716874Y-65865280D01*
X25596779Y-65926471D01*
X25596779Y-65926472D01*
X25501472Y-66021779D01*
X25501471Y-66021779D01*
X25440280Y-66141874D01*
X25419196Y-66275000D01*
X23107695Y-66275000D01*
X23064555Y-66214798D01*
X23062333Y-66211473D01*
X22793194Y-65778657D01*
X22791201Y-65775205D01*
X22550950Y-65325722D01*
X22549172Y-65322116D01*
X22516360Y-65249698D01*
X22437206Y-65075000D01*
X67294196Y-65075000D01*
X67315280Y-65208125D01*
X67376471Y-65328220D01*
X67471779Y-65423528D01*
X67591874Y-65484719D01*
X67725000Y-65505804D01*
X67858126Y-65484719D01*
X67978220Y-65423528D01*
X67978221Y-65423528D01*
X68073528Y-65328221D01*
X68073528Y-65328220D01*
X68129802Y-65217776D01*
X68134719Y-65208126D01*
X68155804Y-65075000D01*
X68134719Y-64941874D01*
X68073528Y-64821779D01*
X67978220Y-64726471D01*
X67858125Y-64665280D01*
X67725000Y-64644196D01*
X67591874Y-64665280D01*
X67471779Y-64726471D01*
X67471779Y-64726472D01*
X67376472Y-64821779D01*
X67376471Y-64821779D01*
X67315280Y-64941874D01*
X67294196Y-65075000D01*
X22437206Y-65075000D01*
X22338839Y-64857896D01*
X22337310Y-64854206D01*
X22157790Y-64377226D01*
X22156496Y-64373415D01*
X22117758Y-64245711D01*
X22077376Y-64112586D01*
X49220010Y-64112586D01*
X49241094Y-64245711D01*
X49302285Y-64365806D01*
X49397593Y-64461114D01*
X49517688Y-64522305D01*
X49650814Y-64543390D01*
X49783940Y-64522305D01*
X49904034Y-64461114D01*
X49904035Y-64461114D01*
X49999342Y-64365807D01*
X49999342Y-64365806D01*
X50007502Y-64349791D01*
X50060533Y-64245712D01*
X50063813Y-64225000D01*
X54244508Y-64225000D01*
X54264353Y-64350301D01*
X54264353Y-64350302D01*
X54264354Y-64350304D01*
X54278072Y-64377226D01*
X54321952Y-64463345D01*
X54411654Y-64553047D01*
X54411656Y-64553048D01*
X54411658Y-64553050D01*
X54524696Y-64610646D01*
X54650000Y-64630492D01*
X54775304Y-64610646D01*
X54888342Y-64553050D01*
X54978050Y-64463342D01*
X55035646Y-64350304D01*
X55055492Y-64225000D01*
X55035646Y-64099696D01*
X54978050Y-63986658D01*
X54978048Y-63986656D01*
X54978047Y-63986654D01*
X54888345Y-63896952D01*
X54888342Y-63896950D01*
X54775304Y-63839354D01*
X54775302Y-63839353D01*
X54775301Y-63839353D01*
X54650000Y-63819508D01*
X54524698Y-63839353D01*
X54411654Y-63896952D01*
X54321952Y-63986654D01*
X54264353Y-64099698D01*
X54244508Y-64225000D01*
X50063813Y-64225000D01*
X50081618Y-64112586D01*
X50060533Y-63979460D01*
X50010792Y-63881838D01*
X49999342Y-63859365D01*
X49904034Y-63764057D01*
X49783939Y-63702866D01*
X49650814Y-63681782D01*
X49517688Y-63702866D01*
X49397593Y-63764057D01*
X49397593Y-63764058D01*
X49302286Y-63859365D01*
X49302285Y-63859365D01*
X49241094Y-63979460D01*
X49220010Y-64112586D01*
X22077376Y-64112586D01*
X22008556Y-63885714D01*
X22007518Y-63881838D01*
X21891792Y-63385507D01*
X21891010Y-63381583D01*
X21807989Y-62878722D01*
X21807465Y-62874739D01*
X21802566Y-62825000D01*
X21773427Y-62529128D01*
X23426042Y-62529128D01*
X23444876Y-62720358D01*
X23500655Y-62904238D01*
X23591240Y-63073711D01*
X23713141Y-63222247D01*
X23713142Y-63222248D01*
X23861678Y-63344149D01*
X23861679Y-63344149D01*
X23861681Y-63344151D01*
X24031148Y-63434733D01*
X24031150Y-63434733D01*
X24031151Y-63434734D01*
X24031685Y-63434896D01*
X24215031Y-63490513D01*
X24406262Y-63509348D01*
X24597493Y-63490513D01*
X24781376Y-63434733D01*
X24950843Y-63344151D01*
X25099382Y-63222248D01*
X25221285Y-63073709D01*
X25311867Y-62904242D01*
X25367647Y-62720359D01*
X25386482Y-62529128D01*
X28426042Y-62529128D01*
X28444876Y-62720358D01*
X28500655Y-62904238D01*
X28591240Y-63073711D01*
X28713141Y-63222247D01*
X28713142Y-63222248D01*
X28861678Y-63344149D01*
X28861679Y-63344149D01*
X28861681Y-63344151D01*
X29031148Y-63434733D01*
X29031150Y-63434733D01*
X29031151Y-63434734D01*
X29031685Y-63434896D01*
X29215031Y-63490513D01*
X29406262Y-63509348D01*
X29597493Y-63490513D01*
X29648633Y-63475000D01*
X37294508Y-63475000D01*
X37314353Y-63600301D01*
X37314353Y-63600302D01*
X37314354Y-63600304D01*
X37371950Y-63713342D01*
X37371952Y-63713345D01*
X37461654Y-63803047D01*
X37461656Y-63803048D01*
X37461658Y-63803050D01*
X37574696Y-63860646D01*
X37700000Y-63880492D01*
X37825304Y-63860646D01*
X37938342Y-63803050D01*
X38028050Y-63713342D01*
X38085646Y-63600304D01*
X38105492Y-63475000D01*
X38085646Y-63349696D01*
X38028050Y-63236658D01*
X38028048Y-63236656D01*
X38028047Y-63236654D01*
X37938345Y-63146952D01*
X37938342Y-63146950D01*
X37825304Y-63089354D01*
X37825302Y-63089353D01*
X37825301Y-63089353D01*
X37700000Y-63069508D01*
X37574698Y-63089353D01*
X37461654Y-63146952D01*
X37371952Y-63236654D01*
X37314353Y-63349698D01*
X37294508Y-63475000D01*
X29648633Y-63475000D01*
X29781376Y-63434733D01*
X29950843Y-63344151D01*
X30099382Y-63222248D01*
X30221285Y-63073709D01*
X30311867Y-62904242D01*
X30335905Y-62825000D01*
X54594508Y-62825000D01*
X54614353Y-62950301D01*
X54614353Y-62950302D01*
X54614354Y-62950304D01*
X54627983Y-62977052D01*
X54671952Y-63063345D01*
X54761654Y-63153047D01*
X54761656Y-63153048D01*
X54761658Y-63153050D01*
X54874696Y-63210646D01*
X55000000Y-63230492D01*
X55125304Y-63210646D01*
X55238342Y-63153050D01*
X55328050Y-63063342D01*
X55385646Y-62950304D01*
X55405492Y-62825000D01*
X55385646Y-62699696D01*
X55328050Y-62586658D01*
X55328048Y-62586656D01*
X55328047Y-62586654D01*
X55238345Y-62496952D01*
X55238342Y-62496950D01*
X55125304Y-62439354D01*
X55125302Y-62439353D01*
X55125301Y-62439353D01*
X55000000Y-62419508D01*
X54874698Y-62439353D01*
X54761654Y-62496952D01*
X54671952Y-62586654D01*
X54614353Y-62699698D01*
X54594508Y-62825000D01*
X30335905Y-62825000D01*
X30367647Y-62720359D01*
X30386482Y-62529128D01*
X30367647Y-62337897D01*
X30311867Y-62154014D01*
X30221285Y-61984547D01*
X30172665Y-61925304D01*
X30099382Y-61836008D01*
X30099381Y-61836007D01*
X30055507Y-61800000D01*
X37719508Y-61800000D01*
X37739353Y-61925301D01*
X37739353Y-61925302D01*
X37739354Y-61925304D01*
X37769540Y-61984547D01*
X37796952Y-62038345D01*
X37886654Y-62128047D01*
X37886656Y-62128048D01*
X37886658Y-62128050D01*
X37999696Y-62185646D01*
X38125000Y-62205492D01*
X38250304Y-62185646D01*
X38363342Y-62128050D01*
X38453050Y-62038342D01*
X38510646Y-61925304D01*
X38530492Y-61800000D01*
X38510646Y-61674696D01*
X38453050Y-61561658D01*
X38453048Y-61561656D01*
X38453047Y-61561654D01*
X38363345Y-61471952D01*
X38363342Y-61471950D01*
X38250304Y-61414354D01*
X38250302Y-61414353D01*
X38250301Y-61414353D01*
X38125000Y-61394508D01*
X37999698Y-61414353D01*
X37886654Y-61471952D01*
X37796952Y-61561654D01*
X37739353Y-61674698D01*
X37719508Y-61800000D01*
X30055507Y-61800000D01*
X29950845Y-61714106D01*
X29781372Y-61623521D01*
X29597492Y-61567742D01*
X29406262Y-61548908D01*
X29215031Y-61567742D01*
X29031151Y-61623521D01*
X28861678Y-61714106D01*
X28713142Y-61836007D01*
X28713141Y-61836008D01*
X28591240Y-61984544D01*
X28500655Y-62154017D01*
X28444876Y-62337897D01*
X28426042Y-62529128D01*
X25386482Y-62529128D01*
X25367647Y-62337897D01*
X25311867Y-62154014D01*
X25221285Y-61984547D01*
X25172665Y-61925304D01*
X25099382Y-61836008D01*
X25099381Y-61836007D01*
X24950845Y-61714106D01*
X24781372Y-61623521D01*
X24597492Y-61567742D01*
X24406262Y-61548908D01*
X24215031Y-61567742D01*
X24031151Y-61623521D01*
X23861678Y-61714106D01*
X23713142Y-61836007D01*
X23713141Y-61836008D01*
X23591240Y-61984544D01*
X23500655Y-62154017D01*
X23444876Y-62337897D01*
X23426042Y-62529128D01*
X21773427Y-62529128D01*
X21757515Y-62367558D01*
X21757252Y-62363542D01*
X21740519Y-61852348D01*
X21740486Y-61850336D01*
X21740486Y-61817819D01*
X21740489Y-61674696D01*
X21740499Y-61214978D01*
X21740533Y-61212995D01*
X21758727Y-60680437D01*
X21759013Y-60676249D01*
X21787022Y-60403799D01*
X21810543Y-60175000D01*
X53644196Y-60175000D01*
X53665280Y-60308125D01*
X53726471Y-60428220D01*
X53821779Y-60523528D01*
X53853195Y-60539535D01*
X53941874Y-60584719D01*
X54075000Y-60605804D01*
X54208126Y-60584719D01*
X54328220Y-60523528D01*
X54328221Y-60523528D01*
X54423528Y-60428221D01*
X54423528Y-60428220D01*
X54448092Y-60380010D01*
X54484719Y-60308126D01*
X54505804Y-60175000D01*
X54484719Y-60041874D01*
X54423528Y-59921779D01*
X54328220Y-59826471D01*
X54208125Y-59765280D01*
X54075000Y-59744196D01*
X53941874Y-59765280D01*
X53821779Y-59826471D01*
X53821779Y-59826472D01*
X53726472Y-59921779D01*
X53726471Y-59921779D01*
X53665280Y-60041874D01*
X53644196Y-60175000D01*
X21810543Y-60175000D01*
X21813398Y-60147230D01*
X21813965Y-60143102D01*
X21904324Y-59619026D01*
X21905178Y-59614923D01*
X21927092Y-59525000D01*
X30119508Y-59525000D01*
X30139353Y-59650301D01*
X30139353Y-59650302D01*
X30139354Y-59650304D01*
X30184307Y-59738528D01*
X30196952Y-59763345D01*
X30286654Y-59853047D01*
X30286656Y-59853048D01*
X30286658Y-59853050D01*
X30399696Y-59910646D01*
X30525000Y-59930492D01*
X30650304Y-59910646D01*
X30763342Y-59853050D01*
X30853050Y-59763342D01*
X30910646Y-59650304D01*
X30930492Y-59525000D01*
X30910646Y-59399696D01*
X30905706Y-59390000D01*
X44489196Y-59390000D01*
X44510280Y-59523125D01*
X44571471Y-59643220D01*
X44666779Y-59738528D01*
X44767935Y-59790069D01*
X44786874Y-59799719D01*
X44920000Y-59820804D01*
X45053126Y-59799719D01*
X45173220Y-59738528D01*
X45173221Y-59738528D01*
X45268528Y-59643221D01*
X45268528Y-59643220D01*
X45329515Y-59523526D01*
X45329719Y-59523126D01*
X45347310Y-59412060D01*
X66741736Y-59412060D01*
X66761200Y-59808272D01*
X66761202Y-59808286D01*
X66819406Y-60200666D01*
X66819408Y-60200677D01*
X66915796Y-60585478D01*
X66915797Y-60585482D01*
X66938351Y-60648516D01*
X67041061Y-60935571D01*
X67049441Y-60958990D01*
X67170542Y-61215035D01*
X67219046Y-61317588D01*
X67286673Y-61430416D01*
X67422986Y-61657841D01*
X67422995Y-61657854D01*
X67659282Y-61976451D01*
X67659287Y-61976458D01*
X67659296Y-61976469D01*
X67788472Y-62118992D01*
X67925698Y-62270398D01*
X68032898Y-62367558D01*
X68219628Y-62536801D01*
X68219640Y-62536810D01*
X68219645Y-62536814D01*
X68538242Y-62773101D01*
X68538255Y-62773110D01*
X68878509Y-62977051D01*
X69060956Y-63063342D01*
X69237106Y-63146655D01*
X69237108Y-63146655D01*
X69237115Y-63146659D01*
X69610619Y-63280301D01*
X69995423Y-63376689D01*
X70387822Y-63434896D01*
X70784037Y-63454361D01*
X71180252Y-63434896D01*
X71572651Y-63376689D01*
X71957455Y-63280301D01*
X72330959Y-63146659D01*
X72689565Y-62977051D01*
X73029819Y-62773110D01*
X73348446Y-62536801D01*
X73642375Y-62270398D01*
X73908778Y-61976469D01*
X74145087Y-61657842D01*
X74349028Y-61317588D01*
X74518636Y-60958982D01*
X74652278Y-60585478D01*
X74748666Y-60200674D01*
X74806873Y-59808275D01*
X74826338Y-59412060D01*
X74806873Y-59015845D01*
X74748666Y-58623446D01*
X74652278Y-58238642D01*
X74518636Y-57865138D01*
X74349028Y-57506532D01*
X74145087Y-57166278D01*
X74145078Y-57166265D01*
X73908791Y-56847668D01*
X73908787Y-56847663D01*
X73908778Y-56847651D01*
X73706641Y-56624628D01*
X73642375Y-56553721D01*
X73518786Y-56441707D01*
X73348446Y-56287319D01*
X73348435Y-56287310D01*
X73348428Y-56287305D01*
X73029831Y-56051018D01*
X73029818Y-56051009D01*
X72763004Y-55891087D01*
X72689565Y-55847069D01*
X72579276Y-55794906D01*
X72330967Y-55677464D01*
X72316171Y-55672170D01*
X72240638Y-55645143D01*
X71957459Y-55543820D01*
X71957455Y-55543819D01*
X71572654Y-55447431D01*
X71572643Y-55447429D01*
X71180263Y-55389225D01*
X71180249Y-55389223D01*
X70784037Y-55369759D01*
X70387824Y-55389223D01*
X70387810Y-55389225D01*
X69995430Y-55447429D01*
X69995419Y-55447431D01*
X69610618Y-55543819D01*
X69610614Y-55543820D01*
X69237106Y-55677464D01*
X68878512Y-55847067D01*
X68878510Y-55847068D01*
X68538255Y-56051009D01*
X68538242Y-56051018D01*
X68219645Y-56287305D01*
X68219633Y-56287315D01*
X68219628Y-56287319D01*
X68156607Y-56344438D01*
X67925698Y-56553721D01*
X67755745Y-56741236D01*
X67659296Y-56847651D01*
X67659293Y-56847654D01*
X67659292Y-56847656D01*
X67659282Y-56847668D01*
X67422995Y-57166265D01*
X67422986Y-57166278D01*
X67219045Y-57506533D01*
X67219044Y-57506535D01*
X67049441Y-57865129D01*
X66915797Y-58238637D01*
X66915796Y-58238641D01*
X66819408Y-58623442D01*
X66819406Y-58623453D01*
X66761202Y-59015833D01*
X66761200Y-59015847D01*
X66741736Y-59412060D01*
X45347310Y-59412060D01*
X45350804Y-59390000D01*
X45329719Y-59256874D01*
X45276504Y-59152433D01*
X45268528Y-59136779D01*
X45173220Y-59041471D01*
X45053125Y-58980280D01*
X44920000Y-58959196D01*
X44786874Y-58980280D01*
X44666779Y-59041471D01*
X44666779Y-59041472D01*
X44571472Y-59136779D01*
X44571471Y-59136779D01*
X44510280Y-59256874D01*
X44489196Y-59390000D01*
X30905706Y-59390000D01*
X30853050Y-59286658D01*
X30853048Y-59286656D01*
X30853047Y-59286654D01*
X30763345Y-59196952D01*
X30763342Y-59196950D01*
X30650304Y-59139354D01*
X30650302Y-59139353D01*
X30650301Y-59139353D01*
X30525000Y-59119508D01*
X30399698Y-59139353D01*
X30286654Y-59196952D01*
X30196952Y-59286654D01*
X30139353Y-59399698D01*
X30119508Y-59525000D01*
X21927092Y-59525000D01*
X21927451Y-59523526D01*
X22031085Y-59098261D01*
X22032216Y-59094228D01*
X22048961Y-59041471D01*
X22193089Y-58587360D01*
X22194492Y-58583413D01*
X22213625Y-58534896D01*
X22389586Y-58088686D01*
X22391241Y-58084876D01*
X22590879Y-57665097D01*
X24274499Y-57665097D01*
X24274499Y-58534896D01*
X24278882Y-58556934D01*
X24280330Y-58564213D01*
X24289226Y-58577527D01*
X24302541Y-58597457D01*
X24315822Y-58606330D01*
X24335786Y-58619669D01*
X24335788Y-58619669D01*
X24335789Y-58619670D01*
X24354754Y-58623442D01*
X24365100Y-58625500D01*
X25234897Y-58625499D01*
X25264212Y-58619669D01*
X25297456Y-58597457D01*
X25319668Y-58564213D01*
X25325499Y-58534899D01*
X25325498Y-57665102D01*
X25325497Y-57665097D01*
X26349500Y-57665097D01*
X26349500Y-58534896D01*
X26353883Y-58556934D01*
X26355331Y-58564213D01*
X26364227Y-58577527D01*
X26377542Y-58597457D01*
X26390823Y-58606330D01*
X26410787Y-58619669D01*
X26410789Y-58619669D01*
X26410790Y-58619670D01*
X26429755Y-58623442D01*
X26440101Y-58625500D01*
X27309898Y-58625499D01*
X27339213Y-58619669D01*
X27372457Y-58597457D01*
X27394669Y-58564213D01*
X27400500Y-58534899D01*
X27400499Y-57665102D01*
X27397496Y-57650000D01*
X34569508Y-57650000D01*
X34589353Y-57775301D01*
X34589353Y-57775302D01*
X34589354Y-57775304D01*
X34641448Y-57877543D01*
X34646952Y-57888345D01*
X34736654Y-57978047D01*
X34736656Y-57978048D01*
X34736658Y-57978050D01*
X34849696Y-58035646D01*
X34975000Y-58055492D01*
X35100304Y-58035646D01*
X35213342Y-57978050D01*
X35303050Y-57888342D01*
X35360646Y-57775304D01*
X35380492Y-57650000D01*
X35360646Y-57524696D01*
X35303050Y-57411658D01*
X35303048Y-57411656D01*
X35303047Y-57411654D01*
X35213345Y-57321952D01*
X35213342Y-57321950D01*
X35100304Y-57264354D01*
X35100302Y-57264353D01*
X35100301Y-57264353D01*
X34975000Y-57244508D01*
X34849698Y-57264353D01*
X34736654Y-57321952D01*
X34646952Y-57411654D01*
X34589353Y-57524698D01*
X34569508Y-57650000D01*
X27397496Y-57650000D01*
X27394669Y-57635787D01*
X27381353Y-57615857D01*
X27372457Y-57602542D01*
X27343258Y-57583034D01*
X27339213Y-57580331D01*
X27339211Y-57580330D01*
X27339209Y-57580329D01*
X27309902Y-57574500D01*
X26440103Y-57574500D01*
X26410787Y-57580331D01*
X26377542Y-57602542D01*
X26355329Y-57635789D01*
X26355329Y-57635790D01*
X26349500Y-57665097D01*
X25325497Y-57665097D01*
X25319668Y-57635787D01*
X25306352Y-57615857D01*
X25297456Y-57602542D01*
X25268257Y-57583034D01*
X25264212Y-57580331D01*
X25264210Y-57580330D01*
X25264208Y-57580329D01*
X25234901Y-57574500D01*
X24365102Y-57574500D01*
X24335786Y-57580331D01*
X24302541Y-57602542D01*
X24280328Y-57635789D01*
X24280328Y-57635790D01*
X24274499Y-57665097D01*
X22590879Y-57665097D01*
X22619651Y-57604598D01*
X22621561Y-57600911D01*
X22882218Y-57137333D01*
X22884373Y-57133790D01*
X23176041Y-56689106D01*
X23178458Y-56685683D01*
X23363470Y-56441707D01*
X23499805Y-56261922D01*
X23502418Y-56258711D01*
X23536925Y-56219137D01*
X36230922Y-56219137D01*
X36250767Y-56344438D01*
X36250767Y-56344439D01*
X36250768Y-56344441D01*
X36308314Y-56457380D01*
X36308366Y-56457482D01*
X36398068Y-56547184D01*
X36398070Y-56547185D01*
X36398072Y-56547187D01*
X36511110Y-56604783D01*
X36636414Y-56624629D01*
X36761718Y-56604783D01*
X36874756Y-56547187D01*
X36964464Y-56457479D01*
X37022060Y-56344441D01*
X37041906Y-56219137D01*
X37022060Y-56093833D01*
X36964464Y-55980795D01*
X36964462Y-55980793D01*
X36964461Y-55980791D01*
X36874759Y-55891089D01*
X36874756Y-55891087D01*
X36761718Y-55833491D01*
X36761716Y-55833490D01*
X36761715Y-55833490D01*
X36636414Y-55813645D01*
X36511112Y-55833490D01*
X36398068Y-55891089D01*
X36308366Y-55980791D01*
X36250767Y-56093835D01*
X36230922Y-56219137D01*
X23536925Y-56219137D01*
X23851934Y-55857868D01*
X23854771Y-55854830D01*
X24230830Y-55478771D01*
X24233868Y-55475934D01*
X24634704Y-55126424D01*
X24637930Y-55123799D01*
X24919866Y-54910000D01*
X49309196Y-54910000D01*
X49330280Y-55043125D01*
X49391471Y-55163220D01*
X49486779Y-55258528D01*
X49556990Y-55294302D01*
X49606874Y-55319719D01*
X49740000Y-55340804D01*
X49873126Y-55319719D01*
X49993220Y-55258528D01*
X49993221Y-55258528D01*
X50088528Y-55163221D01*
X50088528Y-55163220D01*
X50128691Y-55084395D01*
X50149719Y-55043126D01*
X50170804Y-54910000D01*
X50149719Y-54776874D01*
X50091544Y-54662699D01*
X50088528Y-54656779D01*
X49993220Y-54561471D01*
X49873125Y-54500280D01*
X49740000Y-54479196D01*
X49606874Y-54500280D01*
X49486779Y-54561471D01*
X49486779Y-54561472D01*
X49391472Y-54656779D01*
X49391471Y-54656779D01*
X49330280Y-54776874D01*
X49309196Y-54910000D01*
X24919866Y-54910000D01*
X25061689Y-54802452D01*
X25065084Y-54800055D01*
X25509789Y-54508373D01*
X25513332Y-54506218D01*
X25976910Y-54245561D01*
X25980597Y-54243651D01*
X26460875Y-54015241D01*
X26464685Y-54013586D01*
X26942909Y-53825000D01*
X36269508Y-53825000D01*
X36289353Y-53950301D01*
X36289353Y-53950302D01*
X36289354Y-53950304D01*
X36346950Y-54063342D01*
X36346952Y-54063345D01*
X36436654Y-54153047D01*
X36436656Y-54153048D01*
X36436658Y-54153050D01*
X36549696Y-54210646D01*
X36675000Y-54230492D01*
X36800304Y-54210646D01*
X36913342Y-54153050D01*
X37003050Y-54063342D01*
X37060646Y-53950304D01*
X37080492Y-53825000D01*
X37060646Y-53699696D01*
X37003050Y-53586658D01*
X37003048Y-53586656D01*
X37003047Y-53586654D01*
X36913345Y-53496952D01*
X36913342Y-53496950D01*
X36800304Y-53439354D01*
X36800302Y-53439353D01*
X36800301Y-53439353D01*
X36675000Y-53419508D01*
X36549698Y-53439353D01*
X36436654Y-53496952D01*
X36346952Y-53586654D01*
X36289353Y-53699698D01*
X36269508Y-53825000D01*
X26942909Y-53825000D01*
X26959412Y-53818492D01*
X26963359Y-53817089D01*
X27470237Y-53656212D01*
X27474260Y-53655085D01*
X27990948Y-53529172D01*
X27995007Y-53528328D01*
X28519090Y-53437967D01*
X28523240Y-53437396D01*
X29052249Y-53383012D01*
X29056436Y-53382727D01*
X29559126Y-53365554D01*
X29566532Y-53365958D01*
X29568102Y-53365874D01*
X29568104Y-53365875D01*
X29592362Y-53364583D01*
X29595629Y-53364497D01*
X29624347Y-53364497D01*
X29624350Y-53364497D01*
X29624352Y-53364495D01*
X29628422Y-53363566D01*
X29638842Y-53362109D01*
X29699278Y-53358892D01*
X29702099Y-53358807D01*
X30061508Y-53356335D01*
X30070044Y-53356277D01*
X30125907Y-53353229D01*
X30814622Y-53315653D01*
X31092621Y-53287153D01*
X31455044Y-53250000D01*
X37869508Y-53250000D01*
X37889353Y-53375301D01*
X37889353Y-53375302D01*
X37889354Y-53375304D01*
X37946950Y-53488342D01*
X37946952Y-53488345D01*
X38036654Y-53578047D01*
X38036656Y-53578048D01*
X38036658Y-53578050D01*
X38149696Y-53635646D01*
X38275000Y-53655492D01*
X38400304Y-53635646D01*
X38513342Y-53578050D01*
X38603050Y-53488342D01*
X38660646Y-53375304D01*
X38680492Y-53250000D01*
X38668613Y-53175000D01*
X49219196Y-53175000D01*
X49240280Y-53308125D01*
X49301471Y-53428220D01*
X49396779Y-53523528D01*
X49503779Y-53578047D01*
X49516874Y-53584719D01*
X49650000Y-53605804D01*
X49783126Y-53584719D01*
X49903220Y-53523528D01*
X49903221Y-53523528D01*
X49998528Y-53428221D01*
X49998528Y-53428220D01*
X50025490Y-53375304D01*
X50059719Y-53308126D01*
X50080804Y-53175000D01*
X50059719Y-53041874D01*
X50044321Y-53011654D01*
X49998528Y-52921779D01*
X49903220Y-52826471D01*
X49807938Y-52777923D01*
X71638068Y-52777923D01*
X71659152Y-52911048D01*
X71720343Y-53031143D01*
X71815651Y-53126451D01*
X71915502Y-53177327D01*
X71935746Y-53187642D01*
X72068872Y-53208727D01*
X72201998Y-53187642D01*
X72322092Y-53126451D01*
X72322093Y-53126451D01*
X72417400Y-53031144D01*
X72417400Y-53031143D01*
X72444365Y-52978221D01*
X72478591Y-52911049D01*
X72492220Y-52825000D01*
X74819196Y-52825000D01*
X74840280Y-52958125D01*
X74901471Y-53078220D01*
X74996779Y-53173528D01*
X75116874Y-53234719D01*
X75250000Y-53255804D01*
X75383126Y-53234719D01*
X75503220Y-53173528D01*
X75503221Y-53173528D01*
X75598528Y-53078221D01*
X75598528Y-53078220D01*
X75603182Y-53069086D01*
X75659719Y-52958126D01*
X75680804Y-52825000D01*
X75679357Y-52815865D01*
X75820228Y-52815865D01*
X75841312Y-52948990D01*
X75902503Y-53069085D01*
X75997811Y-53164393D01*
X76084820Y-53208726D01*
X76117906Y-53225584D01*
X76251032Y-53246669D01*
X76384158Y-53225584D01*
X76504252Y-53164393D01*
X76504253Y-53164393D01*
X76599560Y-53069086D01*
X76599560Y-53069085D01*
X76618892Y-53031143D01*
X76660751Y-52948991D01*
X76681836Y-52815865D01*
X76660751Y-52682739D01*
X76611390Y-52585862D01*
X76599560Y-52562644D01*
X76504252Y-52467336D01*
X76384157Y-52406145D01*
X76251032Y-52385061D01*
X76117906Y-52406145D01*
X75997811Y-52467336D01*
X75997811Y-52467337D01*
X75902504Y-52562644D01*
X75902503Y-52562644D01*
X75841312Y-52682739D01*
X75820228Y-52815865D01*
X75679357Y-52815865D01*
X75659719Y-52691874D01*
X75598528Y-52571779D01*
X75503220Y-52476471D01*
X75383125Y-52415280D01*
X75250000Y-52394196D01*
X75116874Y-52415280D01*
X74996779Y-52476471D01*
X74996779Y-52476472D01*
X74901472Y-52571779D01*
X74901471Y-52571779D01*
X74840280Y-52691874D01*
X74819196Y-52825000D01*
X72492220Y-52825000D01*
X72499676Y-52777923D01*
X72478591Y-52644797D01*
X72459662Y-52607647D01*
X72417400Y-52524702D01*
X72322092Y-52429394D01*
X72201997Y-52368203D01*
X72068872Y-52347119D01*
X71935746Y-52368203D01*
X71815651Y-52429394D01*
X71815651Y-52429395D01*
X71720344Y-52524702D01*
X71720343Y-52524702D01*
X71659152Y-52644797D01*
X71638068Y-52777923D01*
X49807938Y-52777923D01*
X49783125Y-52765280D01*
X49650000Y-52744196D01*
X49516874Y-52765280D01*
X49396779Y-52826471D01*
X49396779Y-52826472D01*
X49301472Y-52921779D01*
X49301471Y-52921779D01*
X49240280Y-53041874D01*
X49219196Y-53175000D01*
X38668613Y-53175000D01*
X38660646Y-53124696D01*
X38603050Y-53011658D01*
X38603048Y-53011656D01*
X38603047Y-53011654D01*
X38513345Y-52921952D01*
X38513342Y-52921950D01*
X38400304Y-52864354D01*
X38400302Y-52864353D01*
X38400301Y-52864353D01*
X38275000Y-52844508D01*
X38149698Y-52864353D01*
X38036654Y-52921952D01*
X37946952Y-53011654D01*
X37889353Y-53124698D01*
X37869508Y-53250000D01*
X31455044Y-53250000D01*
X31556397Y-53239610D01*
X31556400Y-53239609D01*
X31556398Y-53239609D01*
X31556420Y-53239607D01*
X32251300Y-53134719D01*
X32293747Y-53128312D01*
X32293747Y-53128311D01*
X32293753Y-53128311D01*
X33024948Y-52982019D01*
X33748344Y-52801062D01*
X34462299Y-52585852D01*
X35165191Y-52336877D01*
X35855426Y-52054702D01*
X36531436Y-51739967D01*
X37191687Y-51393388D01*
X37834678Y-51015752D01*
X38458950Y-50607915D01*
X39063087Y-50170804D01*
X39645716Y-49705410D01*
X40205514Y-49212792D01*
X40476904Y-48950000D01*
X55269508Y-48950000D01*
X55289353Y-49075301D01*
X55289353Y-49075302D01*
X55289354Y-49075304D01*
X55346950Y-49188342D01*
X55346952Y-49188345D01*
X55436654Y-49278047D01*
X55436656Y-49278048D01*
X55436658Y-49278050D01*
X55549696Y-49335646D01*
X55675000Y-49355492D01*
X55800304Y-49335646D01*
X55913342Y-49278050D01*
X56003050Y-49188342D01*
X56060646Y-49075304D01*
X56080492Y-48950000D01*
X56072115Y-48897110D01*
X68766428Y-48897110D01*
X68786255Y-49047718D01*
X68787066Y-49053872D01*
X68843065Y-49189064D01*
X68847574Y-49199950D01*
X68847576Y-49199954D01*
X68852020Y-49205745D01*
X68943828Y-49325392D01*
X69069269Y-49421646D01*
X69215348Y-49482154D01*
X69372110Y-49502792D01*
X69528872Y-49482154D01*
X69674951Y-49421646D01*
X69800392Y-49325392D01*
X69896646Y-49199951D01*
X69957154Y-49053872D01*
X69977792Y-48897110D01*
X69957154Y-48740348D01*
X69896646Y-48594269D01*
X69800392Y-48468828D01*
X69674951Y-48372574D01*
X69528872Y-48312066D01*
X69528869Y-48312065D01*
X69528867Y-48312065D01*
X69372110Y-48291428D01*
X69215352Y-48312065D01*
X69215348Y-48312066D01*
X69069269Y-48372574D01*
X69069265Y-48372576D01*
X68943828Y-48468828D01*
X68847576Y-48594265D01*
X68847574Y-48594269D01*
X68787066Y-48740348D01*
X68787065Y-48740352D01*
X68766428Y-48897110D01*
X56072115Y-48897110D01*
X56060646Y-48824696D01*
X56003050Y-48711658D01*
X56003048Y-48711656D01*
X56003047Y-48711654D01*
X55913345Y-48621952D01*
X55913342Y-48621950D01*
X55800304Y-48564354D01*
X55800302Y-48564353D01*
X55800301Y-48564353D01*
X55675000Y-48544508D01*
X55549698Y-48564353D01*
X55436654Y-48621952D01*
X55346952Y-48711654D01*
X55289353Y-48824698D01*
X55269508Y-48950000D01*
X40476904Y-48950000D01*
X40741211Y-48694066D01*
X41040748Y-48375000D01*
X52794508Y-48375000D01*
X52814353Y-48500301D01*
X52814353Y-48500302D01*
X52814354Y-48500304D01*
X52862230Y-48594265D01*
X52871952Y-48613345D01*
X52961654Y-48703047D01*
X52961656Y-48703048D01*
X52961658Y-48703050D01*
X53074696Y-48760646D01*
X53200000Y-48780492D01*
X53325304Y-48760646D01*
X53438342Y-48703050D01*
X53528050Y-48613342D01*
X53585646Y-48500304D01*
X53605492Y-48375000D01*
X53585646Y-48249696D01*
X53528050Y-48136658D01*
X53528048Y-48136656D01*
X53528047Y-48136654D01*
X53438345Y-48046952D01*
X53438342Y-48046950D01*
X53325304Y-47989354D01*
X53325302Y-47989353D01*
X53325301Y-47989353D01*
X53200000Y-47969508D01*
X53074698Y-47989353D01*
X52961654Y-48046952D01*
X52871952Y-48136654D01*
X52814353Y-48249698D01*
X52794508Y-48375000D01*
X41040748Y-48375000D01*
X41251590Y-48150412D01*
X41735492Y-47583062D01*
X42191820Y-46993306D01*
X42619536Y-46382482D01*
X43017670Y-45751977D01*
X43018790Y-45750000D01*
X48599196Y-45750000D01*
X48620280Y-45883125D01*
X48681471Y-46003220D01*
X48776779Y-46098528D01*
X48854919Y-46138342D01*
X48896874Y-46159719D01*
X49030000Y-46180804D01*
X49163126Y-46159719D01*
X49283220Y-46098528D01*
X49283221Y-46098528D01*
X49378528Y-46003221D01*
X49378528Y-46003220D01*
X49405376Y-45950527D01*
X49439719Y-45883126D01*
X49460804Y-45750000D01*
X49439719Y-45616874D01*
X49404966Y-45548667D01*
X49378528Y-45496779D01*
X49356749Y-45475000D01*
X62094196Y-45475000D01*
X62115280Y-45608125D01*
X62176471Y-45728220D01*
X62271779Y-45823528D01*
X62319993Y-45848094D01*
X62391874Y-45884719D01*
X62525000Y-45905804D01*
X62658126Y-45884719D01*
X62778220Y-45823528D01*
X62778221Y-45823528D01*
X62873528Y-45728221D01*
X62873528Y-45728220D01*
X62907445Y-45661654D01*
X62934719Y-45608126D01*
X62935689Y-45601999D01*
X65782724Y-45601999D01*
X65803808Y-45735124D01*
X65864999Y-45855219D01*
X65960307Y-45950527D01*
X66036618Y-45989409D01*
X66080402Y-46011718D01*
X66213528Y-46032803D01*
X66346654Y-46011718D01*
X66466748Y-45950527D01*
X66466749Y-45950527D01*
X66562056Y-45855220D01*
X66562056Y-45855219D01*
X66580456Y-45819107D01*
X66623247Y-45735125D01*
X66644332Y-45601999D01*
X66623247Y-45468873D01*
X66603450Y-45430019D01*
X66562056Y-45348778D01*
X66466748Y-45253470D01*
X66346653Y-45192279D01*
X66213528Y-45171195D01*
X66080402Y-45192279D01*
X65960307Y-45253470D01*
X65960307Y-45253471D01*
X65865000Y-45348778D01*
X65864999Y-45348778D01*
X65803808Y-45468873D01*
X65782724Y-45601999D01*
X62935689Y-45601999D01*
X62955804Y-45475000D01*
X62934719Y-45341874D01*
X62913239Y-45299717D01*
X62873528Y-45221779D01*
X62778220Y-45126471D01*
X62658125Y-45065280D01*
X62525000Y-45044196D01*
X62391874Y-45065280D01*
X62271779Y-45126471D01*
X62271779Y-45126472D01*
X62176472Y-45221779D01*
X62176471Y-45221779D01*
X62115280Y-45341874D01*
X62094196Y-45475000D01*
X49356749Y-45475000D01*
X49283220Y-45401471D01*
X49163125Y-45340280D01*
X49030000Y-45319196D01*
X48896874Y-45340280D01*
X48776779Y-45401471D01*
X48776779Y-45401472D01*
X48681472Y-45496779D01*
X48681471Y-45496779D01*
X48620280Y-45616874D01*
X48599196Y-45750000D01*
X43018790Y-45750000D01*
X43385318Y-45103223D01*
X43422349Y-45029946D01*
X66743962Y-45029946D01*
X66765046Y-45163071D01*
X66826237Y-45283166D01*
X66921545Y-45378474D01*
X67022707Y-45430018D01*
X67041640Y-45439665D01*
X67174766Y-45460750D01*
X67307892Y-45439665D01*
X67427986Y-45378474D01*
X67427987Y-45378474D01*
X67523294Y-45283167D01*
X67523294Y-45283166D01*
X67538425Y-45253470D01*
X67584485Y-45163072D01*
X67605570Y-45029946D01*
X67584485Y-44896820D01*
X67535324Y-44800336D01*
X67523294Y-44776725D01*
X67427986Y-44681417D01*
X67307891Y-44620226D01*
X67174766Y-44599142D01*
X67041640Y-44620226D01*
X66921545Y-44681417D01*
X66921545Y-44681418D01*
X66826238Y-44776725D01*
X66826237Y-44776725D01*
X66765046Y-44896820D01*
X66743962Y-45029946D01*
X43422349Y-45029946D01*
X43658240Y-44563159D01*
X43721633Y-44437716D01*
X43721633Y-44437713D01*
X43721645Y-44437692D01*
X43864426Y-44118214D01*
X43875649Y-44103488D01*
X43875114Y-44103075D01*
X43879345Y-44097593D01*
X43879350Y-44097589D01*
X43887798Y-44079312D01*
X43891747Y-44072087D01*
X43894011Y-44068531D01*
X43900184Y-44058838D01*
X43900185Y-44058832D01*
X43902378Y-44053191D01*
X43902511Y-44053242D01*
X43905879Y-44043382D01*
X43992727Y-43878285D01*
X69525376Y-43878285D01*
X69545049Y-44090596D01*
X69603399Y-44295675D01*
X69603399Y-44295677D01*
X69698437Y-44486535D01*
X69698441Y-44486543D01*
X69826927Y-44656687D01*
X69826935Y-44656695D01*
X69971724Y-44788687D01*
X69984503Y-44800336D01*
X70159530Y-44908709D01*
X70165787Y-44912583D01*
X70232058Y-44938256D01*
X70364606Y-44989605D01*
X70574195Y-45028784D01*
X70574198Y-45028784D01*
X70787410Y-45028784D01*
X70787413Y-45028784D01*
X70997002Y-44989605D01*
X71195823Y-44912582D01*
X71377105Y-44800336D01*
X71534676Y-44656692D01*
X71535329Y-44655828D01*
X71663166Y-44486543D01*
X71663166Y-44486542D01*
X71663169Y-44486539D01*
X71733601Y-44345094D01*
X71758208Y-44295677D01*
X71758208Y-44295676D01*
X71758209Y-44295674D01*
X71816559Y-44090594D01*
X71836232Y-43878285D01*
X71816559Y-43665976D01*
X71758209Y-43460896D01*
X71758208Y-43460893D01*
X71758208Y-43460892D01*
X71690894Y-43325710D01*
X71663169Y-43270031D01*
X71663167Y-43270029D01*
X71663166Y-43270026D01*
X71534680Y-43099882D01*
X71534672Y-43099874D01*
X71377112Y-42956240D01*
X71377109Y-42956238D01*
X71377105Y-42956234D01*
X71229209Y-42864660D01*
X71195820Y-42843986D01*
X70997005Y-42766966D01*
X70997004Y-42766965D01*
X70997002Y-42766965D01*
X70787413Y-42727786D01*
X70574195Y-42727786D01*
X70364606Y-42766965D01*
X70364604Y-42766965D01*
X70364602Y-42766966D01*
X70165787Y-42843986D01*
X69984503Y-42956234D01*
X69984495Y-42956240D01*
X69826935Y-43099874D01*
X69826927Y-43099882D01*
X69698441Y-43270026D01*
X69698437Y-43270034D01*
X69603399Y-43460892D01*
X69603399Y-43460894D01*
X69545049Y-43665973D01*
X69525376Y-43878285D01*
X43992727Y-43878285D01*
X44028143Y-43810959D01*
X44031339Y-43805573D01*
X44189392Y-43567829D01*
X44193125Y-43562793D01*
X44374663Y-43342457D01*
X44378899Y-43337821D01*
X44582024Y-43137198D01*
X44586697Y-43133033D01*
X44809270Y-42954238D01*
X44814351Y-42950568D01*
X45054041Y-42795472D01*
X45059465Y-42792344D01*
X45313761Y-42662571D01*
X45319477Y-42660013D01*
X45585728Y-42556920D01*
X45591668Y-42554963D01*
X45867044Y-42479645D01*
X45873178Y-42478300D01*
X46154802Y-42431539D01*
X46161045Y-42430828D01*
X46447119Y-42413041D01*
X46450876Y-42412923D01*
X51610434Y-42412559D01*
X51738667Y-42412559D01*
X51738674Y-42412559D01*
X51851657Y-42398838D01*
X51996931Y-42381197D01*
X52249533Y-42318934D01*
X52492787Y-42226677D01*
X52591247Y-42175000D01*
X95744196Y-42175000D01*
X95765280Y-42308125D01*
X95826471Y-42428220D01*
X95921779Y-42523528D01*
X96007063Y-42566982D01*
X96041874Y-42584719D01*
X96175000Y-42605804D01*
X96308126Y-42584719D01*
X96428220Y-42523528D01*
X96428221Y-42523528D01*
X96523528Y-42428221D01*
X96523528Y-42428220D01*
X96547489Y-42381193D01*
X96584719Y-42308126D01*
X96605804Y-42175000D01*
X96584719Y-42041874D01*
X96548489Y-41970768D01*
X96523528Y-41921779D01*
X96428220Y-41826471D01*
X96308125Y-41765280D01*
X96175000Y-41744196D01*
X96041874Y-41765280D01*
X95921779Y-41826471D01*
X95921779Y-41826472D01*
X95826472Y-41921779D01*
X95826471Y-41921779D01*
X95765280Y-42041874D01*
X95744196Y-42175000D01*
X52591247Y-42175000D01*
X52723148Y-42105772D01*
X52815718Y-42041874D01*
X52937245Y-41957989D01*
X52937247Y-41957986D01*
X52937256Y-41957981D01*
X53131989Y-41785461D01*
X53304507Y-41590726D01*
X53452295Y-41376616D01*
X53505627Y-41275000D01*
X55094196Y-41275000D01*
X55115280Y-41408125D01*
X55176471Y-41528220D01*
X55271779Y-41623528D01*
X55391874Y-41684719D01*
X55525000Y-41705804D01*
X55658126Y-41684719D01*
X55778220Y-41623528D01*
X55778221Y-41623528D01*
X55873528Y-41528221D01*
X55873528Y-41528220D01*
X55934719Y-41408126D01*
X55955804Y-41275000D01*
X55934719Y-41141874D01*
X55873528Y-41021779D01*
X55778220Y-40926471D01*
X55658125Y-40865280D01*
X55525000Y-40844196D01*
X55391874Y-40865280D01*
X55271779Y-40926471D01*
X55271779Y-40926472D01*
X55176472Y-41021779D01*
X55176471Y-41021779D01*
X55115280Y-41141874D01*
X55094196Y-41275000D01*
X53505627Y-41275000D01*
X53573197Y-41146254D01*
X53665451Y-40902998D01*
X53727712Y-40650396D01*
X53759070Y-40392131D01*
X53759070Y-40262050D01*
X53759070Y-40227699D01*
X53759070Y-39185445D01*
X58443454Y-39185445D01*
X58464538Y-39318570D01*
X58525729Y-39438665D01*
X58621037Y-39533973D01*
X58701558Y-39575000D01*
X58741132Y-39595164D01*
X58874258Y-39616249D01*
X59007384Y-39595164D01*
X59127478Y-39533973D01*
X59127479Y-39533973D01*
X59222786Y-39438666D01*
X59222786Y-39438665D01*
X59225438Y-39433460D01*
X59283977Y-39318571D01*
X59305062Y-39185445D01*
X59283977Y-39052319D01*
X59226962Y-38940420D01*
X59222786Y-38932224D01*
X59127478Y-38836916D01*
X59007383Y-38775725D01*
X58874258Y-38754641D01*
X58741132Y-38775725D01*
X58621037Y-38836916D01*
X58621037Y-38836917D01*
X58525730Y-38932224D01*
X58525729Y-38932224D01*
X58464538Y-39052319D01*
X58443454Y-39185445D01*
X53759070Y-39185445D01*
X53759070Y-37081144D01*
X53759072Y-37080619D01*
X53759326Y-37050890D01*
X53760162Y-36952934D01*
X53731759Y-36697015D01*
X53673028Y-36446313D01*
X53584806Y-36204409D01*
X53568260Y-36171780D01*
X53468351Y-35974751D01*
X53468349Y-35974748D01*
X53325338Y-35760641D01*
X53325337Y-35760639D01*
X53206704Y-35622190D01*
X53157795Y-35565111D01*
X53141664Y-35550301D01*
X52968125Y-35390970D01*
X52759033Y-35240699D01*
X52533501Y-35116444D01*
X52294769Y-35019989D01*
X52261706Y-35011019D01*
X52210526Y-34997135D01*
X52210334Y-34997058D01*
X52172433Y-34986799D01*
X52168636Y-34985638D01*
X52050537Y-34945315D01*
X51948104Y-34910340D01*
X51940765Y-34907292D01*
X51733573Y-34805068D01*
X51726688Y-34801098D01*
X51725040Y-34800000D01*
X51534408Y-34673011D01*
X51528103Y-34668195D01*
X51353945Y-34516382D01*
X51348307Y-34510787D01*
X51328489Y-34488397D01*
X51245555Y-34394698D01*
X51195181Y-34337785D01*
X51190310Y-34331507D01*
X51129578Y-34241819D01*
X51060773Y-34140210D01*
X51056753Y-34133358D01*
X50952960Y-33926945D01*
X50949859Y-33919638D01*
X50873544Y-33701546D01*
X50871419Y-33693924D01*
X50823865Y-33467816D01*
X50822738Y-33459976D01*
X50804625Y-33228204D01*
X50804439Y-33223463D01*
X50804420Y-30867142D01*
X58975682Y-30867142D01*
X58996766Y-31000267D01*
X59057957Y-31120362D01*
X59153265Y-31215670D01*
X59200427Y-31239700D01*
X59273360Y-31276861D01*
X59406486Y-31297946D01*
X59539612Y-31276861D01*
X59659706Y-31215670D01*
X59659707Y-31215670D01*
X59755012Y-31120364D01*
X59755014Y-31120362D01*
X59777962Y-31075322D01*
X59813752Y-31044755D01*
X59860677Y-31048446D01*
X59891247Y-31084238D01*
X59893501Y-31093622D01*
X59897616Y-31119605D01*
X59958807Y-31239700D01*
X60054115Y-31335008D01*
X60074334Y-31345310D01*
X60104904Y-31381102D01*
X60101211Y-31428027D01*
X60065419Y-31458597D01*
X60063741Y-31459116D01*
X60050441Y-31463021D01*
X60050436Y-31463023D01*
X59935414Y-31536942D01*
X59935413Y-31536943D01*
X59845869Y-31640282D01*
X59845869Y-31640283D01*
X59789070Y-31764653D01*
X59789069Y-31764657D01*
X59769610Y-31899999D01*
X59769610Y-31900000D01*
X59789069Y-32035342D01*
X59789070Y-32035346D01*
X59845869Y-32159716D01*
X59845869Y-32159717D01*
X59847551Y-32161658D01*
X59935411Y-32263055D01*
X59935413Y-32263056D01*
X59935414Y-32263057D01*
X60054139Y-32339356D01*
X60052803Y-32341433D01*
X60079409Y-32370019D01*
X60077721Y-32417058D01*
X60065270Y-32434988D01*
X59970981Y-32529277D01*
X59909790Y-32649372D01*
X59888706Y-32782498D01*
X59909790Y-32915623D01*
X59970981Y-33035718D01*
X60066289Y-33131026D01*
X60108264Y-33152413D01*
X60186384Y-33192217D01*
X60319510Y-33213302D01*
X60452636Y-33192217D01*
X60572730Y-33131026D01*
X60572731Y-33131024D01*
X60576321Y-33128417D01*
X60622090Y-33117426D01*
X60662225Y-33142017D01*
X60673216Y-33187786D01*
X60655961Y-33221655D01*
X60643494Y-33234122D01*
X60582303Y-33354217D01*
X60561219Y-33487343D01*
X60582303Y-33620468D01*
X60643494Y-33740563D01*
X60738802Y-33835871D01*
X60792940Y-33863455D01*
X60858897Y-33897062D01*
X60858896Y-33897062D01*
X60872577Y-33899228D01*
X60943994Y-33910540D01*
X60984127Y-33935133D01*
X60995116Y-33980902D01*
X60970522Y-34021036D01*
X60943995Y-34032025D01*
X60891874Y-34040280D01*
X60771779Y-34101471D01*
X60771779Y-34101472D01*
X60676472Y-34196779D01*
X60676471Y-34196779D01*
X60615280Y-34316874D01*
X60594196Y-34450000D01*
X60615280Y-34583125D01*
X60676471Y-34703220D01*
X60771779Y-34798528D01*
X60868966Y-34848047D01*
X60891874Y-34859719D01*
X61025000Y-34880804D01*
X61151691Y-34860738D01*
X61197461Y-34871726D01*
X61204799Y-34877994D01*
X61781487Y-35454682D01*
X61799500Y-35498169D01*
X61799500Y-38659909D01*
X61826218Y-38724413D01*
X64947706Y-41845900D01*
X64947719Y-41845915D01*
X65000586Y-41898781D01*
X65000587Y-41898782D01*
X65065091Y-41925500D01*
X65065092Y-41925500D01*
X77209908Y-41925500D01*
X77209909Y-41925500D01*
X77274413Y-41898782D01*
X80723195Y-38450000D01*
X93844196Y-38450000D01*
X93865280Y-38583125D01*
X93926471Y-38703220D01*
X94021779Y-38798528D01*
X94137917Y-38857703D01*
X94168487Y-38893495D01*
X94164794Y-38940420D01*
X94137917Y-38967297D01*
X94021779Y-39026471D01*
X94021779Y-39026472D01*
X93926472Y-39121779D01*
X93926471Y-39121779D01*
X93865280Y-39241874D01*
X93844196Y-39375000D01*
X93865280Y-39508125D01*
X93926471Y-39628220D01*
X94021779Y-39723528D01*
X94141874Y-39784719D01*
X94275000Y-39805804D01*
X94408126Y-39784719D01*
X94528220Y-39723528D01*
X94528221Y-39723528D01*
X94535163Y-39716586D01*
X98872514Y-39716586D01*
X98891348Y-39907816D01*
X98947127Y-40091696D01*
X99037712Y-40261169D01*
X99159613Y-40409705D01*
X99159614Y-40409706D01*
X99308150Y-40531607D01*
X99308151Y-40531607D01*
X99308153Y-40531609D01*
X99477620Y-40622191D01*
X99477622Y-40622191D01*
X99477623Y-40622192D01*
X99570600Y-40650396D01*
X99661503Y-40677971D01*
X99852734Y-40696806D01*
X100043965Y-40677971D01*
X100227848Y-40622191D01*
X100397315Y-40531609D01*
X100545854Y-40409706D01*
X100667757Y-40261167D01*
X100758339Y-40091700D01*
X100814119Y-39907817D01*
X100832954Y-39716586D01*
X100814119Y-39525355D01*
X100777854Y-39405804D01*
X100758340Y-39341475D01*
X100758339Y-39341474D01*
X100758339Y-39341472D01*
X100667757Y-39172005D01*
X100626538Y-39121780D01*
X100545854Y-39023466D01*
X100545853Y-39023465D01*
X100486799Y-38975000D01*
X104719196Y-38975000D01*
X104740280Y-39108125D01*
X104801471Y-39228220D01*
X104896779Y-39323528D01*
X104960443Y-39355966D01*
X105016874Y-39384719D01*
X105150000Y-39405804D01*
X105283126Y-39384719D01*
X105332309Y-39359658D01*
X105379231Y-39355966D01*
X105415024Y-39386535D01*
X105418717Y-39433460D01*
X105415454Y-39441338D01*
X105415281Y-39441873D01*
X105394196Y-39575000D01*
X105415280Y-39708125D01*
X105476471Y-39828220D01*
X105571779Y-39923528D01*
X105691874Y-39984719D01*
X105825000Y-40005804D01*
X105958126Y-39984719D01*
X106078220Y-39923528D01*
X106078221Y-39923528D01*
X106173528Y-39828221D01*
X106173528Y-39828220D01*
X106230409Y-39716585D01*
X122672515Y-39716585D01*
X122691349Y-39907815D01*
X122747128Y-40091695D01*
X122837713Y-40261168D01*
X122959614Y-40409704D01*
X122959615Y-40409705D01*
X123108151Y-40531606D01*
X123108152Y-40531606D01*
X123108154Y-40531608D01*
X123277621Y-40622190D01*
X123277623Y-40622190D01*
X123277624Y-40622191D01*
X123370601Y-40650395D01*
X123461504Y-40677970D01*
X123652735Y-40696805D01*
X123843966Y-40677970D01*
X124027849Y-40622190D01*
X124197316Y-40531608D01*
X124345855Y-40409705D01*
X124467758Y-40261166D01*
X124558340Y-40091699D01*
X124614120Y-39907816D01*
X124632955Y-39716585D01*
X124614120Y-39525354D01*
X124558340Y-39341471D01*
X124467758Y-39172004D01*
X124467756Y-39172002D01*
X124467756Y-39172001D01*
X124345855Y-39023465D01*
X124345854Y-39023464D01*
X124197318Y-38901563D01*
X124115262Y-38857703D01*
X124027849Y-38810980D01*
X124027848Y-38810979D01*
X124027845Y-38810978D01*
X123843965Y-38755199D01*
X123652735Y-38736365D01*
X123461504Y-38755199D01*
X123277624Y-38810978D01*
X123108151Y-38901563D01*
X122959615Y-39023464D01*
X122959614Y-39023465D01*
X122837713Y-39172001D01*
X122747128Y-39341474D01*
X122691349Y-39525354D01*
X122672515Y-39716585D01*
X106230409Y-39716585D01*
X106234719Y-39708126D01*
X106255804Y-39575000D01*
X106234719Y-39441874D01*
X106230432Y-39433460D01*
X106173528Y-39321779D01*
X106078220Y-39226471D01*
X105958125Y-39165280D01*
X105825000Y-39144196D01*
X105691874Y-39165280D01*
X105642692Y-39190340D01*
X105595767Y-39194033D01*
X105559975Y-39163463D01*
X105556282Y-39116538D01*
X105559547Y-39108655D01*
X105559716Y-39108131D01*
X105559719Y-39108126D01*
X105580804Y-38975000D01*
X105559719Y-38841874D01*
X105526015Y-38775726D01*
X105498528Y-38721779D01*
X105403220Y-38626471D01*
X105283125Y-38565280D01*
X105150000Y-38544196D01*
X105016874Y-38565280D01*
X104896779Y-38626471D01*
X104896779Y-38626472D01*
X104801472Y-38721779D01*
X104801471Y-38721779D01*
X104740280Y-38841874D01*
X104719196Y-38975000D01*
X100486799Y-38975000D01*
X100397317Y-38901564D01*
X100227844Y-38810979D01*
X100043964Y-38755200D01*
X99852734Y-38736366D01*
X99661503Y-38755200D01*
X99477623Y-38810979D01*
X99308150Y-38901564D01*
X99159614Y-39023465D01*
X99159613Y-39023466D01*
X99037712Y-39172002D01*
X98947127Y-39341475D01*
X98891348Y-39525355D01*
X98872514Y-39716586D01*
X94535163Y-39716586D01*
X94623528Y-39628221D01*
X94623528Y-39628220D01*
X94684719Y-39508126D01*
X94705804Y-39375000D01*
X94684719Y-39241874D01*
X94649119Y-39172005D01*
X94623528Y-39121779D01*
X94528220Y-39026471D01*
X94439945Y-38981494D01*
X94412081Y-38967296D01*
X94381512Y-38931505D01*
X94385205Y-38884580D01*
X94412081Y-38857703D01*
X94528220Y-38798528D01*
X94528221Y-38798528D01*
X94623528Y-38703221D01*
X94623528Y-38703220D01*
X94662633Y-38626472D01*
X94684719Y-38583126D01*
X94705804Y-38450000D01*
X94684719Y-38316874D01*
X94654164Y-38256906D01*
X94623528Y-38196779D01*
X94528220Y-38101471D01*
X94486148Y-38080035D01*
X94455578Y-38044243D01*
X94459271Y-37997318D01*
X94486148Y-37970441D01*
X94536150Y-37944964D01*
X94578220Y-37923528D01*
X94578221Y-37923528D01*
X94673528Y-37828221D01*
X94673528Y-37828220D01*
X94709519Y-37757583D01*
X94734719Y-37708126D01*
X94755804Y-37575000D01*
X94734719Y-37441874D01*
X94680614Y-37335687D01*
X94673528Y-37321779D01*
X94621443Y-37269694D01*
X111500781Y-37269694D01*
X111520454Y-37482004D01*
X111520455Y-37482007D01*
X111578804Y-37687082D01*
X111589283Y-37708126D01*
X111673844Y-37877949D01*
X111802338Y-38048101D01*
X111959908Y-38191746D01*
X112141191Y-38303992D01*
X112141193Y-38303993D01*
X112207464Y-38329666D01*
X112340012Y-38381015D01*
X112549600Y-38420194D01*
X112549603Y-38420194D01*
X112762817Y-38420194D01*
X112762820Y-38420194D01*
X112972408Y-38381015D01*
X113171229Y-38303992D01*
X113352512Y-38191746D01*
X113510082Y-38048101D01*
X113638576Y-37877949D01*
X113733615Y-37687083D01*
X113791966Y-37482004D01*
X113811639Y-37269694D01*
X113791966Y-37057384D01*
X113733615Y-36852305D01*
X113638576Y-36661439D01*
X113510082Y-36491287D01*
X113477836Y-36461891D01*
X113352513Y-36347643D01*
X113352512Y-36347642D01*
X113195623Y-36250500D01*
X113171226Y-36235394D01*
X112972411Y-36158374D01*
X112972410Y-36158373D01*
X112972408Y-36158373D01*
X112762820Y-36119194D01*
X112549600Y-36119194D01*
X112340012Y-36158373D01*
X112340010Y-36158373D01*
X112340008Y-36158374D01*
X112141193Y-36235394D01*
X111959908Y-36347642D01*
X111959906Y-36347643D01*
X111802340Y-36491284D01*
X111802339Y-36491285D01*
X111673845Y-36661437D01*
X111578804Y-36852305D01*
X111520455Y-37057380D01*
X111520454Y-37057383D01*
X111500781Y-37269694D01*
X94621443Y-37269694D01*
X94578220Y-37226471D01*
X94458125Y-37165280D01*
X94325000Y-37144196D01*
X94191874Y-37165280D01*
X94071779Y-37226471D01*
X94071779Y-37226472D01*
X93976472Y-37321779D01*
X93976471Y-37321779D01*
X93915280Y-37441874D01*
X93894196Y-37575000D01*
X93915280Y-37708125D01*
X93976471Y-37828220D01*
X94071778Y-37923527D01*
X94071780Y-37923528D01*
X94113851Y-37944964D01*
X94144421Y-37980756D01*
X94140728Y-38027681D01*
X94113852Y-38054558D01*
X94021778Y-38101472D01*
X93926472Y-38196779D01*
X93926471Y-38196779D01*
X93865280Y-38316874D01*
X93844196Y-38450000D01*
X80723195Y-38450000D01*
X82280791Y-36892404D01*
X82324278Y-36874391D01*
X86201805Y-36874391D01*
X86245292Y-36892404D01*
X86262548Y-36926271D01*
X86263169Y-36930193D01*
X86263169Y-36930195D01*
X86272472Y-36988937D01*
X86283014Y-37055496D01*
X86283014Y-37055497D01*
X86283015Y-37055499D01*
X86338952Y-37165281D01*
X86340613Y-37168540D01*
X86430315Y-37258242D01*
X86430317Y-37258243D01*
X86430319Y-37258245D01*
X86543357Y-37315841D01*
X86668661Y-37335687D01*
X86793965Y-37315841D01*
X86907003Y-37258245D01*
X86996711Y-37168537D01*
X87054307Y-37055499D01*
X87074153Y-36930195D01*
X87054307Y-36804891D01*
X86996711Y-36691853D01*
X86996709Y-36691851D01*
X86996708Y-36691849D01*
X86907006Y-36602147D01*
X86907003Y-36602145D01*
X86793965Y-36544549D01*
X86793963Y-36544548D01*
X86793962Y-36544548D01*
X86668661Y-36524703D01*
X86546012Y-36544128D01*
X86512858Y-36540204D01*
X86510765Y-36539337D01*
X86492692Y-36531851D01*
X86459409Y-36498570D01*
X86459408Y-36451499D01*
X86472740Y-36431546D01*
X86479286Y-36425000D01*
X93994196Y-36425000D01*
X94015280Y-36558125D01*
X94076471Y-36678220D01*
X94171779Y-36773528D01*
X94233333Y-36804891D01*
X94291874Y-36834719D01*
X94425000Y-36855804D01*
X94558126Y-36834719D01*
X94678220Y-36773528D01*
X94678221Y-36773528D01*
X94773528Y-36678221D01*
X94773528Y-36678220D01*
X94796233Y-36633658D01*
X94834719Y-36558126D01*
X94855804Y-36425000D01*
X94834719Y-36291874D01*
X94805941Y-36235394D01*
X94773528Y-36171779D01*
X94678220Y-36076471D01*
X94558125Y-36015280D01*
X94425000Y-35994196D01*
X94291874Y-36015280D01*
X94171779Y-36076471D01*
X94171779Y-36076472D01*
X94076472Y-36171779D01*
X94076471Y-36171779D01*
X94015280Y-36291874D01*
X93994196Y-36425000D01*
X86479286Y-36425000D01*
X86550522Y-36353764D01*
X86550525Y-36353761D01*
X86608121Y-36240723D01*
X86627967Y-36115419D01*
X86608121Y-35990115D01*
X86566378Y-35908191D01*
X86562686Y-35861270D01*
X86593255Y-35825477D01*
X86630795Y-35819531D01*
X86700000Y-35830492D01*
X86825304Y-35810646D01*
X86938342Y-35753050D01*
X87028050Y-35663342D01*
X87085646Y-35550304D01*
X87105492Y-35425000D01*
X87101532Y-35400000D01*
X94069196Y-35400000D01*
X94090280Y-35533125D01*
X94151471Y-35653220D01*
X94246779Y-35748528D01*
X94366874Y-35809719D01*
X94500000Y-35830804D01*
X94633126Y-35809719D01*
X94753220Y-35748528D01*
X94753221Y-35748528D01*
X94848528Y-35653221D01*
X94848528Y-35653220D01*
X94860696Y-35629339D01*
X94909719Y-35533126D01*
X94930804Y-35400000D01*
X94909719Y-35266874D01*
X94901742Y-35251218D01*
X94848528Y-35146779D01*
X94753220Y-35051471D01*
X94633125Y-34990280D01*
X94500000Y-34969196D01*
X94366874Y-34990280D01*
X94246779Y-35051471D01*
X94246779Y-35051472D01*
X94151472Y-35146779D01*
X94151471Y-35146779D01*
X94090280Y-35266874D01*
X94069196Y-35400000D01*
X87101532Y-35400000D01*
X87085646Y-35299696D01*
X87028050Y-35186658D01*
X87028048Y-35186656D01*
X87028047Y-35186654D01*
X86938345Y-35096952D01*
X86938342Y-35096950D01*
X86825304Y-35039354D01*
X86825302Y-35039353D01*
X86825301Y-35039353D01*
X86700000Y-35019508D01*
X86574690Y-35039354D01*
X86574194Y-35039516D01*
X86573845Y-35039488D01*
X86569915Y-35040111D01*
X86569765Y-35039167D01*
X86527270Y-35035820D01*
X86496703Y-35000025D01*
X86499252Y-34955476D01*
X86503892Y-34945316D01*
X86511697Y-34928226D01*
X86530133Y-34800000D01*
X86518140Y-34716586D01*
X98872514Y-34716586D01*
X98891348Y-34907816D01*
X98947127Y-35091696D01*
X99037712Y-35261169D01*
X99159613Y-35409705D01*
X99159614Y-35409706D01*
X99308150Y-35531607D01*
X99308151Y-35531607D01*
X99308153Y-35531609D01*
X99477620Y-35622191D01*
X99661503Y-35677971D01*
X99852734Y-35696806D01*
X100043965Y-35677971D01*
X100227848Y-35622191D01*
X100397315Y-35531609D01*
X100545854Y-35409706D01*
X100667757Y-35261167D01*
X100758339Y-35091700D01*
X100814119Y-34907817D01*
X100832954Y-34716586D01*
X100832954Y-34716585D01*
X122672515Y-34716585D01*
X122691349Y-34907815D01*
X122747128Y-35091695D01*
X122747129Y-35091696D01*
X122747130Y-35091699D01*
X122760358Y-35116446D01*
X122837713Y-35261168D01*
X122959614Y-35409704D01*
X122959615Y-35409705D01*
X123108151Y-35531606D01*
X123108152Y-35531606D01*
X123108154Y-35531608D01*
X123277621Y-35622190D01*
X123277623Y-35622190D01*
X123277624Y-35622191D01*
X123379914Y-35653220D01*
X123461504Y-35677970D01*
X123652735Y-35696805D01*
X123843966Y-35677970D01*
X124027849Y-35622190D01*
X124197316Y-35531608D01*
X124345855Y-35409705D01*
X124467758Y-35261166D01*
X124558340Y-35091699D01*
X124614120Y-34907816D01*
X124632955Y-34716585D01*
X124614120Y-34525354D01*
X124578909Y-34409277D01*
X124558341Y-34341474D01*
X124558340Y-34341472D01*
X124558340Y-34341471D01*
X124467758Y-34172004D01*
X124467756Y-34172002D01*
X124467756Y-34172001D01*
X124345855Y-34023465D01*
X124345854Y-34023464D01*
X124197318Y-33901563D01*
X124027845Y-33810978D01*
X123843965Y-33755199D01*
X123652735Y-33736365D01*
X123461504Y-33755199D01*
X123277624Y-33810978D01*
X123108151Y-33901563D01*
X122959615Y-34023464D01*
X122959614Y-34023465D01*
X122837713Y-34172001D01*
X122747128Y-34341474D01*
X122691349Y-34525354D01*
X122672515Y-34716585D01*
X100832954Y-34716585D01*
X100814119Y-34525355D01*
X100760774Y-34349500D01*
X100758340Y-34341475D01*
X100758339Y-34341474D01*
X100758339Y-34341472D01*
X100667757Y-34172005D01*
X100665372Y-34169099D01*
X100545854Y-34023466D01*
X100545853Y-34023465D01*
X100397317Y-33901564D01*
X100271843Y-33834497D01*
X100227848Y-33810981D01*
X100227847Y-33810980D01*
X100227844Y-33810979D01*
X100043964Y-33755200D01*
X99852734Y-33736366D01*
X99661503Y-33755200D01*
X99477623Y-33810979D01*
X99308150Y-33901564D01*
X99159614Y-34023465D01*
X99159613Y-34023466D01*
X99037712Y-34172002D01*
X98947127Y-34341475D01*
X98891348Y-34525355D01*
X98872514Y-34716586D01*
X86518140Y-34716586D01*
X86511697Y-34671774D01*
X86511695Y-34671769D01*
X86464463Y-34568346D01*
X86462782Y-34521306D01*
X86494857Y-34486856D01*
X86541897Y-34485175D01*
X86548659Y-34488809D01*
X86548870Y-34488397D01*
X86553180Y-34490593D01*
X86553182Y-34490595D01*
X86666220Y-34548191D01*
X86791524Y-34568037D01*
X86916828Y-34548191D01*
X87029866Y-34490595D01*
X87119574Y-34400887D01*
X87177170Y-34287849D01*
X87197016Y-34162545D01*
X87182744Y-34072434D01*
X87193733Y-34026665D01*
X87233866Y-34002071D01*
X87271405Y-34008016D01*
X87374696Y-34060646D01*
X87500000Y-34080492D01*
X87625304Y-34060646D01*
X87738342Y-34003050D01*
X87828050Y-33913342D01*
X87885646Y-33800304D01*
X87905492Y-33675000D01*
X87885646Y-33549696D01*
X87828050Y-33436658D01*
X87828048Y-33436656D01*
X87828047Y-33436654D01*
X87738344Y-33346951D01*
X87701582Y-33328220D01*
X87674246Y-33314291D01*
X87643678Y-33278501D01*
X87643954Y-33275000D01*
X101094196Y-33275000D01*
X101115280Y-33408125D01*
X101176471Y-33528220D01*
X101271779Y-33623528D01*
X101372799Y-33675000D01*
X101391874Y-33684719D01*
X101525000Y-33705804D01*
X101658126Y-33684719D01*
X101778220Y-33623528D01*
X101778221Y-33623528D01*
X101873528Y-33528221D01*
X101873528Y-33528220D01*
X101882727Y-33510165D01*
X101934719Y-33408126D01*
X101955804Y-33275000D01*
X101936006Y-33150000D01*
X111644196Y-33150000D01*
X111665280Y-33283125D01*
X111726471Y-33403220D01*
X111821779Y-33498528D01*
X111922203Y-33549696D01*
X111941874Y-33559719D01*
X112075000Y-33580804D01*
X112208126Y-33559719D01*
X112328220Y-33498528D01*
X112328221Y-33498528D01*
X112423528Y-33403221D01*
X112423528Y-33403220D01*
X112452198Y-33346952D01*
X112484719Y-33283126D01*
X112505804Y-33150000D01*
X112493925Y-33075000D01*
X124844196Y-33075000D01*
X124865280Y-33208125D01*
X124926471Y-33328220D01*
X125021779Y-33423528D01*
X125141874Y-33484719D01*
X125275000Y-33505804D01*
X125408126Y-33484719D01*
X125528220Y-33423528D01*
X125528221Y-33423528D01*
X125623528Y-33328221D01*
X125623528Y-33328220D01*
X125643332Y-33289353D01*
X125684719Y-33208126D01*
X125705804Y-33075000D01*
X125684719Y-32941874D01*
X125671344Y-32915624D01*
X125623528Y-32821779D01*
X125528220Y-32726471D01*
X125408125Y-32665280D01*
X125275000Y-32644196D01*
X125141874Y-32665280D01*
X125021779Y-32726471D01*
X125021779Y-32726472D01*
X124926472Y-32821779D01*
X124926471Y-32821779D01*
X124865280Y-32941874D01*
X124844196Y-33075000D01*
X112493925Y-33075000D01*
X112484719Y-33016874D01*
X112463898Y-32976011D01*
X112423528Y-32896779D01*
X112328220Y-32801471D01*
X112208125Y-32740280D01*
X112075000Y-32719196D01*
X111941874Y-32740280D01*
X111821779Y-32801471D01*
X111821779Y-32801472D01*
X111726472Y-32896779D01*
X111726471Y-32896779D01*
X111665280Y-33016874D01*
X111644196Y-33150000D01*
X101936006Y-33150000D01*
X101934719Y-33141874D01*
X101904235Y-33082045D01*
X101873528Y-33021779D01*
X101778220Y-32926471D01*
X101658125Y-32865280D01*
X101525000Y-32844196D01*
X101391874Y-32865280D01*
X101271779Y-32926471D01*
X101271779Y-32926472D01*
X101176472Y-33021779D01*
X101176471Y-33021779D01*
X101115280Y-33141874D01*
X101094196Y-33275000D01*
X87643954Y-33275000D01*
X87647371Y-33231576D01*
X87683163Y-33201006D01*
X87692546Y-33198753D01*
X87775304Y-33185646D01*
X87888342Y-33128050D01*
X87978050Y-33038342D01*
X88035646Y-32925304D01*
X88055492Y-32800000D01*
X88054852Y-32795960D01*
X88065840Y-32750191D01*
X88105974Y-32725597D01*
X88143512Y-32731542D01*
X88249696Y-32785646D01*
X88375000Y-32805492D01*
X88500304Y-32785646D01*
X88613342Y-32728050D01*
X88666392Y-32675000D01*
X104794508Y-32675000D01*
X104814353Y-32800301D01*
X104814353Y-32800302D01*
X104814354Y-32800304D01*
X104871950Y-32913342D01*
X104871952Y-32913345D01*
X104961654Y-33003047D01*
X104961656Y-33003048D01*
X104961658Y-33003050D01*
X105074696Y-33060646D01*
X105200000Y-33080492D01*
X105325304Y-33060646D01*
X105438342Y-33003050D01*
X105528050Y-32913342D01*
X105576573Y-32818109D01*
X105612365Y-32787542D01*
X105659290Y-32791235D01*
X105686164Y-32818109D01*
X105710200Y-32865281D01*
X105721952Y-32888345D01*
X105811654Y-32978047D01*
X105811656Y-32978048D01*
X105811658Y-32978050D01*
X105924696Y-33035646D01*
X106050000Y-33055492D01*
X106175304Y-33035646D01*
X106288342Y-32978050D01*
X106378050Y-32888342D01*
X106435646Y-32775304D01*
X106455492Y-32650000D01*
X106435646Y-32524696D01*
X106378050Y-32411658D01*
X106378048Y-32411656D01*
X106378047Y-32411654D01*
X106288345Y-32321952D01*
X106288342Y-32321950D01*
X106175304Y-32264354D01*
X106175302Y-32264353D01*
X106175301Y-32264353D01*
X106050000Y-32244508D01*
X105924698Y-32264353D01*
X105811654Y-32321952D01*
X105721950Y-32411656D01*
X105673426Y-32506888D01*
X105637634Y-32537457D01*
X105590709Y-32533763D01*
X105563834Y-32506888D01*
X105528050Y-32436658D01*
X105528049Y-32436657D01*
X105528048Y-32436655D01*
X105438345Y-32346952D01*
X105438342Y-32346950D01*
X105325304Y-32289354D01*
X105325302Y-32289353D01*
X105325301Y-32289353D01*
X105200000Y-32269508D01*
X105074698Y-32289353D01*
X105074696Y-32289353D01*
X105074696Y-32289354D01*
X105043024Y-32305492D01*
X104961654Y-32346952D01*
X104871952Y-32436654D01*
X104814353Y-32549698D01*
X104794508Y-32675000D01*
X88666392Y-32675000D01*
X88703050Y-32638342D01*
X88760646Y-32525304D01*
X88780492Y-32400000D01*
X88760646Y-32274696D01*
X88753190Y-32260064D01*
X88749498Y-32213141D01*
X88780067Y-32177348D01*
X88817608Y-32171402D01*
X88875000Y-32180492D01*
X89000304Y-32160646D01*
X89113342Y-32103050D01*
X89203050Y-32013342D01*
X89260646Y-31900304D01*
X89260694Y-31900000D01*
X116719508Y-31900000D01*
X116739353Y-32025301D01*
X116739353Y-32025302D01*
X116739354Y-32025304D01*
X116786195Y-32117234D01*
X116796952Y-32138345D01*
X116886654Y-32228047D01*
X116886656Y-32228048D01*
X116886658Y-32228050D01*
X116999696Y-32285646D01*
X117125000Y-32305492D01*
X117250304Y-32285646D01*
X117363342Y-32228050D01*
X117453050Y-32138342D01*
X117510646Y-32025304D01*
X117530492Y-31900000D01*
X117510646Y-31774696D01*
X117453050Y-31661658D01*
X117453048Y-31661656D01*
X117453047Y-31661654D01*
X117363345Y-31571952D01*
X117363342Y-31571950D01*
X117250304Y-31514354D01*
X117250302Y-31514353D01*
X117250301Y-31514353D01*
X117125000Y-31494508D01*
X116999698Y-31514353D01*
X116886654Y-31571952D01*
X116796952Y-31661654D01*
X116739353Y-31774698D01*
X116719508Y-31900000D01*
X89260694Y-31900000D01*
X89280492Y-31775000D01*
X89260646Y-31649696D01*
X89203050Y-31536658D01*
X89203048Y-31536656D01*
X89203047Y-31536654D01*
X89113345Y-31446952D01*
X89113342Y-31446950D01*
X89000304Y-31389354D01*
X89000302Y-31389353D01*
X89000301Y-31389353D01*
X88875000Y-31369508D01*
X88749698Y-31389353D01*
X88636654Y-31446952D01*
X88546952Y-31536654D01*
X88527725Y-31574389D01*
X88496547Y-31635580D01*
X88489353Y-31649698D01*
X88469508Y-31775000D01*
X88489353Y-31900303D01*
X88489354Y-31900305D01*
X88496808Y-31914935D01*
X88500501Y-31961860D01*
X88469930Y-31997651D01*
X88432391Y-32003597D01*
X88375000Y-31994508D01*
X88249698Y-32014353D01*
X88136654Y-32071952D01*
X88046952Y-32161654D01*
X87989353Y-32274698D01*
X87969508Y-32400000D01*
X87970148Y-32404044D01*
X87959155Y-32449812D01*
X87919019Y-32474403D01*
X87881485Y-32468456D01*
X87775304Y-32414354D01*
X87775302Y-32414353D01*
X87775301Y-32414353D01*
X87650000Y-32394508D01*
X87524698Y-32414353D01*
X87411654Y-32471952D01*
X87321952Y-32561654D01*
X87264353Y-32674698D01*
X87244508Y-32800000D01*
X87264353Y-32925301D01*
X87264353Y-32925302D01*
X87264354Y-32925304D01*
X87320613Y-33035718D01*
X87321952Y-33038345D01*
X87411655Y-33128048D01*
X87411657Y-33128049D01*
X87411658Y-33128050D01*
X87475752Y-33160708D01*
X87506321Y-33196498D01*
X87502628Y-33243423D01*
X87466836Y-33273993D01*
X87457452Y-33276246D01*
X87374698Y-33289353D01*
X87261654Y-33346952D01*
X87171952Y-33436654D01*
X87114353Y-33549698D01*
X87094508Y-33675000D01*
X87108779Y-33765110D01*
X87097790Y-33810879D01*
X87057656Y-33835473D01*
X87020116Y-33829527D01*
X86916826Y-33776898D01*
X86916827Y-33776898D01*
X86791524Y-33757053D01*
X86666222Y-33776898D01*
X86553178Y-33834497D01*
X86463476Y-33924199D01*
X86444605Y-33961236D01*
X86408812Y-33991805D01*
X86389808Y-33994815D01*
X82746759Y-33994815D01*
X82746751Y-33994814D01*
X82739594Y-33994814D01*
X82669776Y-33994814D01*
X82669773Y-33994814D01*
X82669773Y-33994815D01*
X82605275Y-34021531D01*
X82605268Y-34021536D01*
X76520318Y-40106487D01*
X76476831Y-40124500D01*
X65823168Y-40124500D01*
X65779681Y-40106487D01*
X63618513Y-37945318D01*
X63600500Y-37901831D01*
X63600500Y-37412061D01*
X69628609Y-37412061D01*
X69648282Y-37624372D01*
X69706632Y-37829451D01*
X69706632Y-37829453D01*
X69801670Y-38020311D01*
X69801674Y-38020319D01*
X69930160Y-38190463D01*
X69930168Y-38190471D01*
X70068826Y-38316874D01*
X70087736Y-38334112D01*
X70269018Y-38446358D01*
X70269020Y-38446359D01*
X70278419Y-38450000D01*
X70467839Y-38523381D01*
X70677428Y-38562560D01*
X70677431Y-38562560D01*
X70890643Y-38562560D01*
X70890646Y-38562560D01*
X71100235Y-38523381D01*
X71299056Y-38446358D01*
X71480338Y-38334112D01*
X71637909Y-38190468D01*
X71748333Y-38044243D01*
X71766399Y-38020319D01*
X71766399Y-38020318D01*
X71766402Y-38020315D01*
X71837292Y-37877949D01*
X71861441Y-37829453D01*
X71861441Y-37829452D01*
X71861442Y-37829450D01*
X71919792Y-37624370D01*
X71939465Y-37412061D01*
X71919792Y-37199752D01*
X71861442Y-36994672D01*
X71861441Y-36994669D01*
X71861441Y-36994668D01*
X71797994Y-36867253D01*
X71766402Y-36803807D01*
X71766400Y-36803805D01*
X71766399Y-36803802D01*
X71637913Y-36633658D01*
X71637905Y-36633650D01*
X71480345Y-36490016D01*
X71480342Y-36490014D01*
X71480338Y-36490010D01*
X71299056Y-36377764D01*
X71299053Y-36377762D01*
X71100238Y-36300742D01*
X71100237Y-36300741D01*
X71100235Y-36300741D01*
X70890646Y-36261562D01*
X70677428Y-36261562D01*
X70467839Y-36300741D01*
X70467837Y-36300741D01*
X70467835Y-36300742D01*
X70269020Y-36377762D01*
X70087736Y-36490010D01*
X70087728Y-36490016D01*
X69930168Y-36633650D01*
X69930160Y-36633658D01*
X69801674Y-36803802D01*
X69801670Y-36803810D01*
X69706632Y-36994668D01*
X69706632Y-36994670D01*
X69648282Y-37199749D01*
X69628609Y-37412061D01*
X63600500Y-37412061D01*
X63600500Y-35198536D01*
X73048523Y-35198536D01*
X73069607Y-35331661D01*
X73130798Y-35451756D01*
X73226106Y-35547064D01*
X73329782Y-35599889D01*
X73346201Y-35608255D01*
X73479327Y-35629340D01*
X73612453Y-35608255D01*
X73732547Y-35547064D01*
X73732548Y-35547064D01*
X73827855Y-35451757D01*
X73827855Y-35451756D01*
X73841488Y-35425000D01*
X73889046Y-35331662D01*
X73910131Y-35198536D01*
X73889046Y-35065410D01*
X73865903Y-35019989D01*
X73827855Y-34945315D01*
X73732547Y-34850007D01*
X73612452Y-34788816D01*
X73479327Y-34767732D01*
X73346201Y-34788816D01*
X73226106Y-34850007D01*
X73226106Y-34850008D01*
X73130799Y-34945315D01*
X73130798Y-34945315D01*
X73069607Y-35065410D01*
X73048523Y-35198536D01*
X63600500Y-35198536D01*
X63600500Y-34520000D01*
X68714508Y-34520000D01*
X68734353Y-34645301D01*
X68734353Y-34645302D01*
X68734354Y-34645304D01*
X68791950Y-34758342D01*
X68791952Y-34758345D01*
X68881654Y-34848047D01*
X68881656Y-34848048D01*
X68881658Y-34848050D01*
X68994696Y-34905646D01*
X69120000Y-34925492D01*
X69245304Y-34905646D01*
X69358342Y-34848050D01*
X69448050Y-34758342D01*
X69505646Y-34645304D01*
X69525492Y-34520000D01*
X69505646Y-34394696D01*
X69448050Y-34281658D01*
X69448048Y-34281656D01*
X69448047Y-34281654D01*
X69358345Y-34191952D01*
X69358342Y-34191950D01*
X69245304Y-34134354D01*
X69245302Y-34134353D01*
X69245301Y-34134353D01*
X69120000Y-34114508D01*
X68994698Y-34134353D01*
X68881654Y-34191952D01*
X68791952Y-34281654D01*
X68734353Y-34394698D01*
X68714508Y-34520000D01*
X63600500Y-34520000D01*
X63600500Y-33490091D01*
X63573782Y-33425587D01*
X63551415Y-33403220D01*
X63520915Y-33372719D01*
X63520900Y-33372706D01*
X62132303Y-31984108D01*
X69232728Y-31984108D01*
X69253812Y-32117233D01*
X69315003Y-32237328D01*
X69410311Y-32332636D01*
X69483680Y-32370019D01*
X69530406Y-32393827D01*
X69663532Y-32414912D01*
X69796658Y-32393827D01*
X69916752Y-32332636D01*
X69916753Y-32332636D01*
X70012060Y-32237329D01*
X70012060Y-32237328D01*
X70051604Y-32159718D01*
X70073251Y-32117234D01*
X70094336Y-31984108D01*
X70073251Y-31850982D01*
X70012060Y-31730887D01*
X69916752Y-31635579D01*
X69796657Y-31574388D01*
X69663532Y-31553304D01*
X69530406Y-31574388D01*
X69410311Y-31635579D01*
X69410311Y-31635580D01*
X69315004Y-31730887D01*
X69315003Y-31730887D01*
X69253812Y-31850982D01*
X69232728Y-31984108D01*
X62132303Y-31984108D01*
X60985893Y-30837698D01*
X60921389Y-30810980D01*
X60733152Y-30810980D01*
X60689665Y-30792967D01*
X60678355Y-30777400D01*
X60655864Y-30733259D01*
X60560556Y-30637951D01*
X60440461Y-30576760D01*
X60307336Y-30555676D01*
X60174210Y-30576760D01*
X60054115Y-30637951D01*
X60054115Y-30637952D01*
X59958808Y-30733259D01*
X59958807Y-30733259D01*
X59935860Y-30778297D01*
X59900068Y-30808867D01*
X59853143Y-30805174D01*
X59822573Y-30769382D01*
X59820320Y-30759997D01*
X59816205Y-30734016D01*
X59755014Y-30613921D01*
X59659706Y-30518613D01*
X59592976Y-30484613D01*
X59562406Y-30448821D01*
X59566099Y-30401896D01*
X59592974Y-30375020D01*
X59664273Y-30338692D01*
X59664274Y-30338692D01*
X59759581Y-30243385D01*
X59759581Y-30243384D01*
X59780753Y-30201832D01*
X59820772Y-30123290D01*
X59824788Y-30097931D01*
X65435821Y-30097931D01*
X65456905Y-30231056D01*
X65518096Y-30351151D01*
X65613404Y-30446459D01*
X65683719Y-30482286D01*
X65733499Y-30507650D01*
X65866625Y-30528735D01*
X65999751Y-30507650D01*
X66093917Y-30459670D01*
X74615294Y-30459670D01*
X74636378Y-30592795D01*
X74697569Y-30712890D01*
X74792877Y-30808198D01*
X74908562Y-30867142D01*
X74912972Y-30869389D01*
X75046098Y-30890474D01*
X75179224Y-30869389D01*
X75266342Y-30825000D01*
X81319508Y-30825000D01*
X81339353Y-30950301D01*
X81339353Y-30950302D01*
X81339354Y-30950304D01*
X81396950Y-31063342D01*
X81396952Y-31063345D01*
X81486654Y-31153047D01*
X81486656Y-31153048D01*
X81486658Y-31153050D01*
X81599696Y-31210646D01*
X81725000Y-31230492D01*
X81850304Y-31210646D01*
X81920263Y-31175000D01*
X87369508Y-31175000D01*
X87389353Y-31300301D01*
X87389353Y-31300302D01*
X87389354Y-31300304D01*
X87446950Y-31413342D01*
X87446952Y-31413345D01*
X87536654Y-31503047D01*
X87536656Y-31503048D01*
X87536658Y-31503050D01*
X87649696Y-31560646D01*
X87775000Y-31580492D01*
X87900304Y-31560646D01*
X88013342Y-31503050D01*
X88103050Y-31413342D01*
X88160646Y-31300304D01*
X88180492Y-31175000D01*
X88160646Y-31049696D01*
X88103050Y-30936658D01*
X88103048Y-30936656D01*
X88103047Y-30936654D01*
X88013345Y-30846952D01*
X88013342Y-30846950D01*
X87900304Y-30789354D01*
X87900302Y-30789353D01*
X87900301Y-30789353D01*
X87775000Y-30769508D01*
X87649698Y-30789353D01*
X87536654Y-30846952D01*
X87446952Y-30936654D01*
X87389353Y-31049698D01*
X87369508Y-31175000D01*
X81920263Y-31175000D01*
X81963342Y-31153050D01*
X82053050Y-31063342D01*
X82110646Y-30950304D01*
X82130492Y-30825000D01*
X82110646Y-30699696D01*
X82053050Y-30586658D01*
X82053048Y-30586656D01*
X82053047Y-30586654D01*
X81963344Y-30496951D01*
X81963062Y-30496807D01*
X81954675Y-30492533D01*
X81924106Y-30456743D01*
X81927799Y-30409818D01*
X81954674Y-30382942D01*
X82013342Y-30353050D01*
X82103050Y-30263342D01*
X82160646Y-30150304D01*
X82180492Y-30025000D01*
X82160646Y-29899696D01*
X82103050Y-29786658D01*
X82103048Y-29786656D01*
X82103047Y-29786654D01*
X82013344Y-29696951D01*
X82013062Y-29696807D01*
X82004675Y-29692533D01*
X81974106Y-29656743D01*
X81977799Y-29609818D01*
X82004674Y-29582942D01*
X82063342Y-29553050D01*
X82153050Y-29463342D01*
X82210646Y-29350304D01*
X82230492Y-29225000D01*
X82210646Y-29099696D01*
X82153050Y-28986658D01*
X82153048Y-28986656D01*
X82153047Y-28986654D01*
X82063345Y-28896952D01*
X82063342Y-28896950D01*
X81950304Y-28839354D01*
X81950302Y-28839353D01*
X81950301Y-28839353D01*
X81825000Y-28819508D01*
X81699698Y-28839353D01*
X81586654Y-28896952D01*
X81496952Y-28986654D01*
X81439353Y-29099698D01*
X81419508Y-29225000D01*
X81439353Y-29350301D01*
X81439353Y-29350302D01*
X81439354Y-29350304D01*
X81479496Y-29429086D01*
X81496952Y-29463345D01*
X81586654Y-29553047D01*
X81586656Y-29553048D01*
X81586658Y-29553050D01*
X81595322Y-29557464D01*
X81625892Y-29593254D01*
X81622201Y-29640179D01*
X81595324Y-29667058D01*
X81536654Y-29696952D01*
X81446952Y-29786654D01*
X81389353Y-29899698D01*
X81369508Y-30025000D01*
X81389353Y-30150301D01*
X81389353Y-30150302D01*
X81389354Y-30150304D01*
X81446812Y-30263071D01*
X81446952Y-30263345D01*
X81536654Y-30353047D01*
X81536656Y-30353048D01*
X81536658Y-30353050D01*
X81545322Y-30357464D01*
X81575892Y-30393254D01*
X81572201Y-30440179D01*
X81545324Y-30467058D01*
X81486654Y-30496952D01*
X81396952Y-30586654D01*
X81339353Y-30699698D01*
X81319508Y-30825000D01*
X75266342Y-30825000D01*
X75299318Y-30808198D01*
X75299319Y-30808198D01*
X75394626Y-30712891D01*
X75394626Y-30712890D01*
X75443539Y-30616892D01*
X75455817Y-30592796D01*
X75476902Y-30459670D01*
X75455817Y-30326544D01*
X75427017Y-30270020D01*
X75394626Y-30206449D01*
X75299318Y-30111141D01*
X75179223Y-30049950D01*
X75046098Y-30028866D01*
X74912972Y-30049950D01*
X74792877Y-30111141D01*
X74792877Y-30111142D01*
X74697570Y-30206449D01*
X74697569Y-30206449D01*
X74636378Y-30326544D01*
X74615294Y-30459670D01*
X66093917Y-30459670D01*
X66119845Y-30446459D01*
X66119846Y-30446459D01*
X66215153Y-30351152D01*
X66215153Y-30351151D01*
X66256485Y-30270032D01*
X66276344Y-30231057D01*
X66297429Y-30097931D01*
X66276344Y-29964805D01*
X66269559Y-29951489D01*
X66215153Y-29844710D01*
X66119845Y-29749402D01*
X65999750Y-29688211D01*
X65866625Y-29667127D01*
X65733499Y-29688211D01*
X65613404Y-29749402D01*
X65613404Y-29749403D01*
X65518097Y-29844710D01*
X65518096Y-29844710D01*
X65456905Y-29964805D01*
X65435821Y-30097931D01*
X59824788Y-30097931D01*
X59841857Y-29990164D01*
X59820772Y-29857038D01*
X59784910Y-29786654D01*
X59759581Y-29736943D01*
X59664273Y-29641635D01*
X59544178Y-29580444D01*
X59411053Y-29559360D01*
X59277927Y-29580444D01*
X59157832Y-29641635D01*
X59157832Y-29641636D01*
X59062525Y-29736943D01*
X59062524Y-29736943D01*
X59001333Y-29857038D01*
X58980249Y-29990164D01*
X59001333Y-30123289D01*
X59062524Y-30243384D01*
X59157832Y-30338692D01*
X59224562Y-30372692D01*
X59255132Y-30408484D01*
X59251439Y-30455409D01*
X59224563Y-30482286D01*
X59153264Y-30518614D01*
X59057958Y-30613921D01*
X59057957Y-30613921D01*
X58996766Y-30734016D01*
X58975682Y-30867142D01*
X50804420Y-30867142D01*
X50804402Y-28750000D01*
X55444508Y-28750000D01*
X55464353Y-28875301D01*
X55464353Y-28875302D01*
X55464354Y-28875304D01*
X55521950Y-28988342D01*
X55521952Y-28988345D01*
X55611654Y-29078047D01*
X55611656Y-29078048D01*
X55611658Y-29078050D01*
X55724696Y-29135646D01*
X55850000Y-29155492D01*
X55975304Y-29135646D01*
X56088342Y-29078050D01*
X56178050Y-28988342D01*
X56235646Y-28875304D01*
X56255492Y-28750000D01*
X56235646Y-28624696D01*
X56178050Y-28511658D01*
X56178048Y-28511656D01*
X56178047Y-28511654D01*
X56088345Y-28421952D01*
X56088342Y-28421950D01*
X55975304Y-28364354D01*
X55975302Y-28364353D01*
X55975301Y-28364353D01*
X55850000Y-28344508D01*
X55724698Y-28364353D01*
X55611654Y-28421952D01*
X55521952Y-28511654D01*
X55464353Y-28624698D01*
X55444508Y-28750000D01*
X50804402Y-28750000D01*
X50804395Y-27896280D01*
X57105758Y-27896280D01*
X57126842Y-28029405D01*
X57188033Y-28149500D01*
X57283341Y-28244808D01*
X57376864Y-28292460D01*
X57403436Y-28305999D01*
X57536562Y-28327084D01*
X57669688Y-28305999D01*
X57789782Y-28244808D01*
X57789783Y-28244808D01*
X57885090Y-28149501D01*
X57885090Y-28149500D01*
X57894616Y-28130804D01*
X57925615Y-28069965D01*
X57961406Y-28039396D01*
X58008331Y-28043089D01*
X58038899Y-28078875D01*
X58040280Y-28083124D01*
X58101471Y-28203220D01*
X58196779Y-28298528D01*
X58252822Y-28327083D01*
X58316874Y-28359719D01*
X58450000Y-28380804D01*
X58583126Y-28359719D01*
X58703220Y-28298528D01*
X58703221Y-28298528D01*
X58798528Y-28203221D01*
X58798528Y-28203220D01*
X58811354Y-28178047D01*
X58859719Y-28083126D01*
X58880804Y-27950000D01*
X58859719Y-27816874D01*
X58812752Y-27724696D01*
X58798528Y-27696779D01*
X58703220Y-27601471D01*
X58583125Y-27540280D01*
X58450000Y-27519196D01*
X58316874Y-27540280D01*
X58196779Y-27601471D01*
X58196779Y-27601472D01*
X58101472Y-27696778D01*
X58060947Y-27776314D01*
X58025154Y-27806883D01*
X57978229Y-27803190D01*
X57947661Y-27767400D01*
X57946281Y-27763155D01*
X57946281Y-27763154D01*
X57906065Y-27684226D01*
X57885090Y-27643059D01*
X57789782Y-27547751D01*
X57669687Y-27486560D01*
X57536562Y-27465476D01*
X57403436Y-27486560D01*
X57283341Y-27547751D01*
X57283341Y-27547752D01*
X57188034Y-27643059D01*
X57188033Y-27643059D01*
X57126842Y-27763154D01*
X57105758Y-27896280D01*
X50804395Y-27896280D01*
X50804371Y-24973919D01*
X68923918Y-24973919D01*
X68945002Y-25107044D01*
X69006193Y-25227139D01*
X69011206Y-25232151D01*
X69029222Y-25275637D01*
X69029222Y-26374552D01*
X69051401Y-26457328D01*
X69051406Y-26457340D01*
X69094252Y-26531551D01*
X69094255Y-26531555D01*
X69094257Y-26531558D01*
X69094259Y-26531560D01*
X69094260Y-26531561D01*
X71535946Y-28973246D01*
X71553202Y-29007112D01*
X71565606Y-29085422D01*
X71565607Y-29085427D01*
X71626797Y-29205520D01*
X71722105Y-29300828D01*
X71819202Y-29350301D01*
X71842200Y-29362019D01*
X71975326Y-29383104D01*
X72108452Y-29362019D01*
X72228546Y-29300828D01*
X72228547Y-29300828D01*
X72323854Y-29205521D01*
X72323854Y-29205520D01*
X72343440Y-29167081D01*
X72385045Y-29085426D01*
X72406130Y-28952300D01*
X72385045Y-28819174D01*
X72349799Y-28750000D01*
X72323854Y-28699079D01*
X72228546Y-28603771D01*
X72108453Y-28542581D01*
X72108448Y-28542580D01*
X72030138Y-28530176D01*
X71996272Y-28512920D01*
X71183353Y-27700000D01*
X82669196Y-27700000D01*
X82690280Y-27833125D01*
X82751471Y-27953220D01*
X82846779Y-28048528D01*
X82888854Y-28069966D01*
X82966874Y-28109719D01*
X83100000Y-28130804D01*
X83233126Y-28109719D01*
X83353220Y-28048528D01*
X83353221Y-28048528D01*
X83448528Y-27953221D01*
X83448528Y-27953220D01*
X83452816Y-27944804D01*
X83507703Y-27837081D01*
X83543495Y-27806512D01*
X83590420Y-27810205D01*
X83617297Y-27837082D01*
X83676471Y-27953220D01*
X83771779Y-28048528D01*
X83813854Y-28069966D01*
X83891874Y-28109719D01*
X84025000Y-28130804D01*
X84158126Y-28109719D01*
X84278220Y-28048528D01*
X84278221Y-28048528D01*
X84373528Y-27953221D01*
X84373528Y-27953220D01*
X84377816Y-27944804D01*
X84434719Y-27833126D01*
X84455804Y-27700000D01*
X84434719Y-27566874D01*
X84410426Y-27519196D01*
X84373528Y-27446779D01*
X84278220Y-27351471D01*
X84158125Y-27290280D01*
X84025000Y-27269196D01*
X83891874Y-27290280D01*
X83771779Y-27351471D01*
X83771779Y-27351472D01*
X83676472Y-27446779D01*
X83676471Y-27446779D01*
X83617297Y-27562917D01*
X83581505Y-27593487D01*
X83534580Y-27589794D01*
X83507703Y-27562917D01*
X83448528Y-27446779D01*
X83353220Y-27351471D01*
X83233125Y-27290280D01*
X83100000Y-27269196D01*
X82966874Y-27290280D01*
X82846779Y-27351471D01*
X82846779Y-27351472D01*
X82751472Y-27446779D01*
X82751471Y-27446779D01*
X82690280Y-27566874D01*
X82669196Y-27700000D01*
X71183353Y-27700000D01*
X70736776Y-27253423D01*
X76207810Y-27253423D01*
X76228894Y-27386548D01*
X76290085Y-27506643D01*
X76385393Y-27601951D01*
X76458799Y-27639353D01*
X76505488Y-27663142D01*
X76638614Y-27684227D01*
X76771740Y-27663142D01*
X76891834Y-27601951D01*
X76891835Y-27601951D01*
X76987142Y-27506644D01*
X76987142Y-27506643D01*
X77007190Y-27467297D01*
X77048333Y-27386549D01*
X77069418Y-27253423D01*
X77048333Y-27120297D01*
X77038145Y-27100301D01*
X76987142Y-27000202D01*
X76891834Y-26904894D01*
X76771739Y-26843703D01*
X76638614Y-26822619D01*
X76505488Y-26843703D01*
X76385393Y-26904894D01*
X76385393Y-26904895D01*
X76290086Y-27000202D01*
X76290085Y-27000202D01*
X76228894Y-27120297D01*
X76207810Y-27253423D01*
X70736776Y-27253423D01*
X69698235Y-26214882D01*
X69680222Y-26171395D01*
X69680222Y-25275641D01*
X69698235Y-25232154D01*
X69699346Y-25231043D01*
X72100595Y-25231043D01*
X72120440Y-25356344D01*
X72120440Y-25356345D01*
X72120441Y-25356347D01*
X72178037Y-25469385D01*
X72178039Y-25469388D01*
X72267741Y-25559090D01*
X72267743Y-25559091D01*
X72267745Y-25559093D01*
X72380783Y-25616689D01*
X72506087Y-25636535D01*
X72631391Y-25616689D01*
X72744429Y-25559093D01*
X72834137Y-25469385D01*
X72891733Y-25356347D01*
X72911579Y-25231043D01*
X72891733Y-25105739D01*
X72834137Y-24992701D01*
X72834135Y-24992699D01*
X72834134Y-24992697D01*
X72744432Y-24902995D01*
X72744429Y-24902993D01*
X72631391Y-24845397D01*
X72631389Y-24845396D01*
X72631388Y-24845396D01*
X72506087Y-24825551D01*
X72380785Y-24845396D01*
X72267741Y-24902995D01*
X72178039Y-24992697D01*
X72120440Y-25105741D01*
X72100595Y-25231043D01*
X69699346Y-25231043D01*
X69703250Y-25227139D01*
X69756716Y-25122206D01*
X69764441Y-25107045D01*
X69785526Y-24973919D01*
X69785526Y-24973917D01*
X69785526Y-24969079D01*
X69787988Y-24969079D01*
X69797022Y-24931414D01*
X69837151Y-24906812D01*
X69874703Y-24912755D01*
X69966874Y-24959719D01*
X70100000Y-24980804D01*
X70233126Y-24959719D01*
X70353220Y-24898528D01*
X70353221Y-24898528D01*
X70448528Y-24803221D01*
X70448528Y-24803220D01*
X70463657Y-24773528D01*
X70509719Y-24683126D01*
X70514077Y-24655612D01*
X75562277Y-24655612D01*
X75583361Y-24788737D01*
X75644552Y-24908832D01*
X75739860Y-25004140D01*
X75859955Y-25065331D01*
X75993081Y-25086416D01*
X76126207Y-25065331D01*
X76246301Y-25004140D01*
X76246302Y-25004140D01*
X76341609Y-24908833D01*
X76341609Y-24908832D01*
X76368628Y-24855804D01*
X76402800Y-24788738D01*
X76423885Y-24655612D01*
X76415077Y-24600000D01*
X77419196Y-24600000D01*
X77440280Y-24733125D01*
X77501471Y-24853220D01*
X77596779Y-24948528D01*
X77660123Y-24980803D01*
X77716874Y-25009719D01*
X77850000Y-25030804D01*
X77983126Y-25009719D01*
X78103220Y-24948528D01*
X78103221Y-24948528D01*
X78198528Y-24853221D01*
X78198528Y-24853220D01*
X78202514Y-24845397D01*
X78259719Y-24733126D01*
X78280804Y-24600000D01*
X78259719Y-24466874D01*
X78238383Y-24425000D01*
X82444196Y-24425000D01*
X82465280Y-24558125D01*
X82526471Y-24678220D01*
X82621779Y-24773528D01*
X82681969Y-24804196D01*
X82741874Y-24834719D01*
X82875000Y-24855804D01*
X83008126Y-24834719D01*
X83128220Y-24773528D01*
X83128221Y-24773528D01*
X83223528Y-24678221D01*
X83223528Y-24678220D01*
X83253031Y-24620317D01*
X83284719Y-24558126D01*
X83305804Y-24425000D01*
X83284719Y-24291874D01*
X83272719Y-24268323D01*
X83223528Y-24171779D01*
X83128220Y-24076471D01*
X83008125Y-24015280D01*
X82875000Y-23994196D01*
X82741874Y-24015280D01*
X82621779Y-24076471D01*
X82621779Y-24076472D01*
X82526472Y-24171779D01*
X82526471Y-24171779D01*
X82465280Y-24291874D01*
X82444196Y-24425000D01*
X78238383Y-24425000D01*
X78226863Y-24402391D01*
X78196646Y-24343086D01*
X78192953Y-24296161D01*
X78223523Y-24260369D01*
X78270448Y-24256676D01*
X78294930Y-24271679D01*
X78296779Y-24273528D01*
X78362635Y-24307083D01*
X78416874Y-24334719D01*
X78550000Y-24355804D01*
X78683126Y-24334719D01*
X78803220Y-24273528D01*
X78803221Y-24273528D01*
X78898528Y-24178221D01*
X78898528Y-24178220D01*
X78903126Y-24169196D01*
X78959719Y-24058126D01*
X78980804Y-23925000D01*
X78959719Y-23791874D01*
X78935585Y-23744508D01*
X78898528Y-23671779D01*
X78803220Y-23576471D01*
X78683125Y-23515280D01*
X78550000Y-23494196D01*
X78416874Y-23515280D01*
X78296779Y-23576471D01*
X78296779Y-23576472D01*
X78201472Y-23671779D01*
X78201471Y-23671779D01*
X78140280Y-23791874D01*
X78119196Y-23925000D01*
X78140280Y-24058125D01*
X78203353Y-24181913D01*
X78207046Y-24228838D01*
X78176476Y-24264630D01*
X78129551Y-24268323D01*
X78105069Y-24253320D01*
X78103220Y-24251471D01*
X77983125Y-24190280D01*
X77850000Y-24169196D01*
X77716874Y-24190280D01*
X77596779Y-24251471D01*
X77596779Y-24251472D01*
X77501472Y-24346779D01*
X77501471Y-24346779D01*
X77440280Y-24466874D01*
X77419196Y-24600000D01*
X76415077Y-24600000D01*
X76402800Y-24522486D01*
X76374464Y-24466874D01*
X76341609Y-24402391D01*
X76246301Y-24307083D01*
X76126206Y-24245892D01*
X75993081Y-24224808D01*
X75859955Y-24245892D01*
X75739860Y-24307083D01*
X75739860Y-24307084D01*
X75644553Y-24402391D01*
X75644552Y-24402391D01*
X75583361Y-24522486D01*
X75562277Y-24655612D01*
X70514077Y-24655612D01*
X70530804Y-24550000D01*
X70509719Y-24416874D01*
X70448528Y-24296780D01*
X70448018Y-24295779D01*
X70444325Y-24248854D01*
X70474895Y-24213062D01*
X70512436Y-24207116D01*
X70614890Y-24223343D01*
X70748016Y-24202258D01*
X70868110Y-24141067D01*
X70868111Y-24141067D01*
X70963417Y-24045760D01*
X70965032Y-24042591D01*
X71000822Y-24012019D01*
X71047747Y-24015708D01*
X71078319Y-24051498D01*
X71080574Y-24080127D01*
X71069508Y-24149999D01*
X71089353Y-24275301D01*
X71089353Y-24275302D01*
X71089354Y-24275304D01*
X71130371Y-24355804D01*
X71146952Y-24388345D01*
X71236654Y-24478047D01*
X71236656Y-24478048D01*
X71236658Y-24478050D01*
X71349696Y-24535646D01*
X71475000Y-24555492D01*
X71600304Y-24535646D01*
X71713342Y-24478050D01*
X71803050Y-24388342D01*
X71860646Y-24275304D01*
X71880492Y-24150000D01*
X71860646Y-24024696D01*
X71803050Y-23911658D01*
X71803048Y-23911656D01*
X71803047Y-23911654D01*
X71713345Y-23821952D01*
X71713342Y-23821950D01*
X71600304Y-23764354D01*
X71600302Y-23764353D01*
X71600301Y-23764353D01*
X71475000Y-23744508D01*
X71349698Y-23764353D01*
X71236654Y-23821952D01*
X71146949Y-23911657D01*
X71144109Y-23915568D01*
X71141791Y-23913884D01*
X71113093Y-23938360D01*
X71066171Y-23934633D01*
X71035627Y-23898818D01*
X71033388Y-23870235D01*
X71041035Y-23821952D01*
X71045694Y-23792539D01*
X71024609Y-23659413D01*
X71001502Y-23614063D01*
X70963418Y-23539318D01*
X70868110Y-23444010D01*
X70748015Y-23382819D01*
X70614890Y-23361735D01*
X70481764Y-23382819D01*
X70361669Y-23444010D01*
X70361669Y-23444011D01*
X70266362Y-23539318D01*
X70266361Y-23539318D01*
X70205170Y-23659413D01*
X70184086Y-23792539D01*
X70205170Y-23925664D01*
X70266871Y-24046759D01*
X70270564Y-24093684D01*
X70239994Y-24129476D01*
X70202454Y-24135422D01*
X70100000Y-24119196D01*
X69966874Y-24140280D01*
X69846779Y-24201471D01*
X69846779Y-24201472D01*
X69751472Y-24296779D01*
X69751471Y-24296779D01*
X69690280Y-24416874D01*
X69673554Y-24522486D01*
X69670287Y-24543115D01*
X69669196Y-24550001D01*
X69669196Y-24554840D01*
X69666741Y-24554840D01*
X69657679Y-24592531D01*
X69617537Y-24617111D01*
X69580017Y-24611162D01*
X69487847Y-24564199D01*
X69354722Y-24543115D01*
X69221596Y-24564199D01*
X69101501Y-24625390D01*
X69101501Y-24625391D01*
X69006194Y-24720698D01*
X69006193Y-24720698D01*
X68945002Y-24840793D01*
X68923918Y-24973919D01*
X50804371Y-24973919D01*
X50804352Y-22734174D01*
X68116598Y-22734174D01*
X68137682Y-22867299D01*
X68198873Y-22987394D01*
X68294181Y-23082702D01*
X68383516Y-23128220D01*
X68414276Y-23143893D01*
X68547402Y-23164978D01*
X68680528Y-23143893D01*
X68800622Y-23082702D01*
X68800623Y-23082702D01*
X68895930Y-22987395D01*
X68895930Y-22987394D01*
X68942756Y-22895492D01*
X68957121Y-22867300D01*
X68978206Y-22734174D01*
X68957121Y-22601048D01*
X68931111Y-22550000D01*
X68895930Y-22480953D01*
X68800622Y-22385645D01*
X68680527Y-22324454D01*
X68547402Y-22303370D01*
X68414276Y-22324454D01*
X68294181Y-22385645D01*
X68294181Y-22385646D01*
X68198874Y-22480953D01*
X68198873Y-22480953D01*
X68137682Y-22601048D01*
X68116598Y-22734174D01*
X50804352Y-22734174D01*
X50804348Y-22257866D01*
X74915543Y-22257866D01*
X74936627Y-22390991D01*
X74997818Y-22511086D01*
X75093126Y-22606394D01*
X75139454Y-22629999D01*
X75213221Y-22667585D01*
X75346347Y-22688670D01*
X75479473Y-22667585D01*
X75599567Y-22606394D01*
X75599568Y-22606394D01*
X75694875Y-22511087D01*
X75694875Y-22511086D01*
X75710228Y-22480954D01*
X75726000Y-22450000D01*
X79019196Y-22450000D01*
X79040280Y-22583125D01*
X79101471Y-22703220D01*
X79196779Y-22798528D01*
X79316874Y-22859719D01*
X79450000Y-22880804D01*
X79583126Y-22859719D01*
X79703220Y-22798528D01*
X79703221Y-22798528D01*
X79798528Y-22703221D01*
X79798528Y-22703220D01*
X79835836Y-22629999D01*
X79859719Y-22583126D01*
X79880804Y-22450000D01*
X79859719Y-22316874D01*
X79827278Y-22253205D01*
X79798528Y-22196779D01*
X79703220Y-22101471D01*
X79583125Y-22040280D01*
X79450000Y-22019196D01*
X79316874Y-22040280D01*
X79196779Y-22101471D01*
X79196779Y-22101472D01*
X79101472Y-22196779D01*
X79101471Y-22196779D01*
X79040280Y-22316874D01*
X79019196Y-22450000D01*
X75726000Y-22450000D01*
X75756066Y-22390992D01*
X75777151Y-22257866D01*
X75756066Y-22124740D01*
X75744210Y-22101471D01*
X75694875Y-22004645D01*
X75599567Y-21909337D01*
X75479472Y-21848146D01*
X75346347Y-21827062D01*
X75213221Y-21848146D01*
X75093126Y-21909337D01*
X75093126Y-21909338D01*
X74997819Y-22004645D01*
X74997818Y-22004645D01*
X74936627Y-22124740D01*
X74915543Y-22257866D01*
X50804348Y-22257866D01*
X50804341Y-21346342D01*
X73456552Y-21346342D01*
X73476397Y-21471643D01*
X73476397Y-21471644D01*
X73476398Y-21471646D01*
X73533994Y-21584684D01*
X73533996Y-21584687D01*
X73623698Y-21674389D01*
X73623700Y-21674390D01*
X73623702Y-21674392D01*
X73736740Y-21731988D01*
X73862044Y-21751834D01*
X73987348Y-21731988D01*
X74100386Y-21674392D01*
X74124778Y-21650000D01*
X83694508Y-21650000D01*
X83714353Y-21775301D01*
X83714353Y-21775302D01*
X83714354Y-21775304D01*
X83751470Y-21848147D01*
X83771952Y-21888345D01*
X83861654Y-21978047D01*
X83861656Y-21978048D01*
X83861658Y-21978050D01*
X83974696Y-22035646D01*
X84022494Y-22043216D01*
X84062628Y-22067810D01*
X84073617Y-22113579D01*
X84049023Y-22153713D01*
X84029023Y-22161999D01*
X84029302Y-22162857D01*
X84024700Y-22164352D01*
X83911654Y-22221952D01*
X83821952Y-22311654D01*
X83764353Y-22424698D01*
X83744508Y-22550000D01*
X83764353Y-22675301D01*
X83764353Y-22675302D01*
X83764354Y-22675304D01*
X83821950Y-22788342D01*
X83821952Y-22788345D01*
X83911654Y-22878047D01*
X83911656Y-22878048D01*
X83911658Y-22878050D01*
X84024696Y-22935646D01*
X84150000Y-22955492D01*
X84275304Y-22935646D01*
X84388342Y-22878050D01*
X84478050Y-22788342D01*
X84535646Y-22675304D01*
X84555492Y-22550000D01*
X84535646Y-22424696D01*
X84478050Y-22311658D01*
X84478048Y-22311656D01*
X84478047Y-22311654D01*
X84388345Y-22221952D01*
X84388342Y-22221950D01*
X84275304Y-22164354D01*
X84275303Y-22164353D01*
X84275302Y-22164353D01*
X84227504Y-22156783D01*
X84187370Y-22132189D01*
X84176382Y-22086419D01*
X84200976Y-22046285D01*
X84220977Y-22038003D01*
X84220698Y-22037143D01*
X84225299Y-22035647D01*
X84225299Y-22035646D01*
X84225304Y-22035646D01*
X84338342Y-21978050D01*
X84428050Y-21888342D01*
X84485646Y-21775304D01*
X84505492Y-21650000D01*
X84485646Y-21524696D01*
X84428050Y-21411658D01*
X84428048Y-21411656D01*
X84428047Y-21411654D01*
X84338345Y-21321952D01*
X84338342Y-21321950D01*
X84225304Y-21264354D01*
X84225302Y-21264353D01*
X84225301Y-21264353D01*
X84100000Y-21244508D01*
X83974698Y-21264353D01*
X83861654Y-21321952D01*
X83771952Y-21411654D01*
X83714353Y-21524698D01*
X83694508Y-21650000D01*
X74124778Y-21650000D01*
X74190094Y-21584684D01*
X74247690Y-21471646D01*
X74267536Y-21346342D01*
X74247690Y-21221038D01*
X74190094Y-21108000D01*
X74190092Y-21107998D01*
X74190091Y-21107996D01*
X74100389Y-21018294D01*
X74100386Y-21018292D01*
X73987348Y-20960696D01*
X73987346Y-20960695D01*
X73987345Y-20960695D01*
X73862044Y-20940850D01*
X73736742Y-20960695D01*
X73623698Y-21018294D01*
X73533996Y-21107996D01*
X73476397Y-21221040D01*
X73456552Y-21346342D01*
X50804341Y-21346342D01*
X50804337Y-20810111D01*
X82167279Y-20810111D01*
X82188363Y-20943236D01*
X82249554Y-21063331D01*
X82344862Y-21158639D01*
X82464957Y-21219830D01*
X82598083Y-21240915D01*
X82731209Y-21219830D01*
X82851303Y-21158639D01*
X82851304Y-21158639D01*
X82946611Y-21063332D01*
X82946611Y-21063331D01*
X82968917Y-21019553D01*
X83007802Y-20943237D01*
X83026205Y-20827041D01*
X83050798Y-20786910D01*
X83096567Y-20775921D01*
X83130434Y-20793177D01*
X83146475Y-20809218D01*
X83266570Y-20870409D01*
X83399696Y-20891494D01*
X83532822Y-20870409D01*
X83652916Y-20809218D01*
X83652917Y-20809218D01*
X83748224Y-20713911D01*
X83748224Y-20713910D01*
X83756240Y-20698178D01*
X83809415Y-20593816D01*
X83830500Y-20460690D01*
X83809415Y-20327564D01*
X83795443Y-20300142D01*
X83748224Y-20207469D01*
X83652916Y-20112161D01*
X83532821Y-20050970D01*
X83399696Y-20029886D01*
X83266570Y-20050970D01*
X83146475Y-20112161D01*
X83146475Y-20112162D01*
X83051168Y-20207469D01*
X83051167Y-20207469D01*
X82989976Y-20327564D01*
X82971574Y-20443757D01*
X82946980Y-20483890D01*
X82901210Y-20494879D01*
X82867344Y-20477623D01*
X82851303Y-20461582D01*
X82731208Y-20400391D01*
X82598083Y-20379307D01*
X82464957Y-20400391D01*
X82344862Y-20461582D01*
X82344862Y-20461583D01*
X82249555Y-20556890D01*
X82249554Y-20556890D01*
X82188363Y-20676985D01*
X82167279Y-20810111D01*
X50804337Y-20810111D01*
X50804333Y-20375911D01*
X73631856Y-20375911D01*
X73651701Y-20501212D01*
X73651701Y-20501213D01*
X73651702Y-20501215D01*
X73709298Y-20614253D01*
X73709300Y-20614256D01*
X73799002Y-20703958D01*
X73799004Y-20703959D01*
X73799006Y-20703961D01*
X73912044Y-20761557D01*
X74037348Y-20781403D01*
X74162652Y-20761557D01*
X74275690Y-20703961D01*
X74365398Y-20614253D01*
X74422994Y-20501215D01*
X74442840Y-20375911D01*
X74422994Y-20250607D01*
X74365398Y-20137569D01*
X74365396Y-20137567D01*
X74365395Y-20137565D01*
X74275693Y-20047863D01*
X74275690Y-20047861D01*
X74162652Y-19990265D01*
X74162650Y-19990264D01*
X74162649Y-19990264D01*
X74037348Y-19970419D01*
X73912046Y-19990264D01*
X73799002Y-20047863D01*
X73709300Y-20137565D01*
X73651701Y-20250609D01*
X73631856Y-20375911D01*
X50804333Y-20375911D01*
X50804326Y-19525000D01*
X56169196Y-19525000D01*
X56190280Y-19658125D01*
X56251471Y-19778220D01*
X56346779Y-19873528D01*
X56464091Y-19933301D01*
X56466874Y-19934719D01*
X56600000Y-19955804D01*
X56733126Y-19934719D01*
X56853220Y-19873528D01*
X56853221Y-19873528D01*
X56948528Y-19778221D01*
X56948528Y-19778220D01*
X56954887Y-19765740D01*
X57009719Y-19658126D01*
X57030804Y-19525000D01*
X57009719Y-19391874D01*
X57009183Y-19388489D01*
X57020172Y-19342719D01*
X57060305Y-19318125D01*
X57097845Y-19324070D01*
X57216874Y-19384719D01*
X57350000Y-19405804D01*
X57483126Y-19384719D01*
X57603220Y-19323528D01*
X57603221Y-19323528D01*
X57698528Y-19228221D01*
X57698528Y-19228220D01*
X57707041Y-19211513D01*
X57759719Y-19108126D01*
X57780804Y-18975000D01*
X57759719Y-18841874D01*
X57758779Y-18840029D01*
X57698528Y-18721779D01*
X57603220Y-18626471D01*
X57549105Y-18598898D01*
X57947878Y-18598898D01*
X57968962Y-18732023D01*
X58030153Y-18852118D01*
X58125461Y-18947426D01*
X58180089Y-18975260D01*
X58245556Y-19008617D01*
X58378682Y-19029702D01*
X58511808Y-19008617D01*
X58631902Y-18947426D01*
X58631903Y-18947426D01*
X58727210Y-18852119D01*
X58727210Y-18852118D01*
X58740311Y-18826406D01*
X58788401Y-18732024D01*
X58809486Y-18598898D01*
X58788401Y-18465772D01*
X58746291Y-18383126D01*
X58727210Y-18345677D01*
X58631902Y-18250369D01*
X58511807Y-18189178D01*
X58378682Y-18168094D01*
X58245556Y-18189178D01*
X58125461Y-18250369D01*
X58125461Y-18250370D01*
X58030154Y-18345677D01*
X58030153Y-18345677D01*
X57968962Y-18465772D01*
X57947878Y-18598898D01*
X57549105Y-18598898D01*
X57483125Y-18565280D01*
X57350000Y-18544196D01*
X57216874Y-18565280D01*
X57096779Y-18626471D01*
X57096779Y-18626472D01*
X57001472Y-18721779D01*
X57001471Y-18721779D01*
X56940280Y-18841874D01*
X56919196Y-18975000D01*
X56940816Y-19111511D01*
X56929827Y-19157280D01*
X56889693Y-19181874D01*
X56852153Y-19175928D01*
X56733125Y-19115280D01*
X56600000Y-19094196D01*
X56466874Y-19115280D01*
X56346779Y-19176471D01*
X56346779Y-19176472D01*
X56251472Y-19271779D01*
X56251471Y-19271779D01*
X56190280Y-19391874D01*
X56169196Y-19525000D01*
X50804326Y-19525000D01*
X50804291Y-15363343D01*
X50804423Y-15359321D01*
X50806253Y-15331404D01*
X50819850Y-15123948D01*
X50820900Y-15115978D01*
X50820901Y-15115976D01*
X50866525Y-14886604D01*
X50868606Y-14878838D01*
X50872790Y-14866513D01*
X50903854Y-14775000D01*
X55294196Y-14775000D01*
X55315280Y-14908125D01*
X55376471Y-15028220D01*
X55471779Y-15123528D01*
X55523734Y-15150000D01*
X55591874Y-15184719D01*
X55725000Y-15205804D01*
X55858126Y-15184719D01*
X55978220Y-15123528D01*
X55978221Y-15123528D01*
X56073528Y-15028221D01*
X56073528Y-15028220D01*
X56101665Y-14972998D01*
X56126121Y-14925000D01*
X59119196Y-14925000D01*
X59140280Y-15058125D01*
X59201471Y-15178220D01*
X59296779Y-15273528D01*
X59404119Y-15328220D01*
X59416874Y-15334719D01*
X59550000Y-15355804D01*
X59683126Y-15334719D01*
X59803220Y-15273528D01*
X59803221Y-15273528D01*
X59898528Y-15178221D01*
X59898528Y-15178220D01*
X59930243Y-15115976D01*
X59959719Y-15058126D01*
X59980804Y-14925000D01*
X59959719Y-14791874D01*
X59926395Y-14726472D01*
X59898528Y-14671779D01*
X59803220Y-14576471D01*
X59683125Y-14515280D01*
X59550000Y-14494196D01*
X59416874Y-14515280D01*
X59296779Y-14576471D01*
X59296779Y-14576472D01*
X59201472Y-14671779D01*
X59201471Y-14671779D01*
X59140280Y-14791874D01*
X59119196Y-14925000D01*
X56126121Y-14925000D01*
X56134719Y-14908126D01*
X56155804Y-14775000D01*
X56134719Y-14641874D01*
X56101395Y-14576472D01*
X56073528Y-14521779D01*
X55978220Y-14426471D01*
X55858125Y-14365280D01*
X55725000Y-14344196D01*
X55591874Y-14365280D01*
X55471779Y-14426471D01*
X55471779Y-14426472D01*
X55376472Y-14521779D01*
X55376471Y-14521779D01*
X55315280Y-14641874D01*
X55294196Y-14775000D01*
X50903854Y-14775000D01*
X50943782Y-14657377D01*
X50946853Y-14649963D01*
X51050301Y-14440190D01*
X51054315Y-14433241D01*
X51184250Y-14238778D01*
X51189133Y-14232414D01*
X51343345Y-14056570D01*
X51349022Y-14050894D01*
X51524869Y-13896680D01*
X51531228Y-13891800D01*
X51725699Y-13761860D01*
X51732640Y-13757851D01*
X51942418Y-13654401D01*
X51949827Y-13651332D01*
X52171293Y-13576154D01*
X52179054Y-13574075D01*
X52408435Y-13528449D01*
X52416398Y-13527400D01*
X52651775Y-13511972D01*
X52655797Y-13511841D01*
X61685814Y-13511841D01*
X61685818Y-13511842D01*
X61698049Y-13511842D01*
X61730375Y-13511842D01*
X61734408Y-13511974D01*
X61970463Y-13527488D01*
X61978433Y-13528541D01*
X62208446Y-13574423D01*
X62216218Y-13576512D01*
X62375332Y-13630686D01*
X62438230Y-13652101D01*
X62445679Y-13655196D01*
X62655879Y-13759187D01*
X62662859Y-13763230D01*
X62855516Y-13892415D01*
X62857648Y-13893844D01*
X62864036Y-13898765D01*
X62923992Y-13951557D01*
X63040048Y-14053747D01*
X63045737Y-14059460D01*
X63199958Y-14236156D01*
X63204848Y-14242563D01*
X63334609Y-14437914D01*
X63338622Y-14444912D01*
X63441696Y-14655562D01*
X63444759Y-14663025D01*
X63519375Y-14885355D01*
X63521435Y-14893154D01*
X63566311Y-15123345D01*
X63567332Y-15131347D01*
X63581816Y-15367459D01*
X63581930Y-15371490D01*
X63581765Y-15409672D01*
X63581938Y-15411240D01*
X63581938Y-18533100D01*
X63581933Y-18533847D01*
X63580749Y-18631291D01*
X63580751Y-18631313D01*
X63612783Y-18826406D01*
X63612785Y-18826412D01*
X63612785Y-18826414D01*
X63612786Y-18826415D01*
X63630442Y-18876653D01*
X63678346Y-19012954D01*
X63773542Y-19181874D01*
X63775421Y-19185207D01*
X63901039Y-19337900D01*
X64051352Y-19466355D01*
X64221758Y-19566639D01*
X64407036Y-19635680D01*
X64407044Y-19635681D01*
X64407046Y-19635682D01*
X64529361Y-19658125D01*
X64601514Y-19671364D01*
X64794258Y-19672567D01*
X64799230Y-19672599D01*
X64799230Y-19672598D01*
X64799234Y-19672599D01*
X64994142Y-19639345D01*
X65180268Y-19572622D01*
X65351912Y-19474474D01*
X65503818Y-19347905D01*
X65631332Y-19196793D01*
X65631334Y-19196788D01*
X65631336Y-19196787D01*
X65657899Y-19150998D01*
X69121594Y-19150998D01*
X69142678Y-19284123D01*
X69203869Y-19404218D01*
X69299177Y-19499526D01*
X69419272Y-19560717D01*
X69552398Y-19581802D01*
X69685524Y-19560717D01*
X69805618Y-19499526D01*
X69805619Y-19499526D01*
X69900926Y-19404219D01*
X69900926Y-19404218D01*
X69919885Y-19367009D01*
X69962117Y-19284124D01*
X69983202Y-19150998D01*
X69962117Y-19017872D01*
X69918339Y-18931952D01*
X69900926Y-18897777D01*
X69809800Y-18806651D01*
X70499250Y-18806651D01*
X70519095Y-18931952D01*
X70519095Y-18931953D01*
X70519096Y-18931955D01*
X70568901Y-19029702D01*
X70576694Y-19044996D01*
X70666396Y-19134698D01*
X70666398Y-19134699D01*
X70666400Y-19134701D01*
X70779438Y-19192297D01*
X70904742Y-19212143D01*
X71030046Y-19192297D01*
X71143084Y-19134701D01*
X71232792Y-19044993D01*
X71290388Y-18931955D01*
X71310234Y-18806651D01*
X72327417Y-18806651D01*
X72347262Y-18931952D01*
X72347262Y-18931953D01*
X72347263Y-18931955D01*
X72397068Y-19029702D01*
X72404861Y-19044996D01*
X72494563Y-19134698D01*
X72494565Y-19134699D01*
X72494567Y-19134701D01*
X72607605Y-19192297D01*
X72732909Y-19212143D01*
X72858213Y-19192297D01*
X72946532Y-19147295D01*
X72993453Y-19143603D01*
X73029246Y-19174172D01*
X73034727Y-19208766D01*
X73034893Y-19208766D01*
X73034893Y-19209812D01*
X73035193Y-19211706D01*
X73034893Y-19213601D01*
X73034893Y-19213605D01*
X73054738Y-19338907D01*
X73054738Y-19338908D01*
X73054739Y-19338910D01*
X73112335Y-19451948D01*
X73112337Y-19451951D01*
X73202039Y-19541653D01*
X73202041Y-19541654D01*
X73202043Y-19541656D01*
X73315081Y-19599252D01*
X73440385Y-19619098D01*
X73565689Y-19599252D01*
X73678727Y-19541656D01*
X73768435Y-19451948D01*
X73826031Y-19338910D01*
X73845877Y-19213606D01*
X73826031Y-19088302D01*
X73768435Y-18975264D01*
X73768433Y-18975262D01*
X73768432Y-18975260D01*
X73678730Y-18885558D01*
X73678727Y-18885556D01*
X73565689Y-18827960D01*
X73565687Y-18827959D01*
X73565686Y-18827959D01*
X73440385Y-18808114D01*
X73315081Y-18827959D01*
X73226764Y-18872960D01*
X73179840Y-18876653D01*
X73144047Y-18846083D01*
X73138569Y-18811491D01*
X73138401Y-18811491D01*
X73138401Y-18810428D01*
X73138102Y-18808540D01*
X73138401Y-18806652D01*
X73138401Y-18806651D01*
X73124959Y-18721779D01*
X73118555Y-18681347D01*
X73060959Y-18568309D01*
X73060957Y-18568307D01*
X73060956Y-18568305D01*
X72971254Y-18478603D01*
X72971251Y-18478601D01*
X72858213Y-18421005D01*
X72858211Y-18421004D01*
X72858210Y-18421004D01*
X72732909Y-18401159D01*
X72607607Y-18421004D01*
X72494563Y-18478603D01*
X72404861Y-18568305D01*
X72347262Y-18681349D01*
X72327417Y-18806651D01*
X71310234Y-18806651D01*
X71290388Y-18681347D01*
X71232792Y-18568309D01*
X71232790Y-18568307D01*
X71232789Y-18568305D01*
X71143087Y-18478603D01*
X71143084Y-18478601D01*
X71030046Y-18421005D01*
X71030044Y-18421004D01*
X71030043Y-18421004D01*
X70904742Y-18401159D01*
X70779440Y-18421004D01*
X70666396Y-18478603D01*
X70576694Y-18568305D01*
X70519095Y-18681349D01*
X70499250Y-18806651D01*
X69809800Y-18806651D01*
X69805618Y-18802469D01*
X69758734Y-18778581D01*
X69728164Y-18742789D01*
X69731857Y-18695864D01*
X69758734Y-18668987D01*
X69776924Y-18659719D01*
X69824401Y-18635528D01*
X69824402Y-18635528D01*
X69919709Y-18540221D01*
X69919709Y-18540220D01*
X69921585Y-18536539D01*
X69980900Y-18420126D01*
X70001985Y-18287000D01*
X69980900Y-18153874D01*
X69962048Y-18116874D01*
X69919709Y-18033779D01*
X69824401Y-17938471D01*
X69704306Y-17877280D01*
X69571181Y-17856196D01*
X69438055Y-17877280D01*
X69317960Y-17938471D01*
X69317960Y-17938472D01*
X69222653Y-18033779D01*
X69222652Y-18033779D01*
X69161461Y-18153874D01*
X69140377Y-18287000D01*
X69161461Y-18420125D01*
X69222652Y-18540220D01*
X69317960Y-18635528D01*
X69364844Y-18659416D01*
X69395414Y-18695208D01*
X69391721Y-18742133D01*
X69364845Y-18769010D01*
X69299176Y-18802470D01*
X69203870Y-18897777D01*
X69203869Y-18897777D01*
X69142678Y-19017872D01*
X69121594Y-19150998D01*
X65657899Y-19150998D01*
X65711777Y-19058126D01*
X65730551Y-19025765D01*
X65798434Y-18840059D01*
X65832903Y-18645362D01*
X65832924Y-18582866D01*
X65832938Y-18582747D01*
X65832938Y-15363308D01*
X65833070Y-15359286D01*
X65834900Y-15331364D01*
X65848496Y-15123913D01*
X65849545Y-15115950D01*
X65895171Y-14886574D01*
X65897252Y-14878809D01*
X65923101Y-14802661D01*
X65972424Y-14657358D01*
X65975497Y-14649938D01*
X66078945Y-14440165D01*
X66082951Y-14433228D01*
X66212890Y-14238760D01*
X66217772Y-14232398D01*
X66371981Y-14056556D01*
X66377656Y-14050881D01*
X66553498Y-13896672D01*
X66559860Y-13891790D01*
X66754328Y-13761851D01*
X66761270Y-13757843D01*
X66971038Y-13654397D01*
X66978458Y-13651324D01*
X67199909Y-13576151D01*
X67207674Y-13574071D01*
X67437050Y-13528445D01*
X67445013Y-13527396D01*
X67680385Y-13511969D01*
X67684406Y-13511838D01*
X69494397Y-13511838D01*
X69537882Y-13529851D01*
G37*
%TD.AperFunction*%
%TD*%
M02*
