M48
; DRILL file {KiCad 9.0.3} date 2025-09-23T13:35:12-0700
; FORMAT={-:-/ absolute / metric / decimal}
; #@! TF.CreationDate,2025-09-23T13:35:12-07:00
; #@! TF.GenerationSoftware,Kicad,Pcbnew,9.0.3
; #@! TF.FileFunction,Plated,1,4,PTH
FMAT,2
METRIC
; #@! TA.AperFunction,Plated,PTH,ViaDrill
T1C0.300
; #@! TA.AperFunction,Plated,PTH,ComponentDrill
T2C0.500
; #@! TA.AperFunction,Plated,PTH,ComponentDrill
T3C0.800
; #@! TA.AperFunction,Plated,PTH,ComponentDrill
T4C1.000
%
G90
G05
T1
X22.475Y-61.5
X25.85Y-66.275
X26.875Y-60.625
X28.125Y-66.2
X28.925Y-54.875
X29.5Y-60.8
X30.525Y-59.525
X32.007Y-66.683
X32.95Y-54.25
X33.225Y-65.175
X34.975Y-57.65
X36.25Y-59.975
X36.636Y-56.219
X36.675Y-53.825
X37.7Y-63.475
X38.125Y-61.8
X38.275Y-53.25
X39.9Y-55.275
X40.4Y-51.0
X42.7Y-56.95
X44.1Y-67.275
X44.92Y-59.39
X46.425Y-52.95
X46.725Y-58.675
X47.49Y-61.61
X47.952Y-45.722
X48.9Y-59.125
X49.03Y-45.75
X49.65Y-53.175
X49.651Y-64.113
X49.74Y-54.91
X51.25Y-58.42
X52.125Y-17.625
X52.45Y-32.4
X52.8Y-55.45
X53.2Y-48.375
X54.075Y-60.175
X54.65Y-64.225
X55.0Y-62.825
X55.525Y-41.275
X55.675Y-48.95
X55.725Y-14.775
X55.85Y-28.75
X56.075Y-55.175
X56.175Y-34.225
X56.6Y-19.525
X57.35Y-18.975
X57.537Y-27.896
X58.379Y-18.599
X58.45Y-27.95
X58.874Y-39.185
X59.406Y-30.867
X59.411Y-29.99
X59.55Y-14.925
X60.25Y-31.9
X60.307Y-30.986
X60.32Y-32.782
X60.992Y-33.487
X61.025Y-34.45
X61.025Y-36.6
X61.05Y-16.425
X62.225Y-41.95
X62.33Y-53.15
X62.525Y-45.475
X64.25Y-30.95
X65.867Y-30.098
X66.214Y-45.602
X67.175Y-45.03
X67.375Y-17.875
X67.725Y-65.075
X68.267Y-55.086
X68.547Y-22.734
X69.12Y-34.52
X69.225Y-28.5
X69.355Y-24.974
X69.372Y-48.897
X69.552Y-19.151
X69.565Y-33.184
X69.571Y-18.287
X69.664Y-31.984
X70.1Y-24.55
X70.615Y-23.793
X70.8Y-29.85
X70.905Y-18.807
X71.475Y-24.15
X71.975Y-28.952
X72.069Y-52.778
X72.077Y-33.72
X72.506Y-25.231
X72.733Y-18.807
X73.025Y-72.8
X73.286Y-20.063
X73.44Y-19.214
X73.479Y-35.199
X73.862Y-21.346
X74.037Y-20.376
X74.387Y-52.455
X75.046Y-30.46
X75.175Y-17.775
X75.25Y-52.825
X75.346Y-22.258
X75.993Y-24.656
X76.251Y-52.816
X76.579Y-32.189
X76.639Y-27.253
X77.85Y-24.6
X78.55Y-23.925
X79.1Y-23.25
X79.3Y-16.575
X79.3Y-25.45
X79.3Y-26.85
X79.45Y-22.45
X80.65Y-18.25
X81.365Y-14.754
X81.725Y-30.825
X81.775Y-30.025
X81.825Y-29.225
X82.598Y-20.81
X82.875Y-24.425
X83.1Y-27.7
X83.4Y-20.461
X83.9Y-18.925
X84.025Y-27.7
X84.1Y-21.65
X84.15Y-22.55
X85.425Y-15.075
X85.975Y-19.975
X86.075Y-34.8
X86.222Y-36.115
X86.669Y-36.93
X86.7Y-35.425
X86.792Y-34.163
X87.5Y-33.675
X87.65Y-32.8
X87.775Y-31.175
X88.375Y-32.4
X88.875Y-31.775
X94.275Y-38.45
X94.275Y-39.375
X94.325Y-37.575
X94.425Y-36.425
X94.5Y-35.4
X96.175Y-42.175
X96.8Y-28.4
X98.25Y-41.075
X98.52Y-43.3
X100.225Y-30.575
X101.274Y-43.099
X101.525Y-33.275
X105.15Y-38.975
X105.2Y-32.675
X105.825Y-39.575
X106.05Y-32.65
X106.475Y-26.975
X106.475Y-27.85
X107.875Y-28.025
X109.325Y-66.0
X109.84Y-21.35
X110.03Y-41.65
X110.125Y-31.075
X110.15Y-51.625
X110.8Y-68.225
X112.075Y-33.15
X112.225Y-66.15
X113.375Y-22.875
X113.375Y-43.4
X113.375Y-52.725
X113.42Y-65.375
X114.5Y-67.475
X117.125Y-31.9
X118.11Y-49.657
X118.575Y-45.9
X119.15Y-47.15
X119.85Y-43.45
X122.05Y-31.95
X122.075Y-41.275
X125.275Y-33.075
X125.32Y-43.18
T2
X24.8Y-58.1
X26.875Y-58.1
X118.925Y-58.375
X118.925Y-60.45
T3
X67.88Y-14.75
X69.88Y-14.75
X71.88Y-14.75
X73.88Y-14.75
T4
X24.406Y-62.529
X29.406Y-62.529
X99.853Y-34.717
X99.853Y-39.717
X111.753Y-24.429
X111.753Y-29.429
X111.753Y-45.004
X111.753Y-50.004
X112.162Y-62.529
X117.162Y-62.529
X123.653Y-34.717
X123.653Y-39.717
M30
