%TF.GenerationSoftware,KiCad,Pcbnew,10.0.5*%
%TF.CreationDate,2026-09-21T19:13:41-07:00*%
%TF.ProjectId,FPC_Trigger_Board,4650435f-5472-4696-9767-65725f426f61,rev?*%
%TF.SameCoordinates,Original*%
%TF.FileFunction,Profile,NP*%
%FSLAX46Y46*%
G04 Gerber Fmt 4.6, Leading zero omitted, Abs format (unit mm)*
G04 Created by KiCad (PCBNEW 10.0.5) date 2026-09-21 19:13:41*
%MOMM*%
%LPD*%
G01*
G04 APERTURE LIST*
%TA.AperFunction,Profile*%
%ADD10C,0.010000*%
%TD*%
%ADD11C,0.010000*%
%TA.AperFunction,Profile*%
%ADD12C,0.010050*%
%TD*%
%TA.AperFunction,Profile*%
%ADD13C,0.050000*%
%TD*%
G04 APERTURE END LIST*
D10*
X198450000Y-151025000D02*
X198450000Y-155525000D01*
X198450000Y-155525000D02*
X198450000Y-158600000D01*
X201450000Y-155524988D02*
X226958012Y-155524922D01*
X201450000Y-158600000D02*
X201450000Y-155524988D01*
X226957978Y-142750922D02*
X226958000Y-151024922D01*
X226957978Y-142750922D02*
G75*
G02*
X227940525Y-141751031I1000022J22D01*
G01*
X226958000Y-151024922D02*
X198450000Y-151025000D01*
X226958012Y-155524922D02*
X226958031Y-162449027D01*
X227616927Y-162394755D02*
X226958031Y-162449027D01*
D11*
X227805455Y-162340594D02*
X227799784Y-162343466D01*
X227794077Y-162346266D01*
X227788335Y-162348994D01*
X227782559Y-162351650D01*
X227776750Y-162354233D01*
X227770909Y-162356743D01*
X227765037Y-162359180D01*
X227759134Y-162361542D01*
X227753202Y-162363830D01*
X227747241Y-162366043D01*
X227741253Y-162368181D01*
X227735239Y-162370244D01*
X227729198Y-162372231D01*
X227723133Y-162374142D01*
X227717045Y-162375976D01*
X227710933Y-162377734D01*
X227707869Y-162378584D01*
X227704800Y-162379415D01*
X227701725Y-162380226D01*
X227698646Y-162381018D01*
X227695561Y-162381791D01*
X227692472Y-162382544D01*
X227689378Y-162383278D01*
X227686279Y-162383992D01*
X227683177Y-162384687D01*
X227680069Y-162385362D01*
X227676958Y-162386018D01*
X227673842Y-162386654D01*
X227670722Y-162387271D01*
X227667599Y-162387868D01*
X227664472Y-162388445D01*
X227661341Y-162389003D01*
X227658207Y-162389541D01*
X227655069Y-162390059D01*
X227651929Y-162390557D01*
X227648784Y-162391036D01*
X227645638Y-162391495D01*
X227642488Y-162391934D01*
X227639336Y-162392353D01*
X227636180Y-162392753D01*
X227633023Y-162393132D01*
X227629863Y-162393492D01*
X227626701Y-162393832D01*
X227623537Y-162394152D01*
X227620371Y-162394452D01*
X227617202Y-162394732D01*
X227616927Y-162394755D01*
X227958797Y-162219174D02*
X227954641Y-162223984D01*
X227950424Y-162228741D01*
X227946148Y-162233445D01*
X227941813Y-162238095D01*
X227937419Y-162242690D01*
X227932968Y-162247230D01*
X227928461Y-162251713D01*
X227923897Y-162256140D01*
X227919277Y-162260509D01*
X227914603Y-162264819D01*
X227909875Y-162269071D01*
X227905094Y-162273262D01*
X227900260Y-162277394D01*
X227895375Y-162281464D01*
X227890439Y-162285473D01*
X227885452Y-162289419D01*
X227882940Y-162291368D01*
X227880416Y-162293302D01*
X227877880Y-162295220D01*
X227875332Y-162297122D01*
X227872772Y-162299008D01*
X227870200Y-162300878D01*
X227867616Y-162302731D01*
X227865021Y-162304568D01*
X227862414Y-162306389D01*
X227859796Y-162308194D01*
X227857166Y-162309982D01*
X227854525Y-162311753D01*
X227851873Y-162313508D01*
X227849210Y-162315246D01*
X227846537Y-162316967D01*
X227843852Y-162318672D01*
X227841157Y-162320359D01*
X227838451Y-162322030D01*
X227835735Y-162323683D01*
X227833008Y-162325320D01*
X227830271Y-162326939D01*
X227827523Y-162328541D01*
X227824767Y-162330125D01*
X227821999Y-162331693D01*
X227819222Y-162333242D01*
X227816435Y-162334775D01*
X227813639Y-162336290D01*
X227810833Y-162337787D01*
X227805455Y-162340594D01*
X228054561Y-162048629D02*
X228052542Y-162054657D01*
X228050447Y-162060658D01*
X228048277Y-162066634D01*
X228046032Y-162072581D01*
X228043712Y-162078500D01*
X228041318Y-162084389D01*
X228038850Y-162090248D01*
X228036309Y-162096076D01*
X228033694Y-162101871D01*
X228031006Y-162107633D01*
X228028246Y-162113361D01*
X228025415Y-162119054D01*
X228022511Y-162124711D01*
X228019537Y-162130331D01*
X228016492Y-162135914D01*
X228013377Y-162141458D01*
X228011794Y-162144215D01*
X228010193Y-162146962D01*
X228008575Y-162149699D01*
X228006939Y-162152426D01*
X228005287Y-162155143D01*
X228003617Y-162157849D01*
X228001931Y-162160544D01*
X228000227Y-162163230D01*
X227998507Y-162165904D01*
X227996770Y-162168567D01*
X227995016Y-162171219D01*
X227993245Y-162173861D01*
X227991458Y-162176491D01*
X227989654Y-162179110D01*
X227987834Y-162181717D01*
X227985998Y-162184314D01*
X227984145Y-162186898D01*
X227982276Y-162189471D01*
X227980391Y-162192032D01*
X227978489Y-162194581D01*
X227976572Y-162197118D01*
X227974639Y-162199643D01*
X227972690Y-162202155D01*
X227970725Y-162204656D01*
X227968744Y-162207144D01*
X227966748Y-162209620D01*
X227964736Y-162212083D01*
X227962708Y-162214534D01*
X227958797Y-162219174D01*
D10*
X228054561Y-162048629D02*
G75*
G02*
X230127610Y-161805751I1092739J-358371D01*
G01*
X231039067Y-161703203D02*
G75*
G02*
X230127579Y-161805770I-479767J162203D01*
G01*
X231039067Y-161703203D02*
G75*
G02*
X233108359Y-161469555I1089433J-368397D01*
G01*
X232954492Y-141663553D02*
X227940526Y-141751072D01*
X232954492Y-141663553D02*
G75*
G02*
X233971710Y-142644002I17408J-999847D01*
G01*
D11*
X233244911Y-161616303D02*
X233239758Y-161612556D01*
X233234653Y-161608745D01*
X233229595Y-161604870D01*
X233224587Y-161600932D01*
X233219628Y-161596931D01*
X233214720Y-161592868D01*
X233209863Y-161588744D01*
X233205058Y-161584559D01*
X233200306Y-161580314D01*
X233195608Y-161576010D01*
X233190963Y-161571646D01*
X233186374Y-161567225D01*
X233181840Y-161562746D01*
X233177363Y-161558211D01*
X233172943Y-161553620D01*
X233168581Y-161548973D01*
X233166422Y-161546629D01*
X233164277Y-161544272D01*
X233162148Y-161541901D01*
X233160033Y-161539517D01*
X233157934Y-161537120D01*
X233155849Y-161534710D01*
X233153780Y-161532286D01*
X233151725Y-161529850D01*
X233149686Y-161527401D01*
X233147663Y-161524939D01*
X233145655Y-161522464D01*
X233143662Y-161519977D01*
X233141686Y-161517477D01*
X233139725Y-161514965D01*
X233137779Y-161512440D01*
X233135850Y-161509904D01*
X233133937Y-161507355D01*
X233132039Y-161504794D01*
X233130158Y-161502222D01*
X233128293Y-161499638D01*
X233126444Y-161497042D01*
X233124611Y-161494434D01*
X233122795Y-161491815D01*
X233120995Y-161489185D01*
X233119212Y-161486543D01*
X233117445Y-161483890D01*
X233115696Y-161481227D01*
X233113962Y-161478552D01*
X233112246Y-161475866D01*
X233110546Y-161473169D01*
X233108320Y-161469579D01*
X233423676Y-161697794D02*
X233417486Y-161696284D01*
X233411316Y-161694696D01*
X233405166Y-161693032D01*
X233399038Y-161691290D01*
X233392931Y-161689471D01*
X233386848Y-161687576D01*
X233380789Y-161685604D01*
X233374755Y-161683557D01*
X233368747Y-161681433D01*
X233362766Y-161679235D01*
X233356812Y-161676962D01*
X233350888Y-161674614D01*
X233344993Y-161672192D01*
X233339130Y-161669695D01*
X233333297Y-161667126D01*
X233327498Y-161664483D01*
X233324610Y-161663135D01*
X233321732Y-161661768D01*
X233318862Y-161660383D01*
X233316000Y-161658981D01*
X233313147Y-161657560D01*
X233310304Y-161656122D01*
X233307469Y-161654665D01*
X233304644Y-161653191D01*
X233301828Y-161651699D01*
X233299021Y-161650190D01*
X233296224Y-161648663D01*
X233293436Y-161647118D01*
X233290658Y-161645556D01*
X233287890Y-161643976D01*
X233285132Y-161642379D01*
X233282384Y-161640765D01*
X233279647Y-161639134D01*
X233276919Y-161637485D01*
X233274202Y-161635820D01*
X233271495Y-161634137D01*
X233268799Y-161632437D01*
X233266114Y-161630720D01*
X233263439Y-161628987D01*
X233260775Y-161627237D01*
X233258123Y-161625470D01*
X233255481Y-161623686D01*
X233252851Y-161621886D01*
X233250232Y-161620070D01*
X233247625Y-161618237D01*
X233245029Y-161616387D01*
X233244911Y-161616303D01*
X233619995Y-161705315D02*
X233613696Y-161706268D01*
X233607385Y-161707142D01*
X233601063Y-161707937D01*
X233594732Y-161708652D01*
X233588392Y-161709288D01*
X233582045Y-161709844D01*
X233575691Y-161710320D01*
X233569332Y-161710717D01*
X233562967Y-161711034D01*
X233556599Y-161711271D01*
X233550229Y-161711428D01*
X233543857Y-161711505D01*
X233537484Y-161711502D01*
X233531112Y-161711419D01*
X233524741Y-161711256D01*
X233518372Y-161711013D01*
X233515189Y-161710862D01*
X233512007Y-161710690D01*
X233508826Y-161710499D01*
X233505646Y-161710287D01*
X233502468Y-161710056D01*
X233499291Y-161709805D01*
X233496116Y-161709534D01*
X233492942Y-161709243D01*
X233489771Y-161708932D01*
X233486601Y-161708601D01*
X233483433Y-161708250D01*
X233480268Y-161707879D01*
X233477105Y-161707489D01*
X233473945Y-161707078D01*
X233470787Y-161706648D01*
X233467632Y-161706198D01*
X233464480Y-161705728D01*
X233461330Y-161705239D01*
X233458185Y-161704729D01*
X233455042Y-161704200D01*
X233451902Y-161703651D01*
X233448766Y-161703083D01*
X233445634Y-161702495D01*
X233442505Y-161701887D01*
X233439381Y-161701259D01*
X233436259Y-161700612D01*
X233433143Y-161699945D01*
X233430030Y-161699259D01*
X233426922Y-161698553D01*
X233423817Y-161697828D01*
X233423676Y-161697794D01*
D10*
X234040584Y-146191359D02*
X233971756Y-142644001D01*
X234074611Y-147945060D02*
X234273332Y-158186973D01*
X234100929Y-161626940D02*
X233619995Y-161705315D01*
X234273332Y-158186973D02*
X235810705Y-158186973D01*
X234316551Y-161590049D02*
X234100929Y-161626940D01*
X234339284Y-161586093D02*
X234309487Y-160050372D01*
X234339284Y-161586093D02*
X234316551Y-161590049D01*
X235810705Y-146157013D02*
X234040584Y-146191359D01*
X235810705Y-146157013D02*
X237580826Y-146191359D01*
X235810705Y-147945060D02*
X234074611Y-147945060D01*
D12*
X235815730Y-152941638D02*
G75*
G02*
X235805680Y-152941638I-5025J0D01*
G01*
X235805680Y-152941638D02*
G75*
G02*
X235815730Y-152941638I5025J0D01*
G01*
D10*
X235810705Y-158186973D02*
X237348078Y-158186973D01*
X235810705Y-160050372D02*
X234309487Y-160050372D01*
X235810705Y-160050372D02*
X237311923Y-160050372D01*
X237282126Y-161586093D02*
X237304859Y-161590049D01*
X237282126Y-161586093D02*
X237311923Y-160050372D01*
X237304859Y-161590049D02*
X237520481Y-161626940D01*
X237348078Y-158186973D02*
X237546799Y-147945060D01*
X237520481Y-161626940D02*
X238001415Y-161705315D01*
X237546799Y-147945060D02*
X235810705Y-147945060D01*
X237580826Y-146191359D02*
X237649654Y-142644001D01*
X237649654Y-142644001D02*
G75*
G02*
X238666919Y-141663518I999846J-19399D01*
G01*
D11*
X238001415Y-161705315D02*
X238007714Y-161706268D01*
X238014025Y-161707142D01*
X238020347Y-161707937D01*
X238026678Y-161708652D01*
X238033018Y-161709288D01*
X238039365Y-161709844D01*
X238045719Y-161710320D01*
X238052078Y-161710717D01*
X238058443Y-161711034D01*
X238064811Y-161711271D01*
X238071181Y-161711428D01*
X238077553Y-161711505D01*
X238083926Y-161711502D01*
X238090298Y-161711419D01*
X238096669Y-161711256D01*
X238103038Y-161711013D01*
X238106221Y-161710862D01*
X238109403Y-161710690D01*
X238112584Y-161710499D01*
X238115764Y-161710287D01*
X238118942Y-161710056D01*
X238122119Y-161709805D01*
X238125294Y-161709534D01*
X238128468Y-161709243D01*
X238131639Y-161708932D01*
X238134809Y-161708601D01*
X238137977Y-161708250D01*
X238141142Y-161707879D01*
X238144305Y-161707489D01*
X238147465Y-161707078D01*
X238150623Y-161706648D01*
X238153778Y-161706198D01*
X238156930Y-161705728D01*
X238160080Y-161705239D01*
X238163225Y-161704729D01*
X238166369Y-161704200D01*
X238169508Y-161703651D01*
X238172644Y-161703083D01*
X238175776Y-161702495D01*
X238178905Y-161701887D01*
X238182029Y-161701259D01*
X238185151Y-161700612D01*
X238188267Y-161699945D01*
X238191380Y-161699259D01*
X238194488Y-161698553D01*
X238197592Y-161697828D01*
X238197734Y-161697794D01*
X238197734Y-161697794D02*
X238203924Y-161696284D01*
X238210094Y-161694696D01*
X238216244Y-161693032D01*
X238222372Y-161691290D01*
X238228479Y-161689471D01*
X238234562Y-161687576D01*
X238240621Y-161685604D01*
X238246655Y-161683557D01*
X238252663Y-161681433D01*
X238258644Y-161679235D01*
X238264598Y-161676962D01*
X238270522Y-161674614D01*
X238276417Y-161672192D01*
X238282280Y-161669695D01*
X238288113Y-161667126D01*
X238293912Y-161664483D01*
X238296800Y-161663135D01*
X238299678Y-161661768D01*
X238302548Y-161660383D01*
X238305410Y-161658981D01*
X238308263Y-161657560D01*
X238311106Y-161656122D01*
X238313941Y-161654665D01*
X238316766Y-161653191D01*
X238319582Y-161651699D01*
X238322389Y-161650190D01*
X238325186Y-161648663D01*
X238327974Y-161647118D01*
X238330752Y-161645556D01*
X238333520Y-161643976D01*
X238336278Y-161642379D01*
X238339026Y-161640765D01*
X238341763Y-161639134D01*
X238344491Y-161637485D01*
X238347208Y-161635820D01*
X238349915Y-161634137D01*
X238352611Y-161632437D01*
X238355296Y-161630720D01*
X238357971Y-161628987D01*
X238360635Y-161627237D01*
X238363287Y-161625470D01*
X238365929Y-161623686D01*
X238368559Y-161621887D01*
X238371178Y-161620070D01*
X238373785Y-161618237D01*
X238376381Y-161616388D01*
X238376499Y-161616303D01*
X238376499Y-161616303D02*
X238381652Y-161612556D01*
X238386757Y-161608745D01*
X238391815Y-161604870D01*
X238396823Y-161600932D01*
X238401782Y-161596931D01*
X238406690Y-161592868D01*
X238411547Y-161588744D01*
X238416352Y-161584559D01*
X238421104Y-161580314D01*
X238425802Y-161576010D01*
X238430447Y-161571646D01*
X238435036Y-161567225D01*
X238439570Y-161562746D01*
X238444047Y-161558211D01*
X238448467Y-161553620D01*
X238452829Y-161548973D01*
X238454988Y-161546629D01*
X238457133Y-161544272D01*
X238459262Y-161541901D01*
X238461377Y-161539517D01*
X238463476Y-161537120D01*
X238465561Y-161534710D01*
X238467630Y-161532286D01*
X238469685Y-161529850D01*
X238471724Y-161527401D01*
X238473747Y-161524939D01*
X238475755Y-161522464D01*
X238477748Y-161519977D01*
X238479724Y-161517477D01*
X238481685Y-161514965D01*
X238483631Y-161512440D01*
X238485560Y-161509904D01*
X238487473Y-161507355D01*
X238489371Y-161504794D01*
X238491252Y-161502222D01*
X238493117Y-161499638D01*
X238494966Y-161497042D01*
X238496799Y-161494434D01*
X238498615Y-161491815D01*
X238500415Y-161489185D01*
X238502198Y-161486543D01*
X238503965Y-161483890D01*
X238505714Y-161481227D01*
X238507448Y-161478552D01*
X238509164Y-161475866D01*
X238510864Y-161473169D01*
X238513090Y-161469579D01*
D10*
X238513090Y-161469579D02*
G75*
G02*
X240582283Y-161703223I979810J-602021D01*
G01*
X238666918Y-141663553D02*
X243680884Y-141751072D01*
X241493827Y-161805767D02*
G75*
G02*
X240582331Y-161703207I-431727J264767D01*
G01*
X241493827Y-161805767D02*
G75*
G02*
X243566802Y-162048644I980273J-601233D01*
G01*
D11*
X243566849Y-162048629D02*
X243568868Y-162054657D01*
X243570963Y-162060658D01*
X243573133Y-162066634D01*
X243575378Y-162072581D01*
X243577698Y-162078500D01*
X243580092Y-162084389D01*
X243582560Y-162090248D01*
X243585101Y-162096076D01*
X243587716Y-162101871D01*
X243590404Y-162107633D01*
X243593164Y-162113361D01*
X243595995Y-162119054D01*
X243598899Y-162124711D01*
X243601873Y-162130331D01*
X243604918Y-162135914D01*
X243608033Y-162141458D01*
X243609616Y-162144215D01*
X243611217Y-162146962D01*
X243612835Y-162149699D01*
X243614471Y-162152426D01*
X243616123Y-162155143D01*
X243617793Y-162157849D01*
X243619479Y-162160544D01*
X243621183Y-162163230D01*
X243622903Y-162165904D01*
X243624640Y-162168567D01*
X243626394Y-162171219D01*
X243628165Y-162173861D01*
X243629952Y-162176491D01*
X243631756Y-162179110D01*
X243633576Y-162181717D01*
X243635412Y-162184314D01*
X243637265Y-162186898D01*
X243639134Y-162189471D01*
X243641019Y-162192032D01*
X243642921Y-162194581D01*
X243644838Y-162197118D01*
X243646771Y-162199643D01*
X243648720Y-162202155D01*
X243650685Y-162204656D01*
X243652666Y-162207144D01*
X243654662Y-162209620D01*
X243656674Y-162212083D01*
X243658702Y-162214534D01*
X243662613Y-162219174D01*
X243662613Y-162219174D02*
X243666769Y-162223984D01*
X243670986Y-162228741D01*
X243675262Y-162233445D01*
X243679597Y-162238095D01*
X243683991Y-162242690D01*
X243688442Y-162247230D01*
X243692949Y-162251713D01*
X243697513Y-162256140D01*
X243702133Y-162260509D01*
X243706807Y-162264819D01*
X243711535Y-162269071D01*
X243716316Y-162273262D01*
X243721150Y-162277394D01*
X243726035Y-162281464D01*
X243730971Y-162285473D01*
X243735958Y-162289419D01*
X243738470Y-162291368D01*
X243740994Y-162293302D01*
X243743530Y-162295220D01*
X243746078Y-162297122D01*
X243748638Y-162299008D01*
X243751210Y-162300878D01*
X243753794Y-162302731D01*
X243756389Y-162304568D01*
X243758996Y-162306389D01*
X243761614Y-162308194D01*
X243764244Y-162309982D01*
X243766885Y-162311753D01*
X243769537Y-162313508D01*
X243772200Y-162315246D01*
X243774873Y-162316967D01*
X243777558Y-162318672D01*
X243780253Y-162320359D01*
X243782959Y-162322030D01*
X243785675Y-162323683D01*
X243788402Y-162325320D01*
X243791139Y-162326939D01*
X243793887Y-162328541D01*
X243796643Y-162330125D01*
X243799411Y-162331693D01*
X243802188Y-162333242D01*
X243804975Y-162334775D01*
X243807771Y-162336290D01*
X243810577Y-162337787D01*
X243815955Y-162340594D01*
D10*
X243680884Y-141751072D02*
G75*
G02*
X244663381Y-142750922I-17484J-999828D01*
G01*
D11*
X243815955Y-162340594D02*
X243821626Y-162343466D01*
X243827333Y-162346266D01*
X243833075Y-162348994D01*
X243838851Y-162351650D01*
X243844660Y-162354233D01*
X243850501Y-162356743D01*
X243856373Y-162359180D01*
X243862276Y-162361542D01*
X243868208Y-162363830D01*
X243874169Y-162366043D01*
X243880157Y-162368181D01*
X243886171Y-162370244D01*
X243892212Y-162372231D01*
X243898277Y-162374142D01*
X243904365Y-162375976D01*
X243910477Y-162377734D01*
X243913541Y-162378584D01*
X243916610Y-162379415D01*
X243919685Y-162380226D01*
X243922764Y-162381018D01*
X243925849Y-162381791D01*
X243928938Y-162382544D01*
X243932032Y-162383278D01*
X243935131Y-162383992D01*
X243938233Y-162384687D01*
X243941341Y-162385362D01*
X243944452Y-162386018D01*
X243947568Y-162386654D01*
X243950688Y-162387271D01*
X243953811Y-162387868D01*
X243956938Y-162388445D01*
X243960069Y-162389003D01*
X243963203Y-162389541D01*
X243966341Y-162390059D01*
X243969481Y-162390557D01*
X243972626Y-162391036D01*
X243975772Y-162391495D01*
X243978922Y-162391934D01*
X243982074Y-162392353D01*
X243985230Y-162392753D01*
X243988387Y-162393132D01*
X243991547Y-162393492D01*
X243994709Y-162393832D01*
X243997873Y-162394152D01*
X244001039Y-162394451D01*
X244004208Y-162394732D01*
X244004483Y-162394755D01*
D10*
X244004483Y-162394755D02*
X244663379Y-162449027D01*
X244663398Y-155524922D02*
X244663379Y-162449027D01*
X244663410Y-151024922D02*
X273075000Y-151025000D01*
X244663432Y-142750922D02*
X244663410Y-151024922D01*
X270075000Y-155524988D02*
X244663398Y-155524922D01*
X270075000Y-158600000D02*
X270075000Y-155524988D01*
X273075000Y-151025000D02*
X273075000Y-155525000D01*
X273075000Y-155525000D02*
X273075000Y-158600000D01*
%TO.C,J2*%
D13*
X198450000Y-158600000D02*
X198450000Y-162400000D01*
X198650000Y-162600000D02*
X201250000Y-162600000D01*
X201450000Y-162400000D02*
X201450000Y-158600000D01*
X198650000Y-162600000D02*
G75*
G02*
X198450000Y-162400000I0J200000D01*
G01*
X201450000Y-162400000D02*
G75*
G02*
X201250000Y-162600000I-200000J0D01*
G01*
%TO.C,J1*%
X270075000Y-158600000D02*
X270075000Y-162400000D01*
X270275000Y-162600000D02*
X272875000Y-162600000D01*
X273075000Y-162400000D02*
X273075000Y-158600000D01*
X270275000Y-162600000D02*
G75*
G02*
X270075000Y-162400000I0J200000D01*
G01*
X273075000Y-162400000D02*
G75*
G02*
X272875000Y-162600000I-200000J0D01*
G01*
%TD*%
M02*
