%TF.GenerationSoftware,KiCad,Pcbnew,10.0.5*%
%TF.CreationDate,2026-09-21T19:13:41-07:00*%
%TF.ProjectId,FPC_Trigger_Board,4650435f-5472-4696-9767-65725f426f61,rev?*%
%TF.SameCoordinates,Original*%
%TF.FileFunction,Legend,Top*%
%TF.FilePolarity,Positive*%
%FSLAX46Y46*%
G04 Gerber Fmt 4.6, Leading zero omitted, Abs format (unit mm)*
G04 Created by KiCad (PCBNEW 10.0.5) date 2026-09-21 19:13:41*
%MOMM*%
%LPD*%
G01*
G04 APERTURE LIST*
%ADD10C,0.120000*%
%ADD11C,0.150000*%
%ADD12C,0.100000*%
G04 APERTURE END LIST*
D10*
X235800000Y-161605534D02*
X235800000Y-161581534D01*
X235800000Y-161101534D02*
X235800000Y-161077534D01*
X235800000Y-160597534D02*
X235800000Y-160573534D01*
X235800000Y-160093534D02*
X235800000Y-160069534D01*
X235800000Y-159589534D02*
X235800000Y-159565534D01*
X235800000Y-159085534D02*
X235800000Y-159061534D01*
X235800000Y-158581534D02*
X235800000Y-158557534D01*
X235800000Y-158077534D02*
X235800000Y-158053534D01*
X235800000Y-157573534D02*
X235800000Y-157549534D01*
X235800000Y-157069534D02*
X235800000Y-157045534D01*
X235800000Y-156565534D02*
X235800000Y-156541534D01*
X235800000Y-156061534D02*
X235800000Y-156037534D01*
X235800000Y-155557534D02*
X235800000Y-155533534D01*
X235800000Y-155053534D02*
X235800000Y-155029534D01*
X235800000Y-154549534D02*
X235800000Y-154525534D01*
X235800000Y-154045534D02*
X235800000Y-154021534D01*
X235800000Y-153541534D02*
X235800000Y-153517534D01*
X235800000Y-153037534D02*
X235800000Y-153013534D01*
X235800000Y-152533534D02*
X235800000Y-152509534D01*
X235800000Y-152029534D02*
X235800000Y-152005534D01*
X235800000Y-151525534D02*
X235800000Y-151501534D01*
X235800000Y-151021534D02*
X235800000Y-150997534D01*
X235800000Y-150517534D02*
X235800000Y-150493534D01*
X235800000Y-150013534D02*
X235800000Y-149989534D01*
X235800000Y-149509534D02*
X235800000Y-149485534D01*
X235800000Y-149005534D02*
X235800000Y-148981534D01*
X235800000Y-148501534D02*
X235800000Y-148477534D01*
X235800000Y-147997534D02*
X235800000Y-147973534D01*
X235800000Y-147493534D02*
X235800000Y-147469534D01*
X235800000Y-146989534D02*
X235800000Y-146965534D01*
X235800000Y-146485534D02*
X235800000Y-146461534D01*
X235800000Y-145981534D02*
X235800000Y-145957534D01*
X235800000Y-145477534D02*
X235800000Y-145453534D01*
X235800000Y-144973534D02*
X235800000Y-144949534D01*
X235800000Y-144469534D02*
X235800000Y-144445534D01*
X235800000Y-143965534D02*
X235800000Y-143941534D01*
X235800000Y-143461534D02*
X235800000Y-143437534D01*
X235800000Y-142957534D02*
X235800000Y-142933534D01*
X235800000Y-162358206D02*
X235800000Y-162334206D01*
X235800000Y-161854206D02*
X235800000Y-161830206D01*
X235800000Y-161350206D02*
X235800000Y-161326206D01*
X235800000Y-160846206D02*
X235800000Y-160822206D01*
X235800000Y-160342206D02*
X235800000Y-160318206D01*
X235800000Y-159838206D02*
X235800000Y-159814206D01*
X235800000Y-159334206D02*
X235800000Y-159310206D01*
X235800000Y-158830206D02*
X235800000Y-158806206D01*
X235800000Y-158326206D02*
X235800000Y-158302206D01*
X235800000Y-157822206D02*
X235800000Y-157798206D01*
X235800000Y-157318206D02*
X235800000Y-157294206D01*
X235800000Y-156814206D02*
X235800000Y-156790206D01*
X235800000Y-156310206D02*
X235800000Y-156286206D01*
X235800000Y-155806206D02*
X235800000Y-155782206D01*
X235800000Y-155302206D02*
X235800000Y-155278206D01*
X235800000Y-154798206D02*
X235800000Y-154774206D01*
X235800000Y-154294206D02*
X235800000Y-154270206D01*
X235800000Y-153790206D02*
X235800000Y-153766206D01*
X235800000Y-153286206D02*
X235800000Y-153262206D01*
X235800000Y-152782206D02*
X235800000Y-152758206D01*
X235800000Y-152278206D02*
X235800000Y-152254206D01*
X235800000Y-151774206D02*
X235800000Y-151750206D01*
X235800000Y-151270206D02*
X235800000Y-151246206D01*
X235800000Y-150766206D02*
X235800000Y-150742206D01*
X235800000Y-150262206D02*
X235800000Y-150238206D01*
X235800000Y-149758206D02*
X235800000Y-149734206D01*
X235800000Y-149254206D02*
X235800000Y-149230206D01*
X235800000Y-148750206D02*
X235800000Y-148726206D01*
X235800000Y-148246206D02*
X235800000Y-148222206D01*
X235800000Y-147742206D02*
X235800000Y-147718206D01*
X235800000Y-147238206D02*
X235800000Y-147214206D01*
X235800000Y-146734206D02*
X235800000Y-146710206D01*
X235800000Y-146230206D02*
X235800000Y-146206206D01*
X235800000Y-145726206D02*
X235800000Y-145702206D01*
X235800000Y-145222206D02*
X235800000Y-145198206D01*
X235800000Y-144718206D02*
X235800000Y-144694206D01*
X235800000Y-144214206D02*
X235800000Y-144190206D01*
X235800000Y-143710206D02*
X235800000Y-143686206D01*
X235800000Y-143206206D02*
X235800000Y-143182206D01*
X235800000Y-142702206D02*
X235800000Y-142678206D01*
X235800000Y-142198206D02*
X235800000Y-142174206D01*
D11*
X216133207Y-153894819D02*
X215799874Y-153418628D01*
X215561779Y-153894819D02*
X215561779Y-152894819D01*
X215561779Y-152894819D02*
X215942731Y-152894819D01*
X215942731Y-152894819D02*
X216037969Y-152942438D01*
X216037969Y-152942438D02*
X216085588Y-152990057D01*
X216085588Y-152990057D02*
X216133207Y-153085295D01*
X216133207Y-153085295D02*
X216133207Y-153228152D01*
X216133207Y-153228152D02*
X216085588Y-153323390D01*
X216085588Y-153323390D02*
X216037969Y-153371009D01*
X216037969Y-153371009D02*
X215942731Y-153418628D01*
X215942731Y-153418628D02*
X215561779Y-153418628D01*
X216561779Y-153894819D02*
X216561779Y-152894819D01*
X217561778Y-152942438D02*
X217466540Y-152894819D01*
X217466540Y-152894819D02*
X217323683Y-152894819D01*
X217323683Y-152894819D02*
X217180826Y-152942438D01*
X217180826Y-152942438D02*
X217085588Y-153037676D01*
X217085588Y-153037676D02*
X217037969Y-153132914D01*
X217037969Y-153132914D02*
X216990350Y-153323390D01*
X216990350Y-153323390D02*
X216990350Y-153466247D01*
X216990350Y-153466247D02*
X217037969Y-153656723D01*
X217037969Y-153656723D02*
X217085588Y-153751961D01*
X217085588Y-153751961D02*
X217180826Y-153847200D01*
X217180826Y-153847200D02*
X217323683Y-153894819D01*
X217323683Y-153894819D02*
X217418921Y-153894819D01*
X217418921Y-153894819D02*
X217561778Y-153847200D01*
X217561778Y-153847200D02*
X217609397Y-153799580D01*
X217609397Y-153799580D02*
X217609397Y-153466247D01*
X217609397Y-153466247D02*
X217418921Y-153466247D01*
X218037969Y-153894819D02*
X218037969Y-152894819D01*
X218037969Y-153371009D02*
X218609397Y-153371009D01*
X218609397Y-153894819D02*
X218609397Y-152894819D01*
X218942731Y-152894819D02*
X219514159Y-152894819D01*
X219228445Y-153894819D02*
X219228445Y-152894819D01*
X220466541Y-152894819D02*
X221037969Y-152894819D01*
X220752255Y-153894819D02*
X220752255Y-152894819D01*
X221942731Y-153894819D02*
X221609398Y-153418628D01*
X221371303Y-153894819D02*
X221371303Y-152894819D01*
X221371303Y-152894819D02*
X221752255Y-152894819D01*
X221752255Y-152894819D02*
X221847493Y-152942438D01*
X221847493Y-152942438D02*
X221895112Y-152990057D01*
X221895112Y-152990057D02*
X221942731Y-153085295D01*
X221942731Y-153085295D02*
X221942731Y-153228152D01*
X221942731Y-153228152D02*
X221895112Y-153323390D01*
X221895112Y-153323390D02*
X221847493Y-153371009D01*
X221847493Y-153371009D02*
X221752255Y-153418628D01*
X221752255Y-153418628D02*
X221371303Y-153418628D01*
X222371303Y-153894819D02*
X222371303Y-152894819D01*
X223371302Y-152942438D02*
X223276064Y-152894819D01*
X223276064Y-152894819D02*
X223133207Y-152894819D01*
X223133207Y-152894819D02*
X222990350Y-152942438D01*
X222990350Y-152942438D02*
X222895112Y-153037676D01*
X222895112Y-153037676D02*
X222847493Y-153132914D01*
X222847493Y-153132914D02*
X222799874Y-153323390D01*
X222799874Y-153323390D02*
X222799874Y-153466247D01*
X222799874Y-153466247D02*
X222847493Y-153656723D01*
X222847493Y-153656723D02*
X222895112Y-153751961D01*
X222895112Y-153751961D02*
X222990350Y-153847200D01*
X222990350Y-153847200D02*
X223133207Y-153894819D01*
X223133207Y-153894819D02*
X223228445Y-153894819D01*
X223228445Y-153894819D02*
X223371302Y-153847200D01*
X223371302Y-153847200D02*
X223418921Y-153799580D01*
X223418921Y-153799580D02*
X223418921Y-153466247D01*
X223418921Y-153466247D02*
X223228445Y-153466247D01*
X224371302Y-152942438D02*
X224276064Y-152894819D01*
X224276064Y-152894819D02*
X224133207Y-152894819D01*
X224133207Y-152894819D02*
X223990350Y-152942438D01*
X223990350Y-152942438D02*
X223895112Y-153037676D01*
X223895112Y-153037676D02*
X223847493Y-153132914D01*
X223847493Y-153132914D02*
X223799874Y-153323390D01*
X223799874Y-153323390D02*
X223799874Y-153466247D01*
X223799874Y-153466247D02*
X223847493Y-153656723D01*
X223847493Y-153656723D02*
X223895112Y-153751961D01*
X223895112Y-153751961D02*
X223990350Y-153847200D01*
X223990350Y-153847200D02*
X224133207Y-153894819D01*
X224133207Y-153894819D02*
X224228445Y-153894819D01*
X224228445Y-153894819D02*
X224371302Y-153847200D01*
X224371302Y-153847200D02*
X224418921Y-153799580D01*
X224418921Y-153799580D02*
X224418921Y-153466247D01*
X224418921Y-153466247D02*
X224228445Y-153466247D01*
X224847493Y-153371009D02*
X225180826Y-153371009D01*
X225323683Y-153894819D02*
X224847493Y-153894819D01*
X224847493Y-153894819D02*
X224847493Y-152894819D01*
X224847493Y-152894819D02*
X225323683Y-152894819D01*
X226323683Y-153894819D02*
X225990350Y-153418628D01*
X225752255Y-153894819D02*
X225752255Y-152894819D01*
X225752255Y-152894819D02*
X226133207Y-152894819D01*
X226133207Y-152894819D02*
X226228445Y-152942438D01*
X226228445Y-152942438D02*
X226276064Y-152990057D01*
X226276064Y-152990057D02*
X226323683Y-153085295D01*
X226323683Y-153085295D02*
X226323683Y-153228152D01*
X226323683Y-153228152D02*
X226276064Y-153323390D01*
X226276064Y-153323390D02*
X226228445Y-153371009D01*
X226228445Y-153371009D02*
X226133207Y-153418628D01*
X226133207Y-153418628D02*
X225752255Y-153418628D01*
X246237969Y-153844819D02*
X245761779Y-153844819D01*
X245761779Y-153844819D02*
X245761779Y-152844819D01*
X246571303Y-153321009D02*
X246904636Y-153321009D01*
X247047493Y-153844819D02*
X246571303Y-153844819D01*
X246571303Y-153844819D02*
X246571303Y-152844819D01*
X246571303Y-152844819D02*
X247047493Y-152844819D01*
X247809398Y-153321009D02*
X247476065Y-153321009D01*
X247476065Y-153844819D02*
X247476065Y-152844819D01*
X247476065Y-152844819D02*
X247952255Y-152844819D01*
X248190351Y-152844819D02*
X248761779Y-152844819D01*
X248476065Y-153844819D02*
X248476065Y-152844819D01*
X249714161Y-152844819D02*
X250285589Y-152844819D01*
X249999875Y-153844819D02*
X249999875Y-152844819D01*
X251190351Y-153844819D02*
X250857018Y-153368628D01*
X250618923Y-153844819D02*
X250618923Y-152844819D01*
X250618923Y-152844819D02*
X250999875Y-152844819D01*
X250999875Y-152844819D02*
X251095113Y-152892438D01*
X251095113Y-152892438D02*
X251142732Y-152940057D01*
X251142732Y-152940057D02*
X251190351Y-153035295D01*
X251190351Y-153035295D02*
X251190351Y-153178152D01*
X251190351Y-153178152D02*
X251142732Y-153273390D01*
X251142732Y-153273390D02*
X251095113Y-153321009D01*
X251095113Y-153321009D02*
X250999875Y-153368628D01*
X250999875Y-153368628D02*
X250618923Y-153368628D01*
X251618923Y-153844819D02*
X251618923Y-152844819D01*
X252618922Y-152892438D02*
X252523684Y-152844819D01*
X252523684Y-152844819D02*
X252380827Y-152844819D01*
X252380827Y-152844819D02*
X252237970Y-152892438D01*
X252237970Y-152892438D02*
X252142732Y-152987676D01*
X252142732Y-152987676D02*
X252095113Y-153082914D01*
X252095113Y-153082914D02*
X252047494Y-153273390D01*
X252047494Y-153273390D02*
X252047494Y-153416247D01*
X252047494Y-153416247D02*
X252095113Y-153606723D01*
X252095113Y-153606723D02*
X252142732Y-153701961D01*
X252142732Y-153701961D02*
X252237970Y-153797200D01*
X252237970Y-153797200D02*
X252380827Y-153844819D01*
X252380827Y-153844819D02*
X252476065Y-153844819D01*
X252476065Y-153844819D02*
X252618922Y-153797200D01*
X252618922Y-153797200D02*
X252666541Y-153749580D01*
X252666541Y-153749580D02*
X252666541Y-153416247D01*
X252666541Y-153416247D02*
X252476065Y-153416247D01*
X253618922Y-152892438D02*
X253523684Y-152844819D01*
X253523684Y-152844819D02*
X253380827Y-152844819D01*
X253380827Y-152844819D02*
X253237970Y-152892438D01*
X253237970Y-152892438D02*
X253142732Y-152987676D01*
X253142732Y-152987676D02*
X253095113Y-153082914D01*
X253095113Y-153082914D02*
X253047494Y-153273390D01*
X253047494Y-153273390D02*
X253047494Y-153416247D01*
X253047494Y-153416247D02*
X253095113Y-153606723D01*
X253095113Y-153606723D02*
X253142732Y-153701961D01*
X253142732Y-153701961D02*
X253237970Y-153797200D01*
X253237970Y-153797200D02*
X253380827Y-153844819D01*
X253380827Y-153844819D02*
X253476065Y-153844819D01*
X253476065Y-153844819D02*
X253618922Y-153797200D01*
X253618922Y-153797200D02*
X253666541Y-153749580D01*
X253666541Y-153749580D02*
X253666541Y-153416247D01*
X253666541Y-153416247D02*
X253476065Y-153416247D01*
X254095113Y-153321009D02*
X254428446Y-153321009D01*
X254571303Y-153844819D02*
X254095113Y-153844819D01*
X254095113Y-153844819D02*
X254095113Y-152844819D01*
X254095113Y-152844819D02*
X254571303Y-152844819D01*
X255571303Y-153844819D02*
X255237970Y-153368628D01*
X254999875Y-153844819D02*
X254999875Y-152844819D01*
X254999875Y-152844819D02*
X255380827Y-152844819D01*
X255380827Y-152844819D02*
X255476065Y-152892438D01*
X255476065Y-152892438D02*
X255523684Y-152940057D01*
X255523684Y-152940057D02*
X255571303Y-153035295D01*
X255571303Y-153035295D02*
X255571303Y-153178152D01*
X255571303Y-153178152D02*
X255523684Y-153273390D01*
X255523684Y-153273390D02*
X255476065Y-153321009D01*
X255476065Y-153321009D02*
X255380827Y-153368628D01*
X255380827Y-153368628D02*
X254999875Y-153368628D01*
D12*
X243448741Y-157354393D02*
X243853503Y-157354393D01*
X243853503Y-157354393D02*
X243901122Y-157330583D01*
X243901122Y-157330583D02*
X243924932Y-157306774D01*
X243924932Y-157306774D02*
X243948741Y-157259155D01*
X243948741Y-157259155D02*
X243948741Y-157163917D01*
X243948741Y-157163917D02*
X243924932Y-157116298D01*
X243924932Y-157116298D02*
X243901122Y-157092488D01*
X243901122Y-157092488D02*
X243853503Y-157068679D01*
X243853503Y-157068679D02*
X243448741Y-157068679D01*
X243948741Y-156568678D02*
X243948741Y-156854392D01*
X243948741Y-156711535D02*
X243448741Y-156711535D01*
X243448741Y-156711535D02*
X243520170Y-156759154D01*
X243520170Y-156759154D02*
X243567789Y-156806773D01*
X243567789Y-156806773D02*
X243591598Y-156854392D01*
X230941666Y-159678490D02*
X230917857Y-159702300D01*
X230917857Y-159702300D02*
X230846428Y-159726109D01*
X230846428Y-159726109D02*
X230798809Y-159726109D01*
X230798809Y-159726109D02*
X230727381Y-159702300D01*
X230727381Y-159702300D02*
X230679762Y-159654680D01*
X230679762Y-159654680D02*
X230655952Y-159607061D01*
X230655952Y-159607061D02*
X230632143Y-159511823D01*
X230632143Y-159511823D02*
X230632143Y-159440395D01*
X230632143Y-159440395D02*
X230655952Y-159345157D01*
X230655952Y-159345157D02*
X230679762Y-159297538D01*
X230679762Y-159297538D02*
X230727381Y-159249919D01*
X230727381Y-159249919D02*
X230798809Y-159226109D01*
X230798809Y-159226109D02*
X230846428Y-159226109D01*
X230846428Y-159226109D02*
X230917857Y-159249919D01*
X230917857Y-159249919D02*
X230941666Y-159273728D01*
X231370238Y-159392776D02*
X231370238Y-159726109D01*
X231251190Y-159202300D02*
X231132143Y-159559442D01*
X231132143Y-159559442D02*
X231441666Y-159559442D01*
X232424887Y-157354393D02*
X232829649Y-157354393D01*
X232829649Y-157354393D02*
X232877268Y-157330583D01*
X232877268Y-157330583D02*
X232901078Y-157306774D01*
X232901078Y-157306774D02*
X232924887Y-157259155D01*
X232924887Y-157259155D02*
X232924887Y-157163917D01*
X232924887Y-157163917D02*
X232901078Y-157116298D01*
X232901078Y-157116298D02*
X232877268Y-157092488D01*
X232877268Y-157092488D02*
X232829649Y-157068679D01*
X232829649Y-157068679D02*
X232424887Y-157068679D01*
X232424887Y-156878202D02*
X232424887Y-156568678D01*
X232424887Y-156568678D02*
X232615363Y-156735345D01*
X232615363Y-156735345D02*
X232615363Y-156663916D01*
X232615363Y-156663916D02*
X232639173Y-156616297D01*
X232639173Y-156616297D02*
X232662982Y-156592488D01*
X232662982Y-156592488D02*
X232710601Y-156568678D01*
X232710601Y-156568678D02*
X232829649Y-156568678D01*
X232829649Y-156568678D02*
X232877268Y-156592488D01*
X232877268Y-156592488D02*
X232901078Y-156616297D01*
X232901078Y-156616297D02*
X232924887Y-156663916D01*
X232924887Y-156663916D02*
X232924887Y-156806773D01*
X232924887Y-156806773D02*
X232901078Y-156854392D01*
X232901078Y-156854392D02*
X232877268Y-156878202D01*
X230066666Y-147678490D02*
X230042857Y-147702300D01*
X230042857Y-147702300D02*
X229971428Y-147726109D01*
X229971428Y-147726109D02*
X229923809Y-147726109D01*
X229923809Y-147726109D02*
X229852381Y-147702300D01*
X229852381Y-147702300D02*
X229804762Y-147654680D01*
X229804762Y-147654680D02*
X229780952Y-147607061D01*
X229780952Y-147607061D02*
X229757143Y-147511823D01*
X229757143Y-147511823D02*
X229757143Y-147440395D01*
X229757143Y-147440395D02*
X229780952Y-147345157D01*
X229780952Y-147345157D02*
X229804762Y-147297538D01*
X229804762Y-147297538D02*
X229852381Y-147249919D01*
X229852381Y-147249919D02*
X229923809Y-147226109D01*
X229923809Y-147226109D02*
X229971428Y-147226109D01*
X229971428Y-147226109D02*
X230042857Y-147249919D01*
X230042857Y-147249919D02*
X230066666Y-147273728D01*
X230233333Y-147226109D02*
X230542857Y-147226109D01*
X230542857Y-147226109D02*
X230376190Y-147416585D01*
X230376190Y-147416585D02*
X230447619Y-147416585D01*
X230447619Y-147416585D02*
X230495238Y-147440395D01*
X230495238Y-147440395D02*
X230519047Y-147464204D01*
X230519047Y-147464204D02*
X230542857Y-147511823D01*
X230542857Y-147511823D02*
X230542857Y-147630871D01*
X230542857Y-147630871D02*
X230519047Y-147678490D01*
X230519047Y-147678490D02*
X230495238Y-147702300D01*
X230495238Y-147702300D02*
X230447619Y-147726109D01*
X230447619Y-147726109D02*
X230304762Y-147726109D01*
X230304762Y-147726109D02*
X230257143Y-147702300D01*
X230257143Y-147702300D02*
X230233333Y-147678490D01*
X241941666Y-147678490D02*
X241917857Y-147702300D01*
X241917857Y-147702300D02*
X241846428Y-147726109D01*
X241846428Y-147726109D02*
X241798809Y-147726109D01*
X241798809Y-147726109D02*
X241727381Y-147702300D01*
X241727381Y-147702300D02*
X241679762Y-147654680D01*
X241679762Y-147654680D02*
X241655952Y-147607061D01*
X241655952Y-147607061D02*
X241632143Y-147511823D01*
X241632143Y-147511823D02*
X241632143Y-147440395D01*
X241632143Y-147440395D02*
X241655952Y-147345157D01*
X241655952Y-147345157D02*
X241679762Y-147297538D01*
X241679762Y-147297538D02*
X241727381Y-147249919D01*
X241727381Y-147249919D02*
X241798809Y-147226109D01*
X241798809Y-147226109D02*
X241846428Y-147226109D01*
X241846428Y-147226109D02*
X241917857Y-147249919D01*
X241917857Y-147249919D02*
X241941666Y-147273728D01*
X242132143Y-147273728D02*
X242155952Y-147249919D01*
X242155952Y-147249919D02*
X242203571Y-147226109D01*
X242203571Y-147226109D02*
X242322619Y-147226109D01*
X242322619Y-147226109D02*
X242370238Y-147249919D01*
X242370238Y-147249919D02*
X242394047Y-147273728D01*
X242394047Y-147273728D02*
X242417857Y-147321347D01*
X242417857Y-147321347D02*
X242417857Y-147368966D01*
X242417857Y-147368966D02*
X242394047Y-147440395D01*
X242394047Y-147440395D02*
X242108333Y-147726109D01*
X242108333Y-147726109D02*
X242417857Y-147726109D01*
X239116666Y-159678490D02*
X239092857Y-159702300D01*
X239092857Y-159702300D02*
X239021428Y-159726109D01*
X239021428Y-159726109D02*
X238973809Y-159726109D01*
X238973809Y-159726109D02*
X238902381Y-159702300D01*
X238902381Y-159702300D02*
X238854762Y-159654680D01*
X238854762Y-159654680D02*
X238830952Y-159607061D01*
X238830952Y-159607061D02*
X238807143Y-159511823D01*
X238807143Y-159511823D02*
X238807143Y-159440395D01*
X238807143Y-159440395D02*
X238830952Y-159345157D01*
X238830952Y-159345157D02*
X238854762Y-159297538D01*
X238854762Y-159297538D02*
X238902381Y-159249919D01*
X238902381Y-159249919D02*
X238973809Y-159226109D01*
X238973809Y-159226109D02*
X239021428Y-159226109D01*
X239021428Y-159226109D02*
X239092857Y-159249919D01*
X239092857Y-159249919D02*
X239116666Y-159273728D01*
X239592857Y-159726109D02*
X239307143Y-159726109D01*
X239450000Y-159726109D02*
X239450000Y-159226109D01*
X239450000Y-159226109D02*
X239402381Y-159297538D01*
X239402381Y-159297538D02*
X239354762Y-159345157D01*
X239354762Y-159345157D02*
X239307143Y-159368966D01*
X232076109Y-145655952D02*
X232480871Y-145655952D01*
X232480871Y-145655952D02*
X232528490Y-145632142D01*
X232528490Y-145632142D02*
X232552300Y-145608333D01*
X232552300Y-145608333D02*
X232576109Y-145560714D01*
X232576109Y-145560714D02*
X232576109Y-145465476D01*
X232576109Y-145465476D02*
X232552300Y-145417857D01*
X232552300Y-145417857D02*
X232528490Y-145394047D01*
X232528490Y-145394047D02*
X232480871Y-145370238D01*
X232480871Y-145370238D02*
X232076109Y-145370238D01*
X232242776Y-144917856D02*
X232576109Y-144917856D01*
X232052300Y-145036904D02*
X232409442Y-145155951D01*
X232409442Y-145155951D02*
X232409442Y-144846428D01*
X243659103Y-145295332D02*
X244063865Y-145295332D01*
X244063865Y-145295332D02*
X244111484Y-145271522D01*
X244111484Y-145271522D02*
X244135294Y-145247713D01*
X244135294Y-145247713D02*
X244159103Y-145200094D01*
X244159103Y-145200094D02*
X244159103Y-145104856D01*
X244159103Y-145104856D02*
X244135294Y-145057237D01*
X244135294Y-145057237D02*
X244111484Y-145033427D01*
X244111484Y-145033427D02*
X244063865Y-145009618D01*
X244063865Y-145009618D02*
X243659103Y-145009618D01*
X243706722Y-144795331D02*
X243682913Y-144771522D01*
X243682913Y-144771522D02*
X243659103Y-144723903D01*
X243659103Y-144723903D02*
X243659103Y-144604855D01*
X243659103Y-144604855D02*
X243682913Y-144557236D01*
X243682913Y-144557236D02*
X243706722Y-144533427D01*
X243706722Y-144533427D02*
X243754341Y-144509617D01*
X243754341Y-144509617D02*
X243801960Y-144509617D01*
X243801960Y-144509617D02*
X243873389Y-144533427D01*
X243873389Y-144533427D02*
X244159103Y-144819141D01*
X244159103Y-144819141D02*
X244159103Y-144509617D01*
%TO.C,U1*%
D10*
X239762632Y-156063441D02*
X239812632Y-156063441D01*
X239762632Y-157883441D02*
X239762632Y-156063441D01*
X239812632Y-157883441D02*
X239762632Y-157883441D01*
X241712632Y-157883441D02*
X240932632Y-157883441D01*
X242832632Y-156063441D02*
X242882632Y-156063441D01*
X242882632Y-156063441D02*
X242882632Y-157883441D01*
X242882632Y-157883441D02*
X242832632Y-157883441D01*
X242832632Y-155523441D02*
X243162632Y-155283441D01*
X243162632Y-155763441D01*
X242832632Y-155523441D01*
G36*
X243162632Y-155763441D02*
G01*
X242832632Y-155523441D01*
X243162632Y-155283441D01*
X243162632Y-155763441D01*
G37*
%TO.C,U3*%
X228738778Y-156063441D02*
X228788778Y-156063441D01*
X228738778Y-157883441D02*
X228738778Y-156063441D01*
X228788778Y-157883441D02*
X228738778Y-157883441D01*
X230688778Y-157883441D02*
X229908778Y-157883441D01*
X231808778Y-156063441D02*
X231858778Y-156063441D01*
X231858778Y-156063441D02*
X231858778Y-157883441D01*
X231858778Y-157883441D02*
X231808778Y-157883441D01*
X231808778Y-155523441D02*
X232138778Y-155283441D01*
X232138778Y-155763441D01*
X231808778Y-155523441D01*
G36*
X232138778Y-155763441D02*
G01*
X231808778Y-155523441D01*
X232138778Y-155283441D01*
X232138778Y-155763441D01*
G37*
%TO.C,U4*%
X228528416Y-144004380D02*
X228578416Y-144004380D01*
X228528416Y-145824380D02*
X228528416Y-144004380D01*
X228578416Y-145824380D02*
X228528416Y-145824380D01*
X230478416Y-145824380D02*
X229698416Y-145824380D01*
X231598416Y-144004380D02*
X231648416Y-144004380D01*
X231648416Y-144004380D02*
X231648416Y-145824380D01*
X231648416Y-145824380D02*
X231598416Y-145824380D01*
X231598416Y-143464380D02*
X231928416Y-143224380D01*
X231928416Y-143704380D01*
X231598416Y-143464380D01*
G36*
X231928416Y-143704380D02*
G01*
X231598416Y-143464380D01*
X231928416Y-143224380D01*
X231928416Y-143704380D01*
G37*
%TO.C,U2*%
X239972994Y-144004380D02*
X240022994Y-144004380D01*
X239972994Y-145824380D02*
X239972994Y-144004380D01*
X240022994Y-145824380D02*
X239972994Y-145824380D01*
X241922994Y-145824380D02*
X241142994Y-145824380D01*
X243042994Y-144004380D02*
X243092994Y-144004380D01*
X243092994Y-144004380D02*
X243092994Y-145824380D01*
X243092994Y-145824380D02*
X243042994Y-145824380D01*
X243042994Y-143464380D02*
X243372994Y-143224380D01*
X243372994Y-143704380D01*
X243042994Y-143464380D01*
G36*
X243372994Y-143704380D02*
G01*
X243042994Y-143464380D01*
X243372994Y-143224380D01*
X243372994Y-143704380D01*
G37*
%TD*%
M02*
