%TF.GenerationSoftware,KiCad,Pcbnew,10.0.5*%
%TF.CreationDate,2026-09-22T01:30:29-07:00*%
%TF.ProjectId,FPC_Trigger_Board,4650435f-5472-4696-9767-65725f426f61,1*%
%TF.SameCoordinates,Original*%
%TF.FileFunction,Soldermask,Top*%
%TF.FilePolarity,Negative*%
%FSLAX46Y46*%
G04 Gerber Fmt 4.6, Leading zero omitted, Abs format (unit mm)*
G04 Created by KiCad (PCBNEW 10.0.5) date 2026-09-22 01:30:29*
%MOMM*%
%LPD*%
G01*
G04 APERTURE LIST*
G04 Aperture macros list*
%AMRoundRect*
0 Rectangle with rounded corners*
0 $1 Rounding radius*
0 $2 $3 $4 $5 $6 $7 $8 $9 X,Y pos of 4 corners*
0 Add a 4 corners polygon primitive as box body*
4,1,4,$2,$3,$4,$5,$6,$7,$8,$9,$2,$3,0*
0 Add four circle primitives for the rounded corners*
1,1,$1+$1,$2,$3*
1,1,$1+$1,$4,$5*
1,1,$1+$1,$6,$7*
1,1,$1+$1,$8,$9*
0 Add four rect primitives between the rounded corners*
20,1,$1+$1,$2,$3,$4,$5,0*
20,1,$1+$1,$4,$5,$6,$7,0*
20,1,$1+$1,$6,$7,$8,$9,0*
20,1,$1+$1,$8,$9,$2,$3,0*%
G04 Aperture macros list end*
%ADD10C,0.000000*%
%ADD11RoundRect,0.137500X-0.137500X0.525000X-0.137500X-0.525000X0.137500X-0.525000X0.137500X0.525000X0*%
%ADD12RoundRect,0.100000X0.130000X0.100000X-0.130000X0.100000X-0.130000X-0.100000X0.130000X-0.100000X0*%
%ADD13RoundRect,0.100000X-0.130000X-0.100000X0.130000X-0.100000X0.130000X0.100000X-0.130000X0.100000X0*%
%ADD14RoundRect,0.015000X0.135000X-1.985000X0.135000X1.985000X-0.135000X1.985000X-0.135000X-1.985000X0*%
G04 APERTURE END LIST*
D10*
%TO.C,J2*%
G36*
X201450000Y-162600000D02*
G01*
X198450000Y-162600000D01*
X198450000Y-158600000D01*
X201450000Y-158600000D01*
X201450000Y-162600000D01*
G37*
%TO.C,J1*%
G36*
X273075000Y-162600000D02*
G01*
X270075000Y-162600000D01*
X270075000Y-158600000D01*
X273075000Y-158600000D01*
X273075000Y-162600000D01*
G37*
%TD*%
D11*
%TO.C,U1*%
X240508396Y-158104086D03*
X242308396Y-158104086D03*
X242308396Y-155829086D03*
X241408396Y-155829086D03*
X240508396Y-155829086D03*
%TD*%
D12*
%TO.C,C4*%
X230020000Y-159375000D03*
X229380000Y-159375000D03*
%TD*%
D11*
%TO.C,U3*%
X229313014Y-158104086D03*
X231113014Y-158104086D03*
X231113014Y-155829086D03*
X230213014Y-155829086D03*
X229313014Y-155829086D03*
%TD*%
D13*
%TO.C,C3*%
X228535000Y-147375000D03*
X229175000Y-147375000D03*
%TD*%
D12*
%TO.C,C2*%
X241045000Y-147325000D03*
X240405000Y-147325000D03*
%TD*%
D13*
%TO.C,C1*%
X240205000Y-159400000D03*
X240845000Y-159400000D03*
%TD*%
D11*
%TO.C,U4*%
X229313144Y-146043191D03*
X231113144Y-146043191D03*
X231113144Y-143768191D03*
X230213144Y-143768191D03*
X229313144Y-143768191D03*
%TD*%
%TO.C,U2*%
X240508267Y-146043191D03*
X242308267Y-146043191D03*
X242308267Y-143768191D03*
X241408267Y-143768191D03*
X240508267Y-143768191D03*
%TD*%
D14*
%TO.C,J2*%
X198950000Y-160600000D03*
X199450001Y-160600000D03*
X199950000Y-160600000D03*
X200449999Y-160600000D03*
X200950000Y-160600000D03*
%TD*%
%TO.C,J1*%
X270575000Y-160600000D03*
X271075001Y-160600000D03*
X271575000Y-160600000D03*
X272074999Y-160600000D03*
X272575000Y-160600000D03*
%TD*%
M02*
