%TF.GenerationSoftware,KiCad,Pcbnew,10.0.5*%
%TF.CreationDate,2026-09-22T01:30:29-07:00*%
%TF.ProjectId,FPC_Trigger_Board,4650435f-5472-4696-9767-65725f426f61,1*%
%TF.SameCoordinates,Original*%
%TF.FileFunction,Copper,L2,Bot*%
%TF.FilePolarity,Positive*%
%FSLAX46Y46*%
G04 Gerber Fmt 4.6, Leading zero omitted, Abs format (unit mm)*
G04 Created by KiCad (PCBNEW 10.0.5) date 2026-09-22 01:30:29*
%MOMM*%
%LPD*%
G01*
G04 APERTURE LIST*
%TA.AperFunction,ViaPad*%
%ADD10C,0.750000*%
%TD*%
%TA.AperFunction,Conductor*%
%ADD11C,0.200000*%
%TD*%
G04 APERTURE END LIST*
D10*
%TO.N,+3V3L*%
X240400000Y-148275000D03*
X243750000Y-154650000D03*
%TO.N,TRIGGER_EN_L*%
X242825000Y-152275000D03*
X243100000Y-158250000D03*
%TO.N,+3V3*%
X228525000Y-159900000D03*
X228750000Y-151550000D03*
%TO.N,TRIGGER_EN_R*%
X229875000Y-152525000D03*
X228625000Y-153450000D03*
%TD*%
%TO.N,+3V3*%
D11*
X227825000Y-152475000D02*
X227825000Y-159200000D01*
X227825000Y-159200000D02*
X228525000Y-159900000D01*
X228750000Y-151550000D02*
X227825000Y-152475000D01*
%TO.N,+3V3L*%
X243750000Y-149525000D02*
X243750000Y-154650000D01*
X240400000Y-148275000D02*
X242500000Y-148275000D01*
X242500000Y-148275000D02*
X243750000Y-149525000D01*
%TO.N,TRIGGER_EN_L*%
X242875000Y-155775000D02*
X242875000Y-152325000D01*
X243100000Y-156000000D02*
X242875000Y-155775000D01*
X243100000Y-158250000D02*
X243100000Y-156000000D01*
X242875000Y-152325000D02*
X242825000Y-152275000D01*
%TO.N,TRIGGER_EN_R*%
X228625000Y-153450000D02*
X228950000Y-153450000D01*
X228950000Y-153450000D02*
X229875000Y-152525000D01*
%TD*%
%TA.AperFunction,Conductor*%
%TO.N,GNDL*%
G36*
X243502994Y-141956110D02*
G01*
X243524329Y-141958187D01*
X243640496Y-141969500D01*
X243649797Y-141971329D01*
X243779866Y-142010319D01*
X243788636Y-142013908D01*
X243854438Y-142048620D01*
X243908711Y-142077250D01*
X243916644Y-142082475D01*
X244022241Y-142167795D01*
X244029017Y-142174454D01*
X244116169Y-142278549D01*
X244121532Y-142286389D01*
X244186957Y-142405335D01*
X244190707Y-142414063D01*
X244231953Y-142543404D01*
X244233948Y-142552691D01*
X244249735Y-142689928D01*
X244250049Y-142694672D01*
X244250779Y-142736460D01*
X244250779Y-142736461D01*
X244394335Y-150962080D01*
X244394342Y-150963044D01*
X244394237Y-151009931D01*
X244394426Y-151010889D01*
X244394456Y-151011171D01*
X244394625Y-151011949D01*
X244394816Y-151012874D01*
X244394965Y-151013635D01*
X244395049Y-151013902D01*
X244395257Y-151014859D01*
X244413949Y-151057850D01*
X244414325Y-151058739D01*
X244432165Y-151102085D01*
X244432166Y-151102087D01*
X244432704Y-151102894D01*
X244432842Y-151103149D01*
X244433293Y-151103798D01*
X244433837Y-151104599D01*
X244434258Y-151105232D01*
X244434436Y-151105446D01*
X244434993Y-151106249D01*
X244434994Y-151106250D01*
X244468734Y-151138833D01*
X244469398Y-151139487D01*
X244502472Y-151172710D01*
X244503272Y-151173247D01*
X244503498Y-151173430D01*
X244504184Y-151173871D01*
X244504999Y-151174406D01*
X244505631Y-151174830D01*
X244505869Y-151174955D01*
X244506677Y-151175474D01*
X244506680Y-151175477D01*
X244550393Y-151192696D01*
X244551154Y-151193005D01*
X244594455Y-151211056D01*
X244594463Y-151211056D01*
X244595386Y-151211242D01*
X244595671Y-151211326D01*
X244596493Y-151211475D01*
X244597448Y-151211657D01*
X244598183Y-151211804D01*
X244598451Y-151211829D01*
X244599397Y-151211999D01*
X244599401Y-151212001D01*
X244646312Y-151211181D01*
X244647251Y-151211175D01*
X272775611Y-151274822D01*
X272810227Y-151289252D01*
X272824500Y-151323822D01*
X272824500Y-158476000D01*
X272810148Y-158510648D01*
X272775500Y-158525000D01*
X270374500Y-158525000D01*
X270339852Y-158510648D01*
X270325500Y-158476000D01*
X270325500Y-158027000D01*
X271185402Y-158027000D01*
X271589764Y-158027000D01*
X271387583Y-157824819D01*
X271185402Y-158027000D01*
X270325500Y-158027000D01*
X270325500Y-157684624D01*
X270823500Y-157684624D01*
X271035444Y-157472680D01*
X271739721Y-157472680D01*
X271988623Y-157721582D01*
X272237525Y-157472680D01*
X271988623Y-157223778D01*
X271739721Y-157472680D01*
X271035444Y-157472680D01*
X270823500Y-157260736D01*
X270823500Y-157684624D01*
X270325500Y-157684624D01*
X270325500Y-156871639D01*
X271138681Y-156871639D01*
X271387583Y-157120541D01*
X271636485Y-156871639D01*
X271387583Y-156622737D01*
X271138681Y-156871639D01*
X270325500Y-156871639D01*
X270325500Y-156482543D01*
X270823500Y-156482543D01*
X271035444Y-156270599D01*
X271739721Y-156270599D01*
X271988623Y-156519501D01*
X272237525Y-156270599D01*
X271988623Y-156021697D01*
X271739721Y-156270599D01*
X271035444Y-156270599D01*
X270823500Y-156058655D01*
X270823500Y-156482543D01*
X270325500Y-156482543D01*
X270325500Y-155669558D01*
X271138681Y-155669558D01*
X271387583Y-155918460D01*
X271636485Y-155669558D01*
X271387583Y-155420656D01*
X271138681Y-155669558D01*
X270325500Y-155669558D01*
X270325500Y-155525240D01*
X270325627Y-155475802D01*
X270325625Y-155475799D01*
X270325626Y-155475798D01*
X270325569Y-155475509D01*
X270325544Y-155475382D01*
X270325500Y-155475162D01*
X270325500Y-155475160D01*
X270306562Y-155429440D01*
X270299586Y-155412476D01*
X270287728Y-155383638D01*
X270287607Y-155383456D01*
X270287558Y-155383383D01*
X270287365Y-155383094D01*
X270287364Y-155383091D01*
X270252291Y-155348018D01*
X270217441Y-155312989D01*
X270217440Y-155312988D01*
X270217437Y-155312985D01*
X270217180Y-155312813D01*
X270217043Y-155312721D01*
X270216903Y-155312626D01*
X270170999Y-155293612D01*
X270170884Y-155293564D01*
X270125460Y-155274613D01*
X270124962Y-155274514D01*
X270124834Y-155274489D01*
X270124829Y-155274488D01*
X270124828Y-155274488D01*
X270075160Y-155274488D01*
X244778460Y-155209623D01*
X244769876Y-155208843D01*
X244768824Y-155208652D01*
X244722003Y-155209469D01*
X244721025Y-155209476D01*
X244674684Y-155209358D01*
X244674188Y-155209357D01*
X244674187Y-155209357D01*
X244674185Y-155209357D01*
X244673120Y-155209566D01*
X244672848Y-155209595D01*
X244672166Y-155209743D01*
X244671238Y-155209935D01*
X244670504Y-155210079D01*
X244670238Y-155210162D01*
X244669186Y-155210390D01*
X244626254Y-155229056D01*
X244625354Y-155229436D01*
X244582019Y-155247257D01*
X244581117Y-155247857D01*
X244580878Y-155247987D01*
X244580278Y-155248404D01*
X244579478Y-155248947D01*
X244578889Y-155249338D01*
X244578677Y-155249515D01*
X244577791Y-155250129D01*
X244545232Y-155283843D01*
X244544546Y-155284539D01*
X244511374Y-155317542D01*
X244510777Y-155318432D01*
X244510590Y-155318663D01*
X244510156Y-155319338D01*
X244509649Y-155320109D01*
X244509278Y-155320661D01*
X244509155Y-155320896D01*
X244508565Y-155321812D01*
X244491397Y-155365397D01*
X244491029Y-155366305D01*
X244473002Y-155409514D01*
X244472789Y-155410572D01*
X244472712Y-155410832D01*
X244472582Y-155411552D01*
X244472405Y-155412476D01*
X244472258Y-155413202D01*
X244472234Y-155413473D01*
X244472042Y-155414530D01*
X244472859Y-155461364D01*
X244472866Y-155462342D01*
X244472747Y-155509169D01*
X244472953Y-155510218D01*
X244473862Y-155518795D01*
X244588060Y-162062272D01*
X244574315Y-162097165D01*
X244539922Y-162112120D01*
X244535898Y-162112024D01*
X244209250Y-162090851D01*
X244206455Y-162090589D01*
X244201579Y-162089991D01*
X244188812Y-162088424D01*
X244179488Y-162086341D01*
X244102620Y-162061088D01*
X244086092Y-162051797D01*
X244025804Y-162000309D01*
X244014040Y-161985437D01*
X244001280Y-161960597D01*
X243973225Y-161905980D01*
X243970537Y-161899706D01*
X243966764Y-161888869D01*
X243939982Y-161811954D01*
X243939979Y-161811950D01*
X243939976Y-161811941D01*
X243831298Y-161611507D01*
X243831295Y-161611503D01*
X243805784Y-161578586D01*
X243691617Y-161431275D01*
X243691614Y-161431272D01*
X243524630Y-161276013D01*
X243334719Y-161149801D01*
X243126903Y-161055974D01*
X242906651Y-160996996D01*
X242906642Y-160996994D01*
X242679743Y-160974420D01*
X242679740Y-160974420D01*
X242452184Y-160988842D01*
X242229950Y-161039883D01*
X242018901Y-161126197D01*
X242018894Y-161126200D01*
X241824586Y-161245515D01*
X241824585Y-161245515D01*
X241652136Y-161394687D01*
X241652136Y-161394688D01*
X241652135Y-161394689D01*
X241644782Y-161403505D01*
X241506082Y-161569794D01*
X241506078Y-161569801D01*
X241472793Y-161626168D01*
X241472579Y-161626468D01*
X241450129Y-161664544D01*
X241445569Y-161671018D01*
X241400449Y-161725183D01*
X241388522Y-161735527D01*
X241331944Y-161770421D01*
X241317346Y-161776436D01*
X241252607Y-161791527D01*
X241236855Y-161792587D01*
X241170679Y-161786308D01*
X241155407Y-161782304D01*
X241094664Y-161755308D01*
X241081457Y-161746655D01*
X241032447Y-161701739D01*
X241022683Y-161689341D01*
X240988550Y-161627649D01*
X240985291Y-161620437D01*
X240982095Y-161611503D01*
X240971752Y-161582587D01*
X240970321Y-161578586D01*
X240970248Y-161578429D01*
X240948361Y-161517305D01*
X240921389Y-161468548D01*
X240838466Y-161318648D01*
X240698011Y-161140281D01*
X240698010Y-161140280D01*
X240530669Y-160986868D01*
X240530665Y-160986865D01*
X240530663Y-160986863D01*
X240469562Y-160946810D01*
X240340793Y-160862400D01*
X240257920Y-160825542D01*
X240133354Y-160770140D01*
X240133350Y-160770139D01*
X240133348Y-160770138D01*
X240029669Y-160742920D01*
X239913765Y-160712493D01*
X239913759Y-160712492D01*
X239913757Y-160712492D01*
X239687759Y-160690964D01*
X239461232Y-160706115D01*
X239240113Y-160757548D01*
X239240111Y-160757548D01*
X239240110Y-160757549D01*
X239209510Y-160770138D01*
X239030152Y-160843925D01*
X238836845Y-160962989D01*
X238665246Y-161111624D01*
X238519820Y-161285959D01*
X238466556Y-161376076D01*
X238465024Y-161378501D01*
X238453235Y-161396018D01*
X238447035Y-161403505D01*
X238389443Y-161460446D01*
X238373636Y-161470916D01*
X238299497Y-161501419D01*
X238280896Y-161505104D01*
X238191792Y-161505182D01*
X238184713Y-161504674D01*
X237741973Y-161440434D01*
X237709745Y-161421256D01*
X237700009Y-161391847D01*
X237700038Y-161377304D01*
X237701788Y-160477884D01*
X241086642Y-160477884D01*
X241335544Y-160726786D01*
X241584446Y-160477884D01*
X242288724Y-160477884D01*
X242319247Y-160508407D01*
X242350555Y-160501218D01*
X242352501Y-160500813D01*
X242368451Y-160497825D01*
X242370410Y-160497499D01*
X242390430Y-160494583D01*
X242392409Y-160494335D01*
X242408590Y-160492647D01*
X242410574Y-160492481D01*
X242658352Y-160476776D01*
X242660344Y-160476691D01*
X242676617Y-160476323D01*
X242678611Y-160476318D01*
X242698839Y-160476684D01*
X242700823Y-160476760D01*
X242717014Y-160477710D01*
X242718995Y-160477867D01*
X242780431Y-160483978D01*
X242786526Y-160477884D01*
X243490805Y-160477884D01*
X243739707Y-160726786D01*
X243988609Y-160477884D01*
X243739707Y-160228981D01*
X243490805Y-160477884D01*
X242786526Y-160477884D01*
X242786527Y-160477883D01*
X242537626Y-160228982D01*
X242288724Y-160477884D01*
X241584446Y-160477884D01*
X241335544Y-160228982D01*
X241086642Y-160477884D01*
X237701788Y-160477884D01*
X237701812Y-160465648D01*
X238694714Y-160465648D01*
X238777559Y-160414622D01*
X238779266Y-160413617D01*
X238793366Y-160405700D01*
X238795112Y-160404766D01*
X238813060Y-160395622D01*
X238814845Y-160394758D01*
X238829552Y-160388000D01*
X238831368Y-160387209D01*
X239014335Y-160311936D01*
X238931381Y-160228982D01*
X238694714Y-160465648D01*
X237701812Y-160465648D01*
X237702487Y-160118916D01*
X237702523Y-160117156D01*
X237704217Y-160072812D01*
X237703487Y-160068238D01*
X237702595Y-160063705D01*
X237685689Y-160022666D01*
X237685042Y-160021012D01*
X237669622Y-159979354D01*
X237667209Y-159975427D01*
X237664639Y-159971565D01*
X237664638Y-159971562D01*
X237653408Y-159960288D01*
X237633296Y-159940096D01*
X237632067Y-159938817D01*
X237601897Y-159906252D01*
X237601896Y-159906251D01*
X237601895Y-159906250D01*
X237601892Y-159906249D01*
X237598148Y-159903534D01*
X237594307Y-159900957D01*
X237553325Y-159883888D01*
X237551701Y-159883177D01*
X237511350Y-159864630D01*
X237511348Y-159864629D01*
X237511345Y-159864628D01*
X237506824Y-159863548D01*
X237502314Y-159862642D01*
X237502191Y-159862641D01*
X237457877Y-159862554D01*
X237456104Y-159862518D01*
X237326486Y-159857569D01*
X237292411Y-159841906D01*
X237283086Y-159817535D01*
X238140745Y-159817535D01*
X238149250Y-159840510D01*
X238172384Y-159896665D01*
X238173996Y-159901199D01*
X238185340Y-159938866D01*
X238186501Y-159943539D01*
X238189795Y-159960288D01*
X238191133Y-159965383D01*
X238192127Y-159970104D01*
X238193848Y-159980892D01*
X238195896Y-159991300D01*
X238330341Y-160125745D01*
X238579243Y-159876843D01*
X239283520Y-159876843D01*
X239532422Y-160125745D01*
X239781324Y-159876843D01*
X240485602Y-159876843D01*
X240734504Y-160125745D01*
X240983406Y-159876843D01*
X241687683Y-159876843D01*
X241936585Y-160125745D01*
X242185487Y-159876843D01*
X242889765Y-159876843D01*
X243138667Y-160125745D01*
X243387569Y-159876843D01*
X243138667Y-159627941D01*
X242889765Y-159876843D01*
X242185487Y-159876843D01*
X241936585Y-159627941D01*
X241687683Y-159876843D01*
X240983406Y-159876843D01*
X240734504Y-159627941D01*
X240485602Y-159876843D01*
X239781324Y-159876843D01*
X239532422Y-159627941D01*
X239283520Y-159876843D01*
X238579243Y-159876843D01*
X238330340Y-159627940D01*
X238140745Y-159817535D01*
X237283086Y-159817535D01*
X237279364Y-159807808D01*
X237285367Y-159440260D01*
X237783432Y-159440260D01*
X237804830Y-159449173D01*
X237978202Y-159275802D01*
X238682478Y-159275802D01*
X238931381Y-159524704D01*
X239180283Y-159275802D01*
X239884560Y-159275802D01*
X240133463Y-159524704D01*
X240382365Y-159275802D01*
X241086641Y-159275802D01*
X241335544Y-159524704D01*
X241584446Y-159275802D01*
X241584445Y-159275801D01*
X242288723Y-159275801D01*
X242537626Y-159524704D01*
X242786528Y-159275802D01*
X242786527Y-159275801D01*
X243490804Y-159275801D01*
X243739707Y-159524704D01*
X243988609Y-159275802D01*
X243754668Y-159041861D01*
X243741234Y-159053642D01*
X243738755Y-159055677D01*
X243712881Y-159075529D01*
X243710275Y-159077396D01*
X243688506Y-159091941D01*
X243685783Y-159093634D01*
X243655473Y-159111132D01*
X243490804Y-159275801D01*
X242786527Y-159275801D01*
X242713275Y-159202549D01*
X242691538Y-159193547D01*
X242688616Y-159192223D01*
X242665118Y-159180636D01*
X242662289Y-159179124D01*
X242514216Y-159093633D01*
X242511494Y-159091941D01*
X242489725Y-159077396D01*
X242488212Y-159076312D01*
X242288723Y-159275801D01*
X241584445Y-159275801D01*
X241335544Y-159026900D01*
X241086641Y-159275802D01*
X240382365Y-159275802D01*
X240133463Y-159026900D01*
X239884560Y-159275802D01*
X239180283Y-159275802D01*
X238931381Y-159026900D01*
X238682478Y-159275802D01*
X237978202Y-159275802D01*
X237789204Y-159086804D01*
X237783432Y-159440260D01*
X237285367Y-159440260D01*
X237297871Y-158674761D01*
X238081438Y-158674761D01*
X238330341Y-158923664D01*
X238579243Y-158674762D01*
X239283520Y-158674762D01*
X239532422Y-158923664D01*
X239781324Y-158674762D01*
X240485602Y-158674762D01*
X240734504Y-158923664D01*
X240983406Y-158674762D01*
X241687683Y-158674762D01*
X241936584Y-158923663D01*
X242171483Y-158688764D01*
X242170875Y-158687710D01*
X242169364Y-158684882D01*
X242157777Y-158661384D01*
X242156453Y-158658462D01*
X242147451Y-158636726D01*
X241936585Y-158425860D01*
X241687683Y-158674762D01*
X240983406Y-158674762D01*
X240734504Y-158425860D01*
X240485602Y-158674762D01*
X239781324Y-158674762D01*
X239532422Y-158425860D01*
X239283520Y-158674762D01*
X238579243Y-158674762D01*
X238330340Y-158425859D01*
X238081438Y-158674761D01*
X237297871Y-158674761D01*
X237300004Y-158544169D01*
X237314918Y-158509764D01*
X237349796Y-158495980D01*
X237350794Y-158496006D01*
X237392180Y-158497574D01*
X237400453Y-158499394D01*
X237400583Y-158498752D01*
X237405311Y-158499702D01*
X237449782Y-158499788D01*
X237451513Y-158499822D01*
X237482837Y-158501009D01*
X237495931Y-158501506D01*
X237495931Y-158501505D01*
X237495934Y-158501506D01*
X237495936Y-158501505D01*
X237500481Y-158500778D01*
X237504958Y-158499895D01*
X237504967Y-158499896D01*
X237546081Y-158482959D01*
X237547702Y-158482324D01*
X237589381Y-158466883D01*
X237589384Y-158466880D01*
X237593291Y-158464479D01*
X237597106Y-158461940D01*
X237597110Y-158461939D01*
X237628634Y-158430535D01*
X237629845Y-158429373D01*
X237662466Y-158399135D01*
X237662466Y-158399132D01*
X237665167Y-158395404D01*
X237667711Y-158391612D01*
X237667711Y-158391611D01*
X237667714Y-158391609D01*
X237684831Y-158350508D01*
X237685488Y-158349006D01*
X237704060Y-158308576D01*
X237704060Y-158308568D01*
X237705130Y-158304087D01*
X237706030Y-158299613D01*
X237706116Y-158255146D01*
X237706151Y-158253384D01*
X237707834Y-158208989D01*
X237707072Y-158204224D01*
X237707717Y-158204120D01*
X237706231Y-158195781D01*
X237706469Y-158073721D01*
X238682479Y-158073721D01*
X238931381Y-158322623D01*
X239180283Y-158073721D01*
X239884561Y-158073721D01*
X240133463Y-158322623D01*
X240382365Y-158073721D01*
X241086642Y-158073721D01*
X241335544Y-158322623D01*
X241584446Y-158073721D01*
X241335544Y-157824819D01*
X241086642Y-158073721D01*
X240382365Y-158073721D01*
X240133463Y-157824819D01*
X239884561Y-158073721D01*
X239180283Y-158073721D01*
X238931381Y-157824819D01*
X238682479Y-158073721D01*
X237706469Y-158073721D01*
X237707398Y-157596638D01*
X238205397Y-157596638D01*
X238330341Y-157721582D01*
X238579243Y-157472680D01*
X239283520Y-157472680D01*
X239532422Y-157721582D01*
X239781324Y-157472680D01*
X240485602Y-157472680D01*
X240734504Y-157721582D01*
X240983406Y-157472680D01*
X241687683Y-157472680D01*
X241936585Y-157721582D01*
X242185487Y-157472680D01*
X241936585Y-157223778D01*
X241687683Y-157472680D01*
X240983406Y-157472680D01*
X240734504Y-157223778D01*
X240485602Y-157472680D01*
X239781324Y-157472680D01*
X239532422Y-157223778D01*
X239283520Y-157472680D01*
X238579243Y-157472680D01*
X238330340Y-157223777D01*
X238205880Y-157348237D01*
X238205397Y-157596638D01*
X237707398Y-157596638D01*
X237708810Y-156871639D01*
X238682479Y-156871639D01*
X238931381Y-157120541D01*
X239180283Y-156871639D01*
X239884561Y-156871639D01*
X240133463Y-157120541D01*
X240382365Y-156871639D01*
X241086642Y-156871639D01*
X241335544Y-157120541D01*
X241584446Y-156871639D01*
X242288724Y-156871639D01*
X242351500Y-156934415D01*
X242351500Y-156808863D01*
X242288724Y-156871639D01*
X241584446Y-156871639D01*
X241335544Y-156622737D01*
X241086642Y-156871639D01*
X240382365Y-156871639D01*
X240133463Y-156622737D01*
X239884561Y-156871639D01*
X239180283Y-156871639D01*
X238931381Y-156622737D01*
X238682479Y-156871639D01*
X237708810Y-156871639D01*
X237709734Y-156396893D01*
X238207733Y-156396893D01*
X238330341Y-156519501D01*
X238579243Y-156270599D01*
X239283520Y-156270599D01*
X239532422Y-156519501D01*
X239781324Y-156270599D01*
X240485602Y-156270599D01*
X240734504Y-156519501D01*
X240983406Y-156270599D01*
X241687683Y-156270599D01*
X241936585Y-156519501D01*
X242185487Y-156270599D01*
X241936585Y-156021697D01*
X241687683Y-156270599D01*
X240983406Y-156270599D01*
X240734504Y-156021697D01*
X240485602Y-156270599D01*
X239781324Y-156270599D01*
X239532422Y-156021697D01*
X239283520Y-156270599D01*
X238579243Y-156270599D01*
X238330340Y-156021696D01*
X238208225Y-156143811D01*
X238207733Y-156396893D01*
X237709734Y-156396893D01*
X237711150Y-155669558D01*
X238682479Y-155669558D01*
X238931381Y-155918460D01*
X239180283Y-155669558D01*
X239884561Y-155669558D01*
X240133463Y-155918460D01*
X240382365Y-155669558D01*
X241086642Y-155669558D01*
X241335544Y-155918460D01*
X241584446Y-155669558D01*
X241335544Y-155420656D01*
X241086642Y-155669558D01*
X240382365Y-155669558D01*
X240133463Y-155420656D01*
X239884561Y-155669558D01*
X239180283Y-155669558D01*
X238931381Y-155420656D01*
X238682479Y-155669558D01*
X237711150Y-155669558D01*
X237712070Y-155197146D01*
X238210068Y-155197146D01*
X238330341Y-155317419D01*
X238579243Y-155068517D01*
X239283520Y-155068517D01*
X239532422Y-155317419D01*
X239781324Y-155068517D01*
X240485602Y-155068517D01*
X240734504Y-155317419D01*
X240983406Y-155068517D01*
X241687683Y-155068517D01*
X241936585Y-155317419D01*
X242126500Y-155127504D01*
X242126500Y-155009530D01*
X241936585Y-154819615D01*
X241687683Y-155068517D01*
X240983406Y-155068517D01*
X240734504Y-154819615D01*
X240485602Y-155068517D01*
X239781324Y-155068517D01*
X239532422Y-154819615D01*
X239283520Y-155068517D01*
X238579243Y-155068517D01*
X238330340Y-154819614D01*
X238210570Y-154939384D01*
X238210068Y-155197146D01*
X237712070Y-155197146D01*
X237713491Y-154467476D01*
X238682479Y-154467476D01*
X238931381Y-154716378D01*
X239180283Y-154467476D01*
X239884561Y-154467476D01*
X240133463Y-154716378D01*
X240382365Y-154467476D01*
X241086642Y-154467476D01*
X241335544Y-154716378D01*
X241584446Y-154467476D01*
X241335544Y-154218574D01*
X241086642Y-154467476D01*
X240382365Y-154467476D01*
X240133463Y-154218574D01*
X239884561Y-154467476D01*
X239180283Y-154467476D01*
X238931381Y-154218574D01*
X238682479Y-154467476D01*
X237713491Y-154467476D01*
X237714406Y-153997401D01*
X238212404Y-153997401D01*
X238330341Y-154115338D01*
X238579243Y-153866436D01*
X239283520Y-153866436D01*
X239532422Y-154115338D01*
X239781324Y-153866436D01*
X240485602Y-153866436D01*
X240734504Y-154115338D01*
X240983406Y-153866436D01*
X241687683Y-153866436D01*
X241936585Y-154115338D01*
X242126500Y-153925423D01*
X242126500Y-153807449D01*
X241936585Y-153617534D01*
X241687683Y-153866436D01*
X240983406Y-153866436D01*
X240734504Y-153617534D01*
X240485602Y-153866436D01*
X239781324Y-153866436D01*
X239532422Y-153617534D01*
X239283520Y-153866436D01*
X238579243Y-153866436D01*
X238330340Y-153617533D01*
X238212915Y-153734958D01*
X238212404Y-153997401D01*
X237714406Y-153997401D01*
X237715831Y-153265395D01*
X238682479Y-153265395D01*
X238931381Y-153514297D01*
X239180283Y-153265395D01*
X239884561Y-153265395D01*
X240133463Y-153514297D01*
X240382365Y-153265395D01*
X241086642Y-153265395D01*
X241335544Y-153514297D01*
X241584446Y-153265395D01*
X241335544Y-153016493D01*
X241086642Y-153265395D01*
X240382365Y-153265395D01*
X240133463Y-153016493D01*
X239884561Y-153265395D01*
X239180283Y-153265395D01*
X238931381Y-153016493D01*
X238682479Y-153265395D01*
X237715831Y-153265395D01*
X237716742Y-152797655D01*
X238214740Y-152797655D01*
X238330341Y-152913256D01*
X238579243Y-152664354D01*
X239283520Y-152664354D01*
X239532422Y-152913256D01*
X239781324Y-152664354D01*
X240485602Y-152664354D01*
X240734504Y-152913256D01*
X240983406Y-152664354D01*
X240983405Y-152664353D01*
X241687682Y-152664353D01*
X241936584Y-152913255D01*
X241984370Y-152865469D01*
X241983059Y-152863506D01*
X241981367Y-152860784D01*
X241895876Y-152712711D01*
X241894364Y-152709882D01*
X241882777Y-152686384D01*
X241881453Y-152683462D01*
X241868974Y-152653330D01*
X241867845Y-152650330D01*
X241859431Y-152625541D01*
X241858501Y-152622474D01*
X241831252Y-152520783D01*
X241687682Y-152664353D01*
X240983405Y-152664353D01*
X240734504Y-152415452D01*
X240485602Y-152664354D01*
X239781324Y-152664354D01*
X239532422Y-152415452D01*
X239283520Y-152664354D01*
X238579243Y-152664354D01*
X238330340Y-152415451D01*
X238215261Y-152530530D01*
X238214740Y-152797655D01*
X237716742Y-152797655D01*
X237718172Y-152063313D01*
X238682479Y-152063313D01*
X238931381Y-152312215D01*
X239180283Y-152063313D01*
X239884561Y-152063313D01*
X240133463Y-152312215D01*
X240382365Y-152063313D01*
X241086642Y-152063313D01*
X241335544Y-152312215D01*
X241441946Y-152205813D01*
X242299500Y-152205813D01*
X242299500Y-152344186D01*
X242335311Y-152477834D01*
X242335312Y-152477838D01*
X242390372Y-152573204D01*
X242404495Y-152597665D01*
X242502335Y-152695505D01*
X242600000Y-152751892D01*
X242622830Y-152781644D01*
X242624500Y-152794326D01*
X242624500Y-155725172D01*
X242624500Y-155824828D01*
X242662636Y-155916897D01*
X242662637Y-155916898D01*
X242662637Y-155916899D01*
X242835148Y-156089409D01*
X242849500Y-156124057D01*
X242849500Y-157759540D01*
X242835148Y-157794188D01*
X242825000Y-157801975D01*
X242777340Y-157829491D01*
X242777331Y-157829498D01*
X242679496Y-157927334D01*
X242679495Y-157927334D01*
X242610312Y-158047161D01*
X242610311Y-158047165D01*
X242574500Y-158180813D01*
X242574500Y-158319186D01*
X242610311Y-158452834D01*
X242610312Y-158452838D01*
X242663043Y-158544169D01*
X242679495Y-158572665D01*
X242777335Y-158670505D01*
X242802237Y-158684882D01*
X242897161Y-158739687D01*
X242897163Y-158739687D01*
X242897164Y-158739688D01*
X243002571Y-158767931D01*
X243030813Y-158775499D01*
X243030814Y-158775500D01*
X243030817Y-158775500D01*
X243169186Y-158775500D01*
X243169186Y-158775499D01*
X243302836Y-158739688D01*
X243422665Y-158670505D01*
X243520505Y-158572665D01*
X243589688Y-158452836D01*
X243625499Y-158319186D01*
X243625500Y-158319186D01*
X243625500Y-158180814D01*
X243625499Y-158180813D01*
X243589688Y-158047165D01*
X243589687Y-158047161D01*
X243520504Y-157927334D01*
X243422668Y-157829498D01*
X243422665Y-157829495D01*
X243422661Y-157829493D01*
X243422659Y-157829491D01*
X243375000Y-157801975D01*
X243352170Y-157772222D01*
X243350500Y-157759540D01*
X243350500Y-157011748D01*
X243848500Y-157011748D01*
X243988609Y-156871638D01*
X243848500Y-156731529D01*
X243848500Y-157011748D01*
X243350500Y-157011748D01*
X243350500Y-155950174D01*
X243350499Y-155950170D01*
X243312364Y-155858103D01*
X243312362Y-155858101D01*
X243312362Y-155858100D01*
X243241897Y-155787636D01*
X243139852Y-155685591D01*
X243134844Y-155673500D01*
X243774930Y-155673500D01*
X243819959Y-155782209D01*
X243821579Y-155786738D01*
X243832988Y-155824350D01*
X243833154Y-155825012D01*
X243978590Y-155679576D01*
X243978234Y-155659182D01*
X243969769Y-155650717D01*
X243932321Y-155660753D01*
X243929196Y-155661482D01*
X243903498Y-155666593D01*
X243900333Y-155667115D01*
X243867999Y-155671370D01*
X243864809Y-155671684D01*
X243838687Y-155673395D01*
X243835484Y-155673500D01*
X243774930Y-155673500D01*
X243134844Y-155673500D01*
X243125500Y-155650943D01*
X243125500Y-152736591D01*
X243139852Y-152701943D01*
X243145333Y-152697743D01*
X243145116Y-152697460D01*
X243147656Y-152695510D01*
X243147665Y-152695505D01*
X243245505Y-152597665D01*
X243314688Y-152477836D01*
X243350499Y-152344186D01*
X243350500Y-152344186D01*
X243350500Y-152205814D01*
X243350499Y-152205813D01*
X243314688Y-152072165D01*
X243314687Y-152072161D01*
X243245504Y-151952334D01*
X243147665Y-151854495D01*
X243027838Y-151785312D01*
X243027834Y-151785311D01*
X242894186Y-151749500D01*
X242894183Y-151749500D01*
X242755817Y-151749500D01*
X242755814Y-151749500D01*
X242622165Y-151785311D01*
X242622161Y-151785312D01*
X242502334Y-151854495D01*
X242502334Y-151854496D01*
X242404496Y-151952334D01*
X242404495Y-151952334D01*
X242335312Y-152072161D01*
X242335311Y-152072165D01*
X242299500Y-152205813D01*
X241441946Y-152205813D01*
X241584446Y-152063313D01*
X241335544Y-151814411D01*
X241086642Y-152063313D01*
X240382365Y-152063313D01*
X240133463Y-151814411D01*
X239884561Y-152063313D01*
X239180283Y-152063313D01*
X238931381Y-151814411D01*
X238682479Y-152063313D01*
X237718172Y-152063313D01*
X237719078Y-151597910D01*
X238217076Y-151597910D01*
X238330341Y-151711175D01*
X238579243Y-151462272D01*
X239283519Y-151462272D01*
X239532422Y-151711175D01*
X239781324Y-151462272D01*
X240485601Y-151462272D01*
X240734504Y-151711175D01*
X240983406Y-151462272D01*
X241687682Y-151462272D01*
X241936585Y-151711175D01*
X242185487Y-151462272D01*
X241936585Y-151213370D01*
X241687682Y-151462272D01*
X240983406Y-151462272D01*
X240734504Y-151213370D01*
X240485601Y-151462272D01*
X239781324Y-151462272D01*
X239532422Y-151213370D01*
X239283519Y-151462272D01*
X238579243Y-151462272D01*
X238330340Y-151213370D01*
X238217606Y-151326104D01*
X238217076Y-151597910D01*
X237719078Y-151597910D01*
X237720512Y-150861232D01*
X238682479Y-150861232D01*
X238931381Y-151110134D01*
X239180283Y-150861232D01*
X239884561Y-150861232D01*
X240133463Y-151110134D01*
X240382365Y-150861232D01*
X241086642Y-150861232D01*
X241335544Y-151110134D01*
X241584446Y-150861232D01*
X242288724Y-150861232D01*
X242537626Y-151110134D01*
X242786528Y-150861232D01*
X242537626Y-150612330D01*
X242288724Y-150861232D01*
X241584446Y-150861232D01*
X241335544Y-150612330D01*
X241086642Y-150861232D01*
X240382365Y-150861232D01*
X240133463Y-150612330D01*
X239884561Y-150861232D01*
X239180283Y-150861232D01*
X238931381Y-150612330D01*
X238682479Y-150861232D01*
X237720512Y-150861232D01*
X237721414Y-150398164D01*
X238219412Y-150398164D01*
X238330341Y-150509093D01*
X238579243Y-150260191D01*
X239283520Y-150260191D01*
X239532422Y-150509093D01*
X239781324Y-150260191D01*
X240485602Y-150260191D01*
X240734504Y-150509093D01*
X240983406Y-150260191D01*
X241687683Y-150260191D01*
X241936585Y-150509093D01*
X242185487Y-150260191D01*
X242889765Y-150260191D01*
X243001500Y-150371926D01*
X243001500Y-150148456D01*
X242889765Y-150260191D01*
X242185487Y-150260191D01*
X241936585Y-150011289D01*
X241687683Y-150260191D01*
X240983406Y-150260191D01*
X240734504Y-150011289D01*
X240485602Y-150260191D01*
X239781324Y-150260191D01*
X239532422Y-150011289D01*
X239283520Y-150260191D01*
X238579243Y-150260191D01*
X238330340Y-150011288D01*
X238219951Y-150121677D01*
X238219412Y-150398164D01*
X237721414Y-150398164D01*
X237722853Y-149659150D01*
X238682479Y-149659150D01*
X238931381Y-149908052D01*
X239180283Y-149659150D01*
X239884561Y-149659150D01*
X240133463Y-149908052D01*
X240382365Y-149659150D01*
X241086642Y-149659150D01*
X241335544Y-149908052D01*
X241584446Y-149659150D01*
X242288724Y-149659150D01*
X242537626Y-149908052D01*
X242786528Y-149659150D01*
X242537626Y-149410248D01*
X242288724Y-149659150D01*
X241584446Y-149659150D01*
X241335544Y-149410248D01*
X241086642Y-149659150D01*
X240382365Y-149659150D01*
X240133463Y-149410248D01*
X239884561Y-149659150D01*
X239180283Y-149659150D01*
X238931381Y-149410248D01*
X238682479Y-149659150D01*
X237722853Y-149659150D01*
X237723750Y-149198419D01*
X238221748Y-149198419D01*
X238330340Y-149307011D01*
X238579243Y-149058109D01*
X239283519Y-149058109D01*
X239532421Y-149307011D01*
X239581348Y-149258084D01*
X240685576Y-149258084D01*
X240734503Y-149307011D01*
X240837024Y-149204490D01*
X240834882Y-149205636D01*
X240811384Y-149217223D01*
X240808462Y-149218547D01*
X240778330Y-149231026D01*
X240775330Y-149232155D01*
X240750541Y-149240569D01*
X240747474Y-149241499D01*
X240685576Y-149258084D01*
X239581348Y-149258084D01*
X239759877Y-149079554D01*
X239758766Y-149078642D01*
X239739070Y-149061370D01*
X239736729Y-149059177D01*
X239735661Y-149058109D01*
X241687682Y-149058109D01*
X241936585Y-149307011D01*
X242185487Y-149058109D01*
X242150878Y-149023500D01*
X241722292Y-149023500D01*
X241687682Y-149058109D01*
X239735661Y-149058109D01*
X239615823Y-148938271D01*
X239613630Y-148935930D01*
X239596358Y-148916234D01*
X239594323Y-148913755D01*
X239574471Y-148887881D01*
X239572604Y-148885275D01*
X239558059Y-148863506D01*
X239556367Y-148860784D01*
X239528723Y-148812905D01*
X239283519Y-149058109D01*
X238579243Y-149058109D01*
X238330340Y-148809206D01*
X238222296Y-148917250D01*
X238221748Y-149198419D01*
X237723750Y-149198419D01*
X237725193Y-148457069D01*
X238682479Y-148457069D01*
X238931381Y-148705971D01*
X239180283Y-148457069D01*
X238931381Y-148208167D01*
X238682479Y-148457069D01*
X237725193Y-148457069D01*
X237725682Y-148205813D01*
X239874500Y-148205813D01*
X239874500Y-148344186D01*
X239910311Y-148477834D01*
X239910312Y-148477838D01*
X239979493Y-148597661D01*
X239979495Y-148597665D01*
X240077335Y-148695505D01*
X240095463Y-148705971D01*
X240197161Y-148764687D01*
X240197163Y-148764687D01*
X240197164Y-148764688D01*
X240302571Y-148792931D01*
X240330813Y-148800499D01*
X240330814Y-148800500D01*
X240330817Y-148800500D01*
X240469186Y-148800500D01*
X240469186Y-148800499D01*
X240602836Y-148764688D01*
X240722665Y-148695505D01*
X240820505Y-148597665D01*
X240848023Y-148550000D01*
X240877776Y-148527170D01*
X240890459Y-148525500D01*
X242375943Y-148525500D01*
X242410591Y-148539852D01*
X243485148Y-149614408D01*
X243499500Y-149649056D01*
X243499500Y-154159540D01*
X243485148Y-154194188D01*
X243475000Y-154201975D01*
X243427340Y-154229491D01*
X243427331Y-154229498D01*
X243329496Y-154327334D01*
X243329495Y-154327334D01*
X243260312Y-154447161D01*
X243260311Y-154447165D01*
X243224500Y-154580813D01*
X243224500Y-154719186D01*
X243260311Y-154852834D01*
X243260312Y-154852838D01*
X243310280Y-154939384D01*
X243329495Y-154972665D01*
X243427335Y-155070505D01*
X243454814Y-155086370D01*
X243547161Y-155139687D01*
X243547163Y-155139687D01*
X243547164Y-155139688D01*
X243649546Y-155167121D01*
X243680813Y-155175499D01*
X243680814Y-155175500D01*
X243680817Y-155175500D01*
X243819186Y-155175500D01*
X243819186Y-155175499D01*
X243952836Y-155139688D01*
X244072665Y-155070505D01*
X244144368Y-154998802D01*
X270607353Y-154998802D01*
X270656896Y-155048344D01*
X270660141Y-155051927D01*
X270685193Y-155082484D01*
X270688070Y-155086370D01*
X270688351Y-155086792D01*
X270688787Y-155087382D01*
X270702006Y-155107273D01*
X270716483Y-155128970D01*
X270719212Y-155133589D01*
X270725387Y-155145484D01*
X270736897Y-155167121D01*
X270738954Y-155171495D01*
X270739192Y-155172073D01*
X270739420Y-155172513D01*
X270741625Y-155177397D01*
X270745547Y-155187529D01*
X270766888Y-155239429D01*
X270794960Y-155307199D01*
X270795434Y-155308526D01*
X271035444Y-155068517D01*
X271739721Y-155068517D01*
X271988623Y-155317419D01*
X272237525Y-155068517D01*
X271988623Y-154819615D01*
X271739721Y-155068517D01*
X271035444Y-155068517D01*
X270786541Y-154819614D01*
X270607353Y-154998802D01*
X244144368Y-154998802D01*
X244170505Y-154972665D01*
X244239688Y-154852836D01*
X244275499Y-154719186D01*
X244275500Y-154719186D01*
X244275500Y-154580814D01*
X244275499Y-154580813D01*
X244245185Y-154467679D01*
X244239688Y-154447164D01*
X244239687Y-154447163D01*
X244239687Y-154447161D01*
X244220538Y-154413994D01*
X244746367Y-154413994D01*
X244760753Y-154467679D01*
X244761482Y-154470804D01*
X244766593Y-154496502D01*
X244767115Y-154499667D01*
X244771370Y-154532001D01*
X244771684Y-154535191D01*
X244772460Y-154547049D01*
X244937438Y-154712027D01*
X244946116Y-154712049D01*
X245190690Y-154467475D01*
X245894968Y-154467475D01*
X246142611Y-154715118D01*
X246145123Y-154715124D01*
X246392771Y-154467476D01*
X247097050Y-154467476D01*
X247345951Y-154716377D01*
X247594852Y-154467476D01*
X248299132Y-154467476D01*
X248548033Y-154716377D01*
X248796934Y-154467476D01*
X249501213Y-154467476D01*
X249750114Y-154716377D01*
X249999015Y-154467476D01*
X250703295Y-154467476D01*
X250952196Y-154716377D01*
X251201097Y-154467476D01*
X251905376Y-154467476D01*
X252154277Y-154716377D01*
X252403178Y-154467476D01*
X253107458Y-154467476D01*
X253356359Y-154716377D01*
X253605260Y-154467476D01*
X254309539Y-154467476D01*
X254558441Y-154716378D01*
X254807343Y-154467476D01*
X255511621Y-154467476D01*
X255760523Y-154716378D01*
X256009425Y-154467476D01*
X256713702Y-154467476D01*
X256962604Y-154716378D01*
X257211506Y-154467476D01*
X257915784Y-154467476D01*
X258164686Y-154716378D01*
X258413588Y-154467476D01*
X259117865Y-154467476D01*
X259366767Y-154716378D01*
X259615669Y-154467476D01*
X260319947Y-154467476D01*
X260568849Y-154716378D01*
X260817751Y-154467476D01*
X261522028Y-154467476D01*
X261770930Y-154716378D01*
X262019832Y-154467476D01*
X262724110Y-154467476D01*
X262973012Y-154716378D01*
X263221914Y-154467476D01*
X263926191Y-154467476D01*
X264175093Y-154716378D01*
X264423995Y-154467476D01*
X265128273Y-154467476D01*
X265377175Y-154716378D01*
X265626077Y-154467476D01*
X266330354Y-154467476D01*
X266579256Y-154716378D01*
X266828159Y-154467476D01*
X267532436Y-154467476D01*
X267781338Y-154716378D01*
X268030240Y-154467476D01*
X268734518Y-154467476D01*
X268983420Y-154716378D01*
X269232322Y-154467476D01*
X269936599Y-154467476D01*
X270185501Y-154716378D01*
X270434403Y-154467476D01*
X271138681Y-154467476D01*
X271387583Y-154716378D01*
X271636485Y-154467476D01*
X271387583Y-154218574D01*
X271138681Y-154467476D01*
X270434403Y-154467476D01*
X270185501Y-154218574D01*
X269936599Y-154467476D01*
X269232322Y-154467476D01*
X268983420Y-154218574D01*
X268734518Y-154467476D01*
X268030240Y-154467476D01*
X267781338Y-154218574D01*
X267532436Y-154467476D01*
X266828159Y-154467476D01*
X266579256Y-154218573D01*
X266330354Y-154467476D01*
X265626077Y-154467476D01*
X265377175Y-154218574D01*
X265128273Y-154467476D01*
X264423995Y-154467476D01*
X264175093Y-154218573D01*
X263926191Y-154467476D01*
X263221914Y-154467476D01*
X262973012Y-154218574D01*
X262724110Y-154467476D01*
X262019832Y-154467476D01*
X261770930Y-154218574D01*
X261522028Y-154467476D01*
X260817751Y-154467476D01*
X260568849Y-154218574D01*
X260319947Y-154467476D01*
X259615669Y-154467476D01*
X259366767Y-154218574D01*
X259117865Y-154467476D01*
X258413588Y-154467476D01*
X258164686Y-154218574D01*
X257915784Y-154467476D01*
X257211506Y-154467476D01*
X256962604Y-154218574D01*
X256713702Y-154467476D01*
X256009425Y-154467476D01*
X255760523Y-154218574D01*
X255511621Y-154467476D01*
X254807343Y-154467476D01*
X254558441Y-154218574D01*
X254309539Y-154467476D01*
X253605260Y-154467476D01*
X253605261Y-154467475D01*
X253356360Y-154218574D01*
X253107458Y-154467476D01*
X252403178Y-154467476D01*
X252403179Y-154467475D01*
X252154278Y-154218574D01*
X251905376Y-154467476D01*
X251201097Y-154467476D01*
X251201098Y-154467475D01*
X250952197Y-154218574D01*
X250703295Y-154467476D01*
X249999015Y-154467476D01*
X249999016Y-154467475D01*
X249750115Y-154218574D01*
X249501213Y-154467476D01*
X248796934Y-154467476D01*
X248796935Y-154467475D01*
X248548034Y-154218574D01*
X248299132Y-154467476D01*
X247594852Y-154467476D01*
X247594853Y-154467475D01*
X247345952Y-154218574D01*
X247097050Y-154467476D01*
X246392771Y-154467476D01*
X246392772Y-154467475D01*
X246143870Y-154218573D01*
X245894968Y-154467475D01*
X245190690Y-154467475D01*
X244941788Y-154218573D01*
X244746367Y-154413994D01*
X244220538Y-154413994D01*
X244170504Y-154327334D01*
X244072668Y-154229498D01*
X244072665Y-154229495D01*
X244072661Y-154229493D01*
X244072659Y-154229491D01*
X244025000Y-154201975D01*
X244002170Y-154172222D01*
X244000500Y-154159540D01*
X244000500Y-153951052D01*
X244498500Y-153951052D01*
X244501766Y-153954318D01*
X244589648Y-153866436D01*
X245293928Y-153866436D01*
X245542830Y-154115338D01*
X245791732Y-153866436D01*
X246496009Y-153866436D01*
X246744911Y-154115338D01*
X246993813Y-153866436D01*
X247698091Y-153866436D01*
X247946993Y-154115338D01*
X248195895Y-153866436D01*
X248900172Y-153866436D01*
X249149074Y-154115338D01*
X249397976Y-153866436D01*
X250102254Y-153866436D01*
X250351156Y-154115338D01*
X250600058Y-153866436D01*
X251304335Y-153866436D01*
X251553237Y-154115338D01*
X251802139Y-153866436D01*
X252506417Y-153866436D01*
X252755319Y-154115338D01*
X253004221Y-153866436D01*
X253708498Y-153866436D01*
X253957400Y-154115338D01*
X254206302Y-153866436D01*
X254910580Y-153866436D01*
X255159482Y-154115338D01*
X255408384Y-153866436D01*
X256112661Y-153866436D01*
X256361563Y-154115338D01*
X256610466Y-153866436D01*
X257314743Y-153866436D01*
X257563645Y-154115338D01*
X257812547Y-153866436D01*
X258516825Y-153866436D01*
X258765727Y-154115338D01*
X259014629Y-153866436D01*
X259718906Y-153866436D01*
X259967808Y-154115338D01*
X260216710Y-153866436D01*
X260920988Y-153866436D01*
X261169890Y-154115338D01*
X261418792Y-153866436D01*
X262123069Y-153866436D01*
X262371971Y-154115338D01*
X262620873Y-153866436D01*
X263325151Y-153866436D01*
X263574053Y-154115338D01*
X263822955Y-153866436D01*
X264527232Y-153866436D01*
X264776134Y-154115338D01*
X265025036Y-153866436D01*
X265729314Y-153866436D01*
X265978216Y-154115338D01*
X266227118Y-153866436D01*
X266931395Y-153866436D01*
X267180297Y-154115338D01*
X267429199Y-153866436D01*
X268133477Y-153866436D01*
X268382379Y-154115338D01*
X268631281Y-153866436D01*
X269335558Y-153866436D01*
X269584460Y-154115338D01*
X269833362Y-153866436D01*
X270537640Y-153866436D01*
X270786542Y-154115338D01*
X271035444Y-153866436D01*
X271739721Y-153866436D01*
X271988623Y-154115338D01*
X272237525Y-153866436D01*
X271988623Y-153617534D01*
X271739721Y-153866436D01*
X271035444Y-153866436D01*
X270786542Y-153617534D01*
X270537640Y-153866436D01*
X269833362Y-153866436D01*
X269584460Y-153617534D01*
X269335558Y-153866436D01*
X268631281Y-153866436D01*
X268382379Y-153617534D01*
X268133477Y-153866436D01*
X267429199Y-153866436D01*
X267180297Y-153617534D01*
X266931395Y-153866436D01*
X266227118Y-153866436D01*
X265978216Y-153617534D01*
X265729314Y-153866436D01*
X265025036Y-153866436D01*
X264776134Y-153617534D01*
X264527232Y-153866436D01*
X263822955Y-153866436D01*
X263574053Y-153617534D01*
X263325151Y-153866436D01*
X262620873Y-153866436D01*
X262371971Y-153617534D01*
X262123069Y-153866436D01*
X261418792Y-153866436D01*
X261169890Y-153617534D01*
X260920988Y-153866436D01*
X260216710Y-153866436D01*
X259967808Y-153617534D01*
X259718906Y-153866436D01*
X259014629Y-153866436D01*
X258765727Y-153617534D01*
X258516825Y-153866436D01*
X257812547Y-153866436D01*
X257563645Y-153617534D01*
X257314743Y-153866436D01*
X256610466Y-153866436D01*
X256361563Y-153617533D01*
X256112661Y-153866436D01*
X255408384Y-153866436D01*
X255159482Y-153617534D01*
X254910580Y-153866436D01*
X254206302Y-153866436D01*
X253957400Y-153617533D01*
X253708498Y-153866436D01*
X253004221Y-153866436D01*
X252755319Y-153617534D01*
X252506417Y-153866436D01*
X251802139Y-153866436D01*
X251553237Y-153617534D01*
X251304335Y-153866436D01*
X250600058Y-153866436D01*
X250351156Y-153617534D01*
X250102254Y-153866436D01*
X249397976Y-153866436D01*
X249149074Y-153617534D01*
X248900172Y-153866436D01*
X248195895Y-153866436D01*
X247946993Y-153617534D01*
X247698091Y-153866436D01*
X246993813Y-153866436D01*
X246744911Y-153617534D01*
X246496009Y-153866436D01*
X245791732Y-153866436D01*
X245542830Y-153617534D01*
X245293928Y-153866436D01*
X244589648Y-153866436D01*
X244589649Y-153866435D01*
X244498500Y-153775286D01*
X244498500Y-153951052D01*
X244000500Y-153951052D01*
X244000500Y-153265395D01*
X244692887Y-153265395D01*
X244941789Y-153514297D01*
X245190691Y-153265395D01*
X245894968Y-153265395D01*
X246143870Y-153514297D01*
X246392773Y-153265395D01*
X247097050Y-153265395D01*
X247345952Y-153514297D01*
X247594854Y-153265395D01*
X248299132Y-153265395D01*
X248548034Y-153514297D01*
X248796936Y-153265395D01*
X249501213Y-153265395D01*
X249750115Y-153514297D01*
X249999017Y-153265395D01*
X250703295Y-153265395D01*
X250952197Y-153514297D01*
X251201099Y-153265395D01*
X251905376Y-153265395D01*
X252154278Y-153514297D01*
X252403180Y-153265395D01*
X253107458Y-153265395D01*
X253356360Y-153514297D01*
X253605262Y-153265395D01*
X254309539Y-153265395D01*
X254558441Y-153514297D01*
X254807343Y-153265395D01*
X255511621Y-153265395D01*
X255760523Y-153514297D01*
X256009425Y-153265395D01*
X256713702Y-153265395D01*
X256962604Y-153514297D01*
X257211506Y-153265395D01*
X257915784Y-153265395D01*
X258164686Y-153514297D01*
X258413588Y-153265395D01*
X259117865Y-153265395D01*
X259366767Y-153514297D01*
X259615669Y-153265395D01*
X260319947Y-153265395D01*
X260568849Y-153514297D01*
X260817751Y-153265395D01*
X261522028Y-153265395D01*
X261770930Y-153514297D01*
X262019832Y-153265395D01*
X262724110Y-153265395D01*
X262973012Y-153514297D01*
X263221914Y-153265395D01*
X263926191Y-153265395D01*
X264175093Y-153514297D01*
X264423995Y-153265395D01*
X265128273Y-153265395D01*
X265377175Y-153514297D01*
X265626077Y-153265395D01*
X266330354Y-153265395D01*
X266579256Y-153514297D01*
X266828159Y-153265395D01*
X267532436Y-153265395D01*
X267781338Y-153514297D01*
X268030240Y-153265395D01*
X268734518Y-153265395D01*
X268983420Y-153514297D01*
X269232322Y-153265395D01*
X269936599Y-153265395D01*
X270185501Y-153514297D01*
X270434403Y-153265395D01*
X271138681Y-153265395D01*
X271387583Y-153514297D01*
X271636485Y-153265395D01*
X271387583Y-153016493D01*
X271138681Y-153265395D01*
X270434403Y-153265395D01*
X270185501Y-153016493D01*
X269936599Y-153265395D01*
X269232322Y-153265395D01*
X268983420Y-153016493D01*
X268734518Y-153265395D01*
X268030240Y-153265395D01*
X267781338Y-153016493D01*
X267532436Y-153265395D01*
X266828159Y-153265395D01*
X266579256Y-153016492D01*
X266330354Y-153265395D01*
X265626077Y-153265395D01*
X265377175Y-153016493D01*
X265128273Y-153265395D01*
X264423995Y-153265395D01*
X264175093Y-153016492D01*
X263926191Y-153265395D01*
X263221914Y-153265395D01*
X262973012Y-153016493D01*
X262724110Y-153265395D01*
X262019832Y-153265395D01*
X261770930Y-153016493D01*
X261522028Y-153265395D01*
X260817751Y-153265395D01*
X260568849Y-153016493D01*
X260319947Y-153265395D01*
X259615669Y-153265395D01*
X259366767Y-153016493D01*
X259117865Y-153265395D01*
X258413588Y-153265395D01*
X258164686Y-153016493D01*
X257915784Y-153265395D01*
X257211506Y-153265395D01*
X256962604Y-153016493D01*
X256713702Y-153265395D01*
X256009425Y-153265395D01*
X255760523Y-153016493D01*
X255511621Y-153265395D01*
X254807343Y-153265395D01*
X254558441Y-153016493D01*
X254309539Y-153265395D01*
X253605262Y-153265395D01*
X253356360Y-153016493D01*
X253107458Y-153265395D01*
X252403180Y-153265395D01*
X252154278Y-153016493D01*
X251905376Y-153265395D01*
X251201099Y-153265395D01*
X250952197Y-153016493D01*
X250703295Y-153265395D01*
X249999017Y-153265395D01*
X249750115Y-153016493D01*
X249501213Y-153265395D01*
X248796936Y-153265395D01*
X248548034Y-153016493D01*
X248299132Y-153265395D01*
X247594854Y-153265395D01*
X247345952Y-153016493D01*
X247097050Y-153265395D01*
X246392773Y-153265395D01*
X246143870Y-153016492D01*
X245894968Y-153265395D01*
X245190691Y-153265395D01*
X244941789Y-153016493D01*
X244692887Y-153265395D01*
X244000500Y-153265395D01*
X244000500Y-152755504D01*
X244498500Y-152755504D01*
X244589650Y-152664354D01*
X245293928Y-152664354D01*
X245542830Y-152913256D01*
X245791732Y-152664354D01*
X246496009Y-152664354D01*
X246744911Y-152913256D01*
X246993813Y-152664354D01*
X247698091Y-152664354D01*
X247946993Y-152913256D01*
X248195895Y-152664354D01*
X248900172Y-152664354D01*
X249149074Y-152913256D01*
X249397976Y-152664354D01*
X250102254Y-152664354D01*
X250351156Y-152913256D01*
X250600058Y-152664354D01*
X251304335Y-152664354D01*
X251553237Y-152913256D01*
X251802139Y-152664354D01*
X252506417Y-152664354D01*
X252755319Y-152913256D01*
X253004221Y-152664354D01*
X253708498Y-152664354D01*
X253957400Y-152913256D01*
X254206302Y-152664354D01*
X254910580Y-152664354D01*
X255159482Y-152913256D01*
X255408384Y-152664354D01*
X256112661Y-152664354D01*
X256361563Y-152913256D01*
X256610466Y-152664354D01*
X257314743Y-152664354D01*
X257563645Y-152913256D01*
X257812547Y-152664354D01*
X258516825Y-152664354D01*
X258765727Y-152913256D01*
X259014629Y-152664354D01*
X259718906Y-152664354D01*
X259967808Y-152913256D01*
X260216710Y-152664354D01*
X260920988Y-152664354D01*
X261169890Y-152913256D01*
X261418792Y-152664354D01*
X262123069Y-152664354D01*
X262371971Y-152913256D01*
X262620873Y-152664354D01*
X263325151Y-152664354D01*
X263574053Y-152913256D01*
X263822955Y-152664354D01*
X264527232Y-152664354D01*
X264776134Y-152913256D01*
X265025036Y-152664354D01*
X265729314Y-152664354D01*
X265978216Y-152913256D01*
X266227118Y-152664354D01*
X266931395Y-152664354D01*
X267180297Y-152913256D01*
X267429199Y-152664354D01*
X268133477Y-152664354D01*
X268382379Y-152913256D01*
X268631281Y-152664354D01*
X269335558Y-152664354D01*
X269584460Y-152913256D01*
X269833362Y-152664354D01*
X270537640Y-152664354D01*
X270786542Y-152913256D01*
X271035444Y-152664354D01*
X271739721Y-152664354D01*
X271988623Y-152913256D01*
X272237525Y-152664354D01*
X271988623Y-152415452D01*
X271739721Y-152664354D01*
X271035444Y-152664354D01*
X270786542Y-152415452D01*
X270537640Y-152664354D01*
X269833362Y-152664354D01*
X269584460Y-152415452D01*
X269335558Y-152664354D01*
X268631281Y-152664354D01*
X268382379Y-152415452D01*
X268133477Y-152664354D01*
X267429199Y-152664354D01*
X267180297Y-152415452D01*
X266931395Y-152664354D01*
X266227118Y-152664354D01*
X265978216Y-152415452D01*
X265729314Y-152664354D01*
X265025036Y-152664354D01*
X264776134Y-152415452D01*
X264527232Y-152664354D01*
X263822955Y-152664354D01*
X263574053Y-152415452D01*
X263325151Y-152664354D01*
X262620873Y-152664354D01*
X262371971Y-152415452D01*
X262123069Y-152664354D01*
X261418792Y-152664354D01*
X261169890Y-152415452D01*
X260920988Y-152664354D01*
X260216710Y-152664354D01*
X259967808Y-152415452D01*
X259718906Y-152664354D01*
X259014629Y-152664354D01*
X258765727Y-152415452D01*
X258516825Y-152664354D01*
X257812547Y-152664354D01*
X257563645Y-152415452D01*
X257314743Y-152664354D01*
X256610466Y-152664354D01*
X256361563Y-152415451D01*
X256112661Y-152664354D01*
X255408384Y-152664354D01*
X255159482Y-152415452D01*
X254910580Y-152664354D01*
X254206302Y-152664354D01*
X253957400Y-152415451D01*
X253708498Y-152664354D01*
X253004221Y-152664354D01*
X252755319Y-152415452D01*
X252506417Y-152664354D01*
X251802139Y-152664354D01*
X251553237Y-152415452D01*
X251304335Y-152664354D01*
X250600058Y-152664354D01*
X250351156Y-152415452D01*
X250102254Y-152664354D01*
X249397976Y-152664354D01*
X249149074Y-152415452D01*
X248900172Y-152664354D01*
X248195895Y-152664354D01*
X247946993Y-152415452D01*
X247698091Y-152664354D01*
X246993813Y-152664354D01*
X246744911Y-152415452D01*
X246496009Y-152664354D01*
X245791732Y-152664354D01*
X245542830Y-152415452D01*
X245293928Y-152664354D01*
X244589650Y-152664354D01*
X244498500Y-152573204D01*
X244498500Y-152755504D01*
X244000500Y-152755504D01*
X244000500Y-152063313D01*
X244692887Y-152063313D01*
X244941789Y-152312215D01*
X245190691Y-152063313D01*
X245894968Y-152063313D01*
X246143870Y-152312215D01*
X246392773Y-152063313D01*
X247097050Y-152063313D01*
X247345952Y-152312215D01*
X247594854Y-152063313D01*
X248299132Y-152063313D01*
X248548034Y-152312215D01*
X248796936Y-152063313D01*
X249501213Y-152063313D01*
X249750115Y-152312215D01*
X249999017Y-152063313D01*
X250703295Y-152063313D01*
X250952197Y-152312215D01*
X251201099Y-152063313D01*
X251905376Y-152063313D01*
X252154278Y-152312215D01*
X252403180Y-152063313D01*
X253107458Y-152063313D01*
X253356360Y-152312215D01*
X253605262Y-152063313D01*
X254309539Y-152063313D01*
X254558441Y-152312215D01*
X254807343Y-152063313D01*
X255511621Y-152063313D01*
X255760523Y-152312215D01*
X256009425Y-152063313D01*
X256713702Y-152063313D01*
X256962604Y-152312215D01*
X257211506Y-152063313D01*
X257915784Y-152063313D01*
X258164686Y-152312215D01*
X258413588Y-152063313D01*
X259117865Y-152063313D01*
X259366767Y-152312215D01*
X259615669Y-152063313D01*
X260319947Y-152063313D01*
X260568849Y-152312215D01*
X260817751Y-152063313D01*
X261522028Y-152063313D01*
X261770930Y-152312215D01*
X262019832Y-152063313D01*
X262724110Y-152063313D01*
X262973012Y-152312215D01*
X263221914Y-152063313D01*
X263926191Y-152063313D01*
X264175093Y-152312215D01*
X264423995Y-152063313D01*
X265128273Y-152063313D01*
X265377175Y-152312215D01*
X265626077Y-152063313D01*
X266330354Y-152063313D01*
X266579256Y-152312215D01*
X266828159Y-152063313D01*
X267532436Y-152063313D01*
X267781338Y-152312215D01*
X268030240Y-152063313D01*
X268734518Y-152063313D01*
X268983420Y-152312215D01*
X269232322Y-152063313D01*
X269936599Y-152063313D01*
X270185501Y-152312215D01*
X270434403Y-152063313D01*
X271138681Y-152063313D01*
X271387583Y-152312215D01*
X271636485Y-152063313D01*
X271387583Y-151814411D01*
X271138681Y-152063313D01*
X270434403Y-152063313D01*
X270185501Y-151814411D01*
X269936599Y-152063313D01*
X269232322Y-152063313D01*
X268983420Y-151814411D01*
X268734518Y-152063313D01*
X268030240Y-152063313D01*
X267781338Y-151814411D01*
X267532436Y-152063313D01*
X266828159Y-152063313D01*
X266579256Y-151814410D01*
X266330354Y-152063313D01*
X265626077Y-152063313D01*
X265377175Y-151814411D01*
X265128273Y-152063313D01*
X264423995Y-152063313D01*
X264175093Y-151814410D01*
X263926191Y-152063313D01*
X263221914Y-152063313D01*
X262973012Y-151814411D01*
X262724110Y-152063313D01*
X262019832Y-152063313D01*
X261770930Y-151814411D01*
X261522028Y-152063313D01*
X260817751Y-152063313D01*
X260568849Y-151814411D01*
X260319947Y-152063313D01*
X259615669Y-152063313D01*
X259366767Y-151814411D01*
X259117865Y-152063313D01*
X258413588Y-152063313D01*
X258164686Y-151814411D01*
X257915784Y-152063313D01*
X257211506Y-152063313D01*
X256962604Y-151814411D01*
X256713702Y-152063313D01*
X256009425Y-152063313D01*
X255760523Y-151814411D01*
X255511621Y-152063313D01*
X254807343Y-152063313D01*
X254558441Y-151814411D01*
X254309539Y-152063313D01*
X253605262Y-152063313D01*
X253356360Y-151814411D01*
X253107458Y-152063313D01*
X252403180Y-152063313D01*
X252154278Y-151814411D01*
X251905376Y-152063313D01*
X251201099Y-152063313D01*
X250952197Y-151814411D01*
X250703295Y-152063313D01*
X249999017Y-152063313D01*
X249750115Y-151814411D01*
X249501213Y-152063313D01*
X248796936Y-152063313D01*
X248548034Y-151814411D01*
X248299132Y-152063313D01*
X247594854Y-152063313D01*
X247345952Y-151814411D01*
X247097050Y-152063313D01*
X246392773Y-152063313D01*
X246143870Y-151814410D01*
X245894968Y-152063313D01*
X245190691Y-152063313D01*
X244941789Y-151814411D01*
X244692887Y-152063313D01*
X244000500Y-152063313D01*
X244000500Y-149475174D01*
X244000499Y-149475170D01*
X243962364Y-149383103D01*
X243962362Y-149383101D01*
X243962362Y-149383100D01*
X243889107Y-149309846D01*
X243889100Y-149309840D01*
X242911429Y-148332167D01*
X243615706Y-148332167D01*
X243854527Y-148570989D01*
X243850122Y-148318581D01*
X243739707Y-148208166D01*
X243615706Y-148332167D01*
X242911429Y-148332167D01*
X242641899Y-148062637D01*
X242549829Y-148024500D01*
X242549828Y-148024500D01*
X240890459Y-148024500D01*
X240855811Y-148010148D01*
X240848025Y-148000001D01*
X240825180Y-147960432D01*
X240820507Y-147952338D01*
X240820502Y-147952332D01*
X240722665Y-147854495D01*
X240602838Y-147785312D01*
X240602834Y-147785311D01*
X240469186Y-147749500D01*
X240469183Y-147749500D01*
X240330817Y-147749500D01*
X240330814Y-147749500D01*
X240197165Y-147785311D01*
X240197161Y-147785312D01*
X240077334Y-147854495D01*
X240077334Y-147854496D01*
X239979496Y-147952334D01*
X239979495Y-147952334D01*
X239910312Y-148072161D01*
X239910311Y-148072165D01*
X239874500Y-148205813D01*
X237725682Y-148205813D01*
X237726061Y-148011070D01*
X237726093Y-148009408D01*
X237727714Y-147964767D01*
X237727713Y-147964763D01*
X237727014Y-147960432D01*
X237726169Y-147956138D01*
X237713119Y-147924459D01*
X237709127Y-147914770D01*
X237708549Y-147913296D01*
X237692942Y-147871376D01*
X237692940Y-147871374D01*
X237690635Y-147867637D01*
X237688211Y-147863993D01*
X237656678Y-147832337D01*
X237655512Y-147831126D01*
X237625078Y-147798400D01*
X237621528Y-147795838D01*
X237617881Y-147793390D01*
X237576621Y-147776206D01*
X237575079Y-147775532D01*
X237534454Y-147756951D01*
X237534452Y-147756950D01*
X237534449Y-147756949D01*
X237530195Y-147755941D01*
X237527466Y-147755393D01*
X238182072Y-147755393D01*
X238195952Y-147789083D01*
X238197564Y-147793615D01*
X238208900Y-147831248D01*
X238210059Y-147835916D01*
X238213143Y-147851582D01*
X238214445Y-147856509D01*
X238215445Y-147861220D01*
X238217282Y-147872600D01*
X238219527Y-147884000D01*
X238220225Y-147888774D01*
X238220714Y-147893860D01*
X238223248Y-147909550D01*
X238223781Y-147914329D01*
X238226213Y-147953562D01*
X238226275Y-147958372D01*
X238224785Y-147999374D01*
X238330341Y-148104930D01*
X238579243Y-147856028D01*
X239283520Y-147856028D01*
X239416914Y-147989422D01*
X239433501Y-147927525D01*
X239434431Y-147924459D01*
X239442845Y-147899670D01*
X239443974Y-147896670D01*
X239456453Y-147866538D01*
X239457777Y-147863616D01*
X239469364Y-147840118D01*
X239470876Y-147837289D01*
X239532170Y-147731126D01*
X243014666Y-147731126D01*
X243263568Y-147980028D01*
X243387568Y-147856027D01*
X243138666Y-147607125D01*
X243014666Y-147731126D01*
X239532170Y-147731126D01*
X239556367Y-147689216D01*
X239558059Y-147686494D01*
X239572604Y-147664725D01*
X239574471Y-147662119D01*
X239580090Y-147654794D01*
X239532422Y-147607126D01*
X239283520Y-147856028D01*
X238579243Y-147856028D01*
X238330340Y-147607125D01*
X238182072Y-147755393D01*
X237527466Y-147755393D01*
X237521157Y-147754126D01*
X237521349Y-147753165D01*
X237491317Y-147740652D01*
X237477038Y-147705973D01*
X237477044Y-147705370D01*
X237484401Y-147254987D01*
X238682479Y-147254987D01*
X238931381Y-147503889D01*
X239180283Y-147254987D01*
X239884561Y-147254987D01*
X239971025Y-147341451D01*
X239988616Y-147332777D01*
X239991538Y-147331453D01*
X240021670Y-147318974D01*
X240024670Y-147317845D01*
X240049459Y-147309431D01*
X240052526Y-147308501D01*
X240217680Y-147264247D01*
X240220804Y-147263518D01*
X240246502Y-147258407D01*
X240249667Y-147257885D01*
X240271689Y-147254987D01*
X241086642Y-147254987D01*
X241335544Y-147503889D01*
X241584446Y-147254987D01*
X242288724Y-147254987D01*
X242537626Y-147503889D01*
X242786528Y-147254987D01*
X243490805Y-147254987D01*
X243739707Y-147503889D01*
X243834254Y-147409341D01*
X243828770Y-147095148D01*
X243739707Y-147006085D01*
X243490805Y-147254987D01*
X242786528Y-147254987D01*
X242537626Y-147006085D01*
X242288724Y-147254987D01*
X241584446Y-147254987D01*
X241335544Y-147006085D01*
X241086642Y-147254987D01*
X240271689Y-147254987D01*
X240282001Y-147253630D01*
X240285191Y-147253316D01*
X240311313Y-147251605D01*
X240314516Y-147251500D01*
X240378878Y-147251500D01*
X240133463Y-147006085D01*
X239884561Y-147254987D01*
X239180283Y-147254987D01*
X238931381Y-147006085D01*
X238682479Y-147254987D01*
X237484401Y-147254987D01*
X237493879Y-146674754D01*
X238102247Y-146674754D01*
X238330341Y-146902848D01*
X238579243Y-146653946D01*
X239283520Y-146653946D01*
X239532422Y-146902848D01*
X239781324Y-146653946D01*
X240485602Y-146653946D01*
X240734504Y-146902848D01*
X240983406Y-146653946D01*
X241687683Y-146653946D01*
X241936585Y-146902848D01*
X242185487Y-146653946D01*
X242889765Y-146653946D01*
X243138667Y-146902848D01*
X243387569Y-146653946D01*
X243138667Y-146405044D01*
X242889765Y-146653946D01*
X242185487Y-146653946D01*
X241936585Y-146405044D01*
X241687683Y-146653946D01*
X240983406Y-146653946D01*
X240734504Y-146405044D01*
X240485602Y-146653946D01*
X239781324Y-146653946D01*
X239532422Y-146405044D01*
X239283520Y-146653946D01*
X238579243Y-146653946D01*
X238330340Y-146405043D01*
X238151248Y-146584135D01*
X238141387Y-146607818D01*
X238139322Y-146612164D01*
X238120727Y-146646792D01*
X238118246Y-146650913D01*
X238102247Y-146674754D01*
X237493879Y-146674754D01*
X237495959Y-146547390D01*
X237510873Y-146512984D01*
X237526287Y-146502887D01*
X237528326Y-146502046D01*
X237528327Y-146502047D01*
X237566847Y-146486178D01*
X237569319Y-146485237D01*
X237608655Y-146471494D01*
X237608658Y-146471491D01*
X237612815Y-146469042D01*
X237612859Y-146469117D01*
X237616497Y-146466838D01*
X237616449Y-146466765D01*
X237620466Y-146464091D01*
X237620470Y-146464090D01*
X237649994Y-146434679D01*
X237651890Y-146432889D01*
X237682992Y-146405122D01*
X237682994Y-146405118D01*
X237685899Y-146401263D01*
X237685969Y-146401315D01*
X237688455Y-146397821D01*
X237688382Y-146397772D01*
X237691071Y-146393763D01*
X237691071Y-146393762D01*
X237691074Y-146393760D01*
X237707105Y-146355266D01*
X237708162Y-146352913D01*
X237726271Y-146315356D01*
X237726271Y-146315353D01*
X237726272Y-146315352D01*
X237727480Y-146310679D01*
X237727564Y-146310700D01*
X237728525Y-146306514D01*
X237728439Y-146306497D01*
X237729390Y-146301765D01*
X237729470Y-146260118D01*
X237729548Y-146257442D01*
X237731903Y-146215859D01*
X237731902Y-146215856D01*
X237731230Y-146211074D01*
X237731314Y-146211062D01*
X237729586Y-146200817D01*
X237729874Y-146052906D01*
X238682479Y-146052906D01*
X238931381Y-146301808D01*
X239180283Y-146052906D01*
X239884561Y-146052906D01*
X240133463Y-146301808D01*
X240382365Y-146052906D01*
X241086642Y-146052906D01*
X241335544Y-146301808D01*
X241584446Y-146052906D01*
X242288724Y-146052906D01*
X242537626Y-146301808D01*
X242786528Y-146052906D01*
X243490805Y-146052906D01*
X243739707Y-146301808D01*
X243813635Y-146227879D01*
X243807418Y-145871715D01*
X243739707Y-145804004D01*
X243490805Y-146052906D01*
X242786528Y-146052906D01*
X242537626Y-145804004D01*
X242288724Y-146052906D01*
X241584446Y-146052906D01*
X241335544Y-145804004D01*
X241086642Y-146052906D01*
X240382365Y-146052906D01*
X240133463Y-145804004D01*
X239884561Y-146052906D01*
X239180283Y-146052906D01*
X238931381Y-145804004D01*
X238682479Y-146052906D01*
X237729874Y-146052906D01*
X237730757Y-145599182D01*
X238228756Y-145599182D01*
X238330341Y-145700767D01*
X238579243Y-145451865D01*
X239283520Y-145451865D01*
X239532422Y-145700767D01*
X239781324Y-145451865D01*
X240485602Y-145451865D01*
X240734504Y-145700767D01*
X240983406Y-145451865D01*
X241687683Y-145451865D01*
X241936585Y-145700767D01*
X242185487Y-145451865D01*
X242889765Y-145451865D01*
X243138667Y-145700767D01*
X243387569Y-145451865D01*
X243138667Y-145202963D01*
X242889765Y-145451865D01*
X242185487Y-145451865D01*
X241936585Y-145202963D01*
X241687683Y-145451865D01*
X240983406Y-145451865D01*
X240734504Y-145202963D01*
X240485602Y-145451865D01*
X239781324Y-145451865D01*
X239532422Y-145202963D01*
X239283520Y-145451865D01*
X238579243Y-145451865D01*
X238330340Y-145202962D01*
X238229331Y-145303971D01*
X238228756Y-145599182D01*
X237730757Y-145599182D01*
X237732214Y-144850824D01*
X238682479Y-144850824D01*
X238931381Y-145099726D01*
X239180283Y-144850824D01*
X239884561Y-144850824D01*
X240133463Y-145099726D01*
X240382365Y-144850824D01*
X241086642Y-144850824D01*
X241335544Y-145099726D01*
X241584446Y-144850824D01*
X242288724Y-144850824D01*
X242537626Y-145099726D01*
X242786528Y-144850824D01*
X243490805Y-144850824D01*
X243739707Y-145099726D01*
X243793016Y-145046416D01*
X243786067Y-144648282D01*
X243739707Y-144601922D01*
X243490805Y-144850824D01*
X242786528Y-144850824D01*
X242537626Y-144601922D01*
X242288724Y-144850824D01*
X241584446Y-144850824D01*
X241335544Y-144601922D01*
X241086642Y-144850824D01*
X240382365Y-144850824D01*
X240133463Y-144601922D01*
X239884561Y-144850824D01*
X239180283Y-144850824D01*
X238931381Y-144601922D01*
X238682479Y-144850824D01*
X237732214Y-144850824D01*
X237733093Y-144399436D01*
X238231092Y-144399436D01*
X238330341Y-144498685D01*
X238579243Y-144249783D01*
X239283520Y-144249783D01*
X239532422Y-144498685D01*
X239781324Y-144249783D01*
X240485602Y-144249783D01*
X240734504Y-144498685D01*
X240983406Y-144249783D01*
X241687683Y-144249783D01*
X241936585Y-144498685D01*
X242185487Y-144249783D01*
X242889765Y-144249783D01*
X243138667Y-144498685D01*
X243387569Y-144249783D01*
X243138667Y-144000881D01*
X242889765Y-144249783D01*
X242185487Y-144249783D01*
X241936585Y-144000881D01*
X241687683Y-144249783D01*
X240983406Y-144249783D01*
X240734504Y-144000881D01*
X240485602Y-144249783D01*
X239781324Y-144249783D01*
X239532422Y-144000881D01*
X239283520Y-144249783D01*
X238579243Y-144249783D01*
X238330340Y-144000880D01*
X238231676Y-144099544D01*
X238231092Y-144399436D01*
X237733093Y-144399436D01*
X237734555Y-143648743D01*
X238682479Y-143648743D01*
X238931381Y-143897645D01*
X239180283Y-143648743D01*
X239884561Y-143648743D01*
X240133463Y-143897645D01*
X240382365Y-143648743D01*
X241086642Y-143648743D01*
X241335544Y-143897645D01*
X241584446Y-143648743D01*
X242288724Y-143648743D01*
X242537626Y-143897645D01*
X242786528Y-143648743D01*
X243490805Y-143648743D01*
X243739706Y-143897644D01*
X243772396Y-143864955D01*
X243764715Y-143424849D01*
X243739707Y-143399841D01*
X243490805Y-143648743D01*
X242786528Y-143648743D01*
X242537626Y-143399841D01*
X242288724Y-143648743D01*
X241584446Y-143648743D01*
X241335544Y-143399841D01*
X241086642Y-143648743D01*
X240382365Y-143648743D01*
X240133463Y-143399841D01*
X239884561Y-143648743D01*
X239180283Y-143648743D01*
X238931381Y-143399841D01*
X238682479Y-143648743D01*
X237734555Y-143648743D01*
X237735429Y-143199691D01*
X238233428Y-143199691D01*
X238330341Y-143296604D01*
X238579243Y-143047702D01*
X239283520Y-143047702D01*
X239532422Y-143296604D01*
X239781324Y-143047702D01*
X240485602Y-143047702D01*
X240734504Y-143296604D01*
X240983406Y-143047702D01*
X241687683Y-143047702D01*
X241936585Y-143296604D01*
X242185487Y-143047702D01*
X242889765Y-143047702D01*
X243138667Y-143296604D01*
X243387569Y-143047702D01*
X243138667Y-142798800D01*
X242889765Y-143047702D01*
X242185487Y-143047702D01*
X241936585Y-142798800D01*
X241687683Y-143047702D01*
X240983406Y-143047702D01*
X240734504Y-142798800D01*
X240485602Y-143047702D01*
X239781324Y-143047702D01*
X239532422Y-142798800D01*
X239283520Y-143047702D01*
X238579243Y-143047702D01*
X238330340Y-142798799D01*
X238234021Y-142895118D01*
X238233428Y-143199691D01*
X237735429Y-143199691D01*
X237736390Y-142706311D01*
X237736635Y-142701522D01*
X237737233Y-142695562D01*
X237750562Y-142562700D01*
X237752449Y-142553298D01*
X237782779Y-142453879D01*
X238689697Y-142453879D01*
X238931381Y-142695563D01*
X239173065Y-142453879D01*
X239891779Y-142453879D01*
X240133463Y-142695563D01*
X240375147Y-142453879D01*
X241093860Y-142453879D01*
X241335544Y-142695563D01*
X241577228Y-142453879D01*
X242295942Y-142453879D01*
X242537626Y-142695563D01*
X242776981Y-142456208D01*
X243500352Y-142456208D01*
X243739706Y-142695562D01*
X243748129Y-142687138D01*
X243744208Y-142653048D01*
X243729533Y-142607029D01*
X243706253Y-142564705D01*
X243675250Y-142527675D01*
X243637676Y-142497316D01*
X243594959Y-142474782D01*
X243548703Y-142460916D01*
X243500352Y-142456208D01*
X242776981Y-142456208D01*
X242779310Y-142453879D01*
X242295942Y-142453879D01*
X241577228Y-142453879D01*
X241093860Y-142453879D01*
X240375147Y-142453879D01*
X239891779Y-142453879D01*
X239173065Y-142453879D01*
X238689697Y-142453879D01*
X237782779Y-142453879D01*
X237792459Y-142422147D01*
X237796141Y-142413298D01*
X237860939Y-142292459D01*
X237866268Y-142284503D01*
X237953372Y-142178603D01*
X237960154Y-142171834D01*
X238066226Y-142084934D01*
X238074191Y-142079621D01*
X238195162Y-142015056D01*
X238204012Y-142011395D01*
X238335239Y-141971640D01*
X238344639Y-141969772D01*
X238456074Y-141958811D01*
X238483504Y-141956114D01*
X238488300Y-141955879D01*
X238530061Y-141955879D01*
X243456454Y-141955879D01*
X243498245Y-141955879D01*
X243502994Y-141956110D01*
G37*
%TD.AperFunction*%
%TD*%
%TA.AperFunction,Conductor*%
%TO.N,GND*%
G36*
X233137895Y-141956115D02*
G01*
X233276741Y-141969782D01*
X233286144Y-141971650D01*
X233417379Y-142011414D01*
X233426222Y-142015073D01*
X233547198Y-142079646D01*
X233555159Y-142084957D01*
X233637216Y-142152183D01*
X233661227Y-142171855D01*
X233668017Y-142178632D01*
X233755113Y-142284519D01*
X233760453Y-142292489D01*
X233825251Y-142413321D01*
X233828935Y-142422178D01*
X233868949Y-142553316D01*
X233870837Y-142562721D01*
X233884775Y-142701535D01*
X233885020Y-142706335D01*
X233891822Y-146200823D01*
X233890095Y-146211070D01*
X233890179Y-146211082D01*
X233889507Y-146215857D01*
X233891860Y-146257437D01*
X233891938Y-146260108D01*
X233892020Y-146301767D01*
X233892971Y-146306499D01*
X233892889Y-146306515D01*
X233893850Y-146310704D01*
X233893932Y-146310683D01*
X233895140Y-146315358D01*
X233913226Y-146352872D01*
X233914321Y-146355310D01*
X233930336Y-146393760D01*
X233930337Y-146393761D01*
X233933026Y-146397769D01*
X233932955Y-146397816D01*
X233935448Y-146401320D01*
X233935516Y-146401269D01*
X233938418Y-146405122D01*
X233969491Y-146432866D01*
X233971431Y-146434695D01*
X234000940Y-146464090D01*
X234000941Y-146464090D01*
X234000943Y-146464092D01*
X234004960Y-146466765D01*
X234004911Y-146466837D01*
X234008551Y-146469118D01*
X234008596Y-146469043D01*
X234012753Y-146471492D01*
X234012755Y-146471494D01*
X234052074Y-146485232D01*
X234054554Y-146486175D01*
X234077415Y-146495592D01*
X234103984Y-146522058D01*
X234107741Y-146539925D01*
X234130911Y-147706854D01*
X234117250Y-147741781D01*
X234099275Y-147751657D01*
X234099932Y-147753239D01*
X234099549Y-147753398D01*
X234093834Y-147754647D01*
X234091638Y-147755854D01*
X234091256Y-147755931D01*
X234086960Y-147756949D01*
X234046321Y-147775535D01*
X234044783Y-147776207D01*
X234003529Y-147793390D01*
X233999906Y-147795821D01*
X233996332Y-147798401D01*
X233965910Y-147831112D01*
X233964747Y-147832320D01*
X233933200Y-147863993D01*
X233930779Y-147867630D01*
X233928469Y-147871375D01*
X233912884Y-147913231D01*
X233912271Y-147914793D01*
X233895242Y-147956135D01*
X233894395Y-147960436D01*
X233893696Y-147964764D01*
X233895316Y-148009409D01*
X233895348Y-148011090D01*
X233915177Y-158195788D01*
X233913695Y-158204128D01*
X233914337Y-158204231D01*
X233913575Y-158208992D01*
X233915257Y-158253397D01*
X233915292Y-158255154D01*
X233915380Y-158299613D01*
X233916287Y-158304125D01*
X233917349Y-158308579D01*
X233935909Y-158348987D01*
X233936614Y-158350598D01*
X233953695Y-158391608D01*
X233956257Y-158395427D01*
X233958944Y-158399136D01*
X233991545Y-158429356D01*
X233992798Y-158430559D01*
X234024300Y-158461938D01*
X234024302Y-158461939D01*
X234028149Y-158464499D01*
X234032025Y-158466880D01*
X234032028Y-158466883D01*
X234073740Y-158482338D01*
X234075365Y-158482974D01*
X234111622Y-158497909D01*
X234116443Y-158499895D01*
X234116448Y-158499894D01*
X234120978Y-158500786D01*
X234125475Y-158501506D01*
X234169924Y-158499821D01*
X234171650Y-158499787D01*
X234216099Y-158499701D01*
X234216100Y-158499700D01*
X234220830Y-158498750D01*
X234220959Y-158499394D01*
X234229228Y-158497574D01*
X234295226Y-158495073D01*
X234330391Y-158508102D01*
X234346045Y-158542182D01*
X234346070Y-158543065D01*
X234371157Y-159806520D01*
X234357496Y-159841447D01*
X234324037Y-159856457D01*
X234165289Y-159862519D01*
X234163517Y-159862555D01*
X234119094Y-159862643D01*
X234114570Y-159863552D01*
X234110058Y-159864630D01*
X234069696Y-159883182D01*
X234068072Y-159883893D01*
X234027106Y-159900955D01*
X234023236Y-159903551D01*
X234019518Y-159906247D01*
X233989328Y-159938832D01*
X233988101Y-159940108D01*
X233956771Y-159971562D01*
X233954228Y-159975382D01*
X233951786Y-159979358D01*
X233936380Y-160020975D01*
X233935735Y-160022625D01*
X233918814Y-160063704D01*
X233917921Y-160068240D01*
X233917192Y-160072811D01*
X233918885Y-160117158D01*
X233918921Y-160118931D01*
X233921401Y-161391848D01*
X233907117Y-161426524D01*
X233879437Y-161440435D01*
X233436694Y-161504675D01*
X233429615Y-161505183D01*
X233340515Y-161505105D01*
X233321915Y-161501420D01*
X233247774Y-161470917D01*
X233231967Y-161460447D01*
X233174379Y-161403511D01*
X233168177Y-161396023D01*
X233156373Y-161378482D01*
X233154842Y-161376056D01*
X233101600Y-161285970D01*
X233101597Y-161285966D01*
X232968311Y-161126179D01*
X232956171Y-161111625D01*
X232823799Y-160996965D01*
X232784569Y-160962984D01*
X232591263Y-160843918D01*
X232591260Y-160843916D01*
X232381300Y-160757537D01*
X232160179Y-160706103D01*
X232024261Y-160697012D01*
X231933651Y-160690952D01*
X231933650Y-160690952D01*
X231933649Y-160690952D01*
X231707645Y-160712481D01*
X231707642Y-160712482D01*
X231488060Y-160770127D01*
X231280610Y-160862392D01*
X231090745Y-160986854D01*
X231090743Y-160986855D01*
X231090741Y-160986857D01*
X231015380Y-161055946D01*
X230923389Y-161140281D01*
X230782949Y-161318632D01*
X230782936Y-161318652D01*
X230673047Y-161517305D01*
X230651090Y-161578624D01*
X230651006Y-161578807D01*
X230636114Y-161620446D01*
X230632853Y-161627663D01*
X230598726Y-161689354D01*
X230588957Y-161701758D01*
X230539954Y-161746671D01*
X230526747Y-161755325D01*
X230466003Y-161782323D01*
X230450730Y-161786327D01*
X230384554Y-161792606D01*
X230368801Y-161791545D01*
X230304066Y-161776454D01*
X230289468Y-161770439D01*
X230250933Y-161746671D01*
X230232889Y-161735541D01*
X230220969Y-161725203D01*
X230175839Y-161671021D01*
X230171285Y-161664553D01*
X230168393Y-161659648D01*
X230150872Y-161629926D01*
X230148822Y-161626448D01*
X230148598Y-161626134D01*
X230115336Y-161569798D01*
X230071559Y-161517309D01*
X229969291Y-161394688D01*
X229796837Y-161245504D01*
X229796832Y-161245500D01*
X229602534Y-161126184D01*
X229602526Y-161126180D01*
X229602524Y-161126179D01*
X229545267Y-161102761D01*
X229391471Y-161039858D01*
X229391473Y-161039858D01*
X229177383Y-160990686D01*
X229169233Y-160988814D01*
X229169232Y-160988813D01*
X229169228Y-160988813D01*
X228941667Y-160974389D01*
X228941665Y-160974389D01*
X228714761Y-160996964D01*
X228714755Y-160996965D01*
X228494501Y-161055945D01*
X228494500Y-161055945D01*
X228286673Y-161149781D01*
X228096769Y-161275992D01*
X227929780Y-161431262D01*
X227929775Y-161431268D01*
X227790104Y-161611499D01*
X227790104Y-161611500D01*
X227681419Y-161811963D01*
X227650871Y-161899709D01*
X227648181Y-161905988D01*
X227607368Y-161985438D01*
X227595603Y-162000309D01*
X227535312Y-162051798D01*
X227518784Y-162061089D01*
X227441918Y-162086341D01*
X227432594Y-162088424D01*
X227414947Y-162090590D01*
X227412147Y-162090852D01*
X227085510Y-162112024D01*
X227050006Y-162099944D01*
X227033444Y-162066296D01*
X227033348Y-162062272D01*
X227034326Y-162006247D01*
X227049943Y-161111413D01*
X227548018Y-161111413D01*
X227554048Y-161104254D01*
X227555358Y-161102761D01*
X227569007Y-161087826D01*
X227570381Y-161086382D01*
X227581828Y-161074837D01*
X227583258Y-161073453D01*
X227672270Y-160990686D01*
X227552220Y-160870636D01*
X227548018Y-161111413D01*
X227049943Y-161111413D01*
X227060291Y-160518497D01*
X229346219Y-160518497D01*
X229489994Y-160551519D01*
X229563629Y-160477884D01*
X230267909Y-160477884D01*
X230516811Y-160726786D01*
X230765713Y-160477884D01*
X230667073Y-160379244D01*
X232770710Y-160379244D01*
X232790039Y-160387197D01*
X232791854Y-160387987D01*
X232806538Y-160394734D01*
X232808320Y-160395597D01*
X232826270Y-160404740D01*
X232828018Y-160405675D01*
X232842141Y-160413604D01*
X232843851Y-160414610D01*
X233054308Y-160544240D01*
X233055971Y-160545311D01*
X233069378Y-160554335D01*
X233070999Y-160555475D01*
X233083277Y-160564481D01*
X233169875Y-160477883D01*
X232920973Y-160228981D01*
X232770710Y-160379244D01*
X230667073Y-160379244D01*
X230516811Y-160228982D01*
X230267909Y-160477884D01*
X229563629Y-160477884D01*
X229563630Y-160477883D01*
X229442899Y-160357152D01*
X229368633Y-160485784D01*
X229366941Y-160488506D01*
X229352396Y-160510275D01*
X229350529Y-160512881D01*
X229346219Y-160518497D01*
X227060291Y-160518497D01*
X227147548Y-155518784D01*
X227148459Y-155510203D01*
X227148658Y-155509182D01*
X227148663Y-155509172D01*
X227148543Y-155462316D01*
X227148550Y-155461367D01*
X227149368Y-155414535D01*
X227149366Y-155414532D01*
X227149181Y-155413502D01*
X227149156Y-155413231D01*
X227149011Y-155412510D01*
X227148821Y-155411513D01*
X227148694Y-155410810D01*
X227148618Y-155410552D01*
X227148409Y-155409519D01*
X227148409Y-155409516D01*
X227130351Y-155366235D01*
X227130030Y-155365442D01*
X227112845Y-155321815D01*
X227112843Y-155321813D01*
X227112272Y-155320924D01*
X227112140Y-155320674D01*
X227111722Y-155320051D01*
X227111180Y-155319227D01*
X227110800Y-155318636D01*
X227110631Y-155318427D01*
X227110040Y-155317547D01*
X227086074Y-155293703D01*
X227076751Y-155284428D01*
X227076172Y-155283839D01*
X227043618Y-155250129D01*
X227043617Y-155250128D01*
X227043616Y-155250127D01*
X227042749Y-155249526D01*
X227042535Y-155249347D01*
X227041910Y-155248932D01*
X227041095Y-155248378D01*
X227040523Y-155247981D01*
X227040279Y-155247848D01*
X227039393Y-155247259D01*
X226996043Y-155229432D01*
X226995142Y-155229050D01*
X226952230Y-155210392D01*
X226951173Y-155210163D01*
X226950903Y-155210079D01*
X226950212Y-155209943D01*
X226949283Y-155209751D01*
X226948566Y-155209595D01*
X226948280Y-155209565D01*
X226947225Y-155209358D01*
X226900410Y-155209476D01*
X226899434Y-155209469D01*
X226852585Y-155208652D01*
X226851533Y-155208843D01*
X226842950Y-155209623D01*
X201449642Y-155274488D01*
X201400166Y-155274488D01*
X201399953Y-155274531D01*
X201399821Y-155274557D01*
X201399543Y-155274612D01*
X201399533Y-155274615D01*
X201399532Y-155274616D01*
X201353780Y-155293703D01*
X201308103Y-155312624D01*
X201308102Y-155312624D01*
X201308087Y-155312631D01*
X201307844Y-155312795D01*
X201307654Y-155312923D01*
X201307564Y-155312982D01*
X201272699Y-155348026D01*
X201272612Y-155348114D01*
X201237624Y-155383102D01*
X201237548Y-155383218D01*
X201237395Y-155383447D01*
X201237282Y-155383614D01*
X201218462Y-155429381D01*
X201218414Y-155429496D01*
X201199498Y-155475163D01*
X201199466Y-155475327D01*
X201199441Y-155475455D01*
X201199374Y-155475790D01*
X201199500Y-155525235D01*
X201199500Y-158401000D01*
X201185148Y-158435648D01*
X201150500Y-158450000D01*
X198749500Y-158450000D01*
X198714852Y-158435648D01*
X198700500Y-158401000D01*
X198700500Y-157889010D01*
X199198500Y-157889010D01*
X199198500Y-157952000D01*
X199389872Y-157952000D01*
X200337591Y-157952000D01*
X200591954Y-157952000D01*
X200464772Y-157824818D01*
X200337591Y-157952000D01*
X199389872Y-157952000D01*
X199262691Y-157824819D01*
X199198500Y-157889010D01*
X198700500Y-157889010D01*
X198700500Y-157472680D01*
X199614830Y-157472680D01*
X199863732Y-157721582D01*
X200112634Y-157472680D01*
X199863732Y-157223778D01*
X199614830Y-157472680D01*
X198700500Y-157472680D01*
X198700500Y-156686928D01*
X199198500Y-156686928D01*
X199198500Y-157056350D01*
X199262691Y-157120541D01*
X199511593Y-156871639D01*
X200215870Y-156871639D01*
X200464772Y-157120541D01*
X200701500Y-156883813D01*
X200701500Y-156859464D01*
X200464772Y-156622736D01*
X200215870Y-156871639D01*
X199511593Y-156871639D01*
X199262691Y-156622737D01*
X199198500Y-156686928D01*
X198700500Y-156686928D01*
X198700500Y-156270599D01*
X199614830Y-156270599D01*
X199863732Y-156519501D01*
X200112634Y-156270599D01*
X199863732Y-156021697D01*
X199614830Y-156270599D01*
X198700500Y-156270599D01*
X198700500Y-155484847D01*
X199198500Y-155484847D01*
X199198500Y-155854269D01*
X199262691Y-155918460D01*
X199511593Y-155669558D01*
X200215870Y-155669558D01*
X200464772Y-155918460D01*
X200701500Y-155681732D01*
X200701500Y-155657383D01*
X200464772Y-155420655D01*
X200215870Y-155669558D01*
X199511593Y-155669558D01*
X199262691Y-155420656D01*
X199198500Y-155484847D01*
X198700500Y-155484847D01*
X198700500Y-155068517D01*
X199614830Y-155068517D01*
X199863732Y-155317419D01*
X200112634Y-155068517D01*
X200816911Y-155068517D01*
X200836055Y-155087661D01*
X200837235Y-155086049D01*
X200837693Y-155085369D01*
X200840518Y-155081576D01*
X200856192Y-155062521D01*
X200861944Y-155055411D01*
X200863226Y-155053971D01*
X200865192Y-155051582D01*
X200868381Y-155048067D01*
X200919947Y-154996499D01*
X200971644Y-154944540D01*
X200975158Y-154941335D01*
X200977484Y-154939411D01*
X200978545Y-154938461D01*
X200984844Y-154933328D01*
X201005190Y-154916516D01*
X201008991Y-154913674D01*
X201009741Y-154913167D01*
X201011943Y-154911544D01*
X201030501Y-154899168D01*
X201049208Y-154886570D01*
X201051634Y-154885098D01*
X201052352Y-154884621D01*
X201056420Y-154882191D01*
X201079570Y-154869841D01*
X201086868Y-154865883D01*
X201088178Y-154865249D01*
X201090799Y-154863853D01*
X201095093Y-154861825D01*
X201104235Y-154858037D01*
X201065813Y-154819615D01*
X200816911Y-155068517D01*
X200112634Y-155068517D01*
X199863732Y-154819615D01*
X199614830Y-155068517D01*
X198700500Y-155068517D01*
X198700500Y-154282765D01*
X199198500Y-154282765D01*
X199198500Y-154652187D01*
X199262691Y-154716378D01*
X199511593Y-154467476D01*
X200215870Y-154467476D01*
X200464772Y-154716378D01*
X200713674Y-154467476D01*
X201417952Y-154467476D01*
X201666854Y-154716378D01*
X201915756Y-154467476D01*
X202620033Y-154467476D01*
X202868935Y-154716378D01*
X203117838Y-154467476D01*
X203822115Y-154467476D01*
X204071017Y-154716378D01*
X204319919Y-154467476D01*
X205024197Y-154467476D01*
X205273099Y-154716378D01*
X205522001Y-154467476D01*
X206226278Y-154467476D01*
X206475180Y-154716378D01*
X206724082Y-154467476D01*
X207428360Y-154467476D01*
X207677262Y-154716378D01*
X207926164Y-154467476D01*
X208630441Y-154467476D01*
X208879343Y-154716378D01*
X209128245Y-154467476D01*
X209832523Y-154467476D01*
X210081425Y-154716378D01*
X210330327Y-154467476D01*
X211034604Y-154467476D01*
X211283506Y-154716378D01*
X211532408Y-154467476D01*
X212236686Y-154467476D01*
X212485588Y-154716378D01*
X212734490Y-154467476D01*
X213438767Y-154467476D01*
X213687669Y-154716378D01*
X213936571Y-154467476D01*
X214640849Y-154467476D01*
X214889751Y-154716378D01*
X215138653Y-154467476D01*
X215842930Y-154467476D01*
X216091832Y-154716378D01*
X216340734Y-154467476D01*
X217045012Y-154467476D01*
X217293913Y-154716377D01*
X217542814Y-154467476D01*
X218247093Y-154467476D01*
X218495994Y-154716377D01*
X218744895Y-154467476D01*
X219449175Y-154467476D01*
X219698076Y-154716377D01*
X219946977Y-154467476D01*
X220651256Y-154467476D01*
X220900157Y-154716377D01*
X221149058Y-154467476D01*
X221853338Y-154467476D01*
X222102239Y-154716377D01*
X222351140Y-154467476D01*
X223055419Y-154467476D01*
X223304320Y-154716377D01*
X223553222Y-154467476D01*
X224257501Y-154467476D01*
X224506402Y-154716377D01*
X224755303Y-154467476D01*
X225459583Y-154467476D01*
X225706629Y-154714522D01*
X225710349Y-154714512D01*
X225957385Y-154467476D01*
X226661664Y-154467476D01*
X226905648Y-154711460D01*
X226915507Y-154711435D01*
X227076500Y-154550443D01*
X227076500Y-154384508D01*
X226910566Y-154218574D01*
X226661664Y-154467476D01*
X225957385Y-154467476D01*
X225957386Y-154467475D01*
X225708485Y-154218574D01*
X225459583Y-154467476D01*
X224755303Y-154467476D01*
X224755304Y-154467475D01*
X224506403Y-154218574D01*
X224257501Y-154467476D01*
X223553222Y-154467476D01*
X223553223Y-154467475D01*
X223304321Y-154218573D01*
X223055419Y-154467476D01*
X222351140Y-154467476D01*
X222351141Y-154467475D01*
X222102240Y-154218574D01*
X221853338Y-154467476D01*
X221149058Y-154467476D01*
X221149059Y-154467475D01*
X220900158Y-154218574D01*
X220651256Y-154467476D01*
X219946977Y-154467476D01*
X219946978Y-154467475D01*
X219698077Y-154218574D01*
X219449175Y-154467476D01*
X218744895Y-154467476D01*
X218744896Y-154467475D01*
X218495995Y-154218574D01*
X218247093Y-154467476D01*
X217542814Y-154467476D01*
X217542815Y-154467475D01*
X217293914Y-154218574D01*
X217045012Y-154467476D01*
X216340734Y-154467476D01*
X216091832Y-154218574D01*
X215842930Y-154467476D01*
X215138653Y-154467476D01*
X214889751Y-154218574D01*
X214640849Y-154467476D01*
X213936571Y-154467476D01*
X213687669Y-154218574D01*
X213438767Y-154467476D01*
X212734490Y-154467476D01*
X212485588Y-154218574D01*
X212236686Y-154467476D01*
X211532408Y-154467476D01*
X211283506Y-154218574D01*
X211034604Y-154467476D01*
X210330327Y-154467476D01*
X210081425Y-154218574D01*
X209832523Y-154467476D01*
X209128245Y-154467476D01*
X208879343Y-154218574D01*
X208630441Y-154467476D01*
X207926164Y-154467476D01*
X207677262Y-154218574D01*
X207428360Y-154467476D01*
X206724082Y-154467476D01*
X206475180Y-154218574D01*
X206226278Y-154467476D01*
X205522001Y-154467476D01*
X205273099Y-154218574D01*
X205024197Y-154467476D01*
X204319919Y-154467476D01*
X204071017Y-154218574D01*
X203822115Y-154467476D01*
X203117838Y-154467476D01*
X202868935Y-154218573D01*
X202620033Y-154467476D01*
X201915756Y-154467476D01*
X201666854Y-154218574D01*
X201417952Y-154467476D01*
X200713674Y-154467476D01*
X200464772Y-154218573D01*
X200215870Y-154467476D01*
X199511593Y-154467476D01*
X199262691Y-154218574D01*
X199198500Y-154282765D01*
X198700500Y-154282765D01*
X198700500Y-153866436D01*
X199614830Y-153866436D01*
X199863732Y-154115338D01*
X200112634Y-153866436D01*
X200816911Y-153866436D01*
X201065813Y-154115338D01*
X201314715Y-153866436D01*
X202018993Y-153866436D01*
X202267895Y-154115338D01*
X202516797Y-153866436D01*
X203221074Y-153866436D01*
X203469976Y-154115338D01*
X203718878Y-153866436D01*
X204423156Y-153866436D01*
X204672058Y-154115338D01*
X204920960Y-153866436D01*
X205625237Y-153866436D01*
X205874139Y-154115338D01*
X206123041Y-153866436D01*
X206827319Y-153866436D01*
X207076221Y-154115338D01*
X207325123Y-153866436D01*
X208029400Y-153866436D01*
X208278302Y-154115338D01*
X208527204Y-153866436D01*
X209231482Y-153866436D01*
X209480384Y-154115338D01*
X209729286Y-153866436D01*
X210433563Y-153866436D01*
X210682465Y-154115338D01*
X210931367Y-153866436D01*
X211635645Y-153866436D01*
X211884547Y-154115338D01*
X212133449Y-153866436D01*
X212837726Y-153866436D01*
X213086628Y-154115338D01*
X213335531Y-153866436D01*
X214039808Y-153866436D01*
X214288710Y-154115338D01*
X214537612Y-153866436D01*
X215241890Y-153866436D01*
X215490792Y-154115338D01*
X215739694Y-153866436D01*
X216443971Y-153866436D01*
X216692873Y-154115338D01*
X216941775Y-153866436D01*
X217646053Y-153866436D01*
X217894955Y-154115338D01*
X218143857Y-153866436D01*
X218848134Y-153866436D01*
X219097036Y-154115338D01*
X219345938Y-153866436D01*
X220050216Y-153866436D01*
X220299118Y-154115338D01*
X220548020Y-153866436D01*
X221252297Y-153866436D01*
X221501199Y-154115338D01*
X221750101Y-153866436D01*
X222454379Y-153866436D01*
X222703281Y-154115338D01*
X222952183Y-153866436D01*
X223656460Y-153866436D01*
X223905362Y-154115338D01*
X224154264Y-153866436D01*
X224858542Y-153866436D01*
X225107444Y-154115338D01*
X225356346Y-153866436D01*
X226060623Y-153866436D01*
X226309525Y-154115338D01*
X226558427Y-153866436D01*
X226309525Y-153617534D01*
X226060623Y-153866436D01*
X225356346Y-153866436D01*
X225107444Y-153617534D01*
X224858542Y-153866436D01*
X224154264Y-153866436D01*
X223905362Y-153617534D01*
X223656460Y-153866436D01*
X222952183Y-153866436D01*
X222703281Y-153617534D01*
X222454379Y-153866436D01*
X221750101Y-153866436D01*
X221501199Y-153617534D01*
X221252297Y-153866436D01*
X220548020Y-153866436D01*
X220299118Y-153617534D01*
X220050216Y-153866436D01*
X219345938Y-153866436D01*
X219097036Y-153617534D01*
X218848134Y-153866436D01*
X218143857Y-153866436D01*
X217894955Y-153617534D01*
X217646053Y-153866436D01*
X216941775Y-153866436D01*
X216692873Y-153617534D01*
X216443971Y-153866436D01*
X215739694Y-153866436D01*
X215490792Y-153617534D01*
X215241890Y-153866436D01*
X214537612Y-153866436D01*
X214288710Y-153617534D01*
X214039808Y-153866436D01*
X213335531Y-153866436D01*
X213086628Y-153617533D01*
X212837726Y-153866436D01*
X212133449Y-153866436D01*
X211884547Y-153617534D01*
X211635645Y-153866436D01*
X210931367Y-153866436D01*
X210682465Y-153617533D01*
X210433563Y-153866436D01*
X209729286Y-153866436D01*
X209480384Y-153617534D01*
X209231482Y-153866436D01*
X208527204Y-153866436D01*
X208278302Y-153617534D01*
X208029400Y-153866436D01*
X207325123Y-153866436D01*
X207076221Y-153617534D01*
X206827319Y-153866436D01*
X206123041Y-153866436D01*
X205874139Y-153617534D01*
X205625237Y-153866436D01*
X204920960Y-153866436D01*
X204672058Y-153617534D01*
X204423156Y-153866436D01*
X203718878Y-153866436D01*
X203469976Y-153617534D01*
X203221074Y-153866436D01*
X202516797Y-153866436D01*
X202267895Y-153617534D01*
X202018993Y-153866436D01*
X201314715Y-153866436D01*
X201065813Y-153617534D01*
X200816911Y-153866436D01*
X200112634Y-153866436D01*
X199863732Y-153617534D01*
X199614830Y-153866436D01*
X198700500Y-153866436D01*
X198700500Y-153080684D01*
X199198500Y-153080684D01*
X199198500Y-153450106D01*
X199262691Y-153514297D01*
X199511593Y-153265395D01*
X200215870Y-153265395D01*
X200464772Y-153514297D01*
X200713674Y-153265395D01*
X201417952Y-153265395D01*
X201666854Y-153514297D01*
X201915756Y-153265395D01*
X202620033Y-153265395D01*
X202868935Y-153514297D01*
X203117838Y-153265395D01*
X203822115Y-153265395D01*
X204071017Y-153514297D01*
X204319919Y-153265395D01*
X205024197Y-153265395D01*
X205273099Y-153514297D01*
X205522001Y-153265395D01*
X206226278Y-153265395D01*
X206475180Y-153514297D01*
X206724082Y-153265395D01*
X207428360Y-153265395D01*
X207677262Y-153514297D01*
X207926164Y-153265395D01*
X208630441Y-153265395D01*
X208879343Y-153514297D01*
X209128245Y-153265395D01*
X209832523Y-153265395D01*
X210081425Y-153514297D01*
X210330327Y-153265395D01*
X211034604Y-153265395D01*
X211283506Y-153514297D01*
X211532408Y-153265395D01*
X212236686Y-153265395D01*
X212485588Y-153514297D01*
X212734490Y-153265395D01*
X213438767Y-153265395D01*
X213687669Y-153514297D01*
X213936571Y-153265395D01*
X214640849Y-153265395D01*
X214889751Y-153514297D01*
X215138653Y-153265395D01*
X215842930Y-153265395D01*
X216091832Y-153514297D01*
X216340734Y-153265395D01*
X217045012Y-153265395D01*
X217293914Y-153514297D01*
X217542816Y-153265395D01*
X218247093Y-153265395D01*
X218495995Y-153514297D01*
X218744897Y-153265395D01*
X219449175Y-153265395D01*
X219698077Y-153514297D01*
X219946979Y-153265395D01*
X220651256Y-153265395D01*
X220900158Y-153514297D01*
X221149060Y-153265395D01*
X221853338Y-153265395D01*
X222102240Y-153514297D01*
X222351142Y-153265395D01*
X223055419Y-153265395D01*
X223304321Y-153514297D01*
X223553223Y-153265395D01*
X224257501Y-153265395D01*
X224506403Y-153514297D01*
X224755305Y-153265395D01*
X225459583Y-153265395D01*
X225708485Y-153514297D01*
X225957387Y-153265395D01*
X226661664Y-153265395D01*
X226910566Y-153514297D01*
X227076500Y-153348363D01*
X227076500Y-153182427D01*
X226910566Y-153016493D01*
X226661664Y-153265395D01*
X225957387Y-153265395D01*
X225708485Y-153016493D01*
X225459583Y-153265395D01*
X224755305Y-153265395D01*
X224506403Y-153016493D01*
X224257501Y-153265395D01*
X223553223Y-153265395D01*
X223304321Y-153016492D01*
X223055419Y-153265395D01*
X222351142Y-153265395D01*
X222102240Y-153016493D01*
X221853338Y-153265395D01*
X221149060Y-153265395D01*
X220900158Y-153016493D01*
X220651256Y-153265395D01*
X219946979Y-153265395D01*
X219698077Y-153016493D01*
X219449175Y-153265395D01*
X218744897Y-153265395D01*
X218495995Y-153016493D01*
X218247093Y-153265395D01*
X217542816Y-153265395D01*
X217293914Y-153016493D01*
X217045012Y-153265395D01*
X216340734Y-153265395D01*
X216091832Y-153016493D01*
X215842930Y-153265395D01*
X215138653Y-153265395D01*
X214889751Y-153016493D01*
X214640849Y-153265395D01*
X213936571Y-153265395D01*
X213687669Y-153016493D01*
X213438767Y-153265395D01*
X212734490Y-153265395D01*
X212485588Y-153016493D01*
X212236686Y-153265395D01*
X211532408Y-153265395D01*
X211283506Y-153016493D01*
X211034604Y-153265395D01*
X210330327Y-153265395D01*
X210081425Y-153016493D01*
X209832523Y-153265395D01*
X209128245Y-153265395D01*
X208879343Y-153016493D01*
X208630441Y-153265395D01*
X207926164Y-153265395D01*
X207677262Y-153016493D01*
X207428360Y-153265395D01*
X206724082Y-153265395D01*
X206475180Y-153016493D01*
X206226278Y-153265395D01*
X205522001Y-153265395D01*
X205273099Y-153016493D01*
X205024197Y-153265395D01*
X204319919Y-153265395D01*
X204071017Y-153016493D01*
X203822115Y-153265395D01*
X203117838Y-153265395D01*
X202868935Y-153016492D01*
X202620033Y-153265395D01*
X201915756Y-153265395D01*
X201666854Y-153016493D01*
X201417952Y-153265395D01*
X200713674Y-153265395D01*
X200464772Y-153016492D01*
X200215870Y-153265395D01*
X199511593Y-153265395D01*
X199262691Y-153016493D01*
X199198500Y-153080684D01*
X198700500Y-153080684D01*
X198700500Y-152664354D01*
X199614830Y-152664354D01*
X199863732Y-152913256D01*
X200112634Y-152664354D01*
X200816911Y-152664354D01*
X201065813Y-152913256D01*
X201314715Y-152664354D01*
X202018993Y-152664354D01*
X202267895Y-152913256D01*
X202516797Y-152664354D01*
X203221074Y-152664354D01*
X203469976Y-152913256D01*
X203718878Y-152664354D01*
X204423156Y-152664354D01*
X204672058Y-152913256D01*
X204920960Y-152664354D01*
X205625237Y-152664354D01*
X205874139Y-152913256D01*
X206123041Y-152664354D01*
X206827319Y-152664354D01*
X207076221Y-152913256D01*
X207325123Y-152664354D01*
X208029400Y-152664354D01*
X208278302Y-152913256D01*
X208527204Y-152664354D01*
X209231482Y-152664354D01*
X209480384Y-152913256D01*
X209729286Y-152664354D01*
X210433563Y-152664354D01*
X210682465Y-152913256D01*
X210931367Y-152664354D01*
X211635645Y-152664354D01*
X211884547Y-152913256D01*
X212133449Y-152664354D01*
X212837726Y-152664354D01*
X213086628Y-152913256D01*
X213335531Y-152664354D01*
X214039808Y-152664354D01*
X214288710Y-152913256D01*
X214537612Y-152664354D01*
X215241890Y-152664354D01*
X215490792Y-152913256D01*
X215739694Y-152664354D01*
X216443971Y-152664354D01*
X216692873Y-152913256D01*
X216941775Y-152664354D01*
X217646053Y-152664354D01*
X217894955Y-152913256D01*
X218143857Y-152664354D01*
X218848134Y-152664354D01*
X219097036Y-152913256D01*
X219345938Y-152664354D01*
X220050216Y-152664354D01*
X220299118Y-152913256D01*
X220548020Y-152664354D01*
X221252297Y-152664354D01*
X221501199Y-152913256D01*
X221750101Y-152664354D01*
X222454379Y-152664354D01*
X222703281Y-152913256D01*
X222952183Y-152664354D01*
X223656460Y-152664354D01*
X223905362Y-152913256D01*
X224154264Y-152664354D01*
X224858542Y-152664354D01*
X225107444Y-152913256D01*
X225356346Y-152664354D01*
X226060623Y-152664354D01*
X226309525Y-152913256D01*
X226558427Y-152664354D01*
X226319243Y-152425170D01*
X227574500Y-152425170D01*
X227574500Y-152425172D01*
X227574500Y-159150172D01*
X227574500Y-159249828D01*
X227612636Y-159341897D01*
X227612637Y-159341898D01*
X227612637Y-159341899D01*
X228001061Y-159730322D01*
X228015413Y-159764970D01*
X228013744Y-159777651D01*
X227999500Y-159830817D01*
X227999500Y-159969186D01*
X228035311Y-160102834D01*
X228035312Y-160102838D01*
X228104495Y-160222665D01*
X228202335Y-160320505D01*
X228246194Y-160345827D01*
X228322161Y-160389687D01*
X228322163Y-160389687D01*
X228322164Y-160389688D01*
X228381829Y-160405675D01*
X228455813Y-160425499D01*
X228455814Y-160425500D01*
X228455817Y-160425500D01*
X228594186Y-160425500D01*
X228594186Y-160425499D01*
X228727836Y-160389688D01*
X228847665Y-160320505D01*
X228945505Y-160222665D01*
X229014688Y-160102836D01*
X229050499Y-159969186D01*
X229050500Y-159969186D01*
X229050500Y-159876843D01*
X229666868Y-159876843D01*
X229915770Y-160125745D01*
X230164672Y-159876843D01*
X230868949Y-159876843D01*
X231117851Y-160125745D01*
X231366753Y-159876843D01*
X232071031Y-159876843D01*
X232319933Y-160125745D01*
X232568835Y-159876843D01*
X233273112Y-159876843D01*
X233420948Y-160024679D01*
X233421029Y-160023346D01*
X233421552Y-160018571D01*
X233424264Y-160001550D01*
X233424781Y-159996219D01*
X233425475Y-159991478D01*
X233427553Y-159980917D01*
X233429245Y-159970308D01*
X233430229Y-159965621D01*
X233431587Y-159960429D01*
X233434920Y-159943500D01*
X233436079Y-159938834D01*
X233447413Y-159901202D01*
X233449024Y-159896671D01*
X233472174Y-159840465D01*
X233493257Y-159783518D01*
X233495144Y-159779098D01*
X233512326Y-159743771D01*
X233514638Y-159739558D01*
X233523681Y-159724834D01*
X233526213Y-159720082D01*
X233528665Y-159715976D01*
X233534606Y-159707045D01*
X233540210Y-159697926D01*
X233542908Y-159693981D01*
X233546142Y-159689712D01*
X233555741Y-159675291D01*
X233558596Y-159671426D01*
X233561700Y-159667627D01*
X233522014Y-159627941D01*
X233273112Y-159876843D01*
X232568835Y-159876843D01*
X232319933Y-159627941D01*
X232071031Y-159876843D01*
X231366753Y-159876843D01*
X231117851Y-159627941D01*
X230868949Y-159876843D01*
X230164672Y-159876843D01*
X229915770Y-159627941D01*
X229666868Y-159876843D01*
X229050500Y-159876843D01*
X229050500Y-159830814D01*
X229050499Y-159830813D01*
X229026047Y-159739558D01*
X229014688Y-159697164D01*
X229014687Y-159697163D01*
X229014687Y-159697161D01*
X228945504Y-159577334D01*
X228847665Y-159479495D01*
X228727838Y-159410312D01*
X228727834Y-159410311D01*
X228594186Y-159374500D01*
X228594183Y-159374500D01*
X228455817Y-159374500D01*
X228402651Y-159388744D01*
X228365469Y-159383847D01*
X228355322Y-159376061D01*
X228113851Y-159134590D01*
X229207038Y-159134590D01*
X229309177Y-159236729D01*
X229311370Y-159239070D01*
X229328642Y-159258766D01*
X229330677Y-159261245D01*
X229350529Y-159287119D01*
X229352396Y-159289725D01*
X229366941Y-159311494D01*
X229368633Y-159314216D01*
X229425947Y-159413485D01*
X229563631Y-159275802D01*
X230267908Y-159275802D01*
X230516811Y-159524704D01*
X230765713Y-159275802D01*
X231469989Y-159275802D01*
X231718892Y-159524704D01*
X231967794Y-159275802D01*
X232672071Y-159275802D01*
X232920974Y-159524704D01*
X233169876Y-159275802D01*
X232920974Y-159026900D01*
X232672071Y-159275802D01*
X231967794Y-159275802D01*
X231718892Y-159026900D01*
X231469989Y-159275802D01*
X230765713Y-159275802D01*
X230516811Y-159026900D01*
X230267908Y-159275802D01*
X229563631Y-159275802D01*
X229314728Y-159026899D01*
X229207038Y-159134590D01*
X228113851Y-159134590D01*
X228089852Y-159110591D01*
X228075500Y-159075943D01*
X228075500Y-158566048D01*
X228573500Y-158566048D01*
X228573500Y-158783476D01*
X228672541Y-158882517D01*
X228675334Y-158882885D01*
X228678498Y-158883407D01*
X228704196Y-158888518D01*
X228707320Y-158889247D01*
X228739485Y-158897865D01*
X228962588Y-158674762D01*
X229666868Y-158674762D01*
X229915770Y-158923664D01*
X230164672Y-158674762D01*
X230868949Y-158674762D01*
X231117851Y-158923664D01*
X231366753Y-158674762D01*
X232071031Y-158674762D01*
X232319933Y-158923664D01*
X232568835Y-158674762D01*
X232568834Y-158674761D01*
X233273111Y-158674761D01*
X233522013Y-158923663D01*
X233651840Y-158793837D01*
X233647078Y-158789094D01*
X233602450Y-158747724D01*
X233599090Y-158744288D01*
X233573036Y-158714889D01*
X233570030Y-158711141D01*
X233559987Y-158697282D01*
X233556590Y-158693154D01*
X233553731Y-158689311D01*
X233547716Y-158680345D01*
X233541380Y-158671601D01*
X233538764Y-158667594D01*
X233536054Y-158662963D01*
X233526511Y-158648738D01*
X233524032Y-158644621D01*
X233505449Y-158610015D01*
X233503386Y-158605673D01*
X233480003Y-158549534D01*
X233454586Y-158494193D01*
X233454326Y-158493546D01*
X233273111Y-158674761D01*
X232568834Y-158674761D01*
X232319933Y-158425860D01*
X232071031Y-158674762D01*
X231366753Y-158674762D01*
X231117851Y-158425860D01*
X230868949Y-158674762D01*
X230164672Y-158674762D01*
X229915770Y-158425860D01*
X229666868Y-158674762D01*
X228962588Y-158674762D01*
X228962589Y-158674761D01*
X228713688Y-158425860D01*
X228573500Y-158566048D01*
X228075500Y-158566048D01*
X228075500Y-158073721D01*
X229065827Y-158073721D01*
X229314729Y-158322623D01*
X229563631Y-158073721D01*
X230267909Y-158073721D01*
X230516811Y-158322623D01*
X230765713Y-158073721D01*
X231469990Y-158073721D01*
X231718892Y-158322623D01*
X231967794Y-158073721D01*
X232672072Y-158073721D01*
X232920974Y-158322623D01*
X233169876Y-158073721D01*
X232920974Y-157824819D01*
X232672072Y-158073721D01*
X231967794Y-158073721D01*
X231718892Y-157824819D01*
X231469990Y-158073721D01*
X230765713Y-158073721D01*
X230516811Y-157824819D01*
X230267909Y-158073721D01*
X229563631Y-158073721D01*
X229314729Y-157824819D01*
X229065827Y-158073721D01*
X228075500Y-158073721D01*
X228075500Y-157363966D01*
X228573500Y-157363966D01*
X228573500Y-157581394D01*
X228713688Y-157721582D01*
X228962590Y-157472680D01*
X229666868Y-157472680D01*
X229915770Y-157721582D01*
X230164672Y-157472680D01*
X230868949Y-157472680D01*
X231117851Y-157721582D01*
X231366753Y-157472680D01*
X232071031Y-157472680D01*
X232319933Y-157721582D01*
X232568835Y-157472680D01*
X232568834Y-157472679D01*
X233273111Y-157472679D01*
X233416046Y-157615614D01*
X233415490Y-157330300D01*
X233273111Y-157472679D01*
X232568834Y-157472679D01*
X232319933Y-157223778D01*
X232071031Y-157472680D01*
X231366753Y-157472680D01*
X231117851Y-157223778D01*
X230868949Y-157472680D01*
X230164672Y-157472680D01*
X229915770Y-157223778D01*
X229666868Y-157472680D01*
X228962590Y-157472680D01*
X228713688Y-157223778D01*
X228573500Y-157363966D01*
X228075500Y-157363966D01*
X228075500Y-156871639D01*
X229065827Y-156871639D01*
X229314729Y-157120541D01*
X229563631Y-156871639D01*
X230267909Y-156871639D01*
X230516811Y-157120541D01*
X230765713Y-156871639D01*
X231469990Y-156871639D01*
X231718892Y-157120541D01*
X231967794Y-156871639D01*
X232672072Y-156871639D01*
X232920974Y-157120541D01*
X233169876Y-156871639D01*
X232920974Y-156622737D01*
X232672072Y-156871639D01*
X231967794Y-156871639D01*
X231718892Y-156622737D01*
X231469990Y-156871639D01*
X230765713Y-156871639D01*
X230516811Y-156622737D01*
X230267909Y-156871639D01*
X229563631Y-156871639D01*
X229314729Y-156622737D01*
X229065827Y-156871639D01*
X228075500Y-156871639D01*
X228075500Y-156161885D01*
X228573500Y-156161885D01*
X228573500Y-156379313D01*
X228713688Y-156519501D01*
X228962590Y-156270599D01*
X229666868Y-156270599D01*
X229915770Y-156519501D01*
X230164672Y-156270599D01*
X230868949Y-156270599D01*
X231117851Y-156519501D01*
X231366753Y-156270599D01*
X232071031Y-156270599D01*
X232319933Y-156519501D01*
X232568835Y-156270599D01*
X232568834Y-156270598D01*
X233273111Y-156270598D01*
X233413701Y-156411188D01*
X233413154Y-156130555D01*
X233273111Y-156270598D01*
X232568834Y-156270598D01*
X232319933Y-156021697D01*
X232071031Y-156270599D01*
X231366753Y-156270599D01*
X231117851Y-156021697D01*
X230868949Y-156270599D01*
X230164672Y-156270599D01*
X229915770Y-156021697D01*
X229666868Y-156270599D01*
X228962590Y-156270599D01*
X228713688Y-156021697D01*
X228573500Y-156161885D01*
X228075500Y-156161885D01*
X228075500Y-155669558D01*
X229065827Y-155669558D01*
X229314729Y-155918460D01*
X229563631Y-155669558D01*
X230267909Y-155669558D01*
X230516811Y-155918460D01*
X230765713Y-155669558D01*
X231469990Y-155669558D01*
X231718892Y-155918460D01*
X231967794Y-155669558D01*
X232672072Y-155669558D01*
X232920974Y-155918460D01*
X233169876Y-155669558D01*
X232920974Y-155420656D01*
X232672072Y-155669558D01*
X231967794Y-155669558D01*
X231718892Y-155420656D01*
X231469990Y-155669558D01*
X230765713Y-155669558D01*
X230516811Y-155420656D01*
X230267909Y-155669558D01*
X229563631Y-155669558D01*
X229314729Y-155420656D01*
X229065827Y-155669558D01*
X228075500Y-155669558D01*
X228075500Y-154959803D01*
X228573500Y-154959803D01*
X228573500Y-155177231D01*
X228713688Y-155317419D01*
X228962590Y-155068517D01*
X229666868Y-155068517D01*
X229915770Y-155317419D01*
X230164672Y-155068517D01*
X230868949Y-155068517D01*
X231117851Y-155317419D01*
X231366753Y-155068517D01*
X232071031Y-155068517D01*
X232319933Y-155317419D01*
X232568835Y-155068517D01*
X232568834Y-155068516D01*
X233273111Y-155068516D01*
X233411356Y-155206761D01*
X233410818Y-154930809D01*
X233273111Y-155068516D01*
X232568834Y-155068516D01*
X232319933Y-154819615D01*
X232071031Y-155068517D01*
X231366753Y-155068517D01*
X231117851Y-154819615D01*
X230868949Y-155068517D01*
X230164672Y-155068517D01*
X229915770Y-154819615D01*
X229666868Y-155068517D01*
X228962590Y-155068517D01*
X228713688Y-154819615D01*
X228573500Y-154959803D01*
X228075500Y-154959803D01*
X228075500Y-154467476D01*
X229065827Y-154467476D01*
X229314729Y-154716378D01*
X229563631Y-154467476D01*
X230267909Y-154467476D01*
X230516811Y-154716378D01*
X230765713Y-154467476D01*
X231469990Y-154467476D01*
X231718892Y-154716378D01*
X231967794Y-154467476D01*
X232672072Y-154467476D01*
X232920974Y-154716378D01*
X233169876Y-154467476D01*
X232920974Y-154218574D01*
X232672072Y-154467476D01*
X231967794Y-154467476D01*
X231718892Y-154218574D01*
X231469990Y-154467476D01*
X230765713Y-154467476D01*
X230516811Y-154218574D01*
X230267909Y-154467476D01*
X229563631Y-154467476D01*
X229314729Y-154218574D01*
X229065827Y-154467476D01*
X228075500Y-154467476D01*
X228075500Y-153732108D01*
X228089852Y-153697460D01*
X228124500Y-153683108D01*
X228159148Y-153697460D01*
X228166932Y-153707605D01*
X228204495Y-153772665D01*
X228302335Y-153870505D01*
X228346194Y-153895827D01*
X228422161Y-153939687D01*
X228422163Y-153939687D01*
X228422164Y-153939688D01*
X228527571Y-153967931D01*
X228555813Y-153975499D01*
X228555814Y-153975500D01*
X228555817Y-153975500D01*
X228694186Y-153975500D01*
X228694186Y-153975499D01*
X228827836Y-153939688D01*
X228947665Y-153870505D01*
X228951734Y-153866436D01*
X229666868Y-153866436D01*
X229915770Y-154115338D01*
X230164672Y-153866436D01*
X230868949Y-153866436D01*
X231117851Y-154115338D01*
X231366753Y-153866436D01*
X232071031Y-153866436D01*
X232319933Y-154115338D01*
X232568835Y-153866436D01*
X232568834Y-153866435D01*
X233273111Y-153866435D01*
X233409010Y-154002334D01*
X233408482Y-153731064D01*
X233273111Y-153866435D01*
X232568834Y-153866435D01*
X232319933Y-153617534D01*
X232071031Y-153866436D01*
X231366753Y-153866436D01*
X231117851Y-153617534D01*
X230868949Y-153866436D01*
X230164672Y-153866436D01*
X229915770Y-153617534D01*
X229666868Y-153866436D01*
X228951734Y-153866436D01*
X229045505Y-153772665D01*
X229114688Y-153652836D01*
X229116144Y-153647401D01*
X229128825Y-153625434D01*
X229352817Y-153401442D01*
X230403956Y-153401442D01*
X230516811Y-153514297D01*
X230765713Y-153265395D01*
X231469990Y-153265395D01*
X231718892Y-153514297D01*
X231967794Y-153265395D01*
X232672072Y-153265395D01*
X232920974Y-153514297D01*
X233169876Y-153265395D01*
X232920974Y-153016493D01*
X232672072Y-153265395D01*
X231967794Y-153265395D01*
X231718892Y-153016493D01*
X231469990Y-153265395D01*
X230765713Y-153265395D01*
X230672993Y-153172675D01*
X230661370Y-153185930D01*
X230659177Y-153188271D01*
X230538271Y-153309177D01*
X230535930Y-153311370D01*
X230516234Y-153328642D01*
X230513755Y-153330677D01*
X230487881Y-153350529D01*
X230485275Y-153352396D01*
X230463506Y-153366941D01*
X230460784Y-153368633D01*
X230403956Y-153401442D01*
X229352817Y-153401442D01*
X229705323Y-153048935D01*
X229739970Y-153034584D01*
X229752651Y-153036253D01*
X229769137Y-153040671D01*
X229805815Y-153050500D01*
X229805817Y-153050500D01*
X229944186Y-153050500D01*
X229944186Y-153050499D01*
X230077836Y-153014688D01*
X230197665Y-152945505D01*
X230295505Y-152847665D01*
X230364688Y-152727836D01*
X230376008Y-152685587D01*
X230890182Y-152685587D01*
X231117851Y-152913256D01*
X231366753Y-152664354D01*
X232071031Y-152664354D01*
X232319933Y-152913256D01*
X232568835Y-152664354D01*
X232568834Y-152664353D01*
X233273111Y-152664353D01*
X233406665Y-152797907D01*
X233406146Y-152531318D01*
X233273111Y-152664353D01*
X232568834Y-152664353D01*
X232319933Y-152415452D01*
X232071031Y-152664354D01*
X231366753Y-152664354D01*
X231117850Y-152415451D01*
X230896907Y-152636394D01*
X230896684Y-152639808D01*
X230896370Y-152642999D01*
X230892115Y-152675333D01*
X230891593Y-152678498D01*
X230890182Y-152685587D01*
X230376008Y-152685587D01*
X230400499Y-152594186D01*
X230400500Y-152594186D01*
X230400500Y-152455814D01*
X230400499Y-152455813D01*
X230367619Y-152333103D01*
X230364688Y-152322164D01*
X230364687Y-152322163D01*
X230364687Y-152322161D01*
X230295504Y-152202334D01*
X230197665Y-152104495D01*
X230126337Y-152063313D01*
X231469990Y-152063313D01*
X231718892Y-152312215D01*
X231967794Y-152063313D01*
X232672072Y-152063313D01*
X232920974Y-152312215D01*
X233169876Y-152063313D01*
X232920974Y-151814411D01*
X232672072Y-152063313D01*
X231967794Y-152063313D01*
X231718892Y-151814411D01*
X231469990Y-152063313D01*
X230126337Y-152063313D01*
X230077838Y-152035312D01*
X230077834Y-152035311D01*
X229944186Y-151999500D01*
X229944183Y-151999500D01*
X229805817Y-151999500D01*
X229805814Y-151999500D01*
X229672165Y-152035311D01*
X229672161Y-152035312D01*
X229552334Y-152104495D01*
X229552334Y-152104496D01*
X229454496Y-152202334D01*
X229454495Y-152202334D01*
X229385312Y-152322161D01*
X229385311Y-152322165D01*
X229349500Y-152455813D01*
X229349500Y-152594186D01*
X229363744Y-152647346D01*
X229358849Y-152684528D01*
X229351062Y-152694676D01*
X229016602Y-153029136D01*
X228981954Y-153043488D01*
X228950860Y-153030608D01*
X228950214Y-153031451D01*
X228947665Y-153029495D01*
X228827838Y-152960312D01*
X228827834Y-152960311D01*
X228694186Y-152924500D01*
X228694183Y-152924500D01*
X228555817Y-152924500D01*
X228555814Y-152924500D01*
X228422165Y-152960311D01*
X228422161Y-152960312D01*
X228302334Y-153029495D01*
X228302334Y-153029496D01*
X228204496Y-153127334D01*
X228204495Y-153127334D01*
X228166935Y-153192391D01*
X228137182Y-153215221D01*
X228100000Y-153210326D01*
X228077170Y-153180573D01*
X228075500Y-153167891D01*
X228075500Y-152599055D01*
X228089851Y-152564408D01*
X228580323Y-152073935D01*
X228614970Y-152059584D01*
X228627651Y-152061253D01*
X228644137Y-152065671D01*
X228680815Y-152075500D01*
X228680817Y-152075500D01*
X228819186Y-152075500D01*
X228819186Y-152075499D01*
X228952836Y-152039688D01*
X228960416Y-152035312D01*
X228968891Y-152030418D01*
X229072665Y-151970505D01*
X229170505Y-151872665D01*
X229239688Y-151752836D01*
X229275499Y-151619186D01*
X229275500Y-151619186D01*
X229275500Y-151480814D01*
X229275499Y-151480813D01*
X229245339Y-151368253D01*
X229760886Y-151368253D01*
X229761482Y-151370804D01*
X229766593Y-151396502D01*
X229767115Y-151399667D01*
X229771370Y-151432001D01*
X229771684Y-151435191D01*
X229773395Y-151461313D01*
X229773500Y-151464516D01*
X229773500Y-151502444D01*
X229786313Y-151501605D01*
X229789516Y-151501500D01*
X229960484Y-151501500D01*
X229963687Y-151501605D01*
X229989809Y-151503316D01*
X229992999Y-151503630D01*
X230025333Y-151507885D01*
X230028498Y-151508407D01*
X230054196Y-151513518D01*
X230057321Y-151514247D01*
X230100994Y-151525949D01*
X230164671Y-151462272D01*
X230868948Y-151462272D01*
X231117851Y-151711175D01*
X231366753Y-151462272D01*
X232071030Y-151462272D01*
X232319933Y-151711175D01*
X232568835Y-151462272D01*
X233273111Y-151462272D01*
X233404320Y-151593481D01*
X233403810Y-151331572D01*
X233273111Y-151462272D01*
X232568835Y-151462272D01*
X232319933Y-151213370D01*
X232071030Y-151462272D01*
X231366753Y-151462272D01*
X231117851Y-151213370D01*
X230868948Y-151462272D01*
X230164671Y-151462272D01*
X229915769Y-151213370D01*
X229760886Y-151368253D01*
X229245339Y-151368253D01*
X229242464Y-151357524D01*
X229239688Y-151347164D01*
X229239687Y-151347163D01*
X229239687Y-151347161D01*
X229170504Y-151227334D01*
X229072665Y-151129495D01*
X228952838Y-151060312D01*
X228952834Y-151060311D01*
X228819186Y-151024500D01*
X228819183Y-151024500D01*
X228680817Y-151024500D01*
X228680814Y-151024500D01*
X228547165Y-151060311D01*
X228547161Y-151060312D01*
X228427334Y-151129495D01*
X228427334Y-151129496D01*
X228329496Y-151227334D01*
X228329495Y-151227334D01*
X228260312Y-151347161D01*
X228260311Y-151347165D01*
X228224500Y-151480813D01*
X228224500Y-151619186D01*
X228238744Y-151672346D01*
X228233849Y-151709528D01*
X228226062Y-151719676D01*
X227612637Y-152333101D01*
X227574500Y-152425170D01*
X226319243Y-152425170D01*
X226309525Y-152415452D01*
X226060623Y-152664354D01*
X225356346Y-152664354D01*
X225107444Y-152415452D01*
X224858542Y-152664354D01*
X224154264Y-152664354D01*
X223905362Y-152415452D01*
X223656460Y-152664354D01*
X222952183Y-152664354D01*
X222703281Y-152415452D01*
X222454379Y-152664354D01*
X221750101Y-152664354D01*
X221501199Y-152415452D01*
X221252297Y-152664354D01*
X220548020Y-152664354D01*
X220299118Y-152415452D01*
X220050216Y-152664354D01*
X219345938Y-152664354D01*
X219097036Y-152415452D01*
X218848134Y-152664354D01*
X218143857Y-152664354D01*
X217894955Y-152415452D01*
X217646053Y-152664354D01*
X216941775Y-152664354D01*
X216692873Y-152415452D01*
X216443971Y-152664354D01*
X215739694Y-152664354D01*
X215490792Y-152415452D01*
X215241890Y-152664354D01*
X214537612Y-152664354D01*
X214288710Y-152415452D01*
X214039808Y-152664354D01*
X213335531Y-152664354D01*
X213086628Y-152415451D01*
X212837726Y-152664354D01*
X212133449Y-152664354D01*
X211884547Y-152415452D01*
X211635645Y-152664354D01*
X210931367Y-152664354D01*
X210682465Y-152415451D01*
X210433563Y-152664354D01*
X209729286Y-152664354D01*
X209480384Y-152415452D01*
X209231482Y-152664354D01*
X208527204Y-152664354D01*
X208278302Y-152415452D01*
X208029400Y-152664354D01*
X207325123Y-152664354D01*
X207076221Y-152415452D01*
X206827319Y-152664354D01*
X206123041Y-152664354D01*
X205874139Y-152415452D01*
X205625237Y-152664354D01*
X204920960Y-152664354D01*
X204672058Y-152415452D01*
X204423156Y-152664354D01*
X203718878Y-152664354D01*
X203469976Y-152415452D01*
X203221074Y-152664354D01*
X202516797Y-152664354D01*
X202267895Y-152415452D01*
X202018993Y-152664354D01*
X201314715Y-152664354D01*
X201065813Y-152415452D01*
X200816911Y-152664354D01*
X200112634Y-152664354D01*
X199863732Y-152415452D01*
X199614830Y-152664354D01*
X198700500Y-152664354D01*
X198700500Y-151878602D01*
X199198500Y-151878602D01*
X199198500Y-152248024D01*
X199262691Y-152312215D01*
X199511593Y-152063313D01*
X200215870Y-152063313D01*
X200464772Y-152312215D01*
X200713674Y-152063313D01*
X201417952Y-152063313D01*
X201666854Y-152312215D01*
X201915756Y-152063313D01*
X202620033Y-152063313D01*
X202868935Y-152312215D01*
X203117838Y-152063313D01*
X203822115Y-152063313D01*
X204071017Y-152312215D01*
X204319919Y-152063313D01*
X205024197Y-152063313D01*
X205273099Y-152312215D01*
X205522001Y-152063313D01*
X206226278Y-152063313D01*
X206475180Y-152312215D01*
X206724082Y-152063313D01*
X207428360Y-152063313D01*
X207677262Y-152312215D01*
X207926164Y-152063313D01*
X208630441Y-152063313D01*
X208879343Y-152312215D01*
X209128245Y-152063313D01*
X209832523Y-152063313D01*
X210081425Y-152312215D01*
X210330327Y-152063313D01*
X211034604Y-152063313D01*
X211283506Y-152312215D01*
X211532408Y-152063313D01*
X212236686Y-152063313D01*
X212485588Y-152312215D01*
X212734490Y-152063313D01*
X213438767Y-152063313D01*
X213687669Y-152312215D01*
X213936571Y-152063313D01*
X214640849Y-152063313D01*
X214889751Y-152312215D01*
X215138653Y-152063313D01*
X215842930Y-152063313D01*
X216091832Y-152312215D01*
X216340734Y-152063313D01*
X217045012Y-152063313D01*
X217293914Y-152312215D01*
X217542816Y-152063313D01*
X218247093Y-152063313D01*
X218495995Y-152312215D01*
X218744897Y-152063313D01*
X219449175Y-152063313D01*
X219698077Y-152312215D01*
X219946979Y-152063313D01*
X220651256Y-152063313D01*
X220900158Y-152312215D01*
X221149060Y-152063313D01*
X221853338Y-152063313D01*
X222102240Y-152312215D01*
X222351142Y-152063313D01*
X223055419Y-152063313D01*
X223304321Y-152312215D01*
X223553223Y-152063313D01*
X224257501Y-152063313D01*
X224506403Y-152312215D01*
X224755305Y-152063313D01*
X225459583Y-152063313D01*
X225708485Y-152312215D01*
X225957387Y-152063313D01*
X226661664Y-152063313D01*
X226910566Y-152312215D01*
X227159468Y-152063313D01*
X226910566Y-151814411D01*
X226661664Y-152063313D01*
X225957387Y-152063313D01*
X225708485Y-151814411D01*
X225459583Y-152063313D01*
X224755305Y-152063313D01*
X224506403Y-151814411D01*
X224257501Y-152063313D01*
X223553223Y-152063313D01*
X223304321Y-151814410D01*
X223055419Y-152063313D01*
X222351142Y-152063313D01*
X222102240Y-151814411D01*
X221853338Y-152063313D01*
X221149060Y-152063313D01*
X220900158Y-151814411D01*
X220651256Y-152063313D01*
X219946979Y-152063313D01*
X219698077Y-151814411D01*
X219449175Y-152063313D01*
X218744897Y-152063313D01*
X218495995Y-151814411D01*
X218247093Y-152063313D01*
X217542816Y-152063313D01*
X217293914Y-151814411D01*
X217045012Y-152063313D01*
X216340734Y-152063313D01*
X216091832Y-151814411D01*
X215842930Y-152063313D01*
X215138653Y-152063313D01*
X214889751Y-151814411D01*
X214640849Y-152063313D01*
X213936571Y-152063313D01*
X213687669Y-151814411D01*
X213438767Y-152063313D01*
X212734490Y-152063313D01*
X212485588Y-151814411D01*
X212236686Y-152063313D01*
X211532408Y-152063313D01*
X211283506Y-151814411D01*
X211034604Y-152063313D01*
X210330327Y-152063313D01*
X210081425Y-151814411D01*
X209832523Y-152063313D01*
X209128245Y-152063313D01*
X208879343Y-151814411D01*
X208630441Y-152063313D01*
X207926164Y-152063313D01*
X207677262Y-151814411D01*
X207428360Y-152063313D01*
X206724082Y-152063313D01*
X206475180Y-151814411D01*
X206226278Y-152063313D01*
X205522001Y-152063313D01*
X205273099Y-151814411D01*
X205024197Y-152063313D01*
X204319919Y-152063313D01*
X204071017Y-151814411D01*
X203822115Y-152063313D01*
X203117838Y-152063313D01*
X202868935Y-151814410D01*
X202620033Y-152063313D01*
X201915756Y-152063313D01*
X201666854Y-151814411D01*
X201417952Y-152063313D01*
X200713674Y-152063313D01*
X200464772Y-151814410D01*
X200215870Y-152063313D01*
X199511593Y-152063313D01*
X199262691Y-151814411D01*
X199198500Y-151878602D01*
X198700500Y-151878602D01*
X198700500Y-151590161D01*
X227390593Y-151590161D01*
X227511607Y-151711175D01*
X227726500Y-151496282D01*
X227726500Y-151464516D01*
X227726605Y-151461313D01*
X227728316Y-151435191D01*
X227728630Y-151432002D01*
X227728816Y-151430580D01*
X227630922Y-151332685D01*
X227619913Y-151353388D01*
X227617445Y-151357524D01*
X227613517Y-151363426D01*
X227612357Y-151365520D01*
X227609760Y-151369696D01*
X227599837Y-151383993D01*
X227590288Y-151398363D01*
X227587387Y-151402287D01*
X227585852Y-151404161D01*
X227581698Y-151410153D01*
X227578761Y-151413973D01*
X227553273Y-151443954D01*
X227549978Y-151447465D01*
X227501827Y-151493960D01*
X227454583Y-151541423D01*
X227451020Y-151544666D01*
X227420637Y-151569708D01*
X227416770Y-151572587D01*
X227410872Y-151576543D01*
X227408986Y-151578043D01*
X227404994Y-151580903D01*
X227390593Y-151590161D01*
X198700500Y-151590161D01*
X198700500Y-151323824D01*
X198714852Y-151289176D01*
X198749387Y-151274824D01*
X226974186Y-151211174D01*
X226975127Y-151211180D01*
X227022010Y-151212000D01*
X227022015Y-151211997D01*
X227022946Y-151211830D01*
X227023230Y-151211804D01*
X227024018Y-151211646D01*
X227024963Y-151211465D01*
X227025757Y-151211321D01*
X227026022Y-151211243D01*
X227026949Y-151211056D01*
X227026954Y-151211056D01*
X227070301Y-151192985D01*
X227070998Y-151192702D01*
X227114731Y-151175477D01*
X227114734Y-151175474D01*
X227115530Y-151174962D01*
X227115770Y-151174836D01*
X227116416Y-151174403D01*
X227117234Y-151173866D01*
X227117930Y-151173418D01*
X227118154Y-151173237D01*
X227118934Y-151172713D01*
X227118937Y-151172712D01*
X227152079Y-151139419D01*
X227152606Y-151138900D01*
X227186417Y-151106250D01*
X227186418Y-151106246D01*
X227186958Y-151105469D01*
X227187141Y-151105249D01*
X227187583Y-151104585D01*
X227188132Y-151103776D01*
X227188583Y-151103125D01*
X227188718Y-151102877D01*
X227189239Y-151102092D01*
X227189245Y-151102087D01*
X227206438Y-151060312D01*
X227207101Y-151058702D01*
X227207477Y-151057812D01*
X227221962Y-151024500D01*
X227226153Y-151014861D01*
X227226153Y-151014859D01*
X227226355Y-151013931D01*
X227226437Y-151013665D01*
X227226594Y-151012870D01*
X227226796Y-151011895D01*
X227226958Y-151011145D01*
X227226988Y-151010869D01*
X227227171Y-151009935D01*
X227227173Y-151009932D01*
X227227067Y-150963032D01*
X227227074Y-150962080D01*
X227227961Y-150911245D01*
X227228834Y-150861232D01*
X227863746Y-150861232D01*
X227931053Y-150928539D01*
X227944323Y-150911245D01*
X227946358Y-150908766D01*
X227963630Y-150889070D01*
X227965823Y-150886729D01*
X228086729Y-150765823D01*
X228089070Y-150763630D01*
X228108766Y-150746358D01*
X228111245Y-150744323D01*
X228137119Y-150724471D01*
X228139725Y-150722604D01*
X228161494Y-150708059D01*
X228164216Y-150706367D01*
X228191140Y-150690822D01*
X228164558Y-150664240D01*
X229262818Y-150664240D01*
X229335784Y-150706367D01*
X229338506Y-150708059D01*
X229360275Y-150722604D01*
X229362881Y-150724471D01*
X229388755Y-150744323D01*
X229391234Y-150746358D01*
X229410930Y-150763630D01*
X229413271Y-150765823D01*
X229534177Y-150886729D01*
X229536090Y-150888771D01*
X229563629Y-150861232D01*
X230267909Y-150861232D01*
X230516811Y-151110134D01*
X230765713Y-150861232D01*
X231469990Y-150861232D01*
X231718892Y-151110134D01*
X231967794Y-150861232D01*
X232672072Y-150861232D01*
X232920974Y-151110134D01*
X233169876Y-150861232D01*
X232920974Y-150612330D01*
X232672072Y-150861232D01*
X231967794Y-150861232D01*
X231718892Y-150612330D01*
X231469990Y-150861232D01*
X230765713Y-150861232D01*
X230516811Y-150612330D01*
X230267909Y-150861232D01*
X229563629Y-150861232D01*
X229563630Y-150861231D01*
X229314728Y-150612329D01*
X229262818Y-150664240D01*
X228164558Y-150664240D01*
X228112648Y-150612330D01*
X227863746Y-150861232D01*
X227228834Y-150861232D01*
X227239324Y-150260191D01*
X228464786Y-150260191D01*
X228713688Y-150509093D01*
X228962590Y-150260191D01*
X229666868Y-150260191D01*
X229915770Y-150509093D01*
X230164672Y-150260191D01*
X230868949Y-150260191D01*
X231117851Y-150509093D01*
X231366753Y-150260191D01*
X232071031Y-150260191D01*
X232319933Y-150509093D01*
X232568835Y-150260191D01*
X232568834Y-150260190D01*
X233273111Y-150260190D01*
X233401976Y-150389055D01*
X233401475Y-150131826D01*
X233273111Y-150260190D01*
X232568834Y-150260190D01*
X232319933Y-150011289D01*
X232071031Y-150260191D01*
X231366753Y-150260191D01*
X231117851Y-150011289D01*
X230868949Y-150260191D01*
X230164672Y-150260191D01*
X229915770Y-150011289D01*
X229666868Y-150260191D01*
X228962590Y-150260191D01*
X228713688Y-150011289D01*
X228464786Y-150260191D01*
X227239324Y-150260191D01*
X227249813Y-149659150D01*
X227863746Y-149659150D01*
X228112648Y-149908052D01*
X228361550Y-149659150D01*
X229065827Y-149659150D01*
X229314729Y-149908052D01*
X229563631Y-149659150D01*
X230267909Y-149659150D01*
X230516811Y-149908052D01*
X230765713Y-149659150D01*
X231469990Y-149659150D01*
X231718892Y-149908052D01*
X231967794Y-149659150D01*
X232672072Y-149659150D01*
X232920974Y-149908052D01*
X233169876Y-149659150D01*
X232920974Y-149410248D01*
X232672072Y-149659150D01*
X231967794Y-149659150D01*
X231718892Y-149410248D01*
X231469990Y-149659150D01*
X230765713Y-149659150D01*
X230516811Y-149410248D01*
X230267909Y-149659150D01*
X229563631Y-149659150D01*
X229314729Y-149410248D01*
X229065827Y-149659150D01*
X228361550Y-149659150D01*
X228112648Y-149410248D01*
X227863746Y-149659150D01*
X227249813Y-149659150D01*
X227260303Y-149058109D01*
X228464785Y-149058109D01*
X228713688Y-149307011D01*
X228962590Y-149058109D01*
X229666867Y-149058109D01*
X229915770Y-149307011D01*
X230164672Y-149058109D01*
X230868948Y-149058109D01*
X231117851Y-149307011D01*
X231366753Y-149058109D01*
X232071030Y-149058109D01*
X232319933Y-149307011D01*
X232568835Y-149058109D01*
X232568834Y-149058108D01*
X233273111Y-149058108D01*
X233399631Y-149184628D01*
X233399139Y-148932080D01*
X233273111Y-149058108D01*
X232568834Y-149058108D01*
X232319933Y-148809207D01*
X232071030Y-149058109D01*
X231366753Y-149058109D01*
X231117851Y-148809207D01*
X230868948Y-149058109D01*
X230164672Y-149058109D01*
X229915770Y-148809207D01*
X229666867Y-149058109D01*
X228962590Y-149058109D01*
X228713688Y-148809207D01*
X228464785Y-149058109D01*
X227260303Y-149058109D01*
X227270792Y-148457069D01*
X227863746Y-148457069D01*
X228112648Y-148705971D01*
X228361550Y-148457069D01*
X229065827Y-148457069D01*
X229314729Y-148705971D01*
X229563631Y-148457069D01*
X230267909Y-148457069D01*
X230516811Y-148705971D01*
X230765713Y-148457069D01*
X231469990Y-148457069D01*
X231718892Y-148705971D01*
X231967794Y-148457069D01*
X232672072Y-148457069D01*
X232920974Y-148705971D01*
X233169876Y-148457069D01*
X232920974Y-148208167D01*
X232672072Y-148457069D01*
X231967794Y-148457069D01*
X231718892Y-148208167D01*
X231469990Y-148457069D01*
X230765713Y-148457069D01*
X230516811Y-148208167D01*
X230267909Y-148457069D01*
X229563631Y-148457069D01*
X229314729Y-148208167D01*
X229065827Y-148457069D01*
X228361550Y-148457069D01*
X228112648Y-148208167D01*
X227863746Y-148457069D01*
X227270792Y-148457069D01*
X227281282Y-147856028D01*
X228464786Y-147856028D01*
X228713688Y-148104930D01*
X228962590Y-147856028D01*
X229666868Y-147856028D01*
X229915770Y-148104930D01*
X230164672Y-147856028D01*
X230868949Y-147856028D01*
X231117851Y-148104930D01*
X231366753Y-147856028D01*
X232071031Y-147856028D01*
X232319933Y-148104930D01*
X232568835Y-147856028D01*
X233273112Y-147856028D01*
X233395877Y-147978793D01*
X233395137Y-147958371D01*
X233395199Y-147953566D01*
X233397627Y-147914361D01*
X233398159Y-147909585D01*
X233400743Y-147893564D01*
X233401246Y-147888420D01*
X233401938Y-147883712D01*
X233404121Y-147872626D01*
X233405921Y-147861479D01*
X233406905Y-147856831D01*
X233408218Y-147851832D01*
X233411363Y-147835877D01*
X233412521Y-147831217D01*
X233423848Y-147793618D01*
X233425457Y-147789091D01*
X233448872Y-147732239D01*
X233470308Y-147674675D01*
X233472204Y-147670259D01*
X233484938Y-147644201D01*
X233273112Y-147856028D01*
X232568835Y-147856028D01*
X232319933Y-147607126D01*
X232071031Y-147856028D01*
X231366753Y-147856028D01*
X231117851Y-147607126D01*
X230868949Y-147856028D01*
X230164672Y-147856028D01*
X229915770Y-147607126D01*
X229666868Y-147856028D01*
X228962590Y-147856028D01*
X228713688Y-147607126D01*
X228464786Y-147856028D01*
X227281282Y-147856028D01*
X227291771Y-147254987D01*
X227863746Y-147254987D01*
X228112648Y-147503889D01*
X228361550Y-147254987D01*
X229065827Y-147254987D01*
X229314729Y-147503889D01*
X229563631Y-147254987D01*
X230267909Y-147254987D01*
X230516811Y-147503889D01*
X230765713Y-147254987D01*
X231469990Y-147254987D01*
X231718892Y-147503889D01*
X231967794Y-147254987D01*
X232672072Y-147254987D01*
X232920974Y-147503889D01*
X233169876Y-147254987D01*
X232920974Y-147006085D01*
X232672072Y-147254987D01*
X231967794Y-147254987D01*
X231718892Y-147006085D01*
X231469990Y-147254987D01*
X230765713Y-147254987D01*
X230516811Y-147006085D01*
X230267909Y-147254987D01*
X229563631Y-147254987D01*
X229314729Y-147006085D01*
X229065827Y-147254987D01*
X228361550Y-147254987D01*
X228112648Y-147006085D01*
X227863746Y-147254987D01*
X227291771Y-147254987D01*
X227302261Y-146653946D01*
X228464786Y-146653946D01*
X228713688Y-146902848D01*
X228962590Y-146653946D01*
X229666868Y-146653946D01*
X229915770Y-146902848D01*
X230164672Y-146653946D01*
X230868949Y-146653946D01*
X231117851Y-146902848D01*
X231366753Y-146653946D01*
X232071031Y-146653946D01*
X232319933Y-146902848D01*
X232568835Y-146653946D01*
X232568834Y-146653945D01*
X233273111Y-146653945D01*
X233522013Y-146902847D01*
X233615002Y-146809859D01*
X233614479Y-146783507D01*
X233588479Y-146760293D01*
X233585053Y-146756917D01*
X233558436Y-146727985D01*
X233555357Y-146724289D01*
X233536815Y-146699671D01*
X233533319Y-146695428D01*
X233530446Y-146691570D01*
X233528261Y-146688314D01*
X233525912Y-146685195D01*
X233523214Y-146681222D01*
X233520354Y-146676531D01*
X233503167Y-146650916D01*
X233500687Y-146646798D01*
X233482095Y-146612179D01*
X233480031Y-146607835D01*
X233459312Y-146558092D01*
X233435925Y-146509582D01*
X233434052Y-146505156D01*
X233430794Y-146496262D01*
X233273111Y-146653945D01*
X232568834Y-146653945D01*
X232319933Y-146405044D01*
X232071031Y-146653946D01*
X231366753Y-146653946D01*
X231117851Y-146405044D01*
X230868949Y-146653946D01*
X230164672Y-146653946D01*
X229915770Y-146405044D01*
X229666868Y-146653946D01*
X228962590Y-146653946D01*
X228713688Y-146405044D01*
X228464786Y-146653946D01*
X227302261Y-146653946D01*
X227312750Y-146052906D01*
X227863746Y-146052906D01*
X228112648Y-146301808D01*
X228361550Y-146052906D01*
X229065827Y-146052906D01*
X229314729Y-146301808D01*
X229563631Y-146052906D01*
X230267909Y-146052906D01*
X230516811Y-146301808D01*
X230765713Y-146052906D01*
X231469990Y-146052906D01*
X231718892Y-146301808D01*
X231967794Y-146052906D01*
X232672072Y-146052906D01*
X232920974Y-146301808D01*
X233169876Y-146052906D01*
X232920974Y-145804004D01*
X232672072Y-146052906D01*
X231967794Y-146052906D01*
X231718892Y-145804004D01*
X231469990Y-146052906D01*
X230765713Y-146052906D01*
X230516811Y-145804004D01*
X230267909Y-146052906D01*
X229563631Y-146052906D01*
X229314729Y-145804004D01*
X229065827Y-146052906D01*
X228361550Y-146052906D01*
X228112648Y-145804004D01*
X227863746Y-146052906D01*
X227312750Y-146052906D01*
X227323240Y-145451865D01*
X228464786Y-145451865D01*
X228713688Y-145700767D01*
X228962590Y-145451865D01*
X229666868Y-145451865D01*
X229915770Y-145700767D01*
X230164672Y-145451865D01*
X230868949Y-145451865D01*
X231117851Y-145700767D01*
X231366753Y-145451865D01*
X232071031Y-145451865D01*
X232319933Y-145700767D01*
X232568835Y-145451865D01*
X232568834Y-145451864D01*
X233273111Y-145451864D01*
X233392595Y-145571348D01*
X233392130Y-145332845D01*
X233273111Y-145451864D01*
X232568834Y-145451864D01*
X232319933Y-145202963D01*
X232071031Y-145451865D01*
X231366753Y-145451865D01*
X231117851Y-145202963D01*
X230868949Y-145451865D01*
X230164672Y-145451865D01*
X229915770Y-145202963D01*
X229666868Y-145451865D01*
X228962590Y-145451865D01*
X228713688Y-145202963D01*
X228464786Y-145451865D01*
X227323240Y-145451865D01*
X227333729Y-144850824D01*
X227863746Y-144850824D01*
X228112648Y-145099726D01*
X228361550Y-144850824D01*
X229065827Y-144850824D01*
X229314729Y-145099726D01*
X229563631Y-144850824D01*
X230267909Y-144850824D01*
X230516811Y-145099726D01*
X230765713Y-144850824D01*
X231469990Y-144850824D01*
X231718892Y-145099726D01*
X231967794Y-144850824D01*
X232672072Y-144850824D01*
X232920974Y-145099726D01*
X233169876Y-144850824D01*
X232920974Y-144601922D01*
X232672072Y-144850824D01*
X231967794Y-144850824D01*
X231718892Y-144601922D01*
X231469990Y-144850824D01*
X230765713Y-144850824D01*
X230516811Y-144601922D01*
X230267909Y-144850824D01*
X229563631Y-144850824D01*
X229314729Y-144601922D01*
X229065827Y-144850824D01*
X228361550Y-144850824D01*
X228112648Y-144601922D01*
X227863746Y-144850824D01*
X227333729Y-144850824D01*
X227344219Y-144249783D01*
X228464786Y-144249783D01*
X228713688Y-144498685D01*
X228962590Y-144249783D01*
X229666868Y-144249783D01*
X229915770Y-144498685D01*
X230164672Y-144249783D01*
X230868949Y-144249783D01*
X231117851Y-144498685D01*
X231366753Y-144249783D01*
X232071031Y-144249783D01*
X232319933Y-144498685D01*
X232568835Y-144249783D01*
X232568834Y-144249782D01*
X233273111Y-144249782D01*
X233390251Y-144366922D01*
X233389795Y-144133098D01*
X233273111Y-144249782D01*
X232568834Y-144249782D01*
X232319933Y-144000881D01*
X232071031Y-144249783D01*
X231366753Y-144249783D01*
X231117851Y-144000881D01*
X230868949Y-144249783D01*
X230164672Y-144249783D01*
X229915770Y-144000881D01*
X229666868Y-144249783D01*
X228962590Y-144249783D01*
X228713688Y-144000881D01*
X228464786Y-144249783D01*
X227344219Y-144249783D01*
X227354708Y-143648742D01*
X227863745Y-143648742D01*
X228112648Y-143897645D01*
X228361550Y-143648743D01*
X229065827Y-143648743D01*
X229314729Y-143897645D01*
X229563631Y-143648743D01*
X230267909Y-143648743D01*
X230516811Y-143897645D01*
X230765713Y-143648743D01*
X231469990Y-143648743D01*
X231718892Y-143897645D01*
X231967794Y-143648743D01*
X232672072Y-143648743D01*
X232920974Y-143897645D01*
X233169876Y-143648743D01*
X232920974Y-143399841D01*
X232672072Y-143648743D01*
X231967794Y-143648743D01*
X231718892Y-143399841D01*
X231469990Y-143648743D01*
X230765713Y-143648743D01*
X230516811Y-143399841D01*
X230267909Y-143648743D01*
X229563631Y-143648743D01*
X229314729Y-143399841D01*
X229065827Y-143648743D01*
X228361550Y-143648743D01*
X228112647Y-143399840D01*
X227863745Y-143648742D01*
X227354708Y-143648742D01*
X227365197Y-143047702D01*
X228464786Y-143047702D01*
X228713688Y-143296604D01*
X228962590Y-143047702D01*
X229666868Y-143047702D01*
X229915770Y-143296604D01*
X230164672Y-143047702D01*
X230868949Y-143047702D01*
X231117851Y-143296604D01*
X231366753Y-143047702D01*
X232071031Y-143047702D01*
X232319933Y-143296604D01*
X232568835Y-143047702D01*
X232568834Y-143047701D01*
X233273111Y-143047701D01*
X233387906Y-143162496D01*
X233387460Y-142933352D01*
X233273111Y-143047701D01*
X232568834Y-143047701D01*
X232319933Y-142798800D01*
X232071031Y-143047702D01*
X231366753Y-143047702D01*
X231117851Y-142798800D01*
X230868949Y-143047702D01*
X230164672Y-143047702D01*
X229915770Y-142798800D01*
X229666868Y-143047702D01*
X228962590Y-143047702D01*
X228713688Y-142798800D01*
X228464786Y-143047702D01*
X227365197Y-143047702D01*
X227370517Y-142742895D01*
X227370520Y-142742882D01*
X227370632Y-142736451D01*
X227370633Y-142736450D01*
X227371360Y-142694647D01*
X227371673Y-142689929D01*
X227387456Y-142552670D01*
X227389448Y-142543399D01*
X227394224Y-142528422D01*
X227945507Y-142528422D01*
X228112648Y-142695563D01*
X228354332Y-142453879D01*
X229073045Y-142453879D01*
X229314729Y-142695563D01*
X229556413Y-142453879D01*
X230275127Y-142453879D01*
X230516811Y-142695563D01*
X230758495Y-142453879D01*
X231477208Y-142453879D01*
X231718892Y-142695563D01*
X231960576Y-142453879D01*
X232679290Y-142453879D01*
X232920974Y-142695563D01*
X233158033Y-142458503D01*
X233111054Y-142453879D01*
X232679290Y-142453879D01*
X231960576Y-142453879D01*
X231477208Y-142453879D01*
X230758495Y-142453879D01*
X230275127Y-142453879D01*
X229556413Y-142453879D01*
X229073045Y-142453879D01*
X228354332Y-142453879D01*
X228189419Y-142453879D01*
X228189359Y-142453882D01*
X228144934Y-142453879D01*
X228072689Y-142460912D01*
X228026423Y-142474779D01*
X227983706Y-142497312D01*
X227946142Y-142527663D01*
X227945507Y-142528422D01*
X227394224Y-142528422D01*
X227430697Y-142414039D01*
X227434438Y-142405331D01*
X227499871Y-142286365D01*
X227505221Y-142278544D01*
X227592380Y-142174438D01*
X227599148Y-142167787D01*
X227704754Y-142082461D01*
X227712673Y-142077244D01*
X227832764Y-142013897D01*
X227841539Y-142010307D01*
X227971594Y-141971325D01*
X227980908Y-141969494D01*
X228118402Y-141956109D01*
X228123148Y-141955879D01*
X228164945Y-141955881D01*
X228164947Y-141955879D01*
X228169608Y-141955880D01*
X228169629Y-141955879D01*
X233133095Y-141955879D01*
X233137895Y-141956115D01*
G37*
%TD.AperFunction*%
%TD*%
M02*
