%TF.GenerationSoftware,KiCad,Pcbnew,10.0.5*%
%TF.CreationDate,2026-09-21T19:13:41-07:00*%
%TF.ProjectId,FPC_Trigger_Board,4650435f-5472-4696-9767-65725f426f61,rev?*%
%TF.SameCoordinates,Original*%
%TF.FileFunction,Copper,L1,Top*%
%TF.FilePolarity,Positive*%
%FSLAX46Y46*%
G04 Gerber Fmt 4.6, Leading zero omitted, Abs format (unit mm)*
G04 Created by KiCad (PCBNEW 10.0.5) date 2026-09-21 19:13:41*
%MOMM*%
%LPD*%
G01*
G04 APERTURE LIST*
G04 Aperture macros list*
%AMRoundRect*
0 Rectangle with rounded corners*
0 $1 Rounding radius*
0 $2 $3 $4 $5 $6 $7 $8 $9 X,Y pos of 4 corners*
0 Add a 4 corners polygon primitive as box body*
4,1,4,$2,$3,$4,$5,$6,$7,$8,$9,$2,$3,0*
0 Add four circle primitives for the rounded corners*
1,1,$1+$1,$2,$3*
1,1,$1+$1,$4,$5*
1,1,$1+$1,$6,$7*
1,1,$1+$1,$8,$9*
0 Add four rect primitives between the rounded corners*
20,1,$1+$1,$2,$3,$4,$5,0*
20,1,$1+$1,$4,$5,$6,$7,0*
20,1,$1+$1,$6,$7,$8,$9,0*
20,1,$1+$1,$8,$9,$2,$3,0*%
G04 Aperture macros list end*
%TA.AperFunction,SMDPad,CuDef*%
%ADD10RoundRect,0.137500X-0.137500X0.525000X-0.137500X-0.525000X0.137500X-0.525000X0.137500X0.525000X0*%
%TD*%
%TA.AperFunction,SMDPad,CuDef*%
%ADD11RoundRect,0.100000X0.130000X0.100000X-0.130000X0.100000X-0.130000X-0.100000X0.130000X-0.100000X0*%
%TD*%
%TA.AperFunction,SMDPad,CuDef*%
%ADD12RoundRect,0.100000X-0.130000X-0.100000X0.130000X-0.100000X0.130000X0.100000X-0.130000X0.100000X0*%
%TD*%
%TA.AperFunction,SMDPad,CuDef*%
%ADD13RoundRect,0.015000X0.135000X-1.985000X0.135000X1.985000X-0.135000X1.985000X-0.135000X-1.985000X0*%
%TD*%
%TA.AperFunction,ViaPad*%
%ADD14C,0.750000*%
%TD*%
%TA.AperFunction,Conductor*%
%ADD15C,0.200000*%
%TD*%
G04 APERTURE END LIST*
D10*
%TO.P,U1,1,VCC_1*%
%TO.N,+3V3L*%
X240422632Y-158110941D03*
%TO.P,U1,2,~{EN}_2*%
%TO.N,TRIGGER_EN_L*%
X242222632Y-158110941D03*
%TO.P,U1,3,GND_3*%
%TO.N,GNDL*%
X242222632Y-155835941D03*
%TO.P,U1,4,NC_4*%
%TO.N,unconnected-(U1-NC-Pad4)*%
X241322632Y-155835941D03*
%TO.P,U1,5,OUT_5*%
%TO.N,ADC_3*%
X240422632Y-155835941D03*
%TD*%
D11*
%TO.P,C4,1*%
%TO.N,GND*%
X230020000Y-159375000D03*
%TO.P,C4,2*%
%TO.N,+3V3*%
X229380000Y-159375000D03*
%TD*%
D10*
%TO.P,U3,1,VCC_1*%
%TO.N,+3V3*%
X229398778Y-158110941D03*
%TO.P,U3,2,~{EN}_2*%
%TO.N,TRIGGER_EN_R*%
X231198778Y-158110941D03*
%TO.P,U3,3,GND_3*%
%TO.N,GND*%
X231198778Y-155835941D03*
%TO.P,U3,4,NC_4*%
%TO.N,unconnected-(U3-NC-Pad4)*%
X230298778Y-155835941D03*
%TO.P,U3,5,OUT_5*%
%TO.N,ADC_1*%
X229398778Y-155835941D03*
%TD*%
D12*
%TO.P,C3,1*%
%TO.N,GND*%
X228535000Y-147375000D03*
%TO.P,C3,2*%
%TO.N,+3V3*%
X229175000Y-147375000D03*
%TD*%
D11*
%TO.P,C2,1*%
%TO.N,GNDL*%
X241045000Y-147325000D03*
%TO.P,C2,2*%
%TO.N,+3V3L*%
X240405000Y-147325000D03*
%TD*%
D12*
%TO.P,C1,1*%
%TO.N,GNDL*%
X240205000Y-159400000D03*
%TO.P,C1,2*%
%TO.N,+3V3L*%
X240845000Y-159400000D03*
%TD*%
D10*
%TO.P,U4,1,VCC_1*%
%TO.N,+3V3*%
X229188416Y-146051880D03*
%TO.P,U4,2,~{EN}_2*%
%TO.N,TRIGGER_EN_R*%
X230988416Y-146051880D03*
%TO.P,U4,3,GND_3*%
%TO.N,GND*%
X230988416Y-143776880D03*
%TO.P,U4,4,NC_4*%
%TO.N,unconnected-(U4-NC-Pad4)*%
X230088416Y-143776880D03*
%TO.P,U4,5,OUT_5*%
%TO.N,ADC_0*%
X229188416Y-143776880D03*
%TD*%
%TO.P,U2,1,VCC_1*%
%TO.N,+3V3L*%
X240632994Y-146051880D03*
%TO.P,U2,2,~{EN}_2*%
%TO.N,TRIGGER_EN_L*%
X242432994Y-146051880D03*
%TO.P,U2,3,GND_3*%
%TO.N,GNDL*%
X242432994Y-143776880D03*
%TO.P,U2,4,NC_4*%
%TO.N,unconnected-(U2-NC-Pad4)*%
X241532994Y-143776880D03*
%TO.P,U2,5,OUT_5*%
%TO.N,ADC_2*%
X240632994Y-143776880D03*
%TD*%
D13*
%TO.P,J2,1,Pin_1_1*%
%TO.N,+3V3*%
X198950000Y-160600000D03*
%TO.P,J2,2,Pin_2_2*%
%TO.N,ADC_0*%
X199450001Y-160600000D03*
%TO.P,J2,3,Pin_3_3*%
%TO.N,ADC_1*%
X199950000Y-160600000D03*
%TO.P,J2,4,Pin_4_4*%
%TO.N,TRIGGER_EN_R*%
X200449999Y-160600000D03*
%TO.P,J2,5,Pin_5_5*%
%TO.N,GND*%
X200950000Y-160600000D03*
%TD*%
%TO.P,J1,1,Pin_1_1*%
%TO.N,+3V3L*%
X270575000Y-160600000D03*
%TO.P,J1,2,Pin_2_2*%
%TO.N,ADC_3*%
X271075001Y-160600000D03*
%TO.P,J1,3,Pin_3_3*%
%TO.N,ADC_2*%
X271575000Y-160600000D03*
%TO.P,J1,4,Pin_4_4*%
%TO.N,TRIGGER_EN_L*%
X272074999Y-160600000D03*
%TO.P,J1,5,Pin_5_5*%
%TO.N,GNDL*%
X272575000Y-160600000D03*
%TD*%
D14*
%TO.N,TRIGGER_EN_L*%
X242825000Y-152275000D03*
X243100000Y-158250000D03*
%TO.N,+3V3*%
X228525000Y-159900000D03*
X228125000Y-151275000D03*
%TO.N,TRIGGER_EN_R*%
X229875000Y-152525000D03*
X228625000Y-153450000D03*
%TO.N,+3V3L*%
X240400000Y-148275000D03*
X243750000Y-154650000D03*
%TD*%
%TO.N,GND*%
D15*
X200950000Y-160600000D02*
X200950000Y-154350000D01*
X200950000Y-154350000D02*
X201525000Y-153775000D01*
X201525000Y-153775000D02*
X201700000Y-153775000D01*
X201700000Y-153775000D02*
X201725000Y-153800000D01*
%TO.N,TRIGGER_EN_L*%
X243650000Y-153100000D02*
X242825000Y-152275000D01*
X272074999Y-160600000D02*
X272074999Y-154424999D01*
X242660761Y-158668560D02*
X243079321Y-158250000D01*
X243079321Y-158250000D02*
X243100000Y-158250000D01*
X242262461Y-158668560D02*
X242660761Y-158668560D01*
X242432994Y-146051880D02*
X242432994Y-151882994D01*
X242432994Y-151882994D02*
X242825000Y-152275000D01*
X272074999Y-154424999D02*
X270750000Y-153100000D01*
X270750000Y-153100000D02*
X243650000Y-153100000D01*
%TO.N,+3V3*%
X228525000Y-159900000D02*
X229225000Y-159900000D01*
X229225000Y-159900000D02*
X229380000Y-159745000D01*
X229380000Y-159745000D02*
X229380000Y-159375000D01*
X229175000Y-150225000D02*
X229175000Y-147375000D01*
X229188416Y-147361584D02*
X229175000Y-147375000D01*
X229188416Y-146051880D02*
X229188416Y-147361584D01*
X200150000Y-151825000D02*
X227575000Y-151825000D01*
X227575000Y-151825000D02*
X229175000Y-150225000D01*
X198950000Y-160600000D02*
X198950000Y-153025000D01*
X198950000Y-153025000D02*
X200150000Y-151825000D01*
X229380000Y-159375000D02*
X229380000Y-158129719D01*
X229380000Y-158129719D02*
X229398778Y-158110941D01*
%TO.N,ADC_3*%
X271075001Y-154850001D02*
X270375000Y-154150000D01*
X240422632Y-155835941D02*
X240422632Y-154677368D01*
X241150000Y-153950000D02*
X270175000Y-153950000D01*
X270175000Y-153950000D02*
X270375000Y-154150000D01*
X240422632Y-154677368D02*
X241150000Y-153950000D01*
X271075001Y-160600000D02*
X271075001Y-154850001D01*
%TO.N,ADC_2*%
X240632994Y-143776880D02*
X240632994Y-144357994D01*
X240632994Y-144357994D02*
X241800000Y-145525000D01*
X271575000Y-154650000D02*
X271575000Y-160600000D01*
X270475000Y-153550000D02*
X271575000Y-154650000D01*
X242925000Y-153550000D02*
X270475000Y-153550000D01*
X241800000Y-145525000D02*
X241800000Y-152425000D01*
X241800000Y-152425000D02*
X242925000Y-153550000D01*
%TO.N,ADC_0*%
X200550000Y-152250000D02*
X199450001Y-153349999D01*
X228975000Y-152250000D02*
X200550000Y-152250000D01*
X229188416Y-144538416D02*
X229900000Y-145250000D01*
X199450001Y-153349999D02*
X199450001Y-160600000D01*
X229900000Y-145250000D02*
X229900000Y-151325000D01*
X229188416Y-143776880D02*
X229188416Y-144538416D01*
X229900000Y-151325000D02*
X228975000Y-152250000D01*
%TO.N,ADC_1*%
X229398778Y-155835941D02*
X229398778Y-153248778D01*
X199950000Y-153700000D02*
X199950000Y-160600000D01*
X228900000Y-152750000D02*
X200900000Y-152750000D01*
X200900000Y-152750000D02*
X199950000Y-153700000D01*
X229398778Y-153248778D02*
X228900000Y-152750000D01*
%TO.N,TRIGGER_EN_R*%
X229875000Y-152525000D02*
X230988416Y-151411584D01*
X201225000Y-153250000D02*
X200449999Y-154025001D01*
X228625000Y-156525000D02*
X229100000Y-157000000D01*
X229100000Y-157000000D02*
X230775000Y-157000000D01*
X200449999Y-154025001D02*
X200449999Y-160600000D01*
X230775000Y-157000000D02*
X231198778Y-157423778D01*
X228575000Y-153250000D02*
X201225000Y-153250000D01*
X228625000Y-153200000D02*
X228575000Y-153250000D01*
X228625000Y-153450000D02*
X228625000Y-156525000D01*
X228625000Y-153450000D02*
X228625000Y-153200000D01*
X231198778Y-157423778D02*
X231198778Y-158110941D01*
X230988416Y-151411584D02*
X230988416Y-146051880D01*
%TO.N,+3V3L*%
X242925000Y-159400000D02*
X243750000Y-158575000D01*
X240405000Y-146869495D02*
X240405000Y-147325000D01*
X240632994Y-146051880D02*
X240470821Y-146214053D01*
X240470821Y-146214053D02*
X240470821Y-146803674D01*
X240405000Y-147325000D02*
X240405000Y-148270000D01*
X270575000Y-155075000D02*
X269925000Y-154425000D01*
X240845000Y-159400000D02*
X240845000Y-159095000D01*
X243750000Y-158575000D02*
X243750000Y-154650000D01*
X240845000Y-159095000D02*
X240591435Y-158841435D01*
X240470821Y-146803674D02*
X240405000Y-146869495D01*
X243975000Y-154425000D02*
X243750000Y-154650000D01*
X269925000Y-154425000D02*
X243975000Y-154425000D01*
X240405000Y-148270000D02*
X240400000Y-148275000D01*
X240400000Y-158133573D02*
X240422632Y-158110941D01*
X240845000Y-159400000D02*
X242925000Y-159400000D01*
X240591435Y-158841435D02*
X240591435Y-158360914D01*
X270575000Y-160600000D02*
X270575000Y-155075000D01*
%TO.N,GNDL*%
X271125000Y-152650000D02*
X244500000Y-152650000D01*
X244500000Y-152650000D02*
X244400000Y-152550000D01*
X272575000Y-154100000D02*
X271125000Y-152650000D01*
X272575000Y-160600000D02*
X272575000Y-154100000D01*
X244400000Y-152550000D02*
X244400000Y-152300000D01*
%TD*%
%TA.AperFunction,Conductor*%
%TO.N,GNDL*%
G36*
X238706708Y-141914786D02*
G01*
X238706708Y-141914785D01*
X238716459Y-141914956D01*
X238716557Y-141914956D01*
X243626859Y-142000666D01*
X243626866Y-142000667D01*
X243632349Y-142000762D01*
X243632350Y-142000763D01*
X243674146Y-142001492D01*
X243678872Y-142001805D01*
X243816125Y-142017594D01*
X243825403Y-142019587D01*
X243954750Y-142060836D01*
X243963473Y-142064584D01*
X244077703Y-142127415D01*
X244082421Y-142130010D01*
X244090262Y-142135373D01*
X244194358Y-142222526D01*
X244201016Y-142229302D01*
X244286332Y-142334894D01*
X244291558Y-142342827D01*
X244328589Y-142413026D01*
X244346331Y-142446660D01*
X244354901Y-142462905D01*
X244358497Y-142471697D01*
X244397478Y-142601732D01*
X244399311Y-142611053D01*
X244412699Y-142748546D01*
X244412930Y-142753295D01*
X244412910Y-150787532D01*
X244412910Y-150975092D01*
X244412910Y-150975093D01*
X244412910Y-151074749D01*
X244451046Y-151166818D01*
X244521512Y-151237286D01*
X244613581Y-151275422D01*
X272775502Y-151275498D01*
X272810148Y-151289850D01*
X272824500Y-151324498D01*
X272824500Y-158476000D01*
X272810148Y-158510648D01*
X272775500Y-158525000D01*
X272375099Y-158525000D01*
X272340451Y-158510648D01*
X272334345Y-158503204D01*
X272333742Y-158502302D01*
X272325499Y-158475101D01*
X272325499Y-154480536D01*
X272325500Y-154480527D01*
X272325500Y-154375174D01*
X272325499Y-154375170D01*
X272303159Y-154321239D01*
X272303158Y-154321237D01*
X272287363Y-154283102D01*
X272287361Y-154283100D01*
X272287360Y-154283098D01*
X272214106Y-154209845D01*
X272214099Y-154209839D01*
X270891899Y-152887637D01*
X270799829Y-152849500D01*
X270799828Y-152849500D01*
X243774057Y-152849500D01*
X243739409Y-152835148D01*
X243568615Y-152664354D01*
X271739721Y-152664354D01*
X271988623Y-152913256D01*
X272237525Y-152664354D01*
X271988623Y-152415452D01*
X271739721Y-152664354D01*
X243568615Y-152664354D01*
X243348937Y-152444676D01*
X243334585Y-152410028D01*
X243336255Y-152397345D01*
X243342197Y-152375172D01*
X243350500Y-152344183D01*
X243350500Y-152205817D01*
X243350500Y-152205814D01*
X243350499Y-152205813D01*
X243327908Y-152121502D01*
X243314688Y-152072164D01*
X243314687Y-152072163D01*
X243314687Y-152072161D01*
X243245504Y-151952334D01*
X243147665Y-151854495D01*
X243083188Y-151817269D01*
X243742565Y-151817269D01*
X243754124Y-151837289D01*
X243755636Y-151840118D01*
X243767223Y-151863616D01*
X243768547Y-151866538D01*
X243781026Y-151896670D01*
X243782155Y-151899670D01*
X243790569Y-151924459D01*
X243791499Y-151927526D01*
X243835753Y-152092680D01*
X243836482Y-152095804D01*
X243841593Y-152121502D01*
X243842115Y-152124667D01*
X243846370Y-152157001D01*
X243846684Y-152160191D01*
X243848395Y-152186313D01*
X243848500Y-152189516D01*
X243848500Y-152203421D01*
X243988608Y-152063313D01*
X244692887Y-152063313D01*
X244941789Y-152312215D01*
X245190691Y-152063313D01*
X245894968Y-152063313D01*
X246143870Y-152312215D01*
X246392773Y-152063313D01*
X247097050Y-152063313D01*
X247345952Y-152312215D01*
X247594854Y-152063313D01*
X248299132Y-152063313D01*
X248548034Y-152312215D01*
X248796936Y-152063313D01*
X249501213Y-152063313D01*
X249750115Y-152312215D01*
X249999017Y-152063313D01*
X250703295Y-152063313D01*
X250952197Y-152312215D01*
X251201099Y-152063313D01*
X251905376Y-152063313D01*
X252154278Y-152312215D01*
X252403180Y-152063313D01*
X253107458Y-152063313D01*
X253356360Y-152312215D01*
X253605262Y-152063313D01*
X254309539Y-152063313D01*
X254558441Y-152312215D01*
X254807343Y-152063313D01*
X255511621Y-152063313D01*
X255760523Y-152312215D01*
X256009425Y-152063313D01*
X256713702Y-152063313D01*
X256962604Y-152312215D01*
X257211506Y-152063313D01*
X257915784Y-152063313D01*
X258164686Y-152312215D01*
X258413588Y-152063313D01*
X259117865Y-152063313D01*
X259366767Y-152312215D01*
X259615669Y-152063313D01*
X260319947Y-152063313D01*
X260568849Y-152312215D01*
X260817751Y-152063313D01*
X261522028Y-152063313D01*
X261770930Y-152312215D01*
X262019832Y-152063313D01*
X262724110Y-152063313D01*
X262973012Y-152312215D01*
X263221914Y-152063313D01*
X263926191Y-152063313D01*
X264175093Y-152312215D01*
X264423995Y-152063313D01*
X265128273Y-152063313D01*
X265377175Y-152312215D01*
X265626077Y-152063313D01*
X266330354Y-152063313D01*
X266579256Y-152312215D01*
X266828159Y-152063313D01*
X267532436Y-152063313D01*
X267781338Y-152312215D01*
X268030240Y-152063313D01*
X268734518Y-152063313D01*
X268983420Y-152312215D01*
X269232322Y-152063313D01*
X269936599Y-152063313D01*
X270185501Y-152312215D01*
X270434403Y-152063313D01*
X271138681Y-152063313D01*
X271387583Y-152312215D01*
X271636485Y-152063313D01*
X271387583Y-151814411D01*
X271138681Y-152063313D01*
X270434403Y-152063313D01*
X270185501Y-151814411D01*
X269936599Y-152063313D01*
X269232322Y-152063313D01*
X268983420Y-151814411D01*
X268734518Y-152063313D01*
X268030240Y-152063313D01*
X267781338Y-151814411D01*
X267532436Y-152063313D01*
X266828159Y-152063313D01*
X266579256Y-151814410D01*
X266330354Y-152063313D01*
X265626077Y-152063313D01*
X265377175Y-151814411D01*
X265128273Y-152063313D01*
X264423995Y-152063313D01*
X264175093Y-151814410D01*
X263926191Y-152063313D01*
X263221914Y-152063313D01*
X262973012Y-151814411D01*
X262724110Y-152063313D01*
X262019832Y-152063313D01*
X261770930Y-151814411D01*
X261522028Y-152063313D01*
X260817751Y-152063313D01*
X260568849Y-151814411D01*
X260319947Y-152063313D01*
X259615669Y-152063313D01*
X259366767Y-151814411D01*
X259117865Y-152063313D01*
X258413588Y-152063313D01*
X258164686Y-151814411D01*
X257915784Y-152063313D01*
X257211506Y-152063313D01*
X256962604Y-151814411D01*
X256713702Y-152063313D01*
X256009425Y-152063313D01*
X255760523Y-151814411D01*
X255511621Y-152063313D01*
X254807343Y-152063313D01*
X254558441Y-151814411D01*
X254309539Y-152063313D01*
X253605262Y-152063313D01*
X253356360Y-151814411D01*
X253107458Y-152063313D01*
X252403180Y-152063313D01*
X252154278Y-151814411D01*
X251905376Y-152063313D01*
X251201099Y-152063313D01*
X250952197Y-151814411D01*
X250703295Y-152063313D01*
X249999017Y-152063313D01*
X249750115Y-151814411D01*
X249501213Y-152063313D01*
X248796936Y-152063313D01*
X248548034Y-151814411D01*
X248299132Y-152063313D01*
X247594854Y-152063313D01*
X247345952Y-151814411D01*
X247097050Y-152063313D01*
X246392773Y-152063313D01*
X246143870Y-151814410D01*
X245894968Y-152063313D01*
X245190691Y-152063313D01*
X244941789Y-151814411D01*
X244692887Y-152063313D01*
X243988608Y-152063313D01*
X243988609Y-152063312D01*
X243742565Y-151817269D01*
X243083188Y-151817269D01*
X243027838Y-151785312D01*
X243027834Y-151785311D01*
X242894186Y-151749500D01*
X242894183Y-151749500D01*
X242755817Y-151749500D01*
X242755816Y-151749500D01*
X242745175Y-151752351D01*
X242707993Y-151747455D01*
X242685163Y-151717701D01*
X242683494Y-151705020D01*
X242683494Y-151694560D01*
X244324133Y-151694560D01*
X244340747Y-151711174D01*
X244347629Y-151704292D01*
X244324133Y-151694560D01*
X242683494Y-151694560D01*
X242683494Y-151311451D01*
X243181494Y-151311451D01*
X243200330Y-151317845D01*
X243203330Y-151318974D01*
X243233462Y-151331453D01*
X243236384Y-151332777D01*
X243259882Y-151344364D01*
X243262711Y-151345876D01*
X243282731Y-151357434D01*
X243181494Y-151256197D01*
X243181494Y-151311451D01*
X242683494Y-151311451D01*
X242683494Y-150861232D01*
X243490805Y-150861232D01*
X243739707Y-151110134D01*
X243914910Y-150934931D01*
X243914910Y-150787532D01*
X243739707Y-150612329D01*
X243490805Y-150861232D01*
X242683494Y-150861232D01*
X242683494Y-150466266D01*
X243181494Y-150466266D01*
X243387569Y-150260191D01*
X243181494Y-150054116D01*
X243181494Y-150466266D01*
X242683494Y-150466266D01*
X242683494Y-149659150D01*
X243490805Y-149659150D01*
X243739706Y-149908051D01*
X243914912Y-149732845D01*
X243914912Y-149585452D01*
X243739707Y-149410247D01*
X243490805Y-149659150D01*
X242683494Y-149659150D01*
X242683494Y-149264184D01*
X243181494Y-149264184D01*
X243387569Y-149058109D01*
X243181494Y-148852034D01*
X243181494Y-149264184D01*
X242683494Y-149264184D01*
X242683494Y-148457069D01*
X243490805Y-148457069D01*
X243739707Y-148705971D01*
X243914915Y-148530762D01*
X243914915Y-148383374D01*
X243739707Y-148208166D01*
X243490805Y-148457069D01*
X242683494Y-148457069D01*
X242683494Y-148062103D01*
X243181494Y-148062103D01*
X243387569Y-147856028D01*
X243181494Y-147649953D01*
X243181494Y-148062103D01*
X242683494Y-148062103D01*
X242683494Y-147254987D01*
X243490805Y-147254987D01*
X243739707Y-147503889D01*
X243914918Y-147328678D01*
X243914918Y-147181296D01*
X243739707Y-147006085D01*
X243490805Y-147254987D01*
X242683494Y-147254987D01*
X242683494Y-146873739D01*
X242697846Y-146839091D01*
X242712703Y-146828914D01*
X242736073Y-146818595D01*
X242736074Y-146818595D01*
X242812208Y-146742460D01*
X242812209Y-146742459D01*
X242855701Y-146643960D01*
X242858494Y-146619885D01*
X242858494Y-146052906D01*
X243490805Y-146052906D01*
X243739707Y-146301808D01*
X243914921Y-146126594D01*
X243914921Y-145979217D01*
X243739707Y-145804003D01*
X243490805Y-146052906D01*
X242858494Y-146052906D01*
X242858493Y-145483876D01*
X242855701Y-145459800D01*
X242812209Y-145361301D01*
X242736073Y-145285165D01*
X242637574Y-145241673D01*
X242613499Y-145238880D01*
X242252490Y-145238881D01*
X242228414Y-145241673D01*
X242129915Y-145285165D01*
X242053779Y-145361301D01*
X242052992Y-145363083D01*
X242047866Y-145361968D01*
X242022170Y-145372613D01*
X241987522Y-145358261D01*
X241975483Y-145346222D01*
X241941897Y-145312636D01*
X241941895Y-145312635D01*
X241251150Y-144621889D01*
X241234565Y-144545648D01*
X241328414Y-144587087D01*
X241352489Y-144589880D01*
X241697227Y-144589879D01*
X241731875Y-144604231D01*
X241739403Y-144613936D01*
X241787764Y-144695711D01*
X241787768Y-144695716D01*
X241901657Y-144809605D01*
X241901662Y-144809609D01*
X242040299Y-144891598D01*
X242040299Y-144891599D01*
X242182993Y-144933055D01*
X242682994Y-144933055D01*
X242805435Y-144897483D01*
X243537464Y-144897483D01*
X243739706Y-145099725D01*
X243914923Y-144924508D01*
X243914923Y-144777137D01*
X243739706Y-144601921D01*
X243635499Y-144706128D01*
X243634074Y-144711036D01*
X243633123Y-144713963D01*
X243624612Y-144737606D01*
X243623479Y-144740468D01*
X243611048Y-144769199D01*
X243609737Y-144771985D01*
X243598318Y-144794398D01*
X243596834Y-144797097D01*
X243537464Y-144897483D01*
X242805435Y-144897483D01*
X242825688Y-144891599D01*
X242825688Y-144891598D01*
X242964325Y-144809609D01*
X242964330Y-144809605D01*
X243078219Y-144695716D01*
X243078223Y-144695711D01*
X243160212Y-144557075D01*
X243205150Y-144402400D01*
X243205150Y-144402398D01*
X243207993Y-144366265D01*
X243207994Y-144366251D01*
X243207994Y-144026880D01*
X242682994Y-144026880D01*
X242682994Y-144933055D01*
X242182993Y-144933055D01*
X242182994Y-144933054D01*
X242182994Y-143749954D01*
X243658993Y-143749954D01*
X243658993Y-143803802D01*
X243668276Y-143826214D01*
X243739706Y-143897644D01*
X243914926Y-143722424D01*
X243914926Y-143575059D01*
X243739707Y-143399840D01*
X243705993Y-143433555D01*
X243705993Y-143626741D01*
X243702263Y-143645492D01*
X243658993Y-143749954D01*
X242182994Y-143749954D01*
X242182994Y-143526880D01*
X242682994Y-143526880D01*
X243207993Y-143526880D01*
X243207993Y-143187498D01*
X243207992Y-143187483D01*
X243205150Y-143151360D01*
X243160212Y-142996684D01*
X243078223Y-142858048D01*
X243078219Y-142858043D01*
X242964330Y-142744154D01*
X242964325Y-142744150D01*
X242825688Y-142662161D01*
X242825690Y-142662161D01*
X242682994Y-142620704D01*
X242682994Y-143526880D01*
X242182994Y-143526880D01*
X242182994Y-142620704D01*
X242182993Y-142620704D01*
X242040298Y-142662161D01*
X241901662Y-142744150D01*
X241901657Y-142744154D01*
X241787766Y-142858045D01*
X241787762Y-142858050D01*
X241739402Y-142939823D01*
X241709412Y-142962341D01*
X241697226Y-142963880D01*
X241668249Y-142963880D01*
X241668248Y-142963880D01*
X241352490Y-142963881D01*
X241328414Y-142966673D01*
X241234563Y-143008112D01*
X241234564Y-143008110D01*
X241229913Y-143010165D01*
X241153779Y-143086300D01*
X241153777Y-143086301D01*
X241127817Y-143145094D01*
X241100693Y-143170993D01*
X241063200Y-143170125D01*
X241038168Y-143145093D01*
X241028381Y-143122928D01*
X241012209Y-143086301D01*
X241012208Y-143086300D01*
X241012208Y-143086299D01*
X240936074Y-143010165D01*
X240837576Y-142966673D01*
X240825536Y-142965276D01*
X240813499Y-142963880D01*
X240813497Y-142963880D01*
X240452495Y-142963880D01*
X240452485Y-142963881D01*
X240428412Y-142966673D01*
X240329913Y-143010165D01*
X240253779Y-143086299D01*
X240210287Y-143184797D01*
X240207494Y-143208874D01*
X240207494Y-144344878D01*
X240207495Y-144344888D01*
X240210287Y-144368961D01*
X240253779Y-144467460D01*
X240329913Y-144543594D01*
X240428411Y-144587086D01*
X240428414Y-144587087D01*
X240452489Y-144589880D01*
X240490321Y-144589879D01*
X240524969Y-144604230D01*
X240524970Y-144604231D01*
X241535148Y-145614408D01*
X241549500Y-145649056D01*
X241549500Y-146694317D01*
X241537942Y-146685449D01*
X241535148Y-146692196D01*
X241500500Y-146706548D01*
X241480899Y-146701300D01*
X241480556Y-146702130D01*
X241331630Y-146640443D01*
X241214320Y-146625000D01*
X241107494Y-146625000D01*
X241072846Y-146610648D01*
X241058494Y-146576000D01*
X241058493Y-146011023D01*
X241058493Y-145483881D01*
X241058492Y-145483875D01*
X241055701Y-145459800D01*
X241012209Y-145361301D01*
X241012208Y-145361300D01*
X241012208Y-145361299D01*
X240936074Y-145285165D01*
X240837576Y-145241673D01*
X240825536Y-145240276D01*
X240813499Y-145238880D01*
X240813497Y-145238880D01*
X240452495Y-145238880D01*
X240452485Y-145238881D01*
X240428412Y-145241673D01*
X240329913Y-145285165D01*
X240253779Y-145361299D01*
X240210287Y-145459797D01*
X240207494Y-145483874D01*
X240207494Y-146587799D01*
X240207495Y-146619884D01*
X240210287Y-146643960D01*
X240220321Y-146666684D01*
X240220321Y-146699913D01*
X240192636Y-146727598D01*
X240154500Y-146819667D01*
X240154500Y-147004241D01*
X240094399Y-147044399D01*
X240039034Y-147127260D01*
X240024500Y-147200326D01*
X240024500Y-147449674D01*
X240039034Y-147522740D01*
X240094399Y-147605601D01*
X240154500Y-147645758D01*
X240154500Y-147809943D01*
X240077335Y-147854495D01*
X240070166Y-147861663D01*
X240070166Y-147861662D01*
X239979496Y-147952334D01*
X239979495Y-147952334D01*
X239910312Y-148072161D01*
X239910311Y-148072165D01*
X239874500Y-148205813D01*
X239874500Y-148344186D01*
X239910311Y-148477834D01*
X239910312Y-148477838D01*
X239979495Y-148597665D01*
X240077335Y-148695505D01*
X240095463Y-148705971D01*
X240197161Y-148764687D01*
X240197163Y-148764687D01*
X240197164Y-148764688D01*
X240302571Y-148792931D01*
X240330813Y-148800499D01*
X240330814Y-148800500D01*
X240330817Y-148800500D01*
X240469186Y-148800500D01*
X240469186Y-148800499D01*
X240602836Y-148764688D01*
X240722665Y-148695505D01*
X240820505Y-148597665D01*
X240889688Y-148477836D01*
X240925500Y-148344183D01*
X240925500Y-148205817D01*
X240889688Y-148072164D01*
X240860125Y-148020959D01*
X240851565Y-148006132D01*
X240845000Y-147981632D01*
X240845000Y-147374000D01*
X240859352Y-147339352D01*
X240894000Y-147325000D01*
X241196000Y-147325000D01*
X241230648Y-147339352D01*
X241245000Y-147374000D01*
X241245000Y-148020959D01*
X241331626Y-148009556D01*
X241331634Y-148009554D01*
X241480557Y-147947870D01*
X241481166Y-147949342D01*
X241513158Y-147945114D01*
X241538228Y-147964331D01*
X241549500Y-147955681D01*
X241549500Y-152375172D01*
X241549500Y-152474828D01*
X241587636Y-152566897D01*
X241587637Y-152566898D01*
X241587637Y-152566899D01*
X242636591Y-153615852D01*
X242650943Y-153650500D01*
X242636591Y-153685148D01*
X242601943Y-153699500D01*
X241205537Y-153699500D01*
X241205529Y-153699499D01*
X241199828Y-153699499D01*
X241100173Y-153699499D01*
X241100171Y-153699499D01*
X241046240Y-153721839D01*
X241008101Y-153737636D01*
X241008100Y-153737637D01*
X240937636Y-153808103D01*
X240937635Y-153808104D01*
X240273843Y-154471895D01*
X240210269Y-154535469D01*
X240172132Y-154627538D01*
X240172132Y-155014080D01*
X240157780Y-155048728D01*
X240142926Y-155058904D01*
X240119552Y-155069225D01*
X240119552Y-155069226D01*
X240043417Y-155145360D01*
X239999925Y-155243858D01*
X239997132Y-155267935D01*
X239997132Y-156403939D01*
X239997133Y-156403949D01*
X239999925Y-156428022D01*
X240043417Y-156526521D01*
X240119551Y-156602655D01*
X240218049Y-156646147D01*
X240218052Y-156646148D01*
X240242127Y-156648941D01*
X240603136Y-156648940D01*
X240627212Y-156646148D01*
X240725711Y-156602656D01*
X240801847Y-156526520D01*
X240827807Y-156467727D01*
X240854931Y-156441828D01*
X240892424Y-156442694D01*
X240917457Y-156467727D01*
X240943417Y-156526521D01*
X241019551Y-156602655D01*
X241019552Y-156602655D01*
X241019553Y-156602656D01*
X241118052Y-156646148D01*
X241142127Y-156648941D01*
X241486865Y-156648940D01*
X241521513Y-156663292D01*
X241529041Y-156672997D01*
X241577402Y-156754772D01*
X241577406Y-156754777D01*
X241691295Y-156868666D01*
X241691300Y-156868670D01*
X241829937Y-156950659D01*
X241829937Y-156950660D01*
X241972631Y-156992116D01*
X242472632Y-156992116D01*
X242615326Y-156950660D01*
X242615326Y-156950659D01*
X242753963Y-156868670D01*
X242753968Y-156868666D01*
X242867857Y-156754777D01*
X242867861Y-156754772D01*
X242949850Y-156616136D01*
X242994788Y-156461461D01*
X242994788Y-156461459D01*
X242997631Y-156425326D01*
X242997632Y-156425312D01*
X242997632Y-156085941D01*
X242472632Y-156085941D01*
X242472632Y-156992116D01*
X241972631Y-156992116D01*
X241972632Y-156992115D01*
X241972632Y-155585941D01*
X242472632Y-155585941D01*
X242997631Y-155585941D01*
X242997631Y-155246559D01*
X242997630Y-155246544D01*
X242994788Y-155210421D01*
X242949850Y-155055745D01*
X242867861Y-154917109D01*
X242867857Y-154917104D01*
X242753968Y-154803215D01*
X242753963Y-154803211D01*
X242615326Y-154721222D01*
X242615328Y-154721222D01*
X242472632Y-154679765D01*
X242472632Y-155585941D01*
X241972632Y-155585941D01*
X241972632Y-154679765D01*
X241972631Y-154679765D01*
X241829936Y-154721222D01*
X241691300Y-154803211D01*
X241691295Y-154803215D01*
X241577404Y-154917106D01*
X241577400Y-154917111D01*
X241529040Y-154998884D01*
X241499050Y-155021402D01*
X241486864Y-155022941D01*
X241457887Y-155022941D01*
X241457886Y-155022941D01*
X241142128Y-155022942D01*
X241118052Y-155025734D01*
X241024201Y-155067173D01*
X241024202Y-155067171D01*
X241019551Y-155069226D01*
X240943417Y-155145361D01*
X240943415Y-155145362D01*
X240917455Y-155204155D01*
X240890331Y-155230054D01*
X240852838Y-155229186D01*
X240827806Y-155204154D01*
X240818019Y-155181989D01*
X240801847Y-155145362D01*
X240801846Y-155145361D01*
X240801846Y-155145360D01*
X240725711Y-155069225D01*
X240702338Y-155058904D01*
X240676440Y-155031779D01*
X240673132Y-155014080D01*
X240673132Y-154801424D01*
X240687484Y-154766776D01*
X241239408Y-154214852D01*
X241274056Y-154200500D01*
X243338034Y-154200500D01*
X243372682Y-154214852D01*
X243387034Y-154249500D01*
X243372682Y-154284148D01*
X243329496Y-154327334D01*
X243329495Y-154327334D01*
X243260312Y-154447161D01*
X243260311Y-154447165D01*
X243224500Y-154580813D01*
X243224500Y-154580817D01*
X243224500Y-154719183D01*
X243260312Y-154852836D01*
X243329495Y-154972665D01*
X243427335Y-155070505D01*
X243474999Y-155098023D01*
X243497830Y-155127776D01*
X243499500Y-155140459D01*
X243499500Y-157789091D01*
X243485148Y-157823739D01*
X243450500Y-157838091D01*
X243426176Y-157829836D01*
X243425446Y-157831101D01*
X243422665Y-157829495D01*
X243394136Y-157813024D01*
X243302838Y-157760312D01*
X243302834Y-157760311D01*
X243169186Y-157724500D01*
X243169183Y-157724500D01*
X243030817Y-157724500D01*
X243030814Y-157724500D01*
X242897165Y-157760311D01*
X242897161Y-157760312D01*
X242777334Y-157829495D01*
X242777334Y-157829496D01*
X242731779Y-157875051D01*
X242697131Y-157889403D01*
X242662483Y-157875051D01*
X242648131Y-157840403D01*
X242648131Y-157542942D01*
X242648130Y-157542936D01*
X242645339Y-157518861D01*
X242601847Y-157420362D01*
X242525711Y-157344226D01*
X242427212Y-157300734D01*
X242403137Y-157297941D01*
X242042128Y-157297942D01*
X242018052Y-157300734D01*
X241919553Y-157344226D01*
X241843417Y-157420362D01*
X241842630Y-157422144D01*
X241842629Y-157422144D01*
X241799925Y-157518858D01*
X241797132Y-157542935D01*
X241797132Y-158678939D01*
X241797133Y-158678949D01*
X241799925Y-158703022D01*
X241843417Y-158801521D01*
X241919551Y-158877655D01*
X242018049Y-158921147D01*
X242018052Y-158921148D01*
X242042127Y-158923941D01*
X242403136Y-158923940D01*
X242427212Y-158921148D01*
X242427217Y-158921145D01*
X242428571Y-158920778D01*
X242441433Y-158919060D01*
X242710587Y-158919060D01*
X242710589Y-158919060D01*
X242802658Y-158880924D01*
X242914014Y-158769566D01*
X242948662Y-158755215D01*
X242961344Y-158756885D01*
X243030814Y-158775500D01*
X243076942Y-158775500D01*
X243111590Y-158789852D01*
X243125942Y-158824500D01*
X243111590Y-158859148D01*
X242835591Y-159135148D01*
X242800943Y-159149500D01*
X241175714Y-159149500D01*
X241155601Y-159119399D01*
X241095500Y-159079241D01*
X241095500Y-159045172D01*
X241057364Y-158953103D01*
X240986897Y-158882636D01*
X240841935Y-158737674D01*
X240841935Y-158710730D01*
X240845339Y-158703021D01*
X240848132Y-158678946D01*
X240848131Y-157542937D01*
X240845339Y-157518861D01*
X240801847Y-157420362D01*
X240801846Y-157420361D01*
X240801846Y-157420360D01*
X240725712Y-157344226D01*
X240627214Y-157300734D01*
X240615174Y-157299337D01*
X240603137Y-157297941D01*
X240603135Y-157297941D01*
X240242133Y-157297941D01*
X240242123Y-157297942D01*
X240218050Y-157300734D01*
X240119551Y-157344226D01*
X240043417Y-157420360D01*
X239999925Y-157518858D01*
X239997132Y-157542935D01*
X239997132Y-158350957D01*
X239997132Y-158655651D01*
X239997132Y-158655652D01*
X239997132Y-158662102D01*
X239982780Y-158696750D01*
X239954528Y-158710683D01*
X239918369Y-158715443D01*
X239772415Y-158775898D01*
X239772410Y-158775901D01*
X239647075Y-158872074D01*
X239647074Y-158872075D01*
X239550901Y-158997410D01*
X239550898Y-158997415D01*
X239490443Y-159143369D01*
X239482987Y-159200000D01*
X240156000Y-159200000D01*
X240190648Y-159214352D01*
X240205000Y-159249000D01*
X240205000Y-159400000D01*
X240356000Y-159400000D01*
X240390648Y-159414352D01*
X240405000Y-159449000D01*
X240405000Y-160095959D01*
X240491626Y-160084556D01*
X240491634Y-160084554D01*
X240637584Y-160024101D01*
X240637589Y-160024098D01*
X240762924Y-159927925D01*
X240762925Y-159927924D01*
X240859098Y-159802589D01*
X240859099Y-159802587D01*
X240868146Y-159780748D01*
X240894665Y-159754230D01*
X240913416Y-159750500D01*
X240933712Y-159750500D01*
X240999674Y-159750500D01*
X241072740Y-159735966D01*
X241155601Y-159680601D01*
X241175714Y-159650500D01*
X242875172Y-159650500D01*
X242974828Y-159650500D01*
X243066897Y-159612364D01*
X243066899Y-159612362D01*
X243066900Y-159612362D01*
X243962362Y-158716900D01*
X243962362Y-158716899D01*
X243962364Y-158716897D01*
X244000500Y-158624828D01*
X244000500Y-158525172D01*
X244000500Y-155140459D01*
X244014852Y-155105811D01*
X244024998Y-155098025D01*
X244072665Y-155070505D01*
X244170505Y-154972665D01*
X244239688Y-154852836D01*
X244262748Y-154766776D01*
X244275500Y-154719186D01*
X244275642Y-154718107D01*
X244275916Y-154717631D01*
X244276332Y-154716081D01*
X244276747Y-154716192D01*
X244294392Y-154685627D01*
X244324223Y-154675500D01*
X269800943Y-154675500D01*
X269835591Y-154689852D01*
X270310148Y-155164408D01*
X270324500Y-155199056D01*
X270324500Y-155301930D01*
X270310148Y-155336578D01*
X270275500Y-155350930D01*
X270240852Y-155336578D01*
X270216901Y-155312627D01*
X270216900Y-155312626D01*
X270216898Y-155312624D01*
X270148105Y-155284129D01*
X270124830Y-155274488D01*
X270124826Y-155274487D01*
X244713227Y-155274422D01*
X244613571Y-155274422D01*
X244613569Y-155274422D01*
X244521502Y-155312558D01*
X244451035Y-155383023D01*
X244451033Y-155383026D01*
X244412898Y-155475091D01*
X244412897Y-155475095D01*
X244412879Y-162123842D01*
X244398527Y-162158490D01*
X244363879Y-162172842D01*
X244359857Y-162172677D01*
X244033602Y-162145804D01*
X244030807Y-162145492D01*
X244013240Y-162143024D01*
X244003953Y-162140779D01*
X243955280Y-162123842D01*
X243927532Y-162114186D01*
X243911171Y-162104610D01*
X243851792Y-162052078D01*
X243840290Y-162037005D01*
X243800862Y-161956838D01*
X243798283Y-161950515D01*
X243769271Y-161862259D01*
X243769270Y-161862258D01*
X243769269Y-161862253D01*
X243664097Y-161659937D01*
X243556095Y-161515439D01*
X243527587Y-161477298D01*
X243363338Y-161319150D01*
X243363333Y-161319146D01*
X243363330Y-161319143D01*
X243251170Y-161241748D01*
X243175658Y-161189641D01*
X243175655Y-161189639D01*
X242969507Y-161092198D01*
X242969493Y-161092193D01*
X242750316Y-161029385D01*
X242750312Y-161029384D01*
X242523842Y-161002852D01*
X242523839Y-161002852D01*
X242296060Y-161013301D01*
X242296055Y-161013301D01*
X242296053Y-161013302D01*
X242072970Y-161060455D01*
X242072963Y-161060457D01*
X241860449Y-161143072D01*
X241664085Y-161258979D01*
X241664081Y-161258982D01*
X241489056Y-161405118D01*
X241339965Y-161577652D01*
X241305698Y-161633434D01*
X241305483Y-161633725D01*
X241282369Y-161671409D01*
X241277697Y-161677802D01*
X241231638Y-161731173D01*
X241219532Y-161741307D01*
X241162350Y-161775211D01*
X241147652Y-161780969D01*
X241083169Y-161794819D01*
X241082663Y-161794928D01*
X241066895Y-161795713D01*
X241000835Y-161788280D01*
X240985635Y-161784010D01*
X240925370Y-161755957D01*
X240912319Y-161747076D01*
X240887841Y-161723844D01*
X240864103Y-161701314D01*
X240854552Y-161688742D01*
X240827807Y-161638345D01*
X240821504Y-161626467D01*
X240818370Y-161619196D01*
X240809254Y-161592237D01*
X240805494Y-161581118D01*
X240805493Y-161581117D01*
X240804112Y-161577032D01*
X240804039Y-161576866D01*
X240783247Y-161515440D01*
X240783246Y-161515439D01*
X240676838Y-161314898D01*
X240676836Y-161314896D01*
X240676835Y-161314893D01*
X240581699Y-161189641D01*
X240539517Y-161134105D01*
X240374873Y-160977790D01*
X240374871Y-160977788D01*
X240187202Y-160850031D01*
X240187194Y-160850027D01*
X239981404Y-160754164D01*
X239981402Y-160754163D01*
X239929965Y-160739695D01*
X239762858Y-160692694D01*
X239762855Y-160692693D01*
X239762853Y-160692693D01*
X239537257Y-160667222D01*
X239537247Y-160667222D01*
X239310510Y-160678415D01*
X239310500Y-160678417D01*
X239088513Y-160725983D01*
X239088506Y-160725985D01*
X238877082Y-160808682D01*
X238681730Y-160924352D01*
X238681727Y-160924354D01*
X238518941Y-161060457D01*
X238507556Y-161069976D01*
X238359109Y-161241748D01*
X238359107Y-161241750D01*
X238359107Y-161241751D01*
X238304285Y-161330913D01*
X238302712Y-161333311D01*
X238290612Y-161350630D01*
X238284281Y-161358008D01*
X238225707Y-161413931D01*
X238209720Y-161424123D01*
X238135064Y-161453325D01*
X238116402Y-161456685D01*
X238027312Y-161455208D01*
X238020243Y-161454577D01*
X237578687Y-161382620D01*
X237546798Y-161362882D01*
X237537577Y-161333307D01*
X237537600Y-161332132D01*
X237554174Y-160477884D01*
X241086642Y-160477884D01*
X241335544Y-160726786D01*
X241584446Y-160477884D01*
X242288724Y-160477884D01*
X242324320Y-160513480D01*
X242511125Y-160504911D01*
X242513114Y-160504861D01*
X242529367Y-160504776D01*
X242531357Y-160504806D01*
X242551576Y-160505522D01*
X242553564Y-160505633D01*
X242569762Y-160506867D01*
X242571742Y-160507058D01*
X242737888Y-160526522D01*
X242786526Y-160477884D01*
X243490805Y-160477884D01*
X243739706Y-160726785D01*
X243914882Y-160551609D01*
X243914882Y-160404156D01*
X243739707Y-160228981D01*
X243490805Y-160477884D01*
X242786526Y-160477884D01*
X242786527Y-160477883D01*
X242537626Y-160228982D01*
X242288724Y-160477884D01*
X241584446Y-160477884D01*
X241335544Y-160228982D01*
X241086642Y-160477884D01*
X237554174Y-160477884D01*
X237561318Y-160109667D01*
X237562253Y-160101051D01*
X237562421Y-160100202D01*
X237562423Y-160100200D01*
X237562423Y-160053264D01*
X237562432Y-160052314D01*
X237562979Y-160024098D01*
X237563342Y-160005413D01*
X237563340Y-160005409D01*
X237563187Y-160004548D01*
X237563160Y-160004251D01*
X237562995Y-160003419D01*
X237562815Y-160002470D01*
X237562673Y-160001677D01*
X237562593Y-160001404D01*
X237562423Y-160000549D01*
X237562423Y-160000544D01*
X237544455Y-159957166D01*
X237544114Y-159956320D01*
X237527000Y-159912621D01*
X237526998Y-159912619D01*
X237526998Y-159912618D01*
X237526528Y-159911884D01*
X237526398Y-159911635D01*
X237525936Y-159910944D01*
X237525406Y-159910135D01*
X237524946Y-159909417D01*
X237524771Y-159909199D01*
X237524288Y-159908476D01*
X237524287Y-159908475D01*
X237492655Y-159876843D01*
X238081439Y-159876843D01*
X238330341Y-160125745D01*
X238579243Y-159876843D01*
X238330341Y-159627941D01*
X238081439Y-159876843D01*
X237492655Y-159876843D01*
X237491089Y-159875277D01*
X237490472Y-159874647D01*
X237457914Y-159840802D01*
X237457194Y-159840300D01*
X237456969Y-159840112D01*
X237456241Y-159839625D01*
X237455477Y-159839104D01*
X237454803Y-159838635D01*
X237454555Y-159838499D01*
X237453821Y-159838008D01*
X237410434Y-159820036D01*
X237409562Y-159819664D01*
X237366603Y-159800886D01*
X237365748Y-159800699D01*
X237365463Y-159800609D01*
X237364622Y-159800442D01*
X237363731Y-159800256D01*
X237362901Y-159800074D01*
X237362610Y-159800043D01*
X237361751Y-159799872D01*
X237329299Y-159799872D01*
X237294651Y-159785520D01*
X237280299Y-159750872D01*
X237280304Y-159750222D01*
X237282758Y-159600001D01*
X239482988Y-159600001D01*
X239490443Y-159656626D01*
X239490445Y-159656634D01*
X239550898Y-159802584D01*
X239550901Y-159802589D01*
X239647074Y-159927924D01*
X239647075Y-159927925D01*
X239772410Y-160024098D01*
X239772415Y-160024101D01*
X239918369Y-160084556D01*
X240005000Y-160095961D01*
X240005000Y-159600000D01*
X239482990Y-159600000D01*
X239482988Y-159600001D01*
X237282758Y-159600001D01*
X237284991Y-159463274D01*
X237783056Y-159463274D01*
X237787195Y-159466808D01*
X237978202Y-159275802D01*
X238682478Y-159275802D01*
X238931380Y-159524704D01*
X239001758Y-159454325D01*
X239018237Y-159400001D01*
X238976765Y-159263281D01*
X238975074Y-159242661D01*
X238995091Y-159090610D01*
X238931381Y-159026900D01*
X238682478Y-159275802D01*
X237978202Y-159275802D01*
X237789205Y-159086805D01*
X237783056Y-159463274D01*
X237284991Y-159463274D01*
X237297871Y-158674762D01*
X238081439Y-158674762D01*
X238330341Y-158923664D01*
X238579243Y-158674762D01*
X238330341Y-158425860D01*
X238081439Y-158674762D01*
X237297871Y-158674762D01*
X237300958Y-158485763D01*
X237315873Y-158451355D01*
X237350751Y-158437572D01*
X237350811Y-158437572D01*
X237393037Y-158438392D01*
X237393040Y-158438390D01*
X237393898Y-158438238D01*
X237394188Y-158438212D01*
X237395012Y-158438048D01*
X237396000Y-158437861D01*
X237396782Y-158437721D01*
X237397052Y-158437642D01*
X237397901Y-158437473D01*
X237397906Y-158437473D01*
X237441346Y-158419478D01*
X237442089Y-158419179D01*
X237485829Y-158402050D01*
X237485835Y-158402043D01*
X237486543Y-158401591D01*
X237486802Y-158401456D01*
X237487512Y-158400982D01*
X237488328Y-158400448D01*
X237489038Y-158399993D01*
X237489262Y-158399813D01*
X237489971Y-158399338D01*
X237489975Y-158399337D01*
X237523173Y-158366137D01*
X237523756Y-158365564D01*
X237557649Y-158332963D01*
X237557652Y-158332954D01*
X237558133Y-158332266D01*
X237558322Y-158332040D01*
X237558814Y-158331304D01*
X237559374Y-158330484D01*
X237559828Y-158329831D01*
X237559962Y-158329587D01*
X237560436Y-158328875D01*
X237560442Y-158328870D01*
X237578421Y-158285462D01*
X237578769Y-158284647D01*
X237597561Y-158241657D01*
X237597564Y-158241651D01*
X237597564Y-158241642D01*
X237597744Y-158240825D01*
X237597832Y-158240546D01*
X237598003Y-158239688D01*
X237598193Y-158238777D01*
X237598381Y-158237914D01*
X237598412Y-158237631D01*
X237598576Y-158236803D01*
X237598578Y-158236801D01*
X237598578Y-158189877D01*
X237598587Y-158188926D01*
X237600822Y-158073721D01*
X238682479Y-158073721D01*
X238931381Y-158322623D01*
X239180283Y-158073721D01*
X238931381Y-157824819D01*
X238682479Y-158073721D01*
X237600822Y-158073721D01*
X237611929Y-157501264D01*
X238110023Y-157501264D01*
X238330341Y-157721582D01*
X238579243Y-157472680D01*
X239283520Y-157472680D01*
X239499132Y-157688292D01*
X239499132Y-157535759D01*
X239499152Y-157534347D01*
X239499484Y-157522828D01*
X239499545Y-157521419D01*
X239500373Y-157507061D01*
X239500475Y-157505646D01*
X239501476Y-157494111D01*
X239501619Y-157492700D01*
X239507398Y-157442890D01*
X239507959Y-157439256D01*
X239513648Y-157409764D01*
X239514479Y-157406183D01*
X239524300Y-157370079D01*
X239525399Y-157366567D01*
X239535442Y-157338241D01*
X239536800Y-157334823D01*
X239569472Y-157260828D01*
X239532422Y-157223778D01*
X239283520Y-157472680D01*
X238579243Y-157472680D01*
X238330340Y-157223777D01*
X238111154Y-157442963D01*
X238110023Y-157501264D01*
X237611929Y-157501264D01*
X237614976Y-157344226D01*
X237624146Y-156871639D01*
X238682479Y-156871639D01*
X238931381Y-157120541D01*
X239180283Y-156871639D01*
X238931381Y-156622737D01*
X238682479Y-156871639D01*
X237624146Y-156871639D01*
X237634809Y-156322062D01*
X238132902Y-156322062D01*
X238330341Y-156519501D01*
X238579243Y-156270599D01*
X239283520Y-156270599D01*
X239506149Y-156493228D01*
X239501619Y-156454170D01*
X239501476Y-156452758D01*
X239500477Y-156441239D01*
X239500376Y-156439831D01*
X239499547Y-156425479D01*
X239499485Y-156424064D01*
X239499153Y-156412537D01*
X239499133Y-156411126D01*
X239499132Y-156054986D01*
X239283520Y-156270599D01*
X238579243Y-156270599D01*
X238330340Y-156021696D01*
X238134939Y-156217097D01*
X238132902Y-156322062D01*
X237634809Y-156322062D01*
X237647470Y-155669558D01*
X238682479Y-155669558D01*
X238931381Y-155918460D01*
X239180283Y-155669558D01*
X238931381Y-155420656D01*
X238682479Y-155669558D01*
X237647470Y-155669558D01*
X237657689Y-155142860D01*
X238155782Y-155142860D01*
X238330341Y-155317419D01*
X238579243Y-155068517D01*
X239283520Y-155068517D01*
X239499132Y-155284129D01*
X239499132Y-155260759D01*
X239499152Y-155259347D01*
X239499484Y-155247828D01*
X239499545Y-155246419D01*
X239500373Y-155232061D01*
X239500475Y-155230646D01*
X239501476Y-155219111D01*
X239501619Y-155217700D01*
X239507398Y-155167890D01*
X239507959Y-155164256D01*
X239513648Y-155134764D01*
X239514479Y-155131183D01*
X239524300Y-155095079D01*
X239525399Y-155091567D01*
X239535442Y-155063241D01*
X239536800Y-155059822D01*
X239597154Y-154923137D01*
X239599171Y-154919087D01*
X239610876Y-154898069D01*
X239532422Y-154819615D01*
X239283520Y-155068517D01*
X238579243Y-155068517D01*
X238330340Y-154819614D01*
X238158724Y-154991230D01*
X238155782Y-155142860D01*
X237657689Y-155142860D01*
X237670793Y-154467476D01*
X238682479Y-154467476D01*
X238931381Y-154716378D01*
X239180283Y-154467476D01*
X238931381Y-154218574D01*
X238682479Y-154467476D01*
X237670793Y-154467476D01*
X237680568Y-153963659D01*
X238178662Y-153963659D01*
X238330341Y-154115338D01*
X238579243Y-153866436D01*
X239283520Y-153866436D01*
X239532422Y-154115338D01*
X239781324Y-153866436D01*
X239532422Y-153617534D01*
X239283520Y-153866436D01*
X238579243Y-153866436D01*
X238330340Y-153617533D01*
X238182509Y-153765364D01*
X238178662Y-153963659D01*
X237680568Y-153963659D01*
X237694116Y-153265395D01*
X238682479Y-153265395D01*
X238931381Y-153514297D01*
X239180283Y-153265395D01*
X239884561Y-153265395D01*
X240133463Y-153514297D01*
X240382365Y-153265395D01*
X240318469Y-153201499D01*
X241150537Y-153201499D01*
X241230062Y-153201499D01*
X241230078Y-153201500D01*
X241517960Y-153201500D01*
X241334248Y-153017788D01*
X241150537Y-153201499D01*
X240318469Y-153201499D01*
X240133463Y-153016493D01*
X239884561Y-153265395D01*
X239180283Y-153265395D01*
X238931381Y-153016493D01*
X238682479Y-153265395D01*
X237694116Y-153265395D01*
X237703448Y-152784456D01*
X238201541Y-152784456D01*
X238330341Y-152913256D01*
X238579243Y-152664354D01*
X239283520Y-152664354D01*
X239532422Y-152913256D01*
X239781324Y-152664354D01*
X240485602Y-152664354D01*
X240734504Y-152913256D01*
X240983406Y-152664354D01*
X240734504Y-152415452D01*
X240485602Y-152664354D01*
X239781324Y-152664354D01*
X239532422Y-152415452D01*
X239283520Y-152664354D01*
X238579243Y-152664354D01*
X238330340Y-152415451D01*
X238206294Y-152539498D01*
X238201541Y-152784456D01*
X237703448Y-152784456D01*
X237717440Y-152063313D01*
X238682479Y-152063313D01*
X238931381Y-152312215D01*
X239180283Y-152063313D01*
X239884561Y-152063313D01*
X240133463Y-152312215D01*
X240382365Y-152063313D01*
X240133463Y-151814411D01*
X239884561Y-152063313D01*
X239180283Y-152063313D01*
X238931381Y-151814411D01*
X238682479Y-152063313D01*
X237717440Y-152063313D01*
X237726327Y-151605255D01*
X238224421Y-151605255D01*
X238330341Y-151711175D01*
X238579243Y-151462272D01*
X239283519Y-151462272D01*
X239532422Y-151711175D01*
X239781324Y-151462272D01*
X240485601Y-151462272D01*
X240734504Y-151711175D01*
X240983406Y-151462272D01*
X240734504Y-151213370D01*
X240485601Y-151462272D01*
X239781324Y-151462272D01*
X239532422Y-151213370D01*
X239283519Y-151462272D01*
X238579243Y-151462272D01*
X238330340Y-151213369D01*
X238230079Y-151313631D01*
X238224421Y-151605255D01*
X237726327Y-151605255D01*
X237740763Y-150861232D01*
X238682479Y-150861232D01*
X238931381Y-151110134D01*
X239180283Y-150861232D01*
X239884561Y-150861232D01*
X240133463Y-151110134D01*
X240382365Y-150861232D01*
X240133463Y-150612330D01*
X239884561Y-150861232D01*
X239180283Y-150861232D01*
X238931381Y-150612330D01*
X238682479Y-150861232D01*
X237740763Y-150861232D01*
X237749207Y-150426052D01*
X238247300Y-150426052D01*
X238330341Y-150509093D01*
X238579243Y-150260191D01*
X239283520Y-150260191D01*
X239532422Y-150509093D01*
X239781324Y-150260191D01*
X240485602Y-150260191D01*
X240734504Y-150509093D01*
X240983406Y-150260191D01*
X240734504Y-150011289D01*
X240485602Y-150260191D01*
X239781324Y-150260191D01*
X239532422Y-150011289D01*
X239283520Y-150260191D01*
X238579243Y-150260191D01*
X238330340Y-150011288D01*
X238253864Y-150087765D01*
X238247300Y-150426052D01*
X237749207Y-150426052D01*
X237764087Y-149659150D01*
X238682479Y-149659150D01*
X238931381Y-149908052D01*
X239180283Y-149659150D01*
X239884561Y-149659150D01*
X240133463Y-149908052D01*
X240382365Y-149659150D01*
X240133463Y-149410248D01*
X239884561Y-149659150D01*
X239180283Y-149659150D01*
X238931381Y-149410248D01*
X238682479Y-149659150D01*
X237764087Y-149659150D01*
X237772086Y-149246850D01*
X238270180Y-149246850D01*
X238330341Y-149307011D01*
X238579243Y-149058109D01*
X239283519Y-149058109D01*
X239532421Y-149307011D01*
X239581348Y-149258084D01*
X240685576Y-149258084D01*
X240734503Y-149307011D01*
X240837024Y-149204490D01*
X240834882Y-149205636D01*
X240811384Y-149217223D01*
X240808462Y-149218547D01*
X240778330Y-149231026D01*
X240775330Y-149232155D01*
X240750541Y-149240569D01*
X240747474Y-149241499D01*
X240685576Y-149258084D01*
X239581348Y-149258084D01*
X239759877Y-149079554D01*
X239758766Y-149078642D01*
X239739070Y-149061370D01*
X239736729Y-149059177D01*
X239615823Y-148938271D01*
X239613630Y-148935930D01*
X239596358Y-148916234D01*
X239594323Y-148913755D01*
X239574471Y-148887881D01*
X239572604Y-148885275D01*
X239558059Y-148863506D01*
X239556367Y-148860784D01*
X239528723Y-148812905D01*
X239283519Y-149058109D01*
X238579243Y-149058109D01*
X238330340Y-148809206D01*
X238277649Y-148861898D01*
X238270180Y-149246850D01*
X237772086Y-149246850D01*
X237787410Y-148457069D01*
X238682479Y-148457069D01*
X238931381Y-148705971D01*
X239180283Y-148457069D01*
X238931381Y-148208167D01*
X238682479Y-148457069D01*
X237787410Y-148457069D01*
X237796194Y-148004355D01*
X237797129Y-147995739D01*
X237797297Y-147994890D01*
X237797299Y-147994888D01*
X237797299Y-147947951D01*
X237797308Y-147947001D01*
X237797345Y-147945114D01*
X237798218Y-147900101D01*
X237798216Y-147900097D01*
X237798063Y-147899236D01*
X237798036Y-147898939D01*
X237797871Y-147898107D01*
X237797691Y-147897158D01*
X237797549Y-147896365D01*
X237797469Y-147896092D01*
X237797299Y-147895237D01*
X237797299Y-147895232D01*
X237779331Y-147851854D01*
X237778990Y-147851008D01*
X237773617Y-147837289D01*
X237761876Y-147807309D01*
X237761874Y-147807307D01*
X237761874Y-147807306D01*
X237761404Y-147806572D01*
X237761274Y-147806323D01*
X237760812Y-147805632D01*
X237760282Y-147804823D01*
X237759822Y-147804105D01*
X237759647Y-147803887D01*
X237759164Y-147803164D01*
X237744156Y-147788156D01*
X237725974Y-147769974D01*
X237725360Y-147769348D01*
X237711433Y-147754870D01*
X237692789Y-147735488D01*
X237692786Y-147735486D01*
X237692068Y-147734986D01*
X237691847Y-147734801D01*
X237691154Y-147734338D01*
X237690369Y-147733802D01*
X237689682Y-147733323D01*
X237689427Y-147733184D01*
X237688697Y-147732696D01*
X237645354Y-147714742D01*
X237644481Y-147714370D01*
X237601478Y-147695573D01*
X237600620Y-147695385D01*
X237600353Y-147695301D01*
X237599538Y-147695139D01*
X237598618Y-147694946D01*
X237597783Y-147694763D01*
X237597492Y-147694731D01*
X237596632Y-147694560D01*
X237596627Y-147694560D01*
X237549748Y-147694560D01*
X237548799Y-147694551D01*
X237547469Y-147694525D01*
X237526084Y-147694110D01*
X237510449Y-147687275D01*
X238250190Y-147687275D01*
X238266761Y-147727277D01*
X238268382Y-147731807D01*
X238279797Y-147769442D01*
X238280966Y-147774110D01*
X238282355Y-147781097D01*
X238283008Y-147783400D01*
X238284104Y-147788156D01*
X238287152Y-147805230D01*
X238290499Y-147822042D01*
X238291207Y-147826812D01*
X238291448Y-147829264D01*
X238292753Y-147836562D01*
X238293366Y-147841331D01*
X238296456Y-147880490D01*
X238296599Y-147885295D01*
X238295299Y-147952323D01*
X238295299Y-148019394D01*
X238295062Y-148024203D01*
X238293619Y-148038829D01*
X238293059Y-148067648D01*
X238330341Y-148104930D01*
X238579243Y-147856028D01*
X239283520Y-147856028D01*
X239416914Y-147989422D01*
X239433501Y-147927525D01*
X239434431Y-147924459D01*
X239442845Y-147899670D01*
X239443974Y-147896670D01*
X239456453Y-147866538D01*
X239457777Y-147863616D01*
X239469364Y-147840118D01*
X239470876Y-147837289D01*
X239556367Y-147689216D01*
X239558059Y-147686494D01*
X239564931Y-147676208D01*
X239556548Y-147648571D01*
X239555380Y-147643908D01*
X239551946Y-147626650D01*
X239532422Y-147607126D01*
X239283520Y-147856028D01*
X238579243Y-147856028D01*
X238330340Y-147607125D01*
X238250190Y-147687275D01*
X237510449Y-147687275D01*
X237491721Y-147679088D01*
X237478042Y-147644319D01*
X237478331Y-147626650D01*
X237484401Y-147254987D01*
X238682479Y-147254987D01*
X238931381Y-147503889D01*
X239180283Y-147254987D01*
X238931381Y-147006085D01*
X238682479Y-147254987D01*
X237484401Y-147254987D01*
X237493432Y-146702084D01*
X238129577Y-146702084D01*
X238330341Y-146902848D01*
X238579243Y-146653946D01*
X239283520Y-146653946D01*
X239532422Y-146902848D01*
X239658031Y-146777238D01*
X239660588Y-146751278D01*
X239661293Y-146746522D01*
X239670843Y-146698509D01*
X239672012Y-146693845D01*
X239683421Y-146656233D01*
X239685041Y-146651705D01*
X239709494Y-146592668D01*
X239709494Y-146582116D01*
X239532422Y-146405044D01*
X239283520Y-146653946D01*
X238579243Y-146653946D01*
X238330340Y-146405043D01*
X238284088Y-146451295D01*
X238236903Y-146559241D01*
X238234763Y-146563548D01*
X238215569Y-146597840D01*
X238213017Y-146601915D01*
X238185036Y-146642083D01*
X238182098Y-146645888D01*
X238156581Y-146675780D01*
X238153283Y-146679281D01*
X238129577Y-146702084D01*
X237493432Y-146702084D01*
X237496905Y-146489435D01*
X237511820Y-146455028D01*
X237546698Y-146441244D01*
X237546750Y-146441244D01*
X237625785Y-146442778D01*
X237718577Y-146406436D01*
X237718580Y-146406433D01*
X237718581Y-146406433D01*
X237790394Y-146337352D01*
X237790394Y-146337351D01*
X237790397Y-146337349D01*
X237830312Y-146246037D01*
X237834059Y-146052906D01*
X238682479Y-146052906D01*
X238931381Y-146301808D01*
X239180283Y-146052906D01*
X238931381Y-145804004D01*
X238682479Y-146052906D01*
X237834059Y-146052906D01*
X237841063Y-145691951D01*
X238339156Y-145691951D01*
X238579243Y-145451865D01*
X239283520Y-145451865D01*
X239532422Y-145700767D01*
X239709494Y-145523695D01*
X239709494Y-145476698D01*
X239709514Y-145475286D01*
X239709846Y-145463767D01*
X239709907Y-145462358D01*
X239710735Y-145448000D01*
X239710837Y-145446585D01*
X239711838Y-145435050D01*
X239711981Y-145433639D01*
X239717295Y-145387836D01*
X239532422Y-145202963D01*
X239283520Y-145451865D01*
X238579243Y-145451865D01*
X238348295Y-145220917D01*
X238339156Y-145691951D01*
X237841063Y-145691951D01*
X237857383Y-144850824D01*
X238682479Y-144850824D01*
X238931381Y-145099726D01*
X239180283Y-144850824D01*
X238931381Y-144601922D01*
X238682479Y-144850824D01*
X237857383Y-144850824D01*
X237864848Y-144466084D01*
X238362941Y-144466084D01*
X238579243Y-144249783D01*
X239283520Y-144249783D01*
X239532421Y-144498684D01*
X239709494Y-144321612D01*
X239709494Y-144177953D01*
X239532422Y-144000881D01*
X239283520Y-144249783D01*
X238579243Y-144249783D01*
X238371175Y-144041715D01*
X238362941Y-144466084D01*
X237864848Y-144466084D01*
X237880707Y-143648743D01*
X238682479Y-143648743D01*
X238931381Y-143897645D01*
X239180283Y-143648743D01*
X238931381Y-143399841D01*
X238682479Y-143648743D01*
X237880707Y-143648743D01*
X237888633Y-143240216D01*
X238386727Y-143240216D01*
X238579241Y-143047702D01*
X239283520Y-143047702D01*
X239532421Y-143296603D01*
X239717441Y-143111584D01*
X239717761Y-143108827D01*
X239718321Y-143105195D01*
X239724010Y-143075703D01*
X239724841Y-143072122D01*
X239734662Y-143036018D01*
X239735761Y-143032506D01*
X239743709Y-143010087D01*
X239532422Y-142798800D01*
X239283520Y-143047702D01*
X238579241Y-143047702D01*
X238579242Y-143047701D01*
X238394055Y-142862514D01*
X238386727Y-143240216D01*
X237888633Y-143240216D01*
X237899250Y-142693021D01*
X237900060Y-142651246D01*
X237900388Y-142646476D01*
X237916738Y-142507909D01*
X237918789Y-142498540D01*
X237918902Y-142498192D01*
X237935611Y-142446660D01*
X238682478Y-142446660D01*
X238931381Y-142695563D01*
X239180283Y-142446661D01*
X239884561Y-142446661D01*
X240041793Y-142603893D01*
X240067482Y-142586297D01*
X240071331Y-142583914D01*
X240103641Y-142565918D01*
X240107692Y-142563901D01*
X240244382Y-142503546D01*
X240247801Y-142502187D01*
X240276133Y-142492143D01*
X240279646Y-142491045D01*
X240315754Y-142481224D01*
X240319335Y-142480393D01*
X240348828Y-142474705D01*
X240352460Y-142474144D01*
X240355198Y-142473826D01*
X240374485Y-142454539D01*
X241094520Y-142454539D01*
X241143789Y-142503808D01*
X241144383Y-142503546D01*
X241147801Y-142502187D01*
X241161727Y-142497250D01*
X243541394Y-142497250D01*
X243739707Y-142695563D01*
X243849108Y-142586161D01*
X243841136Y-142576293D01*
X243804096Y-142545282D01*
X243761781Y-142522007D01*
X243715762Y-142507331D01*
X243643647Y-142499036D01*
X243595398Y-142498195D01*
X243595371Y-142498192D01*
X243541394Y-142497250D01*
X241161727Y-142497250D01*
X241176133Y-142492143D01*
X241179646Y-142491045D01*
X241215754Y-142481224D01*
X241219335Y-142480393D01*
X241248828Y-142474705D01*
X241252461Y-142474144D01*
X241302265Y-142468367D01*
X241303677Y-142468224D01*
X241315196Y-142467225D01*
X241316604Y-142467124D01*
X241330956Y-142466295D01*
X241332371Y-142466233D01*
X241343897Y-142465901D01*
X241345308Y-142465881D01*
X241475654Y-142465880D01*
X241480261Y-142461273D01*
X241094520Y-142454539D01*
X240374485Y-142454539D01*
X240382364Y-142446660D01*
X240377731Y-142442027D01*
X239897575Y-142433646D01*
X239884561Y-142446661D01*
X239180283Y-142446661D01*
X239154294Y-142420672D01*
X238789364Y-142414303D01*
X238789345Y-142414307D01*
X238716112Y-142413026D01*
X238682478Y-142446660D01*
X237935611Y-142446660D01*
X237961079Y-142368113D01*
X237964912Y-142359333D01*
X238031814Y-142239634D01*
X238037280Y-142231775D01*
X238126222Y-142127409D01*
X238133117Y-142120763D01*
X238240688Y-142035729D01*
X238248751Y-142030551D01*
X238370825Y-141968109D01*
X238379739Y-141964603D01*
X238511638Y-141927145D01*
X238521077Y-141925441D01*
X238660162Y-141914207D01*
X238664926Y-141914056D01*
X238706708Y-141914786D01*
G37*
%TD.AperFunction*%
%TD*%
%TA.AperFunction,Conductor*%
%TO.N,GND*%
G36*
X232961247Y-141914207D02*
G01*
X233100338Y-141925442D01*
X233109761Y-141927144D01*
X233241664Y-141964603D01*
X233250585Y-141968112D01*
X233351222Y-142019589D01*
X233372651Y-142030550D01*
X233380723Y-142035733D01*
X233464630Y-142102062D01*
X233488284Y-142120760D01*
X233495190Y-142127416D01*
X233576244Y-142222527D01*
X233584120Y-142231768D01*
X233589599Y-142239645D01*
X233656491Y-142359328D01*
X233660329Y-142368120D01*
X233674676Y-142412364D01*
X233701708Y-142495729D01*
X233702621Y-142498543D01*
X233704672Y-142507915D01*
X233721020Y-142646466D01*
X233721349Y-142651257D01*
X233721561Y-142662161D01*
X233722160Y-142693022D01*
X233791098Y-146246037D01*
X233831013Y-146337349D01*
X233902833Y-146406436D01*
X233995625Y-146442779D01*
X234056803Y-146441592D01*
X234091721Y-146455268D01*
X234106742Y-146489609D01*
X234129672Y-147644413D01*
X234116011Y-147679340D01*
X234081655Y-147694376D01*
X234081633Y-147694376D01*
X234072662Y-147694551D01*
X234071714Y-147694560D01*
X234024779Y-147694560D01*
X234023914Y-147694732D01*
X234023624Y-147694764D01*
X234022788Y-147694947D01*
X234021906Y-147695131D01*
X234021078Y-147695295D01*
X234020797Y-147695384D01*
X234019932Y-147695573D01*
X233976988Y-147714345D01*
X233976116Y-147714716D01*
X233932711Y-147732696D01*
X233931965Y-147733195D01*
X233931716Y-147733331D01*
X233931052Y-147733794D01*
X233930292Y-147734313D01*
X233929578Y-147734790D01*
X233929352Y-147734979D01*
X233928620Y-147735489D01*
X233896111Y-147769283D01*
X233895447Y-147769960D01*
X233862249Y-147803159D01*
X233861757Y-147803896D01*
X233861568Y-147804131D01*
X233861086Y-147804884D01*
X233860583Y-147805652D01*
X233860149Y-147806301D01*
X233860024Y-147806540D01*
X233859537Y-147807300D01*
X233842421Y-147851001D01*
X233842066Y-147851882D01*
X233824109Y-147895235D01*
X233823937Y-147896102D01*
X233823859Y-147896368D01*
X233823715Y-147897176D01*
X233823541Y-147898094D01*
X233823373Y-147898936D01*
X233823347Y-147899236D01*
X233823192Y-147900100D01*
X233824102Y-147947001D01*
X233824111Y-147947951D01*
X233824111Y-147994887D01*
X233824282Y-147995747D01*
X233825214Y-148004354D01*
X234022823Y-158188926D01*
X234022832Y-158189877D01*
X234022832Y-158236800D01*
X234023003Y-158237660D01*
X234023034Y-158237951D01*
X234023216Y-158238781D01*
X234023402Y-158239672D01*
X234023569Y-158240513D01*
X234023659Y-158240798D01*
X234023846Y-158241653D01*
X234042624Y-158284612D01*
X234042996Y-158285484D01*
X234060968Y-158328871D01*
X234061459Y-158329605D01*
X234061595Y-158329853D01*
X234062064Y-158330527D01*
X234062585Y-158331291D01*
X234063072Y-158332019D01*
X234063260Y-158332244D01*
X234063762Y-158332964D01*
X234097607Y-158365522D01*
X234098237Y-158366139D01*
X234119393Y-158387295D01*
X234131436Y-158399338D01*
X234132159Y-158399821D01*
X234132377Y-158399996D01*
X234133095Y-158400456D01*
X234133904Y-158400986D01*
X234134595Y-158401448D01*
X234134844Y-158401578D01*
X234135582Y-158402051D01*
X234179302Y-158419174D01*
X234180152Y-158419515D01*
X234223504Y-158437473D01*
X234224359Y-158437643D01*
X234224628Y-158437722D01*
X234225452Y-158437869D01*
X234226426Y-158438053D01*
X234227229Y-158438213D01*
X234227510Y-158438238D01*
X234228368Y-158438391D01*
X234228373Y-158438393D01*
X234275331Y-158437481D01*
X234276281Y-158437473D01*
X234295939Y-158437473D01*
X234330587Y-158451825D01*
X234344928Y-158485498D01*
X234357495Y-159118373D01*
X234370028Y-159749618D01*
X234356367Y-159784545D01*
X234322011Y-159799581D01*
X234321991Y-159799582D01*
X234308778Y-159799838D01*
X234307536Y-159799863D01*
X234306590Y-159799872D01*
X234259655Y-159799872D01*
X234258790Y-159800044D01*
X234258500Y-159800076D01*
X234257664Y-159800259D01*
X234256782Y-159800443D01*
X234255954Y-159800607D01*
X234255673Y-159800696D01*
X234254808Y-159800885D01*
X234211864Y-159819657D01*
X234210992Y-159820028D01*
X234167587Y-159838008D01*
X234166841Y-159838507D01*
X234166592Y-159838643D01*
X234165928Y-159839106D01*
X234165168Y-159839625D01*
X234164454Y-159840102D01*
X234164228Y-159840291D01*
X234163496Y-159840801D01*
X234130987Y-159874595D01*
X234130323Y-159875272D01*
X234097125Y-159908471D01*
X234096633Y-159909208D01*
X234096444Y-159909443D01*
X234095962Y-159910196D01*
X234095459Y-159910964D01*
X234095025Y-159911613D01*
X234094900Y-159911852D01*
X234094413Y-159912612D01*
X234077297Y-159956313D01*
X234076942Y-159957194D01*
X234058985Y-160000547D01*
X234058813Y-160001414D01*
X234058735Y-160001680D01*
X234058591Y-160002488D01*
X234058417Y-160003406D01*
X234058249Y-160004248D01*
X234058223Y-160004548D01*
X234058068Y-160005412D01*
X234058068Y-160005413D01*
X234058753Y-160040741D01*
X234058978Y-160052314D01*
X234058987Y-160053264D01*
X234058987Y-160100199D01*
X234059158Y-160101059D01*
X234060090Y-160109666D01*
X234083831Y-161333307D01*
X234070154Y-161368228D01*
X234042721Y-161382620D01*
X233601165Y-161454577D01*
X233594096Y-161455208D01*
X233505006Y-161456685D01*
X233486345Y-161453325D01*
X233411688Y-161424123D01*
X233395699Y-161413930D01*
X233337128Y-161358008D01*
X233330799Y-161350632D01*
X233318682Y-161333289D01*
X233317107Y-161330888D01*
X233262305Y-161241752D01*
X233262302Y-161241748D01*
X233113858Y-161069977D01*
X233113857Y-161069976D01*
X233102475Y-161060460D01*
X233065309Y-161029386D01*
X232939684Y-160924352D01*
X232939681Y-160924350D01*
X232744327Y-160808679D01*
X232744328Y-160808679D01*
X232532904Y-160725981D01*
X232532897Y-160725979D01*
X232310910Y-160678412D01*
X232310900Y-160678410D01*
X232084162Y-160667217D01*
X232084152Y-160667217D01*
X232025665Y-160673820D01*
X231858556Y-160692687D01*
X231858554Y-160692687D01*
X231858550Y-160692688D01*
X231640009Y-160754157D01*
X231640003Y-160754159D01*
X231434212Y-160850023D01*
X231434205Y-160850027D01*
X231246539Y-160977784D01*
X231081893Y-161134100D01*
X230944574Y-161314889D01*
X230838166Y-161515432D01*
X230838164Y-161515435D01*
X230817219Y-161577308D01*
X230817147Y-161577473D01*
X230803038Y-161619199D01*
X230799903Y-161626471D01*
X230766857Y-161688745D01*
X230757306Y-161701317D01*
X230709091Y-161747077D01*
X230696038Y-161755959D01*
X230635774Y-161784013D01*
X230620573Y-161788283D01*
X230554514Y-161795715D01*
X230538748Y-161794930D01*
X230473756Y-161780971D01*
X230459060Y-161775213D01*
X230401878Y-161741309D01*
X230389772Y-161731175D01*
X230365360Y-161702888D01*
X230343710Y-161677800D01*
X230339041Y-161671412D01*
X230318023Y-161637144D01*
X230318022Y-161637143D01*
X230315954Y-161633771D01*
X230315729Y-161633466D01*
X230281443Y-161577651D01*
X230132357Y-161405123D01*
X229957327Y-161258982D01*
X229760965Y-161143076D01*
X229760960Y-161143073D01*
X229548446Y-161060460D01*
X229548439Y-161060457D01*
X229325356Y-161013304D01*
X229325354Y-161013303D01*
X229325350Y-161013303D01*
X229097571Y-161002854D01*
X229097569Y-161002854D01*
X229097567Y-161002854D01*
X228871097Y-161029386D01*
X228871093Y-161029387D01*
X228651917Y-161092195D01*
X228651909Y-161092198D01*
X228445757Y-161189639D01*
X228445755Y-161189640D01*
X228258082Y-161319143D01*
X228258072Y-161319151D01*
X228093826Y-161477297D01*
X227957311Y-161659941D01*
X227852145Y-161862244D01*
X227852141Y-161862255D01*
X227823125Y-161950518D01*
X227820545Y-161956841D01*
X227781117Y-162037004D01*
X227769615Y-162052078D01*
X227710236Y-162104609D01*
X227693873Y-162114187D01*
X227617455Y-162140779D01*
X227608168Y-162143024D01*
X227590601Y-162145492D01*
X227587806Y-162145804D01*
X227261551Y-162172677D01*
X227225842Y-162161218D01*
X227208694Y-162127864D01*
X227208529Y-162123862D01*
X227208525Y-160556588D01*
X230346613Y-160556588D01*
X230516811Y-160726786D01*
X230765713Y-160477884D01*
X230712124Y-160424295D01*
X230687499Y-160438516D01*
X230684670Y-160440028D01*
X230661162Y-160451623D01*
X230658238Y-160452948D01*
X230482145Y-160525886D01*
X230479146Y-160527015D01*
X230454359Y-160535430D01*
X230451292Y-160536361D01*
X230419789Y-160544804D01*
X230416665Y-160545532D01*
X230390964Y-160550645D01*
X230387798Y-160551168D01*
X230346613Y-160556588D01*
X227208525Y-160556588D01*
X227208519Y-158073721D01*
X227863746Y-158073721D01*
X228112648Y-158322623D01*
X228361550Y-158073721D01*
X228112648Y-157824819D01*
X227863746Y-158073721D01*
X227208519Y-158073721D01*
X227208516Y-156871638D01*
X227863745Y-156871638D01*
X228112647Y-157120540D01*
X228137324Y-157095864D01*
X228043184Y-157001724D01*
X228039953Y-156998160D01*
X228015013Y-156967768D01*
X228012148Y-156963904D01*
X227984954Y-156923198D01*
X227982483Y-156919075D01*
X227963964Y-156884426D01*
X227961909Y-156880081D01*
X227930684Y-156804699D01*
X227863745Y-156871638D01*
X227208516Y-156871638D01*
X227208512Y-155475093D01*
X227170376Y-155383024D01*
X227099908Y-155312558D01*
X227053873Y-155293490D01*
X227007840Y-155274422D01*
X227007839Y-155274422D01*
X226908183Y-155274422D01*
X226908182Y-155274422D01*
X201400173Y-155274487D01*
X201400169Y-155274488D01*
X201308104Y-155312623D01*
X201308098Y-155312627D01*
X201237638Y-155383088D01*
X201237637Y-155383089D01*
X201199500Y-155475158D01*
X201199500Y-158401000D01*
X201185148Y-158435648D01*
X201150500Y-158450000D01*
X200749499Y-158450000D01*
X200714851Y-158435648D01*
X200700499Y-158401000D01*
X200700499Y-154921925D01*
X227409295Y-154921925D01*
X227431171Y-154939878D01*
X227434735Y-154943107D01*
X227539818Y-155048187D01*
X227543047Y-155051750D01*
X227567980Y-155082130D01*
X227570844Y-155085992D01*
X227598043Y-155126696D01*
X227600516Y-155130822D01*
X227619044Y-155165486D01*
X227621100Y-155169833D01*
X227632256Y-155196768D01*
X227760508Y-155068516D01*
X227511606Y-154819614D01*
X227409295Y-154921925D01*
X200700499Y-154921925D01*
X200700499Y-154467476D01*
X201417952Y-154467476D01*
X201666854Y-154716378D01*
X201915756Y-154467476D01*
X202620033Y-154467476D01*
X202868935Y-154716378D01*
X203117838Y-154467476D01*
X203822115Y-154467476D01*
X204071017Y-154716378D01*
X204319919Y-154467476D01*
X205024197Y-154467476D01*
X205273099Y-154716378D01*
X205522001Y-154467476D01*
X206226278Y-154467476D01*
X206475180Y-154716378D01*
X206724082Y-154467476D01*
X207428360Y-154467476D01*
X207677262Y-154716378D01*
X207926164Y-154467476D01*
X208630441Y-154467476D01*
X208879343Y-154716378D01*
X209128245Y-154467476D01*
X209832523Y-154467476D01*
X210081425Y-154716378D01*
X210330327Y-154467476D01*
X211034604Y-154467476D01*
X211283506Y-154716378D01*
X211532408Y-154467476D01*
X212236686Y-154467476D01*
X212485588Y-154716378D01*
X212734490Y-154467476D01*
X213438767Y-154467476D01*
X213687669Y-154716378D01*
X213936571Y-154467476D01*
X214640849Y-154467476D01*
X214889751Y-154716378D01*
X215138653Y-154467476D01*
X215842930Y-154467476D01*
X216091832Y-154716378D01*
X216340734Y-154467476D01*
X217045012Y-154467476D01*
X217293914Y-154716378D01*
X217542816Y-154467476D01*
X218247093Y-154467476D01*
X218495995Y-154716378D01*
X218744897Y-154467476D01*
X219449175Y-154467476D01*
X219698077Y-154716378D01*
X219946979Y-154467476D01*
X220651256Y-154467476D01*
X220900158Y-154716378D01*
X221149060Y-154467476D01*
X221853338Y-154467476D01*
X222102240Y-154716378D01*
X222351142Y-154467476D01*
X223055419Y-154467476D01*
X223304321Y-154716378D01*
X223553223Y-154467476D01*
X224257501Y-154467476D01*
X224506403Y-154716378D01*
X224755305Y-154467476D01*
X225459583Y-154467476D01*
X225708485Y-154716378D01*
X225957387Y-154467476D01*
X226661664Y-154467476D01*
X226910566Y-154716378D01*
X227159468Y-154467476D01*
X226910566Y-154218574D01*
X226661664Y-154467476D01*
X225957387Y-154467476D01*
X225708485Y-154218574D01*
X225459583Y-154467476D01*
X224755305Y-154467476D01*
X224506403Y-154218574D01*
X224257501Y-154467476D01*
X223553223Y-154467476D01*
X223304321Y-154218573D01*
X223055419Y-154467476D01*
X222351142Y-154467476D01*
X222102240Y-154218574D01*
X221853338Y-154467476D01*
X221149060Y-154467476D01*
X220900158Y-154218574D01*
X220651256Y-154467476D01*
X219946979Y-154467476D01*
X219698077Y-154218574D01*
X219449175Y-154467476D01*
X218744897Y-154467476D01*
X218495995Y-154218574D01*
X218247093Y-154467476D01*
X217542816Y-154467476D01*
X217293914Y-154218574D01*
X217045012Y-154467476D01*
X216340734Y-154467476D01*
X216091832Y-154218574D01*
X215842930Y-154467476D01*
X215138653Y-154467476D01*
X214889751Y-154218574D01*
X214640849Y-154467476D01*
X213936571Y-154467476D01*
X213687669Y-154218574D01*
X213438767Y-154467476D01*
X212734490Y-154467476D01*
X212485588Y-154218574D01*
X212236686Y-154467476D01*
X211532408Y-154467476D01*
X211283506Y-154218574D01*
X211034604Y-154467476D01*
X210330327Y-154467476D01*
X210081425Y-154218574D01*
X209832523Y-154467476D01*
X209128245Y-154467476D01*
X208879343Y-154218574D01*
X208630441Y-154467476D01*
X207926164Y-154467476D01*
X207677262Y-154218574D01*
X207428360Y-154467476D01*
X206724082Y-154467476D01*
X206475180Y-154218574D01*
X206226278Y-154467476D01*
X205522001Y-154467476D01*
X205273099Y-154218574D01*
X205024197Y-154467476D01*
X204319919Y-154467476D01*
X204071017Y-154218574D01*
X203822115Y-154467476D01*
X203117838Y-154467476D01*
X202868935Y-154218573D01*
X202620033Y-154467476D01*
X201915756Y-154467476D01*
X201666854Y-154218574D01*
X201417952Y-154467476D01*
X200700499Y-154467476D01*
X200700499Y-154149057D01*
X200714851Y-154114409D01*
X200830760Y-153998500D01*
X202151057Y-153998500D01*
X202267895Y-154115338D01*
X202384733Y-153998500D01*
X203353138Y-153998500D01*
X203469976Y-154115338D01*
X203586814Y-153998500D01*
X204555220Y-153998500D01*
X204672058Y-154115338D01*
X204788896Y-153998500D01*
X205757301Y-153998500D01*
X205874139Y-154115338D01*
X205990977Y-153998500D01*
X206959383Y-153998500D01*
X207076221Y-154115338D01*
X207193059Y-153998500D01*
X208161464Y-153998500D01*
X208278302Y-154115338D01*
X208395140Y-153998500D01*
X209363546Y-153998500D01*
X209480384Y-154115338D01*
X209597222Y-153998500D01*
X210565627Y-153998500D01*
X210682465Y-154115338D01*
X210799304Y-153998500D01*
X211767709Y-153998500D01*
X211884547Y-154115338D01*
X212001385Y-153998500D01*
X212969790Y-153998500D01*
X213086628Y-154115338D01*
X213203467Y-153998500D01*
X214171872Y-153998500D01*
X214288710Y-154115338D01*
X214405548Y-153998500D01*
X215373954Y-153998500D01*
X215490792Y-154115338D01*
X215607630Y-153998500D01*
X216576035Y-153998500D01*
X216692873Y-154115338D01*
X216809711Y-153998500D01*
X217778117Y-153998500D01*
X217894955Y-154115338D01*
X218011793Y-153998500D01*
X218980198Y-153998500D01*
X219097036Y-154115338D01*
X219213874Y-153998500D01*
X220182280Y-153998500D01*
X220299118Y-154115338D01*
X220415956Y-153998500D01*
X221384361Y-153998500D01*
X221501199Y-154115338D01*
X221618037Y-153998500D01*
X222586443Y-153998500D01*
X222703281Y-154115338D01*
X222820119Y-153998500D01*
X223788524Y-153998500D01*
X223905362Y-154115338D01*
X224022200Y-153998500D01*
X224990606Y-153998500D01*
X225107444Y-154115338D01*
X225224282Y-153998500D01*
X226192687Y-153998500D01*
X226309525Y-154115338D01*
X226426363Y-153998500D01*
X227394769Y-153998500D01*
X227511607Y-154115338D01*
X227628445Y-153998500D01*
X227394769Y-153998500D01*
X226426363Y-153998500D01*
X226192687Y-153998500D01*
X225224282Y-153998500D01*
X224990606Y-153998500D01*
X224022200Y-153998500D01*
X223788524Y-153998500D01*
X222820119Y-153998500D01*
X222586443Y-153998500D01*
X221618037Y-153998500D01*
X221384361Y-153998500D01*
X220415956Y-153998500D01*
X220182280Y-153998500D01*
X219213874Y-153998500D01*
X218980198Y-153998500D01*
X218011793Y-153998500D01*
X217778117Y-153998500D01*
X216809711Y-153998500D01*
X216576035Y-153998500D01*
X215607630Y-153998500D01*
X215373954Y-153998500D01*
X214405548Y-153998500D01*
X214171872Y-153998500D01*
X213203467Y-153998500D01*
X212969790Y-153998500D01*
X212001385Y-153998500D01*
X211767709Y-153998500D01*
X210799304Y-153998500D01*
X210565627Y-153998500D01*
X209597222Y-153998500D01*
X209363546Y-153998500D01*
X208395140Y-153998500D01*
X208161464Y-153998500D01*
X207193059Y-153998500D01*
X206959383Y-153998500D01*
X205990977Y-153998500D01*
X205757301Y-153998500D01*
X204788896Y-153998500D01*
X204555220Y-153998500D01*
X203586814Y-153998500D01*
X203353138Y-153998500D01*
X202384733Y-153998500D01*
X202151057Y-153998500D01*
X200830760Y-153998500D01*
X201314408Y-153514852D01*
X201349056Y-153500500D01*
X228056895Y-153500500D01*
X228091543Y-153514852D01*
X228104225Y-153536818D01*
X228135311Y-153652835D01*
X228135312Y-153652838D01*
X228204495Y-153772665D01*
X228302335Y-153870505D01*
X228349999Y-153898023D01*
X228372830Y-153927776D01*
X228374500Y-153940459D01*
X228374500Y-156475172D01*
X228374500Y-156574828D01*
X228412636Y-156666897D01*
X228412637Y-156666898D01*
X228412637Y-156666899D01*
X228887636Y-157141897D01*
X228958100Y-157212362D01*
X228958101Y-157212362D01*
X228958103Y-157212364D01*
X229050172Y-157250500D01*
X229075682Y-157250500D01*
X229110330Y-157264852D01*
X229124682Y-157299500D01*
X229110330Y-157334148D01*
X229099418Y-157341623D01*
X229099444Y-157341660D01*
X229095698Y-157344226D01*
X229019563Y-157420360D01*
X228976071Y-157518858D01*
X228973278Y-157542935D01*
X228973278Y-158678939D01*
X228973279Y-158678949D01*
X228976071Y-158703022D01*
X229019563Y-158801521D01*
X229049013Y-158830971D01*
X229049013Y-158830970D01*
X229095699Y-158877656D01*
X229129500Y-158892580D01*
X229129500Y-159054241D01*
X229069399Y-159094399D01*
X229014034Y-159177260D01*
X228999500Y-159250326D01*
X228999500Y-159499674D01*
X229014034Y-159572740D01*
X229065323Y-159649500D01*
X228987169Y-159649500D01*
X228945505Y-159577335D01*
X228942901Y-159574731D01*
X228941512Y-159559100D01*
X228925396Y-159555895D01*
X228917971Y-159549801D01*
X228847665Y-159479495D01*
X228727838Y-159410312D01*
X228727834Y-159410311D01*
X228594186Y-159374500D01*
X228594183Y-159374500D01*
X228455817Y-159374500D01*
X228455814Y-159374500D01*
X228322165Y-159410311D01*
X228322161Y-159410312D01*
X228202334Y-159479495D01*
X228202334Y-159479496D01*
X228104496Y-159577334D01*
X228104495Y-159577334D01*
X228035312Y-159697161D01*
X228035311Y-159697165D01*
X227999500Y-159830813D01*
X227999500Y-159969186D01*
X228035311Y-160102834D01*
X228035312Y-160102838D01*
X228076976Y-160175001D01*
X228104495Y-160222665D01*
X228202335Y-160320505D01*
X228246194Y-160345827D01*
X228322161Y-160389687D01*
X228322163Y-160389687D01*
X228322164Y-160389688D01*
X228427571Y-160417931D01*
X228455813Y-160425499D01*
X228455814Y-160425500D01*
X228455817Y-160425500D01*
X228594186Y-160425500D01*
X228594186Y-160425499D01*
X228727836Y-160389688D01*
X228847665Y-160320505D01*
X228857204Y-160310966D01*
X232838989Y-160310966D01*
X232935114Y-160348565D01*
X232936944Y-160349323D01*
X232951759Y-160355820D01*
X232953558Y-160356653D01*
X232971662Y-160365482D01*
X232973425Y-160366386D01*
X232987667Y-160374059D01*
X232989391Y-160375034D01*
X233167352Y-160480406D01*
X233169875Y-160477883D01*
X232920973Y-160228981D01*
X232838989Y-160310966D01*
X228857204Y-160310966D01*
X228945505Y-160222665D01*
X228973023Y-160175000D01*
X229002776Y-160152170D01*
X229015459Y-160150500D01*
X229213726Y-160150500D01*
X229274828Y-160150500D01*
X229366897Y-160112364D01*
X229400586Y-160078675D01*
X231070781Y-160078675D01*
X231117851Y-160125745D01*
X231366753Y-159876843D01*
X232071031Y-159876843D01*
X232319933Y-160125745D01*
X232568835Y-159876843D01*
X233273112Y-159876843D01*
X233522014Y-160125745D01*
X233560987Y-160086772D01*
X233560987Y-160057636D01*
X233559687Y-159990607D01*
X233559830Y-159985802D01*
X233562920Y-159946643D01*
X233563532Y-159941880D01*
X233564832Y-159934599D01*
X233565068Y-159932211D01*
X233565771Y-159927465D01*
X233569128Y-159910563D01*
X233572098Y-159893973D01*
X233573150Y-159889383D01*
X233573813Y-159887014D01*
X233575341Y-159879343D01*
X233576509Y-159874683D01*
X233587912Y-159837101D01*
X233589530Y-159832578D01*
X233615201Y-159770596D01*
X233629123Y-159735050D01*
X233522014Y-159627941D01*
X233273112Y-159876843D01*
X232568835Y-159876843D01*
X232319933Y-159627941D01*
X232071031Y-159876843D01*
X231366753Y-159876843D01*
X231222364Y-159732454D01*
X231220529Y-159741681D01*
X231219800Y-159744805D01*
X231211357Y-159776304D01*
X231210427Y-159779371D01*
X231202014Y-159804151D01*
X231200885Y-159807149D01*
X231127948Y-159983238D01*
X231126623Y-159986162D01*
X231115028Y-160009670D01*
X231113516Y-160012499D01*
X231097207Y-160040741D01*
X231095514Y-160043463D01*
X231080974Y-160065220D01*
X231079108Y-160067824D01*
X231070781Y-160078675D01*
X229400586Y-160078675D01*
X229496344Y-159982916D01*
X229530987Y-159968567D01*
X229560818Y-159978693D01*
X229587410Y-159999098D01*
X229733369Y-160059556D01*
X229820000Y-160070961D01*
X229820000Y-160070959D01*
X230220000Y-160070959D01*
X230306626Y-160059556D01*
X230306634Y-160059554D01*
X230452584Y-159999101D01*
X230452589Y-159999098D01*
X230577924Y-159902925D01*
X230577925Y-159902924D01*
X230674098Y-159777589D01*
X230674101Y-159777584D01*
X230734556Y-159631630D01*
X230742012Y-159575000D01*
X230220000Y-159575000D01*
X230220000Y-160070959D01*
X229820000Y-160070959D01*
X229820000Y-159386720D01*
X231580907Y-159386720D01*
X231718891Y-159524704D01*
X231967794Y-159275802D01*
X232672071Y-159275802D01*
X232920974Y-159524704D01*
X233169876Y-159275802D01*
X232920974Y-159026900D01*
X232672071Y-159275802D01*
X231967794Y-159275802D01*
X231887891Y-159195899D01*
X231837708Y-159246083D01*
X231834363Y-159249133D01*
X231805906Y-159272763D01*
X231802295Y-159275490D01*
X231764290Y-159301524D01*
X231760441Y-159303907D01*
X231728131Y-159321903D01*
X231724080Y-159323920D01*
X231587390Y-159384275D01*
X231583971Y-159385634D01*
X231580907Y-159386720D01*
X229820000Y-159386720D01*
X229820000Y-159175000D01*
X230220000Y-159175000D01*
X230742010Y-159175000D01*
X230742011Y-159174998D01*
X230734556Y-159118373D01*
X230734554Y-159118365D01*
X230674101Y-158972415D01*
X230674098Y-158972410D01*
X230577925Y-158847075D01*
X230577924Y-158847074D01*
X230452589Y-158750901D01*
X230452584Y-158750898D01*
X230306630Y-158690443D01*
X230220000Y-158679038D01*
X230220000Y-159175000D01*
X229820000Y-159175000D01*
X229820000Y-158715025D01*
X229821114Y-158706688D01*
X229821060Y-158706682D01*
X229821485Y-158703021D01*
X229824278Y-158678946D01*
X229824277Y-157542937D01*
X229821485Y-157518861D01*
X229777993Y-157420362D01*
X229777992Y-157420361D01*
X229777992Y-157420360D01*
X229701858Y-157344226D01*
X229698112Y-157341660D01*
X229698707Y-157340791D01*
X229676182Y-157317199D01*
X229677050Y-157279706D01*
X229704175Y-157253808D01*
X229721874Y-157250500D01*
X230671239Y-157250500D01*
X230830332Y-157409592D01*
X230819563Y-157420362D01*
X230818776Y-157422143D01*
X230815692Y-157421473D01*
X230812602Y-157436125D01*
X230776071Y-157518858D01*
X230773278Y-157542935D01*
X230773278Y-158556144D01*
X230773279Y-158678945D01*
X230776071Y-158703021D01*
X230819563Y-158801520D01*
X230895699Y-158877656D01*
X230994198Y-158921148D01*
X231018273Y-158923941D01*
X231379282Y-158923940D01*
X231403358Y-158921148D01*
X231501857Y-158877656D01*
X231577993Y-158801520D01*
X231612225Y-158723992D01*
X232120261Y-158723992D01*
X232319933Y-158923664D01*
X232568835Y-158674762D01*
X233273112Y-158674762D01*
X233522014Y-158923664D01*
X233736507Y-158709170D01*
X233700880Y-158674898D01*
X233697584Y-158671400D01*
X233672072Y-158641517D01*
X233669134Y-158637713D01*
X233664924Y-158631671D01*
X233663410Y-158629826D01*
X233660551Y-158625971D01*
X233650924Y-158611572D01*
X233641164Y-158597554D01*
X233638630Y-158593507D01*
X233637469Y-158591435D01*
X233633294Y-158585186D01*
X233630823Y-158581064D01*
X233612301Y-158546412D01*
X233610245Y-158542066D01*
X233590461Y-158494307D01*
X233522014Y-158425860D01*
X233273112Y-158674762D01*
X232568835Y-158674762D01*
X232319932Y-158425859D01*
X232122277Y-158623514D01*
X232122278Y-158686122D01*
X232122258Y-158687535D01*
X232121926Y-158699054D01*
X232121865Y-158700463D01*
X232121037Y-158714821D01*
X232120935Y-158716236D01*
X232120261Y-158723992D01*
X231612225Y-158723992D01*
X231621485Y-158703021D01*
X231624278Y-158678946D01*
X231624277Y-158073721D01*
X232672072Y-158073721D01*
X232920974Y-158322623D01*
X233169876Y-158073721D01*
X232920974Y-157824819D01*
X232672072Y-158073721D01*
X231624277Y-158073721D01*
X231624277Y-157542937D01*
X231621485Y-157518861D01*
X231583006Y-157431715D01*
X232111994Y-157431715D01*
X232113453Y-157439275D01*
X232114014Y-157442908D01*
X232119791Y-157492712D01*
X232119934Y-157494124D01*
X232120933Y-157505643D01*
X232121034Y-157507051D01*
X232121863Y-157521403D01*
X232121925Y-157522818D01*
X232121947Y-157523596D01*
X232319933Y-157721582D01*
X232568835Y-157472680D01*
X233273112Y-157472680D01*
X233515534Y-157715102D01*
X233506306Y-157239485D01*
X233273112Y-157472680D01*
X232568835Y-157472680D01*
X232319932Y-157223777D01*
X232111994Y-157431715D01*
X231583006Y-157431715D01*
X231577993Y-157420362D01*
X231501857Y-157344226D01*
X231422441Y-157309160D01*
X231418951Y-157300734D01*
X231411142Y-157281881D01*
X231340675Y-157211414D01*
X231340673Y-157211413D01*
X231176700Y-157047440D01*
X231196997Y-157047440D01*
X231211349Y-157012792D01*
X231245997Y-156998440D01*
X231400659Y-156998440D01*
X231400674Y-156998439D01*
X231436797Y-156995597D01*
X231591473Y-156950659D01*
X231725089Y-156871639D01*
X232672072Y-156871639D01*
X232920974Y-157120541D01*
X233169876Y-156871639D01*
X232920974Y-156622737D01*
X232672072Y-156871639D01*
X231725089Y-156871639D01*
X231730109Y-156868670D01*
X231730114Y-156868666D01*
X231844003Y-156754777D01*
X231844007Y-156754772D01*
X231925996Y-156616136D01*
X231970934Y-156461461D01*
X231970934Y-156461459D01*
X231973777Y-156425326D01*
X231973778Y-156425312D01*
X231973778Y-156367655D01*
X232471778Y-156367655D01*
X232568833Y-156270599D01*
X233273112Y-156270599D01*
X233491749Y-156489236D01*
X233483426Y-156060284D01*
X233273112Y-156270599D01*
X232568833Y-156270599D01*
X232568834Y-156270598D01*
X232471778Y-156173542D01*
X232471778Y-156367655D01*
X231973778Y-156367655D01*
X231973778Y-156085941D01*
X231247778Y-156085941D01*
X231213130Y-156071589D01*
X231198778Y-156036941D01*
X231198778Y-155835941D01*
X230997778Y-155835941D01*
X230963130Y-155821589D01*
X230948778Y-155786941D01*
X230948778Y-155669558D01*
X232672072Y-155669558D01*
X232920974Y-155918460D01*
X233169876Y-155669558D01*
X232920974Y-155420656D01*
X232672072Y-155669558D01*
X230948778Y-155669558D01*
X230948778Y-155585941D01*
X231448778Y-155585941D01*
X231973777Y-155585941D01*
X231973777Y-155246559D01*
X231973776Y-155246544D01*
X231970934Y-155210421D01*
X231925996Y-155055745D01*
X231844007Y-154917109D01*
X231844003Y-154917104D01*
X231825336Y-154898437D01*
X232398755Y-154898437D01*
X232398907Y-154898858D01*
X232399857Y-154901783D01*
X232452707Y-155083691D01*
X232453343Y-155086109D01*
X232458032Y-155105981D01*
X232458545Y-155108431D01*
X232463115Y-155133454D01*
X232463501Y-155135925D01*
X232466142Y-155156190D01*
X232466402Y-155158678D01*
X232467297Y-155170054D01*
X232568835Y-155068517D01*
X232568834Y-155068516D01*
X233273111Y-155068516D01*
X233467963Y-155263368D01*
X233460546Y-154881081D01*
X233273111Y-155068516D01*
X232568834Y-155068516D01*
X232398755Y-154898437D01*
X231825336Y-154898437D01*
X231730114Y-154803215D01*
X231730109Y-154803211D01*
X231591472Y-154721222D01*
X231591474Y-154721222D01*
X231448778Y-154679765D01*
X231448778Y-155585941D01*
X230948778Y-155585941D01*
X230948778Y-154679765D01*
X230948777Y-154679765D01*
X230806082Y-154721222D01*
X230667446Y-154803211D01*
X230667441Y-154803215D01*
X230553550Y-154917106D01*
X230553546Y-154917111D01*
X230505186Y-154998884D01*
X230475196Y-155021402D01*
X230463010Y-155022941D01*
X230434033Y-155022941D01*
X230434032Y-155022941D01*
X230118274Y-155022942D01*
X230094198Y-155025734D01*
X230000347Y-155067173D01*
X230000348Y-155067171D01*
X229995697Y-155069226D01*
X229919563Y-155145361D01*
X229919561Y-155145362D01*
X229893601Y-155204155D01*
X229866477Y-155230054D01*
X229828984Y-155229186D01*
X229803952Y-155204154D01*
X229794165Y-155181989D01*
X229777993Y-155145362D01*
X229777992Y-155145361D01*
X229777992Y-155145360D01*
X229701857Y-155069225D01*
X229678484Y-155058904D01*
X229652586Y-155031779D01*
X229649278Y-155014080D01*
X229649278Y-154467476D01*
X230267909Y-154467476D01*
X230283406Y-154482973D01*
X230298903Y-154467476D01*
X232672072Y-154467476D01*
X232920974Y-154716378D01*
X233169876Y-154467476D01*
X232920974Y-154218574D01*
X232672072Y-154467476D01*
X230298903Y-154467476D01*
X230326375Y-154440005D01*
X230328619Y-154437897D01*
X230347480Y-154421269D01*
X230349852Y-154419307D01*
X230374589Y-154400119D01*
X230377079Y-154398310D01*
X230397871Y-154384180D01*
X230400470Y-154382531D01*
X230566061Y-154284601D01*
X230568760Y-154283117D01*
X230577103Y-154278866D01*
X230516811Y-154218574D01*
X230267909Y-154467476D01*
X229649278Y-154467476D01*
X229649278Y-153866436D01*
X230868949Y-153866436D01*
X231117851Y-154115338D01*
X231366753Y-153866436D01*
X232071031Y-153866436D01*
X232319933Y-154115338D01*
X232568835Y-153866436D01*
X232568834Y-153866435D01*
X233273111Y-153866435D01*
X233444178Y-154037502D01*
X233437666Y-153701880D01*
X233273111Y-153866435D01*
X232568834Y-153866435D01*
X232319933Y-153617534D01*
X232071031Y-153866436D01*
X231366753Y-153866436D01*
X231117851Y-153617534D01*
X230868949Y-153866436D01*
X229649278Y-153866436D01*
X229649278Y-153401442D01*
X230403956Y-153401442D01*
X230516811Y-153514297D01*
X230765713Y-153265395D01*
X231469990Y-153265395D01*
X231718892Y-153514297D01*
X231967794Y-153265395D01*
X232672072Y-153265395D01*
X232920974Y-153514297D01*
X233169876Y-153265395D01*
X232920974Y-153016493D01*
X232672072Y-153265395D01*
X231967794Y-153265395D01*
X231718892Y-153016493D01*
X231469990Y-153265395D01*
X230765713Y-153265395D01*
X230672993Y-153172675D01*
X230661370Y-153185930D01*
X230659177Y-153188271D01*
X230538271Y-153309177D01*
X230535930Y-153311370D01*
X230516234Y-153328642D01*
X230513755Y-153330677D01*
X230487881Y-153350529D01*
X230485275Y-153352396D01*
X230463506Y-153366941D01*
X230460784Y-153368633D01*
X230403956Y-153401442D01*
X229649278Y-153401442D01*
X229649278Y-153304315D01*
X229649279Y-153304306D01*
X229649279Y-153198953D01*
X229649278Y-153198949D01*
X229611142Y-153106882D01*
X229611141Y-153106880D01*
X229572831Y-153068570D01*
X229558479Y-153033922D01*
X229572831Y-152999274D01*
X229607479Y-152984922D01*
X229631978Y-152991486D01*
X229672164Y-153014688D01*
X229753247Y-153036414D01*
X229805813Y-153050499D01*
X229805814Y-153050500D01*
X229805817Y-153050500D01*
X229944186Y-153050500D01*
X229944186Y-153050499D01*
X230077836Y-153014688D01*
X230197665Y-152945505D01*
X230295505Y-152847665D01*
X230364688Y-152727836D01*
X230376008Y-152685587D01*
X230890182Y-152685587D01*
X231117851Y-152913256D01*
X231366753Y-152664354D01*
X232071031Y-152664354D01*
X232319933Y-152913256D01*
X232568835Y-152664354D01*
X232568834Y-152664353D01*
X233273111Y-152664353D01*
X233420393Y-152811635D01*
X233414787Y-152522678D01*
X233273111Y-152664353D01*
X232568834Y-152664353D01*
X232319933Y-152415452D01*
X232071031Y-152664354D01*
X231366753Y-152664354D01*
X231117850Y-152415451D01*
X230896907Y-152636394D01*
X230896684Y-152639808D01*
X230896370Y-152642999D01*
X230892115Y-152675333D01*
X230891593Y-152678498D01*
X230890182Y-152685587D01*
X230376008Y-152685587D01*
X230400499Y-152594186D01*
X230400500Y-152594186D01*
X230400500Y-152455814D01*
X230400499Y-152455813D01*
X230386255Y-152402652D01*
X230391150Y-152365470D01*
X230398933Y-152355326D01*
X230690947Y-152063313D01*
X231469990Y-152063313D01*
X231718892Y-152312215D01*
X231967794Y-152063313D01*
X232672072Y-152063313D01*
X232920974Y-152312215D01*
X233169876Y-152063313D01*
X232920974Y-151814411D01*
X232672072Y-152063313D01*
X231967794Y-152063313D01*
X231718892Y-151814411D01*
X231469990Y-152063313D01*
X230690947Y-152063313D01*
X231200780Y-151553481D01*
X231238560Y-151462272D01*
X232071030Y-151462272D01*
X232319933Y-151711175D01*
X232568835Y-151462272D01*
X233273111Y-151462272D01*
X233396607Y-151585768D01*
X233391907Y-151343477D01*
X233273111Y-151462272D01*
X232568835Y-151462272D01*
X232319933Y-151213370D01*
X232071030Y-151462272D01*
X231238560Y-151462272D01*
X231238916Y-151461412D01*
X231238916Y-151361756D01*
X231238916Y-151092110D01*
X231736916Y-151092110D01*
X231967794Y-150861232D01*
X232672072Y-150861232D01*
X232920974Y-151110134D01*
X233169876Y-150861232D01*
X232920974Y-150612330D01*
X232672072Y-150861232D01*
X231967794Y-150861232D01*
X231736916Y-150630354D01*
X231736916Y-151092110D01*
X231238916Y-151092110D01*
X231238916Y-150260191D01*
X232071031Y-150260191D01*
X232319933Y-150509093D01*
X232568835Y-150260191D01*
X232568834Y-150260190D01*
X233273111Y-150260190D01*
X233372822Y-150359901D01*
X233369027Y-150164275D01*
X233273111Y-150260190D01*
X232568834Y-150260190D01*
X232319933Y-150011289D01*
X232071031Y-150260191D01*
X231238916Y-150260191D01*
X231238916Y-149890028D01*
X231736916Y-149890028D01*
X231967794Y-149659150D01*
X232672072Y-149659150D01*
X232920974Y-149908052D01*
X233169876Y-149659150D01*
X232920974Y-149410248D01*
X232672072Y-149659150D01*
X231967794Y-149659150D01*
X231736916Y-149428272D01*
X231736916Y-149890028D01*
X231238916Y-149890028D01*
X231238916Y-149058109D01*
X232071030Y-149058109D01*
X232319933Y-149307011D01*
X232568835Y-149058109D01*
X232568834Y-149058108D01*
X233273111Y-149058108D01*
X233349037Y-149134035D01*
X233346147Y-148985073D01*
X233273111Y-149058108D01*
X232568834Y-149058108D01*
X232319933Y-148809207D01*
X232071030Y-149058109D01*
X231238916Y-149058109D01*
X231238916Y-148687947D01*
X231736916Y-148687947D01*
X231967794Y-148457069D01*
X232672072Y-148457069D01*
X232920974Y-148705971D01*
X233169876Y-148457069D01*
X232920974Y-148208167D01*
X232672072Y-148457069D01*
X231967794Y-148457069D01*
X231736916Y-148226191D01*
X231736916Y-148687947D01*
X231238916Y-148687947D01*
X231238916Y-147856028D01*
X232071031Y-147856028D01*
X232319933Y-148104930D01*
X232568835Y-147856028D01*
X232568834Y-147856027D01*
X233273111Y-147856027D01*
X233325254Y-147908170D01*
X233324811Y-147885295D01*
X233324954Y-147880490D01*
X233328044Y-147841331D01*
X233328656Y-147836568D01*
X233329956Y-147829287D01*
X233330192Y-147826899D01*
X233330895Y-147822153D01*
X233334252Y-147805251D01*
X233336512Y-147792627D01*
X233273111Y-147856027D01*
X232568834Y-147856027D01*
X232319933Y-147607126D01*
X232071031Y-147856028D01*
X231238916Y-147856028D01*
X231238916Y-147077369D01*
X231736916Y-147077369D01*
X231736916Y-147485865D01*
X231967794Y-147254987D01*
X232672072Y-147254987D01*
X232920974Y-147503889D01*
X233169876Y-147254987D01*
X232920974Y-147006085D01*
X232672072Y-147254987D01*
X231967794Y-147254987D01*
X231761185Y-147048378D01*
X231739108Y-147074965D01*
X231736916Y-147077369D01*
X231238916Y-147077369D01*
X231238916Y-146873739D01*
X231253268Y-146839091D01*
X231268125Y-146828914D01*
X231291495Y-146818595D01*
X231291496Y-146818595D01*
X231367630Y-146742460D01*
X231367631Y-146742459D01*
X231406714Y-146653946D01*
X232071031Y-146653946D01*
X232319933Y-146902848D01*
X232568835Y-146653946D01*
X232568834Y-146653945D01*
X233273111Y-146653945D01*
X233522014Y-146902848D01*
X233612834Y-146812027D01*
X233609723Y-146809813D01*
X233578858Y-146785470D01*
X233575232Y-146782310D01*
X233468128Y-146679282D01*
X233464830Y-146675782D01*
X233439312Y-146645889D01*
X233436374Y-146642083D01*
X233408393Y-146601915D01*
X233405841Y-146597840D01*
X233386647Y-146563548D01*
X233384507Y-146559241D01*
X233379430Y-146547626D01*
X233273111Y-146653945D01*
X232568834Y-146653945D01*
X232319933Y-146405044D01*
X232071031Y-146653946D01*
X231406714Y-146653946D01*
X231411123Y-146643960D01*
X231413916Y-146619885D01*
X231413916Y-146052906D01*
X232672072Y-146052906D01*
X232920974Y-146301808D01*
X233169876Y-146052906D01*
X232920974Y-145804004D01*
X232672072Y-146052906D01*
X231413916Y-146052906D01*
X231413915Y-145483876D01*
X231411123Y-145459800D01*
X231407619Y-145451865D01*
X232071031Y-145451865D01*
X232319933Y-145700767D01*
X232568835Y-145451865D01*
X232319933Y-145202963D01*
X232071031Y-145451865D01*
X231407619Y-145451865D01*
X231367631Y-145361301D01*
X231291495Y-145285165D01*
X231192996Y-145241673D01*
X231168921Y-145238880D01*
X230807912Y-145238881D01*
X230783836Y-145241673D01*
X230685337Y-145285165D01*
X230609201Y-145361301D01*
X230608414Y-145363083D01*
X230608413Y-145363083D01*
X230565709Y-145459797D01*
X230562916Y-145483874D01*
X230562916Y-146619878D01*
X230562917Y-146619888D01*
X230565709Y-146643961D01*
X230609201Y-146742460D01*
X230685336Y-146818595D01*
X230708707Y-146828914D01*
X230734607Y-146856037D01*
X230737916Y-146873739D01*
X230737916Y-151287526D01*
X230723564Y-151322174D01*
X230044676Y-152001061D01*
X230010028Y-152015413D01*
X229997347Y-152013744D01*
X229944184Y-151999500D01*
X229944183Y-151999500D01*
X229805817Y-151999500D01*
X229805814Y-151999500D01*
X229673656Y-152034911D01*
X229636474Y-152030016D01*
X229613644Y-152000263D01*
X229618539Y-151963081D01*
X229626323Y-151952936D01*
X230035004Y-151544254D01*
X230035007Y-151544253D01*
X230041896Y-151537364D01*
X230041897Y-151537364D01*
X230112364Y-151466897D01*
X230128160Y-151428760D01*
X230150501Y-151374827D01*
X230150501Y-151275172D01*
X230150501Y-151271229D01*
X230150500Y-151271215D01*
X230150500Y-145305537D01*
X230150501Y-145305528D01*
X230150501Y-145200174D01*
X230150500Y-145200170D01*
X230112364Y-145108104D01*
X230112363Y-145108102D01*
X230039107Y-145034846D01*
X230039100Y-145034840D01*
X229554323Y-144550062D01*
X229539971Y-144515414D01*
X229554322Y-144480767D01*
X229567631Y-144467459D01*
X229593591Y-144408666D01*
X229620715Y-144382767D01*
X229658208Y-144383633D01*
X229683241Y-144408666D01*
X229709201Y-144467460D01*
X229785335Y-144543594D01*
X229785336Y-144543594D01*
X229785337Y-144543595D01*
X229883836Y-144587087D01*
X229907911Y-144589880D01*
X230252649Y-144589879D01*
X230287297Y-144604231D01*
X230294825Y-144613936D01*
X230343186Y-144695711D01*
X230343190Y-144695716D01*
X230457079Y-144809605D01*
X230457084Y-144809609D01*
X230595721Y-144891598D01*
X230595721Y-144891599D01*
X230738415Y-144933055D01*
X231238416Y-144933055D01*
X231381110Y-144891599D01*
X231381110Y-144891598D01*
X231450056Y-144850824D01*
X232672072Y-144850824D01*
X232920974Y-145099726D01*
X233169876Y-144850824D01*
X232920974Y-144601922D01*
X232672072Y-144850824D01*
X231450056Y-144850824D01*
X231519747Y-144809609D01*
X231519752Y-144809605D01*
X231633641Y-144695716D01*
X231633645Y-144695711D01*
X231715634Y-144557075D01*
X231750751Y-144436203D01*
X232257451Y-144436203D01*
X232319933Y-144498685D01*
X232568835Y-144249783D01*
X232319933Y-144000881D01*
X232261416Y-144059398D01*
X232261416Y-144375126D01*
X232261378Y-144377060D01*
X232260682Y-144394676D01*
X232260569Y-144396585D01*
X232257451Y-144436203D01*
X231750751Y-144436203D01*
X231760572Y-144402400D01*
X231760572Y-144402398D01*
X231763415Y-144366265D01*
X231763416Y-144366251D01*
X231763416Y-144026880D01*
X231238416Y-144026880D01*
X231238416Y-144933055D01*
X230738415Y-144933055D01*
X230738416Y-144933054D01*
X230738416Y-143648743D01*
X232672072Y-143648743D01*
X232920974Y-143897645D01*
X233169876Y-143648743D01*
X232920974Y-143399841D01*
X232672072Y-143648743D01*
X230738416Y-143648743D01*
X230738416Y-143526880D01*
X231238416Y-143526880D01*
X231763415Y-143526880D01*
X231763415Y-143187498D01*
X231763414Y-143187483D01*
X231760572Y-143151360D01*
X231715634Y-142996684D01*
X231664227Y-142909760D01*
X232208971Y-142909760D01*
X232242345Y-143024630D01*
X232242981Y-143027048D01*
X232247670Y-143046920D01*
X232248183Y-143049370D01*
X232252753Y-143074393D01*
X232253139Y-143076864D01*
X232255780Y-143097129D01*
X232256040Y-143099617D01*
X232260577Y-143157276D01*
X232260691Y-143159210D01*
X232261378Y-143176825D01*
X232261415Y-143178735D01*
X232261415Y-143238086D01*
X232319933Y-143296604D01*
X232568835Y-143047702D01*
X232319932Y-142798799D01*
X232208971Y-142909760D01*
X231664227Y-142909760D01*
X231633645Y-142858048D01*
X231633641Y-142858043D01*
X231519752Y-142744154D01*
X231519747Y-142744150D01*
X231381110Y-142662161D01*
X231381112Y-142662161D01*
X231238416Y-142620704D01*
X231238416Y-143526880D01*
X230738416Y-143526880D01*
X230738416Y-142620704D01*
X230738415Y-142620704D01*
X230595720Y-142662161D01*
X230457084Y-142744150D01*
X230457079Y-142744154D01*
X230343188Y-142858045D01*
X230343184Y-142858050D01*
X230294824Y-142939823D01*
X230264834Y-142962341D01*
X230252648Y-142963880D01*
X230223671Y-142963880D01*
X230223670Y-142963880D01*
X229907912Y-142963881D01*
X229883836Y-142966673D01*
X229789985Y-143008112D01*
X229789986Y-143008110D01*
X229785335Y-143010165D01*
X229709201Y-143086300D01*
X229709199Y-143086301D01*
X229683239Y-143145094D01*
X229656115Y-143170993D01*
X229618622Y-143170125D01*
X229593590Y-143145093D01*
X229583803Y-143122928D01*
X229567631Y-143086301D01*
X229567630Y-143086300D01*
X229567630Y-143086299D01*
X229491496Y-143010165D01*
X229392998Y-142966673D01*
X229380958Y-142965276D01*
X229368921Y-142963880D01*
X229368919Y-142963880D01*
X229007917Y-142963880D01*
X229007907Y-142963881D01*
X228983834Y-142966673D01*
X228885335Y-143010165D01*
X228809201Y-143086299D01*
X228765709Y-143184797D01*
X228762916Y-143208874D01*
X228762916Y-144344878D01*
X228762917Y-144344888D01*
X228765709Y-144368961D01*
X228809201Y-144467460D01*
X228885335Y-144543594D01*
X228885336Y-144543594D01*
X228885337Y-144543595D01*
X228909944Y-144554460D01*
X228935843Y-144581584D01*
X228937458Y-144587139D01*
X228944538Y-144604231D01*
X228976052Y-144680313D01*
X228976053Y-144680314D01*
X228976053Y-144680315D01*
X229466243Y-145170503D01*
X229480595Y-145205151D01*
X229466243Y-145239799D01*
X229431595Y-145254151D01*
X229411804Y-145249976D01*
X229393001Y-145241674D01*
X229392998Y-145241673D01*
X229380958Y-145240276D01*
X229368921Y-145238880D01*
X229368919Y-145238880D01*
X229007917Y-145238880D01*
X229007907Y-145238881D01*
X228983834Y-145241673D01*
X228885335Y-145285165D01*
X228809201Y-145361299D01*
X228765709Y-145459797D01*
X228762916Y-145483874D01*
X228762916Y-146327741D01*
X228762917Y-146619884D01*
X228764495Y-146633498D01*
X228761530Y-146633108D01*
X228753339Y-146661892D01*
X228747239Y-146668304D01*
X228735000Y-146679037D01*
X228735000Y-148070959D01*
X228821626Y-148059556D01*
X228821630Y-148059555D01*
X228856748Y-148045009D01*
X228894251Y-148045009D01*
X228920770Y-148071527D01*
X228920770Y-148071528D01*
X228924500Y-148069983D01*
X228924500Y-148389912D01*
X228924500Y-150100942D01*
X228910148Y-150135590D01*
X228294676Y-150751061D01*
X228260028Y-150765413D01*
X228247347Y-150763744D01*
X228194184Y-150749500D01*
X228194183Y-150749500D01*
X228055817Y-150749500D01*
X228055814Y-150749500D01*
X227922165Y-150785311D01*
X227922161Y-150785312D01*
X227802334Y-150854495D01*
X227802334Y-150854496D01*
X227704496Y-150952334D01*
X227704495Y-150952334D01*
X227635312Y-151072161D01*
X227635311Y-151072165D01*
X227599500Y-151205813D01*
X227599500Y-151344183D01*
X227613744Y-151397347D01*
X227608848Y-151434529D01*
X227601061Y-151444676D01*
X227485590Y-151560148D01*
X227450943Y-151574500D01*
X200100170Y-151574500D01*
X200008101Y-151612637D01*
X200008100Y-151612637D01*
X199105887Y-152514852D01*
X198808103Y-152812636D01*
X198793571Y-152827168D01*
X198784148Y-152836591D01*
X198749499Y-152850942D01*
X198714851Y-152836590D01*
X198700500Y-152801942D01*
X198700500Y-151324498D01*
X198714852Y-151289850D01*
X198749497Y-151275498D01*
X227007829Y-151275422D01*
X227099898Y-151237286D01*
X227170364Y-151166818D01*
X227208500Y-151074749D01*
X227208500Y-150975093D01*
X227208500Y-150965349D01*
X227208498Y-150965345D01*
X227208495Y-149659150D01*
X227863746Y-149659150D01*
X228112648Y-149908052D01*
X228361550Y-149659150D01*
X228112648Y-149410248D01*
X227863746Y-149659150D01*
X227208495Y-149659150D01*
X227208492Y-148457068D01*
X227863745Y-148457068D01*
X228112647Y-148705970D01*
X228255788Y-148562830D01*
X228167192Y-148551167D01*
X228164024Y-148550644D01*
X228138319Y-148545529D01*
X228135196Y-148544800D01*
X228103696Y-148536357D01*
X228100629Y-148535427D01*
X228075849Y-148527014D01*
X228072851Y-148525885D01*
X227896762Y-148452948D01*
X227893838Y-148451623D01*
X227877332Y-148443481D01*
X227863745Y-148457068D01*
X227208492Y-148457068D01*
X227208490Y-147575001D01*
X227812988Y-147575001D01*
X227820443Y-147631626D01*
X227820445Y-147631634D01*
X227880898Y-147777584D01*
X227880901Y-147777589D01*
X227977074Y-147902924D01*
X227977075Y-147902925D01*
X228102410Y-147999098D01*
X228102415Y-147999101D01*
X228248369Y-148059556D01*
X228335000Y-148070961D01*
X228335000Y-147575000D01*
X227812990Y-147575000D01*
X227812988Y-147575001D01*
X227208490Y-147575001D01*
X227208489Y-147175000D01*
X227812987Y-147175000D01*
X228335000Y-147175000D01*
X228335000Y-146679038D01*
X228248369Y-146690443D01*
X228102415Y-146750898D01*
X228102410Y-146750901D01*
X227977075Y-146847074D01*
X227977074Y-146847075D01*
X227880901Y-146972410D01*
X227880898Y-146972415D01*
X227820443Y-147118369D01*
X227812987Y-147175000D01*
X227208489Y-147175000D01*
X227208486Y-146052906D01*
X227863746Y-146052906D01*
X228046054Y-146235214D01*
X228072851Y-146224115D01*
X228075849Y-146222986D01*
X228100629Y-146214573D01*
X228103696Y-146213643D01*
X228135196Y-146205200D01*
X228138319Y-146204471D01*
X228164024Y-146199356D01*
X228167191Y-146198833D01*
X228222965Y-146191489D01*
X228264916Y-146149539D01*
X228264916Y-145956272D01*
X228112648Y-145804004D01*
X227863746Y-146052906D01*
X227208486Y-146052906D01*
X227208483Y-144850824D01*
X227863746Y-144850824D01*
X228112648Y-145099726D01*
X228361550Y-144850824D01*
X228112648Y-144601922D01*
X227863746Y-144850824D01*
X227208483Y-144850824D01*
X227208480Y-143648743D01*
X227863746Y-143648743D01*
X228112647Y-143897644D01*
X228264916Y-143745376D01*
X228264916Y-143552109D01*
X228112648Y-143399841D01*
X227863746Y-143648743D01*
X227208480Y-143648743D01*
X227208478Y-142753296D01*
X227208709Y-142748548D01*
X227213869Y-142695562D01*
X227222100Y-142611047D01*
X227223930Y-142601740D01*
X227252812Y-142505395D01*
X227922480Y-142505395D01*
X228112648Y-142695563D01*
X228315063Y-142493147D01*
X228167149Y-142495729D01*
X227977770Y-142499035D01*
X227922480Y-142505395D01*
X227252812Y-142505395D01*
X227262477Y-142473154D01*
X229460425Y-142473154D01*
X229468967Y-142474146D01*
X229472601Y-142474707D01*
X229502093Y-142480396D01*
X229505674Y-142481227D01*
X229524062Y-142486228D01*
X229538499Y-142471792D01*
X229460425Y-142473154D01*
X227262477Y-142473154D01*
X227262916Y-142471690D01*
X227266505Y-142462914D01*
X227275079Y-142446660D01*
X232672071Y-142446660D01*
X232920973Y-142695562D01*
X233137926Y-142478609D01*
X233106542Y-142453800D01*
X233063123Y-142431591D01*
X233016206Y-142418266D01*
X232943134Y-142412364D01*
X232702161Y-142416570D01*
X232672071Y-142446660D01*
X227275079Y-142446660D01*
X227329856Y-142342821D01*
X227335073Y-142334901D01*
X227420400Y-142229296D01*
X227427046Y-142222532D01*
X227531153Y-142135370D01*
X227538984Y-142130014D01*
X227657940Y-142064583D01*
X227666656Y-142060838D01*
X227796009Y-142019587D01*
X227805284Y-142017595D01*
X227942539Y-142001805D01*
X227947261Y-142001492D01*
X227989061Y-142000763D01*
X227989061Y-142000762D01*
X227998581Y-142000596D01*
X227998581Y-142000595D01*
X232938852Y-141914363D01*
X232956480Y-141914056D01*
X232961247Y-141914207D01*
G37*
%TD.AperFunction*%
%TD*%
M02*
