%TF.GenerationSoftware,KiCad,Pcbnew,9.0.3*%
%TF.CreationDate,2025-07-10T21:13:07-07:00*%
%TF.ProjectId,PGS_Trigger_Board,5047535f-5472-4696-9767-65725f426f61,rev?*%
%TF.SameCoordinates,Original*%
%TF.FileFunction,Copper,L2,Bot*%
%TF.FilePolarity,Positive*%
%FSLAX46Y46*%
G04 Gerber Fmt 4.6, Leading zero omitted, Abs format (unit mm)*
G04 Created by KiCad (PCBNEW 9.0.3) date 2025-07-10 21:13:07*
%MOMM*%
%LPD*%
G01*
G04 APERTURE LIST*
%TA.AperFunction,ComponentPad*%
%ADD10C,1.750000*%
%TD*%
G04 APERTURE END LIST*
D10*
%TO.P,SW2,1,1*%
%TO.N,Net-(J1-Pin_3)*%
X227415265Y-148765000D03*
%TO.P,SW2,2,2*%
%TO.N,Net-(J1-Pin_4)*%
X227415265Y-143765000D03*
%TD*%
%TO.P,SW1,1,1*%
%TO.N,Net-(J1-Pin_2)*%
X227415265Y-158115000D03*
%TO.P,SW1,2,2*%
%TO.N,Net-(J1-Pin_1)*%
X227415265Y-163115000D03*
%TD*%
%TA.AperFunction,NonConductor*%
G36*
X226749843Y-142710185D02*
G01*
X226795598Y-142762989D01*
X226805542Y-142832147D01*
X226776517Y-142895703D01*
X226755689Y-142914819D01*
X226714623Y-142944654D01*
X226594917Y-143064360D01*
X226594913Y-143064365D01*
X226495417Y-143201311D01*
X226418561Y-143352146D01*
X226366246Y-143513152D01*
X226339765Y-143680350D01*
X226339765Y-143849649D01*
X226366246Y-144016847D01*
X226418561Y-144177853D01*
X226495417Y-144328688D01*
X226594913Y-144465634D01*
X226594917Y-144465639D01*
X226714625Y-144585347D01*
X226714630Y-144585351D01*
X226834082Y-144672137D01*
X226851580Y-144684850D01*
X226947690Y-144733820D01*
X227002411Y-144761703D01*
X227002413Y-144761703D01*
X227002416Y-144761705D01*
X227088715Y-144789745D01*
X227163417Y-144814018D01*
X227330616Y-144840500D01*
X227330621Y-144840500D01*
X227499914Y-144840500D01*
X227667112Y-144814018D01*
X227828114Y-144761705D01*
X227978950Y-144684850D01*
X228115906Y-144585346D01*
X228235611Y-144465641D01*
X228335115Y-144328685D01*
X228411970Y-144177849D01*
X228464283Y-144016847D01*
X228490765Y-143849649D01*
X228490765Y-143680350D01*
X228464283Y-143513152D01*
X228411968Y-143352146D01*
X228384085Y-143297425D01*
X228335115Y-143201315D01*
X228301218Y-143154659D01*
X228235616Y-143064365D01*
X228235612Y-143064360D01*
X228115906Y-142944654D01*
X228095812Y-142930055D01*
X228074840Y-142914818D01*
X228032175Y-142859489D01*
X228026196Y-142789876D01*
X228058801Y-142728080D01*
X228119640Y-142693723D01*
X228147726Y-142690500D01*
X230996102Y-142690500D01*
X230996107Y-142690502D01*
X231033324Y-142690500D01*
X231047190Y-142691278D01*
X231137546Y-142701455D01*
X231164615Y-142707633D01*
X231214509Y-142725089D01*
X231239069Y-142733682D01*
X231243820Y-142735344D01*
X231268838Y-142747390D01*
X231293665Y-142762989D01*
X231339895Y-142792036D01*
X231361604Y-142809348D01*
X231420938Y-142868679D01*
X231438251Y-142890388D01*
X231482896Y-142961437D01*
X231494945Y-142986455D01*
X231522661Y-143065660D01*
X231528840Y-143092732D01*
X231538985Y-143182766D01*
X231539765Y-143196650D01*
X231539765Y-148840172D01*
X231539765Y-148939828D01*
X231577901Y-149031897D01*
X231648368Y-149102364D01*
X231740437Y-149140500D01*
X235833553Y-149140500D01*
X235847440Y-149141280D01*
X235859980Y-149142693D01*
X235937787Y-149151462D01*
X235964850Y-149157641D01*
X236044052Y-149185357D01*
X236069062Y-149197402D01*
X236140117Y-149242051D01*
X236161823Y-149259363D01*
X236221149Y-149318693D01*
X236238460Y-149340400D01*
X236283103Y-149411451D01*
X236295150Y-149436468D01*
X236322863Y-149515669D01*
X236329041Y-149542739D01*
X236339250Y-149633346D01*
X236340030Y-149647230D01*
X236340030Y-157233038D01*
X236339250Y-157246922D01*
X236329070Y-157337268D01*
X236322892Y-157364338D01*
X236295176Y-157443547D01*
X236283129Y-157468563D01*
X236238487Y-157539613D01*
X236221175Y-157561323D01*
X236161838Y-157620662D01*
X236140131Y-157637973D01*
X236069080Y-157682621D01*
X236044062Y-157694670D01*
X235964861Y-157722386D01*
X235937792Y-157728566D01*
X235857235Y-157737645D01*
X235847705Y-157738720D01*
X235833818Y-157739500D01*
X231740435Y-157739500D01*
X231648367Y-157777636D01*
X231577901Y-157848102D01*
X231539765Y-157940170D01*
X231539765Y-163683038D01*
X231538985Y-163696922D01*
X231528806Y-163787260D01*
X231522627Y-163814332D01*
X231494914Y-163893529D01*
X231482865Y-163918547D01*
X231438226Y-163989586D01*
X231420913Y-164011295D01*
X231361579Y-164070626D01*
X231339869Y-164087938D01*
X231268824Y-164132576D01*
X231243805Y-164144624D01*
X231164610Y-164172332D01*
X231137538Y-164178510D01*
X231046887Y-164188720D01*
X231033004Y-164189499D01*
X230984296Y-164189497D01*
X230984264Y-164189500D01*
X228147726Y-164189500D01*
X228080687Y-164169815D01*
X228034932Y-164117011D01*
X228024988Y-164047853D01*
X228054013Y-163984297D01*
X228074841Y-163965181D01*
X228115906Y-163935346D01*
X228235611Y-163815641D01*
X228335115Y-163678685D01*
X228411970Y-163527849D01*
X228464283Y-163366847D01*
X228490765Y-163199649D01*
X228490765Y-163030350D01*
X228464283Y-162863152D01*
X228411968Y-162702146D01*
X228384085Y-162647425D01*
X228335115Y-162551315D01*
X228322402Y-162533817D01*
X228235616Y-162414365D01*
X228235612Y-162414360D01*
X228115904Y-162294652D01*
X228115899Y-162294648D01*
X227978953Y-162195152D01*
X227978952Y-162195151D01*
X227978950Y-162195150D01*
X227931847Y-162171150D01*
X227828118Y-162118296D01*
X227667112Y-162065981D01*
X227499914Y-162039500D01*
X227499909Y-162039500D01*
X227330621Y-162039500D01*
X227330616Y-162039500D01*
X227163417Y-162065981D01*
X227002411Y-162118296D01*
X226851576Y-162195152D01*
X226714630Y-162294648D01*
X226714625Y-162294652D01*
X226594917Y-162414360D01*
X226594913Y-162414365D01*
X226495417Y-162551311D01*
X226418561Y-162702146D01*
X226366246Y-162863152D01*
X226339765Y-163030350D01*
X226339765Y-163199649D01*
X226366246Y-163366847D01*
X226418561Y-163527853D01*
X226471415Y-163631582D01*
X226478674Y-163645830D01*
X226495417Y-163678688D01*
X226594913Y-163815634D01*
X226594917Y-163815639D01*
X226594919Y-163815641D01*
X226714624Y-163935346D01*
X226734705Y-163949936D01*
X226755689Y-163965181D01*
X226798355Y-164020511D01*
X226804334Y-164090124D01*
X226771729Y-164151920D01*
X226710890Y-164186277D01*
X226682804Y-164189500D01*
X223797246Y-164189500D01*
X223783357Y-164188720D01*
X223761683Y-164186277D01*
X223693011Y-164178536D01*
X223665942Y-164172356D01*
X223586746Y-164144641D01*
X223561730Y-164132593D01*
X223490684Y-164087949D01*
X223468976Y-164070636D01*
X223409650Y-164011307D01*
X223392339Y-163989599D01*
X223347695Y-163918547D01*
X223335649Y-163893535D01*
X223307935Y-163814327D01*
X223301758Y-163787260D01*
X223291545Y-163696607D01*
X223290765Y-163682725D01*
X223290765Y-158030350D01*
X226339765Y-158030350D01*
X226339765Y-158199649D01*
X226366246Y-158366847D01*
X226418561Y-158527853D01*
X226495417Y-158678688D01*
X226594913Y-158815634D01*
X226594917Y-158815639D01*
X226714625Y-158935347D01*
X226714630Y-158935351D01*
X226834082Y-159022137D01*
X226851580Y-159034850D01*
X226947690Y-159083820D01*
X227002411Y-159111703D01*
X227002413Y-159111703D01*
X227002416Y-159111705D01*
X227088715Y-159139745D01*
X227163417Y-159164018D01*
X227330616Y-159190500D01*
X227330621Y-159190500D01*
X227499914Y-159190500D01*
X227667112Y-159164018D01*
X227828114Y-159111705D01*
X227978950Y-159034850D01*
X228115906Y-158935346D01*
X228235611Y-158815641D01*
X228335115Y-158678685D01*
X228411970Y-158527849D01*
X228464283Y-158366847D01*
X228490765Y-158199649D01*
X228490765Y-158030350D01*
X228464283Y-157863152D01*
X228420553Y-157728566D01*
X228411970Y-157702151D01*
X228411968Y-157702148D01*
X228411968Y-157702146D01*
X228384085Y-157647425D01*
X228335115Y-157551315D01*
X228297788Y-157499939D01*
X228235616Y-157414365D01*
X228235612Y-157414360D01*
X228115904Y-157294652D01*
X228115899Y-157294648D01*
X227978953Y-157195152D01*
X227978952Y-157195151D01*
X227978950Y-157195150D01*
X227931847Y-157171150D01*
X227828118Y-157118296D01*
X227667112Y-157065981D01*
X227499914Y-157039500D01*
X227499909Y-157039500D01*
X227330621Y-157039500D01*
X227330616Y-157039500D01*
X227163417Y-157065981D01*
X227002411Y-157118296D01*
X226851576Y-157195152D01*
X226714630Y-157294648D01*
X226714625Y-157294652D01*
X226594917Y-157414360D01*
X226594913Y-157414365D01*
X226495417Y-157551311D01*
X226418561Y-157702146D01*
X226366246Y-157863152D01*
X226339765Y-158030350D01*
X223290765Y-158030350D01*
X223290765Y-156390173D01*
X223290764Y-156390170D01*
X223252629Y-156298103D01*
X223182162Y-156227636D01*
X223090094Y-156189500D01*
X223090093Y-156189500D01*
X218336962Y-156189500D01*
X218323078Y-156188720D01*
X218310553Y-156187308D01*
X218232735Y-156178540D01*
X218205666Y-156172362D01*
X218126462Y-156144648D01*
X218101444Y-156132600D01*
X218030395Y-156087957D01*
X218008686Y-156070644D01*
X217949355Y-156011313D01*
X217932042Y-155989604D01*
X217907118Y-155949938D01*
X217887398Y-155918553D01*
X217875351Y-155893537D01*
X217847637Y-155814333D01*
X217841459Y-155787263D01*
X217831280Y-155696922D01*
X217830500Y-155683038D01*
X217830500Y-153319941D01*
X218554500Y-153319941D01*
X218554500Y-153560058D01*
X218592063Y-153797222D01*
X218666265Y-154025593D01*
X218728542Y-154147816D01*
X218775276Y-154239536D01*
X218916414Y-154433796D01*
X219086204Y-154603586D01*
X219280464Y-154744724D01*
X219305040Y-154757246D01*
X219494406Y-154853734D01*
X219494408Y-154853734D01*
X219494411Y-154853736D01*
X219722778Y-154927937D01*
X219959941Y-154965500D01*
X219959942Y-154965500D01*
X220200058Y-154965500D01*
X220200059Y-154965500D01*
X220437222Y-154927937D01*
X220665589Y-154853736D01*
X220879536Y-154744724D01*
X221073796Y-154603586D01*
X221243586Y-154433796D01*
X221384724Y-154239536D01*
X221493736Y-154025589D01*
X221567937Y-153797222D01*
X221605500Y-153560059D01*
X221605500Y-153333713D01*
X226064765Y-153333713D01*
X226064765Y-153356734D01*
X226064765Y-153546287D01*
X226098019Y-153756243D01*
X226152184Y-153922946D01*
X226163709Y-153958414D01*
X226260216Y-154147820D01*
X226385155Y-154319786D01*
X226535478Y-154470109D01*
X226707444Y-154595048D01*
X226707446Y-154595049D01*
X226707449Y-154595051D01*
X226896853Y-154691557D01*
X227099022Y-154757246D01*
X227308978Y-154790500D01*
X227308979Y-154790500D01*
X227521551Y-154790500D01*
X227521552Y-154790500D01*
X227731508Y-154757246D01*
X227933677Y-154691557D01*
X228123081Y-154595051D01*
X228145054Y-154579086D01*
X228295051Y-154470109D01*
X228295053Y-154470106D01*
X228295057Y-154470104D01*
X228445369Y-154319792D01*
X228445371Y-154319788D01*
X228445374Y-154319786D01*
X228570313Y-154147820D01*
X228570312Y-154147820D01*
X228570316Y-154147816D01*
X228666822Y-153958412D01*
X228732511Y-153756243D01*
X228765765Y-153546287D01*
X228765765Y-153333713D01*
X228732511Y-153123757D01*
X228666822Y-152921588D01*
X228570316Y-152732184D01*
X228570314Y-152732181D01*
X228570313Y-152732179D01*
X228445374Y-152560213D01*
X228295051Y-152409890D01*
X228123085Y-152284951D01*
X227933679Y-152188444D01*
X227933678Y-152188443D01*
X227933677Y-152188443D01*
X227731508Y-152122754D01*
X227731506Y-152122753D01*
X227731505Y-152122753D01*
X227570222Y-152097208D01*
X227521552Y-152089500D01*
X227308978Y-152089500D01*
X227260307Y-152097208D01*
X227099025Y-152122753D01*
X226896850Y-152188444D01*
X226707444Y-152284951D01*
X226535478Y-152409890D01*
X226385155Y-152560213D01*
X226260216Y-152732179D01*
X226163709Y-152921585D01*
X226098018Y-153123760D01*
X226095034Y-153142603D01*
X226064765Y-153333713D01*
X221605500Y-153333713D01*
X221605500Y-153319941D01*
X221567937Y-153082778D01*
X221493736Y-152854411D01*
X221493734Y-152854408D01*
X221493734Y-152854406D01*
X221431455Y-152732179D01*
X221384724Y-152640464D01*
X221243586Y-152446204D01*
X221073796Y-152276414D01*
X220879536Y-152135276D01*
X220665593Y-152026265D01*
X220437222Y-151952063D01*
X220200059Y-151914500D01*
X219959941Y-151914500D01*
X219841359Y-151933281D01*
X219722777Y-151952063D01*
X219494406Y-152026265D01*
X219280463Y-152135276D01*
X219086201Y-152276416D01*
X218916416Y-152446201D01*
X218775276Y-152640463D01*
X218666265Y-152854406D01*
X218592063Y-153082777D01*
X218554500Y-153319941D01*
X217830500Y-153319941D01*
X217830500Y-151196961D01*
X217831280Y-151183077D01*
X217836114Y-151140172D01*
X217841459Y-151092731D01*
X217847635Y-151065670D01*
X217875353Y-150986456D01*
X217887396Y-150961450D01*
X217932046Y-150890389D01*
X217949351Y-150868690D01*
X218008690Y-150809351D01*
X218030389Y-150792046D01*
X218101450Y-150747396D01*
X218126456Y-150735353D01*
X218205670Y-150707635D01*
X218232733Y-150701459D01*
X218295419Y-150694396D01*
X218323079Y-150691280D01*
X218336962Y-150690500D01*
X223090091Y-150690500D01*
X223090093Y-150690500D01*
X223182162Y-150652364D01*
X223252629Y-150581897D01*
X223290765Y-150489828D01*
X223290765Y-148680350D01*
X226339765Y-148680350D01*
X226339765Y-148849649D01*
X226366246Y-149016847D01*
X226418561Y-149177853D01*
X226471415Y-149281582D01*
X226495358Y-149328574D01*
X226495417Y-149328688D01*
X226594913Y-149465634D01*
X226594917Y-149465639D01*
X226714625Y-149585347D01*
X226714630Y-149585351D01*
X226789849Y-149640000D01*
X226851580Y-149684850D01*
X226947690Y-149733820D01*
X227002411Y-149761703D01*
X227002413Y-149761703D01*
X227002416Y-149761705D01*
X227088715Y-149789745D01*
X227163417Y-149814018D01*
X227330616Y-149840500D01*
X227330621Y-149840500D01*
X227499914Y-149840500D01*
X227667112Y-149814018D01*
X227828114Y-149761705D01*
X227978950Y-149684850D01*
X228115906Y-149585346D01*
X228235611Y-149465641D01*
X228335115Y-149328685D01*
X228411970Y-149177849D01*
X228464283Y-149016847D01*
X228490765Y-148849649D01*
X228490765Y-148680350D01*
X228464283Y-148513152D01*
X228411968Y-148352146D01*
X228384085Y-148297425D01*
X228335115Y-148201315D01*
X228322402Y-148183817D01*
X228235616Y-148064365D01*
X228235612Y-148064360D01*
X228115904Y-147944652D01*
X228115899Y-147944648D01*
X227978953Y-147845152D01*
X227978952Y-147845151D01*
X227978950Y-147845150D01*
X227931847Y-147821150D01*
X227828118Y-147768296D01*
X227667112Y-147715981D01*
X227499914Y-147689500D01*
X227499909Y-147689500D01*
X227330621Y-147689500D01*
X227330616Y-147689500D01*
X227163417Y-147715981D01*
X227002411Y-147768296D01*
X226851576Y-147845152D01*
X226714630Y-147944648D01*
X226714625Y-147944652D01*
X226594917Y-148064360D01*
X226594913Y-148064365D01*
X226495417Y-148201311D01*
X226418561Y-148352146D01*
X226366246Y-148513152D01*
X226339765Y-148680350D01*
X223290765Y-148680350D01*
X223290765Y-143169317D01*
X223291633Y-143154674D01*
X223304391Y-143047507D01*
X223309653Y-143023667D01*
X223321254Y-142988175D01*
X223331091Y-142965829D01*
X223376557Y-142885181D01*
X223390783Y-142864967D01*
X223416818Y-142834868D01*
X223434773Y-142817880D01*
X223508853Y-142760644D01*
X223528972Y-142747981D01*
X223557432Y-142733679D01*
X223579602Y-142725091D01*
X223670399Y-142699614D01*
X223694293Y-142695376D01*
X223752294Y-142690872D01*
X223761895Y-142690500D01*
X226682804Y-142690500D01*
X226749843Y-142710185D01*
G37*
%TD.AperFunction*%
M02*
