%TF.GenerationSoftware,KiCad,Pcbnew,8.0.2*%
%TF.CreationDate,2025-05-18T13:53:18-07:00*%
%TF.ProjectId,PGS_Trigger_Board,5047535f-5472-4696-9767-65725f426f61,rev?*%
%TF.SameCoordinates,Original*%
%TF.FileFunction,Copper,L2,Bot*%
%TF.FilePolarity,Positive*%
%FSLAX46Y46*%
G04 Gerber Fmt 4.6, Leading zero omitted, Abs format (unit mm)*
G04 Created by KiCad (PCBNEW 8.0.2) date 2025-05-18 13:53:18*
%MOMM*%
%LPD*%
G01*
G04 APERTURE LIST*
%TA.AperFunction,ComponentPad*%
%ADD10C,1.750000*%
%TD*%
G04 APERTURE END LIST*
D10*
%TO.P,SW2,1,1*%
%TO.N,Net-(J1-Pin_3)*%
X227415265Y-148765000D03*
%TO.P,SW2,2,2*%
%TO.N,Net-(J1-Pin_4)*%
X227415265Y-143765000D03*
%TD*%
%TO.P,SW1,1,1*%
%TO.N,Net-(J1-Pin_2)*%
X227415265Y-158115000D03*
%TO.P,SW1,2,2*%
%TO.N,Net-(J1-Pin_1)*%
X227415265Y-163115000D03*
%TD*%
%TA.AperFunction,NonConductor*%
G36*
X226744475Y-142710185D02*
G01*
X226790230Y-142762989D01*
X226800174Y-142832147D01*
X226771149Y-142895703D01*
X226760974Y-142906137D01*
X226617057Y-143037333D01*
X226496940Y-143196393D01*
X226496935Y-143196401D01*
X226408095Y-143374816D01*
X226353547Y-143566535D01*
X226335157Y-143764999D01*
X226335157Y-143765000D01*
X226353547Y-143963464D01*
X226408095Y-144155183D01*
X226496935Y-144333598D01*
X226496940Y-144333606D01*
X226617057Y-144492666D01*
X226743773Y-144608182D01*
X226764355Y-144626945D01*
X226933819Y-144731873D01*
X227119679Y-144803876D01*
X227315605Y-144840500D01*
X227315607Y-144840500D01*
X227514923Y-144840500D01*
X227514925Y-144840500D01*
X227710851Y-144803876D01*
X227896711Y-144731873D01*
X228066175Y-144626945D01*
X228213474Y-144492664D01*
X228333591Y-144333604D01*
X228422436Y-144155180D01*
X228476982Y-143963469D01*
X228495373Y-143765000D01*
X228476982Y-143566531D01*
X228422436Y-143374820D01*
X228421024Y-143371984D01*
X228333594Y-143196401D01*
X228333589Y-143196393D01*
X228213472Y-143037333D01*
X228069556Y-142906137D01*
X228033274Y-142846426D01*
X228035035Y-142776578D01*
X228074278Y-142718771D01*
X228138545Y-142691356D01*
X228153094Y-142690500D01*
X230984264Y-142690500D01*
X230984296Y-142690502D01*
X230996105Y-142690501D01*
X230996107Y-142690502D01*
X231033315Y-142690500D01*
X231047190Y-142691278D01*
X231137546Y-142701455D01*
X231164615Y-142707633D01*
X231243820Y-142735344D01*
X231268838Y-142747390D01*
X231289399Y-142760309D01*
X231339895Y-142792036D01*
X231361604Y-142809348D01*
X231420938Y-142868679D01*
X231438251Y-142890388D01*
X231482896Y-142961437D01*
X231494945Y-142986455D01*
X231522661Y-143065660D01*
X231528840Y-143092732D01*
X231538985Y-143182766D01*
X231539765Y-143196650D01*
X231539765Y-148840172D01*
X231539765Y-148939828D01*
X231577901Y-149031897D01*
X231648368Y-149102364D01*
X231740437Y-149140500D01*
X235833553Y-149140500D01*
X235847440Y-149141280D01*
X235859980Y-149142693D01*
X235937787Y-149151462D01*
X235964850Y-149157641D01*
X236044052Y-149185357D01*
X236069062Y-149197402D01*
X236140117Y-149242051D01*
X236161823Y-149259363D01*
X236221149Y-149318693D01*
X236238460Y-149340400D01*
X236283103Y-149411451D01*
X236295150Y-149436468D01*
X236322863Y-149515669D01*
X236329041Y-149542739D01*
X236339250Y-149633346D01*
X236340030Y-149647230D01*
X236340030Y-157233038D01*
X236339250Y-157246922D01*
X236329070Y-157337268D01*
X236322892Y-157364338D01*
X236295176Y-157443547D01*
X236283129Y-157468563D01*
X236238487Y-157539613D01*
X236221175Y-157561323D01*
X236161838Y-157620662D01*
X236140131Y-157637973D01*
X236069080Y-157682621D01*
X236044062Y-157694670D01*
X235964861Y-157722386D01*
X235937792Y-157728566D01*
X235857235Y-157737645D01*
X235847705Y-157738720D01*
X235833818Y-157739500D01*
X231740435Y-157739500D01*
X231648367Y-157777636D01*
X231577901Y-157848102D01*
X231539765Y-157940170D01*
X231539765Y-163683038D01*
X231538985Y-163696922D01*
X231528806Y-163787260D01*
X231522627Y-163814332D01*
X231494914Y-163893529D01*
X231482865Y-163918547D01*
X231438226Y-163989586D01*
X231420913Y-164011295D01*
X231361579Y-164070626D01*
X231339869Y-164087938D01*
X231268824Y-164132576D01*
X231243805Y-164144624D01*
X231164610Y-164172332D01*
X231137538Y-164178510D01*
X231046887Y-164188720D01*
X231033004Y-164189499D01*
X230984296Y-164189497D01*
X230984264Y-164189500D01*
X228153094Y-164189500D01*
X228086055Y-164169815D01*
X228040300Y-164117011D01*
X228030356Y-164047853D01*
X228059381Y-163984297D01*
X228069556Y-163973863D01*
X228213472Y-163842666D01*
X228244828Y-163801145D01*
X228333591Y-163683604D01*
X228422436Y-163505180D01*
X228476982Y-163313469D01*
X228495373Y-163115000D01*
X228476982Y-162916531D01*
X228422436Y-162724820D01*
X228421024Y-162721984D01*
X228333594Y-162546401D01*
X228333589Y-162546393D01*
X228213472Y-162387333D01*
X228066176Y-162253056D01*
X228066175Y-162253055D01*
X228001640Y-162213096D01*
X227896712Y-162148127D01*
X227896710Y-162148126D01*
X227814644Y-162116334D01*
X227710851Y-162076124D01*
X227710847Y-162076123D01*
X227631904Y-162061366D01*
X227514925Y-162039500D01*
X227315605Y-162039500D01*
X227225519Y-162056339D01*
X227119682Y-162076123D01*
X227119680Y-162076123D01*
X227119679Y-162076124D01*
X227067782Y-162096229D01*
X226933819Y-162148126D01*
X226933817Y-162148127D01*
X226764353Y-162253056D01*
X226617057Y-162387333D01*
X226496940Y-162546393D01*
X226496935Y-162546401D01*
X226408095Y-162724816D01*
X226353547Y-162916535D01*
X226335157Y-163114999D01*
X226335157Y-163115000D01*
X226353547Y-163313464D01*
X226408095Y-163505183D01*
X226496935Y-163683598D01*
X226496940Y-163683606D01*
X226617057Y-163842666D01*
X226760974Y-163973863D01*
X226797256Y-164033574D01*
X226795495Y-164103422D01*
X226756252Y-164161229D01*
X226691985Y-164188644D01*
X226677436Y-164189500D01*
X223797246Y-164189500D01*
X223783357Y-164188720D01*
X223767039Y-164186880D01*
X223693011Y-164178536D01*
X223665942Y-164172356D01*
X223586746Y-164144641D01*
X223561730Y-164132593D01*
X223490684Y-164087949D01*
X223468976Y-164070636D01*
X223409650Y-164011307D01*
X223392339Y-163989599D01*
X223347695Y-163918547D01*
X223335649Y-163893535D01*
X223307935Y-163814327D01*
X223301758Y-163787260D01*
X223291545Y-163696607D01*
X223290765Y-163682725D01*
X223290765Y-158114999D01*
X226335157Y-158114999D01*
X226335157Y-158115000D01*
X226353547Y-158313464D01*
X226408095Y-158505183D01*
X226496935Y-158683598D01*
X226496940Y-158683606D01*
X226617057Y-158842666D01*
X226743773Y-158958182D01*
X226764355Y-158976945D01*
X226933819Y-159081873D01*
X227119679Y-159153876D01*
X227315605Y-159190500D01*
X227315607Y-159190500D01*
X227514923Y-159190500D01*
X227514925Y-159190500D01*
X227710851Y-159153876D01*
X227896711Y-159081873D01*
X228066175Y-158976945D01*
X228213474Y-158842664D01*
X228333591Y-158683604D01*
X228422436Y-158505180D01*
X228476982Y-158313469D01*
X228495373Y-158115000D01*
X228476982Y-157916531D01*
X228422436Y-157724820D01*
X228379191Y-157637973D01*
X228333594Y-157546401D01*
X228333589Y-157546393D01*
X228213472Y-157387333D01*
X228066176Y-157253056D01*
X228066175Y-157253055D01*
X227973754Y-157195830D01*
X227896712Y-157148127D01*
X227896710Y-157148126D01*
X227814644Y-157116334D01*
X227710851Y-157076124D01*
X227710847Y-157076123D01*
X227631904Y-157061366D01*
X227514925Y-157039500D01*
X227315605Y-157039500D01*
X227225519Y-157056339D01*
X227119682Y-157076123D01*
X227119680Y-157076123D01*
X227119679Y-157076124D01*
X227067782Y-157096229D01*
X226933819Y-157148126D01*
X226933817Y-157148127D01*
X226764353Y-157253056D01*
X226617057Y-157387333D01*
X226496940Y-157546393D01*
X226496935Y-157546401D01*
X226408095Y-157724816D01*
X226353547Y-157916535D01*
X226335157Y-158114999D01*
X223290765Y-158114999D01*
X223290765Y-156390173D01*
X223290764Y-156390170D01*
X223252629Y-156298103D01*
X223182162Y-156227636D01*
X223090094Y-156189500D01*
X223090093Y-156189500D01*
X218336962Y-156189500D01*
X218323078Y-156188720D01*
X218310553Y-156187308D01*
X218232735Y-156178540D01*
X218205666Y-156172362D01*
X218126462Y-156144648D01*
X218101444Y-156132600D01*
X218030395Y-156087957D01*
X218008686Y-156070644D01*
X217949355Y-156011313D01*
X217932042Y-155989604D01*
X217907118Y-155949938D01*
X217887398Y-155918553D01*
X217875351Y-155893537D01*
X217847637Y-155814333D01*
X217841459Y-155787263D01*
X217831280Y-155696922D01*
X217830500Y-155683038D01*
X217830500Y-153440000D01*
X218549783Y-153440000D01*
X218568623Y-153679382D01*
X218624674Y-153912853D01*
X218624678Y-153912865D01*
X218716565Y-154134702D01*
X218824846Y-154311401D01*
X218842028Y-154339439D01*
X218997973Y-154522027D01*
X219180561Y-154677972D01*
X219239199Y-154713905D01*
X219385297Y-154803434D01*
X219482047Y-154843508D01*
X219607137Y-154895323D01*
X219840621Y-154951377D01*
X220080000Y-154970217D01*
X220319379Y-154951377D01*
X220552863Y-154895323D01*
X220774704Y-154803433D01*
X220979439Y-154677972D01*
X221162027Y-154522027D01*
X221317972Y-154339439D01*
X221443433Y-154134704D01*
X221450423Y-154117830D01*
X221495426Y-154009182D01*
X221535323Y-153912863D01*
X221591377Y-153679379D01*
X221610217Y-153440000D01*
X221610217Y-153439999D01*
X226059606Y-153439999D01*
X226059606Y-153440000D01*
X226080201Y-153675403D01*
X226080203Y-153675413D01*
X226141359Y-153903655D01*
X226141361Y-153903659D01*
X226141362Y-153903663D01*
X226219534Y-154071302D01*
X226241230Y-154117830D01*
X226241232Y-154117834D01*
X226253045Y-154134704D01*
X226376770Y-154311401D01*
X226543864Y-154478495D01*
X226606033Y-154522026D01*
X226737430Y-154614032D01*
X226737432Y-154614033D01*
X226737435Y-154614035D01*
X226951602Y-154713903D01*
X227179857Y-154775063D01*
X227368183Y-154791539D01*
X227415264Y-154795659D01*
X227415265Y-154795659D01*
X227415266Y-154795659D01*
X227454499Y-154792226D01*
X227650673Y-154775063D01*
X227878928Y-154713903D01*
X228093095Y-154614035D01*
X228286666Y-154478495D01*
X228453760Y-154311401D01*
X228589300Y-154117830D01*
X228689168Y-153903663D01*
X228750328Y-153675408D01*
X228770924Y-153440000D01*
X228750328Y-153204592D01*
X228689168Y-152976337D01*
X228589300Y-152762171D01*
X228548787Y-152704311D01*
X228453759Y-152568597D01*
X228286667Y-152401506D01*
X228286660Y-152401501D01*
X228093099Y-152265967D01*
X228093095Y-152265965D01*
X228093093Y-152265964D01*
X227878928Y-152166097D01*
X227878924Y-152166096D01*
X227878920Y-152166094D01*
X227650678Y-152104938D01*
X227650668Y-152104936D01*
X227415266Y-152084341D01*
X227415264Y-152084341D01*
X227179861Y-152104936D01*
X227179851Y-152104938D01*
X226951609Y-152166094D01*
X226951600Y-152166098D01*
X226737436Y-152265964D01*
X226737434Y-152265965D01*
X226543862Y-152401505D01*
X226376770Y-152568597D01*
X226241230Y-152762169D01*
X226241229Y-152762171D01*
X226141363Y-152976335D01*
X226141359Y-152976344D01*
X226080203Y-153204586D01*
X226080201Y-153204596D01*
X226059606Y-153439999D01*
X221610217Y-153439999D01*
X221591377Y-153200621D01*
X221535323Y-152967137D01*
X221450423Y-152762171D01*
X221443434Y-152745297D01*
X221347140Y-152588159D01*
X221317972Y-152540561D01*
X221162027Y-152357973D01*
X220979439Y-152202028D01*
X220979436Y-152202026D01*
X220774702Y-152076565D01*
X220552865Y-151984678D01*
X220552867Y-151984678D01*
X220552863Y-151984677D01*
X220552859Y-151984676D01*
X220552853Y-151984674D01*
X220319382Y-151928623D01*
X220080000Y-151909783D01*
X219840617Y-151928623D01*
X219607146Y-151984674D01*
X219607134Y-151984678D01*
X219385297Y-152076565D01*
X219180563Y-152202026D01*
X218997973Y-152357973D01*
X218842026Y-152540563D01*
X218716565Y-152745297D01*
X218624678Y-152967134D01*
X218624674Y-152967146D01*
X218568623Y-153200617D01*
X218549783Y-153440000D01*
X217830500Y-153440000D01*
X217830500Y-151196961D01*
X217831280Y-151183077D01*
X217836114Y-151140172D01*
X217841459Y-151092731D01*
X217847635Y-151065670D01*
X217875353Y-150986456D01*
X217887396Y-150961450D01*
X217932046Y-150890389D01*
X217949351Y-150868690D01*
X218008690Y-150809351D01*
X218030389Y-150792046D01*
X218101450Y-150747396D01*
X218126456Y-150735353D01*
X218205670Y-150707635D01*
X218232733Y-150701459D01*
X218295419Y-150694396D01*
X218323079Y-150691280D01*
X218336962Y-150690500D01*
X223090091Y-150690500D01*
X223090093Y-150690500D01*
X223182162Y-150652364D01*
X223252629Y-150581897D01*
X223290765Y-150489828D01*
X223290765Y-148764999D01*
X226335157Y-148764999D01*
X226335157Y-148765000D01*
X226353547Y-148963464D01*
X226353547Y-148963466D01*
X226353548Y-148963469D01*
X226408094Y-149155180D01*
X226408095Y-149155183D01*
X226496935Y-149333598D01*
X226496940Y-149333606D01*
X226617057Y-149492666D01*
X226723937Y-149590099D01*
X226764355Y-149626945D01*
X226933819Y-149731873D01*
X227119679Y-149803876D01*
X227315605Y-149840500D01*
X227315607Y-149840500D01*
X227514923Y-149840500D01*
X227514925Y-149840500D01*
X227710851Y-149803876D01*
X227896711Y-149731873D01*
X228066175Y-149626945D01*
X228213474Y-149492664D01*
X228333591Y-149333604D01*
X228422436Y-149155180D01*
X228476982Y-148963469D01*
X228495373Y-148765000D01*
X228476982Y-148566531D01*
X228422436Y-148374820D01*
X228421024Y-148371984D01*
X228333594Y-148196401D01*
X228333589Y-148196393D01*
X228213472Y-148037333D01*
X228066176Y-147903056D01*
X228066175Y-147903055D01*
X228001640Y-147863096D01*
X227896712Y-147798127D01*
X227896710Y-147798126D01*
X227814644Y-147766334D01*
X227710851Y-147726124D01*
X227710847Y-147726123D01*
X227631904Y-147711366D01*
X227514925Y-147689500D01*
X227315605Y-147689500D01*
X227225519Y-147706339D01*
X227119682Y-147726123D01*
X227119680Y-147726123D01*
X227119679Y-147726124D01*
X227067782Y-147746229D01*
X226933819Y-147798126D01*
X226933817Y-147798127D01*
X226764353Y-147903056D01*
X226617057Y-148037333D01*
X226496940Y-148196393D01*
X226496935Y-148196401D01*
X226408095Y-148374816D01*
X226353547Y-148566535D01*
X226335157Y-148764999D01*
X223290765Y-148764999D01*
X223290765Y-143149440D01*
X223290774Y-143147929D01*
X223290904Y-143137332D01*
X223290980Y-143134252D01*
X223291284Y-143126064D01*
X223291436Y-143122999D01*
X223291942Y-143114830D01*
X223292168Y-143111789D01*
X223292882Y-143103551D01*
X223293184Y-143100506D01*
X223294090Y-143092387D01*
X223294460Y-143089402D01*
X223295583Y-143081176D01*
X223296029Y-143078195D01*
X223296472Y-143075459D01*
X223297342Y-143070084D01*
X223297858Y-143067134D01*
X223299379Y-143059016D01*
X223299973Y-143056045D01*
X223300607Y-143053066D01*
X223301693Y-143047963D01*
X223302330Y-143045140D01*
X223304278Y-143036984D01*
X223304969Y-143034236D01*
X223307125Y-143026099D01*
X223307914Y-143023268D01*
X223310212Y-143015388D01*
X223311101Y-143012473D01*
X223313604Y-143004614D01*
X223314568Y-143001711D01*
X223317243Y-142993977D01*
X223318250Y-142991176D01*
X223321204Y-142983275D01*
X223322226Y-142980638D01*
X223325358Y-142972853D01*
X223326486Y-142970148D01*
X223329840Y-142962378D01*
X223331099Y-142959558D01*
X223334583Y-142952008D01*
X223335878Y-142949289D01*
X223339621Y-142941684D01*
X223340994Y-142938984D01*
X223342919Y-142935308D01*
X223344865Y-142931590D01*
X223346260Y-142929004D01*
X223350354Y-142921638D01*
X223351845Y-142919032D01*
X223356134Y-142911751D01*
X223357686Y-142909193D01*
X223362113Y-142902088D01*
X223363699Y-142899612D01*
X223368363Y-142892527D01*
X223369982Y-142890132D01*
X223374821Y-142883166D01*
X223376509Y-142880799D01*
X223381491Y-142873995D01*
X223383319Y-142871566D01*
X223388403Y-142864975D01*
X223390278Y-142862603D01*
X223395610Y-142856036D01*
X223397484Y-142853786D01*
X223402982Y-142847349D01*
X223404892Y-142845170D01*
X223410541Y-142838881D01*
X223412626Y-142836619D01*
X223418341Y-142830569D01*
X223420499Y-142828341D01*
X223426420Y-142822379D01*
X223428595Y-142820242D01*
X223434319Y-142814755D01*
X223436477Y-142812735D01*
X223438006Y-142811338D01*
X223442477Y-142807253D01*
X223444532Y-142805420D01*
X223450742Y-142800015D01*
X223452856Y-142798221D01*
X223459134Y-142793015D01*
X223461283Y-142791277D01*
X223467721Y-142786196D01*
X223469886Y-142784528D01*
X223476462Y-142779589D01*
X223478744Y-142777918D01*
X223485362Y-142773192D01*
X223487653Y-142771597D01*
X223494344Y-142767057D01*
X223496765Y-142765457D01*
X223503537Y-142761094D01*
X223505978Y-142759562D01*
X223512874Y-142755351D01*
X223515321Y-142753897D01*
X223522413Y-142749797D01*
X223524807Y-142748451D01*
X223531933Y-142744555D01*
X223534477Y-142743204D01*
X223541631Y-142739515D01*
X223544268Y-142738195D01*
X223545051Y-142737814D01*
X223551509Y-142734676D01*
X223554115Y-142733448D01*
X223561488Y-142730083D01*
X223564113Y-142728923D01*
X223571532Y-142725751D01*
X223574258Y-142724625D01*
X223581974Y-142721544D01*
X223584727Y-142720485D01*
X223592415Y-142717632D01*
X223595242Y-142716624D01*
X223596299Y-142716261D01*
X223603035Y-142713948D01*
X223605786Y-142713041D01*
X223613675Y-142710546D01*
X223616527Y-142709683D01*
X223624479Y-142707382D01*
X223627227Y-142706623D01*
X223635197Y-142704527D01*
X223638050Y-142703814D01*
X223646056Y-142701917D01*
X223648972Y-142701263D01*
X223657007Y-142699565D01*
X223659864Y-142698997D01*
X223667970Y-142697490D01*
X223670817Y-142696996D01*
X223679046Y-142695674D01*
X223681858Y-142695257D01*
X223690061Y-142694144D01*
X223693022Y-142693780D01*
X223697082Y-142693330D01*
X223701133Y-142692882D01*
X223704128Y-142692587D01*
X223712296Y-142691883D01*
X223715273Y-142691664D01*
X223723499Y-142691158D01*
X223726433Y-142691014D01*
X223734652Y-142690711D01*
X223737640Y-142690637D01*
X223746663Y-142690527D01*
X223748163Y-142690509D01*
X223749676Y-142690500D01*
X226677436Y-142690500D01*
X226744475Y-142710185D01*
G37*
%TD.AperFunction*%
M02*
