%TF.GenerationSoftware,KiCad,Pcbnew,8.0.2*%
%TF.CreationDate,2025-05-18T13:53:18-07:00*%
%TF.ProjectId,PGS_Trigger_Board,5047535f-5472-4696-9767-65725f426f61,rev?*%
%TF.SameCoordinates,Original*%
%TF.FileFunction,Soldermask,Bot*%
%TF.FilePolarity,Negative*%
%FSLAX46Y46*%
G04 Gerber Fmt 4.6, Leading zero omitted, Abs format (unit mm)*
G04 Created by KiCad (PCBNEW 8.0.2) date 2025-05-18 13:53:18*
%MOMM*%
%LPD*%
G01*
G04 APERTURE LIST*
%ADD10C,0.100000*%
%ADD11C,1.750000*%
G04 APERTURE END LIST*
D10*
G36*
X233634499Y-156527137D02*
G01*
X234280362Y-156527137D01*
X234280362Y-156287975D01*
X234431707Y-156287975D01*
X234431707Y-156944011D01*
X234280362Y-156944011D01*
X234280362Y-156705887D01*
X233634499Y-156705887D01*
X233634499Y-156527137D01*
G37*
G36*
X233634499Y-156152615D02*
G01*
X233943624Y-156152615D01*
X233989594Y-156148097D01*
X234030859Y-156131117D01*
X234061997Y-156095668D01*
X234075489Y-156050054D01*
X234077531Y-156017671D01*
X234073974Y-155976064D01*
X234072756Y-155968261D01*
X234245692Y-155968261D01*
X234245692Y-155995042D01*
X234243518Y-156042263D01*
X234234066Y-156087245D01*
X234212935Y-156127907D01*
X234181409Y-156158304D01*
X234175728Y-156162165D01*
X234232405Y-156162165D01*
X234232405Y-156320569D01*
X233634499Y-156320569D01*
X233634499Y-156152615D01*
G37*
G36*
X233634499Y-155767090D02*
G01*
X234232405Y-155767090D01*
X234232405Y-155935044D01*
X233634499Y-155935044D01*
X233634499Y-155767090D01*
G37*
G36*
X234287628Y-155767090D02*
G01*
X234444994Y-155767090D01*
X234444994Y-155935044D01*
X234287628Y-155935044D01*
X234287628Y-155767090D01*
G37*
G36*
X234232405Y-155302052D02*
G01*
X234175728Y-155302052D01*
X234206502Y-155330801D01*
X234227871Y-155367321D01*
X234241560Y-155413005D01*
X234245692Y-155459625D01*
X234239897Y-155512395D01*
X234223076Y-155561618D01*
X234196075Y-155606219D01*
X234159743Y-155645122D01*
X234114924Y-155677251D01*
X234076251Y-155696256D01*
X234033637Y-155710393D01*
X233987441Y-155719208D01*
X233938019Y-155722247D01*
X233895510Y-155720381D01*
X233853731Y-155714587D01*
X233800467Y-155700242D01*
X233751628Y-155677697D01*
X233709001Y-155646255D01*
X233674370Y-155605219D01*
X233654719Y-155567729D01*
X233641324Y-155524158D01*
X233634939Y-155474212D01*
X233634499Y-155456096D01*
X233637000Y-155422879D01*
X233769027Y-155422879D01*
X233777614Y-155467442D01*
X233802436Y-155504143D01*
X233842085Y-155530961D01*
X233886804Y-155544549D01*
X233930960Y-155548273D01*
X233980776Y-155545203D01*
X234021580Y-155536000D01*
X234058976Y-155516873D01*
X234087163Y-155483434D01*
X234099329Y-155438041D01*
X234099952Y-155422879D01*
X234094044Y-155379757D01*
X234071761Y-155341051D01*
X234032145Y-155314630D01*
X233983791Y-155301592D01*
X233932961Y-155297396D01*
X233921618Y-155297277D01*
X233880014Y-155301053D01*
X233837878Y-155314791D01*
X233800514Y-155341789D01*
X233777121Y-155378540D01*
X233769027Y-155422879D01*
X233637000Y-155422879D01*
X233637679Y-155413866D01*
X233647900Y-155369929D01*
X233664909Y-155330324D01*
X233690552Y-155302052D01*
X233627440Y-155302052D01*
X233580964Y-155310396D01*
X233544193Y-155333638D01*
X233518247Y-155369092D01*
X233504249Y-155414071D01*
X233502046Y-155443017D01*
X233507765Y-155487979D01*
X233528137Y-155527989D01*
X233562987Y-155554168D01*
X233605128Y-155564336D01*
X233619136Y-155564882D01*
X233619136Y-155722247D01*
X233574159Y-155719032D01*
X233532976Y-155709661D01*
X233484205Y-155688307D01*
X233442750Y-155657727D01*
X233408937Y-155618900D01*
X233383091Y-155572807D01*
X233365539Y-155520429D01*
X233358014Y-155477610D01*
X233355475Y-155432221D01*
X233358061Y-155386680D01*
X233365783Y-155343344D01*
X233378587Y-155302708D01*
X233403474Y-155253589D01*
X233437175Y-155211333D01*
X233479563Y-155177118D01*
X233516980Y-155157441D01*
X233559159Y-155143447D01*
X233606048Y-155135631D01*
X233639896Y-155134098D01*
X234232405Y-155134098D01*
X234232405Y-155302052D01*
G37*
G36*
X234232405Y-154671759D02*
G01*
X234175728Y-154671759D01*
X234206502Y-154700508D01*
X234227871Y-154737028D01*
X234241560Y-154782712D01*
X234245692Y-154829332D01*
X234239897Y-154882102D01*
X234223076Y-154931325D01*
X234196075Y-154975926D01*
X234159743Y-155014829D01*
X234114924Y-155046958D01*
X234076251Y-155065963D01*
X234033637Y-155080100D01*
X233987441Y-155088915D01*
X233938019Y-155091954D01*
X233895510Y-155090088D01*
X233853731Y-155084293D01*
X233800467Y-155069949D01*
X233751628Y-155047404D01*
X233709001Y-155015962D01*
X233674370Y-154974926D01*
X233654719Y-154937436D01*
X233641324Y-154893865D01*
X233634939Y-154843919D01*
X233634499Y-154825803D01*
X233637000Y-154792586D01*
X233769027Y-154792586D01*
X233777614Y-154837149D01*
X233802436Y-154873850D01*
X233842085Y-154900668D01*
X233886804Y-154914256D01*
X233930960Y-154917980D01*
X233980776Y-154914910D01*
X234021580Y-154905707D01*
X234058976Y-154886580D01*
X234087163Y-154853141D01*
X234099329Y-154807747D01*
X234099952Y-154792586D01*
X234094044Y-154749464D01*
X234071761Y-154710758D01*
X234032145Y-154684337D01*
X233983791Y-154671299D01*
X233932961Y-154667103D01*
X233921618Y-154666984D01*
X233880014Y-154670760D01*
X233837878Y-154684498D01*
X233800514Y-154711496D01*
X233777121Y-154748247D01*
X233769027Y-154792586D01*
X233637000Y-154792586D01*
X233637679Y-154783573D01*
X233647900Y-154739636D01*
X233664909Y-154700030D01*
X233690552Y-154671759D01*
X233627440Y-154671759D01*
X233580964Y-154680103D01*
X233544193Y-154703345D01*
X233518247Y-154738799D01*
X233504249Y-154783778D01*
X233502046Y-154812724D01*
X233507765Y-154857686D01*
X233528137Y-154897696D01*
X233562987Y-154923875D01*
X233605128Y-154934043D01*
X233619136Y-154934589D01*
X233619136Y-155091954D01*
X233574159Y-155088739D01*
X233532976Y-155079368D01*
X233484205Y-155058014D01*
X233442750Y-155027434D01*
X233408937Y-154988607D01*
X233383091Y-154942514D01*
X233365539Y-154890136D01*
X233358014Y-154847317D01*
X233355475Y-154801928D01*
X233358061Y-154756387D01*
X233365783Y-154713050D01*
X233378587Y-154672415D01*
X233403474Y-154623296D01*
X233437175Y-154581040D01*
X233479563Y-154546825D01*
X233516980Y-154527148D01*
X233559159Y-154513154D01*
X233606048Y-154505338D01*
X233639896Y-154503805D01*
X234232405Y-154503805D01*
X234232405Y-154671759D01*
G37*
G36*
X233930150Y-153892521D02*
G01*
X233989812Y-153898547D01*
X234043285Y-153909662D01*
X234090548Y-153925790D01*
X234131579Y-153946859D01*
X234166357Y-153972795D01*
X234194860Y-154003522D01*
X234217067Y-154038969D01*
X234232955Y-154079060D01*
X234242504Y-154123722D01*
X234245692Y-154172881D01*
X234242557Y-154222250D01*
X234233353Y-154267487D01*
X234218386Y-154308434D01*
X234197959Y-154344932D01*
X234162753Y-154386404D01*
X234119101Y-154419312D01*
X234081251Y-154438148D01*
X234039359Y-154451797D01*
X233993728Y-154460103D01*
X233944662Y-154462907D01*
X233887610Y-154460234D01*
X233835948Y-154452233D01*
X233789725Y-154438927D01*
X233748989Y-154420341D01*
X233713789Y-154396500D01*
X233675550Y-154356581D01*
X233653454Y-154320574D01*
X233637054Y-154279395D01*
X233626399Y-154233067D01*
X233621537Y-154181616D01*
X233621212Y-154163331D01*
X233624483Y-154117017D01*
X233634223Y-154073635D01*
X233650322Y-154033586D01*
X233672672Y-153997272D01*
X233701162Y-153965093D01*
X233735684Y-153937452D01*
X233776127Y-153914749D01*
X233822382Y-153897387D01*
X233822382Y-154070946D01*
X233785427Y-154091902D01*
X233763498Y-154128308D01*
X233756986Y-154170597D01*
X233764214Y-154214657D01*
X233788693Y-154254303D01*
X233822400Y-154278553D01*
X233865800Y-154292064D01*
X233886948Y-154294330D01*
X233886948Y-154289555D01*
X233997810Y-154289555D01*
X234039222Y-154280415D01*
X234075959Y-154257577D01*
X234101947Y-154219459D01*
X234109710Y-154177656D01*
X234102677Y-154135567D01*
X234078019Y-154096077D01*
X234041300Y-154072551D01*
X233997810Y-154064303D01*
X233997810Y-154289555D01*
X233886948Y-154289555D01*
X233886948Y-153891366D01*
X233930150Y-153892521D01*
G37*
G36*
X233634499Y-153683760D02*
G01*
X233943624Y-153683760D01*
X233989594Y-153679241D01*
X234030859Y-153662262D01*
X234061997Y-153626812D01*
X234075489Y-153581198D01*
X234077531Y-153548816D01*
X234073974Y-153507208D01*
X234072756Y-153499405D01*
X234245692Y-153499405D01*
X234245692Y-153526187D01*
X234243518Y-153573407D01*
X234234066Y-153618390D01*
X234212935Y-153659052D01*
X234181409Y-153689449D01*
X234175728Y-153693310D01*
X234232405Y-153693310D01*
X234232405Y-153851714D01*
X233634499Y-153851714D01*
X233634499Y-153683760D01*
G37*
G36*
X233634499Y-152407188D02*
G01*
X234431707Y-152407188D01*
X234431707Y-152656939D01*
X233877606Y-152794582D01*
X234431707Y-152932225D01*
X234431707Y-153186958D01*
X233634499Y-153186958D01*
X233634499Y-153020042D01*
X234175728Y-153026686D01*
X233634499Y-152885306D01*
X233634499Y-152711124D01*
X234178220Y-152568498D01*
X233634499Y-152575142D01*
X233634499Y-152407188D01*
G37*
G36*
X233984175Y-151760448D02*
G01*
X234031538Y-151769490D01*
X234075021Y-151784259D01*
X234114306Y-151804511D01*
X234149079Y-151830000D01*
X234179025Y-151860481D01*
X234203829Y-151895709D01*
X234223176Y-151935438D01*
X234236751Y-151979423D01*
X234244238Y-152027419D01*
X234245692Y-152061523D01*
X234242408Y-152112677D01*
X234232780Y-152159936D01*
X234217141Y-152203053D01*
X234195824Y-152241778D01*
X234169163Y-152275865D01*
X234137491Y-152305064D01*
X234101143Y-152329127D01*
X234060452Y-152347806D01*
X234015751Y-152360852D01*
X233967373Y-152368017D01*
X233933244Y-152369404D01*
X233883523Y-152366387D01*
X233836915Y-152357465D01*
X233793810Y-152342831D01*
X233754595Y-152322678D01*
X233719657Y-152297198D01*
X233689386Y-152266586D01*
X233664168Y-152231033D01*
X233644392Y-152190732D01*
X233630446Y-152145878D01*
X233622718Y-152096662D01*
X233621212Y-152061523D01*
X233764045Y-152061523D01*
X233769821Y-152107743D01*
X233791379Y-152149311D01*
X233829256Y-152177746D01*
X233874998Y-152191806D01*
X233922658Y-152196339D01*
X233933244Y-152196468D01*
X233982590Y-152193233D01*
X234023119Y-152183485D01*
X234060377Y-152163095D01*
X234088564Y-152127177D01*
X234099992Y-152085863D01*
X234101405Y-152061523D01*
X234095725Y-152015304D01*
X234074446Y-151973736D01*
X234036903Y-151945300D01*
X233991395Y-151931240D01*
X233943827Y-151926708D01*
X233933244Y-151926579D01*
X233883831Y-151929814D01*
X233843129Y-151939562D01*
X233805592Y-151959952D01*
X233777087Y-151995869D01*
X233765484Y-152037184D01*
X233764045Y-152061523D01*
X233621212Y-152061523D01*
X233624490Y-152011278D01*
X233634103Y-151964766D01*
X233649718Y-151922253D01*
X233671003Y-151884002D01*
X233697625Y-151850276D01*
X233729252Y-151821339D01*
X233765551Y-151797456D01*
X233806189Y-151778890D01*
X233850834Y-151765904D01*
X233899154Y-151758763D01*
X233933244Y-151757380D01*
X233984175Y-151760448D01*
G37*
G36*
X234444994Y-151312895D02*
G01*
X234168047Y-151312895D01*
X234199710Y-151342394D01*
X234224230Y-151380886D01*
X234238618Y-151420993D01*
X234245328Y-151466253D01*
X234245692Y-151480018D01*
X234242343Y-151521803D01*
X234227942Y-151572179D01*
X234203057Y-151616125D01*
X234168637Y-151653280D01*
X234125629Y-151683285D01*
X234074984Y-151705780D01*
X234032558Y-151717506D01*
X233986769Y-151724653D01*
X233938019Y-151727069D01*
X233884871Y-151724236D01*
X233835930Y-151715961D01*
X233791420Y-151702586D01*
X233751564Y-151684449D01*
X233716583Y-151661890D01*
X233677912Y-151625521D01*
X233648833Y-151582701D01*
X233629874Y-151534235D01*
X233621564Y-151480927D01*
X233621212Y-151466939D01*
X233624308Y-151431230D01*
X233760516Y-151431230D01*
X233769820Y-151476209D01*
X233796324Y-151512926D01*
X233831130Y-151536436D01*
X233875691Y-151551386D01*
X233919317Y-151556475D01*
X233928677Y-151556625D01*
X233978725Y-151553704D01*
X234019966Y-151544815D01*
X234058016Y-151526003D01*
X234086926Y-151492409D01*
X234099511Y-151445776D01*
X234100160Y-151429985D01*
X234094040Y-151388095D01*
X234071130Y-151350216D01*
X234030741Y-151324150D01*
X233981815Y-151311190D01*
X233930703Y-151306994D01*
X233919335Y-151306874D01*
X233877253Y-151310658D01*
X233833800Y-151324386D01*
X233794469Y-151351250D01*
X233769349Y-151387626D01*
X233760516Y-151431230D01*
X233624308Y-151431230D01*
X233625164Y-151421356D01*
X233636376Y-151381202D01*
X233656844Y-151343262D01*
X233687906Y-151312532D01*
X233691798Y-151309988D01*
X233634499Y-151309365D01*
X233634499Y-151147225D01*
X234444994Y-151147225D01*
X234444994Y-151312895D01*
G37*
G36*
X233636575Y-150552640D02*
G01*
X234232405Y-150552640D01*
X234232405Y-150719348D01*
X233889854Y-150719348D01*
X233844575Y-150724844D01*
X233803259Y-150744494D01*
X233775590Y-150778255D01*
X233764639Y-150819248D01*
X233764045Y-150832909D01*
X233771700Y-150878010D01*
X233798984Y-150910239D01*
X233841532Y-150923697D01*
X233866187Y-150925086D01*
X234232405Y-150925086D01*
X234232405Y-151093039D01*
X233842520Y-151093039D01*
X233795519Y-151089122D01*
X233752850Y-151077774D01*
X233715111Y-151059604D01*
X233675776Y-151028226D01*
X233646239Y-150988326D01*
X233627662Y-150941094D01*
X233621476Y-150898827D01*
X233621212Y-150887717D01*
X233624536Y-150843335D01*
X233636194Y-150797426D01*
X233655201Y-150758782D01*
X233684533Y-150724783D01*
X233701763Y-150712289D01*
X233634499Y-150712289D01*
X233636575Y-150552640D01*
G37*
G36*
X233634499Y-150330501D02*
G01*
X234444994Y-150330501D01*
X234444994Y-150498455D01*
X233634499Y-150498455D01*
X233634499Y-150330501D01*
G37*
G36*
X233930150Y-149721293D02*
G01*
X233989812Y-149727319D01*
X234043285Y-149738433D01*
X234090548Y-149754562D01*
X234131579Y-149775631D01*
X234166357Y-149801566D01*
X234194860Y-149832294D01*
X234217067Y-149867741D01*
X234232955Y-149907832D01*
X234242504Y-149952494D01*
X234245692Y-150001652D01*
X234242557Y-150051022D01*
X234233353Y-150096259D01*
X234218386Y-150137205D01*
X234197959Y-150173704D01*
X234162753Y-150215176D01*
X234119101Y-150248084D01*
X234081251Y-150266919D01*
X234039359Y-150280569D01*
X233993728Y-150288875D01*
X233944662Y-150291679D01*
X233887610Y-150289006D01*
X233835948Y-150281004D01*
X233789725Y-150267698D01*
X233748989Y-150249113D01*
X233713789Y-150225272D01*
X233675550Y-150185353D01*
X233653454Y-150149346D01*
X233637054Y-150108167D01*
X233626399Y-150061839D01*
X233621537Y-150010387D01*
X233621212Y-149992103D01*
X233624483Y-149945789D01*
X233634223Y-149902407D01*
X233650322Y-149862358D01*
X233672672Y-149826043D01*
X233701162Y-149793865D01*
X233735684Y-149766224D01*
X233776127Y-149743521D01*
X233822382Y-149726159D01*
X233822382Y-149899718D01*
X233785427Y-149920674D01*
X233763498Y-149957080D01*
X233756986Y-149999369D01*
X233764214Y-150043429D01*
X233788693Y-150083074D01*
X233822400Y-150107325D01*
X233865800Y-150120836D01*
X233886948Y-150123102D01*
X233886948Y-150118327D01*
X233997810Y-150118327D01*
X234039222Y-150109186D01*
X234075959Y-150086349D01*
X234101947Y-150048231D01*
X234109710Y-150006427D01*
X234102677Y-149964338D01*
X234078019Y-149924849D01*
X234041300Y-149901322D01*
X233997810Y-149893074D01*
X233997810Y-150118327D01*
X233886948Y-150118327D01*
X233886948Y-149720138D01*
X233930150Y-149721293D01*
G37*
G36*
X232788144Y-155078484D02*
G01*
X232817649Y-155082248D01*
X232858855Y-155092340D01*
X232896212Y-155107470D01*
X232929512Y-155127304D01*
X232958546Y-155151506D01*
X232983106Y-155179743D01*
X233002982Y-155211678D01*
X233017967Y-155246979D01*
X233027851Y-155285309D01*
X233032426Y-155326334D01*
X233032735Y-155340550D01*
X233032735Y-155561248D01*
X232470000Y-155561248D01*
X232470000Y-155346559D01*
X232574193Y-155346559D01*
X232574193Y-155438443D01*
X232926636Y-155438443D01*
X232926636Y-155356524D01*
X232924387Y-155318579D01*
X232917413Y-155286740D01*
X232901525Y-155255039D01*
X232877045Y-155231744D01*
X232843303Y-155216225D01*
X232809189Y-155208985D01*
X232779224Y-155206362D01*
X232757083Y-155205875D01*
X232724161Y-155206982D01*
X232694548Y-155210356D01*
X232660183Y-155218521D01*
X232631635Y-155231051D01*
X232604076Y-155253142D01*
X232585480Y-155282722D01*
X232577009Y-155312029D01*
X232574193Y-155346559D01*
X232470000Y-155346559D01*
X232470000Y-155322965D01*
X232473048Y-155283006D01*
X232481976Y-155245813D01*
X232496458Y-155211640D01*
X232516167Y-155180741D01*
X232540777Y-155153372D01*
X232569963Y-155129785D01*
X232603398Y-155110236D01*
X232640757Y-155094978D01*
X232681714Y-155084267D01*
X232710855Y-155079777D01*
X232741354Y-155077496D01*
X232757083Y-155077208D01*
X232788144Y-155078484D01*
G37*
G36*
X232678695Y-154655971D02*
G01*
X232720809Y-154660225D01*
X232758555Y-154668070D01*
X232791917Y-154679455D01*
X232820880Y-154694327D01*
X232845429Y-154712635D01*
X232865549Y-154734325D01*
X232881224Y-154759346D01*
X232892440Y-154787646D01*
X232899180Y-154819172D01*
X232901430Y-154853872D01*
X232899217Y-154888721D01*
X232892721Y-154920653D01*
X232882155Y-154949556D01*
X232867736Y-154975320D01*
X232842885Y-155004594D01*
X232812072Y-155027823D01*
X232785354Y-155041119D01*
X232755783Y-155050754D01*
X232723573Y-155056617D01*
X232688939Y-155058596D01*
X232648666Y-155056710D01*
X232612199Y-155051061D01*
X232579571Y-155041669D01*
X232550816Y-155028550D01*
X232525969Y-155011721D01*
X232498977Y-154983543D01*
X232483380Y-154958126D01*
X232471803Y-154929058D01*
X232464282Y-154896356D01*
X232460850Y-154860038D01*
X232460621Y-154847131D01*
X232462930Y-154814439D01*
X232469805Y-154783816D01*
X232481169Y-154755546D01*
X232496946Y-154729913D01*
X232517056Y-154707198D01*
X232541425Y-154687687D01*
X232569973Y-154671661D01*
X232602623Y-154659406D01*
X232602623Y-154781918D01*
X232576537Y-154796710D01*
X232561058Y-154822409D01*
X232556461Y-154852260D01*
X232561563Y-154883361D01*
X232578842Y-154911346D01*
X232602636Y-154928464D01*
X232633271Y-154938001D01*
X232648199Y-154939601D01*
X232648199Y-154936231D01*
X232726454Y-154936231D01*
X232755686Y-154929778D01*
X232781618Y-154913657D01*
X232799963Y-154886751D01*
X232805443Y-154857242D01*
X232800478Y-154827533D01*
X232783073Y-154799658D01*
X232757154Y-154783051D01*
X232726454Y-154777228D01*
X232726454Y-154936231D01*
X232648199Y-154936231D01*
X232648199Y-154655156D01*
X232678695Y-154655971D01*
G37*
G36*
X232756643Y-154263879D02*
G01*
X232790171Y-154268626D01*
X232819390Y-154278252D01*
X232849778Y-154297399D01*
X232873259Y-154324755D01*
X232887005Y-154352769D01*
X232896218Y-154386412D01*
X232900849Y-154425850D01*
X232901430Y-154447794D01*
X232899988Y-154481795D01*
X232895796Y-154511841D01*
X232886282Y-154545981D01*
X232872721Y-154573643D01*
X232850813Y-154599593D01*
X232824274Y-154616532D01*
X232794042Y-154625078D01*
X232774521Y-154626433D01*
X232743978Y-154622749D01*
X232715878Y-154610732D01*
X232690924Y-154588934D01*
X232678681Y-154572064D01*
X232664323Y-154544114D01*
X232653013Y-154513212D01*
X232644753Y-154485059D01*
X232636183Y-154451720D01*
X232631639Y-154432846D01*
X232623423Y-154402714D01*
X232607578Y-154376219D01*
X232589874Y-154370124D01*
X232563175Y-154385701D01*
X232553756Y-154414967D01*
X232552212Y-154438561D01*
X232555155Y-154469101D01*
X232567581Y-154498370D01*
X232592765Y-154516530D01*
X232613614Y-154519601D01*
X232613614Y-154641674D01*
X232580954Y-154637639D01*
X232551378Y-154627090D01*
X232525278Y-154610218D01*
X232503046Y-154587214D01*
X232485072Y-154558267D01*
X232471749Y-154523569D01*
X232465044Y-154493886D01*
X232461341Y-154461156D01*
X232460621Y-154437682D01*
X232462019Y-154405583D01*
X232466150Y-154376346D01*
X232475744Y-154341927D01*
X232489799Y-154312863D01*
X232508090Y-154289307D01*
X232536563Y-154267842D01*
X232570856Y-154255521D01*
X232602184Y-154252448D01*
X232634686Y-154256133D01*
X232664223Y-154268940D01*
X232686699Y-154290218D01*
X232703213Y-154319240D01*
X232704912Y-154323376D01*
X232714789Y-154353399D01*
X232723031Y-154383899D01*
X232730404Y-154412753D01*
X232738419Y-154442964D01*
X232739644Y-154447354D01*
X232748416Y-154475985D01*
X232762231Y-154502601D01*
X232781409Y-154511101D01*
X232805345Y-154492279D01*
X232810205Y-154461955D01*
X232810425Y-154451164D01*
X232807842Y-154420264D01*
X232793725Y-154392909D01*
X232767007Y-154380115D01*
X232755910Y-154378038D01*
X232756643Y-154263879D01*
G37*
G36*
X232470000Y-154109859D02*
G01*
X232892051Y-154109859D01*
X232892051Y-154228415D01*
X232470000Y-154228415D01*
X232470000Y-154109859D01*
G37*
G36*
X232931032Y-154109859D02*
G01*
X233042114Y-154109859D01*
X233042114Y-154228415D01*
X232931032Y-154228415D01*
X232931032Y-154109859D01*
G37*
G36*
X232892051Y-153781597D02*
G01*
X232852044Y-153781597D01*
X232873767Y-153801890D01*
X232888851Y-153827669D01*
X232898514Y-153859917D01*
X232901430Y-153892825D01*
X232897339Y-153930075D01*
X232885466Y-153964820D01*
X232866407Y-153996303D01*
X232840760Y-154023764D01*
X232809123Y-154046443D01*
X232781824Y-154059859D01*
X232751744Y-154069838D01*
X232719135Y-154076060D01*
X232684249Y-154078205D01*
X232654243Y-154076888D01*
X232624752Y-154072798D01*
X232587154Y-154062673D01*
X232552679Y-154046758D01*
X232522589Y-154024563D01*
X232498144Y-153995597D01*
X232484273Y-153969134D01*
X232474818Y-153938377D01*
X232470310Y-153903122D01*
X232470000Y-153890334D01*
X232471765Y-153866887D01*
X232564961Y-153866887D01*
X232571022Y-153898343D01*
X232588544Y-153924250D01*
X232616531Y-153943180D01*
X232648097Y-153952771D01*
X232679267Y-153955400D01*
X232714431Y-153953233D01*
X232743233Y-153946737D01*
X232769631Y-153933235D01*
X232789527Y-153909631D01*
X232798115Y-153877589D01*
X232798555Y-153866887D01*
X232794385Y-153836448D01*
X232778655Y-153809126D01*
X232750691Y-153790475D01*
X232716559Y-153781272D01*
X232680679Y-153778311D01*
X232672672Y-153778226D01*
X232643305Y-153780892D01*
X232613561Y-153790589D01*
X232587187Y-153809646D01*
X232570674Y-153835588D01*
X232564961Y-153866887D01*
X232471765Y-153866887D01*
X232472244Y-153860524D01*
X232479459Y-153829510D01*
X232491465Y-153801553D01*
X232509567Y-153781597D01*
X232465017Y-153781597D01*
X232432210Y-153787487D01*
X232406254Y-153803893D01*
X232387940Y-153828919D01*
X232378059Y-153860669D01*
X232376503Y-153881101D01*
X232380541Y-153912839D01*
X232394921Y-153941082D01*
X232419521Y-153959561D01*
X232449267Y-153966739D01*
X232459155Y-153967124D01*
X232459155Y-154078205D01*
X232427407Y-154075936D01*
X232398336Y-154069321D01*
X232363910Y-154054248D01*
X232334648Y-154032661D01*
X232310780Y-154005254D01*
X232292536Y-153972718D01*
X232280146Y-153935745D01*
X232274834Y-153905520D01*
X232273042Y-153873481D01*
X232274867Y-153841334D01*
X232280318Y-153810744D01*
X232289356Y-153782060D01*
X232306923Y-153747388D01*
X232330712Y-153717560D01*
X232360634Y-153693408D01*
X232387045Y-153679519D01*
X232416819Y-153669640D01*
X232449917Y-153664123D01*
X232473810Y-153663041D01*
X232892051Y-153663041D01*
X232892051Y-153781597D01*
G37*
G36*
X232470000Y-153240843D02*
G01*
X232759134Y-153240843D01*
X232791629Y-153243614D01*
X232820132Y-153251608D01*
X232849985Y-153268213D01*
X232873231Y-153291295D01*
X232889666Y-153319916D01*
X232899084Y-153353140D01*
X232901430Y-153382406D01*
X232899571Y-153412411D01*
X232892914Y-153443760D01*
X232880138Y-153473722D01*
X232860611Y-153498955D01*
X232843691Y-153511367D01*
X232892051Y-153511367D01*
X232892051Y-153624793D01*
X232470000Y-153624793D01*
X232470000Y-153506238D01*
X232711067Y-153506238D01*
X232742063Y-153503549D01*
X232769808Y-153493453D01*
X232790675Y-153472388D01*
X232800282Y-153440752D01*
X232801046Y-153426077D01*
X232797749Y-153394652D01*
X232778612Y-153369299D01*
X232750108Y-153361498D01*
X232724549Y-153360278D01*
X232470000Y-153360278D01*
X232470000Y-153240843D01*
G37*
G36*
X232678695Y-152809495D02*
G01*
X232720809Y-152813749D01*
X232758555Y-152821594D01*
X232791917Y-152832979D01*
X232820880Y-152847851D01*
X232845429Y-152866159D01*
X232865549Y-152887849D01*
X232881224Y-152912870D01*
X232892440Y-152941170D01*
X232899180Y-152972696D01*
X232901430Y-153007396D01*
X232899217Y-153042245D01*
X232892721Y-153074177D01*
X232882155Y-153103080D01*
X232867736Y-153128844D01*
X232842885Y-153158118D01*
X232812072Y-153181347D01*
X232785354Y-153194643D01*
X232755783Y-153204278D01*
X232723573Y-153210141D01*
X232688939Y-153212120D01*
X232648666Y-153210234D01*
X232612199Y-153204586D01*
X232579571Y-153195193D01*
X232550816Y-153182074D01*
X232525969Y-153165245D01*
X232498977Y-153137067D01*
X232483380Y-153111650D01*
X232471803Y-153082582D01*
X232464282Y-153049880D01*
X232460850Y-153013562D01*
X232460621Y-153000655D01*
X232462930Y-152967963D01*
X232469805Y-152937340D01*
X232481169Y-152909070D01*
X232496946Y-152883437D01*
X232517056Y-152860722D01*
X232541425Y-152841211D01*
X232569973Y-152825186D01*
X232602623Y-152812930D01*
X232602623Y-152935442D01*
X232576537Y-152950234D01*
X232561058Y-152975933D01*
X232556461Y-153005784D01*
X232561563Y-153036885D01*
X232578842Y-153064870D01*
X232602636Y-153081988D01*
X232633271Y-153091525D01*
X232648199Y-153093125D01*
X232648199Y-153089755D01*
X232726454Y-153089755D01*
X232755686Y-153083302D01*
X232781618Y-153067181D01*
X232799963Y-153040275D01*
X232805443Y-153010767D01*
X232800478Y-152981057D01*
X232783073Y-152953182D01*
X232757154Y-152936575D01*
X232726454Y-152930753D01*
X232726454Y-153089755D01*
X232648199Y-153089755D01*
X232648199Y-152808680D01*
X232678695Y-152809495D01*
G37*
G36*
X233042114Y-152496831D02*
G01*
X232846622Y-152496831D01*
X232868972Y-152517654D01*
X232886281Y-152544824D01*
X232896436Y-152573136D01*
X232901174Y-152605084D01*
X232901430Y-152614800D01*
X232899066Y-152644295D01*
X232888901Y-152679855D01*
X232871335Y-152710875D01*
X232847038Y-152737103D01*
X232816680Y-152758283D01*
X232780930Y-152774162D01*
X232750983Y-152782439D01*
X232718661Y-152787484D01*
X232684249Y-152789189D01*
X232646733Y-152787189D01*
X232612187Y-152781348D01*
X232580768Y-152771907D01*
X232552634Y-152759104D01*
X232527942Y-152743181D01*
X232500644Y-152717508D01*
X232480118Y-152687282D01*
X232466735Y-152653071D01*
X232460869Y-152615442D01*
X232460621Y-152605568D01*
X232462806Y-152580362D01*
X232558953Y-152580362D01*
X232565520Y-152612112D01*
X232584229Y-152638029D01*
X232608798Y-152654625D01*
X232640253Y-152665178D01*
X232671048Y-152668770D01*
X232677655Y-152668875D01*
X232712983Y-152666814D01*
X232742094Y-152660539D01*
X232768953Y-152647260D01*
X232789360Y-152623547D01*
X232798244Y-152590629D01*
X232798702Y-152579482D01*
X232794382Y-152549913D01*
X232778210Y-152523175D01*
X232749700Y-152504776D01*
X232715164Y-152495628D01*
X232679085Y-152492665D01*
X232671060Y-152492581D01*
X232641356Y-152495252D01*
X232610683Y-152504942D01*
X232582920Y-152523905D01*
X232565188Y-152549582D01*
X232558953Y-152580362D01*
X232462806Y-152580362D01*
X232463410Y-152573392D01*
X232471325Y-152545048D01*
X232485773Y-152518267D01*
X232507699Y-152496575D01*
X232510446Y-152494779D01*
X232470000Y-152494339D01*
X232470000Y-152379887D01*
X233042114Y-152379887D01*
X233042114Y-152496831D01*
G37*
G36*
X232719316Y-151731956D02*
G01*
X232751454Y-151737001D01*
X232781257Y-151745278D01*
X232808437Y-151756680D01*
X232840101Y-151776559D01*
X232865912Y-151801548D01*
X232885191Y-151831394D01*
X232897257Y-151865843D01*
X232901430Y-151904639D01*
X232898375Y-151937463D01*
X232889693Y-151966870D01*
X232873815Y-151995525D01*
X232852623Y-152018043D01*
X232846622Y-152022609D01*
X233042114Y-152022609D01*
X233042114Y-152139406D01*
X232470000Y-152139406D01*
X232470000Y-152025247D01*
X232509274Y-152024514D01*
X232487501Y-152003931D01*
X232472714Y-151978020D01*
X232463398Y-151946030D01*
X232462798Y-151939078D01*
X232558953Y-151939078D01*
X232565188Y-151969781D01*
X232582920Y-151995414D01*
X232610683Y-152014357D01*
X232641356Y-152024041D01*
X232671060Y-152026712D01*
X232701537Y-152025359D01*
X232733614Y-152019858D01*
X232763453Y-152007667D01*
X232786630Y-151985728D01*
X232797626Y-151955472D01*
X232798702Y-151939957D01*
X232794563Y-151908852D01*
X232779126Y-151881239D01*
X232752019Y-151862620D01*
X232719300Y-151853539D01*
X232685222Y-151850646D01*
X232677655Y-151850564D01*
X232646099Y-151853139D01*
X232613588Y-151862580D01*
X232587806Y-151878201D01*
X232567484Y-151903176D01*
X232559091Y-151934221D01*
X232558953Y-151939078D01*
X232462798Y-151939078D01*
X232460621Y-151913872D01*
X232464551Y-151875478D01*
X232476102Y-151840359D01*
X232494910Y-151809083D01*
X232520613Y-151782219D01*
X232552848Y-151760335D01*
X232581094Y-151747533D01*
X232612658Y-151738091D01*
X232647387Y-151732250D01*
X232685129Y-151730250D01*
X232719316Y-151731956D01*
G37*
G36*
X232465750Y-151436279D02*
G01*
X232432501Y-151440769D01*
X232403203Y-151455285D01*
X232382617Y-151480298D01*
X232376503Y-151507208D01*
X232380612Y-151539215D01*
X232395186Y-151565802D01*
X232419994Y-151582020D01*
X232449847Y-151587943D01*
X232459741Y-151588247D01*
X232459741Y-151699182D01*
X232427944Y-151697502D01*
X232398814Y-151692475D01*
X232364295Y-151680611D01*
X232334935Y-151662898D01*
X232310971Y-151639394D01*
X232292642Y-151610154D01*
X232280188Y-151575236D01*
X232274845Y-151545356D01*
X232273042Y-151512337D01*
X232274887Y-151482680D01*
X232282983Y-151445389D01*
X232297339Y-151411386D01*
X232317756Y-151381451D01*
X232344034Y-151356362D01*
X232375973Y-151336901D01*
X232403524Y-151326466D01*
X232434064Y-151319964D01*
X232467508Y-151317724D01*
X232892051Y-151317724D01*
X232892051Y-151436279D01*
X232638967Y-151436279D01*
X232610173Y-151441970D01*
X232585236Y-151460729D01*
X232571537Y-151486762D01*
X232567452Y-151515561D01*
X232572943Y-151547397D01*
X232592244Y-151570147D01*
X232621925Y-151579646D01*
X232638967Y-151580627D01*
X232892051Y-151580627D01*
X232892051Y-151699182D01*
X232623286Y-151699182D01*
X232590319Y-151696107D01*
X232560572Y-151687248D01*
X232534407Y-151673155D01*
X232507290Y-151649014D01*
X232487045Y-151618626D01*
X232476272Y-151590540D01*
X232470712Y-151559692D01*
X232470000Y-151543404D01*
X232472994Y-151510070D01*
X232480744Y-151480284D01*
X232493052Y-151453575D01*
X232509567Y-151436279D01*
X232465750Y-151436279D01*
G37*
G36*
X231462000Y-155048924D02*
G01*
X232024735Y-155048924D01*
X232024735Y-155225219D01*
X231633605Y-155322379D01*
X232024735Y-155419538D01*
X232024735Y-155599350D01*
X231462000Y-155599350D01*
X231462000Y-155481527D01*
X231844044Y-155486217D01*
X231462000Y-155386419D01*
X231462000Y-155263467D01*
X231845803Y-155162790D01*
X231462000Y-155167480D01*
X231462000Y-155048924D01*
G37*
G36*
X231462000Y-154891827D02*
G01*
X231884051Y-154891827D01*
X231884051Y-155010383D01*
X231462000Y-155010383D01*
X231462000Y-154891827D01*
G37*
G36*
X231923032Y-154891827D02*
G01*
X232034114Y-154891827D01*
X232034114Y-155010383D01*
X231923032Y-155010383D01*
X231923032Y-154891827D01*
G37*
G36*
X231632139Y-154617347D02*
G01*
X231599535Y-154620807D01*
X231571500Y-154635370D01*
X231558026Y-154662185D01*
X231556815Y-154676552D01*
X231563075Y-154706066D01*
X231587319Y-154727473D01*
X231616014Y-154734090D01*
X231633751Y-154734877D01*
X231797296Y-154734877D01*
X231797296Y-154506266D01*
X231884051Y-154506266D01*
X231884051Y-154734877D01*
X231996598Y-154734877D01*
X231996598Y-154851674D01*
X231622907Y-154851674D01*
X231589840Y-154849291D01*
X231558463Y-154841956D01*
X231529614Y-154829386D01*
X231504131Y-154811300D01*
X231482852Y-154787417D01*
X231466616Y-154757454D01*
X231456259Y-154721130D01*
X231452855Y-154689543D01*
X231452621Y-154678164D01*
X231454707Y-154646360D01*
X231463533Y-154609306D01*
X231478463Y-154578213D01*
X231498617Y-154552919D01*
X231523120Y-154533257D01*
X231551092Y-154519063D01*
X231581658Y-154510173D01*
X231613939Y-154506420D01*
X231622174Y-154506266D01*
X231743367Y-154506266D01*
X231743367Y-154617347D01*
X231632139Y-154617347D01*
G37*
G36*
X231622321Y-154208778D02*
G01*
X231591775Y-154216751D01*
X231568236Y-154235665D01*
X231555782Y-154263113D01*
X231553444Y-154285128D01*
X231561074Y-154314261D01*
X231584365Y-154338489D01*
X231612476Y-154351780D01*
X231643075Y-154358722D01*
X231672356Y-154361083D01*
X231680353Y-154361185D01*
X231709983Y-154359606D01*
X231739733Y-154353494D01*
X231769141Y-154338233D01*
X231787700Y-154313024D01*
X231793193Y-154281758D01*
X231787756Y-154251292D01*
X231769074Y-154225482D01*
X231741034Y-154211076D01*
X231725196Y-154207752D01*
X231725196Y-154088610D01*
X231762424Y-154094456D01*
X231795563Y-154106331D01*
X231824343Y-154123822D01*
X231848495Y-154146514D01*
X231867750Y-154173995D01*
X231881837Y-154205849D01*
X231890487Y-154241664D01*
X231893244Y-154270875D01*
X231893430Y-154281025D01*
X231891645Y-154313097D01*
X231886245Y-154342980D01*
X231873303Y-154379054D01*
X231853652Y-154410362D01*
X231827130Y-154436403D01*
X231793575Y-154456678D01*
X231763697Y-154467800D01*
X231729704Y-154475187D01*
X231691528Y-154478628D01*
X231677861Y-154478862D01*
X231638139Y-154476789D01*
X231602167Y-154470723D01*
X231569981Y-154460888D01*
X231541614Y-154447509D01*
X231517101Y-154430812D01*
X231490469Y-154403777D01*
X231470829Y-154371778D01*
X231458261Y-154335349D01*
X231453526Y-154305440D01*
X231452621Y-154284395D01*
X231455693Y-154247283D01*
X231464669Y-154212700D01*
X231479189Y-154181198D01*
X231498892Y-154153329D01*
X231523418Y-154129642D01*
X231552404Y-154110691D01*
X231585492Y-154097025D01*
X231622321Y-154089196D01*
X231622321Y-154208778D01*
G37*
G36*
X231462000Y-153683411D02*
G01*
X231756996Y-153683411D01*
X231787051Y-153686232D01*
X231820031Y-153697234D01*
X231847482Y-153715758D01*
X231868946Y-153740962D01*
X231883962Y-153772005D01*
X231891024Y-153800477D01*
X231893430Y-153831716D01*
X231890623Y-153862874D01*
X231883275Y-153891613D01*
X231871115Y-153919889D01*
X231853740Y-153943907D01*
X231846682Y-153948806D01*
X232034114Y-153948806D01*
X232034114Y-154067361D01*
X231462000Y-154067361D01*
X231462000Y-153948806D01*
X231702041Y-153948806D01*
X231735164Y-153944827D01*
X231763058Y-153933052D01*
X231786089Y-153910355D01*
X231796363Y-153882677D01*
X231797443Y-153868645D01*
X231793923Y-153838209D01*
X231777003Y-153814178D01*
X231746143Y-153804211D01*
X231721239Y-153802846D01*
X231462000Y-153802846D01*
X231462000Y-153683411D01*
G37*
G36*
X231781189Y-152874935D02*
G01*
X231810604Y-152879273D01*
X231850335Y-152890790D01*
X231884939Y-152907844D01*
X231914576Y-152929898D01*
X231939409Y-152956416D01*
X231959597Y-152986865D01*
X231975301Y-153020708D01*
X231986682Y-153057410D01*
X231993901Y-153096435D01*
X231997120Y-153137248D01*
X231997331Y-153151157D01*
X231995790Y-153185501D01*
X231991254Y-153218044D01*
X231983854Y-153248727D01*
X231973721Y-153277494D01*
X231960985Y-153304287D01*
X231937288Y-153340653D01*
X231908469Y-153372258D01*
X231874972Y-153398910D01*
X231837236Y-153420415D01*
X231809943Y-153431797D01*
X231781092Y-153440749D01*
X231750816Y-153447215D01*
X231719244Y-153451136D01*
X231686508Y-153452455D01*
X231655159Y-153451238D01*
X231624943Y-153447600D01*
X231595983Y-153441563D01*
X231555165Y-153428056D01*
X231517862Y-153409271D01*
X231484489Y-153385282D01*
X231455460Y-153356161D01*
X231431189Y-153321979D01*
X231412092Y-153282810D01*
X231402438Y-153253963D01*
X231395391Y-153222952D01*
X231391073Y-153189800D01*
X231389606Y-153154528D01*
X231390370Y-153119298D01*
X231392567Y-153086843D01*
X231396051Y-153057096D01*
X231402452Y-153021528D01*
X231410545Y-152990491D01*
X231422520Y-152957820D01*
X231435937Y-152931662D01*
X231450129Y-152911702D01*
X231510213Y-152942037D01*
X231494336Y-152967034D01*
X231481434Y-152998897D01*
X231473072Y-153030404D01*
X231466983Y-153066168D01*
X231463812Y-153097690D01*
X231462203Y-153131670D01*
X231462000Y-153149545D01*
X231464177Y-153188712D01*
X231470639Y-153224530D01*
X231481283Y-153256890D01*
X231496003Y-153285682D01*
X231514695Y-153310795D01*
X231537255Y-153332119D01*
X231563578Y-153349545D01*
X231593561Y-153362962D01*
X231627098Y-153372259D01*
X231664087Y-153377328D01*
X231690611Y-153378303D01*
X231723835Y-153376243D01*
X231756651Y-153370093D01*
X231788434Y-153359897D01*
X231818561Y-153345699D01*
X231846405Y-153327543D01*
X231871344Y-153305474D01*
X231892751Y-153279535D01*
X231910003Y-153249771D01*
X231922476Y-153216227D01*
X231929544Y-153178945D01*
X231930946Y-153152037D01*
X231929494Y-153117164D01*
X231925048Y-153085094D01*
X231917476Y-153055964D01*
X231902282Y-153021934D01*
X231880972Y-152993699D01*
X231853229Y-152971584D01*
X231818735Y-152955912D01*
X231788243Y-152948582D01*
X231753640Y-152945196D01*
X231741169Y-152944968D01*
X231708417Y-152946941D01*
X231673778Y-152954319D01*
X231646075Y-152966049D01*
X231621887Y-152984201D01*
X231604805Y-153011964D01*
X231602683Y-153026007D01*
X231613674Y-153040662D01*
X231642397Y-153035679D01*
X231853277Y-152990690D01*
X231853277Y-153065721D01*
X231821036Y-153073781D01*
X231845000Y-153094359D01*
X231857595Y-153123136D01*
X231861776Y-153155407D01*
X231857908Y-153190507D01*
X231846792Y-153222047D01*
X231829164Y-153249681D01*
X231805759Y-153273065D01*
X231777312Y-153291854D01*
X231744558Y-153305701D01*
X231708232Y-153314263D01*
X231669069Y-153317194D01*
X231636170Y-153314410D01*
X231604800Y-153305832D01*
X231576615Y-153291118D01*
X231553272Y-153269924D01*
X231536428Y-153241909D01*
X231527740Y-153206732D01*
X231526919Y-153190578D01*
X231528053Y-153177975D01*
X231602683Y-153177975D01*
X231607810Y-153208639D01*
X231630948Y-153230727D01*
X231660909Y-153236135D01*
X231669069Y-153236300D01*
X231699100Y-153234671D01*
X231730123Y-153228343D01*
X231758307Y-153215175D01*
X231779568Y-153193312D01*
X231789851Y-153161580D01*
X231790262Y-153152769D01*
X231782345Y-153122483D01*
X231758928Y-153104768D01*
X231728588Y-153099625D01*
X231724609Y-153099573D01*
X231692451Y-153101765D01*
X231659141Y-153109883D01*
X231632587Y-153123484D01*
X231611554Y-153145570D01*
X231602683Y-153177975D01*
X231528053Y-153177975D01*
X231529819Y-153158356D01*
X231539389Y-153128492D01*
X231558671Y-153104895D01*
X231560625Y-153103677D01*
X231538563Y-153084005D01*
X231527048Y-153053977D01*
X231524135Y-153025128D01*
X231529894Y-152991556D01*
X231542668Y-152965031D01*
X231562543Y-152939958D01*
X231589371Y-152917403D01*
X231623004Y-152898433D01*
X231652605Y-152887199D01*
X231685889Y-152879031D01*
X231722793Y-152874379D01*
X231749376Y-152873453D01*
X231781189Y-152874935D01*
G37*
G36*
X231462000Y-152187766D02*
G01*
X232024735Y-152187766D01*
X232024735Y-152314675D01*
X231818399Y-152314675D01*
X231818399Y-152522916D01*
X232024735Y-152522916D01*
X232024735Y-152649092D01*
X231462000Y-152649092D01*
X231462000Y-152522916D01*
X231711567Y-152522916D01*
X231711567Y-152314675D01*
X231462000Y-152314675D01*
X231462000Y-152187766D01*
G37*
G36*
X231462000Y-151694786D02*
G01*
X232024735Y-151694786D01*
X232024735Y-151821695D01*
X231818399Y-151821695D01*
X231818399Y-152029936D01*
X232024735Y-152029936D01*
X232024735Y-152156112D01*
X231462000Y-152156112D01*
X231462000Y-152029936D01*
X231711567Y-152029936D01*
X231711567Y-151821695D01*
X231462000Y-151821695D01*
X231462000Y-151694786D01*
G37*
G36*
X231462000Y-151260571D02*
G01*
X231572935Y-151260571D01*
X231572935Y-151536956D01*
X232024735Y-151536956D01*
X232024735Y-151663132D01*
X231462000Y-151663132D01*
X231462000Y-151260571D01*
G37*
G36*
X235730633Y-155353958D02*
G01*
X235788917Y-155370136D01*
X235841579Y-155396309D01*
X235887400Y-155431831D01*
X235925161Y-155476053D01*
X235953643Y-155528329D01*
X235971627Y-155588013D01*
X235977491Y-155637248D01*
X235977892Y-155654458D01*
X235977892Y-156072602D01*
X235040000Y-156072602D01*
X235040000Y-155862309D01*
X235368262Y-155862309D01*
X235368262Y-155685233D01*
X235541919Y-155685233D01*
X235541919Y-155862309D01*
X235801060Y-155862309D01*
X235801060Y-155685233D01*
X235795720Y-155631169D01*
X235777075Y-155584427D01*
X235741705Y-155550720D01*
X235694037Y-155535913D01*
X235673565Y-155534779D01*
X235619714Y-155543072D01*
X235578158Y-155569431D01*
X235551394Y-155616077D01*
X235542530Y-155665712D01*
X235541919Y-155685233D01*
X235368262Y-155685233D01*
X235368262Y-155654458D01*
X235371526Y-155604072D01*
X235385561Y-155542679D01*
X235409811Y-155488501D01*
X235443348Y-155442193D01*
X235485246Y-155404410D01*
X235534578Y-155375810D01*
X235590415Y-155357045D01*
X235651831Y-155348773D01*
X235667948Y-155348422D01*
X235730633Y-155353958D01*
G37*
G36*
X235040000Y-155123230D02*
G01*
X235403677Y-155123230D01*
X235457759Y-155117914D01*
X235506306Y-155097938D01*
X235542939Y-155056232D01*
X235558812Y-155002569D01*
X235561214Y-154964472D01*
X235557030Y-154915522D01*
X235555596Y-154906342D01*
X235759050Y-154906342D01*
X235759050Y-154937849D01*
X235756494Y-154993403D01*
X235745373Y-155046324D01*
X235720514Y-155094161D01*
X235683423Y-155129923D01*
X235676741Y-155134465D01*
X235743419Y-155134465D01*
X235743419Y-155320822D01*
X235040000Y-155320822D01*
X235040000Y-155123230D01*
G37*
G36*
X235451383Y-154212639D02*
G01*
X235507105Y-154223276D01*
X235558261Y-154240651D01*
X235604479Y-154264477D01*
X235645388Y-154294464D01*
X235680619Y-154330324D01*
X235709801Y-154371769D01*
X235732562Y-154418509D01*
X235748532Y-154470256D01*
X235757340Y-154526722D01*
X235759050Y-154566845D01*
X235755187Y-154627025D01*
X235743860Y-154682624D01*
X235725461Y-154733349D01*
X235700382Y-154778909D01*
X235669016Y-154819011D01*
X235631756Y-154853363D01*
X235588993Y-154881673D01*
X235541121Y-154903648D01*
X235488531Y-154918996D01*
X235431617Y-154927425D01*
X235391465Y-154929057D01*
X235332969Y-154925507D01*
X235278137Y-154915011D01*
X235227425Y-154897795D01*
X235181289Y-154874085D01*
X235140186Y-154844109D01*
X235104573Y-154808094D01*
X235074905Y-154766267D01*
X235051639Y-154718855D01*
X235035232Y-154666085D01*
X235026140Y-154608184D01*
X235024368Y-154566845D01*
X235192407Y-154566845D01*
X235199203Y-154621221D01*
X235224565Y-154670124D01*
X235269126Y-154703578D01*
X235322940Y-154720119D01*
X235379011Y-154725451D01*
X235391465Y-154725602D01*
X235449519Y-154721797D01*
X235497200Y-154710328D01*
X235541033Y-154686340D01*
X235574194Y-154644085D01*
X235587639Y-154595480D01*
X235589302Y-154566845D01*
X235582619Y-154512468D01*
X235557584Y-154463565D01*
X235513417Y-154430111D01*
X235459878Y-154413570D01*
X235403916Y-154408238D01*
X235391465Y-154408087D01*
X235333331Y-154411892D01*
X235285447Y-154423361D01*
X235241286Y-154447349D01*
X235207750Y-154489604D01*
X235194100Y-154538209D01*
X235192407Y-154566845D01*
X235024368Y-154566845D01*
X235028225Y-154507732D01*
X235039534Y-154453013D01*
X235057905Y-154402997D01*
X235082946Y-154357995D01*
X235114266Y-154318318D01*
X235151474Y-154284275D01*
X235194179Y-154256177D01*
X235241988Y-154234335D01*
X235294512Y-154219058D01*
X235351359Y-154210656D01*
X235391465Y-154209029D01*
X235451383Y-154212639D01*
G37*
G36*
X235040732Y-153293851D02*
G01*
X235554863Y-153293851D01*
X235554863Y-153697340D01*
X235383893Y-153697340D01*
X235383893Y-153491443D01*
X235327089Y-153501008D01*
X235276084Y-153527984D01*
X235240260Y-153561902D01*
X235212436Y-153604628D01*
X235194418Y-153654668D01*
X235188011Y-153710529D01*
X235195452Y-153771615D01*
X235216354Y-153823552D01*
X235248585Y-153866652D01*
X235290013Y-153901222D01*
X235338504Y-153927571D01*
X235391927Y-153946010D01*
X235448149Y-153956846D01*
X235505038Y-153960390D01*
X235562662Y-153957807D01*
X235614873Y-153950214D01*
X235675970Y-153932698D01*
X235727213Y-153907235D01*
X235768469Y-153874377D01*
X235799608Y-153834672D01*
X235820496Y-153788671D01*
X235831004Y-153736922D01*
X235832323Y-153709064D01*
X235825745Y-153652554D01*
X235807104Y-153601760D01*
X235778044Y-153559203D01*
X235740206Y-153527404D01*
X235687158Y-153507266D01*
X235678939Y-153506098D01*
X235678939Y-153294584D01*
X235732122Y-153302919D01*
X235781789Y-153319174D01*
X235827564Y-153342793D01*
X235869073Y-153373220D01*
X235905943Y-153409901D01*
X235937798Y-153452280D01*
X235964264Y-153499801D01*
X235984967Y-153551909D01*
X235999534Y-153608048D01*
X236007588Y-153667663D01*
X236009155Y-153709064D01*
X236006573Y-153764526D01*
X235999000Y-153816593D01*
X235986694Y-153865237D01*
X235959924Y-153931733D01*
X235923954Y-153990388D01*
X235879656Y-154041120D01*
X235827900Y-154083842D01*
X235769556Y-154118472D01*
X235705496Y-154144923D01*
X235636590Y-154163111D01*
X235563709Y-154172953D01*
X235513342Y-154174835D01*
X235440728Y-154170477D01*
X235370092Y-154157646D01*
X235302561Y-154136704D01*
X235239264Y-154108013D01*
X235181329Y-154071936D01*
X235129882Y-154028834D01*
X235086052Y-153979069D01*
X235050968Y-153923005D01*
X235025755Y-153861003D01*
X235011543Y-153793426D01*
X235008736Y-153745456D01*
X235012095Y-153686524D01*
X235021584Y-153631739D01*
X235036318Y-153582418D01*
X235059680Y-153532305D01*
X235092839Y-153489228D01*
X235113761Y-153473369D01*
X235040000Y-153470194D01*
X235040732Y-153293851D01*
G37*
G36*
X235373391Y-152616077D02*
G01*
X235322066Y-152631867D01*
X235271660Y-152658497D01*
X235233612Y-152693763D01*
X235208084Y-152737935D01*
X235195241Y-152791285D01*
X235193628Y-152821485D01*
X235198953Y-152873033D01*
X235220234Y-152927663D01*
X235257152Y-152971456D01*
X235309055Y-153004473D01*
X235360926Y-153023169D01*
X235421634Y-153035039D01*
X235472762Y-153039482D01*
X235509434Y-153040327D01*
X235563057Y-153038416D01*
X235612247Y-153032644D01*
X235670618Y-153018830D01*
X235720345Y-152997890D01*
X235760993Y-152969674D01*
X235798374Y-152923945D01*
X235820039Y-152866325D01*
X235825484Y-152811471D01*
X235819325Y-152762498D01*
X235796973Y-152710458D01*
X235765324Y-152672021D01*
X235722614Y-152640940D01*
X235669288Y-152618790D01*
X235659399Y-152616077D01*
X235659399Y-152406761D01*
X235713517Y-152415632D01*
X235764778Y-152431233D01*
X235812644Y-152453327D01*
X235856575Y-152481675D01*
X235896034Y-152516040D01*
X235930481Y-152556183D01*
X235959379Y-152601867D01*
X235982189Y-152652855D01*
X235998372Y-152708907D01*
X236007390Y-152769786D01*
X236009155Y-152812937D01*
X236006870Y-152862321D01*
X235995056Y-152931829D01*
X235973526Y-152995539D01*
X235942671Y-153053091D01*
X235902882Y-153104130D01*
X235854550Y-153148297D01*
X235798066Y-153185235D01*
X235733823Y-153214587D01*
X235686876Y-153229764D01*
X235636770Y-153241304D01*
X235583620Y-153249102D01*
X235527543Y-153253052D01*
X235498443Y-153253551D01*
X235440417Y-153251343D01*
X235385889Y-153244852D01*
X235334892Y-153234277D01*
X235287459Y-153219819D01*
X235223071Y-153191283D01*
X235166895Y-153155128D01*
X235119047Y-153112027D01*
X235079641Y-153062653D01*
X235048792Y-153007677D01*
X235026615Y-152947772D01*
X235013225Y-152883612D01*
X235008736Y-152815868D01*
X235012474Y-152756173D01*
X235023468Y-152700317D01*
X235041386Y-152648492D01*
X235065898Y-152600892D01*
X235096673Y-152557710D01*
X235133379Y-152519138D01*
X235175687Y-152485371D01*
X235223266Y-152456602D01*
X235275783Y-152433023D01*
X235332910Y-152414827D01*
X235373391Y-152405784D01*
X235373391Y-152616077D01*
G37*
G36*
X235373391Y-151758296D02*
G01*
X235322066Y-151774086D01*
X235271660Y-151800716D01*
X235233612Y-151835982D01*
X235208084Y-151880154D01*
X235195241Y-151933504D01*
X235193628Y-151963704D01*
X235198953Y-152015252D01*
X235220234Y-152069882D01*
X235257152Y-152113675D01*
X235309055Y-152146692D01*
X235360926Y-152165388D01*
X235421634Y-152177258D01*
X235472762Y-152181701D01*
X235509434Y-152182546D01*
X235563057Y-152180636D01*
X235612247Y-152174863D01*
X235670618Y-152161049D01*
X235720345Y-152140109D01*
X235760993Y-152111893D01*
X235798374Y-152066164D01*
X235820039Y-152008544D01*
X235825484Y-151953690D01*
X235819325Y-151904717D01*
X235796973Y-151852677D01*
X235765324Y-151814240D01*
X235722614Y-151783159D01*
X235669288Y-151761009D01*
X235659399Y-151758296D01*
X235659399Y-151548980D01*
X235713517Y-151557851D01*
X235764778Y-151573452D01*
X235812644Y-151595546D01*
X235856575Y-151623894D01*
X235896034Y-151658259D01*
X235930481Y-151698402D01*
X235959379Y-151744087D01*
X235982189Y-151795074D01*
X235998372Y-151851126D01*
X236007390Y-151912005D01*
X236009155Y-151955156D01*
X236006870Y-152004540D01*
X235995056Y-152074049D01*
X235973526Y-152137758D01*
X235942671Y-152195310D01*
X235902882Y-152246349D01*
X235854550Y-152290516D01*
X235798066Y-152327454D01*
X235733823Y-152356806D01*
X235686876Y-152371983D01*
X235636770Y-152383523D01*
X235583620Y-152391321D01*
X235527543Y-152395271D01*
X235498443Y-152395770D01*
X235440417Y-152393562D01*
X235385889Y-152387071D01*
X235334892Y-152376497D01*
X235287459Y-152362038D01*
X235223071Y-152333502D01*
X235166895Y-152297347D01*
X235119047Y-152254246D01*
X235079641Y-152204872D01*
X235048792Y-152149896D01*
X235026615Y-152089991D01*
X235013225Y-152025831D01*
X235008736Y-151958087D01*
X235012474Y-151898392D01*
X235023468Y-151842536D01*
X235041386Y-151790711D01*
X235065898Y-151743111D01*
X235096673Y-151699929D01*
X235133379Y-151661357D01*
X235175687Y-151627590D01*
X235223266Y-151598821D01*
X235275783Y-151575242D01*
X235332910Y-151557047D01*
X235373391Y-151548003D01*
X235373391Y-151758296D01*
G37*
G36*
X235399525Y-150657249D02*
G01*
X235977892Y-150657249D01*
X235977892Y-150873893D01*
X235410272Y-151216321D01*
X235242477Y-151216321D01*
X235242477Y-151019706D01*
X235399525Y-151019706D01*
X235686755Y-150850690D01*
X235399525Y-150850690D01*
X235399525Y-151019706D01*
X235242477Y-151019706D01*
X235242477Y-150855086D01*
X235040000Y-150855086D01*
X235040000Y-150657249D01*
X235242477Y-150657249D01*
X235242477Y-150552225D01*
X235399525Y-150552225D01*
X235399525Y-150657249D01*
G37*
D11*
%TO.C,SW2*%
X227415265Y-148765000D03*
X227415265Y-143765000D03*
%TD*%
%TO.C,SW1*%
X227415265Y-158115000D03*
X227415265Y-163115000D03*
%TD*%
M02*
