%TF.GenerationSoftware,KiCad,Pcbnew,9.0.3*%
%TF.CreationDate,2025-09-23T13:18:22-07:00*%
%TF.ProjectId,PGS_Trigger_Board,5047535f-5472-4696-9767-65725f426f61,rev?*%
%TF.SameCoordinates,Original*%
%TF.FileFunction,Profile,NP*%
%FSLAX46Y46*%
G04 Gerber Fmt 4.6, Leading zero omitted, Abs format (unit mm)*
G04 Created by KiCad (PCBNEW 9.0.3) date 2025-09-23 13:18:22*
%MOMM*%
%LPD*%
G01*
G04 APERTURE LIST*
%TA.AperFunction,Profile*%
%ADD10C,0.010000*%
%TD*%
%ADD11C,0.010000*%
G04 APERTURE END LIST*
D10*
X235840530Y-148890000D02*
G75*
G02*
X236590500Y-149640000I-30J-750000D01*
G01*
X218330000Y-156440000D02*
G75*
G02*
X217580000Y-155690000I0J750000D01*
G01*
D11*
X223040265Y-143147107D02*
X223040305Y-143139588D01*
X223040425Y-143132070D01*
X223040625Y-143124553D01*
X223040905Y-143117039D01*
X223041264Y-143109528D01*
X223041704Y-143102021D01*
X223042223Y-143094520D01*
X223042822Y-143087024D01*
X223043501Y-143079534D01*
X223044260Y-143072052D01*
X223045098Y-143064579D01*
X223046015Y-143057115D01*
X223047012Y-143049660D01*
X223048088Y-143042217D01*
X223049243Y-143034785D01*
X223050477Y-143027366D01*
X223051790Y-143019960D01*
X223053182Y-143012569D01*
X223054653Y-143005193D01*
X223055417Y-143001510D01*
X223056201Y-142997832D01*
X223057005Y-142994158D01*
X223057828Y-142990489D01*
X223058671Y-142986823D01*
X223059533Y-142983163D01*
X223060415Y-142979507D01*
X223061316Y-142975855D01*
X223062237Y-142972209D01*
X223063176Y-142968567D01*
X223064136Y-142964931D01*
X223065114Y-142961299D01*
X223066112Y-142957673D01*
X223067129Y-142954052D01*
X223068166Y-142950437D01*
X223069222Y-142946826D01*
X223070296Y-142943222D01*
X223071390Y-142939624D01*
X223072504Y-142936031D01*
X223073636Y-142932444D01*
X223074787Y-142928864D01*
X223075958Y-142925289D01*
X223077147Y-142921721D01*
X223078355Y-142918159D01*
X223079582Y-142914604D01*
X223080829Y-142911055D01*
X223082093Y-142907513D01*
X223083377Y-142903978D01*
X223084680Y-142900449D01*
X223086001Y-142896927D01*
X223087341Y-142893413D01*
X223088700Y-142889905D01*
X223090078Y-142886406D01*
X223091474Y-142882912D01*
X223092889Y-142879427D01*
X223094322Y-142875949D01*
X223094671Y-142875110D01*
D10*
X221355000Y-153440000D02*
G75*
G02*
X218805000Y-153440000I-1275000J0D01*
G01*
X218805000Y-153440000D02*
G75*
G02*
X221355000Y-153440000I1275000J0D01*
G01*
X217580000Y-151190000D02*
X217580000Y-155690000D01*
X231790265Y-148890000D02*
X231790265Y-143190000D01*
D11*
X223477186Y-142493654D02*
X223484150Y-142490818D01*
X223491144Y-142488056D01*
X223498167Y-142485369D01*
X223505218Y-142482756D01*
X223512297Y-142480218D01*
X223519402Y-142477756D01*
X223526533Y-142475370D01*
X223533690Y-142473059D01*
X223540870Y-142470825D01*
X223548074Y-142468667D01*
X223555301Y-142466586D01*
X223562550Y-142464582D01*
X223569820Y-142462655D01*
X223577110Y-142460805D01*
X223584419Y-142459033D01*
X223591747Y-142457338D01*
X223599093Y-142455722D01*
X223606455Y-142454184D01*
X223613834Y-142452724D01*
X223617529Y-142452024D01*
X223621227Y-142451343D01*
X223624930Y-142450682D01*
X223628635Y-142450041D01*
X223632345Y-142449419D01*
X223636057Y-142448817D01*
X223639773Y-142448235D01*
X223643491Y-142447672D01*
X223647213Y-142447130D01*
X223650937Y-142446607D01*
X223654664Y-142446104D01*
X223658394Y-142445621D01*
X223662127Y-142445157D01*
X223665862Y-142444714D01*
X223669599Y-142444290D01*
X223673338Y-142443887D01*
X223677079Y-142443503D01*
X223680823Y-142443139D01*
X223684568Y-142442795D01*
X223688315Y-142442471D01*
X223692064Y-142442166D01*
X223695815Y-142441882D01*
X223699566Y-142441618D01*
X223703320Y-142441374D01*
X223707074Y-142441149D01*
X223710830Y-142440945D01*
X223714586Y-142440761D01*
X223718344Y-142440596D01*
X223722102Y-142440452D01*
X223725862Y-142440327D01*
X223729621Y-142440223D01*
X223733382Y-142440138D01*
X223737142Y-142440074D01*
X223740904Y-142440030D01*
X223747372Y-142440000D01*
D10*
X223790265Y-164440000D02*
X231040265Y-164440000D01*
X223040265Y-156440000D02*
X223040265Y-163690000D01*
X231790265Y-163690000D02*
G75*
G02*
X231040265Y-164439965I-749965J0D01*
G01*
X231790265Y-163690000D02*
X231790265Y-157990000D01*
X231040265Y-142440000D02*
G75*
G02*
X231790300Y-143190000I35J-750000D01*
G01*
X217580000Y-151190000D02*
G75*
G02*
X218330000Y-150440000I750000J0D01*
G01*
X223040265Y-150440000D02*
X218330000Y-150440000D01*
D11*
X223251920Y-142642600D02*
X223257313Y-142637360D01*
X223262761Y-142632178D01*
X223268264Y-142627054D01*
X223273821Y-142621988D01*
X223279432Y-142616982D01*
X223285096Y-142612036D01*
X223290812Y-142607150D01*
X223296580Y-142602325D01*
X223302399Y-142597562D01*
X223308269Y-142592861D01*
X223314188Y-142588222D01*
X223320157Y-142583647D01*
X223326174Y-142579135D01*
X223332239Y-142574687D01*
X223338350Y-142570304D01*
X223344509Y-142565986D01*
X223350712Y-142561734D01*
X223356961Y-142557548D01*
X223360102Y-142555480D01*
X223363254Y-142553429D01*
X223366417Y-142551394D01*
X223369591Y-142549377D01*
X223372775Y-142547376D01*
X223375971Y-142545392D01*
X223379176Y-142543425D01*
X223382392Y-142541475D01*
X223385618Y-142539542D01*
X223388855Y-142537627D01*
X223392102Y-142535729D01*
X223395359Y-142533848D01*
X223398625Y-142531984D01*
X223401902Y-142530138D01*
X223405188Y-142528309D01*
X223408485Y-142526498D01*
X223411790Y-142524704D01*
X223415106Y-142522928D01*
X223418430Y-142521169D01*
X223421764Y-142519428D01*
X223425107Y-142517705D01*
X223428460Y-142516000D01*
X223431821Y-142514313D01*
X223435192Y-142512643D01*
X223438570Y-142510992D01*
X223441959Y-142509358D01*
X223445355Y-142507743D01*
X223448760Y-142506145D01*
X223452174Y-142504566D01*
X223455596Y-142503005D01*
X223459026Y-142501462D01*
X223462465Y-142499937D01*
X223465911Y-142498431D01*
X223469366Y-142496942D01*
X223472828Y-142495473D01*
X223476299Y-142494022D01*
X223477186Y-142493654D01*
D10*
X236590530Y-157240000D02*
G75*
G02*
X235840530Y-157990030I-750030J0D01*
G01*
X218330000Y-156440000D02*
X223040265Y-156440000D01*
X228515265Y-153440000D02*
G75*
G02*
X226315265Y-153440000I-1100000J0D01*
G01*
X226315265Y-153440000D02*
G75*
G02*
X228515265Y-153440000I1100000J0D01*
G01*
X223040265Y-143147107D02*
X223040265Y-150440000D01*
X236590530Y-157240000D02*
X236590530Y-149640000D01*
D11*
X223094671Y-142875110D02*
X223097600Y-142868185D01*
X223100603Y-142861292D01*
X223103679Y-142854430D01*
X223106827Y-142847602D01*
X223110048Y-142840808D01*
X223113341Y-142834048D01*
X223116706Y-142827323D01*
X223120143Y-142820635D01*
X223123650Y-142813983D01*
X223127228Y-142807368D01*
X223130877Y-142800792D01*
X223134595Y-142794255D01*
X223138382Y-142787758D01*
X223142239Y-142781301D01*
X223146164Y-142774886D01*
X223150157Y-142768513D01*
X223154217Y-142762182D01*
X223158345Y-142755894D01*
X223162540Y-142749651D01*
X223164662Y-142746546D01*
X223166801Y-142743453D01*
X223168956Y-142740371D01*
X223171127Y-142737300D01*
X223173315Y-142734241D01*
X223175519Y-142731194D01*
X223177739Y-142728158D01*
X223179976Y-142725134D01*
X223182228Y-142722122D01*
X223184496Y-142719122D01*
X223186781Y-142716135D01*
X223189081Y-142713159D01*
X223191397Y-142710196D01*
X223193729Y-142707245D01*
X223196076Y-142704306D01*
X223198439Y-142701380D01*
X223200818Y-142698467D01*
X223203212Y-142695566D01*
X223205621Y-142692678D01*
X223208046Y-142689803D01*
X223210486Y-142686941D01*
X223212941Y-142684091D01*
X223215411Y-142681255D01*
X223217897Y-142678432D01*
X223220397Y-142675623D01*
X223222913Y-142672826D01*
X223225443Y-142670043D01*
X223227988Y-142667273D01*
X223230548Y-142664518D01*
X223233122Y-142661775D01*
X223235711Y-142659047D01*
X223238314Y-142656332D01*
X223240932Y-142653631D01*
X223243565Y-142650944D01*
X223246211Y-142648271D01*
X223248872Y-142645612D01*
X223251920Y-142642600D01*
D10*
X235840530Y-148890000D02*
X231790265Y-148890000D01*
X231040265Y-142440000D02*
X223747372Y-142440000D01*
X231790265Y-157990000D02*
X235840530Y-157990000D01*
X223790265Y-164440000D02*
G75*
G02*
X223040300Y-163690000I35J750000D01*
G01*
M02*
