%TF.GenerationSoftware,KiCad,Pcbnew,8.0.2*%
%TF.CreationDate,2025-05-18T13:53:18-07:00*%
%TF.ProjectId,PGS_Trigger_Board,5047535f-5472-4696-9767-65725f426f61,rev?*%
%TF.SameCoordinates,Original*%
%TF.FileFunction,Legend,Top*%
%TF.FilePolarity,Positive*%
%FSLAX46Y46*%
G04 Gerber Fmt 4.6, Leading zero omitted, Abs format (unit mm)*
G04 Created by KiCad (PCBNEW 8.0.2) date 2025-05-18 13:53:18*
%MOMM*%
%LPD*%
G01*
G04 APERTURE LIST*
%ADD10C,0.100000*%
%ADD11C,0.200000*%
G04 APERTURE END LIST*
D10*
X223790000Y-150376050D02*
X223897143Y-150411764D01*
X223897143Y-150411764D02*
X224075714Y-150411764D01*
X224075714Y-150411764D02*
X224147143Y-150376050D01*
X224147143Y-150376050D02*
X224182857Y-150340335D01*
X224182857Y-150340335D02*
X224218571Y-150268907D01*
X224218571Y-150268907D02*
X224218571Y-150197478D01*
X224218571Y-150197478D02*
X224182857Y-150126050D01*
X224182857Y-150126050D02*
X224147143Y-150090335D01*
X224147143Y-150090335D02*
X224075714Y-150054621D01*
X224075714Y-150054621D02*
X223932857Y-150018907D01*
X223932857Y-150018907D02*
X223861428Y-149983192D01*
X223861428Y-149983192D02*
X223825714Y-149947478D01*
X223825714Y-149947478D02*
X223790000Y-149876050D01*
X223790000Y-149876050D02*
X223790000Y-149804621D01*
X223790000Y-149804621D02*
X223825714Y-149733192D01*
X223825714Y-149733192D02*
X223861428Y-149697478D01*
X223861428Y-149697478D02*
X223932857Y-149661764D01*
X223932857Y-149661764D02*
X224111428Y-149661764D01*
X224111428Y-149661764D02*
X224218571Y-149697478D01*
X224468571Y-149661764D02*
X224647143Y-150411764D01*
X224647143Y-150411764D02*
X224790000Y-149876050D01*
X224790000Y-149876050D02*
X224932857Y-150411764D01*
X224932857Y-150411764D02*
X225111429Y-149661764D01*
X225361429Y-149733192D02*
X225397143Y-149697478D01*
X225397143Y-149697478D02*
X225468572Y-149661764D01*
X225468572Y-149661764D02*
X225647143Y-149661764D01*
X225647143Y-149661764D02*
X225718572Y-149697478D01*
X225718572Y-149697478D02*
X225754286Y-149733192D01*
X225754286Y-149733192D02*
X225790000Y-149804621D01*
X225790000Y-149804621D02*
X225790000Y-149876050D01*
X225790000Y-149876050D02*
X225754286Y-149983192D01*
X225754286Y-149983192D02*
X225325714Y-150411764D01*
X225325714Y-150411764D02*
X225790000Y-150411764D01*
X230781764Y-150789999D02*
X231317478Y-150789999D01*
X231317478Y-150789999D02*
X231424621Y-150825714D01*
X231424621Y-150825714D02*
X231496050Y-150897142D01*
X231496050Y-150897142D02*
X231531764Y-151004285D01*
X231531764Y-151004285D02*
X231531764Y-151075714D01*
X231531764Y-150039999D02*
X231531764Y-150468570D01*
X231531764Y-150254285D02*
X230781764Y-150254285D01*
X230781764Y-150254285D02*
X230888907Y-150325713D01*
X230888907Y-150325713D02*
X230960335Y-150397142D01*
X230960335Y-150397142D02*
X230996050Y-150468570D01*
X223810000Y-157146050D02*
X223917143Y-157181764D01*
X223917143Y-157181764D02*
X224095714Y-157181764D01*
X224095714Y-157181764D02*
X224167143Y-157146050D01*
X224167143Y-157146050D02*
X224202857Y-157110335D01*
X224202857Y-157110335D02*
X224238571Y-157038907D01*
X224238571Y-157038907D02*
X224238571Y-156967478D01*
X224238571Y-156967478D02*
X224202857Y-156896050D01*
X224202857Y-156896050D02*
X224167143Y-156860335D01*
X224167143Y-156860335D02*
X224095714Y-156824621D01*
X224095714Y-156824621D02*
X223952857Y-156788907D01*
X223952857Y-156788907D02*
X223881428Y-156753192D01*
X223881428Y-156753192D02*
X223845714Y-156717478D01*
X223845714Y-156717478D02*
X223810000Y-156646050D01*
X223810000Y-156646050D02*
X223810000Y-156574621D01*
X223810000Y-156574621D02*
X223845714Y-156503192D01*
X223845714Y-156503192D02*
X223881428Y-156467478D01*
X223881428Y-156467478D02*
X223952857Y-156431764D01*
X223952857Y-156431764D02*
X224131428Y-156431764D01*
X224131428Y-156431764D02*
X224238571Y-156467478D01*
X224488571Y-156431764D02*
X224667143Y-157181764D01*
X224667143Y-157181764D02*
X224810000Y-156646050D01*
X224810000Y-156646050D02*
X224952857Y-157181764D01*
X224952857Y-157181764D02*
X225131429Y-156431764D01*
X225810000Y-157181764D02*
X225381429Y-157181764D01*
X225595714Y-157181764D02*
X225595714Y-156431764D01*
X225595714Y-156431764D02*
X225524286Y-156538907D01*
X225524286Y-156538907D02*
X225452857Y-156610335D01*
X225452857Y-156610335D02*
X225381429Y-156646050D01*
%TO.C,SW2*%
X224315265Y-143165000D02*
X224315265Y-149365000D01*
X224315265Y-143165000D02*
X226065265Y-143163839D01*
X224315265Y-149365000D02*
X226065265Y-149363839D01*
X228765265Y-143166161D02*
X230515265Y-143165000D01*
X228765265Y-149366161D02*
X230515265Y-149365000D01*
X230515265Y-143165000D02*
X230515265Y-149365000D01*
D11*
%TO.C,J1*%
X230470000Y-154239999D02*
X230470000Y-154239999D01*
X230570000Y-154240000D02*
X230570000Y-154240000D01*
X230570000Y-154240000D02*
X230570000Y-154240000D01*
D10*
X231845000Y-150090000D02*
X231845000Y-150090000D01*
X231845000Y-150090000D02*
X231845000Y-150090000D01*
X231845000Y-150090000D02*
X231845000Y-151940000D01*
X231845000Y-150090000D02*
X233120000Y-150090000D01*
X231845000Y-151940000D02*
X231845000Y-150090000D01*
X231845000Y-151940000D02*
X231845000Y-151940000D01*
X231845000Y-154940000D02*
X231845000Y-154940000D01*
X231845000Y-154940000D02*
X231845000Y-156790000D01*
X231845000Y-156790000D02*
X231845000Y-154940000D01*
X231845000Y-156790000D02*
X231845000Y-156790000D01*
X231845000Y-156790000D02*
X231845000Y-156790000D01*
X231845000Y-156790000D02*
X233120000Y-156790000D01*
X233120000Y-150090000D02*
X231845000Y-150090000D01*
X233120000Y-150090000D02*
X233120000Y-150090000D01*
X233120000Y-156790000D02*
X231845000Y-156790000D01*
X233120000Y-156790000D02*
X233120000Y-156790000D01*
X235620000Y-150090000D02*
X235620000Y-150090000D01*
X235620000Y-150090000D02*
X235895000Y-150090000D01*
X235620000Y-156790000D02*
X235620000Y-156790000D01*
X235620000Y-156790000D02*
X235870000Y-156790000D01*
X235870000Y-156790000D02*
X235620000Y-156790000D01*
X235870000Y-156790000D02*
X235870000Y-156790000D01*
X235895000Y-150090000D02*
X235620000Y-150090000D01*
X235895000Y-150090000D02*
X235895000Y-150090000D01*
X235895000Y-150090000D02*
X235895000Y-150090000D01*
X235895000Y-150090000D02*
X235895000Y-156790000D01*
X235895000Y-156790000D02*
X235895000Y-150090000D01*
X235895000Y-156790000D02*
X235895000Y-156790000D01*
D11*
X230470000Y-154239999D02*
G75*
G02*
X230570000Y-154240000I50000J-1D01*
G01*
X230470000Y-154239999D02*
G75*
G02*
X230570000Y-154240000I50000J-1D01*
G01*
X230570000Y-154240000D02*
G75*
G02*
X230470000Y-154239999I-50000J0D01*
G01*
D10*
%TO.C,SW1*%
X224315265Y-163715000D02*
X224315265Y-157515000D01*
X226065265Y-157513839D02*
X224315265Y-157515000D01*
X226065265Y-163713839D02*
X224315265Y-163715000D01*
X230515265Y-157515000D02*
X228765265Y-157516161D01*
X230515265Y-163715000D02*
X228765265Y-163716161D01*
X230515265Y-163715000D02*
X230515265Y-157515000D01*
%TD*%
M02*
